<?xml version="1.0" encoding="utf-8"?>
<!-- Generator: Adobe Illustrator 25.1.0, SVG Export Plug-In . SVG Version: 6.00 Build 0)  -->
<svg version="1.1" id="Layer_1" xmlns="http://www.w3.org/2000/svg" xmlns:xlink="http://www.w3.org/1999/xlink" x="0px" y="0px"
	 viewBox="0 0 55.4 55.4" style="enable-background:new 0 0 55.4 55.4;" xml:space="preserve">
<style type="text/css">
	.st0{fill:#2E6054;}
	.st1{fill:#FFFFFF;}
</style>
<path class="st0" d="M47.5,55.4H7.9c-4.4,0-7.9-3.6-7.9-7.9V7.9C0,3.6,3.6,0,7.9,0h39.5c4.4,0,7.9,3.6,7.9,7.9v39.5
	C55.4,51.8,51.8,55.4,47.5,55.4z"/>
<g>
	<path class="st1" d="M32.2,35.9l-13-13l-7.8-7.8v9.3l7.8,7.8l6.3,6.3l6.1,6.1c2.2-0.8,4.3-1.9,6-3.4L32.2,35.9z"/>
	<path class="st1" d="M24.7,9.5c11.1,0,19.2,8,19.2,18.2c0,4.8-1.8,9.1-4.8,12.3l-5.5-5.5c1.4-1.8,2.3-4.2,2.3-6.8
		c0-6.2-4.7-10.9-11.1-10.9h-5.5v3.4l-7.8-7.8V9.5H24.7z"/>
	<polygon class="st1" points="16.3,40.8 20.6,40.8 20.6,38.6 20.6,36.7 19.3,36.7 16.3,36.7 	"/>
	<rect x="11.5" y="36.7" class="st1" width="3.8" height="4"/>
	<rect x="11.5" y="41.8" class="st1" width="3.8" height="4"/>
	<rect x="16.3" y="41.8" class="st1" width="4.3" height="4"/>
</g>
</svg>
