<?xml version="1.0" encoding="utf-8"?>
<!-- Generator: Adobe Illustrator 16.0.0, SVG Export Plug-In . SVG Version: 6.00 Build 0)  -->
<!DOCTYPE svg PUBLIC "-//W3C//DTD SVG 1.1//EN" "http://www.w3.org/Graphics/SVG/1.1/DTD/svg11.dtd">
<svg version="1.1" id="Layer_1" xmlns="http://www.w3.org/2000/svg" xmlns:xlink="http://www.w3.org/1999/xlink" x="0px" y="0px"
	 width="84px" height="84px" viewBox="8 8 84 84" enable-background="new 8 8 84 84" xml:space="preserve">
<path d="M82,8H18C12.5,8,8,12.5,8,18v64c0,5.5,4.5,10,10,10h64c5.5,0,10-4.5,10-10V18C92,12.5,87.5,8,82,8z M88,82
	c0,3.34-2.66,6-6,6H18c-3.34,0-6-2.66-6-6V18c0-3.34,2.66-6,6-6h64c3.34,0,6,2.66,6,6V82z"/>
<path fill="#E61F2D" d="M80,42l-7.78,20h-3.39l-7.58-20h3.79l3.99,11.2c0.6,1.8,1.189,3.399,1.59,5.2h0.2c0.399-1.601,1-3.2,1.6-5.2
	L76.21,42H80z"/>
<path fill="#E61F2D" d="M53.6,44.75V55.2C53.6,57.6,54.2,59,56.4,59c1,0,1.6,0,2-0.2l0.199,2.8C58,61.8,56.8,62,55.4,62
	c-1.601,0-3-0.6-4-1.6c-1-1.2-1.4-2.801-1.4-5.2V44.75h-3V42h3v-5l3.6-1v6h5.2v2.75H53.6z"/>
<path fill="#E61F2D" d="M34.95,40.06C33.94,41.22,32.52,42,30.91,42c-0.4-1.35,0.21-2.71,1.21-3.87c1.01-1.16,2.62-1.94,4.03-2.13
	C36.35,37.55,35.75,39.09,34.95,40.06z"/>
<path fill="#E61F2D" d="M42.6,55c-0.81,1.4-1.21,2-1.81,3.2c-1.21,1.6-2.82,3.8-4.64,3.8c-1.81,0-2.22-1.2-4.43-1
	c-2.42,0-2.82,1.2-4.63,1c-2.02,0-3.43-1.8-4.44-3.6c-3.02-4.601-3.42-10.2-1.41-13.2c1.41-2,3.43-3.2,5.44-3.2
	c2.02,0,3.43,1.2,5.04,1.2c1.61,0,2.62-1.2,5.04-1.2c1.81,0,3.62,1,5.03,2.6C37.36,47,38.17,53.2,42.6,55z"/>
</svg>
