<svg xmlns="http://www.w3.org/2000/svg" width="393" height="435"><defs><clipPath id="a"><path d="M0 0h393v435H0z"/></clipPath></defs><g data-name="Banner image" clip-path="url(#a)"><g data-name="Group 1000"><path data-name="Path 677" d="M199.218 307.33a10.6 10.6 0 1 1 0-21.168h192.884v-19.961a17.484 17.484 0 0 0-3.2-10.084 17.59 17.59 0 0 0 4.472-11.687v-1.815a17.951 17.951 0 0 0-8.832-15.314 17.9 17.9 0 0 0 8.193-14.921v-33.266a17.382 17.382 0 0 0-1.876-7.862H270.797a5.752 5.752 0 1 1 0-11.491h106.07a18 18 0 0 0 9.533-15.725v-2.42c0-10.02-8.507-18.143-19-18.143h-47.048a17.708 17.708 0 0 0 5.869-13.107v-3.222c0-10.02-8.507-18.144-19-18.144h-55.744a19.473 19.473 0 0 0-12.2 4.234H82.982c-10.5 0-19 8.123-19 18.143v6.653a17.4 17.4 0 0 0 .871 5.443h-33.18c-10.5 0-19 8.123-19 18.143v2.419a18.193 18.193 0 0 0 12.182 16.934h-2.051c-10.5 0-19 8.124-19 18.144v33.263a17.658 17.658 0 0 0 5.448 12.7h126.305a4.239 4.239 0 1 1 0 8.468H6.354a17.424 17.424 0 0 0-2.553 9.071v1.815a17.924 17.924 0 0 0 8.455 15.091A18.2 18.2 0 0 0 0 276.482v44.15c0 10.02 8.507 18.143 19 18.143h354.1c10.495 0 19-8.123 19-18.143v-13.3Z" fill="#ececec"/><path data-name="Path 678" d="M89.782 176.405c.945-.883.861-2.78.482-3.8-1.385-3.731-4.037-5.224-10.26-5.224-.218 0-.434 0-.648.011-.046-3.843-4.178-7.13-7.086-7.44-8.445-.905-26.448-1.278-32.035.5a7.142 7.142 0 0 0-5.326 7.008c0 .077.005.153.007.229a13.862 13.862 0 0 0-2.188-.184c-5.632 0-10.2 3.337-10.2 7.455a5.6 5.6 0 0 0 .25 1.641h-.25c-.261 0-.52.007-.777.019h-.569a4.741 4.741 0 0 0-1.292.181c-5.862.9-10.266 4.722-10.266 9.305 0 5.25 4.343 9.382 14.973 9.383h65.617c5.715 0 9.492-5.594 9.492-9.577 0-4.907-4.335-8.942-9.924-9.507Z" fill="#fff"/><path data-name="Path 679" d="M373.819 236.618c.945-.883.861-2.781.482-3.8-1.385-3.731-4.037-5.223-10.26-5.223-.218 0-.434 0-.648.011-.045-3.843-4.178-7.13-7.086-7.441-8.445-.905-26.448-1.277-32.035.5a7.144 7.144 0 0 0-5.326 7.009c0 .077 0 .152.008.229a13.937 13.937 0 0 0-2.189-.174c-5.631 0-10.2 3.338-10.2 7.455a5.575 5.575 0 0 0 .251 1.641c-.083 0-.167-.005-.251-.005-.261 0-.52.008-.777.019h-.569a4.718 4.718 0 0 0-1.293.181c-5.862.9-10.266 4.723-10.266 9.305 0 5.25 4.343 9.382 14.974 9.382h65.617c5.715 0 9.492-5.594 9.492-9.577 0-4.91-4.335-8.947-9.924-9.512Z" fill="#fff"/><g data-name="Group 953"><g data-name="Group 942"><path data-name="Rectangle 190" fill="#919191" d="M181.258 275.03h35.733v31.374h-35.733z"/><g data-name="Group 941"><path data-name="Rectangle 191" fill="#676767" d="M132.72 305.437h132.811v9.983H132.72z"/><path data-name="Rectangle 192" fill="#919191" d="M132.72 312.567h132.811v2.853H132.72z"/></g></g><g data-name="Group 952"><path data-name="Rectangle 193" fill="#727272" d="M61.544 123.371h275.163v153.998H61.544z"/><path data-name="Rectangle 194" fill="#ececec" d="M70.198 128.779h257.856V261.78H70.198z"/><g data-name="Group 951"><path data-name="Rectangle 195" fill="#989898" d="M70.492 128.779h257.911v11.838H70.492z"/><g data-name="Group 950"><g data-name="Group 945"><g data-name="Group 943"><path data-name="Rectangle 196" fill="#dfdfdf" d="M76.188 145.088h51.097v111.564H76.188z"/><path data-name="Rectangle 197" fill="#fff" d="M79.169 148.495h45.137v3.406H79.169z"/><path data-name="Rectangle 198" fill="#fff" d="M79.169 154.882h45.137v3.406H79.169z"/><path data-name="Rectangle 199" fill="#fff" d="M79.169 208.108h45.137v3.407H79.169z"/><path data-name="Rectangle 200" fill="#fff" d="M79.169 215.028h45.137v1.916H79.169z"/><path data-name="Rectangle 201" fill="#fff" d="M79.169 218.86h45.137v1.916H79.169z"/><path data-name="Rectangle 202" fill="#fff" d="M79.169 223.118h45.137v1.917H79.169z"/><path data-name="Rectangle 203" fill="#fff" d="M84.918 165.529h33.639v34.065H84.918z"/></g><g data-name="Group 944" fill="#b8d0ff"><path data-name="Path 680" d="M87.661 230.955v15.69l13.547-7.842Z"/><path data-name="Path 681" d="M104.772 230.955v15.69l13.547-7.842Z"/></g></g><g data-name="Group 949"><path data-name="Rectangle 204" fill="#dfdfdf" d="M132.794 145.939h188.635v109.859H132.794z"/><g data-name="Group 946" fill="#c4c4c4"><path data-name="Path 682" d="M167.287 165.529a13.2 13.2 0 1 1-13.2-13.2 13.2 13.2 0 0 1 13.2 13.2Z"/><path data-name="Path 683" d="M201.778 165.529a13.2 13.2 0 1 1-13.2-13.2 13.2 13.2 0 0 1 13.2 13.2Z"/><path data-name="Path 684" d="M236.269 165.529a13.2 13.2 0 1 1-13.2-13.2 13.2 13.2 0 0 1 13.2 13.2Z"/></g><g data-name="Group 947" fill="#ececec"><path data-name="Rectangle 205" d="M245.637 157.153H264v2.555h-18.363z"/><path data-name="Rectangle 206" d="M271.372 157.153h18.362v2.555h-18.362z"/><path data-name="Rectangle 207" d="M297.107 157.153h18.364v2.555h-18.364z"/></g><g data-name="Group 948" fill="#c4c4c4"><path data-name="Rectangle 208" d="M140.887 189.798h85.228v3.406h-85.228z"/><path data-name="Rectangle 209" d="M140.887 197.463h74.387v2.981h-74.387z"/><path data-name="Rectangle 210" d="M140.887 205.127h138.816v3.832H140.887z"/><path data-name="Rectangle 211" d="M140.887 213.217h34.557v4.258h-34.557z"/><path data-name="Rectangle 212" d="M140.887 223.862h95.471v5.11h-95.471z"/><path data-name="Rectangle 213" d="M140.887 234.934h43.929v1.277h-43.929z"/><path data-name="Rectangle 214" d="M140.887 242.598h77.315v5.11h-77.315z"/></g><path data-name="Rectangle 215" fill="#ececec" d="M289.92 182.56h22.142v65.148H289.92z"/></g><path data-name="Path 758" d="M411.1 231.078c-10.217-2.464-19.962-6.439-29.479-10.847-9.544-4.423-19.131-8.862-28.531-13.588-50.422-25.343-95.241-63.11-129.93-107.782h-51.226v133h242.647a119.995 119.995 0 0 1-3.481-.783Z" transform="translate(-101.736 29.917)" fill="#ececec" opacity=".5" style="mix-blend-mode:multiply;isolation:isolate"/></g></g></g></g><g data-name="Group 955"><path data-name="Path 686" d="M282.784 132.035c1.173-1.215 1.07-3.83.6-5.24-1.721-5.14-5.016-7.2-12.747-7.2-.27 0-.539.006-.8.015-.057-5.294-5.19-9.822-8.8-10.25-10.491-1.246-32.856-1.76-39.8.685a9.711 9.711 0 0 0-6.616 9.653c0 .107.006.211.009.316a15.512 15.512 0 0 0-2.718-.24c-7 0-12.669 4.6-12.669 10.27a8.454 8.454 0 0 0 .311 2.26c-.1 0-.207-.006-.311-.006-.325 0-.645.009-.965.026h-.707a5.361 5.361 0 0 0-1.606.249c-7.282 1.235-12.754 6.5-12.754 12.818 0 7.232 5.4 12.924 18.6 12.925h81.514c7.1 0 11.793-7.706 11.793-13.193-.006-6.747-5.392-12.309-12.334-13.088Z" fill="#fff"/><g data-name="Group 954"><path data-name="Path 687" d="m200.849 118.884-2.607-4.605a2.277 2.277 0 0 0-3.111-.8l-1.493.844a2.553 2.553 0 0 1-2.918-.247 21.489 21.489 0 0 0-1.907-1.443 2.374 2.374 0 0 1-.959-2.69l.477-1.612a2.142 2.142 0 0 0-1.548-2.727l-5.241-1.339a2.372 2.372 0 0 0-2.845 1.607l-.487 1.609a2.651 2.651 0 0 1-2.319 1.861 20.8 20.8 0 0 0-2.444.323 2.462 2.462 0 0 1-2.637-1.173l-.81-1.434a2.274 2.274 0 0 0-3.108-.795l-4.8 2.709a2.269 2.269 0 0 0-.926 3.071l.813 1.431a2.473 2.473 0 0 1-.355 2.868 21.434 21.434 0 0 0-1.542 1.917 2.639 2.639 0 0 1-2.786 1.023l-1.629-.42a2.387 2.387 0 0 0-2.855 1.613l-1.55 5.173a2.153 2.153 0 0 0 1.544 2.729l1.629.418a2.375 2.375 0 0 1 1.82 2.209 19.364 19.364 0 0 0 .255 2.369 2.556 2.556 0 0 1-1.3 2.626l-1.494.842a2.261 2.261 0 0 0-.921 3.066l2.606 4.6a2.27 2.27 0 0 0 3.113.792l1.494-.84a2.544 2.544 0 0 1 2.918.247 19.967 19.967 0 0 0 1.905 1.441 2.367 2.367 0 0 1 .952 2.691l-.483 1.605a2.164 2.164 0 0 0 1.552 2.736l5.239 1.337a2.385 2.385 0 0 0 2.853-1.6l.482-1.61a2.649 2.649 0 0 1 2.319-1.854 23.1 23.1 0 0 0 2.441-.326 2.462 2.462 0 0 1 2.642 1.175l.806 1.428a2.28 2.28 0 0 0 3.116.8l4.8-2.706a2.259 2.259 0 0 0 .917-3.074l-.8-1.428a2.451 2.451 0 0 1 .344-2.863 22.014 22.014 0 0 0 1.546-1.92 2.652 2.652 0 0 1 2.786-1.024l1.636.412a2.384 2.384 0 0 0 2.85-1.61l1.552-5.169a2.151 2.151 0 0 0-1.547-2.731l-1.631-.417a2.381 2.381 0 0 1-1.812-2.211 20.515 20.515 0 0 0-.255-2.367 2.535 2.535 0 0 1 1.3-2.625l1.5-.842a2.263 2.263 0 0 0 .913-3.07Zm-17.215 20.463c-6.459 4.313-15.07 2.112-18.2-4.647a12.336 12.336 0 0 1 4.588-15.261c6.449-4.306 15.056-2.108 18.191 4.658a12.342 12.342 0 0 1-4.579 15.25Z" fill="#ff4747"/><path data-name="Path 688" d="m221.616 129.407-1.732-3.064a1.512 1.512 0 0 0-2.068-.528l-.993.559a1.7 1.7 0 0 1-1.943-.162 13.881 13.881 0 0 0-1.269-.959 1.586 1.586 0 0 1-.637-1.79l.318-1.072a1.425 1.425 0 0 0-1.029-1.814l-3.486-.894a1.576 1.576 0 0 0-1.893 1.069l-.325 1.068a1.758 1.758 0 0 1-1.541 1.235 13.639 13.639 0 0 0-1.626.216 1.642 1.642 0 0 1-1.754-.782l-.538-.954a1.516 1.516 0 0 0-2.069-.529l-3.194 1.8a1.509 1.509 0 0 0-.615 2.043l.539.95a1.644 1.644 0 0 1-.238 1.911 14.706 14.706 0 0 0-1.024 1.274 1.759 1.759 0 0 1-1.853.681l-1.086-.281a1.589 1.589 0 0 0-1.9 1.073l-1.032 3.442a1.433 1.433 0 0 0 1.027 1.816l1.083.278a1.579 1.579 0 0 1 1.212 1.47 12.949 12.949 0 0 0 .171 1.575 1.7 1.7 0 0 1-.863 1.749l-.99.557a1.506 1.506 0 0 0-.615 2.042l1.735 3.069a1.512 1.512 0 0 0 2.072.526l.992-.558a1.7 1.7 0 0 1 1.943.164 13.081 13.081 0 0 0 1.268.959 1.573 1.573 0 0 1 .633 1.791l-.322 1.065a1.44 1.44 0 0 0 1.035 1.82l3.483.891a1.587 1.587 0 0 0 1.9-1.066l.322-1.069a1.759 1.759 0 0 1 1.542-1.235 16.175 16.175 0 0 0 1.624-.216 1.633 1.633 0 0 1 1.758.78l.539.952a1.513 1.513 0 0 0 2.07.527l3.194-1.8a1.5 1.5 0 0 0 .609-2.042l-.533-.951a1.629 1.629 0 0 1 .228-1.9 14.392 14.392 0 0 0 1.028-1.278 1.775 1.775 0 0 1 1.856-.681l1.085.275a1.589 1.589 0 0 0 1.9-1.07l1.031-3.439a1.431 1.431 0 0 0-1.028-1.817l-1.086-.278a1.582 1.582 0 0 1-1.206-1.469 13.684 13.684 0 0 0-.167-1.575 1.686 1.686 0 0 1 .86-1.747l1-.56a1.5 1.5 0 0 0 .598-2.047Z" fill="#ff8787"/></g></g><path data-name="Path 689" d="M94.903 343.281c0 1.949-10.319 3.529-23.047 3.529s-23.047-1.58-23.047-3.529 10.318-3.53 23.047-3.53 23.047 1.58 23.047 3.53Z" fill="#d5d5d5"/><g data-name="Group 972"><g data-name="Group 970"><g data-name="Group 966"><g data-name="Group 956"><path data-name="Path 690" d="M87.648 336.051c1.407 2.148 4.181 2.847 5.952 4.686a1.142 1.142 0 0 1 .3.453.832.832 0 0 1-.556.924 2.259 2.259 0 0 1-1.148.024l-6.5-.987a1.809 1.809 0 0 1-.68-.2 1.954 1.954 0 0 1-.691-1.363q-.475-2.338-.947-4.673a16.345 16.345 0 0 1 4.267 1.133" fill="#132444"/><path data-name="Path 691" d="M82.496 336.153c-.2 0-.4 0-.6-.007-2.171-11.254.268-23.61-2.826-34.741a99.262 99.262 0 0 0-3.744-10c-4.249-10.69-7.941-25.075-8.84-36.707 4.316-1 8.526-1.251 12.742-3.186 7.828 26.068 11.421 55.91 11.52 83.417a43.127 43.127 0 0 1-8.251 1.221" fill="#ff8787"/><path data-name="Path 692" d="M174.469 329.327c3.4 5.391 5.218 11.715 7.247 17.745 4.86 14.45 4.788 30.012 4.5 44.392-.869.1-1.74.175-2.614.222-.2 0-.4 0-.6-.007-2.171-11.254.268-23.61-2.826-34.741a99.278 99.278 0 0 0-3.744-10 115.114 115.114 0 0 1-6.178-21.488 10.1 10.1 0 0 1 4.215 3.877Z" transform="translate(-101.101 -55.534)" fill="#5d81ec" opacity=".4" style="mix-blend-mode:multiply;isolation:isolate"/></g><g data-name="Group 958"><path data-name="Path 693" d="M56.017 337.265c1.406 2.15 4.181 2.849 5.952 4.688a1.118 1.118 0 0 1 .3.452.834.834 0 0 1-.557.924 2.251 2.251 0 0 1-1.146.024l-6.5-.987a1.8 1.8 0 0 1-.68-.2 1.957 1.957 0 0 1-.691-1.363l-.948-4.674a16.426 16.426 0 0 1 4.267 1.133" fill="#132444"/><g data-name="Group 957"><path data-name="Path 694" d="M75.735 251.32c-1.359 5.7-5.873 31.5-6.723 35.224a84.83 84.83 0 0 1-3.037 8.912c-.913 2.614-1.618 5.3-2.3 7.989-2.852 11.258-5.3 22.677-6.138 34.283a23.322 23.322 0 0 0-7.528-.41c-1.392-13.069-1.988-26.394.557-39.271 1.138-5.753 2.9-11.385 3.57-17.215.827-7.136.014-14.443 1.372-21.493a3.354 3.354 0 0 1 3-3.176q8.564-2.63 17.222-4.842" fill="#ff8787"/><path data-name="Path 695" d="M60.874 257.047c-.141 8.1-.29 16.252-1.96 24.176-1.458 6.915-4.055 13.56-5.335 20.512-2.075 11.281-.6 22.876.881 34.251" fill="none" stroke="#132444" stroke-miterlimit="10" stroke-width=".5"/><path data-name="Path 696" d="M142.926 331.6c.721-6.226.195-12.584.951-18.785a29.066 29.066 0 0 1 2.212 15.613c-1.026 9.2-4.257 17.979-5.107 27.209a99.939 99.939 0 0 0-.142 21.528c.454 3.6 1.3 9.988 5.506 11.094l-.02.237a23.325 23.325 0 0 0-7.528-.41c-1.392-13.069-1.988-26.394.557-39.271 1.139-5.754 2.896-11.386 3.571-17.215Z" transform="translate(-88.789 -50.767)" fill="#5d81ec" opacity=".3" style="mix-blend-mode:multiply;isolation:isolate"/></g></g><g data-name="Group 965"><g data-name="Group 962"><g data-name="Group 959"><path data-name="Path 697" d="M74.616 215.729a204.278 204.278 0 0 0 17.521 13.412 97.305 97.305 0 0 0 6.828-14.783q1.985 1.011 3.967 2.024a52.725 52.725 0 0 1-4.682 15.487 8.338 8.338 0 0 1-2.779 3.661c-2.576 1.6-5.823.072-8.444-1.446l-8.409-4.864a3.913 3.913 0 0 1-1.17-.891 4.26 4.26 0 0 1-.685-2.068 70.806 70.806 0 0 0-2.147-10.532" fill="#fa6e61"/><path data-name="Path 698" d="M73.969 214.859a45.192 45.192 0 0 1 11.107 8.28 1.548 1.548 0 0 1 .418 2.253l-3.087 5.936a.57.57 0 0 1-.886.316c-3.261-1.223-6.739-2.614-8.659-5.523a13.858 13.858 0 0 1-1.881-6.247 6.048 6.048 0 0 1 .472-3.769c.664-1.106 2.312-1.7 2.515-1.246" fill="#ffbf00"/><path data-name="Path 699" d="M98.305 216.123a11.446 11.446 0 0 0 .578-4.52 5.336 5.336 0 0 1-.011-2.789c.082-.173.309-.341.5-.217a.424.424 0 0 1 .137.387 7.61 7.61 0 0 0 .471 2.169 15.709 15.709 0 0 0 1.436-3.5 1.667 1.667 0 0 1 .3-.671c.168-.189.559-.419.748-.209.236.265-.537 2.445-.805 3.668l1.231-2.889c.1-.235.4-.521.624-.323.3.265-.582 2.559-.874 3.839q.64-1.346 1.282-2.691c.172-.36.687-.944.825-.542.254.736-.685 2.528-1.151 3.87l.985-1.623c.109-.178.372-.37.548-.2a.315.315 0 0 1 .051.319 50.906 50.906 0 0 1-2.3 6.591c-1.3-.738-3.456.384-4.569-.664" fill="#fa6e61"/></g><g data-name="Group 961"><path data-name="Path 700" d="M73.468 214.923c-2.642-1.436-5.678-.139-8.643.359-4.83.811-9.845 1.695-13.843 4.526a3.507 3.507 0 0 0-.909.846 3.455 3.455 0 0 0-.455 1.787c-.363 7.262 4.2 13.857 5.226 21.056a44.05 44.05 0 0 1 .263 6.657l-.09 8.122q12.9-3.814 25.982-6.993c-.654-11.31-3.378-22.384-6.091-33.384a6.051 6.051 0 0 0-1.44-2.977" fill="#ff8787"/><path data-name="Path 701" d="M49.618 222.441a3.444 3.444 0 0 1 .456-1.787 3.481 3.481 0 0 1 .908-.846c.418-.3.847-.565 1.286-.82a22.319 22.319 0 0 1 2.7 2.635 19.058 19.058 0 0 1 3.268 5.847c1.615 4.276 2.376 8.812 3.832 13.135a10.531 10.531 0 0 0 1.32 2.868A3.081 3.081 0 0 0 66 244.835a5.3 5.3 0 0 0 2.914-1.355 23.624 23.624 0 0 0 2.538-2.386c.8-.886 1.492-1.844 2.237-2.772.343-.425.768-.767 1.089-1.225a9.975 9.975 0 0 0 .743-1.473 10.483 10.483 0 0 0 .785-3.585 22.945 22.945 0 0 0 .005-3.854 62.366 62.366 0 0 0-1-7.373 16.275 16.275 0 0 0-2.285-6.1c.148.064.294.13.439.209a6.051 6.051 0 0 1 1.44 2.977c2.713 11 5.437 22.074 6.091 33.384q-13.074 3.177-25.982 6.993l.09-8.122a43.729 43.729 0 0 0-.265-6.657c-1.021-7.2-5.587-13.794-5.225-21.056" fill="#ff4747"/><g data-name="Group 960" fill="none" stroke="#26395e" stroke-miterlimit="10" stroke-width=".5"><path data-name="Path 702" d="M72.136 227.5c-.894 2.4-.594 5.1-1.375 7.533a13.9 13.9 0 0 1-4.981 6.362"/><path data-name="Path 703" d="M68.719 222.608a28.665 28.665 0 0 1-.8 6.717 9.611 9.611 0 0 1-3.712 5.5"/></g></g></g><g data-name="Group 964"><path data-name="Path 704" d="M63.58 212.331a11.291 11.291 0 0 0 1.778 4.678 5.615 5.615 0 0 1-3.919 1.178 7.437 7.437 0 0 1-2.061-.181.4.4 0 0 1-.2-.1.416.416 0 0 1-.083-.216q-.773-4.452-1.415-8.927c1.42.248 2.891-.2 4.322-.016a.7.7 0 0 1 .68.523 11.585 11.585 0 0 1 .9 3.06" fill="#ffd3cf"/><path data-name="Path 705" d="M59.904 213.306c-1.2-1.274-1.4-3.065-2.225-4.545 1.42.247 2.889-.2 4.318-.016a.9.9 0 0 1 .4.12.908.908 0 0 1 .286.4 11.584 11.584 0 0 1 .9 3.06 11.246 11.246 0 0 0 .728 2.685 5.729 5.729 0 0 1-4.405-1.707" fill="#feb6b0"/><path data-name="Path 706" d="M64.216 204.497c.462.964.645 2.031 1.063 3.012.572 1.34 1.6 2.67 1.261 4.086a3.016 3.016 0 0 1-2.668 2.08 5.361 5.361 0 0 1-3.418-.995 8.231 8.231 0 0 1-3.591-5.587 2.142 2.142 0 0 1 .593-2.136 7.057 7.057 0 0 1 2.827-1.68 3.417 3.417 0 0 1 3.932 1.219" fill="#ffd3cf"/><g data-name="Group 963" fill="#2a2c30"><path data-name="Path 707" d="M61.474 201.849a3.26 3.26 0 0 1 2.9 2.5.383.383 0 0 1-.018.285c-.1.154-.336.13-.505.053a.817.817 0 0 0-.524-.139c-.293.077-.307.467-.41.743a1.623 1.623 0 0 1-1.356.818 2.977 2.977 0 0 1-1.636-.122c-.344-.149-.636-.4-.99-.521a.83.83 0 0 0-1 .254c-.216.407.175.918.007 1.347a.855.855 0 0 1-.772.458 1.69 1.69 0 0 1-1.463-.8 2.349 2.349 0 0 1-.277-1.652 3.163 3.163 0 0 1 .8-1.606c.984-1.066 2.553-1.368 4.007-1.612.574-.1 1.215-.178 1.246 0"/><path data-name="Path 708" d="m60.031 201.918 4.11-1.1a3.485 3.485 0 0 1 1.155-.172 2.294 2.294 0 0 1 1.409.719 3.164 3.164 0 0 1 .733 3.258 1.973 1.973 0 0 1-1.851 1.4c-.889-.074-1.454-.917-2.257-1.283a.63.63 0 0 0-.548-.042 1.1 1.1 0 0 0-.233.223 1.12 1.12 0 0 1-.992.268 1.845 1.845 0 0 1-.914-.506 2.555 2.555 0 0 1-.613-2.766"/><path data-name="Path 709" d="M58.327 204.98a5.41 5.41 0 0 0 .166 2.647 1.361 1.361 0 0 1 .083.349 1.188 1.188 0 0 1-.072.4l-.538 1.814c-1.1-.532-2.013-1.771-2.507-4.026-.085-.4-.014-.457.171-.82a2 2 0 0 1 1.743-.793 1.3 1.3 0 0 1 .647.07c.2.092.348.32.3.354"/></g><path data-name="Path 710" d="M58.551 208.135a1.522 1.522 0 0 0-1.548-.558c-1 .244-.022 2.1 1.681 2.345a.624.624 0 0 0 .647-.2.634.634 0 0 0-.035-.546 2.164 2.164 0 0 0-.745-1.042" fill="#ffd3cf"/></g></g></g><g data-name="Group 969"><g data-name="Group 967" fill="#263238"><path data-name="Rectangle 216" d="M128.66 211.271h12.3a7.428 7.428 0 0 1 7.428 7.428 7.427 7.427 0 0 1-7.427 7.427H128.66a7.428 7.428 0 0 1-7.428-7.427 7.428 7.428 0 0 1 7.428-7.428Z"/><path data-name="Rectangle 217" d="M128.661 227.921h12.295a7.428 7.428 0 0 1 7.428 7.428 7.427 7.427 0 0 1-7.427 7.427H128.66a7.428 7.428 0 0 1-7.428-7.426 7.429 7.429 0 0 1 7.429-7.429Z"/><path data-name="Path 711" d="M75.04 293.376V187.443a9.528 9.528 0 0 1 9.518-9.517h52.032a9.527 9.527 0 0 1 9.515 9.517v105.933a9.524 9.524 0 0 1-9.515 9.516H84.558a9.524 9.524 0 0 1-9.518-9.516Zm9.518-111.8a5.87 5.87 0 0 0-5.864 5.864v105.936a5.87 5.87 0 0 0 5.864 5.865h52.032a5.872 5.872 0 0 0 5.864-5.865V187.443a5.871 5.871 0 0 0-5.864-5.864Z"/></g><path data-name="Path 712" d="M78.497 292.169a7.465 7.465 0 0 0 7.358 7.571h49.789a7.464 7.464 0 0 0 7.356-7.571V187.904a7.464 7.464 0 0 0-7.356-7.569H85.855a7.465 7.465 0 0 0-7.358 7.569Z" fill="#bfbfbf"/><path data-name="Path 713" d="m133.146 223.226-3.2-4.213a2.277 2.277 0 0 0-3.19-.372l-1.366 1.037a2.553 2.553 0 0 1-2.925.147 21.407 21.407 0 0 0-2.083-1.174 2.376 2.376 0 0 1-1.311-2.538l.257-1.661a2.142 2.142 0 0 0-1.9-2.495l-5.372-.628a2.372 2.372 0 0 0-2.6 1.974l-.267 1.66a2.648 2.648 0 0 1-2.048 2.155 20.774 20.774 0 0 0-2.378.648 2.464 2.464 0 0 1-2.771-.809l-1-1.312a2.274 2.274 0 0 0-3.187-.371l-4.4 3.329a2.269 2.269 0 0 0-.505 3.167l1 1.309a2.472 2.472 0 0 1 .033 2.89 21.455 21.455 0 0 0-1.27 2.106 2.64 2.64 0 0 1-2.624 1.388l-1.671-.2a2.387 2.387 0 0 0-2.612 1.982l-.842 5.334a2.152 2.152 0 0 0 1.9 2.5l1.671.2a2.376 2.376 0 0 1 2.1 1.945 19.316 19.316 0 0 0 .571 2.314 2.555 2.555 0 0 1-.932 2.776l-1.367 1.036a2.261 2.261 0 0 0-.5 3.162l3.2 4.214a2.268 2.268 0 0 0 3.19.367l1.369-1.031a2.54 2.54 0 0 1 2.925-.148 19.665 19.665 0 0 0 2.082 1.172 2.37 2.37 0 0 1 1.3 2.54l-.264 1.656a2.163 2.163 0 0 0 1.906 2.5l5.371.622a2.385 2.385 0 0 0 2.611-1.973l.262-1.659a2.648 2.648 0 0 1 2.049-2.147 23.159 23.159 0 0 0 2.376-.652 2.463 2.463 0 0 1 2.775.81l.99 1.307a2.28 2.28 0 0 0 3.2.37l4.4-3.326a2.259 2.259 0 0 0 .5-3.169l-.988-1.307a2.45 2.45 0 0 1-.043-2.883 21.945 21.945 0 0 0 1.274-2.11 2.652 2.652 0 0 1 2.624-1.389l1.676.188a2.383 2.383 0 0 0 2.608-1.976l.845-5.331a2.152 2.152 0 0 0-1.9-2.5l-1.672-.194a2.382 2.382 0 0 1-2.092-1.948 20.49 20.49 0 0 0-.57-2.311 2.533 2.533 0 0 1 .931-2.775l1.371-1.035a2.263 2.263 0 0 0 .483-3.168Zm-14.314 22.587c-5.822 5.14-14.65 4.115-18.657-2.163a12.337 12.337 0 0 1 2.5-15.739c5.813-5.133 14.638-4.109 18.652 2.175a12.342 12.342 0 0 1-2.495 15.727Z" fill="#fff"/><g data-name="Group 968"><path data-name="Rectangle 218" fill="#fff" d="M86.456 191.207h48.585v4.983H86.456z"/><path data-name="Rectangle 219" fill="#fff" d="M86.456 199.512H117.6v4.983H86.456z"/><path data-name="Rectangle 220" fill="#fff" d="M86.456 268.86h44.848v4.983H86.456z"/><path data-name="Rectangle 221" fill="#fff" d="M86.456 277.165h44.848v4.983H86.456z"/><path data-name="Rectangle 222" fill="#fff" d="M86.456 285.886h36.127v4.983H86.456z"/><path data-name="Path 756" d="M248.431 292.576a101.54 101.54 0 0 1-14.978-11.689c-9.569-8.783-17.146-20.37-23.032-31.868a166.963 166.963 0 0 1-13.511-37.749c-1.642-6.9-3.088-13.841-4.66-20.755-.61-2.683-1.547-5.417-2.1-8.17a7.553 7.553 0 0 0-4.891 7.124v104.265a7.465 7.465 0 0 0 7.358 7.571h49.789a7.464 7.464 0 0 0 7.356-7.571v-.389a25.368 25.368 0 0 1-1.331-.769Z" transform="translate(-106.761 -1.565)" fill="#bfbfbf" opacity=".3" style="mix-blend-mode:multiply;isolation:isolate"/></g></g></g><g data-name="Group 971"><path data-name="Path 715" d="M51.611 222.566c3.288 1.933 4.532 5.6 5.29 9a70.907 70.907 0 0 1 1.469 9.776 3.88 3.88 0 0 0 .5 1.958c.964 1.408 3.266 1.349 5.138 1.211 4.563-.334 8.864 1.052 13.659.7a6.49 6.49 0 0 0-.787 3.9c-6.416 1.084-12.975 2.173-19.438 1.372a13.473 13.473 0 0 1-5.1-1.476c-3.268-1.9-4.371-5.595-4.984-8.986a73.71 73.71 0 0 1-1.137-10.966c-.049-1.715 0-3.55 1.117-4.966s3.561-1.945 4.272-1.527" fill="#ffd3cf"/><path data-name="Path 716" d="M50.739 219.997c1.941.442 3.178 2.213 4.06 3.91a31.746 31.746 0 0 1 3.575 14 85.462 85.462 0 0 0-11.238.316q-1.056-4.319-1.694-8.72a10.735 10.735 0 0 1 .049-4.639 8.52 8.52 0 0 1 1.447-2.645c1.118-1.466 2.753-2.464 3.8-2.226" fill="#ff6161"/><path data-name="Path 717" d="M76.78 245.261a6.632 6.632 0 0 0 3.255-.835 6.542 6.542 0 0 1 2.815-.922c.206.011.465.148.414.348-.035.141-.2.2-.339.242a8.507 8.507 0 0 0-2.009 1.1 20.5 20.5 0 0 0 4.1.057 2.147 2.147 0 0 1 .794.03c.255.078.641.329.5.557-.175.286-2.68.351-4.019.526l3.4.085c.276.007.682.165.569.419-.152.339-2.814.349-4.221.523l3.218.194c.431.027 1.222.267.868.514-.645.454-2.819.253-4.357.3l2.023.294c.222.033.519.191.419.393-.052.106-.187.133-.3.146-2.571.318-4.839-.041-7.736 0 .242-1.328-.014-2.7.613-3.977" fill="#ffd3cf"/></g></g><g data-name="Group 973" transform="translate(105.148 108.259)"><path data-name="Path 718" d="M2.336 71.632V0h34.882v15.292" fill="none" stroke="#ff4747" stroke-miterlimit="10" stroke-dasharray="3 3"/><circle data-name="Ellipse 46" cx="2.024" cy="2.024" r="2.024" transform="translate(35.349 10.901)" fill="#ff4747"/><circle data-name="Ellipse 47" cx="2.024" cy="2.024" r="2.024" transform="translate(0 66.182)" fill="#ff4747"/></g><path data-name="Path 719" d="M354.438 343.281c0 1.949-8.646 3.529-19.309 3.529s-19.309-1.58-19.309-3.529 8.646-3.53 19.309-3.53 19.309 1.58 19.309 3.53Z" fill="#d5d5d5"/><path data-name="Path 720" d="M261.337 194.218v-94.056h-56.683v37.643" fill="none" stroke="#ff4747" stroke-miterlimit="10" stroke-dasharray="3 3"/><g data-name="Group 976"><g data-name="Group 974" transform="translate(118.229 301.822)" fill="#ff4747"><circle data-name="Ellipse 48" cx="2.024" cy="2.024" r="2.024"/><circle data-name="Ellipse 49" cx="2.024" cy="2.024" r="2.024" transform="translate(54.191 21.178)"/></g><g data-name="Group 975" transform="translate(120.565 294.503)"><path data-name="Path 721" d="M0 8.139v22.383h177.523V0" fill="none" stroke="#ff4747" stroke-miterlimit="10" stroke-dasharray="3 3"/><circle data-name="Ellipse 50" cx="2.024" cy="2.024" r="2.024" transform="translate(101.063 28.497)" fill="#ff4747"/><circle data-name="Ellipse 51" cx="2.024" cy="2.024" r="2.024" transform="translate(175.498 2.647)" fill="#ff4747"/></g></g><g data-name="Group 977"><path data-name="Rectangle 223" fill="#d8d8d8" d="M175.707 290.475h46.678v55.205h-46.678z"/><path data-name="Path 722" d="M218.703 310.99a5.365 5.365 0 0 1-5.364 5.366h-28.586a5.363 5.363 0 0 1-5.359-5.366 5.36 5.36 0 0 1 5.359-5.356h28.589a5.362 5.362 0 0 1 5.364 5.356Z" fill="#989898"/><path data-name="Path 723" d="M218.703 323.187a5.364 5.364 0 0 1-5.364 5.361h-28.586a5.362 5.362 0 0 1-5.359-5.361 5.361 5.361 0 0 1 5.359-5.36h28.589a5.362 5.362 0 0 1 5.364 5.36Z" fill="#989898"/><path data-name="Path 724" d="M218.703 335.38a5.367 5.367 0 0 1-5.364 5.364h-28.586a5.366 5.366 0 0 1-5.359-5.364 5.36 5.36 0 0 1 5.359-5.357h28.589a5.361 5.361 0 0 1 5.364 5.357Z" fill="#989898"/><path data-name="Rectangle 224" fill="#ccc" d="M182.652 307.525h32.79v6.834h-32.79z"/><path data-name="Rectangle 225" fill="#ccc" d="M182.652 319.769h32.79v6.835h-32.79z"/><path data-name="Rectangle 226" fill="#ccc" d="M182.652 331.964h32.79v6.832h-32.79z"/><path data-name="Rectangle 227" fill="#fff" d="M190.35 309.232h17.396v1.686H190.35z"/><path data-name="Path 725" d="M218.704 298.563a5.36 5.36 0 0 1-5.362 5.361h-28.587a5.36 5.36 0 0 1-5.362-5.361 5.362 5.362 0 0 1 5.362-5.361h28.592a5.362 5.362 0 0 1 5.362 5.361Z" fill="#989898"/><path data-name="Rectangle 228" fill="#ccc" d="M182.653 295.093h32.789v6.832h-32.789z"/><path data-name="Rectangle 229" fill="#fff" d="M190.349 296.801h17.398v1.685h-17.398z"/><path data-name="Rectangle 230" fill="#fff" d="M190.35 321.428h17.396v1.68H190.35z"/><path data-name="Rectangle 231" fill="#fff" d="M190.35 333.621h17.396v1.679H190.35z"/><path data-name="Line 34" fill="none" stroke="#fff" stroke-linecap="round" stroke-miterlimit="10" stroke-width=".5" d="M183.722 299.653h29.858"/><path data-name="Line 35" fill="none" stroke="#fff" stroke-linecap="round" stroke-miterlimit="10" stroke-width=".5" d="M183.555 312.423h30.688"/><path data-name="Line 36" fill="none" stroke="#fff" stroke-linecap="round" stroke-miterlimit="10" stroke-width=".5" d="M183.887 324.865h31.352"/><path data-name="Line 37" fill="none" stroke="#fff" stroke-linecap="round" stroke-miterlimit="10" stroke-width=".5" d="M184.22 337.307h30.023"/><path data-name="Path 757" d="M367.071 395.705c-9.99-10.329-15.572-23.958-20.466-37.252h-5.282v55.2H388v-6.092a43.554 43.554 0 0 1-20.929-11.856Z" transform="translate(-165.616 -67.978)" fill="#d1d1d1" opacity=".3" style="mix-blend-mode:multiply;isolation:isolate"/></g><g data-name="Group 979"><path data-name="Rectangle 232" fill="#c4c4c4" d="M242.241 163.703h42.772v23.936h-42.772z"/><g data-name="Group 978" fill="none" stroke="#fff" stroke-miterlimit="10"><path data-name="Path 727" d="m257.411 167.553-7.649 7.09 6.877 5.895"/><path data-name="Path 728" d="m270.146 168.32 7.346 7.4-7.118 5.6"/><path data-name="Line 38" d="m267.938 166.274-9.894 18.794"/></g></g><g data-name="Group 999"><g data-name="Group 990"><g data-name="Group 982"><g data-name="Group 980"><path data-name="Path 729" d="M326.361 335.552c-1.844 2.187-5.286 2.092-7.492 3.889a1.242 1.242 0 0 0-.391.457.927.927 0 0 0 .491 1.1 2.568 2.568 0 0 0 1.268.179l7.324-.222a2.01 2.01 0 0 0 .779-.128 2.181 2.181 0 0 0 .948-1.414c.556-1.677.589-3.144 1.146-4.822a13.466 13.466 0 0 0-4.073.964" fill="#fa6e61"/><path data-name="Path 730" d="M318.476 339.898a1.242 1.242 0 0 1 .391-.457 9.811 9.811 0 0 1 3.048-1.511 2.447 2.447 0 0 0 2.024 1.114c.566.05 1.134.047 1.7.062a6.771 6.771 0 0 0 1.7-.138 5.785 5.785 0 0 0 2.351-1.129 13.711 13.711 0 0 1-.407 1.57 2.185 2.185 0 0 1-.948 1.414 2.006 2.006 0 0 1-.779.128l-7.324.222a2.564 2.564 0 0 1-1.267-.179.927.927 0 0 1-.491-1.1" fill="#132444"/></g><g data-name="Group 981" fill="#ff8787"><path data-name="Path 731" d="M343.864 249.201c2.258 13.008-3.68 30.935-8.442 43.251a16.168 16.168 0 0 0-1.555 10.057c.584 7.724-.366 15.018-1.351 22.7-.551 4.3-.507 6.667-1.128 11.518-1.185-.181-6.715-1.108-6.535-.989-.584-4.58-2.679-32.033-.427-50.3a275.491 275.491 0 0 1 5.763-31.216c.1-.4.931-5.264 1.4-5.224 2.693.235 5.907.082 7.724.2Z"/><path data-name="Path 732" d="M594.156 348.733a166.4 166.4 0 0 0 6.837-21.3 12.558 12.558 0 0 0-.975 1.041 31.8 31.8 0 0 0-4.054 6.811c-2.562 5.406-5.391 11.129-6.508 17.046-1.256 6.648-.3 13.524-.079 20.226.216 6.765-.567 13.421-1.129 20.15.823.134 1.53.248 1.872.3.622-4.852.577-7.221 1.128-11.518.985-7.684 1.935-14.979 1.352-22.7a23.364 23.364 0 0 1-.085-4.8 23.119 23.119 0 0 1 1.641-5.256Z" transform="translate(-258.734 -56.281)" opacity=".3" style="mix-blend-mode:multiply;isolation:isolate"/></g></g><g data-name="Group 989"><g data-name="Group 984"><path data-name="Path 733" d="M347.498 338.122c-1.844 2.187-5.285 2.094-7.491 3.889a1.24 1.24 0 0 0-.391.457.927.927 0 0 0 .491 1.1 2.552 2.552 0 0 0 1.268.179l7.323-.222a2.022 2.022 0 0 0 .779-.128 2.174 2.174 0 0 0 .947-1.414c.557-1.677.59-3.142 1.146-4.822a13.479 13.479 0 0 0-4.073.964" fill="#fa6e61"/><path data-name="Path 734" d="M339.617 342.468a1.242 1.242 0 0 1 .39-.457 9.792 9.792 0 0 1 3.048-1.511 2.449 2.449 0 0 0 2.024 1.114c.567.05 1.135.047 1.7.062a6.767 6.767 0 0 0 1.7-.138 5.774 5.774 0 0 0 2.351-1.129 13.545 13.545 0 0 1-.408 1.57 2.174 2.174 0 0 1-.947 1.414 2.022 2.022 0 0 1-.779.128l-7.323.222a2.548 2.548 0 0 1-1.267-.179.927.927 0 0 1-.491-1.1" fill="#132444"/><g data-name="Group 983"><path data-name="Path 735" d="M352.583 245.825a96.3 96.3 0 0 1 2.631 43.158 31.913 31.913 0 0 0-.724 6.7 41.05 41.05 0 0 0 1.122 6.307c2.518 12.323.033 25.149-3.829 37.118-1.77-.3-4.128-.689-5.9-.989 1.684-14.554-3.121-31.119-4-45.746-.3-4.973-.484-12.5-1.188-17.427-1.782-12.476-1.316-15.378-1.386-25.941a65.775 65.775 0 0 0 13.275-3.179" fill="#ff8787"/><path data-name="Path 736" d="M625.409 342.935a41.028 41.028 0 0 1-1.122-6.307 31.916 31.916 0 0 1 .724-6.7 96.3 96.3 0 0 0-2.631-43.158c-1.234.472-2.956 1-4.8 1.488 3.715 6.138 4.086 14.3 4.348 21.21.209 5.5.014 10.927-.251 16.422a93.043 93.043 0 0 0 1.266 18.836 47.343 47.343 0 0 1-.04 16.579c-.785 4.095-1.237 8.245-1.994 12.344a54.677 54.677 0 0 1-1.446 6.046c.745.125 1.47.246 2.115.356 3.864-11.966 6.348-24.793 3.831-37.116Z" transform="translate(-269.796 -40.946)" fill="#5d81ec" opacity=".3" style="mix-blend-mode:multiply;isolation:isolate"/><path data-name="Path 737" d="M347.03 249.597c.039 1.731.935 3.4 1.193 5.1a41.963 41.963 0 0 1 .391 5.392c.074 3.578.453 7.158.8 10.694.685 6.9.582 14.154.584 21.189 0 6.679 2.179 12.657 2.177 19.209 0 6.5.115 13.087-1.143 19.407-.258 1.3-1.577 8.094-1.368 8.16" fill="none" stroke="#132444" stroke-miterlimit="10" stroke-width=".5"/></g></g><g data-name="Group 985"><path data-name="Path 738" d="M340.926 214.366c3.023.059 6.4.265 8.459 2.44 2.081 2.2 2.031 5.556 1.877 8.555-.389 7.594-.511 15.71 3.578 22.162a37.3 37.3 0 0 1-25.634 1.354c.787-5.22 1.416-10.591.215-15.735-1.082-4.624-3.573-9.623-1.295-13.807a9.52 9.52 0 0 1 6.174-4.311 34.148 34.148 0 0 1 6.626-.658" fill="#ff8787"/><path data-name="Path 739" d="M330.277 241.928a12.472 12.472 0 0 0 1.54.069 13.485 13.485 0 0 0 1.5-.22 23.254 23.254 0 0 0 2.682-.545 12.41 12.41 0 0 0 7.334-6.553 24.027 24.027 0 0 0 1.942-10.952 18.4 18.4 0 0 0-2.238-9.275c2.388.171 4.761.675 6.352 2.354 2.081 2.2 2.031 5.556 1.877 8.555-.389 7.594-.511 15.71 3.578 22.162a37.3 37.3 0 0 1-25.634 1.354c.348-2.305.663-4.64.805-6.97.088.006.177.018.266.021" fill="#ff4747"/><path data-name="Path 740" d="M340.443 229.929a14.191 14.191 0 0 1-8.78-9.425" fill="none" stroke="#26395e" stroke-miterlimit="10" stroke-width=".5"/><path data-name="Path 741" d="M335.625 230.988a13.169 13.169 0 0 1-4.454-5.482" fill="none" stroke="#26395e" stroke-miterlimit="10" stroke-width=".5"/></g><g data-name="Group 988"><path data-name="Path 742" d="M340.711 205.816c.569 1.847 2.839 2.526 4.049 4.034 1.086 1.351 1.35 3.406 2.858 4.259 1.259.711 2.965.3 4.14 1.136 1.336.956 1.322 3.035 2.513 4.166a3.527 3.527 0 0 0 2.07.866 5.5 5.5 0 0 0 5.777-5.807c-.127-1.141-.622-2.206-.84-3.333a3.282 3.282 0 0 1 .807-3.175 10.7 10.7 0 0 1 1.234-.716c1.909-1.163 2.212-4.1.866-5.886a5.809 5.809 0 0 0-6.051-1.813c-1.238.328-2.751.922-3.638 0a6.534 6.534 0 0 1-.723-1.256 3.129 3.129 0 0 0-2.974-1.366 4.844 4.844 0 0 0-2.976 1.6c-.531.57-.426 2.243-.957 2.814-1.256 1.348-3.018-.216-3.979.072-.591.178-2.582 3.071-2.172 4.4" fill="#2a2c30"/><g data-name="Group 987"><path data-name="Path 743" d="M336.527 211.679a12.012 12.012 0 0 1-.895 5.119 5.529 5.529 0 0 0 4.109.486 7.3 7.3 0 0 0 2.012-.563.423.423 0 0 0 .185-.14.307.307 0 0 0 .041-.235 20.738 20.738 0 0 1-.205-9.05c-1.364.516-2.954-.029-4.34.423a.921.921 0 0 0-.37.2.968.968 0 0 0-.209.467 12.4 12.4 0 0 0-.328 3.3" fill="#ffd3cf"/><path data-name="Path 744" d="M340.361 212.009c.957-1.526.819-3.4 1.365-5.065-1.364.514-2.906.325-4.292.778a.928.928 0 0 0-.369.2.967.967 0 0 0-.209.467 12.389 12.389 0 0 0-.328 3.3 11.885 11.885 0 0 1-.224 2.884 5.711 5.711 0 0 0 4.058-2.558" fill="#feb6b0"/><path data-name="Path 745" d="M334.443 203.779c-.278 1.071-.547 2.016-.78 3.1-.318 1.478-.746 2.607-.146 3.995a3.2 3.2 0 0 0 3 2.019 4.568 4.568 0 0 0 3.176-1.421 8.631 8.631 0 0 0 2.527-6.383 2.262 2.262 0 0 0-.985-2.077 7.024 7.024 0 0 0-3.117-1.2 3.409 3.409 0 0 0-3.68 1.971" fill="#ffd3cf"/><g data-name="Group 986" fill="#2a2c30"><path data-name="Path 746" d="M334.134 200.151c-1.5.9-2.153 1.9-1.453 3.035.46.745 1.131.248 1.353.267.307.025.393.421.546.686a1.624 1.624 0 0 0 1.5.587 2.917 2.917 0 0 0 1.6-.425c.313-.217.557-.525.886-.718a.824.824 0 0 1 1.043.076c.292.378 0 .974.243 1.382a.855.855 0 0 0 .852.327 1.7 1.7 0 0 0 1.3-1.087 2.516 2.516 0 0 0-.032-1.743 3.335 3.335 0 0 0-1.09-1.5c-1.175-.911-2.4-.144-3.616-1-1.017-.716-2.975.014-3.137.11"/><path data-name="Path 747" d="M340.381 203.191a5.8 5.8 0 0 1 .326 2.741 1.478 1.478 0 0 0-.018.373 1.322 1.322 0 0 0 .146.4q.434.879.871 1.759c.995-.748 2.342-1.769 1.9-3.957a4.265 4.265 0 0 0-.486-1.436 1.517 1.517 0 0 0-2.507-.3c-.179.131-.287.394-.237.42"/></g><path data-name="Path 748" d="M341.218 207.511a1.525 1.525 0 0 1 1.664-.159c.911.506-.553 2.12-2.282 1.92-.242-.028-.518-.13-.576-.367a.667.667 0 0 1 .184-.539 2.26 2.26 0 0 1 1.01-.854" fill="#ffd3cf"/></g></g></g></g><g data-name="Group 996"><path data-name="Rectangle 233" fill="#dfdfdf" d="M223.756 192.349h107.33v104.645h-107.33z"/><g data-name="Group 992"><path data-name="Rectangle 234" fill="#989898" d="M223.756 192.349h107.295v12.998H223.756z"/><g data-name="Group 991" fill="#fff"><path data-name="Path 749" d="M232.781 197.762a2.005 2.005 0 1 1-2.005-2 2 2 0 0 1 2.005 2Z"/><path data-name="Path 750" d="M242.056 197.762a2.006 2.006 0 1 1-2.006-2 2 2 0 0 1 2.006 2Z"/><path data-name="Path 751" d="M251.327 197.762a2.005 2.005 0 1 1-2.006-2 2 2 0 0 1 2.006 2Z"/></g></g><g data-name="Group 995" fill="#ececec"><g data-name="Group 993"><path data-name="Rectangle 235" d="M266.008 218.094h54.503v3.737h-54.503z"/><path data-name="Rectangle 236" d="M266.008 225.984h54.503v3.737h-54.503z"/><path data-name="Rectangle 237" d="M266.008 234.704h35.401v3.737h-35.401z"/><path data-name="Rectangle 238" d="M266.008 248.408h53.672v3.737h-53.672z"/><path data-name="Rectangle 239" d="M266.008 256.712h53.672v3.737h-53.672z"/><path data-name="Rectangle 240" d="M266.008 266.678h53.672v3.737h-53.672z"/><path data-name="Rectangle 241" d="M266.008 278.305h53.672v3.737h-53.672z"/></g><g data-name="Group 994"><path data-name="Rectangle 242" d="M243.377 237.196h14.845v3.737h-14.845z"/><path data-name="Rectangle 243" d="M243.377 225.984h14.845v3.737h-14.845z"/><path data-name="Rectangle 244" d="M229.259 218.094h28.964v3.737h-28.964z"/><path data-name="Rectangle 245" d="M232.217 245.501h26.006v3.737h-26.006z"/><path data-name="Rectangle 246" d="M246.336 255.053h11.887v3.737h-11.887z"/><path data-name="Rectangle 247" d="M237.745 264.603h20.477v3.737h-20.477z"/><path data-name="Rectangle 248" d="M241.897 280.383h16.325v3.737h-16.325z"/></g></g><path data-name="Path 752" d="M508.936 293.38c-13.626-5.561-25.6-14.044-36.868-23.4-20.836-17.285-38.916-41.15-40.139-69.065h-13.467v104.649h107.33V298.4a98.351 98.351 0 0 1-16.856-5.02Z" transform="translate(-194.706 -8.57)" fill="#dfdfdf" opacity=".3" style="mix-blend-mode:multiply;isolation:isolate"/></g><g data-name="Group 998"><g data-name="Group 997" fill="#ffd3cf"><path data-name="Path 753" d="M343.159 231.94c-4.636 2.66-11.8 7.43-15.494 8.01a14.167 14.167 0 0 1-5.7-.343c-5.178-1.327-7.523-4.278-12.3-6.679.957-1.136.372-.44.912-1.828 4.574 1.484 16.021 6.9 23.174-.368 5.65-5.737 6.607-5.39 10.909-7.27.936-.409 3.128-.826 4.046-.378s2.674 4.138-5.55 8.856"/><path data-name="Path 754" d="M310.138 233.011a17.177 17.177 0 0 1-4.065-.744c-.415-.146-.986-.255-1.112-.677.211-.247.287-.067.857.09a1.917 1.917 0 0 0 1.043.14 6.377 6.377 0 0 1-3.085-1.949.611.611 0 0 1 .627-.044 2.85 2.85 0 0 1 .541.374 3.264 3.264 0 0 0 1.546.632 4.729 4.729 0 0 1-2.485-2 .418.418 0 0 1 .478-.1 1.519 1.519 0 0 1 .424.3 4.318 4.318 0 0 0 1.715.913 6.132 6.132 0 0 1-2.127-1.949c.213-.236.588-.01.832.193a5.051 5.051 0 0 0 2.057 1.084c.105.023.643.211.709.126.051-.066-.276-1.022-.324-1.388-.04-.323.113-.723.435-.759.645 1.605 1.411 3.346 2.96 4.11a13.283 13.283 0 0 0-1.027 1.648"/></g><path data-name="Path 755" d="M349.596 217.409a6.408 6.408 0 0 1 1.129 4.287 10.094 10.094 0 0 1-.7 2.626 23.93 23.93 0 0 1-7.376 9.975 35.518 35.518 0 0 1-5.815-5.583.759.759 0 0 1-.24-.53.767.767 0 0 1 .23-.4 77.649 77.649 0 0 1 9.919-9.287 5.574 5.574 0 0 1 2.332-1.266c.357-.064.88.305.526.178" fill="#ff6161"/></g></g></g></g></svg>