<?xml version="1.0" encoding="utf-8"?>
<!-- Generator: Adobe Illustrator 25.1.0, SVG Export Plug-In . SVG Version: 6.00 Build 0)  -->
<svg version="1.1"
	 id="svg59079" xmlns:cc="http://creativecommons.org/ns#" xmlns:dc="http://purl.org/dc/elements/1.1/" xmlns:rdf="http://www.w3.org/1999/02/22-rdf-syntax-ns#" xmlns:svg="http://www.w3.org/2000/svg"
	 xmlns="http://www.w3.org/2000/svg" xmlns:xlink="http://www.w3.org/1999/xlink" x="0px" y="0px" viewBox="0 0 500 500"
	 style="enable-background:new 0 0 500 500;" xml:space="preserve">
<style type="text/css">
	.st0{fill:#FFF9F3;}
	.st1{fill:#4AC6AE;}
	.st2{fill:#FBB84B;}
	.st3{fill:#49C9B1;}
	.st4{fill:#FDCF85;}
	.st5{fill:#F5F5F5;}
	.st6{fill:#020202;}
</style>
<path class="st0" d="M408.7,500H91.3C40.9,500,0,459.1,0,408.7V91.3C0,40.9,40.9,0,91.3,0h317.4C459.1,0,500,40.9,500,91.3v317.4
	C500,459.1,459.1,500,408.7,500z"/>
<g>
	<path class="st2" d="M232.2,357.7c50.6,0,91.5-41,91.5-91.5s-41-91.5-91.5-91.5c-1,0-2,0-3.1,0.1v-27.3
		c65.6,0,118.7,53.2,118.7,118.7c0,65.6-53.2,129.1-118.7,129.1v-37.6C230.2,357.7,231.2,357.7,232.2,357.7z"/>
	<path class="st2" d="M303.8,247.9l79,45.6c2,1.2,4.5-0.3,4.5-2.6v-91.2c0-2.3-2.5-3.7-4.5-2.6l-79,45.6
		C301.8,243.9,301.8,246.8,303.8,247.9z"/>
	<path id="path59092" class="st1" d="M231.6,364.3c15.9,0,31.7-3.3,46.3-9.2c14.2-6.3,27.1-14.6,38-25.5
		c10.9-11.3,19.2-23.8,25.5-38c6.3-14.6,9.2-30.5,9.2-46.3c0-16.3-2.9-31.7-9.2-46.3c-6.3-14.2-14.6-27.1-25.5-38
		c-11.3-10.8-23.8-19.2-38-25.5c-14.6-6.3-30.5-9.2-46.3-9.2s-31.7,2.9-46.3,9.2c-14.2,6.3-26.7,14.6-38,25.5
		c-10.9,11.3-19.2,23.8-25.5,38c-5.8,14.6-9.2,30-9.2,46.3c0,15.9,3.3,31.7,9.2,46.3c6.3,14.2,14.6,26.7,25.5,38
		c11.3,10.8,23.8,19.2,38,25.5c14.6,5.8,30.3,9.2,46.1,9.2C231.5,364.3,231.5,364.3,231.6,364.3z M231.6,189
		c30.9,0,56.3,25.5,56.3,56.3s-25.5,56.3-56.3,56.3s-56.3-25.5-56.3-56.3S200.7,189,231.6,189z"/>
</g>
</svg>
