<?xml version="1.0" encoding="utf-8"?>
<!-- Generator: Adobe Illustrator 24.1.0, SVG Export Plug-In . SVG Version: 6.00 Build 0)  -->
<svg version="1.1" id="Layer_1" xmlns="http://www.w3.org/2000/svg" xmlns:xlink="http://www.w3.org/1999/xlink" x="0px" y="0px"
	 viewBox="0 0 512 512" style="enable-background:new 0 0 512 512;" xml:space="preserve">
<style type="text/css">
	.st0{fill:#FFFFFF;}
</style>
<g>
	<path class="st0" d="M60.2,421.6h30.1v30.1H60.2V421.6z"/>
	<path class="st0" d="M120.5,421.6h30.1v30.1h-30.1V421.6z"/>
	<path class="st0" d="M60.2,361.4h30.1v30.1H60.2V361.4z"/>
	<path class="st0" d="M120.5,361.4h30.1v30.1h-30.1V361.4z"/>
	<path class="st0" d="M60.2,301.2h30.1v30.1H60.2V301.2z"/>
	<path class="st0" d="M120.5,301.2h30.1v30.1h-30.1V301.2z"/>
	<path class="st0" d="M180.7,301.2h30.1v30.1h-30.1V301.2z"/>
	<path class="st0" d="M512,180.7H331.3V60.2h-90.4V0H90.4v60.2H0V512h331.3v-60.2H512V180.7z M120.5,30.1h90.4v90.4h-90.4V30.1z
		 M301.2,481.9H30.1V90.4h60.2v30.1H60.2v30.1h30.1h150.6h30.1v-30.1h-30.1V90.4h60.2V481.9z M331.3,210.8h45.2v210.8h-45.2V210.8z
		 M481.9,421.6h-75.3V210.8h75.3V421.6z"/>
	<path class="st0" d="M60.2,271.1h210.8v-90.4H60.2V271.1z M90.4,210.8h150.6v30.1H90.4V210.8z"/>
	<path class="st0" d="M180.7,421.6h30.1v30.1h-30.1V421.6z"/>
	<path class="st0" d="M180.7,361.4h30.1v30.1h-30.1V361.4z"/>
	<path class="st0" d="M240.9,301.2h30.1v30.1h-30.1V301.2z"/>
	<path class="st0" d="M240.9,421.6h30.1v30.1h-30.1V421.6z"/>
	<path class="st0" d="M240.9,361.4h30.1v30.1h-30.1V361.4z"/>
	<path class="st0" d="M150.6,60.2h30.1v30.1h-30.1V60.2z"/>
	<path class="st0" d="M436.7,30.1h30.1v120.5h-30.1V30.1z"/>
	<path class="st0" d="M376.5,60.2h30.1v90.4h-30.1V60.2z"/>
</g>
</svg>
