<?xml version="1.0" encoding="utf-8"?>
<!-- Generator: Adobe Illustrator 24.1.0, SVG Export Plug-In . SVG Version: 6.00 Build 0)  -->
<svg version="1.1" id="Layer_1" xmlns="http://www.w3.org/2000/svg" xmlns:xlink="http://www.w3.org/1999/xlink" x="0px" y="0px"
	 viewBox="0 0 512 512" style="enable-background:new 0 0 512 512;" xml:space="preserve">
<style type="text/css">
	.st0{fill:#FFFFFF;}
</style>
<g>
	<path class="st0" d="M488.5,252h-50v-22.4c0-27.5-19.2-50.6-45-57V15c0-8.3-6.7-15-15-15h-355c-8.3,0-15,6.7-15,15v411
		c0,8.3,6.7,15,15,15h231v12.3c0,32.4,26.4,58.7,58.8,58.7h131.4c32.4,0,58.8-26.3,58.8-58.7V267C503.5,258.7,496.8,252,488.5,252
		L488.5,252z M408.5,229.6V252h-59v-22.4c0-15.9,13.2-28.8,29.5-28.8S408.5,213.7,408.5,229.6z M38.5,411V30h325v142.8
		c-25.3,6.8-44,29.6-44,56.8V252h-50c-8.3,0-15,6.7-15,15v144H38.5z M473.5,453.3c0,15.8-12.9,28.7-28.8,28.7H313.3
		c-15.9,0-28.8-12.9-28.8-28.7V282h35v39.5c0,8.3,6.7,15,15,15s15-6.7,15-15V282h59v39.5c0,8.3,6.7,15,15,15s15-6.7,15-15V282h35
		L473.5,453.3z"/>
	<path class="st0" d="M113.4,64.8l-17,18.3l-1.1-1.4c-5.2-6.5-14.6-7.5-21.1-2.3c-6.5,5.2-7.5,14.6-2.3,21.1l12,14.9
		c2.7,3.4,6.8,5.4,11.1,5.6c0.2,0,0.4,0,0.5,0c4.2,0,8.1-1.7,11-4.8l28.9-31c5.6-6.1,5.3-15.6-0.8-21.2
		C128.5,58.4,119,58.7,113.4,64.8z"/>
	<path class="st0" d="M184.5,105.5h134c8.3,0,15-6.7,15-15s-6.7-15-15-15h-134c-8.3,0-15,6.7-15,15S176.2,105.5,184.5,105.5z"/>
	<path class="st0" d="M113.4,155.8l-17,18.3l-1.1-1.4c-5.2-6.5-14.6-7.5-21.1-2.3s-7.5,14.6-2.3,21.1l12,14.9
		c2.7,3.4,6.8,5.4,11.1,5.6c0.2,0,0.4,0,0.5,0c4.2,0,8.1-1.7,11-4.8l28.9-31c5.6-6.1,5.3-15.6-0.8-21.2
		C128.5,149.4,119,149.7,113.4,155.8L113.4,155.8z"/>
	<path class="st0" d="M184.5,196.5h84c8.3,0,15-6.7,15-15s-6.7-15-15-15h-84c-8.3,0-15,6.7-15,15S176.2,196.5,184.5,196.5
		L184.5,196.5z"/>
	<path class="st0" d="M113.4,246.8l-17,18.3l-1.1-1.4c-5.2-6.5-14.6-7.5-21.1-2.3c-6.5,5.2-7.5,14.6-2.3,21.1l12,14.9
		c2.7,3.4,6.8,5.4,11.1,5.6c0.2,0,0.4,0,0.5,0c4.2,0,8.1-1.7,11-4.8l28.9-31c5.6-6.1,5.3-15.6-0.8-21.2
		C128.5,240.4,119,240.7,113.4,246.8L113.4,246.8z"/>
	<path class="st0" d="M209.5,257.5h-25c-8.3,0-15,6.7-15,15s6.7,15,15,15h25c8.3,0,15-6.7,15-15S217.8,257.5,209.5,257.5z"/>
</g>
</svg>
