<?xml version="1.0" encoding="utf-8"?>
<!-- Generator: Adobe Illustrator 24.1.0, SVG Export Plug-In . SVG Version: 6.00 Build 0)  -->
<svg version="1.1" id="Layer_1" xmlns="http://www.w3.org/2000/svg" xmlns:xlink="http://www.w3.org/1999/xlink" x="0px" y="0px"
	 viewBox="0 0 512 512" style="enable-background:new 0 0 512 512;" xml:space="preserve">
<style type="text/css">
	.st0{fill:#FFFFFF;}
</style>
<g>
	<g>
		<path class="st0" d="M467,0H45C20.2,0,0,20.2,0,45v301c0,24.8,20.2,45,45,45h136v32.5c-34.2,7-60,37.3-60,73.5c0,8.3,6.7,15,15,15
			h240c8.3,0,15-6.7,15-15c0-36.2-25.8-66.5-60-73.5V391h136c24.8,0,45-20.2,45-45V45C512,20.2,491.8,0,467,0z M358.4,482H153.6
			c6.2-17.5,22.9-30,42.4-30h120C335.6,452,352.2,464.5,358.4,482z M211,422v-31h90v31H211z M482,346c0,8.3-6.7,15-15,15
			c-23,0-399.6,0-422,0c-8.3,0-15-6.7-15-15v-15h452V346z M482,301H30V45c0-8.3,6.7-15,15-15h422c8.3,0,15,6.7,15,15V301z"/>
	</g>
</g>
<g>
	<g>
		<path class="st0" d="M166,91h-61c-8.3,0-15,6.7-15,15s6.7,15,15,15h61c8.3,0,15-6.7,15-15S174.3,91,166,91z"/>
	</g>
</g>
<g>
	<g>
		<path class="st0" d="M166,151h-61c-8.3,0-15,6.7-15,15s6.7,15,15,15h61c8.3,0,15-6.7,15-15S174.3,151,166,151z"/>
	</g>
</g>
<g>
	<g>
		<path class="st0" d="M166,211h-61c-8.3,0-15,6.7-15,15s6.7,15,15,15h61c8.3,0,15-6.7,15-15S174.3,211,166,211z"/>
	</g>
</g>
<g>
	<g>
		<path class="st0" d="M413.6,107.1c-1.8-1,13.4,8.1-74.6-45.2c-4.8-2.9-10.7-2.9-15.5,0l-75.1,45.2c-4.6,2.7-7.4,7.6-7.4,13v90.6
			c0,5.3,2.7,10.1,7.2,12.8l75,45.3c4.8,2.9,10.9,2.8,15.5,0l75-45.3c4.5-2.7,7.2-7.6,7.2-12.8V120
			C421,111.1,413.7,107.2,413.6,107.1z M316,229.4l-45-27.2v-55.6l45,27.2V229.4z M331,147.8l-46-27.8l46.2-27.8L377,120L331,147.8z
			 M391,202.2l-45,27.2v-55.6l45-27.2V202.2z"/>
	</g>
</g>
</svg>
