<?xml version="1.0" encoding="utf-8"?>
<!-- Generator: Adobe Illustrator 24.1.0, SVG Export Plug-In . SVG Version: 6.00 Build 0)  -->
<svg version="1.1" id="Layer_1" xmlns="http://www.w3.org/2000/svg" xmlns:xlink="http://www.w3.org/1999/xlink" x="0px" y="0px"
	 viewBox="0 0 512 512" style="enable-background:new 0 0 512 512;" xml:space="preserve">
<style type="text/css">
	.st0{fill:#FFFFFF;}
</style>
<g>
	<path class="st0" d="M406.6,27.2v45.2h-75.3v45.2H256v45.2h-75.3v83c-14.1-5-29.3-7.8-45.2-7.8C60.8,238,0,298.8,0,373.5
		S60.8,509,135.5,509c80.4,0,143.6-70.1,134.7-150.6H512V27.2L406.6,27.2L406.6,27.2z M210.8,192.8H256v118.6
		c-5.4-10.4-12.2-20.2-20.2-29c0,0,0,0,0,0c-7.4-8.2-15.8-15.4-25-21.6V192.8z M84.8,465.9c5.4-23,26.1-40.1,50.7-40.1
		s45.3,17.1,50.7,40.1C154.7,483.3,116.4,483.3,84.8,465.9z M108.6,368.8c0-14.8,12.1-26.9,26.9-26.9s26.9,12.1,26.9,26.9
		c0,14.8-12.1,26.9-26.9,26.9S108.6,383.6,108.6,368.8z M211.5,446.5c-6.8-16.4-18.8-30.2-33.9-39.2c9.3-10.2,15-23.7,15-38.5
		c0-31.5-25.6-57-57-57s-57,25.6-57,57c0,14.8,5.7,28.4,15,38.5c-15.1,9-27.1,22.8-33.9,39.2c-18.2-19-29.4-44.7-29.4-73
		c0-58.1,47.3-105.4,105.4-105.4c58.1,0,105.4,47.2,105.4,105.4C240.9,401.8,229.7,427.5,211.5,446.5z M331.3,328.3h-45.2
		c0-10.6,0-170.3,0-180.7h45.2V328.3z M406.6,328.3h-45.2c0-9.4,0-217.9,0-225.9h45.2V328.3z M481.9,328.3h-45.2
		c0-23.3,0-256.8,0-271.1h45.2V328.3z"/>
	<path class="st0" d="M106.9,98.8l42.6,42.6L266.6,24.3L245.4,3l-95.8,95.8l-42.6-42.6L11.1,152l21.3,21.3L106.9,98.8z"/>
</g>
</svg>
