<?xml version="1.0" encoding="utf-8"?>
<!-- Generator: Adobe Illustrator 24.1.0, SVG Export Plug-In . SVG Version: 6.00 Build 0)  -->
<svg version="1.1" id="Layer_1" xmlns="http://www.w3.org/2000/svg" xmlns:xlink="http://www.w3.org/1999/xlink" x="0px" y="0px"
	 viewBox="0 0 512 512" style="enable-background:new 0 0 512 512;" xml:space="preserve">
<style type="text/css">
	.st0{fill:#FFFFFF;}
</style>
<g>
	<g>
		<path class="st0" d="M511.1,122.2L474.5,12.5C472,5,465,0,457.1,0H54.9C47,0,40,5,37.5,12.5L0.9,122.2c-0.6,1.7-0.9,3.5-0.9,5.3
			c0,0.2,0,0.3,0,0.5v18.3c0.1,28.7,13.6,55.6,36.6,72.7c0,0.1,0,0.3,0,0.4v237.7c0,30.3,24.6,54.9,54.9,54.9h329.1
			c30.3,0,54.9-24.6,54.9-54.9V219.4c0-0.1,0-0.3,0-0.4c23-17.1,36.5-44.1,36.6-72.7V128c0-0.2,0-0.3,0-0.5
			C511.9,125.7,511.6,123.9,511.1,122.2z M384,36.6h60l24.4,73.1H384V36.6z M274.3,36.6h73.1v73.1h-73.1V36.6z M164.6,36.6h73.1
			v73.1h-73.1V36.6z M68,36.6h60v73.1H43.6L68,36.6z M292.6,475.4h-73.1V329.1h73.1L292.6,475.4L292.6,475.4z M438.9,457.1
			c0,10.1-8.2,18.3-18.3,18.3h-91.4V310.9c0-10.1-8.2-18.3-18.3-18.3H201.1c-10.1,0-18.3,8.2-18.3,18.3v164.6H91.4
			c-10.1,0-18.3-8.2-18.3-18.3V235.9c25.7,5.3,52.3-0.9,73.1-16.8c32.6,24,77.1,24,109.7,0c32.6,24,77.1,24,109.7,0
			c20.8,15.9,47.5,22.1,73.1,16.8L438.9,457.1L438.9,457.1z M420.6,201.1c-15.8,0-30.8-6.9-41.1-19c-6.6-7.6-18.2-8.4-25.8-1.7
			c-0.6,0.5-1.2,1.1-1.7,1.7c-20.3,22.7-55.2,24.6-77.9,4.3c-1.5-1.3-2.9-2.8-4.3-4.3c-7.2-7.6-19.1-8-26.7-0.8
			c-0.3,0.3-0.5,0.5-0.8,0.8c-20.3,22.7-55.2,24.6-77.9,4.3c-1.5-1.3-2.9-2.8-4.3-4.3c-7.2-7.6-19.1-8-26.7-0.8
			c-0.3,0.3-0.5,0.5-0.8,0.8c-10.3,12-25.3,19-41.1,19c-30.3,0-54.9-24.6-54.9-54.9h438.9C475.4,176.6,450.9,201.1,420.6,201.1z"/>
	</g>
</g>
</svg>
