<?xml version="1.0" encoding="utf-8"?>
<!-- Generator: Adobe Illustrator 24.1.0, SVG Export Plug-In . SVG Version: 6.00 Build 0)  -->
<svg version="1.1" id="Layer_1" xmlns="http://www.w3.org/2000/svg" xmlns:xlink="http://www.w3.org/1999/xlink" x="0px" y="0px"
	 viewBox="0 0 512 512" style="enable-background:new 0 0 512 512;" xml:space="preserve">
<style type="text/css">
	.st0{fill:#FFFFFF;}
</style>
<g>
	<path class="st0" d="M60,512h272c33.1,0,60-26.9,60-60V45c0-8.3-6.7-15-15-15h-75V15c0-8.3-6.7-15-15-15H166c-8.3,0-15,6.7-15,15
		v15H76c-8.3,0-15,6.7-15,15v377H15c-8.3,0-15,6.7-15,15v15C0,485.1,26.9,512,60,512z M181,30h91v30h-91V30z M91,60h60v15
		c0,8.3,6.7,15,15,15h121c8.3,0,15-6.7,15-15V60h60v392c0,16.5-13.5,30-30,30s-30-13.5-30-30v-15c0-8.3-6.7-15-15-15H91V60z
		 M272,452c0,10.9,2.9,21.2,8.1,30H60c-16.5,0-30-13.5-30-30H272z"/>
	<path class="st0" d="M467,61c-24.8,0-45,20.2-45,45v270c0,1.6,0.3,3.4,0.8,4.7l30,91c2,6.1,7.8,10.3,14.2,10.3s12.2-4.2,14.2-10.3
		l30-91c0.4-1.3,0.8-3.1,0.8-4.7V106C512,81.2,491.8,61,467,61z M452,361V151h30v210H452z M467,91c8.3,0,15,6.7,15,15v15h-30v-15
		C452,97.7,458.7,91,467,91z M457.7,391h18.5l-9.3,28.1L457.7,391z"/>
	<path class="st0" d="M226,181h91c8.3,0,15-6.7,15-15s-6.7-15-15-15h-91c-8.3,0-15,6.7-15,15S217.7,181,226,181z"/>
	<path class="st0" d="M317,241h-91c-8.3,0-15,6.7-15,15s6.7,15,15,15h91c8.3,0,15-6.7,15-15S325.3,241,317,241z"/>
	<path class="st0" d="M332,346c0-8.3-6.7-15-15-15h-91c-8.3,0-15,6.7-15,15s6.7,15,15,15h91C325.3,361,332,354.3,332,346z"/>
	<path class="st0" d="M155.4,176.6c2.9,2.9,6.8,4.4,10.6,4.4s7.7-1.5,10.6-4.4l30-30c5.9-5.9,5.9-15.4,0-21.2
		c-5.9-5.9-15.4-5.9-21.2,0L166,144.8l-19.4-19.4c-5.9-5.9-15.4-5.9-21.2,0c-5.9,5.9-5.9,15.4,0,21.2L155.4,176.6z"/>
	<path class="st0" d="M155.4,266.6c2.9,2.9,6.8,4.4,10.6,4.4s7.7-1.5,10.6-4.4l30-30c5.9-5.9,5.9-15.4,0-21.2
		c-5.9-5.9-15.4-5.9-21.2,0L166,234.8l-19.4-19.4c-5.9-5.9-15.4-5.9-21.2,0s-5.9,15.4,0,21.2L155.4,266.6z"/>
	<path class="st0" d="M206.6,305.4c-5.9-5.9-15.4-5.9-21.2,0L166,324.8l-19.4-19.4c-5.9-5.9-15.4-5.9-21.2,0s-5.9,15.4,0,21.2l30,30
		c2.9,2.9,6.8,4.4,10.6,4.4s7.7-1.5,10.6-4.4l30-30C212.5,320.7,212.5,311.3,206.6,305.4z"/>
</g>
</svg>
