<?xml version="1.0" encoding="utf-8"?>
<!-- Generator: Adobe Illustrator 24.1.0, SVG Export Plug-In . SVG Version: 6.00 Build 0)  -->
<svg version="1.1" id="Layer_1" xmlns="http://www.w3.org/2000/svg" xmlns:xlink="http://www.w3.org/1999/xlink" x="0px" y="0px"
	 viewBox="0 0 512 512" style="enable-background:new 0 0 512 512;" xml:space="preserve">
<style type="text/css">
	.st0{fill:#FFFFFF;}
</style>
<g>
	<path class="st0" d="M372.2,0H139.8C112.8,0,91,21.8,91,48.8v414.4c0,26.9,21.9,48.8,48.8,48.8h232.4c26.9,0,48.8-21.9,48.8-48.8
		c0-6.7,0-407.7,0-414.4C421,21.8,399.2,0,372.2,0L372.2,0z M121,48.8c0-10.4,8.4-18.8,18.8-18.8h232.4c10.3,0,18.8,8.3,18.8,18.8
		V60H121L121,48.8z M372.2,482H139.8c-10.4,0-18.8-8.4-18.8-18.8V90h270v373.2C391,473.6,382.6,482,372.2,482z"/>
	<path class="st0" d="M166,220h60c8.3,0,15-6.7,15-15v-60c0-8.3-6.7-15-15-15h-60c-8.3,0-15,6.7-15,15v60
		C151,213.3,157.7,220,166,220z M181,160h30v30h-30V160z"/>
	<path class="st0" d="M241,325v-60c0-8.3-6.7-15-15-15h-60c-8.3,0-15,6.7-15,15v60c0,8.3,6.7,15,15,15h60
		C234.3,340,241,333.3,241,325z M211,310h-30v-30h30V310z"/>
	<path class="st0" d="M346,250h-60c-8.3,0-15,6.7-15,15v60c0,8.3,6.7,15,15,15h60c8.3,0,15-6.7,15-15v-60
		C361,256.7,354.3,250,346,250z M331,310h-30v-30h30V310z"/>
	<path class="st0" d="M346,130h-60c-8.3,0-15,6.7-15,15v60c0,8.3,6.7,15,15,15h60c8.3,0,15-6.7,15-15v-60
		C361,136.7,354.3,130,346,130z M331,190h-30v-30h30V190z"/>
	<path class="st0" d="M277.6,422h-43.2c-8.3,0-15,6.7-15,15s6.7,15,15,15h43.2c8.3,0,15-6.7,15-15S285.9,422,277.6,422z"/>
</g>
</svg>
