<?xml version="1.0" encoding="utf-8"?>
<!-- Generator: Adobe Illustrator 24.1.0, SVG Export Plug-In . SVG Version: 6.00 Build 0)  -->
<svg version="1.1" id="Layer_1" xmlns="http://www.w3.org/2000/svg" xmlns:xlink="http://www.w3.org/1999/xlink" x="0px" y="0px"
	 viewBox="0 0 512 512" style="enable-background:new 0 0 512 512;" xml:space="preserve">
<style type="text/css">
	.st0{fill:#FFFFFF;}
</style>
<g>
	<path class="st0" d="M240,160h32c8.8,0,16-7.2,16-16s-7.2-16-16-16h-32c-8.8,0-16,7.2-16,16C224,152.8,231.2,160,240,160z"/>
	<path class="st0" d="M336,128c-8.8,0-16,7.2-16,16s7.2,16,16,16s16-7.2,16-16S344.8,128,336,128z"/>
	<path class="st0" d="M176,160c8.8,0,16-7.2,16-16s-7.2-16-16-16s-16,7.2-16,16C160,152.8,167.2,160,176,160z"/>
	<path class="st0" d="M502.8,129.5l-240-112c-4.3-2-9.3-2-13.5,0l-240,112c-8,3.7-11.5,13.3-7.7,21.3c3.7,8,13.3,11.5,21.3,7.7
		l9.2-4.3V480c0,8.8,7.2,16,16,16s16-7.2,16-16V224h384v256c0,8.8,7.2,16,16,16s16-7.2,16-16V154.2l9.2,4.3c2.2,1,4.5,1.5,6.8,1.5
		c6,0,11.8-3.4,14.5-9.2C514.2,142.8,510.8,133.2,502.8,129.5z M448,144v48H64v-48c0-1.5-0.5-2.9-0.9-4.3l192.9-90l192.9,90
		C448.5,141.1,448,142.5,448,144z"/>
	<path class="st0" d="M240,416c0-8.8-7.2-16-16-16h-96c-8.8,0-16,7.2-16,16v64c0,8.8,7.2,16,16,16h96c8.8,0,16-7.2,16-16V416z
		 M208,464h-64v-32h64V464z"/>
	<path class="st0" d="M400,416c0-8.8-7.2-16-16-16h-96c-8.8,0-16,7.2-16,16v64c0,8.8,7.2,16,16,16h96c8.8,0,16-7.2,16-16V416z
		 M368,464h-64v-32h64V464z"/>
	<path class="st0" d="M240,288c0-8.8-7.2-16-16-16h-96c-8.8,0-16,7.2-16,16v64c0,8.8,7.2,16,16,16h96c8.8,0,16-7.2,16-16V288z
		 M208,336h-64v-32h64V336z"/>
	<path class="st0" d="M400,288c0-8.8-7.2-16-16-16h-96c-8.8,0-16,7.2-16,16v64c0,8.8,7.2,16,16,16h96c8.8,0,16-7.2,16-16V288z
		 M368,336h-64v-32h64V336z"/>
</g>
</svg>
