<?xml version="1.0" encoding="utf-8"?>
<!-- Generator: Adobe Illustrator 24.1.0, SVG Export Plug-In . SVG Version: 6.00 Build 0)  -->
<svg version="1.1" id="Layer_1" xmlns="http://www.w3.org/2000/svg" xmlns:xlink="http://www.w3.org/1999/xlink" x="0px" y="0px"
	 viewBox="0 0 512 512" style="enable-background:new 0 0 512 512;" xml:space="preserve">
<style type="text/css">
	.st0{fill:#FFFFFF;}
</style>
<g>
	<circle class="st0" cx="196" cy="77" r="15"/>
	<path class="st0" d="M316,0H76c-8.3,0-15,6.7-15,15v482c0,8.3,6.7,15,15,15h240c8.3,0,15-6.7,15-15V356.7
		c31.5-12.8,67.6-11.6,98.3,3.7c10,5,21.7-2.3,21.7-13.4V167c0-5.7-3.2-10.9-8.3-13.4c-34.7-17.4-75.1-20.3-111.7-8.8V15
		C331,6.7,324.3,0,316,0L316,0z M301,324.8c-29.2-9.2-60.8-9.2-90,0V176.7c28.7-11.7,61.3-11.7,90,0V324.8z M91,482V30h210v114.8
		c-36.6-11.5-77-8.6-111.7,8.8c-5.1,2.5-8.3,7.7-8.3,13.4v180c0,11.1,11.7,18.4,21.7,13.4c30.6-15.3,66.8-16.6,98.3-3.7V482H91z
		 M421,176.7v148.1c-29.2-9.2-60.8-9.2-90,0V176.7C359.7,165,392.3,165,421,176.7L421,176.7z"/>
	<path class="st0" d="M226,422h-60c-8.3,0-15,6.7-15,15s6.7,15,15,15h60c8.3,0,15-6.7,15-15S234.3,422,226,422z"/>
</g>
</svg>
