<?xml version="1.0" encoding="utf-8"?>
<!-- Generator: Adobe Illustrator 24.1.0, SVG Export Plug-In . SVG Version: 6.00 Build 0)  -->
<svg version="1.1" id="Layer_1" xmlns="http://www.w3.org/2000/svg" xmlns:xlink="http://www.w3.org/1999/xlink" x="0px" y="0px"
	 viewBox="0 0 250.1 250.2" style="enable-background:new 0 0 250.1 250.2;" xml:space="preserve">
<style type="text/css">
	.st0{fill:#FFD7D7;}
	.st1{fill:#FF3D3D;}
</style>
<path class="st0" d="M214.5,250.2H35.6c-19.7,0-35.6-16-35.6-35.6v-179C0,15.9,16,0,35.6,0h178.9c19.7,0,35.6,16,35.6,35.6v178.9
	C250.2,234.2,234.2,250.2,214.5,250.2z"/>
<g>
	<path class="st1" d="M187.9,74.4H46.2l35.4,94.4h30.8l-12.7-33.6h65.4L187.9,74.4z M144.1,108.3H89.9l-3-7.2h59.9L144.1,108.3z"/>
	<circle class="st1" cx="97.2" cy="182.1" r="10.1"/>
	<circle class="st1" cx="136.6" cy="182" r="10.1"/>
	<circle class="st1" cx="197.1" cy="64.8" r="6.9"/>
</g>
</svg>
