<svg id="svg" version="1.1" xmlns="http://www.w3.org/2000/svg" xmlns:xlink="http://www.w3.org/1999/xlink" width="400" height="400" viewBox="0, 0, 400,400"><g id="svgg"><path id="path0" d="M131.000 88.048 C 130.120 88.249,128.500 88.607,127.400 88.844 C 108.426 92.921,92.012 110.481,88.181 130.800 C 87.471 134.567,87.310 265.522,88.011 268.723 C 88.238 269.755,88.614 271.500,88.848 272.600 C 92.797 291.166,110.535 308.072,130.000 311.822 C 134.411 312.672,264.655 312.673,269.200 311.823 C 290.782 307.789,307.606 291.119,311.813 269.600 C 312.707 265.030,312.692 134.526,311.797 129.851 C 310.668 123.950,307.851 116.794,305.038 112.682 C 304.467 111.847,304.000 111.084,304.000 110.987 C 304.000 110.407,299.933 105.635,296.742 102.472 C 289.254 95.048,280.010 90.106,270.000 88.178 C 266.477 87.499,133.944 87.376,131.000 88.048 M268.084 112.990 C 278.690 115.020,284.969 121.248,287.048 131.800 C 288.058 136.931,287.834 265.624,286.807 269.698 C 284.394 279.272,278.482 284.967,268.800 287.043 C 264.932 287.872,135.470 287.872,131.600 287.043 C 121.026 284.778,115.107 278.792,112.967 268.200 C 112.135 264.085,112.122 136.017,112.952 131.800 C 115.001 121.401,121.152 115.130,131.400 112.995 C 135.275 112.188,263.867 112.183,268.084 112.990 M253.200 128.547 C 240.770 131.260,236.507 146.592,245.802 155.159 C 254.557 163.229,268.666 158.763,271.428 147.046 C 273.983 136.208,264.092 126.170,253.200 128.547 M193.200 150.612 C 191.550 150.888,189.300 151.324,188.200 151.582 C 187.100 151.841,185.703 152.151,185.095 152.272 C 184.487 152.393,183.892 152.651,183.771 152.846 C 183.651 153.041,183.276 153.200,182.937 153.200 C 179.849 153.200,168.011 161.010,163.435 166.066 C 130.249 202.739,163.872 259.725,212.000 248.375 C 212.990 248.142,214.297 247.851,214.905 247.729 C 215.513 247.607,216.108 247.349,216.229 247.154 C 216.349 246.959,216.738 246.800,217.094 246.800 C 221.016 246.800,233.615 237.854,238.790 231.396 C 266.883 196.334,236.957 143.306,193.200 150.612 M204.728 175.385 C 229.506 180.597,232.352 214.228,208.800 223.498 C 195.307 228.809,179.571 220.743,175.798 206.583 C 171.059 188.795,186.960 171.647,204.728 175.385 " stroke="none" fill="#fbfbfb" fill-rule="evenodd"></path><path id="path1" d="M52.642 63.434 C 52.527 63.734,52.721 64.140,53.073 64.337 C 53.431 64.537,53.584 64.902,53.421 65.167 C 53.212 65.504,52.982 65.517,52.616 65.213 C 52.299 64.950,51.752 64.918,51.183 65.128 C 50.580 65.351,50.424 65.568,50.732 65.758 C 51.326 66.125,51.345 67.200,50.757 67.200 C 50.514 67.200,50.418 66.930,50.545 66.600 C 50.837 65.839,50.121 65.821,49.371 66.571 C 48.717 67.226,48.604 67.768,49.200 67.400 C 49.420 67.264,49.600 67.363,49.600 67.619 C 49.600 67.876,49.333 67.983,49.006 67.858 C 48.440 67.640,47.323 69.021,47.515 69.700 C 47.562 69.865,47.319 70.000,46.976 70.000 C 46.633 70.000,46.464 70.180,46.600 70.400 C 46.736 70.620,46.547 70.800,46.181 70.800 C 45.754 70.800,45.597 71.015,45.744 71.398 C 45.886 71.769,45.524 72.328,44.787 72.873 C 44.134 73.356,43.600 73.987,43.600 74.275 C 43.600 74.564,43.342 74.800,43.027 74.800 C 42.712 74.800,42.340 75.160,42.200 75.600 C 42.060 76.040,41.778 76.400,41.573 76.400 C 41.368 76.400,41.200 76.644,41.200 76.942 C 41.200 77.240,40.703 77.915,40.094 78.442 C 39.486 78.969,38.738 79.892,38.430 80.493 C 38.123 81.095,37.541 81.942,37.136 82.377 C 36.731 82.811,36.400 83.277,36.400 83.412 C 36.400 83.547,36.128 83.929,35.796 84.261 C 35.464 84.593,35.312 85.058,35.458 85.294 C 35.604 85.530,35.555 85.619,35.348 85.492 C 35.142 85.364,34.349 86.235,33.587 87.428 C 32.824 88.620,32.065 89.597,31.900 89.598 C 31.735 89.599,31.600 89.799,31.600 90.042 C 31.600 90.285,31.060 91.284,30.400 92.262 C 29.740 93.240,29.200 94.211,29.200 94.420 C 29.200 94.629,29.020 94.800,28.800 94.800 C 28.580 94.800,28.400 95.070,28.400 95.400 C 28.400 95.730,28.220 96.000,28.000 96.000 C 27.780 96.000,27.600 96.193,27.600 96.429 C 27.600 96.664,27.328 97.129,26.996 97.461 C 26.664 97.793,26.495 98.230,26.620 98.432 C 26.745 98.635,26.627 98.800,26.357 98.800 C 26.087 98.800,25.978 98.911,26.114 99.048 C 26.250 99.184,26.099 99.558,25.777 99.880 C 25.456 100.201,25.295 100.630,25.420 100.832 C 25.545 101.035,25.457 101.200,25.224 101.200 C 24.991 101.200,24.800 101.436,24.800 101.725 C 24.800 102.013,24.440 102.636,24.000 103.108 C 23.560 103.580,23.200 104.137,23.200 104.345 C 23.200 104.727,21.572 108.028,21.200 108.400 C 20.722 108.878,20.000 110.439,20.000 110.995 C 20.000 111.328,19.820 111.600,19.600 111.600 C 19.380 111.600,19.200 111.870,19.200 112.200 C 19.200 112.530,19.058 112.800,18.885 112.800 C 18.712 112.800,18.540 113.202,18.503 113.694 C 18.466 114.186,18.248 114.651,18.018 114.727 C 17.788 114.804,17.600 115.201,17.600 115.610 C 17.600 116.018,17.420 116.464,17.200 116.600 C 16.980 116.736,16.800 117.197,16.800 117.624 C 16.800 118.051,16.620 118.400,16.400 118.400 C 16.180 118.400,16.000 118.760,16.000 119.200 C 16.000 119.640,15.853 120.000,15.672 120.000 C 15.492 120.000,15.100 120.900,14.800 122.000 C 14.500 123.100,14.108 124.000,13.928 124.000 C 13.747 124.000,13.600 124.360,13.600 124.800 C 13.600 125.240,13.420 125.600,13.200 125.600 C 12.980 125.600,12.800 126.039,12.800 126.576 C 12.800 127.113,12.620 127.664,12.400 127.800 C 12.180 127.936,12.000 128.315,12.000 128.643 C 12.000 128.971,11.640 129.984,11.200 130.894 C 10.760 131.805,10.400 132.846,10.400 133.208 C 10.400 133.570,10.275 133.992,10.122 134.145 C 9.969 134.298,9.811 134.643,9.772 134.912 C 9.732 135.180,9.407 136.261,9.050 137.314 C 8.692 138.367,8.400 139.672,8.400 140.214 C 8.400 140.756,8.220 141.200,8.000 141.200 C 7.780 141.200,7.600 141.729,7.600 142.376 C 7.600 143.023,7.420 143.664,7.200 143.800 C 6.980 143.936,6.800 144.667,6.800 145.424 C 6.800 146.181,6.620 146.800,6.400 146.800 C 6.180 146.800,6.000 147.430,6.000 148.200 C 6.000 148.970,5.820 149.600,5.600 149.600 C 5.380 149.600,5.200 150.320,5.200 151.200 C 5.200 152.080,5.020 152.800,4.800 152.800 C 4.580 152.800,4.400 153.509,4.400 154.376 C 4.400 155.243,4.220 156.064,4.000 156.200 C 3.780 156.336,3.600 157.247,3.600 158.224 C 3.600 159.201,3.420 160.000,3.200 160.000 C 2.980 160.000,2.800 160.900,2.800 162.000 C 2.800 163.100,2.620 164.000,2.400 164.000 C 2.180 164.000,2.000 164.979,2.000 166.176 C 2.000 167.373,1.820 168.464,1.600 168.600 C 1.380 168.736,1.200 170.061,1.200 171.544 C 1.200 173.167,1.001 174.439,0.700 174.740 C -0.029 175.469,-0.029 224.531,0.700 225.260 C 1.001 225.561,1.200 226.833,1.200 228.456 C 1.200 229.939,1.380 231.264,1.600 231.400 C 1.820 231.536,2.000 232.627,2.000 233.824 C 2.000 235.021,2.180 236.000,2.400 236.000 C 2.620 236.000,2.800 236.900,2.800 238.000 C 2.800 239.100,2.980 240.000,3.200 240.000 C 3.420 240.000,3.600 240.799,3.600 241.776 C 3.600 242.753,3.780 243.664,4.000 243.800 C 4.220 243.936,4.400 244.757,4.400 245.624 C 4.400 246.491,4.580 247.200,4.800 247.200 C 5.020 247.200,5.200 247.843,5.200 248.629 C 5.200 250.409,6.074 251.474,6.809 250.589 C 7.178 250.145,7.182 250.000,6.825 250.000 C 6.565 250.000,6.464 249.820,6.600 249.600 C 6.736 249.380,6.672 249.200,6.457 249.200 C 6.242 249.200,5.976 249.425,5.865 249.700 C 5.707 250.092,5.656 250.089,5.632 249.687 C 5.614 249.406,5.915 249.074,6.300 248.950 C 7.771 248.478,10.400 247.059,10.400 246.737 C 10.400 246.552,10.745 246.400,11.167 246.400 C 11.588 246.400,11.993 246.259,12.067 246.087 C 12.300 245.539,21.404 241.200,22.320 241.200 C 22.804 241.200,23.200 241.020,23.200 240.800 C 23.200 240.580,23.560 240.400,24.000 240.400 C 24.440 240.400,24.800 240.220,24.800 240.000 C 24.800 239.780,25.065 239.600,25.388 239.600 C 25.711 239.600,26.566 239.271,27.288 238.869 C 28.010 238.467,29.455 237.887,30.500 237.582 C 31.545 237.276,32.400 236.885,32.400 236.713 C 32.400 236.541,32.749 236.400,33.176 236.400 C 33.603 236.400,34.064 236.220,34.200 236.000 C 34.336 235.780,34.876 235.600,35.400 235.600 C 35.924 235.600,36.464 235.420,36.600 235.200 C 36.736 234.980,37.276 234.800,37.800 234.800 C 38.324 234.800,38.864 234.620,39.000 234.400 C 39.136 234.180,39.676 234.000,40.200 234.000 C 40.724 234.000,41.264 233.820,41.400 233.600 C 41.536 233.380,42.177 233.200,42.824 233.200 C 43.471 233.200,44.000 233.020,44.000 232.800 C 44.000 232.580,44.619 232.400,45.376 232.400 C 46.133 232.400,46.864 232.220,47.000 232.000 C 47.136 231.780,47.856 231.600,48.600 231.600 C 49.344 231.600,50.064 231.420,50.200 231.200 C 50.336 230.980,51.157 230.800,52.024 230.800 C 52.891 230.800,53.600 230.620,53.600 230.400 C 53.600 230.180,54.500 230.000,55.600 230.000 C 56.700 230.000,57.600 229.820,57.600 229.600 C 57.600 229.380,58.590 229.200,59.800 229.200 C 61.010 229.200,62.000 229.020,62.000 228.800 C 62.000 228.571,63.200 228.400,64.800 228.400 C 66.400 228.400,67.600 228.229,67.600 228.000 C 67.600 227.761,69.133 227.600,71.400 227.600 C 73.667 227.600,75.200 227.439,75.200 227.200 C 75.200 226.951,77.456 226.800,81.168 226.800 L 87.135 226.800 87.310 179.300 C 87.480 133.033,87.506 131.712,88.308 128.400 C 91.180 116.540,97.986 105.871,107.200 98.784 C 108.190 98.023,109.090 97.301,109.200 97.181 C 110.708 95.528,118.683 91.371,123.356 89.802 C 129.972 87.581,129.434 87.607,171.600 87.522 C 193.050 87.479,209.385 87.380,207.900 87.303 C 206.415 87.226,205.200 86.992,205.200 86.782 C 205.200 86.572,204.840 86.400,204.400 86.400 C 203.960 86.400,203.600 86.220,203.600 86.000 C 203.600 85.780,203.060 85.600,202.400 85.600 C 201.740 85.600,201.200 85.420,201.200 85.200 C 201.200 84.980,200.840 84.800,200.400 84.800 C 199.960 84.800,199.600 84.620,199.600 84.400 C 199.600 84.180,199.060 84.000,198.400 84.000 C 197.740 84.000,197.200 83.820,197.200 83.600 C 197.200 83.380,196.840 83.200,196.400 83.200 C 195.960 83.200,195.600 83.020,195.600 82.800 C 195.600 82.580,195.150 82.400,194.600 82.400 C 194.050 82.400,193.600 82.220,193.600 82.000 C 193.600 81.780,193.060 81.600,192.400 81.600 C 191.740 81.600,191.200 81.420,191.200 81.200 C 191.200 80.980,190.660 80.800,190.000 80.800 C 189.340 80.800,188.800 80.620,188.800 80.400 C 188.800 80.180,188.260 80.000,187.600 80.000 C 186.940 80.000,186.400 79.820,186.400 79.600 C 186.400 79.380,185.860 79.200,185.200 79.200 C 184.540 79.200,184.000 79.020,184.000 78.800 C 184.000 78.580,183.460 78.400,182.800 78.400 C 182.140 78.400,181.600 78.220,181.600 78.000 C 181.600 77.780,181.060 77.600,180.400 77.600 C 179.740 77.600,179.200 77.420,179.200 77.200 C 179.200 76.980,178.750 76.800,178.200 76.800 C 177.650 76.800,177.200 76.620,177.200 76.400 C 177.200 76.180,176.480 76.000,175.600 76.000 C 174.720 76.000,174.000 75.831,174.000 75.624 C 174.000 75.418,172.740 75.124,171.200 74.973 C 169.660 74.821,168.400 74.540,168.400 74.348 C 168.400 74.157,167.680 74.000,166.800 74.000 C 165.920 74.000,165.200 73.820,165.200 73.600 C 165.200 73.380,164.660 73.200,164.000 73.200 C 163.340 73.200,162.800 73.020,162.800 72.800 C 162.800 72.580,161.990 72.400,161.000 72.400 C 160.010 72.400,159.200 72.220,159.200 72.000 C 159.200 71.780,158.480 71.600,157.600 71.600 C 156.720 71.600,156.000 71.420,156.000 71.200 C 156.000 70.980,155.280 70.800,154.400 70.800 C 153.520 70.800,152.800 70.620,152.800 70.400 C 152.800 70.180,151.900 70.000,150.800 70.000 C 149.700 70.000,148.800 69.820,148.800 69.600 C 148.800 69.380,147.900 69.200,146.800 69.200 C 145.700 69.200,144.800 69.020,144.800 68.800 C 144.800 68.580,143.810 68.400,142.600 68.400 C 141.390 68.400,140.400 68.220,140.400 68.000 C 140.400 67.778,139.333 67.600,138.000 67.600 C 136.667 67.600,135.600 67.422,135.600 67.200 C 135.600 66.978,134.533 66.800,133.200 66.800 C 131.867 66.800,130.800 66.622,130.800 66.400 C 130.800 66.169,129.533 66.000,127.800 66.000 C 126.067 66.000,124.800 65.831,124.800 65.600 C 124.800 65.367,123.467 65.200,121.600 65.200 C 119.733 65.200,118.400 65.033,118.400 64.800 C 118.400 64.557,116.600 64.400,113.800 64.400 C 111.000 64.400,109.200 64.243,109.200 64.000 C 109.200 63.747,106.400 63.600,101.600 63.600 C 96.800 63.600,94.000 63.453,94.000 63.200 C 94.000 62.946,91.000 62.800,85.800 62.800 C 80.600 62.800,77.600 62.946,77.600 63.200 C 77.600 63.452,74.867 63.600,70.200 63.600 C 65.533 63.600,62.800 63.748,62.800 64.000 C 62.800 64.239,61.267 64.400,59.000 64.400 C 56.910 64.400,55.200 64.259,55.200 64.088 C 55.200 63.444,52.867 62.848,52.642 63.434 M159.400 112.807 C 134.721 113.006,131.139 113.113,129.203 113.706 C 121.556 116.048,116.487 120.994,113.938 128.600 L 113.000 131.400 112.891 180.300 C 112.782 229.155,112.782 229.200,113.591 229.200 C 114.036 229.200,114.400 229.380,114.400 229.600 C 114.400 229.820,115.300 230.000,116.400 230.000 C 117.500 230.000,118.400 230.180,118.400 230.400 C 118.400 230.620,119.109 230.800,119.976 230.800 C 120.843 230.800,121.664 230.980,121.800 231.200 C 121.936 231.420,122.656 231.600,123.400 231.600 C 124.144 231.600,124.864 231.780,125.000 232.000 C 125.136 232.220,125.777 232.400,126.424 232.400 C 127.071 232.400,127.600 232.580,127.600 232.800 C 127.600 233.020,128.219 233.200,128.976 233.200 C 129.733 233.200,130.464 233.380,130.600 233.600 C 130.736 233.820,131.276 234.000,131.800 234.000 C 132.324 234.000,132.864 234.180,133.000 234.400 C 133.136 234.620,133.676 234.800,134.200 234.800 C 134.724 234.800,135.264 234.980,135.400 235.200 C 135.536 235.420,136.087 235.600,136.624 235.600 C 137.161 235.600,137.600 235.780,137.600 236.000 C 137.600 236.220,138.050 236.400,138.600 236.400 C 139.150 236.400,139.600 236.580,139.600 236.800 C 139.600 237.020,139.949 237.200,140.376 237.200 C 140.803 237.200,141.264 237.380,141.400 237.600 C 141.536 237.820,141.991 238.000,142.411 238.000 C 142.832 238.000,143.817 238.360,144.600 238.800 C 145.383 239.240,146.289 239.600,146.612 239.600 C 146.935 239.600,147.200 239.780,147.200 240.000 C 147.200 240.220,147.560 240.400,148.000 240.400 C 148.440 240.400,148.800 240.580,148.800 240.800 C 148.800 241.020,149.196 241.200,149.680 241.200 C 150.596 241.200,159.700 245.539,159.933 246.087 C 160.007 246.259,160.322 246.400,160.633 246.400 C 160.945 246.400,161.200 246.538,161.200 246.706 C 161.200 246.874,161.896 247.313,162.747 247.682 C 163.599 248.050,164.544 248.589,164.847 248.878 C 165.151 249.168,166.255 249.837,167.300 250.365 C 168.345 250.894,169.200 251.477,169.200 251.663 C 169.200 251.848,169.432 252.000,169.714 252.000 C 169.997 252.000,171.032 252.715,172.014 253.589 C 172.997 254.462,173.943 255.182,174.117 255.189 C 174.291 255.195,174.820 255.560,175.292 256.000 C 175.764 256.440,176.375 256.800,176.648 256.800 C 176.922 256.800,177.255 257.142,177.387 257.560 C 177.520 257.978,178.077 258.433,178.624 258.570 C 179.172 258.708,180.379 259.536,181.308 260.410 C 182.236 261.285,183.133 262.000,183.300 262.000 C 183.468 262.000,185.089 263.437,186.903 265.193 C 188.716 266.949,190.380 268.398,190.600 268.412 C 190.820 268.426,191.630 269.153,192.400 270.029 C 194.110 271.973,196.422 274.462,200.500 278.750 C 202.205 280.543,203.600 282.144,203.600 282.307 C 203.600 282.471,204.288 283.334,205.128 284.227 C 205.969 285.119,206.773 286.153,206.916 286.525 C 207.285 287.487,263.614 287.562,268.665 286.607 C 275.711 285.275,281.647 280.975,284.512 275.127 C 287.449 269.133,287.269 273.557,287.488 201.678 C 287.679 138.749,287.613 133.027,286.705 133.935 C 286.397 134.243,286.411 134.532,286.756 134.947 C 287.093 135.353,287.109 135.609,286.810 135.794 C 286.573 135.940,286.430 135.906,286.490 135.719 C 286.632 135.277,283.764 132.400,283.182 132.400 C 282.937 132.400,282.046 131.680,281.200 130.800 C 280.354 129.920,279.445 129.200,279.178 129.200 C 278.652 129.200,277.200 127.688,277.200 127.139 C 277.200 126.952,276.922 126.800,276.582 126.800 C 276.242 126.800,275.514 126.350,274.964 125.800 C 274.414 125.250,273.684 124.800,273.342 124.800 C 273.001 124.800,272.217 124.260,271.600 123.600 C 270.983 122.940,270.231 122.400,269.928 122.400 C 269.625 122.400,269.117 122.040,268.800 121.600 C 268.483 121.160,267.943 120.800,267.600 120.800 C 267.257 120.800,266.717 120.440,266.400 120.000 C 266.083 119.560,265.575 119.200,265.272 119.200 C 264.969 119.200,264.217 118.660,263.600 118.000 C 262.983 117.340,262.231 116.800,261.928 116.800 C 261.625 116.800,261.117 116.440,260.800 116.000 C 260.483 115.560,259.993 115.200,259.712 115.200 C 259.430 115.200,259.200 115.020,259.200 114.800 C 259.200 114.580,258.917 114.400,258.571 114.400 C 257.978 114.400,256.800 113.501,256.800 113.049 C 256.800 112.934,257.835 112.775,259.100 112.696 C 262.639 112.473,190.861 112.554,159.400 112.807 M260.154 128.480 C 275.495 132.948,275.949 153.795,260.814 158.764 C 248.017 162.965,236.249 149.325,242.040 137.004 C 245.107 130.481,253.486 126.537,260.154 128.480 M207.680 150.416 C 229.873 154.770,245.344 169.885,249.425 191.200 C 251.601 202.562,247.952 220.649,242.156 227.231 C 241.850 227.579,241.600 227.994,241.600 228.155 C 241.600 229.012,233.278 237.978,230.600 240.006 C 227.647 242.242,225.146 243.738,220.971 245.768 C 218.501 246.969,216.603 247.645,211.400 249.178 C 206.997 250.475,195.827 250.705,190.400 249.610 C 189.190 249.366,187.613 249.064,186.896 248.939 C 186.179 248.814,185.494 248.551,185.373 248.356 C 185.252 248.160,184.801 248.000,184.371 248.000 C 183.941 248.000,183.277 247.841,182.895 247.647 C 182.513 247.452,181.750 247.116,181.200 246.899 C 180.650 246.683,179.030 245.917,177.600 245.198 C 176.170 244.480,174.596 243.691,174.103 243.446 C 173.610 243.201,173.205 242.865,173.203 242.700 C 173.201 242.535,172.964 242.400,172.675 242.400 C 172.387 242.400,171.801 242.085,171.374 241.700 C 170.947 241.315,169.601 240.243,168.384 239.318 C 165.949 237.466,162.520 233.988,160.381 231.200 C 159.621 230.210,158.910 229.310,158.799 229.200 C 158.689 229.090,158.344 228.505,158.032 227.900 C 157.720 227.295,157.315 226.800,157.132 226.800 C 156.950 226.800,156.800 226.628,156.800 226.418 C 156.800 226.207,156.295 225.172,155.678 224.118 C 140.613 198.372,155.137 161.640,184.000 152.489 C 186.410 151.725,188.066 151.308,192.200 150.423 C 194.501 149.930,205.181 149.926,207.680 150.416 M312.694 208.800 C 312.888 263.673,312.804 267.816,311.393 273.000 C 310.172 277.489,308.277 282.409,307.134 284.062 C 306.730 284.646,306.400 285.239,306.400 285.380 C 306.400 287.495,296.250 299.167,291.600 302.400 C 290.830 302.936,289.962 303.605,289.671 303.887 C 289.381 304.169,288.989 304.400,288.800 304.400 C 288.611 304.400,288.214 304.625,287.916 304.900 C 286.485 306.223,280.080 309.345,276.400 310.513 C 269.339 312.754,268.716 312.800,245.176 312.800 L 223.214 312.800 224.007 314.212 C 224.443 314.989,224.800 315.889,224.800 316.212 C 224.800 316.535,224.980 316.800,225.200 316.800 C 225.420 316.800,225.600 317.160,225.600 317.600 C 225.600 318.040,225.780 318.400,226.000 318.400 C 226.220 318.400,226.400 318.739,226.400 319.154 C 226.400 319.569,226.669 320.424,226.998 321.054 C 227.326 321.684,227.596 322.594,227.598 323.076 C 227.599 323.558,227.780 324.064,228.000 324.200 C 228.220 324.336,228.400 324.797,228.400 325.224 C 228.400 325.651,228.580 326.000,228.800 326.000 C 229.020 326.000,229.200 326.362,229.200 326.805 C 229.200 327.248,229.380 327.968,229.600 328.405 C 229.820 328.842,230.180 329.558,230.400 329.995 C 230.620 330.432,230.800 331.141,230.800 331.571 C 230.800 332.001,230.980 332.464,231.200 332.600 C 231.420 332.736,231.600 333.276,231.600 333.800 C 231.600 334.324,231.780 334.864,232.000 335.000 C 232.220 335.136,232.400 335.867,232.400 336.624 C 232.400 337.381,232.580 338.000,232.800 338.000 C 233.020 338.000,233.200 338.529,233.200 339.176 C 233.200 339.823,233.380 340.464,233.600 340.600 C 233.820 340.736,234.000 341.456,234.000 342.200 C 234.000 342.944,234.180 343.664,234.400 343.800 C 234.620 343.936,234.800 344.757,234.800 345.624 C 234.800 346.491,234.980 347.200,235.200 347.200 C 235.420 347.200,235.600 348.100,235.600 349.200 C 235.600 350.300,235.780 351.200,236.000 351.200 C 236.222 351.200,236.400 352.267,236.400 353.600 C 236.400 354.933,236.578 356.000,236.800 356.000 C 237.026 356.000,237.200 357.133,237.200 358.600 C 237.200 360.067,237.374 361.200,237.600 361.200 C 237.840 361.200,238.000 362.800,238.000 365.200 C 238.000 367.600,238.160 369.200,238.400 369.200 C 238.657 369.200,238.800 373.000,238.800 379.800 C 238.800 386.600,238.657 390.400,238.400 390.400 C 238.171 390.400,238.000 391.608,238.000 393.224 C 238.000 395.376,237.881 395.976,237.500 395.747 C 237.122 395.520,237.126 395.602,237.517 396.084 C 237.939 396.606,237.939 396.760,237.517 396.930 C 237.233 397.044,237.675 397.151,238.500 397.168 C 239.325 397.186,240.000 397.020,240.000 396.800 C 240.000 396.580,240.799 396.400,241.776 396.400 C 242.753 396.400,243.664 396.220,243.800 396.000 C 243.936 395.780,244.757 395.600,245.624 395.600 C 246.491 395.600,247.200 395.420,247.200 395.200 C 247.200 394.980,247.920 394.800,248.800 394.800 C 249.680 394.800,250.400 394.620,250.400 394.400 C 250.400 394.180,251.019 394.000,251.776 394.000 C 252.533 394.000,253.264 393.820,253.400 393.600 C 253.536 393.380,254.166 393.200,254.800 393.200 C 255.434 393.200,256.064 393.020,256.200 392.800 C 256.336 392.580,256.977 392.400,257.624 392.400 C 258.271 392.400,258.800 392.220,258.800 392.000 C 258.800 391.780,259.229 391.600,259.754 391.600 C 260.645 391.600,263.982 390.715,265.800 389.997 C 266.240 389.823,267.230 389.464,268.000 389.200 C 268.770 388.936,269.850 388.533,270.400 388.306 C 270.950 388.079,271.850 387.716,272.400 387.500 C 272.950 387.284,273.713 386.948,274.095 386.753 C 274.477 386.559,275.062 386.400,275.395 386.400 C 275.728 386.400,276.000 386.220,276.000 386.000 C 276.000 385.780,276.439 385.600,276.976 385.600 C 277.513 385.600,278.064 385.420,278.200 385.200 C 278.336 384.980,278.797 384.800,279.224 384.800 C 279.651 384.800,280.000 384.620,280.000 384.400 C 280.000 384.180,280.360 384.000,280.800 384.000 C 281.240 384.000,281.600 383.820,281.600 383.600 C 281.600 383.380,281.872 383.200,282.205 383.200 C 282.538 383.200,283.123 383.038,283.505 382.841 C 283.887 382.643,285.820 381.700,287.800 380.745 C 289.780 379.789,291.460 378.871,291.533 378.704 C 291.607 378.537,292.012 378.400,292.433 378.400 C 292.855 378.400,293.200 378.220,293.200 378.000 C 293.200 377.780,293.560 377.600,294.000 377.600 C 294.440 377.600,294.800 377.420,294.800 377.200 C 294.800 376.980,295.036 376.800,295.325 376.800 C 295.613 376.800,296.236 376.440,296.708 376.000 C 297.180 375.560,297.775 375.200,298.029 375.200 C 298.611 375.200,302.553 373.105,302.733 372.700 C 302.807 372.535,303.023 372.400,303.213 372.400 C 303.404 372.400,304.360 371.860,305.338 371.200 C 306.316 370.540,307.275 370.000,307.470 370.000 C 307.664 370.000,308.083 369.640,308.400 369.200 C 308.717 368.760,309.297 368.400,309.688 368.400 C 310.080 368.400,310.400 368.250,310.400 368.068 C 310.400 367.885,310.895 367.481,311.500 367.170 C 312.105 366.860,312.891 366.289,313.247 365.903 C 313.603 365.516,314.148 365.200,314.459 365.200 C 314.769 365.200,315.283 364.840,315.600 364.400 C 315.917 363.960,316.407 363.600,316.688 363.600 C 316.970 363.600,317.200 363.420,317.200 363.200 C 317.200 362.980,317.430 362.800,317.712 362.800 C 317.993 362.800,318.483 362.440,318.800 362.000 C 319.117 361.560,319.625 361.200,319.928 361.200 C 320.231 361.200,320.983 360.660,321.600 360.000 C 322.217 359.340,322.874 358.797,323.060 358.794 C 323.247 358.790,324.210 358.073,325.200 357.200 C 326.190 356.327,327.117 355.610,327.259 355.606 C 327.402 355.603,328.650 354.520,330.033 353.200 C 331.416 351.880,332.690 350.800,332.865 350.800 C 333.261 350.800,350.799 333.290,350.802 332.891 C 350.803 332.731,351.613 331.746,352.602 330.701 C 353.591 329.657,354.400 328.712,354.400 328.601 C 354.400 328.491,354.715 328.077,355.100 327.682 C 356.222 326.530,358.585 323.547,358.766 323.053 C 358.857 322.804,359.442 322.123,360.066 321.540 C 360.690 320.956,361.200 320.231,361.200 319.928 C 361.200 319.625,361.560 319.117,362.000 318.800 C 362.440 318.483,362.800 317.993,362.800 317.712 C 362.800 317.430,362.980 317.200,363.200 317.200 C 363.420 317.200,363.600 316.970,363.600 316.688 C 363.600 316.407,363.960 315.917,364.400 315.600 C 364.840 315.283,365.200 314.769,365.200 314.459 C 365.200 314.148,365.516 313.603,365.903 313.247 C 366.289 312.891,366.860 312.105,367.170 311.500 C 367.481 310.895,367.885 310.400,368.068 310.400 C 368.250 310.400,368.400 310.080,368.400 309.688 C 368.400 309.297,368.750 308.724,369.179 308.415 C 369.607 308.107,369.875 307.722,369.775 307.559 C 369.675 307.397,369.824 307.025,370.106 306.732 C 370.996 305.809,374.533 299.902,374.533 299.339 C 374.533 299.042,374.683 298.800,374.867 298.800 C 375.050 298.800,375.200 298.440,375.200 298.000 C 375.200 297.560,375.380 297.200,375.600 297.200 C 375.820 297.200,376.000 296.922,376.000 296.583 C 376.000 296.244,376.360 295.580,376.800 295.108 C 377.240 294.636,377.600 293.923,377.600 293.525 C 377.600 293.126,377.780 292.800,378.000 292.800 C 378.220 292.800,378.400 292.530,378.400 292.200 C 378.400 291.870,378.580 291.600,378.800 291.600 C 379.020 291.600,379.200 291.338,379.200 291.018 C 379.200 290.697,379.740 289.519,380.400 288.400 C 381.060 287.281,381.600 286.013,381.600 285.582 C 381.600 285.152,381.780 284.800,382.000 284.800 C 382.220 284.800,382.400 284.451,382.400 284.024 C 382.400 283.597,382.580 283.136,382.800 283.000 C 383.020 282.864,383.200 282.403,383.200 281.976 C 383.200 281.549,383.391 281.200,383.624 281.200 C 383.857 281.200,383.945 281.035,383.820 280.832 C 383.695 280.630,383.866 280.191,384.199 279.858 C 384.575 279.482,384.653 279.156,384.403 279.002 C 384.181 278.865,384.003 278.538,384.006 278.276 C 384.010 277.990,384.167 278.039,384.400 278.400 C 384.773 278.977,385.000 278.632,384.797 277.800 C 384.403 276.189,384.485 275.573,385.033 276.027 C 385.391 276.324,385.600 276.344,385.600 276.082 C 385.600 275.148,385.100 274.464,384.567 274.668 C 384.153 274.827,384.000 274.551,384.000 273.643 C 384.000 272.959,383.820 272.400,383.600 272.400 C 383.380 272.400,383.200 271.860,383.200 271.200 C 383.200 270.540,383.020 270.000,382.800 270.000 C 382.580 270.000,382.400 269.640,382.400 269.200 C 382.400 268.760,382.220 268.400,382.000 268.400 C 381.780 268.400,381.600 267.860,381.600 267.200 C 381.600 266.540,381.420 266.000,381.200 266.000 C 380.980 266.000,380.800 265.640,380.800 265.200 C 380.800 264.760,380.620 264.400,380.400 264.400 C 380.180 264.400,380.000 263.860,380.000 263.200 C 380.000 262.540,379.820 262.000,379.600 262.000 C 379.380 262.000,379.200 261.640,379.200 261.200 C 379.200 260.760,379.020 260.400,378.800 260.400 C 378.580 260.400,378.400 259.950,378.400 259.400 C 378.400 258.850,378.226 258.400,378.014 258.400 C 377.801 258.400,377.508 257.500,377.362 256.400 C 377.216 255.300,376.940 254.400,376.748 254.400 C 376.557 254.400,376.400 254.040,376.400 253.600 C 376.400 253.160,376.220 252.800,376.000 252.800 C 375.780 252.800,375.600 252.440,375.600 252.000 C 375.600 251.560,375.420 251.200,375.200 251.200 C 374.980 251.200,374.800 250.840,374.800 250.400 C 374.800 249.960,374.620 249.600,374.400 249.600 C 374.180 249.600,374.000 249.060,374.000 248.400 C 374.000 247.740,373.820 247.200,373.600 247.200 C 373.380 247.200,373.200 246.840,373.200 246.400 C 373.200 245.960,373.020 245.600,372.800 245.600 C 372.580 245.600,372.400 245.240,372.400 244.800 C 372.400 244.360,372.220 244.000,372.000 244.000 C 371.780 244.000,371.600 243.640,371.600 243.200 C 371.600 242.760,371.420 242.400,371.200 242.400 C 370.980 242.400,370.800 242.130,370.800 241.800 C 370.800 241.470,370.620 241.200,370.400 241.200 C 370.180 241.200,370.000 240.840,370.000 240.400 C 370.000 239.960,369.820 239.600,369.600 239.600 C 369.380 239.600,369.200 239.240,369.200 238.800 C 369.200 238.360,369.020 238.000,368.800 238.000 C 368.580 238.000,368.400 237.640,368.400 237.200 C 368.400 236.760,368.220 236.400,368.000 236.400 C 367.780 236.400,367.600 236.040,367.600 235.600 C 367.600 235.160,367.420 234.800,367.200 234.800 C 366.980 234.800,366.800 234.440,366.800 234.000 C 366.800 233.560,366.620 233.200,366.400 233.200 C 366.180 233.200,366.000 232.840,366.000 232.400 C 366.000 231.960,365.820 231.600,365.600 231.600 C 365.380 231.600,365.200 231.240,365.200 230.800 C 365.200 230.360,365.020 230.000,364.800 230.000 C 364.580 230.000,364.400 229.680,364.400 229.288 C 364.400 228.897,364.040 228.317,363.600 228.000 C 363.160 227.683,362.800 227.103,362.800 226.712 C 362.800 226.320,362.620 226.000,362.400 226.000 C 362.180 226.000,362.000 225.730,362.000 225.400 C 362.000 225.070,361.820 224.800,361.600 224.800 C 361.380 224.800,361.200 224.517,361.200 224.171 C 361.200 223.826,360.930 223.273,360.600 222.943 C 360.270 222.613,360.000 221.996,360.000 221.571 C 360.000 221.147,359.820 220.800,359.600 220.800 C 359.380 220.800,359.200 220.440,359.200 220.000 C 359.200 219.560,359.020 219.200,358.800 219.200 C 358.580 219.200,358.400 218.880,358.400 218.488 C 358.400 218.097,358.040 217.517,357.600 217.200 C 357.160 216.883,356.800 216.303,356.800 215.912 C 356.800 215.520,356.620 215.200,356.400 215.200 C 356.180 215.200,356.000 214.880,356.000 214.488 C 356.000 214.097,355.640 213.517,355.200 213.200 C 354.760 212.883,354.400 212.343,354.400 212.000 C 354.400 211.657,354.040 211.117,353.600 210.800 C 353.160 210.483,352.800 209.915,352.800 209.539 C 352.800 209.162,352.440 208.740,352.000 208.600 C 351.560 208.460,351.200 207.998,351.200 207.573 C 351.200 207.148,351.020 206.800,350.800 206.800 C 350.580 206.800,350.400 206.480,350.400 206.088 C 350.400 205.697,350.040 205.117,349.600 204.800 C 349.160 204.483,348.800 203.975,348.800 203.672 C 348.800 203.369,348.260 202.617,347.600 202.000 C 346.940 201.383,346.400 200.631,346.400 200.328 C 346.400 200.025,346.040 199.517,345.600 199.200 C 345.160 198.883,344.800 198.303,344.800 197.912 C 344.800 197.520,344.623 197.200,344.408 197.200 C 344.192 197.200,343.892 196.705,343.740 196.100 C 343.589 195.495,342.956 194.523,342.333 193.940 C 341.710 193.356,341.200 192.591,341.200 192.240 C 341.200 191.888,341.048 191.600,340.861 191.600 C 340.308 191.600,338.800 190.146,338.800 189.614 C 338.800 189.343,338.260 188.617,337.600 188.000 C 336.940 187.383,336.400 186.667,336.400 186.408 C 336.400 186.149,335.680 185.246,334.800 184.400 C 333.920 183.554,333.200 182.654,333.200 182.400 C 333.200 182.146,332.480 181.246,331.600 180.400 C 330.720 179.554,330.000 178.658,330.000 178.408 C 330.000 178.158,329.190 177.155,328.200 176.179 C 327.210 175.203,326.400 174.216,326.400 173.985 C 326.400 173.755,324.960 172.141,323.200 170.400 C 321.440 168.659,320.000 167.040,320.000 166.802 C 320.000 166.564,318.390 164.773,316.422 162.822 C 312.930 159.359,312.840 159.224,312.674 157.137 C 312.580 155.962,312.589 179.210,312.694 208.800 M195.000 175.811 C 190.126 177.084,187.235 178.513,183.884 181.305 C 178.550 185.749,174.672 194.719,175.347 201.049 C 175.797 205.263,176.078 206.801,176.442 207.026 C 176.639 207.148,176.800 207.578,176.800 207.983 C 176.800 212.404,187.596 223.200,192.017 223.200 C 192.422 223.200,192.852 223.361,192.974 223.558 C 193.199 223.922,194.737 224.203,198.951 224.653 C 211.792 226.022,224.763 213.602,224.794 199.906 C 224.829 184.593,209.339 172.066,195.000 175.811 M386.400 273.400 C 385.992 273.891,386.020 274.000,386.551 274.000 C 386.908 274.000,387.200 273.730,387.200 273.400 C 387.200 273.070,387.132 272.800,387.049 272.800 C 386.966 272.800,386.674 273.070,386.400 273.400 " stroke="none" fill="#e04e57" fill-rule="evenodd"></path><path id="path2" d="M102.187 103.300 L 99.800 105.800 102.300 103.413 C 104.622 101.195,104.983 100.800,104.687 100.800 C 104.626 100.800,103.501 101.925,102.187 103.300 M146.900 112.700 C 154.325 112.761,166.475 112.761,173.900 112.700 C 181.325 112.639,175.250 112.589,160.400 112.589 C 145.550 112.589,139.475 112.639,146.900 112.700 M263.305 112.687 C 263.914 112.779,264.814 112.777,265.305 112.682 C 265.797 112.587,265.300 112.511,264.200 112.514 C 263.100 112.517,262.697 112.595,263.305 112.687 M128.800 113.618 C 128.362 113.915,128.524 113.952,129.400 113.756 C 130.871 113.427,131.190 113.198,130.167 113.206 C 129.745 113.209,129.130 113.395,128.800 113.618 M88.846 126.067 C 88.821 126.434,88.696 127.064,88.570 127.467 C 88.352 128.162,88.363 128.163,88.797 127.487 C 89.048 127.096,89.173 126.466,89.073 126.087 C 88.911 125.468,88.888 125.466,88.846 126.067 M113.449 129.015 C 113.312 129.373,113.215 129.966,113.234 130.333 C 113.253 130.700,113.427 130.469,113.621 129.820 C 113.998 128.558,113.865 127.933,113.449 129.015 M112.498 199.400 C 112.397 267.953,112.385 267.319,113.945 272.324 C 115.718 278.012,121.396 283.850,127.064 285.815 C 132.256 287.615,131.981 287.605,175.000 287.504 L 215.800 287.408 176.400 287.138 C 137.598 286.871,130.800 286.697,130.800 285.968 C 130.800 285.766,130.181 285.600,129.424 285.600 C 128.667 285.600,127.936 285.420,127.800 285.200 C 127.664 284.980,127.203 284.800,126.776 284.800 C 126.349 284.800,126.000 284.664,126.000 284.498 C 126.000 284.331,125.415 283.939,124.700 283.627 C 123.135 282.942,120.501 280.961,119.400 279.640 C 118.960 279.112,118.240 278.292,117.800 277.818 C 117.024 276.981,116.427 276.055,115.600 274.400 C 115.380 273.960,115.020 273.242,114.800 272.805 C 114.580 272.368,114.400 271.684,114.400 271.285 C 114.400 270.886,114.237 270.389,114.037 270.180 C 113.208 269.313,113.093 262.477,112.849 199.400 L 112.594 133.400 112.498 199.400 M240.514 143.800 C 240.517 144.900,240.595 145.303,240.687 144.695 C 240.779 144.086,240.777 143.186,240.682 142.695 C 240.587 142.203,240.511 142.700,240.514 143.800 M192.600 150.400 C 190.937 150.823,192.574 150.842,194.600 150.423 C 195.945 150.145,196.009 150.092,195.000 150.093 C 194.340 150.094,193.260 150.232,192.600 150.400 M188.600 151.200 C 188.096 151.417,188.022 151.544,188.400 151.544 C 188.730 151.544,189.360 151.389,189.800 151.200 C 190.304 150.983,190.378 150.856,190.000 150.856 C 189.670 150.856,189.040 151.011,188.600 151.200 M245.000 154.800 C 245.859 155.680,246.652 156.400,246.762 156.400 C 246.872 156.400,246.259 155.680,245.400 154.800 C 244.541 153.920,243.748 153.200,243.638 153.200 C 243.528 153.200,244.141 153.920,245.000 154.800 M173.700 157.246 C 172.337 158.119,171.895 158.706,173.100 158.043 C 174.018 157.539,175.456 156.427,175.200 156.419 C 175.090 156.416,174.415 156.788,173.700 157.246 M170.385 159.629 L 169.000 160.858 170.500 159.781 C 171.826 158.830,172.257 158.400,171.885 158.400 C 171.822 158.400,171.147 158.953,170.385 159.629 M254.691 159.489 C 255.401 159.577,256.661 159.579,257.491 159.492 C 258.321 159.405,257.740 159.333,256.200 159.331 C 254.660 159.329,253.981 159.400,254.691 159.489 M235.200 164.600 C 235.946 165.370,236.647 166.000,236.757 166.000 C 236.867 166.000,236.346 165.370,235.600 164.600 C 234.854 163.830,234.153 163.200,234.043 163.200 C 233.933 163.200,234.454 163.830,235.200 164.600 M159.092 171.033 C 157.493 173.300,156.125 175.537,156.665 175.000 C 157.314 174.355,160.792 169.200,160.578 169.200 C 160.471 169.200,159.802 170.025,159.092 171.033 M198.691 175.089 C 199.401 175.177,200.661 175.179,201.491 175.092 C 202.321 175.005,201.740 174.933,200.200 174.931 C 198.660 174.929,197.981 175.000,198.691 175.089 M207.600 176.333 C 207.930 176.536,208.650 176.824,209.200 176.971 C 209.895 177.157,210.017 177.125,209.600 176.867 C 209.270 176.664,208.550 176.376,208.000 176.229 C 207.305 176.043,207.183 176.075,207.600 176.333 M190.000 177.000 C 188.694 177.747,189.151 177.755,190.854 177.016 C 191.594 176.694,191.930 176.431,191.600 176.430 C 191.270 176.429,190.550 176.686,190.000 177.000 M210.800 177.620 C 212.187 178.561,212.978 178.835,212.000 178.036 C 211.450 177.586,210.820 177.217,210.600 177.215 C 210.380 177.213,210.470 177.396,210.800 177.620 M183.723 181.005 C 182.588 181.998,181.087 183.573,180.387 184.505 L 179.115 186.200 180.725 184.400 C 181.610 183.410,183.204 181.839,184.267 180.908 C 185.330 179.978,186.107 179.213,185.993 179.208 C 185.879 179.204,184.858 180.012,183.723 181.005 M217.400 182.400 C 218.483 183.500,219.460 184.400,219.570 184.400 C 219.680 184.400,218.883 183.500,217.800 182.400 C 216.717 181.300,215.740 180.400,215.630 180.400 C 215.520 180.400,216.317 181.300,217.400 182.400 M151.829 185.829 C 151.681 186.415,151.638 186.972,151.732 187.066 C 151.827 187.160,152.024 186.758,152.171 186.171 C 152.319 185.585,152.362 185.028,152.268 184.934 C 152.173 184.840,151.976 185.242,151.829 185.829 M220.574 186.200 C 221.967 188.252,222.252 188.495,221.477 186.971 C 221.134 186.295,220.549 185.490,220.178 185.182 C 219.807 184.874,219.985 185.332,220.574 186.200 M151.029 189.029 C 150.881 189.615,150.838 190.172,150.932 190.266 C 151.027 190.360,151.224 189.958,151.371 189.371 C 151.519 188.785,151.562 188.228,151.468 188.134 C 151.373 188.040,151.176 188.442,151.029 189.029 M176.865 190.217 C 176.609 190.778,176.407 191.454,176.416 191.719 C 176.424 191.983,176.697 191.588,177.022 190.839 C 177.705 189.265,177.561 188.690,176.865 190.217 M223.029 190.800 C 223.176 191.350,223.464 192.070,223.667 192.400 C 223.925 192.817,223.957 192.695,223.771 192.000 C 223.624 191.450,223.336 190.730,223.133 190.400 C 222.875 189.983,222.843 190.105,223.029 190.800 M150.185 193.785 C 150.030 195.023,149.990 196.123,150.095 196.229 C 150.201 196.334,150.407 195.401,150.554 194.154 C 150.700 192.907,150.741 191.807,150.643 191.710 C 150.546 191.612,150.339 192.546,150.185 193.785 M174.934 200.000 C 174.934 201.650,175.005 202.325,175.091 201.500 C 175.178 200.675,175.178 199.325,175.091 198.500 C 175.005 197.675,174.934 198.350,174.934 200.000 M224.934 200.000 C 224.934 201.650,225.005 202.325,225.091 201.500 C 225.178 200.675,225.178 199.325,225.091 198.500 C 225.005 197.675,224.934 198.350,224.934 200.000 M150.047 204.833 C 150.073 205.585,150.241 206.740,150.420 207.400 C 150.635 208.189,150.670 207.778,150.523 206.200 C 150.277 203.555,149.973 202.681,150.047 204.833 M312.590 235.600 C 312.590 251.770,312.639 258.385,312.700 250.300 C 312.760 242.215,312.760 228.985,312.700 220.900 C 312.639 212.815,312.590 219.430,312.590 235.600 M176.241 208.000 C 176.644 209.646,178.802 213.742,179.717 214.600 L 180.570 215.400 179.923 214.600 C 179.362 213.906,178.130 211.554,176.464 208.000 L 175.996 207.000 176.241 208.000 M150.834 210.200 C 150.822 210.640,150.987 211.270,151.200 211.600 C 151.714 212.395,151.714 211.396,151.200 210.200 L 150.856 209.400 150.834 210.200 M248.629 211.029 C 248.481 211.615,248.438 212.172,248.532 212.266 C 248.627 212.360,248.824 211.958,248.971 211.371 C 249.119 210.785,249.162 210.228,249.068 210.134 C 248.973 210.040,248.776 210.442,248.629 211.029 M220.466 213.958 C 219.052 216.140,214.980 220.079,213.173 221.014 C 212.528 221.347,212.000 221.712,212.000 221.824 C 212.000 223.374,219.992 215.913,221.560 212.900 C 222.361 211.361,221.793 211.910,220.466 213.958 M151.656 213.200 C 151.656 213.530,151.811 214.160,152.000 214.600 C 152.217 215.104,152.344 215.178,152.344 214.800 C 152.344 214.470,152.189 213.840,152.000 213.400 C 151.783 212.896,151.656 212.822,151.656 213.200 M181.211 216.626 C 182.801 218.597,188.000 222.578,188.000 221.824 C 188.000 221.712,187.464 221.343,186.808 221.004 C 186.153 220.665,184.403 219.266,182.919 217.894 C 181.436 216.522,180.667 215.952,181.211 216.626 M154.460 221.201 C 154.690 221.861,155.041 222.502,155.239 222.624 C 155.739 222.933,155.696 222.715,154.971 221.261 C 154.175 219.666,153.914 219.635,154.460 221.201 M87.442 245.200 C 87.506 269.408,87.677 274.400,88.439 274.400 C 88.637 274.400,88.800 274.940,88.800 275.600 L 88.800 276.800 83.200 276.800 C 79.733 276.800,77.600 276.952,77.600 277.200 C 77.600 277.435,76.200 277.600,74.200 277.600 C 72.200 277.600,70.800 277.765,70.800 278.000 C 70.800 278.222,69.733 278.400,68.400 278.400 C 67.067 278.400,66.000 278.578,66.000 278.800 C 66.000 279.020,65.280 279.200,64.400 279.200 C 63.520 279.200,62.800 279.380,62.800 279.600 C 62.800 279.820,62.080 280.000,61.200 280.000 C 60.320 280.000,59.600 280.180,59.600 280.400 C 59.600 280.620,58.970 280.800,58.200 280.800 C 57.430 280.800,56.800 280.980,56.800 281.200 C 56.800 281.420,56.260 281.600,55.600 281.600 C 54.940 281.600,54.400 281.780,54.400 282.000 C 54.400 282.220,53.860 282.400,53.200 282.400 C 52.540 282.400,52.000 282.580,52.000 282.800 C 52.000 283.020,51.460 283.200,50.800 283.200 C 50.140 283.200,49.600 283.380,49.600 283.600 C 49.600 283.820,49.240 284.000,48.800 284.000 C 48.360 284.000,48.000 284.180,48.000 284.400 C 48.000 284.620,47.460 284.800,46.800 284.800 C 46.140 284.800,45.600 284.980,45.600 285.200 C 45.600 285.420,45.240 285.600,44.800 285.600 C 44.360 285.600,44.000 285.780,44.000 286.000 C 44.000 286.220,43.640 286.400,43.200 286.400 C 42.760 286.400,42.400 286.580,42.400 286.800 C 42.400 287.020,42.130 287.200,41.800 287.200 C 41.470 287.200,41.200 287.380,41.200 287.600 C 41.200 287.820,40.840 288.000,40.400 288.000 C 39.960 288.000,39.600 288.180,39.600 288.400 C 39.600 288.620,39.240 288.800,38.800 288.800 C 38.360 288.800,38.000 288.980,38.000 289.200 C 38.000 289.420,37.640 289.600,37.200 289.600 C 36.760 289.600,36.400 289.780,36.400 290.000 C 36.400 290.220,36.117 290.400,35.771 290.400 C 35.426 290.400,34.873 290.670,34.543 291.000 C 34.213 291.330,33.596 291.600,33.171 291.600 C 32.747 291.600,32.400 291.780,32.400 292.000 C 32.400 292.220,32.080 292.400,31.688 292.400 C 31.297 292.400,30.717 292.760,30.400 293.200 C 30.083 293.640,29.543 294.000,29.200 294.000 C 28.857 294.000,28.317 294.360,28.000 294.800 C 27.683 295.240,27.103 295.600,26.712 295.600 C 26.320 295.600,26.000 295.780,26.000 296.000 C 26.000 296.220,25.595 296.403,25.100 296.406 C 24.372 296.411,24.315 296.486,24.800 296.800 C 25.224 297.074,25.249 297.190,24.884 297.194 C 24.463 297.199,24.463 297.302,24.884 297.756 C 25.254 298.154,25.480 298.184,25.683 297.859 C 25.892 297.527,26.095 297.535,26.450 297.890 C 26.828 298.268,26.788 298.430,26.267 298.630 C 25.900 298.770,25.600 299.066,25.600 299.286 C 25.600 299.506,25.874 299.580,26.209 299.452 C 26.701 299.263,26.739 299.366,26.409 299.983 C 25.874 300.983,25.893 301.221,26.500 301.100 C 26.775 301.045,27.000 301.264,27.000 301.587 C 27.000 301.910,27.402 302.608,27.893 303.138 C 28.383 303.667,28.688 304.258,28.569 304.450 C 28.450 304.643,28.654 304.800,29.023 304.800 C 29.481 304.800,29.631 305.037,29.498 305.548 C 29.381 305.995,29.604 306.515,30.051 306.837 C 30.463 307.134,30.800 307.543,30.800 307.747 C 30.800 308.128,33.541 312.443,34.010 312.800 C 34.154 312.910,35.021 314.249,35.936 315.775 C 36.851 317.301,37.601 318.381,37.603 318.175 C 37.604 317.969,37.954 318.329,38.380 318.975 C 38.806 319.621,39.046 320.341,38.913 320.575 C 38.780 320.809,38.817 320.868,38.995 320.707 C 39.342 320.394,41.199 322.329,41.200 323.004 C 41.200 323.226,41.578 323.643,42.039 323.931 C 42.500 324.220,42.773 324.560,42.645 324.688 C 42.518 324.816,42.860 325.335,43.407 325.841 C 43.953 326.347,44.400 326.924,44.400 327.123 C 44.400 327.321,45.165 328.301,46.100 329.299 C 47.035 330.297,49.060 332.512,50.600 334.220 C 54.020 338.015,63.689 347.687,66.756 350.383 C 67.990 351.468,69.540 352.828,70.200 353.405 C 70.860 353.982,72.750 355.472,74.400 356.715 C 76.050 357.959,77.691 359.296,78.047 359.688 C 78.403 360.080,78.908 360.400,79.171 360.400 C 79.433 360.400,79.536 360.580,79.400 360.800 C 79.264 361.020,79.484 361.200,79.888 361.200 C 80.293 361.200,80.883 361.560,81.200 362.000 C 81.517 362.440,81.980 362.800,82.229 362.800 C 82.478 362.800,83.246 363.340,83.937 364.000 C 84.628 364.660,85.398 365.200,85.649 365.200 C 85.901 365.200,86.397 365.516,86.753 365.903 C 87.109 366.289,87.895 366.860,88.500 367.170 C 89.105 367.481,89.600 367.885,89.600 368.068 C 89.600 368.250,89.894 368.400,90.253 368.400 C 90.612 368.400,91.197 368.718,91.553 369.107 C 91.909 369.496,93.047 370.240,94.082 370.761 C 95.118 371.281,96.309 372.028,96.730 372.420 C 97.684 373.309,101.373 375.200,102.153 375.200 C 102.472 375.200,102.793 375.335,102.867 375.500 C 102.940 375.665,103.855 376.233,104.900 376.763 C 105.945 377.292,106.800 377.877,106.800 378.063 C 106.800 378.248,107.160 378.400,107.600 378.400 C 108.040 378.400,108.401 378.535,108.403 378.700 C 108.407 379.051,110.337 380.000,111.046 380.000 C 111.314 380.000,111.593 380.135,111.667 380.300 C 111.740 380.465,112.700 381.023,113.800 381.540 C 114.900 382.058,116.113 382.643,116.495 382.840 C 116.877 383.038,117.462 383.200,117.795 383.200 C 118.128 383.200,118.400 383.341,118.400 383.513 C 118.400 383.685,119.210 384.065,120.200 384.357 C 121.190 384.649,122.000 385.048,122.000 385.244 C 122.000 385.440,122.435 385.600,122.967 385.600 C 123.498 385.600,123.993 385.735,124.067 385.900 C 124.209 386.219,127.596 387.562,129.100 387.894 C 129.595 388.004,130.000 388.252,130.000 388.447 C 130.000 388.641,130.504 388.800,131.120 388.800 C 131.736 388.800,132.411 388.949,132.620 389.130 C 132.829 389.312,133.810 389.705,134.800 390.002 C 135.790 390.300,136.780 390.675,137.000 390.835 C 137.220 390.994,138.300 391.255,139.400 391.413 C 140.500 391.571,141.584 391.847,141.810 392.025 C 142.035 392.203,142.665 392.422,143.210 392.513 C 144.181 392.674,144.878 392.896,146.719 393.633 C 147.224 393.835,148.159 394.000,148.795 394.000 C 149.432 394.000,150.064 394.180,150.200 394.400 C 150.336 394.620,150.966 394.800,151.600 394.800 C 152.234 394.800,152.864 394.980,153.000 395.200 C 153.136 395.420,154.036 395.600,155.000 395.600 C 155.964 395.600,156.864 395.780,157.000 396.000 C 157.136 396.220,157.921 396.400,158.744 396.400 C 159.567 396.400,160.411 396.563,160.620 396.763 C 160.972 397.100,161.754 397.223,167.500 397.846 C 168.655 397.972,169.600 398.207,169.600 398.369 C 169.600 398.531,170.545 398.703,171.700 398.752 C 172.855 398.801,174.340 398.941,175.000 399.064 C 175.660 399.187,177.730 399.345,179.600 399.415 C 181.470 399.485,183.000 399.569,183.000 399.602 C 183.000 399.977,184.864 399.827,185.761 399.379 C 187.180 398.672,187.327 398.662,186.959 399.300 C 186.801 399.575,186.823 399.662,187.009 399.494 C 187.194 399.326,187.300 398.201,187.244 396.994 C 187.181 395.636,187.305 394.800,187.571 394.800 C 187.843 394.800,188.000 393.553,188.000 391.400 C 188.000 389.400,188.165 388.000,188.400 388.000 C 188.654 388.000,188.800 385.000,188.800 379.800 C 188.800 374.600,188.654 371.600,188.400 371.600 C 188.163 371.600,188.000 370.133,188.000 368.000 C 188.000 365.867,187.837 364.400,187.600 364.400 C 187.378 364.400,187.200 363.333,187.200 362.000 C 187.200 360.667,187.022 359.600,186.800 359.600 C 186.580 359.600,186.400 358.970,186.400 358.200 C 186.400 357.430,186.220 356.800,186.000 356.800 C 185.780 356.800,185.600 356.080,185.600 355.200 C 185.600 354.320,185.420 353.600,185.200 353.600 C 184.980 353.600,184.800 352.880,184.800 352.000 C 184.800 351.120,184.620 350.400,184.400 350.400 C 184.180 350.400,184.000 349.860,184.000 349.200 C 184.000 348.540,183.820 348.000,183.600 348.000 C 183.380 348.000,183.200 347.460,183.200 346.800 C 183.200 346.140,183.020 345.600,182.800 345.600 C 182.580 345.600,182.400 345.060,182.400 344.400 C 182.400 343.740,182.220 343.200,182.000 343.200 C 181.780 343.200,181.600 342.840,181.600 342.400 C 181.600 341.960,181.420 341.600,181.200 341.600 C 180.980 341.600,180.800 341.150,180.800 340.600 C 180.800 340.050,180.620 339.600,180.400 339.600 C 180.180 339.600,180.000 339.240,180.000 338.800 C 180.000 338.360,179.820 338.000,179.600 338.000 C 179.380 338.000,179.200 337.640,179.200 337.200 C 179.200 336.760,179.020 336.400,178.800 336.400 C 178.580 336.400,178.400 336.040,178.400 335.600 C 178.400 335.160,178.236 334.800,178.035 334.800 C 177.834 334.800,177.549 334.080,177.400 333.200 C 177.251 332.320,176.966 331.600,176.765 331.600 C 176.564 331.600,176.400 331.240,176.400 330.800 C 176.400 330.360,176.220 330.000,176.000 330.000 C 175.780 330.000,175.600 329.680,175.600 329.288 C 175.600 328.897,175.240 328.317,174.800 328.000 C 174.360 327.683,174.000 327.103,174.000 326.712 C 174.000 326.320,173.820 326.000,173.600 326.000 C 173.380 326.000,173.200 325.770,173.200 325.488 C 173.200 325.207,172.840 324.717,172.400 324.400 C 171.960 324.083,171.600 323.543,171.600 323.200 C 171.600 322.857,171.240 322.317,170.800 322.000 C 170.360 321.683,170.000 321.175,170.000 320.872 C 170.000 320.569,169.460 319.817,168.800 319.200 C 168.140 318.583,167.600 317.867,167.600 317.608 C 167.600 317.349,166.880 316.446,166.000 315.600 C 162.836 312.560,158.534 312.815,214.900 312.700 C 264.085 312.600,263.676 312.594,199.200 312.498 C 128.148 312.393,130.982 312.473,124.200 310.380 C 107.700 305.289,92.779 289.420,88.867 272.800 C 88.634 271.810,88.312 270.460,88.152 269.800 C 87.991 269.140,87.751 257.710,87.618 244.400 L 87.376 220.200 87.442 245.200 M191.400 223.600 C 192.280 224.007,193.450 224.333,194.000 224.324 C 194.783 224.311,194.826 224.269,194.200 224.130 C 193.760 224.032,192.721 223.693,191.892 223.376 C 189.784 222.571,189.478 222.710,191.400 223.600 M207.897 223.436 C 207.767 223.566,206.702 223.918,205.530 224.218 C 203.506 224.736,203.488 224.752,205.163 224.536 C 206.994 224.300,209.878 223.243,208.767 223.216 C 208.418 223.207,208.027 223.306,207.897 223.436 M157.008 225.900 C 158.762 228.654,161.831 232.788,162.127 232.793 C 162.307 232.797,161.836 232.035,161.080 231.100 C 160.325 230.165,159.027 228.365,158.197 227.100 C 157.366 225.835,156.602 224.800,156.497 224.800 C 156.393 224.800,156.623 225.295,157.008 225.900 M198.500 225.091 C 199.325 225.178,200.675 225.178,201.500 225.091 C 202.325 225.005,201.650 224.934,200.000 224.934 C 198.350 224.934,197.675 225.005,198.500 225.091 M242.953 225.300 C 241.576 227.636,241.486 227.835,242.187 227.000 C 243.000 226.032,243.700 224.800,243.438 224.800 C 243.333 224.800,243.115 225.025,242.953 225.300 M239.267 230.777 C 238.570 231.644,238.000 232.467,238.000 232.607 C 238.000 232.836,238.833 231.880,240.358 229.900 C 241.452 228.482,240.492 229.252,239.267 230.777 M164.400 235.400 C 165.595 236.610,166.663 237.600,166.773 237.600 C 166.883 237.600,165.995 236.610,164.800 235.400 C 163.605 234.190,162.537 233.200,162.427 233.200 C 162.317 233.200,163.205 234.190,164.400 235.400 M235.186 235.500 L 233.000 237.800 235.300 235.614 C 237.437 233.582,237.783 233.200,237.486 233.200 C 237.424 233.200,236.389 234.235,235.186 235.500 M167.200 237.829 C 167.200 238.190,167.942 238.775,171.400 241.142 C 174.668 243.379,175.200 243.706,175.200 243.480 C 175.200 243.388,174.165 242.634,172.900 241.803 C 171.635 240.973,169.835 239.675,168.900 238.920 C 167.965 238.164,167.200 237.674,167.200 237.829 M230.800 239.270 C 229.810 240.153,229.540 240.501,230.200 240.044 C 232.210 238.651,232.950 238.016,232.770 237.837 C 232.676 237.743,231.789 238.388,230.800 239.270 M226.100 242.446 C 224.737 243.319,224.295 243.906,225.500 243.243 C 226.418 242.739,227.856 241.627,227.600 241.619 C 227.490 241.616,226.815 241.988,226.100 242.446 M175.600 243.702 C 175.881 244.000,178.459 245.402,179.300 245.715 C 180.722 246.243,179.941 245.592,178.100 244.714 C 175.772 243.604,175.343 243.430,175.600 243.702 M222.200 244.631 C 221.320 245.157,220.780 245.589,221.000 245.591 C 221.220 245.594,222.120 245.152,223.000 244.610 C 223.880 244.068,224.420 243.636,224.200 243.650 C 223.980 243.664,223.080 244.105,222.200 244.631 M182.400 246.985 C 182.400 247.230,186.494 248.439,186.684 248.250 C 186.765 248.169,185.935 247.809,184.840 247.451 C 182.712 246.755,182.400 246.695,182.400 246.985 M213.600 248.018 C 213.162 248.315,213.324 248.352,214.200 248.156 C 215.671 247.827,215.990 247.598,214.967 247.606 C 214.545 247.609,213.930 247.795,213.600 248.018 M188.200 248.800 C 188.640 248.989,189.360 249.144,189.800 249.144 L 190.600 249.144 189.800 248.800 C 189.360 248.611,188.640 248.456,188.200 248.456 L 187.400 248.456 188.200 248.800 M210.200 248.800 L 209.400 249.144 210.200 249.144 C 210.640 249.144,211.360 248.989,211.800 248.800 L 212.600 248.456 211.800 248.456 C 211.360 248.456,210.640 248.611,210.200 248.800 M192.200 249.600 C 192.860 249.768,194.030 249.906,194.800 249.907 L 196.200 249.908 194.600 249.577 C 192.445 249.131,190.434 249.151,192.200 249.600 M205.200 249.600 L 203.800 249.895 205.200 249.900 C 205.970 249.903,207.140 249.768,207.800 249.600 L 209.000 249.295 207.800 249.300 C 207.140 249.303,205.970 249.438,205.200 249.600 M287.267 264.850 C 287.230 265.647,287.111 266.907,287.001 267.650 L 286.803 269.000 287.223 267.660 C 287.454 266.923,287.574 265.663,287.489 264.860 L 287.334 263.400 287.267 264.850 M286.229 270.629 C 286.081 271.215,286.038 271.772,286.132 271.866 C 286.227 271.960,286.424 271.558,286.571 270.971 C 286.719 270.385,286.762 269.828,286.668 269.734 C 286.573 269.640,286.376 270.042,286.229 270.629 M283.453 277.300 L 282.733 278.600 283.558 277.600 C 284.289 276.713,284.614 276.000,284.286 276.000 C 284.224 276.000,283.849 276.585,283.453 277.300 M280.490 280.712 C 278.140 283.187,278.583 283.254,281.009 280.791 C 282.088 279.696,282.797 278.825,282.585 278.855 C 282.373 278.885,281.430 279.721,280.490 280.712 M277.000 283.600 C 276.340 284.037,275.980 284.392,276.200 284.388 C 276.601 284.382,278.776 282.823,278.400 282.812 C 278.290 282.808,277.660 283.163,277.000 283.600 M270.200 286.400 L 269.400 286.744 270.200 286.766 C 270.640 286.778,271.270 286.613,271.600 286.400 C 272.395 285.886,271.396 285.886,270.200 286.400 M265.400 287.200 L 263.400 287.474 265.200 287.497 C 266.190 287.510,267.450 287.376,268.000 287.200 C 269.244 286.801,268.306 286.801,265.400 287.200 M296.989 297.300 L 294.200 300.200 297.100 297.411 C 299.794 294.820,300.183 294.400,299.889 294.400 C 299.828 294.400,298.523 295.705,296.989 297.300 M282.268 307.596 C 279.720 308.836,278.789 309.488,280.495 308.840 C 282.066 308.243,284.800 306.815,284.800 306.592 C 284.800 306.348,284.983 306.275,282.268 307.596 M273.680 310.795 C 272.954 310.967,272.247 311.220,272.109 311.358 C 271.771 311.696,274.444 311.176,275.200 310.757 C 275.916 310.360,275.468 310.371,273.680 310.795 M269.700 311.876 C 270.085 311.976,270.715 311.976,271.100 311.876 C 271.485 311.775,271.170 311.693,270.400 311.693 C 269.630 311.693,269.315 311.775,269.700 311.876 " stroke="none" fill="#f6b761" fill-rule="evenodd"></path><path id="path3" d="M178.402 0.276 C 176.533 0.364,174.832 0.608,174.622 0.818 C 174.412 1.028,173.027 1.200,171.544 1.200 C 170.061 1.200,168.736 1.380,168.600 1.600 C 168.464 1.820,167.373 2.000,166.176 2.000 C 164.979 2.000,164.000 2.180,164.000 2.400 C 164.000 2.620,163.100 2.800,162.000 2.800 C 160.900 2.800,160.000 2.980,160.000 3.200 C 160.000 3.420,159.201 3.600,158.224 3.600 C 157.247 3.600,156.336 3.780,156.200 4.000 C 156.064 4.220,155.243 4.400,154.376 4.400 C 153.509 4.400,152.800 4.580,152.800 4.800 C 152.800 5.020,152.080 5.200,151.200 5.200 C 150.320 5.200,149.600 5.380,149.600 5.600 C 149.600 5.820,148.880 6.000,148.000 6.000 C 147.120 6.000,146.400 6.180,146.400 6.400 C 146.400 6.620,145.860 6.800,145.200 6.800 C 144.540 6.800,144.000 6.980,144.000 7.200 C 144.000 7.420,143.370 7.600,142.600 7.600 C 141.830 7.600,141.200 7.780,141.200 8.000 C 141.200 8.220,140.811 8.400,140.335 8.400 C 139.376 8.400,135.391 9.486,134.305 10.043 C 133.923 10.240,133.372 10.400,133.081 10.400 C 132.789 10.400,131.805 10.760,130.894 11.200 C 129.984 11.640,129.048 12.000,128.814 12.000 C 128.580 12.000,128.032 12.180,127.595 12.400 C 127.158 12.620,126.442 12.980,126.005 13.200 C 125.568 13.420,124.938 13.600,124.605 13.600 C 124.272 13.600,124.000 13.780,124.000 14.000 C 124.000 14.220,123.460 14.400,122.800 14.400 C 122.140 14.400,121.600 14.580,121.600 14.800 C 121.600 15.020,121.240 15.200,120.800 15.200 C 120.360 15.200,120.000 15.380,120.000 15.600 C 120.000 15.820,119.640 16.000,119.200 16.000 C 118.760 16.000,118.400 16.180,118.400 16.400 C 118.400 16.620,118.045 16.800,117.612 16.800 C 117.179 16.800,116.183 17.160,115.400 17.600 C 114.617 18.040,113.711 18.400,113.388 18.400 C 113.065 18.400,112.800 18.580,112.800 18.800 C 112.800 19.020,112.440 19.200,112.000 19.200 C 111.560 19.200,111.200 19.346,111.200 19.525 C 111.200 19.704,110.570 20.098,109.800 20.400 C 109.030 20.702,108.400 21.096,108.400 21.275 C 108.400 21.454,108.040 21.600,107.600 21.600 C 107.160 21.600,106.800 21.780,106.800 22.000 C 106.800 22.220,106.440 22.400,106.000 22.400 C 105.560 22.400,105.200 22.580,105.200 22.800 C 105.200 23.020,104.880 23.200,104.488 23.200 C 104.097 23.200,103.517 23.560,103.200 24.000 C 102.883 24.440,102.390 24.800,102.104 24.800 C 101.452 24.800,97.447 26.857,97.267 27.284 C 97.193 27.458,96.956 27.600,96.739 27.600 C 96.522 27.600,95.559 28.140,94.600 28.800 C 93.641 29.460,92.703 30.000,92.516 30.000 C 92.329 30.000,91.917 30.360,91.600 30.800 C 91.283 31.240,90.743 31.600,90.400 31.600 C 90.057 31.600,89.517 31.960,89.200 32.400 C 88.883 32.840,88.343 33.200,88.000 33.200 C 87.657 33.200,87.117 33.560,86.800 34.000 C 86.483 34.440,85.943 34.800,85.600 34.800 C 85.257 34.800,84.717 35.160,84.400 35.600 C 84.083 36.040,83.575 36.400,83.272 36.400 C 82.969 36.400,82.217 36.940,81.600 37.600 C 80.983 38.260,80.303 38.800,80.088 38.800 C 79.873 38.800,78.955 39.520,78.048 40.400 C 77.141 41.280,76.262 42.000,76.095 42.000 C 75.928 42.000,75.307 42.450,74.713 43.000 C 74.120 43.550,73.492 44.008,73.317 44.017 C 73.143 44.026,72.100 44.925,71.000 46.013 C 69.900 47.102,68.867 47.995,68.703 47.997 C 68.540 47.998,67.891 48.540,67.260 49.200 C 66.629 49.860,66.009 50.400,65.882 50.400 C 65.754 50.400,64.113 51.930,62.234 53.800 C 60.356 55.670,58.911 57.200,59.024 57.200 C 59.136 57.200,58.817 57.626,58.314 58.146 C 57.811 58.667,57.336 59.038,57.258 58.971 C 57.016 58.764,55.200 60.736,55.200 61.205 C 55.200 61.448,55.065 61.565,54.900 61.465 C 54.735 61.365,54.280 61.709,53.889 62.231 C 53.191 63.162,53.197 63.184,54.189 63.433 C 54.745 63.573,55.200 63.847,55.200 64.043 C 55.200 64.240,56.910 64.400,59.000 64.400 C 61.267 64.400,62.800 64.239,62.800 64.000 C 62.800 63.748,65.533 63.600,70.200 63.600 C 74.867 63.600,77.600 63.452,77.600 63.200 C 77.600 62.946,80.600 62.800,85.800 62.800 C 91.000 62.800,94.000 62.946,94.000 63.200 C 94.000 63.453,96.800 63.600,101.600 63.600 C 106.400 63.600,109.200 63.747,109.200 64.000 C 109.200 64.243,111.000 64.400,113.800 64.400 C 116.600 64.400,118.400 64.557,118.400 64.800 C 118.400 65.033,119.733 65.200,121.600 65.200 C 123.467 65.200,124.800 65.367,124.800 65.600 C 124.800 65.831,126.067 66.000,127.800 66.000 C 129.533 66.000,130.800 66.169,130.800 66.400 C 130.800 66.622,131.867 66.800,133.200 66.800 C 134.533 66.800,135.600 66.978,135.600 67.200 C 135.600 67.422,136.667 67.600,138.000 67.600 C 139.333 67.600,140.400 67.778,140.400 68.000 C 140.400 68.220,141.390 68.400,142.600 68.400 C 143.810 68.400,144.800 68.580,144.800 68.800 C 144.800 69.020,145.700 69.200,146.800 69.200 C 147.900 69.200,148.800 69.380,148.800 69.600 C 148.800 69.820,149.700 70.000,150.800 70.000 C 151.900 70.000,152.800 70.180,152.800 70.400 C 152.800 70.620,153.520 70.800,154.400 70.800 C 155.280 70.800,156.000 70.980,156.000 71.200 C 156.000 71.420,156.720 71.600,157.600 71.600 C 158.480 71.600,159.200 71.780,159.200 72.000 C 159.200 72.220,160.010 72.400,161.000 72.400 C 161.990 72.400,162.800 72.580,162.800 72.800 C 162.800 73.020,163.340 73.200,164.000 73.200 C 164.660 73.200,165.200 73.380,165.200 73.600 C 165.200 73.820,165.920 74.000,166.800 74.000 C 167.680 74.000,168.400 74.157,168.400 74.348 C 168.400 74.540,169.660 74.821,171.200 74.973 C 172.740 75.124,174.000 75.418,174.000 75.624 C 174.000 75.831,174.720 76.000,175.600 76.000 C 176.480 76.000,177.200 76.180,177.200 76.400 C 177.200 76.620,177.650 76.800,178.200 76.800 C 178.750 76.800,179.200 76.980,179.200 77.200 C 179.200 77.420,179.740 77.600,180.400 77.600 C 181.060 77.600,181.600 77.780,181.600 78.000 C 181.600 78.220,182.140 78.400,182.800 78.400 C 183.460 78.400,184.000 78.580,184.000 78.800 C 184.000 79.020,184.540 79.200,185.200 79.200 C 185.860 79.200,186.400 79.380,186.400 79.600 C 186.400 79.820,186.940 80.000,187.600 80.000 C 188.260 80.000,188.800 80.180,188.800 80.400 C 188.800 80.620,189.340 80.800,190.000 80.800 C 190.660 80.800,191.200 80.980,191.200 81.200 C 191.200 81.420,191.740 81.600,192.400 81.600 C 193.060 81.600,193.600 81.780,193.600 82.000 C 193.600 82.220,194.050 82.400,194.600 82.400 C 195.150 82.400,195.600 82.580,195.600 82.800 C 195.600 83.020,195.960 83.200,196.400 83.200 C 196.840 83.200,197.200 83.380,197.200 83.600 C 197.200 83.820,197.740 84.000,198.400 84.000 C 199.060 84.000,199.600 84.180,199.600 84.400 C 199.600 84.620,199.960 84.800,200.400 84.800 C 200.840 84.800,201.200 84.980,201.200 85.200 C 201.200 85.420,201.740 85.600,202.400 85.600 C 203.060 85.600,203.600 85.780,203.600 86.000 C 203.600 86.220,203.945 86.400,204.367 86.400 C 204.788 86.400,205.208 86.625,205.300 86.900 C 205.430 87.292,212.387 87.452,237.433 87.640 C 258.290 87.797,270.026 88.031,271.200 88.316 C 276.840 89.680,283.512 92.404,287.032 94.780 C 288.026 95.451,288.919 96.000,289.016 96.000 C 290.678 96.000,301.575 106.948,304.200 111.256 C 311.312 122.927,312.042 125.906,312.382 144.638 L 312.644 159.076 316.322 162.723 C 318.345 164.728,320.000 166.564,320.000 166.802 C 320.000 167.040,321.440 168.659,323.200 170.400 C 324.960 172.141,326.400 173.755,326.400 173.985 C 326.400 174.216,327.210 175.203,328.200 176.179 C 329.190 177.155,330.000 178.158,330.000 178.408 C 330.000 178.658,330.720 179.554,331.600 180.400 C 332.480 181.246,333.200 182.146,333.200 182.400 C 333.200 182.654,333.920 183.554,334.800 184.400 C 335.680 185.246,336.400 186.149,336.400 186.408 C 336.400 186.667,336.940 187.383,337.600 188.000 C 338.260 188.617,338.800 189.343,338.800 189.614 C 338.800 190.146,340.308 191.600,340.861 191.600 C 341.048 191.600,341.200 191.888,341.200 192.240 C 341.200 192.591,341.710 193.356,342.333 193.940 C 342.956 194.523,343.589 195.495,343.740 196.100 C 343.892 196.705,344.192 197.200,344.408 197.200 C 344.623 197.200,344.800 197.520,344.800 197.912 C 344.800 198.303,345.160 198.883,345.600 199.200 C 346.040 199.517,346.400 200.025,346.400 200.328 C 346.400 200.631,346.940 201.383,347.600 202.000 C 348.260 202.617,348.800 203.369,348.800 203.672 C 348.800 203.975,349.160 204.483,349.600 204.800 C 350.040 205.117,350.400 205.697,350.400 206.088 C 350.400 206.480,350.580 206.800,350.800 206.800 C 351.020 206.800,351.200 207.148,351.200 207.573 C 351.200 207.998,351.560 208.460,352.000 208.600 C 352.440 208.740,352.800 209.162,352.800 209.539 C 352.800 209.915,353.160 210.483,353.600 210.800 C 354.040 211.117,354.400 211.657,354.400 212.000 C 354.400 212.343,354.760 212.883,355.200 213.200 C 355.640 213.517,356.000 214.097,356.000 214.488 C 356.000 214.880,356.180 215.200,356.400 215.200 C 356.620 215.200,356.800 215.520,356.800 215.912 C 356.800 216.303,357.160 216.883,357.600 217.200 C 358.040 217.517,358.400 218.097,358.400 218.488 C 358.400 218.880,358.580 219.200,358.800 219.200 C 359.020 219.200,359.200 219.560,359.200 220.000 C 359.200 220.440,359.380 220.800,359.600 220.800 C 359.820 220.800,360.000 221.147,360.000 221.571 C 360.000 221.996,360.270 222.613,360.600 222.943 C 360.930 223.273,361.200 223.826,361.200 224.171 C 361.200 224.517,361.380 224.800,361.600 224.800 C 361.820 224.800,362.000 225.070,362.000 225.400 C 362.000 225.730,362.180 226.000,362.400 226.000 C 362.620 226.000,362.800 226.320,362.800 226.712 C 362.800 227.103,363.160 227.683,363.600 228.000 C 364.040 228.317,364.400 228.897,364.400 229.288 C 364.400 229.680,364.580 230.000,364.800 230.000 C 365.020 230.000,365.200 230.360,365.200 230.800 C 365.200 231.240,365.380 231.600,365.600 231.600 C 365.820 231.600,366.000 231.960,366.000 232.400 C 366.000 232.840,366.180 233.200,366.400 233.200 C 366.620 233.200,366.800 233.560,366.800 234.000 C 366.800 234.440,366.980 234.800,367.200 234.800 C 367.420 234.800,367.600 235.160,367.600 235.600 C 367.600 236.040,367.780 236.400,368.000 236.400 C 368.220 236.400,368.400 236.760,368.400 237.200 C 368.400 237.640,368.580 238.000,368.800 238.000 C 369.020 238.000,369.200 238.360,369.200 238.800 C 369.200 239.240,369.380 239.600,369.600 239.600 C 369.820 239.600,370.000 239.960,370.000 240.400 C 370.000 240.840,370.180 241.200,370.400 241.200 C 370.620 241.200,370.800 241.470,370.800 241.800 C 370.800 242.130,370.980 242.400,371.200 242.400 C 371.420 242.400,371.600 242.760,371.600 243.200 C 371.600 243.640,371.780 244.000,372.000 244.000 C 372.220 244.000,372.400 244.360,372.400 244.800 C 372.400 245.240,372.580 245.600,372.800 245.600 C 373.020 245.600,373.200 245.960,373.200 246.400 C 373.200 246.840,373.380 247.200,373.600 247.200 C 373.820 247.200,374.000 247.740,374.000 248.400 C 374.000 249.060,374.180 249.600,374.400 249.600 C 374.620 249.600,374.800 249.960,374.800 250.400 C 374.800 250.840,374.980 251.200,375.200 251.200 C 375.420 251.200,375.600 251.560,375.600 252.000 C 375.600 252.440,375.780 252.800,376.000 252.800 C 376.220 252.800,376.400 253.160,376.400 253.600 C 376.400 254.040,376.557 254.400,376.748 254.400 C 376.940 254.400,377.216 255.300,377.362 256.400 C 377.508 257.500,377.801 258.400,378.014 258.400 C 378.226 258.400,378.400 258.850,378.400 259.400 C 378.400 259.950,378.580 260.400,378.800 260.400 C 379.020 260.400,379.200 260.760,379.200 261.200 C 379.200 261.640,379.380 262.000,379.600 262.000 C 379.820 262.000,380.000 262.540,380.000 263.200 C 380.000 263.860,380.180 264.400,380.400 264.400 C 380.620 264.400,380.800 264.760,380.800 265.200 C 380.800 265.640,380.980 266.000,381.200 266.000 C 381.420 266.000,381.600 266.540,381.600 267.200 C 381.600 267.860,381.780 268.400,382.000 268.400 C 382.220 268.400,382.400 268.760,382.400 269.200 C 382.400 269.640,382.580 270.000,382.800 270.000 C 383.020 270.000,383.200 270.540,383.200 271.200 C 383.200 271.860,383.380 272.400,383.600 272.400 C 383.820 272.400,384.000 272.959,384.000 273.643 C 384.000 274.564,384.150 274.828,384.580 274.663 C 384.930 274.529,385.257 274.749,385.406 275.220 C 385.543 275.649,385.822 276.000,386.027 276.000 C 386.577 276.000,386.480 275.297,385.900 275.079 C 385.605 274.968,385.809 274.719,386.400 274.471 C 387.217 274.128,387.259 274.046,386.630 274.025 C 385.898 274.001,385.902 273.955,386.730 273.074 C 387.209 272.565,387.600 271.770,387.600 271.308 C 387.600 270.845,387.784 270.405,388.009 270.330 C 388.234 270.255,388.514 269.655,388.632 268.997 C 388.750 268.339,389.016 267.740,389.224 267.667 C 389.431 267.593,389.600 267.199,389.600 266.790 C 389.600 266.382,389.780 265.936,390.000 265.800 C 390.220 265.664,390.400 265.143,390.400 264.643 C 390.400 264.143,390.525 263.608,390.678 263.455 C 390.995 263.139,391.143 262.512,391.472 260.100 C 391.600 259.165,391.861 258.400,392.052 258.400 C 392.243 258.400,392.400 257.770,392.400 257.000 C 392.400 256.230,392.580 255.600,392.800 255.600 C 393.020 255.600,393.200 255.161,393.200 254.624 C 393.200 254.087,393.380 253.536,393.600 253.400 C 393.820 253.264,394.000 252.544,394.000 251.800 C 394.000 251.056,394.180 250.336,394.400 250.200 C 394.620 250.064,394.800 249.344,394.800 248.600 C 394.800 247.856,394.980 247.136,395.200 247.000 C 395.420 246.864,395.600 246.144,395.600 245.400 C 395.600 244.656,395.780 243.936,396.000 243.800 C 396.220 243.664,396.400 242.753,396.400 241.776 C 396.400 240.799,396.580 240.000,396.800 240.000 C 397.020 240.000,397.200 239.111,397.200 238.024 C 397.200 236.937,397.380 235.936,397.600 235.800 C 397.820 235.664,398.000 234.584,398.000 233.400 C 398.000 232.216,398.180 231.136,398.400 231.000 C 398.620 230.864,398.800 229.518,398.800 228.010 C 398.800 226.171,398.965 225.212,399.300 225.100 C 399.693 224.969,399.800 219.591,399.800 200.000 C 399.800 180.409,399.693 175.031,399.300 174.900 C 398.965 174.788,398.800 173.829,398.800 171.990 C 398.800 170.482,398.620 169.136,398.400 169.000 C 398.180 168.864,398.000 167.784,398.000 166.600 C 398.000 165.416,397.820 164.336,397.600 164.200 C 397.380 164.064,397.200 163.063,397.200 161.976 C 397.200 160.889,397.020 160.000,396.800 160.000 C 396.580 160.000,396.400 159.201,396.400 158.224 C 396.400 157.247,396.220 156.336,396.000 156.200 C 395.780 156.064,395.600 155.243,395.600 154.376 C 395.600 153.509,395.420 152.800,395.200 152.800 C 394.980 152.800,394.800 152.080,394.800 151.200 C 394.800 150.320,394.620 149.600,394.400 149.600 C 394.180 149.600,394.000 148.981,394.000 148.224 C 394.000 147.467,393.820 146.736,393.600 146.600 C 393.380 146.464,393.200 145.834,393.200 145.200 C 393.200 144.566,393.020 143.936,392.800 143.800 C 392.580 143.664,392.400 143.023,392.400 142.376 C 392.400 141.729,392.241 141.200,392.046 141.200 C 391.851 141.200,391.569 140.213,391.418 139.006 C 391.267 137.800,390.977 136.709,390.772 136.583 C 390.567 136.456,390.400 135.924,390.400 135.400 C 390.400 134.876,390.220 134.336,390.000 134.200 C 389.780 134.064,389.600 133.601,389.600 133.171 C 389.600 132.741,389.441 132.077,389.247 131.695 C 389.052 131.313,388.671 130.460,388.400 129.800 C 388.129 129.140,387.748 128.287,387.553 127.905 C 387.359 127.523,387.200 126.848,387.200 126.405 C 387.200 125.962,387.020 125.600,386.800 125.600 C 386.580 125.600,386.400 125.240,386.400 124.800 C 386.400 124.360,386.220 124.000,386.000 124.000 C 385.780 124.000,385.600 123.460,385.600 122.800 C 385.600 122.140,385.420 121.600,385.200 121.600 C 384.980 121.600,384.800 121.240,384.800 120.800 C 384.800 120.360,384.620 120.000,384.400 120.000 C 384.180 120.000,384.000 119.640,384.000 119.200 C 384.000 118.760,383.820 118.400,383.600 118.400 C 383.380 118.400,383.200 118.128,383.200 117.795 C 383.200 117.207,383.033 116.782,382.062 114.905 C 381.808 114.413,381.600 113.738,381.600 113.405 C 381.600 113.072,381.420 112.800,381.200 112.800 C 380.980 112.800,380.800 112.429,380.800 111.976 C 380.800 111.523,380.620 111.264,380.400 111.400 C 380.180 111.536,380.000 111.402,380.000 111.103 C 380.000 110.349,379.065 108.407,378.700 108.403 C 378.535 108.401,378.400 108.040,378.400 107.600 C 378.400 107.160,378.220 106.800,378.000 106.800 C 377.780 106.800,377.600 106.440,377.600 106.000 C 377.600 105.560,377.420 105.200,377.200 105.200 C 376.980 105.200,376.800 104.880,376.800 104.488 C 376.800 104.097,376.440 103.517,376.000 103.200 C 375.560 102.883,375.200 102.366,375.200 102.052 C 375.200 101.277,373.113 97.200,372.716 97.200 C 372.542 97.200,372.400 97.007,372.400 96.772 C 372.400 96.537,371.860 95.559,371.200 94.600 C 370.540 93.641,370.000 92.703,370.000 92.516 C 370.000 92.329,369.640 91.917,369.200 91.600 C 368.760 91.283,368.400 90.703,368.400 90.312 C 368.400 89.920,368.250 89.600,368.068 89.600 C 367.885 89.600,367.481 89.105,367.170 88.500 C 366.860 87.895,366.289 87.109,365.903 86.753 C 365.516 86.397,365.200 85.852,365.200 85.541 C 365.200 85.231,364.840 84.717,364.400 84.400 C 363.960 84.083,363.600 83.593,363.600 83.312 C 363.600 83.030,363.420 82.800,363.200 82.800 C 362.980 82.800,362.800 82.570,362.800 82.288 C 362.800 82.007,362.440 81.517,362.000 81.200 C 361.560 80.883,361.200 80.375,361.200 80.072 C 361.200 79.769,360.660 79.017,360.000 78.400 C 359.340 77.783,358.800 77.124,358.800 76.935 C 358.800 76.746,358.390 76.144,357.889 75.596 C 357.387 75.048,356.539 73.970,356.004 73.200 C 355.469 72.430,354.567 71.350,354.000 70.800 C 353.433 70.250,352.533 69.179,352.001 68.420 C 350.740 66.624,333.376 49.260,331.580 47.999 C 330.821 47.467,329.750 46.567,329.200 46.000 C 328.650 45.433,327.570 44.535,326.800 44.005 C 326.030 43.474,325.256 42.806,325.080 42.520 C 324.904 42.234,324.499 42.000,324.180 42.000 C 323.861 42.000,323.600 41.820,323.600 41.600 C 323.600 41.380,323.402 41.200,323.160 41.200 C 322.919 41.200,322.217 40.660,321.600 40.000 C 320.983 39.340,320.263 38.800,320.000 38.800 C 319.737 38.800,319.017 38.260,318.400 37.600 C 317.783 36.940,317.031 36.400,316.728 36.400 C 316.425 36.400,315.917 36.040,315.600 35.600 C 315.283 35.160,314.743 34.800,314.400 34.800 C 314.057 34.800,313.517 34.440,313.200 34.000 C 312.883 33.560,312.427 33.200,312.187 33.200 C 311.947 33.200,311.402 32.885,310.975 32.500 C 310.549 32.115,309.705 31.545,309.100 31.232 C 308.495 30.920,308.000 30.515,308.000 30.332 C 308.000 30.150,307.807 30.000,307.572 30.000 C 307.337 30.000,306.359 29.460,305.400 28.800 C 304.441 28.140,303.463 27.600,303.228 27.600 C 302.993 27.600,302.800 27.447,302.800 27.261 C 302.800 26.879,299.585 25.345,299.108 25.500 C 298.939 25.555,298.800 25.420,298.800 25.200 C 298.800 24.980,298.564 24.800,298.275 24.800 C 297.987 24.800,297.364 24.440,296.892 24.000 C 296.420 23.560,295.756 23.200,295.417 23.200 C 295.078 23.200,294.800 23.020,294.800 22.800 C 294.800 22.580,294.440 22.400,294.000 22.400 C 293.560 22.400,293.200 22.220,293.200 22.000 C 293.200 21.780,292.840 21.600,292.400 21.600 C 291.960 21.600,291.600 21.454,291.600 21.275 C 291.600 21.096,290.970 20.702,290.200 20.400 C 289.430 20.098,288.800 19.704,288.800 19.525 C 288.800 19.346,288.440 19.200,288.000 19.200 C 287.560 19.200,287.200 19.020,287.200 18.800 C 287.200 18.580,286.935 18.400,286.612 18.400 C 286.289 18.400,285.383 18.040,284.600 17.600 C 283.817 17.160,282.821 16.800,282.388 16.800 C 281.955 16.800,281.600 16.620,281.600 16.400 C 281.600 16.180,281.240 16.000,280.800 16.000 C 280.360 16.000,280.000 15.820,280.000 15.600 C 280.000 15.380,279.640 15.200,279.200 15.200 C 278.760 15.200,278.400 15.020,278.400 14.800 C 278.400 14.580,277.860 14.400,277.200 14.400 C 276.540 14.400,276.000 14.220,276.000 14.000 C 276.000 13.780,275.640 13.600,275.200 13.600 C 274.760 13.600,274.400 13.420,274.400 13.200 C 274.400 12.980,274.038 12.800,273.595 12.800 C 273.152 12.800,272.477 12.641,272.095 12.447 C 271.713 12.252,270.860 11.871,270.200 11.600 C 269.540 11.329,268.687 10.948,268.305 10.753 C 267.923 10.559,267.336 10.400,267.000 10.400 C 266.664 10.400,266.077 10.237,265.695 10.037 C 264.553 9.440,260.778 8.400,259.754 8.400 C 259.229 8.400,258.800 8.220,258.800 8.000 C 258.800 7.780,258.271 7.600,257.624 7.600 C 256.977 7.600,256.336 7.420,256.200 7.200 C 256.064 6.980,255.423 6.800,254.776 6.800 C 254.129 6.800,253.600 6.620,253.600 6.400 C 253.600 6.180,252.880 6.000,252.000 6.000 C 251.120 6.000,250.400 5.820,250.400 5.600 C 250.400 5.380,249.680 5.200,248.800 5.200 C 247.920 5.200,247.200 5.020,247.200 4.800 C 247.200 4.580,246.491 4.400,245.624 4.400 C 244.757 4.400,243.936 4.220,243.800 4.000 C 243.664 3.780,242.753 3.600,241.776 3.600 C 240.799 3.600,240.000 3.420,240.000 3.200 C 240.000 2.980,239.100 2.800,238.000 2.800 C 236.900 2.800,236.000 2.620,236.000 2.400 C 236.000 2.180,235.021 2.000,233.824 2.000 C 232.627 2.000,231.536 1.820,231.400 1.600 C 231.264 1.380,229.939 1.200,228.456 1.200 C 226.853 1.200,225.560 1.000,225.267 0.707 C 224.780 0.220,187.008 -0.127,178.402 0.276 M51.693 64.238 C 51.042 64.936,51.068 65.225,51.760 64.960 C 52.067 64.842,52.440 64.941,52.587 65.179 C 52.858 65.617,53.600 65.392,53.600 64.873 C 53.600 64.184,52.184 63.713,51.693 64.238 M50.508 66.428 C 50.476 66.852,50.619 67.200,50.825 67.200 C 51.280 67.200,51.327 66.125,50.883 65.851 C 50.709 65.744,50.540 66.003,50.508 66.428 M44.800 72.400 C 44.250 72.830,43.997 73.186,44.238 73.191 C 44.479 73.196,45.002 72.840,45.400 72.400 C 46.312 71.392,46.088 71.392,44.800 72.400 M259.100 112.720 C 257.835 112.786,256.800 112.934,256.800 113.049 C 256.800 113.501,257.978 114.400,258.571 114.400 C 258.917 114.400,259.200 114.580,259.200 114.800 C 259.200 115.020,259.430 115.200,259.712 115.200 C 259.993 115.200,260.483 115.560,260.800 116.000 C 261.117 116.440,261.625 116.800,261.928 116.800 C 262.231 116.800,262.983 117.340,263.600 118.000 C 264.217 118.660,264.969 119.200,265.272 119.200 C 265.575 119.200,266.083 119.560,266.400 120.000 C 266.717 120.440,267.257 120.800,267.600 120.800 C 267.943 120.800,268.483 121.160,268.800 121.600 C 269.117 122.040,269.625 122.400,269.928 122.400 C 270.231 122.400,270.983 122.940,271.600 123.600 C 272.217 124.260,273.001 124.800,273.342 124.800 C 273.684 124.800,274.414 125.250,274.964 125.800 C 275.514 126.350,276.242 126.800,276.582 126.800 C 276.922 126.800,277.200 126.952,277.200 127.139 C 277.200 127.688,278.652 129.200,279.178 129.200 C 279.445 129.200,280.354 129.920,281.200 130.800 C 282.046 131.680,282.937 132.400,283.182 132.400 C 283.764 132.400,286.632 135.277,286.490 135.719 C 286.430 135.906,286.573 135.940,286.810 135.794 C 287.112 135.607,287.105 135.368,286.785 134.982 C 286.535 134.681,286.473 134.205,286.647 133.923 C 287.069 133.242,286.874 131.043,286.182 128.659 C 283.003 117.706,273.275 111.981,259.100 112.720 M384.603 276.496 C 384.754 277.937,384.779 278.000,385.200 278.000 C 385.792 278.000,385.685 276.569,385.054 276.045 C 384.618 275.683,384.528 275.774,384.603 276.496 " stroke="none" fill="#7e57a2" fill-rule="evenodd"></path><path id="path4" d="M87.392 180.400 C 87.392 202.510,87.441 211.555,87.500 200.500 C 87.559 189.445,87.559 171.355,87.500 160.300 C 87.441 149.245,87.392 158.290,87.392 180.400 M151.044 212.200 C 151.373 213.671,151.602 213.990,151.594 212.967 C 151.591 212.545,151.405 211.930,151.182 211.600 C 150.885 211.162,150.848 211.324,151.044 212.200 M154.406 221.650 C 154.397 222.005,156.433 225.600,156.642 225.600 C 156.738 225.600,156.460 224.925,156.024 224.100 C 155.078 222.311,154.415 221.306,154.406 221.650 M75.200 227.200 C 75.200 227.439,73.667 227.600,71.400 227.600 C 69.133 227.600,67.600 227.761,67.600 228.000 C 67.600 228.229,66.400 228.400,64.800 228.400 C 63.200 228.400,62.000 228.571,62.000 228.800 C 62.000 229.020,61.010 229.200,59.800 229.200 C 58.590 229.200,57.600 229.380,57.600 229.600 C 57.600 229.820,56.700 230.000,55.600 230.000 C 54.500 230.000,53.600 230.180,53.600 230.400 C 53.600 230.620,52.891 230.800,52.024 230.800 C 51.157 230.800,50.336 230.980,50.200 231.200 C 50.064 231.420,49.344 231.600,48.600 231.600 C 47.856 231.600,47.136 231.780,47.000 232.000 C 46.864 232.220,46.133 232.400,45.376 232.400 C 44.619 232.400,44.000 232.580,44.000 232.800 C 44.000 233.020,43.471 233.200,42.824 233.200 C 42.177 233.200,41.536 233.380,41.400 233.600 C 41.264 233.820,40.724 234.000,40.200 234.000 C 39.676 234.000,39.136 234.180,39.000 234.400 C 38.864 234.620,38.324 234.800,37.800 234.800 C 37.276 234.800,36.736 234.980,36.600 235.200 C 36.464 235.420,35.924 235.600,35.400 235.600 C 34.876 235.600,34.336 235.780,34.200 236.000 C 34.064 236.220,33.603 236.400,33.176 236.400 C 32.749 236.400,32.400 236.541,32.400 236.713 C 32.400 236.885,31.545 237.276,30.500 237.582 C 29.455 237.887,28.010 238.467,27.288 238.869 C 26.566 239.271,25.711 239.600,25.388 239.600 C 25.065 239.600,24.800 239.780,24.800 240.000 C 24.800 240.220,24.440 240.400,24.000 240.400 C 23.560 240.400,23.200 240.580,23.200 240.800 C 23.200 241.020,22.804 241.200,22.320 241.200 C 21.404 241.200,12.300 245.539,12.067 246.087 C 11.993 246.259,11.588 246.400,11.167 246.400 C 10.745 246.400,10.400 246.552,10.400 246.737 C 10.400 247.059,7.771 248.478,6.300 248.950 C 5.915 249.074,5.614 249.406,5.632 249.687 C 5.656 250.089,5.707 250.092,5.865 249.700 C 5.976 249.425,6.242 249.200,6.457 249.200 C 6.672 249.200,6.736 249.380,6.600 249.600 C 6.464 249.820,6.571 250.000,6.838 250.000 C 7.172 250.000,7.134 250.219,6.715 250.700 C 6.069 251.443,5.908 252.800,6.467 252.800 C 6.650 252.800,6.800 253.340,6.800 254.000 C 6.800 254.660,6.980 255.200,7.200 255.200 C 7.420 255.200,7.600 255.920,7.600 256.800 C 7.600 257.680,7.780 258.400,8.000 258.400 C 8.220 258.400,8.400 258.940,8.400 259.600 C 8.400 260.260,8.591 260.800,8.825 260.800 C 9.059 260.800,9.218 261.115,9.179 261.500 C 9.140 261.885,9.142 262.290,9.184 262.400 C 9.225 262.510,9.338 263.050,9.434 263.600 C 9.530 264.150,10.009 265.590,10.498 266.800 C 10.988 268.010,11.406 269.090,11.429 269.200 C 11.517 269.638,12.079 271.039,12.429 271.695 C 12.633 272.077,12.800 272.574,12.800 272.799 C 12.800 273.193,14.071 276.255,14.833 277.695 C 15.035 278.077,15.200 278.752,15.200 279.195 C 15.200 279.638,15.336 280.000,15.502 280.000 C 15.669 280.000,16.042 280.585,16.333 281.300 C 16.623 282.015,17.207 283.292,17.630 284.138 C 18.054 284.984,18.400 285.929,18.400 286.238 C 18.400 286.547,18.580 286.800,18.800 286.800 C 19.020 286.800,19.200 287.160,19.200 287.600 C 19.200 288.040,19.380 288.400,19.600 288.400 C 19.820 288.400,20.000 288.745,20.000 289.167 C 20.000 289.588,20.136 289.993,20.302 290.067 C 20.468 290.140,21.232 291.460,22.000 293.000 C 22.768 294.540,23.532 295.860,23.698 295.933 C 23.864 296.007,24.000 296.322,24.000 296.633 C 24.000 296.945,24.315 297.197,24.700 297.194 C 25.298 297.189,25.313 297.131,24.800 296.800 C 24.315 296.486,24.372 296.411,25.100 296.406 C 25.595 296.403,26.000 296.220,26.000 296.000 C 26.000 295.780,26.320 295.600,26.712 295.600 C 27.103 295.600,27.683 295.240,28.000 294.800 C 28.317 294.360,28.857 294.000,29.200 294.000 C 29.543 294.000,30.083 293.640,30.400 293.200 C 30.717 292.760,31.297 292.400,31.688 292.400 C 32.080 292.400,32.400 292.220,32.400 292.000 C 32.400 291.780,32.747 291.600,33.171 291.600 C 33.596 291.600,34.213 291.330,34.543 291.000 C 34.873 290.670,35.426 290.400,35.771 290.400 C 36.117 290.400,36.400 290.220,36.400 290.000 C 36.400 289.780,36.760 289.600,37.200 289.600 C 37.640 289.600,38.000 289.420,38.000 289.200 C 38.000 288.980,38.360 288.800,38.800 288.800 C 39.240 288.800,39.600 288.620,39.600 288.400 C 39.600 288.180,39.960 288.000,40.400 288.000 C 40.840 288.000,41.200 287.820,41.200 287.600 C 41.200 287.380,41.470 287.200,41.800 287.200 C 42.130 287.200,42.400 287.020,42.400 286.800 C 42.400 286.580,42.760 286.400,43.200 286.400 C 43.640 286.400,44.000 286.220,44.000 286.000 C 44.000 285.780,44.360 285.600,44.800 285.600 C 45.240 285.600,45.600 285.420,45.600 285.200 C 45.600 284.980,46.140 284.800,46.800 284.800 C 47.460 284.800,48.000 284.620,48.000 284.400 C 48.000 284.180,48.360 284.000,48.800 284.000 C 49.240 284.000,49.600 283.820,49.600 283.600 C 49.600 283.380,50.140 283.200,50.800 283.200 C 51.460 283.200,52.000 283.020,52.000 282.800 C 52.000 282.580,52.540 282.400,53.200 282.400 C 53.860 282.400,54.400 282.220,54.400 282.000 C 54.400 281.780,54.940 281.600,55.600 281.600 C 56.260 281.600,56.800 281.420,56.800 281.200 C 56.800 280.980,57.430 280.800,58.200 280.800 C 58.970 280.800,59.600 280.620,59.600 280.400 C 59.600 280.180,60.320 280.000,61.200 280.000 C 62.080 280.000,62.800 279.820,62.800 279.600 C 62.800 279.380,63.520 279.200,64.400 279.200 C 65.280 279.200,66.000 279.020,66.000 278.800 C 66.000 278.578,67.067 278.400,68.400 278.400 C 69.733 278.400,70.800 278.222,70.800 278.000 C 70.800 277.765,72.200 277.600,74.200 277.600 C 76.200 277.600,77.600 277.435,77.600 277.200 C 77.600 276.952,79.733 276.800,83.200 276.800 L 88.800 276.800 88.800 275.600 C 88.800 274.940,88.637 274.400,88.439 274.400 C 87.704 274.400,87.506 269.703,87.348 248.500 L 87.187 226.800 81.193 226.800 C 77.464 226.800,75.200 226.951,75.200 227.200 M112.948 247.300 C 113.118 265.141,113.322 269.432,114.037 270.180 C 114.237 270.389,114.400 270.886,114.400 271.285 C 114.400 271.684,114.580 272.368,114.800 272.805 C 115.020 273.242,115.380 273.960,115.600 274.400 C 116.427 276.055,117.024 276.981,117.800 277.818 C 118.240 278.292,118.960 279.112,119.400 279.640 C 120.501 280.961,123.135 282.942,124.700 283.627 C 125.415 283.939,126.000 284.331,126.000 284.498 C 126.000 284.664,126.349 284.800,126.776 284.800 C 127.203 284.800,127.664 284.980,127.800 285.200 C 127.936 285.420,128.667 285.600,129.424 285.600 C 130.181 285.600,130.800 285.766,130.800 285.968 C 130.800 286.696,137.530 286.871,172.089 287.038 C 211.513 287.230,208.221 287.510,205.128 284.227 C 204.288 283.334,203.600 282.471,203.600 282.307 C 203.600 282.144,202.205 280.543,200.500 278.750 C 196.422 274.462,194.110 271.973,192.400 270.029 C 191.630 269.153,190.820 268.426,190.600 268.412 C 190.380 268.398,188.716 266.949,186.903 265.193 C 185.089 263.437,183.468 262.000,183.300 262.000 C 183.133 262.000,182.236 261.285,181.308 260.410 C 180.379 259.536,179.172 258.708,178.624 258.570 C 178.077 258.433,177.520 257.978,177.387 257.560 C 177.255 257.142,176.922 256.800,176.648 256.800 C 176.375 256.800,175.764 256.440,175.292 256.000 C 174.820 255.560,174.291 255.195,174.117 255.189 C 173.943 255.182,172.997 254.462,172.014 253.589 C 171.032 252.715,169.997 252.000,169.714 252.000 C 169.432 252.000,169.200 251.848,169.200 251.663 C 169.200 251.477,168.345 250.894,167.300 250.365 C 166.255 249.837,165.151 249.168,164.847 248.878 C 164.544 248.589,163.599 248.050,162.747 247.682 C 161.896 247.313,161.200 246.874,161.200 246.706 C 161.200 246.538,160.945 246.400,160.633 246.400 C 160.322 246.400,160.007 246.259,159.933 246.087 C 159.700 245.539,150.596 241.200,149.680 241.200 C 149.196 241.200,148.800 241.020,148.800 240.800 C 148.800 240.580,148.440 240.400,148.000 240.400 C 147.560 240.400,147.200 240.220,147.200 240.000 C 147.200 239.780,146.935 239.600,146.612 239.600 C 146.289 239.600,145.383 239.240,144.600 238.800 C 143.817 238.360,142.832 238.000,142.411 238.000 C 141.991 238.000,141.536 237.820,141.400 237.600 C 141.264 237.380,140.803 237.200,140.376 237.200 C 139.949 237.200,139.600 237.020,139.600 236.800 C 139.600 236.580,139.150 236.400,138.600 236.400 C 138.050 236.400,137.600 236.220,137.600 236.000 C 137.600 235.780,137.161 235.600,136.624 235.600 C 136.087 235.600,135.536 235.420,135.400 235.200 C 135.264 234.980,134.724 234.800,134.200 234.800 C 133.676 234.800,133.136 234.620,133.000 234.400 C 132.864 234.180,132.324 234.000,131.800 234.000 C 131.276 234.000,130.736 233.820,130.600 233.600 C 130.464 233.380,129.733 233.200,128.976 233.200 C 128.219 233.200,127.600 233.020,127.600 232.800 C 127.600 232.580,127.071 232.400,126.424 232.400 C 125.777 232.400,125.136 232.220,125.000 232.000 C 124.864 231.780,124.144 231.600,123.400 231.600 C 122.656 231.600,121.936 231.420,121.800 231.200 C 121.664 230.980,120.843 230.800,119.976 230.800 C 119.109 230.800,118.400 230.620,118.400 230.400 C 118.400 230.180,117.500 230.000,116.400 230.000 C 115.300 230.000,114.400 229.820,114.400 229.600 C 114.400 229.380,114.035 229.200,113.588 229.200 C 112.782 229.200,112.778 229.323,112.948 247.300 M159.991 230.788 C 160.457 231.441,161.042 232.102,161.291 232.256 C 161.541 232.411,161.241 231.876,160.625 231.068 C 159.288 229.315,158.784 229.092,159.991 230.788 M164.577 235.890 C 165.885 237.259,167.040 238.294,167.144 238.190 C 167.248 238.085,167.254 237.955,167.157 237.900 C 167.061 237.845,165.906 236.810,164.591 235.600 L 162.200 233.400 164.577 235.890 M170.800 241.095 C 170.800 241.484,172.414 242.519,172.651 242.282 C 172.747 242.186,172.369 241.810,171.812 241.445 C 171.256 241.080,170.800 240.922,170.800 241.095 M175.200 243.967 C 176.163 244.752,176.800 245.008,176.800 244.610 C 176.800 244.506,176.215 244.135,175.500 243.786 L 174.200 243.152 175.200 243.967 M185.390 248.384 C 185.532 248.613,186.117 248.800,186.690 248.800 C 187.944 248.800,187.799 248.608,186.266 248.240 C 185.523 248.062,185.221 248.111,185.390 248.384 M188.400 249.205 C 188.730 249.416,189.525 249.591,190.167 249.594 C 191.714 249.602,191.377 249.371,189.400 249.068 C 188.310 248.901,187.991 248.945,188.400 249.205 M287.365 256.600 C 287.366 260.560,287.426 262.126,287.498 260.080 C 287.571 258.034,287.571 254.794,287.498 252.880 C 287.424 250.966,287.365 252.640,287.365 256.600 M196.500 250.297 C 198.205 250.372,200.995 250.372,202.700 250.297 C 204.405 250.222,203.010 250.161,199.600 250.161 C 196.190 250.161,194.795 250.222,196.500 250.297 M227.500 287.500 C 234.155 287.561,245.045 287.561,251.700 287.500 C 258.355 287.438,252.910 287.388,239.600 287.388 C 226.290 287.388,220.845 287.438,227.500 287.500 M24.832 298.100 C 24.812 298.537,25.092 298.800,25.576 298.800 C 26.507 298.800,26.993 298.167,26.362 297.776 C 26.114 297.623,25.772 297.721,25.604 297.994 C 25.365 298.380,25.249 298.370,25.080 297.945 C 24.929 297.565,24.854 297.612,24.832 298.100 M27.673 303.400 C 27.923 303.950,28.284 304.400,28.473 304.400 C 28.663 304.400,28.524 303.950,28.163 303.400 C 27.803 302.850,27.443 302.400,27.363 302.400 C 27.283 302.400,27.422 302.850,27.673 303.400 M265.905 312.683 C 266.402 312.779,267.122 312.775,267.505 312.675 C 267.887 312.575,267.480 312.496,266.600 312.501 C 265.720 312.505,265.407 312.587,265.905 312.683 M164.400 313.429 C 164.400 313.777,165.120 314.754,166.000 315.600 C 166.880 316.446,167.600 317.349,167.600 317.608 C 167.600 317.867,168.140 318.583,168.800 319.200 C 169.460 319.817,170.000 320.569,170.000 320.872 C 170.000 321.175,170.360 321.683,170.800 322.000 C 171.240 322.317,171.600 322.857,171.600 323.200 C 171.600 323.543,171.960 324.083,172.400 324.400 C 172.840 324.717,173.200 325.207,173.200 325.488 C 173.200 325.770,173.380 326.000,173.600 326.000 C 173.820 326.000,174.000 326.320,174.000 326.712 C 174.000 327.103,174.360 327.683,174.800 328.000 C 175.240 328.317,175.600 328.897,175.600 329.288 C 175.600 329.680,175.780 330.000,176.000 330.000 C 176.220 330.000,176.400 330.360,176.400 330.800 C 176.400 331.240,176.564 331.600,176.765 331.600 C 176.966 331.600,177.251 332.320,177.400 333.200 C 177.549 334.080,177.834 334.800,178.035 334.800 C 178.236 334.800,178.400 335.160,178.400 335.600 C 178.400 336.040,178.580 336.400,178.800 336.400 C 179.020 336.400,179.200 336.760,179.200 337.200 C 179.200 337.640,179.380 338.000,179.600 338.000 C 179.820 338.000,180.000 338.360,180.000 338.800 C 180.000 339.240,180.180 339.600,180.400 339.600 C 180.620 339.600,180.800 340.050,180.800 340.600 C 180.800 341.150,180.980 341.600,181.200 341.600 C 181.420 341.600,181.600 341.960,181.600 342.400 C 181.600 342.840,181.780 343.200,182.000 343.200 C 182.220 343.200,182.400 343.740,182.400 344.400 C 182.400 345.060,182.580 345.600,182.800 345.600 C 183.020 345.600,183.200 346.140,183.200 346.800 C 183.200 347.460,183.380 348.000,183.600 348.000 C 183.820 348.000,184.000 348.540,184.000 349.200 C 184.000 349.860,184.180 350.400,184.400 350.400 C 184.620 350.400,184.800 351.120,184.800 352.000 C 184.800 352.880,184.980 353.600,185.200 353.600 C 185.420 353.600,185.600 354.320,185.600 355.200 C 185.600 356.080,185.780 356.800,186.000 356.800 C 186.220 356.800,186.400 357.430,186.400 358.200 C 186.400 358.970,186.580 359.600,186.800 359.600 C 187.022 359.600,187.200 360.667,187.200 362.000 C 187.200 363.333,187.378 364.400,187.600 364.400 C 187.837 364.400,188.000 365.867,188.000 368.000 C 188.000 370.133,188.163 371.600,188.400 371.600 C 188.654 371.600,188.800 374.600,188.800 379.800 C 188.800 385.000,188.654 388.000,188.400 388.000 C 188.165 388.000,188.000 389.400,188.000 391.400 C 188.000 393.553,187.843 394.800,187.571 394.800 C 187.305 394.800,187.181 395.636,187.244 396.994 C 187.300 398.201,187.194 399.326,187.009 399.494 C 186.823 399.662,186.801 399.575,186.959 399.300 C 187.335 398.648,187.131 398.669,185.746 399.426 C 184.696 400.000,186.266 400.041,204.501 399.905 C 219.253 399.796,224.526 399.634,224.881 399.279 C 225.144 399.016,226.212 398.800,227.254 398.800 C 228.296 398.800,229.578 398.637,230.103 398.437 C 230.629 398.237,231.766 398.024,232.629 397.964 C 233.493 397.903,234.380 397.757,234.600 397.638 C 234.820 397.520,235.259 397.383,235.576 397.335 C 237.701 397.015,238.079 396.777,237.535 396.107 C 237.155 395.637,237.144 395.533,237.500 395.747 C 237.881 395.976,238.000 395.376,238.000 393.224 C 238.000 391.608,238.171 390.400,238.400 390.400 C 238.657 390.400,238.800 386.600,238.800 379.800 C 238.800 373.000,238.657 369.200,238.400 369.200 C 238.160 369.200,238.000 367.600,238.000 365.200 C 238.000 362.800,237.840 361.200,237.600 361.200 C 237.374 361.200,237.200 360.067,237.200 358.600 C 237.200 357.133,237.026 356.000,236.800 356.000 C 236.578 356.000,236.400 354.933,236.400 353.600 C 236.400 352.267,236.222 351.200,236.000 351.200 C 235.780 351.200,235.600 350.300,235.600 349.200 C 235.600 348.100,235.420 347.200,235.200 347.200 C 234.980 347.200,234.800 346.491,234.800 345.624 C 234.800 344.757,234.620 343.936,234.400 343.800 C 234.180 343.664,234.000 342.944,234.000 342.200 C 234.000 341.456,233.820 340.736,233.600 340.600 C 233.380 340.464,233.200 339.823,233.200 339.176 C 233.200 338.529,233.020 338.000,232.800 338.000 C 232.580 338.000,232.400 337.381,232.400 336.624 C 232.400 335.867,232.220 335.136,232.000 335.000 C 231.780 334.864,231.600 334.324,231.600 333.800 C 231.600 333.276,231.420 332.736,231.200 332.600 C 230.980 332.464,230.800 332.001,230.800 331.571 C 230.800 331.141,230.620 330.432,230.400 329.995 C 230.180 329.558,229.820 328.842,229.600 328.405 C 229.380 327.968,229.200 327.248,229.200 326.805 C 229.200 326.362,229.020 326.000,228.800 326.000 C 228.580 326.000,228.400 325.651,228.400 325.224 C 228.400 324.797,228.220 324.336,228.000 324.200 C 227.780 324.064,227.599 323.558,227.598 323.076 C 227.596 322.594,227.326 321.684,226.998 321.054 C 226.669 320.424,226.400 319.569,226.400 319.154 C 226.400 318.739,226.220 318.400,226.000 318.400 C 225.780 318.400,225.600 318.040,225.600 317.600 C 225.600 317.160,225.420 316.800,225.200 316.800 C 224.980 316.800,224.787 316.485,224.771 316.100 C 224.755 315.715,224.425 314.860,224.038 314.200 L 223.335 313.000 193.867 312.897 C 167.197 312.805,164.400 312.855,164.400 313.429 M174.800 399.200 C 174.800 399.420,175.205 399.597,175.700 399.594 C 176.428 399.589,176.485 399.514,176.000 399.200 C 175.224 398.699,174.800 398.699,174.800 399.200 " stroke="none" fill="#f3904e" fill-rule="evenodd"></path></g></svg>