<?xml version="1.0" encoding="utf-8"?>
<!-- Generator: Adobe Illustrator 24.1.0, SVG Export Plug-In . SVG Version: 6.00 Build 0)  -->
<svg version="1.1" id="Capa_1" xmlns="http://www.w3.org/2000/svg" xmlns:xlink="http://www.w3.org/1999/xlink" x="0px" y="0px"
	 viewBox="0 0 112.2 112.2" style="enable-background:new 0 0 112.2 112.2;" xml:space="preserve">
<style type="text/css">
	.st0{fill:#007AB9;}
	.st1{fill:#F1F2F2;}
</style>
<path class="st0" d="M98.9,112.2H13.3C5.9,112.2,0,106.3,0,98.9V13.3C0,5.9,5.9,0,13.3,0h85.6c7.3,0,13.3,5.9,13.3,13.3v85.6
	C112.2,106.3,106.3,112.2,98.9,112.2z"/>
<g>
	<path class="st1" d="M87.4,62.9V86H74V64.4c0-5.4-1.9-9.1-6.8-9.1c-3.7,0-5.9,2.5-6.9,4.9c-0.4,0.9-0.4,2.1-0.4,3.3V86H46.4
		c0,0,0.2-36.5,0-40.3h13.4v5.7c0,0-0.1,0.1-0.1,0.1h0.1v-0.1c1.8-2.7,5-6.7,12.1-6.7C80.8,44.7,87.4,50.5,87.4,62.9L87.4,62.9z
		 M32.4,26.2c-4.6,0-7.6,3-7.6,7c0,3.9,2.9,7,7.4,7h0.1c4.7,0,7.6-3.1,7.6-7C39.8,29.2,37,26.2,32.4,26.2L32.4,26.2z M25.6,86H39
		V45.7H25.6V86z"/>
</g>
</svg>
