<?xml version="1.0" encoding="utf-8"?>
<!-- Generator: Adobe Illustrator 24.1.0, SVG Export Plug-In . SVG Version: 6.00 Build 0)  -->
<svg version="1.1" id="Layer_1" xmlns="http://www.w3.org/2000/svg" xmlns:xlink="http://www.w3.org/1999/xlink" x="0px" y="0px"
	 viewBox="0 0 141.7 141.7" style="enable-background:new 0 0 141.7 141.7;" xml:space="preserve">
<style type="text/css">
	.st0{fill:#EE7174;}
	.st1{fill:#FFFFFF;}
</style>
<path class="st0" d="M125.3,141.7H16.5c-9.1,0-16.5-7.4-16.5-16.5V16.5C0,7.4,7.4,0,16.5,0h108.8c9.1,0,16.5,7.4,16.5,16.5v108.8
	C141.7,134.4,134.4,141.7,125.3,141.7z"/>
<g>
	<g>
		<path class="st1" d="M70.7,118.6l-3.4-1.4c-10.4-4.6-35-15.7-35.3-39.8l-0.7-35.8l7.5-1c11.8-1.7,19.6-4.8,26.1-11.3l6-6l6,5.8
			c6.7,6.5,14.2,9.9,26.1,11.3l7.5,1L109.8,77c-0.7,24.4-25.2,35.3-35.8,40.1L70.7,118.6z M48.4,56L48.9,77c0,8.9,6.5,15.7,22,23.2
			c15.4-7.2,21.8-14.2,22-23.2L93.4,56c-8.9-1.9-16-5.1-22.5-9.6C64.3,50.9,57.1,54,48.4,56z"/>
	</g>
</g>
</svg>
