<?xml version="1.0" encoding="utf-8"?>
<!-- Generator: Adobe Illustrator 24.1.0, SVG Export Plug-In . SVG Version: 6.00 Build 0)  -->
<svg version="1.1" id="Layer_1" xmlns="http://www.w3.org/2000/svg" xmlns:xlink="http://www.w3.org/1999/xlink" x="0px" y="0px"
	 viewBox="0 0 512 512" style="enable-background:new 0 0 512 512;" xml:space="preserve">
<style type="text/css">
	.st0{fill:#FFFFFF;stroke:#FFFFFF;stroke-width:4;stroke-miterlimit:10;}
</style>
<path class="st0" d="M183.1,285.4h-70.8c-3.5,0-6.3,2.9-6.3,6.3s2.9,6.3,6.3,6.3h70.8c3.5,0,6.3-2.9,6.3-6.3
	C189.6,288.2,186.7,285.4,183.1,285.4z"/>
<path class="st0" d="M254.7,255H112.5c-3.5,0-6.3,2.9-6.3,6.3s2.9,6.3,6.3,6.3h142.2c3.5,0,6.3-2.9,6.3-6.3S258.2,255,254.7,255z"/>
<path class="st0" d="M391.2,219.6h-66.6c-3.5,0-6.3,2.9-6.3,6.3v30.4c0,3.5,2.9,6.3,6.3,6.3h66.6c3.5,0,6.3-2.9,6.3-6.3V226
	C397.6,222.5,394.7,219.6,391.2,219.6z M384.8,250.1H331v-17.6h53.8V250.1L384.8,250.1z"/>
<path class="st0" d="M388,107.9H124c-29.6,0-53.8,24.1-53.8,53.8V313c0,29.6,24.1,53.8,53.8,53.8h172c2.3,30.4,27.7,54.4,58.7,54.4
	c32.4,0,58.9-26.5,58.9-58.9c0-0.7-0.1-1.3-0.1-2c16.8-9.1,28.3-26.8,28.3-47.2V161.7C441.7,132.1,417.6,107.9,388,107.9z
	 M354.7,406.8c-24.5,0-44.5-20-44.5-44.5s20-44.5,44.5-44.5s44.5,20,44.5,44.5S379.3,406.8,354.7,406.8z M427.4,313
	c0,13.2-6.6,24.8-16.5,31.8c-7.4-24.1-29.8-41.5-56.3-41.5c-29.1,0-53.3,21.3-57.9,49.1H124c-21.8,0-39.4-17.7-39.4-39.4V182.8
	h342.9V313H427.4z M427.4,163.5H84.6v-1.8c0-21.8,17.7-39.4,39.4-39.4h264c21.8,0,39.4,17.7,39.4,39.4V163.5z"/>
<g>
	<path class="st0" d="M346.7,383c-0.2,0-0.5,0-0.7,0c-1.4-0.2-2.6-1.1-3.5-2.3l-8.5-13.8c-1.4-2.3-0.7-5.3,1.6-6.7
		c2.3-1.4,5.3-0.7,6.7,1.6l5.4,8.9l26.6-24.1c2-1.8,5-1.7,6.8,0.4s1.7,5-0.4,6.8l-30.9,28C349,382.6,347.9,383,346.7,383z"/>
</g>
</svg>
