<?xml version="1.0" encoding="utf-8"?>
<!-- Generator: Adobe Illustrator 24.1.0, SVG Export Plug-In . SVG Version: 6.00 Build 0)  -->
<svg version="1.1" id="Layer_1" xmlns="http://www.w3.org/2000/svg" xmlns:xlink="http://www.w3.org/1999/xlink" x="0px" y="0px"
	 viewBox="0 0 512 512" style="enable-background:new 0 0 512 512;" xml:space="preserve">
<style type="text/css">
	.st0{fill:#FFFFFF;}
</style>
<path class="st0" d="M410.5,153.1H300.1c3.1-6.1,5-13,5-20.5c0-38.9-47.6-61.1-76.9-31.7L176.1,153h-1.9l-36.7-36.7
	c-10.6-10.6-25.4-13.7-39.1-8.1c-13.7,5.6-22.4,18.5-22.4,33.5c0,7.4,2.4,14.3,6.1,19.8c-3.7,4.3-6.1,10-6.1,16.1v198.9
	c0,13.7,11.1,24.8,24.8,24.8h310.3c13.7,0,24.8-11.1,24.8-24.8V177.9C435.3,164.4,424.2,153.1,410.5,153.1z M410.5,233.9H100.2
	v-55.8h310.3V233.9z M245.4,118.5c11.7-11.7,34.8-5.4,34.8,14.3c0,11.1-9.3,20.5-20.5,20.5h-49.1L245.4,118.5z M107.1,131.4
	c1.1-1.1,7.8-1.4,11.8,2.4l19.3,19.3h-27.2C99.4,153.1,94.6,137.7,107.1,131.4z M100.2,376.5V258.7h310.3v117.8H100.2z M311.2,326.9
	h74.5v12.4h-74.5V326.9z"/>
</svg>
