<?xml version="1.0" encoding="utf-8"?>
<!-- Generator: Adobe Illustrator 24.1.0, SVG Export Plug-In . SVG Version: 6.00 Build 0)  -->
<svg version="1.1" id="Layer_1" xmlns="http://www.w3.org/2000/svg" xmlns:xlink="http://www.w3.org/1999/xlink" x="0px" y="0px"
	 viewBox="0 0 512 512" style="enable-background:new 0 0 512 512;" xml:space="preserve">
<style type="text/css">
	.st0{fill:#FFFFFF;}
</style>
<path class="st0" d="M315.2,238.6h5c33.5,0,60.8-27.2,60.8-60.8v-40.4c0-33.5-27.2-60.8-60.8-60.8h-5c-33.5,0-60.8,27.2-60.8,60.8
	v40.4C254.4,211.4,281.7,238.6,315.2,238.6z M276.5,137.5c0-21.3,17.4-38.7,38.7-38.7h5c21.3,0,38.7,17.4,38.7,38.7v40.4
	c0,21.3-17.4,38.7-38.7,38.7h-5c-21.3,0-38.7-17.4-38.7-38.7V137.5L276.5,137.5z M435.2,266c-5.2-6.3-13.4-9.9-22.5-9.9h-64.9
	c-6,0-11,5-11,11c0,6,5,11,11,11h64.9c2.5,0,4.5,0.7,5.4,1.9c0.8,0.9,1.1,2.5,0.7,4.4c-0.8,4.7-9.1,12.8-12.5,16.2l-75.2,75.2
	c-3.4,3.4-8,5.4-13,5.6c-0.1,0-0.2,0-0.4,0h-0.1h-0.1c-0.1,0-0.2,0-0.4,0c-5-0.1-9.6-2.1-13-5.6L230.4,302l-1.4-1.4
	c-3.5-3.4-11.7-11.6-12.5-16.2c-0.4-1.9-0.1-3.3,0.7-4.4c1.1-1.2,3.1-1.9,5.4-1.9h62.9c6,0,11-5,11-11c0-6-5-11-11-11h-62.9
	c-9,0-17.3,3.5-22.5,9.9c-5.1,6.1-7,14.1-5.4,22.5c2.1,11.5,12.5,21.8,18.7,27.8l75.2,75.1c7.1,7.1,16.7,11.4,26.7,11.9
	c0.5,0,0.8,0.1,1.3,0.1h0.2c0.2,0,0.6,0,0.6,0c0.2,0,0.8,0,1.1,0c0.5,0,0.8,0,1.3-0.1c10.2-0.6,19.6-4.8,26.7-11.9l73.8-73.8
	l1.3-1.3c6.1-6.1,16.6-16.4,18.7-27.8C442.2,280.1,440.3,272.1,435.2,266z M215,183.1c0-6-5-11-11-11h-50.7v-50.7c0-6-5-11-11-11
	s-11,5-11,11v50.7H80.5c-6,0-11,5-11,11c0,6,5,11,11,11h50.7v50.7c0,6,5,11,11,11s11-5,11-11v-50.7H204
	C210,194.1,215,189.1,215,183.1z"/>
</svg>
