<?xml version="1.0" encoding="utf-8"?>
<!-- Generator: Adobe Illustrator 24.1.0, SVG Export Plug-In . SVG Version: 6.00 Build 0)  -->
<svg version="1.1" id="Layer_1" xmlns="http://www.w3.org/2000/svg" xmlns:xlink="http://www.w3.org/1999/xlink" x="0px" y="0px"
	 viewBox="0 0 512 512" style="enable-background:new 0 0 512 512;" xml:space="preserve">
<style type="text/css">
	.st0{fill:#FFFFFF;}
</style>
<g transform="translate(0,-271.59998)">
	<path class="st0" d="M83.6,384.1c-5.3,0-9.7,4.4-9.7,9.7v262.1c0,5.3,4.4,9.7,9.7,9.7h144.5l-19.4,38.9h-23.2v19.4h174.7v-19.4
		h-23.2l-19.4-38.9h144.5c5.3,0,9.7-4.4,9.7-9.7v-262c0-5.3-4.4-9.7-9.7-9.7h-43.7v19.4h34v203.9h-301v19.4h301v19.4H93.3V403.6h34
		v-19.4H83.6V384.1z M249.9,665.8h46.3l19.4,38.9h-85.2L249.9,665.8z"/>
	<path class="st0" d="M112.8,607.5v19.4h19.4v-19.4H112.8z"/>
	<path class="st0" d="M258.4,296.8c-4.5,0-8.4,3.1-9.5,7.3l-6.9,27.5c-4,1.4-8,3.1-11.9,5L205.8,322c-3.8-2.2-8.7-1.7-11.8,1.4
		L173.4,344c-3.2,3.2-3.8,8-1.4,11.8l14.6,24.3c-1.9,3.9-3.5,7.8-5,11.8l-27.5,6.9c-4.4,1.1-7.3,5-7.3,9.5v29.2
		c0,4.5,3.1,8.4,7.3,9.5l27.5,6.9c1.4,4,3.1,8,5,11.8L172,489.9c-2.2,3.8-1.7,8.7,1.4,11.8l20.6,20.6c3.2,3.2,8,3.8,11.8,1.4
		l24.3-14.6c3.9,1.9,7.8,3.5,11.8,4.8l6.9,27.6c1.1,4.4,5,7.3,9.5,7.3h29.2c4.5,0,8.4-3.1,9.5-7.3l6.9-27.6c4-1.4,8-3,11.8-4.8
		l24.5,14.6c3.8,2.2,8.7,1.7,11.8-1.4l20.6-20.6c3.2-3.2,3.8-8,1.4-11.8l-14.6-24.3c1.9-3.9,3.5-7.8,4.8-11.8l27.5-6.9
		c4.4-1.1,7.3-5,7.3-9.5v-29.2c0-4.5-3.1-8.4-7.3-9.5l-27.5-6.9c-1.4-4-3.1-8-5-11.8l14.6-24.3c2.2-3.8,1.7-8.7-1.4-11.8l-20.6-20.6
		c-3.2-3.2-8-3.8-11.8-1.4l-24.3,14.6c-3.9-1.9-7.8-3.5-11.8-5l-6.9-27.5c-1.1-4.4-5-7.3-9.5-7.3H258.4z M265.9,316.2h13.9l6.3,24.8
		c0.8,3.4,3.5,6.1,6.9,7c6.5,1.8,12.9,4.4,18.7,7.7c3.1,1.8,6.9,1.8,9.8-0.1l22-13.1l9.9,9.9l-13.2,22c-1.8,3.1-1.9,6.9-0.1,9.9
		c3.4,5.9,6,12.2,7.8,18.7c0.9,3.4,3.7,6,7,6.9l24.8,6.1v13.9l-24.9,6.3c-3.4,0.8-6.1,3.5-7,7c-1.8,6.5-4.4,12.8-7.7,18.7
		c-1.8,3.1-1.8,6.9,0.1,9.8l13.2,22l-9.9,9.9l-22-13.2c-3.1-1.8-6.7-1.9-9.8-0.1c-5.9,3.3-12.2,5.9-18.7,7.7c-3.4,0.9-6,3.5-7,7
		l-6.3,24.9h-13.9l-6.3-24.9c-0.8-3.4-3.5-6.1-7-7.1c-6.5-1.8-12.8-4.3-18.7-7.7c-3.1-1.8-6.9-1.7-9.8,0.1l-22,13.2l-9.9-9.9
		l13.2-22c1.8-3.1,1.9-6.9,0.1-9.9c-3.4-5.9-6-12.2-7.8-18.7c-0.9-3.4-3.7-6-7-6.9l-24.8-6.1v-13.9l24.8-6.3c3.4-0.8,6.1-3.5,7-6.9
		c1.8-6.5,4.4-12.9,7.7-18.7c1.8-3.1,1.8-6.9-0.1-9.8l-13.2-22l9.9-9.9l22,13.2c3.1,1.8,6.9,1.9,9.9,0.1c5.9-3.4,12.2-6,18.7-7.8
		c3.4-0.9,6-3.7,6.9-7L265.9,316.2z"/>
	<path class="st0" d="M272.9,374.4v19.4c16.2,0,29.2,12.9,29.2,29.2c0,16.2-12.9,29.2-29.2,29.2c-16.3,0-29.1-12.9-29.1-29.2h-19.4
		c0,26.7,21.9,48.6,48.6,48.6s48.6-21.9,48.6-48.6C321.6,396.3,299.6,374.4,272.9,374.4z"/>
</g>
</svg>
