<?xml version="1.0" encoding="utf-8"?>
<!-- Generator: Adobe Illustrator 24.1.0, SVG Export Plug-In . SVG Version: 6.00 Build 0)  -->
<svg version="1.1" id="Layer_1" xmlns="http://www.w3.org/2000/svg" xmlns:xlink="http://www.w3.org/1999/xlink" x="0px" y="0px"
	 viewBox="0 0 512 512" style="enable-background:new 0 0 512 512;" xml:space="preserve">
<style type="text/css">
	.st0{fill:#FFFFFF;}
</style>
<g>
	<path class="st0" d="M285.8,359.9c-2.2-4.3-0.7-9.3,3.6-11.5c4.3-2.2,9.3,0,11.5,4.3c0.7,1.4,1.4,2.2,2.9,2.9
		c1.4,0.7,2.9,1.4,4.3,1.4l0,0l0,0c2.2,0,4.3-0.7,5.7-2.2c1.4-1.4,2.2-3.6,2.2-5.7c0-5.7-5-7.2-10-7.9c-11.5-2.9-22.9-5.7-22.9-25.1
		c0-6.5,2.9-12.9,7.2-17.2c2.9-2.9,5.7-4.3,9.3-5.7v-6.5c0-4.3,3.6-8.6,8.6-8.6c4.3,0,8.6,4.3,8.6,8.6v6.5c1.4,0.7,2.9,1.4,4.3,2.2
		c4.3,2.9,7.2,6.5,9.3,10.8c2.2,3.6,0,8.6-3.6,10.8c-4.3,2.2-9.3,0.7-11.5-3.6c-0.7-1.4-2.2-2.9-2.9-3.6c-1.4-0.7-2.9-0.7-4.3-0.7
		l0,0l0,0c-2.2,0-4.3,0.7-5.7,2.2c-1.4,1.4-2.2,2.9-2.2,5c0,5.7,5,7.2,10,8.6c11.5,2.9,22.9,5,22.9,24.4c0,7.2-2.9,12.9-7.9,17.9
		c-2.2,2.2-5,4.3-8.6,5.7v5.7c0,5-4.3,8.6-8.6,8.6c-5,0-8.6-3.6-8.6-8.6v-5.7c-1.4-0.7-2.9-1.4-5-2.9
		C290.8,367.8,287.2,364.2,285.8,359.9L285.8,359.9z M135.2,98.1h242.4l0,0h40.2c5,0,8.6,4.3,8.6,8.6c0,5-3.6,8.6-8.6,8.6h-32.3V149
		h75.3V64.4H52V149h74.6v-33.7H94.3c-4.3,0-8.6-3.6-8.6-8.6c0-4.3,4.3-8.6,8.6-8.6h40.2C134.4,98.1,135.2,98.1,135.2,98.1z
		 M385.5,166.2V456c0,5-3.6,8.6-7.9,8.6c-2.9,0-5-0.7-6.5-2.2l-28-25.1l-22.2,24.4c-2.9,3.6-7.9,4.3-11.5,0.7l-25.1-25.8l-21.5,25.1
		c-3.6,4.3-9.3,3.6-12.9,0l-22.2-25.1l-24.4,25.8c-2.9,2.9-8.6,2.9-11.5,0l-22.2-25.1l-28.7,25.1c-5.7,5-14.3,0.7-14.3-6.5V166.2
		H43.4c-5,0-8.6-3.6-8.6-8.6V55.8c0-5,3.6-8.6,8.6-8.6h425.3c5,0,8.6,3.6,8.6,8.6v101.8c0,5-3.6,8.6-8.6,8.6L385.5,166.2
		L385.5,166.2z M143.8,115.3v322l20.8-17.9c3.6-3.6,8.6-2.9,12.2,0.7l20.8,23.7L222,418c3.6-2.9,9.3-2.9,12.2,0.7l22.2,24.4
		l21.5-24.4c3.6-3.6,9.3-3.6,12.9,0l23.7,25.1l21.5-23.7c2.9-3.6,8.6-4.3,11.5-0.7l21.5,17.9v-322L143.8,115.3L143.8,115.3z
		 M179.6,387.1c-5,0-8.6-3.6-8.6-8.6c0-4.3,3.6-8.6,8.6-8.6h75.3c5,0,8.6,4.3,8.6,8.6c0,5-3.6,8.6-8.6,8.6H179.6z M180.3,295.3
		c-4.3,0-8.6-3.6-8.6-8.6c0-4.3,4.3-8.6,8.6-8.6h76c4.3,0,8.6,4.3,8.6,8.6c0,5-4.3,8.6-8.6,8.6H180.3z M179.6,341.2
		c-4.3,0-7.9-3.6-7.9-8.6c0-4.3,3.6-8.6,7.9-8.6h76c5,0,8.6,4.3,8.6,8.6c0,5-3.6,8.6-8.6,8.6H179.6z M179.6,253
		c-5,0-8.6-3.6-8.6-8.6c0-4.3,3.6-8.6,8.6-8.6h151.3c4.3,0,8.6,4.3,8.6,8.6c0,5-4.3,8.6-8.6,8.6C330.9,253,179.6,253,179.6,253z
		 M181.1,161.2c-4.3,0-7.9-3.6-7.9-8.6c0-4.3,3.6-8.6,7.9-8.6h152c4.3,0,7.9,4.3,7.9,8.6c0,5-3.6,8.6-7.9,8.6H181.1z M180.3,207.1
		c-4.3,0-8.6-3.6-8.6-8.6c0-4.3,4.3-8.6,8.6-8.6h151.3c5,0,8.6,4.3,8.6,8.6c0,5-3.6,8.6-8.6,8.6H180.3z"/>
</g>
</svg>
