<?xml version="1.0" encoding="utf-8"?>
<!-- Generator: Adobe Illustrator 24.1.0, SVG Export Plug-In . SVG Version: 6.00 Build 0)  -->
<svg version="1.1" id="Layer_1" xmlns="http://www.w3.org/2000/svg" xmlns:xlink="http://www.w3.org/1999/xlink" x="0px" y="0px"
	 viewBox="0 0 512 512" style="enable-background:new 0 0 512 512;" xml:space="preserve">
<style type="text/css">
	.st0{fill:#FFFFFF;}
</style>
<g>
	<path class="st0" d="M139.8,204.1H94.5c-4,0-7.6,3.6-7.6,7.6s3.6,7.6,7.6,7.6h44.9c4,0,7.6-3.6,7.6-7.6S143.9,204.1,139.8,204.1z"
		/>
	<path class="st0" d="M139.8,235H94.5c-4,0-7.6,3.6-7.6,7.6s3.6,7.6,7.6,7.6h44.9c4,0,7.6-3.6,7.6-7.6S143.9,235,139.8,235z"/>
	<path class="st0" d="M212,204.1h-37.7c-4,0-7.6,3.6-7.6,7.6v30.9c0,4,3.6,7.6,7.6,7.6H212c4,0,7.6-3.6,7.6-7.6v-30.9
		C219.7,207.7,216.1,204.1,212,204.1z M204.4,235H182v-15.7h22.4V235z"/>
	<path class="st0" d="M345.3,204.1h-44.9c-4,0-7.6,3.6-7.6,7.6s3.6,7.6,7.6,7.6h44.9c4,0,7.6-3.6,7.6-7.6S349.3,204.1,345.3,204.1z"
		/>
	<path class="st0" d="M345.3,235h-44.9c-4,0-7.6,3.6-7.6,7.6s3.6,7.6,7.6,7.6h44.9c4,0,7.6-3.6,7.6-7.6S349.3,235,345.3,235z"/>
	<path class="st0" d="M417.5,204.1h-37.7c-4,0-7.6,3.6-7.6,7.6v30.9c0,4,3.6,7.6,7.6,7.6h37.7c4,0,7.6-3.6,7.6-7.6v-30.9
		C425.1,207.7,421.5,204.1,417.5,204.1z M409.4,235H387v-15.7h22.4V235z"/>
	<path class="st0" d="M467.2,132.8L429.1,87c-1.3-1.8-3.6-2.7-5.8-2.7H88.7c-2.2,0-4.5,0.9-5.8,2.7l-38.1,45.7
		c-1.3,1.3-1.8,3.1-1.8,4.9v285.3c0,4,3.6,7.6,7.6,7.6h410.8c4,0,7.6-3.6,7.6-7.6V137.7C469,135.9,468.6,134.5,467.2,132.8z
		 M419.7,99.6l25.6,30.5H391l-17-30.5C374,99.6,419.7,99.6,419.7,99.6z M378.9,145.3v22.4l-17.9-5.4c-1.3-0.4-2.7-0.4-4,0l-17.9,5.4
		v-22.4H378.9z M356.5,99.6l17,30.5h-36.8l-8.5-30.5C328.2,99.6,356.5,99.6,356.5,99.6z M263.6,99.6h48.9l8.5,30.5h-57.4V99.6z
		 M155.5,99.6h27.8l-8.1,30.5h-36.3L155.5,99.6z M173.5,145.3v22.4l-17.9-5.4c-0.9,0-1.3-0.4-2.2-0.4s-1.3,0-2.2,0.4l-17.9,5.4
		v-22.4H173.5z M92.3,99.6H138l-17,30.5H66.7L92.3,99.6z M248.4,415.3H58.2V287.9h59.7v32.7c0,2.2,1.3,4.5,3.1,6.3
		c1.8,1.3,4.5,1.8,6.7,1.3l25.6-7.2l25.6,7.2c0.9,0,1.3,0.4,2.2,0.4c1.8,0,3.1-0.4,4.5-1.3c1.8-1.3,3.1-3.6,3.1-6.3v-32.7h59.7
		L248.4,415.3L248.4,415.3z M133.1,310.8v-22.4H173v22.4l-17.9-5.4c-1.3-0.4-2.7-0.4-4,0L133.1,310.8z M248.4,272.7H58.2V145.3h59.7
		V178c0,2.2,1.3,4.5,3.1,6.3c1.8,1.3,4.5,1.8,6.7,1.3l25.6-7.2l25.6,7.2c0.9,0,1.3,0.4,2.2,0.4c1.8,0,3.1-0.4,4.5-1.3
		c1.8-1.3,3.1-3.6,3.1-6.3v-33.2h59.7L248.4,272.7L248.4,272.7z M248.4,130.1H191l8.5-30.5h48.9V130.1L248.4,130.1z M453.8,415.3
		H263.6V287.9h59.7v32.7c0,2.2,1.3,4.5,3.1,6.3c1.8,1.3,4.5,1.8,6.7,1.3l25.6-7.2l25.6,7.2c0.9,0,1.3,0.4,2.2,0.4
		c1.8,0,3.1-0.4,4.5-1.3c1.8-1.3,3.1-3.6,3.1-6.3v-32.7h59.7L453.8,415.3L453.8,415.3z M338.5,310.8v-22.4h39.9v22.4l-17.9-5.4
		c-1.3-0.4-2.7-0.4-4,0L338.5,310.8z M453.8,272.7H263.6V145.3h59.7V178c0,2.2,1.3,4.5,3.1,6.3c1.8,1.3,4.5,1.8,6.7,1.3l25.6-7.2
		l25.6,7.2c0.9,0,1.3,0.4,2.2,0.4c1.8,0,3.1-0.4,4.5-1.3c1.8-1.3,3.1-3.6,3.1-6.3v-33.2h59.7L453.8,272.7L453.8,272.7z"/>
	<path class="st0" d="M139.8,346.7H94.5c-4,0-7.6,3.6-7.6,7.6s3.6,7.6,7.6,7.6h44.9c4,0,7.6-3.6,7.6-7.6
		C147.5,350.3,143.9,346.7,139.8,346.7z"/>
	<path class="st0" d="M139.8,377.6H94.5c-4,0-7.6,3.6-7.6,7.6s3.6,7.6,7.6,7.6h44.9c4,0,7.6-3.6,7.6-7.6
		C147.5,381.2,143.9,377.6,139.8,377.6z"/>
	<path class="st0" d="M212,346.7h-37.7c-4,0-7.6,3.6-7.6,7.6v30.9c0,4,3.6,7.6,7.6,7.6H212c4,0,7.6-3.6,7.6-7.6v-30.9
		C219.7,350.3,216.1,346.7,212,346.7z M204.4,377.6H182v-15.7h22.4V377.6z"/>
	<path class="st0" d="M345.3,346.7h-44.9c-4,0-7.6,3.6-7.6,7.6s3.6,7.6,7.6,7.6h44.9c4,0,7.6-3.6,7.6-7.6
		C352.9,350.3,349.3,346.7,345.3,346.7z"/>
	<path class="st0" d="M345.3,377.6h-44.9c-4,0-7.6,3.6-7.6,7.6s3.6,7.6,7.6,7.6h44.9c4,0,7.6-3.6,7.6-7.6S349.3,377.6,345.3,377.6z"
		/>
	<path class="st0" d="M417.5,346.7h-37.7c-4,0-7.6,3.6-7.6,7.6v30.9c0,4,3.6,7.6,7.6,7.6h37.7c4,0,7.6-3.6,7.6-7.6v-30.9
		C425.1,350.3,421.5,346.7,417.5,346.7z M409.4,377.6H387v-15.7h22.4V377.6z"/>
</g>
</svg>
