<?xml version="1.0" encoding="utf-8"?>
<!-- Generator: Adobe Illustrator 24.1.0, SVG Export Plug-In . SVG Version: 6.00 Build 0)  -->
<svg version="1.1" id="Layer_1" xmlns="http://www.w3.org/2000/svg" xmlns:xlink="http://www.w3.org/1999/xlink" x="0px" y="0px"
	 viewBox="0 0 512 512" style="enable-background:new 0 0 512 512;" xml:space="preserve">
<style type="text/css">
	.st0{fill:#FFFFFF;stroke:#FFFFFF;stroke-width:5;stroke-miterlimit:10;}
</style>
<g>
	<path class="st0" d="M144.2,279.8c-6.1,3.6-10.2,10.2-10.2,17.9c0,11.5,9.3,20.8,20.8,20.8c9,0,16.7-5.8,19.6-13.9h53.9
		c11.5,0,20.8,9.3,20.8,20.8c0,11.5-9.3,20.8-20.8,20.8h-83.1c-19.1,0-34.7,15.6-34.7,34.7s15.6,34.7,34.7,34.7h69.2
		c3.9,0,6.9-3.1,6.9-6.9s-3.1-6.9-6.9-6.9h-69.2c-11.5,0-20.8-9.3-20.8-20.8s9.3-20.8,20.8-20.8h83.1c19.1,0,34.7-15.6,34.7-34.7
		c0-19.1-15.6-34.7-34.7-34.7h-53.9c-1.6-4.7-4.9-8.5-9-10.9l52.9-86.9c8.3-12.5,12.7-27.1,12.7-42.2c0-42.1-34.2-76.2-76.2-76.2
		s-76.2,34.2-76.2,76.2c0,15.1,4.4,29.7,12.7,42.2L144.2,279.8z M154.8,304.7c-3.9,0-6.9-3.1-6.9-6.9c0-3.9,3.1-6.9,6.9-6.9
		s6.9,3.1,6.9,6.9C161.7,301.6,158.7,304.7,154.8,304.7z M154.8,88.4c34.3,0,62.3,28,62.3,62.3c0,12.4-3.6,24.3-10.5,34.6
		c0,0.1-0.1,0.1-0.1,0.2l-51.7,85c0,0-51.8-85-51.8-85.2c-6.8-10.2-10.5-22.2-10.5-34.6C92.5,116.4,120.5,88.4,154.8,88.4z"/>
	<path class="st0" d="M154.8,185.5c19.1,0,34.7-15.6,34.7-34.7s-15.6-34.7-34.7-34.7s-34.7,15.6-34.7,34.7S135.7,185.5,154.8,185.5z
		 M154.8,130c11.5,0,20.8,9.3,20.8,20.8s-9.3,20.8-20.8,20.8s-20.8-9.3-20.8-20.8S143.4,130,154.8,130z"/>
	<path class="st0" d="M357.2,189.6c-42.1,0-76.2,34.2-76.2,76.2c0,15.1,4.4,29.7,12.7,42.2l52.8,82.7c-4.1,2.5-7.3,6.3-8.9,10.9
		h-60.8c-3.9,0-6.9,3.1-6.9,6.9s3.1,6.9,6.9,6.9h60.8c2.8,8.1,10.6,13.9,19.6,13.9c11.5,0,20.8-9.3,20.8-20.8c0-7.5-4-14.1-10-17.9
		l52.8-82.7c8.3-12.5,12.7-27.2,12.7-42.2C433.4,223.8,399.1,189.6,357.2,189.6L357.2,189.6z M357.2,415.5c-3.9,0-6.9-3.1-6.9-6.9
		s3.1-6.9,6.9-6.9s6.9,3.1,6.9,6.9S360.9,415.5,357.2,415.5z M409,300.5l-51.8,81.4c0,0-51.8-81.3-51.8-81.4
		c-6.8-10.2-10.5-22.2-10.5-34.6c0-34.3,28-62.3,62.3-62.3s62.3,28,62.3,62.3C419.5,278.2,415.9,290.2,409,300.5z"/>
	<path class="st0" d="M357.2,231.2c-19.1,0-34.7,15.6-34.7,34.7s15.6,34.7,34.7,34.7s34.7-15.6,34.7-34.7S376.3,231.2,357.2,231.2z
		 M357.2,286.6c-11.5,0-20.8-9.3-20.8-20.8c0-11.5,9.3-20.8,20.8-20.8c11.5,0,20.8,9.3,20.8,20.8C378,277.3,368.6,286.6,357.2,286.6
		z"/>
	<circle class="st0" cx="245.6" cy="408.6" r="6.9"/>
</g>
</svg>
