<?xml version="1.0" encoding="utf-8"?>
<!-- Generator: Adobe Illustrator 24.1.0, SVG Export Plug-In . SVG Version: 6.00 Build 0)  -->
<svg version="1.1" id="Layer_1" xmlns="http://www.w3.org/2000/svg" xmlns:xlink="http://www.w3.org/1999/xlink" x="0px" y="0px"
	 viewBox="0 0 512 512" style="enable-background:new 0 0 512 512;" xml:space="preserve">
<style type="text/css">
	.st0{fill-rule:evenodd;clip-rule:evenodd;fill:#FFFFFF;stroke:#FFFFFF;stroke-width:2;stroke-miterlimit:10;}
</style>
<g>
	<g>
		<path class="st0" d="M362.7,420.8c-3.1-0.7-6.4,0.5-8.4,2.8c-0.1,0.2-12.2,14.4-26.4,30.8l-39.9-119.7c27.3-2.3,52.5-12,73.6-27.3
			l40.6,121.7L362.7,420.8z M223,454.5c-14.2-16.3-26.3-30.6-26.4-30.8c-1.7-1.9-4.1-3.1-6.6-3.1c-0.6,0-1.1,0.1-1.8,0.2l-39.5,8.4
			l40.5-121.1c4.7,3.3,9.4,6.3,14.4,9c0.2,0.1,0.6,0.3,0.8,0.5c0.8,0.5,1.7,0.9,2.5,1.4c1.1,0.6,2.4,1.3,3.5,1.8
			c0.2,0.1,0.3,0.2,0.6,0.2c1.3,0.6,2.6,1.3,3.9,1.8c0.1,0,0.2,0.1,0.3,0.1c14.8,6.5,30.9,10.7,47.7,12L223,454.5z M275.5,72.6
			c4.8,0,8.6-3.9,8.6-8.8V54c29.5,2.2,56.4,14.1,77.4,32.7l-6.6,6.6c-3.4,3.4-3.4,8.9,0,12.3c1.7,1.7,3.9,2.5,6.1,2.5
			c2.2,0,4.4-0.8,6.1-2.5l6.6-6.6c18.3,21.1,30,48.1,32,77.7h-9.3c-4.8,0-8.6,3.9-8.6,8.8c0,4.8,3.9,8.8,8.6,8.8h9.3
			c-1.8,29.8-13.5,56.8-31.8,78l-6.8-6.8c-3.4-3.4-8.9-3.4-12.3,0c-3.4,3.4-3.4,8.9,0,12.3l6.8,6.9c-9.5,8.5-20.5,15.8-32.3,21.3
			c-14.2,6.6-29.7,10.6-45.5,11.7v-10.3c0-4.8-3.9-8.8-8.6-8.8s-8.6,3.9-8.6,8.8v10.5c-29.8-1.9-56.9-14-78.1-32.6l7.3-7.3
			c3.4-3.4,3.4-8.9,0-12.3c-3.4-3.4-8.9-3.4-12.3,0l-7.3,7.3c-18.5-21.3-30.3-48.5-32.3-78.4h10.1c4.8,0,8.6-3.9,8.6-8.8
			c0-4.8-3.9-8.8-8.6-8.8h-10.1c2-29.9,13.9-57,32.4-78.2l7,7c1.7,1.7,3.9,2.5,6.1,2.5c2.2,0,4.4-0.8,6.1-2.5
			c3.4-3.4,3.4-8.9,0-12.3l-6.9-7C210,67.9,236.9,55.9,266.6,54v9.9C266.8,68.7,270.7,72.6,275.5,72.6L275.5,72.6z M376,295.8
			c29.5-27.4,48.1-66.6,48.1-110c0-82.4-66.7-149.6-148.6-149.6c-0.1,0-0.2,0-0.5,0c-0.1,0-0.2,0-0.5,0
			c-81.9,0-148.6,67-148.6,149.6c0,43.8,18.9,83.3,48.8,110.6l-47.3,141.7c-1,3-0.3,6.3,1.7,8.5c2,2.3,5.2,3.4,8.3,2.7l49.3-10.5
			c6.1,7.2,19.7,23.1,33.2,38.4c1.7,1.8,4,3,6.5,3c0.6,0,1.1-0.1,1.7-0.2c3.1-0.6,5.5-2.8,6.5-5.8l40.9-122.5l40.9,122.5
			c1,3,3.4,5.1,6.5,5.8c0.6,0.1,1.1,0.2,1.7,0.2c2.4,0,4.8-1,6.5-3c13.5-15.3,27.2-31.1,33.2-38.4l49.3,10.5
			c3.1,0.7,6.1-0.3,8.3-2.7c2-2.3,2.7-5.6,1.7-8.5L376,295.8z M275.5,97.9c48.2,0,87.5,39.4,87.5,88s-39.2,88-87.5,88
			s-87.5-39.4-87.5-88S227.3,97.9,275.5,97.9 M170.8,185.8c0,58.1,46.9,105.3,104.8,105.3s104.8-47.3,104.8-105.3
			S333.4,80.5,275.6,80.5S170.8,127.8,170.8,185.8 M226.1,169.5c0.1-0.6,0.6-0.6,0.7-0.6l23.8-3.5c5.9-0.9,11-4.5,13.6-10l10.7-21.7
			c0.1-0.1,0.2-0.5,0.8-0.5s0.7,0.3,0.8,0.5l0,0l10.7,21.7c2.6,5.3,7.7,9.1,13.6,10l23.8,3.5c0.2,0,0.6,0.1,0.7,0.6
			c0.1,0.6-0.1,0.8-0.2,0.9l-17.3,16.9c-4.3,4.2-6.3,10.2-5.2,16.1l4.1,23.9c0,0.2,0.1,0.6-0.3,0.9c-0.5,0.3-0.8,0.1-0.9,0.1
			l-21.3-11.3c-2.6-1.4-5.6-2-8.4-2c-3,0-5.8,0.7-8.4,2L246,228.3c-0.1,0.1-0.5,0.2-0.9-0.1c-0.5-0.3-0.3-0.7-0.3-0.9l4.1-23.9
			c1-5.9-0.9-11.9-5.2-16.1l-17.3-16.9C226.1,170.3,225.9,170,226.1,169.5 M214.2,182.9l17.3,16.9c0.2,0.2,0.3,0.5,0.2,0.8
			l-4.1,23.9c-1.1,6.9,1.6,13.8,7.3,17.8c5.7,4.1,13,4.7,19.1,1.4l21.3-11.3c0.2-0.1,0.6-0.1,0.8,0l21.3,11.3
			c2.7,1.4,5.6,2.2,8.5,2.2c3.8,0,7.5-1.1,10.7-3.5c5.7-4.1,8.4-10.9,7.3-17.8l-4.1-23.9c0-0.2,0-0.6,0.2-0.8l17.3-16.9
			c5-4.9,6.7-12,4.5-18.8s-7.7-11.5-14.7-12.4l-23.8-3.5c-0.2,0-0.6-0.2-0.7-0.5l-10.7-21.7l0,0c-3.1-6.3-9.3-10.2-16.3-10.2
			s-13.2,3.9-16.3,10.2l-10.7,21.7c-0.1,0.2-0.3,0.5-0.7,0.5l-23.8,3.5c-6.9,1-12.5,5.8-14.7,12.4
			C207.5,170.7,209.3,178,214.2,182.9"/>
	</g>
</g>
</svg>
