<?xml version="1.0" encoding="utf-8"?>
<!-- Generator: Adobe Illustrator 24.1.0, SVG Export Plug-In . SVG Version: 6.00 Build 0)  -->
<svg version="1.1" id="Layer_1" xmlns="http://www.w3.org/2000/svg" xmlns:xlink="http://www.w3.org/1999/xlink" x="0px" y="0px"
	 viewBox="0 0 512 512" style="enable-background:new 0 0 512 512;" xml:space="preserve">
<style type="text/css">
	.st0{fill:#FFFFFF;}
</style>
<g>
	<g>
		<path class="st0" d="M222,343.1c27.6,0,50.7-20.1,55.5-46.3h4.5c5.6,0,10.2-4.5,10.2-10.2c0-38.7-31.4-70.2-70.1-70.2
			c-5.6,0-10.2,4.5-10.2,10.2v4.5c-26.3,4.9-46.3,27.9-46.3,55.5C165.5,317.8,190.8,343.1,222,343.1z M232.2,237.8
			c19.3,4,34.5,19.2,38.6,38.6h-2.5h-36.1v-36.1L232.2,237.8L232.2,237.8z M211.8,252.1v34.6c0,5.6,4.5,10.2,10.2,10.2h34.6
			c-4.4,15-18.3,25.9-34.6,25.9c-19.9,0-36.1-16.1-36.1-36.1C185.9,270.2,196.8,256.5,211.8,252.1z"/>
		<path class="st0" d="M315,276h34.6c5.7,0,10.2-4.5,10.2-10.2s-4.5-10.2-10.2-10.2H315c-5.7,0-10.2,4.5-10.2,10.2
			C304.8,271.4,309.3,276,315,276z"/>
		<path class="st0" d="M315,308.9h18.4c5.7,0,10.2-4.5,10.2-10.2c0-5.6-4.5-10.2-10.2-10.2H315c-5.7,0-10.2,4.5-10.2,10.2
			S309.3,308.9,315,308.9z"/>
		<path class="st0" d="M464.5,307c5.6,0,10.2-4.5,10.2-10.2V214c0-5.6-4.5-10.2-10.2-10.2h-37.6c-4.3-14.2-10.2-27.9-17.9-40.7
			c-2.8-4.9-9.1-6.4-14-3.6c-4.9,2.8-6.4,9.1-3.6,14c7.9,13.4,14,27.9,17.8,43c1.1,4.5,5.2,7.7,9.8,7.7h35.2v62.4h-35.2
			c-4.6,0-8.8,3.2-9.8,7.7c-3.8,15.2-9.7,29.5-17.7,43c-2.4,4-1.8,9.1,1.5,12.5l24.9,24.9l-44.3,44.1l-24.9-24.9
			c-3.3-3.3-8.4-3.9-12.5-1.5c-13.3,7.9-27.8,13.9-43,17.7c-4.5,1.2-7.7,5.2-7.7,9.8v35.2h-62.4v-35.2c0-4.6-3.2-8.8-7.7-9.8
			c-15.1-3.8-29.5-9.7-43-17.7c-4-2.4-9.1-1.8-12.5,1.5l-24.9,24.9l-44.1-44.1l24.9-24.9c3.3-3.3,3.9-8.4,1.5-12.5
			c-7.9-13.4-14-27.9-17.8-43c-1.1-4.5-5.2-7.7-9.8-7.7H54.8v-62.4H90c4.6,0,8.8-3.2,9.8-7.7c3.8-15.2,9.7-29.7,17.8-43
			c2.4-4,1.8-9.1-1.5-12.5l-24.9-24.9L135.4,92l24.9,24.9c3.3,3.3,8.4,3.9,12.5,1.5c13.4-7.9,27.8-14,43-17.7
			c4.5-1.2,7.7-5.2,7.7-9.8V55.7h62.4v35.2c0,4.6,3.2,8.8,7.7,9.8c15.2,3.8,29.5,9.7,43,17.7c4.9,2.8,11,1.3,14-3.6
			c2.8-4.9,1.3-11-3.6-14c-12.8-7.6-26.5-13.6-40.7-17.9V45.4c0-5.6-4.5-10.2-10.2-10.2h-82.8c-5.6,0-10.2,4.5-10.2,10.2V83
			c-11.7,3.4-23,8.2-33.7,14l-26.6-26.6c-1.9-1.9-4.5-3-7.2-3c-2.7,0-5.3,1.1-7.2,3L69.6,129c-3.9,4-3.9,10.4,0,14.4L96.2,170
			c-5.8,10.8-10.4,22.1-14,33.8H44.6c-5.6,0-10.2,4.5-10.2,10.2v82.8c0,5.6,4.5,10.2,10.2,10.2h37.6c3.4,11.7,8.2,23,14,33.8
			l-26.6,26.6c-1.9,1.9-3,4.5-3,7.2c0,2.7,1.1,5.3,3,7.2l58.5,58.5c4,4,10.4,4,14.4,0l26.6-26.6c10.8,5.8,22.1,10.4,33.8,14v37.7
			c0,5.6,4.5,10.2,10.2,10.2h82.8c5.6,0,10.2-4.5,10.2-10.2v-37.7c11.7-3.6,23-8.2,33.8-14l26.6,26.6c3.9,4,10.4,4,14.4,0l58.5-58.5
			c4-4,4-10.4,0-14.4l-26.5-26.7c5.8-10.8,10.4-22.1,14-33.8H464.5L464.5,307z"/>
		<path class="st0" d="M314.6,148.8c4.9,2.7,11.2,1.1,13.9-3.9c2.7-4.9,1.1-11.2-3.9-13.9c-21.2-12-45.6-18.4-70.1-18.4
			c-78.7,0-142.7,64.1-142.7,142.7s64,142.7,142.7,142.7c78.7,0,142.7-64.1,142.7-142.7c0-15.1-2.4-29.9-6.9-44
			c-4.4-13.6-10.9-26.7-19.3-38.4c-3.2-4.6-9.6-5.7-14.2-2.4c-4.6,3.2-5.7,9.6-2.4,14.2c7.2,10.2,12.8,21.2,16.6,33
			c3.9,12.1,5.9,24.8,5.9,37.7c0,67.5-54.9,122.3-122.3,122.3c-67.5,0-122.3-54.8-122.3-122.3c0-67.4,54.8-122.3,122.3-122.3
			C275.6,133.2,296.4,138.6,314.6,148.8z"/>
		<path class="st0" d="M264.5,155.2c-1.8-2.4-4.5-3.8-7.5-3.9c-3-0.2-5.8,0.9-7.8,3l-34.4,34.9c-3.9,4-3.9,10.4,0.1,14.4
			c4,3.9,10.4,3.9,14.5-0.1l26.2-26.6L289,220c1.8,2.4,4.6,3.8,7.6,3.9c0.1,0,0.4,0,0.5,0c2.8,0,5.5-1.2,7.5-3.2l111.1-118.9v12.9
			c0,5.6,4.5,10.2,10.2,10.2s10.2-4.5,10.2-10.2V76.1c0-5.6-4.5-10.2-10.2-10.2h-38.7c-5.6,0-10.2,4.5-10.2,10.2s4.5,10.2,10.2,10.2
			h15.3L297.8,198.2L264.5,155.2z"/>
	</g>
</g>
</svg>
