<?xml version="1.0" encoding="utf-8"?>
<!-- Generator: Adobe Illustrator 24.1.0, SVG Export Plug-In . SVG Version: 6.00 Build 0)  -->
<svg version="1.1" id="Layer_1" xmlns="http://www.w3.org/2000/svg" xmlns:xlink="http://www.w3.org/1999/xlink" x="0px" y="0px"
	 viewBox="0 0 512 512" style="enable-background:new 0 0 512 512;" xml:space="preserve">
<style type="text/css">
	.st0{fill:#FFFFFF;}
</style>
<g>
	<path class="st0" d="M191.6,117.7c5.3,0,9.5,4.2,9.5,9.5c0,5.3-4.2,9.5-9.5,9.5h-42c-5.8,0-10.5,4.7-10.5,10.5V194
		c0,5.3-4.2,9.5-9.5,9.5c-5.3,0-9.5-4.2-9.5-9.5v-46.7c0-16.4,13.2-29.5,29.5-29.5H191.6z"/>
	<path class="st0" d="M191.6,394.3c5.3,0,9.5-4.2,9.5-9.5c0-5.3-4.2-9.5-9.5-9.5h-42c-5.8,0-10.5-4.7-10.5-10.5V318
		c0-5.3-4.2-9.5-9.5-9.5c-5.3,0-9.5,4.2-9.5,9.5v46.7c0,16.4,13.2,29.5,29.5,29.5H191.6z"/>
	<path class="st0" d="M320.4,117.7c-5.3,0-9.5,4.2-9.5,9.5c0,5.3,4.2,9.5,9.5,9.5h42c5.8,0,10.5,4.7,10.5,10.5V194
		c0,5.3,4.2,9.5,9.5,9.5c5.3,0,9.5-4.2,9.5-9.5v-46.7c0-16.4-13.2-29.5-29.5-29.5H320.4z"/>
	<path class="st0" d="M320.4,394.3c-5.3,0-9.5-4.2-9.5-9.5c0-5.3,4.2-9.5,9.5-9.5h42c5.8,0,10.5-4.7,10.5-10.5V318
		c0-5.3,4.2-9.5,9.5-9.5c5.3,0,9.5,4.2,9.5,9.5v46.7c0,16.4-13.2,29.5-29.5,29.5H320.4z"/>
	<path class="st0" d="M186.8,226.5h42v-42h-42V226.5z M177.7,165.4h60.1c5.5,0,10,4.5,10,10v60.1c0,5.5-4.5,10-10,10h-60.1
		c-5.5,0-10-4.5-10-10v-60.1C167.7,169.9,172.2,165.4,177.7,165.4z"/>
	<path class="st0" d="M186.8,318h42v-42h-42V318z M177.7,256.9h60.1c5.5,0,10,4.5,10,10v60.1c0,5.5-4.5,10-10,10h-60.1
		c-5.5,0-10-4.5-10-10v-60.1C167.7,261.4,172.2,256.9,177.7,256.9z"/>
	<path class="st0" d="M278.4,226.5h42v-42h-42V226.5z M269.3,165.4h60.1c5.5,0,10,4.5,10,10v60.1c0,5.5-4.5,10-10,10h-60.1
		c-5.5,0-10-4.5-10-10v-60.1C259.3,169.9,263.8,165.4,269.3,165.4z"/>
	<path class="st0" d="M278.4,318h42v-42h-42V318z M269.3,256.9h60.1c5.5,0,10,4.5,10,10v60.1c0,5.5-4.5,10-10,10h-60.1
		c-5.5,0-10-4.5-10-10v-60.1C259.3,261.4,263.8,256.9,269.3,256.9z"/>
</g>
</svg>
