<svg id="evFRlPzo4SH1" xmlns="http://www.w3.org/2000/svg" xmlns:xlink="http://www.w3.org/1999/xlink" viewBox="0 0 383.8 345.8" shape-rendering="geometricPrecision" text-rendering="geometricPrecision"><style><![CDATA[#evFRlPzo4SH3_ts {animation: evFRlPzo4SH3_ts__ts 3000ms linear infinite alternate backwards}@keyframes evFRlPzo4SH3_ts__ts { 0% {transform: translate(39.199993px,169.850029px) scale(1,1.143294)} 33.333333% {transform: translate(39.199993px,169.850029px) scale(1,0.951862)} 66.666667% {transform: translate(39.199993px,169.850029px) scale(1,0.675348)} 100% {transform: translate(39.199993px,169.850029px) scale(1,1)}} #evFRlPzo4SH4_ts {animation: evFRlPzo4SH4_ts__ts 3000ms linear infinite alternate backwards}@keyframes evFRlPzo4SH4_ts__ts { 0% {transform: translate(352.949921px,192.050011px) scale(1,1.292432)} 33.333333% {transform: translate(352.949921px,192.050011px) scale(1,0.860468)} 66.666667% {transform: translate(352.949921px,192.050011px) scale(1,1.312457)} 100% {transform: translate(352.949921px,192.050011px) scale(1,1)}} #evFRlPzo4SH42_to {animation: evFRlPzo4SH42_to__to 3000ms linear infinite alternate backwards}@keyframes evFRlPzo4SH42_to__to { 0% {transform: translate(288.167019px,209.949475px)} 100% {transform: translate(281.9041px,212.189754px)}} #evFRlPzo4SH43_to {animation: evFRlPzo4SH43_to__to 3000ms linear infinite alternate backwards}@keyframes evFRlPzo4SH43_to__to { 0% {transform: translate(240.100131px,244.337613px)} 100% {transform: translate(233.837212px,246.577892px)}}]]></style><defs><linearGradient id="evFRlPzo4SH2-fill" x1="-111.70964" y1="-131.972988" x2="111.70838" y2="131.972183" spreadMethod="pad" gradientUnits="userSpaceOnUse"><stop id="evFRlPzo4SH2-fill-0" offset="0%" stop-color="rgba(229,31,45,0)"/><stop id="evFRlPzo4SH2-fill-1" offset="100%" stop-color="rgb(230,31,45)"/></linearGradient><linearGradient id="evFRlPzo4SH3-fill" x1="39.2" y1="59.1284" x2="39.2" y2="264.2486" spreadMethod="pad" gradientUnits="userSpaceOnUse"><stop id="evFRlPzo4SH3-fill-0" offset="23.72%" stop-color="rgb(230,31,45)"/><stop id="evFRlPzo4SH3-fill-1" offset="100%" stop-color="rgba(230,31,45,0)"/></linearGradient><linearGradient id="evFRlPzo4SH4-fill" x1="352.9497" y1="104.8886" x2="352.9497" y2="266.1038" spreadMethod="pad" gradientUnits="userSpaceOnUse"><stop id="evFRlPzo4SH4-fill-0" offset="23.72%" stop-color="rgb(230,31,45)"/><stop id="evFRlPzo4SH4-fill-1" offset="100%" stop-color="rgba(230,31,45,0)"/></linearGradient><linearGradient id="evFRlPzo4SH7-fill" x1="164.7918" y1="159.5268" x2="146.9528" y2="175.5819" spreadMethod="pad" gradientUnits="userSpaceOnUse"><stop id="evFRlPzo4SH7-fill-0" offset="0%" stop-color="rgb(246,179,181)"/><stop id="evFRlPzo4SH7-fill-1" offset="100%" stop-color="rgb(250,209,211)"/></linearGradient><linearGradient id="evFRlPzo4SH9-fill" x1="143.7416" y1="210.3281" x2="151.1613" y2="222.2525" spreadMethod="pad" gradientUnits="userSpaceOnUse"><stop id="evFRlPzo4SH9-fill-0" offset="0%" stop-color="rgb(246,179,181)"/><stop id="evFRlPzo4SH9-fill-1" offset="100%" stop-color="rgb(250,209,211)"/></linearGradient><linearGradient id="evFRlPzo4SH12-fill" x1="151.5082" y1="134.0556" x2="142.9458" y2="166.9674" spreadMethod="pad" gradientUnits="userSpaceOnUse"><stop id="evFRlPzo4SH12-fill-0" offset="0%" stop-color="rgb(246,179,181)"/><stop id="evFRlPzo4SH12-fill-1" offset="100%" stop-color="rgb(250,209,211)"/></linearGradient><linearGradient id="evFRlPzo4SH16-fill" x1="134.0967" y1="182.3005" x2="157.074" y2="182.3005" spreadMethod="pad" gradientUnits="userSpaceOnUse"><stop id="evFRlPzo4SH16-fill-0" offset="0%" stop-color="rgb(246,179,181)"/><stop id="evFRlPzo4SH16-fill-1" offset="100%" stop-color="rgb(250,209,211)"/></linearGradient><linearGradient id="evFRlPzo4SH17-fill" x1="265.6036" y1="232.3516" x2="265.6036" y2="161.2096" spreadMethod="pad" gradientUnits="userSpaceOnUse"><stop id="evFRlPzo4SH17-fill-0" offset="0%" stop-color="rgb(246,179,181)"/><stop id="evFRlPzo4SH17-fill-1" offset="13.08%" stop-color="rgb(245,168,171)"/><stop id="evFRlPzo4SH17-fill-2" offset="36.17%" stop-color="rgb(242,138,144)"/><stop id="evFRlPzo4SH17-fill-3" offset="66.54%" stop-color="rgb(236,90,99)"/><stop id="evFRlPzo4SH17-fill-4" offset="99.08%" stop-color="rgb(230,31,45)"/></linearGradient><linearGradient id="evFRlPzo4SH18-fill" x1="294.6887" y1="296.9131" x2="295.4494" y2="200.1562" spreadMethod="pad" gradientUnits="userSpaceOnUse"><stop id="evFRlPzo4SH18-fill-0" offset="0%" stop-color="rgb(0,20,98)"/><stop id="evFRlPzo4SH18-fill-1" offset="0%" stop-color="rgb(8,30,113)"/><stop id="evFRlPzo4SH18-fill-2" offset="25.19%" stop-color="rgb(25,53,149)"/><stop id="evFRlPzo4SH18-fill-3" offset="43.71%" stop-color="rgb(39,72,176)"/><stop id="evFRlPzo4SH18-fill-4" offset="62.3%" stop-color="rgb(48,85,196)"/><stop id="evFRlPzo4SH18-fill-5" offset="81.01%" stop-color="rgb(54,92,208)"/><stop id="evFRlPzo4SH18-fill-6" offset="100%" stop-color="rgb(56,95,212)"/></linearGradient><linearGradient id="evFRlPzo4SH21-fill" x1="289.6757" y1="222.9946" x2="290.1873" y2="157.9098" spreadMethod="pad" gradientUnits="userSpaceOnUse"><stop id="evFRlPzo4SH21-fill-0" offset="0%" stop-color="rgb(230,31,45)"/><stop id="evFRlPzo4SH21-fill-1" offset="33.46%" stop-color="rgb(236,90,99)"/><stop id="evFRlPzo4SH21-fill-2" offset="63.83%" stop-color="rgb(242,138,144)"/><stop id="evFRlPzo4SH21-fill-3" offset="86.92%" stop-color="rgb(245,168,171)"/><stop id="evFRlPzo4SH21-fill-4" offset="100%" stop-color="rgb(246,179,181)"/></linearGradient><linearGradient id="evFRlPzo4SH23-fill" x1="285.1433" y1="170.258" x2="268.979" y2="181.6526" spreadMethod="pad" gradientUnits="userSpaceOnUse"><stop id="evFRlPzo4SH23-fill-0" offset="0%" stop-color="rgb(246,179,181)"/><stop id="evFRlPzo4SH23-fill-1" offset="99.14%" stop-color="rgb(250,209,211)"/></linearGradient><linearGradient id="evFRlPzo4SH25-fill" x1="275.4875" y1="143.0095" x2="263.298" y2="157.5839" spreadMethod="pad" gradientUnits="userSpaceOnUse"><stop id="evFRlPzo4SH25-fill-0" offset="0%" stop-color="rgb(246,179,181)"/><stop id="evFRlPzo4SH25-fill-1" offset="99.14%" stop-color="rgb(250,209,211)"/></linearGradient><linearGradient id="evFRlPzo4SH27-fill" x1="174.8499" y1="48.0239" x2="174.8499" y2="413.0014" spreadMethod="pad" gradientUnits="userSpaceOnUse"><stop id="evFRlPzo4SH27-fill-0" offset="0%" stop-color="rgb(230,31,45)"/><stop id="evFRlPzo4SH27-fill-1" offset="33.46%" stop-color="rgb(236,90,99)"/><stop id="evFRlPzo4SH27-fill-2" offset="63.83%" stop-color="rgb(242,138,144)"/><stop id="evFRlPzo4SH27-fill-3" offset="86.92%" stop-color="rgb(245,168,171)"/><stop id="evFRlPzo4SH27-fill-4" offset="100%" stop-color="rgb(246,179,181)"/></linearGradient><linearGradient id="evFRlPzo4SH28-fill" x1="229.5484" y1="105.6533" x2="229.5484" y2="315.5872" spreadMethod="pad" gradientUnits="userSpaceOnUse"><stop id="evFRlPzo4SH28-fill-0" offset="0%" stop-color="rgb(246,179,181)"/><stop id="evFRlPzo4SH28-fill-1" offset="13.08%" stop-color="rgb(245,168,171)"/><stop id="evFRlPzo4SH28-fill-2" offset="36.17%" stop-color="rgb(242,138,144)"/><stop id="evFRlPzo4SH28-fill-3" offset="66.54%" stop-color="rgb(236,90,99)"/><stop id="evFRlPzo4SH28-fill-4" offset="99.08%" stop-color="rgb(230,31,45)"/></linearGradient><linearGradient id="evFRlPzo4SH29-fill" x1="245.0455" y1="188.9119" x2="214.8368" y2="200.8364" spreadMethod="pad" gradientUnits="userSpaceOnUse"><stop id="evFRlPzo4SH29-fill-0" offset="0%" stop-color="rgb(246,179,181)"/><stop id="evFRlPzo4SH29-fill-1" offset="99.14%" stop-color="rgb(250,209,211)"/></linearGradient><linearGradient id="evFRlPzo4SH31-fill" x1="228.2371" y1="149.3719" x2="223.9973" y2="193.8901" spreadMethod="pad" gradientUnits="userSpaceOnUse"><stop id="evFRlPzo4SH31-fill-0" offset="0%" stop-color="rgb(246,179,181)"/><stop id="evFRlPzo4SH31-fill-1" offset="99.14%" stop-color="rgb(250,209,211)"/></linearGradient><linearGradient id="evFRlPzo4SH32-fill" x1="223.9511" y1="235.0452" x2="242.7721" y2="169.172" spreadMethod="pad" gradientUnits="userSpaceOnUse"><stop id="evFRlPzo4SH32-fill-0" offset="0%" stop-color="rgb(140,198,255)"/><stop id="evFRlPzo4SH32-fill-1" offset="100%" stop-color="rgb(246,179,181)"/></linearGradient><linearGradient id="evFRlPzo4SH37-fill" x1="219.6506" y1="261.6546" x2="219.6506" y2="175.4362" spreadMethod="pad" gradientUnits="userSpaceOnUse"><stop id="evFRlPzo4SH37-fill-0" offset="0%" stop-color="rgb(230,31,45)"/><stop id="evFRlPzo4SH37-fill-1" offset="33.46%" stop-color="rgb(236,90,99)"/><stop id="evFRlPzo4SH37-fill-2" offset="63.83%" stop-color="rgb(242,138,144)"/><stop id="evFRlPzo4SH37-fill-3" offset="86.92%" stop-color="rgb(245,168,171)"/><stop id="evFRlPzo4SH37-fill-4" offset="100%" stop-color="rgb(246,179,181)"/></linearGradient><linearGradient id="evFRlPzo4SH38-fill" x1="239.3027" y1="261.6543" x2="239.3027" y2="175.4365" spreadMethod="pad" gradientUnits="userSpaceOnUse"><stop id="evFRlPzo4SH38-fill-0" offset="0%" stop-color="rgb(230,31,45)"/><stop id="evFRlPzo4SH38-fill-1" offset="33.46%" stop-color="rgb(236,90,99)"/><stop id="evFRlPzo4SH38-fill-2" offset="63.83%" stop-color="rgb(242,138,144)"/><stop id="evFRlPzo4SH38-fill-3" offset="86.92%" stop-color="rgb(245,168,171)"/><stop id="evFRlPzo4SH38-fill-4" offset="100%" stop-color="rgb(246,179,181)"/></linearGradient><linearGradient id="evFRlPzo4SH39-fill" x1="271.6451" y1="69.7504" x2="271.6451" y2="406.0021" spreadMethod="pad" gradientUnits="userSpaceOnUse"><stop id="evFRlPzo4SH39-fill-0" offset="0%" stop-color="rgb(230,31,45)"/><stop id="evFRlPzo4SH39-fill-1" offset="33.46%" stop-color="rgb(236,90,99)"/><stop id="evFRlPzo4SH39-fill-2" offset="63.83%" stop-color="rgb(242,138,144)"/><stop id="evFRlPzo4SH39-fill-3" offset="86.92%" stop-color="rgb(245,168,171)"/><stop id="evFRlPzo4SH39-fill-4" offset="100%" stop-color="rgb(246,179,181)"/></linearGradient><linearGradient id="evFRlPzo4SH40-fill" x1="263.1402" y1="69.7505" x2="263.1402" y2="406.0022" spreadMethod="pad" gradientUnits="userSpaceOnUse"><stop id="evFRlPzo4SH40-fill-0" offset="0%" stop-color="rgb(230,31,45)"/><stop id="evFRlPzo4SH40-fill-1" offset="33.46%" stop-color="rgb(236,90,99)"/><stop id="evFRlPzo4SH40-fill-2" offset="63.83%" stop-color="rgb(242,138,144)"/><stop id="evFRlPzo4SH40-fill-3" offset="86.92%" stop-color="rgb(245,168,171)"/><stop id="evFRlPzo4SH40-fill-4" offset="100%" stop-color="rgb(246,179,181)"/></linearGradient><linearGradient id="evFRlPzo4SH41-fill" x1="226.3653" y1="283.2377" x2="226.3653" y2="264.6714" spreadMethod="pad" gradientUnits="userSpaceOnUse"><stop id="evFRlPzo4SH41-fill-0" offset="0%" stop-color="rgb(246,179,181)"/><stop id="evFRlPzo4SH41-fill-1" offset="99.14%" stop-color="rgb(250,209,211)"/></linearGradient><linearGradient id="evFRlPzo4SH42-fill" x1="288.9491" y1="258.865" x2="289.8114" y2="149.1644" spreadMethod="pad" gradientUnits="userSpaceOnUse"><stop id="evFRlPzo4SH42-fill-0" offset="0%" stop-color="rgb(246,179,181)"/><stop id="evFRlPzo4SH42-fill-1" offset="13.08%" stop-color="rgb(245,168,171)"/><stop id="evFRlPzo4SH42-fill-2" offset="36.17%" stop-color="rgb(242,138,144)"/><stop id="evFRlPzo4SH42-fill-3" offset="66.54%" stop-color="rgb(236,90,99)"/><stop id="evFRlPzo4SH42-fill-4" offset="99.08%" stop-color="rgb(230,31,45)"/></linearGradient><linearGradient id="evFRlPzo4SH43-fill" x1="245.8776" y1="255.8427" x2="237.398" y2="231.1987" spreadMethod="pad" gradientUnits="userSpaceOnUse"><stop id="evFRlPzo4SH43-fill-0" offset="0%" stop-color="rgb(246,179,181)"/><stop id="evFRlPzo4SH43-fill-1" offset="99.14%" stop-color="rgb(250,209,211)"/></linearGradient><linearGradient id="evFRlPzo4SH44-fill" x1="147.0868" y1="206.723" x2="114.7969" y2="213.7427" spreadMethod="pad" gradientUnits="userSpaceOnUse"><stop id="evFRlPzo4SH44-fill-0" offset="0%" stop-color="rgb(230,31,45)"/><stop id="evFRlPzo4SH44-fill-1" offset="33.46%" stop-color="rgb(236,90,99)"/><stop id="evFRlPzo4SH44-fill-2" offset="63.83%" stop-color="rgb(242,138,144)"/><stop id="evFRlPzo4SH44-fill-3" offset="86.92%" stop-color="rgb(245,168,171)"/><stop id="evFRlPzo4SH44-fill-4" offset="100%" stop-color="rgb(246,179,181)"/></linearGradient><linearGradient id="evFRlPzo4SH45-fill" x1="142.7766" y1="186.8963" x2="110.4868" y2="193.9159" spreadMethod="pad" gradientUnits="userSpaceOnUse"><stop id="evFRlPzo4SH45-fill-0" offset="0%" stop-color="rgb(230,31,45)"/><stop id="evFRlPzo4SH45-fill-1" offset="33.46%" stop-color="rgb(236,90,99)"/><stop id="evFRlPzo4SH45-fill-2" offset="63.83%" stop-color="rgb(242,138,144)"/><stop id="evFRlPzo4SH45-fill-3" offset="86.92%" stop-color="rgb(245,168,171)"/><stop id="evFRlPzo4SH45-fill-4" offset="100%" stop-color="rgb(246,179,181)"/></linearGradient><linearGradient id="evFRlPzo4SH47-fill" x1="38.531" y1="247.2104" x2="210.5117" y2="280.2248" spreadMethod="pad" gradientUnits="userSpaceOnUse"><stop id="evFRlPzo4SH47-fill-0" offset="10.48%" stop-color="rgb(0,20,98)"/><stop id="evFRlPzo4SH47-fill-1" offset="29.74%" stop-color="rgb(20,46,138)"/><stop id="evFRlPzo4SH47-fill-2" offset="49%" stop-color="rgb(35,67,170)"/><stop id="evFRlPzo4SH47-fill-3" offset="67.52%" stop-color="rgb(47,83,193)"/><stop id="evFRlPzo4SH47-fill-4" offset="84.91%" stop-color="rgb(54,92,207)"/><stop id="evFRlPzo4SH47-fill-5" offset="100%" stop-color="rgb(56,95,212)"/></linearGradient><linearGradient id="evFRlPzo4SH49-fill" x1="157.001" y1="102.1062" x2="63.0138" y2="224.7623" spreadMethod="pad" gradientUnits="userSpaceOnUse"><stop id="evFRlPzo4SH49-fill-0" offset="0%" stop-color="rgb(246,179,181)"/><stop id="evFRlPzo4SH49-fill-1" offset="13.08%" stop-color="rgb(245,168,171)"/><stop id="evFRlPzo4SH49-fill-2" offset="36.17%" stop-color="rgb(242,138,144)"/><stop id="evFRlPzo4SH49-fill-3" offset="66.54%" stop-color="rgb(236,90,99)"/><stop id="evFRlPzo4SH49-fill-4" offset="99.08%" stop-color="rgb(230,31,45)"/></linearGradient><linearGradient id="evFRlPzo4SH50-fill" x1="96.0739" y1="132.586" x2="99.5523" y2="160.8153" spreadMethod="pad" gradientUnits="userSpaceOnUse"><stop id="evFRlPzo4SH50-fill-0" offset="0%" stop-color="rgb(246,179,181)"/><stop id="evFRlPzo4SH50-fill-1" offset="100%" stop-color="rgb(250,209,211)"/></linearGradient><linearGradient id="evFRlPzo4SH52-fill" x1="124.4266" y1="116.9111" x2="98.338" y2="146.4781" spreadMethod="pad" gradientUnits="userSpaceOnUse"><stop id="evFRlPzo4SH52-fill-0" offset="0%" stop-color="rgb(246,179,181)"/><stop id="evFRlPzo4SH52-fill-1" offset="100%" stop-color="rgb(250,209,211)"/></linearGradient><linearGradient id="evFRlPzo4SH54-fill" x1="113.6076" y1="10.6382" x2="40.7528" y2="245.5569" spreadMethod="pad" gradientUnits="userSpaceOnUse"><stop id="evFRlPzo4SH54-fill-0" offset="0%" stop-color="rgb(230,31,45)"/><stop id="evFRlPzo4SH54-fill-1" offset="33.46%" stop-color="rgb(236,90,99)"/><stop id="evFRlPzo4SH54-fill-2" offset="63.83%" stop-color="rgb(242,138,144)"/><stop id="evFRlPzo4SH54-fill-3" offset="86.92%" stop-color="rgb(245,168,171)"/><stop id="evFRlPzo4SH54-fill-4" offset="100%" stop-color="rgb(246,179,181)"/></linearGradient><linearGradient id="evFRlPzo4SH56-fill" x1="87.0126" y1="215.9304" x2="87.0126" y2="198.1584" spreadMethod="pad" gradientUnits="userSpaceOnUse"><stop id="evFRlPzo4SH56-fill-0" offset="0%" stop-color="rgb(246,179,181)"/><stop id="evFRlPzo4SH56-fill-1" offset="100%" stop-color="rgb(250,209,211)"/></linearGradient><linearGradient id="evFRlPzo4SH60-fill" x1="220.3491" y1="279.6352" x2="226.6262" y2="261.1575" spreadMethod="pad" gradientUnits="userSpaceOnUse"><stop id="evFRlPzo4SH60-fill-0" offset="0%" stop-color="rgb(96,0,7)"/><stop id="evFRlPzo4SH60-fill-1" offset="0%" stop-color="rgb(104,2,9)"/><stop id="evFRlPzo4SH60-fill-2" offset="16.86%" stop-color="rgb(143,11,20)"/><stop id="evFRlPzo4SH60-fill-3" offset="31.54%" stop-color="rgb(174,18,29)"/><stop id="evFRlPzo4SH60-fill-4" offset="46.72%" stop-color="rgb(199,24,36)"/><stop id="evFRlPzo4SH60-fill-5" offset="62.62%" stop-color="rgb(216,28,41)"/><stop id="evFRlPzo4SH60-fill-6" offset="79.68%" stop-color="rgb(227,30,44)"/><stop id="evFRlPzo4SH60-fill-7" offset="100%" stop-color="rgb(230,31,45)"/></linearGradient><linearGradient id="evFRlPzo4SH61-fill" x1="171.086" y1="278.0358" x2="163.4481" y2="184.4735" spreadMethod="pad" gradientUnits="userSpaceOnUse"><stop id="evFRlPzo4SH61-fill-0" offset="0%" stop-color="rgb(96,0,7)"/><stop id="evFRlPzo4SH61-fill-1" offset="0%" stop-color="rgb(104,2,9)"/><stop id="evFRlPzo4SH61-fill-2" offset="16.86%" stop-color="rgb(143,11,20)"/><stop id="evFRlPzo4SH61-fill-3" offset="31.54%" stop-color="rgb(174,18,29)"/><stop id="evFRlPzo4SH61-fill-4" offset="46.72%" stop-color="rgb(199,24,36)"/><stop id="evFRlPzo4SH61-fill-5" offset="62.62%" stop-color="rgb(216,28,41)"/><stop id="evFRlPzo4SH61-fill-6" offset="79.68%" stop-color="rgb(227,30,44)"/><stop id="evFRlPzo4SH61-fill-7" offset="100%" stop-color="rgb(230,31,45)"/></linearGradient><linearGradient id="evFRlPzo4SH70-fill" x1="379.0847" y1="263" x2="303.5634" y2="263" spreadMethod="pad" gradientUnits="userSpaceOnUse"><stop id="evFRlPzo4SH70-fill-0" offset="0%" stop-color="rgb(96,0,7)"/><stop id="evFRlPzo4SH70-fill-1" offset="0%" stop-color="rgb(104,2,9)"/><stop id="evFRlPzo4SH70-fill-2" offset="16.86%" stop-color="rgb(143,11,20)"/><stop id="evFRlPzo4SH70-fill-3" offset="31.54%" stop-color="rgb(174,18,29)"/><stop id="evFRlPzo4SH70-fill-4" offset="46.72%" stop-color="rgb(199,24,36)"/><stop id="evFRlPzo4SH70-fill-5" offset="62.62%" stop-color="rgb(216,28,41)"/><stop id="evFRlPzo4SH70-fill-6" offset="79.68%" stop-color="rgb(227,30,44)"/><stop id="evFRlPzo4SH70-fill-7" offset="100%" stop-color="rgb(230,31,45)"/></linearGradient></defs><circle id="evFRlPzo4SH2" r="172.9" transform="matrix(1 0 0 1 189.2 172.9)" opacity="0.29" fill="url(#evFRlPzo4SH2-fill)" stroke="none" stroke-width="1"/><g id="evFRlPzo4SH3_ts" transform="translate(39.199993,169.850029) scale(1,1.143294)"><path id="evFRlPzo4SH3" d="M77.8,146.8L77.4,147L76.6,147.4C76.1,147.7,75.6,147.9,75.1,148.2C74.2,148.7,73.2,149.3,72.3,149.8C70.5,150.9,68.8,152.1,67.2,153.4C64,155.9,61,158.7,58.3,161.7C55.6,164.7,53.2,167.9,51,171.3C48.8,174.7,47,178.2,45.3,181.8C43.6,185.4,42.3,189.1,41.1,192.8C40.6,194.7,40,196.5,39.6,198.4L38.9,201.2L38.4,204C37.5,208.7,37,213.4,36.7,218.1L36.7,200.3C37.3,196.7,38.5,192.3,40.2,187.3C42.7,179.7,46.5,170.9,50.7,161.4C54.1,153.6,57,146.8,59.7,141.2C62.4,135.6,65.1,131.5,67.3,129.4C65.1,131.6,61.1,134.4,56.6,139.1C52.2,143.8,47.4,150.2,43.8,158.4C39.7,167.8,37.6,177,36.7,184.9L36.7,146.4C37.3,144.2,38.5,141.5,40.2,138.7C42.7,134.3,46.2,129.5,49.8,124C52.7,119.5,54.7,115.1,56.4,111.4C58,107.7,59.3,104.8,60.4,103.2C59.3,104.8,56.6,106.5,53.4,109.1C50.2,111.7,46.5,115.1,43.5,120C39.8,125.8,37.7,132,36.8,137.2L36.8,122.6C37.8,115.8,40,105.6,40,93.7C40,81,36.2,71.5,36.2,67.1C36.2,71.6,32.4,81.1,32.4,93.7C32.4,105.5,34.6,115.8,35.6,122.6L35.6,138.6C34.6,130,32.4,119.9,27.9,109.5C24,100.6,19,93.6,14.3,88.4C9.7,83.2,5.5,79.9,2.9,77.7C5.4,79.9,8.2,84.5,11.1,90.5C14,96.5,17.2,104,20.9,112.5C25.4,122.9,29.3,132.5,32,140.8C33.8,146.2,34.9,151.1,35.5,155L35.5,179.8C35.2,176.7,34.7,173.7,34.2,170.7C33,163.9,31.3,157.3,29.2,150.9C27.1,144.4,24.7,138.1,21.8,131.9C20.4,128.8,18.8,125.7,17.2,122.7C15.5,119.7,13.7,116.7,11.4,113.5C14.1,117.1,14.5,120.9,14.1,124.6C13.9,126.4,13.5,128.2,13,129.9C12.5,131.6,11.8,133.2,11.2,134.7C10.3,136.9,10.4,138.5,11.2,139.9C11.9,141.3,13.1,142.4,14.4,143.5C16.9,145.7,19.6,147.7,17.7,150.7C15.9,153.7,13.7,156.5,13.9,159.7C14,161.3,14.6,163.1,16.1,165.1C17.6,167.2,20,169.5,23.5,172.5C25.7,174.4,27.5,176.5,29.2,178.6C30.8,180.7,32.1,182.8,33.2,184.7C34.2,186.6,34.9,188.2,35.4,189.4C35.4,189.5,35.4,189.5,35.5,189.5L35.5,217.8C35.4,217.2,32.3,199.3,21.7,189.4C11.7,180.1,2.4,177.2,0,175.8C2.5,177.2,16.5,194.5,21.1,200.5C28.2,209.7,35.6,221.2,35.6,234L35.6,234L35.6,272.6L36.7,272.6L36.7,223.8C36.9,222.7,37.2,221.6,37.6,220.5C38.4,218.6,39.3,216.9,40.5,215.3C41.7,213.7,43.1,212.4,44.5,211.1C45.9,209.9,47.4,208.8,48.8,207.8C50.8,206.4,51.7,204.8,51.9,203.1C52.2,201.4,51.8,199.6,51.6,197.9C51.4,197,51.3,196.1,51.2,195.3C51.1,194.5,51.1,193.6,51.2,192.9C51.4,191.4,52.1,190.2,53.8,189.5C57.2,188.2,60.7,187.5,62.9,185C63.5,184.4,64,183.6,64.3,182.7C64.7,181.8,65,180.7,65.3,179.4C65.8,176.8,66.1,173.4,66.5,168.5C67,162.5,69.6,156.6,72.4,152.6C75.1,148.6,78,146.3,78.4,146.1L77.8,146.8Z" transform="translate(-39.199993,-169.850029)" fill="url(#evFRlPzo4SH3-fill)" stroke="none" stroke-width="1"/></g><g id="evFRlPzo4SH4_ts" transform="translate(352.949921,192.050011) scale(1,1.292432)"><path id="evFRlPzo4SH4" d="M322.4,173.8L322.7,174L323.3,174.3C323.7,174.5,324.1,174.7,324.5,174.9C325.2,175.3,326,175.7,326.7,176.2C328.1,177.1,329.4,178,330.7,179C333.2,181,335.6,183.2,337.7,185.5C339.8,187.9,341.7,190.4,343.4,193C345.1,195.6,346.6,198.4,347.9,201.2C349.2,204,350.2,206.9,351.2,209.9C351.6,211.4,352.1,212.8,352.4,214.3L352.9,216.5L353.3,218.7C354,222.4,354.4,226.1,354.7,229.8L354.7,215.8C354.2,213,353.3,209.5,352,205.6C350,199.6,347.1,192.7,343.8,185.2C341.1,179.1,338.8,173.7,336.7,169.3C334.6,164.9,332.5,161.7,330.7,160C332.4,161.7,335.6,163.9,339.1,167.6C342.5,171.3,346.3,176.3,349.2,182.8C352.4,190.2,354.1,197.4,354.8,203.6L354.8,173.6C354.3,171.9,353.4,169.8,352.1,167.6C350.1,164.2,347.4,160.4,344.6,156C342.3,152.4,340.7,149,339.4,146.1C338.1,143.2,337.1,140.9,336.2,139.6C337.1,140.9,339.2,142.2,341.7,144.3C344.2,146.3,347.1,149,349.5,152.8C352.4,157.4,354.1,162.2,354.8,166.3L354.8,154.7C354,149.4,352.3,141.3,352.3,132C352.3,122,355.2,114.6,355.2,111.1C355.2,114.6,358.1,122.1,358.1,132C358.1,141.3,356.4,149.4,355.6,154.7L355.6,167.3C356.4,160.5,358.1,152.6,361.7,144.4C364.8,137.4,368.7,131.9,372.4,127.8C376,123.7,379.4,121.1,381.3,119.4C379.3,121.1,377.1,124.7,374.8,129.5C372.5,134.2,370,140.1,367.1,146.8C363.6,155,360.5,162.5,358.4,169.1C357,173.4,356.1,177.2,355.6,180.3L355.6,199.8C355.9,197.4,356.2,195,356.6,192.6C357.5,187.3,358.9,182.1,360.5,177C362.1,171.9,364.1,167,366.3,162.1C367.4,159.7,368.6,157.3,369.9,154.9C371.3,152.5,372.6,150.2,374.5,147.7C372.4,150.6,372.1,153.5,372.4,156.4C372.6,157.8,372.9,159.2,373.3,160.6C373.7,161.9,374.2,163.2,374.7,164.4C375.4,166.1,375.3,167.4,374.7,168.5C374.2,169.6,373.2,170.5,372.2,171.3C370.2,173,368.1,174.6,369.6,177C371,179.3,372.7,181.6,372.6,184.1C372.5,185.4,372.1,186.8,370.9,188.4C369.8,190,367.8,191.9,365.1,194.2C363.3,195.7,361.9,197.3,360.6,199C359.3,200.6,358.3,202.3,357.5,203.8C356.7,205.3,356.2,206.6,355.8,207.5L355.8,207.6L355.8,229.9C355.9,229.4,358.3,215.4,366.7,207.6C374.5,200.3,381.8,198,383.8,196.9C381.9,198,370.8,211.6,367.2,216.3C361.6,223.5,355.8,232.6,355.8,242.6L355.8,242.6L355.8,273L355,273L355,234.6C354.8,233.7,354.6,232.8,354.3,232C353.7,230.5,352.9,229.2,352,227.9C351,226.7,350,225.6,348.9,224.6C347.8,223.6,346.6,222.8,345.5,222C343.9,220.9,343.3,219.7,343.1,218.3C342.9,217,343.2,215.6,343.4,214.2C343.5,213.5,343.6,212.8,343.7,212.1C343.8,211.4,343.8,210.8,343.7,210.2C343.6,209,343,208.1,341.6,207.6C338.9,206.6,336.2,206,334.4,204C333.9,203.5,333.6,202.9,333.3,202.2C333,201.5,332.7,200.6,332.5,199.6C332.1,197.6,331.9,194.9,331.5,191.1C331.1,186.3,329.1,181.8,326.9,178.6C324.7,175.4,322.5,173.7,322.1,173.5L322.4,173.8Z" transform="translate(-352.949921,-192.050011)" fill="url(#evFRlPzo4SH4-fill)" stroke="none" stroke-width="1"/></g><path id="evFRlPzo4SH5" d="M133.2,260.1C134.8,267,137.3,274.8,139.8,282.1L181.3,282.1C182.2,279.1,183.2,275.8,184,272.4C189.1,252.5,183.7,235.4,178.9,227.6C174.1,219.8,169.9,210.6,177.3,199.2C184.7,187.8,185.4,179,185.4,179C184.3,174.7,181,173.2,172.3,169.1C172.3,169.1,171.8,168.9,171,168.7C169.2,176.2,165.3,182.2,158.4,183.4C149.4,185,141.3,179.5,137.2,169.9C133.2,171.1,128.8,172.3,126.7,173.5C126.7,173.5,137.7,197.4,139.8,210.9C141.8,224.3,128.2,238.9,133.2,260.1Z" fill="rgb(127,66,63)" stroke="none" stroke-width="1"/><g id="evFRlPzo4SH6"><path id="evFRlPzo4SH7" d="M158.3,183.3C165.2,182.1,169.1,176.1,170.9,168.6C168,167.6,161.2,165.3,159.3,164.3C156.9,163.1,157.6,153.3,157.6,153.3L144.8,156.9C144.8,161.3,144.8,164.7,144.8,166.4C144.8,167.3,141.2,168.4,137,169.7C141.2,179.4,149.3,184.9,158.3,183.3Z" fill="url(#evFRlPzo4SH7-fill)" stroke="none" stroke-width="1"/><path id="evFRlPzo4SH8" d="M157.6,153.5L144.8,157.1C144.8,160.5,144.8,163.3,144.8,165.2C150.2,168.1,156.2,173.5,158.3,183.4C165.2,182.2,169,176.2,170.9,168.7C168,167.7,161.2,165.4,159.3,164.4C156.9,163.3,157.6,153.5,157.6,153.5Z" fill="rgb(203,158,174)" stroke="none" stroke-width="1"/></g><path id="evFRlPzo4SH9" d="M165.5,212.8C159.8,214.5,154.4,216.5,151.6,216.5C146,216.5,137.6,208.6,133.7,213.4C129.8,218.2,129.2,221.4,132.3,223.6C135.4,225.7,145.2,222.8,149.9,223.7C152,224.1,159.1,224.5,166.7,224.4C167.3,221.4,167.2,215.8,165.5,212.8Z" fill="url(#evFRlPzo4SH9-fill)" stroke="none" stroke-width="1"/><path id="evFRlPzo4SH10" d="M185.6,179C184.3,173.7,173.4,183.4,176.1,192.3C178.4,199.9,177.6,210.1,177.6,210.1L188.3,220.9C191.8,216.5,186.7,183.3,185.6,179Z" fill="rgb(91,51,51)" stroke="none" stroke-width="1"/><path id="evFRlPzo4SH11" d="M181.1,210.2C177,209.6,171.1,211.1,165.5,212.9C167.2,215.9,167.3,221.5,166.7,224.5C176.1,224.4,186.2,223.5,188.2,221C188.2,220.9,193,211.9,181.1,210.2Z" fill="rgb(91,51,51)" stroke="none" stroke-width="1"/><path id="evFRlPzo4SH12" d="M141.9,138.7C139.7,143.1,139.9,157.9,146.1,159.2C151.5,160.4,154.6,155.1,154.6,155.1L154.6,145.3C154.6,145.3,151.5,143.7,151.1,139.9C150.8,136.9,149,136.6,149,136.6C149,136.6,145.3,138.9,141.9,138.7Z" fill="url(#evFRlPzo4SH12-fill)" stroke="none" stroke-width="1"/><path id="evFRlPzo4SH13" d="M132.2,210.8C129.4,205.1,127.5,198,125.9,194C122.8,186.4,122.3,175.8,126.6,173.4C134.5,169.3,137.9,183.3,138.4,187.3C138.9,191.3,140,200.8,143,204.2L132.2,210.8Z" fill="rgb(91,51,51)" stroke="none" stroke-width="1"/><path id="evFRlPzo4SH14" d="M167.3,161.8C161.9,158.4,167.9,139.9,158.9,132.8C151.5,126.9,139.7,131.3,139.7,142.4C139.7,146.9,139.7,162.2,139.7,168.9C142.6,168,144.8,167.1,144.8,166.4L144.8,158.8L144.8,158.6C139.9,155.5,139.8,142.7,141.9,138.6C145.3,138.7,149,136.5,149,136.5C149,136.5,150.8,136.8,151.1,139.8C151.5,143.6,154.6,145.2,154.6,145.2L154.6,155C154.6,164.2,156.8,174.3,162.1,174.9C167.4,175.5,168.3,168.5,172.3,169C172.2,169.1,172.7,165.2,167.3,161.8Z" fill="rgb(45,45,45)" stroke="none" stroke-width="1"/><path id="evFRlPzo4SH15" d="M139.9,197.4C137,201.4,132.4,204.9,132.2,210.8C134.7,215.8,137.9,219.7,142.4,219.2C149,218.5,151.3,210.7,152.1,203.6C147.7,203.9,142.1,200.4,139.9,197.4Z" fill="rgb(91,51,51)" stroke="none" stroke-width="1"/><path id="evFRlPzo4SH16" d="M149.9,161.2C148.6,161.8,144.2,165.7,144.2,166.6C144.2,167.6,146.2,174.9,146.2,177.1C146.2,179.3,144.2,189.1,141.5,194.8C141.1,195.7,140.6,196.5,140,197.3C142.2,200.3,147.8,203.8,152.2,203.4C152.5,200.2,152.6,197.2,152.6,195C152.6,195,153.1,178.7,153.8,177.6C154.5,176.5,154.5,174.8,154.5,173.3C154.5,170.5,154.5,170.3,154.5,170.3C154.5,170.3,155.5,170.2,155.6,168.5C155.6,168.4,155.6,168.4,155.6,168.3C155.4,166.5,151.1,160.7,149.9,161.2Z" fill="url(#evFRlPzo4SH16-fill)" stroke="none" stroke-width="1"/><path id="evFRlPzo4SH17" d="M257.9,168.4C257.9,184.2,257.9,215.9,257.9,215.9C257.9,215.9,273.7,216.4,273.3,215.9C272.8,215.4,273.3,193.8,273.3,193.8L257.9,168.4Z" fill="url(#evFRlPzo4SH17-fill)" stroke="none" stroke-width="1"/><path id="evFRlPzo4SH18" d="M289.2,221C290.5,229.9,289.7,240,289.2,243.8C288.7,247.6,277.4,281.8,277.4,281.8L304.9,281.8L312.5,245.6L302.5,217.9L289.2,221Z" fill="url(#evFRlPzo4SH18-fill)" stroke="none" stroke-width="1"/><path id="evFRlPzo4SH19" d="M289.2,221C290.5,229.9,289.7,240,289.2,243.8C288.7,247.6,275.2,282.1,275.2,282.1L304.9,282.1L312.5,245.6L302.5,217.9L289.2,221Z" fill="rgb(109,109,109)" stroke="none" stroke-width="1"/><path id="evFRlPzo4SH20" d="M321.6,211.6C325.6,224.3,343.8,228.4,338.8,248.9C335.2,263.7,327.8,282.2,327.8,282.2L293.5,282.2C293.5,282.2,304.3,250,304.3,245.7C304.3,241.4,297.5,219.5,297.5,219.5L321.6,211.6Z" fill="rgb(147,147,147)" stroke="none" stroke-width="1"/><path id="evFRlPzo4SH21" d="M263.5,157.7C259.5,159.6,255.8,168.2,259.5,176.3C263.2,184.4,263.7,182.9,265.1,189.3C266.5,195.6,266,199.1,277.5,207C289.1,214.9,288.7,217,289.3,221C289.9,225,322.4,224.2,321.9,209.1C321.4,194,322.2,176.6,312.5,168.4C302.7,160.1,263.5,157.7,263.5,157.7Z" fill="url(#evFRlPzo4SH21-fill)" stroke="none" stroke-width="1"/><path id="evFRlPzo4SH22" d="M259.4,139L259.4,184.3C259.4,184.3,275.8,175.5,275.7,166.9C275.6,158.3,268.3,139.1,268.3,139.1L259.4,139L259.4,139Z" fill="rgb(45,45,45)" stroke="none" stroke-width="1"/><path id="evFRlPzo4SH23" d="M271,166.2C271,166.2,273.2,169.7,273.9,171.3C274.6,172.8,271.3,179.6,272.4,185.3C273.5,191.1,280.6,190.1,282.2,185.3C282.7,183.9,284,173.6,284,173.6L284,156.7L271,166.2Z" fill="url(#evFRlPzo4SH23-fill)" stroke="none" stroke-width="1"/><path id="evFRlPzo4SH24" d="M273.9,171.2C278.5,166,283.3,187.9,275.7,189C275.7,189,275.7,189,275.8,189L276.9,189.1C279.1,189.1,281.5,187.6,282.3,185.1C282.8,183.7,284.1,173.4,284.1,173.4L284.1,156.5L271.1,166C271,166.2,273.1,169.7,273.9,171.2Z" fill="rgb(203,158,174)" stroke="none" stroke-width="1"/><path id="evFRlPzo4SH25" d="M261.3,137.7C259.1,151.6,261.5,164.5,268.2,166C274.9,167.5,284.5,160.2,284.5,153.7C284.5,147.2,291,130.3,283.6,126.5C276.3,122.6,262.8,128.9,261.3,137.7Z" fill="url(#evFRlPzo4SH25-fill)" stroke="none" stroke-width="1"/><path id="evFRlPzo4SH26" d="M267,136.5C267,136.5,263.5,139.4,260.9,141C258.3,142.5,259,133.7,263.9,129.6C268.9,125.5,275.4,121.9,278.1,124.3C278.1,124.3,286.4,122,291.4,130.5C296.4,139,296.8,146.6,298.4,148.7C300,150.8,302.6,152.1,301.4,156.1C301.4,156.1,310.2,154.3,311.6,160.4C312.9,166.5,312.5,168.5,312.5,168.5C312.5,168.5,309.8,166.4,304.1,164.4C304.1,164.4,300.3,167.4,296.7,167.4C293.1,167.4,288.5,182,282.2,182L282.1,147.2C282.1,147.1,267.7,145.2,267,136.5Z" fill="rgb(45,45,45)" stroke="none" stroke-width="1"/><path id="evFRlPzo4SH27" d="M186.4,210.4C169.7,227.8,155.4,280.8,155.4,280.8L179.3,280.8L194.3,245.6L186.4,210.4Z" fill="url(#evFRlPzo4SH27-fill)" stroke="none" stroke-width="1"/><path id="evFRlPzo4SH28" d="M273.3,213.3C269.8,209.3,251.2,196.3,227.5,197.7C206.6,199,189.7,205.4,186.4,210.4C184,214.1,189.3,238.9,192.9,248.7C196.6,258.6,198.2,269.1,198.2,278.1C198.2,278.1,257.3,277.8,257.6,278.1C257.9,278.4,264.9,256.3,265.9,245.3C266.9,234.3,264.8,222.2,273.3,213.3Z" fill="url(#evFRlPzo4SH28-fill)" stroke="none" stroke-width="1"/><path id="evFRlPzo4SH29" d="M241.3,177.2C241.3,177.2,241.6,195.6,241.3,201.1C241,206.6,232.5,211.5,229.4,211.7C226.2,211.8,219.3,207.2,218.2,199.4L218.2,182.6L241.3,177.2Z" fill="url(#evFRlPzo4SH29-fill)" stroke="none" stroke-width="1"/><path id="evFRlPzo4SH30" d="M241.4,187.1C241.4,181.8,241.3,177.1,241.3,177.1L218.1,182.6L218.1,196.2C220,204.7,232.9,202.4,235.9,194.3C237.7,189.7,239.2,188.4,241.4,187.1Z" fill="rgb(203,158,174)" stroke="none" stroke-width="1"/><path id="evFRlPzo4SH31" d="M212,170C212.9,183.5,218.4,196.5,227,195.1C237.8,193.4,241.1,177,240.6,168.1C240.2,159.2,235.1,153.6,227.4,153.6C220.1,153.7,211.2,158.6,212,170Z" fill="url(#evFRlPzo4SH31-fill)" stroke="none" stroke-width="1"/><path id="evFRlPzo4SH32" d="M243.2,174.5C242.6,177.2,241.3,179.2,240.3,179C239.3,178.8,238.9,176.5,239.5,173.8C240.1,171.1,241.4,169.1,242.4,169.3C243.4,169.5,243.7,171.8,243.2,174.5Z" fill="url(#evFRlPzo4SH32-fill)" stroke="none" stroke-width="1"/><path id="evFRlPzo4SH33" d="M212.1,172.1C210.5,169.6,210.3,168.6,210.5,164.4C210.6,160.2,214.1,160.1,214.1,158.3C214,156.5,216.3,151.7,225.6,151.3C234.9,150.9,234.3,155.2,237.2,155.5C240.1,155.8,244.5,158.7,242.4,169.3C242.4,169.3,239.9,169.5,238.9,174.6C238.8,175,238.3,175.1,238.1,174.8C237.8,174.4,237.5,173.7,237.2,172.8C236.5,170.2,233.7,174.1,233.2,169C232.8,165.4,224,172,217.4,166.1C217.4,166.1,216.4,167.4,213.6,167.3C212,167.4,212.1,172.1,212.1,172.1Z" fill="rgb(45,45,45)" stroke="none" stroke-width="1"/><g id="evFRlPzo4SH34"><path id="evFRlPzo4SH35" d="M218.1,220.8C218.1,220.8,218.9,221.8,220.3,219.6C221.7,217.4,226.6,210.8,228.3,211.4L228.3,211.4C224.9,210.7,219.1,206.2,218.1,199.2L218.1,198.6C215.4,199,212.7,199.4,210.3,200C209.6,203.9,212.5,216.5,218.1,220.8Z" fill="rgb(96,0,7)" stroke="none" stroke-width="1"/><path id="evFRlPzo4SH36" d="M241.3,201C241,205.8,234.6,210.1,230.8,211.3L230.8,211.3C232.6,210.6,239.1,219.2,240.2,221.1C241.3,223,243.4,220.4,245.5,215.2C247,211.4,249.3,204.8,248.3,200.1C246.1,199.5,243.8,199,241.3,198.5C241.4,199.5,241.3,200.3,241.3,201Z" fill="rgb(96,0,7)" stroke="none" stroke-width="1"/></g><path id="evFRlPzo4SH37" d="M218.1,199.2L218.1,195.2C214.6,196.7,211.4,198,211.1,200C210.4,203.9,213.5,215.2,218.1,219.2C218.1,219.2,218.9,220.2,220.3,218C221.7,215.8,226.6,210.8,228.3,211.5L228.3,211.5C224.9,210.7,219.1,206.3,218.1,199.2Z" fill="url(#evFRlPzo4SH37-fill)" stroke="none" stroke-width="1"/><path id="evFRlPzo4SH38" d="M247.1,198.5C246.1,196.3,243,194.6,241.4,193.8C241.4,196.7,241.4,199.4,241.3,200.9C241,205.7,234.6,210,230.8,211.2L230.8,211.2C232.6,210.5,239.1,217.4,240.2,219.3C241.3,221.2,242.7,219,245,213.8C247.4,208.7,248.7,202.1,247.1,198.5Z" fill="url(#evFRlPzo4SH38-fill)" stroke="none" stroke-width="1"/><path id="evFRlPzo4SH39" d="M284.8,267.1C284.8,251.9,280.4,221.3,273.3,213.3C273.3,213.3,262.3,219.2,258.8,237.9C257.8,243.5,259.5,259.4,260,266.2L284.8,267.1Z" fill="url(#evFRlPzo4SH39-fill)" stroke="none" stroke-width="1"/><path id="evFRlPzo4SH40" d="M241.8,282.1C241.8,282.1,270.3,282.1,275.2,282.1C280.2,282.1,285.5,278.1,284.7,267.1C283.9,256.1,266,257.7,259.9,266.1L241.5,268.9L241.8,282.1Z" fill="url(#evFRlPzo4SH40-fill)" stroke="none" stroke-width="1"/><path id="evFRlPzo4SH41" d="M225,281.5L226.6,280L231.4,281.7C232.2,282,233.1,282.1,234,282.1L243.5,282.1C243.5,282.1,248,281.1,248.2,275.8C248.3,270.5,243.8,268.9,241.8,268.9L231.3,268.9C230.8,268.9,230.3,268.8,229.7,268.7L222.3,267.1C221.2,266.9,220.1,267.1,219.1,267.6L214.9,270C214.1,270.5,213.3,271,212.7,271.7L205,279.4C204,280.4,204.7,282,206.1,282L223.4,282C223.9,282.1,224.5,281.9,225,281.5Z" fill="url(#evFRlPzo4SH41-fill)" stroke="none" stroke-width="1"/><g id="evFRlPzo4SH42_to" transform="translate(288.167019,209.949475)"><path id="evFRlPzo4SH42" d="M313.6,170.3C306.4,166.2,293.9,177.9,296.6,191.9C299.3,205.8,284,223.1,284,223.1C284,223.1,266.7,230.1,259.7,231.4C261.4,233.8,263.3,237.3,264.1,241.8C275.5,240.9,291.8,238.5,298.4,233C308.4,224.7,319,194,319,184.3C319,172.9,313.6,170.3,313.6,170.3Z" transform="translate(-289.350006,-205.634903)" fill="url(#evFRlPzo4SH42-fill)" stroke="none" stroke-width="1"/></g><g id="evFRlPzo4SH43_to" transform="translate(240.100131,244.337613)"><path id="evFRlPzo4SH43" d="M257.9,231.5C252.9,231.5,235.5,231.5,235.5,231.5C235.5,231.5,219.5,236.9,219.1,237.8C218.7,238.7,217.9,244.2,219.1,245.5C220.3,246.8,228.5,249.1,230.5,248.7C232.6,248.3,248.8,242.3,252.5,242.3C253.8,242.3,258.3,242.2,264.1,241.7C263.2,237.2,261.3,233.6,259.7,231.3C259,231.5,258.4,231.5,257.9,231.5Z" transform="translate(-241.283119,-240.023041)" fill="url(#evFRlPzo4SH43-fill)" stroke="none" stroke-width="1"/></g><path id="evFRlPzo4SH44" d="M114.3,216.7C114.3,216.7,119.9,221.1,125.7,216.7C131.4,212.3,127.5,204.7,127.5,204.7L114.4,211.7L114.4,216.7L114.3,216.7Z" fill="url(#evFRlPzo4SH44-fill)" stroke="none" stroke-width="1"/><polygon id="evFRlPzo4SH45" points="122.4,175 122.4,208.2 111.6,208.2 111.6,176.8" fill="url(#evFRlPzo4SH45-fill)" stroke="none" stroke-width="1"/><path id="evFRlPzo4SH46" d="M104.8,257.6C103.8,263.1,97.9,270.9,94.1,282.2L115.6,282.2C117.7,268.7,119.5,250.6,116.6,234.4L104.2,234.4C105.3,239.8,105.7,252.4,104.8,257.6Z" fill="rgb(43,43,43)" stroke="none" stroke-width="1"/><path id="evFRlPzo4SH47" d="M84.2,256.4C84.2,256.4,86.7,268.5,88.4,282.2L94.1,282.2C97.9,271,103.8,263.2,104.8,257.6C105.8,252.4,105.3,239.9,104.2,234.4L84.8,234.4L84.2,256.4Z" fill="url(#evFRlPzo4SH47-fill)" stroke="none" stroke-width="1"/><path id="evFRlPzo4SH48" d="M104.1,234.4C104,233.7,103.8,233.1,103.6,232.7L66.3,232.7C66.8,250.7,68.2,268.5,69.1,282.2L94,282.2C97.8,271,103.7,263.2,104.7,257.6C105.7,252.4,105.3,239.8,104.1,234.4Z" fill="rgb(20,20,20)" stroke="none" stroke-width="1"/><path id="evFRlPzo4SH49" d="M91.8,145.4C69.7,139.5,54.8,149.3,52.4,163.5C50.2,176.4,66.4,216.5,66.4,232.6C66.4,232.6,92.6,246.1,116.6,234.3C116.6,234.3,113,217.1,116.6,201.9C120.2,186.7,125,178,120.9,167.1C117.3,157.7,102.1,148.2,91.8,145.4Z" fill="url(#evFRlPzo4SH49-fill)" stroke="none" stroke-width="1"/><path id="evFRlPzo4SH50" d="M100,130.8C100,130.8,91.7,141.3,88.2,144.6C84.7,147.9,91.2,154.8,96.1,157.7C99.4,159.6,106.2,161.7,104.2,155.8C104.2,155.8,103.1,152.5,108.6,147.7C108.5,147.7,102.4,129.3,100,130.8Z" fill="url(#evFRlPzo4SH50-fill)" stroke="none" stroke-width="1"/><path id="evFRlPzo4SH51" d="M108.5,147.7C108.5,147.7,105.6,139.2,103.1,134.2L100.4,135.5C97.2,142,96.7,154.2,104.1,155.8C104.2,155.8,103,152.4,108.5,147.7Z" fill="rgb(203,158,174)" stroke="none" stroke-width="1"/><path id="evFRlPzo4SH52" d="M103.3,128.9C104,124.9,100.4,124.6,99.3,127.9C98,131.7,99.4,134.4,100.9,133.5C100.9,133.5,98.1,142.1,101.6,147.3C105.1,152.5,109.8,150.5,115.5,144.9C120.4,140.1,123.6,134.1,124.1,131.9C125.4,126,119.2,121.1,113.4,121.5C106.4,121.8,103.3,128.9,103.3,128.9Z" fill="url(#evFRlPzo4SH52-fill)" stroke="none" stroke-width="1"/><path id="evFRlPzo4SH53" d="M103.3,128.9C103.1,131.3,103.5,133.1,104.8,132.3C106.2,131.5,109.5,126.8,112.4,130.2C115.4,133.6,117.8,136.8,123.1,136.2C129.9,135.5,131.5,126.2,125.5,124.5C125.5,124.5,128.1,121.3,123.5,119.8C119.2,118.4,119.1,119.3,116.1,115.9C114.4,114,104.1,115,101.3,125.6C101.3,125.8,103.7,125.3,103.3,128.9Z" fill="rgb(45,45,45)" stroke="none" stroke-width="1"/><path id="evFRlPzo4SH54" d="M69.5,197.3C69.7,192.7,72.6,180.8,76.6,173.1C80.6,165.5,78.6,155.7,73.2,151.8C67.8,148,60.2,148.7,56.6,154C46.9,168.3,49.7,200.4,55,211.3C56,213.5,58.5,214.9,61.9,215.7C54.4,212.3,61.8,195.5,69.5,197.3Z" fill="url(#evFRlPzo4SH54-fill)" stroke="none" stroke-width="1"/><path id="evFRlPzo4SH55" d="M97.9,210.3L112.4,192.8C113,192,114,191.7,115,192L139.6,198.8C140.2,199,140.4,199.7,139.9,200.2L121.3,217C120.9,217.4,120.4,217.5,119.8,217.4L98.5,212.4C97.7,212.1,97.4,211,97.9,210.3Z" fill="rgb(96,0,7)" stroke="none" stroke-width="1"/><path id="evFRlPzo4SH56" d="M115.3,203.4C114.5,201,112,199.2,110.6,198.8C109.6,198.5,102,198.6,97.9,198.7C96.3,198.7,94.8,199.2,93.4,200C92.1,200.8,90.5,201.7,89.7,201.7C88.3,201.7,76.9,201.7,76.9,201.7C76.9,201.7,73.4,199,69.3,197.2C61.6,195.4,54.3,212.2,61.6,215.6C74,218.7,98.4,214.2,108.6,210.7C110.9,209.9,112.9,208.5,114.3,206.5C115.2,205.5,115.7,204.3,115.3,203.4Z" fill="url(#evFRlPzo4SH56-fill)" stroke="none" stroke-width="1"/><g id="evFRlPzo4SH57"><polygon id="evFRlPzo4SH58" points="28.5,282.1 69.7,281.9 110.8,281.8 193.2,281.6 275.6,281.8 316.7,281.9 357.9,282.1 316.7,282.4 275.6,282.5 193.2,282.6 110.8,282.5 69.7,282.4" fill="rgb(96,0,7)" stroke="none" stroke-width="1"/></g><g id="evFRlPzo4SH59"><path id="evFRlPzo4SH60" d="M202.3,281.9L237.4,281.9C239.4,281.9,241,280.3,241,278.3L241,278.3C241,277.4,240.3,276.6,239.3,276.6L202.2,276.6C201.3,276.6,200.5,277.3,200.5,278.3L200.5,280.3C200.7,281.2,201.4,281.9,202.3,281.9Z" fill="url(#evFRlPzo4SH60-fill)" stroke="none" stroke-width="1"/><path id="evFRlPzo4SH61" d="M140.2,281.9L213.5,281.9C216.3,281.9,218.4,279.2,217.6,276.5L204.7,229.4C203.9,226.3,201.1,224.2,197.9,224.2L124.6,224.2C121.8,224.2,119.7,226.9,120.5,229.6L133.4,276.7C134.3,279.8,137,281.9,140.2,281.9Z" fill="url(#evFRlPzo4SH61-fill)" stroke="none" stroke-width="1"/></g><g id="evFRlPzo4SH62"><g id="evFRlPzo4SH63"><path id="evFRlPzo4SH64" d="M355.3,248.4C354.2,248.7,352.7,249.9,351,251.6C349.3,253.2,347.4,255.1,345.1,256.9C343.7,258,342.3,259,340.9,260C339.6,261,338.3,261.9,337.1,262.9C334.8,264.8,333,266.6,332.4,267.9C333,266.5,333.3,264,334.4,261C335,259.5,335.8,257.9,336.9,256.2C338,254.6,339.4,253.1,341.1,251.7C344,249.6,347.1,248.8,349.7,248.6C352.3,248.4,354.2,248.7,355.3,248.4Z" fill="rgb(114,47,47)" stroke="none" stroke-width="1"/></g><g id="evFRlPzo4SH65"><path id="evFRlPzo4SH66" d="M331.5,266.8C331.6,265.4,330.9,263.2,330.5,260.3C330,257.4,329.8,253.8,330.7,249.9C331.8,245.1,333.9,241.1,335.9,237.9C337.9,234.7,339.8,232.4,340.5,230.8C339.8,232.4,339.4,235.4,339,239C338.6,242.6,338.1,246.9,337.1,251.3C336.3,255,334.9,258.1,333.8,260.7C332.6,263.4,331.6,265.4,331.5,266.8Z" fill="rgb(114,47,47)" stroke="none" stroke-width="1"/></g><g id="evFRlPzo4SH67"><path id="evFRlPzo4SH68" d="M311.1,243.2C312.2,243.7,314.3,243.7,316.9,244.5C319.5,245.2,322.6,246.7,325.2,249.5C328.3,253,329.8,257,330.4,260.4C331.1,263.8,330.9,266.5,331.2,268C330.9,266.4,329.4,264.1,327.4,261.7C325.4,259.2,322.8,256.7,320.3,253.8C318.2,251.5,316.6,249.1,315.1,247.1C313.7,245.2,312.3,243.7,311.1,243.2Z" fill="rgb(114,47,47)" stroke="none" stroke-width="1"/></g></g><path id="evFRlPzo4SH69" d="M344.7,259L323,259C321.9,259,321,260,321.1,261.1L323.7,283.2C323.8,284.2,324.6,284.9,325.6,284.9L342,284.9C343,284.9,343.8,284.2,343.9,283.2L346.5,261.1C346.7,260,345.8,259,344.7,259Z" fill="rgb(96,0,7)" stroke="none" stroke-width="1"/><path id="evFRlPzo4SH70" d="M320.1,259L321.1,267.2C321.2,267.7,321.5,268,322,268L345.8,268C346.3,268,346.6,267.7,346.7,267.2L347.7,259C347.8,258.5,347.3,258,346.8,258L321,258C320.4,258,320,258.5,320.1,259Z" fill="url(#evFRlPzo4SH70-fill)" stroke="none" stroke-width="1"/></svg>