<?xml version="1.0" encoding="utf-8"?>
<!-- Generator: Adobe Illustrator 24.1.0, SVG Export Plug-In . SVG Version: 6.00 Build 0)  -->
<svg version="1.1" id="Layer_1" xmlns="http://www.w3.org/2000/svg" xmlns:xlink="http://www.w3.org/1999/xlink" x="0px" y="0px"
	 viewBox="0 0 512 512" style="enable-background:new 0 0 512 512;" xml:space="preserve">
<style type="text/css">
	.st0{fill:#FFFFFF;}
	.st1{fill:#FFFFFF;stroke:#FFFFFF;stroke-width:3;stroke-miterlimit:10;}
	.st2{fill:#FFFFFF;stroke:#FFFFFF;stroke-width:4;stroke-miterlimit:10;}
	.st3{fill:#FFFFFF;stroke:#FFFFFF;stroke-width:5;stroke-miterlimit:10;}
	.st4{fill-rule:evenodd;clip-rule:evenodd;fill:#FFFFFF;stroke:#FFFFFF;stroke-width:2;stroke-miterlimit:10;}
</style>
<g>
	<path class="st0" d="M266.8,247.2v-14.2c7.7-2.4,13.3-9.5,13.3-18c0-7.2-4-13.7-10.5-16.9l-12.9-6.5c-1.9-1-3.1-2.9-3.1-5.1
		c0-3.1,2.5-5.7,5.7-5.7h1.9c3.1,0,5.7,2.5,5.7,5.7v1H280v-1c0-8.4-5.6-15.5-13.3-18v-14.2h-13.3v14.2c-7.7,2.4-13.3,9.5-13.3,18
		c0,7.2,4,13.7,10.5,16.9l12.9,6.5c1.9,1,3.1,2.9,3.1,5.1c0,3.1-2.5,5.7-5.7,5.7h-1.9c-3.1,0-5.7-2.5-5.7-5.7v-7.6h-13.3v7.6
		c0,8.4,5.6,15.5,13.3,18v14.2H266.8z"/>
	<path class="st0" d="M333.1,200.7c0-40.2-32.7-72.9-72.9-72.9s-72.9,32.7-72.9,72.9s32.7,72.9,72.9,72.9S333.1,241,333.1,200.7z
		 M200.5,200.7c0-32.9,26.8-59.7,59.7-59.7c32.9,0,59.7,26.8,59.7,59.7s-26.8,59.7-59.7,59.7S200.5,233.6,200.5,200.7z"/>
	<path class="st0" d="M445.8,366.5H353c-11,0-19.9,8.9-19.9,19.9v66.3c0,11,8.9,19.9,19.9,19.9h92.8c11,0,19.9-8.9,19.9-19.9v-66.3
		C465.7,375.5,456.8,366.5,445.8,366.5z M386.1,379.8h26.5v26.5h-26.5V379.8z M452.5,452.7c0,3.7-3,6.6-6.6,6.6H353
		c-3.7,0-6.6-3-6.6-6.6v-66.3c0-3.7,3-6.6,6.6-6.6h19.9v39.8h53.1v-39.8h19.9c3.7,0,6.6,3,6.6,6.6V452.7z"/>
	<path class="st0" d="M246.9,299.2c4.4,0.6,8.8,1,13.3,1c54.8,0,99.5-44.6,99.5-99.5s-44.6-99.5-99.5-99.5s-99.5,44.6-99.5,99.5
		c0,28.2,11.6,54.3,31.8,72.9h-58.3c-11,0-19.9,8.9-19.9,19.9v66.3c0,2.3,0.5,4.5,1.2,6.6h-41c-11,0-19.9,8.9-19.9,19.9v66.3
		c0,11,8.9,19.9,19.9,19.9h92.8c5.1,0,9.7-2,13.3-5.2c3.5,3.2,8.1,5.2,13.3,5.2h92.8c11,0,19.9-8.9,19.9-19.9v-66.3
		c0-11-8.9-19.9-19.9-19.9h-41c0.7-2.1,1.2-4.3,1.2-6.6V299.2z M173.9,200.7c0-47.5,38.7-86.2,86.2-86.2s86.2,38.7,86.2,86.2
		s-38.7,86.2-86.2,86.2c-5.1,0-10.1-0.6-15-1.4c-3.1-7-10.1-11.8-18.2-11.8h-12.6C189.1,257.8,173.9,230.7,173.9,200.7z
		 M167.3,286.9h26.5v26.5h-26.5V286.9z M107.6,379.8h26.5v26.5h-26.5V379.8z M167.3,459.4H74.5c-3.7,0-6.6-3-6.6-6.6v-66.3
		c0-3.7,3-6.6,6.6-6.6h19.9v39.8h53.1v-39.8h19.9c3.7,0,6.6,3,6.6,6.6v66.3C173.9,456.4,171,459.4,167.3,459.4z M293.3,386.4v66.3
		c0,3.7-3,6.6-6.6,6.6h-92.8c-3.7,0-6.6-3-6.6-6.6v-66.3c0-3.7,3-6.6,6.6-6.6h19.9v39.8h53.1v-39.8h19.9
		C290.3,379.8,293.3,382.8,293.3,386.4z M227,379.8h26.5v26.5H227V379.8z M193.8,366.5h-26.5h-33.2c-3.7,0-6.6-3-6.6-6.6v-66.3
		c0-3.7,3-6.6,6.6-6.6H154v39.8h53.1v-39.8H227c3.7,0,6.6,3,6.6,6.6v66.3c0,3.7-3,6.6-6.6,6.6H193.8z"/>
	<rect x="120.9" y="247.2" class="st0" width="13.3" height="13.3"/>
	<path class="st0" d="M134.2,200.7c0-69.5,56.5-126,126-126s126,56.5,126,126v120.9L364.7,296l-10.2,8.5l38.2,45.9l38.2-45.9
		l-10.2-8.5l-21.4,25.7V200.7c0-76.8-62.5-139.3-139.3-139.3S120.9,124,120.9,200.7v33.2h13.3V200.7z"/>
</g>
</svg>
