<?xml version="1.0" encoding="utf-8"?>
<!-- Generator: Adobe Illustrator 24.1.0, SVG Export Plug-In . SVG Version: 6.00 Build 0)  -->
<svg version="1.1" id="Layer_1" xmlns="http://www.w3.org/2000/svg" xmlns:xlink="http://www.w3.org/1999/xlink" x="0px" y="0px"
	 viewBox="0 0 512 512" style="enable-background:new 0 0 512 512;" xml:space="preserve">
<style type="text/css">
	.st0{fill:#FFFFFF;}
	.st1{fill:#FFFFFF;stroke:#FFFFFF;stroke-width:3;stroke-miterlimit:10;}
	.st2{fill:#FFFFFF;stroke:#FFFFFF;stroke-width:4;stroke-miterlimit:10;}
	.st3{fill:#FFFFFF;stroke:#FFFFFF;stroke-width:5;stroke-miterlimit:10;}
	.st4{fill-rule:evenodd;clip-rule:evenodd;fill:#FFFFFF;stroke:#FFFFFF;stroke-width:2;stroke-miterlimit:10;}
</style>
<g>
	<g>
		<g>
			<g>
				<g>
					<path class="st0" d="M303.1,452.1H118.7c-13.2,0-23.9-10.7-23.9-23.8V85.4c0-13.2,10.7-23.9,23.9-23.9h259.1
						c13.2,0,23.9,10.7,23.9,23.9v268.2c0,4.5-3.6,8.1-8.1,8.1s-8.1-3.6-8.1-8.1V85.4c0-4.2-3.4-7.6-7.6-7.6H118.7
						c-4.3,0-7.6,3.3-7.6,7.6v342.9c0,4.2,3.4,7.5,7.6,7.5h184.5c4.5,0,8.1,3.6,8.1,8.1S307.6,452.1,303.1,452.1z"/>
				</g>
			</g>
			<g>
				<g>
					<path class="st0" d="M303.1,452.1c-1,0-2.1-0.2-3.1-0.6c-3-1.3-5-4.2-5-7.5v-71.4c0-15,12.2-27.1,27.1-27.1h71.4
						c3.3,0,6.3,2,7.5,5c1.3,3,0.6,6.5-1.8,8.9l-90.4,90.4C307.3,451.3,305.2,452.1,303.1,452.1z M322.1,361.7
						c-6,0-10.8,4.9-10.8,10.8v51.8l62.6-62.6H322.1z"/>
				</g>
			</g>
		</g>
		<g>
			<g>
				<path class="st0" d="M248.2,390.9h-96c-4.5,0-8.1-3.6-8.1-8.1s3.6-8.1,8.1-8.1h96c4.5,0,8.1,3.6,8.1,8.1
					S252.7,390.9,248.2,390.9z"/>
			</g>
		</g>
		<g>
			<g>
				<g>
					<path class="st0" d="M344.2,320.7h-192c-4.5,0-8.1-3.6-8.1-8.1s3.6-8.1,8.1-8.1h192c4.5,0,8.1,3.6,8.1,8.1
						S348.7,320.7,344.2,320.7z"/>
				</g>
			</g>
			<g>
				<g>
					<path class="st0" d="M344.2,259.3h-192c-4.5,0-8.1-3.6-8.1-8.1s3.6-8.1,8.1-8.1h192c4.5,0,8.1,3.6,8.1,8.1
						S348.7,259.3,344.2,259.3z"/>
				</g>
			</g>
			<g>
				<g>
					<path class="st0" d="M344.2,197.9h-69c-4.5,0-8.1-3.6-8.1-8.1s3.6-8.1,8.1-8.1h69c4.5,0,8.1,3.6,8.1,8.1
						S348.7,197.9,344.2,197.9z"/>
				</g>
			</g>
			<g>
				<g>
					<path class="st0" d="M344.2,136.4h-69c-4.5,0-8.1-3.6-8.1-8.1c0-4.5,3.6-8.1,8.1-8.1h69c4.5,0,8.1,3.6,8.1,8.1
						C352.4,132.8,348.7,136.4,344.2,136.4z"/>
				</g>
			</g>
		</g>
	</g>
	<g>
		<g>
			<path class="st0" d="M160.9,212.5c-0.8,0-1.7-0.1-2.5-0.4c-3.4-1.1-5.7-4.2-5.7-7.7V69.6c0-4.5,3.6-8.1,8.1-8.1h68.2
				c4.5,0,8.1,3.6,8.1,8.1v134.7c0,3.5-2.3,6.7-5.7,7.7c-3.4,1.1-7.1-0.1-9.1-3l-27.5-38.5l-27.5,38.5
				C166,211.3,163.5,212.5,160.9,212.5z M169.1,77.8V179l19.4-27.1c1.5-2.1,4-3.4,6.6-3.4l0,0c2.6,0,5.1,1.3,6.6,3.4L221,179V77.8
				H169.1z"/>
		</g>
	</g>
</g>
</svg>
