<?xml version="1.0" encoding="utf-8"?>
<!-- Generator: Adobe Illustrator 24.1.0, SVG Export Plug-In . SVG Version: 6.00 Build 0)  -->
<svg version="1.1" id="Layer_1" xmlns="http://www.w3.org/2000/svg" xmlns:xlink="http://www.w3.org/1999/xlink" x="0px" y="0px"
	 viewBox="0 0 512 512" style="enable-background:new 0 0 512 512;" xml:space="preserve">
<style type="text/css">
	.st0{fill:#FFFFFF;}
	.st1{fill:#FFFFFF;stroke:#FFFFFF;stroke-width:3;stroke-miterlimit:10;}
	.st2{fill:#FFFFFF;stroke:#FFFFFF;stroke-width:4;stroke-miterlimit:10;}
	.st3{fill:#FFFFFF;stroke:#FFFFFF;stroke-width:5;stroke-miterlimit:10;}
	.st4{fill-rule:evenodd;clip-rule:evenodd;fill:#FFFFFF;stroke:#FFFFFF;stroke-width:2;stroke-miterlimit:10;}
</style>
<g>
	<path class="st0" d="M437.6,256.2h-61.2V110.6l-58.4-58.4H36.6v421.4h339.9v-40.8h61.2c11.2,0,20.4-9.1,20.4-20.4V276.6
		C458,265.3,448.8,256.2,437.6,256.2z M335.6,120.3V161H213.3v-68h95.2v27.2H335.6z M322,106.7V75.5l31.2,31.2H322z M362.8,460.1
		H50.2V65.9h258.3v13.6H199.7v95.2h149.5v-54.4h13.6v135.9H220.1c-11.2,0-20.4,9.1-20.4,20.4v135.9c0,11.2,9.1,20.4,20.4,20.4h142.7
		V460.1z M444.4,412.5c0,3.7-3,6.8-6.8,6.8H220.1c-3.8,0-6.8-3.1-6.8-6.8V276.6c0-3.7,3-6.8,6.8-6.8h217.5c3.8,0,6.8,3.1,6.8,6.8
		V412.5z"/>
	<path class="st0" d="M349.2,297c0-7.5-6.1-13.6-13.6-13.6h-95.2c-7.5,0-13.6,6.1-13.6,13.6v40.8c0,7.5,6.1,13.6,13.6,13.6h95.2
		c7.5,0,13.6-6.1,13.6-13.6V297z M335.6,337.8h-95.2l0-40.8h0h95.2V337.8z"/>
	<rect x="362.8" y="283.4" class="st0" width="68" height="13.6"/>
	<rect x="362.8" y="310.6" class="st0" width="68" height="13.6"/>
	<rect x="226.9" y="364.9" class="st0" width="27.2" height="13.6"/>
	<rect x="267.7" y="364.9" class="st0" width="27.2" height="13.6"/>
	<rect x="308.4" y="364.9" class="st0" width="27.2" height="13.6"/>
	<rect x="226.9" y="392.1" class="st0" width="108.8" height="13.6"/>
	<path class="st0" d="M403.6,351.4c-1.6,0-3.2,0.2-4.7,0.5c-0.5,0.1-1,0.2-1.4,0.3c-1.2,0.3-2.4,0.7-3.6,1.1c-0.7,0.3-1.4,0.6-2.1,1
		c-0.6,0.3-1.2,0.5-1.7,0.9c-4.1-2.4-8.8-3.7-13.6-3.7c-15,0-27.2,12.2-27.2,27.2s12.2,27.2,27.2,27.2c4.8,0,9.5-1.3,13.6-3.7
		c0.6,0.3,1.2,0.6,1.7,0.9c0.7,0.3,1.4,0.7,2.1,1c1.2,0.5,2.4,0.8,3.6,1.1c0.5,0.1,0.9,0.2,1.4,0.3c1.6,0.3,3.1,0.5,4.7,0.5
		c15,0,27.2-12.2,27.2-27.2S418.6,351.4,403.6,351.4z M362.8,378.5c0-7.5,6.1-13.6,13.6-13.6c1.2,0,2.4,0.2,3.5,0.5
		c-2.2,3.9-3.5,8.3-3.5,13.1s1.3,9.2,3.5,13.1c-1.1,0.3-2.3,0.5-3.5,0.5C368.9,392.1,362.8,386,362.8,378.5z M403.6,392.1
		c-0.9,0-1.7-0.1-2.5-0.3c-0.7-0.1-1.3-0.3-2-0.6c-0.1,0-0.2-0.1-0.3-0.1c-1.5-0.6-2.9-1.5-4.2-2.6l-0.8-0.7
		c-2.3-2.4-3.8-5.7-3.8-9.3c0-3.6,1.5-6.9,3.8-9.4l0.8-0.7c1.3-1.1,2.7-2,4.2-2.6c0.1,0,0.2-0.1,0.3-0.1c0.7-0.2,1.3-0.4,2-0.6
		c0.8-0.2,1.7-0.3,2.5-0.3c7.5,0,13.6,6.1,13.6,13.6S411.1,392.1,403.6,392.1z"/>
	<path class="st0" d="M180.9,319.8l-26.7,31.6H63.8v95.2h108.8v-95.2H172l19.3-22.8L180.9,319.8z M158.9,432.9H77.3v-68h65.3
		l-31.8,37.5l-15.2-15.2l-9.6,9.6l25.6,25.6l47.2-55.7L158.9,432.9L158.9,432.9z"/>
	<path class="st0" d="M213.3,222.3c0-15.1-10.1-28.5-24.7-32.7l-22.9-6.5v-3.5c12.3-8.6,20.4-22.9,20.4-39v-13.6
		c0-26.2-21.3-47.6-47.6-47.6s-47.6,21.3-47.6,47.6v13.6c0,16.1,8.1,30.4,20.4,39v3.5l-22.9,6.6c-14.5,4.1-24.7,17.6-24.7,32.7v20.3
		h149.5V222.3z M104.5,140.6v-13.6c0-18.7,15.2-34,34-34s34,15.2,34,34v13.6c0,18.7-15.2,34-34,34S104.5,159.4,104.5,140.6z
		 M151,186.5L138.5,199L126,186.5c4,1.1,8.2,1.7,12.5,1.7C142.8,188.2,147,187.6,151,186.5z M199.7,229H77.3v-6.7
		c0-9.1,6.1-17.1,14.8-19.6l24-6.9l22.4,22.4l22.4-22.4l24,6.9c8.7,2.5,14.8,10.6,14.8,19.6V229z"/>
	<rect x="63.8" y="256.2" class="st0" width="122.3" height="13.6"/>
	<rect x="63.8" y="283.4" class="st0" width="122.3" height="13.6"/>
	<rect x="63.8" y="310.6" class="st0" width="81.6" height="13.6"/>
	<rect x="226.9" y="229" class="st0" width="122.3" height="13.6"/>
	<rect x="226.9" y="201.8" class="st0" width="122.3" height="13.6"/>
</g>
</svg>
