<?xml version="1.0" encoding="utf-8"?>
<!-- Generator: Adobe Illustrator 24.1.0, SVG Export Plug-In . SVG Version: 6.00 Build 0)  -->
<svg version="1.1" id="Layer_1" xmlns="http://www.w3.org/2000/svg" xmlns:xlink="http://www.w3.org/1999/xlink" x="0px" y="0px"
	 viewBox="0 0 512 512" style="enable-background:new 0 0 512 512;" xml:space="preserve">
<style type="text/css">
	.st0{fill:#FFFFFF;}
	.st1{fill:#FFFFFF;stroke:#FFFFFF;stroke-width:3;stroke-miterlimit:10;}
	.st2{fill:#FFFFFF;stroke:#FFFFFF;stroke-width:4;stroke-miterlimit:10;}
	.st3{fill:#FFFFFF;stroke:#FFFFFF;stroke-width:5;stroke-miterlimit:10;}
	.st4{fill-rule:evenodd;clip-rule:evenodd;fill:#FFFFFF;stroke:#FFFFFF;stroke-width:2;stroke-miterlimit:10;}
</style>
<g>
	<path class="st0" d="M496.5,118.4c0-54.4-44.2-98.6-98.6-98.6c-51.8,0-94.3,40.2-98.2,91h-51.4l-12.1-30.3H59l-33.5,83.8L41.4,196
		v112h45.5v98.6c0,20.9,17,37.9,37.9,37.9h53.1v30.3h-30.3V490h227.5v-15.2h-30.3v-30.3h53.1c20.9,0,37.9-17,37.9-37.9V209.4
		C471.4,194.5,496.5,159.3,496.5,118.4z M132.4,292.8H86.9v-60.7h45.5V292.8z M132.4,308h106.2v45.5h136.5V232.1H253.8V196
		l15.9-31.8l-3.2-7.9h40.4c14,33.4,45.8,57.4,83.4,60.3v152.1H132.4V308z M53.7,186.6l-7.6-15.2h51.3l-7.6,15.2H53.7z M173.2,171.5
		l-7.6,15.2h-36.1l-7.6-15.2H173.2z M118.9,156.3l12.1-60.7h33.1l12.1,60.7H118.9z M241.5,186.6h-36.1l-7.6-15.2h51.3L241.5,186.6z
		 M253.8,247.3h106.2v91H253.8V308v-7.6V247.3z M397.9,35c8.2,0,16.8,11.6,22.8,30.3H375C381,46.5,389.7,35,397.9,35z M424.5,80.5
		c1.9,9.2,3.1,19.4,3.5,30.3h-60.4c0.4-11,1.6-21.2,3.5-30.3H424.5z M480.9,110.8h-37.7c-0.3-10.8-1.4-21-3.1-30.3h32
		C476.8,89.7,479.9,99.9,480.9,110.8z M352.5,110.8h-37.7c1-10.8,4.1-21.1,8.8-30.3h32C353.9,89.8,352.9,100,352.5,110.8z
		 M352.5,126c0.3,10.8,1.4,21,3.1,30.3h-32c-4.7-9.3-7.8-19.5-8.8-30.3H352.5z M359.1,171.5c2.8,9.8,6.3,18.4,10.5,25.3
		c-14.2-5.1-26.7-13.9-36.1-25.3H359.1z M397.9,201.8c-8.2,0-16.8-11.6-22.8-30.3h45.6C414.7,190.2,406,201.8,397.9,201.8z
		 M371.2,156.3c-1.9-9.2-3.1-19.4-3.5-30.3H428c-0.4,11-1.6,21.2-3.5,30.3H371.2z M443.2,126h37.7c-1,10.8-4.1,21.1-8.8,30.3h-32
		C441.8,146.9,442.9,136.7,443.2,126z M462.2,65.3h-25.6c-2.8-9.8-6.3-18.4-10.5-25.3C440.2,45.1,452.7,53.9,462.2,65.3z
		 M369.7,39.9c-4.2,7-7.8,15.5-10.5,25.3h-25.6C343,53.9,355.5,45.1,369.7,39.9z M299.7,126c0.4,5.2,1.2,10.2,2.4,15.2h-41.6
		l-6.1-15.2H299.7z M250.1,156.3h-58.4l-12.1-60.7h46.3L250.1,156.3z M69.3,95.6h46.3l-12.1,60.7H45L69.3,95.6z M56.6,201.8h42.6
		l10.5-21l10.5,21H175l10.5-21l10.5,21h42.6v91h-91V217H71.7v75.8H56.6V201.8z M329.6,474.8H193.1v-30.3h136.5V474.8z M375.1,429.3
		h-15.2v-15.2h15.2V429.3z M344.8,429.3h-15.2v-15.2h15.2V429.3z M314.4,429.3h-15.2v-15.2h15.2V429.3z M420.6,406.6
		c0,12.5-10.2,22.8-22.8,22.8h-7.6V399H284.1v30.3H124.8c-12.5,0-22.8-10.2-22.8-22.8V308h15.2v60.7c0,8.4,6.8,15.2,15.2,15.2h257.9
		c8.4,0,15.2-6.8,15.2-15.2V216.6c5.2-0.4,10.2-1.2,15.2-2.4V406.6z M426,196.8c4.2-7,7.8-15.5,10.5-25.3h25.6
		C452.7,182.9,440.2,191.7,426,196.8z"/>
	<path class="st0" d="M223.4,217h-60.7v60.7h60.7V217z M208.3,262.5h-30.3v-30.3h30.3V262.5z"/>
	<polygon class="st0" points="342.6,267.8 331.8,257.1 284.1,304.8 274.3,295 263.6,305.8 284.1,326.3 	"/>
	<rect x="147.6" y="323.1" class="st0" width="75.8" height="15.2"/>
	<rect x="268.9" y="201.8" class="st0" width="60.7" height="15.2"/>
</g>
</svg>
