<?xml version="1.0" encoding="utf-8"?>
<!-- Generator: Adobe Illustrator 24.1.0, SVG Export Plug-In . SVG Version: 6.00 Build 0)  -->
<svg version="1.1" id="Layer_1" xmlns="http://www.w3.org/2000/svg" xmlns:xlink="http://www.w3.org/1999/xlink" x="0px" y="0px"
	 viewBox="0 0 512 512" style="enable-background:new 0 0 512 512;" xml:space="preserve">
<style type="text/css">
	.st0{fill:#FFFFFF;}
	.st1{fill:#FFFFFF;stroke:#FFFFFF;stroke-width:3;stroke-miterlimit:10;}
	.st2{fill:#FFFFFF;stroke:#FFFFFF;stroke-width:4;stroke-miterlimit:10;}
	.st3{fill:#FFFFFF;stroke:#FFFFFF;stroke-width:5;stroke-miterlimit:10;}
	.st4{fill-rule:evenodd;clip-rule:evenodd;fill:#FFFFFF;stroke:#FFFFFF;stroke-width:2;stroke-miterlimit:10;}
</style>
<g transform="translate(0,-1020.3622)">
	<path class="st0" d="M124.1,1076.7c-3.9,0-7.1,3.2-7.1,7.1v85.5c-0.1,9.6,14.4,9.6,14.3,0v-78.3h199.7v49.9c0,3.9,3.2,7.1,7.1,7.1
		H388v35.5v1.4c-0.1,9.6,14.4,9.6,14.3,0v-1.4v-42.2c0,0,0-0.1,0-0.1c0.1-2-0.6-4-2.1-5.4l-57.1-57.1c-1.4-1.4-3.2-2.1-5.2-2.1
		c-0.4,0-0.9,0-1.3,0.1c-0.3,0-0.5-0.1-0.8-0.1H124.1z M345.2,1101l32.7,32.7h-32.7V1101z M166.2,1119.5c-3.9,0.2-7,3.6-6.8,7.5
		c0.2,3.9,3.6,7,7.5,6.8c0,0,0,0,0,0h14.3c3.9,0.1,7.2-3.1,7.2-7c0.1-3.9-3.1-7.2-7-7.2c-0.1,0-0.1,0-0.2,0h-14.3
		C166.7,1119.5,166.4,1119.5,166.2,1119.5z M209.2,1119.5c-3.9,0.2-7,3.6-6.8,7.5s3.6,7,7.5,6.8c0,0,0,0,0,0h56.7
		c3.9,0.1,7.2-3.1,7.2-7c0.1-3.9-3.1-7.2-7-7.2c-0.1,0-0.1,0-0.2,0h-56.7C209.7,1119.5,209.4,1119.5,209.2,1119.5z M166.2,1148
		c-3.9,0.2-7,3.6-6.8,7.5c0.2,3.9,3.6,7,7.5,6.8c0,0,0,0,0,0h14.3c3.9,0.1,7.2-3.1,7.2-7c0.1-3.9-3.1-7.2-7-7.2c-0.1,0-0.1,0-0.2,0
		h-14.3C166.7,1148,166.4,1148,166.2,1148z M209.2,1148c-3.9,0.2-7,3.6-6.8,7.5c0.2,3.9,3.6,7,7.5,6.8c0,0,0,0,0,0h56.7
		c3.9,0.1,7.2-3.1,7.2-7c0.1-3.9-3.1-7.2-7-7.2c-0.1,0-0.1,0-0.2,0h-56.7C209.7,1148,209.4,1148,209.2,1148z M423.1,1168
		c-3.9,0.2-7,3.6-6.8,7.5c0.2,3.9,3.6,7,7.5,6.8l0,0h3.8l-48.6,50.1l-52.7-20.5c-2.2-0.9-4.8-0.6-6.7,0.8l-71.3,50.7
		c-3.3,2.1-4.3,6.5-2.2,9.8s6.5,4.3,9.8,2.2c0.2-0.1,0.4-0.3,0.6-0.4l68.2-48.5l53.5,20.8c2.7,1,5.7,0.4,7.7-1.7l51.9-53.6v4.3
		c-0.1,3.9,3.1,7.2,7,7.2c3.9,0.1,7.2-3.1,7.2-7c0-0.1,0-0.1,0-0.2v-21.3c0-3.9-3.2-7.1-7.1-7.1h-21.3
		C423.5,1167.9,423.3,1167.9,423.1,1168z M223.8,1176.4c-3.9,0.1-7.1,3.3-7,7.2v185.4c0,3.1,2,5.8,4.9,6.8c0.2,0.1,0.5,0.1,0.7,0.2
		c0.5,0.1,0.9,0.2,1.4,0.2c0,0,0.1,0,0.1,0h242.5c3.9,0.1,7.2-3.1,7.2-7c0.1-3.9-3.1-7.2-7-7.2c-0.1,0-0.1,0-0.2,0h-7.1v-135.5
		c0-3.9-3.2-7.1-7.1-7.1h-28.5c-3.9,0-7.1,3.2-7.1,7.1v135.5h-14.3v-92.7c0-3.9-3.2-7.1-7.1-7.1h-28.5c-3.9,0-7.1,3.2-7.1,7.1v92.7
		h-14.3v-107c0-3.9-3.2-7.1-7.1-7.1h-28.5c-3.9,0-7.1,3.2-7.1,7.1v107h-14.3v-64.2c0-3.9-3.2-7.1-7.1-7.1h-28.5
		c-3.9,0-7.1,3.2-7.1,7.1v64.2h-14.3v-178.3c0-3.9-3.1-7.2-7-7.2C224,1176.4,223.9,1176.4,223.8,1176.4z M130.1,1189.8l-0.4,6.6
		c0,0,0.3-0.3-0.3,0.1c-0.5,0.3-1.7,0.8-2.6,0.8h-15.4c-12.7,0-23,10.5-23,23.2v14.3c0,0,0,0.1,0,0.2c0,0,0,0.2,0,0.2v5.7
		c-0.1,0.5-0.1,1.1,0,1.6v12c0,8,2.7,15.4,7.2,21.4v13.8L62.3,1309c-10.2,5.9-16.5,16.8-16.5,28.6v38.6h156.9v-39.3
		c0-11.4-6.1-21.9-16-27.6l-34-19.5v-13.8c4.4-6,7.2-13.4,7.2-21.4v-19.3c0,0,0-0.2,0-0.2c0,0,0-0.2,0-0.2v-21.4l-0.1-0.5
		c-0.8-5.9-2.6-11.5-6.4-16c-3.8-4.5-10-7.3-16.6-7.2H130.1z M139.5,1205v0.1c1,0.4,2.4,0.4,3.1,1.2c1.3,1.5,2.5,4.4,3,8.4v16.4
		c-0.1,0-0.2-0.1-0.4-0.1c-4.9-0.9-9.4-0.5-13.5-0.3c-4.1,0.2-7.6,0.1-10.1-0.5c-2.4-0.7-3.8-1.5-5.5-4.3c-1.3-2.3-3.9-3.7-6.5-3.6
		v0c-3.1,0.2-5.7,2.3-6.5,5.3c0.4-1.4,0.1-0.7-0.4,0.1v-7.1c0-5.2,3.9-9,8.7-9h16h0.2c3.4-0.2,6.8-1.3,9.9-3.5
		C138.6,1207.4,138.7,1205.9,139.5,1205z M430.8,1233.6H445v128.2h-14.3V1233.6z M88.6,1233.9c0,0.1-0.1,0.8-0.1,1.1
		c0-0.2,0-0.4,0.1-0.8C88.6,1233.9,88.7,1233.7,88.6,1233.9z M159.8,1235.3c0,0.2,0,0.4-0.1,0.7c0,0.2-0.1,0.5-0.1,0.3
		C159.7,1236.2,159.8,1235.7,159.8,1235.3z M111.6,1238.9c2.2,1.5,3.9,4.2,6.2,4.8c5.2,1.4,10.2,1.2,14.5,1.1s8-0.3,10.3,0.1
		c1.6,0.3,2.3,0.7,3,1.4v8.2c0,12.3-9.5,21.9-21.4,21.9c-11.9,0-21.4-9.6-21.4-21.9v-8.1c0.1-0.1,0.2-0.1,0.4-0.2
		c1.9-1.2,3.7-2.7,5.5-4.2C109.7,1241,110.6,1240,111.6,1238.9z M316.7,1262.1h14.3v99.7h-14.3V1262.1z M373.7,1276.3H388v85.4
		h-14.3V1276.3z M109.9,1287.7c4.4,2,9.2,3.1,14.3,3.1c5.1,0,9.9-1.1,14.3-3.1v6.9c-3,5.6-6.3,11.2-10.7,14.9l-0.1,0.1l-3.4,3.1
		l-2.6-2.5l-2.5-2.5c-4.8-5.1-7.2-9.1-9.2-14.7V1287.7z M99.1,1304.3c2.5,4.8,5.6,9.1,9.6,13.4l0.1,0.1l2.8,2.8l5.3,5v36.3H60v-24.3
		c0-6.7,3.6-12.9,9.4-16.2L99.1,1304.3z M149.3,1304.4l30.2,17.3c5.4,3.1,8.8,8.9,8.8,15.2v25h-57v-36.3l5.6-5.2
		C142.7,1315.6,146.3,1309.8,149.3,1304.4z M259.6,1304.9h14.3v56.9h-14.3V1304.9z M266.1,1390.5c-3.9,0.2-7,3.5-6.8,7.5
		c0.2,3.9,3.5,7,7.5,6.8h156.8c3.9,0.1,7.2-3.1,7.2-7c0.1-3.9-3.1-7.2-7-7.2c-0.1,0-0.1,0-0.2,0H266.7
		C266.5,1390.5,266.3,1390.5,266.1,1390.5z M124,1390.6c-3.9,0-7.1,3.3-7,7.2v71.1c0,3.9,3.2,7.1,7.1,7.1h59.7h75.7h135.5
		c3.9,0,7.1-3.2,7.1-7.1v-42.8c0.1-9.6-14.4-9.6-14.3,0v35.7H259.6h-75.7h-52.6v-64C131.3,1393.8,128,1390.5,124,1390.6z"/>
</g>
</svg>
