<?xml version="1.0" encoding="utf-8"?>
<!-- Generator: Adobe Illustrator 24.1.0, SVG Export Plug-In . SVG Version: 6.00 Build 0)  -->
<svg version="1.1" id="Layer_1" xmlns="http://www.w3.org/2000/svg" xmlns:xlink="http://www.w3.org/1999/xlink" x="0px" y="0px"
	 viewBox="0 0 512 512" style="enable-background:new 0 0 512 512;" xml:space="preserve">
<style type="text/css">
	.st0{fill:#FFFFFF;}
	.st1{fill:#FFFFFF;stroke:#FFFFFF;stroke-width:3;stroke-miterlimit:10;}
	.st2{fill:#FFFFFF;stroke:#FFFFFF;stroke-width:4;stroke-miterlimit:10;}
	.st3{fill:#FFFFFF;stroke:#FFFFFF;stroke-width:5;stroke-miterlimit:10;}
	.st4{fill-rule:evenodd;clip-rule:evenodd;fill:#FFFFFF;stroke:#FFFFFF;stroke-width:2;stroke-miterlimit:10;}
</style>
<g>
	<path class="st0" d="M480.9,130.8V122c0-4.9-0.9-9.6-2.8-14.1l-36.4-87.3H152.6l-36.4,87.3c-1.9,4.5-2.8,9.3-2.8,14.1v8.8
		c0,12,5.8,22.5,14.7,29.2v36.9h-22c-9.6,0-17.7,6.2-20.7,14.7H62c-20.3,0-36.7,16.5-36.7,36.7v191.1c0,20.3,16.5,36.7,36.7,36.7
		h161.7c20.3,0,36.7-16.5,36.7-36.7v-22h220.5v-36.7c0-9.6-6.2-17.7-14.7-20.7V160C475.1,153.3,480.9,142.8,480.9,130.8z
		 M444.2,152.8c-12.2,0-22-9.9-22-22v-7.3h44.1v7.3C466.2,143,456.3,152.8,444.2,152.8z M289.8,351.3v-73.5c0-4.1,3.3-7.3,7.3-7.3
		h22v29.4H378v-29.4h22c4,0,7.3,3.3,7.3,7.3v73.5c0,4.1-3.3,7.3-7.3,7.3H297.2C293.1,358.6,289.8,355.3,289.8,351.3z M333.9,270.4
		h29.4v14.7h-29.4V270.4z M200.3,255.7h16v176.4h-147V255.7h16c3,8.5,11.1,14.7,20.7,14.7h73.5C189.2,270.4,197.2,264.3,200.3,255.7
		z M128.2,130.8v-7.3h44.1v7.3c0,12.2-9.9,22-22,22C138,152.8,128.2,143,128.2,130.8z M186.9,123.4H231v7.3c0,12.2-9.9,22-22,22
		c-12.2,0-22-9.9-22-22V123.4z M245.7,123.4h44.1v7.3c0,12.2-9.9,22-22,22s-22-9.9-22-22V123.4z M304.5,123.4h44.1v7.3
		c0,12.2-9.9,22-22,22s-22-9.9-22-22V123.4z M363.3,123.4h44.1v7.3c0,12.2-9.9,22-22,22c-12.2,0-22-9.9-22-22V123.4z M162.5,35.3
		h269.5l30.6,73.5H131.8L162.5,35.3z M142.9,166.8c2.4,0.5,4.8,0.7,7.3,0.7c8.3,0,15.9-2.9,22-7.5v36.9h-29.4V166.8z M98.8,219
		c0-4.1,3.3-7.3,7.3-7.3h73.5c4,0,7.3,3.3,7.3,7.3v29.4c0,4.1-3.3,7.3-7.3,7.3h-73.5c-4,0-7.3-3.3-7.3-7.3V219z M245.7,439.4
		c0,12.2-9.9,22-22,22H62c-12.2,0-22-9.9-22-22V248.4c0-12.2,9.9-22,22-22h22V241H69.4c-8.1,0-14.7,6.6-14.7,14.7v176.4
		c0,8.1,6.6,14.7,14.7,14.7h147c8.1,0,14.7-6.6,14.7-14.7V255.7c0-8.1-6.6-14.7-14.7-14.7h-14.7v-14.7h22c12.2,0,22,9.9,22,22V439.4
		z M223.7,211.6h-23.4c-2.2-6.2-7.1-11.1-13.3-13.3V160c6.2,4.7,13.7,7.5,22,7.5c12.1,0,22.7-5.9,29.4-14.9
		c6.7,9,17.3,14.9,29.4,14.9c12.1,0,22.7-5.9,29.4-14.9c6.7,9,17.3,14.9,29.4,14.9c12.1,0,22.7-5.9,29.4-14.9
		c6.7,9,17.3,14.9,29.4,14.9c8.3,0,15.9-2.9,22-7.5v97.1c-2.3-0.8-4.8-1.4-7.3-1.4H297.2c-12.2,0-22,9.9-22,22v73.5
		c0,2.6,0.5,5,1.4,7.3h-16V248.4C260.4,228.1,243.9,211.6,223.7,211.6z M466.2,402.7H260.4v-29.4h36.7h102.9h58.8
		c4,0,7.3,3.3,7.3,7.3V402.7z M451.5,358.6h-29.4v-7.3v-73.5V160c6.2,4.7,13.7,7.5,22,7.5c2.5,0,5-0.3,7.3-0.7V358.6z"/>
	<path class="st0" d="M189.1,324l-16.7,16.7c-7.8-7.1-18.2-11.5-29.6-11.5c-24.3,0-44.1,19.8-44.1,44.1s19.8,44.1,44.1,44.1
		s44.1-19.8,44.1-44.1c0-7.6-1.9-14.8-5.3-21l17.9-17.9L189.1,324z M172.2,373.3c0,16.2-13.2,29.4-29.4,29.4s-29.4-13.2-29.4-29.4
		s13.2-29.4,29.4-29.4c7.3,0,14,2.8,19.1,7.2l-19.1,19.1l-9.5-9.5L123,371.2l19.9,19.9l27.6-27.6
		C171.5,366.6,172.2,369.8,172.2,373.3z"/>
	<rect x="186.9" y="285.1" class="st0" width="14.7" height="14.7"/>
	<rect x="84.1" y="285.1" class="st0" width="88.2" height="14.7"/>
	<polygon class="st0" points="172.7,96.6 184.7,64.7 245.7,64.7 245.7,50 174.5,50 158.9,91.5 	"/>
	<rect x="260.4" y="50" class="st0" width="14.7" height="14.7"/>
</g>
</svg>
