<?xml version="1.0" encoding="utf-8"?>
<!-- Generator: Adobe Illustrator 24.1.0, SVG Export Plug-In . SVG Version: 6.00 Build 0)  -->
<svg version="1.1" id="Layer_1" xmlns="http://www.w3.org/2000/svg" xmlns:xlink="http://www.w3.org/1999/xlink" x="0px" y="0px"
	 viewBox="0 0 512 512" style="enable-background:new 0 0 512 512;" xml:space="preserve">
<style type="text/css">
	.st0{fill:#FFFFFF;}
	.st1{fill:#FFFFFF;stroke:#FFFFFF;stroke-width:3;stroke-miterlimit:10;}
	.st2{fill:#FFFFFF;stroke:#FFFFFF;stroke-width:4;stroke-miterlimit:10;}
	.st3{fill:#FFFFFF;stroke:#FFFFFF;stroke-width:5;stroke-miterlimit:10;}
	.st4{fill-rule:evenodd;clip-rule:evenodd;fill:#FFFFFF;stroke:#FFFFFF;stroke-width:2;stroke-miterlimit:10;}
</style>
<path class="st0" d="M253.7,72.9h-55.7c1-2.8,1.7-5.8,1.7-9c0-14.9-12.1-27-27-27c-10.8,0-20.4,4.9-27,12.4
	c-6.6-7.6-16.2-12.4-27-12.4c-14.9,0-27,12.1-27,27c0,3.2,0.6,6.2,1.7,9H37.7v180h216V72.9z M172.7,54.9c5,0,9,4,9,9s-4,9-9,9h-18
	C154.7,63,162.8,54.9,172.7,54.9z M109.7,63.9c0-5,4-9,9-9c9.9,0,18,8.1,18,18h-18C113.8,72.9,109.7,68.9,109.7,63.9z M118.7,90.9
	h18h18h18h63v27h-180v-27H118.7z M55.7,234.9v-99h180v99H55.7z"/>
<path class="st0" d="M289.7,468.9h180v-54c0-24.8-20.2-45-45-45h-4.9c8.6-9.6,13.9-22.2,13.9-36c0-29.8-24.2-54-54-54
	c-29.8,0-54,24.2-54,54c0,13.8,5.3,26.4,13.9,36h-4.9c-24.8,0-45,20.2-45,45V468.9z M343.7,333.9c0-19.9,16.1-36,36-36
	s36,16.1,36,36c0,19.9-16.1,36-36,36S343.7,353.8,343.7,333.9z M307.7,414.9c0-14.9,12.1-27,27-27h90c14.9,0,27,12.1,27,27v36h-144
	V414.9z"/>
<rect x="379.7" y="243.9" class="st0" width="18" height="18"/>
<rect x="379.7" y="207.9" class="st0" width="18" height="18"/>
<rect x="379.7" y="171.9" class="st0" width="18" height="18"/>
<rect x="379.7" y="135.9" class="st0" width="18" height="18"/>
<rect x="343.7" y="135.9" class="st0" width="18" height="18"/>
<rect x="307.7" y="135.9" class="st0" width="18" height="18"/>
<rect x="271.7" y="135.9" class="st0" width="18" height="18"/>
<rect x="253.7" y="414.9" class="st0" width="18" height="18"/>
<rect x="217.7" y="414.9" class="st0" width="18" height="18"/>
<rect x="181.7" y="414.9" class="st0" width="18" height="18"/>
<rect x="145.7" y="414.9" class="st0" width="18" height="18"/>
<rect x="145.7" y="378.9" class="st0" width="18" height="18"/>
<rect x="145.7" y="342.9" class="st0" width="18" height="18"/>
<rect x="145.7" y="306.9" class="st0" width="18" height="18"/>
<rect x="145.7" y="270.9" class="st0" width="18" height="18"/>
</svg>
