<?xml version="1.0" encoding="utf-8"?>
<!-- Generator: Adobe Illustrator 24.1.0, SVG Export Plug-In . SVG Version: 6.00 Build 0)  -->
<svg version="1.1" id="Layer_1" xmlns="http://www.w3.org/2000/svg" xmlns:xlink="http://www.w3.org/1999/xlink" x="0px" y="0px"
	 viewBox="0 0 512 512" style="enable-background:new 0 0 512 512;" xml:space="preserve">
<style type="text/css">
	.st0{fill:#FFFFFF;}
	.st1{fill:#FFFFFF;stroke:#FFFFFF;stroke-width:3;stroke-miterlimit:10;}
	.st2{fill:#FFFFFF;stroke:#FFFFFF;stroke-width:4;stroke-miterlimit:10;}
	.st3{fill:#FFFFFF;stroke:#FFFFFF;stroke-width:5;stroke-miterlimit:10;}
	.st4{fill-rule:evenodd;clip-rule:evenodd;fill:#FFFFFF;stroke:#FFFFFF;stroke-width:2;stroke-miterlimit:10;}
</style>
<g>
	<rect x="175.6" y="65.2" class="st0" width="15.2" height="15.2"/>
	<rect x="206" y="65.2" class="st0" width="60.9" height="15.2"/>
	<path class="st0" d="M449.6,369.6c-7.2,0-14.1,2.5-19.6,7.2c-5.5-9.1-15.4-14.7-26.1-14.8c-7.2,0-14.1,2.5-19.6,7.2
		c-2.7-4.4-6.4-8.1-10.9-10.7V88.1c0-29.4-23.9-53.2-53.3-53.3H152.7c-29.4,0-53.2,23.9-53.3,53.3v139c-10,3.3-18.2,10.5-22.7,20.1
		l-30.5,66.1c-5.1,11-7.7,23-7.7,35.1v143.1h15.2V348.3c0-9.9,2.1-19.7,6.3-28.7l30.5-66.1c1.9-4,5-7.4,8.8-9.7v133.4
		c0,2.5,0.2,5,0.6,7.5l-4.9,8.4l13.2,7.6l45.7-79.1c2-3.5,5.3-6.1,9.2-7.2c3.9-1,8.1-0.5,11.6,1.5c7.3,4.2,9.7,13.6,5.6,20.9
		l-34.2,59.3c-1.3,2.4-1.3,5.4,0.1,7.8l16.4,27.1c3.5,5.9,5.4,12.7,5.4,19.6v40.6h15.2v-40.6c0-6.9-1.4-13.8-4-20.2h46.2
		c0.7,2.8,1.7,5.4,3,7.9l32.8,56.8l13.2-7.6l-32.8-56.8c-4.5-7.1-2.4-16.5,4.7-21s16.5-2.4,21,4.7c0.2,0.4,0.4,0.7,0.6,1.1
		l15.2,26.3c1.8,3,5.3,4.4,8.6,3.6c3.3-0.9,5.6-3.9,5.6-7.4V308.8c0-8.4,6.8-15.2,15.2-15.2c8.4,0,15.2,6.8,15.2,15.2v106.5
		c0,4.2,3.4,7.6,7.6,7.6c4.2,0,7.6-3.4,7.6-7.6v-30.4c0-8.4,6.8-15.2,15.2-15.2c8.4,0,15.2,6.8,15.2,15.2v30.4
		c0,4.2,3.4,7.6,7.6,7.6s7.6-3.4,7.6-7.6v-22.8c0-8.4,6.8-15.2,15.2-15.2c8.4,0,15.2,6.8,15.2,15.2v22.8c0,4.2,3.4,7.6,7.6,7.6
		s7.6-3.4,7.6-7.6v-15.2c0-8.4,6.8-15.2,15.2-15.2s15.2,6.8,15.2,15.2v91.3H480v-91.3C480,383.3,466.4,369.6,449.6,369.6z
		 M251.7,384.9h-30.4c-4.2,0-7.6-3.4-7.6-7.6s3.4-7.6,7.6-7.6h30.4c4.2,0,7.6,3.4,7.6,7.6S255.9,384.9,251.7,384.9z M358.2,354.4
		c-5.3,0-10.6,1.4-15.2,4.1v-49.8c0-16.8-13.6-30.4-30.4-30.4c-16.8,0-30.4,13.6-30.4,30.4v101l-1-1.8c-3.4-6-8.9-10.6-15.3-13
		c5.5-4.3,8.7-10.8,8.7-17.7c0-12.6-10.2-22.8-22.8-22.8h-30.4c-12.6,0-22.8,10.2-22.8,22.8c0,12.6,10.2,22.8,22.8,22.8H235
		c-4.7,4-8.1,9.3-9.7,15.2h-54.6l-9.2-15.3l32-55.4c8.4-14.6,3.4-33.2-11.1-41.6s-33.2-3.4-41.6,11.1l-26.2,45.3V88.1
		c0-21,17-38.1,38.1-38.1h167.4c21,0,38.1,17,38.1,38.1V354.4z"/>
	<path class="st0" d="M305,194.6c4.2,0,7.6-3.4,7.6-7.6v-15.2c0-21-17-38.1-38.1-38.1h-76.1c-21,0-38.1,17-38.1,38.1V187
		c0,4.2,3.4,7.6,7.6,7.6h7.6v15.2H168c-4.2,0-7.6,3.4-7.6,7.6v22.8c0,8.4,6.8,15.2,15.2,15.2h121.8c8.4,0,15.2-6.8,15.2-15.2v-22.8
		c0-4.2-3.4-7.6-7.6-7.6h-7.6v-15.2H305z M297.3,240.3H175.6V225h121.8V240.3z M190.8,209.8v-15.2h91.3v15.2H190.8z M175.6,179.4
		v-7.6c0-12.6,10.2-22.8,22.8-22.8v15.2h15.2v-15.2h15.2v15.2h15.2v-15.2h15.2v15.2h15.2v-15.2c12.6,0,22.8,10.2,22.8,22.8v7.6
		H175.6z"/>
</g>
</svg>
