<?xml version="1.0" encoding="utf-8"?>
<!-- Generator: Adobe Illustrator 24.1.0, SVG Export Plug-In . SVG Version: 6.00 Build 0)  -->
<svg version="1.1" id="Layer_1" xmlns="http://www.w3.org/2000/svg" xmlns:xlink="http://www.w3.org/1999/xlink" x="0px" y="0px"
	 viewBox="0 0 512 512" style="enable-background:new 0 0 512 512;" xml:space="preserve">
<style type="text/css">
	.st0{fill:#FFFFFF;}
	.st1{fill:#FFFFFF;stroke:#FFFFFF;stroke-width:3;stroke-miterlimit:10;}
	.st2{fill:#FFFFFF;stroke:#FFFFFF;stroke-width:4;stroke-miterlimit:10;}
	.st3{fill:#FFFFFF;stroke:#FFFFFF;stroke-width:5;stroke-miterlimit:10;}
	.st4{fill-rule:evenodd;clip-rule:evenodd;fill:#FFFFFF;stroke:#FFFFFF;stroke-width:2;stroke-miterlimit:10;}
</style>
<g>
	<path class="st0" d="M356.7,339l-62.4-41.6v-63l62.4-41.6l62.4,41.6v63L356.7,339z M314.1,286.5l42.7,29.1l42.7-28.5v-42
		l-42.7-28.6L314.1,245V286.5z"/>
	<rect x="346.9" y="274.6" class="st0" width="19.7" height="52.5"/>
	<polygon class="st0" points="356.7,286.5 298.7,247.9 309.7,231.5 356.7,262.8 403.7,231.5 414.8,247.9 	"/>
	<rect x="255" y="182.8" class="st0" width="19.7" height="236.3"/>
	<rect x="346.9" y="353.4" class="st0" width="19.7" height="39.4"/>
	<rect x="163.1" y="156.5" class="st0" width="19.7" height="236.3"/>
	<polygon class="st0" points="458.5,432 356.7,403 264.9,429.3 173,403 71.2,432 71.2,175.3 173,146.3 264.9,172.5 311.5,159.1 
		316.8,178.2 264.9,193 173,166.7 90.9,190.1 90.9,405.9 173,382.6 264.9,408.8 356.7,382.6 438.8,405.9 438.8,190.1 396.7,178.2 
		402,159.1 458.5,175.3 	"/>
	<path class="st0" d="M356.7,181.6l-5.6-3.9c-5.8-4.1-56.7-40.6-56.7-73.8c0-34.4,27.9-62.4,62.4-62.4s62.4,27.9,62.4,62.4
		c0,33.2-50.9,69.7-56.7,73.8L356.7,181.6z M356.7,61.3c-23.6,0-42.7,19.1-42.7,42.7c0,15.8,24.2,39.4,42.7,53.4
		c18.5-14,42.7-37.8,42.7-53.4C399.4,80.4,380.3,61.3,356.7,61.3L356.7,61.3z"/>
	<path class="st0" d="M356.7,115.4c10.9,0,19.7-8.8,19.7-19.7S367.6,76,356.7,76c-10.9,0-19.7,8.8-19.7,19.7
		S345.9,115.4,356.7,115.4z"/>
</g>
</svg>
