<?xml version="1.0" encoding="utf-8"?>
<!-- Generator: Adobe Illustrator 24.1.0, SVG Export Plug-In . SVG Version: 6.00 Build 0)  -->
<svg version="1.1" id="Layer_1" xmlns="http://www.w3.org/2000/svg" xmlns:xlink="http://www.w3.org/1999/xlink" x="0px" y="0px"
	 viewBox="0 0 512 512" style="enable-background:new 0 0 512 512;" xml:space="preserve">
<style type="text/css">
	.st0{fill:#FFFFFF;}
	.st1{fill:#FFFFFF;stroke:#FFFFFF;stroke-width:3;stroke-miterlimit:10;}
	.st2{fill:#FFFFFF;stroke:#FFFFFF;stroke-width:4;stroke-miterlimit:10;}
	.st3{fill:#FFFFFF;stroke:#FFFFFF;stroke-width:5;stroke-miterlimit:10;}
	.st4{fill-rule:evenodd;clip-rule:evenodd;fill:#FFFFFF;stroke:#FFFFFF;stroke-width:2;stroke-miterlimit:10;}
</style>
<g>
	<path class="st0" d="M461,378l-29.3-29.3c29.3-36,22.2-89.5-15.5-118.8c-15.5-12.1-32.6-17.1-51.4-17.1c-22.2,0-44.7,8.8-60.2,25.9
		c-32.6,32.6-32.6,85.7,0,118.8c30.9,30.9,77.4,32.6,111.6,6.7l29.3,29.3c3.3,3.3,8.8,3.3,13.8,0l0,0C464.3,388,464.3,383,461,378
		C462.7,379.6,461,378,461,378z M321.7,343.7c-25.9-25.9-25.9-66.9,0-91.2c25.9-25.9,66.9-25.9,91.2,0c25.9,25.9,25.9,66.9,0,91.2
		c-12.1,12.1-29.3,18.8-46.4,18.8C349.3,362.5,333.9,355.4,321.7,343.7L321.7,343.7z"/>
	<g>
		<rect x="113.9" y="187.3" class="st0" width="123.8" height="17.1"/>
	</g>
	<g>
		<rect x="113.9" y="249.2" class="st0" width="123.8" height="17.1"/>
	</g>
	<g>
		<polygon class="st0" points="246.1,338.2 48.7,338.2 48.7,123.7 318.4,123.7 318.4,194 301.2,194 301.2,140.9 65.8,140.9 
			65.8,321.1 246.1,321.1 		"/>
	</g>
</g>
</svg>
