<?xml version="1.0" encoding="utf-8"?>
<!-- Generator: Adobe Illustrator 24.1.0, SVG Export Plug-In . SVG Version: 6.00 Build 0)  -->
<svg version="1.1" id="Layer_1" xmlns="http://www.w3.org/2000/svg" xmlns:xlink="http://www.w3.org/1999/xlink" x="0px" y="0px"
	 viewBox="0 0 512 512" style="enable-background:new 0 0 512 512;" xml:space="preserve">
<style type="text/css">
	.st0{fill:#FFFFFF;}
	.st1{fill:#FFFFFF;stroke:#FFFFFF;stroke-width:3;stroke-miterlimit:10;}
	.st2{fill:#FFFFFF;stroke:#FFFFFF;stroke-width:4;stroke-miterlimit:10;}
	.st3{fill:#FFFFFF;stroke:#FFFFFF;stroke-width:5;stroke-miterlimit:10;}
	.st4{fill-rule:evenodd;clip-rule:evenodd;fill:#FFFFFF;stroke:#FFFFFF;stroke-width:2;stroke-miterlimit:10;}
</style>
<g>
	<g>
		<path class="st0" d="M190.8,320.9l-47.4-21.6c-2.4-1.1-5.3-0.9-7.5,0.5c-2.2,1.4-3.6,3.9-3.6,6.6v43.2c0,3.1,1.8,5.9,4.6,7.1
			l47.4,21.6c1,0.5,2.1,0.7,3.3,0.7c1.5,0,3-0.4,4.2-1.3c2.2-1.4,3.6-3.9,3.6-6.6V328C195.4,325,193.6,322.2,190.8,320.9z
			 M179.7,359L148,344.6v-25.9l31.7,14.4V359z"/>
		<path class="st0" d="M367,299.8c-2.3-1.5-5.1-1.7-7.5-0.5l-47.4,21.6c-2.8,1.3-4.6,4.1-4.6,7.1v43.2c0,2.7,1.4,5.2,3.6,6.6
			c1.3,0.8,2.8,1.3,4.2,1.3c1.1,0,2.2-0.2,3.3-0.7l47.4-21.6c2.8-1.3,4.6-4.1,4.6-7.1v-43.2C370.6,303.8,369.2,301.3,367,299.8z
			 M354.9,344.6L323.2,359v-25.9l31.7-14.4V344.6z"/>
		<path class="st0" d="M423.7,206.1c-0.1-0.3-0.2-0.5-0.3-0.7c-0.3-0.6-0.7-1.2-1.1-1.7c-0.2-0.2-0.3-0.4-0.5-0.5
			c-0.6-0.6-1.3-1.1-2.1-1.5l-0.2-0.1l0,0l-81.6-37.2V118c0-45.5-37-82.5-82.5-82.5s-82.5,37-82.5,82.5v35.3h-23.6
			c-3.3,0-6.2,2-7.4,5.1c-1.1,3.1-0.2,6.5,2.3,8.7l5.1,4.4l-66.1,30.1c-0.8,0.4-1.5,0.9-2.1,1.5c-0.2,0.2-0.3,0.4-0.5,0.5
			c-0.5,0.5-0.8,1.1-1.1,1.7c-0.1,0.2-0.2,0.5-0.3,0.7c-0.3,0.9-0.6,1.8-0.6,2.7v195.3c0,3.1,1.8,5.9,4.6,7.1l164.9,75.1
			c0.1,0.1,0.2,0,0.4,0.1c0.9,0.4,1.9,0.6,2.9,0.6c0,0,0,0,0.1,0c1,0,1.9-0.3,2.8-0.6c0.1,0,0.3,0,0.4-0.1l164.9-75.1
			c2.8-1.3,4.6-4.1,4.6-7.1V208.8C424.2,207.8,424,206.9,423.7,206.1z M180.8,169c4.3,0,7.9-3.5,7.9-7.9V118
			c0-36.8,29.9-66.8,66.8-66.8s66.8,29.9,66.8,66.8v74.6h-31.4V118c0-19.5-15.9-35.3-35.3-35.3S220,98.5,220,118v43.2
			c0,4.3,3.5,7.9,7.9,7.9h10.2l-33.7,28.9l-31.9-27.4c-0.1-0.3-0.1-0.5-0.2-0.8c-0.1-0.3-0.4-0.5-0.5-0.8H180.8z M162.5,182.8
			l36.7,31.4c1.5,1.3,3.3,1.9,5.1,1.9c1.8,0,3.6-0.6,5.1-1.9l55-47.1c2.5-2.1,3.4-5.6,2.3-8.7c-1.1-3.1-4.1-5.1-7.4-5.1h-23.6V118
			c0-10.8,8.8-19.6,19.6-19.6c10.8,0,19.6,8.8,19.6,19.6v82.5c0,4.3,3.5,7.9,7.9,7.9H330c4.3,0,7.9-3.5,7.9-7.9v-18.8l59.6,27.1
			l-146,66.5l-146-66.5L162.5,182.8z M94.4,399V221l149.2,68v178L94.4,399z M259.3,467V289l149.2-68v178L259.3,467z"/>
	</g>
</g>
</svg>
