<?xml version="1.0" encoding="utf-8"?>
<!-- Generator: Adobe Illustrator 24.1.0, SVG Export Plug-In . SVG Version: 6.00 Build 0)  -->
<svg version="1.1" id="Layer_1" xmlns="http://www.w3.org/2000/svg" xmlns:xlink="http://www.w3.org/1999/xlink" x="0px" y="0px"
	 viewBox="0 0 512 512" style="enable-background:new 0 0 512 512;" xml:space="preserve">
<style type="text/css">
	.st0{fill:#FFFFFF;}
	.st1{fill:#FFFFFF;stroke:#FFFFFF;stroke-width:3;stroke-miterlimit:10;}
	.st2{fill:#FFFFFF;stroke:#FFFFFF;stroke-width:4;stroke-miterlimit:10;}
	.st3{fill:#FFFFFF;stroke:#FFFFFF;stroke-width:5;stroke-miterlimit:10;}
	.st4{fill-rule:evenodd;clip-rule:evenodd;fill:#FFFFFF;stroke:#FFFFFF;stroke-width:2;stroke-miterlimit:10;}
</style>
<g>
	<g>
		<g>
			<path class="st0" d="M67.2,96.4h364c3.4,0,6.2,2.8,6.2,6.2v220.2c0,3.4-2.8,6.2-6.2,6.2h-364c-3.4,0-6.2-2.8-6.2-6.2V102.6
				C61,99.2,63.8,96.4,67.2,96.4z M425.1,108.8H73.5v207.8h351.6C425.1,316.6,425.1,108.8,425.1,108.8z"/>
			<path class="st0" d="M286.2,78.6h44.5c3.2,0,5.8,2.4,6.2,5.5l3.5,17.2l0,0c0.7,3.4-1.5,6.6-4.8,7.3c-0.4,0.1-0.9,0.1-1.3,0.1
				h-44.5c-3.2,0-5.8-2.4-6.2-5.5l-3.5-17.2l0,0c-0.7-3.4,1.5-6.6,4.8-7.3C285.3,78.7,285.8,78.6,286.2,78.6z M325.7,91.1h-31.9
				l1.1,5.2h31.9L325.7,91.1z M386,354.5l18.3,89.4l0,0c0.7,3.4-1.5,6.6-4.8,7.3c-0.4,0.1-0.9,0.1-1.3,0.1h-44.5
				c-3.2,0-5.8-2.4-6.2-5.5l-18.3-89.4l0,0c-0.7-3.4,1.5-6.6,4.8-7.3c0.4-0.1,0.9-0.1,1.3-0.1h44.5C383,349.1,385.6,351.4,386,354.5
				L386,354.5z M390.6,438.9l-15.8-77.4h-31.9l15.8,77.4H390.6L390.6,438.9z"/>
			<path class="st0" d="M204.8,91.1h-31.9l-1.1,5.2h31.9L204.8,91.1z M167.8,78.6h44.5c0.4,0,0.9,0,1.3,0.1c3.4,0.7,5.5,4,4.8,7.3
				l0,0l-3.5,17.2c-0.4,3.1-3,5.5-6.2,5.5h-44.5c-0.4,0-0.9,0-1.3-0.1c-3.4-0.7-5.5-4-4.8-7.3l0,0l3.5-17.2
				C162,81,164.6,78.6,167.8,78.6L167.8,78.6z M123.7,361.5l-15.8,77.4h31.9l15.8-77.4H123.7L123.7,361.5z M94.3,443.9l18.3-89.4
				c0.4-3.1,3-5.5,6.2-5.5h44.5c0.4,0,0.9,0,1.3,0.1c3.4,0.7,5.5,4,4.8,7.3l0,0l-18.3,89.4c-0.4,3.1-3,5.5-6.2,5.5h-44.5
				c-0.4,0-0.9,0-1.3-0.1C95.7,450.5,93.6,447.3,94.3,443.9L94.3,443.9L94.3,443.9z"/>
			<path class="st0" d="M61.2,349.1h376.2v-20H61.2L61.2,349.1L61.2,349.1z M443.6,361.5H55c-3.4,0-6.2-2.8-6.2-6.2v-32.4
				c0-3.4,2.8-6.2,6.2-6.2h388.6c3.4,0,6.2,2.8,6.2,6.2v32.4C449.8,358.7,447,361.5,443.6,361.5z"/>
			<path class="st0" d="M157.8,384.8c-3.4,0-6.2,2.8-6.2,6.2c0,3.4,2.8,6.2,6.2,6.2h184.5c3.4,0,6.2-2.8,6.2-6.2
				c0-3.4-2.8-6.2-6.2-6.2H157.8z"/>
			<path class="st0" d="M168.5,280.5c-18.7,0.1-35.7-7.5-48-19.7c-12.3-12.2-19.9-29.1-20-47.9c-0.1-18.7,7.5-35.7,19.7-48
				c12.2-12.3,29.1-19.9,47.9-20c18.7-0.1,35.7,7.5,48,19.7c12.3,12.2,19.9,29.1,20,47.9c0.1,18.7-7.5,35.7-19.7,48
				C204.1,272.8,187.2,280.4,168.5,280.5L168.5,280.5z M129.3,252c10,10,23.9,16.2,39.2,16.1c15.3,0,29.1-6.3,39.1-16.3
				c10-10,16.2-23.9,16.1-39.2c0-15.3-6.3-29.1-16.3-39.1c-10-10-23.9-16.2-39.2-16.1c-15.3,0-29.1,6.3-39.1,16.3
				c-10,10.1-16.2,23.9-16.1,39.2C113,228.2,119.2,242,129.3,252L129.3,252z"/>
			<path class="st0" d="M162.1,206.6l-0.2-55.4h0c0-3.4,2.8-6.2,6.2-6.2c0.2,0,0.4,0,0.6,0c18.5,0.1,35.2,7.6,47.4,19.7
				c12.3,12.2,19.9,29.1,20,47.9c0.1,18.7-7.5,35.7-19.7,48c-12.2,12.3-29.1,19.9-47.9,20c-18.7,0.1-35.7-7.5-48-19.7
				c-12.3-12.2-19.9-29.1-20-47.9h0c0-3.4,2.8-6.2,6.2-6.2c0.2,0,0.4,0,0.5,0L162.1,206.6L162.1,206.6z M174.3,157.7l0.2,54.5
				c0,0.2,0,0.4,0,0.5c0,3.4-2.8,6.2-6.2,6.2l0-6.2v6.2l-55,0.2c1.5,12.8,7.3,24.3,16,32.9c10,10,23.9,16.2,39.2,16.1
				c15.3,0,29.1-6.3,39.1-16.3c10-10,16.2-23.9,16.1-39.2c0-15.3-6.3-29.1-16.3-39.1C198.7,164.8,187.2,159.1,174.3,157.7
				L174.3,157.7z"/>
			<path class="st0" d="M166.4,206.5l49.8-32.9l3.4,5.2l-3.4-5.2c2.9-1.9,6.7-1.1,8.6,1.8c0.1,0.1,0.2,0.2,0.2,0.4
				c3.5,5.4,6.2,11.3,8.1,17.4c1.9,6.2,2.8,12.7,2.9,19.4c0.1,18.7-7.5,35.7-19.7,48c-12.2,12.3-29.1,19.9-47.9,20
				c-18.7,0.1-35.7-7.5-48-19.7c-12.3-12.2-19.9-29.1-20-47.9h0c0-3.4,2.8-6.2,6.2-6.2c0.2,0,0.4,0,0.5,0L166.4,206.5L166.4,206.5z
				 M217.6,187.6l-45.6,30.1c-1,0.8-2.3,1.3-3.7,1.3l0-6.2v6.2l-55,0.2c1.5,12.8,7.3,24.3,16,32.9c10,10,23.9,16.2,39.2,16.1
				c15.3,0,29.1-6.3,39.1-16.3c10-10,16.2-23.9,16.1-39.2c0-5.3-0.8-10.7-2.4-15.8C220.3,193.6,219.1,190.5,217.6,187.6L217.6,187.6
				z"/>
			<path class="st0" d="M278.1,285.1h14.6v-89.7h-14.6V285.1z M298.9,297.5h-27c-3.4,0-6.2-2.8-6.2-6.2V189.2c0-3.4,2.8-6.2,6.2-6.2
				h27c3.4,0,6.2,2.8,6.2,6.2v102.1C305.1,294.7,302.4,297.5,298.9,297.5L298.9,297.5z"/>
			<path class="st0" d="M321.7,285.1h14.6v-65.8h-14.6V285.1z M342.5,297.5h-27c-3.4,0-6.2-2.8-6.2-6.2V213c0-3.4,2.8-6.2,6.2-6.2
				h27c3.4,0,6.2,2.8,6.2,6.2v78.3C348.7,294.7,345.9,297.5,342.5,297.5L342.5,297.5z"/>
			<path class="st0" d="M365.2,285.1h14.6V165.4h-14.6V285.1z M386,297.5h-27c-3.4,0-6.2-2.8-6.2-6.2V159.2c0-3.4,2.8-6.2,6.2-6.2
				h27c3.4,0,6.2,2.8,6.2,6.2v132.1C392.2,294.7,389.4,297.5,386,297.5L386,297.5z"/>
		</g>
	</g>
</g>
</svg>
