<?xml version="1.0" encoding="utf-8"?>
<!-- Generator: Adobe Illustrator 24.1.0, SVG Export Plug-In . SVG Version: 6.00 Build 0)  -->
<svg version="1.1" id="Layer_1" xmlns="http://www.w3.org/2000/svg" xmlns:xlink="http://www.w3.org/1999/xlink" x="0px" y="0px"
	 viewBox="0 0 512 512" style="enable-background:new 0 0 512 512;" xml:space="preserve">
<style type="text/css">
	.st0{fill:#FFFFFF;}
	.st1{fill:#FFFFFF;stroke:#FFFFFF;stroke-width:3;stroke-miterlimit:10;}
	.st2{fill:#FFFFFF;stroke:#FFFFFF;stroke-width:4;stroke-miterlimit:10;}
	.st3{fill:#FFFFFF;stroke:#FFFFFF;stroke-width:5;stroke-miterlimit:10;}
	.st4{fill-rule:evenodd;clip-rule:evenodd;fill:#FFFFFF;stroke:#FFFFFF;stroke-width:2;stroke-miterlimit:10;}
</style>
<g>
	<path class="st0" d="M457.1,206.7l-32.3-32.3c-2-2-4.5-3-7-3s-5,1-7,3l-93.5,93c-13.4-6.5-27.8-11.4-43.3-14.9
		c23.9-16.9,39.8-46.2,39.8-79.5c0-52.2-38.3-94.5-85.5-94.5s-85.5,42.3-85.5,94.5c0,33.3,15.9,62.6,39.8,79.5
		c-29.8,6.5-57.7,19.9-80,38.8c-34.3,28.3-53.2,66.6-53.2,107.4c0,15.4,18.4,24.4,61.2,30.8c31.3,4.5,73.1,7,117.8,7
		s86.5-2.5,117.8-7c42.8-6.5,61.2-15.4,61.2-30.8c0-33.3-12.9-65.1-36.3-91.5l86-86C461.1,217.1,461.1,210.7,457.1,206.7z
		 M162.7,172.9c0-41.3,29.3-74.6,65.6-74.6s65.6,33.3,65.6,74.6s-29.3,74.6-65.6,74.6S162.7,214.2,162.7,172.9z M387.5,397.1
		c-7.5,8-62.1,19.4-159.1,19.4S77.2,405.1,69.3,397.1c0.5-34.3,16.4-66.6,45.7-91c30.3-24.9,70.6-38.8,113.4-38.8
		c25.9,0,51.2,5.5,74.1,14.9l-32.8,32.8l-39.3-31.3c-4.5-3.5-10.4-3-13.9,1.5L187.6,321c-1.5,2-2.5,4.5-2,7.5s1.5,5,3.5,6.5
		l78.1,62.6c2,1.5,4,2,6,2c2.5,0,5-1,7-3l76.1-76.1C376.5,343.4,387,369.8,387.5,397.1z M273.1,376.7L209.5,326l16.4-20.4l38.3,30.8
		c4,3,9.4,3,13.4-0.5l140.2-140.2l18.4,18.4L273.1,376.7z"/>
</g>
</svg>
