<?xml version="1.0" encoding="utf-8"?>
<!-- Generator: Adobe Illustrator 25.1.0, SVG Export Plug-In . SVG Version: 6.00 Build 0)  -->
<svg version="1.1" id="Layer_1" xmlns="http://www.w3.org/2000/svg" xmlns:xlink="http://www.w3.org/1999/xlink" x="0px" y="0px"
	 viewBox="0 0 32 32" style="enable-background:new 0 0 32 32;" xml:space="preserve">
<style type="text/css">
	.st0{fill:#FFFFFF;}
</style>
<path class="st0" d="M28,26h-5.4c5.5-3.7,7-11.1,3.4-16.6S14.9,2.3,9.4,6S2.3,17.1,6,22.6C8.2,26,12,28,16,28h12c0.6,0,1-0.4,1-1
	S28.6,26,28,26z M22,13c1.7,0,3,1.3,3,3s-1.3,3-3,3s-3-1.3-3-3S20.3,13,22,13z M16,7c1.7,0,3,1.3,3,3s-1.3,3-3,3s-3-1.3-3-3
	S14.3,7,16,7z M18,16c0,1.1-0.9,2-2,2s-2-0.9-2-2s0.9-2,2-2S18,14.9,18,16z M10,19c-1.7,0-3-1.3-3-3s1.3-3,3-3s3,1.3,3,3
	S11.7,19,10,19z M13,22c0-1.7,1.3-3,3-3s3,1.3,3,3s-1.3,3-3,3S13,23.7,13,22z"/>
</svg>
