<svg xmlns="http://www.w3.org/2000/svg" width="381" height="372"><defs><clipPath id="a"><path d="M0 0h381v372H0z"/></clipPath></defs><g data-name="Banner image" clip-path="url(#a)"><g data-name="Group 182"><g data-name="Group 174" transform="translate(-39.941 -1)"><g data-name="Group 77" fill="#ebebeb"><path data-name="Rectangle 110" d="M394.175 324.909h31.326v.236h-31.326z"/><path data-name="Rectangle 111" d="M305.034 327.476h8.222v.236h-8.222z"/><path data-name="Rectangle 112" d="M375.077 316.127h18.151v.236h-18.151z"/><path data-name="Rectangle 113" d="M49.614 317.716h40.851v.236H49.614z"/><path data-name="Rectangle 114" d="M98.885 317.716h5.99v.236h-5.99z"/><path data-name="Rectangle 115" d="M124.341 321.709h88.595v.236h-88.595z"/><path data-name="Path 261" d="M224.16 267.507H41.533a5.405 5.405 0 0 1-5.4-5.4V5.397a5.4 5.4 0 0 1 5.4-5.4H224.16a5.4 5.4 0 0 1 5.4 5.4v256.711a5.4 5.4 0 0 1-5.4 5.399ZM41.533.236a5.167 5.167 0 0 0-5.162 5.161v256.711a5.167 5.167 0 0 0 5.162 5.162H224.16a5.167 5.167 0 0 0 5.161-5.162V5.397A5.167 5.167 0 0 0 224.16.236Z"/><path data-name="Path 262" d="M428.726 267.507H246.097a5.4 5.4 0 0 1-5.4-5.4V5.397a5.4 5.4 0 0 1 5.4-5.4h182.629a5.4 5.4 0 0 1 5.4 5.4v256.711a5.405 5.405 0 0 1-5.4 5.399ZM246.097.236a5.167 5.167 0 0 0-5.161 5.161v256.711a5.167 5.167 0 0 0 5.161 5.162h182.629a5.168 5.168 0 0 0 5.162-5.162V5.397a5.168 5.168 0 0 0-5.162-5.161Z"/><path data-name="Rectangle 116" d="M0 309.686h472.882v.236H0z"/></g><g data-name="Group 83"><g data-name="Group 80"><path data-name="Rectangle 117" fill="#ebebeb" d="M276.123 37.562h118.018v125.683H276.123z"/><path data-name="Rectangle 118" fill="#f5f5f5" d="M283.216 44.655h103.831v111.498H283.216z"/><g data-name="Group 78" fill="#fafafa"><path data-name="Path 263" d="M323.972 156.152h31.21l29.3-111.5h-31.21Z"/><path data-name="Path 264" d="m338.771 44.655-29.3 111.5h7.566l29.3-111.5Z"/></g><g data-name="Group 79"><path data-name="Path 265" d="M395.637 43.476h-121.01l-2.554-5.958h126.118Z" fill="#f5f5f5"/><path data-name="Path 266" d="M395.637 46.928h-121.01l-2.554-5.958h126.118Z" fill="#f0f0f0"/><path data-name="Path 267" d="M395.637 50.379h-121.01l-2.554-5.958h126.118Z" fill="#e6e6e6"/><path data-name="Path 268" d="M395.637 53.83h-121.01l-2.554-5.958h126.118Z" fill="#e0e0e0"/><path data-name="Rectangle 119" fill="#e0e0e0" d="M267.675 30.055h134.913V38H267.675z"/><path data-name="Path 269" d="M269.06 110.029a1.373 1.373 0 0 1-1.373-1.373V62.32a1.373 1.373 0 0 1 1.373-1.373 1.373 1.373 0 0 1 1.372 1.373v46.332a1.373 1.373 0 0 1-1.372 1.377Z" fill="#e0e0e0"/><path data-name="Rectangle 120" fill="#e0e0e0" d="M268.564 36.407h.993v27.52h-.993z"/></g></g><g data-name="Group 82"><g data-name="Group 81" fill="#e0e0e0"><path data-name="Rectangle 121" d="M83.913 35.129h1.702v132.753h-1.702z"/><path data-name="Rectangle 122" d="M189.886 35.129h1.702v132.753h-1.702z"/></g><path data-name="Path 270" d="M198.256 43.476H77.245l-2.554-5.958H200.81Z" fill="#f5f5f5"/><path data-name="Path 271" d="M198.256 51.657H77.245l-2.554-5.958H200.81Z" fill="#f5f5f5"/><path data-name="Path 272" d="M198.256 59.836H77.245l-2.554-5.958H200.81Z" fill="#f5f5f5"/><path data-name="Path 273" d="M198.256 68.016H77.245l-2.554-5.958H200.81Z" fill="#f5f5f5"/><path data-name="Path 274" d="M198.256 76.197H77.245l-2.554-5.958H200.81Z" fill="#f5f5f5"/><path data-name="Path 275" d="M198.256 84.377H77.245l-2.554-5.958H200.81Z" fill="#f5f5f5"/><path data-name="Path 276" d="M198.256 92.558H77.245L74.691 86.6H200.81Z" fill="#f5f5f5"/><path data-name="Path 277" d="M198.256 100.738H77.245l-2.554-5.958H200.81Z" fill="#f5f5f5"/><path data-name="Path 278" d="M198.256 108.918H77.245l-2.554-5.958H200.81Z" fill="#f5f5f5"/><path data-name="Path 279" d="M198.256 117.099H77.245l-2.554-5.958H200.81Z" fill="#f5f5f5"/><path data-name="Path 280" d="M198.256 125.279H77.245l-2.554-5.958H200.81Z" fill="#f5f5f5"/><path data-name="Path 281" d="M198.256 133.458H77.245l-2.554-5.958H200.81Z" fill="#f5f5f5"/><path data-name="Path 282" d="M198.256 141.639H77.245l-2.554-5.958H200.81Z" fill="#f5f5f5"/><path data-name="Path 283" d="M198.256 149.819H77.245l-2.554-5.958H200.81Z" fill="#f5f5f5"/><path data-name="Path 284" d="M198.256 158H77.245l-2.554-5.958H200.81Z" fill="#f5f5f5"/><path data-name="Path 285" d="M198.256 166.18H77.245l-2.554-5.958H200.81Z" fill="#f5f5f5"/><path data-name="Rectangle 123" fill="#e0e0e0" d="M74.692 166.18H200.81v3.405H74.692z"/><path data-name="Rectangle 124" fill="#e0e0e0" d="M70.294 30.055h134.913V38H70.294z"/><path data-name="Path 286" d="M71.678 110.029a1.373 1.373 0 0 1-1.372-1.373V62.32a1.373 1.373 0 0 1 1.372-1.373 1.373 1.373 0 0 1 1.373 1.373v46.332a1.373 1.373 0 0 1-1.373 1.377Z" fill="#e0e0e0"/><path data-name="Rectangle 125" fill="#e0e0e0" d="M71.183 36.407h.993v27.52h-.993z"/></g></g><g data-name="Group 88"><g data-name="Group 84"><path data-name="Path 287" d="M84.472 252.92c-.115.13.522 1.018-2.069.629-6.382-.96-17.5-3.545-20.59-10.112-4.419-9.376 9.281-5.954 8.808-10.746s-16.059-3.957-17.715-10.987 8.918-3.682 9.058-7.108-12.041-1.3-14.459-8.884 6.789-2 5.73-5.154-11.363-17.417-5.755-19.073 15.053 12.982 18.7 15.056 6.883-9.873 11.228-4.829-2.546 22.693 3 26.117c4.127 2.551 2.961-4.475 8.409-3.164 7.394 1.782 4.905 27.909-4.345 38.255Z" fill="#ebebeb"/><path data-name="Path 288" d="M64.773 214.635a21.878 21.878 0 0 1 5.516 1.132 41.6 41.6 0 0 0-3.925-5.042.473.473 0 0 1 .673-.665 55.657 55.657 0 0 1 7.861 11.4c2.006-12.093-3.059-22.664-3.112-22.773a.355.355 0 0 1 .637-.312c.056.113 5.462 11.395 3.011 24.086a78.472 78.472 0 0 1 1.96 4.006 89.364 89.364 0 0 1 5.393 15.815 32.466 32.466 0 0 0 3.768-14.435.354.354 0 1 1 .708.022 32.631 32.631 0 0 1-4.23 15.406 110.217 110.217 0 0 1 2.4 32.588.474.474 0 0 1-.505.44c-.02 0-.04 0-.059-.008a.471.471 0 0 1-.38-.5c1.171-17-1.371-30.659-4.889-41a12.992 12.992 0 0 0-7.546-4.305.372.372 0 0 1-.3-.406.355.355 0 0 1 .4-.3 13.348 13.348 0 0 1 6.883 3.421 79.059 79.059 0 0 0-8.063-16.391 19.518 19.518 0 0 0-6.272-1.471.362.362 0 0 1-.323-.384.354.354 0 0 1 .394-.324Z" fill="#f5f5f5"/></g><g data-name="Group 87"><g data-name="Group 86"><path data-name="Path 289" d="M92.651 256.541c5.3.1 14.362-4.825 17.918-9.617 3.609-4.862-6.543-1.846-5.5-5.664s13.558-1 15.868-6.465-6.721-4.211-6.362-7.006 9.714-2.228 12.717-8.041-5.225-2.556-3.934-4.966 11.606-12.549 7.29-14.663-13.986 8.448-17.225 9.626-4-6.116-8.212-2.626-1.06 18.739-6.023 20.752c-3.7 1.5-2.123-5.484-6.378-3.722-7.449 3.084-2.309 32.351-.159 32.392Z" fill="#e0e0e0"/><g data-name="Group 85" opacity=".3"><path data-name="Path 290" d="M92.651 256.541c5.3.1 14.362-4.825 17.918-9.617 3.609-4.862-6.543-1.846-5.5-5.664s13.558-1 15.868-6.465-6.721-4.211-6.362-7.006 9.714-2.228 12.717-8.041-5.225-2.556-3.934-4.966 11.606-12.549 7.29-14.663-13.986 8.448-17.225 9.626-4-6.116-8.212-2.626-1.06 18.739-6.023 20.752c-3.7 1.5-2.123-5.484-6.378-3.722-7.449 3.084-2.309 32.351-.159 32.392Z" fill="#e0e0e0"/></g></g><path data-name="Path 291" d="M94.404 250.175a.336.336 0 0 1-.187-.155 27.9 27.9 0 0 1-2.38-14.218.355.355 0 1 1 .707.056 28.347 28.347 0 0 0 2.147 13.512 108.812 108.812 0 0 1 8.077-17.085c-.938-11.389 4.9-20.714 4.957-20.808a.355.355 0 1 1 .6.381 36.842 36.842 0 0 0-4.916 19.329 99.38 99.38 0 0 1 13.565-18.131.473.473 0 0 1 .662.676 92.166 92.166 0 0 0-10.351 13.088 27.769 27.769 0 0 1 10.028-1.766.355.355 0 0 1-.008.709h-.007a27.22 27.22 0 0 0-10.695 2.083 112.9 112.9 0 0 0-5.772 9.925 11.992 11.992 0 0 1 9.895-1.743.355.355 0 0 1 .253.433.351.351 0 0 1-.433.253 11.433 11.433 0 0 0-10.458 2.529 96.046 96.046 0 0 0-10.284 38.886.472.472 0 0 1-.472.455h-.019a.473.473 0 0 1-.454-.492 93.325 93.325 0 0 1 5.545-27.917Z" fill="#f5f5f5"/></g><path data-name="Path 292" d="M77.735 308.348c-5.063-9.519-8.388-23.273-8.388-29.3a16.832 16.832 0 0 1 6.182-12.872h25.924a16.835 16.835 0 0 1 6.182 12.872c0 6.028-3.326 19.783-8.389 29.3Z" fill="#f0f0f0"/></g><ellipse data-name="&lt;Path&gt;" cx="183.373" cy="10.709" rx="183.373" ry="10.709" transform="translate(48.507 327.343)" fill="#f5f5f5"/><g data-name="Group 110"><g data-name="Group 89"><path data-name="Path 293" d="M276.78 61.18h-22.682a3.292 3.292 0 0 0-3.153 2.578l-.153.71a8.041 8.041 0 0 1-7.7 6.3h-21.566a6.475 6.475 0 0 1-6.6-6.3l-.028-.71a2.651 2.651 0 0 0-2.7-2.578h-22.684a15.249 15.249 0 0 0-14.9 13.7L156.37 283.454a12.351 12.351 0 0 0 12.5 13.7h87.266a15.25 15.25 0 0 0 14.9-13.7l18.248-208.577A12.351 12.351 0 0 0 276.78 61.18Z" fill="#575c60"/><path data-name="Path 437" d="M276.78 61.18h-22.682a3.292 3.292 0 0 0-3.153 2.578l-.153.71a8.041 8.041 0 0 1-7.7 6.3h-21.566a6.475 6.475 0 0 1-6.6-6.3l-.028-.71a2.651 2.651 0 0 0-2.7-2.578h-22.684a15.249 15.249 0 0 0-14.9 13.7L156.37 283.454a12.351 12.351 0 0 0 12.5 13.7h87.266a15.25 15.25 0 0 0 14.9-13.7l18.248-208.577A12.351 12.351 0 0 0 276.78 61.18Z" fill="#fff" opacity=".7"/></g><path data-name="Path 295" d="M267.936 157.113h-46.338a2.745 2.745 0 0 1-2.778-3.043l3.491-39.9a3.389 3.389 0 0 1 3.31-3.043h46.338a2.744 2.744 0 0 1 2.778 3.043l-3.491 39.9a3.389 3.389 0 0 1-3.31 3.043Z" fill="#fff"/><path data-name="Path 296" d="M252.505 281.878h-77.541a6.816 6.816 0 0 1-6.9-7.56 8.414 8.414 0 0 1 8.22-7.559h77.54a6.816 6.816 0 0 1 6.9 7.559 8.415 8.415 0 0 1-8.219 7.56Z" fill="#fff"/><g data-name="Group 91" fill="#fff"><path data-name="Path 297" d="M258.699 100.155h-71.151a3.826 3.826 0 0 1-3.872-4.244l.58-6.63a4.725 4.725 0 0 1 4.615-4.244h71.15a3.826 3.826 0 0 1 3.873 4.244l-.58 6.63a4.725 4.725 0 0 1-4.615 4.244Z"/><g data-name="Group 90"><path data-name="Path 298" d="M273.165 89.065a1.314 1.314 0 0 1-1.284 1.18 1.064 1.064 0 0 1-1.077-1.18 1.314 1.314 0 0 1 1.284-1.181 1.064 1.064 0 0 1 1.077 1.181Z"/><path data-name="Path 299" d="M272.857 92.596a1.316 1.316 0 0 1-1.284 1.181 1.065 1.065 0 0 1-1.078-1.181 1.314 1.314 0 0 1 1.284-1.181 1.065 1.065 0 0 1 1.078 1.181Z"/><path data-name="Path 300" d="M272.548 96.129a1.315 1.315 0 0 1-1.284 1.181 1.065 1.065 0 0 1-1.078-1.181 1.314 1.314 0 0 1 1.284-1.181 1.065 1.065 0 0 1 1.078 1.181Z"/></g></g><path data-name="Path 301" d="M262.176 222.943h-86.57a2.745 2.745 0 0 1-2.778-3.043l3.984-45.543a3.389 3.389 0 0 1 3.31-3.044h86.568a2.744 2.744 0 0 1 2.778 3.044L265.49 219.9a3.388 3.388 0 0 1-3.314 3.043Z" fill="#fff"/><g data-name="Group 102"><g data-name="Group 92"><path data-name="Path 302" d="M199.423 232.46h-26.95a.67.67 0 0 1-.678-.743.828.828 0 0 1 .809-.743h26.945a.67.67 0 0 1 .678.743.828.828 0 0 1-.804.743Z" fill="#fff"/></g><g data-name="Group 93"><path data-name="Path 303" d="M233.111 232.46h-28.933a.671.671 0 0 1-.679-.743.828.828 0 0 1 .809-.743h28.933a.67.67 0 0 1 .678.743.828.828 0 0 1-.808.743Z" fill="#fff"/></g><g data-name="Group 94"><path data-name="Path 304" d="M190.13 239.025h-18.231a.671.671 0 0 1-.679-.743.828.828 0 0 1 .809-.743h18.232a.67.67 0 0 1 .678.743.828.828 0 0 1-.809.743Z" fill="#fff"/></g><g data-name="Group 95"><path data-name="Path 305" d="M224.749 239.025h-29.865a.67.67 0 0 1-.679-.743.828.828 0 0 1 .809-.743h29.865a.67.67 0 0 1 .679.743.828.828 0 0 1-.809.743Z" fill="#fff"/></g><g data-name="Group 96"><path data-name="Path 306" d="M219.929 245.595h-48.6a.67.67 0 0 1-.678-.743.828.828 0 0 1 .809-.743h48.6a.67.67 0 0 1 .678.743.827.827 0 0 1-.809.743Z" fill="#fff"/></g><g data-name="Group 97"><path data-name="Path 307" d="M227.892 245.595h-3.209a.67.67 0 0 1-.679-.743.828.828 0 0 1 .809-.743h3.209a.67.67 0 0 1 .679.743.827.827 0 0 1-.809.743Z" fill="#fff"/></g><g data-name="Group 98"><path data-name="Path 308" d="M193.443 252.163h-22.695a.67.67 0 0 1-.679-.743.828.828 0 0 1 .809-.743h22.693a.67.67 0 0 1 .679.743.827.827 0 0 1-.807.743Z" fill="#fff"/></g><g data-name="Group 99"><path data-name="Path 309" d="M226.45 252.163h-28.254a.67.67 0 0 1-.679-.743.828.828 0 0 1 .809-.743h28.255a.67.67 0 0 1 .678.743.827.827 0 0 1-.809.743Z" fill="#fff"/></g><g data-name="Group 100"><path data-name="Path 310" d="M198.117 258.732h-27.942a.67.67 0 0 1-.678-.743.827.827 0 0 1 .809-.744h27.942a.67.67 0 0 1 .678.744.828.828 0 0 1-.809.743Z" fill="#fff"/></g><g data-name="Group 101"><path data-name="Path 311" d="M225.38 258.732h-22.509a.67.67 0 0 1-.679-.743.828.828 0 0 1 .809-.744h22.505a.671.671 0 0 1 .679.744.828.828 0 0 1-.805.743Z" fill="#fff"/></g></g><g data-name="Group 109"><g data-name="Group 103"><path data-name="Path 312" d="M266.835 153.337a.957.957 0 0 1-1.342.085l-38.706-36.941a.941.941 0 0 1 .032-1.335.958.958 0 0 1 1.342-.084l38.706 36.94a.942.942 0 0 1-.032 1.335Z" fill="#263238"/></g><g data-name="Group 104"><path data-name="Path 313" d="M223.361 153.322a.966.966 0 0 1 .2-1.335l19.742-16.147a.933.933 0 0 1 1.328.085.965.965 0 0 1-.2 1.334l-19.744 16.147a.933.933 0 0 1-1.326-.084Z" fill="#263238"/></g><g data-name="Group 105"><path data-name="Path 314" d="M248.877 132.455a.965.965 0 0 1 .2-1.334l19.781-16.177a.933.933 0 0 1 1.328.085.966.966 0 0 1-.2 1.334l-19.781 16.177a.933.933 0 0 1-1.328-.085Z" fill="#263238"/></g><g data-name="Group 179" opacity=".7"><path data-name="Path 315" d="M266.835 153.337a.957.957 0 0 1-1.342.085l-38.706-36.941a.941.941 0 0 1 .032-1.335.958.958 0 0 1 1.342-.084l38.706 36.94a.942.942 0 0 1-.032 1.335Z" fill="#fff"/></g><g data-name="Group 180" opacity=".7"><path data-name="Path 316" d="M223.361 153.322a.966.966 0 0 1 .2-1.335l19.742-16.147a.933.933 0 0 1 1.328.085.965.965 0 0 1-.2 1.334l-19.744 16.147a.933.933 0 0 1-1.326-.084Z" fill="#fff"/></g><g data-name="Group 181" opacity=".7"><path data-name="Path 317" d="M248.876 132.455a.965.965 0 0 1 .2-1.334l19.781-16.177a.933.933 0 0 1 1.328.085.966.966 0 0 1-.2 1.334l-19.781 16.177a.933.933 0 0 1-1.328-.085Z" fill="#fff"/></g></g></g><g data-name="Group 117"><g data-name="Group 115" fill="#575c60"><path data-name="Path 324" d="m317.493 80.656 6.234-4.035-6.234-4.036Z"/><path data-name="Path 325" d="M325.524 65.622h-11.876a5.061 5.061 0 0 0-5.061 5.061v11.876a5.061 5.061 0 0 0 5.061 5.061h11.876a5.061 5.061 0 0 0 5.061-5.061V70.684a5.061 5.061 0 0 0-5.061-5.062Zm-5.937 18.91a7.911 7.911 0 1 1 7.91-7.911 7.911 7.911 0 0 1-7.911 7.911Z"/></g><g data-name="Group 178" opacity=".7" fill="#fff"><path data-name="Path 326" d="m317.493 80.656 6.234-4.035-6.234-4.036Z"/><path data-name="Path 327" d="M325.524 65.622h-11.876a5.061 5.061 0 0 0-5.061 5.061v11.876a5.061 5.061 0 0 0 5.061 5.061h11.876a5.061 5.061 0 0 0 5.061-5.061V70.684a5.061 5.061 0 0 0-5.061-5.062Zm-5.937 18.91a7.911 7.911 0 1 1 7.91-7.911 7.911 7.911 0 0 1-7.911 7.911Z"/></g></g><g data-name="Group 118"><path data-name="Path 328" d="M337.182 111.182c0-.246-.013-.488-.034-.728l1.427-.794a9.65 9.65 0 0 0-.531-1.979l-1.63.027a8.184 8.184 0 0 0-.73-1.262l.839-1.4a9.777 9.777 0 0 0-1.45-1.45l-1.4.838a8.251 8.251 0 0 0-1.261-.729l.026-1.63a9.678 9.678 0 0 0-1.98-.532l-.793 1.428a7.959 7.959 0 0 0-1.456 0l-.793-1.428a9.677 9.677 0 0 0-1.979.532l.026 1.63a8.249 8.249 0 0 0-1.261.729l-1.4-.838a9.78 9.78 0 0 0-1.45 1.45l.839 1.4a8.189 8.189 0 0 0-.73 1.262l-1.631-.027a9.652 9.652 0 0 0-.531 1.979l1.427.794c-.021.24-.034.482-.034.728s.013.488.034.728l-1.427.793a9.62 9.62 0 0 0 .531 1.979l1.631-.026a8.225 8.225 0 0 0 .73 1.261l-.839 1.4a9.819 9.819 0 0 0 1.45 1.45l1.4-.839a8.176 8.176 0 0 0 1.261.73l-.026 1.631a9.616 9.616 0 0 0 1.979.531l.793-1.427c.24.021.482.034.728.034s.488-.013.728-.034l.793 1.427a9.617 9.617 0 0 0 1.98-.531l-.026-1.631a8.178 8.178 0 0 0 1.261-.73l1.4.839a9.816 9.816 0 0 0 1.45-1.45l-.839-1.4a8.22 8.22 0 0 0 .73-1.261l1.63.026a9.618 9.618 0 0 0 .531-1.979l-1.427-.793c.021-.24.034-.486.034-.728Zm-8.242 5.6a5.6 5.6 0 1 1 5.6-5.6 5.595 5.595 0 0 1-5.601 5.596Z" fill="#263238"/><path data-name="Path 440" d="M337.182 111.182c0-.246-.013-.488-.034-.728l1.427-.794a9.65 9.65 0 0 0-.531-1.979l-1.63.027a8.184 8.184 0 0 0-.73-1.262l.839-1.4a9.777 9.777 0 0 0-1.45-1.45l-1.4.838a8.251 8.251 0 0 0-1.261-.729l.026-1.63a9.678 9.678 0 0 0-1.98-.532l-.793 1.428a7.959 7.959 0 0 0-1.456 0l-.793-1.428a9.677 9.677 0 0 0-1.979.532l.026 1.63a8.249 8.249 0 0 0-1.261.729l-1.4-.838a9.78 9.78 0 0 0-1.45 1.45l.839 1.4a8.189 8.189 0 0 0-.73 1.262l-1.631-.027a9.652 9.652 0 0 0-.531 1.979l1.427.794c-.021.24-.034.482-.034.728s.013.488.034.728l-1.427.793a9.62 9.62 0 0 0 .531 1.979l1.631-.026a8.225 8.225 0 0 0 .73 1.261l-.839 1.4a9.819 9.819 0 0 0 1.45 1.45l1.4-.839a8.176 8.176 0 0 0 1.261.73l-.026 1.631a9.616 9.616 0 0 0 1.979.531l.793-1.427c.24.021.482.034.728.034s.488-.013.728-.034l.793 1.427a9.617 9.617 0 0 0 1.98-.531l-.026-1.631a8.178 8.178 0 0 0 1.261-.73l1.4.839a9.816 9.816 0 0 0 1.45-1.45l-.839-1.4a8.22 8.22 0 0 0 .73-1.261l1.63.026a9.618 9.618 0 0 0 .531-1.979l-1.427-.793c.021-.24.034-.486.034-.728Zm-8.242 5.6a5.6 5.6 0 1 1 5.6-5.6 5.595 5.595 0 0 1-5.601 5.596Z" fill="#fff" opacity=".7"/></g><g data-name="Group 119"><path data-name="Path 330" d="M315.633 139.299c0-.367-.02-.73-.051-1.09l2.136-1.186a14.483 14.483 0 0 0-.794-2.96l-2.438.04a12.368 12.368 0 0 0-1.092-1.887l1.254-2.092a14.693 14.693 0 0 0-2.169-2.169l-2.092 1.255a12.31 12.31 0 0 0-1.886-1.092l.04-2.438a14.485 14.485 0 0 0-2.96-.794l-1.187 2.136c-.358-.032-.722-.051-1.089-.051s-.73.019-1.09.051l-1.182-2.137a14.475 14.475 0 0 0-2.961.794l.041 2.438a12.367 12.367 0 0 0-1.887 1.092l-2.092-1.255a14.739 14.739 0 0 0-2.169 2.169l1.254 2.092a12.36 12.36 0 0 0-1.091 1.887l-2.439-.04a14.477 14.477 0 0 0-.793 2.96l2.135 1.186c-.031.359-.05.723-.05 1.09s.019.73.05 1.09l-2.135 1.186a14.487 14.487 0 0 0 .793 2.961l2.439-.041a12.361 12.361 0 0 0 1.091 1.887l-1.254 2.092a14.693 14.693 0 0 0 2.169 2.169l2.092-1.255a12.369 12.369 0 0 0 1.887 1.092l-.041 2.438a14.476 14.476 0 0 0 2.961.794l1.186-2.135c.359.031.722.05 1.09.05s.73-.019 1.089-.05l1.187 2.135a14.486 14.486 0 0 0 2.96-.794l-.04-2.438a12.313 12.313 0 0 0 1.886-1.092l2.092 1.255a14.647 14.647 0 0 0 2.169-2.169l-1.259-2.088a12.369 12.369 0 0 0 1.092-1.887l2.438.041a14.492 14.492 0 0 0 .794-2.961l-2.136-1.186c.033-.362.052-.725.052-1.093Zm-12.329 4.859a4.859 4.859 0 1 1 4.859-4.859 4.859 4.859 0 0 1-4.859 4.86Z" fill="#575c60"/><path data-name="Path 439" d="M315.633 139.299c0-.367-.02-.73-.051-1.09l2.136-1.186a14.483 14.483 0 0 0-.794-2.96l-2.438.04a12.368 12.368 0 0 0-1.092-1.887l1.254-2.092a14.693 14.693 0 0 0-2.169-2.169l-2.092 1.255a12.31 12.31 0 0 0-1.886-1.092l.04-2.438a14.485 14.485 0 0 0-2.96-.794l-1.187 2.136c-.358-.032-.722-.051-1.089-.051s-.73.019-1.09.051l-1.182-2.137a14.475 14.475 0 0 0-2.961.794l.041 2.438a12.367 12.367 0 0 0-1.887 1.092l-2.092-1.255a14.739 14.739 0 0 0-2.169 2.169l1.254 2.092a12.36 12.36 0 0 0-1.091 1.887l-2.439-.04a14.477 14.477 0 0 0-.793 2.96l2.135 1.186c-.031.359-.05.723-.05 1.09s.019.73.05 1.09l-2.135 1.186a14.487 14.487 0 0 0 .793 2.961l2.439-.041a12.361 12.361 0 0 0 1.091 1.887l-1.254 2.092a14.693 14.693 0 0 0 2.169 2.169l2.092-1.255a12.369 12.369 0 0 0 1.887 1.092l-.041 2.438a14.476 14.476 0 0 0 2.961.794l1.186-2.135c.359.031.722.05 1.09.05s.73-.019 1.089-.05l1.187 2.135a14.486 14.486 0 0 0 2.96-.794l-.04-2.438a12.313 12.313 0 0 0 1.886-1.092l2.092 1.255a14.647 14.647 0 0 0 2.169-2.169l-1.259-2.088a12.369 12.369 0 0 0 1.092-1.887l2.438.041a14.492 14.492 0 0 0 .794-2.961l-2.136-1.186c.033-.362.052-.725.052-1.093Zm-12.329 4.859a4.859 4.859 0 1 1 4.859-4.859 4.859 4.859 0 0 1-4.859 4.86Z" fill="#fff" opacity=".7"/></g><g data-name="Group 121"><path data-name="Path 332" d="M280.86 84.463v4.955l-4.715 2.486a1.15 1.15 0 0 0 0 2.033l4.715 2.486v4.955a2 2 0 0 0 2 2h16.915a2 2 0 0 0 2-2V84.463a2 2 0 0 0-2-2h-16.912a2 2 0 0 0-2.003 2Z" fill="#ff4747"/><g data-name="Group 120" opacity=".9" fill="#fff"><path data-name="Path 333" d="M286.683 89.625h9.611a1.181 1.181 0 1 0 0-2.363h-9.611a1.181 1.181 0 0 0 0 2.363Z"/><path data-name="Path 334" d="M296.294 91.74h-9.611a1.181 1.181 0 0 0 0 2.363h9.611a1.181 1.181 0 1 0 0-2.363Z"/><path data-name="Path 335" d="M296.294 96.218h-9.611a1.181 1.181 0 0 0 0 2.363h9.611a1.181 1.181 0 1 0 0-2.363Z"/></g></g><g data-name="Group 122"><path data-name="Path 336" d="M185.273 76.686h4.041l2.083 3.949a1.606 1.606 0 0 0 2.841 0l2.083-3.949h4.041a2.915 2.915 0 0 0 2.915-2.915V58.683a2.915 2.915 0 0 0-2.915-2.915h-15.089a2.915 2.915 0 0 0-2.915 2.915v15.089a2.915 2.915 0 0 0 2.915 2.914Z" fill="#ff4747"/><path data-name="Path 337" d="m192.828 60.277-4.662 2.727v7.96h3.469V65.62h2.386v5.344h3.469v-7.96Z" fill="#fff" opacity=".9"/></g><g data-name="Group 123"><path data-name="Path 338" d="M230.578 293.036h-3.637l-2.322-4.4a1.335 1.335 0 0 0-2.362 0l-2.322 4.4h-3.637a3.32 3.32 0 0 0-3.32 3.32v14.28a3.32 3.32 0 0 0 3.32 3.32h14.28a3.32 3.32 0 0 0 3.32-3.32v-14.284a3.32 3.32 0 0 0-3.32-3.316Z" fill="#ff4747"/><path data-name="Path 339" d="M225.457 298.486a5.166 5.166 0 1 0-.729 7.907 1.155 1.155 0 0 0 .322.629l3.208 3.208a1.158 1.158 0 0 0 1.638-1.638l-3.208-3.208a1.147 1.147 0 0 0-.63-.321 5.171 5.171 0 0 0-.601-6.577Zm-1.092 6.213a3.621 3.621 0 1 1 0-5.121 3.625 3.625 0 0 1 0 5.121Z" fill="#fff" opacity=".9"/></g><path data-name="Path 340" d="M383.309 197.926s-7.713 19.1-15.255 21.171-18.929.388-18.929.388l-3.518.962-3.448-.513a.982.982 0 0 0-.119-.01l-3.9-.09a.742.742 0 0 1-.662-1.17l1.4-1.929a.914.914 0 0 1 .46-.326l3.7-1.194a.976.976 0 0 1 .451-.036l5.663.9s15.748-2.58 17.35-4.041 6.35-16.732 6.35-16.732Z" fill="#eec1bb"/><path data-name="Path 341" d="m349.522 216.016-.363.061-5.663-.9a.975.975 0 0 0-.451.036l-3.7 1.193a.92.92 0 0 0-.461.327l-1.4 1.929a.742.742 0 0 0 .662 1.17l3.9.09a.99.99 0 0 1 .118.01l2.319.344a14.811 14.811 0 0 0 5.039-4.26Z" opacity=".1"/><path data-name="Path 342" d="M387.96 179.004c-5.6-1.838-13.478 2.369-16.5 20l11.626 3.392s12.879-20.763 4.874-23.392Z" fill="#407bff"/><g data-name="Group 124"><path data-name="Path 343" d="M355.388 155.964c.007.579.312 1.047.691 1.043s.707-.5.684-1.063-.312-1.047-.692-1.038-.684.484-.683 1.058Z" fill="#263238"/><path data-name="Path 344" d="m357.682 156.54-2.751 4.55s.951 1.077 3.016.282Z" fill="#d4827d"/><path data-name="Path 345" d="M358.199 152.337a.314.314 0 0 1-.27.1 2.383 2.383 0 0 0-2.075.647.3.3 0 0 1-.425.031.309.309 0 0 1-.028-.429 2.956 2.956 0 0 1 2.611-.851.3.3 0 0 1 .26.342.33.33 0 0 1-.073.16Z" fill="#263238"/><path data-name="Path 346" d="M377.64 151.842c.431 7.688.78 10.939-2.613 15.31-5.421 4.683-14.655 5.431-17.373-1.98-2.449-6.668-2.741-18.092 4.375-22.054a10.511 10.511 0 0 1 15.611 8.725Z" fill="#eec1bb"/><path data-name="Path 347" d="m366.926 168.67 1.948 11.389 9.5-2.194-3.323-11.626Z" fill="#eec1bb"/><path data-name="Path 348" d="M360.086 152.411c.483-5-1.231.772-3.547-5.818s8.6-11.948 10.343-10.719.743 3.118 6.514 4.18a6.554 6.554 0 0 1 5.526 6.666s3.32 1.54 2.139 8.671a29.273 29.273 0 0 1-5.686 12.525s-2.184-2.252-5.639-.171a11.289 11.289 0 0 1-3.374-3.45c-1.558-2.327-2.036-4.534-4.167-4.726-4.47-.403-2.268-5.519-2.109-7.158Z" fill="#263238"/><path data-name="Path 349" d="M378.299 147.597s4.71-2.9 2.625-5.934-1.078 3.336-2.625 5.934Z" fill="#263238"/><path data-name="Path 350" d="M361.444 155.311a5.917 5.917 0 0 0-1.5 4.283c.133 2.083 2.171 2.453 3.782 1.316 1.459-1.031 3.129-3.351 2.2-5.177a2.68 2.68 0 0 0-4.482-.422Z" fill="#ffc3bd"/><path data-name="Path 351" d="m367.11 169.743.773 4.521a8.543 8.543 0 0 1 2.136-6.177 3.815 3.815 0 0 0-2.909 1.656Z" opacity=".1"/></g><g data-name="Group 125"><path data-name="Rectangle 126" fill="#263238" d="M297.63 199.141h2.715v16.016h-2.715z"/><path data-name="Rectangle 147" fill="#fff" opacity=".7" d="M297.63 199.141h2.715v16.016h-2.715z"/></g><g data-name="Group 127" transform="translate(270.342 167.345)"><path data-name="Path 352" d="M11.349 0H4.588A4.588 4.588 0 0 0 0 4.588v31.324A4.588 4.588 0 0 0 4.588 40.5h6.761Z" fill="#575c60"/><g data-name="Group 126" transform="translate(2.365)"><rect data-name="Rectangle 128" width="54.926" height="40.499" rx="4.851" fill="#575c60"/></g><rect data-name="Rectangle 130" width="51.143" height="36.716" rx="2.851" transform="translate(4.256 1.892)" fill="#263238"/><rect data-name="Rectangle 143" width="54.926" height="40.499" rx="4.851" transform="translate(2.365)" fill="#fff" opacity=".5"/></g><path data-name="Path 353" d="M289.11 221.864a9.878 9.878 0 0 1 19.756 0Z" fill="#a8adaf"/><g data-name="Group 128"><path data-name="Path 354" d="M312.428 218.494h-19.756v3.212h39.512v-1.32Z" fill="#263238"/><path data-name="Path 356" d="M312.428 221.706h-19.756v-3.212l19.756 1.892Z" fill="#93999c"/><path data-name="Path 447" d="M312.428 221.706h-19.756v-3.212l19.756 1.892Z" fill="#fff" opacity=".6"/><path data-name="Path 448" d="M312.428 218.494h-19.756v3.212h39.512v-1.32Z" fill="#fff" opacity=".8"/></g><g data-name="Group 131"><g data-name="Group 129"><path data-name="Path 358" d="M355.989 332.087h-40.761a6.192 6.192 0 0 1-6.192-6.192v-93.7a6.192 6.192 0 0 1 6.192-6.192h40.762a1.656 1.656 0 0 1 1.655 1.655 1.656 1.656 0 0 1-1.655 1.655h-40.762a2.882 2.882 0 0 0-2.882 2.882v93.7a2.882 2.882 0 0 0 2.882 2.882h40.762a1.656 1.656 0 0 1 1.655 1.655 1.655 1.655 0 0 1-1.656 1.655Z" fill="#263238"/></g><g data-name="Group 130" opacity=".5"><path data-name="Path 359" d="M355.989 332.087h-40.761a6.192 6.192 0 0 1-6.192-6.192v-93.7a6.192 6.192 0 0 1 6.192-6.192h40.762a1.656 1.656 0 0 1 1.655 1.655 1.656 1.656 0 0 1-1.655 1.655h-40.762a2.882 2.882 0 0 0-2.882 2.882v93.7a2.882 2.882 0 0 0 2.882 2.882h40.762a1.656 1.656 0 0 1 1.655 1.655 1.655 1.655 0 0 1-1.656 1.655Z" fill="#fff"/></g></g><g data-name="Group 132"><path data-name="Rectangle 131" fill="#575c60" d="M257.196 221.705h57.867v4.85h-57.867z"/><path data-name="Rectangle 133" fill="#a5a8ab" d="M312.427 221.705h49.355v4.85h-49.355z"/><path data-name="Rectangle 144" fill="#fff" opacity=".5" d="M312.427 221.705h49.355v4.85h-49.355z"/><path data-name="Rectangle 145" fill="#fff" opacity=".2" d="M257.196 221.705h57.867v4.85h-57.867z"/></g><g data-name="Group 135"><g data-name="Group 134"><path data-name="Path 360" d="m344.472 297.708 2.739 27.63h-6.55l-6.55-26.915Z" fill="#eec1bb"/><g data-name="Group 133"><path data-name="Path 361" d="m340.048 323.535 8.352.143a.673.673 0 0 1 .648.536l1.394 6.821a1.119 1.119 0 0 1-.863 1.326 1.163 1.163 0 0 1-.235.025c-3.01-.1-5.685-.315-9.433-.374-4.424-.074-3.31.474-8.513.46-3.134-.012-3.647-3.583-2.315-3.737 6.094-.661 6.757-2.487 9.14-4.624a2.7 2.7 0 0 1 1.825-.576Z" fill="#263238"/></g><path data-name="Path 362" d="m346.496 318.126-2.024-20.418-10.361.715 4.8 19.7Z" opacity=".1"/></g><path data-name="Path 363" d="m389.291 233.993-26.847.963s-36.123 12.628-37.137 22.38c-1.04 10 11.107 55.974 11.107 55.974H347.2s-2.974-33.734-4.118-44.065 37.634-6.907 44.366-15.72c6.201-8.114 1.843-19.532 1.843-19.532Z" fill="#263238"/><path data-name="Path 364" d="m389.291 233.993-26.847.963s-36.123 12.628-37.137 22.38c-1.04 10 11.107 55.974 11.107 55.974H347.2s-2.974-33.734-4.118-44.065 37.634-6.907 44.366-15.72c6.201-8.114 1.843-19.532 1.843-19.532Z" opacity=".2"/><path data-name="Path 365" d="m349.037 311.761.238 3.811h-13.338l-1.31-3.811Z" fill="#ff4747"/></g><g data-name="Group 138"><g data-name="Group 137"><path data-name="Path 366" d="m319.502 299.018.715 26.32h-6.431l-3.811-26.32Z" fill="#eec1bb"/><g data-name="Group 136"><path data-name="Path 367" d="m312.894 323.535 8.353.143a.672.672 0 0 1 .647.536l1.394 6.821a1.118 1.118 0 0 1-.862 1.326 1.173 1.173 0 0 1-.236.025c-3.009-.1-5.684-.315-9.433-.374-4.423-.074-3.31.474-8.512.46-3.134-.012-3.647-3.583-2.316-3.737 6.094-.661 6.757-2.487 9.141-4.624a2.693 2.693 0 0 1 1.824-.576Z" fill="#263238"/></g><path data-name="Path 368" d="m320.024 318.1-.518-19.086h-9.532l2.766 19.105c2.073.012 4.927-.001 7.284-.019Z" opacity=".1"/></g><path data-name="Path 369" d="M377.619 236.216s2.229 20.4-18.536 21.358-36.961 3.334-37.438 10.718 0 45.017 0 45.017H310.36s-4.39-23.791-6.1-38.547c-1.662-14.33-4.7-24.72 10-29.574 15.63-5.161 43.418-9.931 43.418-9.931l20.01-1.264Z" fill="#263238"/><path data-name="Path 370" d="m323.313 311.761-.715 3.811h-12.386l-1.31-3.811Z" fill="#ff4747"/></g><g data-name="Group 139" fill="#ff4747"><path data-name="Path 371" d="M382.124 177.663s0-4.606-9.3-4.072c-9.868.566-8.01 4.978-8.01 4.978Z"/><path data-name="Path 372" d="M382.124 177.663s0-4.606-9.3-4.072c-9.868.566-8.01 4.978-8.01 4.978Z" opacity=".3"/></g><path data-name="Path 373" d="M390.752 198.279c-.624 9.087-.409 36.431-.409 36.431s-19.836 1.3-35.447.8l-1.809-52.6a4.607 4.607 0 0 1 2.971-4.28c4.408-1.714 14.753-3.654 30.937-1.529 5.584.73 4.497 10.434 3.757 21.178Z" fill="#ff4747"/><path data-name="Path 374" d="M356.276 197.926s-7.712 19.1-15.254 21.171-18.929.388-18.929.388l-3.518.962-3.448-.513a1.018 1.018 0 0 0-.119-.01l-3.9-.09a.742.742 0 0 1-.662-1.17l1.4-1.929a.91.91 0 0 1 .46-.326l3.7-1.194a.975.975 0 0 1 .451-.036l5.662.9s15.749-2.58 17.351-4.041 6.35-16.732 6.35-16.732Z" fill="#eec1bb"/><path data-name="Path 375" d="M356.077 189.039s-1.194 1.422-2.658 3.486l.524 15.225c5.8-2.557 8.095-17.485 8.095-17.485l-3.762-2.671Z" opacity=".1"/><path data-name="Path 376" d="M360.928 179.004c-5.6-1.838-13.479 2.369-16.5 20l11.626 3.392s12.879-20.763 4.874-23.392Z" fill="#ff4747"/><g data-name="Group 145"><g data-name="Group 142" transform="translate(328.304 267.478)"><path data-name="Rectangle 135" fill="#263238" d="M31.281 0h8.749v25.642h-8.749z"/><path data-name="Rectangle 136" fill="#fff" opacity=".6" d="M31.281 0h8.749v25.642h-8.749z"/><g data-name="Group 140"><path data-name="Path 377" d="M41.388 48.872V16.291H29.924v32.581l-26.1 3.62v3.62l31.827-2.715 31.827 2.715v-3.616Z" fill="#263238"/></g><g data-name="Group 141" transform="translate(0 58.091)" fill="#a5a8ab"><circle data-name="Ellipse 23" cx="3.45" cy="3.45" r="3.45"/><circle data-name="Ellipse 24" cx="3.45" cy="3.45" r="3.45" transform="translate(64.032)"/></g><circle data-name="Ellipse 25" cx="3.45" cy="3.45" r="3.45" transform="translate(32.205 58.091)" fill="#a5a8ab"/><path data-name="Rectangle 137" opacity=".3" d="M31.281 0h8.749v6.335h-8.749z"/></g><g data-name="Group 144"><path data-name="Path 378" d="M398.546 209.362h-28.505a8.993 8.993 0 0 0-8.954 8.157l-2.407 25.758a11.86 11.86 0 0 1-11.207 10.74l-27.508 1.393a6.287 6.287 0 0 0-5.971 6.279v.581a5.208 5.208 0 0 0 5.208 5.208h83.792l4.511-48.286a8.994 8.994 0 0 0-8.959-9.83Z" fill="#a5a8ab"/><path data-name="Rectangle 138" d="M333.114 238.42h3.922v20.46a1.961 1.961 0 0 1-1.961 1.961 1.961 1.961 0 0 1-1.961-1.961v-20.46Z" fill="#263238"/><path data-name="Rectangle 139" d="M333.114 238.42h3.922v20.46a1.961 1.961 0 0 1-1.961 1.961 1.961 1.961 0 0 1-1.961-1.961v-20.46Z" fill="#fff" opacity=".2"/><g data-name="Group 143" transform="translate(314.485 232.484)"><path data-name="Path 380" d="M37.559 0H28.81v7.24h8.749a3.62 3.62 0 0 0 0-7.24Z" fill="#75797a"/><rect data-name="Rectangle 140" width="37.559" height="7.24" rx="3.62" fill="#a8adaf"/><rect data-name="Rectangle 146" width="37.559" height="7.24" rx="3.62" fill="#fff" opacity=".3"/><path data-name="Path 446" d="M37.559 0H28.81v7.24h8.749a3.62 3.62 0 0 0 0-7.24Z" fill="#fff" opacity=".5"/></g><path data-name="Path 382" d="M404.96 267.478h-41.9l4.668-49.959a8.994 8.994 0 0 1 8.955-8.157h28.498a8.993 8.993 0 0 1 8.955 9.83l-4.077 43.64a5.122 5.122 0 0 1-5.099 4.646Z" fill="#4a5156"/><path data-name="Path 444" d="M404.959 267.478h-41.9l4.668-49.959a8.994 8.994 0 0 1 8.955-8.157h28.498a8.993 8.993 0 0 1 8.955 9.83l-4.077 43.64a5.122 5.122 0 0 1-5.099 4.646Z" fill="#fff" opacity=".5"/><path data-name="Path 445" d="M398.546 209.362h-28.505a8.993 8.993 0 0 0-8.954 8.157l-2.407 25.758a11.86 11.86 0 0 1-11.207 10.74l-27.508 1.393a6.287 6.287 0 0 0-5.971 6.279v.581a5.208 5.208 0 0 0 5.208 5.208h83.792l4.511-48.286a8.994 8.994 0 0 0-8.959-9.83Z" fill="#fff" opacity=".3"/></g></g><g data-name="Group 148"><g data-name="Group 146"><path data-name="Path 384" d="M307.066 332.087h-40.761a6.192 6.192 0 0 1-6.192-6.192v-93.7a6.192 6.192 0 0 1 6.192-6.192h40.761a1.655 1.655 0 0 1 1.655 1.655 1.655 1.655 0 0 1-1.655 1.655h-40.761a2.881 2.881 0 0 0-2.882 2.882v93.7a2.882 2.882 0 0 0 2.882 2.882h40.761a1.655 1.655 0 0 1 1.655 1.655 1.655 1.655 0 0 1-1.655 1.655Z" fill="#263238"/></g><g data-name="Group 147" opacity=".5"><path data-name="Path 385" d="M307.066 332.087h-40.761a6.192 6.192 0 0 1-6.192-6.192v-93.7a6.192 6.192 0 0 1 6.192-6.192h40.761a1.655 1.655 0 0 1 1.655 1.655 1.655 1.655 0 0 1-1.655 1.655h-40.761a2.881 2.881 0 0 0-2.882 2.882v93.7a2.882 2.882 0 0 0 2.882 2.882h40.761a1.655 1.655 0 0 1 1.655 1.655 1.655 1.655 0 0 1-1.655 1.655Z" fill="#fff"/></g></g><g data-name="Group 149"><path data-name="Path 386" d="m280.13 176.7-2.87-1.9a.516.516 0 0 1 0-.86l2.87-1.9a.466.466 0 0 1 .645.131.466.466 0 0 1-.131.645l-2.348 1.559 2.348 1.559a.467.467 0 0 1 .131.646.466.466 0 0 1-.645.12Z" fill="#fff"/></g><g data-name="Group 150"><path data-name="Path 387" d="M286.403 176.569a.467.467 0 0 1 .13-.646l2.349-1.559-2.349-1.559a.466.466 0 0 1-.13-.645.466.466 0 0 1 .645-.131l2.87 1.9a.516.516 0 0 1 0 .86l-2.87 1.9a.466.466 0 0 1-.645-.12Z" fill="#fff"/></g><g data-name="Group 151"><path data-name="Path 388" d="M282.517 177.808a.465.465 0 0 1-.3-.584l1.954-6.189a.465.465 0 0 1 .584-.3.466.466 0 0 1 .3.585l-1.954 6.188a.465.465 0 0 1-.584.3Z" fill="#fff"/></g><g data-name="Group 162"><g data-name="Group 152"><path data-name="Path 389" d="M298.578 182.577H277.52a.491.491 0 0 1-.491-.491.492.492 0 0 1 .491-.491h21.058a.491.491 0 0 1 .491.491.49.49 0 0 1-.491.491Z" fill="#fff"/></g><g data-name="Group 153"><path data-name="Path 390" d="M322.774 182.577h-21.058a.49.49 0 0 1-.491-.491.491.491 0 0 1 .491-.491h21.058a.491.491 0 0 1 .491.491.49.49 0 0 1-.491.491Z" fill="#fff"/></g><g data-name="Group 154"><path data-name="Path 391" d="M289.553 186.911H277.52a.491.491 0 0 1-.491-.491.491.491 0 0 1 .491-.49h12.033a.49.49 0 0 1 .491.49.49.49 0 0 1-.491.491Z" fill="#fff"/></g><g data-name="Group 155"><path data-name="Path 392" d="M312.4 186.911h-19.71a.49.49 0 0 1-.491-.491.49.49 0 0 1 .491-.49h19.711a.49.49 0 0 1 .491.49.49.49 0 0 1-.492.491Z" fill="#fff"/></g><g data-name="Group 156"><path data-name="Path 393" d="M309.599 191.246H277.52a.491.491 0 0 1-.491-.49.491.491 0 0 1 .491-.491h32.079a.491.491 0 0 1 .491.491.491.491 0 0 1-.491.49Z" fill="#fff"/></g><g data-name="Group 157"><path data-name="Path 394" d="M319.434 191.246h-6.7a.49.49 0 0 1-.491-.49.49.49 0 0 1 .491-.491h6.7a.49.49 0 0 1 .491.491.49.49 0 0 1-.491.49Z" fill="#fff"/></g><g data-name="Group 158"><path data-name="Path 395" d="M292.497 195.581H277.52a.491.491 0 0 1-.491-.491.492.492 0 0 1 .491-.491h14.977a.491.491 0 0 1 .491.491.49.49 0 0 1-.491.491Z" fill="#fff"/></g><g data-name="Group 159"><path data-name="Path 396" d="M314.281 195.581h-18.647a.491.491 0 0 1-.491-.491.492.492 0 0 1 .491-.491h18.648a.491.491 0 0 1 .491.491.49.49 0 0 1-.492.491Z" fill="#fff"/></g><g data-name="Group 160"><path data-name="Path 397" d="M298.578 199.916H277.52a.491.491 0 0 1-.491-.49.491.491 0 0 1 .491-.491h21.058a.49.49 0 0 1 .491.491.49.49 0 0 1-.491.49Z" fill="#fff"/></g><g data-name="Group 161"><path data-name="Path 398" d="M316.572 199.916h-14.856a.49.49 0 0 1-.491-.49.49.49 0 0 1 .491-.491h14.856a.491.491 0 0 1 .491.491.491.491 0 0 1-.491.49Z" fill="#fff"/></g></g><g data-name="Group 173"><path data-name="Path 399" d="M133.801 115.257c.383 4.454-.581 12.524-3.941 15.1 5.483 1.974 11.281 5.383 15 9.872 3.676-5.353-.51-8.4-.51-8.4-4.737-1.686-4.222-5.266-3-8.568Z" fill="#b97964"/><path data-name="Path 400" d="M151.701 111.419c-.054.556.208 1.039.574 1.075s.706-.4.759-.952-.208-1.045-.575-1.081-.691.395-.758.958Z" fill="#263238"/><path data-name="Path 401" d="m152.311 110.478 1.381-.264s-.786 1.013-1.381.264Z" fill="#263238"/><path data-name="Path 402" d="M151.89 112.014a15.178 15.178 0 0 0 1.673 3.769 2.432 2.432 0 0 1-2.038.192Z" fill="#a24e3f"/><path data-name="Path 403" d="M153.289 108.473a.358.358 0 0 0 .223-.116.337.337 0 0 0-.034-.468 3.286 3.286 0 0 0-2.918-.779.332.332 0 0 0 .177.615 2.652 2.652 0 0 1 2.306.648.318.318 0 0 0 .246.1Z" fill="#263238"/><path data-name="Path 404" d="M133.327 107.867c-.218 6.918-.456 9.86 2.629 13.715 4.645 5.8 13.049 4.529 15.295-2.2 2.026-6.059 2.047-16.383-4.316-19.735s-13.384 1.283-13.608 8.22Z" fill="#b97964"/><path data-name="Path 405" d="M133.657 120.922c-6.8-1.159-4.85-5.447-4.85-5.447-6.7-1.356-1.527-4.628-1.527-4.628-5.572-2.4 0-4.553 0-4.553-5.372-4.456 2.327-5.972 2.327-5.972-1.9-6.951 4.7-4.1 4.7-4.1 3.6-5.972 6.7-.268 6.7-.268 6.3-8.556 7.837-1.336 7.837-1.336 6.432-1.694 3.966 5.077 3.966 5.077 5.3 1.423 1.14 4.1 1.14 4.1 2.04 2.585-5.347 3.031-5.347 3.031s3.515 5.634-.031 7.234l-8.945 6.858s-4.115-1.707-5.97.004Z" fill="#263238"/><path data-name="Path 406" d="M140.34 115.341s4.683-11.323 1.033-21.036l3.124-1.07s4.076 14.085-4.157 22.106Z" fill="#ff4747"/><path data-name="Path 407" d="M145.056 114.102c.784 1.625 1.08 2.331 2.2 2.87a2.034 2.034 0 0 0 2.974-2.249c-.294-1.63-1.548-4.023-3.277-4.072a2.275 2.275 0 0 0-1.897 3.451Z" fill="#b97964"/><g data-name="Group 163"><path data-name="Path 408" d="M140.176 137.721s6.4 4.7 9 6.589l18.525-8.739a5.116 5.116 0 0 1 3.127-4.839l1.317-.556 2.795-1.243a3.244 3.244 0 0 1 3.225.34 3.242 3.242 0 0 1 1.2 3.536 8.036 8.036 0 0 1-5.672 5.508l-2.7.708S155.1 151.084 149.447 151.4s-13.985-5.285-13.985-5.285Z" fill="#b97964"/><path data-name="Path 409" d="M124.775 129.746c4.891-.021 10.354 3.048 18.96 8.623a23.514 23.514 0 0 1-6.631 10.483s-4.721-1.27-11-7.184c-7.605-7.155-4.328-11.91-1.329-11.922Z" fill="#263238"/></g><g data-name="Group 167"><g data-name="Group 164"><path data-name="Path 410" d="M217.652 143.917h-46.338a2.745 2.745 0 0 1-2.778-3.044l3.491-39.9a3.39 3.39 0 0 1 3.309-3.042h46.338a2.744 2.744 0 0 1 2.778 3.044l-3.491 39.9a3.389 3.389 0 0 1-3.309 3.042Z" fill="#2e353a"/><path data-name="Path 443" d="M217.653 143.917h-46.338a2.745 2.745 0 0 1-2.778-3.044l3.491-39.9a3.39 3.39 0 0 1 3.309-3.042h46.338a2.744 2.744 0 0 1 2.778 3.044l-3.491 39.9a3.389 3.389 0 0 1-3.309 3.042Z" fill="#fff" opacity=".4"/></g><path data-name="Path 412" d="M217.818 142.023a1.284 1.284 0 0 0 1.253-1.152l3.491-39.9a1.04 1.04 0 0 0-1.052-1.153h-46.337a1.286 1.286 0 0 0-1.253 1.153l-3.491 39.9a1.04 1.04 0 0 0 1.052 1.152Z" fill="#fff" opacity=".7"/><g data-name="Group 165"><path data-name="Path 413" d="m185.614 118.564-15.15 21.911-.035.4a1.04 1.04 0 0 0 1.052 1.152h26.247Z" fill="#575c60"/><path data-name="Path 441" d="m185.614 118.564-15.15 21.911-.035.4a1.04 1.04 0 0 0 1.052 1.152h26.247Z" fill="#fff" opacity=".3"/></g><path data-name="Path 415" d="m219.205 139.337-12.686-24.088-18.784 26.775h30.082a1.284 1.284 0 0 0 1.253-1.152Z" fill="#263238"/><g data-name="Group 166"><path data-name="Path 416" d="M201.622 110.997a4.74 4.74 0 0 1-4.63 4.258 3.838 3.838 0 0 1-3.885-4.258 4.74 4.74 0 0 1 4.63-4.258 3.84 3.84 0 0 1 3.885 4.258Z" fill="#263238"/></g><path data-name="Path 442" d="M201.622 110.997a4.74 4.74 0 0 1-4.63 4.258 3.838 3.838 0 0 1-3.885-4.258 4.74 4.74 0 0 1 4.63-4.258 3.84 3.84 0 0 1 3.885 4.258Z" fill="#fff" opacity=".4"/></g><g data-name="Group 169"><path data-name="Path 418" d="m85.966 304.931-4.7 13.961 7.216 2.945 5.646-12.882Z" fill="#b97964"/><g data-name="Group 168"><path data-name="Path 419" d="M91.067 321.488a.216.216 0 0 1-.109-.211.2.2 0 0 1 .158-.175c.15-.034 3.558-.794 4.827.015a1.078 1.078 0 0 1 .478.652.775.775 0 0 1-.25.86 3.708 3.708 0 0 1-2.637-.121 15.294 15.294 0 0 1-2.467-1.02Zm.719-.067c1.486.668 3.584 1.3 4.137.88.077-.049.165-.152.094-.442a.569.569 0 0 0-.3-.394 1.343 1.343 0 0 0-.361-.164 9.5 9.5 0 0 0-3.572.12Z" fill="#407bff"/><path data-name="Path 420" d="M90.967 321.445a.205.205 0 0 1-.034-.205c.043-.1.957-2.273 2.283-2.816a1.528 1.528 0 0 1 1.2 0c.525.222.61.548.561.779-.112.989-2.663 2.173-3.792 2.308a.119.119 0 0 1-.085-.019.193.193 0 0 1-.133-.047Zm3.2-2.686a1.073 1.073 0 0 0-.756.038 4.833 4.833 0 0 0-1.889 2.2c1.217-.29 2.96-1.295 3.083-1.875 0-.055.022-.2-.322-.343l-.116-.025Z" fill="#407bff"/><path data-name="Path 421" d="m90.578 320.064-9.065-2.8a.763.763 0 0 0-.888.35l-3.914 6.87a1.27 1.27 0 0 0 .462 1.735 1.4 1.4 0 0 0 .246.11c3.286.951 6.247 1.669 10.314 2.931 4.8 1.484 3.4 1.682 9.024 3.505 3.387 1.094 5.2-2.579 3.819-3.215-6.343-2.868-6.413-5.072-8.23-8.221a3.054 3.054 0 0 0-1.768-1.265Z" fill="#263238"/></g><path data-name="Path 422" d="m83.711 311.624 7.566 3.824 2.846-6.494-8.157-4.024Z" fill="#263238" opacity=".2"/></g><path data-name="Path 423" d="M117.959 175.815s-10.168 7.768-7.991 32.09c.2 2.25.93 4.606.939 7.182.008 1.709-.469 2.91-1.029 6.757-.816 5.6-2.311 26.479-3.885 29.193-1.558 2.687-2.223 2.239-6.66 9.726-4.774 8.055-10.874 22.186-15.628 46.14a26.731 26.731 0 0 0 10.625 4.448s25.984-40.969 31.507-56.221c4.942-13.647 10.831-57.2 10.831-57.2l.476-18.883Z" fill="#ff4747"/><path data-name="Path 424" d="M129.082 207.904h-7.364s-2.419 23.148 5.579 42.467c.837-3.1 1.681-6.823 2.5-10.837l3.183-20.393c-.452-3.445-.807-6.072-.86-6.247-.157-.534-3.038-4.99-3.038-4.99Z" opacity=".1"/><g data-name="Group 171"><path data-name="Path 425" d="m127.868 310.548.049 14.838 8.371-.56 1.28-14.278Z" fill="#b97964"/><g data-name="Group 170"><path data-name="Path 426" d="M137.252 324.577a.216.216 0 0 1-.172-.163.205.205 0 0 1 .092-.218c.131-.081 3.1-1.92 4.563-1.573a1.077 1.077 0 0 1 .665.458.774.774 0 0 1 .047.895 3.705 3.705 0 0 1-2.529.753 15.324 15.324 0 0 1-2.666-.152Zm.656-.3c1.623.142 3.813.05 4.2-.53.056-.072.1-.2-.057-.448a.573.573 0 0 0-.414-.273 1.39 1.39 0 0 0-.4-.037 9.521 9.521 0 0 0-3.329 1.289Z" fill="#407bff"/><path data-name="Path 427" d="M137.141 324.569a.2.2 0 0 1-.1-.182c.008-.11.155-2.46 1.23-3.409a1.527 1.527 0 0 1 1.132-.392c.569.036.756.316.786.551.219.97-1.8 2.928-2.822 3.425a.116.116 0 0 1-.085.01.189.189 0 0 1-.141-.003Zm2.139-3.589a1.073 1.073 0 0 0-.7.285 4.835 4.835 0 0 0-1.058 2.7c1.054-.675 2.369-2.2 2.3-2.784-.018-.052-.047-.2-.418-.218l-.118.014Z" fill="#407bff"/><path data-name="Path 428" d="m136.321 323.393-9.48.339a.764.764 0 0 0-.724.623l-1.438 7.774a1.269 1.269 0 0 0 1.006 1.487 1.285 1.285 0 0 0 .269.023c3.415-.182 6.448-.478 10.7-.623 5.021-.178 3.769.468 9.675.341 3.558-.079 4.065-4.146 2.55-4.291-6.933-.622-7.725-2.681-10.476-5.057a3.056 3.056 0 0 0-2.082-.616Z" fill="#263238"/></g><path data-name="Path 429" d="m127.892 318.223 9.005-.188.673-7.487h-9.7Z" fill="#263238" opacity=".2"/></g><path data-name="Path 430" d="M123.621 173.092s-10.143 13.438-2.629 39.753l8.483 38.382s-8.074 17.463-3.811 63.52a38.963 38.963 0 0 0 12.527-.28s9.445-48.643 10.883-65.076c1.582-18.1.634-72.66.634-72.66Z" fill="#ff4747"/><g data-name="Group 172"><path data-name="Path 431" d="M129.752 129.56s-1.572-6.719 8.506-3.779 9.238 8.678 9.238 8.678Z" fill="#263238"/><path data-name="Path 432" d="M129.752 129.56s-1.572-6.719 8.506-3.779 9.238 8.678 9.238 8.678Z" opacity=".4"/></g><path data-name="Path 433" d="M154.758 146.354c0 2.355-.993 5.76-1.883 9.571-.434 1.806-.832 3.688-1.1 5.6-1.429 10.413-1.892 21.365-1.892 21.365a41.485 41.485 0 0 1-32.478-6.441s3.964-3.357 3.149-26.614c-.368-10.479-4.151-22.935 13.165-20.977 14.622 1.655 19.54 6.195 20.723 13.3.009.085.028.18.047.274.028.217.057.435.085.662a27.714 27.714 0 0 1 .184 3.26Z" fill="#263238"/><path data-name="Path 434" d="M154.758 146.354c0 2.355-.993 5.76-1.883 9.571-3.952-4.757-7.916-13.666-7.916-13.666l3.263-4.8 5.751 2.677a17.256 17.256 0 0 1 .473 2.024c.009.085.028.18.047.274.028.217.057.435.085.662a27.71 27.71 0 0 1 .18 3.258Z" opacity=".4"/><path data-name="Path 435" d="M160.731 142.246s5.626 5.6 7.918 7.856l19.62-5.883a5.119 5.119 0 0 1 3.812-4.319l1.386-.353 2.949-.813a3.244 3.244 0 0 1 3.138.817 3.243 3.243 0 0 1 .663 3.676 8.036 8.036 0 0 1-6.429 4.6l-2.777.3s-17.513 9.558-23.149 9.027-13.042-7.309-13.042-7.309Z" fill="#b97964"/><path data-name="Path 436" d="M146.689 132.065c4.84.708 9.786 4.557 17.465 11.352a23.508 23.508 0 0 1-8.119 9.378s-4.479-1.96-9.809-8.744c-6.453-8.207-2.504-12.42.463-11.986Z" fill="#263238"/></g><g data-name="Group 111"><path data-name="Path 318" d="M156.754 56.644h-12.25a4.5 4.5 0 0 0-4.5 4.5v12.25a4.5 4.5 0 0 0 4.5 4.5h12.25a4.5 4.5 0 0 0 4.5-4.5v-12.25a4.5 4.5 0 0 0-4.5-4.5Zm-6.126 4.348c1.849 0 2.843 1.5 2.843 3.348s-.994 3.347-2.843 3.347-2.843-1.5-2.843-3.347.994-3.348 2.843-3.348Zm7.395 12.549h-14.789a.449.449 0 0 1-.317-.131l.949-2.589a4.228 4.228 0 0 1 3.97-2.774h5.585a4.229 4.229 0 0 1 3.97 2.774l.948 2.589a.448.448 0 0 1-.316.131Z" fill="#2e353a"/><path data-name="Path 438" d="M156.754 56.644h-12.25a4.5 4.5 0 0 0-4.5 4.5v12.25a4.5 4.5 0 0 0 4.5 4.5h12.25a4.5 4.5 0 0 0 4.5-4.5v-12.25a4.5 4.5 0 0 0-4.5-4.5Zm-6.126 4.348c1.849 0 2.843 1.5 2.843 3.348s-.994 3.347-2.843 3.347-2.843-1.5-2.843-3.347.994-3.348 2.843-3.348Zm7.395 12.549h-14.789a.449.449 0 0 1-.317-.131l.949-2.589a4.228 4.228 0 0 1 3.97-2.774h5.585a4.229 4.229 0 0 1 3.97 2.774l.948 2.589a.448.448 0 0 1-.316.131Z" fill="#fff" opacity=".7"/></g><g data-name="Group 114"><g data-name="Group 112" fill="#575c60"><path data-name="Path 320" d="M113.168 107.026h-9.308a6.058 6.058 0 0 0-6.059 6.059v9.308a6.058 6.058 0 0 0 6.059 6.059h9.308a6.059 6.059 0 0 0 6.06-6.059v-9.308a6.059 6.059 0 0 0-6.06-6.059Zm-4.654 15.792s-3.824-4.159-3.824-6.271a3.824 3.824 0 1 1 7.648 0c0 2.112-3.824 6.271-3.824 6.271Z"/><path data-name="Path 321" d="M108.514 114.802a1.745 1.745 0 1 0 1.745 1.745 1.745 1.745 0 0 0-1.745-1.745Z"/></g><g data-name="Group 177" opacity=".7" fill="#fff"><path data-name="Path 322" d="M113.168 107.026h-9.308a6.058 6.058 0 0 0-6.059 6.059v9.308a6.058 6.058 0 0 0 6.059 6.059h9.308a6.059 6.059 0 0 0 6.06-6.059v-9.308a6.059 6.059 0 0 0-6.06-6.059Zm-4.654 15.792s-3.824-4.159-3.824-6.271a3.824 3.824 0 1 1 7.648 0c0 2.112-3.824 6.271-3.824 6.271Z"/><path data-name="Path 323" d="M108.514 114.802a1.745 1.745 0 1 0 1.745 1.745 1.745 1.745 0 0 0-1.745-1.745Z"/></g></g></g></g></g></svg>