<svg width="100" height="100" viewBox="0 0 100 100" fill="none" xmlns="http://www.w3.org/2000/svg">
<path d="M67.6 44.8C64.7 44.8 62.4 47.1 62.4 50C62.4 52.9 64.7 55.2 67.6 55.2C70.5 55.2 72.8 52.9 72.8 50C72.8 47.1 70.4 44.8 67.6 44.8Z" fill="#373A3E"/>
<path d="M32.4 44.8C29.5 44.8 27.2 47.1 27.2 50C27.2 52.9 29.5 55.2 32.4 55.2C35.3 55.2 37.6 52.9 37.6 50C37.6 47.1 35.3 44.8 32.4 44.8Z" fill="#373A3E"/>
<path d="M80.1 25.1H19.9C14.5 25.1 10 29.5 10 35V65.1C10 70.6 14.5 75 19.9 75H34.3C36.9 75 39.4 74 41.3 72.1L46.3 67.1C47.3 66.1 48.6 65.6 50 65.6C51.4 65.6 52.7 66.2 53.7 67.1L58.7 72.1C60.6 74 63.1 75 65.7 75H80.1C85.5 75 90 70.6 90 65.1V34.9C90 29.4 85.5 25.1 80.1 25.1ZM32.4 59.9C27 59.9 22.5 55.5 22.5 50C22.5 44.5 26.9 40.1 32.4 40.1C37.9 40.1 42.3 44.5 42.3 50C42.3 55.5 37.9 59.9 32.4 59.9ZM67.6 59.9C62.2 59.9 57.7 55.5 57.7 50C57.7 44.5 62.1 40.1 67.6 40.1C73.1 40.1 77.5 44.5 77.5 50C77.5 55.5 73 59.9 67.6 59.9Z" fill="#373A3E"/>
</svg>
