<svg width="100" height="100" viewBox="0 0 100 100" fill="none" xmlns="http://www.w3.org/2000/svg">
<path d="M50 35.1C44.3 35.1 39.6 39.8 39.6 45.5C39.6 51.2 44.3 55.9 50 55.9C55.7 55.9 60.4 51.2 60.4 45.5C60.4 39.8 55.7 35.1 50 35.1ZM50 49.9C47.6 49.9 45.6 47.9 45.6 45.5C45.6 43.1 47.6 41.1 50 41.1C52.4 41.1 54.4 43.1 54.4 45.5C54.4 47.9 52.4 49.9 50 49.9Z" fill="#373A3E"/>
<path d="M62 65.2C69 61 73.1 53.6 73.1 45.5C73.1 32.8 62.7 22.4 50 22.4H49.6C36.9 22.4 26.9 32.5 26.9 45.5C26.9 53.6 31 61 38 65.2C38.3 65.4 38.7 65.5 39 65.5C39.7 65.5 40.3 65.2 40.7 64.5C41.3 63.5 41 62.3 40 61.7C34.3 58.2 30.8 52.1 30.8 45.4C30.8 34.7 39 26.3 49.5 26.3H49.9C60.4 26.3 69 34.9 69 45.4C69 52.1 65.6 58.2 59.8 61.7C58.8 62.3 58.6 63.5 59.1 64.5C59.8 65.5 61.1 65.8 62 65.2Z" fill="#373A3E"/>
<path d="M50.5 10H49.5C29.9 10 14 25.9 14 45.5C14 57.9 20.3 69.1 30.8 75.7C31.1 75.9 31.5 76 31.9 76C32.6 76 33.2 75.7 33.6 75.1C34.2 74.2 33.9 72.9 33 72.3C23.6 66.5 18 56.5 18 45.5C18 28.1 32.1 14 49.5 14H50.5C67.9 14 82 28.1 82 45.5C82 56.5 76.4 66.5 67.1 72.3C66.2 72.9 65.9 74.1 66.5 75.1C67.1 76 68.3 76.3 69.3 75.7C79.8 69.2 86 57.9 86 45.5C86 25.9 70.1 10 50.5 10Z" fill="#373A3E"/>
<path d="M52.2 62.8C51.1 60.3 49.3 60.3 48.2 62.8L36.8 85.5C35.7 88 37.2 90 40.3 90H44.8C47.8 90 52.8 90 55.8 90H59.8C62.8 90 64.4 88 63.3 85.5L52.2 62.8Z" fill="#373A3E"/>
</svg>
