<svg width="100" height="100" viewBox="0 0 100 100" fill="none" xmlns="http://www.w3.org/2000/svg">
<path d="M55.4 32.8C55.3 32.7 55.2 32.6 55.2 32.5C55.2 32.4 55.3 32.2 55.4 32.2L65.9 24.2C66 24 66.1 24 66.2 24C66.3 24 66.4 24 66.5 24.1C66.7 24.2 66.7 24.4 66.6 24.6L64.5 29.9H67.2C67.2 29.9 67.5 29.9 67.8 29.9C68 29.9 73.3 29.8 76.9 33.4C79.2 35.6 80.3 38.6 80.3 42.3H75.2C75.2 40 74.6 38.2 73.3 37C71.5 35.3 68.9 35 68.1 34.9H64.4L66.5 40.2C66.6 40.4 66.5 40.6 66.4 40.7C66.2 40.8 66 40.8 65.9 40.7L55.4 32.8ZM16.1 57.8H28.8V53.2H16.1V57.8ZM30.3 20.1C31.1 20.1 31.8 19.4 31.8 18.6C31.8 17.8 31.1 17.1 30.3 17.1C29.5 17.1 28.8 17.8 28.8 18.6C28.8 19.4 29.4 20.1 30.3 20.1ZM40 20.1C40.8 20.1 41.5 19.4 41.5 18.6C41.5 17.8 40.8 17.1 40 17.1C39.2 17.1 38.5 17.8 38.5 18.6C38.5 19.4 39.2 20.1 40 20.1ZM43.4 44.6H28.7V45.6H16.1V41H43.4C43.4 40.9 43.4 44.6 43.4 44.6ZM41.5 42.6H37.8V43.9H41.5V42.6ZM13.6 48H28.7V50.6H13.6V60.2H28.7V65.4H10V10.6H49V44.6H45.8V38.5H13.6V48ZM36.1 18.6C36.1 20.8 37.9 22.6 40.1 22.6C42.3 22.6 44.1 20.8 44.1 18.6C44.1 16.4 42.3 14.6 40.1 14.6C37.9 14.6 36.1 16.4 36.1 18.6ZM26.3 18.6C26.3 20.8 28.1 22.6 30.3 22.6C32.5 22.6 34.3 20.8 34.3 18.6C34.3 16.4 32.5 14.6 30.3 14.6C28.1 14.6 26.3 16.4 26.3 18.6ZM13.6 35.7H45.8V26.1H13.6V35.7ZM16.1 28.6H43.4V33.2H16.1V28.6ZM37.8 31.4H41.5V30.1H37.8V31.4ZM67.9 85.6V88.3C75.3 88.5 80.6 89.2 80.6 90C80.6 91 72.3 91.8 62 91.8C51.7 91.8 43.3 91 43.3 90C43.3 89.3 47.6 88.7 53.8 88.4V85.6H31.8V48.4H90V85.6H67.9ZM86.2 82.4V51.3H35.6V82.4H86.2Z" fill="#373A3E"/>
</svg>
