<svg width="100" height="100" viewBox="0 0 100 100" fill="none" xmlns="http://www.w3.org/2000/svg">
<path d="M71.5 77.7C71.5 79.4 72.1 80.8 73.3 82.1C74.5 83.3 76 83.9 77.7 83.9C79.4 83.9 80.8 83.3 82 82.1C83.2 80.9 83.8 79.4 83.8 77.7C83.8 76 83.2 74.6 82 73.3C80.8 72.1 79.3 71.5 77.7 71.5C76 71.5 74.5 72.1 73.3 73.3C72.1 74.5 71.5 76 71.5 77.7Z" fill="#373A3E"/>
<path d="M89.1 23.2C88.5 22.6 87.8 22.3 86.9 22.3H29.2C29.2 22.1 29.1 21.7 29 21.1C28.9 20.5 28.8 20 28.7 19.7C28.6 19.3 28.5 18.9 28.3 18.4C28.1 17.9 27.9 17.5 27.7 17.2C27.5 16.9 27.1 16.7 26.7 16.5C26.3 16.3 25.8 16.2 25.3 16.2H13.1C12.3 16.2 11.5 16.5 10.9 17.1C10.3 17.7 10 18.4 10 19.3C10 20.2 10.3 20.9 10.9 21.5C11.5 22.1 12.2 22.4 13.1 22.4H22.9L31.4 62C31.3 62.1 31 62.7 30.4 63.8C29.8 64.9 29.3 65.8 29 66.7C28.6 67.5 28.5 68.2 28.5 68.6C28.5 69.4 28.8 70.2 29.4 70.8C30 71.4 30.7 71.7 31.6 71.7H34.7H77.8H80.9C81.7 71.7 82.5 71.4 83.1 70.8C83.7 70.2 84 69.5 84 68.6C84 67.8 83.7 67 83.1 66.4C82.5 65.8 81.8 65.5 80.9 65.5H36.5C37.3 64 37.7 62.9 37.7 62.4C37.7 62.1 37.7 61.7 37.6 61.3C37.5 60.9 37.4 60.5 37.3 60C37.2 59.5 37.1 59.2 37.1 59L87.3 53.1C88.1 53 88.8 52.7 89.3 52.1C89.8 51.5 90.1 50.8 90.1 50.1V25.4C90 24.6 89.7 23.8 89.1 23.2Z" fill="#373A3E"/>
<path d="M28.5 77.7C28.5 79.4 29.1 80.8 30.3 82.1C31.5 83.3 33 83.9 34.7 83.9C36.4 83.9 37.8 83.3 39.1 82.1C40.3 80.9 40.9 79.4 40.9 77.7C40.9 76 40.3 74.6 39.1 73.3C37.9 72.1 36.4 71.5 34.7 71.5C33 71.5 31.6 72.1 30.3 73.3C29.1 74.5 28.5 76 28.5 77.7Z" fill="#373A3E"/>
</svg>
