<svg width="100" height="100" viewBox="0 0 100 100" fill="none" xmlns="http://www.w3.org/2000/svg">
<path d="M32.8 80.3H46V66.8H54V80.3H67.2V19.7H32.8V80.3ZM52.4 26.8H60.4V34.8H52.4V26.8ZM52.4 39.6H60.4V47.6H52.4V39.6ZM52.4 52.4H60.4V60.4H52.4V52.4ZM39.6 26.8H47.6V34.8H39.6V26.8ZM39.6 39.6H47.6V47.6H39.6V39.6ZM39.6 52.4H47.6V60.4H39.6V52.4Z" fill="#373A3E"/>
<path d="M70.3 25.1V68H75.4V80.3H87.5V25.1H70.3ZM81.3 62.2H74V55H81.3V62.2ZM81.3 50.5H74V43.2H81.3V50.5ZM81.3 38.9H74V31.6H81.3V38.9Z" fill="#373A3E"/>
<path d="M12.5 80.3H24.6V68H29.7V25.1H12.5V80.3ZM18.7 31.6H26V38.8H18.7V31.6ZM18.7 43.3H26V50.6H18.7V43.3ZM18.7 54.9H26V62.2H18.7V54.9Z" fill="#373A3E"/>
</svg>
