<svg width="100" height="100" viewBox="0 0 100 100" fill="none" xmlns="http://www.w3.org/2000/svg">
<path d="M86.2 20.3H13.8C13.1 20.3 12.5 20.9 12.5 21.6V78.5C12.5 79.2 13.1 79.8 13.8 79.8H86.2C86.9 79.8 87.5 79.2 87.5 78.5V21.6C87.5 20.8 86.9 20.3 86.2 20.3ZM25.4 77.2H15.1V65.5H25.4V77.2ZM25.4 62.9H15.1V51.3H25.4V62.9ZM25.4 48.7H15.1V37.1H25.4V48.7ZM25.4 34.5H15.1V22.8H25.4V34.5ZM59.7 51.1L45.5 60.2C45.3 60.3 45 60.4 44.8 60.4C44.6 60.4 44.4 60.3 44.2 60.2C43.8 60 43.5 59.5 43.5 59.1V40.9C43.5 40.4 43.8 40 44.2 39.8C44.6 39.6 45.1 39.6 45.5 39.8L59.7 48.9C60.1 49.1 60.3 49.5 60.3 50C60.3 50.5 60.1 50.9 59.7 51.1ZM84.9 77.2H74.6V65.5H84.9V77.2V77.2ZM84.9 62.9H74.6V51.3H84.9V62.9V62.9ZM84.9 48.7H74.6V37.1H84.9V48.7V48.7ZM84.9 34.5H74.6V22.8H84.9V34.5V34.5Z" fill="#373A3E"/>
</svg>
