<svg width="100" height="100" viewBox="0 0 100 100" fill="none" xmlns="http://www.w3.org/2000/svg">
<path d="M84.4 35.2H82.2V59.3C82.2 63.1 80 66.4 75.6 66.4H32.8V67.5C32.8 70.8 36.6 74.2 40.4 74.2H73.2L85.7 81.6L83.9 74.2H84.4C88.3 74.2 90 70.9 90 67.5V40.9C90 37.6 88.3 35.2 84.4 35.2Z" fill="#373A3E"/>
<path d="M69.2 18.4H19.4C15 18.4 10 22.3 10 26V56.2C10 59.7 14.3 62.2 18.4 62.5L15.7 72.6L32.8 62.5H69.2C73.6 62.5 77.6 59.8 77.6 56.1V31.8V26C77.7 22.3 73.6 18.4 69.2 18.4ZM27 43.9C24.5 43.9 22.5 41.9 22.5 39.4C22.5 36.9 24.5 34.9 27 34.9C29.5 34.9 31.5 36.9 31.5 39.4C31.5 41.9 29.5 43.9 27 43.9ZM43.8 43.9C41.3 43.9 39.3 41.9 39.3 39.4C39.3 36.9 41.3 34.9 43.8 34.9C46.3 34.9 48.3 36.9 48.3 39.4C48.3 41.9 46.3 43.9 43.8 43.9ZM60.6 43.9C58.1 43.9 56.1 41.9 56.1 39.4C56.1 36.9 58.1 34.9 60.6 34.9C63.1 34.9 65.1 36.9 65.1 39.4C65.1 41.9 63.1 43.9 60.6 43.9Z" fill="#373A3E"/>
</svg>
