<svg width="100" height="100" viewBox="0 0 100 100" fill="none" xmlns="http://www.w3.org/2000/svg">
<path d="M16.9 73.8C14.3 76.4 14.3 80.5 16.9 83.1C18.2 84.4 19.9 85 21.5 85C23.2 85 24.9 84.4 26.1 83.1L47.6 61.6L38.3 52.3L16.9 73.8Z" fill="#373A3E"/>
<path d="M70.7 33.9L80.1 29.1L85 19.6L80.4 15L70.9 19.9L66.1 29.3L54.7 40.7L59.3 45.3L70.7 33.9Z" fill="#373A3E"/>
<path d="M72.8 58.8L71.9 58.7C70.3 58.7 68.8 59 67.4 59.6L40.4 32.6C40.9 31.2 41.3 29.7 41.3 28.1L41.2 27.2C40.7 20.4 35.1 15 28.2 15C26.2 15 24.3 15.5 22.6 16.3L31.3 25C31.8 25.5 32.1 26 32.3 26.6C32.9 28.1 32.6 30 31.3 31.2C30.4 32.1 29.3 32.5 28.2 32.5C27.7 32.5 27.2 32.4 26.7 32.2C26.1 32 25.6 31.7 25.1 31.2L16.4 22.5C15.6 24.2 15.1 26.1 15.1 28.1C15.1 35 20.5 40.7 27.3 41.1L28.2 41.2C29.8 41.2 31.3 40.9 32.7 40.4L59.6 67.3C59.1 68.7 58.8 70.2 58.8 71.8L58.9 72.7C59.4 79.5 65 84.9 71.9 84.9C73.9 84.9 75.8 84.4 77.5 83.6L68.8 74.9C68.3 74.4 68 73.9 67.8 73.3C67.2 71.8 67.5 69.9 68.8 68.7C69.6 67.8 70.8 67.4 71.9 67.4C72.4 67.4 72.9 67.5 73.4 67.7C74 67.9 74.5 68.2 75 68.7L83.7 77.4C84.5 75.7 85 73.8 85 71.8C85 64.9 79.6 59.3 72.8 58.8Z" fill="#373A3E"/>
</svg>
