<svg width="100" height="100" viewBox="0 0 100 100" fill="none" xmlns="http://www.w3.org/2000/svg">
<path d="M14 44.5L15.1 41.5C14.4 42.3 14 43.4 14 44.5Z" fill="#373A3E"/>
<path d="M84.7 41.3L86.1 44.5C86 43.2 85.5 42.1 84.7 41.3Z" fill="#373A3E"/>
<path d="M81.3 40C82.7 40 83.9 40.6 84.7 41.6L84.6 41.2C84.7 41.2 84.7 41.3 84.7 41.3L83.6 38.7L74.4 14.6C74.4 12.1 72.4 10 69.8 10H52.9H46.9H29.9C27.4 10 25.3 12 25.3 14.6L16.1 38.7L15 41.3L15.1 41.2L15 41.6C15.8 40.6 17.1 40 18.4 40H81.3ZM40.4 14L43 12.6C43.6 12.3 44.4 12.5 44.8 12.9L49.8 18.4C50.2 18.8 50 19.4 49.4 19.7L46.5 20.8C45.3 21.4 46 22.7 46.8 23.9L51.1 28.6C53.1 30.4 54.3 31.3 55.5 30.9L58 29.4C58.6 29.1 59.4 29.3 59.8 29.7L64.8 35.2C65.2 35.6 65 36.2 64.4 36.5L61.4 37.5C59.5 38.2 51.8 38.4 43.3 28.7C35.1 19.3 38.8 14.9 40.4 14Z" fill="#373A3E"/>
<path d="M81.5 44.4H18.5C16 44.4 13.9 46.4 13.9 49V62.3C13.9 64.8 15.9 66.9 18.5 66.9H46.6V78.1H42.5C40.4 78.1 38.5 79.2 37.5 80.8H14.7V87.3H37.6C38.7 88.9 40.5 90 42.6 90H57.2C59.3 90 61.1 88.9 62.2 87.3H85.1V80.8H62.2C61.1 79.2 59.3 78.1 57.2 78.1H53.1V66.8H81.5C84 66.8 86.1 64.8 86.1 62.2V49C86 46.4 84 44.4 81.5 44.4ZM77.5 57.3H64.9V53.9H77.4V57.3H77.5Z" fill="#373A3E"/>
</svg>
