<svg width="100" height="100" viewBox="0 0 100 100" fill="none" xmlns="http://www.w3.org/2000/svg">
<path d="M73.4 44.3H71.4V31.4C71.4 27.5 68.2 24.3 64.3 24.3H64.1L63.2 22.7C62.3 21.2 61.9 19.5 61.9 17.9C61.9 14.1 58.4 11 54.1 11H40.5C36.2 11 32.7 14.1 32.7 17.9C32.7 19.6 32.2 21.2 31.4 22.7L30.5 24.3H30.3C26.4 24.3 23.2 27.5 23.2 31.4V70.6C23.2 74.5 26.4 77.7 30.3 77.7H30.5L31.4 79.3C32.3 80.8 32.7 82.5 32.7 84.1C32.7 87.9 36.2 91 40.5 91H54.1C58.4 91 61.9 87.9 61.9 84.1C61.9 82.4 62.4 80.8 63.2 79.3L64.1 77.7H64.3C68.2 77.7 71.4 74.5 71.4 70.6V57.7H73.4C75.2 57.7 76.7 56.2 76.7 54.4V47.7C76.7 45.8 75.2 44.3 73.4 44.3ZM68.7 70.6C68.7 73 66.7 75 64.3 75H30.4C28 75 26 73 26 70.6V31.4C26 29 28 27 30.4 27H64.3C66.7 27 68.7 29 68.7 31.4V44.3V57.6V70.6Z" fill="#373A3E"/>
<path d="M31.3 39C31.6 39 32 38.9 32.2 38.6L37.5 33.3C38 32.8 38 31.9 37.5 31.4C37 30.9 36.1 30.9 35.6 31.4L30.3 36.7C29.8 37.2 29.8 38.1 30.3 38.6C30.6 38.9 31 39 31.3 39Z" fill="#373A3E"/>
<path d="M31.3 45.7C31.6 45.7 32 45.6 32.2 45.3L34.9 42.6C35.4 42.1 35.4 41.2 34.9 40.7C34.4 40.2 33.5 40.2 33 40.7L30.3 43.4C29.8 43.9 29.8 44.8 30.3 45.3C30.6 45.5 31 45.7 31.3 45.7Z" fill="#373A3E"/>
<path d="M35.7 38.1C35.5 38.4 35.3 38.7 35.3 39C35.3 39.4 35.4 39.7 35.7 39.9C36 40.2 36.3 40.3 36.6 40.3C37 40.3 37.3 40.2 37.5 39.9C37.7 39.6 37.9 39.3 37.9 39C37.9 38.7 37.8 38.3 37.5 38.1C37.1 37.6 36.2 37.6 35.7 38.1Z" fill="#373A3E"/>
<path d="M38.4 37.3C38.7 37.6 39 37.7 39.3 37.7C39.6 37.7 40 37.6 40.2 37.3L44.2 33.3C44.7 32.8 44.7 31.9 44.2 31.4C43.7 30.9 42.8 30.9 42.3 31.4L38.3 35.4C37.9 35.9 37.9 36.8 38.4 37.3Z" fill="#373A3E"/>
<path d="M42.4 38.1L30.4 50.1C29.9 50.6 29.9 51.5 30.4 52C30.7 52.3 31 52.4 31.3 52.4C31.6 52.4 32 52.3 32.2 52L44.2 40C44.7 39.5 44.7 38.6 44.2 38.1C43.8 37.5 42.9 37.5 42.4 38.1Z" fill="#373A3E"/>
<path d="M45.1 35.4C44.8 35.6 44.7 36 44.7 36.3C44.7 36.7 44.8 37 45.1 37.2C45.4 37.4 45.7 37.6 46 37.6C46.3 37.6 46.7 37.5 46.9 37.2C47.1 36.9 47.3 36.6 47.3 36.3C47.3 36 47.2 35.6 46.9 35.4C46.4 34.9 45.5 34.9 45.1 35.4Z" fill="#373A3E"/>
<path d="M49.1 31.4L47.8 32.7C47.3 33.2 47.3 34.1 47.8 34.6C48.1 34.9 48.4 35 48.7 35C49 35 49.4 34.9 49.6 34.6L50.9 33.3C51.4 32.8 51.4 31.9 50.9 31.4C50.4 30.9 49.6 30.9 49.1 31.4Z" fill="#373A3E"/>
</svg>
