<svg id="Layer_1" data-name="Layer 1" xmlns="http://www.w3.org/2000/svg" viewBox="0 0 40 40"><defs><style>.cls-1{fill:#b70000;stroke:#fff;stroke-miterlimit:10;stroke-width:0.15px;}</style></defs><path class="cls-1" d="M36.9,31.84a.44.44,0,0,0-.44-.33h-1V12.16a2.1,2.1,0,0,0-2.09-2.1.46.46,0,1,0,0,.91,1.18,1.18,0,0,1,1.18,1.19V31.51H5.46V12.16A1.18,1.18,0,0,1,6.64,11a.46.46,0,1,0,0-.91,2.1,2.1,0,0,0-2.09,2.1V31.51h-1a.44.44,0,0,0-.44.33,3.37,3.37,0,0,0,.53,3,3.33,3.33,0,0,0,2.68,1.34H33.69a3.33,3.33,0,0,0,2.68-1.34A3.37,3.37,0,0,0,36.9,31.84Zm-1.26,2.42a2.42,2.42,0,0,1-2,1H6.31a2.42,2.42,0,0,1-1.95-1,2.49,2.49,0,0,1-.46-1.84H36.09A2.44,2.44,0,0,1,35.64,34.26Z"/><path class="cls-1" d="M23,33.37h-5.9a.46.46,0,0,0-.46.45.47.47,0,0,0,.46.46H23a.47.47,0,0,0,.46-.46A.46.46,0,0,0,23,33.37Z"/><path class="cls-1" d="M10.69,29.15H29.31a2.48,2.48,0,0,0,2.48-2.48V6.33a2.49,2.49,0,0,0-2.48-2.48H10.69A2.49,2.49,0,0,0,8.21,6.33V26.67A2.48,2.48,0,0,0,10.69,29.15Zm18.62-.92H10.69a1.56,1.56,0,0,1-1.57-1.56V8.78H30.88V26.67A1.56,1.56,0,0,1,29.31,28.23ZM10.69,4.77H29.31a1.56,1.56,0,0,1,1.57,1.56V7.87H9.12V6.33A1.56,1.56,0,0,1,10.69,4.77Z"/><path class="cls-1" d="M11,6.78h7.87a.46.46,0,0,0,.45-.46.45.45,0,0,0-.45-.45H11a.45.45,0,0,0-.45.45A.46.46,0,0,0,11,6.78Z"/><path class="cls-1" d="M28.91,21.15H26a.46.46,0,0,0,0,.92h2.95a.46.46,0,0,0,0-.92Z"/><path class="cls-1" d="M23.82,21.61a.46.46,0,0,0-.46-.46H17.05a.46.46,0,1,0,0,.92h6.31A.46.46,0,0,0,23.82,21.61Z"/><path class="cls-1" d="M11.09,22.07H14.9a.46.46,0,0,0,0-.92H11.09a.47.47,0,0,0-.46.46A.46.46,0,0,0,11.09,22.07Z"/><path class="cls-1" d="M28.91,23.24H24a.46.46,0,0,0,0,.91h4.89a.46.46,0,1,0,0-.91Z"/><path class="cls-1" d="M15.33,23.24a.46.46,0,0,0,0,.91h6.94a.46.46,0,1,0,0-.91Z"/><path class="cls-1" d="M11.09,24.16h2a.46.46,0,0,0,.45-.46.45.45,0,0,0-.45-.45h-2a.46.46,0,1,0,0,.91Z"/><path class="cls-1" d="M28.91,25.33H26.47a.47.47,0,0,0-.46.46.46.46,0,0,0,.46.45h2.44a.45.45,0,0,0,.46-.45A.46.46,0,0,0,28.91,25.33Z"/><path class="cls-1" d="M24.92,25.33H18.34a.47.47,0,0,0-.46.46.46.46,0,0,0,.46.45h6.58a.45.45,0,0,0,.45-.45A.46.46,0,0,0,24.92,25.33Z"/><path class="cls-1" d="M16.37,25.33H11.09a.47.47,0,0,0-.46.46.46.46,0,0,0,.46.45h5.28a.45.45,0,0,0,.46-.45A.46.46,0,0,0,16.37,25.33Z"/><path class="cls-1" d="M17.4,17.14a.44.44,0,0,0,.32.13.42.42,0,0,0,.32-.13.46.46,0,0,0,0-.65l-1.42-1.42L18,13.64A.45.45,0,0,0,17.4,13l-1.74,1.74a.46.46,0,0,0,0,.65Z"/><path class="cls-1" d="M22,17.14a.45.45,0,0,0,.32.13.46.46,0,0,0,.33-.13l1.74-1.75a.45.45,0,0,0,0-.64L22.6,13A.46.46,0,0,0,22,13a.47.47,0,0,0,0,.64l1.42,1.43L22,16.49A.48.48,0,0,0,22,17.14Z"/><path class="cls-1" d="M18.49,19.62a.4.4,0,0,0,.15,0,.46.46,0,0,0,.43-.32l2.73-8.24a.46.46,0,1,0-.87-.29L18.2,19.05A.45.45,0,0,0,18.49,19.62Z"/></svg>