<svg id="Layer_1" data-name="Layer 1" xmlns="http://www.w3.org/2000/svg" viewBox="0 0 40 40"><defs><style>.cls-1{fill:#b70000;stroke:#fff;stroke-miterlimit:10;stroke-width:0.1px;}</style></defs><path class="cls-1" d="M9.69,37.69H24.61a2.82,2.82,0,0,0,2.82-2.82V28.55H28a.42.42,0,0,0,.42-.43h0V26.9a4.45,4.45,0,0,0,.71-.3l.87.87a.47.47,0,0,0,.3.12.42.42,0,0,0,.3-.12L32,26.06a.46.46,0,0,0,0-.6l-.85-.86a4.87,4.87,0,0,0,.3-.71H32.7a.42.42,0,0,0,.42-.42h0v-2a.42.42,0,0,0-.42-.42H31.46a4.06,4.06,0,0,0-.28-.73l.87-.87a.44.44,0,0,0,0-.59l-1.43-1.41a.44.44,0,0,0-.59,0l-.87.87a4.45,4.45,0,0,0-.71-.3v-1.2a.42.42,0,0,0-.4-.44h-.62V5.13a2.82,2.82,0,0,0-2.82-2.82H9.69A2.81,2.81,0,0,0,6.88,5.13V34.87A2.81,2.81,0,0,0,9.69,37.69Zm18-20.5v1.13a.45.45,0,0,0,.32.4h0a3.65,3.65,0,0,1,1,.39.47.47,0,0,0,.54-.05l.79-.79.89.89-.79.79a.44.44,0,0,0-.06.51,4,4,0,0,1,.43,1.07h0a.44.44,0,0,0,.39.31h1.14V23.1H31.18a.44.44,0,0,0-.39.32h0a3.72,3.72,0,0,1-.42,1,.44.44,0,0,0,.06.53l.79.8-.89.88-.79-.79a.44.44,0,0,0-.52-.06,3.85,3.85,0,0,1-1,.42h0a.45.45,0,0,0-.32.4v1.13H26.41V26.62a.28.28,0,0,0,0-.13.45.45,0,0,0-.29-.28h0a3.71,3.71,0,0,1-1-.39.44.44,0,0,0-.53.05l-.79.79-.89-.89.79-.79a.44.44,0,0,0,.06-.51,4.15,4.15,0,0,1-.43-1h0a.44.44,0,0,0-.4-.32H21.75V21.84h1.13a.44.44,0,0,0,.4-.31h0a3.66,3.66,0,0,1,.42-1,.44.44,0,0,0,0-.53l-.79-.79.89-.89.79.79a.44.44,0,0,0,.52.06,3.85,3.85,0,0,1,1-.42h0a.44.44,0,0,0,.3-.28.51.51,0,0,0,0-.13V17.19h1.23ZM7.67,5.13a2,2,0,0,1,2-2H24.61a2,2,0,0,1,2,2V7.25h-19ZM7.67,8h19V16.4h-.59a.43.43,0,0,0-.44.41V18a4.76,4.76,0,0,0-.7.3L24,17.46a.42.42,0,0,0-.3-.12.64.64,0,0,0-.3.11L22,18.86a.46.46,0,0,0,0,.6l.85.88a6.22,6.22,0,0,0-.29.71h-1.2a.42.42,0,0,0-.43.42h0v2a.42.42,0,0,0,.42.42H22.6a6.46,6.46,0,0,0,.28.73l-.86.86a.43.43,0,0,0,0,.6l1.41,1.41a.46.46,0,0,0,.6,0l.86-.87a4.45,4.45,0,0,0,.71.3v1.22a.43.43,0,0,0,.42.43h.62v.94h-19Zm0,22.24h19v4.59a2,2,0,0,1-2,2H9.69a2,2,0,0,1-2-2Z"/><path class="cls-1" d="M17.15,36.13a2.55,2.55,0,1,0-2.54-2.54h0A2.54,2.54,0,0,0,17.15,36.13Zm0-4.3a1.76,1.76,0,1,1-1.75,1.76A1.76,1.76,0,0,1,17.15,31.83Z"/><rect class="cls-1" x="14.68" y="4.78" width="4.94" height="0.79"/><path class="cls-1" d="M24.46,22.47A2.57,2.57,0,1,0,27,19.91h0A2.57,2.57,0,0,0,24.46,22.47ZM27,20.7a1.78,1.78,0,1,1-1.78,1.77h0A1.78,1.78,0,0,1,27,20.7Z"/><path class="cls-1" d="M21.23,19.68a.48.48,0,0,0-.13-.3l-1-1.05a4.82,4.82,0,0,0,.37-.91h1.48a.43.43,0,0,0,.43-.43h0V14.67a.42.42,0,0,0-.42-.43H20.43a5.11,5.11,0,0,0-.37-.91l1-1.05a.43.43,0,0,0,.13-.3.48.48,0,0,0-.13-.3L19.46,10a.39.39,0,0,0-.3-.13h0a.42.42,0,0,0-.3.13l-1.05,1a5.15,5.15,0,0,0-.91-.38V9.23a.43.43,0,0,0-.43-.43H14.14a.44.44,0,0,0-.43.42h0V10.7a6,6,0,0,0-.91.38l-1-1a.43.43,0,0,0-.61,0L9.51,11.68a.39.39,0,0,0-.12.3.42.42,0,0,0,.12.3l1.05,1.05a5.24,5.24,0,0,0-.4.91H8.7a.43.43,0,0,0-.44.41V17a.43.43,0,0,0,.43.43h1.47a5.7,5.7,0,0,0,.4.91l-1,1.05a.39.39,0,0,0-.13.3.47.47,0,0,0,.12.3l1.65,1.65a.43.43,0,0,0,.6,0l1.05-1.05a5.7,5.7,0,0,0,.91.4v1.48a.43.43,0,0,0,.43.43h2.32a.43.43,0,0,0,.43-.43h0V21a6.08,6.08,0,0,0,.91-.39l1.05,1a.43.43,0,0,0,.6,0L21.1,20A.42.42,0,0,0,21.23,19.68Zm-2.07,1.13-1-1a.41.41,0,0,0-.52-.06,4.82,4.82,0,0,1-1.22.5.45.45,0,0,0-.33.39v1.4H14.5V20.68a.44.44,0,0,0-.32-.39,4.82,4.82,0,0,1-1.22-.5.41.41,0,0,0-.52.06l-1,1L10.33,19.7l1-1a.45.45,0,0,0,.06-.53,4.25,4.25,0,0,1-.5-1.23.44.44,0,0,0-.42-.33H9.05V15.05h1.39a.43.43,0,0,0,.42-.32,4.19,4.19,0,0,1,.5-1.22.44.44,0,0,0-.07-.53l-1-1,1.13-1.13,1,1a.42.42,0,0,0,.52.07,4.69,4.69,0,0,1,1.24-.53.42.42,0,0,0,.32-.39V9.59h1.6V11a.42.42,0,0,0,.33.39,4.51,4.51,0,0,1,1.22.51.42.42,0,0,0,.52-.07l1-1L20.29,12l-1,1a.45.45,0,0,0-.06.53,4.51,4.51,0,0,1,.51,1.22.42.42,0,0,0,.39.32h1.39v1.58H20.16a.44.44,0,0,0-.4.33,4.24,4.24,0,0,1-.5,1.21.45.45,0,0,0,.06.53l1,1Z"/><path class="cls-1" d="M15.31,12.89a2.93,2.93,0,1,0,2.93,2.93h0A2.94,2.94,0,0,0,15.31,12.89Zm0,5.07a2.15,2.15,0,1,1,2.13-2.15h0A2.14,2.14,0,0,1,15.32,18h0Z"/></svg>