<svg id="Layer_1" data-name="Layer 1" xmlns="http://www.w3.org/2000/svg" viewBox="0 0 40 40"><defs><style>.cls-1,.cls-2{fill:#b70000;}.cls-1{stroke:#fff;stroke-miterlimit:10;stroke-width:0.25px;}</style></defs><path class="cls-1" d="M32.08,9.83H28.27V3.47A2.55,2.55,0,0,0,25.72.92H7.92A2.55,2.55,0,0,0,5.37,3.47V36.53a2.55,2.55,0,0,0,2.55,2.55h17.8a2.55,2.55,0,0,0,2.55-2.55V31.45h3.81a2.56,2.56,0,0,0,2.55-2.55V12.37A2.55,2.55,0,0,0,32.08,9.83ZM20,2.2v.63a.64.64,0,0,1-.64.64H14.28a.64.64,0,0,1-.64-.64V2.2Zm7,34.33a1.27,1.27,0,0,1-1.27,1.27H7.92a1.27,1.27,0,0,1-1.27-1.27V3.47A1.27,1.27,0,0,1,7.92,2.2h4.45v.63a1.91,1.91,0,0,0,1.91,1.91h5.08a1.91,1.91,0,0,0,1.91-1.91V2.2h4.45A1.27,1.27,0,0,1,27,3.47V9.83H10.46a2.54,2.54,0,0,0-2.54,2.54V28.9a2.55,2.55,0,0,0,2.54,2.55H27Zm6.36-7.63a1.27,1.27,0,0,1-1.27,1.27H10.46A1.27,1.27,0,0,1,9.19,28.9V12.37a1.27,1.27,0,0,1,1.27-1.27H32.08a1.27,1.27,0,0,1,1.27,1.27Z"/><path class="cls-1" d="M17,21.09a.64.64,0,0,0,.9-.9l-2.73-2.73,2.73-2.73a.64.64,0,0,0,0-.9.63.63,0,0,0-.88,0L13.83,17a.63.63,0,0,0,0,.9h0Z"/><path class="cls-1" d="M25.54,13.83a.64.64,0,0,0-.9.9l2.73,2.73-2.73,2.73a.64.64,0,0,0,0,.9.63.63,0,0,0,.9,0h0l3.18-3.18a.65.65,0,0,0,0-.9h0Z"/><path class="cls-1" d="M23.43,12.42a.63.63,0,0,0-.83.33h0l-3.82,8.9a.63.63,0,0,0,.33.83.64.64,0,0,0,.84-.33l3.81-8.9a.64.64,0,0,0-.33-.84Z"/><path class="cls-1" d="M19.36,24.45H11.73a.64.64,0,0,0-.63.64.63.63,0,0,0,.63.63h7.63a.62.62,0,0,0,.63-.64A.63.63,0,0,0,19.36,24.45Z"/><path class="cls-1" d="M16.82,27H11.73a.64.64,0,0,0,0,1.28h5.09a.64.64,0,0,0,0-1.28Z"/><path class="cls-1" d="M14.28,36.53h5.08a.62.62,0,0,0,.63-.64.63.63,0,0,0-.63-.63H14.28a.64.64,0,0,0-.63.65A.63.63,0,0,0,14.28,36.53Z"/><path class="cls-2" d="M25.72,4.29a1.51,1.51,0,0,0-.24-.57s0,0-.05,0a.44.44,0,0,1-.15.12s0,0,0,.07a1.27,1.27,0,0,1,.2,1,1.34,1.34,0,0,1-.61.92,1.3,1.3,0,0,1-.26.14h0l-.05,0h0l-.17,0-.3,0h0a.88.88,0,0,0-.17,0,1.58,1.58,0,0,1-.57-.24c-.08-.06-.15-.14-.23-.21l0,0s-.05-.08-.09-.12l-.07-.12a.31.31,0,0,0-.05-.1.28.28,0,0,0,0-.12l0-.13a2.11,2.11,0,0,1,0-.25h0a1.23,1.23,0,0,1,0-.27,1.5,1.5,0,0,1,.17-.46h0a1.26,1.26,0,0,1,.32-.37c.07-.06.15-.1.22-.15l.05,0h0a1.36,1.36,0,0,1,.59-.12h.19s0,0,0,0h0a1.54,1.54,0,0,1,.3.11s0,0,0,0l.09-.19s0,0,0,0l-.11,0A.73.73,0,0,0,24.47,3a.62.62,0,0,0-.23,0,1.47,1.47,0,0,0-.51,0,1.22,1.22,0,0,0-.27.09l-.07,0a1.65,1.65,0,0,0-.41.28,1.68,1.68,0,0,0-.24.29s0,0,0,.06l0,0h0a1.64,1.64,0,0,0-.14.3,1.2,1.2,0,0,0-.07.46v0h0a1,1,0,0,0,0,.35h0a.19.19,0,0,0,0,.07.42.42,0,0,0,0,.16h0l0,.07,0,.09s0,0,0,0a1.62,1.62,0,0,0,.34.44,1.6,1.6,0,0,0,.47.31,1.65,1.65,0,0,0,.53.13h0a2.17,2.17,0,0,0,.36,0l.18,0,.08,0,.24-.09A.78.78,0,0,0,25,6l.07,0,.07-.06h0a1.75,1.75,0,0,0,.23-.24A1.65,1.65,0,0,0,25.72,4.29Z"/><path class="cls-2" d="M24.9,3.73a.29.29,0,0,0,.38,0s0-.06.08-.09a.25.25,0,0,0,.05-.16.31.31,0,0,0-.34-.3h0a.25.25,0,0,0-.2.09A.31.31,0,0,0,24.9,3.73Z"/><path class="cls-2" d="M24.61,5.16a.74.74,0,0,0,.2-.68.73.73,0,0,0-.24-.38l-.05,0a.05.05,0,0,0,0,0h0A.48.48,0,0,0,24.3,4h0a.45.45,0,0,0-.16,0H24l-.08,0h-.06a.6.6,0,0,0-.25.16h0l0,0-.05.06a.54.54,0,0,0-.1.2h0a.54.54,0,0,0,0,.22h0V4.7h0s0,0,0,0A.54.54,0,0,0,23.5,5a.64.64,0,0,0,.59.35h.09s0,0,0,0h0a.57.57,0,0,0,.31-.15h0s0,0,0,0h0Zm-1-.91Zm.16.27Zm.06,0h0Zm.06.36Zm.15.07h0Zm.09-.72h0Z"/></svg>