<svg id="Layer_1" data-name="Layer 1" xmlns="http://www.w3.org/2000/svg" viewBox="0 0 40 40"><defs><style>.cls-1{fill:#b70000;stroke:#fff;stroke-miterlimit:10;stroke-width:0.5px;}</style></defs><path class="cls-1" d="M31.56,8.44V6.27A3.61,3.61,0,0,0,28,2.66H12.05A3.61,3.61,0,0,0,8.44,6.27V33.73a3.61,3.61,0,0,0,3.61,3.61H28a3.61,3.61,0,0,0,3.61-3.61V12.05a.72.72,0,0,0-.72-.72.73.73,0,0,0-.73.72V33.73A2.16,2.16,0,0,1,28,35.89H12.05a2.16,2.16,0,0,1-2.16-2.16V6.27a2.16,2.16,0,0,1,2.16-2.16H28a2.16,2.16,0,0,1,2.16,2.16V7.72H12.78a.72.72,0,1,0,0,1.44H30.84A.72.72,0,0,0,31.56,8.44Z"/><path class="cls-1" d="M12.05,31.56a.73.73,0,0,0,.73.72H27.22a.72.72,0,1,0,0-1.44H12.78A.73.73,0,0,0,12.05,31.56Z"/><path class="cls-1" d="M28,12.78a1.45,1.45,0,0,0-1.45-1.45h-13a1.45,1.45,0,0,0-1.45,1.45v1.44a.73.73,0,0,0,1.45,0V12.78h13V20h-13V17.83H24.33a.72.72,0,1,0,0-1.44H12.78a.73.73,0,0,0-.73.72V20a1.44,1.44,0,0,0,1.45,1.44h13A1.44,1.44,0,0,0,28,20Z"/><path class="cls-1" d="M18.34,23.1a.72.72,0,0,0-1,0l-2.17,2.17a.72.72,0,0,0,0,1l2.17,2.17a.72.72,0,0,0,1-1l-1.65-1.66,1.65-1.66A.71.71,0,0,0,18.34,23.1Z"/><path class="cls-1" d="M21.66,28.46a.72.72,0,0,0,1,0l2.17-2.17a.72.72,0,0,0,0-1L22.68,23.1a.72.72,0,0,0-1,1l1.65,1.66-1.65,1.66A.71.71,0,0,0,21.66,28.46Z"/></svg>