<svg id="Layer_1" data-name="Layer 1" xmlns="http://www.w3.org/2000/svg" viewBox="0 0 40 40"><defs><style>.cls-1{fill:#b70000;stroke:#fff;stroke-miterlimit:10;stroke-width:0.4px;}</style></defs><path class="cls-1" d="M36.81,9.8a.68.68,0,0,0,.66-.67V3.92a.63.63,0,0,0-.66-.6H31.36a.59.59,0,0,0-.61.56V5.93H9.25v-2a.59.59,0,0,0-.57-.6H3.19a.63.63,0,0,0-.66.6V9.13a.68.68,0,0,0,.66.67H5.3V30.2H3.19a.68.68,0,0,0-.66.67v5.21a.63.63,0,0,0,.66.6H8.64a.59.59,0,0,0,.61-.56v-2h21.5v2a.59.59,0,0,0,.57.6h5.49a.63.63,0,0,0,.66-.6V30.87a.68.68,0,0,0-.66-.67H34.7V9.8Zm-33-1.26v-4H8v4ZM8,35.42H3.79v-4H8Zm22.77-4.55v1.94H9.25V30.87a.65.65,0,0,0-.61-.67H6.56V9.8H8.64a.65.65,0,0,0,.61-.67V7.19h21.5V9.13a.65.65,0,0,0,.61.67h2.08V30.2H31.36A.65.65,0,0,0,30.75,30.87Zm5.46.59v4H32v-4ZM32,8.54v-4h4.19v4Z"/><polygon class="cls-1" points="15.59 15.16 10.76 20 15.59 24.84 16.49 23.94 12.55 20 16.49 16.06 15.59 15.16"/><polygon class="cls-1" points="23.51 16.06 27.45 20 23.51 23.94 24.41 24.84 29.24 20 24.41 15.16 23.51 16.06"/><rect class="cls-1" x="12.87" y="19.37" width="14.26" height="1.26" transform="translate(-4.54 34.06) rotate(-74.81)"/></svg>