<svg id="Layer_1" data-name="Layer 1" xmlns="http://www.w3.org/2000/svg" viewBox="0 0 40 40"><defs><style>.cls-1{fill:#b70000;stroke:#fff;stroke-miterlimit:10;stroke-width:0.25px;}</style></defs><path class="cls-1" d="M10,17.17a.6.6,0,0,0,.46-.21.64.64,0,0,0,0-.89,3.14,3.14,0,0,1,2.09-5.48A.62.62,0,0,0,13.1,10a6.78,6.78,0,0,1,.68-3,.63.63,0,0,0-1.13-.55,7.92,7.92,0,0,0-.78,2.94A4.39,4.39,0,0,0,9.55,17,.63.63,0,0,0,10,17.17Z"/><path class="cls-1" d="M17,3.77a6.83,6.83,0,0,1,3-.7,6.91,6.91,0,0,1,6.53,4.68.59.59,0,0,0,.49.41,4.37,4.37,0,0,1,3.64,4.32,4.45,4.45,0,0,1-1.1,2.91.62.62,0,0,0,.06.88.62.62,0,0,0,.89-.06,5.72,5.72,0,0,0,1.4-3.73A5.61,5.61,0,0,0,27.59,7,8.16,8.16,0,0,0,20,1.82a7.91,7.91,0,0,0-3.58.83.62.62,0,0,0-.28.83A.62.62,0,0,0,17,3.77Z"/><path class="cls-1" d="M10,38.18H30a3.14,3.14,0,0,0,3.14-3.13.63.63,0,0,0-.63-.63h-.63V20a.63.63,0,0,0-.62-.63H30a.63.63,0,0,0,0,1.26h.63V34.42H9.34V20.63H10a.63.63,0,0,0,0-1.26H8.71a.63.63,0,0,0-.62.63V34.42H7.46a.63.63,0,0,0-.63.63A3.14,3.14,0,0,0,10,38.18Zm21.32-2.5h.52A1.89,1.89,0,0,1,30,36.93H10a1.89,1.89,0,0,1-1.78-1.25Z"/><path class="cls-1" d="M5,28.15H6.2a.63.63,0,1,0,0-1.25H5.58V13.1H6.2a.63.63,0,1,0,0-1.25H5a.63.63,0,0,0-.63.63v15A.63.63,0,0,0,5,28.15Z"/><path class="cls-1" d="M33.8,26.9a.63.63,0,1,0,0,1.25h1.25a.63.63,0,0,0,.63-.63v-15a.63.63,0,0,0-.63-.63H33.8a.63.63,0,1,0,0,1.25h.62V26.9Z"/><path class="cls-1" d="M13.46,13.88a.63.63,0,0,0-.05.67l.44.8a7.92,7.92,0,0,0-.6,1.45l-.87.25a.63.63,0,0,0-.44.51,7.85,7.85,0,0,0,0,2.37.63.63,0,0,0,.44.51l.87.25a7.64,7.64,0,0,0,.6,1.45l-.44.8a.63.63,0,0,0,.05.67,8.31,8.31,0,0,0,1.67,1.68.64.64,0,0,0,.68,0l.79-.44a6.73,6.73,0,0,0,1.45.6l.26.88a.63.63,0,0,0,.51.44,7.78,7.78,0,0,0,2.36,0,.63.63,0,0,0,.51-.44l.26-.88a6.45,6.45,0,0,0,1.44-.6l.8.44a.64.64,0,0,0,.68,0,8.31,8.31,0,0,0,1.67-1.68.65.65,0,0,0,.05-.67l-.44-.8a7.64,7.64,0,0,0,.6-1.45l.87-.25a.63.63,0,0,0,.44-.51,7.85,7.85,0,0,0,0-2.37.63.63,0,0,0-.44-.51l-.87-.25a7.92,7.92,0,0,0-.6-1.45l.44-.8a.65.65,0,0,0-.05-.67,8,8,0,0,0-1.67-1.67.62.62,0,0,0-.68-.05l-.8.44A6.45,6.45,0,0,0,22,12l-.26-.87a.62.62,0,0,0-.51-.45,8.48,8.48,0,0,0-2.36,0,.62.62,0,0,0-.51.45l-.26.87a6.73,6.73,0,0,0-1.45.6l-.79-.44a.62.62,0,0,0-.68.05A8,8,0,0,0,13.46,13.88Zm2.11-.42.74.41a.62.62,0,0,0,.63,0,5.89,5.89,0,0,1,1.75-.72.64.64,0,0,0,.47-.44l.23-.81a6.22,6.22,0,0,1,1.22,0l.23.81a.65.65,0,0,0,.47.44,6,6,0,0,1,1.75.72.64.64,0,0,0,.63,0l.74-.41a6.91,6.91,0,0,1,.86.85l-.41.75a.64.64,0,0,0,0,.63,5.57,5.57,0,0,1,.73,1.75.61.61,0,0,0,.43.46l.82.24a6.12,6.12,0,0,1,0,1.21l-.82.24a.61.61,0,0,0-.43.46,5.57,5.57,0,0,1-.73,1.75.64.64,0,0,0,0,.63l.41.75a6.91,6.91,0,0,1-.86.85l-.74-.41a.64.64,0,0,0-.63,0,6,6,0,0,1-1.75.72.67.67,0,0,0-.47.44l-.23.82a8.28,8.28,0,0,1-1.22,0l-.23-.82a.65.65,0,0,0-.47-.44,5.89,5.89,0,0,1-1.75-.72.64.64,0,0,0-.63,0l-.74.41a6.91,6.91,0,0,1-.86-.85l.41-.75a.64.64,0,0,0,0-.63,5.57,5.57,0,0,1-.73-1.75.63.63,0,0,0-.43-.46l-.82-.24a6.12,6.12,0,0,1,0-1.21L14,17.9a.63.63,0,0,0,.43-.46,5.57,5.57,0,0,1,.73-1.75.64.64,0,0,0,0-.63l-.41-.75A6.91,6.91,0,0,1,15.57,13.46Z"/><path class="cls-1" d="M20,21.88a3.14,3.14,0,1,0-3.14-3.13A3.14,3.14,0,0,0,20,21.88Zm0-5a1.89,1.89,0,1,1-1.88,1.89A1.89,1.89,0,0,1,20,16.86Z"/><circle class="cls-1" cx="14.65" cy="4.66" r="0.63"/></svg>