<?xml version="1.0" encoding="utf-8"?>
<!-- Generator: Adobe Illustrator 25.1.0, SVG Export Plug-In . SVG Version: 6.00 Build 0)  -->
<svg version="1.1" id="Layer_1" xmlns="http://www.w3.org/2000/svg" xmlns:xlink="http://www.w3.org/1999/xlink" x="0px" y="0px"
	 viewBox="0 0 243 243" style="enable-background:new 0 0 243 243;" xml:space="preserve">
<style type="text/css">
	.st0{fill:#FFFFFF;}
</style>
<path d="M205,243H38c-21,0-38-17-38-38V38C0,17,17,0,38,0h167c21,0,38,17,38,38v167C243,226,226,243,205,243z"/>
<path class="st0" d="M142,54.1c13.2-4.7,26,2.2,28.7,16.6c0.8-0.2,1.6-0.4,2.4-0.6c12.7-3.8,25.3,4.7,26.2,17.9
	c0.1,1.9,0.1,3.8,0.1,5.7c0,18.1-0.1,36.2,0.1,54.3c0.1,12.8-5.3,22.2-16.6,28.5c-15.2,8.5-30.2,17.3-45.4,26
	c-10.5,6.1-21.1,6.1-31.7,0c-15.5-8.9-31-17.8-46.5-26.7c-10.2-5.8-15.4-14.6-15.5-26.2c-0.1-18.3-0.1-36.6,0-54.9
	c0.1-11.2,5.1-19.9,14.9-25.5C76.1,59,93.7,49,111.2,38.9c7.9-4.5,16.8-3.7,23.7,2c3.2,2.7,5.3,6.1,6.3,10.1
	C141.5,52.1,141.8,53.1,142,54.1z M137.6,56.9c0.1-6.1-2.3-10.8-7.2-14c-5.4-3.5-11.1-3.6-16.7-0.4c-17.6,10-35.2,20.1-52.8,30.3
	c-8.7,5-12.9,12.8-12.9,22.7c0,17.7,0,35.6,0,53.3c0,10.5,4.6,18.3,13.8,23.6c15.5,8.9,31,17.7,46.5,26.6c8.9,5.2,17.9,5.2,26.8,0
	c15.5-8.9,31-17.7,46.5-26.6c9.3-5.3,13.9-13.2,13.8-23.9c-0.1-19.3,0-38.5,0-57.8c0-1.3,0-2.6-0.2-3.8
	C193,74.1,178.3,70,170.6,76.2c0,1.1,0,2.4,0,3.6c0,17.9,0,35.7,0,53.6c0,10.3-3.9,18.8-12.9,24.2c-10.5,6.3-21.3,12.3-31.9,18.4
	c-3,1.7-6.2,2.4-9.6,2c-8.5-1-14.3-7.3-14.7-15.9c-0.1-1.5-0.1-3-0.1-5c-1.9,1.1-3.1,1.8-4.4,2.5c-3.2,1.7-6.6,2.4-10.2,1.9
	c-8.5-1.3-13.9-7.7-13.9-16.8c-0.1-11.3-0.1-22.5,0-33.8c0-11.2,4.9-19.5,14.7-25.2c13-7.4,26-14.9,39-22.3
	C130,61.3,133.7,59.2,137.6,56.9z M137.5,62.2c-0.5,0.1-0.8,0.2-1.1,0.3c-16.3,9.3-32.7,18.6-48.9,28.2c-6.3,3.7-10.2,9.6-10.4,17
	c-0.4,12.8-0.1,25.7-0.1,38.6c0,0.3,0.1,0.6,0.1,1c1,7.7,9.3,12.4,16.4,9.4c2.8-1.2,5.4-2.9,8.1-4.5c0-1.5,0-2.6,0-3.8
	c0-9.1,0-18.1,0-27.1c0-7,3-12.3,9.1-15.8c1.5-0.8,3-1.7,4.4-2.6c7.5-4.3,15-8.6,22.5-12.9C137.5,80.7,137.5,71.5,137.5,62.2z
	 M166.4,78.3c-8.5,4.9-16.6,9.4-24.6,14.1c0,10.3,0,20.5,0,30.6c0,7.2-3.1,12.6-9.4,16.3c-6,3.4-12.1,6.9-18.1,10.3
	c-2.8,1.7-5.7,3.3-8.5,5c0,3.1-0.2,5.9,0.1,8.8c0.3,3.9,2.3,6.8,5.7,8.8c4.2,2.6,8.5,2.4,12.8-0.1c9.7-5.6,19.4-11.3,29.2-16.7
	c8.9-5,13.1-12.4,13-22.5c-0.1-16.8,0-33.6,0-50.4C166.4,81.3,166.4,80.2,166.4,78.3z M105.6,149.4c1.2-0.5,1.7-0.8,2.3-1
	c7.5-4.3,15-8.6,22.5-13c4.8-2.7,7.1-6.8,7.1-12.3c-0.1-6.9,0.1-13.9,0.1-20.7c0-2.3,0-4.6,0-7.3c-1.1,0.4-1.7,0.6-2.2,1
	c-7.6,4.3-15.2,8.7-22.8,13.1c-4.8,2.7-7.1,6.9-7.1,12.4c0,6.3,0,12.6,0,18.8C105.6,143.2,105.6,146,105.6,149.4z M142.1,59.2
	c0,9.3,0,18.5,0,28.2c8.4-4.8,16.4-9.4,24.3-13.9c-0.1-6.8-2.9-11.6-8.5-14.7C152.5,55.9,147.2,56.2,142.1,59.2z"/>
</svg>
