<?xml version="1.0" encoding="utf-8"?>
<!-- Generator: Adobe Illustrator 16.0.0, SVG Export Plug-In . SVG Version: 6.00 Build 0)  -->
<!DOCTYPE svg PUBLIC "-//W3C//DTD SVG 1.1//EN" "http://www.w3.org/Graphics/SVG/1.1/DTD/svg11.dtd">
<svg version="1.1" id="Layer_1" xmlns="http://www.w3.org/2000/svg" xmlns:xlink="http://www.w3.org/1999/xlink" x="0px" y="0px"
	 width="128px" height="128px" viewBox="0 0 128 128" enable-background="new 0 0 128 128" xml:space="preserve">
<title>chatbot</title>
<path d="M119.79,50.71h-5.5v-2.38c-0.021-8.87-7.2-16.05-16.06-16.07H68.56v-5.91c0.73-0.25,1.421-0.58,2.091-0.97
	c0.89-0.54,1.71-1.18,2.449-1.91l0.07-0.06c1.18-1.17,2.11-2.57,2.75-4.1c1.271-3.09,1.271-6.57,0-9.66
	c-1.96-4.73-6.57-7.81-11.69-7.81c-1.67-0.01-3.32,0.32-4.85,0.96c-1.53,0.64-2.92,1.57-4.09,2.74c-1.17,1.18-2.11,2.57-2.75,4.11
	c-2.39,5.82-0.15,12.52,5.26,15.73c0.67,0.38,1.37,0.7,2.09,0.97v5.91H29.76c-8.86,0.02-16.03,7.2-16.05,16.06v2.39H8.23
	c-4.54,0.02-8.22,3.7-8.23,8.24v19.14c0.01,4.54,3.69,8.23,8.24,8.24h5.47v2.15c0.03,8.859,7.2,16.02,16.05,16.05h0.22l-1.3,18.75
	c-0.04,0.7,0.2,1.39,0.65,1.92c0.01,0.01,0.01,0.01,0.02,0.02c0.96,1.12,2.66,1.25,3.79,0.29l24.39-20.95H98.23
	c8.869-0.02,16.06-7.199,16.09-16.079v-2.15h5.47c4.54-0.021,8.22-3.7,8.229-8.24V58.95C128.01,54.41,124.33,50.73,119.79,50.71z
	 M108.85,88.47c-0.01,5.88-4.77,10.641-10.64,10.66H56.54c-0.71-0.01-1.4,0.28-1.9,0.78l-20.11,17.3l1.04-15.18
	c0.1-1.49-1.02-2.78-2.51-2.891h-3.3c-5.87-0.02-10.63-4.779-10.65-10.659V48.33c0.02-5.88,4.78-10.64,10.65-10.66h68.46
	c5.87,0.02,10.62,4.78,10.63,10.65V88.47z"/>
<path fill="#E61F2D" d="M80.66,82.04c-0.05,0.52-0.26,1.01-0.61,1.4c-0.13,0.149-0.28,0.29-0.45,0.399
	c-2.34,1.73-4.909,3.13-7.63,4.17c-2.51,0.94-5.16,1.45-7.85,1.48c-2.68,0.04-5.35-0.41-7.87-1.33c-2.78-1.04-5.38-2.5-7.72-4.33
	l-0.05-0.03c-0.15-0.12-0.28-0.25-0.4-0.399c-0.33-0.4-0.53-0.9-0.54-1.42c-0.01-0.521,0.16-1.03,0.48-1.44
	c0.12-0.15,0.26-0.29,0.41-0.41c1.17-0.93,2.82-0.96,4.04-0.08c1.78,1.4,3.75,2.54,5.86,3.37c1.82,0.7,3.75,1.061,5.7,1.04
	c1.97-0.04,3.92-0.43,5.76-1.14c2.14-0.86,4.15-1.98,5.99-3.36c1.239-0.84,2.899-0.77,4.05,0.19c0.14,0.13,0.27,0.27,0.39,0.43
	C80.53,81,80.68,81.51,80.66,82.04z"/>
<path fill="#E61F2D" d="M95.94,60.88c0,5.39-4.37,9.75-9.75,9.75c-5.391,0-9.75-4.36-9.75-9.75c0-5.38,4.359-9.75,9.75-9.75
	C91.57,51.13,95.94,55.5,95.94,60.88z"/>
<path fill="#E61F2D" d="M51.58,60.88c0,5.39-4.36,9.75-9.75,9.75c-5.38,0-9.75-4.36-9.75-9.75c0-5.38,4.37-9.75,9.75-9.75
	C47.22,51.13,51.58,55.5,51.58,60.88z"/>
</svg>
