<?xml version="1.0" encoding="utf-8"?>
<!-- Generator: Adobe Illustrator 16.0.0, SVG Export Plug-In . SVG Version: 6.00 Build 0)  -->
<!DOCTYPE svg PUBLIC "-//W3C//DTD SVG 1.1//EN" "http://www.w3.org/Graphics/SVG/1.1/DTD/svg11.dtd">
<svg version="1.1" id="emoji" xmlns="http://www.w3.org/2000/svg" xmlns:xlink="http://www.w3.org/1999/xlink" x="0px" y="0px"
	 width="128px" height="128px" viewBox="0 0 128 128" enable-background="new 0 0 128 128" xml:space="preserve">
<g id="line">
	<path fill="#E61F2D" d="M61.91,63.8c-0.84-0.069-1.6,0.4-1.95,1.11c1.19,0.38,2.46,0.6,3.77,0.62
		C63.62,64.62,62.87,63.88,61.91,63.8z M66.09,63.8c-0.96,0.08-1.71,0.82-1.82,1.73c1.31-0.021,2.58-0.24,3.77-0.62
		C67.68,64.19,66.92,63.72,66.09,63.8z"/>
	<g>
		<g>
			<path fill="#E61F2D" d="M66.09,63.8c-0.96,0.08-1.71,0.82-1.82,1.73c1.31-0.021,2.58-0.24,3.77-0.62
				C67.68,64.19,66.92,63.72,66.09,63.8z"/>
			<path fill="#E61F2D" d="M77.24,52.3c0-7.3-5.94-13.24-13.24-13.24S50.76,45,50.76,52.3c0,5.89,3.87,10.9,9.2,12.61
				c0.35-0.71,1.11-1.18,1.95-1.11c0.96,0.08,1.71,0.82,1.82,1.73c0.09,0.01,0.18,0.01,0.27,0.01s0.18,0,0.27-0.01
				c0.11-0.91,0.86-1.65,1.82-1.73c0.83-0.08,1.59,0.391,1.95,1.11C73.37,63.2,77.24,58.19,77.24,52.3z M64,61.54
				c-5.1,0-9.24-4.14-9.24-9.24c0-5.1,4.14-9.24,9.24-9.24c5.1,0,9.24,4.14,9.24,9.24C73.24,57.4,69.1,61.54,64,61.54z"/>
			<path fill="#E61F2D" d="M64.25,65.95L68.58,120h-9.16l4.33-54.05c0.01-0.141,0.01-0.28-0.02-0.42
				c-1.31-0.021-2.58-0.24-3.77-0.62c-0.11,0.22-0.18,0.46-0.2,0.72l-4.5,56.21c-0.04,0.561,0.15,1.11,0.53,1.521
				c0.37,0.409,0.91,0.64,1.46,0.64h13.5c0.55,0,1.09-0.23,1.47-0.64c0.37-0.41,0.561-0.96,0.521-1.521l-4.5-56.21
				c-0.021-0.26-0.09-0.5-0.2-0.72c-1.19,0.38-2.46,0.6-3.77,0.62C64.24,65.67,64.24,65.81,64.25,65.95z"/>
		</g>
	</g>
	<g>
		<path d="M78.085,96.986c-0.84,0-1.622-0.533-1.899-1.374c-0.346-1.049,0.224-2.181,1.272-2.526
			c17.65-5.823,29.51-22.214,29.51-40.786c0-23.692-19.275-42.967-42.968-42.967S21.033,28.608,21.033,52.3
			c0,18.572,11.858,34.962,29.508,40.786c1.049,0.346,1.619,1.478,1.273,2.526s-1.478,1.615-2.526,1.272
			C29.995,90.52,17.033,72.603,17.033,52.3C17.033,26.403,38.102,5.333,64,5.333c25.898,0,46.968,21.069,46.968,46.967
			c0,20.302-12.963,38.219-32.256,44.584C78.504,96.953,78.292,96.986,78.085,96.986z"/>
	</g>
	<g>
		<path d="M76.566,85.583c-0.793,0-1.543-0.475-1.856-1.255c-0.412-1.024,0.085-2.189,1.109-2.602
			C87.911,76.865,95.725,65.314,95.725,52.3c0-17.493-14.231-31.725-31.725-31.725S32.275,34.807,32.275,52.3
			c0,13.014,7.813,24.564,19.906,29.426c1.025,0.412,1.521,1.577,1.109,2.602c-0.412,1.024-1.577,1.522-2.602,1.109
			C37.073,79.963,28.275,66.956,28.275,52.3c0-19.699,16.026-35.725,35.725-35.725c19.698,0,35.725,16.026,35.725,35.725
			c0,14.656-8.798,27.664-22.413,33.137C77.067,85.536,76.814,85.583,76.566,85.583z"/>
	</g>
	<g>
		<path d="M75.009,73.895c-0.699,0-1.377-0.366-1.745-1.019c-0.542-0.963-0.2-2.183,0.762-2.724
			C80.477,66.52,84.483,59.679,84.483,52.3c0-11.294-9.188-20.483-20.483-20.483S43.516,41.006,43.516,52.3
			c0,7.379,4.008,14.219,10.459,17.851c0.962,0.542,1.303,1.762,0.761,2.725c-0.542,0.962-1.76,1.302-2.724,0.762
			C44.304,69.297,39.516,61.122,39.516,52.3C39.516,38.8,50.5,27.817,64,27.817c13.5,0,24.483,10.983,24.483,24.483
			c0,8.821-4.788,16.997-12.495,21.337C75.678,73.812,75.341,73.895,75.009,73.895z"/>
	</g>
</g>
</svg>
