<?xml version="1.0" encoding="utf-8"?>
<!-- Generator: Adobe Illustrator 16.0.0, SVG Export Plug-In . SVG Version: 6.00 Build 0)  -->
<!DOCTYPE svg PUBLIC "-//W3C//DTD SVG 1.1//EN" "http://www.w3.org/Graphics/SVG/1.1/DTD/svg11.dtd">
<svg version="1.1" id="Layer_1" xmlns="http://www.w3.org/2000/svg" xmlns:xlink="http://www.w3.org/1999/xlink" x="0px" y="0px"
	 width="128px" height="128px" viewBox="0 0 128 128" enable-background="new 0 0 128 128" xml:space="preserve">
<g>
	<path d="M125.37,52.94c-0.08-0.08-0.15-0.15-0.24-0.21L65.02,12.11c-0.75-0.58-1.79-0.52-2.47,0.11l-60,40.7
		c-0.11,0.09-0.22,0.19-0.31,0.31c-1.79,2.24-2.43,4.63-2.2,6.75c0.16,1.35,0.67,2.59,1.47,3.6c0.8,1.02,1.9,1.8,3.2,2.24
		c1.67,0.56,3.65,0.55,5.8-0.28v48.84c0,1.061,0.87,1.91,1.92,1.91h102.62c1.07,0,1.92-0.86,1.92-1.91
		c0-16.25,0-32.479,0.011-48.729c2.21,1.04,4.369,1.069,6.21,0.399c1.149-0.42,2.159-1.1,2.96-2c0.79-0.88,1.359-1.98,1.649-3.17
		C128.38,58.43,127.78,55.54,125.37,52.94z M112.16,63.41v48.06H15.33V63.54c0-0.16-0.02-0.33-0.06-0.49l48.92-31.98l48,31.97
		C112.17,63.16,112.16,63.28,112.16,63.41z"/>
	<path fill="#E61F2D" d="M68.83,97.76c0,1.33-0.54,2.54-1.41,3.42c-0.88,0.87-2.09,1.41-3.42,1.41s-2.54-0.54-3.42-1.41
		c-0.87-0.88-1.41-2.09-1.41-3.42s0.54-2.54,1.41-3.42c0.88-0.87,2.09-1.41,3.42-1.41s2.54,0.54,3.42,1.41
		C68.29,95.22,68.83,96.43,68.83,97.76z"/>
	<path fill="#E61F2D" d="M75.75,89.5l-0.01,0.01c-0.36,0.45-0.87,0.71-1.42,0.76c-0.53,0.051-1.09-0.09-1.54-0.46
		c-1.431-1.149-2.87-2.02-4.33-2.59c-1.48-0.59-2.96-0.87-4.42-0.85c-1.48,0-2.97,0.3-4.44,0.88c-1.48,0.57-2.92,1.44-4.34,2.58
		c-0.03,0.04-0.06,0.07-0.1,0.09c-0.44,0.33-0.97,0.46-1.49,0.41c-0.51-0.05-1.01-0.29-1.38-0.71c-0.03-0.03-0.06-0.07-0.09-0.11
		c-0.34-0.439-0.47-0.97-0.42-1.49c0.05-0.529,0.31-1.05,0.77-1.42c1.79-1.449,3.67-2.56,5.58-3.31c1.93-0.75,3.91-1.13,5.9-1.14
		c1.97-0.021,3.94,0.35,5.88,1.1c1.88,0.73,3.729,1.82,5.54,3.29c0.439,0.37,0.71,0.89,0.77,1.42
		C76.26,88.49,76.12,89.05,75.75,89.5z"/>
	<path fill="#E61F2D" d="M83.63,81.46c0.03,0.54-0.17,1.08-0.57,1.51c-0.39,0.431-0.939,0.65-1.47,0.66
		c-0.54,0.03-1.08-0.17-1.51-0.57c-2.62-2.47-5.28-4.319-7.93-5.56c-2.69-1.25-5.381-1.9-8.061-1.94
		c-2.7-0.04-5.42,0.521-8.11,1.671c-2.74,1.17-5.45,2.939-8.09,5.279c-0.44,0.391-0.99,0.561-1.53,0.53s-1.06-0.271-1.44-0.71
		c-0.39-0.43-0.57-0.99-0.52-1.521c0.03-0.54,0.27-1.06,0.7-1.439c3.04-2.69,6.17-4.72,9.36-6.07c3.19-1.34,6.44-2,9.71-1.95
		c3.23,0.061,6.45,0.811,9.63,2.271c3.11,1.43,6.17,3.55,9.17,6.37C83.4,80.38,83.62,80.93,83.63,81.46z"/>
	<path fill="#E61F2D" d="M91.32,72.93v0.021c0.029,0.53-0.13,1.069-0.521,1.51c-0.38,0.44-0.899,0.67-1.45,0.72h-0.02
		c-0.53,0.03-1.07-0.14-1.51-0.52c-3.721-3.25-7.59-5.68-11.551-7.32c-4.05-1.67-8.17-2.51-12.26-2.55
		c-4.15-0.03-8.28,0.76-12.29,2.34c-3.99,1.58-7.87,3.94-11.52,7.07l-0.09,0.069c-0.43,0.351-0.96,0.5-1.47,0.461
		c-0.53-0.04-1.04-0.271-1.41-0.69l-0.07-0.09c-0.36-0.44-0.5-0.97-0.46-1.48c0.04-0.54,0.29-1.06,0.73-1.439
		c4.04-3.471,8.35-6.09,12.81-7.84c4.49-1.76,9.14-2.65,13.81-2.61c4.61,0.04,9.24,0.97,13.76,2.84c4.4,1.8,8.69,4.48,12.79,8.061
		C91.04,71.87,91.28,72.38,91.32,72.93z"/>
</g>
</svg>
