<?xml version="1.0" encoding="utf-8"?>
<!-- Generator: Adobe Illustrator 16.0.0, SVG Export Plug-In . SVG Version: 6.00 Build 0)  -->
<!DOCTYPE svg PUBLIC "-//W3C//DTD SVG 1.1//EN" "http://www.w3.org/Graphics/SVG/1.1/DTD/svg11.dtd">
<svg version="1.1" id="Layer_1" xmlns="http://www.w3.org/2000/svg" xmlns:xlink="http://www.w3.org/1999/xlink" x="0px" y="0px"
	 width="128px" height="128px" viewBox="0 0 128 128" enable-background="new 0 0 128 128" xml:space="preserve">
<g>
	<path d="M128,64.02c0-8.48-10.62-16.51-26.9-21.5c3.771-16.6,2.091-29.8-5.27-34.03c-1.69-0.98-3.66-1.45-5.82-1.45V7.01
		c-3.59,0-7.729,1.28-12.16,3.66c-4.43,2.39-9.149,5.89-13.899,10.32c-9.5-8.82-18.89-13.88-26.06-13.88v0.03
		c-2.19,0-4.17,0.47-5.89,1.46c-7.33,4.23-8.98,17.41-5.19,33.95C10.56,47.55,0,55.56,0,64.02c0,8.47,10.61,16.51,26.9,21.5
		c-3.76,16.591-2.09,29.79,5.27,34.021c1.69,0.99,3.67,1.45,5.87,1.45c7.18,0,16.56-5.11,26.06-13.98
		c9.5,8.82,18.89,13.88,26.07,13.88c2.18,0,4.17-0.47,5.89-1.46c7.341-4.229,8.98-17.399,5.19-33.949
		C117.44,80.51,128,72.46,128,64.02z M89.99,12.83v0.03c1.2,0,2.17,0.24,2.979,0.68c3.55,2.03,5.08,9.78,3.88,19.75
		c-0.29,2.44-0.76,5.03-1.33,7.66c-5.109-1.25-10.699-2.22-16.56-2.84c-3.52-4.82-7.18-9.21-10.86-13.04
		C76.59,17.16,84.56,12.84,89.99,12.83z M37.47,71.11c1.07,2.08,2.19,4.18,3.42,6.26c1.22,2.09,2.47,4.12,3.76,6.1
		c-3.71-0.55-7.29-1.229-10.7-2.06C34.92,78.05,36.11,74.58,37.47,71.11z M37.46,56.99c-1.41-3.5-2.61-6.98-3.61-10.38
		c3.43-0.81,7.04-1.51,10.76-2.06c-1.28,2.01-2.55,4.07-3.76,6.18C39.66,52.82,38.53,54.91,37.46,56.99z M40.52,64.09
		c1.62-3.5,3.45-6.99,5.4-10.41c2.03-3.52,4.12-6.86,6.29-9.97c3.88-0.34,7.82-0.52,11.79-0.52c3.94,0,7.88,0.19,11.74,0.5
		c2.17,3.11,4.279,6.42,6.31,9.92c1.98,3.42,3.78,6.88,5.431,10.38c-1.65,3.49-3.44,6.979-5.4,10.41
		c-2.03,3.52-4.12,6.869-6.29,9.97c-3.88,0.34-7.82,0.52-11.79,0.52c-3.94,0-7.88-0.189-11.74-0.5c-2.17-3.1-4.28-6.42-6.31-9.92
		C43.97,71.06,42.17,67.59,40.52,64.09z M87.12,77.29c1.189-2.09,2.32-4.2,3.39-6.28c1.41,3.5,2.61,6.98,3.61,10.38
		c-3.42,0.83-7.03,1.54-10.75,2.08C84.65,81.46,85.92,79.4,87.12,77.29z M87.09,50.65c-1.189-2.08-2.47-4.12-3.76-6.1
		c3.71,0.55,7.29,1.23,10.7,2.06c-0.971,3.36-2.16,6.83-3.521,10.3C89.44,54.83,88.32,52.73,87.09,50.65z M71.17,37.53
		c-2.35-0.11-4.75-0.19-7.18-0.19c-2.45,0-4.88,0.05-7.25,0.19c2.35-3.06,4.78-5.85,7.18-8.35C66.34,31.68,68.77,34.47,71.17,37.53z
		 M34.9,13.63c0.78-0.47,1.8-0.68,3-0.68v-0.02c5.39,0.01,13.4,4.3,21.9,12.16c-3.65,3.83-7.3,8.19-10.77,13.02
		c-5.89,0.62-11.48,1.59-16.59,2.86c-0.61-2.6-1.04-5.13-1.36-7.56C29.85,23.44,31.38,15.69,34.9,13.63z M28.31,79.88
		c-2.58-0.81-5.04-1.7-7.31-2.67c-9.24-3.93-15.21-9.1-15.21-13.19c0-4.1,5.98-9.3,15.21-13.2c2.24-0.97,4.7-1.83,7.23-2.64
		c1.49,5.12,3.45,10.44,5.87,15.89C31.71,69.49,29.77,74.79,28.31,79.88z M37.99,115.2c-1.18-0.03-2.17-0.26-2.95-0.71
		c-3.55-2.03-5.08-9.78-3.88-19.75c0.29-2.44,0.76-5.03,1.33-7.66c5.11,1.25,10.7,2.22,16.56,2.84c3.52,4.82,7.18,9.21,10.86,13.04
		C51.4,110.87,43.42,115.2,37.99,115.2z M64.05,98.84c-2.43-2.5-4.85-5.29-7.25-8.35c2.35,0.109,4.75,0.189,7.18,0.189
		c2.45,0,4.87-0.05,7.25-0.189C68.88,93.55,66.45,96.34,64.05,98.84z M93.12,114.4c-0.79,0.47-1.811,0.68-3,0.68
		c-5.4,0-13.41-4.3-21.92-12.16c3.649-3.83,7.3-8.189,10.77-13.02c5.9-0.62,11.48-1.591,16.59-2.87c0.61,2.63,1.07,5.16,1.37,7.59
		C98.16,104.59,96.63,112.34,93.12,114.4z M106.97,77.21c-2.239,0.97-4.7,1.83-7.229,2.64c-1.49-5.119-3.45-10.439-5.87-15.89
		c2.39-5.42,4.33-10.72,5.79-15.81c2.58,0.81,5.03,1.7,7.33,2.66c9.24,3.93,15.21,9.1,15.21,13.2
		C122.18,68.11,116.21,73.3,106.97,77.21z"/>
	<path fill="#E61F2D" d="M75.9,64.02c0,6.58-5.341,11.91-11.93,11.92c-6.59,0-11.93-5.33-11.93-11.92c0-6.6,5.35-11.93,11.93-11.93
		C70.56,52.09,75.9,57.43,75.9,64.02z"/>
</g>
</svg>
