<?xml version="1.0" encoding="utf-8"?>
<!-- Generator: Adobe Illustrator 16.0.0, SVG Export Plug-In . SVG Version: 6.00 Build 0)  -->
<!DOCTYPE svg PUBLIC "-//W3C//DTD SVG 1.1//EN" "http://www.w3.org/Graphics/SVG/1.1/DTD/svg11.dtd">
<svg version="1.1" id="Layer_1" xmlns="http://www.w3.org/2000/svg" xmlns:xlink="http://www.w3.org/1999/xlink" x="0px" y="0px"
	 width="128px" height="128px" viewBox="0 0 128 128" enable-background="new 0 0 128 128" xml:space="preserve">
<g>
	<path d="M80,108H36C18.351,107.982,4.01,93.613,4.027,75.969C4.044,58.334,18.396,44,36.027,44c0.011,0,0.021,0,0.032,0
		c1.535,0.001,3.068,0.114,4.585,0.335C47.876,29.918,62.802,20,80,20c24.262,0,44,19.738,44,44S104.262,108,80,108z M36.026,52
		c-13.223,0-23.986,10.75-23.999,23.977C12.014,89.21,22.771,99.986,36.004,100H80c19.851,0,36-16.149,36-36S99.851,28,80,28
		S44,44.149,44,64c0,2.209-1.791,4-4,4s-4-1.791-4-4c0-4.139,0.574-8.145,1.647-11.945C37.116,52.019,36.583,52,36.05,52
		C36.043,52,36.034,52,36.026,52z"/>
</g>
<g>
	<path fill="#E61F2D" d="M72,86c-1.023,0-2.048-0.391-2.828-1.172l-12-12c-1.562-1.562-1.562-4.095,0-5.656
		c1.563-1.563,4.095-1.563,5.657,0L72,76.343l21.172-21.171c1.561-1.562,4.096-1.562,5.656,0c1.563,1.563,1.563,4.095,0,5.657
		l-24,24C74.048,85.609,73.023,86,72,86z"/>
</g>
</svg>
