<?xml version="1.0" encoding="utf-8"?>
<!-- Generator: Adobe Illustrator 16.0.0, SVG Export Plug-In . SVG Version: 6.00 Build 0)  -->
<!DOCTYPE svg PUBLIC "-//W3C//DTD SVG 1.1//EN" "http://www.w3.org/Graphics/SVG/1.1/DTD/svg11.dtd">
<svg version="1.1" id="Layer_1" xmlns="http://www.w3.org/2000/svg" xmlns:xlink="http://www.w3.org/1999/xlink" x="0px" y="0px"
	 width="32px" height="32px" viewBox="0 0 32 32" enable-background="new 0 0 32 32" xml:space="preserve">
<g transform="translate(-1.433 -361.512) scale(1.25642)">
	<path d="M15.013,299.655H8.232c-0.247,0-0.486,0.024-0.717,0.072c-1.695,0.35-3,1.919-3,3.709v3c0,2.037,1.679,3.781,3.717,3.781
		h6.781c1.775,0,3.279-1.321,3.638-3c0.056-0.255,0.088-0.518,0.088-0.78v-3C18.738,301.398,17.059,299.655,15.013,299.655z
		 M17.234,306.436c0,1.258-0.955,2.277-2.221,2.277H8.232c-1.258,0-2.221-1.019-2.221-2.277v-3c0-1.258,0.963-2.221,2.221-2.221
		h6.781c1.265,0,2.221,0.963,2.221,2.221V306.436z"/>
	<path fill="#E61F2D" d="M16.278,305.473l-1.504,1.504c-0.716,0.717-1.743-0.358-1.082-1.082l1.019-0.955l-1.019-0.963
		c-0.478-0.478-0.119-1.321,0.541-1.321c0.239,0,0.422,0.12,0.541,0.239l1.504,1.505C16.573,304.692,16.573,305.178,16.278,305.473z
		"/>
	<path fill="#E61F2D" d="M8.471,306.977l-1.496-1.504c-0.302-0.295-0.302-0.78,0-1.074l1.496-1.505
		c0.127-0.119,0.302-0.175,0.541-0.239c0.661,0,1.019,0.843,0.541,1.321l-1.019,0.963l1.019,0.955
		C10.278,306.619,9.195,307.693,8.471,306.977z"/>
	<path d="M11.235,290.716c-2.04,0-3.72,1.68-3.72,3.72v6c0,1.019,1.5,1.019,1.5,0v-6c0-1.26,0.96-2.28,2.22-2.28h8.28
		c1.26,0,2.22,1.02,2.22,2.28v9c0,1.26-0.96,2.28-2.22,2.28h-1.5c-1.02,0-1.02,1.499,0,1.499h1.5c2.04,0,3.72-1.74,3.72-3.78v-9
		c0-2.04-1.68-3.72-3.72-3.72H11.235z"/>
	<path d="M15.737,296.654h-3.001c-0.963,0-0.963,1.504,0,1.504h3.001C16.756,298.158,16.756,296.654,15.737,296.654z
		 M19.518,296.654h-0.78c-0.963,0-0.963,1.504,0,1.504h0.78C20.473,298.158,20.473,296.654,19.518,296.654z M19.518,293.653h-4.505
		c-1.019,0-1.019,1.504,0,1.504h4.505C20.473,295.158,20.473,293.653,19.518,293.653z M12.013,293.653h-0.78
		c-0.955,0-0.955,1.504,0,1.504h0.78C12.976,295.158,12.976,293.653,12.013,293.653z"/>
	<path fill="#E61F2D" d="M12.737,303.618l-0.78,3.001c-0.183,1.074-1.799,0.652-1.441-0.367l0.78-3
		c0.056-0.295,0.295-0.533,0.661-0.597C12.498,302.655,12.857,303.132,12.737,303.618z"/>
</g>
</svg>
