<?xml version="1.0" encoding="utf-8"?>
<!-- Generator: Adobe Illustrator 16.0.0, SVG Export Plug-In . SVG Version: 6.00 Build 0)  -->
<!DOCTYPE svg PUBLIC "-//W3C//DTD SVG 1.1//EN" "http://www.w3.org/Graphics/SVG/1.1/DTD/svg11.dtd">
<svg version="1.1" id="Layer_1" xmlns="http://www.w3.org/2000/svg" xmlns:xlink="http://www.w3.org/1999/xlink" x="0px" y="0px"
	 width="128px" height="128px" viewBox="0 0 128 128" enable-background="new 0 0 128 128" xml:space="preserve">
<path d="M119.68,46.747c-0.453-0.88-1.359-1.413-2.346-1.413H96.293C89.813,34.187,77.787,26.667,64,26.667
	c-13.787,0-25.813,7.52-32.293,18.667h-21.04c-0.986,0-1.893,0.533-2.347,1.413c-0.453,0.88-0.4,1.92,0.133,2.747L18.133,64
	l-9.68,14.533C7.92,79.359,7.867,80.4,8.32,81.279c0.454,0.854,1.36,1.387,2.347,1.387h21.04
	c6.48,11.147,18.507,18.668,32.293,18.668c13.787,0,25.813-7.521,32.293-18.668h21.041c0.986,0,1.893-0.533,2.346-1.412
	c0.453-0.881,0.427-1.92-0.133-2.747L109.867,64l9.68-14.533C120.106,48.667,120.16,47.6,119.68,46.747z M29.173,77.334h-13.52
	l7.894-11.867c0.586-0.906,0.586-2.054,0-2.96l-7.894-11.84h13.52c-1.6,4.16-2.507,8.64-2.507,13.333S27.573,73.174,29.173,77.334z
	 M64,96c-17.653,0-32-14.347-32-32s14.347-32,32-32s32,14.347,32,32S81.653,96,64,96z M104.453,62.533
	c-0.586,0.907-0.586,2.054,0,2.96l7.894,11.841H98.826c1.601-4.16,2.508-8.641,2.508-13.334s-0.907-9.173-2.508-13.333h13.521
	L104.453,62.533z"/>
<path fill="#E61F2D" d="M79.123,47.284L59.097,74.142L46.329,63.784c-1.153-0.927-2.827-0.741-3.762,0.386
	c-0.926,1.153-0.741,2.828,0.387,3.762l14.933,12.115c0.564,0.467,1.294,0.659,2.021,0.572c0.161-0.021,0.313-0.068,0.467-0.116
	c0.535-0.166,1.014-0.512,1.352-0.952L83.41,50.476c0.893-1.171,0.648-2.854-0.548-3.74C81.675,45.877,80.017,46.113,79.123,47.284z
	"/>
</svg>
