<?xml version="1.0" encoding="utf-8"?>
<!-- Generator: Adobe Illustrator 16.0.0, SVG Export Plug-In . SVG Version: 6.00 Build 0)  -->
<!DOCTYPE svg PUBLIC "-//W3C//DTD SVG 1.1//EN" "http://www.w3.org/Graphics/SVG/1.1/DTD/svg11.dtd">
<svg version="1.1" id="Layer_1" xmlns="http://www.w3.org/2000/svg" xmlns:xlink="http://www.w3.org/1999/xlink" x="0px" y="0px"
	 width="128px" height="128px" viewBox="0 0 128 128" enable-background="new 0 0 128 128" xml:space="preserve">
<path d="M66.525,123c4.225-2.688,8.462-5.362,12.688-8.05c1.912-1.213,3.85-2.413,5.712-3.713c4.425-3.087,8.575-6.6,12.263-10.55
	c7.3-7.838,12.85-17.125,16.362-27.237c2.862-8.263,4.088-16.975,4.088-25.7c0-5.4,0-10.8,0-16.2c0-0.15,0-0.287,0-0.438
	c0-2.237-1.563-4.188-3.675-4.825c-1.525-0.462-3.038-0.938-4.5-1.55c0.399,0.163,0.8,0.338,1.199,0.5
	c-2.612-1.112-5.063-2.537-7.313-4.262c0.338,0.262,0.676,0.525,1.013,0.788c-2.225-1.725-4.225-3.713-5.95-5.938
	c0.263,0.337,0.525,0.675,0.788,1.012c-1.726-2.25-3.163-4.712-4.275-7.325c0.163,0.4,0.338,0.8,0.5,1.2
	c-0.375-0.9-0.725-1.825-1.024-2.75c-0.676-2.112-2.563-3.675-4.825-3.675c-1.7,0-3.4,0-5.101,0c-4.074,0-8.162,0-12.237,0
	c-4.912,0-9.825,0-14.737,0c-4.263,0-8.525,0-12.788,0c-2.063,0-4.137-0.063-6.2,0c-0.025,0-0.063,0-0.088,0
	c-2.275,0-4.15,1.563-4.825,3.675c-0.3,0.938-0.638,1.85-1.025,2.75c0.162-0.4,0.337-0.8,0.5-1.2
	c-1.113,2.612-2.55,5.063-4.275,7.325c0.263-0.337,0.525-0.675,0.788-1.012c-1.725,2.225-3.725,4.212-5.95,5.938
	c0.337-0.263,0.675-0.525,1.012-0.788c-2.25,1.725-4.712,3.15-7.313,4.262c0.4-0.162,0.8-0.337,1.2-0.5
	c-1.475,0.613-2.975,1.088-4.5,1.55c-2.113,0.637-3.675,2.587-3.675,4.825c0,5.025,0,10.05,0,15.075c0,2.65,0,5.3,0.188,7.95
	c0.4,5.387,1.313,10.763,2.825,15.95c3,10.3,8.2,19.787,15.1,27.975c5.362,6.362,11.825,11.513,18.825,15.95
	c4.613,2.925,9.225,5.85,13.838,8.774c0.112,0.075,0.237,0.15,0.35,0.226c2.213,1.399,5.612,0.537,6.838-1.8
	c1.3-2.476,0.563-5.338-1.8-6.838c-2.25-1.425-4.5-2.85-6.738-4.275c-2.875-1.824-5.738-3.637-8.613-5.462
	C49.163,103.362,47.2,102,45.3,100.55c0.338,0.263,0.675,0.525,1.013,0.788c-4.725-3.663-8.975-7.913-12.638-12.638
	c0.263,0.337,0.525,0.675,0.788,1.013c-3.725-4.838-6.825-10.138-9.212-15.763c0.163,0.399,0.337,0.8,0.5,1.2
	c-2.438-5.788-4.1-11.863-4.938-18.088c0.063,0.438,0.125,0.888,0.175,1.325c-0.537-4.05-0.625-8.1-0.625-12.163
	c0-3.95,0-7.9,0-11.85c0-1.075,0-2.138,0-3.212c-1.225,1.612-2.45,3.212-3.675,4.825c4.313-1.3,8.487-3.025,12.15-5.662
	c4.337-3.125,8.038-6.975,10.788-11.575c1.513-2.525,2.725-5.275,3.625-8.075c-1.612,1.225-3.212,2.45-4.825,3.675
	c1.7,0,3.4,0,5.1,0c4.075,0,8.163,0,12.238,0c4.912,0,9.825,0,14.737,0c4.263,0,8.525,0,12.787,0c2.063,0,4.138,0.05,6.2,0
	c0.025,0,0.063,0,0.088,0c-1.612-1.225-3.213-2.45-4.825-3.675c3.138,9.788,10.263,18.3,19.612,22.7
	c2.25,1.063,4.563,1.888,6.95,2.612c-1.225-1.612-2.45-3.212-3.675-4.825c0,2.8,0,5.6,0,8.4c0,3.112,0,6.225,0,9.325
	c0,3.175-0.213,6.35-0.625,9.5c0.063-0.438,0.125-0.888,0.175-1.325c-0.85,6.212-2.513,12.3-4.938,18.088
	c0.162-0.4,0.338-0.801,0.5-1.2c-2.388,5.625-5.487,10.925-9.213,15.763c0.263-0.338,0.525-0.676,0.788-1.013
	c-3.663,4.725-7.913,8.975-12.638,12.638c0.338-0.263,0.675-0.525,1.013-0.788c-2.8,2.163-5.775,4.025-8.75,5.925
	c-3.3,2.101-6.601,4.188-9.9,6.288c-0.85,0.537-1.712,1.087-2.563,1.625c-1.087,0.688-1.95,1.725-2.3,2.987
	c-0.325,1.2-0.175,2.787,0.5,3.85C61.112,123.425,64.163,124.5,66.525,123z"/>
<path fill="#E61F2D" d="M38.525,63.737c4.275,4.275,8.55,8.55,12.837,12.838c0.613,0.612,1.225,1.225,1.825,1.825
	c1.913,1.912,5.163,1.912,7.075,0c3.3-3.301,6.612-6.613,9.912-9.913C75.4,63.263,80.638,58.025,85.862,52.8
	c1.2-1.2,2.413-2.412,3.612-3.612c1.851-1.85,1.988-5.25,0-7.075c-2-1.837-5.1-1.975-7.074,0c-3.301,3.3-6.613,6.613-9.913,9.913
	C67.263,57.25,62.025,62.487,56.8,67.713c-1.2,1.199-2.412,2.412-3.612,3.612c2.362,0,4.712,0,7.075,0
	c-4.275-4.275-8.55-8.55-12.838-12.838c-0.612-0.612-1.225-1.225-1.825-1.825c-1.85-1.85-5.25-1.988-7.075,0
	C36.688,58.663,36.55,61.75,38.525,63.737L38.525,63.737z"/>
</svg>
