<?xml version="1.0" encoding="utf-8"?>
<!-- Generator: Adobe Illustrator 16.0.0, SVG Export Plug-In . SVG Version: 6.00 Build 0)  -->
<!DOCTYPE svg PUBLIC "-//W3C//DTD SVG 1.1//EN" "http://www.w3.org/Graphics/SVG/1.1/DTD/svg11.dtd">
<svg version="1.1" id="Layer_1" xmlns="http://www.w3.org/2000/svg" xmlns:xlink="http://www.w3.org/1999/xlink" x="0px" y="0px"
	 width="24px" height="24px" viewBox="0 0 24 24" enable-background="new 0 0 24 24" xml:space="preserve">
<path fill="none" d="M0,0v24h24V0H0z M12.5,13h-2c0-3.25,3-3,3-5c0-1.1-0.9-2-2-2c-1.1,0-2,0.9-2,2h-2c0-2.21,1.79-4,4-4s4,1.79,4,4
	C15.5,10.5,12.5,10.75,12.5,13z M12.5,14.5v2h-2v-2H12.5z"/>
<path d="M11.5,1C6.26,1,2,5.26,2,10.5c0,5.07,3.99,9.23,9,9.49v3.6l1.43-0.689C17.56,20.43,21,15.45,21,10.5C21,5.26,16.74,1,11.5,1
	z M13,20.3V18h-1.5C7.36,18,4,14.64,4,10.5C4,6.36,7.36,3,11.5,3c4.14,0,7.5,3.36,7.5,7.5C19,14.22,16.64,18,13,20.3z"/>
<rect x="10.5" y="14.5" fill="#E61F2D" width="2" height="2"/>
<path fill="#E61F2D" d="M15.5,8c0,2.5-3,2.75-3,5h-2c0-3.25,3-3,3-5c0-1.1-0.9-2-2-2c-1.1,0-2,0.9-2,2h-2c0-2.21,1.79-4,4-4
	S15.5,5.79,15.5,8z"/>
</svg>
