<?xml version="1.0" encoding="utf-8"?>
<!-- Generator: Adobe Illustrator 16.0.0, SVG Export Plug-In . SVG Version: 6.00 Build 0)  -->
<!DOCTYPE svg PUBLIC "-//W3C//DTD SVG 1.1//EN" "http://www.w3.org/Graphics/SVG/1.1/DTD/svg11.dtd">
<svg version="1.1" id="Layer_1" xmlns="http://www.w3.org/2000/svg" xmlns:xlink="http://www.w3.org/1999/xlink" x="0px" y="0px"
	 width="128px" height="128px" viewBox="0 0 128 128" enable-background="new 0 0 128 128" xml:space="preserve">
<g>
	<path d="M46.005,71.407c0,7.785-6.314,14.098-14.099,14.098c-7.79,0-14.099-6.313-14.099-14.098s6.309-14.099,14.099-14.099
		C39.691,57.308,46.005,63.622,46.005,71.407L46.005,71.407z M46.005,71.407L46.005,71.407z"/>
	<path d="M110.09,71.407c0,7.785-6.313,14.098-14.099,14.098c-7.79,0-14.099-6.313-14.099-14.098s6.309-14.099,14.099-14.099
		C103.776,57.308,110.09,63.622,110.09,71.407L110.09,71.407z M110.09,71.407L110.09,71.407z"/>
	<g>
		<path fill="#E5212E" d="M79.33,29.108c0,7.793-6.319,14.099-14.098,14.099c-7.793,0-14.099-6.306-14.099-14.099
			c0-7.78,6.306-14.099,14.099-14.099C73.011,15.01,79.33,21.329,79.33,29.108z"/>
		<path d="M80.305,82.491c-2.385,0.641-4.614,1.769-6.536,3.319c-3.884,3.243-6.089,8.074-5.974,13.125v4.511
			c0,1.423,1.141,2.563,2.563,2.563c1.409,0,2.563-1.141,2.563-2.563v-4.46c-0.129-3.538,1.371-6.921,4.075-9.203
			c2.219-1.679,4.87-2.69,7.651-2.884C82.982,85.669,81.51,84.184,80.305,82.491z M111.885,82.21
			c-1.204,1.755-2.703,3.306-4.408,4.587c7.484,0.129,11.586,4.742,11.586,13.061v3.589c0,1.423,1.141,2.563,2.563,2.563
			c1.41,0,2.563-1.141,2.563-2.563v-3.127C124.344,90.668,119.742,84.067,111.885,82.21z M16.22,82.491
			c-2.384,0.641-4.614,1.769-6.549,3.319C5.8,89.054,3.595,93.885,3.711,98.936v4.511c0,1.423,1.14,2.563,2.563,2.563
			c1.422,0,2.563-1.141,2.563-2.563v-4.46c-0.128-3.538,1.372-6.921,4.076-9.203c2.217-1.679,4.871-2.69,7.652-2.884
			C18.886,85.669,17.424,84.184,16.22,82.491z M47.801,82.21c-1.205,1.755-2.704,3.306-4.409,4.587
			c7.472,0.129,11.573,4.73,11.573,13.022v3.627c0,1.423,1.154,2.563,2.564,2.563c1.422,0,2.563-1.141,2.563-2.563v-3.127
			C60.258,90.668,55.657,84.067,47.801,82.21z"/>
		<path fill="#E5212E" d="M92.916,52.449c-1.705,0.281-3.358,0.781-4.922,1.499c-1.063-6.024-4.96-9.343-11.278-9.446
			c1.705-1.282,3.204-2.833,4.408-4.589C87.354,41.387,91.531,45.847,92.916,52.449z"/>
		<path fill="#E5212E" d="M53.889,44.604c-2.781,0.192-5.435,1.205-7.652,2.884c-2.333,1.922-3.768,4.729-3.986,7.741
			c-1.5-0.961-3.127-1.718-4.832-2.23c0.679-3.729,2.653-7.087,5.576-9.484c1.935-1.551,4.166-2.678,6.549-3.319
			C50.749,41.887,52.222,43.374,53.889,44.604z"/>
	</g>
</g>
</svg>
