<?xml version="1.0" encoding="utf-8"?>
<!-- Generator: Adobe Illustrator 16.0.0, SVG Export Plug-In . SVG Version: 6.00 Build 0)  -->
<!DOCTYPE svg PUBLIC "-//W3C//DTD SVG 1.1//EN" "http://www.w3.org/Graphics/SVG/1.1/DTD/svg11.dtd">
<svg version="1.1" id="Layer_1" xmlns="http://www.w3.org/2000/svg" xmlns:xlink="http://www.w3.org/1999/xlink" x="0px" y="0px"
	 width="128px" height="128px" viewBox="0 0 128 128" enable-background="new 0 0 128 128" xml:space="preserve">
<path fill="#E61F2D" d="M54,47.4c-8.832,0-16,7.168-16,16c0,8.833,7.168,16,16,16s16-7.168,16-16C70,54.568,62.832,47.4,54,47.4z
	 M54,55.4c4.416,0,8,3.584,8,8c0,4.417-3.584,8-8,8s-8-3.584-8-8C46,58.984,49.584,55.4,54,55.4z"/>
<path d="M58,87.4h-8c-6.63,0-12,5.369-12,12V116c0,6.63,5.37,12,12,12h8c6.63,0,12-5.37,12-12V99.4C70,92.77,64.63,87.4,58,87.4z
	 M62,116c0,2.21-1.79,4-4,4h-8c-2.21,0-4-1.79-4-4V99.4c0-2.21,1.79-4,4-4h8c2.21,0,4,1.79,4,4V116z"/>
<path fill="#E61F2D" d="M97.027,24.972h16.971c2.207,0,4.001-1.792,4.001-4s-1.794-4-4.001-4H97.027c-2.205,0-4,1.792-4,4
	S94.822,24.972,97.027,24.972z"/>
<path fill="#E61F2D" d="M101.027,20.972V4.001c0-2.206-1.791-4-4-4c-2.207,0-4,1.794-4,4v16.971c0,2.206,1.793,4.001,4,4.001
	C99.236,24.973,101.027,23.178,101.027,20.972z"/>
<path d="M54,19.4c-24.28,0-44,19.72-44,44c0,19.69,12.96,36.37,30.8,41.98c1.22,0.38,2.54,0.16,3.57-0.59
	c1.02-0.75,1.63-1.95,1.63-3.23V99.4c0-2.21,1.79-4,4-4h8c2.21,0,4,1.79,4,4v2.159c0,1.28,0.61,2.48,1.63,3.23
	c1.03,0.75,2.351,0.97,3.57,0.59C85.04,99.77,98,83.09,98,63.4C98,39.12,78.28,19.4,54,19.4z M69.48,95.9
	c-1.49-4.92-6.07-8.5-11.48-8.5h-8c-5.41,0-9.99,3.58-11.48,8.5C26.39,90.11,18,77.73,18,63.4c0-19.87,16.13-36,36-36
	s36,16.13,36,36C90,77.73,81.61,90.11,69.48,95.9z"/>
<path fill="#E61F2D" d="M65.844,57.814l34.013-34.013c1.56-1.56,1.563-4.097,0.001-5.658c-1.561-1.561-4.098-1.559-5.658,0.001
	L60.187,52.158c-1.56,1.56-1.563,4.097-0.001,5.658C61.747,59.377,64.284,59.375,65.844,57.814z"/>
</svg>
