<?xml version="1.0" encoding="utf-8"?>
<!-- Generator: Adobe Illustrator 16.0.0, SVG Export Plug-In . SVG Version: 6.00 Build 0)  -->
<!DOCTYPE svg PUBLIC "-//W3C//DTD SVG 1.1//EN" "http://www.w3.org/Graphics/SVG/1.1/DTD/svg11.dtd">
<svg version="1.1" id="Layer_1" xmlns="http://www.w3.org/2000/svg" xmlns:xlink="http://www.w3.org/1999/xlink" x="0px" y="0px"
	 width="50px" height="50px" viewBox="0 0 50 50" enable-background="new 0 0 50 50" xml:space="preserve">
<path d="M35.5,3h-21C8.16,3,3,8.16,3,14.5v21C3,41.84,8.16,47,14.5,47h21C41.84,47,47,41.84,47,35.5v-21C47,8.16,41.84,3,35.5,3z
	 M45,35.5c0,5.26-4.24,9.5-9.5,9.5h-21C9.24,45,5,40.76,5,35.5v-21C5,9.24,9.24,5,14.5,5h21c5.26,0,9.5,4.24,9.5,9.5V35.5z"/>
<path fill="#E61F2D" d="M39.8,32.72c-0.75-1.45-1.37-2.1-1.68-2.46c0.3-0.649,0.88-2.05,0.88-4.38c0-4.3-1.87-10.8-10.43-16.7
	C28.4,9.06,28.21,9,28,9c-0.55,0-1,0.44-1,1c0,0.24,0.09,0.47,0.24,0.65c0,0,3.67,4.34,3.76,9.87c0.01,1.04-0.35,2.42-0.68,3.73
	c-1.86-1.34-10.08-7.3-14.6-11.95c-0.39-0.39-1.02-0.4-1.42-0.02c-0.35,0.34-0.4,0.89-0.12,1.29c0,0,1.63,2.34,3.56,4.92
	c0.36,0.49,0.65,0.75,1.02,1.24c-1.94-1.38-3.82-2.65-7.11-5.49c-0.41-0.36-1.05-0.31-1.41,0.11c-0.3,0.36-0.32,0.89-0.03,1.26
	c0,0,2.55,3.31,5.71,6.97c2.76,3.2,5.8,6.38,8.38,8.28C23.39,31.38,21.98,32,19.5,32c-2.78,0-6.55-0.9-10.95-3.83
	c-0.45-0.31-1.08-0.18-1.38,0.28c-0.2,0.3-0.23,0.689-0.06,1.01c0,0,5.51,10.54,18.01,10.54c2.86,0,4.91-0.77,6.479-1.5
	c1.561-0.72,2.62-1.31,3.601-1.31c2.09,0,3.55,2.319,3.55,2.319c0.28,0.471,0.89,0.63,1.37,0.36c0.189-0.12,0.34-0.29,0.42-0.49
	C41.51,36.97,40.73,34.51,39.8,32.72z M35.2,35.19c-1.681,0-2.98,0.819-4.45,1.5C29.29,37.37,27.63,38,25.12,38
	c-6.66,0-10.85-3.15-13.38-5.84C14.67,33.45,17.31,34,19.5,34c4.48,0,7.15-2.24,7.15-2.24c0.42-0.359,0.47-0.99,0.109-1.41
	c-0.069-0.08-0.16-0.149-0.25-0.21c-2.04-1.199-5.68-4.99-8.74-8.5c0.86,0.61,1.82,1.32,2.46,1.74c2.13,1.37,3.22,1.81,3.22,1.81
	c0.52,0.2,1.1-0.06,1.3-0.58c0.15-0.39,0.03-0.85-0.29-1.12c-0.48-0.4-1.7-2.04-2.68-3.24c4.44,3.55,8.64,6.57,8.64,6.57
	c0.45,0.31,1.08,0.21,1.4-0.24c0.05-0.08,0.09-0.16,0.12-0.25c0.67-1.87,1.09-4.05,1.06-5.85c-0.04-2.35-0.67-4.35-1.4-6.11
	c4.36,4.38,5.4,8.56,5.4,11.51c0,2.51-0.87,4-0.87,4c-0.21,0.37-0.16,0.851,0.13,1.17c0,0,0.98,1.07,1.771,2.59
	c0.47,0.931,0.739,1.971,0.819,3.011C37.97,35.9,36.78,35.19,35.2,35.19z"/>
</svg>
