<?xml version="1.0" encoding="utf-8"?>
<!-- Generator: Adobe Illustrator 24.1.0, SVG Export Plug-In . SVG Version: 6.00 Build 0)  -->
<svg version="1.1" id="Layer_1" xmlns="http://www.w3.org/2000/svg" xmlns:xlink="http://www.w3.org/1999/xlink" x="0px" y="0px"
	 viewBox="0 0 512 512" style="enable-background:new 0 0 512 512;" xml:space="preserve">
<style type="text/css">
	.st0{fill:#FFFFFF;}
	.st1{fill:#FFFFFF;stroke:#FFFFFF;stroke-width:3;stroke-miterlimit:10;}
</style>
<g>
	<path class="st0" d="M199.4,194.4l-39.7,13.4l96.4,32.4l96.4-32.4l-39.8-13.4l-53.3,17.9c-2,0.7-4.3,0.8-6.5,0L199.4,194.4z
		 M124.3,198l43-14.5l-43-14.5c-9.2-3-9.3-16.3,0-19.4l128.5-43.2c2-0.7,4.3-0.8,6.5,0l128.5,43.2c9.2,3,9.3,16.3,0,19.4l-43,14.4
		l43,14.5c9.2,3,9.3,16.3,0,19.4l-42.9,14.4l42.9,14.5c9.2,3,9.3,16.3,0,19.4l-43,14.5l43,14.5c9.2,3,9.3,16.3,0,19.4l-43,14.4
		l43,14.5c9.2,3,9.3,16.3,0,19.4l-128.5,43.2c-2,0.7-4.3,0.8-6.5,0l-128.5-43.2c-9.2-3-9.3-16.3,0-19.4l43-14.4l-43-14.5
		c-9.2-3-9.3-16.3,0-19.4l43-14.4l-43-14.5c-9.2-3-9.3-16.3,0-19.4l42.9-14.4l-42.9-14.4C115.1,214.4,115,201.1,124.3,198L124.3,198
		z M252.7,260.6l-53.4-17.9L159.6,256l96.4,32.4l96.4-32.4l-39.7-13.3l-53.4,17.9C257.2,261.3,254.9,261.3,252.7,260.6z
		 M199.4,339.2l-39.7,13.3l96.4,32.4l96.4-32.4l-39.7-13.3l-53.4,17.9c-2,0.7-4.3,0.8-6.5,0L199.4,339.2z M199.4,290.9l-39.8,13.4
		l96.4,32.4l96.4-32.4l-39.8-13.4l-53.3,17.9c-2,0.7-4.3,0.8-6.5,0L199.4,290.9L199.4,290.9z M256,191.8l53.3-17.9l43.1-14.5
		L256,127.1l-96.4,32.4l42.6,14.3L256,191.8z"/>
</g>
</svg>
