<?xml version="1.0" encoding="utf-8"?>
<!-- Generator: Adobe Illustrator 24.1.0, SVG Export Plug-In . SVG Version: 6.00 Build 0)  -->
<svg version="1.1" id="Layer_1" xmlns="http://www.w3.org/2000/svg" xmlns:xlink="http://www.w3.org/1999/xlink" x="0px" y="0px"
	 viewBox="0 0 512 512" style="enable-background:new 0 0 512 512;" xml:space="preserve">
<style type="text/css">
	.st0{fill:#FFFFFF;}
	.st1{fill:#FFFFFF;stroke:#FFFFFF;stroke-width:3;stroke-miterlimit:10;}
</style>
<g>
	<path class="st0" d="M181.1,381.6c21.1,6,49,9.3,78.5,9.3s57.4-3.3,78.5-9.3c25.8-7.3,38.9-17.9,38.9-31.4
		c0-13.5-13.1-24.1-38.9-31.4c-11.8-3.3-25.7-5.8-40.9-7.4c29.7-50.6,59-107.9,59-136.3c0-53.3-43.4-96.7-96.7-96.7
		S163,121.8,163,175.2c0,28.3,29.4,85.7,59,136.3c-15.1,1.6-29.1,4-40.9,7.4c-25.8,7.3-38.9,17.9-38.9,31.4
		C142.2,363.8,155.3,374.3,181.1,381.6z M259.7,99.3c41.9,0,75.9,34.1,75.9,75.9c0,21.5-26.6,77.9-71.2,150.7
		c-1.5,2.4-3.8,2.7-4.8,2.7c-0.9,0-3.3-0.3-4.8-2.7c-44.6-72.9-71.2-129.2-71.2-150.7C183.8,133.3,217.8,99.3,259.7,99.3z
		 M190.6,337.8c12.4-3.2,27.3-5.4,43.3-6.5c1.1,1.8,2.2,3.7,3.3,5.5c4.8,7.9,13.2,12.6,22.5,12.6c9.3,0,17.7-4.7,22.5-12.6
		c1.1-1.8,2.2-3.6,3.3-5.5c16,1.2,30.9,3.4,43.3,6.5c19,4.8,26,10.3,27.4,12.4c-1.4,2.1-8.4,7.5-27.4,12.4
		c-18.9,4.8-43.4,7.5-69.1,7.5s-50.2-2.6-69.1-7.5c-19-4.8-26-10.3-27.4-12.4C164.6,348.1,171.6,342.7,190.6,337.8z"/>
	<path class="st0" d="M407,327.4c-5-2.8-11.4-0.9-14.1,4.1c-2.8,5-0.9,11.4,4.1,14.1c12.4,6.8,19.5,14.4,19.5,20.7
		c0,7.8-11,19.8-41.9,30.3c-30.5,10.4-71.3,16.1-114.8,16.1s-84.3-5.7-114.8-16.1c-30.9-10.5-41.9-22.5-41.9-30.3
		c0-6.4,7.1-13.9,19.5-20.7c5-2.8,6.9-9.1,4.1-14.1c-2.8-5-9.1-6.9-14.1-4.1c-13.8,7.6-30.3,20.5-30.3,38.9c0,14.1,9.7,34.3,56,50
		c32.6,11.1,75.8,17.2,121.5,17.2s88.9-6.1,121.5-17.2c46.3-15.7,56-35.9,56-50C437.2,347.9,420.8,335,407,327.4z"/>
	<path class="st0" d="M298.6,168.5c0-21.4-17.4-38.9-38.9-38.9s-38.9,17.4-38.9,38.9c0,21.4,17.4,38.9,38.9,38.9
		S298.6,190,298.6,168.5z M241.6,168.5c0-10,8.1-18.1,18.1-18.1s18.1,8.1,18.1,18.1c0,10-8.1,18.1-18.1,18.1
		S241.6,178.5,241.6,168.5z"/>
</g>
</svg>
