<?xml version="1.0" encoding="utf-8"?>
<!-- Generator: Adobe Illustrator 24.1.0, SVG Export Plug-In . SVG Version: 6.00 Build 0)  -->
<svg version="1.1" id="Layer_1" xmlns="http://www.w3.org/2000/svg" xmlns:xlink="http://www.w3.org/1999/xlink" x="0px" y="0px"
	 viewBox="0 0 512 512" style="enable-background:new 0 0 512 512;" xml:space="preserve">
<style type="text/css">
	.st0{fill:#FFFFFF;}
	.st1{fill:#FFFFFF;stroke:#FFFFFF;stroke-width:3;stroke-miterlimit:10;}
</style>
<g>
	<g>
		<g>
			<path class="st0" d="M300.6,278.2h-40.4c-5.5,0-9.9,4.4-9.9,9.9v115.7c0,5.5,4.4,9.9,9.9,9.9h40.4c5.5,0,9.9-4.4,9.9-9.9V288.2
				C310.5,282.7,306.1,278.2,300.6,278.2z M290.6,393.9h-20.6v-95.8h20.6V393.9z"/>
			<path class="st0" d="M217.5,278.2h-40.4c-5.5,0-9.9,4.4-9.9,9.9v115.7c0,5.5,4.4,9.9,9.9,9.9h40.4c5.5,0,9.9-4.4,9.9-9.9V288.2
				C227.5,282.7,223,278.2,217.5,278.2z M207.6,393.9H187v-95.8h20.6V393.9z"/>
			<path class="st0" d="M134.5,278.2H94.1c-5.5,0-9.9,4.4-9.9,9.9v115.7c0,5.5,4.4,9.9,9.9,9.9h40.4c5.5,0,9.9-4.4,9.9-9.9V288.2
				C144.4,282.7,140,278.2,134.5,278.2z M124.6,393.9H104v-95.8h20.6V393.9z"/>
			<path class="st0" d="M447.4,322.1l3.4-72h13.3c5.5,0,9.9-4.4,9.9-9.9v-57.9c0-5.5-4.4-9.9-9.9-9.9h-69.1L296.9,44
				c-3.2-4.2-9.3-5.2-13.6-2.1L249.3,66c-2.2,1.6-3.7,3.9-4.1,6.6c-0.4,2.7,0.3,5.4,1.9,7.5l70.5,92.2H160l70.5-92.2
				c1.6-2.1,2.3-4.9,1.9-7.5s-1.9-5-4.1-6.6l-33.9-24.1c-4.4-3.1-10.4-2.2-13.6,2.1L82.6,172.4H13.5c-5.5,0-9.9,4.4-9.9,9.9v57.9
				c0,5.5,4.4,9.9,9.9,9.9h13.3l9.5,202.2c0.2,5.3,4.6,9.5,9.9,9.5h359.1c0.4,0,0.9,0,1.3-0.1c9.6,4.6,20.4,7.2,31.7,7.2
				c40.6,0,73.7-33,73.7-73.7C512,357.7,483.8,326.6,447.4,322.1L447.4,322.1z M269.2,76.3l17.7-12.6l83.1,108.7h-27.3L269.2,76.3z
				 M190.7,63.7l17.7,12.6L135,172.4h-27.3L190.7,63.7z M46.7,250.1H194c5.5,0,9.9-4.4,9.9-9.9c0-5.5-4.4-9.9-9.9-9.9H23.4v-38
				h430.8v38H283.7c-5.5,0-9.9,4.4-9.9,9.9c0,5.5,4.4,9.9,9.9,9.9h147.2l-3.4,72.2c-12.7,1.9-24.3,7-34,14.4v-48.6
				c0-5.5-4.4-9.9-9.9-9.9h-40.4c-5.5,0-9.9,4.4-9.9,9.9v115.7c0,5.5,4.4,9.9,9.9,9.9H367c2.7,10.5,7.7,20,14.4,28.1H55.7
				L46.7,250.1z M353.1,393.9v-95.8h20.6v61.8c-5.6,10.1-8.8,21.7-9,34H353.1z M438.3,449c-29.7,0-53.8-24.1-53.8-53.8
				c0-29.7,24.1-53.8,53.8-53.8c29.7,0,53.8,24.1,53.8,53.8C492.1,424.9,468,449,438.3,449z"/>
			<path class="st0" d="M461.7,373.8c-4.4-3.3-10.6-2.3-13.9,2.1l-13.7,18.5l-7.3-5.5c-4.4-3.3-10.6-2.4-13.9,2
				c-3.3,4.4-2.4,10.6,2,13.9l15.3,11.5c1.7,1.3,3.8,2,6,2c0.5,0,1,0,1.4-0.1c2.6-0.4,5-1.8,6.5-3.9l19.6-26.5
				C467,383.3,466.1,377.1,461.7,373.8L461.7,373.8z"/>
			<path class="st0" d="M248.2,236.4c-1.5-3.7-5.3-6.2-9.3-6.1c-4.2,0-8,2.8-9.3,6.7c-1.3,3.9,0,8.4,3.2,11
				c3.3,2.6,7.9,2.8,11.4,0.7C248.4,246.1,250,240.8,248.2,236.4L248.2,236.4z"/>
		</g>
	</g>
</g>
</svg>
