<?xml version="1.0" encoding="utf-8"?>
<!-- Generator: Adobe Illustrator 24.1.0, SVG Export Plug-In . SVG Version: 6.00 Build 0)  -->
<svg version="1.1" id="Layer_1" xmlns="http://www.w3.org/2000/svg" xmlns:xlink="http://www.w3.org/1999/xlink" x="0px" y="0px"
	 viewBox="0 0 512 512" style="enable-background:new 0 0 512 512;" xml:space="preserve">
<style type="text/css">
	.st0{fill:#FFFFFF;}
	.st1{fill:#FFFFFF;stroke:#FFFFFF;stroke-width:3;stroke-miterlimit:10;}
</style>
<g>
	<path class="st0" d="M485.2,86C458,58.9,430.8,31.7,403.7,4.4c-3.1-3.1-6.4-4.4-10.8-4.4c-61.2,0.1-122.3,0-183.5,0.1
		c-24.8,0-43.3,18.6-43.4,43.3c-0.1,23.4,0,46.8,0,70.2c0,1.7,0,3.5,0,5.6c-14,0-27.6,0-41.2,0c-16.2,0-26.9,10.8-26.9,27.1
		c0,19.5-0.1,39,0.1,58.5c0,3.3-1,5.5-3.3,7.8c-11.5,11.3-22.8,22.8-34.3,34.2c-9.2,9.1-13.6,19.9-13.6,32.8
		c0.1,52.3,0,104.6,0,156.9c0,1.9,0,3.8,0,6.1c-2.3,0-4.2,0-6.1,0c-8,0-10.9,2.8-10.9,10.8c0,15.6,0,31.2,0,46.8
		c0,7.3,3,10.5,10.2,10.5c52.8,0,105.6,0,158.5,0c6.9,0,10-3.1,10-10.1c0-16,0-31.9,0-47.9c0-7-3.1-10.1-10-10.1
		c-5-0.1-9.9,0-14.9,0c17-5.5,27.9-16.4,32.6-34c2.6,0,4.9,0,7.2,0c74.3,0,148.5,0,222.8,0c24.4,0,43.1-18.7,43.1-43.1
		c0-89.9,0-179.8,0.1-269.7C489.4,91.8,488.1,88.8,485.2,86z M404.2,30.6c18.3,18.2,36.4,36.4,54.6,54.6c-15.4,0-31.1,0.1-46.8-0.1
		c-4.9-0.1-7.8-3.9-7.8-9.5C404.2,60.6,404.2,45.5,404.2,30.6z M114.9,147.2c0-8,2.9-10.9,10.8-10.9c23.4,0,46.8,0,70.2,0
		c1.2,0,2.4,0,3.8,0c0,73.9,0,147.3,0,221.1c-19.7,0-39.3,0-59,0c-1.1-3.6,0.5-5.6,2.7-7.8c11.9-11.7,23.7-23.4,35.3-35.4
		c14.3-14.6,17.3-34.2,8.1-51.2c-3.8-7-9.3-12.6-15.4-17.4c-6.7-5.4-16-4.3-22.6,2.3c-10,9.8-19.8,19.8-29.7,29.7
		c-1.1,1.1-2.3,2.2-3.5,3.3c-1.6-1.1-0.8-2.7-0.8-3.9C114.9,233.7,114.9,190.4,114.9,147.2z M191.1,460.1c0,10.8,0,21.9,0,33.3
		c-47.7,0-95.7,0-144.1,0c0-11.1,0-22,0-33.3C94.9,460.1,142.8,460.1,191.1,460.1z M199.7,403.5c-1,11.8-11.2,21.1-23,22.1
		c-8.7,0.8-10.8,3-10.8,11.5c0,1.6,0,3.2,0,5.2c-33.9,0-67.8,0-102.1,0c0-1.8,0-3.5,0-5.2c0-52.1,0.1-104.2-0.1-156.4
		c0-9.1,2.9-16.5,9.5-22.7c8.1-7.7,15.8-15.8,24.4-24.4c0,21.8,0,42.9,0,64.4c7.8,0,15.1,0,22.3,0c3.1,0,5.1-2.1,7.1-4.1
		c11.3-11.5,22.7-22.9,34.2-34.5c9.7,7.8,15.8,16.7,13.3,29.4c-1,5.2-3.7,9.5-7.5,13.2c-12.8,12.8-25.5,25.7-38.4,38.3
		c-3.7,3.6-5.6,7.3-5.3,12.6c0.4,6.2,0.1,12.4,0.1,18.6c0,17.1-8.2,26.6-25.4,29c0,5.7,0,11,0,16.2c21.4,1.9,39.8-16.2,42.7-41.9
		c19.6,0,39.2,0,59.1,0C199.8,384.5,200.5,394,199.7,403.5z M472.3,108.9c0,85.1,0,170.2,0,255.3c0,16.6-10.6,27.4-27.1,27.4
		c-74.5,0-148.9,0-223.4,0c-1.4,0-2.8,0-4.5,0c-0.7-5.6-0.2-11-0.3-16.2c1.3-1.3,2.8-0.7,4.2-0.7c9.9-0.1,19.9,0,29.8-0.1
		c14.2-0.1,25.5-11.1,25.5-25.2c0.1-68.3,0.1-136.5,0-204.8c0-14.2-11.2-25.3-25.3-25.4c-22.5-0.1-45,0-67.3,0
		c-1.4-1.1-0.9-2.4-0.9-3.6c0-24.3-0.1-48.6,0-72.9c0.1-14.5,11.1-25.7,25.6-25.7c58.7-0.1,117.4,0,176,0c0.7,0,1.4,0.1,2,0.1
		c1.1,1.6,0.6,3.2,0.6,4.7c0,17.7,0,35.5,0,53.2c0,16.3,10.7,27,26.9,27.1c17.5,0,35.1,0,52.6,0c1.7,0,3.4,0,5.6,0
		C472.3,104.7,472.3,106.8,472.3,108.9z M217.2,357.4c0-73.7,0-147.2,0-220.9c2.7,0,5.2,0,7.9,0c0,73.8,0,147.4,0,220.9
		C222.3,357.4,219.9,357.4,217.2,357.4z M259.7,344.5c0,10.1-3.5,13.9-13,13.1c-1.2-0.1-2.4,0-3.8,0c0-73.8,0-147.2,0-220.9
		c0.5-0.2,0.6-0.3,0.8-0.3c12.2-0.7,16.2,0.3,16.1,15.3C259.4,215.9,259.4,280.2,259.7,344.5z"/>
	<path class="st0" d="M444.4,272.5c-21.8,0-43.6,0-65.4,0c-22.2,0-44.3,0-66.5,0c-7.3,0-10.4,3-10.4,10.2c0,21.4,0,42.9,0,64.3
		c0,7.6,3,10.5,10.6,10.5c43.9,0,87.9,0,131.8,0c7.7,0,10.7-2.9,10.7-10.5c0-21.3,0-42.5,0-63.8
		C455.3,275.3,452.4,272.5,444.4,272.5z M438,340.2c-39.4,0-78.8,0-118.7,0c0-16.9,0-33.5,0-50.5c39.6,0,79,0,118.7,0
		C438,306.4,438,323.2,438,340.2z"/>
	<path class="st0" d="M455,179.1c-51.1,0-101.9,0-152.8,0c0,5.6,0,10.8,0,16.4c51.3,0,102,0,152.8,0C455,189.8,455,184.4,455,179.1z
		"/>
	<path class="st0" d="M455,238.1c0-5.7,0-11.1,0-16.4c-39.7,0-79.2,0-118.7,0c0,5.6,0,10.8,0,16.4
		C376.2,238.1,415.6,238.1,455,238.1z"/>
	<path class="st0" d="M404.1,136.6c-34.3,0-68,0-101.7,0c0,5.7,0,11.1,0,16.4c34.1,0,67.8,0,101.7,0
		C404.1,147.4,404.1,142.1,404.1,136.6z"/>
	<path class="st0" d="M217.1,101.9c22.9,0,45.3,0,67.7,0c0-5.7,0-11.1,0-16.4c-22.7,0-45.1,0-67.7,0
		C217.1,91.1,217.1,96.3,217.1,101.9z"/>
	<path class="st0" d="M251.3,67.9c11.3,0,22.4,0,33.6,0c0-5.5,0-10.8,0-16.5c-11.5,0-22.5,0-33.6,0
		C251.3,57.1,251.3,62.5,251.3,67.9z"/>
	<path class="st0" d="M455.2,136.6c-11.6,0-22.6,0-33.6,0c0,5.7,0,11.1,0,16.4c11.4,0,22.4,0,33.6,0
		C455.2,147.4,455.2,142.1,455.2,136.6z"/>
	<path class="st0" d="M233.9,51.4c-5.8,0-11.2,0-16.6,0c0,5.7,0,11.1,0,16.4c5.7,0,11.1,0,16.6,0C233.9,62.3,233.9,57,233.9,51.4z"
		/>
	<path class="st0" d="M319,238.1c0-5.5,0-10.8,0-16.5c-5.8,0-11.2,0-16.6,0c0,5.7,0,11.1,0,16.5C308.1,238.1,313.5,238.1,319,238.1z
		"/>
</g>
</svg>
