<?xml version="1.0" encoding="utf-8"?>
<!-- Generator: Adobe Illustrator 24.1.0, SVG Export Plug-In . SVG Version: 6.00 Build 0)  -->
<svg version="1.1" id="Layer_1" xmlns="http://www.w3.org/2000/svg" xmlns:xlink="http://www.w3.org/1999/xlink" x="0px" y="0px"
	 viewBox="0 0 512 512" style="enable-background:new 0 0 512 512;" xml:space="preserve">
<style type="text/css">
	.st0{fill:#FFFFFF;}
	.st1{fill:#FFFFFF;stroke:#FFFFFF;stroke-width:3;stroke-miterlimit:10;}
</style>
<g>
	<g>
		<path class="st1" d="M484.4,203l-182-99.1c-2.1-1.4-4.9-1.4-6.3,0l-107.5,58.3c-2.1,1.4-3.5,3.5-3.5,6.3s1.4,4.9,3.5,6.3
			l171.4,93.4l-63.9,35.1c-2.1,0.7-3.5,3.5-3.5,6.3v158.8l-100.5-63.2c4.9-2.1,9.1-4.2,14.1-7l19,14.8c2.8,2.1,7.7,1.4,9.8-0.7
			l19-19c2.8-2.8,2.8-6.3,0.7-9.1L240,364.6c5.6-9.1,9.1-18.3,11.9-28.8l23.9-3.5c3.5-0.7,6.3-3.5,6.3-7v-27.4c0-3.5-2.8-6.3-6.3-7
			l-23.9-3.5c-2.1-9.8-6.3-19.7-11.9-28.8l14.8-19c2.1-2.8,2.1-7.7-0.7-9.8l-19-19c-2.8-2.8-6.3-2.8-9.1-0.7l-19.7,14.8
			c-9.1-5.6-18.3-9.1-28.8-11.9l-3.5-23.9c-0.7-3.5-3.5-6.3-7-6.3h-27.4c-3.5,0-6.3,2.8-7,6.3l-3.5,23.9
			c-9.8,2.1-19.7,6.3-28.8,11.9l-19-14.8c-2.8-2.1-7-2.1-9.1,0.7l-19,19c-2.8,2.8-2.8,6.3-0.7,9.1l14.8,19.7
			c-5.6,9.1-9.1,18.3-11.9,28.8l-23.9,3.5c-3.5,0-6.3,2.8-6.3,6.3v27.4c0,3.5,2.8,6.3,6.3,7l23.9,3.5c2.1,9.8,6.3,19.7,11.9,28.8
			l-14.8,19.7c-2.1,2.8-2.1,7,0.7,9.1l19.7,19.7c2.8,2.8,6.3,2.8,9.1,0.7l19.7-14.8c9.1,5.6,18.3,9.1,28.8,11.9l3.5,23.9
			c0.7,3.5,3.5,6.3,7,6.3h27.4c3.5,0,6.3-2.8,7-6.3l2.8-21.8l118.7,74.5c1.4,0.7,2.8,1.4,4.2,1.4c1.4,0,2.1,0,3.5-0.7l182-96.9
			c2.1-1.4,3.5-3.5,3.5-6.3V210C488.7,207.2,486.6,204.4,484.4,203z M299.7,118l167.9,91.3L418.4,236l-167.2-92L299.7,118z
			 M236.5,151.7l175.6,96.2v52l-30.2,16.9v-48.5c0-2.8-1.4-4.9-3.5-6.3l-172.1-93.4L236.5,151.7z M164.1,402.5l-2.8,23.2h-14.8
			l-2.8-23.2c-0.7-2.8-2.8-5.6-5.6-6.3c-11.9-2.1-22.5-7-32.3-13.3c-2.8-1.4-5.6-1.4-8.4,0l-18.3,14.1l-11.9-10.5l14.1-18.3
			c2.1-2.1,2.1-6.3,0-9.1c-6.3-9.8-11.2-20.4-13.3-32.3c-0.7-2.8-2.8-4.9-6.3-5.6L39,318.2v-15.5l23.2-2.8c2.8,0,4.9-2.1,5.6-4.9
			c2.1-11.9,7-22.5,13.3-32.3c1.4-2.8,1.4-5.6,0-8.4L67.1,236l10.5-10.5l18.3,14.1c2.1,2.1,6.3,2.1,8.4,0
			c9.8-6.3,20.4-11.2,32.3-13.3c2.8-0.7,4.9-2.8,5.6-6.3l2.8-23.2h14.8l2.8,23.2c0.7,2.8,2.8,5.6,5.6,6.3c11.9,2.1,22.5,7,32.3,13.3
			c2.8,1.4,5.6,1.4,8.4,0l18.3-14.1l10.5,10.5l-14.1,18.3c-2.1,2.1-2.1,5.6,0,8.4c7,9.8,11.2,21.1,13.3,32.3
			c0.7,2.8,2.8,4.9,6.3,5.6l23.2,2.8v15.5l-23.2,2.8c-2.8,0.7-5.6,2.8-6.3,5.6c-2.1,11.9-7,22.5-13.3,32.3c-1.4,2.8-1.4,5.6,0,8.4
			l14.1,18.3l-9.1,10.5l-18.3-14.1c-2.1-2.1-5.6-2.1-8.4,0c-9.8,7-21.1,11.2-32.3,13.3C166.9,396.9,164.1,399,164.1,402.5z
			 M306.7,468.5V313.3l61.1-33.7V328c0,2.8,1.4,4.9,3.5,6.3c2.1,1.4,4.9,1.4,7,0l44.3-24.6c2.1-1.4,3.5-3.5,3.5-6.3v-56.2l49.2-26.7
			v157.4L306.7,468.5z"/>
	</g>
	<g>
		<path class="st1" d="M215.4,311.2c0-34.4-28.1-61.8-61.8-61.8s-61.8,28.1-61.8,61.8s28.1,61.8,61.8,61.8S215.4,344.9,215.4,311.2z
			 M153.6,358.9c-26.7,0-47.8-21.8-47.8-47.8c0-26.7,21.8-47.8,47.8-47.8c26.7,0,47.8,21.8,47.8,47.8
			C201.3,337.2,179.5,358.9,153.6,358.9z"/>
	</g>
	<g>
		<path class="st1" d="M91,198.8c1.4,2.1,3.5,2.8,5.6,2.8c2.1,0,4.2-1.4,5.6-2.8l55.5-75.9c1.4-2.1,2.1-4.9,0.7-7s-3.5-3.5-6.3-3.5
			H124v-4.2c0-20.4,14.8-37.2,33.7-37.9c13.3-0.7,25.3,4.9,32.3,16.2c1.4,0.7,3.5,2.1,5.6,2.1l0,0c4.2,0,7-2.8,7-7
			c0-0.7,0-1.4-0.7-2.8c-5.6-33-34.4-56.2-68.1-54.8C98.8,25.2,70,56.1,70,93.4v18.3H41.9c-2.8,0-4.9,1.4-6.3,3.5
			c-1.4,2.1-0.7,4.9,0.7,7L91,198.8z M77,125.7c4.2,0,7-2.8,7-7V93.4c0-29.5,22.5-54.8,50.6-55.5c17.6-0.7,33.7,7.7,44.3,21.1
			c-7-2.8-14.8-4.2-22.5-3.5c-26,1.4-46.4,24.6-46.4,52v11.2c0,4.2,2.8,7,7,7h21.1l-41.4,56.9l-41.4-56.9H77z"/>
	</g>
</g>
</svg>
