<?xml version="1.0" encoding="utf-8"?>
<!-- Generator: Adobe Illustrator 24.1.0, SVG Export Plug-In . SVG Version: 6.00 Build 0)  -->
<svg version="1.1" id="Layer_1" xmlns="http://www.w3.org/2000/svg" xmlns:xlink="http://www.w3.org/1999/xlink" x="0px" y="0px"
	 viewBox="0 0 512 512" style="enable-background:new 0 0 512 512;" xml:space="preserve">
<style type="text/css">
	.st0{fill:#FFFFFF;}
	.st1{fill:#FFFFFF;stroke:#FFFFFF;stroke-width:3;stroke-miterlimit:10;}
</style>
<g>
	<path class="st0" d="M127.8,402.5c14.6-16.6,13-41.9-3.5-56.5c-16.6-14.6-41.9-13-56.5,3.5c-13.4,15.1-13.4,37.9,0,53
		c-30.2,12.2-50,41.5-50.1,74.1v10c0,5.5,4.5,10,10,10h140.2c5.5,0,10-4.5,10-10v-10C177.8,444.1,158,414.8,127.8,402.5z
		 M77.7,376.5c0-11.1,9-20,20-20s20,9,20,20s-9,20-20,20S77.7,387.6,77.7,376.5z M37.7,476.7c0-33.2,26.9-60.1,60.1-60.1
		s60.1,26.9,60.1,60.1H37.7z"/>
	<path class="st0" d="M448.3,402.5c14.6-16.6,13-41.9-3.5-56.5c-16.6-14.6-41.9-13-56.5,3.5c-13.4,15.1-13.4,37.9,0,53
		c-30.2,12.2-50,41.5-50.1,74.1v10c0,5.5,4.5,10,10,10h140.2c5.5,0,10-4.5,10-10v-10C498.3,444.1,478.5,414.8,448.3,402.5z
		 M398.2,376.5c0-11.1,9-20,20-20s20,9,20,20s-9,20-20,20S398.2,387.6,398.2,376.5z M358.2,476.7c0-33.2,26.9-60.1,60.1-60.1
		s60.1,26.9,60.1,60.1H358.2z"/>
	<path class="st0" d="M187.9,176.2h140.2c5.5,0,10-4.5,10-10v-10c-0.1-32.6-19.9-61.9-50.1-74.1c14.6-16.6,13-41.9-3.5-56.5
		s-41.9-13-56.5,3.5c-13.4,15.1-13.4,37.9,0,53c-30.2,12.2-50,41.5-50.1,74.1v10C177.9,171.7,182.4,176.2,187.9,176.2z M238,56
		c0-11.1,9-20,20-20c11.1,0,20,9,20,20s-9,20-20,20C246.9,76.1,238,67.1,238,56z M258,96.1c33.2,0,60.1,26.9,60.1,60.1H197.9
		C197.9,123,224.8,96.1,258,96.1z"/>
	<path class="st0" d="M348.1,336.4c5.5,0,10-4.5,10-10v-40.1c0-5.5-4.5-10-10-10c-21.5,0-20,2.5-5.1-12.4c3.9-3.9,4-10.2,0.1-14.2
		c0,0,0,0-0.1-0.1c-38.5-38.4-32.3-38.5-53.8-17.1c-1.2-0.7-1.2,1.9-1.2-16.3c0-5.5-4.5-10-10-10H238c-5.5,0-10,4.5-10,10
		c0,21.4,2.6,20-12.4,5.1c-3.9-3.9-10.2-4-14.2-0.1c0,0,0,0-0.1,0.1L173,249.7c-3.9,3.9-4,10.2-0.1,14.2c0,0,0,0,0.1,0.1
		c14.9,15,16.3,12.4-5.1,12.4c-5.5,0-10,4.5-10,10v40.1c0,5.5,4.5,10,10,10c18,0,15.6-0.5,16.3,1.2c-21.3,21.3-21.3,15.2,17.1,53.8
		c3.9,3.9,10.2,4,14.2,0.1c0,0,0,0,0.1-0.1c14.9-14.9,12.4-16.4,12.4,5.1c0,5.5,4.5,10,10,10H278c5.5,0,10-4.5,10-10
		c0-21.1-2.8-20,12.4-5.1c3.9,3.9,10.2,4,14.2,0.1c0,0,0,0,0.1-0.1c38.4-38.5,38.5-32.3,17.1-53.8
		C332.5,336.4,329.9,336.4,348.1,336.4z M310.9,334.9c-4.3,8,2.2,12.4,10.8,21l-13.6,14.1c-18.1-18.1-11.2-12.4-32.4-6.1
		c-8.6,2.6-7.1,10-7.1,22.5H248c0-25.8,0.9-16.7-18.5-27.2c-8-4.3-12.6,2.4-21,10.8l-14.1-13.6c18-18.1,12.5-11.2,6.1-32.4
		c-2.5-9.1-10.3-7.6-22.5-7.6v-20c25.8,0,16.7,0.8,27.2-18.5c4.3-8-2.2-12.4-10.8-21l14.1-14.1c18.1,18.1,11.2,12.4,32.4,6.1
		c8.6-2.6,7.1-10,7.1-22.5h20c0,25.8-0.9,16.7,18.5,27.2c8.1,4.4,12.9-2.7,21-10.8l14.1,14.1c-18,18.1-12.5,11.2-6.1,32.4
		c2.5,8.6,10,7.1,22.5,7.1v20C312.3,316.4,321.4,315.6,310.9,334.9z"/>
	<path class="st0" d="M258,276.4c-16.6,0-30,13.5-30,30c0,16.6,13.5,30,30,30c16.6,0,30-13.5,30-30l0,0
		C288,289.8,274.6,276.4,258,276.4z M258,316.4c-5.5,0-10-4.5-10-10c0-5.5,4.5-10,10-10c5.5,0,10,4.5,10,10
		C268,311.9,263.5,316.4,258,316.4z"/>
	<path class="st0" d="M345.3,54c101,43.7,154.3,155.2,124.9,261.2c-1.1,5.4,2.4,10.7,7.8,11.8c4.9,1,9.7-1.7,11.4-6.4
		c32-115.5-26.1-237-136.1-284.6c-5.4-1.3-10.8,1.9-12.1,7.3C340.2,47.4,341.8,51.7,345.3,54z"/>
	<path class="st0" d="M45.8,315.2C16.3,209.2,69.7,97.7,170.7,54c4.6-3.1,5.8-9.3,2.7-13.9c-2.4-3.5-6.6-5.1-10.7-4.1
		C52.7,83.7-5.4,205.1,26.6,320.6c1.9,5.2,7.6,7.9,12.8,6C44.1,324.9,46.8,320.1,45.8,315.2z"/>
	<path class="st0" d="M305.9,471.3c-75.4,17.2-103-13-107.7,7.5c-1.2,5.4,2.2,10.7,7.5,11.9c34.4,7.9,70.2,7.9,104.6,0
		c5.2-1.8,8-7.5,6.3-12.7C315,473.6,310.6,470.8,305.9,471.3z"/>
</g>
</svg>
