<?xml version="1.0" encoding="utf-8"?>
<!-- Generator: Adobe Illustrator 24.1.0, SVG Export Plug-In . SVG Version: 6.00 Build 0)  -->
<svg version="1.1" id="Layer_1" xmlns="http://www.w3.org/2000/svg" xmlns:xlink="http://www.w3.org/1999/xlink" x="0px" y="0px"
	 viewBox="0 0 512 512" style="enable-background:new 0 0 512 512;" xml:space="preserve">
<style type="text/css">
	.st0{fill:#FFFFFF;}
	.st1{fill:#FFFFFF;stroke:#FFFFFF;stroke-width:3;stroke-miterlimit:10;}
</style>
<g>
	<path class="st0" d="M446.8,292.3l-50.2-65.1l0,0v-0.4l0,0c-0.9-1.3-2.6-2.6-4.4-3.1l-77-26.8c14.1-15.8,22.4-36.5,22.4-59.4
		c0-49.7-40.5-90.2-90.2-90.2s-90.2,40.5-90.2,90.2c0,22.9,8.4,43.6,22.4,59.4l-77,26.8c-1.8,0.4-3.1,1.8-4.4,3.1l0,0l-50.2,65.6
		c-1.8,2.2-2.6,5.7-1.8,8.4c0.9,3.1,3.1,5.3,6.2,6.2L96,322.2v83.6c0,4,2.6,7.5,6.2,8.8l141.7,49.7c0.9,0.4,2.2,0.4,3.1,0.4
		s2.2,0,3.1-0.4l141.7-49.7c4-1.3,6.2-4.8,6.2-8.8v-83.6l43.6-15.4c3.1-0.9,5.3-3.5,6.2-6.2C449,297.6,448.5,294.5,446.8,292.3z
		 M176.1,137.4c0-39.2,32.1-71.3,71.3-71.3s71.3,32.1,71.3,71.3s-32.1,71.3-71.3,71.3S176.1,177,176.1,137.4z M71.4,293.2l37.8-49.3
		l127.6,44.9l-26,53.7L71.4,293.2z M237.7,442.4l-122.3-43.1v-70.4l97.7,34.3c0.9,0.4,2.2,0.4,3.1,0.4c3.5,0,7-2.2,8.4-5.3
		l13.2-27.7L237.7,442.4L237.7,442.4z M247.4,272.5l-113.1-39.6l61.2-21.6c14.5,10.6,32.6,16.3,51.9,16.3s37-6.2,51.9-16.3
		l61.2,21.6L247.4,272.5z M379.4,399.2l-122.8,43.1V330.6l13.2,27.7c1.8,3.5,4.8,5.3,8.4,5.3c0.9,0,2.2,0,3.1-0.4l98.1-34.3V399.2z
		 M283.5,342.5l-26-53.7l127.6-44.9l38.3,49.3L283.5,342.5z"/>
	<path class="st0" d="M233.3,163.8c1.8,1.8,4.4,3.1,7,3.1s5.3-0.9,7-3.1l37.4-39.2c3.5-4,3.5-9.7-0.4-13.2c-4-3.5-9.7-3.5-13.2,0.4
		L240.8,144l-16.3-16.7c-3.5-4-9.7-4-13.2-0.4c-4,3.5-4,9.7-0.4,13.2L233.3,163.8z"/>
</g>
</svg>
