<?xml version="1.0" encoding="utf-8"?>
<!-- Generator: Adobe Illustrator 24.1.0, SVG Export Plug-In . SVG Version: 6.00 Build 0)  -->
<svg version="1.1" id="Layer_1" xmlns="http://www.w3.org/2000/svg" xmlns:xlink="http://www.w3.org/1999/xlink" x="0px" y="0px"
	 viewBox="0 0 512 512" style="enable-background:new 0 0 512 512;" xml:space="preserve">
<style type="text/css">
	.st0{fill:#FFFFFF;}
	.st1{fill:#FFFFFF;stroke:#FFFFFF;stroke-width:3;stroke-miterlimit:10;}
</style>
<g>
	<path class="st0" d="M251.3,245.2c17.8,0,32.3-14.5,32.3-32.3s-14.5-32.3-32.3-32.3S219,195.1,219,212.9S233.5,245.2,251.3,245.2z
		 M251.3,202.2c5.9,0,10.8,4.8,10.8,10.8c0,5.9-4.8,10.8-10.8,10.8c-5.9,0-10.8-4.8-10.8-10.8C240.6,207,245.4,202.2,251.3,202.2z"
		/>
	<path class="st0" d="M305.2,299.1c0,17.8,14.5,32.3,32.3,32.3c17.8,0,32.3-14.5,32.3-32.3c0-17.8-14.5-32.3-32.3-32.3
		C319.7,266.8,305.2,281.3,305.2,299.1z M348.2,299.1c0,5.9-4.8,10.8-10.8,10.8s-10.8-4.8-10.8-10.8s4.8-10.8,10.8-10.8
		S348.2,293.1,348.2,299.1z"/>
	<path class="st0" d="M236.1,299.1l101.4-101.4l15.2,15.2L251.3,314.3L236.1,299.1z"/>
	<path class="st0" d="M424.7,245.2h10.3c0,0,0.1,0,0.1-0.1V137.6c0,0,0-0.1-0.1-0.1H67.6c0,0-0.1,0-0.1,0.1v107.6c0,0,0,0.1,0.1,0.1
		h10.3c5.6,0,10.6,4.2,11.1,9.8c0.6,6.4-4.5,11.8-10.7,11.8H67.6c0,0-0.1,0-0.1,0.1v107.6c0,0,0,0.1,0.1,0.1h367.5
		c0,0,0.1,0,0.1-0.1V266.8c0,0,0-0.1-0.1-0.1h-10.7c-6.3,0-11.3-5.4-10.7-11.8C414.1,249.4,419.1,245.2,424.7,245.2z M413.6,225.5
		C413.6,225.5,413.6,225.5,413.6,225.5C401,230,392,242,392,256s9,26,21.5,30.4c0,0,0,0,0,0.1v66.4c0,0,0,0.1-0.1,0.1H176
		c0,0-0.1,0-0.1-0.1v-21.4c0,0,0-0.1-0.1-0.1h-21.4c0,0-0.1,0-0.1,0.1v21.4c0,0,0,0.1-0.1,0.1H89.1c0,0-0.1,0-0.1-0.1v-66.4
		c0,0,0,0,0-0.1c12.5-4.5,21.5-16.4,21.5-30.4c0-14-9-26-21.5-30.4c0,0,0,0,0-0.1v-66.4c0,0,0-0.1,0.1-0.1h65.2c0,0,0.1,0,0.1,0.1
		v21.4c0,0,0,0.1,0.1,0.1h21.4c0,0,0.1,0,0.1-0.1v-21.4c0,0,0-0.1,0.1-0.1h237.5c0,0,0.1,0,0.1,0.1V225.5z"/>
	<path class="st0" d="M154.4,266.8h21.5v43.1h-21.5V266.8z"/>
	<path class="st0" d="M154.4,202.2h21.5v43.1h-21.5V202.2z"/>
</g>
</svg>
