<?xml version="1.0" encoding="utf-8"?>
<!-- Generator: Adobe Illustrator 24.1.0, SVG Export Plug-In . SVG Version: 6.00 Build 0)  -->
<svg version="1.1" id="Layer_1" xmlns="http://www.w3.org/2000/svg" xmlns:xlink="http://www.w3.org/1999/xlink" x="0px" y="0px"
	 viewBox="0 0 512 512" style="enable-background:new 0 0 512 512;" xml:space="preserve">
<style type="text/css">
	.st0{fill:#FFFFFF;}
	.st1{fill:#FFFFFF;stroke:#FFFFFF;stroke-width:3;stroke-miterlimit:10;}
</style>
<g>
	<path class="st0" d="M365.7,420.5l51.9-51.9h-51.9V420.5z M343,436.5v-79.2c0-6.2,5.1-11.3,11.3-11.3h79.2V97H94.1v339.5H343z
		 M275.1,312c0,4.3-2.4,8.2-6.3,10.1l-45.3,22.6c-7.5,3.8-16.4-1.7-16.4-10.1v-87.1l-43.4-65c-5-7.5,0.4-17.6,9.4-17.6h135.8
		c9,0,14.4,10.1,9.4,17.6l-43.4,65V312z M252.5,244.1c0-2.2,0.7-4.4,1.9-6.3l33.5-50.3h-93.5l33.5,50.3c1.2,1.9,1.9,4,1.9,6.3v72.2
		l22.6-11.3V244.1z M71.4,85.7c0-6.2,5.1-11.3,11.3-11.3h362.1c6.2,0,11.3,5.1,11.3,11.3v271.6c0,3-1.2,5.9-3.3,8l-90.5,90.5
		c-2.1,2.1-5,3.3-8,3.3H82.8c-6.2,0-11.3-5.1-11.3-11.3V85.7z"/>
</g>
</svg>
