<?xml version="1.0" encoding="utf-8"?>
<!-- Generator: Adobe Illustrator 24.1.0, SVG Export Plug-In . SVG Version: 6.00 Build 0)  -->
<svg version="1.1" id="Layer_1" xmlns="http://www.w3.org/2000/svg" xmlns:xlink="http://www.w3.org/1999/xlink" x="0px" y="0px"
	 viewBox="0 0 512 512" style="enable-background:new 0 0 512 512;" xml:space="preserve">
<style type="text/css">
	.st0{fill:#FFFFFF;}
	.st1{fill:#FFFFFF;stroke:#FFFFFF;stroke-width:3;stroke-miterlimit:10;}
</style>
<g>
	<g>
		<g>
			<path class="st0" d="M216.5,107.7c5.9,0,10.6-4.8,10.6-10.6s-4.8-10.6-10.6-10.6h-1.4c-5.9,0-10.6,4.8-10.6,10.6
				s4.8,10.6,10.6,10.6H216.5z"/>
			<path class="st0" d="M102.7,107.7c5.9,0,10.6-4.8,10.6-10.6s-4.8-10.6-10.6-10.6h-1.4c-5.9,0-10.6,4.8-10.6,10.6
				s4.8,10.6,10.6,10.6H102.7z"/>
			<path class="st0" d="M159.6,107.7c5.9,0,10.6-4.8,10.6-10.6s-4.8-10.6-10.6-10.6h-1.4c-5.9,0-10.6,4.8-10.6,10.6
				s4.8,10.6,10.6,10.6H159.6z"/>
			<path class="st0" d="M383.2,399.4h51c27.8,0,50.4-22.6,50.4-50.4l0-302.3c0-5.9-4.8-10.6-10.6-10.6H38c-5.9,0-10.6,4.8-10.6,10.6
				v55.5c0,5.9,4.8,10.6,10.6,10.6c5.9,0,10.6-4.8,10.6-10.6V57.4h414.8l0,291.6c0,16.1-13.1,29.1-29.1,29.1h-51
				c-5.9,0-10.6,4.8-10.6,10.6C372.6,394.6,377.4,399.4,383.2,399.4z"/>
			<path class="st0" d="M27.3,138.7v250.1c0,5.9,4.8,10.7,10.6,10.7h106.9c5.9,0,10.7-4.8,10.7-10.7c0-5.9-4.8-10.6-10.7-10.6H48.6
				V149.3h375.5c5.9,0,10.6-4.8,10.6-10.6c0-5.9-4.8-10.6-10.6-10.6H38C32.1,128,27.3,132.8,27.3,138.7z"/>
			<path class="st0" d="M362.6,338.8l32-72.8c1.4-3.3,1.1-7.1-0.8-10.1c-2-3-5.3-4.8-8.9-4.8H152.2l-8.3-23c-1.2-3.5-4.2-6-7.8-6.8
				l-32-6.7c-0.5-0.1-1-0.2-1.4-0.2c-7.3-0.5-22.2,2.9-26.2,19.4c-2.6,10.5,0.5,17.6,3.5,21.7c6,8.1,15.8,10,19.3,10.4l9.2,2.2
				c5.7,1.4,11.5-2.1,12.8-7.8c1.4-5.7-2.1-11.5-7.8-12.8l-9.9-2.4c-0.6-0.1-1.3-0.2-1.9-0.3c-0.8-0.1-3.8-0.8-4.6-1.9
				c-0.3-0.4-0.5-1.7,0.1-4c0.2-0.9,0.7-3.1,3.6-3.2l25.2,5.3l8.7,24.2l41,136.1c1.4,4.5,5.5,7.6,10.2,7.6h158
				c5.9,0,10.6-4.8,10.6-10.6c0-5.9-4.8-10.6-10.6-10.6H193.7l-4.5-15l136.6-8.5C349.5,363.8,360,348.1,362.6,338.8z M182.9,351.6
				l-23.9-79.3h209.5l-25.8,58.7c-0.2,0.5-0.5,1.2-0.6,1.8c-0.4,1.6-3.3,9.8-17.1,10L182.9,351.6z"/>
			<path class="st0" d="M175.2,458.2c0,19.8,16.2,36,36,36c19.9,0,36-16.2,36-36c0-19.9-16.2-36-36-36
				C191.4,422.2,175.2,438.4,175.2,458.2z M225.9,458.2c0,8.1-6.6,14.7-14.7,14.7c-8.1,0-14.7-6.6-14.7-14.7
				c0-8.1,6.6-14.7,14.7-14.7C219.3,443.5,225.9,450.1,225.9,458.2z"/>
			<path class="st0" d="M313,422.2c-19.8,0-36,16.2-36,36c0,19.8,16.1,36,36,36c19.9,0,36-16.2,36-36
				C349,438.4,332.8,422.2,313,422.2z M313,473c-8.1,0-14.7-6.6-14.7-14.7c0-8.1,6.6-14.7,14.7-14.7c8.1,0,14.7,6.6,14.7,14.7
				C327.7,466.4,321.1,473,313,473z"/>
		</g>
	</g>
</g>
</svg>
