<svg id="Layer_1" data-name="Layer 1" xmlns="http://www.w3.org/2000/svg" viewBox="0 0 40 40"><defs><style>.cls-1{fill:#b70000;}</style></defs><path class="cls-1" d="M33.7,1.29H15.81A2.42,2.42,0,0,0,13.4,3.7V19.13h1.51V3.7a.92.92,0,0,1,.9-.9h3.68l1.74,1.69h7L30,2.8h3.67a.92.92,0,0,1,.91.9V36.24a.92.92,0,0,1-.91.9h-14l-.48.48-.91-.48H15.87l-.48,1.45c.12,0,.24.06.36.06H33.64a2.42,2.42,0,0,0,2.41-2.41V3.7A2.33,2.33,0,0,0,33.7,1.29Z"/><circle class="cls-1" cx="24.79" cy="34.01" r="1.87"/><rect class="cls-1" x="18.04" y="9.37" width="13.49" height="4.34"/><rect class="cls-1" x="18.04" y="16.72" width="13.49" height="4.34"/><path class="cls-1" d="M20.63,25.63c.12.3.3.61.42,1l2.41.78v1h8V24.07h-10Z"/><path class="cls-1" d="M22.86,30.57V27.8l-2.29-.72a14.81,14.81,0,0,0-.6-1.45l1.08-2.17-2-1.92L16.9,22.62c-.49-.24-1-.42-1.45-.6l-.72-2.29H12L11.23,22a7.34,7.34,0,0,0-1.44.6L7.62,21.54l-2,1.92,1.08,2.17a8.11,8.11,0,0,0-.6,1.45l-2.17.72v2.77l2.29.73a6.83,6.83,0,0,0,.61,1.44L5.75,34.91l2,2,2.17-1.09a7.34,7.34,0,0,0,1.44.61l.73,2.29h2.77l.72-2.29A13.61,13.61,0,0,0,17,35.81l2.17,1.09,2-2-1.08-2.17a14.66,14.66,0,0,0,.6-1.44ZM13.4,32.38a3.2,3.2,0,1,1,3.19-3.19A3.13,3.13,0,0,1,13.4,32.38Z"/></svg>