<svg id="Layer_1" data-name="Layer 1" xmlns="http://www.w3.org/2000/svg" viewBox="0 0 40 40"><defs><style>.cls-1{fill:#b70000;}</style></defs><path class="cls-1" d="M15.66,17.89a1.08,1.08,0,0,1-.77-.31L12.71,15.4a1.1,1.1,0,0,1,0-1.54l2.18-2.18a1.09,1.09,0,1,1,1.54,1.54L15,14.63,16.43,16a1.09,1.09,0,0,1,0,1.55A1.08,1.08,0,0,1,15.66,17.89Z"/><path class="cls-1" d="M24.37,17.82a1.08,1.08,0,0,1-.77-.32,1.1,1.1,0,0,1,0-1.54L25,14.55l-1.41-1.4a1.09,1.09,0,1,1,1.55-1.54l2.17,2.17a1.08,1.08,0,0,1,0,1.54L25.15,17.5A1.09,1.09,0,0,1,24.37,17.82Z"/><path class="cls-1" d="M19.22,17.89a1.26,1.26,0,0,1-.38-.06,1.09,1.09,0,0,1-.64-1.4l1.59-4.36a1.09,1.09,0,0,1,1.4-.64,1.07,1.07,0,0,1,.65,1.39l-1.6,4.36A1.09,1.09,0,0,1,19.22,17.89Z"/><path class="cls-1" d="M28.43,38.52H11.57A3.55,3.55,0,0,1,8,35V5a3.55,3.55,0,0,1,3.55-3.55H28.43A3.55,3.55,0,0,1,32,5V35A3.55,3.55,0,0,1,28.43,38.52ZM11.57,3.66A1.37,1.37,0,0,0,10.2,5V35a1.37,1.37,0,0,0,1.37,1.37H28.43A1.37,1.37,0,0,0,29.8,35V5a1.37,1.37,0,0,0-1.37-1.37Z"/><path class="cls-1" d="M30.89,33.07H9.11a1.09,1.09,0,1,1,0-2.18H30.89a1.09,1.09,0,1,1,0,2.18Z"/><path class="cls-1" d="M22.18,8H17.82a1.09,1.09,0,0,1,0-2.18h4.36a1.09,1.09,0,0,1,0,2.18Z"/><path class="cls-1" d="M26.54,24.36H17.82a1.09,1.09,0,1,1,0-2.18h8.72a1.09,1.09,0,0,1,0,2.18Z"/><path class="cls-1" d="M13.46,24.36h-.21l-.1,0-.1,0-.1,0-.09-.06-.09-.06L12.69,24a1.12,1.12,0,0,1-.31-.77v-.11a.52.52,0,0,1,0-.11.44.44,0,0,1,0-.1l0-.1a1,1,0,0,0,0-.1l.06-.09.06-.08.07-.08.08-.07.09-.07.09-.05.1,0,.1,0,.1,0,.11,0h.21l.11,0,.1,0,.1,0,.1,0,.09.05.09.07.08.07.07.08.06.08a.41.41,0,0,1,.05.09.93.93,0,0,1,.05.1l0,.1a.44.44,0,0,1,0,.1.52.52,0,0,1,0,.11v.11a1.12,1.12,0,0,1-.31.77l-.08.07-.09.06-.09.06-.1,0-.1,0-.1,0h-.22Z"/><path class="cls-1" d="M26.54,28.71H17.82a1.09,1.09,0,1,1,0-2.17h8.72a1.09,1.09,0,0,1,0,2.17Z"/><path class="cls-1" d="M13.46,28.71h-.1l-.11,0-.1,0-.1,0-.1-.05-.09,0-.09-.06-.08-.08-.07-.07-.06-.09-.06-.09,0-.1,0-.1a.36.36,0,0,1,0-.1.43.43,0,0,1,0-.11v-.21a.43.43,0,0,1,0-.11.36.36,0,0,1,0-.1,3907367557463.49,3907367557463.49,0,0,0,.08-.2l.06-.09.06-.09.07-.08a1.12,1.12,0,0,1,1.55,0,.27.27,0,0,0,.07.08l.06.09a.41.41,0,0,1,.05.09.31.31,0,0,1,.05.1,1,1,0,0,1,0,.1.36.36,0,0,1,0,.1.43.43,0,0,1,0,.11v.21a.43.43,0,0,1,0,.11.36.36,0,0,1,0,.1l0,.1a.47.47,0,0,1-.05.1.41.41,0,0,1-.05.09l-.06.09a.46.46,0,0,0-.07.07l-.08.08-.09.06-.09,0-.1.05-.1,0-.1,0-.11,0Z"/></svg>