<svg id="Layer_1" data-name="Layer 1" xmlns="http://www.w3.org/2000/svg" viewBox="0 0 40 40"><defs><style>.cls-1{fill:#b70000;}</style></defs><path class="cls-1" d="M33.79,17a.85.85,0,0,0-.26-.6.84.84,0,0,0-.6-.25h0a.78.78,0,0,1-.57-1.36.84.84,0,0,0,0-1.2l-1.76-1.75a.84.84,0,0,0-.6-.25h0a.86.86,0,0,0-.42.12V5.26A3.56,3.56,0,0,0,26,1.69H9.75A3.56,3.56,0,0,0,6.2,5.26V34.74a3.56,3.56,0,0,0,3.55,3.57H26a3.56,3.56,0,0,0,3.55-3.57V24.8a.75.75,0,0,0,.48.14.84.84,0,0,0,.6-.25l1.75-1.76a.85.85,0,0,0,0-1.21A.78.78,0,0,1,33,20.36a.85.85,0,0,0,.85-.86ZM27.86,34.74A1.86,1.86,0,0,1,26,36.61H9.75a1.86,1.86,0,0,1-1.84-1.87V5.26A1.85,1.85,0,0,1,9.75,3.39H26a1.86,1.86,0,0,1,1.84,1.87v5.56l-.09-.11a.82.82,0,0,0-.61-.25h-.35v-5A.85.85,0,0,0,26,4.65H9.81A.86.86,0,0,0,9,5.5V31.1a.86.86,0,0,0,.86.85H26a.86.86,0,0,0,.86-.85v-5h.42a.84.84,0,0,0,.6-.25l0,0ZM19.53,14.88A.78.78,0,0,1,19,16.24a.85.85,0,0,0-.85.85l0,2.46a.85.85,0,0,0,.83.85.84.84,0,0,1,.8.51.79.79,0,0,1-.21.87.85.85,0,0,0,0,1.21l1.76,1.74a.86.86,0,0,0,.6.25h0a.86.86,0,0,0,.6-.25.8.8,0,0,1,.88-.21.79.79,0,0,1,.48.77.86.86,0,0,0,.25.6.85.85,0,0,0,.6.24h.36v4.11H10.66V6.35H25.11v4.12h-.43a.86.86,0,0,0-.85.86.77.77,0,0,1-.47.77.78.78,0,0,1-.88-.2.85.85,0,0,0-1.21,0l-1.75,1.76A.86.86,0,0,0,19.53,14.88ZM30.6,20.2a2.46,2.46,0,0,0,.08,2l-.74.74a2.47,2.47,0,0,0-3.43,1.44h-1a2.45,2.45,0,0,0-1.41-1.48,2.35,2.35,0,0,0-.93-.19A2.42,2.42,0,0,0,22,23l-.74-.74a2.49,2.49,0,0,0-1.44-3.44v-1a2.47,2.47,0,0,0,1.4-3.44l.74-.74a2.47,2.47,0,0,0,3.43-1.44h1.05a2.45,2.45,0,0,0,1.4,1.49,2.59,2.59,0,0,0,.85.18h0a2.45,2.45,0,0,0,1.18-.26l.74.74a2.46,2.46,0,0,0-.06,2,2.51,2.51,0,0,0,1.5,1.39v1A2.47,2.47,0,0,0,30.6,20.2Z"/><path class="cls-1" d="M17.89,32.26a2,2,0,1,0,2,2A2,2,0,0,0,17.89,32.26Zm0,2.33a.31.31,0,1,1,.31-.31A.32.32,0,0,1,17.89,34.59Z"/><path class="cls-1" d="M26,14.34a4,4,0,1,0,4,4A4,4,0,0,0,26,14.34Zm0,6.21a2.25,2.25,0,1,1,2.25-2.25A2.25,2.25,0,0,1,26,20.55Z"/></svg>