<?xml version="1.0" encoding="utf-8"?>
<!-- Generator: Adobe Illustrator 24.1.0, SVG Export Plug-In . SVG Version: 6.00 Build 0)  -->
<svg version="1.1" id="Layer_1" xmlns="http://www.w3.org/2000/svg" xmlns:xlink="http://www.w3.org/1999/xlink" x="0px" y="0px"
	 viewBox="0 0 1089.7 359.7" style="enable-background:new 0 0 1089.7 359.7;" xml:space="preserve">
<style type="text/css">
	.st0{fill:none;stroke:#DD8787;stroke-width:2;stroke-linecap:round;stroke-linejoin:round;stroke-dasharray:10,10;}
	.st1{fill:#DD8787;}
	.st2{fill-rule:evenodd;clip-rule:evenodd;fill:none;stroke:#DD8787;stroke-width:2;stroke-miterlimit:10;}
</style>
<g transform="rotate(15 164.425 20.979)">
	<path class="st0" d="M1124,95.1c-101.2-91.6-285.4-92-552.5-1.1C251.7,204.7,70.1,199.8,26.9,79.3"/>
	<g>
		<path class="st1" d="M14.4,39.5l0.5,1.9c5.6-1.5,11.3,0.6,14.4,5.3c3.3,5,2.9,11.2-1.2,16.8c-1.9,1.4-3.9,2.4-5.9,3
			c-5.6,1.5-11.3-0.6-14.4-5.3c-3.3-5-2.9-11.2,1.2-16.8c1.9-1.4,3.9-2.4,5.9-3L14.4,39.5 M14.4,39.5c-2.3,0.6-4.6,1.7-6.8,3.5
			C-2.9,56.7,9,72,22.7,68.3c2.3-0.6,4.6-1.7,6.8-3.5C40,51.1,28.1,35.8,14.4,39.5L14.4,39.5z"/>
	</g>
	<path class="st2" d="M1139.9,89.9l-5.5,20.5l-20.5-5.5"/>
</g>
</svg>
