<?xml version="1.0" encoding="utf-8"?>
<!-- Generator: Adobe Illustrator 24.1.0, SVG Export Plug-In . SVG Version: 6.00 Build 0)  -->
<svg version="1.1" xmlns="http://www.w3.org/2000/svg" xmlns:xlink="http://www.w3.org/1999/xlink" x="0px" y="0px"
	 viewBox="0 0 500 500" style="enable-background:new 0 0 500 500;" xml:space="preserve">
<g id="Background_Complete">
</g>
<g id="Background_Simple" style="display:none;">
	
		<ellipse transform="matrix(0.8023 -0.597 0.597 0.8023 -109.3646 261.5676)" style="display:inline;fill:#F5F5F5;" cx="340.15" cy="295.87" rx="23.68" ry="23.68"/>
	<circle style="display:inline;fill:#F5F5F5;" cx="450.97" cy="228.16" r="20.87"/>
	<circle style="display:inline;fill:#F5F5F5;" cx="169.47" cy="199.94" r="11.2"/>
	<circle style="display:inline;fill:#F5F5F5;" cx="220.05" cy="48.37" r="11.2"/>
	<circle style="display:inline;fill:#F5F5F5;" cx="342.66" cy="48.37" r="21.33"/>
	<circle style="display:inline;fill:#F5F5F5;" cx="56.3" cy="246.22" r="20.83"/>
	<circle style="display:inline;fill:#F5F5F5;" cx="381.1" cy="143.11" r="18.93"/>
	
		<ellipse transform="matrix(0.9271 -0.3747 0.3747 0.9271 -23.8023 38.8412)" style="display:inline;fill:#F5F5F5;" cx="87.97" cy="80.62" rx="34.61" ry="34.61"/>
</g>
<g id="Mind_Map">
</g>
<g id="Character">
</g>
<g id="Plant">
</g>
<g id="Desk">
	<g>
		<g>
			<g>
				<g>
					<g>
						<path style="fill:#E0E0E0;" d="M439.49,126.58c0,0,0.62,0.04,1.63,0.51c0.99,0.46,2.38,1.46,3.24,3.28
							c0.42,0.9,0.71,1.99,0.66,3.17c-0.05,1.17-0.36,2.44-1.09,3.55c-0.35,0.57-0.8,1.09-1.32,1.54c-0.52,0.46-1.12,0.85-1.79,1.14
							c-1.32,0.6-2.88,0.76-4.38,0.43c-1.5-0.35-2.84-1.16-3.78-2.26c-0.48-0.54-0.86-1.15-1.13-1.79c-0.28-0.63-0.47-1.3-0.54-1.96
							c-0.18-1.32,0.08-2.6,0.53-3.68c0.46-1.09,1.19-1.95,1.95-2.58c1.56-1.28,3.25-1.59,4.33-1.58
							C438.91,126.35,439.49,126.58,439.49,126.58c-0.01,0.05-0.6-0.12-1.68-0.08c-1.06,0.04-2.69,0.39-4.16,1.64
							c-0.72,0.62-1.4,1.46-1.83,2.5c-0.42,1.03-0.66,2.25-0.47,3.5c0.07,0.63,0.25,1.25,0.52,1.85c0.26,0.6,0.62,1.18,1.08,1.69
							c0.89,1.04,2.16,1.8,3.57,2.13c1.42,0.3,2.89,0.16,4.14-0.4c0.63-0.27,1.2-0.63,1.7-1.07c0.5-0.43,0.93-0.92,1.26-1.45
							c0.7-1.05,1.01-2.25,1.07-3.37c0.06-1.12-0.2-2.17-0.59-3.04c-0.8-1.76-2.11-2.77-3.06-3.26
							C440.08,126.73,439.47,126.62,439.49,126.58z"/>
					</g>
				</g>
			</g>
		</g>
		<g>
			<g>
				<g>
					<g>
						<path style="fill:#E0E0E0;" d="M445.01,119.21c0,0-0.01-0.08-0.01-0.24c0-0.18-0.01-0.42-0.02-0.73
							c-0.01-0.67-0.02-1.64-0.04-2.9l0.05,0.06c-1.61-0.35-3.72-0.81-6.27-1.37l0.11-0.05c-0.5,1.06-1.05,2.24-1.65,3.51
							l-0.03,0.06l-0.07,0c-1.3,0.06-2.69,0.28-4.09,0.73l-0.07,0.02l-0.06-0.06c-0.86-0.85-1.79-1.77-2.76-2.73l0.17,0.02
							c-1.7,1.09-3.51,2.24-5.41,3.45l0.06-0.18c0.4,1.13,0.85,2.38,1.31,3.65l0.03,0.09l-0.07,0.07c-0.87,0.95-1.71,2.1-2.38,3.39
							l-0.05,0.09l-0.1,0c-1.2,0-2.53,0.01-3.88,0.01l0.17-0.14c-0.44,1.97-0.91,4.09-1.4,6.26l-0.1-0.21
							c1.09,0.52,2.29,1.08,3.5,1.66l0.1,0.05l0,0.11c0.05,1.29,0.28,2.7,0.71,4.07l0.04,0.11l-0.08,0.08
							c-0.86,0.86-1.79,1.8-2.74,2.75l0.03-0.24c1.09,1.72,2.25,3.55,3.44,5.42l-0.23-0.08c1.15-0.41,2.4-0.85,3.65-1.3l0.11-0.04
							l0.09,0.08c0.96,0.89,2.11,1.72,3.37,2.38l0,0l0,0c0.05,0.08-0.11-0.17,0.11,0.18l0,0v0.01v0.02v0.03l0,0.06l0,0.12l0,0.24
							l0,0.49l0,0.97c0,0.65,0,1.29,0,1.93l-0.15-0.19c2.12,0.48,4.2,0.94,6.26,1.41l-0.22,0.11c0.56-1.18,1.11-2.35,1.66-3.5
							l0.05-0.11l0.12,0c1.4-0.05,2.77-0.3,4.07-0.71l0.11-0.03l0.08,0.08c0.93,0.93,1.84,1.84,2.75,2.74l-0.23-0.03
							c1.85-1.17,3.66-2.31,5.42-3.43l-0.07,0.21c-0.44-1.24-0.87-2.46-1.3-3.66l-0.04-0.1l0.07-0.08c0.96-1.04,1.76-2.18,2.39-3.38
							l0.05-0.09h0.1c1.33,0,2.62,0,3.88,0l-0.16,0.13c0.5-2.2,0.97-4.28,1.42-6.26l0.08,0.17c-1.23-0.59-2.38-1.14-3.5-1.67
							l-0.08-0.04l0-0.09c-0.05-1.48-0.31-2.84-0.7-4.09l-0.02-0.08l0.06-0.06c1-1,1.9-1.89,2.75-2.74l-0.02,0.14
							c-1.32-2.11-2.45-3.9-3.41-5.44l0.1,0.04c-1.46,0.51-2.66,0.93-3.66,1.28l-0.04,0.01l-0.03-0.03
							c-1.03-0.96-1.91-1.55-2.49-1.92c-0.29-0.17-0.51-0.3-0.67-0.4C445.07,119.26,445,119.21,445.01,119.21
							c0,0,0.09,0.03,0.24,0.11c0.15,0.08,0.38,0.2,0.68,0.37c0.6,0.35,1.49,0.93,2.54,1.88l-0.06-0.01
							c0.99-0.36,2.19-0.8,3.64-1.32l0.07-0.02l0.04,0.06c0.98,1.53,2.12,3.31,3.46,5.4l0.05,0.08l-0.07,0.07
							c-0.84,0.85-1.74,1.76-2.73,2.76l0.03-0.13c0.4,1.27,0.67,2.65,0.74,4.15l-0.08-0.12c1.12,0.53,2.27,1.07,3.51,1.65l0.11,0.05
							l-0.03,0.12c-0.44,1.98-0.9,4.06-1.39,6.26l-0.03,0.13l-0.13,0c-1.26,0-2.55,0.01-3.88,0.02l0.15-0.09
							c-0.64,1.23-1.45,2.4-2.43,3.46l0.04-0.18c0.43,1.2,0.86,2.41,1.31,3.65l0.05,0.14l-0.12,0.08c-1.76,1.12-3.57,2.27-5.42,3.44
							l-0.13,0.08l-0.11-0.11c-0.9-0.9-1.82-1.81-2.75-2.73l0.19,0.05c-1.33,0.42-2.74,0.67-4.17,0.73l0.17-0.11
							c-0.55,1.16-1.1,2.32-1.66,3.5l-0.07,0.14l-0.15-0.03c-2.06-0.46-4.15-0.93-6.26-1.4l-0.15-0.03l0-0.16c0-0.64,0-1.29,0-1.93
							l0-0.97l0-0.49l0-0.24l0-0.12l0-0.06l0-0.03v-0.02v-0.01v0c0.21,0.35,0.06,0.1,0.11,0.17l0,0l0,0
							c-1.29-0.67-2.47-1.52-3.46-2.44l0.2,0.04c-1.25,0.45-2.5,0.89-3.65,1.3l-0.15,0.05l-0.08-0.13c-1.18-1.87-2.35-3.7-3.43-5.42
							l-0.08-0.13l0.11-0.11c0.95-0.95,1.88-1.89,2.74-2.75l-0.05,0.19c-0.44-1.4-0.67-2.85-0.72-4.17l0.11,0.16
							c-1.21-0.58-2.41-1.15-3.5-1.67l-0.13-0.06l0.03-0.14c0.49-2.17,0.97-4.29,1.41-6.26l0.03-0.14l0.14,0c1.35,0,2.67,0,3.88,0
							l-0.15,0.09c0.68-1.31,1.54-2.49,2.44-3.45l-0.03,0.17c-0.45-1.28-0.89-2.52-1.29-3.66l-0.04-0.12l0.1-0.07
							c1.9-1.2,3.72-2.34,5.43-3.42l0.1-0.06l0.08,0.08c0.96,0.96,1.89,1.89,2.74,2.74l-0.13-0.03c1.42-0.44,2.83-0.66,4.16-0.71
							l-0.1,0.07c0.6-1.26,1.17-2.44,1.68-3.49l0.03-0.07l0.08,0.02c2.55,0.59,4.65,1.07,6.25,1.44l0.05,0.01l0,0.05
							c-0.01,1.25-0.02,2.21-0.03,2.88c-0.01,0.32-0.01,0.56-0.01,0.74C445.02,119.12,445.01,119.21,445.01,119.21z"/>
					</g>
				</g>
			</g>
		</g>
	</g>
	<g>
		<g>
			<g>
				<path style="fill:#E0E0E0;" d="M482.96,432.12c0,0-0.01-0.41-0.02-1.18c0-0.78-0.01-1.93-0.02-3.43
					c-0.01-3.01-0.03-7.43-0.05-13.1c-0.02-11.34-0.05-27.68-0.09-47.74l0.18,0.18c-30.35,0.01-69.94,0.03-113.11,0.05h-0.01
					l0.23-0.23c-0.01,23.16-0.01,45.29-0.02,65.45l-0.22-0.22c33.13,0.04,61.38,0.08,81.36,0.1c10,0.02,17.93,0.04,23.37,0.06
					c2.71,0.01,4.8,0.02,6.23,0.03c0.7,0.01,1.24,0.01,1.61,0.01C482.77,432.11,482.96,432.12,482.96,432.12s-0.17,0.01-0.53,0.01
					c-0.37,0-0.89,0.01-1.59,0.01c-1.41,0.01-3.49,0.01-6.19,0.03c-5.43,0.01-13.34,0.03-23.32,0.06
					c-20.02,0.03-48.32,0.06-81.5,0.1l-0.22,0v-0.22c-0.01-20.15-0.01-42.28-0.02-65.45v-0.23h0.23h0.01
					c43.17,0.02,82.76,0.04,113.11,0.05l0.18,0l0,0.18c-0.04,20.11-0.07,36.48-0.09,47.85c-0.02,5.65-0.03,10.06-0.05,13.06
					c-0.01,1.48-0.02,2.62-0.02,3.4C482.98,431.73,482.96,432.12,482.96,432.12z"/>
			</g>
		</g>
		<g>
			<g>
				<path style="fill:#E0E0E0;" d="M483.01,374.59c0,0.13-25.3,0.23-56.51,0.23c-31.22,0-56.51-0.1-56.51-0.23
					c0-0.13,25.3-0.23,56.51-0.23C457.7,374.36,483.01,374.47,483.01,374.59z"/>
			</g>
		</g>
		<g>
			<rect x="379.64" y="385.39" style="fill:#F5F5F5;" width="34.94" height="34.94"/>
		</g>
		<g>
			<g>
				<g>
					<path style="fill:#E0E0E0;" d="M474.76,391.15c0,0.02-0.18,0.03-0.51,0.05c-0.39,0.01-0.88,0.03-1.47,0.04
						c-1.34,0.02-3.18,0.04-5.42,0.07c-4.63,0.02-10.93,0.04-17.88,0.07c-6.96-0.03-13.25-0.05-17.88-0.07
						c-2.24-0.03-4.08-0.06-5.42-0.07c-0.6-0.02-1.09-0.03-1.47-0.04c-0.34-0.02-0.51-0.03-0.51-0.05c0-0.02,0.18-0.03,0.51-0.05
						c0.39-0.01,0.88-0.03,1.47-0.04c1.34-0.02,3.18-0.04,5.42-0.07c4.63-0.02,10.93-0.04,17.88-0.07
						c6.95,0.03,13.25,0.05,17.88,0.07c2.24,0.03,4.08,0.06,5.42,0.07c0.6,0.02,1.09,0.03,1.47,0.04
						C474.58,391.12,474.76,391.13,474.76,391.15z"/>
				</g>
			</g>
			<g>
				<g>
					<path style="fill:#E0E0E0;" d="M475.88,398.95c0,0.02-0.18,0.03-0.53,0.05c-0.39,0.01-0.89,0.03-1.51,0.04
						c-1.37,0.02-3.25,0.04-5.54,0.07c-4.73,0.02-11.17,0.04-18.28,0.07c-7.11-0.03-13.55-0.05-18.28-0.07
						c-2.29-0.03-4.17-0.06-5.54-0.07c-0.61-0.02-1.11-0.03-1.51-0.04c-0.34-0.02-0.53-0.03-0.53-0.05c0-0.02,0.18-0.03,0.53-0.05
						c0.39-0.01,0.89-0.03,1.51-0.04c1.37-0.02,3.25-0.04,5.54-0.07c4.73-0.02,11.17-0.04,18.28-0.07
						c7.11,0.03,13.54,0.05,18.28,0.07c2.29,0.03,4.17,0.06,5.54,0.07c0.61,0.02,1.11,0.03,1.51,0.04
						C475.7,398.92,475.88,398.94,475.88,398.95z"/>
				</g>
			</g>
			<g>
				<g>
					<path style="fill:#E0E0E0;" d="M475.88,406.76c0,0.02-0.18,0.03-0.53,0.05c-0.39,0.01-0.89,0.03-1.51,0.04
						c-1.37,0.02-3.25,0.04-5.54,0.07c-4.73,0.02-11.17,0.04-18.28,0.07c-7.11-0.03-13.55-0.05-18.28-0.07
						c-2.29-0.03-4.17-0.06-5.54-0.07c-0.61-0.02-1.11-0.03-1.51-0.04c-0.34-0.02-0.53-0.03-0.53-0.05s0.18-0.03,0.53-0.05
						c0.39-0.01,0.89-0.03,1.51-0.04c1.37-0.02,3.25-0.04,5.54-0.07c4.73-0.02,11.17-0.04,18.28-0.07
						c7.11,0.03,13.54,0.05,18.28,0.07c2.29,0.03,4.17,0.06,5.54,0.07c0.61,0.02,1.11,0.03,1.51,0.04
						C475.7,406.73,475.88,406.74,475.88,406.76z"/>
				</g>
			</g>
			<g>
				<g>
					<path style="fill:#E0E0E0;" d="M475.88,414.56c0,0.02-0.18,0.03-0.53,0.05c-0.39,0.01-0.89,0.03-1.51,0.04
						c-1.37,0.02-3.25,0.04-5.54,0.07c-4.73,0.02-11.17,0.04-18.28,0.07c-7.11-0.03-13.55-0.05-18.28-0.07
						c-2.29-0.03-4.17-0.06-5.54-0.07c-0.61-0.02-1.11-0.03-1.51-0.04c-0.34-0.02-0.53-0.03-0.53-0.05s0.18-0.03,0.53-0.05
						c0.39-0.01,0.89-0.03,1.51-0.04c1.37-0.02,3.25-0.04,5.54-0.07c4.73-0.02,11.17-0.04,18.28-0.07
						c7.11,0.03,13.54,0.05,18.28,0.07c2.29,0.03,4.17,0.06,5.54,0.07c0.61,0.02,1.11,0.03,1.51,0.04
						C475.7,414.53,475.88,414.55,475.88,414.56z"/>
				</g>
			</g>
		</g>
	</g>
	<g>
		<g>
			
				<ellipse transform="matrix(0.7071 -0.7071 0.7071 0.7071 -7.2087 132.1057)" style="fill:#F5F5F5;" cx="155.86" cy="74.75" rx="47.01" ry="47.01"/>
		</g>
		<g>
			<g>
				<path style="fill:#E0E0E0;" d="M177.21,76.2c0,0.04-0.59,0.08-1.66,0.11c-1.18,0.02-2.71,0.05-4.57,0.09
					c-3.88,0.05-9.28,0.09-15.38,0.1l-0.3,0l0-0.3c0-0.98,0-2,0-3.05c0-6.81,0.03-12.97,0.09-17.44c0.04-2.15,0.07-3.93,0.1-5.28
					c0.04-1.25,0.08-1.94,0.12-1.94c0.04,0,0.08,0.69,0.12,1.94c0.02,1.35,0.06,3.13,0.1,5.28c0.05,4.46,0.09,10.63,0.09,17.44
					c0,1.04,0,2.07,0,3.05l-0.3-0.3c6.1,0.01,11.5,0.05,15.38,0.1c1.86,0.04,3.39,0.07,4.57,0.09
					C176.62,76.12,177.21,76.16,177.21,76.2z"/>
			</g>
		</g>
		<g>
			<g>
				<path style="fill:#E0E0E0;" d="M155.74,35.46c0.17,0,0.3,1.77,0.3,3.95c0,2.18-0.14,3.95-0.3,3.95c-0.17,0-0.3-1.77-0.3-3.95
					C155.44,37.23,155.58,35.46,155.74,35.46z"/>
			</g>
		</g>
		<g>
			<g>
				<path style="fill:#E0E0E0;" d="M177.16,41.81c0.12,0.12-1.02,1.45-2.54,2.97c-1.52,1.52-2.85,2.66-2.97,2.54
					c-0.12-0.12,1.02-1.45,2.54-2.97C175.72,42.82,177.05,41.69,177.16,41.81z"/>
			</g>
		</g>
		<g>
			<g>
				<path style="fill:#E0E0E0;" d="M189.69,55.49c0.08,0.15-1.41,1.05-3.24,2.16c-1.83,1.11-3.31,2.02-3.41,1.88
					c-0.1-0.13,1.24-1.28,3.1-2.4C187.98,56,189.62,55.34,189.69,55.49z"/>
			</g>
		</g>
		<g>
			<g>
				<path style="fill:#E0E0E0;" d="M197.03,75.79c0,0.17-2.41,0.3-5.38,0.3c-2.97,0-5.39-0.14-5.39-0.3c0-0.17,2.41-0.3,5.39-0.3
					C194.62,75.49,197.03,75.62,197.03,75.79z"/>
			</g>
		</g>
		<g>
			<g>
				<path style="fill:#E0E0E0;" d="M122.36,75.07c0,0.17-2.28,0.3-5.09,0.3c-2.81,0-5.09-0.14-5.09-0.3c0-0.17,2.28-0.3,5.09-0.3
					C120.08,74.77,122.36,74.91,122.36,75.07z"/>
			</g>
		</g>
		<g>
			<g>
				<path style="fill:#E0E0E0;" d="M127.64,90.19c0.11,0.13-1.61,1.69-3.84,3.49c-2.23,1.8-4.12,3.15-4.22,3.01
					c-0.1-0.13,1.62-1.7,3.84-3.49C125.64,91.41,127.53,90.06,127.64,90.19z"/>
			</g>
		</g>
		<g>
			<g>
				<path style="fill:#E0E0E0;" d="M140.67,101.88c0.14,0.1-1.14,2.06-2.62,4.53c-1.49,2.47-2.62,4.51-2.78,4.44
					c-0.15-0.07,0.75-2.26,2.25-4.75C139.03,103.6,140.54,101.78,140.67,101.88z"/>
			</g>
		</g>
		<g>
			<g>
				<path style="fill:#E0E0E0;" d="M155.74,116.96c-0.17,0-0.3-2.41-0.3-5.38c0-2.97,0.14-5.39,0.3-5.39c0.17,0,0.3,2.41,0.3,5.39
					C156.05,114.55,155.91,116.96,155.74,116.96z"/>
			</g>
		</g>
		<g>
			<g>
				<path style="fill:#E0E0E0;" d="M178.96,109.78c-0.09,0.14-2.19-1.08-4.44-3.04c-2.25-1.96-3.74-3.88-3.62-3.98
					c0.13-0.12,1.8,1.6,4.02,3.52C177.13,108.22,179.05,109.64,178.96,109.78z"/>
			</g>
		</g>
		<g>
			<g>
				<path style="fill:#E0E0E0;" d="M189.85,98.05c-0.12,0.12-1.72-1.29-3.57-3.14c-1.85-1.85-3.25-3.45-3.14-3.57
					c0.12-0.12,1.72,1.28,3.57,3.14C188.56,96.34,189.97,97.93,189.85,98.05z"/>
			</g>
		</g>
		<g>
			<g>
				<path style="fill:#E0E0E0;" d="M127.14,60.59c-0.12,0.12-1.53-1.1-3.15-2.72c-1.62-1.62-2.84-3.03-2.72-3.15
					c0.12-0.12,1.53,1.1,3.15,2.72C126.05,59.07,127.26,60.48,127.14,60.59z"/>
			</g>
		</g>
		<g>
			<g>
				<path style="fill:#E0E0E0;" d="M140.59,46.43c-0.12,0.12-1.5-1.07-3.09-2.65c-1.59-1.58-2.78-2.96-2.66-3.08
					c0.12-0.12,1.5,1.07,3.09,2.65C139.51,44.93,140.71,46.31,140.59,46.43z"/>
			</g>
		</g>
	</g>
	<g style="opacity:0.8;">
		<g>
			<g>
				<path style="fill-rule:evenodd;clip-rule:evenodd;fill:#EBEBEB;" d="M411.57,50.67c2.48,1.29,4.75,2.9,6.76,4.76l7.23-2.57
					l6.79,10.72l-5.41,5.44c0.82,2.61,1.31,5.35,1.42,8.15l6.93,3.29l-2.78,12.38l-7.67,0.02c-1.29,2.49-2.9,4.75-4.77,6.76
					l2.57,7.23l-10.72,6.79l-5.44-5.41c-2.61,0.82-5.35,1.31-8.15,1.42l-3.29,6.93l-12.38-2.78l-0.02-7.67
					c-2.49-1.29-4.75-2.9-6.76-4.77l-7.23,2.57l-6.79-10.72l5.41-5.44c-0.82-2.61-1.31-5.35-1.42-8.15l-6.93-3.29l2.78-12.38
					l7.67-0.02c1.29-2.49,2.9-4.76,4.77-6.76l-2.57-7.23l10.72-6.79l5.44,5.41c2.61-0.82,5.35-1.31,8.15-1.42l3.29-6.93L411.55,43
					L411.57,50.67L411.57,50.67z M400.65,65.24c-7.34-1.65-14.62,2.97-16.26,10.3c-1.65,7.34,2.97,14.62,10.3,16.26
					c7.34,1.65,14.62-2.97,16.26-10.3C412.6,74.17,407.99,66.89,400.65,65.24z"/>
			</g>
		</g>
	</g>
	<g>
		<path style="fill:#F5F5F5;" d="M47.63,159.61h80.35c0,0-7.11-12.93-27.79-11.05c-19.75,1.8-20.76-6.36-30.8-7.37
			C59.35,140.19,50.98,147.89,47.63,159.61z"/>
	</g>
	<g>
		<path style="fill:#F5F5F5;" d="M221.54,305.71h65.04c0,0-5.75-10.47-22.49-8.94c-15.99,1.45-16.8-5.15-24.93-5.96
			C231.02,289.99,224.25,296.22,221.54,305.71z"/>
	</g>
	<g>
		<path style="fill:#263238;" d="M500,466.2c0,0.16-111.94,0.28-249.99,0.28C111.91,466.48,0,466.35,0,466.2
			c0-0.16,111.91-0.28,250.01-0.28C388.06,465.91,500,466.04,500,466.2z"/>
	</g>
	<g>
		<g>
			<g>
				<rect x="315.08" y="140.65" style="fill:#FFFFFF;" width="157.82" height="105.67"/>
			</g>
			<g>
				<g>
					<path style="fill:#E8505B;" d="M472.89,246.32c0,0-0.02-0.66-0.02-1.92c-0.01-1.27-0.01-3.14-0.03-5.58
						c-0.01-4.89-0.03-12.07-0.06-21.25c-0.03-18.36-0.07-44.75-0.12-76.92l0.23,0.23c-43.49,0.02-98.35,0.04-157.8,0.06h-0.01
						l0.28-0.28c-0.01,37.64-0.02,73.44-0.02,105.67l-0.26-0.26c46.46,0.05,85.88,0.1,113.7,0.13c13.92,0.03,24.94,0.05,32.48,0.07
						c3.77,0.01,6.67,0.02,8.64,0.03c0.98,0.01,1.72,0.01,2.23,0.02C472.63,246.31,472.89,246.32,472.89,246.32
						s-0.24,0.01-0.74,0.02c-0.5,0-1.24,0.01-2.2,0.02c-1.96,0.01-4.84,0.02-8.59,0.03c-7.53,0.02-18.53,0.04-32.42,0.07
						c-27.86,0.03-67.34,0.08-113.87,0.13l-0.26,0v-0.26c-0.01-32.23-0.02-68.02-0.02-105.67l0-0.28h0.28h0.01
						c59.46,0.02,114.32,0.04,157.8,0.06l0.23,0l0,0.23c-0.05,32.23-0.09,58.67-0.12,77.06c-0.02,9.16-0.04,16.32-0.06,21.2
						c-0.01,2.42-0.02,4.27-0.03,5.53C472.91,245.69,472.89,246.32,472.89,246.32z"/>
				</g>
			</g>
		</g>
		<g>
			<g>
				<path style="fill:#E8505B;" d="M315.08,150.08c0-0.16,35.3-0.28,78.84-0.28c43.55,0,78.85,0.13,78.85,0.28
					s-35.29,0.28-78.85,0.28C350.38,150.36,315.08,150.23,315.08,150.08z"/>
			</g>
		</g>
		<g>
			<g style="opacity:0.3;">
				<path style="fill:#E8505B;" d="M321.3,145.32c0,0.7-0.57,1.26-1.26,1.26s-1.26-0.57-1.26-1.26c0-0.7,0.57-1.26,1.26-1.26
					S321.3,144.62,321.3,145.32z"/>
			</g>
			<g style="opacity:0.3;">
				<path style="fill:#E8505B;" d="M325.64,145.32c0,0.7-0.57,1.26-1.26,1.26c-0.7,0-1.26-0.57-1.26-1.26c0-0.7,0.57-1.26,1.26-1.26
					C325.07,144.06,325.64,144.62,325.64,145.32z"/>
			</g>
			<g style="opacity:0.3;">
				<path style="fill:#E8505B;" d="M329.91,145.32c0,0.7-0.57,1.26-1.26,1.26c-0.7,0-1.26-0.57-1.26-1.26c0-0.7,0.57-1.26,1.26-1.26
					C329.34,144.06,329.91,144.62,329.91,145.32z"/>
			</g>
		</g>
		<g style="opacity:0.3;">
			<rect x="328.64" y="161.1" style="fill:#E8505B;" width="42.1" height="42.1"/>
		</g>
		<g>
			<g>
				<path style="fill:#E8505B;" d="M451.25,173c0,0.16-16.42,0.28-36.67,0.28c-20.26,0-36.67-0.13-36.67-0.28
					c0-0.16,16.42-0.28,36.67-0.28C434.83,172.71,451.25,172.84,451.25,173z"/>
			</g>
		</g>
		<g>
			<g>
				<path style="fill:#E8505B;" d="M451.25,180.82c0,0.16-16.42,0.28-36.67,0.28c-20.26,0-36.67-0.13-36.67-0.28
					c0-0.16,16.42-0.28,36.67-0.28C434.83,180.54,451.25,180.66,451.25,180.82z"/>
			</g>
		</g>
		<g>
			<g>
				<path style="fill:#E8505B;" d="M451.25,188.64c0,0.16-16.42,0.28-36.67,0.28c-20.26,0-36.67-0.13-36.67-0.28
					s16.42-0.28,36.67-0.28C434.83,188.36,451.25,188.49,451.25,188.64z"/>
			</g>
		</g>
		<g>
			<g>
				<path style="fill:#E8505B;" d="M421.26,196.46c0,0.04-0.61,0.08-1.7,0.11c-1.2,0.02-2.76,0.05-4.64,0.09
					c-3.92,0.05-9.34,0.08-15.32,0.08c-5.99,0-11.4-0.03-15.33-0.08c-1.88-0.04-3.45-0.07-4.64-0.09c-1.1-0.03-1.7-0.07-1.7-0.11
					c0-0.04,0.61-0.08,1.7-0.11c1.2-0.02,2.76-0.05,4.64-0.09c3.92-0.05,9.34-0.08,15.33-0.08c5.98,0,11.4,0.03,15.32,0.08
					c1.88,0.04,3.45,0.07,4.64,0.09C420.65,196.39,421.26,196.43,421.26,196.46z"/>
			</g>
		</g>
		<g style="opacity:0.3;">
			<rect x="331.28" y="217.39" style="fill:#E8505B;" width="19.78" height="19.78"/>
		</g>
		<g style="opacity:0.3;">
			<rect x="367.16" y="217.39" style="fill:#E8505B;" width="19.78" height="19.78"/>
		</g>
		<g style="opacity:0.3;">
			<rect x="403.04" y="217.39" style="fill:#E8505B;" width="19.78" height="19.78"/>
		</g>
		<g style="opacity:0.3;">
			<rect x="438.91" y="217.39" style="fill:#E8505B;" width="19.78" height="19.78"/>
		</g>
	</g>
	<g>
		<g>
			<g>
				<rect x="26.46" y="178.71" style="fill:#FFFFFF;" width="140.59" height="57.1"/>
			</g>
			<g>
				<g>
					<path style="fill:#E8505B;" d="M167.04,235.82c0,0-0.01-0.35-0.02-1.02c0-0.68-0.01-1.67-0.02-2.96
						c-0.01-2.61-0.02-6.43-0.04-11.36c-0.02-9.86-0.05-24.11-0.08-41.76l0.16,0.16c-35.76,0.02-85.55,0.04-140.58,0.07h-0.01
						l0.22-0.22c0,20-0.01,39.3-0.01,57.1l-0.21-0.21c40.74,0.04,75.85,0.08,100.8,0.1c12.48,0.03,22.42,0.05,29.24,0.06
						c3.41,0.01,6.04,0.02,7.83,0.03c0.89,0.01,1.56,0.01,2.03,0.01C166.8,235.81,167.04,235.82,167.04,235.82s-0.22,0.01-0.67,0.01
						c-0.46,0-1.13,0.01-2,0.01c-1.78,0.01-4.39,0.02-7.78,0.03c-6.81,0.01-16.73,0.03-29.19,0.06
						c-24.98,0.02-60.15,0.06-100.94,0.1l-0.21,0v-0.21c0-17.8-0.01-37.11-0.01-57.1v-0.22h0.22h0.01
						c55.03,0.03,104.81,0.05,140.58,0.07l0.16,0l0,0.16c-0.04,17.68-0.06,31.97-0.08,41.85c-0.02,4.92-0.03,8.73-0.04,11.33
						c-0.01,1.28-0.01,2.26-0.02,2.93C167.05,235.49,167.04,235.82,167.04,235.82z"/>
				</g>
			</g>
		</g>
		<g>
			<g>
				<path style="fill:#E8505B;" d="M26.6,186.42c0-0.12,31.42-0.22,70.18-0.22c38.77,0,70.19,0.1,70.19,0.22
					c0,0.12-31.42,0.22-70.19,0.22C58.02,186.64,26.6,186.54,26.6,186.42z"/>
			</g>
		</g>
		<g>
			<g style="opacity:0.3;">
				<path style="fill:#E8505B;" d="M32.48,182.97c0,0.56-0.46,1.02-1.02,1.02c-0.56,0-1.02-0.46-1.02-1.02
					c0-0.56,0.46-1.02,1.02-1.02C32.03,181.95,32.48,182.41,32.48,182.97z"/>
			</g>
			<g style="opacity:0.3;">
				<path style="fill:#E8505B;" d="M35.98,182.97c0,0.56-0.46,1.02-1.02,1.02c-0.56,0-1.02-0.46-1.02-1.02
					c0-0.56,0.46-1.02,1.02-1.02C35.52,181.95,35.98,182.41,35.98,182.97z"/>
			</g>
			<g style="opacity:0.3;">
				<path style="fill:#E8505B;" d="M39.42,182.97c0,0.56-0.46,1.02-1.02,1.02c-0.56,0-1.02-0.46-1.02-1.02
					c0-0.56,0.46-1.02,1.02-1.02C38.97,181.95,39.42,182.41,39.42,182.97z"/>
			</g>
		</g>
		<g style="opacity:0.3;">
			<rect x="38.4" y="195.7" style="fill:#E8505B;" width="33.96" height="33.96"/>
		</g>
		<g>
			<g>
				<g>
					<path style="fill:#E8505B;" d="M157.32,204.8c0,0.12-17.47,0.22-39.02,0.22c-21.56,0-39.03-0.1-39.03-0.22
						c0-0.12,17.47-0.22,39.03-0.22C139.84,204.57,157.32,204.67,157.32,204.8z"/>
				</g>
			</g>
			<g>
				<g>
					<path style="fill:#E8505B;" d="M157.32,211.72c0,0.12-17.47,0.22-39.02,0.22c-21.56,0-39.03-0.1-39.03-0.22
						c0-0.12,17.47-0.22,39.03-0.22C139.84,211.49,157.32,211.59,157.32,211.72z"/>
				</g>
			</g>
			<g>
				<g>
					<path style="fill:#E8505B;" d="M129.51,218.63c0,0.02-0.18,0.03-0.51,0.04c-0.38,0.01-0.87,0.02-1.46,0.04
						c-1.33,0.02-3.16,0.04-5.38,0.07c-4.6,0.02-10.85,0.04-17.76,0.07c-6.91-0.03-13.17-0.05-17.77-0.07
						c-2.23-0.03-4.05-0.05-5.38-0.07c-0.6-0.02-1.08-0.03-1.46-0.04c-0.33-0.01-0.51-0.03-0.51-0.04c0-0.02,0.18-0.03,0.51-0.04
						c0.38-0.01,0.87-0.02,1.46-0.04c1.33-0.02,3.16-0.04,5.38-0.07c4.6-0.02,10.85-0.04,17.77-0.07
						c6.91,0.03,13.16,0.05,17.76,0.07c2.23,0.03,4.05,0.05,5.38,0.07c0.6,0.02,1.08,0.03,1.46,0.04
						C129.33,218.6,129.51,218.62,129.51,218.63z"/>
				</g>
			</g>
		</g>
	</g>
	<path style="fill:#F5F5F5;" d="M270.35,106.96c-2.36-1.57-5.59-0.62-7.95,0.95c-2.36,1.57-4.37,3.73-7.01,4.75
		c-4.96,1.93-11.46-0.36-15.31,3.31c-2.45,2.33-2.7,6.15-4.56,8.96c-3.15,4.74-10.7,6.52-11.35,12.17c-0.38,3.3,2.23,6.46,5.42,7.38
		c3.19,0.92,6.69-0.05,9.45-1.89c3.23-2.14,5.76-5.45,9.44-6.67c3.76-1.25,8.39-0.2,11.36-2.83c2.97-2.63,2.52-7.45,4.65-10.8
		c1.13-1.78,2.92-3.03,4.51-4.41c1.6-1.38,3.12-3.09,3.39-5.18C272.65,110.61,271.79,107.04,270.35,106.96"/>
	<g>
		<g>
			<path style="fill:#263238;" d="M209.14,337.74c0.13-0.08,0.57,0.36,0.98,0.98c0.41,0.62,0.64,1.2,0.51,1.29
				c-0.13,0.09-0.57-0.35-0.98-0.98C209.23,338.4,209.01,337.82,209.14,337.74z"/>
		</g>
		<g>
			<path style="fill:#263238;" d="M204.48,327.94c0.15-0.05,0.73,1.03,1.29,2.41c0.57,1.38,0.91,2.55,0.77,2.62
				c-0.14,0.07-0.72-1.01-1.29-2.41C204.68,329.16,204.34,327.99,204.48,327.94z"/>
		</g>
		<g>
			<path style="fill:#263238;" d="M201.96,317.38c0.16-0.02,0.5,1.15,0.77,2.62c0.27,1.47,0.37,2.69,0.22,2.72
				c-0.15,0.04-0.5-1.14-0.77-2.62C201.91,318.62,201.81,317.4,201.96,317.38z"/>
		</g>
		<g>
			<path style="fill:#263238;" d="M201.58,306.53c0.16,0.01,0.27,1.23,0.24,2.72c-0.02,1.49-0.16,2.71-0.32,2.71
				c-0.16,0.01-0.27-1.21-0.24-2.72C201.28,307.73,201.43,306.51,201.58,306.53z"/>
		</g>
		<g>
			<path style="fill:#263238;" d="M203.34,295.81c0.15,0.04,0.02,1.26-0.3,2.72c-0.31,1.46-0.7,2.62-0.85,2.6
				c-0.15-0.02-0.02-1.24,0.3-2.72C202.81,296.93,203.19,295.77,203.34,295.81z"/>
		</g>
		<g>
			<path style="fill:#263238;" d="M207.25,285.69c0.14,0.07-0.24,1.24-0.85,2.6c-0.61,1.36-1.22,2.42-1.37,2.36
				c-0.15-0.05,0.24-1.22,0.85-2.6C206.49,286.67,207.11,285.62,207.25,285.69z"/>
		</g>
		<g>
			<path style="fill:#263238;" d="M213.23,276.64c0.12,0.1-0.5,1.15-1.39,2.35c-0.89,1.2-1.72,2.1-1.84,2.02
				c-0.15-0.1,0.49-1.14,1.38-2.36C212.28,277.44,213.11,276.54,213.23,276.64z"/>
		</g>
		<g>
			<path style="fill:#263238;" d="M220.53,268.59c0.11,0.11-0.64,1.08-1.67,2.16c-1.03,1.08-1.96,1.88-2.08,1.77
				c-0.12-0.11,0.63-1.07,1.67-2.16C219.49,269.27,220.42,268.48,220.53,268.59z"/>
		</g>
		<g>
			<path style="fill:#263238;" d="M228.18,260.86c0.11,0.11-0.65,1.06-1.71,2.13c-1.06,1.07-2,1.85-2.11,1.74
				c-0.11-0.11,0.65-1.07,1.71-2.13C227.12,261.53,228.07,260.76,228.18,260.86z"/>
		</g>
		<g>
			<path style="fill:#263238;" d="M235.32,252.67c0.13,0.09-0.55,1.11-1.5,2.28c-0.96,1.17-1.83,2.03-1.94,1.92
				c-0.12-0.1,0.56-1.12,1.5-2.28C234.33,253.44,235.2,252.58,235.32,252.67z"/>
		</g>
		<g>
			<path style="fill:#263238;" d="M240.87,243.35c0.14,0.06-0.22,1.24-0.91,2.59c-0.7,1.35-1.45,2.32-1.58,2.24
				c-0.14-0.08,0.39-1.18,1.08-2.5C240.14,244.35,240.72,243.29,240.87,243.35z"/>
		</g>
		<g>
			<path style="fill:#263238;" d="M243.51,232.85c0.15,0.01,0.19,1.25-0.06,2.74c-0.25,1.5-0.68,2.65-0.83,2.61
				c-0.15-0.04,0.03-1.24,0.27-2.71C243.14,234.04,243.35,232.84,243.51,232.85z"/>
		</g>
		<g>
			<path style="fill:#263238;" d="M242.7,222.05c0.15-0.04,0.57,1.12,0.8,2.62c0.23,1.5,0.18,2.73,0.03,2.74
				c-0.16,0.01-0.36-1.19-0.59-2.66C242.72,223.29,242.55,222.09,242.7,222.05z"/>
		</g>
		<g>
			<path style="fill:#263238;" d="M238.44,212.12c0.13-0.09,0.92,0.86,1.64,2.2c0.72,1.34,1.07,2.52,0.93,2.58
				c-0.15,0.06-0.72-1.01-1.42-2.31C238.88,213.27,238.3,212.21,238.44,212.12z"/>
		</g>
		<g>
			<path style="fill:#263238;" d="M230.86,204.41c0.08-0.13,1.18,0.45,2.35,1.43c1.17,0.97,1.93,1.95,1.82,2.06
				c-0.12,0.11-1.04-0.67-2.18-1.62C231.7,205.31,230.77,204.54,230.86,204.41z"/>
		</g>
		<g>
			<path style="fill:#263238;" d="M220.98,200c0.03-0.15,1.26,0,2.7,0.49c1.44,0.49,2.5,1.12,2.44,1.26
				c-0.07,0.14-1.21-0.25-2.62-0.73C222.09,200.55,220.95,200.15,220.98,200z"/>
		</g>
		<g>
			<path style="fill:#263238;" d="M210.19,199.51c-0.03-0.15,1.17-0.49,2.69-0.56c1.52-0.08,2.74,0.13,2.73,0.28
				c-0.01,0.16-1.22,0.21-2.7,0.29C211.42,199.58,210.22,199.67,210.19,199.51z"/>
		</g>
		<g>
			<path style="fill:#263238;" d="M200.17,203.5c-0.09-0.12,0.84-0.95,2.19-1.66c1.34-0.72,2.54-1.04,2.6-0.9
				c0.06,0.15-1.02,0.69-2.33,1.4C201.31,203.04,200.26,203.63,200.17,203.5z"/>
		</g>
		<g>
			<path style="fill:#263238;" d="M192.71,211.31c-0.13-0.08,0.4-1.2,1.33-2.4c0.93-1.2,1.89-1.99,2-1.89
				c0.11,0.11-0.64,1.06-1.55,2.23C193.58,210.43,192.85,211.39,192.71,211.31z"/>
		</g>
		<g>
			<path style="fill:#263238;" d="M189.05,221.46c-0.15-0.01-0.15-1.26,0.21-2.74c0.36-1.48,0.92-2.59,1.06-2.53
				c0.15,0.06-0.17,1.23-0.51,2.67C189.46,220.29,189.21,221.48,189.05,221.46z"/>
		</g>
		<g>
			<path style="fill:#263238;" d="M190.34,232.16c-0.14,0.06-0.7-1.05-1.06-2.53c-0.36-1.48-0.37-2.72-0.22-2.74
				c0.16-0.02,0.41,1.17,0.77,2.6C190.18,230.93,190.49,232.1,190.34,232.16z"/>
		</g>
		<g>
			<path style="fill:#263238;" d="M195.85,241.46c-0.12,0.1-1.02-0.75-1.9-1.98c-0.89-1.23-1.4-2.36-1.26-2.43
				c0.14-0.08,0.85,0.9,1.72,2.1C195.27,240.36,195.97,241.36,195.85,241.46z"/>
		</g>
		<g>
			<path style="fill:#263238;" d="M203.85,248.79c-0.09,0.13-1.16-0.48-2.34-1.43c-1.18-0.95-1.99-1.88-1.89-1.99
				c0.11-0.12,1.08,0.61,2.24,1.55C203.02,247.86,203.94,248.66,203.85,248.79z"/>
		</g>
		<g>
			<path style="fill:#263238;" d="M213.26,254.19c-0.06,0.14-1.2-0.3-2.55-0.98c-1.35-0.68-2.37-1.35-2.29-1.48
				c0.08-0.13,1.22,0.3,2.55,0.98C212.3,253.38,213.32,254.04,213.26,254.19z"/>
		</g>
		<g>
			<path style="fill:#263238;" d="M223.6,257.48c-0.03,0.15-1.26,0.06-2.72-0.32c-1.47-0.38-2.59-0.88-2.54-1.03
				c0.05-0.15,1.24,0.11,2.68,0.48C222.46,256.98,223.63,257.32,223.6,257.48z"/>
		</g>
		<g>
			<path style="fill:#263238;" d="M234.42,258.03c0.02,0.15-1.19,0.41-2.71,0.44c-1.52,0.03-2.73-0.18-2.72-0.33
				c0.01-0.16,1.22-0.2,2.71-0.23C233.19,257.88,234.4,257.88,234.42,258.03z"/>
		</g>
		<g>
			<path style="fill:#263238;" d="M244.87,255.24c0.07,0.14-0.99,0.78-2.42,1.29c-1.43,0.52-2.65,0.69-2.69,0.55
				c-0.04-0.15,1.1-0.57,2.5-1.08C243.66,255.5,244.81,255.1,244.87,255.24z"/>
		</g>
		<g>
			<path style="fill:#263238;" d="M253.94,249.31c0.1,0.11-0.72,1.03-1.92,1.95c-1.2,0.92-2.3,1.48-2.39,1.35
				c-0.09-0.13,0.86-0.89,2.04-1.8C252.85,249.91,253.83,249.19,253.94,249.31z"/>
		</g>
		<g>
			<path style="fill:#263238;" d="M261.01,241.09c0.13,0.08-0.42,1.19-1.33,2.4c-0.91,1.21-1.81,2.05-1.93,1.95
				c-0.12-0.1,0.58-1.1,1.48-2.29C260.12,241.95,260.87,241,261.01,241.09z"/>
		</g>
		<g>
			<path style="fill:#263238;" d="M265.71,231.32c0.15,0.05-0.1,1.26-0.67,2.66c-0.57,1.4-1.22,2.45-1.36,2.38
				c-0.14-0.07,0.28-1.21,0.84-2.59C265.08,232.38,265.56,231.27,265.71,231.32z"/>
		</g>
		<g>
			<path style="fill:#263238;" d="M267.82,220.68c0.15,0.01,0.19,1.24-0.01,2.74c-0.2,1.5-0.57,2.67-0.73,2.64
				c-0.15-0.03-0.04-1.24,0.17-2.72C267.45,221.86,267.66,220.67,267.82,220.68z"/>
		</g>
		<g>
			<path style="fill:#263238;" d="M267.54,209.82c0.15-0.02,0.38,1.18,0.49,2.69c0.12,1.51,0.08,2.73-0.07,2.73
				c-0.16,0-0.38-1.2-0.49-2.69C267.35,211.07,267.38,209.85,267.54,209.82z"/>
		</g>
		<g>
			<path style="fill:#263238;" d="M265.18,199.22c0.15-0.05,0.59,1.09,0.98,2.55c0.39,1.46,0.59,2.67,0.44,2.7
				c-0.15,0.03-0.59-1.11-0.98-2.55C265.22,200.48,265.03,199.27,265.18,199.22z"/>
		</g>
		<g>
			<path style="fill:#263238;" d="M261.02,189.18c0.14-0.07,0.79,0.97,1.45,2.32c0.61,1.38,0.99,2.55,0.84,2.61
				c-0.14,0.06-0.75-1-1.35-2.37C261.3,190.4,260.88,189.26,261.02,189.18z"/>
		</g>
		<g>
			<path style="fill:#263238;" d="M255.67,179.72c0.13-0.08,0.86,0.91,1.62,2.2c0.76,1.3,1.27,2.41,1.13,2.49
				c-0.14,0.08-0.86-0.91-1.62-2.2C256.05,180.91,255.54,179.8,255.67,179.72z"/>
		</g>
		<g>
			<path style="fill:#263238;" d="M250.28,170.28c0.14-0.07,0.84,0.93,1.56,2.24c0.72,1.31,1.2,2.44,1.07,2.51
				c-0.13,0.08-0.83-0.92-1.56-2.24C250.62,171.48,250.14,170.36,250.28,170.28z"/>
		</g>
		<g>
			<path style="fill:#263238;" d="M246.04,160.3c0.15-0.04,0.69,1.05,1.21,2.45c0.52,1.4,0.82,2.58,0.68,2.64
				c-0.14,0.06-0.69-1.03-1.21-2.45C246.19,161.52,245.89,160.34,246.04,160.3z"/>
		</g>
		<g>
			<path style="fill:#263238;" d="M244.19,149.61c0.16-0.01,0.32,1.2,0.48,2.68c0.16,1.48,0.25,2.69,0.09,2.72
				c-0.15,0.03-0.5-1.16-0.66-2.66C243.95,150.85,244.03,149.62,244.19,149.61z"/>
		</g>
		<g>
			<path style="fill:#263238;" d="M245.09,138.8c0.15,0.03,0.02,1.24-0.2,2.72c-0.22,1.48-0.43,2.67-0.59,2.66
				c-0.15-0.01-0.19-1.24,0.03-2.74C244.55,139.94,244.94,138.77,245.09,138.8z"/>
		</g>
		<g>
			<path style="fill:#263238;" d="M248.63,128.55c0.14,0.07-0.29,1.21-0.87,2.58c-0.58,1.37-1.08,2.48-1.23,2.43
				c-0.15-0.05,0.12-1.25,0.71-2.65C247.82,129.52,248.49,128.48,248.63,128.55z"/>
		</g>
		<g>
			<path style="fill:#263238;" d="M254.68,119.56c0.12,0.11-0.6,1.09-1.51,2.27c-0.91,1.18-1.68,2.12-1.82,2.03
				c-0.13-0.08,0.44-1.18,1.37-2.38C253.65,120.28,254.57,119.46,254.68,119.56z"/>
		</g>
		<g>
			<path style="fill:#263238;" d="M262.84,112.41c0.09,0.13-0.85,0.91-2.03,1.82c-1.18,0.91-2.17,1.62-2.27,1.5
				c-0.1-0.11,0.73-1.03,1.93-1.95C261.66,112.85,262.75,112.28,262.84,112.41z"/>
		</g>
		<g>
			<path style="fill:#263238;" d="M272.51,107.49c0.05,0.15-1.05,0.67-2.42,1.26c-1.37,0.59-2.5,1.04-2.57,0.9
				c-0.07-0.14,0.96-0.82,2.35-1.42C271.25,107.63,272.46,107.35,272.51,107.49z"/>
		</g>
		<g>
			<path style="fill:#263238;" d="M280.38,105.5c0.02,0.15-0.55,0.39-1.28,0.52c-0.73,0.13-1.35,0.12-1.39-0.03
				c-0.03-0.15,0.54-0.39,1.28-0.52C279.74,105.33,280.36,105.35,280.38,105.5z"/>
		</g>
	</g>
	<g>
		<path style="fill:#E8505B;" d="M302.55,73.52c0,0,12.76-9.1,30.42-3.22c0,0,1.45,14.62-12.71,26.24"/>
		<path style="fill:#E8505B;" d="M262.33,100.53c0.54,0.81,14.39,23.08,14.39,23.08l41.58-25.61c7.26-4.47,9.14-14.2,4.06-21.05l0,0
			c-4.63-6.25-13.35-7.75-19.8-3.42L262.33,100.53z"/>
		<path style="fill:#263238;" d="M276.72,123.6l-0.93,15.66c0,0,26.94-13.05,20.22-27.54L276.72,123.6z"/>
		<path style="fill:#263238;" d="M281.59,87.59c0,0-18.27-8.06-33.31,3.76l14.05,9.17L281.59,87.59z"/>
		<path style="fill:#263238;" d="M281.46,100.54l-26,16.26c0,0,0.89,2.8,1.59,2.56c0.59-0.2,20.12-11.73,26.46-15.48
			c1.04-0.61,1.27-2,0.51-2.93l0,0C283.39,100.19,282.3,100.01,281.46,100.54z"/>
		<g>
			
				<ellipse transform="matrix(0.229 -0.9734 0.9734 0.229 149.6021 365.3029)" style="fill:#FAFAFA;" cx="305.41" cy="88.21" rx="8.32" ry="8.32"/>
			<g>
				<path style="fill:#263238;" d="M313.73,88.21c-0.07,0-0.03-0.74-0.37-2.01c-0.33-1.24-1.17-3.06-3.04-4.45
					c-0.93-0.68-2.09-1.26-3.42-1.49c-1.33-0.22-2.82-0.17-4.24,0.37c-1.42,0.51-2.77,1.48-3.73,2.82
					c-0.99,1.32-1.54,3.01-1.56,4.76c0.02,1.75,0.57,3.44,1.56,4.76c0.96,1.34,2.31,2.3,3.73,2.82c1.42,0.55,2.91,0.59,4.24,0.37
					c1.34-0.23,2.5-0.81,3.42-1.49c1.87-1.4,2.71-3.21,3.04-4.45C313.7,88.95,313.67,88.21,313.73,88.21c0.02,0,0.03,0.18,0.03,0.53
					c0.01,0.35-0.04,0.87-0.18,1.52c-0.28,1.29-1.09,3.21-3.01,4.72c-0.95,0.74-2.17,1.37-3.58,1.63c-1.4,0.25-2.99,0.22-4.5-0.34
					c-1.52-0.53-2.97-1.56-4-2.98c-1.06-1.4-1.66-3.22-1.68-5.09c0.02-1.87,0.62-3.68,1.68-5.08c1.03-1.42,2.49-2.45,4-2.98
					c1.52-0.57,3.1-0.6,4.5-0.34c1.41,0.26,2.62,0.89,3.58,1.63c1.93,1.51,2.74,3.43,3.01,4.72c0.15,0.65,0.19,1.17,0.18,1.53
					C313.76,88.03,313.75,88.21,313.73,88.21z"/>
			</g>
		</g>
		<g>
			<path style="fill:#263238;" d="M323.87,93.76c-0.11,0.01-0.23-1.62-0.87-4.15c-0.31-1.27-0.8-2.74-1.45-4.34
				c-0.68-1.58-1.53-3.27-2.6-4.95c-1.09-1.66-2.28-3.14-3.44-4.41c-1.18-1.25-2.33-2.3-3.36-3.1c-2.04-1.62-3.47-2.41-3.42-2.5
				c0.02-0.03,0.39,0.14,1.04,0.49c0.33,0.17,0.72,0.39,1.16,0.68c0.44,0.29,0.95,0.6,1.47,1.01c1.07,0.77,2.26,1.81,3.49,3.06
				c1.2,1.27,2.43,2.77,3.54,4.46c1.09,1.71,1.95,3.44,2.61,5.06c0.63,1.63,1.09,3.15,1.35,4.44c0.16,0.64,0.23,1.24,0.31,1.75
				c0.09,0.52,0.13,0.97,0.15,1.34C323.9,93.35,323.91,93.76,323.87,93.76z"/>
		</g>
		<g>
			<path style="fill:#263238;" d="M321.62,94.96c-0.11,0.01-0.24-1.64-0.89-4.22c-0.31-1.29-0.81-2.79-1.47-4.41
				c-0.69-1.61-1.55-3.33-2.63-5.04c-1.1-1.7-2.31-3.2-3.48-4.5c-1.2-1.28-2.36-2.35-3.4-3.18c-2.07-1.66-3.52-2.47-3.46-2.57
				c0.02-0.03,0.39,0.15,1.05,0.51c0.33,0.18,0.73,0.4,1.17,0.71c0.44,0.3,0.96,0.61,1.49,1.04c1.09,0.79,2.29,1.86,3.53,3.13
				c1.22,1.3,2.46,2.82,3.58,4.55c1.1,1.74,1.97,3.5,2.64,5.15c0.64,1.66,1.11,3.2,1.38,4.52c0.17,0.65,0.24,1.26,0.32,1.78
				c0.09,0.53,0.13,0.98,0.15,1.36C321.65,94.54,321.66,94.95,321.62,94.96z"/>
		</g>
	</g>
	<g>
		<g>
			<g>
				<g>
					<path style="fill:#E8505B;" d="M67.33,440.29c-0.93-3.69,1.51-7.38,4.23-10.04c2.73-2.66,5.98-5.04,7.41-8.57
						c2.32-5.72-0.71-13.16,3.21-17.92c2.31-2.8,6.43-3.72,8.48-6.71c1.08-1.57,1.43-3.51,1.86-5.36
						c2.19-9.46,6.99-18.3,13.71-25.31c0.42,8.44-1.49,16.98-5.46,24.44c-1.6,3-3.55,5.92-4.09,9.27
						c-0.88,5.44,2.13,11.07,0.76,16.42c-1.57,6.11-8.46,10.17-8.82,16.46c-0.31,5.32,4.31,10.02,3.93,15.34
						c-0.16,2.26-1.22,4.36-2.41,6.3c-4.16,6.82-10.23,11.5-19.4,11.3l-11.23,0.33L67.33,440.29z"/>
				</g>
			</g>
		</g>
		<g style="opacity:0.3;">
			<g>
				<g>
					<g>
						<path d="M67.33,440.29c-0.93-3.69,1.51-7.38,4.23-10.04c2.73-2.66,5.98-5.04,7.41-8.57c2.32-5.72-0.71-13.16,3.21-17.92
							c2.31-2.8,6.43-3.72,8.48-6.71c1.08-1.57,1.43-3.51,1.86-5.36c2.19-9.46,6.99-18.3,13.71-25.31
							c0.42,8.44-1.49,16.98-5.46,24.44c-1.6,3-3.55,5.92-4.09,9.27c-0.88,5.44,2.13,11.07,0.76,16.42
							c-1.57,6.11-8.46,10.17-8.82,16.46c-0.31,5.32,4.31,10.02,3.93,15.34c-0.16,2.26-1.22,4.36-2.41,6.3
							c-4.16,6.82-10.23,11.5-19.4,11.3l-11.23,0.33L67.33,440.29z"/>
					</g>
				</g>
			</g>
		</g>
		<g>
			<g>
				<g>
					<g>
						<g>
							<g>
								<path style="fill:#263238;" d="M57.25,466.51c0,0-1.07,0.24-3.09-0.08c-1.01-0.15-2.24-0.43-3.64-0.94
									c-1.39-0.52-2.98-1.25-4.49-2.49c-0.73-0.64-1.45-1.43-1.84-2.48c-0.38-1.04-0.44-2.19-0.51-3.36
									c-0.05-1.17-0.05-2.4-0.24-3.63c-0.18-1.24-0.66-2.46-1.35-3.62c-1.31-2.33-3.5-4.55-4.19-7.71
									c-0.75-3.11-0.18-6.47,0.36-9.84c0.54-3.36,1.07-7.03-0.2-10.55c-1.18-3.52-3.63-6.7-4.84-10.67
									c-1.2-4.01-0.61-8.3-0.84-12.55c-0.11-2.13-0.51-4.26-1.43-6.24c-0.9-1.99-2.15-3.87-3.12-5.97
									c-1.97-4.24-2.29-9.04-2.81-13.74c-0.25-2.37-0.51-4.76-0.76-7.18c-0.25-2.43-0.46-4.85-1.21-7.19
									c-0.68-2.36-1.67-4.64-2.65-6.96c-0.48-1.17-0.99-2.34-1.28-3.64c-0.21-1.32-0.27-2.56-0.34-3.86
									c-0.11-2.58,0.01-5.18,0.34-7.77c0.32-2.59,0.8-5.16,1.1-7.75c0.02-0.15,0.04-0.31,0.05-0.45l0.06-0.52l0.46,0.23
									c2.4,1.22,4.45,3.02,6.02,5.14c1.6,2.1,2.75,4.46,3.68,6.87c1.85,4.84,2.49,9.89,3.41,14.72c0.9,4.83,2.09,9.58,4.54,13.61
									c1.22,2.01,2.7,3.84,3.99,5.8c1.29,1.94,2.42,4.08,2.75,6.42c0.64,4.75-2,8.91-1.48,13.12c0.18,2.09,1,4.05,2.02,5.84
									c1.01,1.8,2.2,3.47,3.33,5.15c1.13,1.68,2.2,3.38,2.98,5.2c0.8,1.81,1.24,3.75,1.35,5.64c0.25,3.79-0.31,7.38-0.05,10.77
									c0.21,3.4,1.38,6.48,2.72,9.24c1.34,2.77,2.84,5.28,4.09,7.71c0.63,1.21,1.21,2.4,1.68,3.59c0.5,1.19,0.74,2.4,0.97,3.56
									c0.36,2.33,0.31,4.5,0.05,6.41c-0.51,3.84-1.96,6.61-3.26,8.16c-0.3,0.41-0.64,0.71-0.91,0.98
									c-0.26,0.28-0.53,0.47-0.74,0.62C57.47,466.37,57.25,466.51,57.25,466.51c-0.05-0.06,0.93-0.57,2.19-2.14
									c1.25-1.56,2.63-4.3,3.09-8.1c0.24-1.89,0.26-4.03-0.11-6.32c-0.23-1.13-0.48-2.32-0.97-3.47
									c-0.47-1.16-1.06-2.34-1.69-3.54c-1.26-2.41-2.77-4.9-4.15-7.69c-1.36-2.77-2.58-5.92-2.81-9.41
									c-0.28-3.46,0.27-7.07,0-10.77c-0.12-1.85-0.54-3.7-1.32-5.45c-0.77-1.76-1.82-3.43-2.95-5.09
									c-1.13-1.67-2.33-3.34-3.37-5.18c-1.04-1.83-1.91-3.86-2.11-6.08c-0.52-4.48,2.11-8.67,1.46-13.09
									c-0.31-2.19-1.39-4.23-2.66-6.14c-1.27-1.92-2.76-3.76-4.01-5.82c-2.53-4.14-3.74-8.98-4.64-13.83
									c-0.93-4.86-1.57-9.87-3.39-14.6c-0.9-2.35-2.04-4.66-3.58-6.68c-1.52-2.04-3.48-3.76-5.76-4.92l0.52-0.28
									c-0.02,0.14-0.04,0.3-0.05,0.45c-0.3,2.63-0.78,5.2-1.1,7.76c-0.33,2.56-0.45,5.12-0.34,7.65c0.07,1.25,0.13,2.57,0.32,3.75
									c0.27,1.18,0.76,2.35,1.24,3.51c0.97,2.32,1.98,4.63,2.67,7.04c0.77,2.4,0.98,4.91,1.22,7.31c0.25,2.42,0.51,4.81,0.76,7.19
									c0.51,4.72,0.83,9.44,2.73,13.54c0.94,2.04,2.18,3.93,3.11,5.98c0.95,2.05,1.37,4.31,1.47,6.47
									c0.22,4.33-0.37,8.57,0.78,12.41c1.14,3.83,3.57,7.03,4.79,10.66c1.3,3.67,0.73,7.46,0.18,10.81
									c-0.56,3.38-1.12,6.67-0.42,9.65c0.63,3.02,2.75,5.21,4.09,7.61c0.7,1.19,1.19,2.48,1.37,3.76
									c0.19,1.28,0.17,2.51,0.22,3.68c0.05,1.16,0.11,2.29,0.46,3.27c0.35,0.97,1.03,1.74,1.73,2.37
									c1.46,1.22,3.02,1.97,4.38,2.51c1.38,0.53,2.6,0.82,3.59,1c0.99,0.19,1.77,0.22,2.28,0.23
									C56.98,466.5,57.25,466.51,57.25,466.51z"/>
							</g>
						</g>
					</g>
				</g>
				<g>
					<g>
						<g>
							<g>
								<path style="fill:#263238;" d="M22.52,334.03c0.01,0,0.05,0.11,0.11,0.34c0.06,0.27,0.14,0.6,0.24,1.01
									c0.22,0.89,0.47,2.22,0.89,3.89c0.43,1.67,1.44,3.55,2.3,5.88c0.89,2.31,1.8,4.98,2.62,7.98c0.84,3,1.58,6.33,2.35,9.9
									c0.8,3.56,1.59,7.38,3.53,10.99c0.91,1.83,1.94,3.68,2.75,5.71c0.83,2.02,1.27,4.23,1.58,6.45c0.51,4.45,1.3,8.97,2.34,13.6
									c2.2,9.22,4.29,17.99,6.2,25.98c1.95,7.96,3.72,15.14,5.2,21.19c1.44,6,2.62,10.87,3.45,14.3c0.38,1.65,0.68,2.95,0.9,3.9
									c0.09,0.41,0.16,0.75,0.22,1.02c0.04,0.23,0.06,0.35,0.05,0.35c-0.01,0-0.05-0.11-0.12-0.33c-0.08-0.27-0.17-0.59-0.29-1
									c-0.25-0.94-0.6-2.23-1.03-3.86c-0.88-3.42-2.13-8.27-3.67-14.25c-1.53-6.04-3.34-13.2-5.35-21.15
									c-1.93-7.99-4.04-16.77-6.26-25.99c-1.04-4.62-1.84-9.23-2.34-13.65c-0.3-2.2-0.72-4.33-1.52-6.3
									c-0.78-1.97-1.79-3.82-2.7-5.66c-1.95-3.68-2.75-7.61-3.52-11.16c-0.75-3.58-1.46-6.9-2.26-9.89
									c-0.79-2.99-1.66-5.66-2.51-7.97c-0.81-2.32-1.79-4.23-2.19-5.95c-0.38-1.71-0.59-3.03-0.76-3.94
									c-0.07-0.42-0.13-0.75-0.17-1.03C22.52,334.15,22.51,334.03,22.52,334.03z"/>
							</g>
						</g>
					</g>
				</g>
			</g>
			<g>
				<g>
					<g>
						<g>
							<path style="fill:#E8505B;" d="M55.27,466.54c-7.31-4.4-9.34-17.65-6.23-25.59c3.1-7.95,8.5-15.19,9.38-23.68
								c0.67-6.52-1.43-13.24,0.13-19.61c2.1-8.6,10.55-15.22,10.5-24.07c-0.03-4.97-2.83-9.66-2.57-14.62
								c0.31-6.08,5.01-10.89,7.93-16.23c4.47-8.18,4.82-17.88,6.39-27.07c1.57-9.19,5.13-19.03,13.31-23.5
								c1.16,7.82,3.19,13.18,2.48,23.76c-0.25,3.8-4.71,11.05-5.36,19.38c-0.39,4.98-0.66,9.96-1,14.94
								c-0.32,4.85-0.67,9.78-2.43,14.31c-1.35,3.47-3.51,6.61-4.52,10.2c-1.9,6.74,0.5,14.07-1.04,20.9
								c-1.31,5.79-5.34,10.75-6.2,16.62c-1.2,8.25,4.1,16.86,1.32,24.72c-1.38,3.9-4.61,7.02-5.55,11.05
								c-0.73,3.13,0.03,6.44-0.63,9.59c-1.06,5.06-10.75,8.94-15.91,8.6"/>
						</g>
					</g>
				</g>
				<g>
					<g>
						<g>
							<g>
								<path style="fill:#263238;" d="M92.03,299.9c0.01,0,0,0.15-0.03,0.44c-0.04,0.33-0.1,0.75-0.17,1.28
									c-0.17,1.13-0.37,2.78-0.77,4.92c-0.42,2.15-1.55,4.57-2.45,7.49c-0.95,2.91-1.9,6.27-2.75,10.03
									c-0.86,3.76-1.58,7.92-2.34,12.4c-0.79,4.45-1.59,9.36-3.84,14.01c-1.04,2.34-2.21,4.68-3.09,7.17
									c-0.9,2.49-1.33,5.16-1.59,7.92c-0.41,5.53-1.18,11.28-2.25,17.07c-2.31,11.56-4.51,22.57-6.52,32.6
									c-2.11,9.98-4.01,18.98-5.61,26.55c-1.62,7.52-2.93,13.61-3.84,17.89c-0.46,2.07-0.82,3.7-1.08,4.86
									c-0.12,0.52-0.22,0.94-0.3,1.26c-0.07,0.28-0.11,0.43-0.13,0.42c-0.01,0,0.01-0.15,0.05-0.44c0.06-0.33,0.13-0.75,0.23-1.27
									c0.23-1.16,0.54-2.8,0.95-4.88c0.86-4.28,2.1-10.4,3.62-17.93c1.56-7.58,3.41-16.59,5.46-26.58
									c1.99-10.02,4.17-21.03,6.46-32.59c1.07-5.8,1.83-11.46,2.25-17.02c0.27-2.77,0.71-5.53,1.65-8.08
									c0.91-2.55,2.09-4.9,3.13-7.22c2.24-4.59,3.04-9.38,3.86-13.84c0.79-4.47,1.54-8.64,2.43-12.41
									c0.88-3.77,1.87-7.13,2.86-10.04c0.95-2.93,2.11-5.33,2.56-7.42c0.43-2.1,0.68-3.77,0.9-4.88c0.1-0.53,0.18-0.95,0.24-1.27
									C91.98,300.05,92.01,299.9,92.03,299.9z"/>
							</g>
						</g>
					</g>
				</g>
			</g>
		</g>
	</g>
	<g>
		<g>
			<rect x="415.62" y="295.59" style="fill:#E8505B;" width="7.57" height="24.46"/>
		</g>
		<g>
			<rect x="429.56" y="285.52" style="fill:#E8505B;" width="7.57" height="34.53"/>
		</g>
		<g>
			<rect x="444.39" y="280.82" style="fill:#E8505B;" width="7.57" height="39.23"/>
		</g>
		<g>
			<rect x="459.22" y="275.86" style="fill:#E8505B;" width="7.57" height="44.19"/>
		</g>
	</g>
	<g>
		<g>
			<g>
				<g>
					<g>
						<path style="fill:#263238;" d="M160.4,327.32c0,0,0.62,0.04,1.63,0.51c0.99,0.46,2.38,1.46,3.24,3.28
							c0.42,0.9,0.71,1.99,0.66,3.17c-0.05,1.17-0.36,2.44-1.09,3.55c-0.35,0.57-0.8,1.09-1.32,1.54c-0.52,0.46-1.12,0.85-1.79,1.14
							c-1.32,0.6-2.88,0.76-4.38,0.43c-1.5-0.35-2.84-1.16-3.78-2.26c-0.48-0.54-0.86-1.15-1.13-1.79c-0.28-0.63-0.47-1.3-0.54-1.96
							c-0.18-1.32,0.08-2.6,0.53-3.68c0.46-1.09,1.19-1.95,1.95-2.58c1.56-1.28,3.25-1.59,4.33-1.58
							C159.82,327.09,160.4,327.32,160.4,327.32c-0.01,0.05-0.6-0.12-1.68-0.08c-1.06,0.04-2.69,0.39-4.16,1.64
							c-0.72,0.62-1.4,1.46-1.83,2.5c-0.42,1.03-0.66,2.25-0.47,3.5c0.07,0.63,0.25,1.25,0.52,1.85c0.26,0.6,0.62,1.18,1.08,1.69
							c0.89,1.04,2.16,1.8,3.57,2.13c1.42,0.3,2.89,0.16,4.14-0.4c0.63-0.27,1.2-0.63,1.7-1.07c0.5-0.43,0.93-0.92,1.26-1.45
							c0.7-1.05,1.01-2.25,1.07-3.37c0.06-1.12-0.2-2.17-0.59-3.04c-0.8-1.76-2.11-2.77-3.06-3.26
							C161,327.47,160.39,327.37,160.4,327.32z"/>
					</g>
				</g>
			</g>
		</g>
		<g>
			<g>
				<g>
					<g>
						<path style="fill:#263238;" d="M165.92,319.95c0,0-0.01-0.08-0.01-0.24c0-0.18-0.01-0.42-0.02-0.73
							c-0.01-0.67-0.02-1.64-0.04-2.9l0.05,0.06c-1.61-0.35-3.72-0.81-6.27-1.37l0.11-0.05c-0.5,1.06-1.05,2.24-1.65,3.51
							l-0.03,0.06l-0.07,0c-1.3,0.06-2.69,0.28-4.09,0.73l-0.07,0.02l-0.06-0.06c-0.86-0.85-1.79-1.77-2.76-2.73l0.17,0.02
							c-1.7,1.09-3.51,2.24-5.41,3.45l0.06-0.18c0.4,1.13,0.85,2.38,1.31,3.65l0.03,0.09l-0.07,0.07c-0.87,0.95-1.71,2.1-2.38,3.39
							l-0.05,0.09l-0.1,0c-1.2,0-2.53,0.01-3.88,0.01l0.17-0.14c-0.44,1.97-0.91,4.09-1.4,6.26l-0.1-0.21
							c1.09,0.52,2.29,1.08,3.5,1.66l0.1,0.05l0,0.11c0.05,1.29,0.28,2.7,0.71,4.07l0.03,0.11l-0.08,0.08
							c-0.86,0.86-1.79,1.8-2.74,2.75l0.03-0.24c1.09,1.72,2.25,3.55,3.44,5.42l-0.23-0.08c1.15-0.41,2.4-0.85,3.65-1.3l0.11-0.04
							l0.09,0.08c0.96,0.89,2.11,1.72,3.37,2.38l0,0l0,0c0.05,0.08-0.11-0.17,0.11,0.18v0V348l0,0.02v0.03l0,0.06l0,0.12l0,0.24
							l0,0.49l0,0.97c0,0.65,0,1.29,0,1.93l-0.15-0.19c2.12,0.48,4.2,0.94,6.26,1.41l-0.22,0.11c0.56-1.18,1.11-2.35,1.66-3.5
							l0.05-0.11l0.12,0c1.4-0.05,2.77-0.3,4.07-0.71l0.11-0.03l0.08,0.08c0.93,0.93,1.84,1.84,2.75,2.74l-0.23-0.03
							c1.85-1.17,3.66-2.31,5.42-3.43l-0.07,0.21c-0.44-1.24-0.87-2.46-1.3-3.66l-0.04-0.1l0.07-0.08c0.96-1.04,1.76-2.18,2.39-3.38
							l0.05-0.09l0.1,0c1.33,0,2.62,0,3.88,0l-0.16,0.13c0.5-2.2,0.97-4.28,1.42-6.26l0.08,0.17c-1.23-0.59-2.38-1.14-3.5-1.67
							l-0.08-0.04l0-0.09c-0.05-1.48-0.31-2.84-0.7-4.09l-0.02-0.08l0.06-0.06c1-1,1.9-1.89,2.75-2.74l-0.02,0.14
							c-1.32-2.11-2.45-3.9-3.41-5.43l0.1,0.04c-1.46,0.51-2.66,0.93-3.66,1.28l-0.04,0.01l-0.03-0.03
							c-1.03-0.96-1.91-1.55-2.49-1.92c-0.29-0.17-0.51-0.3-0.67-0.4C165.99,320,165.92,319.96,165.92,319.95
							c0,0,0.09,0.03,0.24,0.11c0.15,0.08,0.38,0.2,0.68,0.37c0.6,0.35,1.49,0.93,2.54,1.88l-0.06-0.01
							c0.99-0.36,2.19-0.8,3.64-1.32l0.07-0.02l0.04,0.06c0.98,1.53,2.12,3.31,3.46,5.4l0.05,0.08l-0.07,0.07
							c-0.84,0.85-1.74,1.76-2.73,2.76l0.03-0.13c0.4,1.27,0.67,2.65,0.74,4.15l-0.08-0.12c1.12,0.53,2.27,1.07,3.51,1.65l0.11,0.05
							l-0.03,0.12c-0.44,1.98-0.9,4.06-1.39,6.26l-0.03,0.13l-0.13,0c-1.26,0-2.55,0.01-3.88,0.02l0.15-0.09
							c-0.64,1.23-1.45,2.4-2.43,3.46l0.04-0.18c0.43,1.2,0.86,2.41,1.31,3.65l0.05,0.14l-0.12,0.08c-1.76,1.12-3.57,2.26-5.42,3.44
							l-0.13,0.08l-0.11-0.11c-0.9-0.9-1.82-1.81-2.75-2.73l0.19,0.05c-1.33,0.42-2.74,0.67-4.17,0.73l0.17-0.11
							c-0.55,1.16-1.1,2.32-1.66,3.5l-0.07,0.14l-0.15-0.03c-2.06-0.46-4.15-0.93-6.26-1.4l-0.15-0.03l0-0.16c0-0.64,0-1.29,0-1.93
							l0-0.97l0-0.49l0-0.24l0-0.12l0-0.06l0-0.03V348V348v0c0.21,0.35,0.06,0.1,0.11,0.17l0,0l0,0c-1.29-0.67-2.47-1.52-3.46-2.44
							l0.2,0.04c-1.25,0.45-2.5,0.89-3.65,1.3l-0.15,0.05l-0.08-0.13c-1.18-1.87-2.34-3.71-3.43-5.42l-0.08-0.13l0.11-0.11
							c0.95-0.95,1.88-1.89,2.74-2.75l-0.05,0.19c-0.44-1.4-0.67-2.84-0.72-4.17l0.11,0.16c-1.21-0.58-2.41-1.15-3.5-1.67
							l-0.13-0.06l0.03-0.14c0.49-2.17,0.97-4.29,1.41-6.26l0.03-0.14l0.14,0c1.35,0,2.67,0,3.88,0l-0.15,0.09
							c0.68-1.31,1.54-2.49,2.44-3.45l-0.03,0.17c-0.45-1.28-0.89-2.52-1.29-3.66l-0.04-0.12l0.1-0.07c1.9-1.2,3.72-2.34,5.43-3.42
							l0.1-0.06l0.08,0.08c0.96,0.96,1.89,1.89,2.74,2.74l-0.13-0.03c1.42-0.44,2.83-0.66,4.16-0.71l-0.1,0.07
							c0.6-1.26,1.17-2.44,1.68-3.49l0.03-0.07l0.08,0.02c2.55,0.59,4.65,1.07,6.25,1.44l0.05,0.01l0,0.05
							c-0.01,1.25-0.02,2.21-0.03,2.88c-0.01,0.32-0.01,0.56-0.01,0.74C165.93,319.86,165.93,319.95,165.92,319.95z"/>
					</g>
				</g>
			</g>
		</g>
	</g>
	<g>
		<g>
			<g>
				<g>
					<path style="fill-rule:evenodd;clip-rule:evenodd;fill:#E8505B;" d="M154.1,271.22c1.39,0.72,2.66,1.62,3.78,2.66l4.04-1.44
						l3.8,5.99l-3.02,3.04c0.46,1.46,0.73,2.99,0.79,4.56l3.87,1.84l-1.55,6.92l-4.29,0.01c-0.72,1.39-1.62,2.66-2.66,3.78
						l1.44,4.04l-5.99,3.8l-3.04-3.02c-1.46,0.46-2.99,0.73-4.56,0.79l-1.84,3.87l-6.92-1.55l-0.01-4.29
						c-1.39-0.72-2.66-1.62-3.78-2.66l-4.04,1.44l-3.8-5.99l3.03-3.04c-0.46-1.46-0.73-2.99-0.79-4.56l-3.87-1.84l1.55-6.92
						l4.29-0.01c0.72-1.39,1.62-2.66,2.66-3.78l-1.44-4.04l5.99-3.8l3.04,3.03c1.46-0.46,2.99-0.73,4.56-0.79l1.84-3.87l6.92,1.55
						L154.1,271.22L154.1,271.22z M148,279.37c-4.1-0.92-8.17,1.66-9.09,5.76c-0.92,4.1,1.66,8.17,5.76,9.09
						c4.1,0.92,8.17-1.66,9.09-5.76C154.68,284.36,152.1,280.29,148,279.37z"/>
				</g>
			</g>
		</g>
		<g style="opacity:0.8;">
			<g>
				<g>
					<path style="fill-rule:evenodd;clip-rule:evenodd;fill:#FFFFFF;" d="M154.1,271.22c1.39,0.72,2.66,1.62,3.78,2.66l4.04-1.44
						l3.8,5.99l-3.02,3.04c0.46,1.46,0.73,2.99,0.79,4.56l3.87,1.84l-1.55,6.92l-4.29,0.01c-0.72,1.39-1.62,2.66-2.66,3.78
						l1.44,4.04l-5.99,3.8l-3.04-3.02c-1.46,0.46-2.99,0.73-4.56,0.79l-1.84,3.87l-6.92-1.55l-0.01-4.29
						c-1.39-0.72-2.66-1.62-3.78-2.66l-4.04,1.44l-3.8-5.99l3.03-3.04c-0.46-1.46-0.73-2.99-0.79-4.56l-3.87-1.84l1.55-6.92
						l4.29-0.01c0.72-1.39,1.62-2.66,2.66-3.78l-1.44-4.04l5.99-3.8l3.04,3.03c1.46-0.46,2.99-0.73,4.56-0.79l1.84-3.87l6.92,1.55
						L154.1,271.22L154.1,271.22z M148,279.37c-4.1-0.92-8.17,1.66-9.09,5.76c-0.92,4.1,1.66,8.17,5.76,9.09
						c4.1,0.92,8.17-1.66,9.09-5.76C154.68,284.36,152.1,280.29,148,279.37z"/>
				</g>
			</g>
		</g>
	</g>
	<g>
		<g>
			<g>
				<g>
					<path style="fill-rule:evenodd;clip-rule:evenodd;fill:#E8505B;" d="M129.07,312c0.81,0.42,1.55,0.94,2.2,1.55l2.35-0.84
						l2.21,3.49l-1.76,1.77c0.27,0.85,0.43,1.74,0.46,2.65l2.25,1.07l-0.9,4.03l-2.49,0.01c-0.42,0.81-0.95,1.55-1.55,2.2l0.84,2.35
						l-3.49,2.21l-1.77-1.76c-0.85,0.27-1.74,0.43-2.65,0.46l-1.07,2.25l-4.03-0.9l-0.01-2.49c-0.81-0.42-1.55-0.94-2.2-1.55
						l-2.35,0.84l-2.21-3.49l1.76-1.77c-0.27-0.85-0.43-1.74-0.46-2.65l-2.25-1.07l0.9-4.03l2.49-0.01c0.42-0.81,0.95-1.55,1.55-2.2
						l-0.84-2.35l3.49-2.21l1.77,1.76c0.85-0.27,1.74-0.43,2.65-0.46l1.07-2.25l4.03,0.9L129.07,312L129.07,312z M125.52,316.74
						c-2.39-0.54-4.76,0.97-5.29,3.35c-0.54,2.39,0.97,4.76,3.35,5.29c2.39,0.54,4.76-0.97,5.29-3.35
						C129.41,319.64,127.91,317.27,125.52,316.74z"/>
				</g>
			</g>
		</g>
		<g style="opacity:0.4;">
			<g>
				<g>
					<path style="fill-rule:evenodd;clip-rule:evenodd;fill:#FFFFFF;" d="M129.07,312c0.81,0.42,1.55,0.94,2.2,1.55l2.35-0.84
						l2.21,3.49l-1.76,1.77c0.27,0.85,0.43,1.74,0.46,2.65l2.25,1.07l-0.9,4.03l-2.49,0.01c-0.42,0.81-0.95,1.55-1.55,2.2l0.84,2.35
						l-3.49,2.21l-1.77-1.76c-0.85,0.27-1.74,0.43-2.65,0.46l-1.07,2.25l-4.03-0.9l-0.01-2.49c-0.81-0.42-1.55-0.94-2.2-1.55
						l-2.35,0.84l-2.21-3.49l1.76-1.77c-0.27-0.85-0.43-1.74-0.46-2.65l-2.25-1.07l0.9-4.03l2.49-0.01c0.42-0.81,0.95-1.55,1.55-2.2
						l-0.84-2.35l3.49-2.21l1.77,1.76c0.85-0.27,1.74-0.43,2.65-0.46l1.07-2.25l4.03,0.9L129.07,312L129.07,312z M125.52,316.74
						c-2.39-0.54-4.76,0.97-5.29,3.35c-0.54,2.39,0.97,4.76,3.35,5.29c2.39,0.54,4.76-0.97,5.29-3.35
						C129.41,319.64,127.91,317.27,125.52,316.74z"/>
				</g>
			</g>
		</g>
	</g>
	<g>
		<g>
			<g>
				<path style="fill:#263238;" d="M368.98,272.02c4.57-1.19,7.97-5.87,7.67-10.59c-0.13-2.13-0.92-4.19-0.83-6.32
					c0.14-3.3,2.33-6.09,3.98-8.96c1.65-2.87,2.76-6.64,0.83-9.33c-1.25-1.74-3.45-2.53-4.96-4.05c-1.48-1.49-2.18-3.56-2.97-5.5
					c-0.79-1.94-1.82-3.95-3.64-4.99c-1.82-1.04-4.62-0.58-5.36,1.39"/>
				<path style="fill:#263238;" d="M349.25,218.44c3.25-2.07,4.04-6.86,2.28-10.28c-1.76-3.43-5.51-5.51-9.31-6.12
					c-5.51-0.89-11.4,1.06-15.28,5.06c-2.1,2.16-3.8,4.98-6.65,5.97c-2.5,0.87-5.27,0.08-7.9,0.43c-3.52,0.46-6.54,2.96-8.35,6.02
					c-1.81,3.06-2.55,6.63-2.97,10.15c-0.38,3.24-0.64,6.79-2.88,9.15c-2.19,2.3-5.65,2.79-8.38,4.43
					c-5.13,3.08-6.79,10.72-3.4,15.66c1.08,1.57,2.63,3.02,2.75,4.92c0.11,1.74-1.01,3.28-1.53,4.94c-1.35,4.27,2.14,9.35,6.62,9.61
					c2.26,0.13,4.68-0.75,6.71,0.26c2.01,1,2.76,3.43,4.05,5.27c2.53,3.63,7.83,4.99,11.8,3.05c1.66-0.82,3.23-2.16,5.08-2.04
					c1.84,0.12,3.29,1.7,5.11,2.05c2.37,0.46,4.63-1.29,6.04-3.25c1.41-1.96,2.4-4.28,4.2-5.88c2.37-2.1,5.69-2.62,8.68-3.66
					c6.61-2.28,12.13-7.52,14.74-14c2.61-6.48,2.27-14.09-0.91-20.31"/>
				<g>
					<g>
						<g>
							<g>
								<g>
									<g>
										<g>
											<g>
												<g>
													<g>
														<g>
															<g>
																<g>
																	<path style="fill:#FFBE9D;" d="M356.4,222.71c2.69,0.29,4.7,2.59,4.64,5.29l0,0l-3.1,70.25
																		c-0.13,8.3-12.26,12.96-21.14,12.75l0,0c-8.97-0.21-9.26-4.61-9.37-12.5c-0.19-13.19-0.17-18.14-0.18-18.06
																		c0,0-11.33-1.91-13.65-16.7c-1.15-7.36-0.76-19.42-0.11-29.27c0.58-8.87,6.48-19.74,15.32-18.79L356.4,222.71z"/>
																</g>
															</g>
														</g>
													</g>
												</g>
											</g>
											<g>
												<g>
													<g>
														<g>
															<g>
																<g>
																	<g>
																		<path style="fill:#263238;" d="M316.74,244.04c-0.04,1,0.78,1.86,1.82,1.92c1.04,0.06,1.92-0.7,1.96-1.71
																			c0.04-1-0.78-1.86-1.82-1.92C317.66,242.27,316.78,243.03,316.74,244.04z"/>
																	</g>
																</g>
															</g>
														</g>
													</g>
												</g>
												<g>
													<g>
														<g>
															<g>
																<g>
																	<g>
																		<g>
																			<path style="fill:#263238;" d="M316.09,240.74c0.23,0.25,1.67-0.81,3.72-0.8c2.04-0.02,3.53,1.03,3.76,0.78
																				c0.11-0.11-0.13-0.56-0.78-1.03c-0.64-0.47-1.73-0.94-3.01-0.93c-1.27,0-2.34,0.47-2.96,0.95
																				C316.19,240.18,315.97,240.63,316.09,240.74z"/>
																		</g>
																	</g>
																</g>
															</g>
														</g>
													</g>
												</g>
											</g>
											<g>
												<g>
													<g>
														<g>
															<g>
																<g>
																	<g>
																		<path style="fill:#263238;" d="M337.09,244.04c-0.04,1,0.78,1.86,1.82,1.92c1.04,0.06,1.92-0.7,1.96-1.71
																			c0.04-1-0.78-1.86-1.82-1.92C338,242.27,337.12,243.03,337.09,244.04z"/>
																	</g>
																</g>
															</g>
														</g>
													</g>
												</g>
												<g>
													<g>
														<g>
															<g>
																<g>
																	<g>
																		<g>
																			<path style="fill:#263238;" d="M336.15,241.17c0.24,0.25,1.68-0.81,3.72-0.8c2.04-0.02,3.53,1.03,3.76,0.78
																				c0.11-0.11-0.13-0.56-0.78-1.03c-0.64-0.47-1.73-0.94-3.01-0.93c-1.27,0-2.34,0.47-2.96,0.95
																				C336.25,240.61,336.04,241.05,336.15,241.17z"/>
																		</g>
																	</g>
																</g>
															</g>
														</g>
													</g>
												</g>
											</g>
											<g>
												<g>
													<g>
														<g>
															<g>
																<g>
																	<g>
																		<path style="fill:#263238;" d="M328.71,256.29c0.01-0.12-1.26-0.34-3.31-0.61c-0.52-0.05-1.01-0.16-1.1-0.52
																			c-0.12-0.38,0.1-0.94,0.35-1.54c0.49-1.26,1.01-2.58,1.55-3.97c2.15-5.65,3.71-10.29,3.48-10.37
																			c-0.23-0.08-2.16,4.42-4.31,10.07c-0.52,1.39-1.01,2.72-1.49,3.99c-0.2,0.59-0.54,1.26-0.27,2.04
																			c0.14,0.39,0.52,0.67,0.86,0.76c0.33,0.1,0.63,0.11,0.88,0.12C327.42,256.39,328.7,256.4,328.71,256.29z"/>
																	</g>
																</g>
															</g>
														</g>
													</g>
												</g>
											</g>
											<g>
												<g>
													<g>
														<g>
															<g>
																<g>
																	<path style="fill:#EB996E;" d="M327.25,280.43c0,0,9.95,0.66,19.82-5.24c0,0-5.02,10.43-19.82,9.01V280.43z"/>
																</g>
															</g>
														</g>
													</g>
												</g>
											</g>
											<g>
												<g>
													<g>
														<g>
															<g>
																<g>
																	<path style="fill:#E8505B;" d="M329.56,261.21c0.74-0.97,2.02-1.5,3.3-1.36c0.89,0.1,1.78,0.53,2.32,1.25
																		c0.54,0.72,0.65,1.75,0.16,2.43c-0.55,0.77-1.7,0.95-2.68,0.67c-0.97-0.28-1.81-0.92-2.61-1.56
																		c-0.22-0.18-0.44-0.36-0.58-0.6c-0.14-0.24-0.17-0.56,0-0.76"/>
																</g>
															</g>
														</g>
													</g>
												</g>
											</g>
											<g>
												<g>
													<g>
														<g>
															<g>
																<g>
																	<g>
																		<path style="fill:#263238;" d="M334.71,257.71c-0.33-0.02-0.34,2.2-2.24,3.76c-1.9,1.57-4.26,1.32-4.28,1.63
																			c-0.03,0.14,0.53,0.43,1.52,0.46c0.98,0.04,2.41-0.28,3.57-1.23c1.16-0.96,1.66-2.25,1.74-3.16
																			C335.11,258.25,334.86,257.7,334.71,257.71z"/>
																	</g>
																</g>
															</g>
														</g>
													</g>
												</g>
											</g>
										</g>
									</g>
								</g>
								<g>
									<g>
										<g>
											<g>
												<g>
													<g>
														<path style="fill:#263238;" d="M335.24,237.59c0.2,0.56,2.24,0.3,4.63,0.59c2.4,0.25,4.33,0.95,4.65,0.45
															c0.14-0.24-0.19-0.76-0.97-1.3c-0.77-0.54-2.01-1.05-3.44-1.21c-1.44-0.16-2.75,0.06-3.63,0.42
															C335.6,236.89,335.15,237.33,335.24,237.59z"/>
													</g>
												</g>
											</g>
										</g>
									</g>
								</g>
								<g>
									<g>
										<g>
											<g>
												<g>
													<g>
														<path style="fill:#263238;" d="M316.85,234.83c0.36,0.46,1.77-0.01,3.46-0.03c1.69-0.08,3.12,0.32,3.45-0.17
															c0.14-0.24-0.08-0.7-0.7-1.14c-0.62-0.44-1.65-0.8-2.81-0.77c-1.16,0.03-2.17,0.45-2.76,0.93
															C316.89,234.13,316.69,234.61,316.85,234.83z"/>
													</g>
												</g>
											</g>
										</g>
									</g>
								</g>
							</g>
						</g>
					</g>
				</g>
				<path style="fill:#263238;" d="M346.69,217.9c3.39-2.28,7.78-3.33,11.72-2.2c3.95,1.13,7.22,4.69,7.35,8.71
					c0.09,2.61-1.04,5.39,0.12,7.75c1.1,2.24,3.82,3.15,5.75,4.78c3.03,2.55,3.92,7.22,2.04,10.67c-1.61,2.96-5.01,5.14-5.29,8.48
					c-0.27,3.15,2.39,5.81,3.03,8.9c0.71,3.42-1.18,6.95-3.89,9.22c-2.71,2.27-6.13,3.51-9.48,4.72c-2.61,0.94-5.41,1.89-8.12,1.28
					c-3.23-0.73-5.64-3.73-6.08-6.94c-0.44-3.21,0.88-6.5,3.08-8.93c1.9-2.09,4.56-3.87,5.02-6.63c0.71-4.3-4.41-7.83-4.1-12.18
					c0.16-2.24,1.74-4.1,3.06-5.94s2.46-4.16,1.66-6.26c-1.05-2.73-4.64-3.45-6.81-5.45c-1.82-1.68-2.55-4.39-1.81-6.73
					c0.73-2.33,2.9-4.18,5.36-4.57"/>
				<path style="fill:#263238;" d="M348.28,214.56c0.01,2.96-1.35,5.9-3.62,7.8c-2.27,1.9-5.4,2.73-8.31,2.19
					c-2.26-0.41-4.74-1.56-6.69-0.35c-2.06,1.27-2.14,4.37-3.97,5.95c-2.61,2.26-6.75,0.14-10.06,1.12
					c-2.56,0.76-4.15,3.2-5.85,5.26c-1.7,2.06-4.24,4.01-6.8,3.25c0.16-2.3,0.33-4.62,1.01-6.82c0.68-2.2,1.94-4.3,3.87-5.56
					c1.06-0.69,2.29-1.11,3.27-1.9c2.12-1.71,2.61-4.69,3.92-7.09c1.69-3.08,4.95-5.25,8.45-5.6c2.91-0.3,5.91,0.58,8.74-0.14
					c2.1-0.53,3.93-1.89,6.05-2.29c4.14-0.79,7.98,2.18,10.98,5.14"/>
			</g>
			<g>
				<path style="fill:#455A64;" d="M375.29,249.92c-0.07-0.02,0.44-0.56,0.33-1.71c-0.09-1.12-1.02-2.71-2.98-3.4
					c-0.94-0.38-2.05-0.6-3.25-0.88c-1.19-0.29-2.52-0.64-3.68-1.52c-1.2-0.86-1.84-2.43-1.92-3.96c-0.1-1.54,0.15-3.09,0.23-4.66
					c0.03-0.78,0.01-1.55-0.12-2.28c-0.15-0.72-0.45-1.38-0.87-1.94c-0.89-1.11-2.28-1.6-3.56-2.04c-1.3-0.42-2.57-0.9-3.63-1.56
					c-1.07-0.65-1.95-1.41-2.67-2.18c-1.45-1.55-2.21-3.12-2.61-4.21c-0.2-0.55-0.32-0.99-0.38-1.29c-0.06-0.3-0.08-0.46-0.07-0.47
					c0.05-0.01,0.2,0.62,0.65,1.68c0.46,1.05,1.25,2.55,2.7,4.02c1.42,1.5,3.52,2.8,6.18,3.53c1.28,0.44,2.79,0.92,3.83,2.19
					c0.49,0.63,0.83,1.39,0.99,2.18c0.14,0.8,0.16,1.61,0.13,2.41c-0.08,1.61-0.33,3.14-0.24,4.59c0.07,1.44,0.62,2.79,1.68,3.58
					c1.04,0.81,2.31,1.18,3.47,1.47c1.18,0.29,2.31,0.54,3.3,0.96c0.98,0.41,1.8,1.01,2.29,1.72c0.5,0.7,0.72,1.43,0.75,2.03
					c0.03,0.61-0.12,1.07-0.27,1.34C375.43,249.81,375.3,249.93,375.29,249.92z"/>
			</g>
			<g>
				<path style="fill:#455A64;" d="M288.18,259.15c0,0.01-0.09-0.03-0.24-0.11c-0.15-0.09-0.37-0.26-0.56-0.56
					c-0.37-0.61-0.39-1.78,0.3-2.92c0.33-0.57,0.86-1.14,1.58-1.52c0.71-0.38,1.52-0.68,2.38-1c0.85-0.33,1.76-0.71,2.49-1.41
					c0.73-0.69,1.19-1.7,1.42-2.81c0.25-1.11,0.32-2.32,0.52-3.59c0.19-1.25,0.59-2.61,1.47-3.73c1.72-2.27,4.54-3.48,6.65-5.6
					c1.04-1.07,1.82-2.42,2.31-3.92c0.51-1.49,0.8-3.1,1.05-4.74c0.46-3.25,0.92-6.89,3.11-9.86c1.07-1.47,2.69-2.57,4.46-2.88
					c1.76-0.35,3.51-0.09,5.15,0.13c1.65,0.23,3.27,0.47,4.81,0.28c1.55-0.17,2.93-0.92,3.93-2.03c2.02-2.18,3.18-5.11,5.66-6.61
					c2.4-1.48,5.21-1.67,7.47-1.03c2.3,0.64,4,2.21,4.92,3.82c0.95,1.62,1.25,3.26,1.28,4.56c0.03,1.31-0.24,2.32-0.47,2.96
					c-0.24,0.65-0.44,0.95-0.44,0.95c-0.03-0.01,0.13-0.34,0.33-0.98c0.2-0.64,0.42-1.63,0.36-2.92c-0.06-1.27-0.38-2.86-1.33-4.4
					c-0.92-1.55-2.55-3.01-4.75-3.6c-2.17-0.59-4.86-0.38-7.11,1.04c-1.12,0.71-2.03,1.76-2.85,2.95c-0.84,1.17-1.6,2.47-2.68,3.63
					c-0.54,0.57-1.16,1.1-1.89,1.48c-0.73,0.36-1.53,0.64-2.35,0.73c-1.65,0.21-3.31-0.05-4.96-0.27c-1.64-0.22-3.33-0.45-4.97-0.13
					c-1.63,0.3-3.11,1.28-4.12,2.67c-1.03,1.38-1.67,3-2.11,4.64c-0.44,1.64-0.64,3.32-0.9,4.97c-0.25,1.65-0.55,3.29-1.08,4.83
					c-0.52,1.55-1.35,2.98-2.45,4.11c-2.23,2.21-5.03,3.39-6.65,5.52c-0.83,1.04-1.21,2.28-1.41,3.52c-0.21,1.23-0.29,2.45-0.56,3.6
					c-0.25,1.15-0.76,2.24-1.56,2.98c-0.8,0.75-1.76,1.12-2.62,1.44c-0.87,0.32-1.67,0.59-2.36,0.95c-0.7,0.34-1.19,0.85-1.52,1.39
					c-0.69,1.07-0.7,2.17-0.39,2.75C287.81,259,288.21,259.11,288.18,259.15z"/>
			</g>
		</g>
		<g>
			<path style="fill:#E8505B;" d="M251.88,360.97l26.24-2.4c0,0,16.15-42.52,36.05-52.84l12.89,22.52l-27.6,51.85h-53.89
				L251.88,360.97z"/>
			<path style="opacity:0.3;" d="M251.88,360.97l26.24-2.4c0,0,16.15-42.52,36.05-52.84l12.89,22.52l-27.6,51.85h-53.89
				L251.88,360.97z"/>
			<g>
				<path style="fill:#FAFAFA;" d="M262.25,372.98c-0.13-0.08,0.86-1.98,2.21-4.25c1.36-2.27,2.56-4.04,2.7-3.96
					c0.13,0.08-0.86,1.98-2.21,4.25C263.59,371.29,262.39,373.06,262.25,372.98z"/>
			</g>
			<g>
				<path style="fill:#FAFAFA;" d="M280.84,372.47c-0.12,0.1-1.56-1.49-3.21-3.54c-1.65-2.05-2.89-3.79-2.76-3.89
					c0.12-0.1,1.56,1.49,3.21,3.54C279.72,370.63,280.96,372.37,280.84,372.47z"/>
			</g>
			<g>
				<path style="fill:#FAFAFA;" d="M284.07,362.71c-0.16,0-0.28-1.54-0.28-3.44c0-1.9,0.13-3.44,0.28-3.44
					c0.16,0,0.28,1.54,0.28,3.44C284.35,361.17,284.22,362.71,284.07,362.71z"/>
			</g>
			<g>
				<path style="fill:#FAFAFA;" d="M274.83,377.92c-0.09,0.13-1.21-0.45-2.51-1.3c-1.3-0.85-2.28-1.64-2.2-1.78
					c0.09-0.13,1.21,0.45,2.51,1.3C273.93,377,274.92,377.79,274.83,377.92z"/>
			</g>
			<g>
				<path style="fill:#FAFAFA;" d="M289.9,338.83c0.14,0.06-0.67,2.19-1.81,4.74c-1.14,2.55-2.19,4.57-2.33,4.51
					c-0.14-0.06,0.67-2.18,1.81-4.74C288.71,340.79,289.75,338.77,289.9,338.83z"/>
			</g>
			<g>
				<path style="fill:#FAFAFA;" d="M300.53,321.6c0.09,0.12-0.84,0.99-2.09,1.94c-1.25,0.95-2.34,1.62-2.44,1.49
					c-0.09-0.12,0.84-0.99,2.09-1.94C299.34,322.14,300.43,321.48,300.53,321.6z"/>
			</g>
			<path style="fill:#E8505B;" d="M339.77,376.74l13.53-54.65c2.36-9.51,11.69-15.57,21.34-13.83l0,0
				c9.93,1.79,16.62,11.17,15.07,21.14l-8.28,53.41c-2.04,11.19-10.93,19.87-22.17,21.62l-10.76,1.68L339.77,376.74z"/>
			<g>
				<path style="fill:#263238;" d="M382.41,304.74c-0.07,0.13-1.52-1.64-4.83-2.43c-1.63-0.38-3.67-0.47-5.82,0.04
					c-2.15,0.5-4.36,1.67-6.33,3.3c-3.97,3.32-6.12,7.64-7.59,10.67c-0.73,1.54-1.28,2.8-1.67,3.67c-0.39,0.87-0.62,1.34-0.66,1.33
					c-0.04-0.01,0.13-0.52,0.46-1.41c0.33-0.89,0.83-2.18,1.51-3.75c0.69-1.56,1.57-3.41,2.78-5.33c1.2-1.92,2.79-3.91,4.81-5.6
					c2.03-1.68,4.32-2.88,6.57-3.37c2.25-0.5,4.37-0.36,6.04,0.08c1.68,0.45,2.91,1.17,3.67,1.77c0.38,0.3,0.65,0.55,0.82,0.74
					C382.34,304.62,382.43,304.72,382.41,304.74z"/>
			</g>
			<g>
				<path style="fill:#263238;" d="M305.76,317.03c0.01,0.01-0.12,0.19-0.38,0.51c-0.3,0.36-0.69,0.82-1.16,1.39
					c-1,1.21-2.43,2.97-4.06,5.24c-3.23,4.52-7.31,11.28-9.24,19.61c-1.89,8.33-1.98,16.14-2.3,21.72c-0.13,2.8-0.27,5.07-0.39,6.64
					c-0.06,0.73-0.12,1.33-0.16,1.8c-0.04,0.41-0.08,0.63-0.1,0.63c-0.02,0-0.03-0.22-0.02-0.63c0.01-0.47,0.03-1.07,0.05-1.81
					c0.05-1.65,0.12-3.89,0.21-6.64c0.22-5.59,0.24-13.42,2.15-21.84c1.95-8.44,6.13-15.23,9.47-19.72
					c1.68-2.26,3.16-3.99,4.22-5.15c0.52-0.59,0.95-1.02,1.24-1.32C305.58,317.17,305.74,317.02,305.76,317.03z"/>
			</g>
			<path style="fill:#E8505B;" d="M392.47,316.92c-1.48-9.77-6.88-12.12-12.47-15.16c-1.83-0.99-10.64-3.26-17.62-4.96
				c-0.67-4.23-1.86-11.81-2.13-13.41c-0.37-2.25-35.58,3.37-36.03,4.21c-0.3,0.56-1.11,9.33-1.62,15.18l-8.43,2.95l-11,13.99
				l-5.73,8.13c-3.32,4.71-5.84,9.98-7.09,15.61c-1.39,6.23-1.58,12.31-1.58,18.92l-1.7,35.88l73.68,20.83l5.7-36.34l19.01-25.87
				C387.08,346.42,394.29,328.93,392.47,316.92z"/>
			<g>
				<path style="fill:#263238;" d="M329.58,303.91c-0.08,0.01-0.26-0.94-0.49-2.49c-0.23-1.55-0.51-3.69-0.79-6.05
					c-0.13-1.17-0.25-2.29-0.36-3.34c-0.09-1.03-0.22-1.95-0.2-2.76c0.02-0.81,0.25-1.47,0.52-1.84c0.28-0.37,0.53-0.47,0.54-0.45
					c0.03,0.04-0.16,0.2-0.36,0.56c-0.19,0.37-0.34,0.96-0.31,1.72c0.02,0.75,0.19,1.67,0.31,2.7c0.13,1.05,0.27,2.17,0.41,3.34
					c0.27,2.37,0.49,4.52,0.62,6.07C329.62,302.94,329.66,303.9,329.58,303.91z"/>
			</g>
			<g>
				<path style="fill:#263238;" d="M338.98,301.69c-0.07,0.02-0.4-0.84-0.78-2.28c-0.38-1.44-0.78-3.46-0.99-5.73
					c-0.21-2.27-0.18-4.33-0.07-5.81c0.11-1.48,0.28-2.39,0.35-2.38c0.17,0.01-0.14,3.67,0.28,8.14
					C338.16,298.11,339.15,301.65,338.98,301.69z"/>
			</g>
			<g>
				<path style="fill:#263238;" d="M356.46,299.15c-0.19-0.02,0.59-3.67-0.2-8.1c-0.74-4.44-2.71-7.62-2.54-7.7
					c0.06-0.03,0.62,0.7,1.29,2.04c0.67,1.34,1.41,3.3,1.8,5.56c0.39,2.26,0.36,4.35,0.17,5.84
					C356.81,298.28,356.52,299.17,356.46,299.15z"/>
			</g>
			<g>
				<path style="fill:#FAFAFA;" d="M306.43,331.1c-0.13-0.08,1.09-2.18,2.89-4.57c1.79-2.39,3.46-4.15,3.58-4.05
					c0.12,0.1-1.35,2.01-3.12,4.39C307.99,329.25,306.56,331.19,306.43,331.1z"/>
			</g>
			<g>
				<path style="fill:#FAFAFA;" d="M323.03,317.61c-0.12,0.09-1.44-1.41-2.93-3.37c-1.49-1.95-2.6-3.62-2.48-3.71
					c0.12-0.09,1.44,1.41,2.93,3.37C322.04,315.85,323.15,317.51,323.03,317.61z"/>
			</g>
			<g>
				<path style="fill:#FAFAFA;" d="M340.37,309.12c0.1,0.12-1.53,1.61-3.47,3.51c-1.95,1.89-3.47,3.48-3.6,3.37
					c-0.12-0.1,1.23-1.87,3.2-3.78C338.47,310.31,340.28,309.01,340.37,309.12z"/>
			</g>
			<g>
				<path style="fill:#FAFAFA;" d="M335.5,298.79c-0.1,0.12-1.32-0.81-2.71-2.07c-1.39-1.26-2.43-2.38-2.33-2.49
					c0.1-0.12,1.32,0.81,2.71,2.07C334.56,297.56,335.6,298.67,335.5,298.79z"/>
			</g>
			<g>
				<path style="fill:#FAFAFA;" d="M350.69,290.68c0.03,0.15-1.6,0.63-3.66,1.07c-2.05,0.44-3.74,0.67-3.77,0.52
					c-0.03-0.15,1.6-0.63,3.66-1.07C348.97,290.76,350.66,290.53,350.69,290.68z"/>
			</g>
			<g>
				<path style="fill:#FAFAFA;" d="M353.74,314.74c-0.16,0.01-0.37-1.69-0.47-3.79c-0.11-2.1-0.07-3.81,0.09-3.82
					c0.16-0.01,0.37,1.69,0.47,3.79C353.93,313.02,353.89,314.73,353.74,314.74z"/>
			</g>
			<g>
				<path style="fill:#FAFAFA;" d="M348.19,326.31c-0.15,0.05-1-1.91-1.9-4.39c-0.9-2.48-1.52-4.53-1.37-4.59
					c0.15-0.05,1,1.91,1.9,4.39C347.73,324.2,348.34,326.26,348.19,326.31z"/>
			</g>
			<g>
				<path style="fill:#FAFAFA;" d="M333.14,334.46c-0.15,0.06-1.08-2-2.09-4.6c-1.01-2.6-1.71-4.75-1.56-4.8
					c0.15-0.06,1.08,2,2.09,4.6C332.59,332.26,333.29,334.41,333.14,334.46z"/>
			</g>
			<g>
				<path style="fill:#FAFAFA;" d="M318.97,343.71c-0.15,0.03-0.7-2.01-1.22-4.55c-0.52-2.55-0.82-4.63-0.67-4.67
					c0.15-0.03,0.7,2.01,1.22,4.55C318.83,341.59,319.13,343.68,318.97,343.71z"/>
			</g>
			<g>
				<path style="fill:#FAFAFA;" d="M302.14,344.08c-0.14,0.07-1.16-1.73-2.28-4.03c-1.12-2.29-1.91-4.21-1.77-4.27
					c0.14-0.07,1.16,1.73,2.28,4.03C301.49,342.1,302.28,344.01,302.14,344.08z"/>
			</g>
			<g>
				<path style="fill:#FAFAFA;" d="M301.78,354.87c0.07,0.14-1.91,1.26-4.41,2.49c-2.51,1.24-4.59,2.13-4.66,1.99
					c-0.07-0.14,1.91-1.26,4.41-2.49C299.62,355.62,301.71,354.73,301.78,354.87z"/>
			</g>
			<g>
				<path style="fill:#FAFAFA;" d="M301.99,371.95c-0.14,0.05-0.93-1.68-1.53-3.95c-0.61-2.27-0.79-4.17-0.64-4.19
					c0.16-0.03,0.59,1.81,1.19,4.05C301.6,370.09,302.14,371.89,301.99,371.95z"/>
			</g>
			<g>
				<path style="fill:#FAFAFA;" d="M298.51,383.94c-0.11,0.12-1.69-1.17-3.55-2.86c-1.85-1.7-3.27-3.16-3.16-3.28
					c0.11-0.12,1.69,1.17,3.55,2.86C297.2,382.36,298.61,383.83,298.51,383.94z"/>
			</g>
			<g>
				<path style="fill:#FAFAFA;" d="M320.69,375.76c0.04,0.16-2.45,0.87-5.36,2.16c-2.92,1.27-5.13,2.62-5.22,2.48
					c-0.09-0.12,2.03-1.7,5-3C318.06,376.09,320.66,375.62,320.69,375.76z"/>
			</g>
			<g>
				<path style="fill:#FAFAFA;" d="M314.2,369.81c-0.15,0.05-0.86-1.61-1.6-3.72c-0.73-2.11-1.21-3.85-1.06-3.91
					c0.15-0.05,0.86,1.61,1.6,3.72C313.87,368.01,314.35,369.76,314.2,369.81z"/>
			</g>
			<g>
				<path style="fill:#FAFAFA;" d="M327.36,355.12c0.13,0.08-1.2,2.43-2.97,5.25c-1.77,2.82-3.32,5.03-3.45,4.95
					c-0.13-0.08,1.2-2.43,2.97-5.25C325.68,357.26,327.23,355.04,327.36,355.12z"/>
			</g>
			<g>
				<path style="fill:#FAFAFA;" d="M341.49,356.53c-0.12,0.09-1.87-2.03-3.61-4.93c-1.75-2.9-2.79-5.45-2.65-5.51
					c0.15-0.07,1.41,2.34,3.14,5.22C340.09,354.19,341.62,356.44,341.49,356.53z"/>
			</g>
			<g>
				<path style="fill:#FAFAFA;" d="M349.96,342.58c0.03,0.15-1.81,0.62-4.14,0.73c-2.33,0.12-4.2-0.17-4.19-0.32
					c0.01-0.16,1.88-0.13,4.16-0.24C348.08,342.64,349.93,342.42,349.96,342.58z"/>
			</g>
			<g>
				<path style="fill:#FAFAFA;" d="M370.06,326.69c0.07,0.14-2.32,1.42-5.32,2.85c-3.01,1.43-5.5,2.48-5.57,2.34
					c-0.07-0.14,2.32-1.42,5.32-2.85C367.5,327.6,370,326.55,370.06,326.69z"/>
			</g>
			<g>
				<path style="fill:#FAFAFA;" d="M371.4,316.58c-0.14-0.07,0.71-2.07,1.9-4.48c1.19-2.4,2.27-4.3,2.41-4.23
					c0.14,0.07-0.71,2.07-1.9,4.48C372.62,314.76,371.54,316.65,371.4,316.58z"/>
			</g>
			<g>
				<path style="fill:#FAFAFA;" d="M384.18,324.51c-0.16,0.04-0.79-2.21-1.65-4.94c-0.85-2.74-1.61-4.94-1.46-5
					c0.14-0.06,1.14,2.07,2,4.83C383.94,322.16,384.33,324.48,384.18,324.51z"/>
			</g>
			<g>
				<path style="fill:#FAFAFA;" d="M386.18,335.03c0.05,0.14-2.04,1.05-4.77,1.74c-2.72,0.7-5,0.91-5.02,0.77
					c-0.02-0.16,2.19-0.62,4.88-1.31C383.97,335.54,386.13,334.88,386.18,335.03z"/>
			</g>
			<g>
				<path style="fill:#FAFAFA;" d="M364.29,347.87c-0.16-0.03,0.3-2.68,0.43-5.97c0.15-3.29-0.09-5.96,0.08-5.98
					c0.14-0.02,0.64,2.66,0.49,6.01C365.15,345.28,364.43,347.91,364.29,347.87z"/>
			</g>
			<g>
				<path style="fill:#FAFAFA;" d="M359.92,361.08c-0.1,0.11-2.01-1.51-3.97-3.89c-1.97-2.37-3.21-4.54-3.09-4.62
					c0.14-0.09,1.58,1.92,3.52,4.26C358.32,359.18,360.04,360.97,359.92,361.08z"/>
			</g>
			<g>
				<path style="fill:#FAFAFA;" d="M381.88,358.3c0.06,0.14-1.97,1.13-4.53,2.2c-2.56,1.07-4.69,1.82-4.75,1.68
					c-0.06-0.14,1.97-1.13,4.53-2.2C379.69,358.91,381.82,358.16,381.88,358.3z"/>
			</g>
			<g>
				<path style="fill:#FAFAFA;" d="M374.01,383.17c-0.16,0-0.26-2.68-0.22-5.98c0.03-3.3,0.19-5.97,0.34-5.97
					c0.16,0,0.26,2.68,0.22,5.98C374.32,380.5,374.17,383.17,374.01,383.17z"/>
			</g>
			<g>
				<path style="fill:#FAFAFA;" d="M357.16,381.74c-0.15-0.02,0.12-2.8,0.96-6.14c0.83-3.34,1.91-5.92,2.05-5.87
					c0.15,0.05-0.67,2.7-1.5,6.01C357.84,379.05,357.32,381.77,357.16,381.74z"/>
			</g>
			<g>
				<path style="fill:#FAFAFA;" d="M357.93,388.27c0.01,0.16-2.7,0.42-6,0.97c-3.3,0.54-5.95,1.17-5.99,1.01
					c-0.04-0.14,2.56-1.02,5.9-1.57C355.18,388.13,357.93,388.12,357.93,388.27z"/>
			</g>
			<g>
				<path style="fill:#FAFAFA;" d="M339.29,384.09c-0.11-0.11,1.33-1.78,3.22-3.74c1.89-1.96,3.52-3.46,3.63-3.35
					c0.11,0.11-1.33,1.78-3.22,3.74C341.03,382.69,339.4,384.19,339.29,384.09z"/>
			</g>
			<g>
				<path style="fill:#FAFAFA;" d="M327.22,395.83c-0.16,0.03-0.64-1.92-1.47-4.25c-0.81-2.33-1.66-4.16-1.52-4.23
					c0.13-0.07,1.22,1.67,2.05,4.05C327.13,393.77,327.37,395.81,327.22,395.83z"/>
			</g>
			<g>
				<path style="fill:#FAFAFA;" d="M346.71,402.54c-0.06,0.14-2.5-0.8-5.45-2.11c-2.95-1.31-5.28-2.48-5.22-2.63
					c0.06-0.14,2.5,0.8,5.45,2.11C344.43,401.23,346.77,402.4,346.71,402.54z"/>
			</g>
			<g>
				<path style="fill:#FAFAFA;" d="M312.74,400.57c-0.15-0.05,0.31-1.83,1.02-3.97c0.71-2.15,1.41-3.85,1.56-3.8
					c0.15,0.05-0.31,1.83-1.02,3.97C313.58,398.92,312.89,400.62,312.74,400.57z"/>
			</g>
			<g>
				<path style="fill:#FAFAFA;" d="M335.12,404.36c-0.03,0.16-3.12-0.34-6.96-0.53c-3.84-0.21-6.97-0.04-6.98-0.21
					c-0.02-0.14,3.12-0.57,7.01-0.36C332.08,403.47,335.15,404.22,335.12,404.36z"/>
			</g>
			<g>
				<path style="fill:#263238;" d="M339.77,372.33c-0.02,0-0.03-0.15-0.03-0.43c-0.01-0.28,0.02-0.71,0.17-1.23
					c0.14-0.52,0.48-1.18,1.18-1.62c0.69-0.45,1.64-0.6,2.65-0.44l-0.22,0.13c1.19-4.17,3.09-10.25,4.99-17.07
					c1.78-6.38,2.98-12.27,3.82-16.53c0.41-2.06,0.74-3.77,0.99-5.05c0.24-1.19,0.39-1.85,0.43-1.84c0.04,0.01-0.04,0.68-0.21,1.88
					c-0.17,1.2-0.45,2.94-0.82,5.09c-0.74,4.28-1.89,10.2-3.67,16.61c-1.91,6.84-3.87,12.9-5.17,17.03l-0.05,0.16l-0.17-0.03
					c-0.9-0.17-1.8-0.05-2.41,0.32c-0.64,0.36-0.98,0.94-1.14,1.43C339.78,371.73,339.84,372.34,339.77,372.33z"/>
			</g>
			<g>
				<path style="fill:#263238;" d="M364.13,387.44c-0.09,0.04-0.76-1.43-2.14-3.62c-1.37-2.19-3.56-5.06-6.47-7.72
					c-2.93-2.65-5.99-4.55-8.3-5.71c-2.31-1.17-3.84-1.69-3.81-1.79c0.01-0.04,0.4,0.07,1.1,0.29c0.7,0.21,1.69,0.6,2.88,1.14
					c2.38,1.08,5.53,2.96,8.51,5.65c2.97,2.7,5.13,5.66,6.44,7.93c0.65,1.13,1.13,2.08,1.41,2.76
					C364.02,387.04,364.16,387.42,364.13,387.44z"/>
			</g>
			<g style="opacity:0.2;">
				<path d="M344.01,367.8c4.15,0.3,7.56,0.61,11.46,2.07c3.9,1.46,7.5,4.26,8.94,8.17c0.34,0.94,0.51,2.12-0.2,2.82
					c-0.52,0.52-1.37,0.58-2.06,0.33c-0.69-0.24-1.26-0.74-1.8-1.24c-2.4-2.21-4.88-4.17-7.35-6.3c-2.47-2.13-6.06-4.37-9.29-4.86"
					/>
			</g>
			<g>
				<path style="fill:#263238;" d="M336.18,360.87c0.02,0.03-0.38,0.28-1.13,0.66c-0.75,0.38-1.89,0.85-3.34,1.26
					c-2.88,0.84-7.2,1.3-11.71,0.13c-4.51-1.17-8.06-3.67-10.17-5.81c-1.07-1.07-1.83-2.03-2.31-2.73c-0.48-0.69-0.7-1.11-0.67-1.12
					c0.09-0.07,1.08,1.53,3.25,3.56c2.15,2.03,5.64,4.41,10.03,5.55c4.39,1.14,8.6,0.76,11.46,0.03
					C334.49,361.68,336.13,360.77,336.18,360.87z"/>
			</g>
			<g style="opacity:0.2;">
				<path d="M307.45,354.1c1.83,3.98,3.98,7.98,7.45,10.65c2,1.54,4.34,2.83,6.86,2.88c3.63,0.06,6.74-2.41,9.51-4.76
					C322.3,364.27,312.19,360.2,307.45,354.1"/>
			</g>
			<g>
				<path style="fill:#263238;" d="M347.61,300.86c-0.17-0.01,0.04-3.73-0.41-8.28c-0.42-4.55-1.33-8.17-1.17-8.21
					c0.07-0.02,0.39,0.86,0.75,2.33c0.37,1.47,0.76,3.53,0.98,5.83c0.22,2.3,0.23,4.4,0.15,5.9
					C347.82,299.94,347.68,300.87,347.61,300.86z"/>
			</g>
		</g>
		<g>
			<path style="fill:#E8505B;" d="M218.76,446.23c0,0-11.81,2.55-22.35,0.97c-9.88-1.48-32.01,0.05-32,13.08
				c0.01,14.53,29.51,10.94,41.03,8.63c11.51-2.3,22.97-4.39,22.97-4.39L218.76,446.23z"/>
			<g>
				<path style="fill:#263238;" d="M192.26,464.84c-0.15,0.03-0.79-2.23-1.43-5.06c-0.64-2.83-1.03-5.15-0.87-5.18
					c0.15-0.03,0.79,2.23,1.43,5.06C192.02,462.49,192.41,464.81,192.26,464.84z"/>
			</g>
			<g>
				<path style="fill:#263238;" d="M196.28,465.03c-0.15,0.02-0.6-2.3-1-5.18c-0.4-2.88-0.59-5.24-0.44-5.26
					c0.15-0.02,0.6,2.3,1,5.18C196.24,462.66,196.44,465.01,196.28,465.03z"/>
			</g>
			<g>
				<path style="fill:#263238;" d="M200.17,463.51c-0.16,0.02-0.53-2.01-0.83-4.53c-0.3-2.52-0.42-4.58-0.27-4.6
					c0.15-0.02,0.53,2.01,0.83,4.53C200.21,461.44,200.33,463.49,200.17,463.51z"/>
			</g>
			<g>
				<path style="fill:#263238;" d="M206.28,461.99c-0.14,0.06-0.98-1.63-1.52-3.89c-0.55-2.25-0.58-4.14-0.43-4.15
					c0.16-0.02,0.44,1.81,0.98,4.02C205.84,460.17,206.43,461.93,206.28,461.99z"/>
			</g>
			<g>
				<path style="fill:#263238;" d="M207.59,456.68c0-0.03,0.54-0.12,1.54-0.1c0.99,0.03,2.45,0.19,4.15,0.81
					c0.43,0.16,0.87,0.36,1.28,0.69c0.4,0.31,0.78,0.82,0.8,1.44c0.01,1.29-1.4,2.21-2.67,1.94c-1.29-0.25-2.27-1.19-3.08-2.19
					c-0.82-1.03-1.41-2.28-1.74-3.63c-0.65-2.71-0.17-5.51,1.3-7.52c0.21-0.24,0.51-0.47,0.88-0.53c0.36-0.06,0.74,0.08,0.98,0.31
					c0.48,0.46,0.65,1.04,0.74,1.59c0.14,1.07,0.06,2.07-0.16,2.95c-0.42,1.77-1.31,3-1.99,3.73c-0.35,0.36-0.65,0.61-0.86,0.76
					c-0.22,0.15-0.33,0.22-0.35,0.21c-0.03-0.04,0.41-0.37,1.04-1.12c0.61-0.75,1.41-1.97,1.77-3.67c0.18-0.84,0.23-1.8,0.08-2.8
					c-0.08-0.47-0.26-0.98-0.6-1.28c-0.33-0.31-0.81-0.22-1.14,0.19c-1.27,1.79-1.77,4.51-1.14,7.05c0.31,1.27,0.87,2.46,1.63,3.42
					c0.75,0.96,1.68,1.82,2.74,2.02c1.01,0.25,2.13-0.54,2.11-1.42c0-0.44-0.26-0.83-0.61-1.11c-0.34-0.29-0.75-0.49-1.14-0.65
					c-1.62-0.65-3.04-0.87-4.01-0.96C208.14,456.71,207.59,456.73,207.59,456.68z"/>
			</g>
			<g>
				<path style="fill:#263238;" d="M227.24,462.6c0,0.01-0.1,0.04-0.3,0.09c-0.23,0.06-0.52,0.13-0.89,0.22
					c-0.82,0.19-1.97,0.45-3.42,0.78c-2.98,0.66-7.3,1.57-12.66,2.61c-5.37,1.03-11.78,2.21-18.97,3.19
					c-3.58,0.48-7.42,0.92-11.39,0.57c-1.98-0.15-4-0.49-5.97-1.14c-0.97-0.35-1.95-0.73-2.86-1.27c-0.91-0.54-1.79-1.13-2.52-2.03
					l0.04,0.05c-0.36-0.35-0.75-0.76-1.03-1.23c-1.21-1.93-1.24-4.32-0.6-6.36c0.66-2.08,2.14-3.73,3.79-4.95
					c1.67-1.21,3.52-2.06,5.38-2.67c0.94-0.27,1.86-0.59,2.79-0.8c0.94-0.19,1.85-0.44,2.78-0.56c7.4-1.17,14.13-0.57,19.72-0.57
					c2.8,0.05,5.34-0.02,7.55-0.16c2.22-0.17,4.12-0.42,5.65-0.71c0.76-0.16,1.44-0.3,2.04-0.43c0.57-0.16,1.06-0.3,1.47-0.42
					c0.37-0.1,0.67-0.18,0.91-0.25c0.21-0.05,0.31-0.08,0.32-0.07c0,0.01-0.1,0.05-0.3,0.12c-0.23,0.08-0.52,0.18-0.89,0.3
					c-0.41,0.13-0.89,0.29-1.46,0.47c-0.6,0.14-1.27,0.3-2.03,0.48c-1.54,0.33-3.45,0.62-5.67,0.81c-2.23,0.17-4.77,0.27-7.58,0.24
					c-5.6,0.05-12.33-0.5-19.63,0.69c-0.91,0.13-1.81,0.38-2.74,0.57c-0.92,0.21-1.82,0.53-2.74,0.8c-1.82,0.6-3.63,1.43-5.22,2.6
					c-1.58,1.17-2.97,2.74-3.58,4.67c-0.6,1.9-0.55,4.14,0.54,5.88c0.25,0.43,0.6,0.79,0.93,1.11l0.02,0.02l0.02,0.03
					c0.6,0.74,1.47,1.36,2.33,1.86c0.87,0.52,1.82,0.89,2.76,1.23c1.91,0.64,3.89,0.98,5.84,1.12c3.91,0.35,7.7-0.06,11.28-0.53
					c7.17-0.95,13.59-2.08,18.96-3.06c5.37-0.99,9.7-1.85,12.69-2.43c1.46-0.29,2.62-0.51,3.44-0.68c0.37-0.07,0.66-0.12,0.9-0.17
					C227.13,462.61,227.24,462.59,227.24,462.6z"/>
			</g>
			<g>
				<path style="fill:#263238;" d="M184.07,469.6c-0.08,0-0.15-1.16-0.29-3.02c-0.13-1.86-0.36-4.43-0.73-7.25
					c-0.38-2.82-0.84-5.36-1.2-7.19c-0.36-1.83-0.6-2.96-0.52-2.99c0.07-0.02,0.45,1.08,0.91,2.9c0.46,1.82,0.99,4.36,1.37,7.2
					c0.38,2.84,0.54,5.43,0.57,7.31C184.22,468.44,184.14,469.6,184.07,469.6z"/>
			</g>
			<polygon style="opacity:0.4;" points="215.12,446.86 222.6,465.6 228.41,464.52 217.29,446.23 			"/>
		</g>
		<path style="fill:#263238;" d="M312.62,395.5c-1.2,0.4-78.52-21.26-109.78-30.06c-8.21-2.31-17.02-0.98-24.18,3.66l-0.38,0.24
			c-10.51,6.8-15.63,19.47-12.79,31.67v0c1.8,7.74,6.63,14.44,13.41,18.59c20.62,12.63,64.25,39.21,65.59,38.69
			c1.75-0.68,56.24-2.09,56.24-2.09l-65.56-47.15l31.19,20.16L312.62,395.5L312.62,395.5z"/>
		<path style="fill:#FFBE9D;" d="M248.08,371.97l16.44-8.5l16.12,10.1l60.34,1.97l8.73,29.38l-87.33-20.25c0,0-15.9,1.41-17.09-2.17
			C244.09,378.93,248.08,371.97,248.08,371.97z"/>
		<path style="fill:#263238;" d="M297.51,419.05l-8.12,26.68l1.01,8.13l0,0c14.8,14.92,38.38,16.51,55.05,3.71h0
			c10.13-7.78,16.05-19.85,15.99-32.62l-0.12-27.87L297.51,419.05z"/>
		<g>
			<path style="fill:#455A64;" d="M249.14,419.22c-0.09,0.13-9.52-6.75-21.06-15.35c-11.54-8.61-20.82-15.68-20.72-15.81
				c0.09-0.13,9.52,6.75,21.06,15.36C239.95,412.02,249.23,419.1,249.14,419.22z"/>
		</g>
		<g>
			<path style="fill:#EB996E;" d="M263.4,368.79c0.05,0.15-3.55,1.43-8.04,2.87c-4.49,1.44-8.16,2.48-8.21,2.33
				c-0.05-0.15,3.55-1.43,8.04-2.87C259.68,369.69,263.36,368.65,263.4,368.79z"/>
		</g>
		<g>
			<path style="fill:#EB996E;" d="M264.63,373.8c0.01,0.08-1.07,0.24-2.8,0.53c-1.73,0.28-4.11,0.71-6.72,1.3
				c-2.6,0.6-4.93,1.26-6.61,1.76c-1.68,0.5-2.72,0.83-2.75,0.75c-0.03-0.07,0.96-0.53,2.62-1.13c1.66-0.6,3.99-1.33,6.61-1.93
				c2.62-0.6,5.04-0.97,6.79-1.15C263.53,373.75,264.63,373.73,264.63,373.8z"/>
		</g>
		<g>
			<path style="fill:#EB996E;" d="M263.26,378.4c0.03,0.15-4.02,1.09-9.05,2.08c-5.03,1-9.13,1.68-9.17,1.53
				c-0.03-0.15,4.02-1.09,9.06-2.08C259.12,378.93,263.23,378.25,263.26,378.4z"/>
		</g>
		<g>
			<path style="fill:#455A64;" d="M241.93,332.56l15.16,49.88c0.17,0.57,0.68,0.98,1.27,1.02l41.31,3.1
				c0.75,0.06,1.34,0.68,1.34,1.44v2.58c0,0.81-0.66,1.46-1.47,1.44l-112.93-2.12c-0.59-0.01-1.11-0.38-1.32-0.93l-19.86-52.03
				c-0.35-0.92,0.3-1.91,1.28-1.96l73.77-3.45C241.15,331.51,241.74,331.93,241.93,332.56z"/>
			<path style="fill:#E0E0E0;" d="M210.11,354.06c-0.8,0.21-2.08,1.35-2.23,2.54c-0.16,1.19,0.48,2.41,1.46,3.11
				c1.19,0.86,2.91,0.97,4.13,0.15c1.22-0.82,1.76-2.43,1.13-4.17C214.09,354.31,211.57,353.34,210.11,354.06"/>
		</g>
		<g>
			<path style="fill:#263238;" d="M228.41,464.52l-11.94-19.64l87.77-68.79c5.46-4.48,12.14-7.22,19.17-7.86h0
				c21.83-1.99,40.17,16.21,38.35,38.06l-1.4,16.78l-58.26,18.72L228.41,464.52z"/>
			<g>
				<path style="fill:#455A64;" d="M340.97,417.9c0.01,0.01-0.07,0.08-0.23,0.22c-0.19,0.15-0.42,0.35-0.72,0.59
					c-0.67,0.54-1.61,1.28-2.8,2.23c-0.61,0.48-1.29,1.02-2.03,1.6c-0.74,0.59-1.61,1.13-2.51,1.77c-0.91,0.63-1.88,1.29-2.92,2
					c-0.52,0.35-1.04,0.72-1.6,1.08c-0.57,0.34-1.15,0.69-1.74,1.05c-2.39,1.42-4.96,3.05-7.88,4.53c-1.45,0.76-2.92,1.58-4.48,2.35
					c-1.57,0.75-3.19,1.51-4.85,2.3c-6.68,3.05-14.17,6.11-22.19,8.84c-16.03,5.52-30.85,9.5-41.47,12.72
					c-2.66,0.78-5.06,1.52-7.16,2.18c-2.11,0.65-3.92,1.21-5.39,1.71c-1.45,0.47-2.58,0.84-3.4,1.1c-0.37,0.11-0.66,0.2-0.89,0.27
					c-0.2,0.06-0.31,0.08-0.31,0.08c0-0.01,0.09-0.05,0.29-0.13c0.23-0.08,0.51-0.19,0.87-0.33c0.81-0.29,1.93-0.69,3.37-1.21
					c1.46-0.53,3.26-1.12,5.36-1.8c2.09-0.69,4.49-1.45,7.14-2.26c10.59-3.32,25.4-7.36,41.4-12.87c8.01-2.72,15.48-5.77,22.16-8.78
					c1.66-0.78,3.28-1.53,4.85-2.27c1.56-0.76,3.03-1.58,4.48-2.32c2.92-1.45,5.5-3.06,7.89-4.46c0.6-0.35,1.18-0.69,1.75-1.03
					c0.56-0.35,1.08-0.72,1.6-1.06c1.04-0.69,2.02-1.35,2.93-1.96c0.91-0.62,1.79-1.15,2.54-1.73c0.75-0.57,1.43-1.09,2.05-1.56
					c1.22-0.91,2.17-1.63,2.86-2.14c0.31-0.22,0.56-0.41,0.75-0.55C340.87,417.95,340.96,417.89,340.97,417.9z"/>
			</g>
			<g>
				<path style="fill:#455A64;" d="M343.1,427.08c0.01,0.04-0.3,0.2-0.89,0.46c-0.58,0.27-1.44,0.62-2.52,1.02
					c-2.15,0.8-5.18,1.75-8.61,2.49c-3.43,0.73-6.58,1.11-8.87,1.27c-1.14,0.08-2.07,0.11-2.71,0.11c-0.64,0-1-0.02-1-0.06
					c0-0.09,1.41-0.19,3.67-0.45c2.27-0.25,5.39-0.69,8.79-1.42c3.4-0.73,6.42-1.61,8.6-2.31C341.74,427.49,343.07,427,343.1,427.08
					z"/>
			</g>
			<g>
				<path style="fill:#455A64;" d="M300.73,379.4c0.1,0.12-18.69,14.88-41.95,32.97c-23.27,18.09-42.21,32.65-42.31,32.52
					c-0.1-0.12,18.69-14.88,41.96-32.97C281.7,393.83,300.64,379.27,300.73,379.4z"/>
			</g>
			<g>
				<g>
					<path style="fill:#E8505B;" d="M295.66,452.39c-4.21-2.25-8.94-0.92-12.97,0.44c-2.68,0.9-5.47,2.33-8.19,1.57
						c-1.97-0.55-3.43-2.15-4.94-3.54c-6.07-5.6-14.43-8.65-22.69-8.13c-2.35,0.15-4.64,1.09-6.23,2.82
						c-4.14,4.48-1.02,10.31,2.68,14.07c6.52,6.65,15.41,10.93,24.67,11.9c7.7,0.8,18.29-0.26,26.1-3.6
						c4.81-2.06,7.29-7.74,4.76-12.33C298.12,454.26,297.04,453.13,295.66,452.39z"/>
					<g style="opacity:0.4;">
						<path d="M295.65,455.98c-4.21-2.25-8.94-0.92-12.97,0.44c-2.68,0.9-5.47,2.33-8.19,1.57c-1.97-0.55-3.43-2.15-4.94-3.54
							c-6.07-5.59-14.43-8.65-22.69-8.13c-2.35,0.15-4.64,1.09-6.23,2.82c-0.92,0.99-1.46,2.05-1.74,3.14
							c0.61,2.69,2.42,5.32,4.41,7.35c6.52,6.65,15.41,10.93,24.67,11.9c7.7,0.8,18.29-0.26,26.1-3.6c2.89-1.24,4.93-3.79,5.55-6.62
							c-0.16-0.72-0.42-1.44-0.8-2.12C298.11,457.84,297.04,456.72,295.65,455.98z"/>
					</g>
				</g>
				<g>
					<path style="fill:#263238;" d="M299.64,461.31c-0.08,0.03-0.06-1.03-1.03-2.49c-0.49-0.72-1.22-1.52-2.25-2.2
						c-1.02-0.69-2.34-1.28-3.87-1.48c-3.13-0.37-6.75,0.95-10.77,2.04c-1.99,0.53-4.16,1.33-6.54,1.03
						c-1.16-0.15-2.33-0.54-3.36-1.16c-1.03-0.62-1.98-1.39-2.89-2.18c-3.47-3.39-7.58-5.5-11.51-6.84
						c-1.97-0.66-3.9-1.09-5.73-1.33c-1.83-0.24-3.55-0.27-5.1-0.03c-1.54,0.24-2.88,0.75-3.94,1.38c-1.06,0.64-1.85,1.38-2.41,2.05
						c-1.12,1.35-1.49,2.28-1.55,2.24c0,0,0.3-0.96,1.38-2.38c0.56-0.7,1.34-1.49,2.42-2.18c1.08-0.68,2.46-1.23,4.04-1.5
						c1.58-0.27,3.36-0.27,5.22-0.04c1.86,0.22,3.83,0.64,5.84,1.3c2.01,0.65,4.04,1.54,6.04,2.67c0.99,0.58,2,1.17,2.94,1.92
						c0.94,0.73,1.82,1.54,2.73,2.33c0.91,0.79,1.83,1.53,2.81,2.12c0.98,0.59,2.05,0.95,3.15,1.1c2.2,0.29,4.32-0.46,6.33-0.99
						c4.01-1.05,7.69-2.36,10.96-1.93c3.24,0.52,5.33,2.47,6.26,3.96c0.47,0.77,0.69,1.44,0.78,1.9
						C299.65,461.06,299.66,461.3,299.64,461.31z"/>
				</g>
				<g>
					<path style="fill:#263238;" d="M299.64,461.31c-0.08,0.03-0.06-1.03-1.03-2.49c-0.49-0.72-1.22-1.52-2.25-2.2
						c-1.02-0.69-2.34-1.28-3.87-1.48c-3.13-0.37-6.75,0.95-10.77,2.04c-1.99,0.53-4.16,1.33-6.54,1.03
						c-1.16-0.15-2.33-0.54-3.36-1.16c-1.03-0.62-1.98-1.39-2.89-2.18c-3.47-3.39-7.58-5.5-11.51-6.84
						c-1.97-0.66-3.9-1.09-5.73-1.33c-1.83-0.24-3.55-0.27-5.1-0.03c-1.54,0.24-2.88,0.75-3.94,1.38c-1.06,0.64-1.85,1.38-2.41,2.05
						c-1.12,1.35-1.49,2.28-1.55,2.24c0,0,0.3-0.96,1.38-2.38c0.56-0.7,1.34-1.49,2.42-2.18c1.08-0.68,2.46-1.23,4.04-1.5
						c1.58-0.27,3.36-0.27,5.22-0.04c1.86,0.22,3.83,0.64,5.84,1.3c2.01,0.65,4.04,1.54,6.04,2.67c0.99,0.58,2,1.17,2.94,1.92
						c0.94,0.73,1.82,1.54,2.73,2.33c0.91,0.79,1.83,1.53,2.81,2.12c0.98,0.59,2.05,0.95,3.15,1.1c2.2,0.29,4.32-0.46,6.33-0.99
						c4.01-1.05,7.69-2.36,10.96-1.93c3.24,0.52,5.33,2.47,6.26,3.96c0.47,0.77,0.69,1.44,0.78,1.9
						C299.65,461.06,299.66,461.3,299.64,461.31z"/>
				</g>
				<g>
					<path style="fill:#263238;" d="M247.43,460.29c-0.04-0.06,0.77-0.65,2.16-1.49c1.38-0.84,3.34-1.93,5.58-2.98
						c2.24-1.05,4.32-1.87,5.85-2.4c1.53-0.53,2.5-0.78,2.53-0.71c0.03,0.08-0.9,0.46-2.38,1.08c-1.49,0.62-3.53,1.49-5.75,2.53
						c-2.22,1.05-4.2,2.06-5.62,2.81C248.35,459.9,247.47,460.36,247.43,460.29z"/>
				</g>
				<g>
					<path style="fill:#263238;" d="M248.87,464.5c-0.07-0.14,3.61-2.06,8.22-4.29c4.61-2.23,8.4-3.92,8.47-3.78
						c0.07,0.14-3.61,2.06-8.22,4.29C252.73,462.95,248.94,464.64,248.87,464.5z"/>
				</g>
				<g>
					<path style="fill:#263238;" d="M266.32,466.33c-0.08,0.13-4.57-2.54-10.02-5.98c-5.45-3.43-9.8-6.33-9.72-6.46
						c0.08-0.13,4.57,2.54,10.02,5.98C262.05,463.31,266.4,466.2,266.32,466.33z"/>
				</g>
				<g>
					<path style="fill:#263238;" d="M268.84,461.96c-0.05,0.06-0.88-0.52-2.2-1.47c-1.32-0.95-3.14-2.27-5.18-3.68
						c-2.04-1.41-3.91-2.66-5.26-3.56c-1.35-0.9-2.19-1.47-2.15-1.54c0.04-0.06,0.94,0.38,2.36,1.2c1.41,0.82,3.33,2.01,5.37,3.43
						c2.05,1.42,3.84,2.79,5.1,3.83C268.15,461.21,268.89,461.9,268.84,461.96z"/>
				</g>
			</g>
		</g>
	</g>
</g>
</svg>
