<?xml version="1.0" encoding="utf-8"?>
<!-- Generator: Adobe Illustrator 24.1.0, SVG Export Plug-In . SVG Version: 6.00 Build 0)  -->
<svg version="1.1" xmlns="http://www.w3.org/2000/svg" xmlns:xlink="http://www.w3.org/1999/xlink" x="0px" y="0px"
	 viewBox="0 0 500 500" style="enable-background:new 0 0 500 500;" xml:space="preserve">
<g id="Background_Complete">
</g>
<g id="Background_Simple" style="display:none;">
	
		<ellipse transform="matrix(0.8023 -0.597 0.597 0.8023 -109.3646 261.5676)" style="display:inline;fill:#F5F5F5;" cx="340.15" cy="295.87" rx="23.68" ry="23.68"/>
	<circle style="display:inline;fill:#F5F5F5;" cx="450.97" cy="228.16" r="20.87"/>
	<circle style="display:inline;fill:#F5F5F5;" cx="169.47" cy="199.94" r="11.2"/>
	<circle style="display:inline;fill:#F5F5F5;" cx="220.05" cy="48.37" r="11.2"/>
	<circle style="display:inline;fill:#F5F5F5;" cx="342.66" cy="48.37" r="21.33"/>
	<circle style="display:inline;fill:#F5F5F5;" cx="56.3" cy="246.22" r="20.83"/>
	<circle style="display:inline;fill:#F5F5F5;" cx="381.1" cy="143.11" r="18.93"/>
	
		<ellipse transform="matrix(0.9271 -0.3747 0.3747 0.9271 -23.8023 38.8412)" style="display:inline;fill:#F5F5F5;" cx="87.97" cy="80.62" rx="34.61" ry="34.61"/>
</g>
<g id="Mind_Map">
</g>
<g id="Character">
</g>
<g id="Plant">
</g>
<g id="Desk">
	<g>
		<g>
			<g>
				<g>
					<g>
						<g>
							
								<rect x="103.06" y="392.96" transform="matrix(6.123234e-17 -1 1 6.123234e-17 -316.7536 531.1498)" style="fill:#E0E0E0;" width="8.28" height="61.98"/>
						</g>
					</g>
				</g>
			</g>
			<g>
				<g>
					<g>
						<g>
							<g>
								<path style="fill:#FAFAFA;" d="M84.65,420.16c0.22,0,0.39,1.74,0.39,3.88c0,2.14-0.17,3.88-0.39,3.88s-0.39-1.74-0.39-3.88
									C84.26,421.89,84.44,420.16,84.65,420.16z"/>
							</g>
						</g>
					</g>
				</g>
			</g>
			<g>
				<g>
					<g>
						<g>
							<g>
								<path style="fill:#FAFAFA;" d="M83.3,419.99c0.22,0,0.39,1.74,0.39,3.88c0,2.14-0.17,3.88-0.39,3.88
									c-0.22,0-0.39-1.74-0.39-3.88C82.91,421.72,83.09,419.99,83.3,419.99z"/>
							</g>
						</g>
					</g>
				</g>
			</g>
			<g>
				<g>
					<g>
						<g>
							<g>
								<path style="fill:#FAFAFA;" d="M133.4,420.16c0.22,0,0.39,1.74,0.39,3.88c0,2.14-0.17,3.88-0.39,3.88
									c-0.22,0-0.39-1.74-0.39-3.88C133.01,421.89,133.18,420.16,133.4,420.16z"/>
							</g>
						</g>
					</g>
				</g>
			</g>
			<g>
				<g>
					<g>
						<g>
							<g>
								<path style="fill:#FAFAFA;" d="M132.05,419.99c0.21,0,0.39,1.74,0.39,3.88c0,2.14-0.17,3.88-0.39,3.88
									c-0.22,0-0.39-1.74-0.39-3.88C131.66,421.72,131.83,419.99,132.05,419.99z"/>
							</g>
						</g>
					</g>
				</g>
			</g>
			<g>
				<g>
					<g>
						<g>
							<g>
								<path style="fill:#FAFAFA;" d="M123.95,424.2c0,0.22-7.1,0.39-15.85,0.39c-8.76,0-15.85-0.17-15.85-0.39
									c0-0.22,7.1-0.39,15.85-0.39C116.85,423.81,123.95,423.99,123.95,424.2z"/>
							</g>
						</g>
					</g>
				</g>
			</g>
		</g>
		<g>
			<g>
				<g>
					<g>
						<g>
							
								<rect x="98.65" y="434.38" transform="matrix(6.123234e-17 -1 1 6.123234e-17 -358.442 572.3015)" style="fill:#E0E0E0;" width="16.56" height="61.98"/>
						</g>
					</g>
				</g>
			</g>
			<g>
				<g>
					<g>
						<g>
							<g>
								<path style="fill:#FAFAFA;" d="M138.71,468.99c0.01,0.01-0.11,0.08-0.34,0.19c-0.23,0.12-0.57,0.28-1.03,0.47
									c-0.92,0.38-2.31,0.91-4.2,1.2c-1.86,0.26-4.35,0.34-6.82-0.97c-1.21-0.65-2.36-1.63-3.24-2.94c-0.86-1.3-1.41-3-1.13-4.77
									c0.15-0.88,0.52-1.75,1.14-2.47c0.61-0.72,1.58-1.25,2.61-1.19c1.04,0.05,1.98,0.64,2.63,1.42c0.66,0.78,1.11,1.77,1.2,2.82
									c0.25,2.1-0.64,4.28-2.14,5.87c-1.47,1.65-3.68,2.65-5.96,2.91c-2.29,0.27-4.66-0.09-6.91-0.86
									c-2.25-0.78-4.47-2.04-6.04-4.06c-0.77-1-1.33-2.25-1.41-3.58c-0.11-1.32,0.31-2.74,1.32-3.72c0.5-0.49,1.21-0.82,1.94-0.85
									c0.73-0.04,1.44,0.2,2.03,0.57c1.2,0.74,1.96,2.01,2.28,3.34c0.58,2.71-0.49,5.53-2.44,7.29c-1.96,1.78-4.53,2.57-6.98,2.84
									c-2.47,0.25-4.95,0.06-7.23-0.71c-2.28-0.76-4.32-2.26-5.5-4.28c-1.2-1.98-1.59-4.48-0.69-6.58
									c0.42-1.04,1.38-1.96,2.53-2.14c1.12-0.21,2.26,0.1,3.12,0.75c1.75,1.39,2.04,3.77,1.48,5.58c-0.57,1.86-1.83,3.29-3.12,4.4
									c-2.65,2.24-5.79,3.2-8.5,3.3c-2.74,0.1-5.05-0.66-6.73-1.53c-1.7-0.88-2.82-1.89-3.51-2.6c-0.34-0.37-0.59-0.65-0.74-0.86
									c-0.16-0.2-0.23-0.31-0.22-0.32c0.08-0.11,1.24,1.81,4.61,3.51c1.67,0.81,3.93,1.5,6.58,1.37c2.62-0.13,5.64-1.11,8.16-3.29
									c1.24-1.08,2.4-2.45,2.91-4.15c0.51-1.64,0.18-3.77-1.29-4.89c-0.72-0.54-1.7-0.79-2.61-0.61
									c-0.92,0.15-1.65,0.85-2.03,1.76c-0.78,1.84-0.44,4.12,0.68,5.93c1.1,1.86,2.97,3.23,5.13,3.94
									c2.15,0.73,4.55,0.9,6.91,0.66c2.35-0.26,4.75-1.02,6.54-2.65c1.76-1.58,2.72-4.18,2.21-6.55
									c-0.28-1.16-0.95-2.25-1.93-2.86c-0.97-0.64-2.23-0.62-3.02,0.18c-0.8,0.77-1.19,1.97-1.08,3.1
									c0.07,1.15,0.55,2.25,1.25,3.17c1.42,1.85,3.53,3.07,5.67,3.82c2.17,0.75,4.43,1.1,6.59,0.85c2.15-0.24,4.17-1.15,5.54-2.67
									c1.4-1.47,2.2-3.46,2-5.33c-0.15-1.82-1.54-3.6-3.21-3.71c-0.83-0.05-1.62,0.35-2.15,0.97c-0.55,0.61-0.89,1.39-1.03,2.18
									c-0.27,1.6,0.21,3.17,1,4.41c0.81,1.24,1.89,2.19,3.03,2.82c2.31,1.28,4.74,1.27,6.57,1.05c1.86-0.24,3.25-0.72,4.19-1.05
									C138.22,469.17,138.7,468.96,138.71,468.99z"/>
							</g>
						</g>
					</g>
				</g>
			</g>
		</g>
		<g>
			<g>
				<g>
					<g>
						<g>
							
								<rect x="95.33" y="414.47" transform="matrix(6.123234e-17 -1 1 6.123234e-17 -332.9998 552.3943)" style="fill:#EBEBEB;" width="28.73" height="56.44"/>
						</g>
					</g>
				</g>
			</g>
			<g>
				<g>
					<g>
						<g>
							<g>
								<path style="fill:#E0E0E0;" d="M90.85,429.32c0.22,0,0.39,6.23,0.39,13.9c0,7.68-0.17,13.91-0.39,13.91
									c-0.22,0-0.39-6.23-0.39-13.91C90.46,435.54,90.64,429.32,90.85,429.32z"/>
							</g>
						</g>
					</g>
				</g>
			</g>
			<g>
				<g>
					<g>
						<g>
							<g>
								<path style="fill:#E0E0E0;" d="M95.13,428.96c0.22,0,0.39,6.15,0.39,13.73c0,7.58-0.17,13.73-0.39,13.73
									c-0.22,0-0.39-6.15-0.39-13.73C94.74,435.11,94.92,428.96,95.13,428.96z"/>
							</g>
						</g>
					</g>
				</g>
			</g>
			<g>
				<g>
					<g>
						<g>
							<g>
								<path style="fill:#E0E0E0;" d="M131.54,428.04c0.22,0,0.39,6.47,0.39,14.46c0,7.99-0.17,14.46-0.39,14.46
									c-0.22,0-0.39-6.47-0.39-14.46C131.15,434.51,131.32,428.04,131.54,428.04z"/>
							</g>
						</g>
					</g>
				</g>
			</g>
			<g>
				<g>
					<g>
						<g>
							<g>
								<path style="fill:#E0E0E0;" d="M126.51,428.43c0.22,0,0.39,6.31,0.39,14.08c0,7.78-0.17,14.08-0.39,14.08
									s-0.39-6.3-0.39-14.08C126.12,434.73,126.29,428.43,126.51,428.43z"/>
							</g>
						</g>
					</g>
				</g>
			</g>
		</g>
	</g>
	<g>
		<g>
			<g>
				<g>
					<g>
						<path style="fill:#EBEBEB;" d="M430.34,365.61c5.85-3.02,12.74-3.41,19.24-2.34c3.49,0.58,7.13,1.62,9.5,4.24
							c2.37,2.62,2.82,7.23,0.1,9.49c-1.62,1.34-3.89,1.54-5.99,1.52c-5.09-0.06-10.73-0.95-14.79,2.11
							c-2.32,1.75-3.86,4.65-6.63,5.51c-2.71,0.84-5.77-0.76-7.21-3.21c-1.44-2.45-1.49-5.51-0.82-8.26
							C423.74,374.66,424.44,368.65,430.34,365.61z"/>
					</g>
				</g>
			</g>
			<g>
				<g>
					<g>
						<path style="fill:#EBEBEB;" d="M416.93,339.73c3.58,5.11,10.53,3.42,13.76,0.3c3.22-3.12,4.59-7.64,5.83-11.95
							c2.83-9.85,5.69-20.18,3.58-30.21c-0.63-3-1.75-5.99-3.86-8.21c-2.11-2.22-5.35-3.55-8.31-2.77
							c-3.51,0.93-5.69,4.36-7.26,7.63c-4.63,9.6-7.08,20.25-7.12,30.91C413.54,330.4,414.12,335.62,416.93,339.73"/>
					</g>
				</g>
			</g>
			<g>
				<g>
					<g>
						<path style="fill:#EBEBEB;" d="M407.11,347.06c3.88-4.61,4.62-11.34,2.89-17.11c-1.73-5.78-5.63-10.69-10.13-14.7
							c-5.28-4.7-11.48-8.36-18.15-10.71c-2.62-0.92-5.39-1.65-8.16-1.39c-2.77,0.26-5.56,1.68-6.85,4.14
							c-1.91,3.64-0.08,8.06,1.9,11.67c3.49,6.35,7.48,12.43,11.92,18.15c3.57,4.61,7.67,9.15,13.11,11.23
							c5.45,2.08,11.1,1.84,13.99-1.94"/>
					</g>
				</g>
			</g>
			<g>
				<g>
					<g>
						<g>
							<path style="fill:#E0E0E0;" d="M416.69,416.82c0.07,0,0.18-0.82,0.32-2.32c0.16-1.69,0.37-3.81,0.62-6.34
								c0.3-2.67,0.68-5.84,1.43-9.3c0.74-3.45,1.89-7.18,3.38-10.97c1.54-3.77,3.41-7.19,5.6-9.93c2.17-2.75,4.7-4.74,7.08-5.89
								c2.37-1.17,4.5-1.65,5.96-1.86c1.48-0.15,2.31-0.27,2.31-0.33c0-0.07-0.83-0.08-2.35-0.04c-1.51,0.1-3.72,0.48-6.22,1.62
								c-2.51,1.11-5.19,3.13-7.47,5.94c-2.3,2.79-4.24,6.29-5.81,10.13c-1.51,3.85-2.65,7.63-3.35,11.15
								c-0.7,3.52-1.03,6.72-1.24,9.41c-0.2,2.69-0.28,4.87-0.31,6.38C416.61,415.98,416.62,416.81,416.69,416.82z"/>
						</g>
					</g>
				</g>
			</g>
			<g>
				<g>
					<g>
						<g>
							<path style="fill:#E0E0E0;" d="M417.13,411.94c0.03,0,0.05-0.37,0.06-1.08c0-0.81,0-1.83-0.01-3.08
								c-0.01-2.67-0.01-6.54,0.14-11.32c0.24-9.56,1.06-19.84,2.65-34.34c1.51-13.63,3.53-29.5,5.66-39.82
								c0.46-2.35,0.92-4.46,1.35-6.31c0.41-1.85,0.77-3.45,1.11-4.74c0.29-1.22,0.53-2.21,0.72-2.99c0.15-0.69,0.22-1.05,0.19-1.06
								c-0.03-0.01-0.16,0.34-0.37,1.01c-0.23,0.78-0.53,1.75-0.89,2.95c-0.4,1.28-0.8,2.87-1.27,4.71
								c-0.48,1.84-0.99,3.95-1.49,6.29c-2.11,9.35-4.34,22.41-5.95,36.95c-1.59,14.53-2.31,27.76-2.37,37.34
								c-0.06,4.79,0.04,8.67,0.17,11.34c0.08,1.25,0.14,2.27,0.19,3.08C417.05,411.57,417.09,411.94,417.13,411.94z"/>
						</g>
					</g>
				</g>
			</g>
			<g>
				<g>
					<g>
						<g>
							<path style="fill:#E0E0E0;" d="M417.19,386.42c0.07,0,0.06-1.15-0.02-3.22c-0.12-2.07-0.4-5.06-0.99-8.72
								c-0.62-3.65-1.48-7.99-2.84-12.7c-0.59-2.15-1.97-7.32-5.31-15.03c-4.41-10.45-10.39-19-15.6-24.29
								c-1.22-1.4-2.58-2.42-3.67-3.41c-0.56-0.48-1.06-0.95-1.57-1.33c-0.51-0.35-0.98-0.68-1.42-0.98
								c-1.71-1.17-2.67-1.79-2.71-1.73c-0.15,0.21,3.84,2.56,8.88,7.92c5.02,5.35,10.84,13.84,15.21,24.21
								c2.44,5.62,4.14,10.64,5.34,14.9c1.39,4.67,2.32,8.96,3.02,12.58c0.66,3.63,1.05,6.58,1.28,8.63
								C416.99,385.29,417.12,386.43,417.19,386.42z"/>
						</g>
					</g>
				</g>
			</g>
		</g>
		<g>
			<g>
				<g>
					<polygon style="fill:#EBEBEB;" points="390.82,427.56 393.38,462.59 438.38,462.59 440.93,427.56 					"/>
				</g>
			</g>
		</g>
		<g>
			<g>
				<g>
					<rect x="386.47" y="413.75" style="fill:#EBEBEB;" width="59.83" height="13.81"/>
				</g>
			</g>
		</g>
		<g>
			<g>
				<g>
					<polygon style="fill:#E0E0E0;" points="386.47,461.25 386.47,465.08 389.28,465.08 445.32,465.08 445.32,461.25 					"/>
				</g>
			</g>
		</g>
		<g>
			<g>
				<g>
					<polygon style="fill:#E0E0E0;" points="392.04,471.39 389.28,464.65 443.17,464.65 439.96,471.39 					"/>
				</g>
			</g>
		</g>
		<g>
			<g>
				<g>
					<g>
						<path style="fill:#F5F5F5;" d="M440.1,439.01c0.01,0.01-0.06,0.12-0.21,0.32c-0.18,0.24-0.4,0.53-0.67,0.89
							c-0.64,0.82-1.52,1.94-2.62,3.35l-0.12,0.15l-0.11-0.16c-1.65-2.28-3.85-5.32-6.44-8.91h0.37c-1.92,2.71-4.05,5.73-6.34,8.98
							l-0.2,0.28l-0.22-0.26c-2.34-2.78-4.88-5.81-7.52-8.95l0.43-0.01c-0.13,0.16-0.27,0.34-0.41,0.52
							c-2.33,2.92-4.59,5.75-6.72,8.43l-0.22,0.28l-0.21-0.29c-2.28-3.23-4.42-6.25-6.34-8.98l0.37,0.02
							c-3.13,3.56-5.78,6.58-7.81,8.9l-0.14,0.16l-0.11-0.18c-1.03-1.73-1.85-3.11-2.45-4.11c-0.26-0.45-0.46-0.81-0.63-1.09
							c-0.14-0.25-0.2-0.38-0.19-0.39c0.01-0.01,0.1,0.11,0.26,0.35c0.18,0.28,0.41,0.62,0.69,1.05c0.62,0.98,1.49,2.34,2.57,4.04
							l-0.24-0.02c2-2.35,4.61-5.4,7.69-9.01l0.19-0.23l0.18,0.24c1.95,2.72,4.1,5.72,6.4,8.94l-0.43-0.01
							c2.13-2.68,4.38-5.51,6.71-8.44c0.14-0.18,0.28-0.36,0.41-0.52l0.21-0.27l0.22,0.26c2.63,3.15,5.17,6.18,7.5,8.97l-0.42,0.02
							c2.31-3.23,4.47-6.23,6.4-8.93l0.19-0.26l0.18,0.26c2.54,3.62,4.69,6.7,6.3,9l-0.23-0.01c1.15-1.38,2.06-2.47,2.73-3.27
							c0.3-0.34,0.54-0.62,0.73-0.85C440,439.09,440.09,439,440.1,439.01z"/>
					</g>
				</g>
			</g>
		</g>
		<g>
			<g>
				<g>
					<g>
						<path style="fill:#F5F5F5;" d="M441.56,427.33c0,0.15-11.28,0.28-25.18,0.28c-13.91,0-25.19-0.13-25.19-0.28
							c0-0.15,11.27-0.28,25.19-0.28C430.28,427.05,441.56,427.17,441.56,427.33z"/>
					</g>
				</g>
			</g>
		</g>
	</g>
	<g>
		<g>
			<g>
				<path style="fill:#E0E0E0;" d="M185,62.42c0,0.01-0.09-0.02-0.26-0.08c-0.2-0.08-0.44-0.17-0.73-0.29
					c-0.68-0.28-1.61-0.67-2.78-1.16c-2.45-1.05-5.92-2.53-10.17-4.36c-8.61-3.75-20.42-8.9-33.47-14.58
					c-0.4-0.17-0.79-0.35-1.16-0.51l0.24,0c-12.83,5.49-24.39,10.43-32.8,14.03c-4.16,1.75-7.53,3.16-9.92,4.17
					c-1.14,0.46-2.04,0.83-2.71,1.1c-0.62,0.25-0.95,0.37-0.96,0.35c-0.01-0.02,0.31-0.18,0.91-0.46c0.66-0.3,1.54-0.7,2.66-1.21
					c2.37-1.05,5.72-2.53,9.85-4.35c8.39-3.64,19.93-8.64,32.73-14.19l0.12-0.05l0.12,0.05c0.37,0.16,0.76,0.33,1.16,0.51
					c13.02,5.75,24.81,10.95,33.4,14.75c4.22,1.9,7.66,3.44,10.1,4.53c1.15,0.53,2.06,0.95,2.73,1.26c0.28,0.14,0.51,0.25,0.7,0.34
					C184.92,62.37,185,62.41,185,62.42z"/>
			</g>
		</g>
		<g>
			<rect x="22.22" y="57.61" style="fill:#E0E0E0;" width="214.99" height="160.97"/>
		</g>
		<g>
			<rect x="29.74" y="65.1" style="fill:#FAFAFA;" width="200.77" height="146.88"/>
		</g>
		<g>
			<g>
				<path style="fill:#E0E0E0;" d="M74.08,129.27c0,0,0.21,24.66,1.46,32.18l30.92-1.46c0,0-2.72-24.24-1.67-30.72H74.08z"/>
			</g>
			<g>
				<g>
					<g>
						<g>
							<path style="fill:#FFFFFF;" d="M89.31,132.76c0,0,0.04-0.01,0.11-0.01c0.09,0,0.2-0.01,0.33-0.01c0.29-0.02,0.73,0,1.29,0.06
								c0.55,0.09,1.24,0.24,1.97,0.58c0.73,0.35,1.48,0.91,2.14,1.69c0.63,0.8,1.21,1.79,1.48,2.98c0.25,1.19,0.13,2.53-0.32,3.82
								c-0.22,0.65-0.52,1.29-0.87,1.91c-0.35,0.62-0.7,1.25-0.99,1.93c-0.58,1.35-1.05,2.83-1.25,4.39l-0.01,0.1l-0.1,0
								c-0.98,0.02-2.01,0.03-3.05,0.05c-1.1,0.02-2.18,0.03-3.2,0.05l-0.11,0l0-0.12c-0.05-1.56-0.75-2.97-1.49-4.23
								c-0.37-0.63-0.78-1.23-1.16-1.83c-0.37-0.59-0.79-1.15-1.09-1.77c-0.61-1.23-0.71-2.59-0.48-3.77
								c0.22-1.18,0.61-2.24,1.19-3.08c0.58-0.84,1.32-1.42,2.01-1.81c0.7-0.39,1.36-0.6,1.9-0.73c0.54-0.13,0.97-0.18,1.26-0.21
								c0.15-0.01,0.26-0.01,0.33-0.01C89.28,132.75,89.31,132.75,89.31,132.76c0,0-0.04,0.01-0.11,0.01
								c-0.09,0.01-0.19,0.02-0.33,0.03c-0.29,0.04-0.71,0.1-1.25,0.24c-0.53,0.14-1.18,0.36-1.86,0.76
								c-0.68,0.39-1.39,0.97-1.95,1.79c-0.56,0.82-0.93,1.87-1.14,3.02c-0.22,1.15-0.11,2.46,0.49,3.65
								c0.29,0.6,0.7,1.15,1.08,1.75c0.38,0.59,0.79,1.19,1.17,1.83c0.74,1.27,1.47,2.7,1.53,4.34l-0.12-0.11
								c1.02-0.02,2.11-0.03,3.2-0.05c1.05-0.02,2.08-0.03,3.05-0.05l-0.11,0.1c0.21-1.6,0.68-3.09,1.28-4.45
								c0.3-0.68,0.66-1.33,1.01-1.94c0.35-0.61,0.64-1.24,0.86-1.87c0.45-1.26,0.58-2.56,0.34-3.72c-0.25-1.15-0.81-2.14-1.42-2.92
								c-0.63-0.77-1.36-1.33-2.07-1.68c-0.71-0.35-1.38-0.51-1.92-0.61c-0.55-0.08-0.98-0.11-1.27-0.1c-0.14,0-0.25-0.01-0.33-0.01
								C89.35,132.76,89.31,132.76,89.31,132.76z"/>
						</g>
					</g>
					<g>
						<g>
							<path style="fill:#FFFFFF;" d="M90.9,149.93c0,0-0.01-0.03-0.02-0.1c-0.01-0.07-0.03-0.16-0.05-0.29
								c-0.04-0.26-0.1-0.63-0.17-1.1c-0.14-0.96-0.34-2.35-0.48-4.08c-0.03-0.43-0.06-0.89-0.08-1.36
								c-0.02-0.47-0.04-0.97-0.01-1.48c0.03-0.51,0.11-1.05,0.35-1.55c0.24-0.49,0.63-0.96,1.18-1.18
								c0.54-0.23,1.24-0.11,1.68,0.32c0.22,0.22,0.37,0.53,0.36,0.85c0,0.32-0.12,0.63-0.32,0.89c-0.19,0.26-0.46,0.46-0.74,0.6
								c-0.29,0.14-0.6,0.24-0.92,0.31c-0.63,0.13-1.29,0.21-1.95,0.23c-0.66,0.01-1.32,0-1.96-0.1c-0.32-0.05-0.64-0.14-0.93-0.27
								c-0.29-0.13-0.56-0.32-0.78-0.55c-0.22-0.23-0.38-0.52-0.45-0.83c-0.07-0.31-0.02-0.64,0.11-0.92
								c0.13-0.28,0.36-0.52,0.65-0.63c0.29-0.12,0.61-0.08,0.88,0.04c0.27,0.12,0.49,0.32,0.66,0.56c0.16,0.24,0.26,0.5,0.33,0.77
								c0.13,0.54,0.12,1.07,0.16,1.58c0.05,1.02,0.1,1.97,0.15,2.83c0.09,1.73,0.16,3.13,0.21,4.1c0.02,0.48,0.04,0.86,0.05,1.12
								c0,0.12,0.01,0.22,0.01,0.29c0,0.07,0,0.1,0,0.1s-0.01-0.03-0.01-0.1c0-0.07-0.01-0.17-0.02-0.29
								c-0.02-0.26-0.04-0.63-0.07-1.11c-0.06-0.97-0.14-2.37-0.24-4.1c-0.05-0.87-0.1-1.81-0.16-2.83
								c-0.03-0.51-0.03-1.04-0.16-1.56c-0.06-0.26-0.16-0.52-0.32-0.74c-0.16-0.22-0.37-0.41-0.62-0.53
								c-0.25-0.12-0.55-0.14-0.81-0.04c-0.26,0.1-0.47,0.32-0.6,0.59c-0.13,0.26-0.17,0.57-0.1,0.86c0.06,0.29,0.22,0.56,0.43,0.78
								c0.42,0.46,1.03,0.69,1.66,0.79c0.63,0.1,1.29,0.11,1.95,0.09c0.66-0.02,1.31-0.09,1.93-0.22c0.31-0.07,0.62-0.16,0.9-0.3
								c0.28-0.14,0.53-0.33,0.71-0.57c0.18-0.24,0.3-0.53,0.3-0.83c0.01-0.3-0.13-0.58-0.33-0.78c-0.42-0.41-1.07-0.53-1.59-0.3
								c-0.52,0.21-0.91,0.66-1.14,1.14c-0.23,0.48-0.31,1.01-0.35,1.51c-0.03,0.51-0.01,1,0,1.47c0.01,0.47,0.04,0.93,0.07,1.36
								c0.13,1.73,0.33,3.12,0.45,4.08c0.06,0.48,0.12,0.85,0.15,1.11c0.02,0.12,0.03,0.22,0.04,0.29
								C90.9,149.9,90.9,149.93,90.9,149.93z"/>
						</g>
					</g>
					<g>
						<g>
							<path style="fill:#FFFFFF;" d="M86.83,150.1c0.02,0.01,0.04,0.38,0.08,1.03c0.04,0.75,0.08,1.64,0.14,2.68l-0.03-0.07
								c0.62,0.72,1.32,1.53,2.08,2.4L89,156.09c0.76-0.04,1.57-0.09,2.41-0.14l-0.1,0.05c0.39-0.47,0.79-0.96,1.2-1.46
								c0.2-0.25,0.4-0.49,0.6-0.73l-0.03,0.09c-0.03-1.41-0.06-2.75-0.09-3.96l0.13,0.12c-1.75,0.02-3.27,0.04-4.5,0.05
								c-0.49,0-0.92,0-1.3,0C87.01,150.11,86.84,150.11,86.83,150.1c-0.01-0.01,0.14-0.02,0.43-0.04c0.37-0.02,0.79-0.04,1.27-0.07
								c1.24-0.05,2.79-0.11,4.58-0.18l0.13-0.01l0,0.13c0.04,1.22,0.08,2.55,0.12,3.96l0,0.05l-0.03,0.04
								c-0.2,0.24-0.4,0.49-0.6,0.73c-0.41,0.5-0.81,0.99-1.2,1.46l-0.04,0.05l-0.06,0c-0.84,0.04-1.65,0.08-2.41,0.12l-0.07,0
								l-0.04-0.05c-0.74-0.89-1.43-1.71-2.04-2.43l-0.02-0.03l0-0.04c-0.01-1.07-0.02-1.98-0.03-2.75
								C86.81,150.42,86.81,150.08,86.83,150.1z"/>
						</g>
					</g>
					<g>
						<g>
							<path style="fill:#FFFFFF;" d="M93.04,153.58c0,0.01-0.08-0.03-0.23-0.1c-0.14-0.07-0.36-0.16-0.62-0.25
								c-0.53-0.19-1.31-0.36-2.17-0.33c-0.86,0.03-1.63,0.25-2.15,0.46c-0.26,0.11-0.47,0.21-0.61,0.28
								c-0.14,0.07-0.22,0.12-0.22,0.11c0,0,0.07-0.06,0.2-0.14c0.14-0.08,0.34-0.2,0.6-0.31c0.52-0.24,1.29-0.47,2.17-0.5
								c0.88-0.03,1.67,0.16,2.2,0.36c0.27,0.1,0.48,0.2,0.62,0.28C92.97,153.53,93.04,153.57,93.04,153.58z"/>
						</g>
					</g>
					<g>
						<g>
							<path style="fill:#FFFFFF;" d="M93.04,152.62c0,0.01-0.08-0.03-0.23-0.1c-0.14-0.07-0.36-0.16-0.62-0.25
								c-0.53-0.19-1.31-0.36-2.17-0.33c-0.86,0.03-1.63,0.25-2.15,0.46c-0.26,0.11-0.47,0.21-0.61,0.28
								c-0.14,0.07-0.22,0.12-0.22,0.11c0,0,0.07-0.06,0.2-0.14c0.14-0.08,0.34-0.2,0.6-0.31c0.52-0.24,1.29-0.47,2.17-0.5
								c0.88-0.03,1.67,0.16,2.2,0.36c0.27,0.1,0.48,0.2,0.62,0.28C92.97,152.56,93.04,152.61,93.04,152.62z"/>
						</g>
					</g>
					<g>
						<g>
							<path style="fill:#FFFFFF;" d="M92.98,151.7c0,0.01-0.08-0.03-0.23-0.1c-0.14-0.07-0.36-0.16-0.62-0.25
								c-0.53-0.19-1.31-0.36-2.17-0.33c-0.86,0.03-1.63,0.25-2.15,0.46c-0.26,0.11-0.47,0.21-0.61,0.28
								c-0.14,0.07-0.22,0.12-0.22,0.11c0-0.01,0.07-0.06,0.2-0.14c0.14-0.08,0.34-0.2,0.6-0.31c0.52-0.24,1.29-0.47,2.17-0.5
								c0.88-0.03,1.67,0.16,2.2,0.36c0.27,0.1,0.48,0.2,0.62,0.28C92.91,151.65,92.99,151.7,92.98,151.7z"/>
						</g>
					</g>
				</g>
			</g>
		</g>
		<g>
			<g>
				<g>
					<path style="fill:#EBEBEB;" d="M39.64,88.96c0,0,0.21,24.66,1.46,32.18l30.92-1.46c0,0-2.72-24.24-1.67-30.72H39.64z"/>
				</g>
				<g>
					<g>
						<path style="fill:#FFFFFF;" d="M65.7,99.32c0.01,0.17-4.63,0.58-10.36,0.93c-5.73,0.34-10.38,0.49-10.39,0.32
							c-0.01-0.17,4.63-0.58,10.36-0.93C61.03,99.3,65.69,99.15,65.7,99.32z"/>
					</g>
				</g>
				<g>
					<g>
						<path style="fill:#FFFFFF;" d="M65.7,104.54c0.01,0.17-4.63,0.58-10.36,0.93c-5.73,0.34-10.38,0.49-10.39,0.32
							c-0.01-0.17,4.63-0.58,10.36-0.93C61.04,104.52,65.69,104.37,65.7,104.54z"/>
					</g>
				</g>
				<g>
					<g>
						<path style="fill:#FFFFFF;" d="M60.45,109.67c0.01,0.17-2.63,0.46-5.89,0.66c-3.27,0.2-5.92,0.22-5.93,0.05
							c-0.01-0.17,2.63-0.46,5.89-0.66C57.78,109.53,60.44,109.5,60.45,109.67z"/>
					</g>
				</g>
			</g>
		</g>
		<g>
			<g>
				<g>
					<path style="fill:#EBEBEB;" d="M38.18,161.5c0,0,0.21,24.66,1.46,32.18l30.92-1.46c0,0-2.72-24.24-1.67-30.72H38.18z"/>
				</g>
				<g>
					<g>
						<path style="fill:#FFFFFF;" d="M64.23,171.86c0.01,0.17-4.63,0.58-10.36,0.93c-5.73,0.34-10.38,0.49-10.39,0.32
							c-0.01-0.17,4.63-0.58,10.36-0.93C59.57,171.84,64.22,171.69,64.23,171.86z"/>
					</g>
				</g>
				<g>
					<g>
						<path style="fill:#FFFFFF;" d="M64.24,177.08c0.01,0.17-4.63,0.58-10.36,0.93c-5.73,0.34-10.38,0.49-10.39,0.32
							c-0.01-0.17,4.63-0.58,10.36-0.93C59.58,177.06,64.23,176.91,64.24,177.08z"/>
					</g>
				</g>
				<g>
					<g>
						<path style="fill:#FFFFFF;" d="M58.98,182.21c0.01,0.17-2.63,0.46-5.89,0.66c-3.27,0.2-5.92,0.22-5.93,0.05
							c-0.01-0.17,2.63-0.46,5.89-0.66C56.32,182.06,58.97,182.04,58.98,182.21z"/>
					</g>
				</g>
			</g>
		</g>
		<g>
			<g>
				<polygon style="fill:#EBEBEB;" points="122.69,95.5 125.75,166.61 214.53,167.68 210.54,96.44 				"/>
			</g>
			<g>
				<g>
					<g>
						<rect x="121.66" y="94.99" style="fill:#F5F5F5;" width="88.19" height="66.59"/>
					</g>
					<g>
						<g>
							<path style="fill:#E0E0E0;" d="M209.85,161.58c0,0-0.02-0.43-0.03-1.24c-0.01-0.82-0.02-2.01-0.03-3.55
								c-0.01-3.12-0.04-7.67-0.06-13.47c-0.03-11.61-0.08-28.23-0.13-48.33l0.25,0.25c-24.93,0.02-55.36,0.03-88.18,0.05h-0.01
								l0.3-0.3c-0.01,23.95-0.02,46.62-0.03,66.59l-0.27-0.27c26.09,0.06,48.1,0.1,63.61,0.14c7.76,0.03,13.88,0.06,18.09,0.07
								c2.09,0.01,3.7,0.03,4.81,0.03c0.53,0.01,0.95,0.01,1.24,0.02C209.7,161.57,209.85,161.58,209.85,161.58s-0.13,0.01-0.4,0.02
								c-0.29,0-0.69,0.01-1.21,0.02c-1.1,0.01-2.69,0.02-4.75,0.03c-4.2,0.02-10.3,0.04-18.03,0.07
								c-15.55,0.03-37.62,0.08-63.79,0.14l-0.27,0l0-0.27c-0.01-19.96-0.02-42.64-0.03-66.59l0-0.3h0.3h0.01
								c32.82,0.02,63.25,0.04,88.18,0.05l0.25,0l0,0.25c-0.05,20.17-0.1,36.83-0.13,48.48c-0.03,5.78-0.05,10.31-0.06,13.42
								c-0.01,1.52-0.02,2.69-0.03,3.51C209.86,161.18,209.85,161.58,209.85,161.58z"/>
						</g>
					</g>
				</g>
				<g>
					<g>
						<rect x="132.3" y="109.1" style="fill:#F5F5F5;" width="35.75" height="44.99"/>
					</g>
					<g>
						<g>
							<path style="fill:#E0E0E0;" d="M168.05,154.09c-0.01-0.01-0.01-0.08-0.02-0.23c0-0.17-0.01-0.38-0.02-0.64
								c-0.01-0.59-0.02-1.41-0.03-2.46c-0.02-2.17-0.04-5.29-0.07-9.23c-0.03-7.92-0.08-19.13-0.14-32.43l0.27,0.27
								c-10.65,0.01-22.84,0.02-35.74,0.03c-0.07,0.06,0.57-0.57,0.3-0.29v0.01v0.02v0.05v0.1v0.2v0.39l0,0.78l0,1.55
								c0,1.03,0,2.06,0,3.08c0,2.04,0,4.06,0,6.06c0,4-0.01,7.89-0.01,11.67c-0.01,7.56-0.03,14.64-0.04,21.07l-0.25-0.25
								c10.73,0.05,19.62,0.1,25.88,0.13c3.1,0.03,5.55,0.05,7.26,0.06c0.82,0.01,1.46,0.02,1.93,0.03
								C167.81,154.07,168.05,154.09,168.05,154.09c0.01,0.01-0.2,0.02-0.62,0.03c-0.46,0.01-1.08,0.02-1.88,0.03
								c-1.7,0.02-4.13,0.04-7.21,0.06c-6.3,0.03-15.25,0.08-26.04,0.13l-0.25,0l0-0.25c-0.01-6.43-0.02-13.51-0.04-21.07
								c0-3.78-0.01-7.68-0.01-11.67c0-2,0-4.02,0-6.06c0-1.02,0-2.05,0-3.08l0-1.55l0-0.78v-0.39v-0.2v-0.1v-0.05v-0.02v-0.01
								c-0.27,0.27,0.37-0.38,0.31-0.31c12.9,0.01,25.09,0.02,35.74,0.03l0.27,0l0,0.27c-0.06,13.38-0.1,24.65-0.14,32.61
								c-0.03,3.91-0.06,7.01-0.07,9.17c-0.01,1.03-0.02,1.83-0.03,2.41c-0.01,0.25-0.01,0.45-0.02,0.61
								C168.06,154.02,168.05,154.09,168.05,154.09z"/>
						</g>
					</g>
				</g>
				<g>
					<g>
						<rect x="133.67" y="98.8" style="fill:#F5F5F5;" width="68.51" height="6.48"/>
					</g>
					<g>
						<g>
							<path style="fill:#E0E0E0;" d="M202.18,105.28c-0.01-0.01-0.02-0.16-0.02-0.44c-0.01-0.32-0.02-0.73-0.03-1.26
								c-0.02-1.13-0.04-2.73-0.07-4.78l0.12,0.12c-11.55,0.11-37.89,0.18-68.51,0.18h0c0.61-0.61,0.17-0.17,0.3-0.3v0v0.01v0.01
								v0.03v0.05V99v0.21v0.42l0,0.83c0,0.55,0,1.1,0,1.64c0,1.09,0,2.15,0,3.18l-0.3-0.3c19.16,0.05,36.23,0.1,48.56,0.13
								c6.15,0.04,11.11,0.07,14.58,0.09c1.69,0.02,3.02,0.03,3.97,0.04c0.43,0.01,0.77,0.02,1.04,0.02
								C202.05,105.27,202.17,105.28,202.18,105.28c0.01,0.01-0.1,0.01-0.33,0.02c-0.26,0.01-0.59,0.01-1,0.02
								c-0.93,0.01-2.23,0.02-3.9,0.04c-3.45,0.02-8.39,0.05-14.5,0.09c-12.38,0.03-29.54,0.08-48.78,0.13l-0.3,0l0-0.3
								c0-1.03,0-2.1,0-3.18c0-0.54,0-1.09,0-1.64l0-0.83v-0.42V99v-0.1v-0.05v-0.03v-0.01V98.8v0c0.14-0.14-0.3,0.3,0.3-0.3h0
								c30.62,0,56.95,0.07,68.51,0.18l0.12,0l0,0.12c-0.03,2.09-0.05,3.71-0.07,4.85c-0.01,0.51-0.02,0.92-0.03,1.23
								C202.19,105.16,202.19,105.29,202.18,105.28z"/>
						</g>
					</g>
				</g>
				<g>
					<g>
						<rect x="172.42" y="109.1" style="fill:#F5F5F5;" width="29.75" height="27.12"/>
					</g>
					<g>
						<g>
							<path style="fill:#E0E0E0;" d="M202.18,136.21c-0.01-0.01-0.02-0.19-0.03-0.52c-0.01-0.38-0.02-0.86-0.03-1.47
								c-0.02-1.33-0.04-3.18-0.07-5.53c-0.03-4.77-0.08-11.51-0.13-19.59l0.26,0.26c-8.59,0.01-18.81,0.03-29.75,0.05
								c-0.07,0.06,0.57-0.57,0.3-0.3v0.01v0.01v0.03v0.06v0.12v0.23v0.46l0,0.92c0,0.61,0,1.22,0,1.83c0,1.21,0,2.42,0,3.61
								c0,2.38,0,4.72-0.01,7c-0.01,4.55-0.02,8.86-0.03,12.84l-0.27-0.27c8.82,0.06,16.22,0.1,21.46,0.13
								c2.58,0.03,4.63,0.05,6.09,0.07c0.68,0.01,1.21,0.02,1.62,0.03C201.97,136.19,202.17,136.2,202.18,136.21
								c0.01,0.01-0.17,0.02-0.52,0.03c-0.4,0.01-0.92,0.02-1.57,0.03c-1.44,0.02-3.47,0.04-6.03,0.07
								c-5.29,0.03-12.74,0.08-21.63,0.13l-0.27,0l0-0.27c-0.01-3.98-0.02-8.29-0.03-12.84c0-2.28,0-4.61-0.01-7
								c0-1.19,0-2.4,0-3.61c0-0.61,0-1.22,0-1.83l0-0.92v-0.46v-0.23v-0.12v-0.06v-0.03v-0.01v-0.01
								c-0.27,0.27,0.37-0.37,0.31-0.31c10.94,0.02,21.16,0.03,29.75,0.05l0.26,0l0,0.26c-0.05,8.15-0.1,14.95-0.13,19.76
								c-0.03,2.32-0.05,4.16-0.07,5.47c-0.01,0.59-0.02,1.06-0.03,1.42C202.2,136.06,202.19,136.22,202.18,136.21z"/>
						</g>
					</g>
				</g>
				<g>
					<g>
						<rect x="172.42" y="140.46" style="fill:#F5F5F5;" width="29.75" height="13.62"/>
					</g>
					<g>
						<g>
							<path style="fill:#E0E0E0;" d="M202.18,154.09c-0.02-0.02-0.03-0.36-0.05-0.99c-0.01-0.69-0.03-1.6-0.05-2.74
								c-0.03-2.4-0.07-5.77-0.12-9.9l0.22,0.22c-7.76,0.02-18.23,0.05-29.75,0.08c-0.27,0.27,0.37-0.37,0.3-0.3v0v0.01v0.01v0.03
								v0.06v0.11v0.22l0,0.45l0,0.89c0,0.59,0,1.18,0,1.77c0,1.17,0,2.33,0,3.47c0,2.28-0.01,4.49-0.01,6.6l-0.29-0.29
								c8.58,0.06,15.97,0.1,21.28,0.14c2.6,0.03,4.69,0.06,6.2,0.08c0.69,0.01,1.24,0.03,1.67,0.04
								C201.96,154.06,202.17,154.07,202.18,154.09c0.01,0.01-0.17,0.02-0.53,0.04c-0.42,0.01-0.95,0.02-1.62,0.04
								c-1.49,0.02-3.56,0.05-6.13,0.08c-5.36,0.03-12.81,0.08-21.47,0.14l-0.29,0l0-0.29c0-2.11-0.01-4.32-0.01-6.6
								c0-1.14,0-2.3,0-3.47c0-0.59,0-1.18,0-1.77l0-0.89l0-0.45v-0.22v-0.11v-0.06v-0.03v-0.01v-0.01v0
								c-0.07,0.06,0.57-0.58,0.31-0.3c11.52,0.03,21.99,0.06,29.75,0.08l0.22,0l0,0.22c-0.05,4.19-0.09,7.6-0.12,10.03
								c-0.02,1.12-0.04,2.01-0.06,2.69C202.21,153.79,202.19,154.1,202.18,154.09z"/>
						</g>
					</g>
				</g>
				<g>
					<g>
						<path style="fill:#FFFFFF;" d="M167.16,109.17c-11.07,15.29-23.8,29.63-34.86,44.91"/>
					</g>
					<g>
						<g>
							<path style="fill:#E0E0E0;" d="M132.3,154.09c-0.02-0.01,0.08-0.18,0.29-0.5c0.25-0.37,0.56-0.82,0.93-1.37
								c0.82-1.19,2.04-2.87,3.58-4.94c3.07-4.13,7.47-9.72,12.39-15.84c4.92-6.12,9.37-11.66,12.52-15.72
								c1.53-1.98,2.79-3.6,3.73-4.82c0.41-0.52,0.75-0.95,1.03-1.3c0.24-0.29,0.37-0.44,0.39-0.43c0.02,0.01-0.08,0.18-0.29,0.5
								c-0.25,0.37-0.56,0.82-0.93,1.37c-0.82,1.19-2.04,2.87-3.58,4.94c-3.07,4.13-7.47,9.72-12.39,15.84
								c-4.92,6.11-9.37,11.66-12.52,15.72c-1.53,1.98-2.79,3.6-3.73,4.82c-0.41,0.52-0.75,0.95-1.03,1.3
								C132.45,153.95,132.31,154.1,132.3,154.09z"/>
						</g>
					</g>
				</g>
				<g>
					<g>
						<line style="fill:#FFFFFF;" x1="132.3" y1="109.1" x2="168.05" y2="154.09"/>
					</g>
					<g>
						<g>
							<path style="fill:#E0E0E0;" d="M168.05,154.09c-0.13,0.1-8.24-9.88-18.11-22.31c-9.87-12.43-17.77-22.58-17.64-22.68
								c0.13-0.1,8.24,9.88,18.11,22.31C160.28,143.82,168.18,153.98,168.05,154.09z"/>
						</g>
					</g>
				</g>
			</g>
			<g>
				<path style="fill:#E0E0E0;" d="M125.75,109.19c0,3.09-2.5,5.59-5.59,5.59c-3.09,0-5.59-2.5-5.59-5.59c0-3.09,2.5-5.59,5.59-5.59
					C123.25,103.6,125.75,106.1,125.75,109.19z"/>
			</g>
			<g>
				<path style="fill:#E0E0E0;" d="M217.22,95.62c0,3.09-2.5,5.59-5.59,5.59c-3.09,0-5.59-2.5-5.59-5.59c0-3.09,2.5-5.59,5.59-5.59
					C214.71,90.02,217.22,92.53,217.22,95.62z"/>
			</g>
		</g>
	</g>
	<g>
		<g>
			<g>
				<g>
					<g>
						<g>
							<rect x="371.54" y="134.57" style="fill:#E0E0E0;" width="64.45" height="93.41"/>
						</g>
					</g>
				</g>
			</g>
		</g>
		<g>
			<g>
				<g>
					<g>
						<g>
							<rect x="368.31" y="134.57" style="fill:#F5F5F5;" width="64.45" height="93.41"/>
						</g>
					</g>
				</g>
			</g>
		</g>
		<g>
			<g>
				<g>
					<g>
						<g>
							<g>
								<rect x="376.32" y="144.69" style="fill:#FFFFFF;" width="48.43" height="73.18"/>
							</g>
						</g>
					</g>
				</g>
			</g>
			<g>
				<g>
					<g>
						<g>
							<g>
								<g>
									<path style="fill:#E0E0E0;" d="M424.75,217.87c0,0-0.01-0.12-0.01-0.36c0-0.24-0.01-0.59-0.01-1.04
										c0-0.92-0.01-2.27-0.02-4.01c-0.01-3.51-0.02-8.62-0.04-15.07c-0.02-12.9-0.05-31.18-0.08-52.7l0.16,0.16
										c-14.8,0-31.19,0.01-48.43,0.01h-0.01l0.18-0.18c-0.01,27.61-0.03,53.06-0.04,73.18l-0.14-0.14
										c14.75,0.03,26.84,0.06,35.25,0.07c4.21,0.02,7.49,0.03,9.74,0.04c1.12,0.01,1.97,0.01,2.56,0.02
										C424.45,217.86,424.75,217.87,424.75,217.87s-0.29,0.01-0.85,0.01c-0.58,0-1.43,0.01-2.53,0.02
										c-2.24,0.01-5.51,0.02-9.71,0.04c-8.43,0.02-20.55,0.04-35.34,0.07l-0.14,0v-0.14c-0.01-20.12-0.02-45.57-0.04-73.18
										l0-0.18h0.18h0.01c17.23,0.01,33.63,0.01,48.43,0.01h0.16l0,0.16c-0.03,21.56-0.06,39.87-0.08,52.8
										c-0.02,6.44-0.03,11.54-0.04,15.04c-0.01,1.73-0.02,3.07-0.02,3.98c0,0.44-0.01,0.78-0.01,1.02
										C424.76,217.75,424.75,217.87,424.75,217.87z"/>
								</g>
							</g>
						</g>
					</g>
				</g>
			</g>
		</g>
		<g>
			<g>
				<g>
					<g>
						<g>
							<g>
								<path style="fill:none;stroke:#FBFBFB;stroke-width:0.25;stroke-miterlimit:10;" d="M422.51,145.17"/>
							</g>
						</g>
					</g>
				</g>
			</g>
		</g>
		<g>
			<g>
				<g>
					<g>
						<g>
							<g>
								<path style="fill:#E0E0E0;" d="M432.94,134.57c0.04,0.03-0.4,0.67-1.15,1.67c-0.75,1-1.81,2.36-3.02,3.84
									c-1.21,1.47-2.35,2.78-3.19,3.7c-0.84,0.93-1.38,1.48-1.42,1.45c-0.04-0.03,0.44-0.64,1.23-1.61
									c0.86-1.05,1.93-2.34,3.1-3.76c1.17-1.43,2.24-2.72,3.1-3.77C432.39,135.12,432.9,134.54,432.94,134.57z"/>
							</g>
						</g>
					</g>
				</g>
			</g>
		</g>
		<g>
			<g>
				<g>
					<g>
						<g>
							<g>
								<path style="fill:#FFFFFF;" d="M425,217.63c2.41,3.83,5.25,7.38,8.45,10.56"/>
							</g>
						</g>
					</g>
				</g>
			</g>
			<g>
				<g>
					<g>
						<g>
							<g>
								<g>
									<path style="fill:#E0E0E0;" d="M433.44,228.2c-0.03,0.03-0.61-0.47-1.47-1.34c-0.87-0.87-2.01-2.13-3.19-3.59
										c-1.17-1.47-2.14-2.86-2.81-3.9c-0.66-1.04-1.02-1.71-0.98-1.73c0.04-0.03,0.48,0.6,1.19,1.59c0.71,1,1.71,2.36,2.87,3.82
										c1.17,1.46,2.28,2.73,3.09,3.64C432.97,227.6,433.48,228.16,433.44,228.2z"/>
								</g>
							</g>
						</g>
					</g>
				</g>
			</g>
		</g>
		<g>
			<g>
				<g>
					<g>
						<g>
							<g>
								<path style="fill:#FFFFFF;" d="M368.3,227.91c2.81-3.47,5.63-6.94,8.44-10.42"/>
							</g>
						</g>
					</g>
				</g>
			</g>
			<g>
				<g>
					<g>
						<g>
							<g>
								<g>
									<path style="fill:#E0E0E0;" d="M376.74,217.49c0.08,0.06-1.75,2.44-4.08,5.32c-2.33,2.88-4.28,5.16-4.36,5.1
										c-0.08-0.06,1.75-2.44,4.08-5.32C374.72,219.72,376.67,217.43,376.74,217.49z"/>
								</g>
							</g>
						</g>
					</g>
				</g>
			</g>
		</g>
		<g>
			<g>
				<g>
					<g>
						<g>
							<g>
								<path style="fill:#E0E0E0;" d="M368.31,134.57c0.08-0.06,1.91,2.13,4.1,4.9c2.19,2.77,3.9,5.06,3.82,5.12
									c-0.08,0.06-1.91-2.13-4.1-4.9C369.95,136.92,368.23,134.63,368.31,134.57z"/>
							</g>
						</g>
					</g>
				</g>
			</g>
		</g>
		<g>
			<g>
				<g>
					<g>
						<g>
							<rect x="393.44" y="159.54" style="fill:#E0E0E0;" width="16.22" height="46.05"/>
						</g>
					</g>
				</g>
			</g>
		</g>
	</g>
	<g>
		<g>
			<g>
				<g>
					
						<rect x="412.03" y="35.35" transform="matrix(1 -5.357791e-03 5.357791e-03 1 -0.3064 2.2331)" style="fill:#E0E0E0;" width="9.23" height="45.91"/>
				</g>
			</g>
		</g>
		<g>
			<g>
				<g>
					<g>
						
							<rect x="332.05" y="35.51" transform="matrix(1 -5.354392e-03 5.354392e-03 1 -0.2531 1.8426)" style="fill:#EBEBEB;" width="23.89" height="25.34"/>
					</g>
				</g>
			</g>
			<g>
				<g>
					<g>
						
							<rect x="355.83" y="35.39" transform="matrix(1 -5.354414e-03 5.354414e-03 1 -0.2521 1.9699)" style="fill:#F5F5F5;" width="23.89" height="25.34"/>
					</g>
				</g>
			</g>
			<g>
				<g>
					<g>
						<g>
							<path style="fill:#E0E0E0;" d="M332.02,42.58c15.88,0.13,31.79,0.04,47.67-0.22c0.33,0,0.32-0.51,0-0.51
								c-15.88-0.09-31.79-0.01-47.67,0.29C331.74,42.15,331.74,42.57,332.02,42.58L332.02,42.58z"/>
						</g>
					</g>
				</g>
			</g>
		</g>
		<g>
			<g>
				<g>
					<g>
						
							<rect x="317.14" y="60.49" transform="matrix(1 -5.359059e-03 5.359059e-03 1 -0.3746 1.8169)" style="fill:#EBEBEB;" width="43.41" height="20.65"/>
					</g>
				</g>
			</g>
			<g>
				<g>
					<g>
						
							<rect x="360.34" y="60.25" transform="matrix(1 -5.356509e-03 5.356509e-03 1 -0.3726 2.0474)" style="fill:#F5F5F5;" width="43.41" height="20.65"/>
					</g>
				</g>
			</g>
			<g>
				<g>
					<g>
						<g>
							<path style="fill:#E0E0E0;" d="M317.12,66.35c28.83,0.33,57.77,0.03,86.6-0.43c0.33-0.01,0.32-0.51,0-0.51
								c-28.84-0.15-57.77-0.14-86.6,0.5C316.83,65.92,316.84,66.34,317.12,66.35L317.12,66.35z"/>
						</g>
					</g>
				</g>
			</g>
		</g>
		<g>
			<g>
				<g>
					<rect x="300.88" y="81.25" style="fill:#E0E0E0;" width="168.16" height="7.4"/>
				</g>
			</g>
			<g>
				<g>
					<rect x="328.42" y="84.81" style="fill:#E0E0E0;" width="6.83" height="25.25"/>
				</g>
			</g>
			<g>
				<g>
					<rect x="430.32" y="84.81" style="fill:#E0E0E0;" width="6.83" height="25.25"/>
				</g>
			</g>
		</g>
		<g>
			<g>
				<g>
					
						<rect x="421.07" y="18.24" transform="matrix(1 -5.357783e-03 5.357783e-03 1 -0.2607 2.2815)" style="fill:#EBEBEB;" width="9.23" height="63.14"/>
				</g>
			</g>
		</g>
		<g>
			<g>
				<g>
					<g>
						
							<rect x="430.35" y="30" transform="matrix(1 -5.360371e-03 5.360371e-03 1 -0.2917 2.346)" style="fill:#F5F5F5;" width="14.33" height="51.16"/>
					</g>
				</g>
			</g>
			<g>
				<g>
					<g>
						<path style="fill:#E0E0E0;" d="M444.45,39.82c0,0.14-3.21,0.25-7.17,0.25c-3.96,0-7.17-0.11-7.17-0.25
							c0-0.14,3.21-0.25,7.17-0.25C441.24,39.57,444.45,39.69,444.45,39.82z"/>
					</g>
				</g>
			</g>
			<g>
				<g>
					<g>
						<path style="fill:#E0E0E0;" d="M444.45,37.67c0,0.14-3.21,0.25-7.17,0.25c-3.96,0-7.17-0.11-7.17-0.25
							c0-0.14,3.21-0.25,7.17-0.25C441.24,37.42,444.45,37.54,444.45,37.67z"/>
					</g>
				</g>
			</g>
			<g>
				<g>
					<g>
						<path style="fill:#E0E0E0;" d="M444.45,73.43c0,0.14-3.21,0.25-7.17,0.25c-3.96,0-7.17-0.11-7.17-0.25s3.21-0.25,7.17-0.25
							C441.24,73.18,444.45,73.29,444.45,73.43z"/>
					</g>
				</g>
			</g>
			<g>
				<g>
					<g>
						<path style="fill:#E0E0E0;" d="M444.45,71.28c0,0.14-3.21,0.25-7.17,0.25c-3.96,0-7.17-0.11-7.17-0.25
							c0-0.14,3.21-0.25,7.17-0.25C441.24,71.03,444.45,71.14,444.45,71.28z"/>
					</g>
				</g>
			</g>
			<g>
				<g>
					<g>
						<path style="fill:#E0E0E0;" d="M437.51,66.59c-0.14,0-0.25-5.16-0.25-11.53c0-6.37,0.11-11.53,0.25-11.53
							c0.14,0,0.25,5.16,0.25,11.53C437.76,61.43,437.65,66.59,437.51,66.59z"/>
					</g>
				</g>
			</g>
		</g>
		<g>
			<g>
				<g>
					<rect x="444.6" y="42.53" style="fill:#EBEBEB;" width="15.6" height="38.62"/>
				</g>
			</g>
			<g>
				<g>
					<path style="fill:#FAFAFA;" d="M452.85,71.13c-2.05,0-3.49-1.46-3.49-3.47c0-1.09,0.42-2.04,1.26-2.61l0.35,0.49
						c-0.7,0.5-1.03,1.26-1.03,2.12c0,1.62,1.16,2.8,2.89,2.8c1.74,0,2.89-1.18,2.89-2.8c0-0.86-0.33-1.62-1.03-2.12l0.36-0.49
						c0.83,0.57,1.26,1.51,1.26,2.61C456.33,69.67,454.89,71.13,452.85,71.13z"/>
				</g>
				<g>
					<path style="fill:#FAFAFA;" d="M455.45,64.1l-0.53-0.3c0.45-0.53,0.83-1.46,0.83-2.47c0-1.45-0.51-2.03-1.29-2.03
						c-2,0-0.53,4.55-3.22,4.55c-1.04,0-1.88-0.87-1.88-2.61c0-0.87,0.26-1.82,0.67-2.35l0.53,0.3c-0.42,0.58-0.62,1.33-0.62,2.07
						c0,1.34,0.55,1.93,1.29,1.93c2.07,0,0.61-4.55,3.22-4.55c1.12,0,1.88,0.96,1.88,2.71C456.33,62.48,455.95,63.56,455.45,64.1z"
						/>
				</g>
				<g>
					<path style="fill:#FAFAFA;" d="M455.45,57.81l-0.53-0.3c0.45-0.53,0.83-1.46,0.83-2.47c0-1.45-0.51-2.03-1.29-2.03
						c-2,0-0.53,4.55-3.22,4.55c-1.04,0-1.88-0.87-1.88-2.6c0-0.87,0.26-1.82,0.67-2.36l0.53,0.3c-0.42,0.58-0.62,1.33-0.62,2.07
						c0,1.34,0.55,1.93,1.29,1.93c2.07,0,0.61-4.55,3.22-4.55c1.12,0,1.88,0.96,1.88,2.71C456.33,56.19,455.95,57.27,455.45,57.81z"
						/>
				</g>
			</g>
		</g>
		<g>
			<g>
				<circle style="fill:#E0E0E0;" cx="425.38" cy="28.99" r="2.65"/>
			</g>
		</g>
		<g>
			<g>
				<rect x="424.56" y="36.28" style="fill:#E0E0E0;" width="1.64" height="37.56"/>
			</g>
		</g>
	</g>
	<g>
		<g>
			<path style="fill:#263238;" d="M488.39,473.23c0,0.16-106.33,0.29-237.46,0.29c-131.18,0-237.49-0.13-237.49-0.29
				c0-0.16,106.31-0.29,237.49-0.29C382.06,472.95,488.39,473.08,488.39,473.23z"/>
		</g>
	</g>
	<g>
		<g>
			<g>
				<g>
					<path style="fill:#FAFAFA;" d="M142.03,94.78c-17.67,27.79-16.51,66.31,2.79,92.99c12.87,17.78,32.17,29.7,47.5,45.42
						c15.33,15.71,26.97,38.87,18.88,59.28c-8.23,20.77-32.35,29.23-50.41,42.38c-19.67,14.33-33.49,36.47-37.72,60.44
						c-4.23,23.97,1.17,49.5,14.74,69.71h187.61c0,0,32.96-62.81-9.42-110.67c-42.37-47.87-65.13-48.65-63.56-80.04
						c1.57-31.39,23.54-41.59,36.1-53.36s73.76-39.23,37.66-126.15H142.03z"/>
				</g>
				<g>
					<g>
						<path style="fill:#263238;" d="M142.03,94.78c0,0,1.09-0.02,3.23-0.03c2.15-0.01,5.33-0.01,9.51-0.03
							c8.37-0.01,20.71-0.03,36.61-0.05c31.82-0.02,77.88-0.06,134.81-0.1h0.14l0.05,0.13c2.56,6.51,5.15,13.21,6.99,20.32
							c1.89,7.07,3.44,14.44,3.99,22.08c0.57,7.62,0.33,15.49-1.19,23.3c-1.57,7.79-4.36,15.51-8.48,22.65
							c-2.05,3.58-4.46,6.98-7.07,10.25c-2.64,3.26-5.55,6.32-8.64,9.25c-3.09,2.92-6.39,5.67-9.81,8.3
							c-3.41,2.64-6.98,5.14-10.46,7.77c-1.74,1.31-3.33,2.79-4.99,4.27c-1.67,1.45-3.39,2.85-5.12,4.23
							c-3.47,2.77-6.97,5.54-10.27,8.58c-6.67,5.97-12.31,13.42-15.41,22.1c-1.5,4.33-2.58,8.87-2.93,13.51
							c-0.09,1.16-0.25,2.32-0.29,3.48c-0.02,1.17-0.09,2.33-0.03,3.5c0.02,2.34,0.28,4.68,0.7,6.98c0.88,4.61,2.82,9.02,5.63,12.85
							c2.77,3.86,6.19,7.26,9.73,10.53c7.12,6.51,14.68,12.73,21.92,19.44c7.27,6.67,14.33,13.72,21.14,21.13
							c3.37,3.72,6.81,7.45,9.76,11.6c3.05,4.07,5.61,8.51,7.86,13.11c4.44,9.24,7.18,19.38,8.08,29.75
							c0.97,10.37,0.23,20.93-1.83,31.27c-1.02,5.18-2.37,10.3-4.03,15.34c-1.66,5.04-3.57,10.02-5.96,14.82l-0.08,0.15h-0.18
							c-1.52,0-3.18,0-4.83,0c-64.04,0-125.84-0.01-182.78-0.01h-0.15l-0.08-0.12c-8.94-13.42-14.25-28.84-15.71-44.28
							c-1.56-15.45,0.82-30.95,6.49-44.7c5.59-13.8,14.29-25.91,24.8-35.42c5.24-4.8,11.08-8.72,16.93-12.35
							c5.86-3.64,11.76-7,17.35-10.68c5.56-3.69,10.92-7.62,15.27-12.42c4.37-4.77,7.7-10.36,9.45-16.38
							c1.75-6.02,1.77-12.34,0.75-18.28c-1.04-5.97-3.14-11.61-5.8-16.81c-2.67-5.2-5.9-9.98-9.44-14.34
							c-3.54-4.38-7.47-8.26-11.43-11.92c-7.94-7.31-16.07-13.71-23.39-20.28c-3.66-3.28-7.14-6.59-10.33-9.99
							c-3.17-3.42-6.07-6.93-8.56-10.56c-5.02-7.25-8.47-14.88-10.73-22.25c-2.27-7.38-3.39-14.51-3.65-21.07
							c-0.15-1.64-0.09-3.25-0.09-4.81c0.02-1.57-0.03-3.1,0.14-4.59c0.11-1.49,0.23-2.94,0.34-4.36c0.17-1.41,0.4-2.77,0.59-4.1
							c1.65-10.63,4.86-18.39,7.36-23.36c0.6-1.26,1.13-2.37,1.7-3.27c0.54-0.91,0.99-1.68,1.35-2.3
							C141.66,95.39,142.03,94.78,142.03,94.78c-0.08,0.14-0.38,0.68-1.06,1.88c-0.35,0.62-0.79,1.39-1.32,2.3
							c-0.56,0.9-1.08,2.01-1.67,3.27c-2.47,4.98-5.64,12.74-7.26,23.35c-0.19,1.33-0.41,2.69-0.58,4.09
							c-0.11,1.41-0.21,2.86-0.32,4.35c-0.16,1.48-0.11,3.01-0.12,4.58c0,1.56-0.06,3.17,0.1,4.8c0.27,6.54,1.41,13.66,3.68,21.01
							c2.27,7.34,5.71,14.94,10.73,22.15c2.49,3.61,5.38,7.1,8.55,10.51c3.19,3.39,6.66,6.69,10.32,9.95
							c7.31,6.55,15.45,12.94,23.41,20.25c3.97,3.67,7.92,7.56,11.48,11.95c3.57,4.38,6.82,9.17,9.5,14.41
							c2.68,5.23,4.8,10.9,5.85,16.92c1.04,6,1.03,12.38-0.74,18.48c-1.76,6.09-5.14,11.76-9.54,16.57
							c-4.39,4.85-9.77,8.8-15.35,12.51c-5.6,3.69-11.51,7.06-17.35,10.7c-5.84,3.63-11.65,7.53-16.85,12.31
							c-10.45,9.47-19.1,21.52-24.65,35.25c-5.63,13.68-7.99,29.09-6.44,44.46c1.46,15.36,6.75,30.69,15.63,44.03l-0.23-0.12
							c56.94,0,118.74-0.01,182.78-0.01c1.65,0,3.31,0,4.83,0l-0.25,0.15c2.35-4.75,4.27-9.72,5.92-14.73
							c1.65-5.02,3-10.12,4.01-15.28c2.05-10.29,2.78-20.8,1.82-31.11c-0.89-10.31-3.62-20.38-8.02-29.56
							c-2.24-4.57-4.78-8.98-7.81-13.03c-2.93-4.12-6.34-7.84-9.71-11.55c-6.79-7.4-13.84-14.43-21.1-21.1
							c-7.23-6.71-14.77-12.91-21.91-19.45c-3.55-3.28-6.99-6.71-9.8-10.62c-2.85-3.88-4.83-8.38-5.72-13.06
							c-0.43-2.34-0.7-4.71-0.71-7.07c-0.06-1.18,0.01-2.36,0.04-3.54c0.04-1.18,0.2-2.34,0.29-3.51c0.36-4.68,1.45-9.26,2.97-13.64
							c3.14-8.77,8.84-16.3,15.56-22.3c3.33-3.05,6.84-5.83,10.3-8.6c1.73-1.38,3.45-2.78,5.11-4.22c1.63-1.45,3.27-2.96,5.02-4.28
							c3.5-2.65,7.05-5.13,10.46-7.77c3.41-2.62,6.7-5.36,9.78-8.27c3.08-2.91,5.98-5.95,8.6-9.19c2.59-3.26,4.99-6.63,7.03-10.19
							c4.1-7.09,6.88-14.76,8.44-22.5c1.51-7.77,1.77-15.59,1.2-23.18c-0.54-7.6-2.08-14.95-3.96-22
							c-1.82-7.08-4.4-13.77-6.96-20.27l0.19,0.13c-56.9-0.04-102.93-0.08-134.73-0.1c-15.91-0.02-28.26-0.04-36.64-0.05
							c-4.19-0.01-7.38-0.02-9.53-0.03C143.14,94.8,142.03,94.78,142.03,94.78z"/>
					</g>
				</g>
			</g>
			<g>
				<path style="fill:#E8505B;" d="M318.71,145.75c27.63,4.54-15.94,53.48-40.6,72.79c-14.28,11.18-29.61,23.31-36.4,40.13
					c-7.69,19.08-1.99,40.54-5.72,59.73c-0.62,3.19-5.33,2.69-5.28-0.56c0.18-12.6-0.15-25.2-2.24-37.6
					c-2.96-17.59-9.73-35-22.06-47.9c-10.07-10.53-23.27-17.52-34-27.36c-15.68-14.37-31.78-32.9-33.35-54.1
					c0,0,30.1-24.25,46.81-21.18c19.53,3.58,38.75,33.71,69,30.26C276,157.54,286.66,140.48,318.71,145.75z"/>
			</g>
			<g>
				<path style="fill:#E8505B;" d="M321.16,407.69c-0.7-6.91-2.54-14.73-8.67-17.99c-3.71-1.97-8.24-1.76-12.31-0.69
					c-4.07,1.07-7.89,2.92-11.93,4.12c-7.94,2.36-16.63,2.08-24.4-0.77c-7.5-2.75-13.93-7.73-20.89-11.65
					c-6.96-3.91-15.11-6.83-22.86-4.9c-13.36,3.33-20.32,19.42-33.53,23.3c-5.87,1.73-12.18,0.76-18.15-0.6
					c-5.97-1.35-11.96-3.09-18.08-2.86c-4.79,0.18-9.78,1.84-13.14,5.12l0.04-0.05c-0.03,0.03-0.06,0.07-0.1,0.11
					c-0.55,0.55-1.06,1.14-1.51,1.78c-4.1,5.46-4.75,12.81-3.49,19.48c1.41,7.47,4.9,14.37,8.65,20.99
					c4.41,7.79,9.42,15.55,16.71,20.75c9,6.41,20.31,1.99,31.32,2.85c25.69,2.03,53.32,3.41,79.01,1.42
					c13.57-1.05,26.29,0.42,37.06-7.91c7.58-5.86,12.5-14.68,14.88-23.96C322.14,426.96,322.13,417.22,321.16,407.69z"/>
			</g>
			<g style="opacity:0.24;">
				<g>
					<path d="M272.69,394.45c-1.45,2.22-2.07,5.2-0.67,7.45c1.4,2.25,3.29,4.3,3.89,6.89c0.95,4.06-1.49,8.02-3.31,11.77
						c-3.26,6.7-4.74,14.35-3.64,21.72c1.1,7.37,4.88,14.41,10.78,18.97c2.61,2.01,6,3.58,9.14,2.59c2.96-0.93,4.87-3.93,5.46-6.98
						c0.59-3.05,0.1-6.18-0.28-9.26c-1.79-14.29-1.43-28.84,1.09-43.02c0.42-2.37,0.82-5.08-0.68-6.96
						c-0.96-1.2-2.49-1.77-3.95-2.25C284.79,393.46,278.62,395.58,272.69,394.45"/>
				</g>
			</g>
			<g>
				<path style="fill:#263238;" d="M124.03,473.52c0,0-0.52-8.61,10.71-13.4h197.33c0,0,10.29,5.21,11.56,13.23L124.03,473.52z"/>
			</g>
			<g>
				<path style="fill:#263238;" d="M327.9,95.83c-0.1,0.05-0.21,0.1-0.31,0.14l-185.55-1.19c0,0-0.66-0.42-1.65-1.19
					c-5.29-4.13-2.32-12.63,4.39-12.57l180.09,1.45C332.3,82.53,334.62,92.65,327.9,95.83z"/>
			</g>
			<g style="opacity:0.24;">
				<g>
					<path d="M298.2,166.61c0.37,0.72-1.02,2.26-3.68,4.62c-2.67,2.36-6.56,5.61-11.52,9.6c-4.98,3.96-11.01,8.73-18.69,13.19
						c-3.85,2.22-8.13,4.24-12.82,5.88c-2.36,0.79-4.8,1.52-7.37,2.04c-2.55,0.55-5.22,0.91-7.96,1.04
						c-5.47,0.31-11.02-0.49-16-2.19c-4.95-1.72-9.16-4.13-12.85-6.56c-3.7-2.45-6.89-4.87-9.89-7.19
						c-2.99-2.32-5.72-4.56-8.16-6.67c-9.75-8.45-14.87-14.65-13.88-15.85c1.02-1.25,7.92,2.7,18.67,9.31
						c2.69,1.65,5.63,3.46,8.78,5.39c3.15,1.92,6.54,4.04,10,6c3.47,1.96,7.09,3.74,10.84,4.9c3.73,1.11,7.7,1.64,11.93,1.41
						c8.45-0.43,16.65-3.41,23.76-6.84c7.14-3.49,13.53-7.45,19.1-10.57c5.56-3.15,10.32-5.48,13.79-6.72
						C295.72,166.15,297.84,165.92,298.2,166.61z"/>
				</g>
			</g>
			<g>
				<path style="fill:#E8505B;" d="M230.85,341.4c2.04-0.72,4.47,1.33,4.11,3.46c-0.36,2.13-3.33,3.27-5.02,1.92
					c-1.69-1.35-1.24-4.5,0.75-5.32"/>
			</g>
			<g>
				<g>
					<path style="fill:#263238;" d="M164.49,197.32c-0.01,0.01-0.24-0.21-0.66-0.66c-0.45-0.49-1.04-1.15-1.8-1.97
						c-0.76-0.87-1.76-1.88-2.78-3.18c-1.04-1.29-2.21-2.75-3.5-4.36c-1.2-1.69-2.55-3.52-3.92-5.53c-0.65-1.03-1.32-2.1-2.01-3.2
						c-0.34-0.55-0.71-1.1-1.04-1.68c-0.32-0.59-0.64-1.18-0.97-1.79c-2.71-4.77-5.12-10.36-6.84-16.46
						c-1.72-6.1-2.52-12.14-2.59-17.64c0-1.37,0.07-2.71,0.1-4.01c0.03-0.65,0.02-1.29,0.08-1.92c0.07-0.63,0.13-1.24,0.2-1.85
						c0.14-1.21,0.24-2.39,0.4-3.51c0.2-1.11,0.4-2.18,0.58-3.21c0.31-2.05,0.86-3.85,1.25-5.45c0.21-0.8,0.38-1.54,0.59-2.22
						c0.22-0.67,0.42-1.28,0.6-1.83c0.36-1.06,0.64-1.9,0.85-2.53c0.2-0.58,0.31-0.87,0.33-0.87c0.02,0.01-0.06,0.32-0.22,0.91
						c-0.18,0.63-0.43,1.49-0.74,2.56c-0.17,0.56-0.35,1.17-0.55,1.84c-0.19,0.68-0.34,1.43-0.54,2.22c-0.36,1.6-0.87,3.4-1.16,5.45
						c-0.17,1.02-0.35,2.08-0.54,3.19c-0.15,1.12-0.23,2.29-0.36,3.49c-0.06,0.6-0.12,1.22-0.18,1.84
						c-0.06,0.62-0.04,1.26-0.07,1.91c-0.02,1.29-0.09,2.62-0.08,3.98c0.1,5.45,0.92,11.43,2.62,17.49
						c1.7,6.05,4.08,11.6,6.75,16.36c0.32,0.6,0.64,1.2,0.95,1.78c0.32,0.58,0.69,1.13,1.02,1.68c0.68,1.1,1.34,2.17,1.98,3.2
						c1.34,2.02,2.68,3.85,3.85,5.55c1.27,1.62,2.41,3.1,3.43,4.4c1,1.31,1.97,2.34,2.7,3.23c0.72,0.85,1.29,1.53,1.71,2.04
						C164.31,197.05,164.5,197.3,164.49,197.32z"/>
				</g>
			</g>
			<g>
				<g>
					<path style="fill:#263238;" d="M154.04,360.86c-0.01,0,0.06-0.13,0.21-0.36c0.16-0.26,0.38-0.6,0.65-1.03
						c0.3-0.46,0.66-1.02,1.08-1.67c0.22-0.33,0.45-0.69,0.69-1.07c0.27-0.36,0.59-0.73,0.91-1.13c0.65-0.8,1.37-1.68,2.16-2.64
						c0.85-0.91,1.82-1.86,2.84-2.9c2.09-2.02,4.62-4.18,7.56-6.36c5.84-4.43,13.38-8.83,21.55-13.97
						c4.06-2.61,8.32-5.36,12.36-8.71c4.04-3.32,7.94-7.15,11.09-11.72c6.22-9.25,8.75-19.96,8.97-29.54
						c0.25-9.65-1.8-18.24-4.22-25.09c-2.45-6.87-5.25-12.11-7.29-15.64c-1.02-1.77-1.86-3.12-2.43-4.02
						c-0.27-0.44-0.49-0.78-0.65-1.04c-0.14-0.24-0.21-0.36-0.2-0.36c0.01-0.01,0.09,0.11,0.25,0.33c0.17,0.25,0.4,0.58,0.7,1.01
						c0.61,0.89,1.48,2.22,2.53,3.97c2.1,3.5,4.97,8.72,7.48,15.61c2.48,6.87,4.59,15.51,4.37,25.24c-0.04,2.43-0.24,4.91-0.61,7.42
						c-0.35,2.52-0.88,5.06-1.61,7.6c-1.42,5.09-3.69,10.15-6.8,14.82c-3.2,4.63-7.14,8.5-11.21,11.83
						c-4.07,3.37-8.36,6.11-12.43,8.72c-8.2,5.12-15.74,9.48-21.59,13.84c-2.94,2.15-5.48,4.28-7.58,6.27
						c-1.02,1.02-2,1.95-2.86,2.85c-0.8,0.95-1.53,1.81-2.19,2.59c-0.33,0.39-0.65,0.75-0.92,1.11c-0.25,0.37-0.49,0.72-0.71,1.05
						c-0.44,0.64-0.81,1.19-1.12,1.64c-0.3,0.42-0.53,0.75-0.7,1C154.13,360.76,154.05,360.87,154.04,360.86z"/>
				</g>
			</g>
			<g>
				<g>
					<path style="fill:#263238;" d="M143.8,380.31c0.02,0.01-0.07,0.19-0.24,0.51c-0.21,0.38-0.47,0.84-0.78,1.4
						c-0.35,0.6-0.77,1.34-1.2,2.23c-0.43,0.89-0.98,1.87-1.45,3.03c-0.25,0.57-0.51,1.17-0.77,1.79c-0.27,0.62-0.48,1.3-0.74,1.98
						c-0.54,1.36-0.96,2.86-1.43,4.44c-0.85,3.17-1.56,6.72-1.92,10.49c-0.33,3.78-0.28,7.4-0.02,10.67
						c0.18,1.63,0.32,3.19,0.6,4.62c0.13,0.72,0.22,1.42,0.37,2.08c0.15,0.66,0.3,1.29,0.44,1.9c0.25,1.22,0.61,2.29,0.87,3.24
						c0.26,0.96,0.53,1.76,0.77,2.41c0.21,0.61,0.38,1.11,0.52,1.52c0.11,0.35,0.16,0.54,0.14,0.55c-0.02,0.01-0.1-0.17-0.25-0.5
						c-0.17-0.4-0.37-0.89-0.62-1.49c-0.27-0.64-0.58-1.44-0.87-2.39c-0.3-0.95-0.69-2.01-0.96-3.24c-0.15-0.61-0.31-1.25-0.48-1.91
						c-0.16-0.66-0.26-1.37-0.4-2.09c-0.3-1.44-0.46-3.01-0.66-4.66c-0.29-3.3-0.36-6.95-0.03-10.77c0.37-3.81,1.1-7.39,1.98-10.58
						c0.49-1.58,0.93-3.09,1.49-4.46c0.27-0.69,0.5-1.36,0.78-1.98c0.28-0.62,0.55-1.22,0.81-1.79c0.49-1.15,1.07-2.13,1.53-3.01
						c0.45-0.88,0.91-1.61,1.29-2.2c0.35-0.54,0.64-0.99,0.88-1.35C143.67,380.46,143.78,380.3,143.8,380.31z"/>
				</g>
			</g>
		</g>
		<g>
			<g>
				<path style="fill:#263238;" d="M279.91,406.77c0.01,0.01-0.07,0.06-0.22,0.16c-0.18,0.11-0.41,0.26-0.69,0.43
					c-0.65,0.39-1.54,0.93-2.67,1.6c-0.59,0.35-1.23,0.73-1.94,1.15c-0.72,0.4-1.53,0.77-2.39,1.21c-1.73,0.84-3.65,1.9-5.92,2.76
					c-1.12,0.46-2.3,0.94-3.52,1.44c-1.23,0.49-2.55,0.87-3.9,1.34c-2.68,0.98-5.65,1.68-8.75,2.48
					c-6.25,1.39-13.25,2.41-20.64,2.65c-7.4,0.15-14.44-0.5-20.76-1.57c-3.14-0.65-6.14-1.19-8.86-2.02
					c-1.37-0.39-2.71-0.71-3.96-1.13c-1.25-0.44-2.44-0.86-3.59-1.26c-2.31-0.74-4.29-1.7-6.06-2.44c-0.88-0.39-1.71-0.72-2.45-1.08
					c-0.73-0.38-1.39-0.73-2-1.05c-1.16-0.62-2.08-1.11-2.75-1.46c-0.29-0.16-0.52-0.29-0.71-0.39c-0.16-0.09-0.24-0.14-0.23-0.15
					c0-0.01,0.09,0.03,0.26,0.1c0.2,0.09,0.44,0.2,0.73,0.34c0.68,0.33,1.61,0.79,2.8,1.37c0.61,0.3,1.28,0.63,2.01,1
					c0.75,0.34,1.58,0.66,2.46,1.04c1.78,0.71,3.76,1.65,6.07,2.36c1.14,0.39,2.34,0.79,3.58,1.22c1.25,0.41,2.59,0.71,3.95,1.1
					c2.72,0.81,5.71,1.34,8.83,1.96c6.29,1.03,13.29,1.66,20.65,1.51c7.36-0.24,14.31-1.23,20.54-2.59
					c3.09-0.79,6.04-1.47,8.72-2.42c1.34-0.45,2.66-0.82,3.89-1.3c1.22-0.49,2.39-0.96,3.52-1.4c2.27-0.83,4.2-1.86,5.94-2.67
					c0.86-0.42,1.68-0.78,2.41-1.16c0.71-0.4,1.37-0.77,1.96-1.1c1.15-0.64,2.06-1.14,2.72-1.51c0.29-0.15,0.52-0.28,0.72-0.38
					C279.82,406.8,279.9,406.76,279.91,406.77z"/>
			</g>
		</g>
		<g>
			<g>
				<path style="fill:#263238;" d="M291.39,173.79c0.01,0.01-0.07,0.08-0.23,0.22c-0.19,0.15-0.43,0.35-0.72,0.59
					c-0.67,0.54-1.62,1.29-2.81,2.24c-2.45,1.94-5.99,4.75-10.46,8.09c-4.48,3.33-9.92,7.2-16.37,10.82
					c-3.26,1.74-6.73,3.52-10.55,4.85c-3.8,1.34-7.89,2.37-12.17,2.71c-8.6,0.58-16.75-1.6-23.39-4.86
					c-3.32-1.66-6.31-3.53-9.03-5.37c-2.69-1.9-5.14-3.73-7.31-5.49c-4.36-3.5-7.77-6.46-10.15-8.49c-1.16-1-2.07-1.79-2.72-2.35
					c-0.29-0.26-0.52-0.46-0.7-0.62c-0.16-0.14-0.23-0.22-0.23-0.23c0.01-0.01,0.1,0.05,0.26,0.18c0.19,0.15,0.43,0.34,0.73,0.58
					c0.67,0.54,1.6,1.3,2.79,2.27c2.42,1.98,5.87,4.89,10.25,8.34c2.18,1.74,4.64,3.55,7.33,5.42c2.72,1.82,5.7,3.66,9,5.29
					c6.58,3.21,14.64,5.34,23.11,4.77c4.22-0.33,8.26-1.34,12.02-2.66c3.78-1.31,7.23-3.07,10.48-4.79
					c6.44-3.58,11.88-7.41,16.39-10.69c4.5-3.3,8.08-6.06,10.57-7.94c1.22-0.92,2.19-1.64,2.88-2.16c0.31-0.23,0.56-0.41,0.76-0.55
					C291.29,173.84,291.38,173.78,291.39,173.79z"/>
			</g>
		</g>
		<g style="opacity:0.24;">
			<g>
				<path d="M192.11,416.02c5.22-4.03,12.55-3.05,19-1.7c6.45,1.36,12.95,3.56,19.47,2.65c4.92-0.69,9.43-3.11,14.29-4.16
					c4.85-1.05,10.74-0.27,13.43,3.9C236.94,423.65,213.31,423.41,192.11,416.02"/>
			</g>
		</g>
	</g>
	<g>
		<g>
			<g>
				<g>
					<g>
						<path style="fill:#E8505B;" d="M374.15,386.15l-23.71-26.55l-0.24,32.27l7.14,20.7l-70.92,12.3l-3.01-55.96l-5.11-42.97
							c-0.63-5.27,2.38-10.29,7.31-12.23l19.52-7.69l27.49,5.04l11.06,4.2c4.64,1.76,8.78,4.64,12.05,8.38l33.29,38.07"/>
					</g>
				</g>
				<g>
					<g>
						<path style="fill:#FFFFFF;" d="M348.78,353.25c0.01-0.11,1.56,0.12,4-0.28c2.42-0.38,5.76-1.56,8.54-4.11
							c2.77-2.56,4.22-5.8,4.79-8.18c0.59-2.4,0.49-3.97,0.6-3.97c0.03,0,0.09,0.38,0.1,1.09c0.01,0.7-0.06,1.73-0.31,2.97
							c-0.48,2.46-1.92,5.85-4.8,8.51c-2.88,2.65-6.38,3.81-8.87,4.09c-1.26,0.15-2.28,0.14-2.99,0.07
							C349.16,353.37,348.78,353.29,348.78,353.25z"/>
					</g>
				</g>
				<g>
					<g>
						<g>
							<path style="fill:#263238;" d="M350.86,390.49c0.17,0,0.21-11.18,0.1-24.96c-0.11-13.79-0.34-24.96-0.5-24.96
								c-0.17,0-0.21,11.18-0.1,24.97C350.46,379.32,350.69,390.5,350.86,390.49z"/>
						</g>
					</g>
				</g>
			</g>
			<g>
				<path style="fill:#E8505B;" d="M348.26,398.7l-42.85-17.25c-3.46-1.39-5.82-4.62-6.11-8.34l-3.14-41.08
					c0,0,0.37-17.47-10.54-18.32l-6.21,2.45c-8.02,4.26-10.01,15.95-8.92,24.96c1.55,12.82,2.2,30.96,3.94,42.08
					c1.42,9.1,6.63,17.1,15.54,19.45l52.78,11.43L348.26,398.7z"/>
			</g>
			<g>
				<g>
					<path style="fill:#263238;" d="M296.78,338.29c0.02,0,0.07,0.32,0.13,0.94c0.07,0.67,0.16,1.57,0.28,2.71
						c0.22,2.41,0.53,5.8,0.91,9.96c0.36,4.23,0.79,9.23,1.27,14.78c0.12,1.39,0.24,2.82,0.36,4.27c0.13,1.46,0.22,2.95,0.55,4.4
						c0.31,1.45,1.01,2.81,2.13,3.85c1.11,1.04,2.5,1.8,3.95,2.46c11.82,5.11,22.71,9.33,30.61,12.3c3.92,1.45,7.12,2.62,9.39,3.46
						c1.07,0.39,1.92,0.71,2.55,0.94c0.58,0.22,0.88,0.35,0.88,0.36c-0.01,0.02-0.32-0.07-0.92-0.25c-0.64-0.21-1.5-0.49-2.59-0.84
						c-2.24-0.74-5.48-1.86-9.45-3.29c-7.95-2.87-18.86-7.03-30.71-12.15c-1.47-0.67-2.92-1.46-4.11-2.57
						c-1.2-1.11-1.97-2.62-2.28-4.14c-0.34-1.52-0.42-3.02-0.55-4.48c-0.12-1.46-0.23-2.88-0.34-4.28
						c-0.43-5.56-0.82-10.57-1.15-14.8c-0.3-4.17-0.55-7.57-0.72-9.98c-0.07-1.14-0.13-2.04-0.17-2.72
						C296.77,338.62,296.76,338.29,296.78,338.29z"/>
				</g>
			</g>
			<g>
				<g>
					<path style="fill:#263238;" d="M272.23,360.63c0.02,0,0.05,0.19,0.09,0.55c0.04,0.43,0.09,0.95,0.14,1.59
						c0.13,1.46,0.3,3.43,0.51,5.83c0.23,2.46,0.53,5.38,0.96,8.62c0.44,3.23,0.96,6.79,1.93,10.41c0.46,1.83,1.11,3.51,2.09,4.96
						c0.98,1.46,2.07,2.77,3.2,3.93c2.27,2.32,4.68,4.02,6.86,5.14c4.38,2.28,7.57,2.31,7.53,2.46c0,0.02-0.19,0.01-0.56-0.01
						c-0.36-0.03-0.9-0.07-1.59-0.2c-1.37-0.24-3.33-0.78-5.57-1.89c-2.23-1.1-4.72-2.8-7.05-5.13c-1.16-1.17-2.28-2.5-3.29-3.99
						c-1.03-1.49-1.72-3.3-2.18-5.12c-0.99-3.67-1.49-7.25-1.91-10.49c-0.4-3.25-0.66-6.19-0.84-8.65
						c-0.18-2.47-0.28-4.47-0.33-5.85c-0.01-0.64-0.03-1.16-0.03-1.59C272.2,360.82,272.21,360.63,272.23,360.63z"/>
				</g>
			</g>
			<g>
				<g>
					<path style="fill:#263238;" d="M290.55,389.37c-0.06-0.02,0.12-0.93,0.78-2.28c0.65-1.35,1.85-3.09,3.6-4.59
						c1.75-1.49,3.66-2.41,5.1-2.84c1.44-0.44,2.37-0.47,2.38-0.41c0.02,0.1-0.88,0.27-2.24,0.8c-1.36,0.52-3.17,1.45-4.86,2.89
						c-1.68,1.45-2.89,3.08-3.61,4.34C290.96,388.55,290.64,389.41,290.55,389.37z"/>
				</g>
			</g>
			<g>
				<g>
					<path style="fill:#FFFFFF;" d="M298.98,358.13c0.01-0.01,0.1,0.03,0.27,0.12c0.2,0.11,0.45,0.24,0.77,0.4
						c0.69,0.32,1.69,0.83,3.06,1.3c2.69,0.94,6.92,1.89,12.01,1.03c5.03-0.82,10.88-3.79,14.93-9.28c2-2.71,3.56-6.05,3.91-9.71
						c0.18-1.82,0.03-3.71-0.57-5.49c-0.59-1.78-1.66-3.43-3.09-4.72c-1.42-1.3-3.18-2.21-5.03-2.44c-1.82-0.29-3.78,0.19-5.04,1.42
						c-0.61,0.61-0.99,1.44-0.98,2.28c0,0.84,0.32,1.68,0.83,2.35c1.01,1.39,2.72,2.03,4.36,2.27c3.34,0.46,6.62-0.14,9.37-1.34
						c2.76-1.2,5.01-2.99,6.64-4.96c1.63-1.98,2.63-4.12,3.23-6.07c0.6-1.95,0.79-3.72,0.82-5.16c0.02-1.44-0.13-2.55-0.24-3.31
						c-0.06-0.35-0.12-0.63-0.16-0.85c-0.03-0.19-0.05-0.29-0.04-0.3c0,0,0.61,1.53,0.66,4.45c0.01,1.45-0.15,3.25-0.73,5.25
						c-0.58,1.99-1.57,4.18-3.22,6.23c-1.64,2.04-3.94,3.89-6.76,5.14c-2.81,1.24-6.17,1.89-9.64,1.43
						c-1.7-0.25-3.57-0.92-4.72-2.47c-0.56-0.75-0.94-1.69-0.94-2.68c-0.01-0.99,0.44-1.98,1.14-2.68c1.44-1.39,3.56-1.88,5.52-1.58
						c1.98,0.25,3.85,1.22,5.34,2.59c1.5,1.36,2.63,3.09,3.25,4.96c0.63,1.87,0.78,3.84,0.59,5.73c-0.37,3.79-1.98,7.21-4.04,9.97
						c-4.17,5.6-10.16,8.57-15.29,9.36c-5.19,0.82-9.46-0.21-12.15-1.22C300.28,359.12,298.98,358.13,298.98,358.13z"/>
				</g>
			</g>
			<g>
				<g>
					<path style="fill:#FFFFFF;" d="M270.91,347.17c-0.03-0.02,0.21-0.34,0.7-0.88c0.49-0.53,1.26-1.25,2.32-2.01
						c2.08-1.56,5.52-2.99,9.48-3.36c1.98-0.21,3.9-0.12,5.59,0.23c1.69,0.35,3.15,0.92,4.31,1.51c1.16,0.59,2.03,1.17,2.62,1.59
						c0.58,0.43,0.88,0.69,0.86,0.72c-0.06,0.09-1.34-0.88-3.65-1.95c-2.29-1.09-5.79-2.01-9.66-1.54
						c-3.88,0.37-7.22,1.68-9.31,3.12C272.04,346.03,270.99,347.25,270.91,347.17z"/>
				</g>
			</g>
			<g>
				<g>
					<path style="fill:#FFFFFF;" d="M277.76,317.79c0.09-0.1,1.1,1.31,3.47,2.52c1.17,0.61,2.68,1.12,4.41,1.29
						c1.73,0.18,3.67-0.01,5.53-0.76c1.84-0.78,3.36-2.02,4.45-3.37c1.1-1.35,1.81-2.78,2.21-4.04c0.82-2.53,0.54-4.24,0.67-4.23
						c0.03,0,0.12,0.41,0.14,1.17c0.03,0.76-0.06,1.87-0.43,3.19c-0.36,1.32-1.06,2.82-2.18,4.25c-1.12,1.43-2.7,2.74-4.64,3.57
						c-1.96,0.79-4.01,0.98-5.8,0.76c-1.8-0.22-3.36-0.79-4.55-1.46c-1.19-0.67-2.04-1.39-2.55-1.95
						C277.97,318.17,277.74,317.81,277.76,317.79z"/>
				</g>
			</g>
			<g>
				<g>
					<path style="fill:#FFFFFF;" d="M315.11,385.35c-0.02,0,0.01-0.28,0.09-0.81c0.12-0.52,0.29-1.3,0.76-2.22
						c0.86-1.85,3.02-4.16,6.41-5.57c3.35-1.5,7.96-1.8,12.6-0.45c2.26,0.67,4.87,1.51,6.57,3.72c0.83,1.09,1.12,2.71,0.48,4.03
						c-0.61,1.33-1.8,2.24-3.05,2.88c-1.28,0.62-2.67,0.98-4.06,1c-1.38,0.03-2.82-0.32-3.9-1.21c-1.09-0.88-1.66-2.24-1.74-3.53
						c-0.1-1.31,0.16-2.57,0.58-3.71c1.83-4.58,5.52-7.5,8.83-8.94c3.37-1.47,6.42-1.63,8.43-1.45c2.03,0.21,3.08,0.65,3.08,0.65
						c-0.02,0.07-1.09-0.29-3.1-0.43c-1.99-0.11-4.97,0.11-8.25,1.59c-1.62,0.74-3.3,1.81-4.81,3.26c-1.5,1.45-2.85,3.31-3.69,5.49
						c-0.39,1.09-0.63,2.29-0.53,3.49c0.09,1.19,0.6,2.37,1.55,3.14c0.94,0.78,2.24,1.1,3.53,1.07c1.3-0.03,2.61-0.36,3.81-0.95
						c1.18-0.6,2.27-1.46,2.79-2.6c0.54-1.14,0.31-2.49-0.42-3.47c-0.73-1-1.79-1.72-2.87-2.28c-1.09-0.55-2.26-0.92-3.39-1.26
						c-4.55-1.34-9.01-1.1-12.3,0.32c-3.34,1.33-5.47,3.53-6.37,5.3C315.21,384.2,315.19,385.37,315.11,385.35z"/>
				</g>
			</g>
			<g>
				<g>
					<path style="fill:#FFFFFF;" d="M286.58,400.82c-0.02-0.11,1.63-0.25,4.11-1.13c2.46-0.86,5.74-2.63,8.42-5.6
						c2.68-2.97,4.11-6.41,4.72-8.95c0.63-2.55,0.6-4.21,0.71-4.2c0.03,0,0.07,0.41,0.06,1.16c-0.01,0.75-0.11,1.83-0.38,3.14
						c-0.52,2.61-1.93,6.18-4.69,9.24c-2.77,3.06-6.18,4.82-8.72,5.6c-1.28,0.4-2.34,0.6-3.08,0.69
						C286.99,400.85,286.58,400.86,286.58,400.82z"/>
				</g>
			</g>
			<g>
				<g>
					<path style="fill:#FFFFFF;" d="M272.69,368.89c-0.01-0.02,0.17-0.09,0.52-0.21c0.35-0.11,0.86-0.27,1.53-0.44
						c1.34-0.32,3.33-0.77,5.84-0.59c1.25,0.1,2.61,0.38,3.97,0.98c1.35,0.6,2.7,1.54,3.7,2.91c0.98,1.37,1.59,3.14,1.44,5
						c-0.07,0.92-0.35,1.85-0.85,2.68c-0.5,0.82-1.25,1.56-2.25,1.88c-0.98,0.31-2.12,0.15-2.9-0.57c-0.76-0.74-0.95-1.77-1-2.67
						c-0.07-1.83,0.33-3.58,1.01-5.1c1.36-3.07,3.9-5.09,6.25-5.93c2.37-0.88,4.47-0.81,5.83-0.58c0.69,0.12,1.21,0.27,1.55,0.39
						c0.34,0.13,0.52,0.21,0.51,0.22c-0.02,0.06-0.74-0.23-2.09-0.4c-1.34-0.16-3.38-0.16-5.65,0.73c-2.25,0.86-4.63,2.82-5.91,5.77
						c-0.64,1.46-1,3.13-0.93,4.85c0.04,0.84,0.24,1.73,0.83,2.28c0.58,0.55,1.52,0.7,2.33,0.44c0.81-0.26,1.48-0.9,1.93-1.63
						c0.45-0.74,0.71-1.58,0.78-2.43c0.14-1.7-0.41-3.36-1.31-4.64c-0.92-1.28-2.19-2.19-3.47-2.78c-1.29-0.59-2.6-0.89-3.81-1.01
						c-2.43-0.22-4.41,0.15-5.75,0.41C273.44,368.73,272.7,368.93,272.69,368.89z"/>
				</g>
			</g>
			<g style="opacity:0.3;">
				<g>
					<path d="M335.94,393.8c-4.58-2.59-9.07-4.58-13.86-6.75c-4.79-2.18-9.48-4.97-12.62-9.2c-5.91-7.97-5.24-19.47-11.29-27.34
						c0.4,5.29,0.79,10.58,1.19,15.87c0.36,4.85-0.38,9.64,2.74,12.94c2.63,2.78,7.76,4.9,11.39,6.1
						C320.79,387.82,328.65,391.39,335.94,393.8"/>
				</g>
			</g>
		</g>
		<g>
			<g>
				<g>
					<path style="fill:#E8505B;" d="M410.4,454.18c0,0,35.85,9.92,37.29,10.43c2.16,0.76,1.8,8.67-1.56,8.55
						c-1.59-0.06-27.54,0.97-30.82,0.76c-3.28-0.21-13.17-4.1-13.17-4.1L410.4,454.18z"/>
				</g>
			</g>
			<g>
				<g>
					<g>
						<path style="fill:#263238;" d="M425.34,467.86c0.18,0.02,0.42-1.87,1.58-3.85c1.13-2,2.65-3.16,2.54-3.3
							c-0.06-0.14-1.84,0.87-3.06,3C425.17,465.83,425.19,467.88,425.34,467.86z"/>
					</g>
				</g>
			</g>
			<g>
				<g>
					<g>
						<path style="fill:#263238;" d="M421.6,466.17c0.18,0.03,0.54-1.66,1.49-3.54c0.94-1.88,2.08-3.18,1.95-3.31
							c-0.1-0.12-1.5,1.05-2.49,3.04C421.56,464.34,421.45,466.16,421.6,466.17z"/>
					</g>
				</g>
			</g>
			<g>
				<g>
					<g>
						<path style="fill:#263238;" d="M418.09,465.23c0.18-0.01,0.04-1.8,0.84-3.79c0.76-2,2.08-3.22,1.95-3.35
							c-0.07-0.14-1.68,0.97-2.51,3.13C417.52,463.38,417.95,465.28,418.09,465.23z"/>
					</g>
				</g>
			</g>
			<g>
				<g>
					<g>
						<path style="fill:#263238;" d="M418.73,460.6c0.06,0.02,0.38-0.99,0.38-2.67c0-0.84-0.1-1.84-0.36-2.92
							c-0.13-0.54-0.31-1.1-0.53-1.66c-0.12-0.28-0.25-0.61-0.57-0.88c-0.33-0.3-0.94-0.24-1.23,0.06
							c-0.33,0.29-0.43,0.69-0.48,1.01c-0.04,0.33-0.05,0.64-0.05,0.95c0.01,0.62,0.09,1.21,0.22,1.76c0.27,1.1,0.69,2.01,1.1,2.74
							c0.84,1.45,1.56,2.2,1.61,2.16c0.08-0.06-0.52-0.89-1.23-2.35c-0.35-0.73-0.72-1.63-0.94-2.67c-0.11-0.52-0.17-1.07-0.17-1.64
							c0.02-0.55,0.01-1.24,0.33-1.5c0.17-0.14,0.32-0.15,0.47-0.04c0.16,0.12,0.29,0.37,0.39,0.63c0.22,0.54,0.4,1.07,0.54,1.58
							c0.28,1.03,0.42,1.99,0.47,2.8C418.8,459.57,418.63,460.58,418.73,460.6z"/>
					</g>
				</g>
			</g>
			<g>
				<g>
					<g>
						<path style="fill:#263238;" d="M418.69,460.23c0.02-0.07-0.85-0.36-2.31-0.37c-0.73,0-1.6,0.08-2.54,0.31
							c-0.46,0.13-0.96,0.25-1.47,0.54c-0.49,0.25-1,0.93-0.81,1.64c0.15,0.67,0.72,1.13,1.29,1.28c0.57,0.16,1.12,0.1,1.61,0
							c0.98-0.23,1.75-0.71,2.33-1.15c1.15-0.9,1.71-1.59,1.67-1.64c-0.06-0.08-0.74,0.51-1.91,1.29c-0.59,0.38-1.32,0.78-2.2,0.95
							c-0.44,0.08-0.91,0.11-1.33-0.02c-0.42-0.12-0.77-0.44-0.87-0.85c-0.1-0.4,0.14-0.77,0.53-1c0.38-0.24,0.86-0.37,1.3-0.51
							c0.89-0.25,1.72-0.37,2.42-0.42C417.79,460.19,418.67,460.33,418.69,460.23z"/>
					</g>
				</g>
			</g>
			<g>
				<g>
					<g>
						<path style="fill:#263238;" d="M430.85,468.25c0.18-0.02,0-1.55,0.71-3.23c0.67-1.7,1.87-2.67,1.76-2.81
							c-0.06-0.15-1.56,0.7-2.31,2.58C430.23,466.65,430.7,468.31,430.85,468.25z"/>
					</g>
				</g>
			</g>
			<g>
				<g>
					<g>
						<path style="fill:#263238;" d="M405.83,469.9c-0.02,0.04,0.48,0.27,1.39,0.65c0.92,0.35,2.27,0.84,3.99,1.24
							c3.43,0.86,8.32,1.35,13.69,1.3c5.37-0.06,10.21-0.3,13.73-0.44c1.66-0.09,3.05-0.16,4.15-0.22c0.98-0.07,1.52-0.12,1.52-0.16
							c0-0.04-0.55-0.06-1.53-0.07c-1.1,0.01-2.5,0.02-4.16,0.03c-3.63,0.07-8.42,0.16-13.72,0.27c-5.35,0.06-10.18-0.36-13.59-1.11
							C407.87,470.67,405.87,469.79,405.83,469.9z"/>
					</g>
				</g>
			</g>
			<g>
				<g>
					<g>
						<path style="fill:#263238;" d="M404.77,470.72c0.05,0.08,1.03-0.49,2.69-1.22c1.64-0.7,4.09-1.54,6.78-1.13
							c2.7,0.41,4.62,2.23,5.86,3.49c1.26,1.3,1.99,2.17,2.07,2.11c0.05-0.04-0.56-1-1.75-2.4c-0.61-0.69-1.37-1.5-2.38-2.22
							c-0.99-0.73-2.27-1.35-3.7-1.57c-2.89-0.44-5.44,0.52-7.06,1.34C405.63,469.96,404.73,470.66,404.77,470.72z"/>
					</g>
				</g>
			</g>
		</g>
		<g>
			<g>
				<g>
					<path style="fill:#E8505B;" d="M372.35,444.28c0,0-33.93,22.21-35.15,23.13c-1.83,1.38,0.27,7.95,3.43,6.82
						c1.5-0.54,29.97-8.46,33.03-9.65c3.06-1.19,11.3-7.91,11.3-7.91L372.35,444.28z"/>
				</g>
			</g>
			<g>
				<g>
					<g>
						<path style="fill:#263238;" d="M362.27,461.85c0.15-0.03-0.45-1.99-2.27-3.63c-1.8-1.66-3.8-2.08-3.82-1.93
							c-0.06,0.17,1.74,0.82,3.42,2.37C361.3,460.2,362.11,461.93,362.27,461.85z"/>
					</g>
				</g>
			</g>
			<g>
				<g>
					<g>
						<path style="fill:#263238;" d="M365.32,459.1c0.14-0.06-0.51-1.76-2.07-3.34c-1.54-1.59-3.23-2.28-3.29-2.14
							c-0.09,0.16,1.4,1.05,2.86,2.56C364.3,457.68,365.16,459.19,365.32,459.1z"/>
					</g>
				</g>
			</g>
			<g>
				<g>
					<g>
						<path style="fill:#263238;" d="M368.37,457.14c0.15,0.01-0.02-1.94-1.48-3.73c-1.45-1.81-3.32-2.38-3.34-2.22
							c-0.08,0.16,1.55,0.93,2.88,2.6C367.78,455.44,368.2,457.19,368.37,457.14z"/>
					</g>
				</g>
			</g>
			<g>
				<g>
					<g>
						<path style="fill:#263238;" d="M366.36,452.92c0.09-0.04-0.37-0.96-0.77-2.54c-0.19-0.79-0.35-1.74-0.4-2.81
							c-0.02-0.53-0.01-1.09,0.04-1.67c0.02-0.28,0.07-0.55,0.18-0.72c0.11-0.15,0.26-0.19,0.46-0.11c0.39,0.15,0.59,0.81,0.77,1.33
							c0.17,0.54,0.28,1.09,0.33,1.61c0.1,1.05,0.03,2.02-0.09,2.83c-0.24,1.61-0.56,2.59-0.46,2.62c0.06,0.02,0.52-0.91,0.88-2.55
							c0.17-0.82,0.3-1.82,0.22-2.95c-0.04-0.56-0.14-1.15-0.32-1.74c-0.09-0.3-0.2-0.59-0.33-0.89c-0.14-0.29-0.36-0.65-0.76-0.82
							c-0.37-0.2-0.96-0.07-1.19,0.32c-0.23,0.35-0.26,0.71-0.28,1.01c-0.04,0.61-0.04,1.19,0,1.75c0.08,1.11,0.29,2.1,0.54,2.9
							C365.7,452.1,366.3,452.96,366.36,452.92z"/>
					</g>
				</g>
			</g>
			<g>
				<g>
					<g>
						<path style="fill:#263238;" d="M366.29,452.56c0.04,0.09,0.84-0.32,2.21-0.65c0.68-0.16,1.51-0.3,2.43-0.33
							c0.46-0.01,0.96-0.02,1.39,0.09c0.44,0.1,0.79,0.38,0.81,0.79c0.03,0.42-0.21,0.84-0.57,1.08c-0.37,0.25-0.82,0.37-1.26,0.42
							c-0.89,0.1-1.71-0.06-2.38-0.24c-1.35-0.39-2.18-0.74-2.21-0.65c-0.03,0.06,0.72,0.55,2.09,1.06
							c0.68,0.24,1.56,0.47,2.57,0.38c0.49-0.05,1.04-0.16,1.53-0.48c0.5-0.31,0.9-0.93,0.84-1.61c-0.03-0.73-0.73-1.23-1.27-1.31
							c-0.57-0.13-1.08-0.09-1.56-0.07c-0.97,0.06-1.82,0.25-2.52,0.48C366.99,451.96,366.26,452.51,366.29,452.56z"/>
					</g>
				</g>
			</g>
			<g>
				<g>
					<g>
						<path style="fill:#263238;" d="M344.96,472.99c0.04,0.05,0.57-0.34,0.83-1.31c0.28-0.95,0.11-2.41-0.64-3.68
							c-0.35-0.64-0.76-1.2-1.14-1.69c-0.37-0.49-0.75-0.94-1.15-1.24c-0.39-0.31-0.8-0.44-1.08-0.45
							c-0.28-0.01-0.43,0.06-0.42,0.09c0,0.09,0.61,0.05,1.23,0.69c0.32,0.3,0.63,0.73,0.98,1.24c0.35,0.5,0.73,1.05,1.06,1.66
							c0.69,1.2,0.89,2.43,0.75,3.31C345.25,472.47,344.88,472.94,344.96,472.99z"/>
					</g>
				</g>
			</g>
			<g>
				<g>
					<g>
						<path style="fill:#263238;" d="M357.14,463.89c0.16,0.02,0.11-1.71-1.19-3.25c-1.29-1.56-2.97-1.91-2.99-1.76
							c-0.07,0.17,1.37,0.73,2.52,2.14C356.66,462.41,356.96,463.93,357.14,463.89z"/>
					</g>
				</g>
			</g>
			<g>
				<g>
					<g>
						<path style="fill:#263238;" d="M381.48,457.87c-0.03-0.04-0.55,0.35-1.49,1.02c-0.95,0.66-2.36,1.59-4.18,2.56
							c-1.82,0.98-4.08,2-6.64,2.96c-2.57,0.96-5.45,1.86-8.5,2.74c-6.1,1.76-11.63,3.36-15.62,4.56c-1.91,0.59-3.5,1.07-4.71,1.45
							c-1.11,0.35-1.72,0.57-1.71,0.61c0.01,0.04,0.64-0.1,1.77-0.38c1.23-0.33,2.83-0.75,4.77-1.26c4.02-1.1,9.56-2.64,15.67-4.4
							c3.05-0.89,5.95-1.81,8.53-2.8c2.58-1,4.84-2.07,6.65-3.1c1.82-1.04,3.2-2.02,4.12-2.75
							C381.03,458.34,381.5,457.9,381.48,457.87z"/>
					</g>
				</g>
			</g>
			<g>
				<g>
					<g>
						<path style="fill:#263238;" d="M382.73,458.33c0.02-0.07-1.05-0.46-2.88-0.76c-1.79-0.28-4.51-0.43-7.13,0.87
							c-1.3,0.64-2.33,1.62-3.05,2.62c-0.74,1-1.22,2-1.59,2.84c-0.72,1.7-1.01,2.79-0.94,2.82c0.09,0.04,0.53-1.01,1.33-2.64
							c0.81-1.58,2.08-3.89,4.53-5.1c2.44-1.21,5.03-1.16,6.81-0.99C381.6,458.17,382.71,458.42,382.73,458.33z"/>
					</g>
				</g>
			</g>
		</g>
		<g>
			<g>
				<g>
					<path style="fill:#263238;" d="M442.85,390.11c0,0,10.18,3.63,10.22,15.05c0.08,21.86-44.17,45.96-44.17,45.96l-58.89-39.02
						l-3.69-1.49C346.32,410.6,425.82,380.74,442.85,390.11z"/>
				</g>
			</g>
			<g>
				<g>
					<g>
						<path style="fill:#455A64;" d="M379.84,431.8c0.03,0.03,0.57-0.34,1.53-1.04c0.97-0.7,2.34-1.74,4.03-3.04
							c3.37-2.61,7.96-6.3,12.89-10.54c4.93-4.24,9.28-8.22,12.37-11.15c1.54-1.47,2.78-2.67,3.62-3.52
							c0.84-0.85,1.29-1.33,1.26-1.36c-0.03-0.03-0.53,0.4-1.42,1.19c-0.96,0.87-2.22,2.01-3.74,3.38
							c-3.16,2.86-7.54,6.78-12.47,11.01c-4.93,4.23-9.47,7.97-12.77,10.66c-1.59,1.3-2.9,2.37-3.91,3.19
							C380.32,431.33,379.82,431.77,379.84,431.8z"/>
					</g>
				</g>
			</g>
			<g>
				<g>
					<g>
						<path style="fill:#455A64;" d="M426.23,398.28c0.02-0.15-2.6-0.4-5.67,0.52c-3.08,0.9-5.14,2.54-5.05,2.65
							c0.1,0.16,2.24-1.21,5.22-2.07C423.68,398.48,426.23,398.46,426.23,398.28z"/>
					</g>
				</g>
			</g>
			<g>
				<g>
					<g>
						<path style="fill:#455A64;" d="M421.16,394.83c-0.05-0.14-1.94,0.69-3.49,2.63c-1.57,1.92-1.98,3.94-1.83,3.97
							c0.17,0.06,0.82-1.77,2.3-3.59C419.59,396,421.25,394.99,421.16,394.83z"/>
					</g>
				</g>
			</g>
			<g>
				<g>
					<g>
						<path style="fill:#263238;" d="M446.09,464.05c0.03-0.07-0.7-0.21-1.52,0.46c-0.8,0.64-1.48,1.92-1.7,3.42
							c-0.22,1.51,0.11,2.89,0.54,3.77c0.42,0.89,0.88,1.31,0.93,1.27c0.08-0.06-0.24-0.55-0.53-1.43c-0.3-0.87-0.54-2.15-0.34-3.53
							c0.2-1.37,0.76-2.56,1.39-3.19C445.48,464.17,446.1,464.15,446.09,464.05z"/>
					</g>
				</g>
			</g>
		</g>
		<g>
			<g>
				<polygon style="fill:#455A64;" points="429.31,354.39 408.33,407.56 318.02,409.03 316.35,404.15 348,403 363.21,355.83 				"/>
			</g>
			<g>
				<path style="fill:#EBEBEB;" d="M387.13,377.41c1.16-0.79,3.3-0.47,4.34,0.46c1.04,0.93,1.38,2.55,0.85,3.85
					c-0.53,1.3-1.86,2.2-3.26,2.28c-1.48,0.08-3.03-0.85-3.45-2.28S385.66,378.16,387.13,377.41"/>
			</g>
		</g>
		<g>
			<g>
				<g>
					<path style="fill:#263238;" d="M414.48,453.77c0,0-83.2-54.58-86.61-55.71c-3.41-1.14-11.64-6.53-19.87-4.26
						c-8.23,2.27-15.62,9.65-19.31,20.44c-2.11,6.16-3.11,16.68-3.57,24.57c-0.56,9.43,2.36,18.83,8.53,25.99
						c2.81,3.26,6.27,6.09,10.37,7.37c0.87,0.27,1.77,0.5,2.69,0.7c15.73,3.41,31.9-3.65,40.74-17.1l1.94-2.95
						c0,0,54.43,20,55.28,19.71L414.48,453.77z"/>
				</g>
			</g>
			<g>
				<g>
					<g>
						<path style="fill:#455A64;" d="M311.54,438.75c0,0,0.15,0.08,0.46,0.2c0.33,0.13,0.78,0.31,1.36,0.54
							c1.23,0.47,3,1.15,5.27,2.03c4.63,1.74,11.3,4.26,19.6,7.38c8.33,3.11,18.3,6.8,29.49,10.87c11.19,4.07,23.6,8.53,36.84,13.02
							l0.24,0.08l0.12-0.23c2.08-3.97,4.27-8.16,6.5-12.41c1.13-2.17,2.26-4.32,3.31-6.33l0.13-0.24l-0.23-0.15
							c-24.98-15.86-47.34-30.05-63.47-40.29c-8.05-5.08-14.55-9.18-19.06-12.03c-2.23-1.39-3.97-2.48-5.18-3.23
							c-0.58-0.35-1.03-0.63-1.35-0.83c-0.31-0.18-0.47-0.26-0.47-0.26s0.14,0.11,0.44,0.31c0.32,0.21,0.76,0.5,1.32,0.88
							c1.19,0.77,2.91,1.89,5.12,3.32c4.49,2.88,10.95,7.04,18.96,12.18c16.1,10.28,38.42,24.52,63.36,40.45l-0.1-0.39
							c-1.05,2.01-2.18,4.16-3.31,6.33c-2.23,4.25-4.42,8.44-6.5,12.42l0.36-0.14c-13.24-4.47-25.65-8.92-36.85-12.95
							c-11.18-4.07-21.18-7.71-29.53-10.75c-8.33-3.05-15.02-5.51-19.67-7.21c-2.29-0.83-4.08-1.48-5.31-1.93
							c-0.59-0.21-1.05-0.37-1.38-0.49C311.71,438.79,311.54,438.75,311.54,438.75z"/>
					</g>
				</g>
			</g>
		</g>
		<g>
			<g>
				<path style="fill:#263238;" d="M320.18,244.94c1.42-3.84,4.55-5.5,8.53-6.46s8.4,0.18,11.41,2.94c2.02,1.85,3.49,4.4,5.99,5.53
					c4.1,1.86,9.36-0.86,13.24,1.41c2.3,1.35,3.43,4.41,2.56,6.92c-0.88,2.52-3.66,4.22-6.3,3.84c2.67,1.26,3.17,5.28,1.33,7.6
					c-1.84,2.31-5.24,2.94-8.09,2.13c-2.84-0.8-5.21-2.79-7.21-4.96c-2.01-2.17-3.77-4.57-5.94-6.57c-2.18-2-4.89-3.61-7.84-3.72
					c-4-0.15-7.69,2.54-9.79,5.94c-2.1,3.41-2.88,7.44-3.47,11.4c-0.58,3.96-1.03,8-2.55,11.7c-0.18,0.43-0.44,0.92-0.9,1.01
					c-0.66,0.14-1.15-0.6-1.42-1.22c-3.01-7.05-4.61-14.69-4.69-22.35c-0.05-4.45,0.45-8.61,3.21-12.1
					C311.01,244.49,317.39,242.32,320.18,244.94"/>
			</g>
			<g>
				<g>
					<g>
						<g>
							<g>
								<g>
									<g>
										<g>
											<g>
												<g>
													<g>
														<g>
															<g>
																<g>
																	<path style="fill:#FFBE9D;" d="M310.79,262.7l-6.12,44.45c-1.04,7.56,4.46,14.45,12.06,15.12l0,0
																		c7.09,0.62,13.43-4.44,14.39-11.5c0.46-3.35,0.84-6.14,0.91-6.48c0,0,11.46,0.49,13.82-10.59
																		c1.14-5.36,2.59-16.58,3.78-26.76c1.28-10.92-6.06-21-16.84-23.15l-1.07-0.21
																		C320.03,241.93,312.1,250.96,310.79,262.7z"/>
																</g>
															</g>
														</g>
													</g>
												</g>
											</g>
										</g>
									</g>
									<g>
										<g>
											<g>
												<g>
													<g>
														<g>
															<g>
																<g>
																	<path style="fill:#EB996E;" d="M332.09,304.13c0,0-7.14-0.83-13.67-7.01c0,0,1.83,8.68,13.12,9.9L332.09,304.13z"
																		/>
																</g>
															</g>
														</g>
													</g>
												</g>
											</g>
										</g>
									</g>
								</g>
							</g>
						</g>
						<g>
							<g>
								<g>
									<g>
										<g>
											<g>
												<g>
													<g>
														<g>
															<g>
																<g>
																	<g>
																		<g>
																			<g>
																				<path style="fill:#263238;" d="M344.92,273.73c-0.14,0.84-0.97,1.42-1.85,1.3c-0.88-0.13-1.49-0.91-1.35-1.76
																					c0.14-0.84,0.97-1.42,1.85-1.3C344.45,272.1,345.05,272.89,344.92,273.73z"/>
																			</g>
																		</g>
																	</g>
																</g>
															</g>
														</g>
													</g>
												</g>
												<g>
													<g>
														<g>
															<g>
																<g>
																	<g>
																		<g>
																			<g>
																				<g>
																					<path style="fill:#263238;" d="M346.16,271.91c-0.24,0.17-1.26-0.96-2.97-1.3c-1.7-0.36-3.13,0.27-3.27,0.02
																						c-0.07-0.11,0.2-0.44,0.83-0.73c0.62-0.29,1.61-0.49,2.67-0.27c1.06,0.22,1.88,0.79,2.31,1.29
																						C346.18,271.43,346.28,271.84,346.16,271.91z"/>
																				</g>
																			</g>
																		</g>
																	</g>
																</g>
															</g>
														</g>
													</g>
												</g>
											</g>
											<g>
												<g>
													<g>
														<g>
															<g>
																<g>
																	<g>
																		<g>
																			<g>
																				<path style="fill:#263238;" d="M328.05,270.97c-0.14,0.84-0.97,1.42-1.85,1.3c-0.88-0.13-1.49-0.91-1.35-1.76
																					c0.14-0.84,0.97-1.42,1.85-1.3C327.58,269.33,328.19,270.12,328.05,270.97z"/>
																			</g>
																		</g>
																	</g>
																</g>
															</g>
														</g>
													</g>
												</g>
												<g>
													<g>
														<g>
															<g>
																<g>
																	<g>
																		<g>
																			<g>
																				<g>
																					<path style="fill:#263238;" d="M329.31,268.88c-0.24,0.17-1.26-0.96-2.97-1.3c-1.7-0.36-3.13,0.27-3.27,0.02
																						c-0.07-0.11,0.2-0.44,0.83-0.73c0.62-0.29,1.61-0.49,2.67-0.27c1.06,0.22,1.88,0.79,2.31,1.29
																						C329.32,268.39,329.43,268.8,329.31,268.88z"/>
																				</g>
																			</g>
																		</g>
																	</g>
																</g>
															</g>
														</g>
													</g>
												</g>
											</g>
											<g>
												<g>
													<g>
														<g>
															<g>
																<g>
																	<g>
																		<g>
																			<g>
																				<path style="fill:#263238;" d="M332.98,282.78c0.01-0.1,1.11-0.07,2.87,0.05c0.45,0.04,0.88,0.04,1.01-0.25
																					c0.17-0.29,0.08-0.8-0.03-1.35c-0.2-1.14-0.41-2.33-0.63-3.58c-0.85-5.09-1.37-9.23-1.16-9.27
																					c0.21-0.03,1.06,4.06,1.9,9.15c0.2,1.25,0.39,2.45,0.57,3.59c0.07,0.53,0.24,1.15-0.12,1.76
																					c-0.18,0.3-0.55,0.48-0.84,0.49c-0.3,0.03-0.54-0.01-0.76-0.05C334.04,283.09,332.97,282.88,332.98,282.78z"/>
																			</g>
																		</g>
																	</g>
																</g>
															</g>
														</g>
													</g>
												</g>
											</g>
											<g>
												<g>
													<g>
														<g>
															<g>
																<g>
																	<g>
																		<g>
																			<g>
																				<path style="fill:#263238;" d="M327.72,282.96c0.28,0.04-0.09,1.89,1.24,3.53c1.32,1.64,3.34,1.82,3.3,2.09
																					c0,0.12-0.51,0.27-1.35,0.13c-0.82-0.14-1.97-0.64-2.78-1.64c-0.81-1-1.01-2.16-0.92-2.93
																					C327.29,283.34,327.59,282.92,327.72,282.96z"/>
																			</g>
																		</g>
																	</g>
																</g>
															</g>
														</g>
													</g>
												</g>
											</g>
										</g>
									</g>
								</g>
								<g>
									<g>
										<g>
											<g>
												<g>
													<g>
														<g>
															<g>
																<path style="fill:#263238;" d="M331.09,262.27c-0.26,0.43-1.92-0.13-3.97-0.29c-2.05-0.2-3.78,0.06-3.96-0.41
																	c-0.08-0.22,0.29-0.6,1.03-0.92c0.74-0.32,1.86-0.54,3.09-0.43c1.23,0.11,2.29,0.52,2.96,0.96
																	C330.91,261.63,331.21,262.07,331.09,262.27z"/>
															</g>
														</g>
													</g>
												</g>
											</g>
										</g>
									</g>
								</g>
								<g>
									<g>
										<g>
											<g>
												<g>
													<g>
														<g>
															<g>
																<path style="fill:#263238;" d="M346.52,266.84c-0.38,0.33-1.47-0.31-2.89-0.61c-1.4-0.35-2.66-0.26-2.86-0.72
																	c-0.08-0.22,0.18-0.57,0.78-0.83c0.59-0.26,1.51-0.39,2.48-0.17c0.97,0.23,1.74,0.74,2.15,1.24
																	C346.61,266.25,346.69,266.68,346.52,266.84z"/>
															</g>
														</g>
													</g>
												</g>
											</g>
										</g>
									</g>
								</g>
							</g>
						</g>
					</g>
				</g>
			</g>
			<g>
				<g>
					<g>
						<g>
							<g>
								<g>
									<g>
										<g>
											<g>
												<path style="fill:#FFBE9D;" d="M310.06,271.11c-0.17-0.12-7.19-3.78-8.46,3.86c-1.28,7.65,6.67,7.35,6.71,7.13
													C308.36,281.89,310.06,271.11,310.06,271.11z"/>
											</g>
										</g>
									</g>
								</g>
							</g>
						</g>
					</g>
				</g>
				<g>
					<g>
						<g>
							<g>
								<g>
									<g>
										<g>
											<g>
												<g>
													<path style="fill:#EB996E;" d="M306.46,278.82c-0.03-0.03-0.15,0.07-0.39,0.14c-0.24,0.06-0.63,0.07-1-0.15
														c-0.76-0.43-1.22-1.83-1.03-3.21c0.1-0.7,0.35-1.34,0.69-1.85c0.33-0.52,0.75-0.85,1.17-0.86
														c0.42-0.03,0.67,0.27,0.73,0.5c0.07,0.23-0.01,0.38,0.03,0.4c0.02,0.02,0.19-0.1,0.18-0.43
														c-0.01-0.16-0.07-0.35-0.22-0.53c-0.16-0.18-0.42-0.3-0.7-0.32c-0.6-0.06-1.22,0.4-1.59,0.95
														c-0.4,0.55-0.71,1.27-0.82,2.05c-0.21,1.55,0.34,3.12,1.39,3.63c0.51,0.23,0.99,0.14,1.25,0
														C306.41,279,306.48,278.83,306.46,278.82z"/>
												</g>
											</g>
										</g>
									</g>
								</g>
							</g>
						</g>
					</g>
				</g>
			</g>
			<g>
				<path style="fill:#263238;" d="M352.45,265.1c-5.16,0.33-10.41-2.01-13.62-6.06c-2.25-2.83-3.67-6.55-6.85-8.26
					c-2.14-1.16-4.77-1.17-7.09-0.44c-2.32,0.74-4.36,2.16-6.19,3.76c1.02,6.08-1.68,12.09-4.32,17.67
					c-0.29,0.62-0.62,1.28-1.23,1.58c-1.04,0.51-2.27-0.3-2.89-1.27c-0.99-1.56-1.11-3.52-1.07-5.37c0.08-4.22,0.82-8.46,2.54-12.31
					c1.71-3.85,4.43-7.31,7.99-9.57c4.45-2.82,10.06-3.63,15.21-2.52s9.83,4.06,13.33,8c1.62,1.83,3.04,3.93,3.59,6.31"/>
			</g>
		</g>
	</g>
	<g>
		<g>
			<g>
				<g>
					<g>
						<path style="fill:#263238;" d="M44.37,444.42c-0.01-0.01,0.06-0.16,0.19-0.46c0.15-0.33,0.36-0.77,0.62-1.33
							c0.53-1.17,1.22-2.96,1.83-5.32c1.21-4.73,1.64-11.97-0.16-20.56c-0.83-4.3-2.17-8.92-3.81-13.81
							c-1.61-4.9-3.49-10.1-5.02-15.72c-1.51-5.61-2.71-11.7-2.48-18.08c0.23-6.39,2.12-12.78,4.21-19.13
							c2.08-6.36,4.23-12.58,4.87-18.84c0.73-6.25-0.61-12.38-3.45-17.4c-2.76-5.08-6.22-9.42-8.82-13.92
							c-2.64-4.48-4.28-9.09-5.3-13.38c-1.97-8.64-1.28-15.93-0.34-20.73c1.02-4.83,2.16-7.32,2.16-7.32c0.01,0-0.03,0.17-0.13,0.49
							c-0.11,0.35-0.25,0.81-0.44,1.4c-0.38,1.23-0.88,3.07-1.34,5.48c-0.86,4.79-1.47,12.02,0.54,20.57
							c1.04,4.24,2.69,8.79,5.32,13.21c2.59,4.44,6.07,8.77,8.88,13.9c2.9,5.08,4.3,11.41,3.56,17.75
							c-0.65,6.36-2.81,12.62-4.89,18.98c-2.08,6.35-3.95,12.66-4.19,18.95c-0.24,6.28,0.93,12.31,2.42,17.89
							c1.51,5.59,3.36,10.79,4.95,15.71c1.62,4.91,2.94,9.56,3.75,13.89c1.75,8.66,1.25,15.96-0.05,20.71
							c-0.66,2.38-1.39,4.15-1.96,5.32c-0.29,0.55-0.52,0.98-0.68,1.31C44.46,444.28,44.38,444.43,44.37,444.42z"/>
					</g>
				</g>
			</g>
			<g>
				<g>
					<g>
						<path style="fill:#E8505B;" d="M35.88,304.29c0,0-5.27-16.85,4.18-26.71c0.33-0.35,0.92-0.18,1,0.29
							C41.57,280.65,42.2,289.13,35.88,304.29z"/>
					</g>
				</g>
				<g>
					<g>
						<g>
							<path style="fill:#263238;" d="M39.03,283.19c0.09,0.02-0.06,1.2-0.35,3.11c-0.35,2.14-0.75,4.65-1.2,7.43
								c-0.44,2.78-0.84,5.29-1.18,7.43c-0.29,1.9-0.46,3.08-0.56,3.08c-0.09-0.01-0.08-1.21,0.09-3.13
								c0.17-1.92,0.51-4.57,0.99-7.48c0.48-2.91,0.98-5.52,1.39-7.41C38.63,284.33,38.94,283.18,39.03,283.19z"/>
						</g>
					</g>
				</g>
			</g>
			<g>
				<g>
					<g>
						<path style="fill:#E8505B;" d="M42.07,344.03c0,0,3.22-17.36,16.19-21.65c0.46-0.15,0.89,0.27,0.75,0.72
							C58.15,325.79,54.74,333.58,42.07,344.03z"/>
					</g>
				</g>
				<g>
					<g>
						<g>
							<path style="fill:#263238;" d="M54.72,326.85c0.07,0.06-0.62,1.03-1.77,2.58c-1.31,1.73-2.84,3.76-4.54,6.01
								c-1.69,2.25-3.22,4.28-4.52,6.02c-1.14,1.55-1.85,2.51-1.93,2.46c-0.07-0.05,0.5-1.1,1.55-2.72c1.05-1.62,2.59-3.8,4.37-6.15
								c1.78-2.35,3.45-4.42,4.7-5.9C53.84,327.67,54.65,326.8,54.72,326.85z"/>
						</g>
					</g>
				</g>
			</g>
			<g>
				<g>
					<g>
						<path style="fill:#E8505B;" d="M38.56,387.56c0,0-1.96-17.54,9.2-25.42c0.39-0.28,0.93,0,0.93,0.48
							C48.66,365.44,47.66,373.88,38.56,387.56z"/>
					</g>
				</g>
				<g>
					<g>
						<g>
							<path style="fill:#263238;" d="M45.69,367.46c0.08,0.03-0.29,1.17-0.94,2.98c-0.75,2.04-1.63,4.43-2.6,7.06
								c-0.96,2.64-1.83,5.03-2.58,7.07c-0.65,1.81-1.04,2.94-1.13,2.91c-0.08-0.02,0.15-1.2,0.69-3.06
								c0.54-1.86,1.38-4.39,2.4-7.15c1.02-2.76,2.02-5.24,2.78-7.01C45.07,368.5,45.6,367.42,45.69,367.46z"/>
						</g>
					</g>
				</g>
			</g>
			<g>
				<g>
					<g>
						<path style="fill:#E8505B;" d="M48.33,431.36c0,0-1.33-17.6,10.11-25.08c0.4-0.26,0.93,0.03,0.91,0.51
							C59.21,409.61,57.91,418.01,48.33,431.36z"/>
					</g>
				</g>
				<g>
					<g>
						<g>
							<path style="fill:#263238;" d="M56.17,411.52c0.08,0.04-0.33,1.16-1.05,2.95c-0.82,2.01-1.78,4.36-2.85,6.97
								c-1.06,2.61-2.01,4.96-2.83,6.97c-0.71,1.79-1.15,2.9-1.24,2.87c-0.08-0.03,0.2-1.19,0.8-3.03c0.6-1.84,1.53-4.34,2.65-7.06
								c1.12-2.72,2.2-5.16,3.03-6.9C55.52,412.53,56.09,411.48,56.17,411.52z"/>
						</g>
					</g>
				</g>
			</g>
			<g>
				<g>
					<g>
						<path style="fill:#E8505B;" d="M28.31,289.49c0,0-15.65-8.17-15.95-21.83c-0.01-0.48,0.52-0.78,0.91-0.5
							C15.59,268.76,22.03,274.3,28.31,289.49z"/>
					</g>
				</g>
				<g>
					<g>
						<g>
							<path style="fill:#263238;" d="M15.6,272.35c0.08-0.05,0.81,0.89,1.95,2.45c1.27,1.76,2.76,3.82,4.41,6.1
								c1.65,2.27,3.15,4.33,4.43,6.08c1.14,1.55,1.86,2.5,1.78,2.57c-0.06,0.06-0.91-0.8-2.15-2.28c-1.24-1.48-2.87-3.59-4.59-5.99
								c-1.72-2.39-3.22-4.6-4.26-6.22C16.12,273.44,15.53,272.4,15.6,272.35z"/>
						</g>
					</g>
				</g>
			</g>
			<g>
				<g>
					<g>
						<path style="fill:#E8505B;" d="M45.11,325.67c0,0-16.11-7.21-17.25-20.82c-0.04-0.48,0.47-0.81,0.88-0.56
							C31.16,305.76,37.93,310.89,45.11,325.67z"/>
					</g>
				</g>
				<g>
					<g>
						<g>
							<path style="fill:#263238;" d="M31.39,309.34c0.07-0.06,0.86,0.84,2.09,2.32c1.38,1.68,2.99,3.65,4.77,5.82
								c1.79,2.17,3.41,4.13,4.79,5.8c1.23,1.48,2,2.39,1.93,2.45c-0.06,0.06-0.95-0.74-2.28-2.14c-1.33-1.41-3.09-3.41-4.95-5.7
								c-1.86-2.28-3.49-4.39-4.63-5.95C31.97,310.39,31.31,309.39,31.39,309.34z"/>
						</g>
					</g>
				</g>
			</g>
			<g>
				<g>
					<g>
						<path style="fill:#E8505B;" d="M35.84,366.03c0,0-11.06-13.75-5.87-26.39c0.18-0.44,0.79-0.5,1.04-0.1
							C32.49,341.95,36.17,349.6,35.84,366.03z"/>
					</g>
				</g>
				<g>
					<g>
						<g>
							<path style="fill:#263238;" d="M31.06,345.24c0.09-0.02,0.38,1.14,0.81,3.02c0.46,2.12,1,4.61,1.6,7.36
								c0.61,2.75,1.15,5.23,1.62,7.35c0.43,1.88,0.7,3.04,0.6,3.07c-0.08,0.03-0.51-1.09-1.06-2.95c-0.54-1.86-1.19-4.44-1.81-7.32
								c-0.62-2.88-1.11-5.5-1.41-7.41C31.1,346.44,30.97,345.25,31.06,345.24z"/>
						</g>
					</g>
				</g>
			</g>
			<g>
				<g>
					<g>
						<path style="fill:#E8505B;" d="M46.8,413.52c0,0-15.99-7.48-16.9-21.11c-0.03-0.48,0.48-0.8,0.89-0.54
							C33.18,393.37,39.86,398.63,46.8,413.52z"/>
					</g>
				</g>
				<g>
					<g>
						<g>
							<path style="fill:#263238;" d="M33.35,396.96c0.07-0.05,0.85,0.86,2.06,2.36c1.35,1.7,2.93,3.7,4.67,5.9
								c1.75,2.2,3.34,4.19,4.69,5.88c1.21,1.5,1.96,2.42,1.89,2.49c-0.06,0.06-0.94-0.76-2.25-2.18c-1.3-1.43-3.03-3.46-4.85-5.78
								c-1.82-2.31-3.42-4.45-4.53-6.03C33.92,398.02,33.28,397.01,33.35,396.96z"/>
						</g>
					</g>
				</g>
			</g>
			<g>
				<g>
					<g>
						<g>
							<path style="fill:#263238;" d="M78.65,344.12c0.02,0,0.02,0.13,0.02,0.39c-0.01,0.31-0.02,0.68-0.03,1.13
								c-0.05,1.06-0.11,2.49-0.19,4.28c-0.21,3.76-0.49,9.01-0.84,15.28l0,0.01l0,0.02c-1.14,6.39-4.39,13.47-8.76,20.34
								c-3.21,5.06-6.57,9.67-9.46,13.95c-2.92,4.27-5.38,8.22-7.09,11.73c-1.73,3.5-2.73,6.51-3.32,8.61
								c-0.28,1.05-0.49,1.88-0.61,2.44c-0.13,0.56-0.21,0.85-0.23,0.85c-0.02,0,0.01-0.3,0.1-0.88c0.08-0.57,0.25-1.41,0.5-2.48
								c0.51-2.13,1.46-5.19,3.15-8.74c1.68-3.56,4.12-7.57,7.01-11.86c2.88-4.31,6.22-8.92,9.41-13.96
								c4.35-6.84,7.58-13.81,8.77-20.1l0,0.04c0.44-6.27,0.81-11.51,1.07-15.27c0.14-1.78,0.26-3.21,0.35-4.27
								c0.05-0.45,0.08-0.82,0.11-1.12C78.61,344.25,78.63,344.12,78.65,344.12z"/>
						</g>
					</g>
				</g>
				<g>
					<g>
						<g>
							<path style="fill:#E8505B;" d="M69.12,384.27c0,0,6.77-16.3-1.75-26.98c-0.3-0.37-0.9-0.26-1.02,0.2
								C65.6,360.21,64.2,368.59,69.12,384.27z"/>
						</g>
					</g>
					<g>
						<g>
							<g>
								<path style="fill:#263238;" d="M67.89,362.97c0.09-0.01,0.3,1.17,0.54,3.08c0.24,1.92,0.51,4.57,0.72,7.51
									c0.21,2.94,0.31,5.61,0.31,7.54c0,1.93-0.1,3.13-0.19,3.13c-0.1,0-0.16-1.19-0.28-3.11c-0.14-2.16-0.31-4.7-0.5-7.51
									c-0.2-2.81-0.37-5.35-0.52-7.51C67.84,364.17,67.8,362.98,67.89,362.97z"/>
							</g>
						</g>
					</g>
					<g style="opacity:0.3;">
						<g>
							<path d="M69.12,384.27c0,0,6.77-16.3-1.75-26.98c-0.3-0.37-0.9-0.26-1.02,0.2C65.6,360.21,64.2,368.59,69.12,384.27z"/>
						</g>
					</g>
				</g>
				<g>
					<g>
						<g>
							<path style="fill:#E8505B;" d="M48.15,423.55c0,0,5.43-16.8-3.93-26.75c-0.33-0.35-0.91-0.19-1,0.28
								C42.69,399.85,41.97,408.32,48.15,423.55z"/>
						</g>
					</g>
					<g>
						<g>
							<g>
								<path style="fill:#263238;" d="M45.19,402.42c0.09-0.02,0.39,1.14,0.79,3.03c0.39,1.89,0.88,4.51,1.32,7.42
									c0.45,2.91,0.76,5.56,0.92,7.49c0.15,1.93,0.15,3.13,0.06,3.13c-0.1,0.01-0.26-1.17-0.53-3.08
									c-0.32-2.14-0.69-4.66-1.11-7.44c-0.42-2.78-0.81-5.3-1.13-7.44C45.24,403.62,45.1,402.44,45.19,402.42z"/>
							</g>
						</g>
					</g>
					<g style="opacity:0.3;">
						<g>
							<path d="M48.15,423.55c0,0,5.43-16.8-3.93-26.75c-0.33-0.35-0.91-0.19-1,0.28C42.69,399.85,41.97,408.32,48.15,423.55z"/>
						</g>
					</g>
				</g>
				<g>
					<g>
						<g>
							<path style="fill:#E8505B;" d="M77.75,364.34c0,0,14.46-10.12,13-23.71c-0.05-0.48-0.61-0.7-0.97-0.38
								C87.68,342.15,82.01,348.48,77.75,364.34z"/>
						</g>
					</g>
					<g style="opacity:0.3;">
						<g>
							<path d="M77.75,364.34c0,0,14.46-10.12,13-23.71c-0.05-0.48-0.61-0.7-0.97-0.38C87.68,342.15,82.01,348.48,77.75,364.34z"/>
						</g>
					</g>
					<g>
						<g>
							<g>
								<path style="fill:#263238;" d="M88.13,345.71c0.08,0.04-0.38,1.15-1.2,2.89c-0.83,1.74-2.02,4.13-3.42,6.72
									c-1.4,2.59-2.75,4.9-3.78,6.53c-1.04,1.63-1.77,2.58-1.84,2.54c-0.08-0.05,0.5-1.09,1.44-2.78c1.04-1.9,2.26-4.14,3.6-6.6
									c1.34-2.47,2.55-4.71,3.59-6.62C87.45,346.7,88.05,345.67,88.13,345.71z"/>
							</g>
						</g>
					</g>
				</g>
				<g>
					<g>
						<g>
							<path style="fill:#E8505B;" d="M53.98,406.9c0,0,17.44-2.72,22.11-15.56c0.16-0.45-0.24-0.9-0.7-0.77
								C72.67,391.35,64.79,394.52,53.98,406.9z"/>
						</g>
					</g>
					<g style="opacity:0.3;">
						<g>
							<path d="M53.98,406.9c0,0,17.44-2.72,22.11-15.56c0.16-0.45-0.24-0.9-0.7-0.77C72.67,391.35,64.79,394.52,53.98,406.9z"/>
						</g>
					</g>
					<g>
						<g>
							<g>
								<path style="fill:#263238;" d="M71.51,394.74c0.06,0.07-0.84,0.86-2.35,2.07c-1.51,1.2-3.63,2.81-6.03,4.53
									c-2.4,1.71-4.62,3.19-6.27,4.19c-1.65,1-2.72,1.54-2.77,1.47c-0.05-0.08,0.93-0.76,2.51-1.86c1.77-1.25,3.85-2.72,6.14-4.34
									c2.29-1.63,4.37-3.11,6.13-4.36C70.46,395.33,71.46,394.67,71.51,394.74z"/>
							</g>
						</g>
					</g>
				</g>
			</g>
		</g>
		<g>
			<g>
				<polygon style="fill:#455A64;" points="37.34,438.99 32.25,473.23 63.96,473.23 59.85,438.99 				"/>
			</g>
		</g>
		<g>
			<g>
				<g>
					<path style="fill:#263238;" d="M61.12,449.6c0,0.18-5.72,0.33-12.78,0.33c-7.06,0-12.79-0.15-12.79-0.33
						c0-0.18,5.72-0.33,12.79-0.33C55.39,449.27,61.12,449.42,61.12,449.6z"/>
				</g>
			</g>
		</g>
		<g>
			<g>
				<g>
					<path style="fill:#263238;" d="M61.75,452.33c0,0.18-5.91,0.33-13.2,0.33c-7.29,0-13.2-0.15-13.2-0.33
						c0-0.18,5.91-0.33,13.2-0.33C55.83,452,61.75,452.15,61.75,452.33z"/>
				</g>
			</g>
		</g>
	</g>
</g>
</svg>
