<?xml version="1.0" encoding="utf-8"?>
<!-- Generator: Adobe Illustrator 24.1.0, SVG Export Plug-In . SVG Version: 6.00 Build 0)  -->
<svg version="1.1" xmlns="http://www.w3.org/2000/svg" xmlns:xlink="http://www.w3.org/1999/xlink" x="0px" y="0px"
	 viewBox="0 0 500 500" style="enable-background:new 0 0 500 500;" xml:space="preserve">
<g id="Background_Complete">
</g>
<g id="Background_Simple" style="display:none;">
	
		<ellipse transform="matrix(0.8023 -0.597 0.597 0.8023 -109.3646 261.5676)" style="display:inline;fill:#F5F5F5;" cx="340.15" cy="295.87" rx="23.68" ry="23.68"/>
	<circle style="display:inline;fill:#F5F5F5;" cx="450.97" cy="228.16" r="20.87"/>
	<circle style="display:inline;fill:#F5F5F5;" cx="169.47" cy="199.94" r="11.2"/>
	<circle style="display:inline;fill:#F5F5F5;" cx="220.05" cy="48.37" r="11.2"/>
	<circle style="display:inline;fill:#F5F5F5;" cx="342.66" cy="48.37" r="21.33"/>
	<circle style="display:inline;fill:#F5F5F5;" cx="56.3" cy="246.22" r="20.83"/>
	<circle style="display:inline;fill:#F5F5F5;" cx="381.1" cy="143.11" r="18.93"/>
	
		<ellipse transform="matrix(0.9271 -0.3747 0.3747 0.9271 -23.8023 38.8412)" style="display:inline;fill:#F5F5F5;" cx="87.97" cy="80.62" rx="34.61" ry="34.61"/>
</g>
<g id="Mind_Map">
</g>
<g id="Character">
</g>
<g id="Plant">
</g>
<g id="Desk">
	<g id="XMLID_68_">
		<path id="XMLID_74_" style="fill:#EBEBEB;" d="M122.99,117.53L122.99,117.53c-20.73,0-37.53-16.8-37.53-37.53l0,0
			c0-20.73,16.8-37.53,37.53-37.53l0,0c20.73,0,37.53,16.8,37.53,37.53l0,0C160.52,100.73,143.72,117.53,122.99,117.53z"/>
		<g id="XMLID_69_">
			<g id="XMLID_71_">
				<rect id="XMLID_73_" x="105.98" y="71.64" style="fill:#FFFFFF;" width="7.77" height="25.09"/>
				<path id="XMLID_72_" style="fill:#FFFFFF;" d="M109.82,68.36c2.54,0,4.59-2.07,4.59-4.63c0-2.56-2.06-4.63-4.59-4.63
					c-2.54,0-4.59,2.07-4.59,4.63C105.23,66.28,107.29,68.36,109.82,68.36z"/>
			</g>
			<path id="XMLID_70_" style="fill:#FFFFFF;" d="M126.16,83.56c0-3.53,1.62-5.63,4.73-5.63c2.86,0,4.23,2.02,4.23,5.63
				c0,3.61,0,13.17,0,13.17h7.73c0,0,0-9.17,0-15.89c0-6.72-3.81-9.97-9.13-9.97c-5.32,0-7.56,4.15-7.56,4.15v-3.38h-7.45v25.09
				h7.45C126.16,96.73,126.16,87.43,126.16,83.56z"/>
		</g>
	</g>
	<polygon style="fill:#F5F5F5;" points="173.29,5.27 178.43,14.67 187.82,19.81 178.43,24.94 173.29,34.34 168.15,24.94 
		158.75,19.81 168.15,14.67 	"/>
	<polygon style="fill:#EBEBEB;" points="387.61,259.83 391.46,266.88 398.51,270.73 391.46,274.59 387.61,281.63 383.75,274.59 
		376.71,270.73 383.75,266.88 	"/>
	<polygon style="fill:#E0E0E0;" points="398.51,225.04 400.25,228.22 403.43,229.95 400.25,231.69 398.51,234.87 396.77,231.69 
		393.59,229.95 396.77,228.22 	"/>
	<polygon style="fill:#E0E0E0;" points="136.59,8.8 138.32,11.98 141.5,13.72 138.32,15.46 136.59,18.64 134.85,15.46 131.67,13.72 
		134.85,11.98 	"/>
	<g>
		<g>
			<path style="fill:#E0E0E0;" d="M49.41,304.18c3.92-1.7,6.67-5.81,6.63-10.6c-0.06-6.28-4.87-11.32-10.76-11.27
				c-5.88,0.05-10.61,5.18-10.55,11.45c0.04,4.84,2.92,8.91,6.93,10.52c-16.36,2.68-15.39,20.49-15.39,20.49l38.77-0.32
				C65.05,324.45,65.7,306.42,49.41,304.18z"/>
		</g>
	</g>
	<g>
		<path style="fill:#EBEBEB;" d="M421.31,421.59c-0.55-2.79-3.3-4.97-6.14-4.87c-2.82,0.1-5.38,2.43-5.76,5.22
			c-0.41-2.78-2.99-5.1-5.81-5.17c-2.84-0.08-5.57,2.13-6.1,4.92c-0.38,2.03,0.32,4.15,1.46,5.88c1.15,1.72,2.71,3.12,4.26,4.5
			c2.17,1.93,4.17,3.74,6.34,5.67c2.15-1.95,3.98-3.78,6.13-5.72c1.53-1.39,3.09-2.8,4.22-4.54
			C421.03,425.74,421.71,423.62,421.31,421.59z"/>
	</g>
	<g>
		<g>
			<path style="fill:#E0E0E0;" d="M446.56,190.69l4.15-0.82l6.56-14.43l-1.64-8.29c0,0,6.34-1.67,7.74,9.34
				c1.4,11.01,1.67,8.08,1.67,8.08s13.65-2.65,15.01-1.69c0.99,0.7,4.05,14.17,5.65,21.48c0.8,3.68-0.78,7.57-4.05,9.13
				c-0.46,0.22-0.94,0.39-1.43,0.49c-3.4,0.67-21.33,1.36-21.33,1.36l-7.18,1.42L446.56,190.69z"/>
		</g>
		<g>
			<polygon style="fill:#E0E0E0;" points="434.22,190.77 442.41,218.68 449.52,217.27 444,189.42 			"/>
		</g>
	</g>
	<g>
		<path style="fill:#263238;" d="M489.04,493.21c0,0.16-108.63,0.29-242.61,0.29c-134.02,0-242.63-0.13-242.63-0.29
			c0-0.16,108.61-0.29,242.63-0.29C380.41,492.93,489.04,493.05,489.04,493.21z"/>
	</g>
	<g id="XMLID_45_">
		<path id="XMLID_47_" style="fill:#E8505B;" d="M404.66,179.73L404.66,179.73c-22.11,10.75-48.74,1.55-59.49-20.56l0,0
			c-10.75-22.1-1.55-48.74,20.56-59.49l0,0c22.1-10.75,48.74-1.55,59.49,20.56l0,0C435.96,142.35,426.76,168.98,404.66,179.73z"/>
		<path id="XMLID_46_" style="fill:#FFFFFF;" d="M374.19,149.66c0.75-0.05,1.19-0.57,1.04-1.35c-0.11-0.54-0.4-1.89-0.51-2.46
			c-0.15-0.78-0.34-0.98-1.13-1.33c-1.73-0.76-3.25-2.1-4.41-4.48c-3.36-6.9-1.2-15.59,7.08-19.62c7.33-3.57,13.54-1.04,16.45,4.94
			c3.83,7.87,3.58,16.21-1.6,18.73c-2.86,1.39-6.14,0.07-6.87-3.16c-0.86-3.86-1.09-8.37-2.3-10.86c-1.09-2.23-3.19-3.52-5.68-2.31
			c-2.92,1.42-3.8,5.58-1.83,9.63c1.25,2.58,2.97,3.9,2.97,3.9s3.17,14.12,3.72,16.59c1.1,4.92,4.62,9.91,4.96,10.42
			c0.2,0.3,0.66,0.18,0.73-0.16c0.1-0.48,1.49-6.47,0.58-11.33c-0.25-1.38-1.73-8.44-1.73-8.44c1.83,1.35,5.38,1.59,8.32,0.16
			c8.78-4.27,10.84-15.17,5.63-25.88c-3.94-8.1-14.47-12.31-24.89-7.23c-12.97,6.31-14.99,18.79-11.22,26.55
			C365.81,146.64,369.62,149.95,374.19,149.66z"/>
	</g>
	<g id="XMLID_38_">
		<path id="XMLID_44_" style="fill:#E8505B;" d="M449.11,305.27L449.11,305.27c-15.84-6.05-23.77-23.79-17.72-39.63l0,0
			c6.05-15.84,23.79-23.77,39.63-17.72l0,0c15.84,6.05,23.77,23.79,17.72,39.63l0,0C482.69,303.39,464.94,311.32,449.11,305.27z"/>
		<g id="XMLID_39_">
			<path id="XMLID_41_" style="fill-rule:evenodd;clip-rule:evenodd;fill:#FFFFFF;" d="M476.09,281.81
				c2.96-8.37-1.33-17.62-9.73-20.83c-8.3-3.17-17.55,0.74-21.03,8.76c-0.09,0.22-0.19,0.44-0.27,0.67
				c-1.11,2.9-1.33,5.91-0.81,8.76l-5.92,7.16l9.59,0.55c1.75,2.06,4.03,3.73,6.73,4.76c8.53,3.26,18.06-0.96,21.3-9.43
				C476,282.07,476.05,281.94,476.09,281.81z M455.58,289.18c-2.64-1.01-4.79-2.73-6.33-4.86l-5.6-0.32l3.45-4.17
				c-0.74-2.72-0.66-5.68,0.41-8.5c0.16-0.42,0.34-0.83,0.54-1.23c3.13-6.28,10.63-9.27,17.36-6.7c6.82,2.61,10.42,9.99,8.4,16.82
				c-0.1,0.34-0.21,0.68-0.34,1.02C470.77,288.37,462.74,291.92,455.58,289.18z"/>
			<path id="XMLID_40_" style="fill-rule:evenodd;clip-rule:evenodd;fill:#FFFFFF;" d="M466.4,282.1c-0.31-0.33-1.82-1.96-2.12-2.21
				c-0.3-0.26-0.53-0.42-0.93-0.14c-0.4,0.28-1.45,0.85-1.76,1.01c-0.32,0.17-0.55,0.11-0.86-0.22c-0.3-0.33-1.38-1.19-2.33-3.03
				c-0.74-1.42-1.04-2.94-1.11-3.4c-0.07-0.46,0.2-0.59,0.46-0.7c0.24-0.11,0.54-0.3,0.82-0.44c0.08-0.05,0.14-0.09,0.21-0.13
				c0.14-0.1,0.25-0.21,0.41-0.36c0.23-0.2,0.24-0.44,0.22-0.67c-0.02-0.22-0.07-2.36-0.1-3.24c-0.02-0.87-0.39-0.86-0.62-0.95
				c-0.22-0.08-0.46-0.22-0.71-0.31c-0.25-0.1-0.7-0.16-1.19,0.08c-0.49,0.24-1.81,0.78-2.52,2.63c-0.17,0.43-0.25,0.9-0.29,1.35
				c-0.12,1.47,0.28,2.88,0.36,3.12c0.09,0.32,1.03,5.16,4.29,8.14c3.28,2.97,3.47,2.47,4.19,2.67c0.72,0.21,2.59-0.05,3.23-0.81
				c0.65-0.75,0.94-1.5,0.91-1.7C466.92,282.62,466.7,282.43,466.4,282.1z"/>
		</g>
	</g>
	<g id="XMLID_24_">
		<path id="XMLID_26_" style="fill:#E8505B;" d="M49.96,163.4L49.96,163.4c-12.93,0-23.41-10.48-23.41-23.41l0,0
			c0-12.93,10.48-23.41,23.41-23.41l0,0c12.93,0,23.41,10.48,23.41,23.41l0,0C73.36,152.92,62.88,163.4,49.96,163.4z"/>
		<path id="XMLID_25_" style="fill:#FFFFFF;" d="M37.49,147.83c2.26,1.45,4.95,2.3,7.84,2.3c9.5,0,14.87-8.02,14.55-15.22
			c1-0.72,1.87-1.62,2.55-2.65c-0.92,0.41-1.9,0.68-2.94,0.81c1.06-0.63,1.87-1.64,2.25-2.83c-0.99,0.59-2.08,1.01-3.25,1.24
			c-0.93-0.99-2.26-1.62-3.74-1.62c-3.3,0-5.73,3.08-4.98,6.28c-4.25-0.21-8.02-2.25-10.55-5.35c-1.34,2.3-0.7,5.31,1.58,6.83
			c-0.84-0.03-1.63-0.26-2.32-0.64c-0.06,2.37,1.64,4.59,4.1,5.08c-0.72,0.2-1.51,0.24-2.31,0.09c0.65,2.03,2.54,3.51,4.78,3.55
			C42.91,147.4,40.2,148.15,37.49,147.83z"/>
	</g>
	<g id="XMLID_4_">
		<path id="XMLID_21_" style="fill:#455A64;" d="M92.02,425.61L92.02,425.61c-21.66,5.16-43.4-8.22-48.56-29.88l0,0
			c-5.16-21.66,8.22-43.4,29.87-48.56h0c21.66-5.16,43.4,8.22,48.56,29.88l0,0C127.06,398.71,113.68,420.45,92.02,425.61z"/>
		<g id="XMLID_5_">
			<path id="XMLID_14_" style="fill:#FFFFFF;" d="M78.48,368.77c5.74-1.37,6.43-1.51,8.72-1.94c2.12-0.4,3.34-0.32,4.17-0.21
				c1.1,0.15,1.92,0.45,2.86,1.02c0.93,0.57,1.57,1.18,2.2,2.09c0.47,0.69,1.1,1.74,1.69,3.82c0.64,2.24,0.83,2.92,2.2,8.66
				c1.37,5.74,1.51,6.43,1.94,8.72c0.4,2.12,0.32,3.34,0.21,4.17c-0.15,1.1-0.45,1.92-1.02,2.86c-0.57,0.93-1.18,1.57-2.09,2.2
				c-0.69,0.48-1.74,1.1-3.82,1.69c-2.24,0.64-2.92,0.83-8.66,2.19c-5.74,1.37-6.43,1.51-8.72,1.95c-2.12,0.4-3.34,0.32-4.17,0.21
				c-1.1-0.15-1.92-0.45-2.86-1.02c-0.93-0.57-1.57-1.18-2.2-2.09c-0.47-0.69-1.1-1.74-1.69-3.82c-0.64-2.24-0.83-2.92-2.2-8.66
				c-1.37-5.74-1.51-6.43-1.94-8.72c-0.4-2.12-0.32-3.34-0.21-4.17c0.15-1.1,0.45-1.92,1.02-2.86c0.57-0.93,1.18-1.57,2.09-2.2
				c0.69-0.48,1.74-1.1,3.82-1.69C72.06,370.32,72.74,370.13,78.48,368.77 M77.56,364.89c-5.84,1.39-6.57,1.59-8.84,2.24
				c-2.26,0.65-3.74,1.39-4.98,2.24c-1.28,0.89-2.31,1.91-3.22,3.39c-0.91,1.48-1.36,2.86-1.57,4.4c-0.21,1.49-0.2,3.14,0.24,5.46
				c0.44,2.32,0.59,3.06,1.98,8.9c1.39,5.84,1.59,6.57,2.24,8.83c0.65,2.26,1.39,3.74,2.24,4.98c0.89,1.28,1.91,2.31,3.39,3.22
				c1.48,0.91,2.85,1.36,4.4,1.57c1.49,0.21,3.14,0.2,5.46-0.24c2.32-0.44,3.06-0.59,8.9-1.98c5.84-1.39,6.57-1.59,8.83-2.24
				c2.26-0.65,3.74-1.39,4.98-2.24c1.28-0.89,2.31-1.91,3.22-3.39c0.91-1.48,1.36-2.86,1.57-4.4c0.21-1.49,0.2-3.14-0.24-5.46
				c-0.44-2.32-0.59-3.06-1.98-8.9c-1.39-5.84-1.59-6.57-2.24-8.84c-0.65-2.26-1.39-3.74-2.24-4.98c-0.89-1.28-1.91-2.31-3.39-3.22
				c-1.48-0.91-2.85-1.36-4.4-1.57c-1.49-0.21-3.14-0.2-5.46,0.24C84.13,363.35,83.4,363.5,77.56,364.89"/>
			<path id="XMLID_8_" style="fill:#FFFFFF;" d="M80.05,375.35c-6.1,1.45-9.86,7.57-8.41,13.67c1.45,6.1,7.57,9.86,13.67,8.41
				c6.1-1.45,9.86-7.57,8.41-13.67C92.27,377.67,86.15,373.9,80.05,375.35 M84.39,393.56c-3.96,0.94-7.93-1.5-8.88-5.46
				c-0.94-3.96,1.5-7.93,5.46-8.88c3.96-0.94,7.93,1.5,8.87,5.46C90.79,388.65,88.35,392.62,84.39,393.56"/>
			<path id="XMLID_7_" style="fill:#FFFFFF;" d="M94,371.57c0.34,1.42-0.54,2.86-1.97,3.2c-1.43,0.34-2.86-0.54-3.2-1.97
				c-0.34-1.42,0.54-2.86,1.97-3.2C92.23,369.26,93.66,370.14,94,371.57"/>
		</g>
	</g>
	<g id="XMLID_1_">
		<path id="XMLID_3_" style="fill:#455A64;" d="M397.4,390.13L397.4,390.13c-10.38,0-18.8-8.42-18.8-18.8l0,0
			c0-10.38,8.42-18.8,18.8-18.8l0,0c10.38,0,18.8,8.42,18.8,18.8l0,0C416.2,381.71,407.78,390.13,397.4,390.13z"/>
		<path id="XMLID_2_" style="fill:#FFFFFF;" d="M394.53,382.69h4.58v-11.46h3.19l0.34-3.84h-3.53c0,0,0-1.43,0-2.19
			c0-0.9,0.18-1.26,1.06-1.26c0.7,0,2.48,0,2.48,0v-3.98c0,0-2.61,0-3.17,0c-3.41,0-4.94,1.5-4.94,4.37c0,2.5,0,3.06,0,3.06h-2.38
			v3.89h2.38V382.69z"/>
	</g>
	<g>
		<g>
			<g>
				<g>
					<g>
						<g>
							<g>
								<g>
									<path style="fill:#263238;" d="M333.28,494l-151.04-0.09c-18.17-0.01-32.89-14.74-32.88-32.91l0.07-378.67
										c0-18.18,14.74-32.91,32.92-32.9l151.04,0.09c18.17,0.01,32.89,14.74,32.88,32.91l-0.07,378.67
										C366.19,479.28,351.45,494.01,333.28,494z"/>
								</g>
							</g>
						</g>
						<g>
							<g>
								<g>
									<path style="fill:#FFFFFF;" d="M333.23,62.92l-29.28-0.02c-3.93,0-7.11,3.32-7.11,7.43l0,5.31c0,4.11-3.19,7.43-7.11,7.43
										l-57.08-0.03c-3.93,0-7.11-3.33-7.11-7.44l0-5.31c0-4.11-3.18-7.44-7.11-7.44l-10.3-0.01l-25.63-0.01
										c-12.73-0.01-23.05,10.31-23.06,23.04l-0.07,369.61c0,12.72,10.31,23.04,23.03,23.05l150.74,0.09
										c12.73,0.01,23.05-10.31,23.06-23.04l0.07-369.61C356.26,73.25,345.95,62.93,333.23,62.92z"/>
								</g>
							</g>
						</g>
					</g>
				</g>
				<g>
					<g>
						<g>
							<g>
								<path style="fill:#263238;" d="M335.43,92.95c0,0.1-3.81,0.21-8.5,0.25c-4.7,0.04-8.51-0.01-8.51-0.11
									c0-0.1,3.81-0.21,8.51-0.25C331.62,92.8,335.43,92.85,335.43,92.95z"/>
							</g>
						</g>
					</g>
					<g>
						<g>
							<g>
								<path style="fill:#263238;" d="M335.47,97.3c0,0.1-3.81,0.21-8.5,0.25c-4.7,0.04-8.51-0.01-8.51-0.11
									c0-0.1,3.81-0.21,8.51-0.25C331.66,97.15,335.47,97.2,335.47,97.3z"/>
							</g>
						</g>
					</g>
					<g>
						<g>
							<g>
								<path style="fill:#263238;" d="M335.51,101.65c0,0.1-3.81,0.21-8.5,0.25c-4.7,0.04-8.51-0.01-8.51-0.11
									c0-0.1,3.81-0.21,8.51-0.25C331.7,101.51,335.5,101.56,335.51,101.65z"/>
							</g>
						</g>
					</g>
				</g>
				<g>
					<g>
						<g>
							<path style="fill:#263238;" d="M175.26,105.9c0.01-0.01,0.16-0.02,0.45-0.03c0.35-0.01,0.76-0.03,1.24-0.04
								c1.17-0.03,2.7-0.06,4.58-0.11l-0.13,0.13c-0.02-1.02-0.03-2.12-0.05-3.32c0.01-0.62-0.05-1.2,0.01-1.91
								c0.12-0.71,0.76-1.34,1.54-1.41c0.74-0.01,1.39-0.05,2.19-0.01c0.82,0.1,1.53,0.89,1.5,1.77c0.02,1.55,0.04,3.17,0.05,4.84
								l-0.21-0.21c1.85-0.02,3.79-0.04,5.78-0.06l-0.22,0.22c-0.02-2.33-0.04-4.73-0.06-7.2c-0.01-0.61-0.01-1.23-0.02-1.83
								c0-0.57-0.35-0.94-0.81-1.36c-0.85-0.84-1.7-1.67-2.52-2.49c-0.83-0.82-1.64-1.62-2.44-2.4c-0.4-0.39-0.79-0.78-1.18-1.17
								c-0.41-0.39-0.72-0.79-1.19-0.89c-0.46-0.12-0.96-0.03-1.33,0.25c-0.35,0.3-0.72,0.71-1.07,1.06
								c-0.71,0.72-1.4,1.41-2.07,2.09c-1.3,1.35-2.66,2.59-3.65,3.76c-0.42,0.65-0.26,1.44-0.29,2.16c0,0.72,0,1.39,0,2.03
								c-0.01,1.25-0.01,2.34-0.02,3.28c-0.01,0.84-0.02,1.53-0.02,2.1C175.28,105.63,175.27,105.89,175.26,105.9
								c-0.01,0.01-0.02-0.23-0.04-0.69c-0.02-0.56-0.03-1.24-0.06-2.06c-0.02-0.94-0.05-2.05-0.07-3.3
								c-0.01-0.65-0.02-1.35-0.04-2.07c-0.01-0.37-0.01-0.75-0.02-1.14c0-0.41,0.1-0.83,0.32-1.21c1.07-1.31,2.34-2.47,3.66-3.86
								c0.66-0.68,1.35-1.38,2.06-2.11c0.37-0.36,0.67-0.73,1.11-1.1c0.46-0.35,1.1-0.48,1.67-0.33c0.61,0.14,1.01,0.64,1.39,0.99
								c0.39,0.38,0.79,0.77,1.19,1.16c0.8,0.78,1.61,1.58,2.44,2.4c0.83,0.81,1.67,1.64,2.53,2.48c0.2,0.21,0.45,0.4,0.64,0.7
								c0.19,0.29,0.29,0.63,0.3,0.97c0.01,0.61,0.01,1.22,0.02,1.84c0.02,2.46,0.04,4.87,0.05,7.2l0,0.22l-0.22,0
								c-1.99,0.01-3.92,0.03-5.78,0.04l-0.21,0l0-0.21c-0.01-1.68-0.02-3.29-0.03-4.84c0.02-0.7-0.52-1.31-1.17-1.4
								c-0.66-0.04-1.45-0.01-2.09-0.01c-0.62,0.05-1.14,0.55-1.25,1.12c-0.06,0.58-0.01,1.26-0.02,1.85c0,1.2,0,2.3,0,3.32l0,0.13
								l-0.13,0c-1.91-0.01-3.47-0.02-4.65-0.03c-0.47-0.01-0.87-0.01-1.21-0.02C175.39,105.92,175.25,105.91,175.26,105.9z"/>
						</g>
					</g>
				</g>
				<g>
					<g>
						<g>
							<g>
								<path style="fill:#455A64;" d="M274.9,394.71c0,0.04-0.56,0.08-1.58,0.11c-1.13,0.02-2.58,0.05-4.32,0.09
									c-3.64,0.05-8.68,0.08-14.24,0.08c-5.56,0-10.6-0.03-14.24-0.08c-1.74-0.04-3.19-0.07-4.32-0.09
									c-1.02-0.03-1.58-0.07-1.58-0.11c0-0.04,0.56-0.08,1.58-0.11c1.13-0.02,2.58-0.05,4.32-0.09c3.64-0.05,8.68-0.08,14.24-0.08
									c5.56,0,10.59,0.03,14.24,0.08c1.74,0.04,3.19,0.07,4.32,0.09C274.34,394.64,274.9,394.68,274.9,394.71z"/>
							</g>
							<g>
								<path style="fill:#455A64;" d="M338.21,404.62c0,0.16-23.19,0.29-51.79,0.29c-28.61,0-51.79-0.13-51.79-0.29
									c0-0.16,23.18-0.29,51.79-0.29C315.02,404.34,338.21,404.47,338.21,404.62z"/>
							</g>
							<g>
								<path style="fill:#455A64;" d="M305.84,413.95c0,0.16-15.94,0.29-35.6,0.29c-19.67,0-35.61-0.13-35.61-0.29
									c0-0.16,15.94-0.29,35.61-0.29C289.89,413.66,305.84,413.79,305.84,413.95z"/>
							</g>
						</g>
					</g>
					<g>
						<path style="fill:#263238;" d="M340.25,432.09l-3.22-3.23l-3.06,3.06l0.01-9.24l6.28,0.01L340.25,432.09z M337.04,428.46
							l0.1,0.1l2.83,2.84l0.01-8.43l-5.71-0.01l-0.01,8.27L337.04,428.46z"/>
					</g>
					<g>
						<path style="fill:#263238;" d="M254.56,430.89l-1.14-0.51c-0.55,0.3-1.03,0.44-1.47,0.45c-1.74,0.01-3.17-1.39-3.18-3.13
							c-0.01-1.74,1.39-3.17,3.13-3.18c1.74-0.01,3.17,1.39,3.18,3.13c0.01,0.77-0.27,1.52-0.79,2.1L254.56,430.89z M251.9,424.74
							c-1.62,0.01-2.93,1.34-2.92,2.96c0.01,1.62,1.34,2.93,2.96,2.91c0.42,0,0.88-0.15,1.41-0.45l0.05-0.03l0.84,0.37l-0.19-0.82
							l0.04-0.04c0.5-0.55,0.77-1.26,0.77-2C254.85,426.03,253.52,424.72,251.9,424.74z"/>
					</g>
					<g>
						<path style="fill:#263238;" d="M261.86,430.4l-1.3-3.18l-2.44-2.22l5.92-0.05L261.86,430.4z M258.67,425.21l2.08,1.91
							l1.11,2.71l1.86-4.65L258.67,425.21z"/>
					</g>
					<g>
						
							<rect x="260.44" y="425.98" transform="matrix(0.8382 -0.5454 0.5454 0.8382 -189.9428 212.0625)" style="fill:#263238;" width="3.85" height="0.22"/>
					</g>
					<g>
						<path style="fill:#E8505B;" d="M245.24,425.66c-0.17-0.85-1.01-1.5-1.87-1.47c-0.85,0.03-1.63,0.74-1.74,1.59
							c-0.13-0.84-0.91-1.54-1.77-1.56c-0.86-0.02-1.69,0.65-1.84,1.5c-0.11,0.62,0.1,1.26,0.45,1.78c0.35,0.52,0.83,0.94,1.3,1.36
							c0.66,0.58,1.27,1.13,1.93,1.71c0.65-0.59,1.2-1.15,1.85-1.74c0.46-0.42,0.93-0.85,1.27-1.38
							C245.16,426.92,245.36,426.28,245.24,425.66z"/>
					</g>
					<g>
						<path style="fill:#263238;" d="M346.85,440.26c0,0-0.01-0.35-0.02-1.03c0-0.69-0.01-1.69-0.02-3
							c-0.01-2.64-0.03-6.53-0.05-11.57c-0.02-10.07-0.06-24.71-0.1-43.09l0.19,0.19c-42.15,0.02-105.06,0.06-175.18,0.1h-0.01
							l0.29-0.29c0,20.39-0.01,40.18-0.01,58.68l-0.28-0.28c50.43,0.05,94.19,0.1,125.35,0.13c15.59,0.03,28.04,0.06,36.59,0.08
							c4.27,0.02,7.57,0.03,9.82,0.04c1.11,0.01,1.96,0.01,2.55,0.02C346.55,440.25,346.85,440.26,346.85,440.26
							s-0.28,0.01-0.84,0.02c-0.58,0-1.41,0.01-2.51,0.02c-2.23,0.01-5.51,0.02-9.76,0.04c-8.54,0.02-20.96,0.04-36.53,0.08
							c-31.21,0.03-75.04,0.08-125.54,0.13l-0.28,0v-0.28c0-18.51-0.01-38.29-0.01-58.68v-0.29h0.29h0.01
							c70.12,0.04,133.03,0.07,175.18,0.1h0.19l0,0.19c-0.04,18.42-0.08,33.11-0.1,43.2c-0.02,5.02-0.04,8.89-0.05,11.52
							c-0.01,1.3-0.02,2.29-0.02,2.96C346.86,439.93,346.85,440.26,346.85,440.26z"/>
					</g>
					<g>
						<g>
							<g>
								<g>
									
										<rect x="183.7" y="386.66" transform="matrix(5.681172e-03 -1 1 5.681172e-03 -208.9691 611.6863)" style="fill:#EBEBEB;" width="38.8" height="48.53"/>
									<g>
										<path style="fill:#263238;" d="M227.47,391.66c-0.01,0-0.09,0.01-0.24,0.01c-0.18,0-0.4,0.01-0.69,0.01
											c-0.63,0-1.51,0.01-2.65,0.02c-2.33,0-5.7,0.01-9.95,0.01c-8.53-0.02-20.63-0.04-35-0.07l0.26-0.25
											c-0.06,11.55-0.12,24.79-0.19,38.79c0.06,0.07-0.53-0.54-0.27-0.28l0.01,0l0.03,0l0.05,0l0.11,0l0.21,0l0.42,0l0.84,0
											l1.67,0.01c1.11,0.01,2.22,0.01,3.32,0.02c2.2,0.01,4.38,0.03,6.54,0.04c4.31,0.03,8.51,0.05,12.59,0.08
											c8.15,0.06,15.79,0.11,22.73,0.16l-0.24,0.24c0.12-11.65,0.21-21.31,0.28-28.1c0.05-3.37,0.08-6.03,0.11-7.88
											c0.02-0.89,0.03-1.59,0.04-2.09C227.46,391.92,227.47,391.66,227.47,391.66s0.02,0.22,0.02,0.68
											c0,0.49,0.01,1.17,0.02,2.04c0,1.83,0.01,4.47,0.02,7.82c-0.01,6.82-0.02,16.54-0.04,28.25l0,0.24l-0.24,0
											c-6.94-0.03-14.58-0.06-22.73-0.09c-4.08-0.02-8.28-0.04-12.59-0.06c-2.15-0.01-4.33-0.02-6.54-0.03
											c-1.1-0.01-2.21-0.01-3.32-0.02l-1.67-0.01l-0.84,0l-0.42,0l-0.21,0l-0.11,0l-0.05,0l-0.03,0l-0.01,0
											c0.25,0.26-0.36-0.35-0.29-0.29c0.09-14.01,0.18-27.24,0.25-38.79l0-0.26l0.26,0c14.44,0.13,26.59,0.25,35.16,0.33
											c4.23,0.05,7.57,0.09,9.89,0.12c1.11,0.02,1.98,0.03,2.6,0.05c0.27,0.01,0.49,0.01,0.66,0.02
											C227.41,391.65,227.48,391.66,227.47,391.66z"/>
									</g>
								</g>
							</g>
						</g>
						
							<rect x="186.11" y="388.36" transform="matrix(5.683768e-03 -1 1 5.683768e-03 -209.0009 611.6534)" style="fill:#E0E0E0;" width="33.91" height="45.12"/>
						<polygon style="fill:#F5F5F5;" points="180.41,427.75 196.29,406.76 205.98,420 212.64,412.99 225.53,428.01 						"/>
						<g>
							<g>
								<path style="fill:#F5F5F5;" d="M210.21,404.26c-0.01,1.96-1.61,3.54-3.57,3.53s-3.54-1.61-3.53-3.57
									c0.01-1.96,1.61-3.54,3.57-3.53S210.22,402.3,210.21,404.26z"/>
							</g>
						</g>
					</g>
				</g>
				<g>
					<g>
						<g>
							<g>
								<g>
									<path style="fill:#263238;" d="M260.78,139.99c0,0.02-0.18,0.04-0.52,0.06c-0.41,0.01-0.9,0.03-1.49,0.05
										c-1.38,0.02-3.23,0.05-5.47,0.09c-4.61,0.05-10.99,0.08-18.03,0.08c-7.04,0-13.42-0.03-18.03-0.08
										c-2.24-0.04-4.08-0.07-5.46-0.09c-0.59-0.02-1.08-0.04-1.49-0.05c-0.34-0.02-0.52-0.04-0.52-0.06
										c0-0.02,0.18-0.04,0.52-0.06c0.41-0.01,0.9-0.03,1.49-0.05c1.38-0.02,3.23-0.05,5.46-0.09c4.61-0.05,10.99-0.08,18.03-0.08
										c7.04,0,13.42,0.03,18.03,0.08c2.24,0.04,4.08,0.07,5.47,0.09c0.59,0.02,1.08,0.04,1.49,0.05
										C260.6,139.95,260.78,139.97,260.78,139.99z"/>
								</g>
							</g>
						</g>
						<g>
							<g>
								<path style="fill:#263238;" d="M332.47,354.45l-4.78-4.8l-4.55,4.54l0.02-13.73l9.34,0.01L332.47,354.45z M327.69,349.06
									l0.15,0.15l4.21,4.23l0.02-12.53l-8.49-0.01l-0.02,12.29L327.69,349.06z"/>
							</g>
							<g>
								<path style="fill:#263238;" d="M211.03,353.01l-2.24-1c-1.08,0.59-2.03,0.87-2.89,0.88c-3.42,0.03-6.23-2.74-6.26-6.16
									c-0.03-3.42,2.74-6.23,6.16-6.26c3.42-0.03,6.23,2.74,6.26,6.16c0.01,1.52-0.54,2.99-1.55,4.14L211.03,353.01z
									 M205.81,340.9c-3.19,0.03-5.76,2.64-5.74,5.83c0.03,3.19,2.64,5.76,5.83,5.74c0.82-0.01,1.73-0.29,2.79-0.88l0.09-0.05
									l1.65,0.74l-0.37-1.62l0.08-0.08c0.99-1.08,1.52-2.48,1.51-3.93C211.61,343.45,208.99,340.88,205.81,340.9z"/>
							</g>
							<g>
								<path style="fill:#263238;" d="M225.4,352.05l-2.56-6.25l-4.8-4.38l11.65-0.09L225.4,352.05z M219.12,341.84l4.09,3.76
									l2.18,5.33l3.66-9.16L219.12,341.84z"/>
							</g>
							<g>
								
									<rect x="222.61" y="343.36" transform="matrix(0.8382 -0.5453 0.5453 0.8382 -150.7353 179.0475)" style="fill:#263238;" width="7.58" height="0.43"/>
							</g>
							<g>
								<path style="fill:#E8505B;" d="M192.69,342.72c-0.33-1.66-1.98-2.96-3.68-2.89c-1.68,0.07-3.21,1.47-3.43,3.13
									c-0.25-1.66-1.8-3.04-3.48-3.08c-1.7-0.04-3.32,1.28-3.63,2.95c-0.22,1.22,0.2,2.48,0.89,3.51
									c0.69,1.03,1.63,1.86,2.55,2.68c1.3,1.15,2.5,2.23,3.8,3.37c1.28-1.17,2.37-2.26,3.65-3.43c0.91-0.83,1.84-1.68,2.51-2.72
									C192.53,345.21,192.94,343.94,192.69,342.72z"/>
							</g>
						</g>
						<circle style="fill:#EBEBEB;" cx="191.63" cy="139.99" r="7.9"/>
					</g>
					<g>
						<g>
							<path style="fill:#455A64;" d="M329.48,309.11c0,0.16-33.15,0.29-74.03,0.29c-40.89,0-74.03-0.13-74.03-0.29
								c0-0.16,33.14-0.29,74.03-0.29C296.33,308.82,329.48,308.95,329.48,309.11z"/>
						</g>
						<g>
							<path style="fill:#455A64;" d="M329.48,296.78c0,0.16-33.15,0.29-74.03,0.29c-40.89,0-74.03-0.13-74.03-0.29
								c0-0.16,33.14-0.29,74.03-0.29C296.33,296.49,329.48,296.62,329.48,296.78z"/>
						</g>
						<g>
							<path style="fill:#455A64;" d="M262.01,321.6c0,0.16-18.04,0.29-40.29,0.29c-22.26,0-40.3-0.13-40.3-0.29
								c0-0.16,18.04-0.29,40.3-0.29C243.97,321.31,262.01,321.44,262.01,321.6z"/>
						</g>
					</g>
				</g>
				<g>
					<g>
						<path style="fill:#263238;" d="M252.07,455.93c-0.01,1.76-1.42,3.18-3.16,3.18c-1.74-0.01-3.14-1.44-3.13-3.21
							c0.01-1.76,1.42-3.19,3.16-3.18C250.67,452.73,252.07,454.17,252.07,455.93z"/>
					</g>
					<g>
						<path style="fill:#263238;" d="M261.81,455.98c-0.01,1.76-1.42,3.18-3.16,3.18c-1.74-0.01-3.14-1.44-3.13-3.21
							c0.01-1.76,1.42-3.18,3.16-3.18C260.42,452.78,261.82,454.21,261.81,455.98z"/>
					</g>
					<g>
						<path style="fill:#263238;" d="M271.56,456.02c-0.01,1.76-1.42,3.19-3.16,3.18c-1.74-0.01-3.14-1.44-3.13-3.21
							c0.01-1.76,1.42-3.18,3.16-3.18C270.17,452.82,271.57,454.26,271.56,456.02z"/>
					</g>
				</g>
			</g>
			<g>
				<rect x="172.71" y="155.64" style="fill:#E0E0E0;" width="175.19" height="107.14"/>
				<polygon style="fill:#F5F5F5;" points="188.89,262.79 239.09,195.6 270.21,237.62 291.3,215.15 332.67,262.75 				"/>
				<g>
					<g>
						<path style="fill:#F5F5F5;" d="M283.4,187.36c0,6.25-5.07,11.32-11.32,11.32c-6.25,0-11.32-5.07-11.32-11.32
							c0-6.25,5.07-11.32,11.32-11.32C278.33,176.04,283.4,181.11,283.4,187.36z"/>
					</g>
				</g>
			</g>
			<g>
				<path style="fill:#263238;" d="M347.43,362.34c0-2.29-0.11-99.08-0.26-242.35l0.26,0.26c-52.83,0.01-112.38,0.02-175.17,0.03
					h-0.02l0.29-0.29c-0.02,90.63-0.04,174.51-0.05,242.35l-0.23-0.23C278.48,362.25,345.52,362.34,347.43,362.34
					c-1.91,0-68.95,0.09-175.19,0.23l-0.23,0l0-0.23c-0.01-67.84-0.03-151.72-0.05-242.35l0-0.29h0.29h0.02
					c62.79,0.01,122.34,0.02,175.17,0.03l0.26,0l0,0.26c-0.05,71.71-0.1,132.32-0.13,175.02c-0.03,21.32-0.05,38.16-0.07,49.68
					c-0.01,5.74-0.02,10.16-0.03,13.15c-0.01,1.48-0.01,2.61-0.02,3.37C347.44,361.97,347.43,362.34,347.43,362.34z"/>
			</g>
		</g>
	</g>
	<g>
		<g>
			<g>
				<g>
					<path style="fill:#FFBE9D;" d="M265.11,392.4l3.88-13.02c0.68-2.82,1.57-6.15,2.78-9.96c1.09-3.42,3.87-7.01,6.41-9.59
						c3.96-4.02,5.84-4.05,8.5-6.19c0.24-0.16,0.51-0.38,0.74-0.5c0.55-0.3,0.95-0.69,1.29-1.12c2.29-2.48,0.09-6.31-4.56-5.95
						c-3.5,0.27-9.22,1.28-18.51,10.86c-0.12,0.15-0.24,0.27-0.35,0.42c-4.88,6.34-9.46-11.76-10.28-18.49
						c-0.54-4.37-5.26-7.06-9.54-5.47l-22.63,10.59c-1.87-0.66-4.09-0.55-6.61,0.22c-3.33,1.23-5.18,4.66-4.31,7.98l9.18,36.64
						l-26.96,89.71h58.11L265.11,392.4z"/>
				</g>
				<g>
					<g>
						<g>
							<g>
								<path style="fill:#E8505B;" d="M309.75,310.01l-17.96,35.2l-8.98-2.5l-45.15,36.73c-3.84,3.13-9.47,2.62-12.7-1.13
									l-17.19-19.97c0,0,34.66-14.93,41.07-27.29c6.41-12.36-1-15.16-1-15.16l16.31-18.54L309.75,310.01z"/>
							</g>
						</g>
						<g>
							<path style="fill:#E8505B;" d="M286.45,238.11c0,0-26.29-5.82-63.3-41.4c-37-35.58-54.39-82.83-58.92-82.6
								c-4.53,0.23-24.31-8.95-61.92,72.87c-37.61,81.82-22.8,100.82-15.31,100.67c7.48-0.15,58.31-14.32,90.05-10.71
								c31.74,3.61,72.54,20.15,72.54,20.15L286.45,238.11z"/>
						</g>
						<g>
							<path style="fill:#E8505B;" d="M342.31,282.71l-8.97,17.06l-4.02,7.64c-5.51,10.48-18.26,14.81-29.02,9.86l-56.36-19.64
								l32.82-74.93l56.31,30.01C343.89,258.46,348.01,271.87,342.31,282.71z"/>
						</g>
						<g style="opacity:0.4;">
							<path d="M342.31,282.71l-8.97,17.06l-4.02,7.64c-5.51,10.48-18.26,14.81-29.02,9.86l-56.36-19.64l32.82-74.93l56.31,30.01
								C343.89,258.46,348.01,271.87,342.31,282.71z"/>
						</g>
						<g>
							<path style="fill:#E8505B;" d="M105.36,188.47c-20.02,44.32-28.35,83.82-18.61,88.22c9.74,4.4,33.86-27.97,53.88-72.29
								c20.02-44.32,28.35-83.82,18.61-88.21C149.5,111.78,125.38,144.14,105.36,188.47z"/>
						</g>
						<g style="opacity:0.5;">
							<path d="M105.36,188.47c-20.02,44.32-28.35,83.82-18.61,88.22c9.74,4.4,33.86-27.97,53.88-72.29
								c20.02-44.32,28.35-83.82,18.61-88.21C149.5,111.78,125.38,144.14,105.36,188.47z"/>
						</g>
					</g>
					<g>
						<polygon style="fill:#E8505B;" points="347.15,307.35 331.87,302.55 341.33,284.58 352.78,291.7 						"/>
					</g>
					<g style="opacity:0.6;">
						<polygon points="341.33,284.58 331.87,302.55 335.01,303.54 342.7,285.43 						"/>
					</g>
					<g>
						<path style="fill:#E8505B;" d="M330.8,288.73c-0.22,0.49-7.85-2.47-17.03-6.62c-9.19-4.15-16.44-7.91-16.22-8.41
							c0.22-0.49,7.84,2.47,17.03,6.62C323.76,284.47,331.02,288.23,330.8,288.73z"/>
					</g>
					<g>
						<path style="fill:#E8505B;" d="M335.5,278.02c-0.24,0.49-7.14-2.42-15.41-6.49c-8.27-4.08-14.78-7.77-14.54-8.26
							c0.24-0.49,7.13,2.42,15.41,6.5C329.23,273.84,335.74,277.54,335.5,278.02z"/>
					</g>
					<g>
						<path style="fill:#E8505B;" d="M324.88,299.95c-0.08,0.26-1.9-0.16-4.79-1.05c-1.45-0.45-3.16-1.01-5.06-1.67
							c-1.88-0.68-3.84-1.67-5.93-2.62c-8.36-3.88-14.74-7.68-14.53-8.13c0.25-0.53,7.07,2.5,15.35,6.34c2.08,0.94,4,1.98,5.82,2.74
							c1.82,0.74,3.46,1.42,4.82,2.03C323.29,298.81,324.95,299.69,324.88,299.95z"/>
					</g>
					<g>
						<path style="fill:#E8505B;" d="M146.17,178.61c0,0-22.85-14.17-35.36,16.71c-12.5,30.88,11.54,35.95,11.54,35.95
							C132.2,216.01,140.19,198.52,146.17,178.61z"/>
					</g>
					<g style="opacity:0.5;">
						<path d="M170.48,141.81c0.13,0.02-0.19,2.12-0.9,5.9c-0.72,3.77-1.74,9.25-3.21,15.97c-0.97,3.31-2.02,6.93-3.15,10.81
							c-0.57,1.94-1.17,3.95-1.78,6.02c-0.31,1.03-0.62,2.08-0.93,3.15c-0.34,1.05-0.79,2.09-1.18,3.16
							c-1.65,4.25-3.37,8.7-5.16,13.32c-0.45,1.16-0.9,2.32-1.36,3.49c-0.44,1.18-1.07,2.29-1.61,3.45c-1.12,2.3-2.25,4.64-3.4,7
							c-1.15,2.36-2.29,4.7-3.41,7c-0.58,1.14-1.07,2.32-1.72,3.4c-0.64,1.09-1.28,2.16-1.91,3.23c-2.52,4.26-4.96,8.38-7.28,12.3
							c-0.59,0.97-1.13,1.96-1.75,2.88c-0.64,0.91-1.27,1.8-1.9,2.68c-1.25,1.76-2.46,3.47-3.64,5.12
							c-2.35,3.29-4.54,6.36-6.55,9.17c-4.37,5.29-8.03,9.47-10.55,12.37c-2.53,2.89-3.98,4.44-4.09,4.35
							c-0.1-0.09,1.15-1.81,3.5-4.84c2.44-3.09,5.86-7.43,10.07-12.77c1.93-2.83,4.04-5.93,6.31-9.24c1.14-1.66,2.31-3.37,3.53-5.13
							c0.61-0.88,1.22-1.78,1.85-2.68c0.6-0.92,1.13-1.91,1.7-2.88c2.27-3.91,4.66-8.02,7.14-12.27c0.62-1.06,1.25-2.14,1.88-3.22
							c0.64-1.07,1.12-2.25,1.7-3.38c1.11-2.29,2.23-4.61,3.37-6.96c1.14-2.35,2.27-4.67,3.38-6.95c0.53-1.15,1.16-2.25,1.61-3.42
							c0.46-1.16,0.91-2.32,1.37-3.46c1.81-4.57,3.57-8.98,5.23-13.19c0.41-1.06,0.86-2.08,1.21-3.12c0.33-1.05,0.65-2.09,0.97-3.11
							c0.64-2.04,1.26-4.03,1.86-5.95c1.21-3.83,2.33-7.41,3.37-10.68c1.59-6.59,2.88-11.95,3.8-15.77
							C169.77,143.84,170.34,141.79,170.48,141.81z"/>
					</g>
				</g>
				<g style="opacity:0.4;">
					<path d="M213.24,355.89c2.08,3.78,4.21,7.63,7.3,10.65c3.09,3.02,7.32,5.17,11.62,4.73c4.3-0.43,8.37-4,8.42-8.32
						c2.06,1.55,5.23,0.71,6.93-1.22c1.71-1.93,2.26-4.62,2.47-7.19c2.8,1.65,6.7,0.34,8.57-2.32c1.87-2.66,1.99-6.25,1.08-9.37
						c-0.91-3.12-2.72-5.9-4.5-8.62c2.16,0.17,4.44,0.33,6.37-0.65c1.93-0.98,3.23-3.53,2.11-5.38c-0.66-1.09-1.93-1.62-3.14-2
						c-3.38-1.06-5.75-1.91-9.27-1.5c-0.82,0.01,1.41,9.28-20.69,21.97C217.47,354.15,213.24,355.89,213.24,355.89z"/>
				</g>
			</g>
			<g>
				<path style="fill:#EB996E;" d="M263,369.29c-0.01,0.1-1.49-0.18-3.87-0.12c-2.37,0.05-5.68,0.57-8.96,2.14
					c-3.27,1.57-5.75,3.83-7.28,5.64c-1.54,1.82-2.24,3.14-2.33,3.09c-0.03-0.02,0.11-0.36,0.43-0.96c0.32-0.6,0.84-1.43,1.59-2.39
					c1.47-1.91,3.98-4.29,7.35-5.9c3.37-1.61,6.79-2.08,9.2-2.03c1.21,0.02,2.19,0.13,2.85,0.26
					C262.64,369.15,263,369.26,263,369.29z"/>
			</g>
			<path style="fill:#FFBE9D;" d="M214.68,350c3.56,3.42,5.99,7.19,9.73,10.64c1.7,1.56,4.33,4.53,6.61,4.92
				c2.27,0.39,3.73,0.09,4.63-2.03c0.73-1.72-0.58-4.07-1.48-5.49c-2.38-3.73-4.65-6.65-6.43-9.55c-0.83-1.36,0.25-1.64,0.64-1.01
				c1.71,1.78,4.27,3.31,5.8,5.25c2.1,2.65,2.48,6.15,7.98,5.04c0.73-0.15,1.45-0.4,2.04-0.85c2.07-1.58,2.16-4.34,1.29-6.54
				c-0.68-1.73-1.88-3.19-3.06-4.63c2.34,2.64,4.89,5.42,8.61,5.72c2.16,0.17,4.34-0.83,5.21-2.82c1.1-2.5-0.48-4.92-2.06-6.87
				c-2.81-3.46-5.94-6.66-9.34-9.54c-1.27-1.07-2.88-1.67-4.54-1.68c-1.92-0.01-4.33,0.35-5.52,2.02c-2.16,3.04-1.49,5.73-1.49,5.73
				s-4.83-2.45-8.7,0.11c-3.88,2.56-4.84,6.96-4.84,6.96L214.68,350z"/>
			<path style="fill:#FFBE9D;" d="M240.37,329.5c-1.49-1.5-1.84-4.26-0.68-6.53c0.82-1.61,1.86-3.17,2.91-3.53
				c4.59-1.55,24.65,1.92,24.47,6.37c-0.19,4.57-1.65,6.58-12.53,5.01c-1.92-0.28-4.92-0.65-4.92-0.65l-2.63,3.94L240.37,329.5z"/>
		</g>
		<g>
			<path style="fill:#EB996E;" d="M243.96,348.14c-0.16,0.1-1.69-3.02-4.8-5.81c-3.08-2.83-6.33-4.04-6.25-4.21
				c0.02-0.06,0.86,0.15,2.12,0.75c1.26,0.59,2.92,1.61,4.51,3.04c1.58,1.44,2.76,2.99,3.47,4.19
				C243.72,347.3,244.02,348.11,243.96,348.14z"/>
		</g>
		<g>
			<path style="fill:#EB996E;" d="M247.33,334.46c-0.1,0.09-1.42-0.99-3.23-2.09c-0.9-0.55-1.73-1.02-2.35-1.3
				c-0.62-0.29-1.03-0.37-1.03-0.46c0-0.07,0.47-0.13,1.17,0.08c0.7,0.2,1.59,0.62,2.52,1.19
				C246.25,333.01,247.47,334.34,247.33,334.46z"/>
		</g>
		<g>
			<path style="fill:#EB996E;" d="M250.7,330.32c-0.01,0.12-1.76,0.17-3.86-0.44c-1.05-0.32-1.93-0.82-2.47-1.29
				c-0.55-0.47-0.78-0.86-0.73-0.91c0.11-0.1,1.35,1.09,3.37,1.66C248.99,329.92,250.73,330.13,250.7,330.32z"/>
		</g>
		<g>
			<path style="fill:#EB996E;" d="M231.21,353.65c-0.06,0.05-0.77-0.86-1.83-2.38c-1.08-1.48-2.45-3.69-4.68-5.32
				c-2.24-1.63-4.87-2.02-6.63-1.76c-1.8,0.25-2.74,0.99-2.79,0.89c-0.02-0.03,0.19-0.23,0.64-0.51c0.44-0.28,1.16-0.59,2.09-0.78
				c1.85-0.38,4.66-0.04,7.03,1.69c2.36,1.73,3.69,4.03,4.69,5.56C230.68,352.63,231.27,353.6,231.21,353.65z"/>
		</g>
		<g>
			<path style="fill:#EB996E;" d="M246.55,398.01c0.02,0.16-3.65,0.68-8.2,1.18c-4.55,0.49-8.24,0.77-8.26,0.61
				c-0.02-0.16,3.65-0.68,8.2-1.18C242.83,398.13,246.53,397.86,246.55,398.01z"/>
		</g>
	</g>
	<g>
		<polygon style="fill:#E8505B;" points="419.11,33.71 420.35,35.97 422.61,37.2 420.35,38.44 419.11,40.7 417.88,38.44 
			415.62,37.2 417.88,35.97 		"/>
		<polygon style="fill:#E8505B;" points="444.97,89.76 446.21,92.02 448.47,93.26 446.21,94.49 444.97,96.75 443.73,94.49 
			441.47,93.26 443.73,92.02 		"/>
		<polygon style="fill:#E8505B;" points="30.54,239.3 31.77,241.57 34.04,242.8 31.77,244.04 30.54,246.3 29.3,244.04 27.04,242.8 
			29.3,241.57 		"/>
		<polygon style="fill:#E8505B;" points="385.19,47.64 388.04,52.86 393.27,55.71 388.04,58.57 385.19,63.79 382.33,58.57 
			377.11,55.71 382.33,52.86 		"/>
		<polygon style="fill:#E8505B;" points="53.71,203.77 56.56,208.98 61.77,211.83 56.56,214.68 53.71,219.89 50.87,214.68 
			45.66,211.83 50.87,208.98 		"/>
		<polygon style="fill:#E8505B;" points="452.01,328.07 454.86,333.28 460.06,336.13 454.86,338.98 452.01,344.19 449.16,338.98 
			443.95,336.13 449.16,333.28 		"/>
	</g>
</g>
</svg>
