<?xml version="1.0" encoding="utf-8"?>
<!-- Generator: Adobe Illustrator 24.1.0, SVG Export Plug-In . SVG Version: 6.00 Build 0)  -->
<svg version="1.1" xmlns="http://www.w3.org/2000/svg" xmlns:xlink="http://www.w3.org/1999/xlink" x="0px" y="0px"
	 viewBox="0 0 500 500" style="enable-background:new 0 0 500 500;" xml:space="preserve">
<g id="Background_Complete">
</g>
<g id="Background_Simple" style="display:none;">
	
		<ellipse transform="matrix(0.8023 -0.597 0.597 0.8023 -109.3646 261.5676)" style="display:inline;fill:#F5F5F5;" cx="340.15" cy="295.87" rx="23.68" ry="23.68"/>
	<circle style="display:inline;fill:#F5F5F5;" cx="450.97" cy="228.16" r="20.87"/>
	<circle style="display:inline;fill:#F5F5F5;" cx="169.47" cy="199.94" r="11.2"/>
	<circle style="display:inline;fill:#F5F5F5;" cx="220.05" cy="48.37" r="11.2"/>
	<circle style="display:inline;fill:#F5F5F5;" cx="342.66" cy="48.37" r="21.33"/>
	<circle style="display:inline;fill:#F5F5F5;" cx="56.3" cy="246.22" r="20.83"/>
	<circle style="display:inline;fill:#F5F5F5;" cx="381.1" cy="143.11" r="18.93"/>
	
		<ellipse transform="matrix(0.9271 -0.3747 0.3747 0.9271 -23.8023 38.8412)" style="display:inline;fill:#F5F5F5;" cx="87.97" cy="80.62" rx="34.61" ry="34.61"/>
</g>
<g id="Mind_Map">
</g>
<g id="Character">
</g>
<g id="Plant">
</g>
<g id="Desk">
	<g>
		<circle style="fill:#F0F0F0;" cx="66.65" cy="84.89" r="24.63"/>
		<g>
			<path style="fill:#E0E0E0;" d="M77.97,85.65c0,0.07-1.23,0.14-3.26,0.19c-2.03,0.05-4.86,0.08-8.06,0.09l-0.28,0l0-0.28
				c0-0.51,0-1.05,0-1.6c0-3.57,0.03-6.8,0.08-9.14c0.05-2.34,0.12-3.78,0.2-3.78s0.15,1.45,0.2,3.78c0.05,2.34,0.08,5.57,0.08,9.14
				c0,0.55,0,1.09,0,1.6l-0.28-0.28c3.2,0.01,6.03,0.04,8.06,0.09C76.74,85.51,77.97,85.58,77.97,85.65z"/>
		</g>
		<g>
			<path style="fill:#E0E0E0;" d="M66.73,64.3c0.16,0,0.28,0.93,0.28,2.07c0,1.14-0.13,2.07-0.28,2.07c-0.15,0-0.28-0.93-0.28-2.07
				C66.44,65.23,66.57,64.3,66.73,64.3z"/>
		</g>
		<g>
			<path style="fill:#E0E0E0;" d="M77.95,67.63c0.11,0.11-0.45,0.84-1.24,1.64c-0.8,0.8-1.53,1.35-1.64,1.24
				c-0.11-0.11,0.45-0.84,1.24-1.64C77.11,68.07,77.84,67.52,77.95,67.63z"/>
		</g>
		<g>
			<path style="fill:#E0E0E0;" d="M84.51,74.79c0.07,0.14-0.68,0.66-1.63,1.24c-0.95,0.58-1.76,1.01-1.85,0.88
				c-0.09-0.12,0.58-0.77,1.56-1.36C83.56,74.96,84.44,74.66,84.51,74.79z"/>
		</g>
		<g>
			<path style="fill:#E0E0E0;" d="M88.36,85.43c0,0.16-1.26,0.28-2.82,0.28c-1.56,0-2.82-0.13-2.82-0.28s1.26-0.28,2.82-0.28
				C87.1,85.15,88.36,85.28,88.36,85.43z"/>
		</g>
		<g>
			<path style="fill:#E0E0E0;" d="M49.23,85.06c0,0.16-1.19,0.28-2.66,0.28c-1.47,0-2.67-0.13-2.67-0.28c0-0.16,1.19-0.28,2.67-0.28
				C48.04,84.78,49.23,84.9,49.23,85.06z"/>
		</g>
		<g>
			<path style="fill:#E0E0E0;" d="M52,92.98c0.1,0.12-0.77,0.98-1.94,1.92c-1.17,0.94-2.2,1.61-2.29,1.48
				c-0.09-0.12,0.77-0.98,1.94-1.92C50.87,93.53,51.9,92.86,52,92.98z"/>
		</g>
		<g>
			<path style="fill:#E0E0E0;" d="M58.82,99.1c0.13,0.09-0.49,1.15-1.27,2.44c-0.78,1.29-1.42,2.33-1.56,2.26
				c-0.14-0.07,0.29-1.24,1.08-2.55C57.86,99.94,58.7,99.01,58.82,99.1z"/>
		</g>
		<g>
			<path style="fill:#E0E0E0;" d="M66.73,107c-0.16,0-0.28-1.26-0.28-2.82c0-1.56,0.13-2.82,0.28-2.82c0.15,0,0.28,1.26,0.28,2.82
				C67.01,105.74,66.88,107,66.73,107z"/>
		</g>
		<g>
			<path style="fill:#E0E0E0;" d="M78.89,103.24c-0.08,0.13-1.22-0.47-2.41-1.5c-1.19-1.03-1.93-2.08-1.82-2.18
				c0.12-0.1,1.03,0.75,2.19,1.76C78,102.33,78.98,103.11,78.89,103.24z"/>
		</g>
		<g>
			<path style="fill:#E0E0E0;" d="M84.6,97.1c-0.11,0.11-0.98-0.59-1.95-1.56c-0.97-0.97-1.67-1.84-1.56-1.95s0.98,0.59,1.95,1.56
				C84.01,96.11,84.71,96.99,84.6,97.1z"/>
		</g>
		<g>
			<path style="fill:#E0E0E0;" d="M51.74,77.47c-0.11,0.11-0.89-0.49-1.73-1.34c-0.85-0.85-1.45-1.63-1.34-1.73
				c0.11-0.11,0.89,0.49,1.73,1.34C51.25,76.58,51.85,77.36,51.74,77.47z"/>
		</g>
		<g>
			<path style="fill:#E0E0E0;" d="M58.78,70.05c-0.11,0.11-0.87-0.47-1.71-1.3c-0.83-0.83-1.42-1.59-1.31-1.7
				c0.11-0.11,0.87,0.47,1.71,1.3C58.31,69.18,58.89,69.94,58.78,70.05z"/>
		</g>
	</g>
	<g>
		<g>
			<g>
				<path style="fill:#F0F0F0;" d="M117.94,462.62c14.8-8.63,19.47-26.52,20.25-42.89c0.13-2.73,0.67-5.58-0.43-8.08
					c-1.1-2.5-3.99-4.38-6.52-3.43c-2.1,0.79-3.18,3.07-4.47,4.92c-1.72,2.47-4.14,4.42-6.89,5.58c-1.81,0.76-4,1.13-5.63,0.05
					c-2.24-1.49-2.25-4.76-2.01-7.47c0.45-5.05,0.89-10.09,1.34-15.14c0.24-2.71,0.47-5.47-0.16-8.11c-0.63-2.64-2.3-5.18-4.82-6.12
					c-2.52-0.93-5.83,0.29-6.59,2.9c-0.32,1.08-0.19,2.25-0.35,3.37c-0.17,1.12-0.79,2.32-1.89,2.55c-1.11,0.23-2.13-0.63-2.87-1.49
					c-2.57-2.96-4.18-6.64-5.67-10.29c-1.49-3.65-2.91-7.38-5.2-10.57c-2.29-3.19-5.61-5.84-9.47-6.38
					c-3.86-0.54-8.19,1.52-9.49,5.25c-1.3,3.74,0.61,7.8,2.78,11.09c3.22,4.88,7.14,9.29,11.61,13.04c0.8,0.68,1.68,1.41,1.92,2.44
					c0.44,1.85-1.42,3.51-3.25,3.96c-2.07,0.51-4.25,0.12-6.38,0.19c-2.13,0.08-4.5,0.82-5.46,2.75c-1.34,2.68,0.74,5.77,2.86,7.86
					c4.25,4.18,9.21,7.62,14.61,10.11c1.93,0.89,3.98,1.7,5.47,3.24c1.49,1.53-1.41,6.28-2.54,8.11c-1.13,1.83,0,0-2.06-0.56
					c-2.05-0.56-3.83-1.85-5.76-2.76c-3.61-1.71-8.44-1.85-11.09,1.17c-1.74,1.99-2.12,4.92-1.53,7.51
					c0.59,2.59,2.01,4.89,3.56,7.03c5.39,7.49,12.57,13.75,20.96,17.46C101.16,463.59,109.1,465.05,117.94,462.62"/>
			</g>
		</g>
		<g>
			<g>
				<g>
					<path style="fill:#E0E0E0;" d="M117.16,474.73c-0.06-6.51-0.85-14.26-2.59-22.69c-1.73-8.43-4.38-17.52-7.49-26.93
						c-0.79-2.35-1.56-4.67-2.33-6.96c-0.77-2.28-1.53-4.54-2.41-6.71c-1.75-4.34-3.76-8.39-5.78-12.16
						c-2.03-3.78-4.09-7.29-6.04-10.56c-1.96-3.27-3.84-6.28-5.68-8.95c-3.65-5.36-7.1-9.32-9.58-11.95
						c-1.24-1.32-2.23-2.31-2.91-2.97c-0.33-0.31-0.59-0.56-0.78-0.75c-0.18-0.17-0.27-0.25-0.28-0.24
						c-0.01,0.01,0.08,0.1,0.24,0.28c0.19,0.19,0.43,0.45,0.75,0.78c0.66,0.69,1.63,1.7,2.84,3.03c2.43,2.66,5.83,6.65,9.43,12.02
						c1.81,2.68,3.67,5.69,5.61,8.96c1.93,3.28,3.98,6.79,5.99,10.57c2.01,3.77,4,7.81,5.73,12.13c0.87,2.16,1.63,4.4,2.4,6.69
						c0.76,2.29,1.54,4.61,2.32,6.95c3.1,9.4,5.77,18.46,7.51,26.86c1.76,8.4,2.58,16.11,2.69,22.6"/>
				</g>
			</g>
		</g>
		<g>
			<g>
				<g>
					<path style="fill:#E0E0E0;" d="M102.2,411.41c0.03,0.01,0.16-0.4,0.36-1.13c0.2-0.74,0.46-1.81,0.76-3.15
						c0.6-2.67,1.31-6.38,2.08-10.47c0.77-4.1,1.53-7.79,2.17-10.43c0.32-1.33,0.59-2.4,0.78-3.13c0.19-0.74,0.28-1.15,0.25-1.16
						c-0.03-0.01-0.19,0.38-0.43,1.11c-0.25,0.72-0.57,1.78-0.94,3.1c-0.73,2.64-1.55,6.33-2.32,10.43
						c-0.75,4.04-1.42,7.7-1.94,10.49c-0.24,1.26-0.44,2.32-0.61,3.18C102.23,410.99,102.16,411.41,102.2,411.41z"/>
				</g>
			</g>
		</g>
		<g>
			<g>
				<g>
					<path style="fill:#E0E0E0;" d="M67.9,402.04c0,0.03,0.49,0.13,1.38,0.28c0.89,0.15,2.17,0.37,3.75,0.68
						c3.16,0.61,7.5,1.6,12.24,2.9c4.74,1.31,8.98,2.68,12.01,3.76c1.52,0.53,2.74,0.99,3.59,1.3c0.84,0.32,1.32,0.48,1.33,0.45
						c0.01-0.03-0.44-0.25-1.26-0.63c-0.82-0.37-2.03-0.88-3.54-1.46c-3.01-1.17-7.25-2.6-12-3.91c-4.75-1.31-9.12-2.24-12.31-2.76
						c-1.59-0.27-2.89-0.43-3.79-0.53C68.4,402.04,67.91,402.01,67.9,402.04z"/>
				</g>
			</g>
		</g>
		<g>
			<g>
				<g>
					<path style="fill:#E0E0E0;" d="M114.19,451.37c0.02,0.01,0.11-0.13,0.27-0.41c0.19-0.33,0.42-0.73,0.7-1.21
						c0.6-1.05,1.43-2.6,2.44-4.53c2.01-3.85,4.61-9.26,7.41-15.27c2.8-6.01,5.35-11.44,7.27-15.32c0.94-1.89,1.72-3.44,2.29-4.6
						c0.25-0.5,0.45-0.92,0.62-1.26c0.14-0.29,0.2-0.45,0.19-0.45c-0.02-0.01-0.11,0.13-0.27,0.41c-0.19,0.33-0.42,0.73-0.7,1.21
						c-0.6,1.05-1.43,2.6-2.44,4.53c-2.01,3.85-4.61,9.26-7.41,15.27c-2.8,6.01-5.35,11.43-7.27,15.32
						c-0.94,1.89-1.72,3.44-2.29,4.6c-0.25,0.5-0.45,0.92-0.62,1.26C114.24,451.2,114.18,451.36,114.19,451.37z"/>
				</g>
			</g>
		</g>
		<g>
			<g>
				<g>
					<path style="fill:#E0E0E0;" d="M69.13,432.65c-0.01,0.02,0.15,0.09,0.44,0.23c0.35,0.15,0.78,0.34,1.31,0.56
						c1.21,0.5,2.84,1.19,4.82,2.01c4.07,1.7,9.67,4.11,15.86,6.79c6.19,2.68,11.81,5.04,15.92,6.66c2.05,0.81,3.72,1.45,4.89,1.86
						c0.54,0.19,0.98,0.35,1.34,0.47c0.31,0.1,0.47,0.15,0.48,0.13c0.01-0.02-0.15-0.09-0.44-0.23c-0.35-0.15-0.78-0.34-1.31-0.56
						c-1.21-0.5-2.84-1.18-4.82-2.01c-4.07-1.7-9.67-4.11-15.86-6.79c-6.18-2.68-11.81-5.04-15.92-6.66
						c-2.05-0.81-3.72-1.45-4.89-1.86c-0.54-0.19-0.98-0.35-1.34-0.47C69.3,432.68,69.14,432.63,69.13,432.65z"/>
				</g>
			</g>
		</g>
	</g>
	<g>
		<g>
			<g>
				<rect x="428.65" y="427.45" style="fill:#E0E0E0;" width="6.6" height="46.86"/>
			</g>
			<g>
				<rect x="405.03" y="427.45" style="fill:#E0E0E0;" width="6.6" height="46.86"/>
			</g>
			<g>
				<rect x="345.74" y="427.45" style="fill:#E0E0E0;" width="6.6" height="46.86"/>
			</g>
			<g>
				<rect x="325.42" y="427.45" style="fill:#E0E0E0;" width="6.6" height="46.86"/>
			</g>
			<g>
				<g>
					<path style="fill:#EBEBEB;" d="M346.93,346.93c0,0-18.03-5.21-23.42,2.31c-5.39,7.52-5.97,79.95-5.97,79.95s34.91,0.64,35.55,0
						C353.74,428.55,346.93,346.93,346.93,346.93z"/>
				</g>
				<g>
					<path style="fill:#EBEBEB;" d="M449.23,420.31l-1.6-137.48c-1.12-16.6-13.17-19-14.93-20c-7.4-4.2-77.95-6.87-83.76,9.4
						c-5.8,16.27,0,144.25,0,144.25L449.23,420.31z"/>
				</g>
				<g>
					<path style="fill:#EBEBEB;" d="M449.19,416.48c0,0-17.77-26.21-38.66-27.07c-20.88-0.86-65.9,0-65.9,0s-19.96,0.76-21.35,25.47
						v14.58h125.91V416.48z"/>
				</g>
				<g>
					<g>
						<path style="fill:#F0F0F0;" d="M448.65,347.03c0,0-29.9-7.74-35.31,2.44c-5.41,10.18-6.36,80.3-6.36,80.3
							s43.18,1.59,43.28-0.23C450.36,427.73,448.65,347.03,448.65,347.03z"/>
					</g>
					<g>
						<path style="fill:#E0E0E0;" d="M450.27,346.7c0,0-19.75-5.08-25.14,2.44c-5.39,7.52-6.81,80.99-6.81,80.99
							s31.52,0.93,32.16,0.29C451.11,429.78,450.27,346.7,450.27,346.7z"/>
					</g>
				</g>
			</g>
		</g>
		<g>
			<g>
				<path style="fill:#E0E0E0;" d="M434.88,344.96c-0.01,0-0.03-0.12-0.05-0.35c-0.02-0.26-0.05-0.6-0.09-1.02
					c-0.07-0.94-0.17-2.26-0.29-3.94c-0.23-3.46-0.56-8.4-0.97-14.48c-0.39-6.13-0.85-13.41-1.36-21.48
					c-0.25-4.04-0.51-8.29-0.78-12.69c-0.32-4.39-0.31-9.01-1.63-13.45c-0.68-2.2-1.7-4.28-3.2-5.95c-1.46-1.7-3.18-3.15-5.01-4.33
					c-3.67-2.37-7.71-3.87-11.65-4.61c-1.98-0.38-3.93-0.48-5.85-0.56c-1.92-0.07-3.78-0.15-5.58-0.22
					c-3.6-0.12-6.95-0.18-10.02-0.21c-6.12-0.05-11.08,0.08-14.5,0.28c-1.71,0.1-3.04,0.19-3.93,0.28
					c-0.42,0.04-0.76,0.06-1.02,0.09c-0.23,0.02-0.35,0.02-0.35,0.01c0-0.01,0.12-0.03,0.34-0.07c0.26-0.04,0.59-0.08,1.02-0.14
					c0.89-0.13,2.22-0.25,3.93-0.38c3.42-0.26,8.38-0.45,14.51-0.45c3.07,0,6.42,0.04,10.03,0.14c1.8,0.06,3.67,0.12,5.58,0.19
					c1.91,0.07,3.92,0.17,5.92,0.55c4.01,0.74,8.11,2.25,11.86,4.66c1.87,1.2,3.63,2.68,5.14,4.43c1.55,1.73,2.62,3.9,3.31,6.15
					c1.35,4.57,1.32,9.2,1.64,13.58c0.26,4.4,0.51,8.64,0.75,12.69c0.47,8.08,0.89,15.36,1.24,21.49c0.33,6.09,0.6,11.03,0.79,14.49
					c0.08,1.68,0.14,3,0.19,3.94c0.01,0.43,0.03,0.76,0.03,1.03C434.89,344.84,434.89,344.96,434.88,344.96z"/>
			</g>
		</g>
		<g>
			<g>
				<path style="fill:#E0E0E0;" d="M435.83,285.53c0.01,0.16-1.08,0.32-2.41,0.58c-1.32,0.25-2.4,0.5-2.45,0.35
					c-0.05-0.14,0.97-0.64,2.34-0.9C434.69,285.29,435.83,285.37,435.83,285.53z"/>
			</g>
		</g>
		<g>
			<g>
				<path style="fill:#E0E0E0;" d="M438.53,288.8c-0.03,0.16-1.62,0-3.57-0.17c-1.95-0.17-3.54-0.28-3.54-0.44
					c0-0.15,1.61-0.29,3.59-0.12C436.99,288.24,438.56,288.65,438.53,288.8z"/>
			</g>
		</g>
		<g>
			<g>
				<path style="fill:#E0E0E0;" d="M436.83,313.35c-0.01,0.15-0.94,0.23-2.08,0.16c-1.14-0.07-2.06-0.25-2.05-0.4
					c0.01-0.15,0.94-0.23,2.08-0.16C435.92,313.02,436.84,313.2,436.83,313.35z"/>
			</g>
		</g>
		<g>
			<g>
				<g>
					<path style="fill:#E0E0E0;" d="M405.91,303.95c0.05,0.09-0.95,0.19-1.58,1.4c-0.29,0.57-0.47,1.4-0.14,2.16
						c0.3,0.77,1.2,1.28,2.17,1.27c0.97-0.01,1.86-0.56,2.13-1.33c0.3-0.77,0.1-1.59-0.21-2.16c-0.67-1.18-1.67-1.25-1.62-1.35
						c0-0.02,0.23-0.07,0.62,0.06c0.39,0.12,0.92,0.46,1.34,1.08c0.39,0.61,0.7,1.55,0.36,2.54c-0.32,1.01-1.46,1.71-2.61,1.71
						c-1.15,0.03-2.31-0.63-2.66-1.63c-0.37-0.98-0.1-1.93,0.28-2.55c0.4-0.63,0.92-0.99,1.3-1.12
						C405.67,303.89,405.91,303.93,405.91,303.95z"/>
				</g>
			</g>
			<g>
				<g>
					<path style="fill:#E0E0E0;" d="M408.57,303.31c0.02,0.06-0.67,0.34-1.85,0.46c-1.17,0.13-2.85,0.02-4.56-0.59
						c-1.71-0.62-3.07-1.6-3.9-2.44c-0.83-0.84-1.18-1.49-1.13-1.53c0.07-0.06,0.53,0.5,1.4,1.24c0.87,0.74,2.19,1.62,3.82,2.21
						c1.63,0.58,3.21,0.74,4.35,0.72C407.84,303.36,408.55,303.22,408.57,303.31z"/>
				</g>
			</g>
			<g>
				<g>
					<path style="fill:#E0E0E0;" d="M401.87,321.33c-0.07,0.01-0.33-0.77-0.62-2.07c-0.27-1.3-0.6-3.19-0.14-5.26
						c0.49-2.08,1.88-3.61,3.12-4.22c1.26-0.63,2.17-0.43,2.15-0.39c0.01,0.11-0.85,0.07-1.96,0.74c-1.09,0.64-2.32,2.09-2.77,4
						c-0.43,1.92-0.19,3.76-0.02,5.06C401.82,320.5,401.95,321.32,401.87,321.33z"/>
				</g>
			</g>
			<g>
				<g>
					<path style="fill:#E0E0E0;" d="M414.39,315.36c-0.01,0.06-0.63,0-1.52-0.42c-0.89-0.41-2.01-1.25-2.87-2.5
						c-0.86-1.25-1.24-2.6-1.31-3.57c-0.07-0.98,0.09-1.58,0.15-1.57c0.09,0.01,0.08,0.6,0.25,1.51c0.16,0.91,0.58,2.14,1.38,3.31
						c0.8,1.16,1.8,1.99,2.6,2.47C413.85,315.08,414.41,315.28,414.39,315.36z"/>
				</g>
			</g>
		</g>
		<g>
			<g>
				<g>
					<path style="fill:#E0E0E0;" d="M372.62,303.95c0.05,0.09-0.95,0.19-1.58,1.4c-0.29,0.57-0.47,1.4-0.14,2.16
						c0.3,0.77,1.2,1.28,2.17,1.27c0.97-0.01,1.86-0.56,2.13-1.33c0.3-0.77,0.1-1.59-0.21-2.16c-0.67-1.18-1.67-1.25-1.62-1.35
						c0-0.02,0.23-0.07,0.62,0.06c0.39,0.12,0.92,0.46,1.34,1.08c0.39,0.61,0.7,1.55,0.36,2.54c-0.32,1.01-1.46,1.71-2.61,1.71
						c-1.15,0.03-2.31-0.63-2.66-1.63c-0.37-0.98-0.1-1.93,0.28-2.55c0.4-0.63,0.92-0.99,1.3-1.12
						C372.38,303.89,372.62,303.93,372.62,303.95z"/>
				</g>
			</g>
			<g>
				<g>
					<path style="fill:#E0E0E0;" d="M375.28,303.31c0.02,0.06-0.67,0.34-1.85,0.46c-1.17,0.13-2.85,0.02-4.56-0.59
						c-1.71-0.62-3.07-1.6-3.9-2.44c-0.83-0.84-1.18-1.49-1.13-1.53c0.07-0.06,0.53,0.5,1.4,1.24c0.87,0.74,2.19,1.62,3.82,2.21
						c1.63,0.58,3.21,0.74,4.35,0.72C374.55,303.36,375.26,303.22,375.28,303.31z"/>
				</g>
			</g>
			<g>
				<g>
					<path style="fill:#E0E0E0;" d="M368.58,321.33c-0.07,0.01-0.33-0.77-0.62-2.07c-0.27-1.3-0.6-3.19-0.14-5.26
						c0.49-2.08,1.88-3.61,3.12-4.22c1.26-0.63,2.17-0.43,2.15-0.39c0.01,0.11-0.85,0.07-1.96,0.74c-1.09,0.64-2.32,2.09-2.77,4
						c-0.43,1.92-0.19,3.76-0.02,5.06C368.53,320.5,368.66,321.32,368.58,321.33z"/>
				</g>
			</g>
			<g>
				<g>
					<path style="fill:#E0E0E0;" d="M381.1,315.36c-0.01,0.06-0.63,0-1.52-0.42c-0.89-0.41-2.01-1.25-2.87-2.5
						c-0.86-1.25-1.24-2.6-1.31-3.57c-0.07-0.98,0.09-1.58,0.15-1.57c0.09,0.01,0.08,0.6,0.25,1.51c0.16,0.91,0.58,2.14,1.38,3.31
						c0.8,1.16,1.8,1.99,2.6,2.47C380.56,315.08,381.12,315.28,381.1,315.36z"/>
				</g>
			</g>
		</g>
		<g>
			<g>
				<path style="fill:#E0E0E0;" d="M347.6,344.65c0.04,0,0.05,0.63,0.04,1.76c-0.02,1.23-0.06,2.84-0.09,4.79
					c-0.09,4.05-0.22,9.64-0.29,15.81c-0.08,6.18-0.09,11.77-0.1,15.81c-0.01,1.95-0.02,3.56-0.03,4.79
					c-0.01,1.13-0.04,1.76-0.08,1.76c-0.04,0-0.09-0.62-0.14-1.76c-0.05-1.13-0.11-2.77-0.15-4.79c-0.09-4.05-0.14-9.64-0.06-15.83
					c0.08-6.18,0.26-11.77,0.46-15.82c0.1-2.02,0.19-3.66,0.27-4.79C347.5,345.27,347.56,344.64,347.6,344.65z"/>
			</g>
		</g>
		<g>
			<g>
				<path style="fill:#E0E0E0;" d="M409.64,389.6c0,0.01-0.1,0.02-0.3,0.03c-0.23,0.01-0.52,0.01-0.87,0.02
					c-0.81,0.01-1.93,0.02-3.36,0.03c-2.96,0-7.17,0-12.35-0.01c-5.23-0.02-11.44-0.05-18.32-0.08c-3.45-0.02-7.07-0.04-10.82-0.07
					c-3.75-0.02-7.63-0.02-11.58,0.31c-3.95,0.32-7.78,1-11.31,2.2c-3.52,1.2-6.74,2.9-9.4,5.05c-1.33,1.07-2.51,2.26-3.52,3.52
					c-0.5,0.63-0.97,1.27-1.38,1.94c-0.44,0.65-0.82,1.33-1.17,2c-1.45,2.68-2.29,5.42-2.83,7.95c-1.03,5.09-0.82,9.36-0.61,12.25
					c0.11,1.45,0.24,2.58,0.34,3.34c0.04,0.35,0.07,0.64,0.1,0.87c0.02,0.2,0.02,0.3,0.02,0.3c-0.01,0-0.03-0.1-0.07-0.29
					c-0.04-0.23-0.09-0.51-0.16-0.86c-0.13-0.76-0.3-1.88-0.44-3.33c-0.28-2.89-0.55-7.18,0.44-12.35c0.52-2.57,1.35-5.36,2.81-8.09
					c0.36-0.69,0.74-1.37,1.18-2.04c0.41-0.68,0.89-1.35,1.4-1.99c1.03-1.3,2.23-2.51,3.58-3.61c2.7-2.21,5.97-3.95,9.55-5.17
					c3.58-1.23,7.46-1.91,11.44-2.24c3.98-0.33,7.88-0.33,11.63-0.3c3.75,0.04,7.37,0.07,10.82,0.1c6.89,0.08,13.09,0.15,18.32,0.2
					c5.18,0.08,9.39,0.14,12.35,0.19c1.43,0.03,2.55,0.06,3.36,0.08c0.36,0.01,0.64,0.03,0.87,0.03
					C409.54,389.58,409.64,389.59,409.64,389.6z"/>
			</g>
		</g>
	</g>
	<g>
		<path style="fill:#263238;" d="M444.08,474.31c0,0.16-88.64,0.28-197.96,0.28c-109.36,0-197.98-0.13-197.98-0.28
			c0-0.16,88.62-0.28,197.98-0.28C355.44,474.03,444.08,474.15,444.08,474.31z"/>
	</g>
	<g>
		<g>
			<g>
				<g>
					<path style="fill:#263238;" d="M169.45,269.93c0,0.16-7.04,0.28-15.72,0.28c-8.68,0-15.72-0.13-15.72-0.28
						c0-0.15,7.04-0.28,15.72-0.28C162.41,269.65,169.45,269.78,169.45,269.93z"/>
				</g>
			</g>
			<g>
				<g>
					<path style="fill:#263238;" d="M168.88,273.98c0,0.16-6.91,0.28-15.43,0.28c-8.53,0-15.43-0.13-15.43-0.28
						c0-0.16,6.91-0.28,15.43-0.28C161.97,273.7,168.88,273.82,168.88,273.98z"/>
				</g>
			</g>
			<g>
				<g>
					<path style="fill:#263238;" d="M168.88,278.02c0,0.16-6.91,0.28-15.43,0.28c-8.53,0-15.43-0.13-15.43-0.28
						c0-0.15,6.91-0.28,15.43-0.28C161.97,277.74,168.88,277.87,168.88,278.02z"/>
				</g>
			</g>
			<g>
				<g>
					<path style="fill:#263238;" d="M168.88,282.07c0,0.16-6.91,0.28-15.43,0.28c-8.53,0-15.43-0.13-15.43-0.28
						c0-0.16,6.91-0.28,15.43-0.28C161.97,281.79,168.88,281.91,168.88,282.07z"/>
				</g>
			</g>
			<g>
				<g>
					<path style="fill:#263238;" d="M168.88,286.11c0,0.16-6.91,0.28-15.43,0.28c-8.53,0-15.43-0.13-15.43-0.28
						c0-0.15,6.91-0.28,15.43-0.28C161.97,285.83,168.88,285.96,168.88,286.11z"/>
				</g>
			</g>
			<g>
				<g>
					<path style="fill:#263238;" d="M153.07,290.16c0,0.16-3.37,0.28-7.53,0.28c-4.16,0-7.53-0.13-7.53-0.28
						c0-0.16,3.37-0.28,7.53-0.28C149.7,289.88,153.07,290,153.07,290.16z"/>
				</g>
			</g>
			<g>
				<g>
					<path style="fill:#E8505B;" d="M161.87,265.51c0,0.16-5.36,0.28-11.97,0.28c-6.61,0-11.98-0.13-11.98-0.28
						c0-0.15,5.36-0.28,11.98-0.28C156.5,265.23,161.87,265.35,161.87,265.51z"/>
				</g>
			</g>
		</g>
		<g>
			<g>
				<path style="fill:#263238;" d="M177.78,300.25c0,0-0.02-0.3-0.03-0.86c-0.01-0.58-0.02-1.4-0.03-2.45
					c-0.01-2.16-0.04-5.28-0.06-9.24c-0.03-7.95-0.07-19.28-0.12-32.9l0.24,0.24c-14.34,0.01-31.41,0.03-49.69,0.04
					c-0.07,0.06,0.53-0.53,0.28-0.27v0.01v0.02v0.05v0.1v0.19v0.39v0.77l0,1.54c0,1.03,0,2.05,0,3.07c0,2.04,0,4.06,0,6.05
					c0,4,0,7.91-0.01,11.73c-0.01,7.63-0.02,14.85-0.03,21.51l-0.25-0.25c14.81,0.05,27.19,0.09,35.91,0.12
					c4.35,0.03,7.77,0.05,10.15,0.06c1.16,0.01,2.06,0.02,2.69,0.03c0.29,0.01,0.52,0.01,0.7,0.01
					C177.69,300.24,177.77,300.24,177.78,300.25c0,0-0.07,0.01-0.22,0.01c-0.17,0-0.39,0.01-0.67,0.01
					c-0.63,0.01-1.51,0.02-2.65,0.03c-2.36,0.02-5.77,0.04-10.09,0.06c-8.75,0.03-21.2,0.07-36.07,0.12l-0.25,0l0-0.25
					c-0.01-6.66-0.02-13.89-0.03-21.51c0-3.81,0-7.73-0.01-11.73c0-2,0-4.02,0-6.05c0-1.02,0-2.04,0-3.07l0-1.54v-0.77v-0.39v-0.19
					v-0.1v-0.05v-0.02v-0.01c-0.25,0.25,0.34-0.35,0.29-0.29c18.28,0.02,35.35,0.03,49.69,0.04l0.24,0l0,0.24
					c-0.05,13.68-0.09,25.06-0.12,33.05c-0.03,3.94-0.05,7.04-0.06,9.19c-0.01,1.03-0.02,1.83-0.03,2.4
					C177.8,299.98,177.78,300.25,177.78,300.25z"/>
			</g>
		</g>
	</g>
	<g>
		<g>
			<g>
				<g>
					<path style="fill:#E8505B;" d="M147.03,131.87l23.89-0.16c-0.04-7.03-2.82-14.21-7.68-19.71c-5.73-6.48-14.33-10.63-24.74-9.5
						c-1.14,0.12-2.29,0.3-3.47,0.56c-0.03,0.01-0.06,0.01-0.08,0.02l0,0l6.48,28.78H147.03z"/>
				</g>
			</g>
			<g>
				<g>
					<path style="fill:#455A64;" d="M154.39,161.53c8.4-4.02,15.13-11.95,16.26-23.23c0.03-0.3,0.06-0.6,0.08-0.91
						c0.01-0.19,0.03-0.38,0.04-0.58c0.03-0.57,0.05-1.15,0.05-1.73c0-0.03,0-0.05,0-0.08c0,0,0,0,0,0c0-0.02,0-0.05,0-0.07h0h0
						l-23.89,0.16l-5.61,0.04l-6.28,28.79l-0.01,0.04h0c2.02,0.44,4.1,0.65,6.19,0.64C145.71,164.56,150.25,163.51,154.39,161.53z"
						/>
				</g>
			</g>
		</g>
		<g>
			<g>
				<path style="fill:#263238;" d="M138.44,133.41l-6.48-28.78c-13.18,2.95-23.03,14.71-23.03,28.78c0,14.14,9.95,25.95,23.22,28.83
					l6.28-28.79"/>
			</g>
		</g>
	</g>
	<g>
		<g>
			<g>
				<g>
					<g>
						<rect x="67.22" y="260.43" style="fill:#E8505B;" width="6.46" height="48.79"/>
					</g>
				</g>
				<g>
					<g>
						<rect x="57.26" y="280.97" style="fill:#455A64;" width="6.46" height="28.26"/>
					</g>
				</g>
				<g>
					<g>
						<rect x="47.3" y="276.56" style="fill:#E8505B;" width="6.46" height="32.66"/>
					</g>
				</g>
				<g>
					<g>
						<rect x="37.34" y="296.05" style="fill:#455A64;" width="6.46" height="13.17"/>
					</g>
				</g>
				<g>
					<g>
						<rect x="87.14" y="249.78" style="fill:#E8505B;" width="6.46" height="59.44"/>
					</g>
				</g>
				<g>
					<g>
						<rect x="77.18" y="255.21" style="fill:#455A64;" width="6.46" height="54.01"/>
					</g>
				</g>
				<g>
					<g>
						<rect x="107.06" y="243.89" style="fill:#E8505B;" width="6.46" height="65.33"/>
					</g>
				</g>
				<g>
					<g>
						<rect x="97.1" y="230.99" style="fill:#455A64;" width="6.46" height="78.23"/>
					</g>
				</g>
			</g>
		</g>
		<g>
			<g>
				<path style="fill:#263238;" d="M43.64,315.35c0,0.16-1.28,0.28-2.86,0.28c-1.58,0-2.86-0.13-2.86-0.28
					c0-0.16,1.28-0.28,2.86-0.28C42.36,315.06,43.64,315.19,43.64,315.35z"/>
			</g>
		</g>
		<g>
			<g>
				<path style="fill:#263238;" d="M53.46,315.35c0,0.16-1.28,0.28-2.86,0.28c-1.58,0-2.86-0.13-2.86-0.28
					c0-0.16,1.28-0.28,2.86-0.28C52.18,315.06,53.46,315.19,53.46,315.35z"/>
			</g>
		</g>
		<g>
			<g>
				<path style="fill:#263238;" d="M63.28,315.35c0,0.16-1.28,0.28-2.86,0.28c-1.58,0-2.86-0.13-2.86-0.28
					c0-0.16,1.28-0.28,2.86-0.28C62,315.06,63.28,315.19,63.28,315.35z"/>
			</g>
		</g>
		<g>
			<g>
				<path style="fill:#263238;" d="M73.09,315.35c0,0.16-1.28,0.28-2.86,0.28c-1.58,0-2.86-0.13-2.86-0.28
					c0-0.16,1.28-0.28,2.86-0.28C71.81,315.06,73.09,315.19,73.09,315.35z"/>
			</g>
		</g>
		<g>
			<g>
				<path style="fill:#263238;" d="M82.91,315.35c0,0.16-1.28,0.28-2.86,0.28c-1.58,0-2.86-0.13-2.86-0.28
					c0-0.16,1.28-0.28,2.86-0.28C81.63,315.06,82.91,315.19,82.91,315.35z"/>
			</g>
		</g>
		<g>
			<g>
				<path style="fill:#263238;" d="M92.73,315.35c0,0.16-1.28,0.28-2.86,0.28c-1.58,0-2.86-0.13-2.86-0.28
					c0-0.16,1.28-0.28,2.86-0.28C91.45,315.06,92.73,315.19,92.73,315.35z"/>
			</g>
		</g>
		<g>
			<g>
				<path style="fill:#263238;" d="M102.55,315.35c0,0.16-1.28,0.28-2.86,0.28c-1.58,0-2.86-0.13-2.86-0.28
					c0-0.16,1.28-0.28,2.86-0.28C101.27,315.06,102.55,315.19,102.55,315.35z"/>
			</g>
		</g>
		<g>
			<g>
				<path style="fill:#263238;" d="M112.36,315.35c0,0.16-1.28,0.28-2.86,0.28c-1.58,0-2.86-0.13-2.86-0.28
					c0-0.16,1.28-0.28,2.86-0.28C111.08,315.06,112.36,315.19,112.36,315.35z"/>
			</g>
		</g>
		<g>
			<g>
				<path style="fill:#263238;" d="M115.8,321.09c0,0.16-7.02,0.28-15.68,0.28c-8.66,0-15.68-0.13-15.68-0.28
					c0-0.15,7.02-0.28,15.68-0.28C108.78,320.81,115.8,320.94,115.8,321.09z"/>
			</g>
		</g>
		<g>
			<g>
				<path style="fill:#263238;" d="M97.1,324.4c0,0.16-2.46,0.28-5.5,0.28c-3.04,0-5.5-0.13-5.5-0.28c0-0.16,2.46-0.28,5.5-0.28
					C94.64,324.11,97.1,324.24,97.1,324.4z"/>
			</g>
		</g>
	</g>
	<g>
		<path style="fill:#263238;" d="M97.85,228.15c0-0.02,0.34-0.06,0.89,0.17c0.55,0.22,1.29,0.79,1.73,1.79
			c0.21,0.49,0.36,1.1,0.28,1.75c-0.07,0.65-0.37,1.33-0.89,1.85c-1,1.04-2.83,1.57-4.39,0.77c-1.54-0.85-2.14-2.62-1.92-4.03
			c0.09-0.72,0.43-1.37,0.86-1.85c0.43-0.48,0.95-0.8,1.44-1.01c1-0.41,1.91-0.36,2.48-0.22c0.58,0.15,0.84,0.35,0.83,0.37
			c-0.02,0.05-0.31-0.08-0.87-0.16c-0.55-0.07-1.39-0.05-2.28,0.37c-0.88,0.4-1.8,1.29-1.95,2.57c-0.17,1.23,0.39,2.78,1.67,3.47
			c1.28,0.67,2.89,0.24,3.76-0.64c0.94-0.88,0.97-2.19,0.61-3.08c-0.35-0.91-0.98-1.48-1.46-1.74
			C98.16,228.25,97.84,228.21,97.85,228.15z"/>
		<path style="fill:#263238;" d="M102.95,139.26c0,0.01-0.13,0.02-0.38,0.04c-0.29,0.01-0.65,0.02-1.11,0.03
			c-1.03,0.02-2.47,0.04-4.31,0.06l0.13-0.13c0.09,7.65,0.15,22.88,0.15,40.39c-0.03,12.73-0.06,24.25-0.08,32.66
			c-0.04,4.14-0.07,7.51-0.09,9.9c-0.02,1.13-0.04,2.03-0.05,2.69c-0.02,0.62-0.04,0.94-0.06,0.94c-0.02,0-0.04-0.32-0.06-0.94
			c-0.01-0.66-0.03-1.56-0.05-2.69c-0.02-2.39-0.05-5.76-0.09-9.9c-0.02-8.4-0.05-19.93-0.08-32.66c0-17.51,0.06-32.74,0.15-40.39
			l0-0.14l0.13,0c1.84,0.03,3.28,0.05,4.31,0.06c0.46,0.01,0.82,0.03,1.11,0.03C102.83,139.24,102.95,139.25,102.95,139.26z"/>
	</g>
	<g>
		<g>
			<g>
				<g>
					<path style="fill:#263238;" d="M55.8,190.97c0,0.16-7.04,0.28-15.72,0.28c-8.68,0-15.72-0.13-15.72-0.28
						c0-0.15,7.04-0.28,15.72-0.28C48.76,190.69,55.8,190.82,55.8,190.97z"/>
				</g>
			</g>
			<g>
				<g>
					<path style="fill:#263238;" d="M55.23,195.02c0,0.16-6.91,0.28-15.43,0.28c-8.53,0-15.43-0.13-15.43-0.28
						c0-0.16,6.91-0.28,15.43-0.28C48.32,194.74,55.23,194.86,55.23,195.02z"/>
				</g>
			</g>
			<g>
				<g>
					<path style="fill:#263238;" d="M55.23,199.07c0,0.16-6.91,0.28-15.43,0.28c-8.53,0-15.43-0.13-15.43-0.28
						c0-0.16,6.91-0.28,15.43-0.28C48.32,198.78,55.23,198.91,55.23,199.07z"/>
				</g>
			</g>
			<g>
				<g>
					<path style="fill:#263238;" d="M55.23,203.11c0,0.16-6.91,0.28-15.43,0.28c-8.53,0-15.43-0.13-15.43-0.28
						c0-0.15,6.91-0.28,15.43-0.28C48.32,202.83,55.23,202.96,55.23,203.11z"/>
				</g>
			</g>
			<g>
				<g>
					<path style="fill:#263238;" d="M55.23,207.16c0,0.16-6.91,0.28-15.43,0.28c-8.53,0-15.43-0.13-15.43-0.28
						c0-0.15,6.91-0.28,15.43-0.28C48.32,206.88,55.23,207,55.23,207.16z"/>
				</g>
			</g>
			<g>
				<g>
					<path style="fill:#263238;" d="M39.42,211.2c0,0.16-3.37,0.28-7.53,0.28c-4.16,0-7.53-0.13-7.53-0.28s3.37-0.28,7.53-0.28
						C36.05,210.92,39.42,211.05,39.42,211.2z"/>
				</g>
			</g>
			<g>
				<g>
					<path style="fill:#E8505B;" d="M48.22,186.55c0,0.16-5.36,0.28-11.97,0.28c-6.61,0-11.98-0.13-11.98-0.28s5.36-0.28,11.98-0.28
						C42.86,186.27,48.22,186.4,48.22,186.55z"/>
				</g>
			</g>
		</g>
		<g>
			<g>
				<path style="fill:#263238;" d="M63.12,220.77c0,0-0.02-0.3-0.03-0.86c-0.01-0.58-0.02-1.4-0.03-2.45
					c-0.01-2.16-0.04-5.28-0.06-9.24c-0.03-7.95-0.07-19.28-0.12-32.9l0.24,0.24c-14.34,0.01-31.41,0.03-49.69,0.04
					c-0.07,0.06,0.53-0.53,0.28-0.27v0.01v0.02v0.05v0.1v0.19l0,0.39v0.77l0,1.54c0,1.03,0,2.05,0,3.07c0,2.04,0,4.06,0,6.05
					c0,4,0,7.91-0.01,11.73c-0.01,7.63-0.02,14.85-0.03,21.51l-0.25-0.25c14.81,0.05,27.19,0.09,35.91,0.12
					c4.35,0.03,7.77,0.05,10.15,0.06c1.16,0.01,2.06,0.02,2.69,0.03c0.29,0.01,0.52,0.01,0.7,0.01
					C63.03,220.76,63.11,220.77,63.12,220.77c0,0-0.07,0.01-0.22,0.01c-0.17,0-0.39,0.01-0.67,0.01c-0.63,0.01-1.51,0.02-2.65,0.03
					c-2.36,0.02-5.77,0.04-10.09,0.06c-8.75,0.03-21.2,0.07-36.07,0.12l-0.25,0l0-0.25c-0.01-6.66-0.02-13.89-0.03-21.51
					c0-3.81,0-7.73-0.01-11.73c0-2,0-4.02,0-6.05c0-1.02,0-2.04,0-3.07l0-1.54v-0.77v-0.39v-0.19v-0.1v-0.05v-0.02v-0.01
					c-0.25,0.25,0.34-0.35,0.29-0.29c18.28,0.02,35.35,0.03,49.69,0.04l0.24,0l0,0.24c-0.05,13.68-0.09,25.06-0.12,33.05
					c-0.03,3.94-0.05,7.04-0.06,9.19c-0.01,1.03-0.02,1.83-0.03,2.4C63.14,220.51,63.12,220.77,63.12,220.77z"/>
			</g>
		</g>
		<g>
			<g>
				<path style="fill:#263238;" d="M48.24,239.77c-0.16,0-0.28-4.05-0.28-9.04c0-4.99,0.13-9.04,0.28-9.04
					c0.16,0,0.28,4.05,0.28,9.04C48.52,235.72,48.39,239.77,48.24,239.77z"/>
			</g>
		</g>
		<g>
			<g>
				<path style="fill:#263238;" d="M50.29,235.65c0.15,0.08-1,1.91-1.13,4.47c0,0.04,0,0.08-0.01,0.12l-0.05,0.81l-0.46-0.66
					c-1.5-2.15-1.92-4.25-1.78-4.27c0.16-0.05,0.8,1.9,2.24,3.95l-0.51,0.15c0-0.04,0-0.08,0.01-0.12
					C48.75,237.35,50.2,235.54,50.29,235.65z"/>
			</g>
		</g>
	</g>
	<g>
		<g>
			<g>
				<path style="fill:#263238;" d="M357.18,112.25c-0.16,0-0.28-0.73-0.28-1.62c0-0.89,0.13-1.62,0.28-1.62
					c0.15,0,0.28,0.73,0.28,1.62C357.46,111.52,357.34,112.25,357.18,112.25z"/>
			</g>
		</g>
		<g>
			<g>
				<path style="fill:#263238;" d="M357.18,118.73c-0.16,0-0.28-0.73-0.28-1.62c0-0.89,0.13-1.62,0.28-1.62
					c0.15,0,0.28,0.73,0.28,1.62C357.46,118,357.34,118.73,357.18,118.73z"/>
			</g>
		</g>
		<g>
			<g>
				<path style="fill:#263238;" d="M357.18,125.2c-0.16,0-0.28-0.72-0.28-1.62c0-0.89,0.13-1.62,0.28-1.62
					c0.15,0,0.28,0.72,0.28,1.62C357.46,124.48,357.34,125.2,357.18,125.2z"/>
			</g>
		</g>
		<g>
			<g>
				<path style="fill:#263238;" d="M357.18,131.67c-0.16,0-0.28-0.72-0.28-1.62c0-0.89,0.13-1.62,0.28-1.62
					c0.15,0,0.28,0.72,0.28,1.62C357.46,130.94,357.34,131.67,357.18,131.67z"/>
			</g>
		</g>
		<g>
			<g>
				<path style="fill:#263238;" d="M357.18,138.13c-0.16,0-0.28-0.72-0.28-1.62c0-0.89,0.13-1.62,0.28-1.62
					c0.15,0,0.28,0.72,0.28,1.62C357.46,137.4,357.34,138.13,357.18,138.13z"/>
			</g>
		</g>
		<g>
			<g>
				<path style="fill:#263238;" d="M357.18,144.59c-0.16,0-0.28-0.72-0.28-1.62c0-0.89,0.13-1.62,0.28-1.62
					c0.15,0,0.28,0.72,0.28,1.62C357.46,143.87,357.34,144.59,357.18,144.59z"/>
			</g>
		</g>
		<g>
			<g>
				<path style="fill:#263238;" d="M357.18,151.06c-0.16,0-0.28-0.72-0.28-1.62c0-0.89,0.13-1.62,0.28-1.62
					c0.15,0,0.28,0.72,0.28,1.62C357.46,150.34,357.34,151.06,357.18,151.06z"/>
			</g>
		</g>
		<g>
			<g>
				<path style="fill:#263238;" d="M357.18,157.53c-0.16,0-0.28-0.72-0.28-1.62c0-0.89,0.13-1.62,0.28-1.62
					c0.15,0,0.28,0.72,0.28,1.62C357.46,156.8,357.34,157.53,357.18,157.53z"/>
			</g>
		</g>
	</g>
	<g>
		<g>
			<g>
				<g>
					<g>
						<path style="fill:#455A64;" d="M393.58,101.14H228.96c-2.36,0-4.27-1.91-4.27-4.27V31.8c0-2.36,1.91-4.27,4.27-4.27h164.62
							c2.36,0,4.27,1.91,4.27,4.27v65.06C397.85,99.22,395.94,101.14,393.58,101.14z"/>
					</g>
				</g>
			</g>
			<g>
				<g>
					<g>
						<path style="fill:#FAFAFA;" d="M275.59,54.87c-2.6-5.59-7.79-10.11-15.25-10.95c-0.2-0.02-0.4-0.04-0.6-0.06
							c-0.13-0.01-0.25-0.03-0.38-0.03c-0.38-0.03-0.76-0.04-1.15-0.05c-0.02,0-0.03,0-0.05,0c0,0,0,0,0,0c-0.02,0-0.03,0-0.05,0v0
							v0l-0.08,15.81L258,63.31l19.01,4.38l0.02,0.01v0c0.31-1.33,0.46-2.71,0.47-4.09C277.52,60.65,276.87,57.63,275.59,54.87z"/>
					</g>
				</g>
				<g>
					<path style="fill:#E0E0E0;" d="M255.11,65.37l0.04-3.5l0.08-15.81c-4.66-0.03-9.43,1.76-13.11,4.93
						c-4.33,3.74-7.15,9.41-6.48,16.3c0.07,0.68,0.17,1.37,0.3,2.07l-0.14,0.03c2.53,9.11,10.75,15.99,18.87,15.47
						c9.34-0.6,17.25-6.38,19.27-15.15L255.11,65.37z"/>
				</g>
			</g>
		</g>
		<g>
			<g>
				<g>
					<path style="fill:#263238;" d="M323.36,52.11c0,0.16-7.63,0.28-17.04,0.28c-9.41,0-17.04-0.13-17.04-0.28
						c0-0.15,7.63-0.28,17.04-0.28C315.73,51.83,323.36,51.96,323.36,52.11z"/>
				</g>
			</g>
			<g>
				<g>
					<path style="fill:#263238;" d="M323.36,58.66c0,0.16-7.63,0.28-17.04,0.28c-9.41,0-17.04-0.13-17.04-0.28
						c0-0.16,7.63-0.28,17.04-0.28C315.73,58.38,323.36,58.5,323.36,58.66z"/>
				</g>
			</g>
			<g>
				<g>
					<path style="fill:#263238;" d="M323.36,65.21c0,0.16-7.63,0.28-17.04,0.28c-9.41,0-17.04-0.13-17.04-0.28s7.63-0.28,17.04-0.28
						C315.73,64.93,323.36,65.05,323.36,65.21z"/>
				</g>
			</g>
			<g>
				<g>
					<path style="fill:#263238;" d="M323.36,71.75c0,0.16-7.63,0.28-17.04,0.28c-9.41,0-17.04-0.13-17.04-0.28
						c0-0.15,7.63-0.28,17.04-0.28C315.73,71.47,323.36,71.6,323.36,71.75z"/>
				</g>
			</g>
			<g>
				<g>
					<path style="fill:#263238;" d="M309.25,78.84c0,0.08-1.12,0.15-2.93,0.2c-1.81,0.05-4.3,0.08-7.06,0.08
						c-2.76,0-5.26-0.03-7.06-0.08c-1.81-0.05-2.93-0.12-2.93-0.2s1.12-0.15,2.93-0.2c1.81-0.05,4.3-0.08,7.06-0.08
						c2.76,0,5.25,0.03,7.06,0.08C308.13,78.69,309.25,78.76,309.25,78.84z"/>
				</g>
			</g>
		</g>
		<g>
			<g>
				<g>
					<g>
						<path style="fill:#E0E0E0;" d="M347.64,46.1c-0.01-0.03,0.23-0.2,0.73-0.4c0.5-0.19,1.27-0.41,2.26-0.41
							c0.25,0,0.51,0.02,0.77,0.05c0.13,0.02,0.27,0.04,0.41,0.07l0.05,0.01l0.01,0c-0.14-0.23,0.2,0.31,0.16,0.26l0,0l0,0.01
							l-0.01,0.03l-0.02,0.1l-0.04,0.21c-0.12,0.56-0.25,1.16-0.38,1.78c-0.28,1.27-0.59,2.65-0.92,4.11l-0.05,0.22l-0.22,0
							c-0.46,0-0.94,0-1.43-0.01c-1.76-0.02-3.43-0.04-4.95-0.05l-0.26,0l0.01-0.26c0.03-1.09,0.3-2.09,0.7-2.89
							c0.41-0.8,0.94-1.4,1.43-1.83c0.49-0.42,0.94-0.67,1.25-0.82C347.45,46.12,347.63,46.08,347.64,46.1
							c0.04,0.07-0.66,0.35-1.54,1.22c-0.89,0.83-1.83,2.43-1.82,4.5l-0.25-0.26c1.53,0,3.19,0,4.95,0c0.49,0,0.97,0.01,1.43,0.01
							l-0.27,0.22c0.35-1.45,0.67-2.82,0.98-4.09c0.15-0.61,0.3-1.2,0.43-1.76l0.05-0.2l0.03-0.1l0.01-0.03l0-0.01l0,0
							c-0.03-0.06,0.3,0.49,0.16,0.26l-0.01,0l-0.05-0.01c-0.13-0.03-0.25-0.06-0.38-0.08c-0.25-0.04-0.49-0.07-0.72-0.08
							C348.74,45.59,347.67,46.2,347.64,46.1z"/>
					</g>
				</g>
			</g>
			<g>
				<path style="fill:#FAFAFA;" d="M351.07,52.79l-1.14-0.01l-5.17-0.03c-0.01,1.52,0.57,3.08,1.61,4.28
					c1.22,1.42,3.07,2.34,5.33,2.12c0.22-0.02,0.45-0.05,0.68-0.1l0.01,0.05c2.97-0.83,5.22-3.51,5.05-6.17
					c-0.2-3.05-2.08-5.64-4.95-6.29L351.07,52.79z"/>
			</g>
		</g>
		<g>
			<g>
				<g>
					<path style="fill:#FAFAFA;" d="M347.64,69.32c-1.83,0.85-3.3,2.54-3.58,4.98c-0.01,0.07-0.01,0.13-0.02,0.2
						c0,0.04-0.01,0.08-0.01,0.13c-0.01,0.12-0.01,0.25-0.02,0.37c0,0.01,0,0.01,0,0.02c0,0,0,0,0,0c0,0.01,0,0.01,0,0.02h0h0
						l5.17,0.03l1.21,0.01l1.43-6.21l0-0.01l0,0c-0.44-0.1-0.88-0.15-1.34-0.15C349.53,68.68,348.54,68.9,347.64,69.32z"/>
				</g>
			</g>
			<g>
				<g>
					<path style="fill:#E0E0E0;" d="M351.07,76.01c-0.02-0.03,0.09-0.65,0.3-1.73c0.24-1.16,0.55-2.66,0.92-4.47l0.04-0.19l0.2,0.04
						c1.86,0.36,3.89,1.91,4.72,4.3c0.39,1.16,0.65,2.52,0.26,3.87c-0.38,1.33-1.25,2.53-2.39,3.4c-0.81,0.63-1.73,1.08-2.67,1.35
						l-0.29,0.08l-0.06-0.29l-0.01-0.05l0.32,0.22c-1.11,0.21-2.26,0.17-3.29-0.16c-1.03-0.32-1.93-0.9-2.62-1.61
						c-1.4-1.42-1.99-3.26-1.96-4.81l0-0.21l0.2,0c1.87,0.05,3.42,0.09,4.62,0.12C350.46,75.92,351.03,75.98,351.07,76.01
						c0.04,0.03-0.59,0.07-1.69,0.1c-1.19,0.02-2.75,0.04-4.62,0.07l0.2-0.2c0.01,1.45,0.6,3.15,1.91,4.45
						c1.28,1.32,3.36,2.02,5.45,1.58l0.27-0.06l0.06,0.27l0.01,0.05l-0.35-0.21c0.87-0.25,1.72-0.67,2.48-1.26
						c1.05-0.82,1.85-1.92,2.2-3.11c0.36-1.19,0.13-2.45-0.22-3.55c-0.75-2.24-2.59-3.69-4.32-4.07l0.24-0.15
						c-0.47,1.93-0.87,3.48-1.15,4.53C351.25,75.48,351.09,76.04,351.07,76.01z"/>
				</g>
			</g>
		</g>
		<g>
			<g>
				<g>
					<path style="fill:#263238;" d="M385.44,72.63c0,0.16-4.83,0.28-10.79,0.28c-5.96,0-10.79-0.13-10.79-0.28s4.83-0.28,10.79-0.28
						C380.61,72.35,385.44,72.48,385.44,72.63z"/>
				</g>
			</g>
			<g>
				<g>
					<path style="fill:#263238;" d="M374.65,75.52c0,0.16-2.42,0.28-5.4,0.28c-2.98,0-5.4-0.13-5.4-0.28c0-0.15,2.42-0.28,5.4-0.28
						C372.23,75.24,374.65,75.36,374.65,75.52z"/>
				</g>
			</g>
		</g>
		<g>
			<g>
				<g>
					<path style="fill:#263238;" d="M385.44,49.43c0,0.16-4.83,0.28-10.79,0.28c-5.96,0-10.79-0.13-10.79-0.28
						c0-0.16,4.83-0.28,10.79-0.28C380.61,49.15,385.44,49.28,385.44,49.43z"/>
				</g>
			</g>
			<g>
				<g>
					<path style="fill:#263238;" d="M374.65,52.32c0,0.16-2.42,0.28-5.4,0.28c-2.98,0-5.4-0.13-5.4-0.28c0-0.16,2.42-0.28,5.4-0.28
						C372.23,52.04,374.65,52.16,374.65,52.32z"/>
				</g>
			</g>
		</g>
		<g>
			<g>
				<path style="fill:#263238;" d="M334.03,91.05c-0.16,0-0.28-12.99-0.28-29c0-16.02,0.13-29,0.28-29c0.15,0,0.28,12.98,0.28,29
					C334.31,78.06,334.18,91.05,334.03,91.05z"/>
			</g>
		</g>
	</g>
	<g>
		<g>
			<rect x="324.88" y="163.16" style="fill:#E8505B;" width="6.68" height="60.34"/>
		</g>
		<g>
			<rect x="337.78" y="183.65" style="fill:#E8505B;" width="6.68" height="39.84"/>
		</g>
		<g>
			<rect x="350.68" y="170.66" style="fill:#E8505B;" width="6.68" height="53.14"/>
		</g>
		<g>
			<rect x="363.58" y="165.49" style="fill:#E8505B;" width="6.68" height="58.01"/>
		</g>
		<g>
			<rect x="376.48" y="184.88" style="fill:#E8505B;" width="6.68" height="38.62"/>
		</g>
		<g>
			<rect x="389.39" y="192.45" style="fill:#E8505B;" width="6.68" height="31.04"/>
		</g>
		<g>
			<rect x="402.29" y="169.35" style="fill:#E8505B;" width="6.68" height="54.15"/>
		</g>
		<g>
			<rect x="415.19" y="179.11" style="fill:#E8505B;" width="6.68" height="44.38"/>
		</g>
		<g>
			<rect x="428.09" y="171.31" style="fill:#E8505B;" width="6.68" height="52.18"/>
		</g>
		<g>
			<rect x="441" y="187.95" style="fill:#E8505B;" width="6.68" height="35.55"/>
		</g>
		<g>
			<rect x="453.9" y="181.18" style="fill:#E8505B;" width="6.68" height="42.32"/>
		</g>
		<g>
			<g>
				<path style="fill:#263238;" d="M456.44,176.84c0,0.01-0.14-0.01-0.4-0.04c-0.29-0.05-0.68-0.11-1.17-0.19
					c-0.51-0.1-1.15-0.18-1.91-0.25c-0.38-0.04-0.79-0.08-1.22-0.13c-0.44-0.02-0.9-0.04-1.39-0.06c-1.97-0.09-4.39-0.03-7.16,0.39
					c-2.77,0.41-5.88,1.17-9.14,2.49c-3.25,1.32-6.68,3.19-9.86,5.83c-3.23,2.59-6.05,6.03-8.83,9.79c-2.8,3.72-5.67,7.8-9.64,11.09
					c-1.97,1.65-4.2,3.07-6.69,4.04c-2.48,0.96-5.26,1.37-7.98,0.98c-2.74-0.33-5.27-1.46-7.52-2.86c-2.23-1.44-4.22-3.17-5.97-5.04
					c-3.53-3.74-6.1-7.98-8.8-11.77c-2.68-3.81-5.49-7.28-8.79-9.78c-1.63-1.27-3.41-2.19-5.16-2.94c-1.78-0.71-3.57-1.15-5.3-1.43
					c-3.48-0.52-6.7-0.21-9.41,0.41c-2.72,0.63-4.94,1.63-6.66,2.58c-1.68,1.02-2.91,1.95-3.68,2.64c-0.37,0.33-0.66,0.6-0.88,0.79
					c-0.2,0.18-0.31,0.26-0.31,0.26c-0.01-0.01,0.09-0.11,0.27-0.3c0.21-0.21,0.49-0.49,0.84-0.84c0.75-0.72,1.96-1.69,3.64-2.75
					c1.72-0.99,3.95-2.03,6.7-2.7c2.74-0.66,6-0.99,9.54-0.49c1.76,0.26,3.59,0.7,5.4,1.42c1.79,0.75,3.62,1.68,5.28,2.97
					c3.37,2.53,6.23,6.04,8.93,9.85c2.72,3.8,5.29,8.02,8.78,11.69c1.73,1.84,3.68,3.54,5.87,4.94c2.2,1.36,4.66,2.45,7.3,2.77
					c2.63,0.37,5.29-0.02,7.71-0.95c2.41-0.94,4.6-2.33,6.54-3.94c3.9-3.22,6.76-7.27,9.58-10.98c1.41-1.87,2.81-3.68,4.28-5.35
					c0.74-0.83,1.48-1.65,2.28-2.38c0.39-0.37,0.79-0.74,1.17-1.1c0.4-0.35,0.82-0.68,1.22-1.01c3.24-2.66,6.71-4.53,10.01-5.84
					c3.3-1.31,6.46-2.05,9.25-2.43c2.79-0.39,5.24-0.42,7.21-0.3c0.49,0.03,0.96,0.06,1.4,0.09c0.43,0.06,0.84,0.11,1.22,0.16
					c0.76,0.09,1.4,0.18,1.91,0.3c0.49,0.1,0.87,0.18,1.16,0.24C456.31,176.8,456.44,176.83,456.44,176.84z"/>
			</g>
		</g>
		<g>
			<g>
				<path style="fill:#263238;" d="M317.52,227.7c-0.16,0-0.28-17.21-0.28-38.43c0-21.23,0.13-38.43,0.28-38.43
					c0.15,0,0.28,17.2,0.28,38.43C317.8,210.49,317.68,227.7,317.52,227.7z"/>
			</g>
		</g>
		<g>
			<g>
				<path style="fill:#263238;" d="M463.31,227.7c0,0.16-31.7,0.28-70.8,0.28c-39.11,0-70.8-0.13-70.8-0.28
					c0-0.15,31.69-0.28,70.8-0.28C431.61,227.42,463.31,227.54,463.31,227.7z"/>
			</g>
		</g>
		<g>
			<g>
				<path style="fill:#263238;" d="M334.41,232.45c0,0.16-2.22,0.28-4.96,0.28c-2.74,0-4.96-0.13-4.96-0.28
					c0-0.15,2.22-0.28,4.96-0.28C332.19,232.17,334.41,232.29,334.41,232.45z"/>
			</g>
		</g>
		<g>
			<g>
				<path style="fill:#263238;" d="M350.86,232.69c0,0.16-2.65,0.28-5.93,0.28c-3.27,0-5.93-0.13-5.93-0.28
					c0-0.15,2.65-0.28,5.93-0.28C348.21,232.41,350.86,232.54,350.86,232.69z"/>
			</g>
		</g>
		<g>
			<g>
				<path style="fill:#263238;" d="M364.89,232.69c0,0.16-2.65,0.28-5.93,0.28c-3.27,0-5.93-0.13-5.93-0.28
					c0-0.15,2.65-0.28,5.93-0.28C362.24,232.41,364.89,232.54,364.89,232.69z"/>
			</g>
		</g>
		<g>
			<g>
				<path style="fill:#263238;" d="M378.92,232.69c0,0.16-2.65,0.28-5.93,0.28c-3.27,0-5.93-0.13-5.93-0.28
					c0-0.15,2.65-0.28,5.93-0.28C376.27,232.41,378.92,232.54,378.92,232.69z"/>
			</g>
		</g>
		<g>
			<g>
				<path style="fill:#263238;" d="M392.96,232.69c0,0.16-2.65,0.28-5.93,0.28c-3.27,0-5.93-0.13-5.93-0.28
					c0-0.15,2.65-0.28,5.93-0.28C390.3,232.41,392.96,232.54,392.96,232.69z"/>
			</g>
		</g>
		<g>
			<g>
				<path style="fill:#263238;" d="M406.99,232.69c0,0.16-2.65,0.28-5.93,0.28c-3.27,0-5.93-0.13-5.93-0.28
					c0-0.15,2.65-0.28,5.93-0.28C404.33,232.41,406.99,232.54,406.99,232.69z"/>
			</g>
		</g>
		<g>
			<g>
				<path style="fill:#263238;" d="M421.02,232.69c0,0.16-2.65,0.28-5.93,0.28c-3.27,0-5.93-0.13-5.93-0.28
					c0-0.15,2.65-0.28,5.93-0.28C418.37,232.41,421.02,232.54,421.02,232.69z"/>
			</g>
		</g>
		<g>
			<g>
				<path style="fill:#263238;" d="M435.05,232.69c0,0.16-2.65,0.28-5.93,0.28c-3.27,0-5.93-0.13-5.93-0.28
					c0-0.15,2.65-0.28,5.93-0.28C432.4,232.41,435.05,232.54,435.05,232.69z"/>
			</g>
		</g>
		<g>
			<g>
				<path style="fill:#263238;" d="M449.08,232.69c0,0.16-2.65,0.28-5.93,0.28c-3.27,0-5.93-0.13-5.93-0.28
					c0-0.15,2.65-0.28,5.93-0.28C446.43,232.41,449.08,232.54,449.08,232.69z"/>
			</g>
		</g>
		<g>
			<g>
				<path style="fill:#263238;" d="M463.11,232.69c0,0.16-2.65,0.28-5.93,0.28c-3.27,0-5.93-0.13-5.93-0.28
					c0-0.15,2.65-0.28,5.93-0.28C460.46,232.41,463.11,232.54,463.11,232.69z"/>
			</g>
		</g>
		<g>
			<g>
				<path style="fill:#263238;" d="M370.55,191.82c-0.01-0.07,0.58,0.02,0.8,0.78c0.09,0.35,0.09,0.86-0.26,1.29
					c-0.36,0.44-1.07,0.54-1.61,0.29c-0.55-0.23-0.95-0.83-0.85-1.39c0.08-0.55,0.47-0.89,0.79-1.06c0.72-0.34,1.18,0.04,1.12,0.08
					c-0.03,0.08-0.44-0.08-0.92,0.26c-0.23,0.16-0.46,0.44-0.48,0.77c-0.03,0.32,0.2,0.66,0.57,0.83c0.37,0.17,0.78,0.11,0.99-0.12
					c0.23-0.23,0.29-0.59,0.26-0.86C370.9,192.1,370.51,191.89,370.55,191.82z"/>
			</g>
		</g>
		<g>
			<g>
				<path style="fill:#263238;" d="M435.14,177.25c0-0.03,0.13-0.08,0.38-0.04c0.24,0.04,0.59,0.2,0.88,0.56
					c0.28,0.34,0.5,0.96,0.24,1.57c-0.25,0.59-0.88,1.06-1.64,1.05c-0.79,0-1.36-0.63-1.53-1.21c-0.2-0.6,0-1.23,0.32-1.55
					c0.66-0.67,1.29-0.56,1.27-0.51c0.03,0.09-0.53,0.17-0.96,0.76c-0.21,0.29-0.29,0.71-0.14,1.14c0.15,0.42,0.55,0.81,1.04,0.81
					c0.5,0.01,0.97-0.32,1.16-0.71c0.19-0.39,0.1-0.83-0.09-1.13C435.69,177.37,435.12,177.34,435.14,177.25z"/>
			</g>
		</g>
		<g>
			<g>
				<g>
					<ellipse style="fill:#263238;" cx="436.19" cy="148.27" rx="0.28" ry="0.81"/>
				</g>
			</g>
			<g>
				<g>
					<path style="fill:#263238;" d="M436.19,156.1c-0.16,0-0.28-0.79-0.28-1.76c0-0.97,0.13-1.76,0.28-1.76
						c0.16,0,0.28,0.79,0.28,1.76C436.47,155.32,436.35,156.1,436.19,156.1z"/>
				</g>
			</g>
			<g>
				<g>
					<path style="fill:#263238;" d="M436.19,163.12c-0.16,0-0.28-0.79-0.28-1.76c0-0.97,0.13-1.76,0.28-1.76
						c0.16,0,0.28,0.79,0.28,1.76C436.47,162.34,436.35,163.12,436.19,163.12z"/>
				</g>
			</g>
			<g>
				<g>
					<path style="fill:#263238;" d="M436.19,170.14c-0.16,0-0.28-0.79-0.28-1.76c0-0.97,0.13-1.76,0.28-1.76
						c0.16,0,0.28,0.79,0.28,1.76C436.47,169.36,436.35,170.14,436.19,170.14z"/>
				</g>
			</g>
			<g>
				<g>
					<path style="fill:#263238;" d="M436.19,175.27c-0.16,0-0.28-0.36-0.28-0.81c0-0.45,0.13-0.81,0.28-0.81
						c0.16,0,0.28,0.36,0.28,0.81C436.47,174.91,436.35,175.27,436.19,175.27z"/>
				</g>
			</g>
		</g>
		<g>
			<g>
				<path style="fill:#263238;" d="M483.74,137.95c0,0.16-10.96,0.28-24.48,0.28c-13.52,0-24.49-0.13-24.49-0.28
					s10.96-0.28,24.49-0.28C472.77,137.67,483.74,137.79,483.74,137.95z"/>
			</g>
		</g>
		<g>
			<g>
				<path style="fill:#263238;" d="M467.01,132.41c0,0.16-7.05,0.28-15.75,0.28c-8.7,0-15.75-0.13-15.75-0.28
					c0-0.15,7.05-0.28,15.75-0.28C459.96,132.12,467.01,132.25,467.01,132.41z"/>
			</g>
		</g>
	</g>
	<g>
		<path style="fill:#263238;" d="M146.05,99.52c0.16,0,0.28,0.36,0.28,0.81c0,0.45-0.13,0.81-0.28,0.81c-0.16,0-0.28-0.36-0.28-0.81
			C145.77,99.88,145.9,99.52,146.05,99.52z"/>
		<path style="fill:#263238;" d="M146.05,93.27c0.16,0,0.28,0.7,0.28,1.56c0,0.86-0.13,1.56-0.28,1.56c-0.16,0-0.28-0.7-0.28-1.56
			C145.77,93.97,145.9,93.27,146.05,93.27z"/>
		<path style="fill:#263238;" d="M146.05,87.02c0.16,0,0.28,0.7,0.28,1.56c0,0.86-0.13,1.56-0.28,1.56c-0.16,0-0.28-0.7-0.28-1.56
			C145.77,87.72,145.9,87.02,146.05,87.02z"/>
		<path style="fill:#263238;" d="M146.05,80.78c0.16,0,0.28,0.7,0.28,1.56c0,0.86-0.13,1.56-0.28,1.56c-0.16,0-0.28-0.7-0.28-1.56
			C145.77,81.48,145.9,80.78,146.05,80.78z"/>
		<ellipse style="fill:#263238;" cx="146.05" cy="76.1" rx="0.28" ry="1.56"/>
		<path style="fill:#263238;" d="M146.05,68.3c0.16,0,0.28,0.7,0.28,1.56c0,0.86-0.13,1.56-0.28,1.56c-0.16,0-0.28-0.7-0.28-1.56
			C145.77,69,145.9,68.3,146.05,68.3z"/>
		<path style="fill:#263238;" d="M146.05,63.55c0.16,0,0.28,0.36,0.28,0.81c0,0.45-0.13,0.81-0.28,0.81c-0.16,0-0.28-0.36-0.28-0.81
			C145.77,63.92,145.9,63.55,146.05,63.55z"/>
		<path style="fill:#263238;" d="M147.67,62.04c0,0.16-0.36,0.28-0.81,0.28c-0.45,0-0.81-0.13-0.81-0.28c0-0.15,0.36-0.28,0.81-0.28
			C147.31,61.76,147.67,61.88,147.67,62.04z"/>
		<path style="fill:#263238;" d="M154.32,62.04c0,0.16-0.74,0.28-1.66,0.28c-0.92,0-1.66-0.13-1.66-0.28c0-0.15,0.74-0.28,1.66-0.28
			C153.57,61.76,154.32,61.88,154.32,62.04z"/>
		<path style="fill:#263238;" d="M160.96,62.04c0,0.16-0.74,0.28-1.66,0.28c-0.92,0-1.66-0.13-1.66-0.28c0-0.15,0.74-0.28,1.66-0.28
			C160.22,61.76,160.96,61.88,160.96,62.04z"/>
		<path style="fill:#263238;" d="M167.6,62.04c0,0.16-0.74,0.28-1.66,0.28c-0.92,0-1.66-0.13-1.66-0.28c0-0.15,0.74-0.28,1.66-0.28
			C166.86,61.76,167.6,61.88,167.6,62.04z"/>
		<path style="fill:#263238;" d="M174.24,62.04c0,0.16-0.74,0.28-1.66,0.28c-0.92,0-1.66-0.13-1.66-0.28c0-0.15,0.74-0.28,1.66-0.28
			C173.5,61.76,174.24,61.88,174.24,62.04z"/>
		<path style="fill:#263238;" d="M180.87,62.04c0,0.16-0.74,0.28-1.66,0.28c-0.92,0-1.66-0.13-1.66-0.28c0-0.15,0.74-0.28,1.66-0.28
			C180.13,61.76,180.87,61.88,180.87,62.04z"/>
		<path style="fill:#263238;" d="M187.51,62.04c0,0.16-0.74,0.28-1.66,0.28c-0.92,0-1.66-0.13-1.66-0.28c0-0.15,0.74-0.28,1.66-0.28
			C186.77,61.76,187.51,61.88,187.51,62.04z"/>
		<path style="fill:#263238;" d="M194.14,62.04c0,0.16-0.74,0.28-1.66,0.28c-0.92,0-1.66-0.13-1.66-0.28c0-0.15,0.74-0.28,1.66-0.28
			C193.4,61.76,194.14,61.88,194.14,62.04z"/>
		<path style="fill:#263238;" d="M200.78,62.04c0,0.16-0.74,0.28-1.66,0.28c-0.92,0-1.66-0.13-1.66-0.28c0-0.15,0.74-0.28,1.66-0.28
			C200.04,61.76,200.78,61.88,200.78,62.04z"/>
		<path style="fill:#263238;" d="M207.42,62.04c0,0.16-0.74,0.28-1.66,0.28c-0.92,0-1.66-0.13-1.66-0.28c0-0.15,0.74-0.28,1.66-0.28
			C206.68,61.76,207.42,61.88,207.42,62.04z"/>
		<path style="fill:#263238;" d="M214.06,62.04c0,0.16-0.74,0.28-1.66,0.28c-0.92,0-1.66-0.13-1.66-0.28c0-0.15,0.74-0.28,1.66-0.28
			C213.32,61.76,214.06,61.88,214.06,62.04z"/>
		<path style="fill:#263238;" d="M219.03,62.04c0,0.16-0.36,0.28-0.81,0.28c-0.45,0-0.81-0.13-0.81-0.28c0-0.15,0.36-0.28,0.81-0.28
			C218.67,61.76,219.03,61.88,219.03,62.04z"/>
	</g>
	<g>
		<g>
			<path style="fill:#263238;" d="M298.77,122.37h-41.51c-2.31,0-4.18,1.87-4.18,4.18v24.35c0,2.31,1.87,4.18,4.18,4.18h6.65v9.98
				l8.95-9.98h25.92c2.31,0,4.18-1.87,4.18-4.18v-24.35C302.95,124.24,301.08,122.37,298.77,122.37z"/>
		</g>
		<g>
			<path style="fill:#FAFAFA;" d="M273.04,139.26c0,0.96-0.78,1.73-1.73,1.73c-0.96,0-1.73-0.78-1.73-1.73s0.78-1.73,1.73-1.73
				C272.27,137.53,273.04,138.31,273.04,139.26z"/>
		</g>
		<g>
			<path style="fill:#FAFAFA;" d="M279.85,139.26c0,0.96-0.78,1.73-1.73,1.73c-0.96,0-1.73-0.78-1.73-1.73s0.78-1.73,1.73-1.73
				C279.07,137.53,279.85,138.31,279.85,139.26z"/>
		</g>
		<g>
			<path style="fill:#FAFAFA;" d="M286.44,139.26c0,0.96-0.78,1.73-1.73,1.73c-0.96,0-1.73-0.78-1.73-1.73s0.78-1.73,1.73-1.73
				C285.67,137.53,286.44,138.31,286.44,139.26z"/>
		</g>
	</g>
	<g>
		<g>
			<g>
				<path style="fill:#263238;" d="M206.97,152.68c-2.04-0.5-1.71-6.11-1.92-7.83c-0.13-1.05-0.25-2.16,0.2-3.11
					c0.58-1.23,1.99-1.87,3.34-2.07c1.35-0.2,2.73-0.07,4.08-0.27c2.72-0.39,5.14-2.07,7.87-2.32c2.23-0.2,4.53,0.64,6.11,2.23
					c0.94,0.95,1.66,2.16,2.82,2.83c1.02,0.59,2.25,0.67,3.39,1.01c2.81,0.84,5.01,3.44,5.36,6.36c0.21,1.73-0.18,3.46-0.38,5.19
					c-0.2,1.73-0.19,3.59,0.72,5.07c0.95,1.54,2.72,2.44,3.59,4.02c0.77,1.4,0.68,3.23-0.23,4.55c-0.91,1.32-2.59,2.05-4.18,1.82
					c-0.51-0.07-1.09-0.22-1.48,0.11c-0.34,0.28-0.37,0.78-0.47,1.21c-0.35,1.65-2.14,2.84-3.8,2.54c-1.66-0.3-2.91-2.05-2.66-3.71"
					/>
			</g>
			<g>
				<g>
					<g>
						<g>
							<g>
								<path style="fill:#FFBE9D;" d="M230.6,188.6l-17.86-1.43c-0.11-2.09,0.04-10.15,0.04-10.15s-7.43-1.16-7.52-8.59
									c-0.09-7.43,1.2-24.49,1.2-24.49l0,0c8.6-3.7,18.53-2.45,25.95,3.26l1.1,0.85L230.6,188.6z"/>
							</g>
						</g>
						<g>
							<g>
								<g>
									<path style="fill:#263238;" d="M208.16,156.03c0.44-0.4,0.47-1.08,0.07-1.52c-0.4-0.44-1.08-0.47-1.52-0.07
										c-0.44,0.4-0.47,1.08-0.07,1.52C207.04,156.39,207.72,156.43,208.16,156.03z"/>
								</g>
							</g>
							<g>
								<g>
									<g>
										<path style="fill:#263238;" d="M206.36,155.02c0.12,0.13,0.85-0.43,1.87-0.44c1.02-0.02,1.77,0.52,1.88,0.39
											c0.06-0.06-0.06-0.29-0.38-0.54c-0.32-0.24-0.86-0.48-1.5-0.47c-0.64,0.01-1.18,0.26-1.49,0.51
											C206.41,154.73,206.3,154.96,206.36,155.02z"/>
									</g>
								</g>
							</g>
						</g>
						<g>
							<g>
								<g>
									<path style="fill:#263238;" d="M217.97,155.39c-0.51,0.31-0.67,0.98-0.35,1.48c0.31,0.51,0.98,0.67,1.48,0.35
										c0.51-0.31,0.67-0.98,0.35-1.48C219.15,155.23,218.48,155.07,217.97,155.39z"/>
								</g>
							</g>
							<g>
								<g>
									<g>
										<path style="fill:#263238;" d="M217.47,155.92c0.12,0.13,0.85-0.43,1.87-0.44c1.02-0.02,1.77,0.52,1.88,0.39
											c0.06-0.06-0.06-0.29-0.38-0.54c-0.32-0.24-0.86-0.48-1.5-0.47c-0.64,0.01-1.18,0.26-1.49,0.51
											C217.53,155.63,217.42,155.87,217.47,155.92z"/>
									</g>
								</g>
							</g>
						</g>
						<g>
							<g>
								<g>
									<path style="fill:#263238;" d="M213.37,164.36c0.01-0.08-0.63-0.21-1.65-0.35c-0.27-0.03-0.48-0.09-0.5-0.23
										c-0.05-0.16,0.06-0.45,0.19-0.77c0.26-0.68,0.53-1.36,0.81-2.08c1.12-2.96,1.9-5.41,1.75-5.47
										c-0.15-0.06-1.18,2.3-2.3,5.26c-0.26,0.72-0.52,1.41-0.77,2.1c-0.1,0.31-0.28,0.67-0.15,1.11
										c0.07,0.22,0.28,0.38,0.46,0.43c0.18,0.05,0.33,0.05,0.46,0.06C212.72,164.46,213.36,164.45,213.37,164.36z"/>
								</g>
							</g>
						</g>
						<g>
							<g>
								<path style="fill:#FAFAFA;" d="M216.69,165.5c1.07-0.63-2.94,1.56-5.02,1.46c0,0,1.19,1.91,3.34,1.13
									C217.24,167.27,216.69,165.5,216.69,165.5z"/>
							</g>
						</g>
						<g>
							<g>
								<path style="fill:#EB996E;" d="M212.76,176.92c0,0,4.7,0.38,9.69-2.75c0,0-2.29,5.35-9.7,4.68L212.76,176.92z"/>
							</g>
						</g>
					</g>
				</g>
				<g>
					<g>
						<g>
							<path style="fill:#FFBE9D;" d="M232.36,155.7c0.15-0.09,5.27-1.75,5.93,4.54c0.66,6.29-5.91,4.88-5.94,4.7
								C232.32,164.76,232.36,155.7,232.36,155.7z"/>
						</g>
					</g>
					<g>
						<g>
							<g>
								<path style="fill:#EB996E;" d="M234.04,162.53c0.03-0.02,0.12,0.07,0.31,0.13c0.19,0.06,0.51,0.09,0.82-0.07
									c0.64-0.31,1.09-1.43,1-2.57c-0.04-0.57-0.22-1.11-0.47-1.54c-0.24-0.44-0.57-0.73-0.91-0.76
									c-0.34-0.04-0.56,0.18-0.62,0.37c-0.07,0.18-0.01,0.31-0.04,0.32c-0.02,0.02-0.15-0.09-0.12-0.36
									c0.01-0.13,0.07-0.28,0.21-0.42c0.14-0.14,0.35-0.22,0.59-0.22c0.49-0.02,0.97,0.38,1.25,0.86c0.3,0.47,0.51,1.07,0.56,1.71
									c0.09,1.27-0.43,2.53-1.31,2.89c-0.43,0.16-0.81,0.07-1.02-0.06C234.07,162.68,234.02,162.54,234.04,162.53z"/>
							</g>
						</g>
					</g>
				</g>
			</g>
			<g>
				<path style="fill:#263238;" d="M206.49,143.58c1.42,2.63,4.55,3.96,7.54,4.09c2.99,0.12,5.91-0.75,8.8-1.55
					c1.56-0.43,3.47-0.76,4.61,0.38c0.67,0.67,0.86,1.66,0.98,2.6c0.26,2.08,0.29,4.19,0.09,6.28c-0.08,0.84-0.2,1.69,0.01,2.51
					c0.21,0.81,0.85,1.58,1.69,1.66c1.31,0.11,2.11-1.37,2.55-2.61c0.62-1.72,1.23-3.45,1.45-5.26c0.22-1.81,0-3.73-0.95-5.28
					c-1.08-1.75-2.96-2.83-4.82-3.72c-3.73-1.78-7.76-3.09-11.89-3.12c-4.13-0.03-8.38,1.34-11.29,4.28"/>
			</g>
		</g>
		<g>
			<g>
				<g>
					<g>
						<g>
							<g>
								<g>
									<path style="fill:#E8505B;" d="M204.32,470.11l-0.06-9.92l18.58-0.23l0.24,14.51l-1.15,0.09
										c-5.12,0.35-26.07,1.4-29.51,0.4C188.58,473.86,204.32,470.11,204.32,470.11z"/>
								</g>
							</g>
						</g>
						<g>
							<g>
								<g>
									<path style="fill:#E8505B;" d="M216.34,474.41c0.25-1.56,1.09-3.01,2.32-3.99c1.23-0.98,2.75-1.51,4.33-1.4l0.07,5.19
										L216.34,474.41z"/>
								</g>
							</g>
						</g>
					</g>
					<g>
						<g>
							<g>
								<path style="fill:#E8505B;" d="M196.63,472.22c0,0-5.51,1.66-4.81,2.57c0.7,0.9,21.91,0.63,31.26-0.3l-0.03-0.41
									l-24.74,0.53C198.3,474.59,197.71,472.25,196.63,472.22z"/>
							</g>
						</g>
					</g>
					<g>
						<g>
							<g>
								<g>
									<path style="fill:#263238;" d="M223.33,474.05c0,0.01-0.11,0.02-0.32,0.04c-0.28,0.02-0.58,0.04-0.92,0.07
										c-0.92,0.05-2.04,0.11-3.37,0.19c-2.85,0.14-6.79,0.28-11.15,0.34c-4.36,0.06-8.3,0.02-11.15-0.04
										c-1.33-0.04-2.46-0.07-3.38-0.1c-0.34-0.02-0.64-0.03-0.92-0.04c-0.21-0.01-0.32-0.02-0.32-0.03
										c0-0.01,0.11-0.01,0.32-0.02c0.28,0,0.58,0,0.92,0c0.92,0.01,2.05,0.02,3.38,0.03c2.85,0.02,6.79,0.03,11.15-0.03
										c4.35-0.06,8.29-0.17,11.14-0.27c1.33-0.05,2.46-0.09,3.38-0.12c0.34-0.01,0.64-0.02,0.92-0.02
										C223.22,474.04,223.33,474.04,223.33,474.05z"/>
								</g>
							</g>
						</g>
					</g>
					<g>
						<g>
							<g>
								<g>
									<path style="fill:#263238;" d="M198.31,474.88c-0.07,0.01-0.13-0.8-0.65-1.6c-0.51-0.82-1.21-1.22-1.17-1.28
										c0.01-0.06,0.81,0.28,1.36,1.16C198.41,474.02,198.37,474.89,198.31,474.88z"/>
								</g>
							</g>
						</g>
					</g>
					<g>
						<g>
							<g>
								<g>
									<path style="fill:#263238;" d="M203.76,472.03c-0.05,0.03-0.32-0.28-0.59-0.71s-0.46-0.79-0.41-0.83
										c0.05-0.03,0.32,0.28,0.59,0.71S203.81,471.99,203.76,472.03z"/>
								</g>
							</g>
						</g>
					</g>
					<g>
						<g>
							<g>
								<g>
									<path style="fill:#263238;" d="M205.25,471.21c-0.04,0.05-0.34-0.15-0.66-0.43c-0.32-0.28-0.55-0.55-0.51-0.6
										c0.04-0.05,0.34,0.15,0.66,0.43C205.06,470.9,205.29,471.17,205.25,471.21z"/>
								</g>
							</g>
						</g>
					</g>
					<g>
						<g>
							<g>
								<g>
									<path style="fill:#263238;" d="M206.18,469.45c0,0.06-0.43,0.12-0.97,0.14c-0.54,0.01-0.97-0.03-0.97-0.09
										s0.43-0.12,0.97-0.14C205.74,469.34,206.18,469.38,206.18,469.45z"/>
								</g>
							</g>
						</g>
					</g>
					<g>
						<g>
							<g>
								<g>
									<path style="fill:#263238;" d="M206.49,468.21c0.02,0.06-0.45,0.27-1.08,0.33c-0.63,0.06-1.13-0.08-1.12-0.13
										c0.01-0.06,0.5-0.03,1.1-0.09C205.99,468.26,206.47,468.14,206.49,468.21z"/>
								</g>
							</g>
						</g>
					</g>
					<g>
						<g>
							<g>
								<g>
									<path style="fill:#263238;" d="M203.11,470.41c0,0.03-0.46,0.09-1.19,0.01c-0.37-0.04-0.8-0.12-1.27-0.26
										c-0.23-0.08-0.48-0.14-0.73-0.29c-0.12-0.08-0.25-0.19-0.3-0.37c-0.05-0.18,0.04-0.38,0.17-0.48
										c1.13-0.61,2.28,0.02,2.72,0.61c0.24,0.3,0.35,0.59,0.4,0.79c0.05,0.2,0.05,0.32,0.03,0.32c-0.04,0.02-0.09-0.47-0.56-1.01
										c-0.23-0.27-0.58-0.52-1.03-0.65c-0.42-0.12-1.02-0.15-1.42,0.11c-0.19,0.14-0.11,0.36,0.1,0.49
										c0.2,0.12,0.45,0.2,0.67,0.28c0.45,0.15,0.88,0.25,1.23,0.3C202.65,470.38,203.11,470.38,203.11,470.41z"/>
								</g>
							</g>
						</g>
					</g>
					<g>
						<g>
							<g>
								<g>
									<path style="fill:#263238;" d="M202.8,470.48c-0.02,0.01-0.2-0.29-0.15-0.83c0.03-0.26,0.12-0.58,0.31-0.88
										c0.21-0.27,0.47-0.64,0.99-0.62c0.28,0.03,0.42,0.35,0.37,0.55c-0.02,0.21-0.11,0.39-0.2,0.54
										c-0.17,0.3-0.37,0.54-0.55,0.73c-0.37,0.37-0.66,0.51-0.68,0.49c-0.02-0.03,0.24-0.22,0.56-0.6
										c0.16-0.19,0.34-0.43,0.49-0.72c0.16-0.25,0.27-0.71-0.03-0.76c-0.3-0.02-0.6,0.28-0.78,0.52
										c-0.18,0.26-0.28,0.54-0.33,0.78C202.72,470.16,202.84,470.47,202.8,470.48z"/>
								</g>
							</g>
						</g>
					</g>
					<g>
						<g>
							<g>
								<g>
									<path style="fill:#263238;" d="M222.89,468.97c0,0.04-0.53-0.04-1.37,0.07c-0.83,0.1-1.98,0.46-2.98,1.27
										c-0.99,0.82-1.57,1.87-1.84,2.67c-0.27,0.8-0.29,1.34-0.34,1.33c-0.01,0-0.02-0.13-0.01-0.37c0.02-0.24,0.07-0.59,0.19-1
										c0.23-0.83,0.81-1.94,1.85-2.79c1.04-0.85,2.25-1.19,3.1-1.26c0.43-0.04,0.78-0.02,1.02,0.01
										C222.76,468.92,222.89,468.96,222.89,468.97z"/>
								</g>
							</g>
						</g>
					</g>
					<g>
						<g>
							<g>
								<g>
									<path style="fill:#263238;" d="M220.87,461.26c0.06,0,0.16,1.71,0.21,3.81c0.05,2.11,0.05,3.82-0.02,3.82
										c-0.06,0-0.16-1.71-0.21-3.81C220.8,462.98,220.8,461.27,220.87,461.26z"/>
								</g>
							</g>
						</g>
					</g>
					<g>
						<g>
							<g>
								<g>
									<path style="fill:#263238;" d="M213.98,472.63c0.01,0.06-1.2,0.27-2.71,0.3c-1.51,0.04-2.73-0.12-2.72-0.18
										c0.01-0.07,1.22-0.01,2.71-0.04C212.76,472.68,213.97,472.57,213.98,472.63z"/>
								</g>
							</g>
						</g>
					</g>
					<g>
						<g>
							<g>
								<g>
									<path style="fill:#263238;" d="M217.62,472.58c0.05,0.04-0.1,0.26-0.22,0.54c-0.12,0.28-0.18,0.53-0.25,0.52
										c-0.06,0-0.1-0.29,0.04-0.61C217.34,472.71,217.58,472.54,217.62,472.58z"/>
								</g>
							</g>
						</g>
					</g>
					<g>
						<g>
							<g>
								<g>
									<path style="fill:#263238;" d="M218.97,470.86c0.04,0.04-0.07,0.24-0.26,0.44c-0.19,0.2-0.38,0.32-0.42,0.28
										c-0.04-0.04,0.07-0.24,0.26-0.44C218.73,470.94,218.92,470.81,218.97,470.86z"/>
								</g>
							</g>
						</g>
					</g>
					<g>
						<g>
							<g>
								<g>
									<path style="fill:#263238;" d="M220.92,470.05c-0.01,0.06-0.26,0.06-0.53,0.16c-0.27,0.09-0.47,0.25-0.52,0.21
										c-0.05-0.03,0.1-0.3,0.44-0.42C220.65,469.88,220.94,469.99,220.92,470.05z"/>
								</g>
							</g>
						</g>
					</g>
					<g>
						<g>
							<g>
								<g>
									<path style="fill:#263238;" d="M222.32,469.66c0.02,0.06-0.08,0.15-0.24,0.22c-0.15,0.06-0.3,0.06-0.32,0.01
										c-0.02-0.06,0.08-0.15,0.24-0.22C222.15,469.61,222.29,469.61,222.32,469.66z"/>
								</g>
							</g>
						</g>
					</g>
				</g>
			</g>
			<g>
				<g>
					<g>
						<g>
							<g>
								<g>
									<path style="fill:#E8505B;" d="M299.26,464.99l-3.02-9.45l-17.73,5.55l4.28,13.87l1.12-0.27
										c4.98-1.26,25.22-6.76,28.18-8.77C315.38,463.66,299.26,464.99,299.26,464.99z"/>
								</g>
							</g>
						</g>
						<g>
							<g>
								<g>
									<path style="fill:#E8505B;" d="M289.16,472.81c-0.72-1.4-1.97-2.52-3.45-3.07c-1.47-0.55-3.09-0.58-4.55,0.01l1.55,4.96
										L289.16,472.81z"/>
								</g>
							</g>
						</g>
					</g>
					<g>
						<g>
							<g>
								<path style="fill:#E8505B;" d="M307.22,464.6c0,0,5.76-0.13,5.37,0.95c-0.39,1.08-20.63,7.4-29.81,9.41l-0.1-0.4l23.68-7.18
									C306.36,467.37,306.2,464.97,307.22,464.6z"/>
							</g>
						</g>
					</g>
					<g>
						<g>
							<g>
								<g>
									<path style="fill:#263238;" d="M282.4,474.63c0,0.01,0.11-0.01,0.32-0.06c0.27-0.07,0.56-0.14,0.89-0.22
										c0.89-0.24,1.98-0.53,3.27-0.87c2.75-0.75,6.54-1.84,10.7-3.14c4.16-1.3,7.9-2.55,10.59-3.5c1.25-0.45,2.32-0.83,3.18-1.14
										c0.32-0.12,0.6-0.23,0.86-0.33c0.2-0.08,0.3-0.12,0.29-0.13c0-0.01-0.11,0.02-0.31,0.08c-0.26,0.09-0.55,0.18-0.87,0.29
										c-0.87,0.29-1.94,0.65-3.2,1.07c-2.71,0.91-6.45,2.14-10.61,3.43c-4.16,1.29-7.94,2.41-10.68,3.2
										c-1.28,0.37-2.36,0.68-3.25,0.94c-0.33,0.1-0.62,0.18-0.88,0.26C282.51,474.58,282.4,474.62,282.4,474.63z"/>
								</g>
							</g>
						</g>
					</g>
					<g>
						<g>
							<g>
								<g>
									<path style="fill:#263238;" d="M306.44,467.65c0.07-0.01-0.12-0.8,0.12-1.73c0.23-0.93,0.77-1.53,0.71-1.58
										c-0.03-0.05-0.69,0.52-0.93,1.52C306.09,466.87,306.4,467.68,306.44,467.65z"/>
								</g>
							</g>
						</g>
					</g>
					<g>
						<g>
							<g>
								<g>
									<path style="fill:#263238;" d="M300.38,466.63c0.06,0.02,0.22-0.37,0.35-0.86c0.13-0.49,0.19-0.9,0.13-0.91
										c-0.06-0.02-0.22,0.37-0.35,0.86C300.38,466.21,300.32,466.62,300.38,466.63z"/>
								</g>
							</g>
						</g>
					</g>
					<g>
						<g>
							<g>
								<g>
									<path style="fill:#263238;" d="M298.71,466.32c0.05,0.03,0.28-0.24,0.49-0.61c0.22-0.37,0.35-0.7,0.3-0.73
										c-0.05-0.03-0.27,0.24-0.49,0.61C298.79,465.96,298.66,466.29,298.71,466.32z"/>
								</g>
							</g>
						</g>
					</g>
					<g>
						<g>
							<g>
								<g>
									<path style="fill:#263238;" d="M297.28,464.93c0.02,0.06,0.45-0.02,0.96-0.17c0.51-0.15,0.92-0.33,0.9-0.39
										c-0.02-0.06-0.45,0.02-0.96,0.17C297.66,464.7,297.26,464.87,297.28,464.93z"/>
								</g>
							</g>
						</g>
					</g>
					<g>
						<g>
							<g>
								<g>
									<path style="fill:#263238;" d="M296.6,463.85c0,0.06,0.51,0.12,1.13-0.02c0.62-0.14,1.05-0.42,1.02-0.48
										c-0.03-0.06-0.49,0.12-1.07,0.26C297.09,463.74,296.6,463.78,296.6,463.85z"/>
								</g>
							</g>
						</g>
					</g>
					<g>
						<g>
							<g>
								<g>
									<path style="fill:#263238;" d="M300.5,464.9c0.01,0.02,0.46-0.06,1.14-0.36c0.34-0.15,0.73-0.36,1.13-0.65
										c0.2-0.15,0.41-0.28,0.6-0.5c0.09-0.11,0.18-0.26,0.17-0.44c-0.01-0.19-0.16-0.35-0.31-0.4c-1.27-0.22-2.16,0.73-2.39,1.42
										c-0.13,0.36-0.15,0.67-0.13,0.88c0.02,0.21,0.05,0.32,0.07,0.32c0.04,0-0.06-0.47,0.22-1.13c0.14-0.32,0.39-0.68,0.78-0.94
										c0.36-0.24,0.93-0.46,1.39-0.33c0.22,0.08,0.22,0.31,0.06,0.5c-0.15,0.18-0.37,0.33-0.56,0.47
										c-0.38,0.28-0.76,0.51-1.08,0.67C300.92,464.72,300.49,464.86,300.5,464.9z"/>
								</g>
							</g>
						</g>
					</g>
					<g>
						<g>
							<g>
								<g>
									<path style="fill:#263238;" d="M300.81,464.86c0.02,0.01,0.1-0.34-0.12-0.83c-0.11-0.24-0.29-0.51-0.57-0.74
										c-0.28-0.19-0.65-0.46-1.13-0.28c-0.25,0.12-0.29,0.46-0.19,0.64c0.08,0.19,0.23,0.34,0.35,0.45
										c0.26,0.23,0.52,0.4,0.75,0.52c0.47,0.24,0.79,0.28,0.8,0.26c0.01-0.03-0.29-0.13-0.72-0.4c-0.21-0.13-0.45-0.31-0.69-0.53
										c-0.23-0.19-0.47-0.59-0.2-0.73c0.28-0.12,0.66,0.08,0.9,0.25c0.26,0.19,0.44,0.43,0.55,0.64
										C300.79,464.54,300.77,464.86,300.81,464.86z"/>
								</g>
							</g>
						</g>
					</g>
					<g>
						<g>
							<g>
								<g>
									<path style="fill:#263238;" d="M281.25,469.66c0.02,0.04,0.49-0.21,1.32-0.36c0.82-0.16,2.03-0.18,3.23,0.28
										c1.2,0.47,2.08,1.29,2.57,1.97c0.51,0.68,0.69,1.18,0.73,1.16c0.01,0-0.02-0.13-0.11-0.36c-0.09-0.22-0.25-0.54-0.49-0.9
										c-0.48-0.71-1.37-1.6-2.62-2.08c-1.25-0.48-2.51-0.44-3.34-0.23c-0.42,0.1-0.75,0.23-0.97,0.33
										C281.35,469.58,281.24,469.65,281.25,469.66z"/>
								</g>
							</g>
						</g>
					</g>
					<g>
						<g>
							<g>
								<g>
									<path style="fill:#263238;" d="M280.78,461.71c-0.06,0.02,0.38,1.67,0.98,3.69c0.6,2.02,1.14,3.64,1.2,3.63
										c0.06-0.02-0.38-1.67-0.98-3.69C281.38,463.32,280.84,461.69,280.78,461.71z"/>
								</g>
							</g>
						</g>
					</g>
					<g>
						<g>
							<g>
								<g>
									<path style="fill:#263238;" d="M290.86,470.38c0.01,0.06,1.22-0.11,2.67-0.55c1.45-0.43,2.55-0.96,2.53-1.02
										c-0.03-0.06-1.16,0.37-2.59,0.8C292.03,470.05,290.84,470.31,290.86,470.38z"/>
								</g>
							</g>
						</g>
					</g>
					<g>
						<g>
							<g>
								<g>
									<path style="fill:#263238;" d="M287.38,471.46c-0.03,0.06,0.17,0.22,0.37,0.44c0.2,0.23,0.34,0.44,0.4,0.42
										c0.06-0.02,0-0.31-0.23-0.57C287.69,471.49,287.4,471.41,287.38,471.46z"/>
								</g>
							</g>
						</g>
					</g>
					<g>
						<g>
							<g>
								<g>
									<path style="fill:#263238;" d="M285.56,470.24c-0.03,0.05,0.14,0.2,0.38,0.33c0.24,0.13,0.46,0.19,0.49,0.13
										c0.03-0.05-0.14-0.2-0.38-0.33C285.81,470.24,285.59,470.18,285.56,470.24z"/>
								</g>
							</g>
						</g>
					</g>
					<g>
						<g>
							<g>
								<g>
									<path style="fill:#263238;" d="M283.45,470.08c0.03,0.06,0.27-0.02,0.56-0.01c0.29,0,0.52,0.09,0.55,0.04
										c0.04-0.05-0.19-0.25-0.55-0.26C283.66,469.84,283.42,470.03,283.45,470.08z"/>
								</g>
							</g>
						</g>
					</g>
					<g>
						<g>
							<g>
								<g>
									<path style="fill:#263238;" d="M282.01,470.15c0,0.06,0.13,0.12,0.29,0.13c0.17,0.01,0.3-0.03,0.31-0.09
										c0-0.06-0.13-0.12-0.29-0.13C282.15,470.04,282.01,470.08,282.01,470.15z"/>
								</g>
							</g>
						</g>
					</g>
				</g>
			</g>
			<g>
				<g>
					<polyline style="fill:#263238;" points="191.68,273.14 200.35,465.84 229.28,466.45 224.47,305.12 276.9,468.37 300.54,461.9 
						247.78,273.14 					"/>
				</g>
				<g>
					<polygon style="fill:#455A64;" points="275.66,467.27 277.01,469.87 302.06,462.56 300.54,458.36 					"/>
				</g>
				<g>
					<g>
						<g>
							<path style="fill:#455A64;" d="M297.65,457.4c0.15-0.04,0.37,0.27,0.5,0.69c0.13,0.43,0.11,0.81-0.04,0.86
								c-0.15,0.04-0.37-0.27-0.5-0.69C297.49,457.82,297.5,457.44,297.65,457.4z"/>
						</g>
					</g>
					<g>
						<g>
							<path style="fill:#455A64;" d="M295.77,451.14c0.15-0.04,0.48,0.62,0.74,1.48c0.26,0.86,0.35,1.6,0.2,1.64
								c-0.15,0.04-0.48-0.62-0.74-1.48C295.72,451.92,295.63,451.18,295.77,451.14z"/>
						</g>
					</g>
					<g>
						<g>
							<path style="fill:#455A64;" d="M293.9,444.88c0.15-0.04,0.48,0.62,0.74,1.48c0.26,0.86,0.35,1.6,0.2,1.64
								c-0.15,0.04-0.48-0.62-0.74-1.48C293.84,445.66,293.75,444.93,293.9,444.88z"/>
						</g>
					</g>
					<g>
						<g>
							<path style="fill:#455A64;" d="M292.02,438.62c0.15-0.04,0.48,0.62,0.74,1.48c0.26,0.86,0.35,1.6,0.2,1.64
								c-0.15,0.04-0.48-0.62-0.74-1.48C291.96,439.41,291.87,438.67,292.02,438.62z"/>
						</g>
					</g>
					<g>
						<g>
							<path style="fill:#455A64;" d="M290.15,432.37c0.15-0.04,0.48,0.62,0.74,1.48c0.26,0.86,0.35,1.6,0.2,1.64
								c-0.15,0.04-0.48-0.62-0.74-1.48C290.09,433.15,290,432.41,290.15,432.37z"/>
						</g>
					</g>
					<g>
						<g>
							<path style="fill:#455A64;" d="M288.27,426.11c0.15-0.04,0.48,0.62,0.74,1.48c0.26,0.86,0.35,1.6,0.2,1.64
								c-0.15,0.04-0.48-0.62-0.74-1.48C288.21,426.89,288.12,426.16,288.27,426.11z"/>
						</g>
					</g>
					<g>
						<g>
							<path style="fill:#455A64;" d="M286.39,419.85c0.15-0.04,0.48,0.62,0.74,1.48c0.26,0.86,0.35,1.6,0.2,1.65
								c-0.15,0.04-0.48-0.62-0.74-1.48C286.33,420.64,286.24,419.9,286.39,419.85z"/>
						</g>
					</g>
					<g>
						<g>
							<path style="fill:#455A64;" d="M284.52,413.6c0.15-0.04,0.48,0.62,0.74,1.48c0.26,0.86,0.35,1.6,0.2,1.64
								c-0.15,0.04-0.48-0.62-0.74-1.48C284.46,414.38,284.37,413.64,284.52,413.6z"/>
						</g>
					</g>
					<g>
						<g>
							<path style="fill:#455A64;" d="M282.64,407.34c0.15-0.04,0.48,0.62,0.74,1.48c0.26,0.86,0.35,1.6,0.2,1.64
								c-0.15,0.04-0.48-0.62-0.74-1.48C282.58,408.12,282.49,407.39,282.64,407.34z"/>
						</g>
					</g>
					<g>
						<g>
							<path style="fill:#455A64;" d="M280.76,401.08c0.15-0.04,0.48,0.62,0.74,1.48c0.26,0.86,0.35,1.6,0.2,1.64
								c-0.15,0.04-0.48-0.62-0.74-1.48C280.71,401.86,280.62,401.13,280.76,401.08z"/>
						</g>
					</g>
					<g>
						<g>
							<path style="fill:#455A64;" d="M278.89,394.83c0.15-0.04,0.48,0.62,0.74,1.48c0.26,0.86,0.35,1.6,0.2,1.64
								c-0.15,0.04-0.48-0.62-0.74-1.48C278.83,395.61,278.74,394.87,278.89,394.83z"/>
						</g>
					</g>
					<g>
						<g>
							<path style="fill:#455A64;" d="M277.01,388.57c0.15-0.04,0.48,0.62,0.74,1.48c0.26,0.86,0.35,1.6,0.2,1.64
								c-0.15,0.04-0.48-0.62-0.74-1.48C276.95,389.35,276.86,388.61,277.01,388.57z"/>
						</g>
					</g>
					<g>
						<g>
							<path style="fill:#455A64;" d="M275.13,382.31c0.15-0.04,0.48,0.62,0.74,1.48c0.26,0.86,0.35,1.6,0.2,1.64
								c-0.15,0.04-0.48-0.62-0.74-1.48C275.08,383.09,274.99,382.36,275.13,382.31z"/>
						</g>
					</g>
					<g>
						<g>
							<path style="fill:#455A64;" d="M273.26,376.06c0.15-0.04,0.48,0.62,0.74,1.48c0.26,0.86,0.35,1.6,0.2,1.64
								c-0.15,0.04-0.48-0.62-0.74-1.48C273.2,376.84,273.11,376.1,273.26,376.06z"/>
						</g>
					</g>
					<g>
						<g>
							<path style="fill:#455A64;" d="M271.38,369.8c0.15-0.04,0.48,0.62,0.74,1.48c0.26,0.86,0.35,1.6,0.2,1.64
								c-0.15,0.04-0.48-0.62-0.74-1.48C271.32,370.58,271.23,369.84,271.38,369.8z"/>
						</g>
					</g>
					<g>
						<g>
							<path style="fill:#455A64;" d="M269.51,363.54c0.15-0.04,0.48,0.62,0.74,1.48c0.26,0.86,0.35,1.6,0.2,1.64
								c-0.15,0.04-0.48-0.62-0.74-1.48C269.45,364.32,269.36,363.59,269.51,363.54z"/>
						</g>
					</g>
					<g>
						<g>
							<path style="fill:#455A64;" d="M267.63,357.29c0.15-0.04,0.48,0.62,0.74,1.48c0.26,0.86,0.35,1.6,0.2,1.65
								c-0.15,0.04-0.48-0.62-0.74-1.48C267.57,358.07,267.48,357.33,267.63,357.29z"/>
						</g>
					</g>
					<g>
						<g>
							<path style="fill:#455A64;" d="M265.75,351.03c0.15-0.04,0.48,0.62,0.74,1.48c0.26,0.86,0.35,1.6,0.2,1.64
								c-0.15,0.04-0.48-0.62-0.74-1.48C265.69,351.81,265.6,351.07,265.75,351.03z"/>
						</g>
					</g>
					<g>
						<g>
							<path style="fill:#455A64;" d="M263.88,344.77c0.15-0.04,0.48,0.62,0.74,1.48c0.26,0.86,0.35,1.6,0.2,1.64
								c-0.15,0.04-0.48-0.62-0.74-1.48C263.82,345.55,263.73,344.82,263.88,344.77z"/>
						</g>
					</g>
					<g>
						<g>
							<path style="fill:#455A64;" d="M262,338.51c0.15-0.04,0.48,0.62,0.74,1.48c0.26,0.86,0.35,1.6,0.2,1.64
								c-0.15,0.04-0.48-0.62-0.74-1.48C261.94,339.3,261.85,338.56,262,338.51z"/>
						</g>
					</g>
					<g>
						<g>
							<path style="fill:#455A64;" d="M260.12,332.26c0.15-0.04,0.48,0.62,0.74,1.48c0.26,0.86,0.35,1.6,0.2,1.64
								c-0.15,0.04-0.48-0.62-0.74-1.48C260.07,333.04,259.98,332.3,260.12,332.26z"/>
						</g>
					</g>
					<g>
						<g>
							<path style="fill:#455A64;" d="M258.25,326c0.15-0.04,0.48,0.62,0.74,1.48c0.26,0.86,0.35,1.6,0.2,1.64
								c-0.15,0.04-0.48-0.62-0.74-1.48C258.19,326.78,258.1,326.05,258.25,326z"/>
						</g>
					</g>
					<g>
						<g>
							<path style="fill:#455A64;" d="M256.37,319.74c0.15-0.04,0.48,0.62,0.74,1.48c0.26,0.86,0.35,1.6,0.2,1.64
								c-0.15,0.04-0.48-0.62-0.74-1.48C256.31,320.53,256.22,319.79,256.37,319.74z"/>
						</g>
					</g>
					<g>
						<g>
							<path style="fill:#455A64;" d="M254.5,313.49c0.15-0.04,0.48,0.62,0.74,1.48c0.26,0.86,0.35,1.6,0.2,1.64
								c-0.15,0.04-0.48-0.62-0.74-1.48C254.44,314.27,254.35,313.53,254.5,313.49z"/>
						</g>
					</g>
					<g>
						<g>
							<path style="fill:#455A64;" d="M252.62,307.23c0.15-0.04,0.48,0.62,0.74,1.48c0.26,0.86,0.35,1.6,0.2,1.64
								c-0.15,0.04-0.48-0.62-0.74-1.48C252.56,308.01,252.47,307.27,252.62,307.23z"/>
						</g>
					</g>
					<g>
						<g>
							<path style="fill:#455A64;" d="M250.74,300.97c0.15-0.04,0.48,0.62,0.74,1.48c0.26,0.86,0.35,1.6,0.2,1.65
								c-0.15,0.04-0.48-0.62-0.74-1.48C250.68,301.75,250.59,301.02,250.74,300.97z"/>
						</g>
					</g>
					<g>
						<g>
							<path style="fill:#455A64;" d="M248.87,294.72c0.15-0.04,0.48,0.62,0.74,1.48c0.26,0.86,0.35,1.6,0.2,1.64
								c-0.15,0.04-0.48-0.62-0.74-1.48C248.81,295.5,248.72,294.76,248.87,294.72z"/>
						</g>
					</g>
					<g>
						<g>
							<path style="fill:#455A64;" d="M246.99,288.46c0.15-0.04,0.48,0.62,0.74,1.48c0.26,0.86,0.35,1.6,0.2,1.64
								c-0.15,0.04-0.48-0.62-0.74-1.48C246.93,289.24,246.84,288.5,246.99,288.46z"/>
						</g>
					</g>
					<g>
						<g>
							<path style="fill:#455A64;" d="M245.11,282.2c0.15-0.04,0.48,0.62,0.74,1.48c0.26,0.86,0.35,1.6,0.2,1.64
								c-0.15,0.04-0.48-0.62-0.74-1.48C245.05,282.98,244.97,282.25,245.11,282.2z"/>
						</g>
					</g>
					<g>
						<g>
							<path style="fill:#455A64;" d="M243.71,277.52c0.15-0.04,0.37,0.27,0.5,0.69c0.13,0.43,0.11,0.81-0.04,0.86
								c-0.15,0.04-0.37-0.27-0.5-0.69C243.55,277.95,243.56,277.57,243.71,277.52z"/>
						</g>
					</g>
				</g>
				<g>
					<g>
						<g>
							<path style="fill:#455A64;" d="M224.29,464.87c0.15-0.01,0.3,0.35,0.32,0.79c0.02,0.45-0.08,0.81-0.24,0.82
								c-0.15,0.01-0.3-0.35-0.32-0.79C224.03,465.25,224.14,464.88,224.29,464.87z"/>
						</g>
					</g>
					<g>
						<g>
							<path style="fill:#455A64;" d="M224.02,458.45c0.16-0.01,0.31,0.71,0.34,1.59c0.03,0.89-0.06,1.61-0.22,1.62
								c-0.15,0.01-0.31-0.71-0.34-1.59C223.77,459.18,223.87,458.46,224.02,458.45z"/>
						</g>
					</g>
					<g>
						<g>
							<path style="fill:#455A64;" d="M223.83,452.03c0.16,0,0.3,0.71,0.33,1.6c0.03,0.89-0.08,1.61-0.23,1.61
								c-0.15,0-0.3-0.71-0.33-1.6C223.57,452.76,223.67,452.03,223.83,452.03z"/>
						</g>
					</g>
					<g>
						<g>
							<path style="fill:#455A64;" d="M223.66,445.61c0.16,0,0.3,0.71,0.32,1.6c0.02,0.89-0.09,1.61-0.24,1.61
								c-0.15,0-0.3-0.71-0.32-1.6C223.4,446.33,223.51,445.61,223.66,445.61z"/>
						</g>
					</g>
					<g>
						<g>
							<path style="fill:#455A64;" d="M223.51,439.18c0.16,0,0.3,0.71,0.32,1.6c0.02,0.89-0.09,1.61-0.24,1.61
								c-0.15,0-0.3-0.71-0.32-1.6C223.25,439.91,223.36,439.19,223.51,439.18z"/>
						</g>
					</g>
					<g>
						<g>
							<path style="fill:#455A64;" d="M223.34,432.75c0.16,0,0.3,0.71,0.32,1.6c0.02,0.89-0.08,1.61-0.24,1.61
								c-0.15,0-0.3-0.71-0.32-1.6C223.08,433.48,223.19,432.76,223.34,432.75z"/>
						</g>
					</g>
					<g>
						<g>
							<path style="fill:#455A64;" d="M223.13,426.33c0.16-0.01,0.31,0.71,0.34,1.6c0.03,0.89-0.07,1.61-0.22,1.62
								c-0.15,0.01-0.31-0.71-0.34-1.6C222.88,427.06,222.98,426.34,223.13,426.33z"/>
						</g>
					</g>
					<g>
						<g>
							<path style="fill:#455A64;" d="M222.86,419.91c0.16-0.01,0.31,0.71,0.35,1.59c0.04,0.89-0.06,1.61-0.21,1.62
								c-0.15,0.01-0.31-0.71-0.35-1.59C222.61,420.64,222.71,419.92,222.86,419.91z"/>
						</g>
					</g>
					<g>
						<g>
							<path style="fill:#455A64;" d="M222.61,413.49c0.15-0.01,0.31,0.71,0.34,1.59c0.03,0.89-0.06,1.61-0.22,1.62
								c-0.15,0.01-0.31-0.71-0.34-1.59C222.36,414.22,222.46,413.5,222.61,413.49z"/>
						</g>
					</g>
					<g>
						<g>
							<path style="fill:#455A64;" d="M222.39,407.07c0.16-0.01,0.31,0.71,0.34,1.6c0.03,0.89-0.07,1.61-0.23,1.61
								c-0.15,0.01-0.3-0.71-0.34-1.6C222.13,407.8,222.23,407.07,222.39,407.07z"/>
						</g>
					</g>
					<g>
						<g>
							<path style="fill:#455A64;" d="M222.19,400.64c0.16,0,0.3,0.71,0.33,1.6c0.03,0.89-0.08,1.61-0.23,1.61
								c-0.15,0-0.3-0.71-0.33-1.6C221.93,401.37,222.04,400.65,222.19,400.64z"/>
						</g>
					</g>
					<g>
						<g>
							<path style="fill:#455A64;" d="M222.02,394.22c0.16,0,0.3,0.71,0.32,1.6c0.02,0.89-0.09,1.61-0.24,1.61
								c-0.15,0-0.3-0.71-0.32-1.6C221.76,394.94,221.87,394.22,222.02,394.22z"/>
						</g>
					</g>
					<g>
						<g>
							<path style="fill:#455A64;" d="M221.88,387.79c0.16,0,0.3,0.71,0.31,1.6c0.02,0.89-0.09,1.61-0.25,1.61
								c-0.15,0-0.3-0.71-0.31-1.6C221.62,388.52,221.73,387.8,221.88,387.79z"/>
						</g>
					</g>
					<g>
						<g>
							<path style="fill:#455A64;" d="M221.78,381.37c0.16,0,0.29,0.71,0.31,1.6c0.01,0.89-0.1,1.61-0.26,1.61
								c-0.16,0-0.29-0.71-0.31-1.6C221.51,382.09,221.62,381.37,221.78,381.37z"/>
						</g>
					</g>
					<g>
						<g>
							<path style="fill:#455A64;" d="M221.7,374.95c0.16,0,0.29,0.72,0.3,1.6c0.01,0.89-0.11,1.61-0.26,1.61
								c-0.15,0-0.29-0.72-0.3-1.6C221.43,375.67,221.54,374.95,221.7,374.95z"/>
						</g>
					</g>
					<g>
						<g>
							<path style="fill:#455A64;" d="M221.65,368.52c0.16,0,0.29,0.72,0.29,1.6c0.01,0.89-0.12,1.61-0.27,1.61
								c-0.16,0-0.29-0.72-0.29-1.6C221.38,369.24,221.5,368.52,221.65,368.52z"/>
						</g>
					</g>
					<g>
						<g>
							<path style="fill:#455A64;" d="M221.64,362.1c0.16,0,0.28,0.72,0.28,1.61c0,0.89-0.12,1.61-0.28,1.61
								c-0.15,0-0.28-0.72-0.28-1.61C221.36,362.82,221.48,362.1,221.64,362.1z"/>
						</g>
					</g>
					<g>
						<g>
							<path style="fill:#455A64;" d="M221.66,355.67c0.16,0,0.28,0.72,0.27,1.61c0,0.89-0.13,1.61-0.29,1.61s-0.28-0.72-0.27-1.61
								C221.37,356.39,221.5,355.67,221.66,355.67z"/>
						</g>
					</g>
					<g>
						<g>
							<path style="fill:#455A64;" d="M221.71,349.25c0.16,0,0.27,0.72,0.27,1.61c-0.01,0.89-0.14,1.61-0.3,1.6
								c-0.15,0-0.27-0.72-0.27-1.61C221.42,349.96,221.55,349.25,221.71,349.25z"/>
						</g>
					</g>
					<g>
						<g>
							<path style="fill:#455A64;" d="M221.79,342.82c0.16,0,0.27,0.72,0.26,1.61c-0.01,0.89-0.15,1.6-0.3,1.6
								c-0.15,0-0.27-0.72-0.26-1.61C221.5,343.54,221.64,342.82,221.79,342.82z"/>
						</g>
					</g>
					<g>
						<g>
							<path style="fill:#455A64;" d="M221.91,336.4c0.16,0,0.27,0.72,0.25,1.61c-0.02,0.89-0.16,1.6-0.31,1.6
								c-0.16,0-0.27-0.72-0.25-1.61C221.61,337.11,221.75,336.4,221.91,336.4z"/>
						</g>
					</g>
					<g>
						<g>
							<path style="fill:#455A64;" d="M222.05,329.97c0.16,0,0.26,0.73,0.24,1.61c-0.02,0.89-0.16,1.6-0.32,1.6
								c-0.15,0-0.26-0.73-0.24-1.61C221.75,330.69,221.9,329.97,222.05,329.97z"/>
						</g>
					</g>
					<g>
						<g>
							<path style="fill:#455A64;" d="M222.28,323.55c0.15,0.01,0.25,0.73,0.22,1.62c-0.04,0.89-0.19,1.6-0.34,1.6
								c-0.15-0.01-0.25-0.73-0.22-1.62C221.97,324.25,222.12,323.54,222.28,323.55z"/>
						</g>
					</g>
					<g>
						<g>
							<path style="fill:#455A64;" d="M222.65,317.13c0.15,0.01,0.23,0.74,0.18,1.62c-0.06,0.88-0.23,1.59-0.39,1.59
								c-0.15-0.01-0.23-0.73-0.18-1.62C222.32,317.83,222.5,317.12,222.65,317.13z"/>
						</g>
					</g>
					<g>
						<g>
							<path style="fill:#455A64;" d="M223.24,310.73c0.15,0.02,0.21,0.75,0.12,1.63c-0.09,0.88-0.29,1.58-0.44,1.57
								c-0.15-0.01-0.21-0.74-0.12-1.63C222.89,311.42,223.08,310.71,223.24,310.73z"/>
						</g>
					</g>
					<g>
						<g>
							<path style="fill:#455A64;" d="M223.86,305.95c0.15,0.02,0.23,0.4,0.16,0.84c-0.06,0.44-0.24,0.78-0.39,0.76
								c-0.15-0.02-0.23-0.4-0.16-0.84C223.53,306.27,223.71,305.93,223.86,305.95z"/>
						</g>
					</g>
				</g>
				<g>
					<polygon style="fill:#455A64;" points="199.59,466.77 230.19,467.27 229.95,462.18 199.59,462.34 					"/>
				</g>
				<g>
					<g>
						<path style="fill:#455A64;" d="M219.66,275.59c0.04,0,0.1,0.42,0.18,1.18c0.08,0.76,0.18,1.86,0.29,3.22
							c0.22,2.72,0.48,6.49,0.74,10.65c0.12,2.07,0.24,4.05,0.34,5.87c0.11,1.81,0.1,3.44,0.56,4.69c0.43,1.26,1.3,2.01,1.95,2.32
							c0.67,0.31,1.12,0.26,1.11,0.32c0,0.02-0.1,0.04-0.31,0.05c-0.21,0.01-0.52-0.03-0.89-0.17c-0.73-0.27-1.73-1.04-2.24-2.38
							c-0.54-1.33-0.57-3.01-0.7-4.79c-0.12-1.82-0.25-3.79-0.39-5.87c-0.26-4.16-0.46-7.93-0.58-10.66
							c-0.06-1.37-0.1-2.47-0.11-3.24C219.61,276.01,219.62,275.59,219.66,275.59z"/>
					</g>
				</g>
				<g>
					<g>
						<path style="fill:#455A64;" d="M222.63,278.15c0.04,0.07-0.24,0.26-0.27,0.72c-0.01,0.22,0.05,0.49,0.22,0.66
							c0.16,0.17,0.47,0.22,0.75,0.1c0.29-0.12,0.47-0.36,0.47-0.6c0.01-0.24-0.14-0.48-0.3-0.63c-0.34-0.31-0.67-0.25-0.69-0.33
							c-0.05-0.05,0.36-0.33,0.93,0.01c0.26,0.16,0.55,0.47,0.58,0.93c0.04,0.48-0.31,0.96-0.78,1.14c-0.45,0.2-1.05,0.1-1.35-0.27
							c-0.3-0.36-0.31-0.78-0.23-1.08C222.14,278.16,222.63,278.07,222.63,278.15z"/>
					</g>
				</g>
				<g>
					<g>
						<path style="fill:#455A64;" d="M249.85,282.72c0.03,0.05-0.82,0.59-2.4,0.92c-1.56,0.33-3.89,0.33-6.16-0.68
							c-2.27-1.02-3.83-2.76-4.62-4.13c-0.81-1.39-0.98-2.39-0.92-2.4c0.09-0.03,0.39,0.91,1.26,2.19c0.85,1.28,2.37,2.87,4.51,3.83
							c2.14,0.96,4.35,1.03,5.87,0.81C248.91,283.03,249.81,282.62,249.85,282.72z"/>
					</g>
				</g>
				<g>
					<g>
						<path style="fill:#455A64;" d="M201.74,275.59c0.06,0,0.19,0.81-0.1,2.09c-0.28,1.26-1.07,2.99-2.59,4.33
							c-1.53,1.34-3.35,1.89-4.63,2c-1.31,0.12-2.1-0.11-2.08-0.17c0.01-0.09,0.8-0.01,2.03-0.22c1.22-0.2,2.9-0.78,4.32-2.03
							c1.42-1.25,2.22-2.83,2.58-4.01C201.62,276.38,201.64,275.58,201.74,275.59z"/>
					</g>
				</g>
			</g>
			<g>
				<path style="fill:#FFBE9D;" d="M283.66,254.99c5.94-6.83,5.91-17-0.08-23.79l-28.85-32.71l-7.72,21.58
					c0.53,0.35,22.46,23.86,22.46,23.86l-18.85,23.49c-2.9,3.62-3.75,8.47-2.24,12.86l5.04,12.33l13.79-6.19l-1.05-1.61h-10.35
					l-0.61-2.48l0,0L283.66,254.99z"/>
			</g>
			<g>
				<g>
					<path style="fill:#455A64;" d="M164.57,142.63c0,0,4.52,5.33,9.2-1.01c3.68-4.98,4.46-11.13,1.51-13.74l0.96-0.64
						c0,0,4.92,3.19,2.7,10.14c-2.22,6.96-7.01,10.55-10.41,10c-3.4-0.54-4.3-4.1-4.3-4.1l0.33-1"/>
				</g>
				<g>
					<path style="fill:#FFBE9D;" d="M194.18,194.31c0,0-28.94,11.94-28.28,11.15l-0.73-35.5h-11.33c0,0-8.06,46.83,0.58,52.35
						c11.81,7.54,40.4-8.15,40.4-8.15L194.18,194.31z"/>
				</g>
				<g>
					<g>
						<polyline style="fill:#FFBE9D;" points="162.86,155.53 162.8,155.9 160.64,171.37 153.83,169.96 154.7,161.05 						"/>
					</g>
					<g>
						<path style="fill:#FFBE9D;" d="M164.98,153.99l-4.7,16.76l4.19,0.83c0,0,0.59-1.23,1.96-4.87c1.58-4.2-0.11-7.72-0.25-8.09
							c0,0,3.8-8.59,2.33-8.98C167.04,149.26,164.98,153.99,164.98,153.99z"/>
					</g>
					<g>
						<path style="fill:#263238;" d="M168.65,147.08c-0.24,0.72-10.33,25.68-10.33,25.68l-2.53-1.42l10.14-26.51L168.65,147.08z"/>
					</g>
					<g>
						<path style="fill:#FFBE9D;" d="M154.14,168.64c0,0-1.23-7.34,0.12-9.61c0.49-0.82,7.43-10.39,7.93-10.08
							c0.5,0.31,3.51,8.78,1.91,9.07c-1.6,0.29-2.23-1.41-2.23-1.41s2.09,5.22,0.62,5.3c-1.47,0.09-2.71-3.14-2.71-3.14
							s3.09,6.15,1.15,6.47c-1.93,0.32-4.59-4.74-4.59-4.74L154.14,168.64z"/>
					</g>
					<g>
						<g>
							<path style="fill:#EB996E;" d="M160.53,152.35c0.15-0.05,0.84,1.47,1.54,3.41c0.18,0.49,0.32,0.95,0.52,1.3
								c0.19,0.36,0.45,0.59,0.72,0.75c0.54,0.3,0.98,0.27,0.98,0.35c0.02,0.06-0.44,0.27-1.15,0.01c-0.35-0.13-0.74-0.42-1-0.84
								c-0.27-0.42-0.42-0.9-0.6-1.38C160.84,154.02,160.38,152.41,160.53,152.35z"/>
						</g>
					</g>
					<g>
						<g>
							<path style="fill:#EB996E;" d="M158.39,154.73c0.16-0.05,1.16,2.81,2.84,6.13c0.2,0.42,0.41,0.79,0.7,0.9
								c0.3,0.12,0.52-0.01,0.62-0.34c0.1-0.32,0.07-0.7,0.05-1.06c-0.02-0.35-0.05-0.68-0.09-0.98c-0.16-1.19-0.41-1.91-0.33-1.94
								c0.06-0.03,0.45,0.65,0.72,1.88c0.07,0.31,0.12,0.64,0.16,1.01c0.03,0.36,0.1,0.76-0.02,1.23c-0.06,0.23-0.18,0.5-0.45,0.66
								c-0.26,0.17-0.61,0.16-0.87,0.05c-0.56-0.23-0.79-0.76-1-1.16C159.02,157.74,158.25,154.77,158.39,154.73z"/>
						</g>
					</g>
					<g>
						<g>
							<path style="fill:#EB996E;" d="M156.53,158.29c0.07-0.04,0.51,0.67,1.16,1.84c0.36,0.65,0.73,1.34,1.13,2.07
								c0.21,0.4,0.43,0.81,0.65,1.23c0.23,0.42,0.43,0.9,0.71,1.22c0.28,0.32,0.7,0.43,0.96,0.22c0.28-0.22,0.41-0.61,0.35-1
								c-0.13-0.77-0.51-1.55-0.69-2.18c-0.43-1.27-0.66-2.07-0.59-2.09c0.07-0.03,0.44,0.72,0.96,1.95
								c0.14,0.33,0.28,0.66,0.42,1.01c0.14,0.36,0.33,0.76,0.41,1.25c0.08,0.48-0.04,1.12-0.54,1.5c-0.24,0.2-0.61,0.28-0.92,0.19
								c-0.31-0.07-0.58-0.25-0.78-0.48c-0.39-0.46-0.56-0.93-0.79-1.35c-0.21-0.42-0.42-0.84-0.62-1.24
								c-0.36-0.74-0.7-1.45-1.02-2.12C156.77,159.09,156.46,158.32,156.53,158.29z"/>
						</g>
					</g>
				</g>
				<g>
					<path style="fill:#263238;" d="M169.2,148.18c-0.84,0-1.66-0.16-2.44-0.51c-2.09-0.93-3.51-2.96-4-5.73
						c-0.46-2.61-0.02-5.6,1.22-8.41c1.24-2.81,3.16-5.15,5.4-6.56c2.37-1.5,4.83-1.82,6.93-0.9c2.09,0.93,3.51,2.96,4,5.73
						c0.46,2.61,0.02,5.6-1.22,8.41C176.95,145.06,172.88,148.18,169.2,148.18z M173.83,127.72c-1.04,0-2.16,0.36-3.29,1.08
						c-1.88,1.19-3.51,3.18-4.58,5.61c-1.07,2.43-1.45,4.97-1.07,7.17c0.36,2.04,1.33,3.5,2.74,4.13c3.03,1.34,7.37-1.58,9.48-6.36
						c1.07-2.43,1.45-4.97,1.07-7.17c-0.36-2.04-1.33-3.5-2.74-4.13C174.94,127.83,174.4,127.72,173.83,127.72z"/>
				</g>
			</g>
			<g>
				<g>
					<path style="fill:#E8505B;" d="M269.99,212.31l-18.22-18.37l0,0c-3.52-3.66-7.65-6.36-12.58-8.14
						c-2.4-0.87-4.94-1.39-7.88-1.51l0,0c-6.35,1.96-12.7,1.97-19.04,0.01c-2.62,0.33-8.39,1.06-15.02,4.3l0,0l-27.21,11.04
						l8.72,24.05l14.59-4.91l0.86,22.61l-2.88,33.84l56.46,0.59l-0.73-30.69l-0.04-22.2l8.15,7.93L269.99,212.31z"/>
				</g>
				<g>
					<g>
						<path style="fill:#263238;" d="M254.67,198.76c0,0-0.23,0.46-0.8,1.23c-0.57,0.78-1.49,1.88-2.91,3.06
							c-1.41,1.17-3.35,2.4-5.84,3.23c-2.47,0.83-5.54,1.2-8.79,0.57c-3.24-0.61-6.67-2.18-9.44-4.96
							c-0.67-0.72-1.26-1.54-1.69-2.47c-0.42-0.92-0.69-2-0.49-3.09c0.2-1.07,0.93-2.09,2-2.53c1.05-0.44,2.26-0.36,3.31,0.04
							c1.06,0.39,2.02,1.14,2.6,2.18c0.54,1.03,0.77,2.22,0.7,3.38c-0.13,2.35-1.19,4.57-2.64,6.46c-2.92,3.81-7.68,6.28-12.73,6.63
							c-2.53,0.14-5.07-0.24-7.35-1.2c-2.26-0.96-4.34-2.49-5.56-4.61c-1.2-2.1-1.43-4.78-0.3-6.9c1.13-2.12,3.68-3.26,5.92-2.7
							c1.13,0.27,2.08,1.05,2.63,2c0.57,0.96,0.78,2.07,0.73,3.13c-0.09,2.18-1.53,4-3.2,5.01c-1.68,1.05-3.62,1.44-5.42,1.45
							c-1.81,0.01-3.52-0.31-5.12-0.66c-3.19-0.71-6.06-1.68-8.25-3.14c-2.21-1.44-3.6-3.37-4.25-5.09
							c-0.68-1.73-0.67-3.22-0.52-4.17c0.16-0.96,0.41-1.41,0.41-1.41c0.04,0.01-0.17,0.48-0.3,1.43c-0.12,0.94-0.09,2.39,0.61,4.07
							c0.68,1.67,2.04,3.53,4.22,4.91c2.16,1.41,4.99,2.34,8.17,3.02c1.59,0.34,3.27,0.64,5.03,0.62c1.75-0.02,3.59-0.41,5.18-1.41
							c1.57-0.97,2.88-2.65,2.95-4.64c0.04-0.97-0.15-1.99-0.67-2.85c-0.5-0.85-1.33-1.53-2.33-1.76c-1.98-0.49-4.32,0.55-5.32,2.45
							c-1.02,1.92-0.82,4.42,0.31,6.37c1.14,1.99,3.12,3.45,5.3,4.37c2.2,0.93,4.65,1.3,7.1,1.16c4.89-0.34,9.52-2.73,12.33-6.41
							c1.41-1.81,2.42-3.95,2.54-6.15c0.07-1.09-0.14-2.18-0.63-3.11c-0.5-0.9-1.36-1.59-2.32-1.95c-0.95-0.37-2.03-0.43-2.93-0.05
							c-0.9,0.36-1.53,1.22-1.71,2.15c-0.18,0.94,0.05,1.93,0.44,2.79c0.39,0.88,0.95,1.66,1.59,2.35c2.66,2.7,6.02,4.27,9.18,4.89
							c3.18,0.64,6.18,0.32,8.62-0.47c2.46-0.78,4.38-1.97,5.8-3.1c1.42-1.14,2.36-2.21,2.95-2.96
							C254.38,199.17,254.65,198.74,254.67,198.76z"/>
					</g>
				</g>
				<g>
					<g>
						<path style="fill:#263238;" d="M245.44,246.66c0,0-0.35,0.26-1.12,0.55c-0.76,0.28-1.97,0.57-3.53,0.46
							c-1.55-0.1-3.45-0.62-5.34-1.77c-1.91-1.13-3.8-2.8-5.74-4.78c-0.95-1-1.92-2.2-2.28-3.75c-0.16-0.77-0.14-1.6,0.12-2.39
							c0.25-0.78,0.78-1.54,1.57-1.95c0.78-0.42,1.76-0.43,2.59-0.12c0.84,0.3,1.58,0.84,2.17,1.52c1.18,1.38,1.73,3.26,1.67,5.13
							c-0.06,1.87-0.71,3.78-1.92,5.33c-1.22,1.55-2.95,2.71-4.86,3.37c-1.92,0.66-4.03,0.85-6.1,0.56
							c-2.07-0.3-4.09-1.03-5.95-2.07c-1.86-1.05-3.56-2.3-5.03-3.79c-1.45-1.48-2.57-3.43-2.6-5.53c-0.03-1.03,0.21-2.09,0.75-2.97
							c0.54-0.89,1.4-1.55,2.34-1.9c1.89-0.69,4.06-0.35,5.56,0.87c1.5,1.23,2.2,3.11,2.26,4.88c0.07,1.79-0.53,3.52-1.53,4.85
							c-2.01,2.71-5.1,3.97-7.83,4.34c-5.54,0.61-10.13-0.64-12.69-2.43c-1.3-0.88-2.03-1.9-2.41-2.61
							c-0.2-0.36-0.31-0.65-0.37-0.85c-0.07-0.2-0.1-0.3-0.09-0.3c0.04-0.02,0.15,0.41,0.56,1.1c0.41,0.68,1.15,1.65,2.44,2.49
							c2.52,1.7,7.08,2.87,12.5,2.22c2.66-0.38,5.62-1.63,7.51-4.22c0.94-1.27,1.48-2.88,1.41-4.56c-0.06-1.66-0.74-3.39-2.1-4.5
							c-1.34-1.09-3.34-1.39-5.04-0.77c-0.84,0.33-1.59,0.9-2.06,1.68c-0.48,0.78-0.69,1.73-0.66,2.67
							c0.03,1.92,1.06,3.73,2.45,5.16c1.41,1.43,3.09,2.67,4.9,3.68c1.81,1.01,3.77,1.72,5.75,2.01c1.99,0.28,4.01,0.1,5.84-0.53
							c1.83-0.63,3.47-1.72,4.62-3.18c1.14-1.45,1.76-3.26,1.83-5.02c0.07-1.76-0.45-3.52-1.52-4.79c-0.54-0.62-1.22-1.12-1.96-1.39
							c-0.74-0.28-1.55-0.26-2.21,0.08c-1.35,0.71-1.77,2.47-1.48,3.83c0.31,1.42,1.22,2.58,2.15,3.57c1.9,1.97,3.76,3.66,5.61,4.78
							c1.85,1.15,3.68,1.69,5.2,1.82c1.52,0.14,2.71-0.11,3.48-0.35C245.05,246.85,245.42,246.63,245.44,246.66z"/>
					</g>
				</g>
			</g>
		</g>
	</g>
</g>
</svg>
