<?xml version="1.0" encoding="utf-8"?>
<!-- Generator: Adobe Illustrator 24.1.0, SVG Export Plug-In . SVG Version: 6.00 Build 0)  -->
<svg version="1.1" id="Capa_1" xmlns="http://www.w3.org/2000/svg" xmlns:xlink="http://www.w3.org/1999/xlink" x="0px" y="0px"
	 viewBox="0 0 512 512" style="enable-background:new 0 0 512 512;" xml:space="preserve">
<style type="text/css">
	.st0{fill:#E6E6E6;}
	.st1{fill:#6D6D6D;}
	.st2{fill:#FFFFFF;}
	.st3{fill:#F2F2F2;}
	.st4{fill:#333333;}
	.st5{fill:#F25A5A;}
</style>
<g>
	<g>
		<ellipse class="st0" cx="184.7" cy="463.2" rx="146.7" ry="11.3"/>
	</g>
	<g>
		<g id="XMLID_2_">
			<g>
				<g>
					<path class="st1" d="M100.8,335.1c3.7,0,7.4,0,11.1,0.1c-0.3,0.2-0.6,0.6-0.7,1c-5.9,23.2-11.7,46.5-17.6,69.7
						c-3,12-6.1,24.1-9.1,36.1c-1,3.9-1.8,7.9-2.6,11.8c-0.4,2.2-0.7,4.6-3.4,5c-1.3,0.2-3.3-0.6-3.8-1.8c-0.3-0.7-0.1-2,0.2-3.4
						c0.5-1.9,1.2-4.1,1.4-5.1c1.1-5.3,2.2-10.7,3.4-16c3.3-15.2,6.6-30.5,9.9-45.7C93.4,369.6,97.1,352.4,100.8,335.1z"/>
				</g>
				<g>
					<path class="st1" d="M296.1,455.6c0,1.8,0.5,2.4-2.1,3.1c-5.2,1.2-5.1-6.6-5.8-10c-2.3-11-5.4-21.9-8.2-32.8
						c-6.7-26.5-13.4-53.1-20.1-79.6c0-0.1,0-0.1-0.1-0.2c0.1,0,0.3,0,0.4,0c3.4-0.1,6.8-0.1,10.2-0.2c6.4,30.4,13.2,60.7,19.7,91
						c1.3,5.9,2.5,11.8,3.8,17.7C294.6,448,296.1,452.1,296.1,455.6z"/>
				</g>
				<g>
					<path class="st1" d="M358,324c0.8,0.8,1.2,2.6,0.9,3.7c-0.8,3.7-2,2.4-4.1,2.9c-1.3,0.3-2.7,0.5-4.1,0.6c-0.5,0-1,0.1-1.4,0.1
						c-4,0.1-8.4-0.3-12.1-0.3c-5.3,0-10.6,0-16,0.1c-20.4,0.4-40.8,0.7-61.2,1.1c-48.2,0.1-96.4-1.1-144.6-1.3
						c-15.1-0.1-30.3-0.1-45.4,0.1c-16.4,0.2-32.8,0.6-49.2,0c-0.9,0-2.4,0.1-3.8,0c-0.2,0-0.4,0-0.6,0c-0.9-0.1-1.8-0.2-2.4-0.5
						c-1.8-0.9-3.3-6.2-1.3-7.9c1.1-0.9,5.1-0.6,6.4-0.6c2.2-0.1,4.5-0.1,6.7-0.1c6.7,0,13.4,0.3,20,0.3
						c45.6,0.3,91.3,0.4,136.9,0.7c42.7,0.2,85.5,0.3,128.1-0.5c9.5-0.2,18.9-0.1,28.4,0.1c4.9,0.1,9.8,0.2,14.8,0.4
						C356,323,356.9,322.8,358,324z"/>
				</g>
				<g>
					<path class="st1" d="M356.5,44.1c2,0.9,3.7,5.5,1.9,7.6c-1.7,2-9.9,1-12.2,1.1c-10.5,0-20.9-0.4-31.4-0.3
						c-44.3,0.3-88.7-0.8-133-0.8c-35,0-70,0.8-105.1,0.9c-11.2,0-22.3,0-33.5-0.2c-5.3-0.1-10.6-0.2-15.9-0.3
						c-3.5-0.1-9.5,0.9-12.8-0.4c-2.6-1-3.9-5.5-0.6-7.4c1.6-0.9,5.4-0.4,7.3-0.4c6.1-0.2,12.2-0.1,18.2-0.1
						c28.5,0,57.1-0.6,85.7-1.2c59.1-0.1,118.2,1.9,177.3,1.2c8.7-0.1,17.5-0.3,26.3-0.4c1.3,0,2.6,0,3.9,0c6.9,0,13.7,0.1,20.6,0.5
						C354.1,43.9,355.7,43.7,356.5,44.1z"/>
				</g>
				<g>
					<path class="st2" d="M340.7,56.6c2.3,0,6.1,0.5,9.8,0.5c0,42.4,0.7,84.7,1.2,127.1c0.3,21.8,0.7,43.7,0.5,65.6
						c-0.2,22.9-0.8,45.8,0.3,68.6c-3.8-0.1-7.8,0.3-10.3,0.3c-44.6-1-89.2,0.3-133.9,0.4c-50.3,0.1-100.5-0.9-150.8-0.7
						c-10.5,0-21.1-0.3-31.6-0.3c-0.4,0-0.8,0-1.2,0c-1.3,0-2.8-0.1-4.4-0.1c-1.1-22.7,0.3-45.5,0.8-68.2
						c0.5-21.8-0.1-43.7-0.6-65.6c-0.9-42.8-2.3-85.5-2.3-128.3c2.1,0,4.3-0.1,6.3,0c5.5,0.1,11.1,0.2,16.6,0.3
						C52.9,56.4,64.7,56,76.5,56c26.5-0.1,52.9-0.2,79.4-0.4c48.3-0.3,96.5,1.4,144.7,0.8C314.1,56.4,327.4,56.5,340.7,56.6z"/>
				</g>
				<g>
					<path class="st3" d="M350.6,69.1c0-4,0-8,0-11.9c-3.7,0-7.5-0.5-9.8-0.5c-13.3-0.2-26.6-0.3-39.9-0.1
						c-48.2,0.5-96.5-1.1-144.7-0.8c-26.5,0.2-52.9,0.3-79.4,0.4c-11.8,0-23.6,0.4-35.4,0.2c-5.5-0.1-11.1-0.2-16.6-0.3
						c-2-0.1-4.1,0.1-6.3,0c0,42.8,1.4,85.5,2.3,128.3c0.5,21.8,1.1,43.7,0.6,65.6c-0.5,22.7-1.9,45.5-0.8,68.2c1.5,0,3,0.1,4.4,0.1
						c0.4,0,0.8,0,1.2,0c1.9,0,3.8,0,5.7,0c0.5-68.9,5.9-187.9,36.4-219.5C102.1,63.3,166.2,65.1,350.6,69.1z"/>
				</g>
				<g>
					<path class="st4" d="M356.5,318.9c-1.2-23-0.6-46-0.3-69.1c0.2-21.9-0.2-43.7-0.5-65.6c-0.6-42.4-1.2-84.8-1.2-127.3
						c3.6-0.4,6.7-1.5,7.9-4.4c2.8-6.8-1.6-12.1-8-12.6c-7.2-0.6-14.5-0.5-21.7-0.4c-1.3,0-2.6,0-3.9,0c-0.3,0-0.7,0-1,0
						c-67.5,0.2-135.1-1.1-202.6-0.9c-28.1,0.6-56.3,1.2-84.4,1.2c-6,0-12,0-18,0.1c-3.5,0.1-9.1-0.6-12.1,1.7
						C5.9,45.3,8,54.3,13.5,55.5c0.3,0.1,0.7,0.1,1,0.2c0,42.9,1.4,85.7,2.3,128.5c0.5,21.8,1.1,43.7,0.6,65.6
						c-0.5,22.8-1.9,45.5-0.8,68.3c-4.5,0.3-8.4,1.9-8.4,7.6c-0.1,6.4,3.4,8.3,8.2,8.9c0.1,0,0.2,0,0.4,0c0.8,0.1,1.6,0.2,2.4,0.2
						c9.4,0.4,18.9,0.3,28.4,0.3c16.4-0.1,32.9-0.1,49.4,0c-7.3,34.3-14.9,68.5-22.2,102.8c-1.1,5.1-2.2,10.2-3.1,15.3
						c-0.5,2.8-1.4,5.5,1,7.6c2.9,2.7,9.4,2.9,11.8-0.5c1.9-2.7,1.8-8.1,2.5-11.4c1.4-6.6,3.2-13.1,4.9-19.6
						c7.8-30.7,15.5-61.4,23.2-92.1c0.1-0.2,0.3-1.2,0.6-2.1c46.9,0.3,93.8,0.9,140.7,0.8c-0.2,0.3-0.2,0.8-0.1,1.2
						c6.9,27.4,13.8,54.8,20.7,82.1c3,11.8,6.2,23.5,8.6,35.5c1.1,5.8,3.2,9.3,9.9,7.5c8.4-2.3,3.5-13.4,2.2-19.3
						c-3.4-16.2-6.9-32.4-10.5-48.6c-4.3-19.6-8.5-39.1-12.7-58.7c14.8-0.3,29.6-0.5,44.5-0.8c10.2-0.2,20.5,0.1,30.7-0.2
						c0.5,0,1,0,1.5-0.1c0.9,0,1.9-0.1,2.8-0.1c3-0.2,6.2-0.2,8-2.9c1.8-2.8,1.4-7.4-0.5-10.1C360.3,320.1,358.5,319.3,356.5,318.9z
						 M14.5,51.7c-2.6-1-3.9-5.5-0.6-7.4c1.6-0.9,5.4-0.4,7.3-0.4c6.1-0.2,12.2-0.1,18.2-0.1c28.5,0,57.1-0.6,85.7-1.2
						c59.1-0.1,118.2,1.9,177.3,1.2c8.7-0.1,17.5-0.3,26.3-0.4c1.3,0,2.6,0,3.9,0c6.9,0,13.7,0.1,20.6,0.5c0.9,0.1,2.5-0.1,3.4,0.3
						c2,0.9,3.7,5.5,1.9,7.6c-1.7,2-9.9,1-12.2,1.1c-10.5,0-20.9-0.4-31.4-0.3c-44.3,0.3-88.7-0.8-133-0.8c-35,0-70,0.8-105.1,0.9
						c-11.2,0-22.3,0-33.5-0.2c-5.3-0.1-10.6-0.2-15.9-0.3C23.9,52,17.8,53,14.5,51.7z M20.7,184.2c-0.9-42.8-2.3-85.5-2.3-128.3
						c2.1,0,4.3-0.1,6.3,0c5.5,0.1,11.1,0.2,16.6,0.3C53.1,56.4,64.9,56,76.7,56c26.5-0.1,52.9-0.2,79.4-0.4
						c48.3-0.3,96.5,1.4,144.7,0.8c13.3-0.1,26.6-0.1,39.9,0.1c2.3,0,6.1,0.5,9.8,0.5c0,42.4,0.7,84.7,1.2,127.1
						c0.3,21.8,0.7,43.7,0.5,65.6c-0.2,22.9-0.8,45.8,0.3,68.6c-3.8-0.1-7.8,0.3-10.3,0.3c-44.6-1-89.2,0.3-133.9,0.4
						c-50.3,0.1-100.5-0.9-150.8-0.7c-10.5,0-21.1-0.3-31.6-0.3c-0.4,0-0.8,0-1.2,0c-1.3,0-2.8-0.1-4.4-0.1
						c-1.1-22.7,0.3-45.5,0.8-68.2C21.8,228,21.2,206.1,20.7,184.2z M111.2,336.3c-5.9,23.2-11.7,46.5-17.6,69.7
						c-3,12-6.1,24.1-9.1,36.1c-1,3.9-1.8,7.9-2.6,11.8c-0.4,2.2-0.7,4.6-3.4,5c-1.3,0.2-3.3-0.6-3.8-1.8c-0.3-0.7-0.1-2,0.2-3.4
						c0.5-1.9,1.2-4.1,1.4-5.1c1.1-5.3,2.2-10.7,3.4-16c3.3-15.2,6.6-30.5,9.9-45.7c3.8-17.2,7.5-34.4,11.2-51.7
						c3.7,0,7.4,0,11.1,0.1C111.5,335.4,111.3,335.8,111.2,336.3z M290.1,426.9c1.3,5.9,2.5,11.8,3.8,17.7c0.7,3.4,2.2,7.5,2.2,11
						c0,1.8,0.5,2.4-2.1,3.1c-5.2,1.2-5.1-6.6-5.8-10c-2.3-11-5.4-21.9-8.2-32.8c-6.7-26.5-13.4-53.1-20.1-79.6c0-0.1,0-0.1-0.1-0.2
						c0.1,0,0.3,0,0.4,0c3.4-0.1,6.8-0.1,10.2-0.2C276.8,366.3,283.5,396.6,290.1,426.9z M359,327.7c-0.8,3.7-2,2.4-4.1,2.9
						c-1.3,0.3-2.7,0.5-4.1,0.6c-0.5,0-1,0.1-1.4,0.1c-4,0.1-8.4-0.3-12.1-0.3c-5.3,0-10.6,0-16,0.1c-20.4,0.4-40.8,0.7-61.2,1.1
						c-48.2,0.1-96.4-1.1-144.6-1.3c-15.1-0.1-30.3-0.1-45.4,0.1c-16.4,0.2-32.8,0.6-49.2,0c-0.9,0-2.4,0.1-3.8,0
						c-0.2,0-0.4,0-0.6,0c-0.9-0.1-1.8-0.2-2.4-0.5c-1.8-0.9-3.3-6.2-1.3-7.9c1.1-0.9,5.1-0.6,6.4-0.6c2.2-0.1,4.5-0.1,6.7-0.1
						c6.7,0,13.4,0.3,20,0.3c45.6,0.3,91.3,0.4,136.9,0.7c42.7,0.2,85.5,0.3,128.1-0.5c9.5-0.2,18.9-0.1,28.4,0.1
						c4.9,0.1,9.8,0.2,14.8,0.4c1.8,0.1,2.7-0.1,3.8,1.1C358.8,324.8,359.2,326.6,359,327.7z"/>
				</g>
			</g>
		</g>
	</g>
	<g>
		<path class="st0" d="M270.4,335.9c-3.4,0.1-6.8,0.1-10.2,0.2c-0.1,0-0.3,0-0.4,0c0,0.1,0.1,0.1,0.1,0.2c1.2,4.6,2.3,9.1,3.4,13.7
			c3.3,0,6.8,0.1,10.2,0.1C272.4,345.3,271.4,340.6,270.4,335.9z"/>
	</g>
	<g>
		<path class="st0" d="M107.7,350.1c1.2-4.6,2.3-9.2,3.5-13.8c0.1-0.5,0.4-0.8,0.7-1c-3.7,0-7.4-0.1-11.1-0.1
			c-1.1,5-2.1,9.9-3.2,14.9H107.7z"/>
	</g>
</g>
<g>
	<g>
		<ellipse class="st0" cx="408.1" cy="463.2" rx="71.1" ry="8.2"/>
	</g>
	<path class="st2" d="M502.3,294.5c2.1,9.9-1.7,19.8-7.4,27.9c-5.8,8.2-13,15.6-19.5,23.2c-2.5,3-5.1,6-8.2,8.5
		c-4.9,4-14.4,8.8-19.7,2.9c-3.8-4.2-0.6-10.3,3.7-15.8c3.3-4.3,7.3-8.2,9.2-10.7c4.8-6.1,10.8-12,14.7-18.8
		c3.6-6.4,3.6-11.6-1.7-17.1c-8.3-8.5-17.5-16.6-26.4-24.5c-1.2-1-3.5-0.4-3.3,1.4c1.8,22.3,2.8,44.6,4.8,66.9
		c0,0.3,0.1,0.5,0.2,0.7c-0.5,0.6-1,1.2-1.5,1.8c-2.4,2.9-4.5,5.7-4.8,9.6c-0.3,6,2.5,12,8.8,12.9c0.5,0.1,0.9,0.1,1.3,0.1
		c4.3,19.5,7.6,39.1,9.5,59c0.8,8.3,2.2,17.4,1.4,25.7c-0.7,7-8.2,15.3-14.1,6.8c-3-4.2-4.4-9.8-6.2-14.6
		c-6.5-17-13.1-34.2-18.6-51.5c0-0.1-0.1-0.2-0.1-0.3c-2.5-7.9-7.3-29.6-19.3-27.3c-10.1,1.9-13.8,22.5-15.7,30.1
		c-0.3,1.4-0.7,2.7-1,4.1c-4.2,17.1-8.3,33.7-15.3,50c-1.5,3.5-3,7.1-5.5,10c-5.1,5.9-11,2.1-13.5-4.1c-1.4-3.6-2-7.3-2.1-11.2
		c-0.2-5.5,0.6-11.1,1-16.4c1.1-13.5,2.4-27,3.9-40.4c2.9-26.5,6.2-53,9.8-79.4c0.8-6.2,1.6-12.4,2.5-18.5
		c0.6-4.5,2.4-10.7-0.6-14.6c-3.1-4.1-6.1-0.5-9.2,1.9c-5.5,4.2-10.8,8.7-16.2,12.9c-10.8,8.4-24.3,19.2-36.2,6.4
		c-5.3-5.6-9.7-12.1-14-18.7c-3.4-5.3-6.8-10.7-10.4-15.7c-3.8-5.3-7.4-10.7-10.3-16.5c-3.6-7.1-12.2-22.8-5.1-29.4
		c10.2-9.6,19.1,5.6,23.7,12.8c5.1,7.9,11,15.1,15.8,23.2c3.5,6,6.8,12.3,11.2,17.7c1.6,2,3.1,4,5.9,3.1c2.5-0.8,5.1-3.9,7.1-5.5
		c3.8-3.1,7.7-6.2,11.7-9.2c1.3-1,2.6-2,4-2.9c11.8-8.5,24.9-17,39.5-19.5c1.8-0.3,1.7-2.7,0.5-3.6c-17.7-11.7-29.2-31.2-25-52.9
		c1.6-8.2,5.8-15.4,11.5-21.2c9.5-9.8,23.3-16,36.4-17.5c11.4-1.3,26-0.5,36.1,5.5c10.3,6.2,17.4,16.3,21.3,27.4
		c7.3,20.7,1.6,42.9-14.9,56.1c-2.7,2.2-5.7,4.1-9,5.8c-1.5,0.7-1.1,2.5,0,3.4c14.3,11,27.5,22.9,40.6,35.3
		c6.9,6.6,15.6,13.3,18.4,22.8C502,293.3,502.2,293.9,502.3,294.5z"/>
	<g>
		<path class="st5" d="M415.2,286.5c-1-6-2-11.9-3-17.9c-0.5-2.7-2-6.7-1.7-9.5c0.3-2.3,3.7-4.4,4-6c0.1-0.9-1.2-3.4-1.5-4.1
			c-0.9-2,0-1.3-2-1.9c-1.6-0.5-3.5,0.3-5.2,0c0,0-0.9-0.1-1.5,0c-1.5,1.2-3.2,4.3-3.9,6.3c2.8,4,5.1,4.2,3.7,9.3
			c-2.1,7.7-4.7,15.3-6.8,23c-1,3.8-2,7.6-2.8,11.5c-0.2,1-1.2,3.8-0.7,4.8c0.3,0.6,2.9,2.2,3.6,2.7c2.7,2.1,5.6,4.3,8,6.8
			c0.2,0.3,0.4,0.4,0.5,0.6c0,0,0-0.1,0.1-0.1c0.9-0.6,1.8-1.5,2.6-2.2c2.5-2.1,4.9-4.4,7.4-6.5c0.4-0.3,1.2-0.8,1.6-1.3
			c0-0.1,0-0.3,0-0.7C417.7,296.5,415.9,291,415.2,286.5z"/>
	</g>
	<g>
		<path class="st4" d="M505.7,293.8c-1.2-5.6-3.9-11-8.5-16.1c-14.8-16.3-32.3-31.1-49.8-44.6c2.5-1.4,4.8-3,7-4.8
			c12.2-10,20.2-25.3,19.8-41.2c-0.5-19.3-11-40.5-28.6-49.6c-9-4.7-21.3-5.8-31.3-5.4c-10.2,0.4-19.5,3-28.4,7.8
			c-5.8,3.1-11.2,7-15.7,11.7c-7.6,7.8-12.7,17.6-13.1,29c-0.3,8.1,0.4,17.5,4,24.8c4.5,9.2,11.5,17.1,19.6,23.2
			c-15.2,3.7-28,12.9-40.3,22.5c-5.6,4.4-11.2,8.8-16.8,12.9c-0.3,0.2-0.9,0.9-1.3,0.9c-0.1,0-0.1,0-0.2,0c0.2-0.1,0.4-0.3-0.1-0.6
			c-2.4-1.7-4.3-5.8-5.9-8.3c-4.3-6.9-8.2-14-12.9-20.7c-5-7-9.3-14.9-14.6-21.6c-3.5-4.5-8.6-8.6-14.5-8.5c-5,0.1-10,2.8-12.4,7.2
			c-3.9,6.9,0.8,15.5,3.3,22.1c5.5,14.2,14.8,25.5,23.3,37.9c0.6,0.9,1.2,1.8,1.8,2.9c6,9.7,13,23.8,24.1,26.6
			c11.4,2.9,22.1-6.1,30.5-12.5c6.3-4.9,12.4-10.1,18.8-14.9c2.1-1.6,1.8-2,2.5,0.8c0.3,1.1,0.1,2.7,0,3.8c-0.1,1.4-0.3,2.9-0.5,4.3
			c-0.7,5.2-1.5,10.4-2.2,15.6c-3.6,26.9-7.1,53.8-10.1,80.8c-1.7,15.1-3.1,30.2-4.4,45.3c-0.3,3.9-0.9,9.6-0.8,15.3
			c0.2,10,2.6,20.3,12.2,22.6c12.7,3,19.5-23.5,22.3-31.4c4.1-11.4,6.3-23.4,9.1-35.1c1.7-7.1,3.7-14,6.4-20.7
			c1-2.4,2.4-6.8,4.7-8.5c3-2.2,7.6,0.1,9.7,2.9c1.7,2.2,3,4.7,4,7.3c1.6,3.9,2.9,8,4.1,12c1.3,4.1,2.5,8.1,4,12.1
			c3.4,9.6,6.8,19.1,10.3,28.7c3.1,8.4,5.6,17.6,10,25.4c6.5,11.5,20,7.2,22-5.2c1.5-9.3-0.3-19.7-1.2-29
			c-0.9-9.7-2.2-19.4-3.8-29.1c-1.6-9.7-3.5-19.3-5.5-28.9c7-1,13.2-5.7,17.9-10.7c7.5-8,15-16.7,21.7-25.4
			C504.2,317,508.1,305.1,505.7,293.8z M495,322.5c-5.8,8.2-13,15.6-19.5,23.2c-2.5,3-5.1,6-8.2,8.5c-4.9,4-14.4,8.8-19.7,2.9
			c-3.8-4.2-0.6-10.3,3.7-15.8c3.3-4.3,7.3-8.2,9.2-10.7c4.8-6.1,10.8-12,14.7-18.8c3.6-6.4,3.6-11.6-1.7-17.1
			c-8.3-8.5-17.5-16.6-26.4-24.5c-1.2-1-3.5-0.4-3.3,1.4c1.8,22.3,2.8,44.6,4.8,66.9c0,0.3,0.1,0.5,0.2,0.7c-0.5,0.6-1,1.2-1.5,1.8
			c-2.4,2.9-4.5,5.7-4.8,9.6c-0.3,6,2.5,12,8.8,12.9c0.5,0.1,0.9,0.1,1.3,0.1c4.3,19.5,7.6,39.1,9.5,59c0.8,8.3,2.2,17.4,1.4,25.7
			c-0.7,7-8.2,15.3-14.1,6.8c-3-4.2-4.4-9.8-6.2-14.6c-6.5-17-13.1-34.2-18.6-51.5c0-0.1-0.1-0.2-0.1-0.3
			c-2.5-7.9-7.3-29.6-19.3-27.3c-10.1,1.9-13.8,22.5-15.7,30.1c-0.3,1.4-0.7,2.7-1,4.1c-4.2,17.1-8.3,33.7-15.3,50
			c-1.5,3.5-3,7.1-5.5,10c-5.1,5.9-11,2.1-13.5-4.1c-1.4-3.6-2-7.3-2.1-11.2c-0.2-5.5,0.6-11.1,1-16.4c1.1-13.5,2.4-27,3.9-40.4
			c2.9-26.5,6.2-53,9.8-79.4c0.8-6.2,1.6-12.4,2.5-18.5c0.6-4.5,2.4-10.7-0.6-14.6c-3.1-4.1-6.1-0.5-9.2,1.9
			c-5.5,4.2-10.8,8.7-16.2,12.9c-10.8,8.4-24.3,19.2-36.2,6.4c-5.3-5.6-9.7-12.1-14-18.7c-3.4-5.3-6.8-10.7-10.4-15.7
			c-3.8-5.3-7.4-10.7-10.3-16.5c-3.6-7.1-12.2-22.8-5.1-29.4c10.2-9.6,19.1,5.6,23.7,12.8c5.1,7.9,11,15.1,15.8,23.2
			c3.5,6,6.8,12.3,11.2,17.7c1.6,2,3.1,4,5.9,3.1c2.5-0.8,5.1-3.9,7.1-5.5c3.8-3.1,7.7-6.2,11.7-9.2c1.3-1,2.6-2,4-2.9
			c11.8-8.5,24.9-17,39.5-19.5c1.8-0.3,1.7-2.7,0.5-3.6c-17.7-11.7-29.2-31.2-25-52.9c1.6-8.2,5.8-15.4,11.5-21.2
			c9.5-9.8,23.3-16,36.4-17.5c11.4-1.3,26-0.5,36.1,5.5c10.3,6.2,17.4,16.3,21.3,27.4c7.3,20.7,1.6,42.9-14.9,56.1
			c-2.7,2.2-5.7,4.1-9,5.8c-1.5,0.7-1.1,2.5,0,3.4c14.3,11,27.5,22.9,40.6,35.3c6.9,6.6,15.6,13.3,18.4,22.8
			c0.2,0.6,0.3,1.3,0.5,1.9C504.5,304.4,500.6,314.4,495,322.5z M448,276.4c3.4,3.1,6.8,6.3,10.2,9.5c4.3,4.1,9.3,7.8,13.2,12.2
			c5.2,5.9,0.7,11.9-3.3,16.8c-3.7,4.5-7.3,9.1-10.9,13.6c-1.7,2.2-3.4,4.3-5.1,6.4C450.5,315.5,449.5,295.9,448,276.4z"/>
		<path class="st0" d="M265.1,234.5c-1.9-4.9-5.1-11.1-4.8-16.7c-5.2,11.3,7.2,36.2,11.8,44.7c0.1-4.2,0.1-8.4,0.1-12.7
			c0-0.3,0-0.7,0-1C269.5,244.3,267.1,239.6,265.1,234.5z"/>
		<path class="st4" d="M414.7,265.7c-0.3-1.6-0.9-3.5-0.9-5.2c0-2.4-0.2-1.5,1.8-4c2.7-3.4,2.1-7.3-0.7-11c-1.9-2.5-8.2-2.5-11-1.6
			c-2.9,0.9-5.4,5.9-6.3,8.8c-0.2,0.3-0.3,0.7-0.1,1.1c0.1,0.2,0.2,0.4,0.3,0.5c1.7,2.5,4.1,3.7,3.9,6.2c-0.3,3.8-2.4,8.1-3.5,11.8
			c-3,9.9-6.2,19.9-7.5,30.1c-0.1,0.5,0.3,1,0.7,1.3c2.9,1.8,5.4,4.1,8,6.3c1.4,1.2,3.5,3.9,5.3,4.5c2.5,0.8,4-1.3,5.9-2.9
			c2.5-2.2,8.3-5.6,9.7-8.7c0.7-1.7-0.2-4.5-0.4-6.3C418.2,286.3,416.4,276,414.7,265.7z M417.4,301.8c-0.4,0.5-1.2,1-1.6,1.3
			c-2.5,2.1-4.9,4.4-7.4,6.5c-0.9,0.7-1.7,1.6-2.6,2.2l-0.1,0.1c-0.1-0.1-0.2-0.3-0.5-0.6c-2.4-2.5-5.3-4.6-8-6.8
			c-0.6-0.5-3.3-2.1-3.6-2.7c-0.5-1,0.5-3.8,0.7-4.8c0.8-3.9,1.8-7.7,2.8-11.5c2.1-7.7,4.7-15.3,6.8-23c1.4-5.1-0.8-5.3-3.7-9.3
			c0.8-2,2.5-5.1,3.9-6.3c0.5,0,1.4,0,1.5,0c1.6,0.3,3.6-0.4,5.2,0c2,0.6,1.2-0.1,2,1.9c0.3,0.7,1.6,3.2,1.5,4.1
			c-0.2,1.6-3.7,3.7-4,6c-0.3,2.8,1.2,6.8,1.7,9.5c1,6,2,11.9,3,17.9c0.7,4.5,2.5,10.1,2.2,14.6
			C417.3,301.4,417.3,301.7,417.4,301.8z"/>
		<path class="st4" d="M395.4,180.2c0-5,0.2-10,0.9-14.9c0.3-2.5-3.6-2.5-3.9,0c-0.6,5-0.9,9.9-0.9,14.9
			C391.6,182.7,395.5,182.7,395.4,180.2z"/>
		<path class="st4" d="M429.2,167.3c-0.7,4.6-1.1,9.2-1.1,13.9c0,2.5,3.9,2.5,3.9,0c0-4.3,0.3-8.6,0.9-12.9
			C433.3,165.9,429.6,164.9,429.2,167.3z"/>
	</g>
</g>
</svg>
