<?xml version="1.0" encoding="utf-8"?>
<!-- Generator: Adobe Illustrator 24.1.0, SVG Export Plug-In . SVG Version: 6.00 Build 0)  -->
<svg version="1.1" id="Layer_1" xmlns="http://www.w3.org/2000/svg" xmlns:xlink="http://www.w3.org/1999/xlink" x="0px" y="0px"
	 viewBox="0 0 645.3 511" style="enable-background:new 0 0 645.3 511;" xml:space="preserve">
<style type="text/css">
	.st0{fill:#E6E6E6;}
	.st1{fill:#F25A5A;}
	.st2{fill:#E85252;}
	.st3{fill:#333333;}
	.st4{fill:#FFFFFF;}
	.st5{fill:#659CD0;}
</style>
<g>
	<ellipse class="st0" cx="442.8" cy="451.6" rx="152.4" ry="12"/>
	<g>
		<path class="st1" d="M642.4,255.6c-1.3-1.4-3.2-1.9-5-2.5c-12-3.5-24.5-4.6-36.5-8.1c-1.7-13.7-1.6-22.6-3.3-36.3
			c-0.4-3.2-5.8-16.6-5-17.7c1.1-1.7,6.4-6,13.2-8.2c5-1.6,9.5-4.3,14-7c3.8-2.3,7.5-5.8,7.6-10.3c0.1-3.5-2-6.7-4-9.5
			c-8.6-12.3-17.2-24.6-25.8-36.9c-1.4-2-3.1-4.3-5.6-4.8s-5,0.9-7.1,2.3c-9.6,6.2-19.1,12.4-28.7,18.6
			c-11-11.4-24.8-21.5-39.2-28.2c-2.6-1.2-6.7-3.5-8.3-5.8c0,0,0.7-8.1,2.2-12.6c2.2-6.5,3.5-13.4,4-20.3c0.2-2.9,0.1-6-1.4-8.5
			c-2.4-3.9-7.6-4.9-12.2-5.5c-14.6-1.9-29.1-4.6-43.7-6.4c-2.6-0.3-5.4-0.6-7.6,0.7c-2.9,1.8-3.6,5.6-4.1,8.9
			c-0.9,6.3-1.9,13.5-2.8,19.8c-0.5,3.7-2,8.1-2.9,9.6c0,0-6.7,2.2-9.5,2.3c-16.1,0.8-32,4.6-46.6,11.1c-3.7-6.2-6.6-12.6-9.7-18.6
			c-3.1-5.9-7.9-11.9-14.5-12.8c-5.5-0.7-10.7,2.3-15.4,5.2c-7.9,4.9-15.9,9.8-23.8,14.7c-3.7,2.3-7.5,4.7-9.5,8.6
			c-3.5,6.7,15.8,31.3,19.2,38.1c-15.6,12.6-28.1,29.1-35.9,47.6c-12.4-4-20-5.8-32.7-6.9c-2.8-0.2-5.7,0.1-8.1,1.6
			c-4.1,2.5-4.7,8-5.7,12.8c-3.4,15.2-7,32.3-5.9,46.3c-0.9,7.7,28.1,11.2,41,12.2c0.2,13.6,1.4,24.4,4.1,37.7
			c1.4,6.9,4.6,15.3,3.3,16.3c-5.4,3.9-27.2,13.3-32.2,25.9c7.1,15.8,19.1,32.3,30.6,45.2c2.5,2.9,5.6,5.9,9.4,6
			c2.7,0.1,5.2-1.3,7.5-2.7c8.3-4.8,17.2-10.3,25.5-15.1c11.9,15.3,29.1,27.1,47.8,32.1c0.1,2-5.6,22.3-8.3,34.3
			c-0.5,2.2-0.7,5.3,0.1,7.4c1.2,3.2,4.5,3.9,7.8,4.9c12.5,3.8,25.3,6.6,38.2,8.5c6,0.9,13,1.2,17-3.3c2.5-2.8,3.1-6.7,3.7-10.3
			c1.4-9.5,4.1-23,4.3-28.5c17.3,1.1,25.8-1,41.8-6.8c3.7-1.3,16.1-4.8,18-4.6c2.2,0.3,4,2.2,5.3,4c4.1,5.4,4.7,8.2,8.2,14.7
			c3.2,5.9,6.7,11.7,10.5,16.5c2.8,3.5,24-9.3,27.6-12.1c13.2-10.5,19.7-12.9,24.1-22.2c0.9-4.1-17.4-25.2-20.8-31.4
			c-3.4-6.1,5.3-11.8,9.1-16.5c8.9-11.2,14.8-24.6,22.1-37c11.8,2.4,23.6,4.8,35.4,7.2c2.6,0.5,5.4,1,7.8-0.1c3.3-1.7,4.4-5.9,5-9.5
			c2.5-14,4.9-28,7.4-42C643.8,264.3,644.8,258,642.4,255.6z M492.8,277.1c-3.4,6.6-7.9,12.7-13.7,17.3c-5.9,4.7-13.1,7.6-20.4,9.2
			c-22.2,4.7-46.9-3.7-61-21.5S381,237.9,392,218s35-31.9,57.4-28c19.5,0.7,38.2,13.6,46.2,31.2C503.5,238.7,501.7,260,492.8,277.1z
			"/>
	</g>
	<path class="st0" d="M254.9,208.4c-1.3,5.6-6,11.5-9.5,15.2c-0.7,0.7-1.3,1.4-2,2c-0.1,2.2-0.2,4.3-0.2,6.5c0,1-0.1,2.1,0,3.2
		c2.9-3.7,9.9-12.7,11.8-17C256.8,214.2,255.9,210.6,254.9,208.4z"/>
	<path class="st2" d="M637.5,253.1c-12-3.5-24.5-4.6-36.5-8.1c-0.5-4.4-0.9-8.2-1.2-11.9c-11.6,39.4-50.5,99-132.1,119.7
		c-82.6,21-155.1-33.6-181.4-69.4c0.2,1.1,0.4,2.3,0.7,3.5c1.4,6.9,4.6,15.3,3.3,16.3c-5.4,3.9-27.2,13.3-32.2,25.9
		c7.1,15.8,19.1,32.3,30.6,45.2c2.5,2.9,5.6,5.9,9.4,6c2.7,0.1,5.2-1.3,7.5-2.7c8.3-4.8,17.2-10.3,25.5-15.1
		c11.9,15.3,29.1,27.1,47.8,32.1c0.1,2-5.6,22.3-8.3,34.3c-0.5,2.2-0.7,5.3,0.1,7.4c1.2,3.2,4.5,3.9,7.8,4.9
		c12.5,3.8,25.3,6.6,38.2,8.5c6,0.9,13,1.2,17-3.3c2.5-2.8,3.1-6.7,3.7-10.3c1.4-9.5,4.1-23,4.3-28.5c17.3,1.1,25.8-1,41.8-6.8
		c3.7-1.3,16.1-4.8,18-4.6c2.2,0.3,4,2.2,5.3,4c4.1,5.4,4.7,8.2,8.2,14.7c3.2,5.9,6.7,11.7,10.5,16.5c2.8,3.5,24-9.3,27.6-12.1
		c13.2-10.5,19.7-12.9,24.1-22.2c0.9-4.1-17.4-25.2-20.8-31.4c-3.4-6.1,5.3-11.8,9.1-16.5c8.9-11.2,14.8-24.6,22.1-37
		c11.8,2.4,23.6,4.8,35.4,7.2c2.6,0.5,5.4,1,7.8-0.1c3.3-1.7,4.4-5.8,5-9.5c2.5-14,4.9-28,7.4-42c0.6-3.3,1.5-9.6-0.8-12.1
		C641.1,254.2,639.3,253.6,637.5,253.1z"/>
	<g>
		<path class="st3" d="M501.9,241c-2-28.1-24.2-51.1-52.6-52.6c-23.1-3.5-47.4,8.2-58.7,28.8c-11.7,21.2-8.4,49.3,7.4,67.6
			c15.9,18.5,43.3,26.1,66.5,18.8C490.3,295.4,503.8,266.9,501.9,241z M471.5,297.5c-20.4,10.7-47.1,6.4-64.6-8.1
			c-17.8-14.8-24.8-40.1-17.5-62c8-24.3,34.3-39.9,59.5-36c0,0,0,0,0.1,0s0.2,0,0.3,0c23.3,1.2,43.3,18.3,48.4,41
			C502.9,255.7,493.6,285.9,471.5,297.5z"/>
		<path class="st3" d="M641.5,253c-5.5-3.1-13.1-3.9-19.2-5.2c-6.6-1.4-13.3-2.6-19.9-4.1c-0.8-7.2-1.3-14.5-1.9-21.8
			c-0.4-5.9-0.6-12-2.4-17.6c-0.7-2.3-1.5-4.5-2.2-6.7c-0.4-1.3-2.1-4.6-1.7-6c0.5-2,4.5-3.8,6.1-4.7c3.3-1.9,7-2.9,10.5-4.4
			c5.5-2.4,12.5-5.8,16.1-10.9c3.6-5.1,2-10.4-1.2-15.2c-4.7-7.2-9.9-14.2-14.9-21.3c-4.4-6.3-8.5-14.1-13.9-19.6
			c-5.2-5.3-10.6-1.5-15.8,1.8c-8.2,5.3-16.4,10.6-24.5,15.9c-6.3-6.4-13.2-12.2-20.6-17.3c-4.1-2.8-8.3-5.3-12.6-7.6
			c-3.3-1.8-10.1-3.7-12.2-7c-1.1-1.7-0.2-4.6,0.2-7c0.8-4.6,2.5-9,3.5-13.6c1.5-6.7,4.2-17.4-0.9-23.2c-5.3-5.9-16.4-5.3-23.5-6.4
			c-10.3-1.5-20.5-3.3-30.8-4.6c-7.3-1-12.8,0-14.6,7.9c-2.2,9.5-2.5,19.3-4.7,28.8c-0.5,2.1-0.4,2.2-2.4,2.8
			c-1.8,0.5-3.6,1.1-5.5,1.4c-4.9,0.8-9.9,0.8-14.8,1.6c-11.3,1.7-22.2,5-32.7,9.4c-3.9-7-6.9-14.6-11.4-21.2
			c-3.2-4.7-7.7-9.1-13.6-9.7c-7.3-0.8-13.7,3.9-19.6,7.5c-8,4.9-16.4,9.5-24.1,15c-3.3,2.4-7.2,5.7-7,10.2
			c0.2,3.7,2.2,7.4,3.9,10.7c4.5,8.5,10.7,16,15.2,24.4c-15,12.5-26.9,28.2-34.8,46.1c-7.6-2.4-15.3-4.5-23.2-5.6
			c-6-0.9-13.9-2.7-19,1.8c-4.6,4.1-5,12.2-6.2,17.8c-1.8,8.3-3.4,16.6-4.4,25c-0.5,4.5-0.8,8.9-0.6,13.4c0.1,1.8-0.1,3.8,0.6,5.4
			c1.3,3,5.2,4.5,8.1,5.6c10.2,3.8,21.7,4.9,32.6,5.8c0.4,15.2,2.2,30.3,6.1,45c0.6,2.2,2.1,5.5,0.6,7.1c-1.2,1.3-3.8,2.2-5.3,3.1
			c-4.9,2.8-9.8,5.7-14.4,9.1c-3.9,2.9-7.7,6.3-10.3,10.5c-0.9,1.5-1.7,2.8-1.5,4.4c0.5,3.4,3.8,7.9,5.5,10.7
			c4.2,7.3,8.9,14.3,14,21c4.3,5.6,8.6,11.7,13.9,16.4c5.3,4.8,10.3,4.2,16.2,0.9c8.2-4.6,16.3-9.7,24.4-14.4
			c12,14.9,28.2,25.9,46.6,31.3c-0.4,3.9-2,8.2-2.9,11.9c-1.7,6.6-3.5,13.1-4.9,19.7c-1,4.7-1.5,10.2,3,13.2c3.1,2,7.5,2.7,11,3.6
			c4.2,1.2,8.4,2.2,12.7,3.2c8.1,1.8,16.5,3.8,24.8,4.3c5.1,0.3,10.6-0.5,14-4.5c4.5-5.3,4.4-14.5,5.6-21.1c1-5.6,2.1-11.2,2.5-16.9
			c10.8,0.5,21-0.5,31.4-3.7c4.2-1.3,8.3-2.9,12.6-4.2c3.9-1.2,8.6-3.1,12.6-3.3c5.2-0.2,8.1,5.8,10.2,10c3,5.8,5.9,11.6,9.4,17.1
			c1.5,2.3,3.9,7.4,6.9,8.3c2.1,0.6,4.9-0.5,6.8-1.3c6.5-2.5,12.9-6.1,18.7-10c7-4.7,14.6-10,20.7-15.9c2.2-2.1,5.3-5.4,6.1-8.5
			c0.5-2-0.4-3.7-1.4-5.5c-3.7-6.9-9-13-13.7-19.2c-1.9-2.5-4.6-5.2-5.8-8.2c-2.4-6,6.7-11.9,9.9-16.1c8.3-10.8,14-23.3,20.7-35
			c7.7,1.6,15.4,3.1,23.1,4.7c5.5,1.1,14.3,4.7,19.7,2.1c4.1-1.9,5.3-6.5,6.1-10.6c1.7-8.6,3-17.2,4.6-25.7
			c1.2-6.8,2.8-13.6,3.5-20.5C645.7,259.6,645.5,255.3,641.5,253z M642.2,264.4c-0.7,6.4-2.2,12.7-3.3,19.1s-2.2,12.7-3.4,19.1
			c-1,5.4-1,15.7-8.5,15.8c-6.2,0.1-13.3-2.5-19.4-3.7c-6.5-1.3-13-2.7-19.6-4c-0.7-0.1-1.3,0.1-1.7,0.7
			c-6.3,10.9-11.6,22.5-19,32.9c-2.9,4.1-6.5,7.2-9.7,11.1c-2,2.4-3.9,5.3-3.4,8.6c0.4,2.8,2.6,5.2,4.2,7.4c2.4,3.3,4.9,6.4,7.3,9.6
			c2.2,3,4.5,5.9,6.5,9c1.3,2,3.8,4.9,3.2,7.3c-0.9,3.6-5.3,7.1-8,9.3c-4,3.2-8.3,6.1-12.4,9.3c-5.5,4.3-11.4,7.9-17.6,11
			c-2.4,1.2-6.9,3.9-9.8,3.6c-3.6-0.4-8.6-11.6-10.3-14.7c-3.3-5.8-7.4-19.8-15.3-20.9c-2.9-0.4-6.4,1-9.1,1.7
			c-4.4,1.2-8.7,2.6-13,4.1c-12.7,4.4-24.7,6.3-38.1,5.5c-0.8,0-1.5,0.7-1.5,1.5c-0.3,5.4-1.3,10.8-2.3,16.1c-1,5.7-1.3,12-3.1,17.4
			c-2.9,8.9-12.1,7.9-19.6,6.8c-7.4-1.1-14.7-2.6-22-4.3c-3.6-0.9-7.2-1.8-10.8-2.9c-3.7-1.1-7.8-1.5-9.6-5.1
			c-2.5-5.1,0.7-12.5,2-17.8c1.3-5.1,2.6-10.2,3.9-15.3c0.6-2.5,1.6-5.2,1.6-7.9c0-0.7-0.5-1.3-1.1-1.4
			c-18.7-5.3-35.1-16.5-47.2-31.8c-0.4-0.5-1.3-0.5-1.8-0.2c-8.5,5-16.9,10.4-25.5,15.1c-3.3,1.8-6.2,3.4-10,1.5
			c-2-1-3.6-2.9-5.1-4.6c-3.1-3.4-6-7-8.9-10.7c-6.2-7.9-12-16.2-16.8-25c-1.7-3.2-5.2-7.2-3.1-10.6c1.8-3,4.3-5.5,7-7.7
			c5.2-4.4,11.1-7.8,17-11.1c2.7-1.6,7.2-2.9,7.2-6.5c0-3-1.4-6.2-2.1-9c-1.2-4.4-2.1-8.9-2.8-13.5c-1.7-9.9-2.5-19.9-2.7-29.9
			c0-0.9-0.7-1.4-1.5-1.5c-9.4-0.8-19-1.9-28.2-4.3c-3.2-0.8-8.5-1.8-10.7-4.7c-1.3-1.7-0.9-4.5-0.9-6.6c0-3.4,0.2-6.7,0.5-10.1
			c0.7-7.5,2.1-15,3.7-22.4c1.1-5.4,1.5-13.7,4.8-18.4c4.4-6.2,16.4-2.9,22.7-1.8c6.5,1.2,12.8,3.1,19.1,5.1
			c0.6,0.2,1.4-0.1,1.7-0.7c8-18.4,20.1-34.5,35.7-47.3c0.5-0.4,0.5-1.3,0.2-1.8c-3.4-6.7-8.2-12.7-12.1-19.1
			c-2.2-3.7-4.5-7.4-6.1-11.5c-2-5.4-0.4-8.2,4.4-11.7c5.7-4.2,12.1-7.6,18.1-11.3c5.9-3.7,12.6-9.2,19.5-10.6
			c8.5-1.7,14.1,5.1,17.7,11.8c3.3,6.2,6.2,12.5,9.7,18.6c0.4,0.8,1.3,0.9,2.1,0.5c9.5-4.2,19.5-7.2,29.7-9.1
			c7.8-1.4,15.8-1.2,23.4-3.4c1.3-0.4,2.6-0.6,3.5-1.5c2.2-2.3,2.7-7.9,3.1-10.8c0.7-4.5,1.3-9.1,1.9-13.6c0.5-3.8,0.5-11,4.2-13.3
			c2.7-1.7,7.4-0.5,10.2-0.1c2.5,0.3,5.1,0.7,7.6,1.1c5.1,0.8,10.1,1.6,15.2,2.4c4.7,0.7,9.5,1.5,14.3,2.1c4.4,0.6,9.7,0.7,13,4
			c3.9,3.9,2.4,11.1,1.6,16c-0.8,5-2.4,9.6-3.6,14.5c-0.8,3.1-2.8,9.3-1.3,12.4c1.3,2.8,6,4.8,8.6,6.1c4.6,2.3,9.2,4.7,13.6,7.4
			c9.2,5.8,17.7,12.7,25.3,20.5c0.1,0.1,0.2,0.2,0.4,0.3l0.1,0.1l0,0c0.4,0.2,0.8,0.2,1.3-0.1c8.5-5.5,17-11,25.5-16.5
			c2-1.3,4.6-3.6,7-4.1c4.7-0.9,7,4.1,9.1,7.1c2.6,3.7,5.2,7.5,7.9,11.2c5.8,8.2,12.4,16.3,17.4,25c3.3,5.7,1.8,10.6-3.5,14.4
			c-4,2.8-8.7,5.3-13.2,7.1c-4.9,1.9-12.1,4-15.2,8.7c-1.9,2.9,0.4,7,1.4,10c2.1,6.2,3.3,11.7,3.8,18.3c0.8,9.1,1.2,18.1,2.3,27.2
			c0.1,0.6,0.4,1.3,1.1,1.4c10.5,2.5,21.2,4.1,31.7,6.8c2.6,0.7,7.9,1.4,9.4,3.8C642.9,259,642.5,262.2,642.2,264.4z"/>
	</g>
	<g>
		<path class="st3" d="M236,341.7c12.8,24.9,29.2,47.8,48.7,68c1.3,1.4,3.5-0.7,2.1-2.1c-19.3-20-35.5-42.7-48.2-67.4
			C237.7,338.4,235.1,340,236,341.7L236,341.7z"/>
	</g>
	<g>
		<path class="st3" d="M237.4,374.7c8.3,11.5,17.4,22.3,27.4,32.3c1.4,1.4,3.5-0.7,2.1-2.1c-9.8-9.9-18.8-20.4-26.9-31.7
			C238.9,371.6,236.3,373.1,237.4,374.7L237.4,374.7z"/>
	</g>
</g>
<g>
	<ellipse class="st0" cx="83" cy="451.6" rx="83" ry="12"/>
	<g>
		<path class="st4" d="M99.1,366.3c-5.6-1.3-11.8-2.4-17.7-4v0.1c-6.1,14-15.6,26.2-26.2,37.2c-9.5,9.9-20.7,19.1-27.9,30.9
			c-1.5,2.4-2.9,5-3.3,7.8c-0.8,5.2,2.4,10.4,8.1,8.9c7.9-2,15.4-8.7,21.7-13.6c13.2-10.3,24.5-22,36-34.1
			c8.9-9.4,15.9-19.1,22.2-30.4C107.6,368.3,103.3,367.3,99.1,366.3z"/>
		<path class="st0" d="M80.3,360.7l-3.7,8.2c0,0,23.4,3.4,33.3,6.7l4.5-7.5L80.3,360.7z"/>
		<path class="st4" d="M201.1,255.9c4.4-2.3,8.1-5.5,12-8.5c11.5-8.9,23.5-17.9,33.1-29c4.2-4.9,9.6-12.7,2.9-18.3
			c-5.3-4.5-17.9,5.8-22.4,8.9c-12.1,8.3-23,18.7-36.5,24.8c-7.2,3.3-14.7,5.8-22,9.1c-6.1,2.7-11.9,4.4-18.6,4.7
			c-7.4,0.4-14.8-0.5-22.2-0.9c-6.5-0.3-13.8-0.8-19.5,2.9c-4.3,3.2-8,7.2-11.4,11.3c-10.1,12-18.5,25.7-25.5,39.8
			c-3.9,7.7-7.3,15.7-10,24c-2.4,7.2-3.7,13.8-0.1,20.9c5.6,11.1,19.5,13.2,30.4,15.8c11.9,2.9,24,5.3,35.6,9.4
			c6.9,2.5,16.1,5.8,18.4,13.6c3.1,11-5.4,22.6-11.7,30.7c-3.4,4.3-7,8.4-9.9,13.1c-2.8,4.6-7.5,12.9-4.3,18.3
			c4.4,7.4,16,0.7,20.1-3.6c3.5-3.7,6.8-7.7,10-11.7c11.1-13.8,20.9-29.4,25.4-46.7c2.2-8.4,2.3-17.7-3.8-24.5
			c-4.2-4.7-9.7-8-15-11.2c-4.9-2.9-10-5.5-14.7-8.6c-2.9-1.9-6.4-4.2-7.8-7.5c-1.6-3.7-0.8-8.6-0.3-12.4c0.9-6.5,2.8-13,5.3-19.1
			c3.9-9.5,9.7-20.4,18.9-25.6c9.5-5.4,20-9.3,30-13.6C192.1,260.1,196.7,258.1,201.1,255.9z"/>
		<path class="st4" d="M153.7,166.9c-11.7-1.7-24.9-0.6-35.4,5.2c-24.8,13.7-32.2,57.6-3.5,71.6c0.1,0,0.2,0.1,0.3,0.2
			c2.6-0.4,5.2-0.5,7.8-0.4c8,0.1,16,1.2,24,1.1c8.4-0.1,15.1-2.4,22.7-5.6c1.9-0.8,3.8-1.5,5.7-2.3c0-0.1,0.1-0.3,0.2-0.4
			c9.4-14.8,12.9-31.8,5.1-48.1C175.7,178,165,168.6,153.7,166.9z"/>
		<path class="st4" d="M193.8,228.7c6.7-3.6,12.7-8.6,18.8-13.2c6.9-5.2,13.8-10.4,21.3-14.7c2.7-1.6,6.1-3.8,9.5-4.6
			c1.4-6.5-7.5-7.3-11.7-5.6c-1.7,0.7-3.2,1.6-4.8,2.5c-3.8,2.2-7.5,4.5-11.1,6.9c-9.2,6-18.3,13-28.9,16.4
			c-1.3,6.4-3.8,12.7-7.2,18.7C184.5,233.1,189.3,231.1,193.8,228.7z"/>
	</g>
	<path class="st0" d="M200,221.6c-2.6,1.6-13.9,7.7-13.9,7.7s2.3-6.1,3.7-14c-1,0.4-1.9,0.7-2.9,1c-1.3,6.4-3.8,12.7-7.2,18.7
		c4.8-1.9,9.6-3.9,14.1-6.3c6.7-3.6,12.7-8.6,18.8-13.2c6.9-5.2,13.8-10.4,21.3-14.7c2.7-1.6,6.1-3.8,9.5-4.6c0.2-0.7,0.2-1.4,0.1-2
		C236,193.9,204.5,218.8,200,221.6z"/>
	<path class="st3" d="M249.5,196.7c-1-0.5-2-0.8-3-0.9c0.3-4.4-3-8.3-7.4-9.3c-5.1-1.1-10.5,2-14.7,4.5
		c-12.1,7.1-23.5,17.2-36.9,21.9c0.9-7.1,0.2-14.4-2.5-21.8c-4.1-11.3-14.1-22.6-25.9-26.2c-12.1-3.8-27.9-2.1-39.3,3.1
		c-13.6,6.2-23.6,20.6-25.9,35.2c-2.5,15.8,2.6,33.2,16.8,41.7c-1.5,0.5-2.9,1.2-4.2,2c-10.2,7.5-17.9,18.6-24.8,29.1
		c-9.4,14.4-17.5,30-23,46.4c-2.1,6.2-4,12-2.5,18.6c1.4,6.2,5.2,11.9,10.6,15.4c3.5,2.3,7.6,3.9,11.8,5.2
		c-6.3,14.3-16.3,26.8-27.2,37.9c-10,10.2-23.1,20.5-28.9,34c-2,4.7-2.4,10.8,1.3,14.9c4.9,5.5,13.2,0.6,18.1-2.4
		c16.1-10.1,31-23.3,43.9-37.4c4.8-5.2,9.8-10.2,14.4-15.5c5.9-7,10.5-15,14.9-23c7,1.8,13.9,4.1,20,7.5c4.7,2.6,7.9,5.8,7.9,11.4
		c0,7.2-4.3,14.1-8.3,19.8c-6.9,9.9-17.5,19.2-18.9,31.9c-1.3,12,10.8,14.2,19.7,9.4c4.8-2.6,8.2-6.8,11.7-11
		c4.9-5.7,9.5-11.6,13.8-17.8c5.1-7.4,9.3-15.2,12.7-23.5c3.5-8.4,6.8-17.6,5.7-26.8c-1.5-12.7-12.9-19.6-23-25.5
		c-5.1-2.9-10.4-5.6-15.1-9.1c-2.2-1.6-3.6-3.2-4.3-5.1c2.4,1.1,4.8,2.2,7.2,3.3c0.8,0.4,1.6,0.2,2.1-0.5c2-3,4.2-5.7,6.7-8.3
		c0.3-0.4,0.6-1,0.4-1.5c-5.2-13.3-3.1-28.1,0.6-41.5c0-0.1,0-0.1,0-0.2c0.2-0.2,0.4-0.4,0.6-0.6c3.1-3.1,7-4.9,10.9-6.7
		c5.6-2.7,11.4-5.1,17.1-7.6c9-3.9,19-7.3,26.8-13.4c12.5-9.7,25.5-19.2,36.4-30.7C251.7,217.1,261.7,203.5,249.5,196.7z
		 M215.8,199.9c3.7-2.4,7.3-4.7,11.1-6.9c1.5-0.9,3.1-1.8,4.8-2.5c4.3-1.7,13.2-1,11.7,5.6c-3.4,0.8-6.9,3.1-9.5,4.6
		c-7.5,4.3-14.4,9.5-21.3,14.7c-6.1,4.6-12,9.6-18.8,13.2c-4.6,2.4-9.3,4.4-14.1,6.3c3.4-6,6-12.2,7.2-18.7
		C197.5,212.9,206.6,205.9,215.8,199.9z M114.7,243.7c-28.7-14-21.3-57.9,3.5-71.6c10.5-5.8,23.7-7,35.4-5.2
		c11.3,1.7,22,11.2,26.8,21.3c7.8,16.4,4.3,33.3-5.1,48.1c-0.1,0.1-0.1,0.3-0.2,0.4c-1.9,0.8-3.8,1.5-5.7,2.3
		c-7.6,3.2-14.3,5.5-22.7,5.6c-8,0.1-16-1-24-1.1c-2.6,0-5.2,0-7.8,0.4C114.9,243.8,114.8,243.8,114.7,243.7z M89.7,399.8
		c-11.4,12.1-22.8,23.8-36,34.1c-6.3,4.9-13.8,11.6-21.7,13.6c-5.7,1.5-8.9-3.7-8.1-8.9c0.4-2.8,1.8-5.4,3.3-7.8
		c7.2-11.9,18.4-21,27.9-30.9c10.5-11,20.1-23.2,26.2-37.2v-0.1c6,1.6,12.2,2.6,17.7,4c4.2,1,8.5,1.9,12.8,3
		C105.5,380.7,98.6,390.4,89.7,399.8z M146.9,309.2c0.1,4.1,0.7,8.3,1.9,12.2c0.9,3.1,0.5,3.4-1.5,5.8c-1.1,1.4-2.2,2.8-3.2,4.3
		c-2.7-1.3-5.5-2.5-8.2-3.8c-0.1-1.2,0-2.5,0.1-3.9c1-12.3,5.7-25.7,13.3-36C147.6,294.9,146.6,302,146.9,309.2z M246.2,218.4
		c-9.5,11.1-21.6,20.1-33.1,29c-3.9,3-7.6,6.2-12,8.5c-4.4,2.3-9,4.2-13.6,6.2c-10,4.4-20.5,8.2-30,13.6c-9.3,5.2-15,16.1-18.9,25.6
		c-2.5,6.1-4.4,12.5-5.3,19.1c-0.5,3.8-1.3,8.7,0.3,12.4c1.4,3.3,4.9,5.6,7.8,7.5c4.8,3.1,9.8,5.7,14.7,8.6
		c5.3,3.1,10.8,6.5,15,11.2c6.1,6.8,6,16.1,3.8,24.5c-4.5,17.3-14.3,32.9-25.4,46.7c-3.2,4-6.4,8-10,11.7c-4.1,4.3-15.7,11-20.1,3.6
		c-3.2-5.5,1.5-13.8,4.3-18.3c2.9-4.7,6.5-8.8,9.9-13.1c6.3-8.1,14.8-19.8,11.7-30.7c-2.2-7.8-11.5-11.2-18.4-13.6
		c-11.6-4.1-23.7-6.6-35.6-9.4c-11-2.7-24.8-4.7-30.4-15.8c-3.6-7.1-2.2-13.7,0.1-20.9c2.7-8.2,6.1-16.2,10-24
		c7-14.1,15.4-27.9,25.6-39.9c3.4-4.1,7.1-8.1,11.4-11.3c5.7-3.7,13-3.3,19.5-2.9c7.4,0.4,14.8,1.2,22.2,0.9
		c6.7-0.3,12.5-2,18.6-4.7c7.2-3.2,14.8-5.8,22-9.1c13.4-6.1,24.4-16.6,36.5-24.8c4.5-3.1,17.1-13.3,22.4-8.9
		C255.8,205.7,250.4,213.4,246.2,218.4z"/>
	<path class="st5" d="M136,323.8c-0.1,1.4-0.1,2.7-0.1,3.9c2.7,1.3,5.5,2.5,8.2,3.8c1-1.5,2.1-2.9,3.2-4.3c2-2.4,2.4-2.6,1.5-5.8
		c-1.2-4-1.7-8.1-1.9-12.2c-0.3-7.2,0.7-14.4,2.3-21.4C141.7,298.1,136.9,311.6,136,323.8z"/>
	<g>
		<path class="st3" d="M166.4,194.7c1.8,4.2,3.4,8.6,4.6,13c0.5,1.9,3.4,1.1,2.9-0.8c-1.3-4.7-3-9.2-4.9-13.7
			C168.2,191.4,165.6,193,166.4,194.7L166.4,194.7z"/>
	</g>
	<g>
		<path class="st3" d="M76.9,206c0.5-16.5,6.7-32.1,17.7-44.4c1.3-1.4-0.8-3.6-2.1-2.1C81,172.4,74.4,188.7,73.9,206
			C73.8,207.9,76.8,207.9,76.9,206L76.9,206z"/>
	</g>
	<g>
		<path class="st3" d="M60,193.2c2-9.3,6-17.9,11.9-25.4c1.2-1.5-0.9-3.6-2.1-2.1c-6.3,7.9-10.6,16.8-12.7,26.7
			C56.7,194.3,59.6,195.1,60,193.2L60,193.2z"/>
	</g>
</g>
</svg>
