<?xml version="1.0" encoding="utf-8"?>
<!-- Generator: Adobe Illustrator 24.1.0, SVG Export Plug-In . SVG Version: 6.00 Build 0)  -->
<svg version="1.1" id="Capa_1" xmlns="http://www.w3.org/2000/svg" xmlns:xlink="http://www.w3.org/1999/xlink" x="0px" y="0px"
	 viewBox="0 0 512 512" style="enable-background:new 0 0 512 512;" xml:space="preserve">
<style type="text/css">
	.st0{fill:none;stroke:#333333;stroke-width:2.6;stroke-miterlimit:10;}
	.st1{fill:#E6E6E6;}
	.st2{fill:#FFFFFF;}
	.st3{fill:#333333;}
	.st4{fill:#EF9A9A;}
	.st5{fill:#F25A5A;}
	.st6{fill:#E55353;}
	.st7{fill:#F4F4F4;}
	.st8{fill:#659CD0;}
</style>
<path class="st0" d="M196.8,104.4c0,0,30.2-0.3,57.5,9.2"/>
<path class="st1" d="M406.4,455.4c0,7.3-73.2,13.2-164.7,13.2c-91.5,0-165.7-5.9-165.7-13.2c0-7.3,74.2-13.2,165.7-13.2
	C333.3,442.3,406.4,448.2,406.4,455.4z"/>
<g>
	<g>
		<g id="XMLID_4_">
			<g>
				<path class="st2" d="M428,184.3c3.3,8.9,7.5,19.9,2.4,28.9c-5.4,9.3-18.1,13.5-26.6,19.3c-0.1,0.1-0.5,0.3-0.6,0.4
					c-5.6-21.9-11.9-43.5-19.1-64.9c8.1-0.7,16.1-1.8,24.2-1.9c3.9-0.1,7.5-0.2,10.5,2.6C423.3,172.8,425.8,178.6,428,184.3z"/>
				<path class="st1" d="M400.8,223.9c0.8,3,1.6,6,2.3,9c0.1-0.1,0.5-0.3,0.6-0.4c8.5-5.8,21.2-9.9,26.6-19.3
					c4.4-7.6,2-16.7-0.8-24.7C427.3,207,412.7,218,400.8,223.9z"/>
				<path class="st2" d="M162.6,433.6c-8,4.8-15.9,10.3-24.2,14.5c-4.8,2.4-11.2,4.9-15.9,1c-2.7-2.2-4.6-5.5-6.5-8.3
					c-9.5-13.6-16.1-28.6-23.4-43.4c-8.6-17.6-15.1-35.7-20.8-54.3c19.8-3.5,39.5-7.6,59.1-12.4c7.5,19.6,16,38.6,27.8,56
					c2.8,4.1,5.6,8.1,8.7,12.1c3.4,4.5,8.7,8.6,10.7,14C182,423,169.8,429.3,162.6,433.6z"/>
				<path class="st2" d="M397,358.2c-1.5-0.4-2.9-0.8-4.3-1.1c-16.2-4.1-32.3-8.6-48.4-13.3c-26.5-7.6-53-15.6-80.3-20.2
					c-29.9-5.1-60.3-5.6-90.5-2.8c-7.5,0.7-15,1.6-22.4,2.6c-11.3-38-22.3-76.2-31.8-114.7c55.4-24.6,101.5-67.3,143.3-110.2
					c7.5-7.7,15-15.6,22.5-23.3c4.7-4.8,9.4-9.6,14.7-13.9c1.9-1.6,4-3.2,6.2-4.7c9,14,14.9,30.4,21.1,45.8
					c8.3,20.8,16.1,41.9,23.6,63.1c5,14.1,10.1,28.2,14.2,42.5c6.7,23,12.2,46.5,17.5,69.9C388.3,304.3,394.4,331.2,397,358.2z"/>
				<path class="st3" d="M473.2,190.3c8,0.7,16,1.2,24,2.1c1.7,0.2,1.7,2.9,0,2.7c-8-1-16-1.4-24-2.1
					C471.5,192.8,471.5,190.1,473.2,190.3z"/>
				<path class="st3" d="M458.1,145.9c6-5.8,11.9-11.6,17.9-17.4c1.2-1.2,3.1,0.7,1.9,1.9c-6,5.8-12,11.6-17.9,17.5
					C458.8,149,456.9,147.1,458.1,145.9z"/>
				<path class="st3" d="M451.9,238.5c6.9,5.6,13.3,11.9,19.6,18.3c1.2,1.2-0.7,3.1-1.9,1.9c-6.2-6.4-12.6-12.6-19.6-18.3
					C448.7,239.3,450.6,237.4,451.9,238.5z"/>
				<path class="st3" d="M417.9,96.5c-0.7,10.2-1.2,20.5-1.9,30.7c-0.1,1.7-2.8,1.7-2.7,0c0.7-10.2,1.2-20.5,1.9-30.7
					C415.3,94.8,418,94.8,417.9,96.5z"/>
				<path class="st3" d="M83.7,269.5c1.5-0.8,5-2.5,1.5-5.1c-1-0.7-5.1,0.5-6.5,0.8c-3,0.8-6,1.9-9,2.9c-4.8,1.6-10.5,2.5-15,4.9
					c-3.5,1.8-4.4,4.9,0.1,5.3c1.3,0.1,3-0.6,4.2-0.9c2.8-0.6,5.6-1.4,8.4-2.3C72.8,273.6,78.7,272.1,83.7,269.5z M69,265.6
					c3.2-1.1,22.6-8.6,20.6,1.3c-0.7,3.3-4,4.9-6.8,6c-5,2-10.2,3.6-15.3,5.1c-4.1,1.3-19.2,7.4-18.5-2c0.3-3.1,2.4-4.3,5-5.4
					C58.9,268.5,64,267.3,69,265.6z"/>
				<path class="st3" d="M80.9,245.4c-0.4-0.5-2-0.5-2.5-0.5c-5.5-0.5-11.9,2.7-17.1,4.4c-4,1.1-10.7,2.3-13.7,5.5
					c-1.3,1.4-0.8,3.4,0.9,3.9c0.6,0.1,1.7-0.3,2.3-0.4c5.6-1.1,11.2-2.5,16.6-4.2c3.1-0.9,6.1-1.9,9.1-3.2c0.9-0.4,2.1-0.8,2.8-1.4
					C80.1,248.8,82,246.7,80.9,245.4z M60.5,246.7c5.1-1.7,18.7-8.2,23.3-2.4c5.3,6.6-12.5,11.4-15.7,12.4
					c-4.5,1.4-9.1,2.5-13.8,3.6c-2.1,0.5-4.8,1.5-7,1.2c-4-0.6-4.8-5-2.5-7.7C48.5,249.5,55.7,248.1,60.5,246.7z"/>
				<path class="st3" d="M147,323.9c0.1,0,0.2,0,0.3,0c0.4,0,0.7-0.1,1.1-0.1c-11.3-37.9-22.2-75.8-31.7-114.2
					c-23.2,5.6-46.4,11.4-69.4,17.7c-8.4,2.3-20.3,3.7-26.5,10.4c-6.5,6.9-4.3,19.7-3.3,28.2c2.1,18.8,8.4,37.1,18,53.3
					c4.4,7.4,9.6,15.8,16.2,21.6c4.6,4.1,12.9,0.9,18.3,0c5.1-0.9,10.1-1.8,15.2-2.8c20.7-3.9,41.2-8.6,61.6-14
					C146.8,323.9,146.9,323.9,147,323.9z M162.6,433.6c7.1-4.3,19.3-10.6,15.5-20.8c-2-5.4-7.3-9.5-10.7-14c-3-3.9-5.9-8-8.7-12.1
					c-11.8-17.4-20.3-36.4-27.8-56c-19.6,4.8-39.3,8.9-59.1,12.4c5.7,18.7,12.2,36.8,20.8,54.3c7.3,14.9,13.9,29.8,23.4,43.4
					c1.9,2.8,3.9,6.1,6.5,8.3c4.7,3.9,11.1,1.4,15.9-1C146.8,443.9,154.6,438.4,162.6,433.6z M392.7,357.1c1.4,0.4,2.8,0.8,4.3,1.1
					c-2.6-27.1-8.8-53.9-14.7-80.4c-5.3-23.4-10.8-46.9-17.5-69.9c-4.2-14.3-9.3-28.4-14.2-42.5c-7.5-21.2-15.2-42.2-23.6-63.1
					C320.9,87,315,70.6,306,56.6c-2.2,1.5-4.3,3.1-6.2,4.7c-5.3,4.2-10,9-14.7,13.9c-7.5,7.7-15,15.6-22.5,23.3
					c-41.9,42.9-87.9,85.6-143.3,110.2c9.5,38.5,20.5,76.7,31.8,114.7c7.5-1,14.9-1.9,22.4-2.6c30.2-2.8,60.6-2.3,90.5,2.8
					c27.3,4.6,53.8,12.6,80.3,20.2C360.4,348.4,376.5,353,392.7,357.1z M403.7,232.5c8.5-5.8,21.2-9.9,26.6-19.3
					c5.2-9,1-20-2.4-28.9c-2.2-5.7-4.7-11.5-9.2-15.8c-3-2.8-6.6-2.6-10.5-2.6c-8.1,0.1-16.1,1.2-24.2,1.9
					c7.2,21.4,13.5,43.1,19.1,64.9C403.3,232.8,403.6,232.6,403.7,232.5z M433.1,213.7c-5.4,10.4-18.9,14.9-28.1,21.1
					c-0.2,0.1-0.9,0.7-1.2,0.8c3.6,14.4,6.9,28.9,9.8,43.4c3.1,15.7,5.4,31.5,7.5,47.3c1.3,9.9,3.4,24.3-4.9,32
					c-3.1,2.9-7.3,3.9-11.4,3.8c-7.5-0.2-15.3-3.1-22.5-5c-16.1-4.2-32.1-8.8-48-13.5c-27.8-8-55.8-15.9-84.6-19.5
					c-33.9-4.3-68.2-2.4-102,2.3c-4.7,1.2-9.4,2.4-14.1,3.6c9.6,25,21.1,50.2,38.8,70.6c5.5,6.4,12.5,13.8,7.3,22.7
					c-4.2,7.1-14,11.6-20.9,15.5c-8.8,5-17.6,13.1-27.9,14.7c-8.1,1.3-12.2-4.3-16.3-10.2c-10.4-14.7-17.6-31-25.4-47.2
					c-8.2-17-14.4-34.6-19.9-52.7c-0.1,0-0.2,0-0.3,0c-4.4,0.8-9.9,2.6-14.4,1.6c-3.7-0.8-6.1-3.9-8.4-6.6
					c-6.4-7.6-12-15.8-16.6-24.6c-9-17.1-14.3-36.2-15.4-55.5c-0.5-8.4-0.9-18,6.1-24c7-6,17.8-7.4,26.4-9.8
					c23.5-6.4,47.1-12.4,70.7-18c7.4-3.3,14.7-6.9,21.8-10.8c53.2-29.5,96.7-73.3,138.5-116.7c9.1-9.4,18.1-19.4,29.4-26.1
					c9.4-5.6,21.3-8.5,28.7,1.5c10.1,13.6,16.5,30.6,23,46c8.9,21.3,17.1,42.9,24.5,64.9c9.7-0.9,19.7-2.7,29.5-1.9
					c10.2,0.7,14.7,11.8,17.9,20.2C434,192.9,438,204.2,433.1,213.7z M419.1,346c1.1-6.9,0-13.9-0.8-20.8c-1-8.2-2.1-16.4-3.5-24.6
					c-2.6-15.7-5.8-31.2-9.4-46.7c-13.2-56.3-31.1-112.3-54.7-165.1c-3.6-8-7.3-16-11.6-23.6c-3.9-7-8.2-15.6-17.6-14.9
					c-4.7,0.4-9.2,2.3-13.4,4.9c10.4,16.2,17.1,35.4,24.1,53.2c8.2,20.9,15.9,41.9,23.3,63.1c4.8,13.9,9.7,27.7,13.6,41.9
					c6.9,25.1,12.9,50.5,18.4,75.9c5,23,9.9,46.2,12.2,69.7c4.1,0.9,8.2,1.2,12-0.6C416.4,356,418.3,350.8,419.1,346z"/>
			</g>
		</g>
	</g>
	<g>
		<g id="XMLID_3_">
			<g>
				<path class="st4" d="M80.9,245.4c1.2,1.3-0.8,3.4-1.5,4c-0.8,0.6-2,1.1-2.8,1.4c-2.9,1.3-6,2.3-9.1,3.2
					c-5.5,1.6-11,3.1-16.6,4.2c-0.6,0.1-1.7,0.6-2.3,0.4c-1.8-0.5-2.2-2.5-0.9-3.9c3-3.2,9.7-4.4,13.7-5.5
					c5.1-1.7,11.6-4.8,17.1-4.4C78.9,244.9,80.4,245,80.9,245.4z"/>
				<path class="st4" d="M85.2,264.5c3.6,2.6,0,4.3-1.5,5.1c-5,2.5-10.9,4-16.3,5.6c-2.8,0.9-5.5,1.6-8.4,2.3c-1.3,0.3-3,1-4.2,0.9
					c-4.5-0.4-3.5-3.4-0.1-5.3c4.5-2.4,10.1-3.3,15-4.9c3-1,5.9-2.1,9-2.9C80.1,264.9,84.2,263.8,85.2,264.5z"/>
				<path class="st5" d="M418.3,325.2c0.9,6.9,1.9,13.9,0.8,20.8c-0.8,4.8-2.7,10-7.4,12.2c-3.8,1.8-7.9,1.5-12,0.6
					c-2.3-23.4-7.2-46.7-12.2-69.7c-5.5-25.4-11.5-50.8-18.4-75.9c-3.9-14.1-8.8-28-13.6-41.9c-7.4-21.2-15.1-42.2-23.3-63.1
					c-7-17.8-13.6-37-24.1-53.2c4.2-2.5,8.7-4.5,13.4-4.9c9.3-0.7,13.7,7.9,17.6,14.9c4.2,7.7,8,15.6,11.6,23.6
					c23.6,52.8,41.5,108.8,54.7,165.1c3.6,15.5,6.8,31,9.4,46.7C416.1,308.7,417.2,316.9,418.3,325.2z"/>
				<path class="st5" d="M148.4,323.7c-0.3,0.1-0.7,0.1-1.1,0.1c-0.1,0-0.2,0-0.3,0c-0.1,0-0.2,0-0.3,0.1c-20.4,5.4-40.9,10-61.6,14
					c-5.1,1-10.1,1.9-15.2,2.8c-5.4,0.9-13.7,4.1-18.3,0c-6.5-5.8-11.7-14.2-16.2-21.6c-9.6-16.2-15.9-34.5-18-53.3
					c-1-8.5-3.1-21.3,3.3-28.2c6.3-6.7,18.1-8.1,26.5-10.4c23.1-6.3,46.2-12.2,69.4-17.7C126.2,247.9,137.2,285.8,148.4,323.7z
					 M89.6,266.9c2-9.9-17.4-2.3-20.6-1.3c-5,1.6-10.1,2.9-15,4.9c-2.7,1.1-4.8,2.3-5,5.4c-0.8,9.4,14.3,3.3,18.5,2
					c5.1-1.5,10.4-3.1,15.3-5.1C85.6,271.7,88.9,270.2,89.6,266.9z M68.1,256.6c3.3-1,21.1-5.8,15.7-12.4
					c-4.7-5.8-18.3,0.8-23.3,2.4c-4.8,1.4-12.1,2.8-15.5,6.9c-2.4,2.8-1.6,7.2,2.5,7.7c2.2,0.3,4.9-0.7,7-1.2
					C59,259.1,63.6,258,68.1,256.6z"/>
			</g>
		</g>
	</g>
	<path class="st6" d="M399.8,358.9c4.1,0.9,8.2,1.2,12-0.6c4.7-2.3,6.6-7.4,7.4-12.2c1.1-6.9,0-13.9-0.8-20.8
		c-0.6-5.2-1.3-10.4-2.1-15.6c-8.5-3.5-17.3-6.6-26.2-9.3C394.1,319.7,397.9,339.2,399.8,358.9z"/>
	<path class="st7" d="M142.8,295.4c2.7,9.3,5.5,18.7,8.2,28c7.5-1,14.9-1.9,22.4-2.6c30.2-2.8,60.6-2.3,90.5,2.8
		c27.3,4.6,53.8,12.6,80.3,20.2c16.1,4.6,32.2,9.1,48.4,13.3c1.4,0.4,2.8,0.8,4.3,1.1c-1.9-19.7-5.7-39.3-9.9-58.8
		C310.7,277.2,220.5,282.4,142.8,295.4z"/>
	<path class="st6" d="M51.6,340.7c4.6,4.1,12.9,0.9,18.3,0c5.1-0.9,10.1-1.8,15.2-2.8c20.7-3.9,41.2-8.6,61.6-14
		c0.1,0,0.2-0.1,0.3-0.1c0.1,0,0.2,0,0.3,0c0.4,0,0.7-0.1,1.1-0.1c-2.8-9.3-5.5-18.6-8.2-27.9c-39.4,6.7-75.4,15.3-104.7,23.4
		C40,326.6,45.1,334.9,51.6,340.7z"/>
	<path class="st1" d="M95,366.7c-0.6-14.1,23.5-22.9,39.5-27.2c-1.2-2.9-2.3-5.9-3.5-8.8c-19.6,4.8-39.3,8.9-59.1,12.4
		c5.7,18.7,12.2,36.8,20.8,54.3c7.3,14.9,13.9,29.8,23.4,43.4c1.9,2.8,3.9,6.1,6.5,8.3c4.4,3.6,10.2,1.7,14.8-0.5
		C123.3,426.9,95.6,382.4,95,366.7z"/>
</g>
<g>
	<g id="XMLID_1_">
		<g>
			<path class="st2" d="M269.8,105c3.7,4.6-1.4,9.5-4.8,12.2c-8.5,7-18.9,12-28.7,16.8c-7.9,3.8-16.2,2.1-24.6,1
				c-5.8-0.7-13.3-2.7-17.7,2.1c-6,6.5-8.4,15.8-9.2,24.4c-0.4,3.7-0.3,7.1,0.1,10.5c0.1,0.3,0.1,0.6,0.2,0.9
				c0.5,2.8,1.2,5.6,2.4,8.4c4,9.3,9,18.1,12.6,27.6c2.7,7,2,14.5-0.1,21.9c-2.6,8.8-7.3,17.3-11.2,24.5c-2.7,5.1-5.5,10.4-9,15
				c-2.2,3-6.4,6.3-10.4,6.1c-4.5-0.2-4.8-4.6-4.3-8.1c2.1-14.1,12.8-26.1,13.9-40.4c0.6-7-5.7-11.9-11-15.4
				c-4.9-3.3-10.2-5.9-15.4-8.8c-5-2.7-10.7-5.4-14.2-10c-8-10.8-3.9-22.5,0-33.9c4.1-11.8,8.9-23.7,15.6-34.3
				c2.4-3.8,5.1-7.6,8.7-10.3c3.2-2.1,7.1-3.2,11.3-3.6c6.6-0.6,13.7,0.4,19.4,1.4c10.3,1.7,20.1,6.3,30.4,7.2
				c10,0.9,19.1-6.1,27.6-10.5C255,108,266.5,100.8,269.8,105z"/>
			<path class="st2" d="M201.2,58.2c20.7,9.4,23.3,42.4,3.5,54.6c-9.9-2.7-20.7-4.3-30.9-3.4c-0.3,0-0.5,0-0.8,0.1
				c-1.9,0.2-3.9,0.5-5.8,1c-15.4-8-15.6-28.4-7-41.5c7.8-11.9,22.4-15.6,35.8-12.5C197.9,56.9,199.6,57.5,201.2,58.2z M205.3,85.4
				c0.2,1.7,2.8,1,2.6-0.7c-0.4-2.7-1-5.2-2-7.7c-0.6-1.6-3.2-0.9-2.6,0.7C204.3,80.2,204.9,82.8,205.3,85.4z"/>
			<path class="st3" d="M205.9,77c1,2.5,1.6,5.1,2,7.7c0.2,1.7-2.3,2.4-2.6,0.7c-0.4-2.7-1-5.2-2-7.7
				C202.7,76.1,205.3,75.4,205.9,77z"/>
			<path class="st8" d="M196.4,167.5c0.4,2.3-1.7,4.5-3.3,6.4c-2-0.9-3.9-1.8-5.9-2.7c-1-7.7,0.7-16.4,3.3-23.1
				c0.6-1.7,1.5-3.8,2.7-5.7c0,5.3,0.2,10.6,1,15.8C194.6,161.3,195.8,164.3,196.4,167.5z"/>
			<path class="st2" d="M143.7,201.9c6.9,4.3,14.8,7.5,21.6,12"/>
			<path class="st3" d="M167.7,215.4c1.8,1.3,3.5,2.7,5,4.3c3.1,3.2,4.2,5.9,3.3,10.2c-0.7,3.8-2.2,7.4-3.6,10.9
				c-3.2,7.8-7.1,15.4-9.2,23.6c-1.3,4.8-2.3,12.1,3.7,14.3c6.2,2.3,12.8-3.3,15.9-8.1c7.8-11.8,15.3-25.3,19.4-39.1
				c0.5-1.7,1-3.5,1.4-5.2c1.9-8.1,0.7-14.3-2.5-21.9c-4.1-9.5-9.7-18.6-12.8-28.4c-0.2-0.5-0.3-1-0.4-1.6c1.7,0.8,3.4,1.6,5.1,2.3
				c0.7,0.3,1.4,0.2,1.8-0.5c1.4-2.1,3-4.1,4.8-5.9c0.3-0.3,0.5-0.9,0.3-1.3c-3.8-9.5-3.9-19.6-4-29.7c0-0.1,0-0.2-0.1-0.4
				c1.2-1.1,2.5-1.9,4.1-2.1c3.9-0.4,8,0.4,11.9,0.8c7.9,1,16.8,3,24.3-0.6c10.2-4.9,20.6-10.1,29.6-17c5-3.9,12.5-12.5,4.8-18.2
				c-3.5-2.6-9.1,0.5-12.5,2c-5.4,2.3-10.6,5.2-15.8,7.9c-5.6,2.9-11.1,6.4-17.6,5.9c-2.9-0.2-5.7-0.8-8.4-1.5l-3.9-1.1
				c-1.4-0.4-2.7-0.8-4.1-1.3c6.2-4.6,10.3-11.5,12-19.1c0.1,0,0.1,0,0.2,0l0.4-3.1c1.6-10.8-1.5-22.2-9.8-29.6
				c-2.7-2.4-5.6-4.3-8.7-5.8c-6.6-3.1-14.1-4.1-21.7-2.8c-12.5,2.1-21.7,10-26.4,21.7c-5.1,12.7-2,29.1,9.8,36.7
				c-0.8,0.3-1.5,0.8-2.3,1.2c-0.1,0-0.2,0.1-0.3,0.2c-8,5.9-12.8,16-16.9,24.7c-2.7,5.8-5.1,11.8-7.3,17.8
				c-2.3,6.3-5.1,12.9-6.1,19.6c-1.4,9.1,2.4,19.6,10,25c0,0,0,0,0,0c0,0.1,0,0.2,0,0.3 M119.3,272.2 M160.3,69
				c7.8-11.9,22.4-15.6,35.8-12.5c1.8,0.4,3.5,1,5.1,1.7c20.7,9.4,23.3,42.4,3.5,54.6c-9.9-2.7-20.7-4.3-30.9-3.4
				c-0.3,0-0.5,0-0.8,0.1c-1.9,0.2-3.9,0.5-5.8,1C151.8,102.4,151.6,82.1,160.3,69z M143.7,201.9c6.9,4.3,14.8,7.5,21.6,12
				 M196.4,167.5c0.4,2.3-1.7,4.5-3.3,6.4c-2-0.9-3.9-1.8-5.9-2.7c-1-7.7,0.7-16.4,3.3-23.1c0.6-1.7,1.5-3.8,2.7-5.7
				c0,5.3,0.2,10.6,1,15.8C194.6,161.3,195.8,164.3,196.4,167.5z M265,117.2c-8.5,7-18.9,12-28.7,16.8c-7.9,3.9-16.2,2.1-24.6,1
				c-5.8-0.7-13.3-2.7-17.7,2.1c-6,6.5-8.4,15.8-9.2,24.4c-0.4,3.7-0.3,7.1,0.1,10.5c0,0.3,0.1,0.6,0.2,0.9c0.5,2.8,1.2,5.6,2.4,8.4
				c4,9.3,9,18.1,12.6,27.6c2.7,7,2,14.5-0.1,21.9c-2.6,8.8-7.3,17.3-11.2,24.5c-2.7,5.1-5.5,10.4-9,15c-2.2,3-6.4,6.3-10.4,6.1
				c-4.5-0.2-4.8-4.6-4.3-8.1c2.1-14.1,12.8-26.1,13.9-40.4c0.6-7-5.7-11.9-11-15.4c-4.9-3.3-10.2-5.9-15.4-8.8
				c-5-2.7-10.7-5.4-14.2-10c-8-10.8-3.9-22.5,0-33.9c4.1-11.8,8.9-23.7,15.6-34.3c2.4-3.8,5.1-7.6,8.7-10.3
				c3.2-2.1,7.1-3.2,11.3-3.5c6.6-0.6,13.7,0.4,19.4,1.4c10.3,1.7,20.1,6.3,30.4,7.2c10,0.9,19.1-6.1,27.6-10.5
				c3.5-1.8,15-9,18.3-4.8C273.4,109.6,268.3,114.4,265,117.2z"/>
		</g>
	</g>
</g>
<path class="st1" d="M14.2,258.5c0-0.5-0.1-0.9-0.1-1.4c-0.8,0.7-1.7,1.5-2.4,2c-0.8,0.6-1.6,1.3-2.5,2c-0.1,5.1-0.2,11.4-0.1,16.4
	c2.2-1.8,4.4-3.7,6.5-5.6C14.9,267.4,14.4,263,14.2,258.5z"/>
<path class="st1" d="M31,310.8c6.3-5,15.2-14.5,14-19.8c-0.5-2.1-1.1-2.9-2-3.7c-0.2,4.6-4.7,9.3-8.1,11.9c-2.3,1.7-4.6,3.4-7.1,4.9
	C28.8,306.5,29.9,308.7,31,310.8z"/>
</svg>
