<?xml version="1.0" encoding="utf-8"?>
<!-- Generator: Adobe Illustrator 24.1.0, SVG Export Plug-In . SVG Version: 6.00 Build 0)  -->
<svg version="1.1" id="Capa_1" xmlns="http://www.w3.org/2000/svg" xmlns:xlink="http://www.w3.org/1999/xlink" x="0px" y="0px"
	 viewBox="0 0 512 512" style="enable-background:new 0 0 512 512;" xml:space="preserve">
<style type="text/css">
	.st0{fill:#E6E6E6;}
	.st1{fill:#FFFFFF;}
	.st2{fill:#333333;}
	.st3{fill:#659CD0;}
	.st4{fill:#F25A5A;}
	.st5{fill:#FFDEDE;}
	.st6{fill:#F4C3C3;}
</style>
<ellipse class="st0" cx="426.6" cy="502.3" rx="65.1" ry="9.7"/>
<g>
	<ellipse class="st0" cx="82.5" cy="502.3" rx="65" ry="9.7"/>
	<path class="st1" d="M121.8,501.2c-3.9-0.1-7.1-4.9-8.7-7.8c-3.8-7-6.6-15.3-8.8-22c-2-6-3.4-12.4-4.7-18.5
		c-2-9.2-4.1-18.8-8.2-27.4c-1.5-3-3.5-6.5-6.9-6.5c-1.7,0-3.4,0.9-5.3,2.8c-3.2,3.2-4.6,7.8-5.9,11.9l-0.1,0.2
		c-2.6,8.4-5.7,17-8.4,24.5l-0.2,0.7c-3.1,8.7-6.3,17.6-9.7,26.4c-0.3,0.8-0.6,1.7-0.9,2.6c-1.6,4.6-3.6,10.3-7.9,12.2
		c-0.9,0.4-1.8,0.6-2.7,0.6l0,0c-3.1,0-6.3-2.2-7.9-5.6c-2.5-5.3-1.7-12.4-1-18.7c0.2-1.5,0.3-3,0.5-4.4c1.4-16.7,4.1-34.3,8.3-53.9
		l0.2-1.1l-1.2-0.2c-6.1-0.9-11.2-5.2-14.5-8.7C21.1,401,15,393.8,9.6,386.8c-10.8-14.1-11.2-29.2-0.9-40.6
		c10.6-11.7,24-23.6,42-37.6l1.3-1l-1.4-0.8c-13.8-8-22.5-22.9-22.1-38c0.4-17.1,10.1-34,23.6-40.9c5.6-2.9,13.8-4.5,23-4.5
		c1,0,2,0,2.9,0.1c8.3,0.3,16,2.4,23.5,6.5c14.6,7.8,23.3,20,23.8,33.5c0.3,8.5-0.8,15.4-3.3,20.5c-3.6,7.4-9.4,14.1-16.7,19.5
		l-1.7,1.2l2,0.7c8.4,2.9,16.6,6.6,24.6,10.3l1.4,0.6c2.1,1,4.2,1.9,6.2,2.9c2.4,1.1,4.8,2.2,7.2,3.3l0.9,0.4
		c1.3,0.6,2.6,1.2,3.9,1.8c0.1,0,0.2,0.1,0.4,0.2c0.7,0.4,1.3,0.6,1.8,0.6c0.4,0,0.6,0,0.6,0l0.5-0.2c1.4-0.9,2.2-3.4,3-6.4
		c0.1-0.6,0.3-1.1,0.4-1.4c0.9-2.6,1.7-5.4,2.5-8.6c1.2-4.7,2.8-9.3,4.4-13.8c1.1-3.2,2.2-6.4,3.2-9.7l0.2-0.5
		c2.4-7.8,5.6-18.4,14-18.4c1.2,0,2.6,0.2,4,0.7c3.6,1.1,6,3.9,6.7,7.5c1.2,6.5-0.4,14.9-1.6,21.1c-1.6,8.1-4.4,16.2-7.2,24
		c-1.6,4.6-3.3,9.4-4.7,14.1c-2.7,9.2-6.4,19.1-15.7,20.7c-1.1,0.2-2.2,0.3-3.3,0.3c-7,0-14.2-3.6-20.5-6.7l-1.1-0.6
		c-2.2-1.1-4.7-2.3-7.3-3.5c-0.5-0.2-1-0.5-1.6-0.8c-2.1-1-4.6-2.4-6.9-2.4c-1.5,0-3.4,0.6-4.2,3.3c-0.5,1.7-0.1,3.6,0.3,5.4
		c0.1,0.6,0.2,1.1,0.3,1.6c0.8,5.6,1.6,11.3,2.3,16.9c3.6,27,6.4,49.3,8.6,70.1c1.4,12.6,2.7,25.6,3.6,38.5
		c0.4,6.3,0.4,12.9-2.4,18.2C128.4,498,125.1,501.2,121.8,501.2L121.8,501.2z M50.8,341.7l-2,1.9c-2.5,2.3-5.2,4.8-8.6,8.1
		c-1.3,1.2-2.7,2.5-4.1,3.7c-2.4,2.1-5,4.3-7.1,6.8c-5.2,5.9-0.2,12,2.8,15.6c3.2,3.9,6.4,8,9.2,11.5c1.4,1.8,2.9,3.6,4.3,5.4
		l1.7,2.1l0.2-2.7c0.8-9.1,1.4-18.4,1.9-27.4c0.5-7.3,1-14.8,1.5-22.2L50.8,341.7z"/>
	<path class="st2" d="M8.8,387.5c5.7,7.3,12,14.7,18.3,21.4c4,4.3,9.3,8.2,15.2,9.1c-3.9,17.8-6.9,35.8-8.4,54
		c-0.6,7.2-2.7,16.9,0.6,23.7c2.1,4.4,7.2,7.6,12,5.6c5.6-2.4,7.5-10.2,9.4-15.4c3.4-9,6.7-18,9.9-27.1c2.9-8.2,5.8-16.3,8.4-24.6
		c1.3-4,2.7-8.7,5.7-11.7c5.2-5.3,8.3-0.9,10.4,3.4c6.9,14.2,7.9,30.9,12.9,45.8c2.5,7.4,5.1,15.3,8.9,22.1c1.9,3.4,5.3,8.3,9.6,8.4
		c3.9,0.1,7.6-3.7,9.3-6.9c3-5.6,2.9-12.6,2.5-18.8c-0.8-12.9-2.2-25.8-3.6-38.6c-2.5-23.4-5.5-46.8-8.6-70.1
		c-0.8-5.7-1.5-11.3-2.3-16.9c-0.3-2-1.1-4.6-0.6-6.5c1.6-5.2,7.9-0.9,11.2,0.5c2.5,1.1,4.9,2.3,7.3,3.5c7.7,3.8,16.7,8.6,25.6,7.1
		c10.2-1.7,13.9-12.7,16.5-21.4c3.8-12.7,9.4-25.2,11.9-38.3c1.2-6.6,2.8-14.8,1.6-21.5c-0.7-4-3.5-7.1-7.4-8.3
		c-12.8-4.1-16.8,9.8-19.6,19c-2.4,7.9-5.5,15.5-7.6,23.6c-0.8,2.9-1.6,5.7-2.5,8.5c-0.5,1.6-1.4,6.3-2.9,7.2c-0.1,0,0,0.1,0.1,0.1
		c-0.1,0-0.2,0-0.7,0s-1.4-0.6-1.8-0.7c-1.6-0.7-3.2-1.4-4.8-2.1c-4.5-2-8.9-4.1-13.4-6.2c-8.6-3.9-17.2-7.9-26.1-11
		c7.1-5.2,13.1-12,17-19.9c3.1-6.2,3.6-14.1,3.4-21c-0.6-15.4-11.3-27.5-24.4-34.5c-7.5-4-15.4-6.3-24-6.6
		c-8.5-0.3-18.8,0.7-26.4,4.6c-14.9,7.7-23.8,25.6-24.2,41.9c-0.2,15.9,9.3,31.1,22.8,39c-14.8,11.4-29.6,23.9-42.1,37.7
		C-3.8,358.4-1.3,374.4,8.8,387.5z M3.9,358.2c2.4-8.1,9.7-13.7,15.6-19.3c11.1-10.5,22.3-20.6,34.3-29.8c0.9-0.7,1.2-2.2,0-2.8
		c-19.6-9.9-27.4-32-20.2-52.3c3.3-9.4,9.3-18,18-23.2c8.5-5.1,20.9-5.7,30.5-4.6c17.6,2.1,36.9,14.3,40.4,32.8
		c3.5,18.3-6.2,34.8-21.1,44.7c-1.2,0.8-1,2.6,0.4,3c11.1,3.4,21.7,8.5,32.2,13.4c4.4,2,8.7,4.1,13.1,6c1.5,0.6,4.1,2.3,5.8,2.1
		c2.9-0.4,4-5.1,4.8-7.3c2.3-6.4,3.7-13,5.7-19.5c1.2-3.9,2.7-7.6,4-11.5c1.4-4,2.1-8.4,3.7-12.3c1.7-4.3,4.7-8.5,9.7-8.7
		c5.5-0.2,8.4,3.8,8.6,8.9c0.5,13.1-3.6,25.8-8,37.9c-2.2,6.1-3.9,12.4-5.9,18.6c-1.5,4.9-3.5,11.3-7.3,15.1
		c-7.9,8-21.8,0.3-29.7-3.6c-4.5-2.3-19.8-12.4-22.9-4.5c-1.4,3.6-0.1,8.2,0.4,12c0.9,6.2,1.7,12.3,2.5,18.5
		c2.9,22.1,5.7,44.2,8.1,66.4c1.2,11.6,2.3,23.2,3.3,34.9c0.6,7.4,1.9,17.8-3.9,23.6c-8,8-13.6-9.4-15.6-14.3
		c-5.8-14.4-8.6-29.2-12.6-44.1c-1.6-6-5.1-22.5-13.8-22c-4.7,0.2-8.3,6-10.2,9.7c-2.5,4.9-3.6,10.3-5.3,15.5
		c-5,14.7-10.4,29.4-16,43.9c-1.3,3.5-2.4,7.4-4.5,10.4c-2.6,3.7-7.6,3.8-10.2,0c-1.5-2.2-1.7-4.9-1.8-7.5c-0.3-7.2,0.7-14.8,1.4-22
		c1.6-16.1,4.4-32,7.8-47.9c0.4,0,0.7-0.1,1.1-0.1c5.3-0.7,7.7-5.8,7.4-10.9c-0.2-3.4-2-5.7-4-8.1c-0.4-0.5-0.8-1-1.3-1.5
		c0.1-0.2,0.1-0.4,0.2-0.6c1.7-18.8,2.5-37.7,4-56.5c0.1-1.5-1.8-2-2.8-1.2c-7.5,6.6-15.3,13.5-22.3,20.7c-4.5,4.6-4.6,9-1.5,14.5
		c3.2,5.7,8.3,10.7,12.4,15.9c3.7,4.7,16.6,16.1,10.9,22.4c-4.4,5-12.5,0.9-16.6-2.5c-2.6-2.1-4.8-4.7-6.9-7.2
		c-5.5-6.5-11.6-12.7-16.4-19.6C4.7,376.1,1.3,367,3.9,358.2z M41.7,388.6c-3-3.9-6.1-7.7-9.2-11.5c-3.4-4.1-7.2-9.2-2.8-14.2
		c3.3-3.8,7.5-6.9,11.1-10.4c2.9-2.7,5.7-5.4,8.6-8.1c-1.3,16.5-2.1,33.1-3.5,49.6C44.5,392.2,43.1,390.4,41.7,388.6z"/>
	<g id="XMLID_2_">
		<g>
			<path class="st3" d="M74.3,364.5c-0.2,0.6-0.4,1.2-0.2,1.8c0.1,0.3,0.4,0.5,0.6,0.7c2.8,2.5,6.4,5.7,9.2,8.2
				c0.4,0.3,0.8,0.7,1.3,0.7s0.9-0.2,1.3-0.5c3.7-2.2,6.6-6.6,10.4-8.9c-1.4-11.8-6.4-24-9.5-35.5c-0.1-0.5-0.3-1-0.1-1.5
				c0.1-0.4,0.5-0.7,0.8-0.9c1.1-1,3-2.5,3.1-3.5c0-1.8-3.5-6.4-4.1-6.7c-0.3-0.2-7.4-0.4-7.7-0.2c-0.5,0.2-2.6,5.1-2.9,6.8
				c0.3,1.6,3.1,2.7,3.5,4.9c0.3,1.2,0.4,2.4,0.1,3.6C77.5,342.4,75.9,354.6,74.3,364.5z"/>
		</g>
	</g>
	<path class="st2" d="M73,366.9c1.1,2.6,6,5.6,8.2,7.4c1.6,1.4,2.9,3.1,4.9,2.4c1.5-0.5,3.3-2.8,4.5-3.8c2.2-1.9,4.4-3.8,6.8-5.3
		c0.3-0.2,0.7-0.6,0.6-1.1c-1.1-8.7-3.8-17.1-6.3-25.5c-0.9-3.1-2.7-6.7-3-9.9c-0.2-2.1,1.8-3.1,3.3-5.2c0.1-0.1,0.2-0.3,0.3-0.4
		c0.1-0.3,0.1-0.7-0.1-0.9c-0.8-2.4-2.9-6.7-5.3-7.4c-2.4-0.7-7.7-0.7-9.3,1.4c-2.4,3.1-2.9,6.4-0.6,9.3c1.6,2.1,1.5,1.3,1.5,3.3
		c0,1.4-0.5,3-0.8,4.4c-1.5,8.7-3,17.4-4.2,26.1C73.2,363,72.4,365.4,73,366.9z M75.4,365.9c0-0.1,0-0.3,0-0.6
		c-0.3-3.8,1.2-8.6,1.8-12.3c0.8-5.1,1.7-10.1,2.5-15.1c0.4-2.3,1.7-5.7,1.4-8c-0.2-2-3.2-3.7-3.4-5.1c-0.1-0.8,1-2.9,1.3-3.5
		c0.7-1.6,0-1.1,1.7-1.6c1.4-0.4,3,0.2,4.4,0c0,0,0.8-0.1,1.2,0c1.2,1,2.7,3.6,3.3,5.3c-2.4,3.4-4.3,3.5-3.1,7.8
		c1.8,6.5,4,12.9,5.8,19.5c0.9,3.2,1.7,6.5,2.4,9.7c0.2,0.8,1,3.2,0.6,4.1c-0.2,0.5-2.5,1.8-3,2.3c-2.2,1.8-4.7,3.6-6.7,5.7
		c-0.2,0.2-0.3,0.4-0.4,0.5c0,0,0-0.1-0.1-0.1c-0.8-0.5-1.5-1.2-2.2-1.9c-2.1-1.8-4.1-3.7-6.2-5.5C76.4,366.7,75.8,366.3,75.4,365.9
		z"/>
	<g>
		<path class="st2" d="M96.5,250.5c0.5,4.2,0.8,8.4,0.7,12.6c0,2.1-3.3,2.1-3.3,0c0-4.2-0.2-8.4-0.7-12.6
			C92.9,248.4,96.2,248.4,96.5,250.5L96.5,250.5z"/>
	</g>
	<g>
		<path class="st2" d="M65.4,252.2c0.6,3.9,0.9,7.8,0.9,11.8c0,2.1-3.3,2.1-3.3,0c0-3.7-0.3-7.3-0.8-10.9
			C61.9,251,65.1,250.1,65.4,252.2L65.4,252.2z"/>
	</g>
</g>
<g>
	<g>
		<path class="st1" d="M509.6,357.7c-2-7.2-8.4-12.8-13.8-18c-14.3-13.5-21.5-20.4-36.8-32.1c11.3-5.4,19.6-16.2,22.8-28.3
			c3.2-12.1-0.3-23.5-5.7-34.8c-1.8-3.8-7.7-9.3-10.8-12.1c-4-3.6-8.4-5.6-13.8-6.6c-11.3-2.1-18.5-2.6-29.7,0.1
			c-5.3,1.2-12.4,5.3-17,8c-3.8,2.3-6.1,5.4-9.2,8.5c-3.6,3.7-4.4,7.5-6.7,12.1c-3,6.2-1.7,23.1,1.5,29.1
			c4.7,8.9,10.7,15.9,19.2,21.3c-24.5,13.4-64.2,46.3-64.2,59.7c0,10.5,13.6,29,23.5,39.5c3.3,3.6,11,11.9,17.3,12.3
			c-2.2,18.2-4.4,36.9-5.6,52.7c-0.7,8.9-2,17.3,1.7,25.5c1,2.2,4.3,5.3,6.7,5.9c4,1.1,8.3-4.8,10-8.6c5.9-12.9,10.5-26,13.4-40
			c3.2-15.2,6.6-27.3,11.5-32.6c1-1.1,2.4-1.8,3.9-1.7c1.2,0.1,2.2,0.8,3.1,1.5c7.2,5.9,8.1,15.2,11.3,24
			c5.7,15.6,11.5,32.5,17.6,48c1.5,3.9,3.7,8.4,7.8,9.1c3.5,0.6,7-2.1,8.5-5.3c1.5-3.3,1.4-7,1.2-10.6c-1-21.8-5.1-45.5-10-67.8
			c3.3,0,6.6-1.2,9.5-2.9c6.7-3.9,12-12.5,20.6-21.8C506.5,382.1,513.2,370.6,509.6,357.7z M370.2,368.8c0.2-4,17.5-22.1,25.2-28.7
			c0.3,3.7-0.9,10.6-0.9,10.6s-3.3,18.2-6.6,44.4c-2.8-3.7-5.9-6.9-7.8-8.9C375.6,381.5,370,371.8,370.2,368.8z M486.3,368.6
			c-0.3,1.8-2.4,5.9-3.6,7.3c-7.3,8.7-11.3,14.3-17.9,22.3c-1.4-16.2-2.6-39-4.1-57.8c6.8,6,13.7,13,20.5,19
			C483.9,361.8,486.9,365,486.3,368.6z"/>
	</g>
	<g id="XMLID_4_">
		<g>
			<path class="st4" d="M437.7,364.5c0.2,0.6,0.4,1.2,0.2,1.8c-0.1,0.3-0.4,0.5-0.6,0.7c-2.8,2.5-6.4,5.7-9.2,8.2
				c-0.4,0.3-0.8,0.7-1.3,0.7s-0.9-0.2-1.3-0.5c-3.7-2.2-6.6-6.6-10.4-8.9c1.4-11.8,6.4-24,9.5-35.5c0.1-0.5,0.3-1,0.1-1.5
				c-0.1-0.4-0.5-0.7-0.8-0.9c-1.1-1-3-2.5-3.1-3.5c0-1.8,3.5-6.4,4.1-6.7c0.3-0.2,7.4-0.4,7.7-0.2c0.5,0.2,2.6,5.1,2.9,6.8
				c-0.3,1.6-3.1,2.7-3.5,4.9c-0.3,1.2-0.4,2.4-0.1,3.6C434.5,342.4,436.1,354.6,437.7,364.5z"/>
		</g>
	</g>
	<path class="st2" d="M504.1,345.6c-12.5-13.8-27.3-26.3-42.1-37.7c13.6-7.8,23.1-23,22.7-38.9c-0.4-16.3-9.3-34.2-24.2-41.9
		c-7.6-3.9-18-4.9-26.4-4.6c-8.6,0.3-16.5,2.6-24,6.6c-13.1,7-23.8,19-24.4,34.5c-0.3,6.8,0.3,14.7,3.4,21c4,8.2,10.2,15,17.6,20.3
		c-16.7,9.5-32.5,21.7-46.1,35.1c-5.4,5.3-11.1,11.1-14.6,17.9c-3,5.9-1.9,11.4,0.7,17.4c4.4,9.9,11.2,18.9,18.3,27
		c5,5.7,11,13,18.4,15.3c6.8,2.2,12.3-3.1,12-10c-0.2-4.4-2.4-8.5-5.1-12.2c0-0.1,0-0.1,0-0.2c1.6-12.8,3.2-25.5,5-38.3
		c0.8-5.5,2-11.2,1.8-16.8c0-1.5-1.7-2.1-2.8-1.2c-6,5.2-11.5,10.9-16.8,16.9c-2.9,3.2-8.6,8.4-8.9,13c-0.4,6.1,6.2,13.9,10,18.1
		c5,5.6,11.8,11.6,13.3,19.3c1.2,6.3-3.6,10.2-9.4,7.3c-4-2-7.3-5.3-10.4-8.5c-6.7-7-12.9-14.6-18-22.9c-3.8-6.2-9.1-14.6-5.7-22
		c2.9-6.3,8.2-11.7,13-16.5c14.4-14.5,31.3-27.5,49.2-37.3c1.1-0.6,1-2.2,0-2.8c-15-9.9-24.6-26.4-21.1-44.7
		c3.5-18.5,22.8-30.7,40.4-32.8c9.6-1.1,22-0.4,30.5,4.6c8.7,5.2,14.7,13.8,18,23.2c7.2,20.3-0.5,42.4-20.2,52.3
		c-1.2,0.6-0.9,2.2,0,2.8c12.1,9.3,23.3,19.4,34.3,29.8c5.9,5.6,13.2,11.2,15.6,19.3c2.6,8.9-0.7,17.9-5.8,25.2
		c-4.9,6.9-11,13.2-16.4,19.6c-2.1,2.5-4.3,5.1-6.9,7.2c-4.1,3.4-12.2,7.4-16.6,2.5c-3.4-3.8-0.2-9.3,3.7-14.1
		c0.1-0.1,0.1-0.1,0.1-0.2c2.6-3.3,5.6-6.2,7.1-8.1c4.1-5.2,9.1-10.1,12.4-15.9c3.1-5.4,3-9.8-1.5-14.5c-7-7.2-14.8-14-22.3-20.7
		c-1-0.9-2.9-0.4-2.8,1.2c1.6,19,2.4,38,4.1,57c0,0.1,0,0.1,0,0.2c-0.4,0.5-0.8,1-1.2,1.5c-2.1,2.5-3.8,4.8-4,8.1
		c-0.3,5.1,2.1,10.1,7.4,10.9c7.7,1.1,14.6-3.8,19.6-9.1c6.3-6.8,12.7-14.1,18.3-21.4C513.3,374.4,515.8,358.4,504.1,345.6z
		 M373.5,373.6c-2.4-5-0.9-6.7,2.3-10.7c5.4-6.8,11.5-13.2,17.9-19c-0.3,4.7-1.2,9.4-1.9,14c-1.6,11.3-3,22.6-4.5,33.9
		c-1.4-1.7-2.9-3.2-4.3-4.7C379.3,383,375.9,378.6,373.5,373.6z M462.5,344.4c2.9,2.7,5.8,5.4,8.6,8.1c3.6,3.4,7.9,6.6,11.1,10.4
		c4.4,5,0.6,10.1-2.8,14.2c-3.1,3.8-6.2,7.7-9.2,11.5c-1.4,1.8-2.9,3.6-4.3,5.4C464.7,377.5,463.8,360.9,462.5,344.4z"/>
	<g>
		<path class="st2" d="M466.3,417.7c2.9,13.3,5.4,26.8,7.1,40.3c0.7,5.7,1.3,11.4,1.7,17.2c0.4,5.9,2.4,15.2-1.2,20.4
			c-7.3,10.6-12.9-5.6-14.7-10.4c-2.4-6.4-4.8-12.8-7.1-19.3c-3.9-10.8-7.8-21.5-11.2-32.4c-1.8-5.8-6.4-18.7-14.5-17.2
			c-6,1.1-8.8,10.4-10.4,15.3c-2.8,8.4-15,73.4-28.2,66.5c-6.7-3.4-6.4-14.2-6.1-20.5c0.4-6.5,1-13,1.6-19.5
			c1.2-13.7,2.8-27.4,4.4-41.1c0.2-2.1-3-2.1-3.3,0c-1.7,14-3.2,28-4.5,42.1c-1,11.1-4.5,25.8,1,36.2c3.9,7.4,11,9.1,16.5,2.5
			c3.4-4.2,5.3-9.7,7.3-14.6c2.7-6.8,5.1-13.8,7-20.9c3.3-12.3,4.5-26,10.5-37.4c1.8-3.4,3.4-6.8,8.7-3.4c2.4,1.6,4.3,5.8,5.3,8.4
			c2.3,5.7,3.7,11.8,5.8,17.6c4.9,13.5,9.6,27.1,14.8,40.5c2.5,6.5,6.9,17.9,16.1,13c4.7-2.5,6.1-8,6.2-12.9
			c0.2-7.9-0.8-16.1-1.6-24c-1.7-15.9-4.4-31.6-7.9-47.2C469,414.7,465.8,415.6,466.3,417.7L466.3,417.7z"/>
	</g>
	<path class="st2" d="M438.6,361.6c-1.3-8.7-2.8-17.4-4.2-26.1c-0.2-1.4-0.8-3-0.8-4.4c0-2-0.2-1.3,1.5-3.3c2.3-2.9,1.8-6.1-0.6-9.3
		c-1.6-2.1-7-2.1-9.3-1.4c-2.4,0.8-4.6,5-5.3,7.4c-0.2,0.3-0.2,0.6-0.1,0.9c0.1,0.2,0.1,0.3,0.3,0.4c1.5,2.1,3.5,3.2,3.3,5.2
		c-0.3,3.2-2,6.9-3,9.9c-2.5,8.3-5.2,16.8-6.3,25.5c-0.1,0.4,0.3,0.8,0.6,1.1c2.4,1.6,4.6,3.4,6.8,5.3c1.2,1,3,3.3,4.5,3.8
		c2.1,0.7,3.3-1.1,4.9-2.4c2.1-1.8,7-4.7,8.2-7.4C439.6,365.4,438.8,363,438.6,361.6z M435.3,367c-2.1,1.8-4.1,3.7-6.2,5.5
		c-0.7,0.6-1.4,1.3-2.2,1.9l-0.1,0.1c-0.1-0.1-0.2-0.3-0.4-0.5c-2-2.1-4.5-3.9-6.7-5.7c-0.5-0.4-2.8-1.7-3-2.3
		c-0.4-0.9,0.4-3.2,0.6-4.1c0.7-3.3,1.5-6.5,2.4-9.7c1.8-6.5,4-12.9,5.8-19.5c1.2-4.3-0.7-4.5-3.1-7.8c0.6-1.7,2.1-4.3,3.3-5.3
		c0.5,0,1.2,0,1.2,0c1.4,0.3,3-0.4,4.4,0c1.7,0.5,1-0.1,1.7,1.6c0.3,0.6,1.4,2.7,1.3,3.5c-0.2,1.4-3.1,3.1-3.4,5.1
		c-0.3,2.3,1,5.7,1.4,8c0.9,5,1.7,10.1,2.5,15.1c0.6,3.8,2.1,8.5,1.8,12.3c0,0.3,0,0.5,0,0.6C436.2,366.3,435.6,366.7,435.3,367z"/>
	<g>
		<path class="st2" d="M415.5,250.5c-0.5,4.2-0.8,8.4-0.7,12.6c0,2.1,3.3,2.1,3.3,0c0-4.2,0.2-8.4,0.7-12.6
			C419.1,248.4,415.8,248.4,415.5,250.5L415.5,250.5z"/>
	</g>
	<g>
		<path class="st2" d="M446.6,252.2c-0.6,3.9-0.9,7.8-0.9,11.8c0,2.1,3.3,2.1,3.3,0c0-3.7,0.3-7.3,0.8-10.9
			C450.1,251,446.9,250.1,446.6,252.2L446.6,252.2z"/>
	</g>
</g>
<g>
	<path class="st5" d="M366.3,183.7c9.4-6.3,17.2-12.9,22.7-22.9c5.3-9.7,8.6-20.5,9.9-31.5c2.5-21.4-2.2-43.9-16.2-60.7
		c-11.9-14.2-28.8-22.8-46.6-27.1c-9.5-2.3-19.2-3.1-28.9-3.6c5.5,5.3,9.9,11.7,14.2,19.4c11.4,20.3,10.2,48.5,0.6,70.1
		c-8.2,18.5-20,31.4-36.1,38.6s-40.9,11.1-59.7,10.7c-1.6,0-3.1-0.1-4.7-0.1c4.9,4.5,10.4,8.4,16.6,11.3c16.1,7.5,34.9,10.4,52.5,11
		c20.7,0.7,41.6-2.1,61.3-8.1l0,0c0.3-0.1,0.6-0.1,0.9,0.1c0,0,0,0,0.1,0l0.1,0.1c0,0,0,0,0.1,0.1c0,0,0,0,0.1,0.1
		c3.9,4.2,8.7,7.5,13.5,10.6c3.4,2.2,6.9,4.5,10.6,6.3c-4.4-7.2-8.2-14.7-11.5-22.5c-0.1-0.2-0.1-0.4-0.1-0.6
		C365.7,184.4,365.9,184,366.3,183.7z"/>
	<path class="st6" d="M285.9,166c16.1-7.2,27.9-20.1,36.1-38.6c9.6-21.7,10.9-49.8-0.6-70.1c-4.3-7.7-8.7-14.1-14.2-19.4
		c-0.6,0-1.3-0.1-1.9-0.1c-1.2-0.1-2.4-0.1-3.5-0.2c5.9,7.6,10.5,16.2,13.1,25.3c9.9,34.1-3.9,76.5-36.1,93.8
		c-16.3,8.8-36.1,11.9-54.4,12.8c-3.1,0.2-6.2,0.2-9.4,0.2c2,2.4,4.1,4.7,6.3,6.8c1.6,0.1,3.1,0.1,4.7,0.1
		C245.1,177.1,269.8,173.2,285.9,166z"/>
	<path class="st2" d="M394.5,82.2c-8-16.8-22.3-29.4-39.1-36.9c-17.5-7.8-36.6-10-55.6-10.4c-4.4-5.2-9.5-9.8-15.1-13.6
		c-15-10.3-33.9-15.7-51.9-17.5c-10.2-1-20.5-0.7-30.7-0.1c-10.3,0.7-20.5,1.8-30.4,4.7c-18,5.1-34.7,14.7-46,29.8
		c-13.1,17.5-17.1,40.4-14.1,61.7c1.6,11.3,5.2,22.3,11,32.1c5.4,9.2,13,15.5,21.7,21.4c-3.7,8.6-8.1,16.9-13.1,24.8
		c-0.6,0.9,0.4,2.2,1.4,1.9c5.2-2,10.1-5,14.8-8c4.7-3.1,9.5-6.4,13.4-10.5c16.6,4.9,34,7.7,51.3,8c3.4,4.4,7.3,8.4,11.7,12
		c15.6,12.6,36.8,16.9,56.3,18.9c24.1,2.4,48.9-0.3,72.1-7.2c3.9,4.1,8.7,7.4,13.4,10.5c4.7,3,9.5,6.1,14.8,8c1,0.4,2-1,1.4-1.9
		c-5-7.9-9.4-16.2-13.1-24.8c7.5-5,14.4-10.3,19.5-17.9c5.5-8.1,9.3-17.6,11.6-27.1C404.1,121.2,402.9,100,394.5,82.2z M365.8,185.4
		c3.3,7.8,7.1,15.3,11.5,22.5c-3.7-1.8-7.2-4-10.6-6.3c-4.8-3.1-9.6-6.4-13.5-10.6c0,0,0,0-0.1-0.1c0,0,0,0-0.1-0.1l-0.1-0.1
		c0,0,0,0-0.1,0c-0.3-0.2-0.6-0.2-0.9-0.1l0,0c-19.8,6-40.7,8.8-61.3,8.1c-17.6-0.6-36.4-3.5-52.5-11c-6.2-2.9-11.8-6.7-16.6-11.3
		c-2.3-2.1-4.4-4.4-6.3-6.8c3.1,0,6.2-0.1,9.4-0.2c18.3-0.9,38.1-4.1,54.4-12.8c32.2-17.3,45.9-59.7,36.1-93.8
		c-2.7-9.2-7.2-17.8-13.1-25.3c1.2,0,2.4,0.1,3.5,0.2c0.6,0,1.3,0.1,1.9,0.1c9.7,0.5,19.4,1.4,28.9,3.6
		c17.8,4.3,34.7,12.9,46.6,27.1c14,16.7,18.7,39.3,16.2,60.7c-1.3,11-4.6,21.8-9.9,31.5c-5.5,10-13.3,16.6-22.7,22.9
		c-0.5,0.3-0.6,0.7-0.6,1.2C365.7,185,365.8,185.2,365.8,185.4z M160.6,159.1c-0.3-0.1-0.6-0.1-0.9,0.1c0,0,0,0-0.1,0l-0.1,0.1
		c0,0,0,0-0.1,0c0,0,0,0-0.1,0.1c-3.9,4.2-8.7,7.5-13.5,10.6c-3.4,2.2-6.9,4.5-10.6,6.3c4.4-7.2,8.2-14.7,11.5-22.5
		c0.1-0.2,0.1-0.4,0.1-0.6c0-0.4-0.1-0.9-0.6-1.2c-8.3-5.5-15.7-11.3-21-19.9c-5.1-8.3-8.5-17.5-10.4-27c-3.8-18.8-2-39.7,7.3-56.7
		c19.3-35.5,62.2-43.1,99.2-42.5c35,0.6,71.8,14.5,87.5,47.8c15.1,32,4.8,75.7-24.2,96.6c-16,11.5-37.5,15.2-56.7,16.6
		C205.4,168.5,182.2,165.6,160.6,159.1L160.6,159.1z"/>
	<path class="st1" d="M227.9,166.8c19.2-1.4,40.7-5.1,56.7-16.6c28.9-20.8,39.3-64.6,24.2-96.6c-15.7-33.3-52.6-47.3-87.5-47.8
		c-37-0.6-79.9,7-99.2,42.5c-9.2,17-11.1,37.9-7.3,56.7c1.9,9.5,5.4,18.8,10.4,27c5.3,8.6,12.7,14.4,21,19.9
		c0.5,0.3,0.6,0.7,0.6,1.2c0,0.2,0,0.4-0.1,0.6c-3.3,7.8-7.1,15.3-11.5,22.5c3.7-1.8,7.2-4,10.6-6.3c4.8-3.1,9.6-6.4,13.5-10.6
		c0,0,0,0,0.1-0.1c0,0,0,0,0.1,0l0.1-0.1c0,0,0,0,0.1,0c0.3-0.2,0.6-0.2,0.9-0.1l0,0C182.2,165.6,205.4,168.5,227.9,166.8z"/>
</g>
</svg>
