<?xml version="1.0" encoding="utf-8"?>
<!-- Generator: Adobe Illustrator 24.1.0, SVG Export Plug-In . SVG Version: 6.00 Build 0)  -->
<svg version="1.1" id="Capa_1" xmlns="http://www.w3.org/2000/svg" xmlns:xlink="http://www.w3.org/1999/xlink" x="0px" y="0px"
	 viewBox="0 0 512 512" style="enable-background:new 0 0 512 512;" xml:space="preserve">
<style type="text/css">
	.st0{fill:#E6E6E6;}
	.st1{fill:#FFFFFF;}
	.st2{fill:#F25A5A;}
	.st3{fill:#333333;}
	.st4{fill:#CCCCCC;}
	.st5{fill:#F2F2F2;}
	.st6{fill:#808080;}
</style>
<g>
	<ellipse class="st0" cx="142.7" cy="497.2" rx="85.3" ry="12.9"/>
	<g>
		<path class="st1" d="M310.8,304.1c6.8,7.2,6.9,18.1-4.2,20.9c-1.9,0.5-3.8,0.5-5.5,0.3c-4.6-0.6-8.7-3.1-12.9-5.4
			c-25.6-13.7-51.1-27.9-77.4-40.1c-6.2-2.9-20.8-11.9-23.1-0.4c-1.1,5.3,0.5,11.2,1.2,16.5c3.4,24.4,6.6,48.9,9.6,73.4
			c2.1,17,4,34,5.8,51.1c0.9,9.1,2.3,18.7,3.2,28.2c0.8,8.1,1.2,16.1,0.7,23.9c-0.4,5.9-1.5,12.7-5.8,17.1
			c-6.2,6.2-11.5,0.8-14.8-4.9c-5.8-9.9-9.5-21.7-13-32.6c-6.1-18.9-8-39.2-15.6-57.5c-2.1-5.1-5.3-12.8-11.2-14.4
			c-6.8-1.9-12.5,6-15.4,11c-4.8,8.5-6.6,18.5-9.9,27.6c-4.1,11.4-8.2,22.8-12.3,34.2c-2.2,6.1-4.2,12.8-6.5,19.3
			c-1.8,5-3.9,9.9-6.5,14.3c-2.3,3.8-5.1,7.8-11.1,5.2c-5.2-2.3-6.1-8.9-6.3-13.8c-0.2-6.2,0.5-12.7,1-18.9
			c2-25.7,6.2-51.1,11.7-76.3c5.1-0.4,9.4-3,11.1-9c2.2-8-1.9-13.7-6.6-19.2c0.1-0.2,0.2-0.4,0.2-0.7c2.3-25.7,3.4-51.4,5.5-77.1
			c0.2-2.1-2.5-2.8-3.8-1.6c-9.2,8.1-17.9,16.9-27,25.1c-5.3,4.7-10.4,10-7.9,17.5c2.6,8.1,9.4,14.3,14.5,20.8
			c3,3.8,6.1,7.7,9.1,11.6c1.7,2.1,3.8,4.3,5.7,6.5c2.5,2.9,4.9,6,5.9,9.2c2.7,8.9-4.8,14-13.2,11.7c-5.5-1.5-10.1-5-14-9
			c-2.9-2.9-5.7-6-8.4-9.2c-4.5-5.3-8.8-10.7-13.4-15.9c-8-9.1-15.3-20.1-15.6-32.6c-0.4-12.5,6.8-21.4,15.4-29.6
			c17.3-16.6,34.8-32.7,53.8-47.3c1.2-0.9,1.7-3,0-3.9c-26.8-13.5-37.3-43.6-27.5-71.4c4.5-12.8,12.7-24.5,24.6-31.6
			c11.6-6.9,28.5-7.8,41.6-6.3c24,2.8,50.3,19.5,55.2,44.7c4.8,24.9-8.4,47.5-28.8,60.9c-1.5,1-1.4,3.6,0.5,4.1
			c21.6,5.3,42.2,17.3,61.8,27.5c22,11.4,43.7,23.4,64.9,36C300.9,297,306.8,299.8,310.8,304.1z"/>
		<path class="st2" d="M139.4,317.1c2,1.8,4.4,4.6,6.9,5.9c0.1-0.1,0.2-0.1,0.3-0.2c0.5-0.4,0.9-0.7,1.4-1.2
			c1.3-1.3,2.8-2.4,4.2-3.6c1.7-1.5,7.3-4.5,8.2-6.5c1.2-2.8-1.9-10.5-2.6-13.3c-1.1-4.3-2.3-8.6-3.5-12.8c-2-6.9-4.9-13.9-6.3-20.9
			c-0.9-4.4,2.2-5.6,4.7-8.9c-0.7-1.7-1.8-3.3-2.8-4.8c-0.5-0.8-1-1.9-1.7-2.5c0,0,0,0-0.1-0.1c-2.1-0.4-8.7-0.5-9.6,0.2
			c-0.1,0-1.8,6.1-1.8,6.3c0,1.4,0.3,1.4,1.5,3c1.7,2.2,2.6,3.3,2.6,5.8c0.1,4.8-1.8,10.3-2.6,15c-1.2,7-2.3,13.9-3.4,20.9
			c-0.5,3-1,6.1-1.4,9.1c-0.1,0.7-0.4,1.7-0.3,2.4c0,0.2,0,0.4,0,0.4C134.2,313.4,137.6,315.5,139.4,317.1z"/>
		<g>
			<path class="st3" d="M310,297.5c-17.1-12.3-36.8-21.9-55.3-32c-23.4-12.7-47.2-25.6-72-35.3c-2.6-1-5.2-1.9-7.8-2.8
				c15.5-11.5,26-27.3,27.5-47c0.4-5.4,0.1-10.7-1-15.8c-2.8-14.2-11-27.1-23.9-35.2c-21-13.4-44.8-16.9-69-10.5
				c-22.4,6-36.3,29.4-40.1,50.8c-4.5,24.9,8.4,50.1,30,62.5c-17.9,14-34.6,29.3-51,44.9c-8.1,7.7-15.5,15.8-17.2,27.2
				c-1.5,10.3,1.6,20.3,6.8,29.1c6.1,10.3,14.9,19,22.7,28.1c0.5,0.6,1,1.2,1.5,1.8c6.4,7.7,13.3,15.6,23.3,18.4
				c1.1,0.3,2.2,0.5,3.2,0.7c-4.8,22.1-8.6,44.4-10.8,66.9c-1.2,11.9-8.5,46,11.4,47.7c6.9,0.6,11.2-5.3,13.8-10.9
				c1.9-4.1,3.5-8.2,5.1-12.4c2.1-5.6,4-11.3,6.1-16.9c4.2-11.4,8.2-22.9,12.3-34.3c3.5-9.5,5.3-20.4,10.4-29.1
				c3.1-5.3,10.4-11.4,15-4.5c2.4,3.7,4.1,8,5.5,12.1c3.6,10.6,5.7,21.5,8.2,32.4c2.6,11.6,6.2,22.9,10.4,34
				c3.2,8.4,6.2,18.3,12.4,25c11.7,12.7,22.7-3.3,24.5-15.1c1.4-9.6,0-19.5-0.8-29.1c-0.1-0.6-0.1-1.1-0.1-1.6
				c-0.7-8.4-1.5-16.8-2.4-25.1c-3.5-34.1-7.7-68.2-12.3-102.2c-1.2-9-2.4-17.9-3.7-26.9c-0.2-1.7-0.5-3.4-0.7-5.1
				c-0.4-4.3-0.6-9,5.1-8.5c2.9,0.3,6.5,2.7,9.1,3.9c27.9,12.7,54.7,27.8,81.8,42.2c3.8,2,8.1,3.7,12.3,4.4c6.4,1,12.8-0.3,17.3-6.5
				C324.3,314,317.7,303,310,297.5z M306.7,325c-1.9,0.5-3.8,0.5-5.5,0.3c-4.6-0.6-8.7-3.1-12.9-5.4c-25.6-13.7-51.1-27.9-77.4-40.1
				c-6.2-2.9-20.8-11.9-23.1-0.4c-1.1,5.3,0.5,11.2,1.2,16.5c3.4,24.4,6.6,48.9,9.6,73.4c2.1,17,4,34,5.8,51.1
				c0.9,9.1,2.3,18.7,3.2,28.2c0.8,8.1,1.2,16.1,0.7,23.9c-0.4,5.9-1.5,12.7-5.8,17.1c-6.2,6.2-11.5,0.8-14.8-4.9
				c-5.8-9.9-9.5-21.7-13-32.6c-6.1-18.9-8-39.2-15.6-57.5c-2.1-5.1-5.3-12.8-11.2-14.4c-6.8-1.9-12.5,6-15.4,11
				c-4.8,8.5-6.6,18.5-9.9,27.6c-4.1,11.4-8.2,22.8-12.3,34.2c-2.2,6.1-4.2,12.8-6.5,19.3c-1.8,5-3.9,9.9-6.5,14.3
				c-2.3,3.8-5.1,7.8-11.1,5.2c-5.2-2.3-6.1-8.9-6.3-13.8c-0.2-6.2,0.5-12.7,1-18.9c2-25.7,6.2-51.1,11.7-76.3c5.1-0.4,9.4-3,11.1-9
				c2.2-8-1.9-13.7-6.6-19.2c0.1-0.2,0.2-0.4,0.2-0.7c2.3-25.7,3.4-51.4,5.5-77.1c0.2-2.1-2.5-2.8-3.8-1.6
				c-9.2,8.1-17.9,16.9-27,25.1c-5.3,4.7-10.4,10-7.9,17.5c2.6,8.1,9.4,14.3,14.5,20.8c3,3.8,6.1,7.7,9.1,11.6
				c1.7,2.1,3.8,4.3,5.7,6.5c2.5,2.9,4.9,6,5.9,9.2c2.7,8.9-4.8,14-13.2,11.7c-5.5-1.5-10.1-5-14-9c-2.9-2.9-5.7-6-8.4-9.2
				c-4.5-5.3-8.8-10.7-13.4-15.9c-8-9.1-15.3-20.1-15.6-32.6c-0.4-12.5,6.8-21.4,15.4-29.6c17.3-16.6,34.8-32.7,53.8-47.3
				c1.2-0.9,1.7-3,0-3.9c-26.8-13.5-37.3-43.6-27.5-71.4c4.5-12.8,12.7-24.5,24.6-31.6c11.6-6.9,28.5-7.8,41.6-6.3
				c24,2.8,50.3,19.5,55.2,44.7c4.8,24.9-8.4,47.5-28.8,60.9c-1.5,1-1.4,3.6,0.5,4.1c21.6,5.3,42.2,17.3,61.8,27.5
				c22,11.4,43.7,23.4,64.9,36c5.1,3,11,5.8,15,10.1C317.6,311.4,317.8,322.2,306.7,325z M92.9,349.8c0-0.1-0.1-0.1-0.1-0.2
				c-4.3-5.4-8.5-10.8-12.8-16.2c-4-5.1-11-11-12.2-17.7c-1.5-8.1,10-15,15.1-19.7c4.9-4.6,9.8-9.3,14.8-13.9
				C95.8,304.6,94.7,327.2,92.9,349.8z"/>
			<path class="st3" d="M151.3,264.3c-0.5-3.3,2.1-4.3,4.4-7.5c0.2-0.2,0.3-0.4,0.4-0.6c0.2-0.5,0.1-0.9-0.1-1.3
				c-0.9-2.9-3.7-8.6-6.4-10c-2.1-1-10.2-1-12.3,0.2c-2.2,1.3-5,8.6-4.5,10.7c0.5,2.3,4.5,4.4,4.8,6.1c0.2,1.1-0.6,3.1-0.8,4.3
				c-2.1,11.8-4,23.5-5.8,35.3c-0.4,2.7-2,7.3-1.3,10.1c0.7,3,4.8,5.3,7,7.3s7,8,10.5,7.6c1.6-0.2,3.8-2.9,4.9-3.9
				c3.6-3.1,7.1-6.3,11.1-8.9c0.5-0.3,0.9-0.9,0.8-1.5c-1.5-11.8-5.2-23.4-8.6-34.8C153.9,273.3,151.9,268.7,151.3,264.3z
				 M160.3,311.5c-0.9,2-6.5,5-8.2,6.5c-1.4,1.2-2.9,2.3-4.2,3.6c-0.4,0.4-0.9,0.8-1.4,1.2c-0.1,0.1-0.2,0.2-0.3,0.2
				c-2.5-1.3-4.8-4.1-6.9-5.9c-1.8-1.6-5.2-3.6-6.5-5.8c0-0.1,0-0.2,0-0.4c-0.1-0.7,0.2-1.7,0.3-2.4c0.4-3,0.9-6.1,1.4-9.1
				c1.1-7,2.2-13.9,3.4-20.9c0.8-4.7,2.7-10.2,2.6-15c0-2.5-0.9-3.6-2.6-5.8c-1.3-1.6-1.5-1.6-1.5-3c0-0.2,1.8-6.3,1.8-6.3
				c1-0.8,7.5-0.6,9.6-0.2c0,0,0,0,0.1,0.1c0.7,0.7,1.2,1.7,1.7,2.5c1,1.5,2.1,3.1,2.8,4.8c-2.5,3.3-5.5,4.5-4.7,8.9
				c1.4,7.1,4.2,14,6.3,20.9c1.2,4.2,2.5,8.5,3.5,12.8C158.3,301,161.5,308.7,160.3,311.5z"/>
			<path class="st3" d="M158,171.8c-0.1,2.9,4.4,2.9,4.5,0c0.2-5.8,0-11.5-0.5-17.2c-0.3-2.8-4.8-2.9-4.5,0
				C158,160.3,158.2,166,158,171.8z"/>
			<path class="st3" d="M115.1,156.4c0.6,5.6,0.9,11.3,0.8,17c-0.1,2.9,4.4,2.9,4.5,0c0.2-5.7-0.1-11.3-0.8-17
				C119.2,153.5,114.7,153.5,115.1,156.4z"/>
		</g>
	</g>
</g>
<g>
	<ellipse class="st0" cx="323.9" cy="497.2" rx="62.8" ry="9.8"/>
	<g>
		<g>
			<g id="XMLID_2_">
				<g>
					<path class="st1" d="M373.1,56.5c1,1.9,1.4,4.8,0.8,6.9c-1.2,3.9-6.7,5.9-10.2,4c-5.8-3.1-4.7-11.7,1.3-13.8
						C368.3,52.8,371.5,53.2,373.1,56.5z"/>
					<path class="st1" d="M335,58.4c7.5,1.4,2.7,7.1-1.4,9.2c-2.1,1.1-4.4,1.9-6.5,3c-10.6,5.6-20.4,13.3-27.7,22.9
						c-4.1,5.4-7.4,11.5-9.3,18c-1.1,3.6-1,9.2-3.5,12.3c-3.3,4-7.7,2.8-8.9-2c-0.8-3.3-0.5-6.9,0.1-10.2
						c3.9-17.9,14.4-33.1,29.9-43.3C314.3,63.9,326.6,56.8,335,58.4z"/>
					<path class="st4" d="M456.2,69.8c13.2,25.1,20.7,54.9,16.5,83.3c-3.6,24.4-17.3,44.8-37.2,59.2c-21.4,15.4-47.5,23-73.8,23.1
						c-11.6,0-23.1-1.4-34.3-4.2c-9.7-2.4-19.1-5.9-27.9-10.5c-42.5-21.9-67.7-68.2-63.3-115.9c4.9-53.3,52.5-94.7,105.4-96.8
						c0.2,0,0.4,0,0.5-0.1l0,0c23.6-3.6,48.1,4.8,68.7,15.8C430.6,34.1,445.8,49.9,456.2,69.8z M442.5,172.8
						c9-21.2,9.6-46.8,3.5-68.9c-5.4-19.8-16.7-38.8-31.3-53.2c-14.5-14.3-32.7-21.8-52.8-23.5c-0.1,0-0.1,0-0.2,0
						c-21-2.2-40.9,4.7-59.4,14.3c-18.2,9.4-33.6,26.2-41.8,44.9c-16.5,37.5,2.7,79.3,32.8,103.5c30.1,24.2,76.3,35.3,112.9,20
						C423.8,202.5,435.7,188.9,442.5,172.8z"/>
					<g>
						<path class="st0" d="M302.3,41.4c15-7.8,30.9-13.8,47.6-14.6c-19.5-1-37.9,5.7-55.2,14.6c-18.2,9.4-33.6,26.2-41.8,44.9
							c-16.5,37.5,2.7,79.3,32.8,103.5c21.6,17.4,51.4,28,80.1,27c-26.3-0.9-52.8-11.1-72.5-27c-30-24.2-49.3-66-32.8-103.5
							C268.7,67.7,284.1,50.8,302.3,41.4z"/>
						<path class="st0" d="M456.2,69.8c-10.4-19.8-25.6-35.7-45.3-46.2C392.4,13.7,370.9,6,349.7,7c18.7,0.9,37.3,7.9,53.5,16.6
							c19.8,10.6,35,26.4,45.3,46.2c13.2,25.1,20.7,54.9,16.5,83.3c-3.6,24.4-17.3,44.8-37.2,59.2c-20.6,14.8-45.5,22.4-70.7,23
							c1.5,0,3.1,0.1,4.6,0.1c26.2-0.1,52.4-7.7,73.8-23.1c19.9-14.3,33.6-34.7,37.2-59.2C476.9,124.7,469.3,94.9,456.2,69.8z"/>
					</g>
					<path class="st5" d="M435.6,88.2c11.3,24.1,14.2,57.2,3.3,83c-4.7,11.1-12,20.9-22.4,28.1C385,221,337.7,213.4,307,194.1
						c-31.2-19.5-54.9-56.3-46.3-94.1c4.7-20.8,20-39.8,37.7-51.2c18.5-11.8,41.5-19.6,63.5-17.2C396.3,34.5,421.4,57.8,435.6,88.2z
						 M375.9,68.6c3.2-3.5,3.3-8.8,1.7-13c-2.2-5.8-7.5-7.6-13.2-6.4c-0.2,0-0.4,0-0.6,0.1s-0.4,0.1-0.6,0.3
						c-6.9,2.9-10.1,11.3-5.9,17.8C361.6,73.9,370.6,74.2,375.9,68.6z M343.5,61.8c0.3-16.5-28.6-3.1-35.2,0.8
						c-17.9,10.5-30.4,27.6-34.8,47.8c0,0.1,0,0.2,0,0.3c-1.1,5.7-1.8,15.1,3.6,19c4.2,3,10,0.9,12.8-3c2.2-3,2.7-6.5,3.5-10
						c1.1-4.8,2.7-9.3,5.1-13.6c4.5-8.2,11.1-15.1,18.6-20.8c5.3-4,11.1-7.5,17.1-10.1C339.2,70,343.4,68.2,343.5,61.8z"/>
					<path class="st6" d="M364.8,318c0.2,8.7,0.4,17.5,0.1,26.2c-0.6,18.3-3,36.6-4.6,54.8c-1.5,16.9-2.4,34.1-5.1,50.9
						c-2.2,13.5-4.5,32.9-15.5,42.4c-6.8,5.8-19.6,3.2-27.7,1.7c-7.4-1.3-18-2.7-22.1-9.7c-6.8-11.8-2.9-30-1.8-42.8
						c4.3-35.3,5.7-71.3,14.1-106c1.7-7.2,3.6-14.5,5.8-21.7c2.5-8.4,4.7-19.6,14-22.7c0.1,0,0.2-0.1,0.3-0.1
						c9.9-3,23.7-2.3,32.8,3.7c1.2,0.8,2.3,1.6,3.3,2.6C364.6,303,364.6,310.1,364.8,318z"/>
					<path class="st0" d="M364.8,318c-0.2-7.9-0.2-14.9-6.3-20.7c-1-1-2.1-1.8-3.3-2.6c-2.3-1.5-4.9-2.7-7.7-3.6
						c3.2,5.5,3.2,11.7,3.4,18.5c0.2,9.7,0.4,19.4,0.1,29.2c-0.7,20.3-3.3,40.7-5.2,60.9c-1.7,18.8-2.7,37.9-5.7,56.6
						c-1.9,12-4,28.1-10.9,39.5c4-0.2,7.7-1.2,10.4-3.5c11-9.5,13.3-28.9,15.5-42.4c2.7-16.8,3.6-34,5.1-50.9
						c1.7-18.2,4-36.5,4.6-54.8C365.2,335.5,365,326.7,364.8,318z"/>
					<path class="st4" d="M359.4,239.8c-0.6,16.5-4,32.9-4.8,49.4c-5-2.4-10.6-3.7-16.1-3.9c-5.5-0.2-10.5-0.1-15,1.1
						c1-16.9,3.5-33.6,4.8-50.4C338.5,238.3,348.9,239.6,359.4,239.8z"/>
					<path class="st0" d="M351.2,239.4c-0.8,15.7-3,31.4-4.1,47.1c2.6,0.6,5.1,1.5,7.5,2.7c0.8-16.5,4.2-32.9,4.8-49.4
						C356.6,239.7,353.9,239.6,351.2,239.4z"/>
					<g>
						<path class="st3" d="M467.9,85c-10-25.9-26-48.7-50.3-62.8C395.2,9.1,367.8-0.5,341.5,3.3c-47.6,2-94.3,35.6-106.5,82.4
							c-12.4,47.7,6.8,100.7,46.9,129.3c12.7,9.1,27.1,15.7,42.2,19.8c-1.3,17.6-4,35.1-5,52.7c0,0.1,0,0.3,0,0.4
							c-4.7,2.2-8.5,6.1-11.1,12.5c-18.1,44.3-18.5,94.3-24.2,141.1c-1.3,13.6-4.5,30.8,1.7,43.7c5.7,12,23.7,13.5,35.4,14.5
							c7,0.6,14.2,1.5,20.2-2.6c5.6-3.8,9-10.3,11.4-16.5c6.4-16.5,8.2-34.8,9.8-52.3c2.1-23.3,4.3-46.6,6.4-69.9
							c0.9-10.2,1.2-20.4,1-30.6c-0.1-8,1-17.6-2-25.2c-1.8-4.5-4.8-8-8.5-10.7l0,0c0.6-17.4,4.3-34.6,4.9-52
							c21.9-0.4,43.6-5.9,62.7-16.5c20.7-11.6,38.5-29.6,46.4-52.2C482.7,143.3,478.3,111.9,467.9,85z M364.8,318
							c0.2,8.7,0.4,17.5,0.1,26.2c-0.6,18.3-3,36.6-4.6,54.8c-1.5,16.9-2.4,34.1-5.1,50.9c-2.2,13.5-4.5,32.9-15.5,42.4
							c-6.8,5.8-19.6,3.2-27.7,1.7c-7.4-1.3-18-2.7-22.1-9.7c-6.8-11.8-2.9-30-1.8-42.8c4.3-35.3,5.7-71.3,14.1-106
							c1.7-7.2,3.6-14.5,5.8-21.7c2.5-8.4,4.7-19.6,14-22.7c0.1,0,0.2-0.1,0.3-0.1c9.9-3,23.7-2.3,32.8,3.7c1.2,0.8,2.3,1.6,3.3,2.6
							C364.6,303,364.6,310.1,364.8,318z M354.5,289.2c-5-2.4-10.6-3.7-16.1-3.9c-5.5-0.2-10.5-0.1-15,1.1c1-16.9,3.5-33.6,4.8-50.4
							c10.1,2.4,20.6,3.7,31,3.8C358.7,256.3,355.4,272.6,354.5,289.2z M472.7,153.1c-3.6,24.4-17.3,44.8-37.2,59.2
							c-21.4,15.4-47.5,23-73.8,23.1c-11.6,0-23.1-1.4-34.3-4.2c-9.7-2.4-19.1-5.9-27.9-10.5c-42.5-21.9-67.7-68.2-63.3-115.9
							c4.9-53.3,52.5-94.7,105.4-96.8c0.2,0,0.4,0,0.5-0.1l0,0c23.6-3.6,48.1,4.8,68.7,15.8c19.8,10.6,35,26.4,45.3,46.2
							C469.3,94.9,476.9,124.7,472.7,153.1z"/>
						<path class="st3" d="M414.7,50.6c-14.5-14.3-32.7-21.8-52.8-23.5c-0.1,0-0.1,0-0.2,0c-21-2.2-40.9,4.7-59.4,14.3
							c-18.2,9.4-33.6,26.2-41.8,44.9c-16.5,37.5,2.7,79.3,32.8,103.5c30.1,24.2,76.3,35.3,112.9,20c17.6-7.4,29.5-20.9,36.4-37.1
							c9-21.2,9.6-46.8,3.5-68.9C440.6,84,429.4,65.1,414.7,50.6z M438.9,171.2c-4.7,11.1-12,20.9-22.4,28.1
							C385,221,337.7,213.4,307,194.1c-31.2-19.5-54.9-56.3-46.3-94.1c4.7-20.8,20-39.8,37.7-51.2c18.5-11.8,41.5-19.6,63.5-17.2
							c34.4,2.9,59.4,26.1,73.7,56.6C446.9,112.3,449.8,145.4,438.9,171.2z"/>
						<path class="st3" d="M364.4,49.1c-0.2,0-0.4,0.1-0.6,0.1c-0.2,0.1-0.4,0.2-0.6,0.3c-6.9,2.9-10.1,11.3-5.9,17.8
							c4.3,6.6,13.3,6.9,18.6,1.3c3.2-3.5,3.3-8.8,1.7-13C375.3,49.8,370,48,364.4,49.1z M373.9,63.4c-1.2,3.9-6.7,5.9-10.2,4
							c-5.8-3.1-4.7-11.7,1.3-13.8c3.3-0.8,6.5-0.4,8.1,2.9C374.1,58.4,374.5,61.2,373.9,63.4z"/>
						<path class="st3" d="M308.4,62.5C290.5,73,278,90.1,273.6,110.3c0,0.1,0,0.2,0,0.3c-1.1,5.7-1.8,15.1,3.6,19
							c4.2,3,10,0.9,12.8-3c2.2-3,2.7-6.5,3.5-10c1.1-4.8,2.7-9.3,5.1-13.6c4.5-8.2,11.1-15.1,18.6-20.8c5.3-4,11.1-7.5,17.1-10.1
							c5-2.2,9.2-4,9.4-10.4C343.8,45.2,314.9,58.7,308.4,62.5z M333.6,67.6c-2.1,1.1-4.4,1.9-6.5,3c-10.6,5.6-20.4,13.3-27.7,22.9
							c-4.1,5.4-7.4,11.5-9.3,18c-1.1,3.6-1,9.2-3.5,12.3c-3.3,4-7.7,2.8-8.9-2c-0.8-3.3-0.5-6.9,0.1-10.2
							c3.9-17.9,14.4-33.1,29.9-43.3c6.6-4.3,18.9-11.4,27.3-9.8C342.5,59.8,337.6,65.5,333.6,67.6z"/>
					</g>
				</g>
			</g>
		</g>
	</g>
</g>
</svg>
