<?xml version="1.0" encoding="utf-8"?>
<!-- Generator: Adobe Illustrator 24.1.0, SVG Export Plug-In . SVG Version: 6.00 Build 0)  -->
<svg version="1.1" id="Capa_1" xmlns="http://www.w3.org/2000/svg" xmlns:xlink="http://www.w3.org/1999/xlink" x="0px" y="0px"
	 viewBox="0 0 512 512" style="enable-background:new 0 0 512 512;" xml:space="preserve">
<style type="text/css">
	.st0{fill:#FFBE58;}
	.st1{fill:#FFD696;}
	.st2{fill:#333333;}
	.st3{fill:#F25A5A;}
	.st4{fill:#E6E6E6;}
</style>
<g>
	<g id="XMLID_2_">
		<g>
			<path class="st0" d="M213.6,79.1c0.5,3.5-2.8,18.5-4.2,22.9c-1.3,4.2-3.3,7.6-6.1,10.9c-2.7,3.2-4.6,6-7.5,9
				c-3.1,3.1-5.2,7.4-5.6,11.8c-0.2,2.2,0.4,4.5-0.8,6.3c-0.7,1-1.3,2.6-4.2,2.6c-4.8,0-14.8,0.9-20.1,0.9c-6.8,0.2-19-1.7-22.2-1.7
				c-2.4,0-3.3-3.6-3.8-6s-0.7-4.9-1.8-7.1c-1.1-2.2-3-3.9-4.8-5.6c-8.8-8.7-14.5-20.1-18.2-32c-1.3-4.2-0.4-21.3,3.4-28.2
				c2.8-5,5.8-9.6,9.3-14.1c3.7-4.7,8.9-7.8,14.1-10.7c5.1-2.8,14.7-5,20.5-5.7c10.1-1.1,19.1-0.3,30.7,8
				c7.3,5.2,13.2,10.9,16.7,21.2C211.3,68.3,212.9,74.4,213.6,79.1z"/>
		</g>
	</g>
	<path class="st1" d="M210.5,66.2c-0.5-1.5-1-3-1.5-4.6c-3.6-10.3-9.5-16-16.7-21.2c-11.6-8.3-20.6-9.2-30.7-8
		c-5.8,0.6-15.4,2.9-20.5,5.7c-5.3,2.9-10.4,6-14.1,10.7c-3.5,4.5-6.5,9.1-9.3,14.1c-3.9,6.9-4.8,24-3.4,28.2
		c3.7,11.8,9.4,23.2,18.2,32c1.8,1.7,3.7,3.4,4.8,5.6c1.1,2.2,1.3,4.7,1.8,7.1c0.6,2.4,1.4,6,3.8,6c1,0,2.9,0.2,5.2,0.4
		c0.3-5.6-0.2-12.7-3.9-16.9c-20.6-23.6-24.8-55.4-6.2-70.6C157.9,38.3,188.9,38.2,210.5,66.2z"/>
	<g>
		<path class="st2" d="M168.5,29.9c-11.9-0.1-24.4,3.2-34.3,9.8C116.9,51,106.4,76,113.6,96c2.7,7.4,6.2,14.7,10.9,21.1
			c2.1,2.9,4.6,5.4,7,8.1c3.7,4,4.3,7.8,5.8,12.6c0.6,1.9,1.2,3.1,2.1,4c-1.8,1.7-2.7,4.2-1.2,6.6l0.1,0.1c-3.3,4.2-1.8,6.7,1.8,8.3
			c-5.4,7.8,5.5,9.5,16.2,9.7c0.2,1.6,0.4,3.4,1.1,4.8c1,2,3.7,2.2,5.7,2.1c2.3,0,5.5-0.2,7.5-1.4s2.3-4,2.4-6.3
			c5.1-0.2,14.1,0.5,17.8-3.5c1.9-2,1.3-4.2-0.2-5.8c2.9-1.5,3.9-3.9,1.2-7.6c1.2-1.9,0.8-4.3-1.6-6.6c0.4-0.4,0.8-0.9,1.1-1.6
			c1.4-2.8,0.6-5.7,1.3-8.7c1-5.1,4.7-8.4,7.9-12.2c4-4.7,8.1-9.4,10.4-15.3c7.6-19.8,6-44.1-9.8-59.7
			C192.4,36.3,180.9,30,168.5,29.9z M144.9,144c6.7,0.8,13.4,1.6,20.1,1.6c5.9,0,11.9-0.5,17.8-0.8c1.7-0.1,3.2-0.2,4.5-0.6
			c4.5,4.2-8,5.2-11.1,5.3c-3.7,0.1-7.5,0-11.3-0.1c-4.1-0.1-8.1-0.3-12.2-0.5c-1.9-0.1-16.6-2.4-10.4-5.3
			C143.2,143.7,144,143.9,144.9,144z M156.4,116.9c-0.4-7.6-0.2-15.5-1.9-23c3.3-1,6.5-2.6,9-4.4c2.7,2.3,6,4.1,9.3,5
			c-4.2,14.6-3.4,32.1-2.5,46.7c-1.8,0-3.6-0.1-5.2-0.1c-2.5,0-4.9-0.1-7.4-0.3C157.3,132.9,156.8,124.9,156.4,116.9z M161.5,82.1
			c-1.6-2.7-2.9-7.3,0.1-9.8c3.6-2.9,5.8,0.6,6.3,3.9c0.6,3.5-1.1,6.7-3.9,9.2C163.1,84.4,162.2,83.3,161.5,82.1z M178.5,155.8
			c-4.5,0.2-9.1,0-13.6,0c-3.9,0-7.7-0.1-11.6-0.3c-2.7-0.1-15.7,0.2-12.3-4.9c5.3,2.6,15.4,1.6,19.5,1.8c8.6,0.3,18.1,1.3,26.6-0.7
			c0.9-0.2,1.6-0.5,2.3-0.8C191.8,155.2,180.4,155.7,178.5,155.8z M168,169.5c-1.4,0.5-3.5,0.7-4.9,0.7c-1.3,0-2.3,0.1-2.9-0.9
			c-0.4-0.7-0.5-1.8-0.6-2.8c4-0.1,7.7-0.3,10.2-0.5C169.6,167.4,169.3,169,168,169.5z M179.6,162.1c-3.7,0.3-7.4,0.5-11.1,0.7
			c-3.6,0.2-7.1,0.4-10.7,0.4c-1.2,0-18.3,0.2-14.6-5c0.1-0.1,0.2-0.2,0.2-0.4c7.3,1.7,18.4,1.2,21.5,1.2c2.5,0,14.6,0.7,22.3-1.3
			C192,160.4,181,162,179.6,162.1z M208.4,97.2c-1.5,6.3-4.2,10.9-8.2,16c-3.4,4.2-7.8,8.1-10.1,13c-2.6,5.4-1,12.4-8,14.3
			c-2.5,0.7-5.5,0.9-8.5,0.9c-0.5-8.6-0.6-17.2,0-25.8c0.4-6.4,0.7-13.7,2.4-20.3c0.8,0.1,1.6,0.2,2.4,0.2
			c6.6-0.1,17.9-5.1,14.3-13.9c-1.1-2.8-4.7-3.4-7.4-3c-5.5,0.7-8.8,6-10.7,10.7c-0.3,0.7-0.6,1.5-0.8,2.2c-0.9-0.2-1.7-0.5-2.4-0.9
			c-1.8-0.8-3.6-1.9-5.1-3.2c6-5.4,8.5-13.9,0.7-19.4c-5.7-4-11.1,5.3-10.3,10.3c0.6,3.4,2.3,6.6,4.7,9.2c-2.3,1.5-5,2.6-7.7,3.3
			c-2.1-6.7-6.6-14.9-14.8-12c-5,1.8-4.8,8.2-1.9,11.9c3.5,4.3,8.9,5,14.2,4c1.4,6.3,1.4,13,1.7,19.4c0.5,8.8,0.9,17.7,1.4,26.5
			c-0.9-0.1-1.9-0.2-2.8-0.3c-1.9-0.2-4.2-0.1-6-0.6c-3.8-1.1-4.1-3.4-5-7c-2.3-9.9-11.8-15.9-16.8-24.6s-8.5-17.4-7.9-27.5
			c0.7-11.2,4.6-19.9,11.4-28.8c14.4-18.9,44.9-23,63.8-9.5c10.4,7.4,15.5,17.1,18.6,29.3C212.2,80.6,210.6,88.4,208.4,97.2z
			 M177,92c0.4-1.2,0.9-2.3,1.4-3.4c2-3.9,2.9-5,7.4-5.2c3.5-0.2,5.4-0.2,3.5,3.3C186.9,91,181.7,92.4,177,92z M150.4,91.4
			c-2.6,0.3-5.1,0.3-7-0.4c-2.6-0.9-6.4-3.9-5.1-7.1c2.9-7.5,10.4,2.6,11.4,5.3C150,90,150.2,90.7,150.4,91.4z"/>
		<path class="st2" d="M234.3,41.7c-5.4,2.5-11,4.7-15.9,8.3c-1.7,1.2-0.1,4,1.6,2.8c4.9-3.5,10.5-5.8,15.9-8.3
			C237.8,43.6,236.2,40.8,234.3,41.7z"/>
		<path class="st2" d="M196.6,28.5c3.7-4.7,6.5-9.9,9.4-15.1c1-1.8-1.8-3.5-2.8-1.6c-2.8,5-5.4,10-8.9,14.4
			C193,27.8,195.3,30.1,196.6,28.5z"/>
		<path class="st2" d="M164.4,18.5c0.4-5.7,0.6-11.4,0.5-17c0-2.1-3.3-2.1-3.3,0c0,5.7-0.2,11.4-0.5,17
			C161,20.6,164.3,20.6,164.4,18.5z"/>
		<path class="st2" d="M130.5,28.6c1.2,1.7,4,0.1,2.8-1.6c-3.5-5.2-7.3-10.3-9.5-16.1c-0.7-1.9-3.9-1.1-3.1,0.9
			C123,17.9,126.9,23.2,130.5,28.6z"/>
		<path class="st2" d="M108.5,49.5c-4.9-3.6-10.2-6.5-15.9-8.8c-1.9-0.8-2.8,2.4-0.9,3.1c5.4,2.2,10.4,5,15.1,8.5
			C108.5,53.5,110.1,50.7,108.5,49.5z"/>
	</g>
</g>
<g>
	<g>
		<path class="st3" d="M308.5,321.2c0.2-5.1-1.9-11.1-2.8-16.2c-1.2-6.6-2.5-13.3-3.8-19.9c-0.6-3-2.4-7.5-2.1-10.6
			c0.3-2.6,4-5,4.3-6.8c0.1-1-1.5-4.3-2-5c-1.3-2,0.3-1-2.2-1.6c-1.8-0.5-3.9,0.4-5.8,0.1c0,0-1,0-1.6,0l0,0
			c-1.6,1.4-3.4,4.8-4.2,7.1c3.3,4.4,5.8,4.5,4.3,10.3c-2.2,8.7-4.9,17.2-7,25.9c-1.1,4.3-2.1,8.6-2.9,12.9
			c-0.9,5.2-0.5,5.3,3.4,8.3c3.1,2.3,6.5,4.7,9.2,7.5c0.2,0.2,0.3,0.3,0.4,0.4c0,0,0-0.1,0.1-0.1c1-0.7,2-1.7,2.9-2.5
			c2.7-2.4,5.3-5,8-7.4c0.4-0.4,1.3-1,1.8-1.5C308.5,322,308.5,321.6,308.5,321.2z"/>
		<path class="st2" d="M311,316.3c-1.9-11.5-4.2-22.9-6.4-34.4c-0.4-1.8-1.1-3.9-1.1-5.7c0-2.6-0.3-1.7,1.8-4.5
			c3-3.9,2.2-8.1-1-12.2c-2.2-2.8-9.2-2.6-12.4-1.6c-3.2,1.1-5.9,6.7-6.9,9.9c-0.3,0.4-0.3,1,0.1,1.5l0.1,0.1c2,2.8,4.8,4.2,4.6,6.9
			c-0.2,4.3-2.5,9.1-3.6,13.2c-3.1,11.1-6.4,22.3-7.6,33.8c-0.1,0.6,0.4,1.1,0.8,1.4c3.2,2,6.2,4.4,9.1,6.8c1.6,1.3,4,4.2,6,4.9
			c2.8,0.9,4.4-1.5,6.5-3.3c2.8-2.5,9.1-6.5,10.6-10C312.4,321.4,311.3,318.2,311,316.3z M306.8,323.6c-2.7,2.5-5.3,5-8,7.4
			c-0.9,0.8-1.8,1.9-2.9,2.5c-0.1,0-0.1,0.1-0.1,0.1c-0.1-0.1-0.2-0.3-0.4-0.4c-2.7-2.8-6.2-5.1-9.2-7.5c-4-3-4.4-3.1-3.4-8.3
			c0.8-4.3,1.8-8.6,2.9-12.9c2.2-8.7,4.9-17.2,7-25.9c1.4-5.8-1-5.9-4.3-10.3c0.8-2.3,2.6-5.7,4.2-7.1l0,0c0.6,0,1.5,0,1.6,0
			c1.8,0.3,4-0.5,5.8-0.1c2.5,0.6,0.9-0.4,2.2,1.6c0.4,0.7,2.1,4,2,5c-0.2,1.9-4,4.2-4.3,6.8c-0.3,3.1,1.5,7.5,2.1,10.6
			c1.3,6.6,2.5,13.3,3.8,19.9c0.9,5,3,11,2.8,16.2c0,0.4,0,0.8,0.1,0.9C308.1,322.6,307.3,323.2,306.8,323.6z"/>
	</g>
	<g>
		<path class="st2" d="M393.6,295.9c-16.5-18.2-36.1-34.7-55.6-49.8c18-10.3,30.5-30.4,30-51.4c-0.5-21.5-12.3-45.2-31.9-55.3
			c-10.1-5.2-23.7-6.5-34.9-6.1c-11.3,0.4-21.7,3.4-31.7,8.7c-17.3,9.2-31.4,25.1-32.2,45.5c-0.3,9,0.4,19.5,4.5,27.7
			c5.1,10.5,13.1,19.4,22.5,26.3c-11.8,4-23.2,9.3-34.5,14.5c-5.9,2.7-11.8,5.5-17.7,8.2c-2.1,1-4.2,1.9-6.3,2.8
			c-0.5,0.2-1.7,0.9-2.4,0.9c-0.6,0-0.8,0-0.9,0c0.1,0,0.3,0,0.2-0.1c-2-1.2-3.1-7.4-3.8-9.5c-1.2-3.7-2.3-7.5-3.3-11.2
			c-2.8-10.6-6.9-20.7-10.1-31.1c-3.7-12.1-9-30.5-25.9-25.1c-5.1,1.7-8.9,5.7-9.8,11c-1.6,8.7,0.5,19.7,2.1,28.3
			c3.3,17.2,10.8,33.8,15.7,50.6c3.4,11.6,8.4,26,21.8,28.3c11.7,2,23.6-4.3,33.8-9.4c3.2-1.6,6.4-3.1,9.6-4.6
			c4.3-1.9,12.7-7.6,14.8-0.7c0.7,2.5-0.4,6-0.8,8.6c-1.1,7.5-2.1,14.9-3.1,22.4c-4.1,30.8-8,61.7-11.4,92.6
			c-1.8,16.9-3.6,33.9-4.7,51c-0.5,8.1-0.6,17.4,3.4,24.8c2.2,4.2,7.2,9.2,12.3,9.1c5.8-0.1,10.3-6.5,12.7-11
			c5-9.1,8.5-19.5,11.7-29.2c6.6-19.7,7.9-41.7,17-60.5c2.8-5.7,6.7-11.5,13.7-4.5c4,4.1,5.9,10.2,7.5,15.5
			c3.4,10.9,7.3,21.7,11.1,32.5c4.3,11.9,8.6,23.9,13.1,35.7c2.6,6.8,5.1,17.1,12.5,20.3c6.4,2.8,13.1-1.5,15.9-7.3
			c4.4-9,1.6-21.8,0.8-31.3c-2-24-5.9-47.8-11-71.4c7.8-1.1,14.8-6.3,20-12c8.4-8.9,16.8-18.6,24.2-28.3
			C405.9,334,409.1,313,393.6,295.9z M391.2,345.9c-6.4,9.2-14.5,17.4-21.7,25.9c-2.8,3.3-5.7,6.7-9.1,9.5c-5.4,4.5-16.1,9.8-22,3.2
			c-7.5-8.4,9.5-23.3,14.4-29.6c5.4-6.8,12.1-13.4,16.4-20.9c4.1-7.2,4-13-2-19.1c-9.3-9.5-19.5-18.5-29.5-27.3
			c-1.3-1.1-3.9-0.5-3.7,1.5c2,24.9,3.1,49.8,5.3,74.7c0,0.3,0.1,0.5,0.2,0.8c-0.6,0.7-1.1,1.4-1.7,2c-2.7,3.3-5.1,6.3-5.3,10.8
			c-0.4,6.7,2.8,13.4,9.8,14.3c0.5,0.1,1,0.1,1.5,0.1c4.5,20.9,8.2,41.9,10.4,63.2c0.9,9.5,2.3,19.4,1.9,29c-0.1,3.4-0.4,7-2.4,9.9
			c-3.4,5.1-10,5-13.4,0c-2.8-4-4.3-9.2-6-13.7c-7.3-19.2-14.6-38.5-21.1-58c-2.3-6.8-3.8-14-7-20.4c-2.4-4.8-7.3-12.4-13.4-12.8
			c-11.5-0.6-16.1,21.2-18.2,29.1c-5.3,19.7-9,39.3-16.6,58.3c-2.6,6.5-10,29.5-20.6,18.9c-7.6-7.6-5.9-21.4-5.1-31.1
			c1.3-15.4,2.7-30.7,4.3-46c3.1-29.3,6.8-58.5,10.7-87.7c1.1-8.1,2.2-16.3,3.3-24.4c0.7-5,2.4-11,0.5-15.8
			c-4.1-10.4-24.3,2.9-30.3,5.9c-10.5,5.2-28.9,15.4-39.3,4.8c-4.9-5-7.6-13.4-9.6-19.9c-2.6-8.2-4.8-16.5-7.8-24.6
			c-5.8-16.1-11.2-32.7-10.5-50.1c0.3-6.7,4-12,11.3-11.8c6.7,0.2,10.6,5.8,12.8,11.5c2.1,5.2,3,10.9,4.9,16.3
			c1.7,5.1,3.7,10,5.3,15.1c2.8,8.5,4.5,17.3,7.6,25.7c1.1,3,2.5,9.1,6.4,9.6c2.3,0.3,5.7-1.9,7.6-2.7c5.8-2.6,11.5-5.3,17.3-8
			c13.9-6.4,27.9-13.1,42.5-17.7c1.8-0.6,2.1-2.9,0.5-4c-19.8-13-32.6-34.9-27.9-59c4.7-24.4,30.1-40.5,53.4-43.3
			c12.7-1.5,29.1-0.6,40.3,6.1c11.5,6.9,19.4,18.2,23.8,30.6c9.5,26.9-0.7,56-26.6,69.1c-1.6,0.8-1.2,2.8,0,3.7
			c16,12.2,30.8,25.6,45.4,39.4c7.8,7.3,17.4,14.8,20.6,25.5C402.3,324.3,397.9,336.3,391.2,345.9z M343.3,359.9
			c-1.8-21.8-2.9-43.7-4.6-65.5c3.8,3.5,7.6,7.1,11.4,10.7c4.8,4.5,10.4,8.7,14.7,13.7c5.8,6.6,0.8,13.3-3.7,18.8
			c-4.1,5-8.1,10.1-12.2,15.2C347.2,355.1,345.3,357.5,343.3,359.9z"/>
		<g>
			<path class="st4" d="M357.2,496.4c-3.2,4.7-9,7.7-14.7,5.3c-3-1.3-5.2-3.8-7-6.8c-12.1-0.6-25.8-0.9-40.3-0.9
				c-14.8,0-28.8,0.4-41.2,1c-2.6,3.9-6.3,7.9-10.9,8c-4.1,0.1-8.1-3.1-10.6-6.5c-17.3,1.6-28.1,4-28.1,6.5c0,5,40.7,9,90.8,9
				s90.8-4,90.8-9C386.1,500.4,375,498,357.2,496.4z"/>
		</g>
		<path class="st2" d="M276.7,170.4c-0.7,5.5-1,11.1-1,16.7c0,2.8,4.4,2.8,4.3,0c0-5.6,0.3-11.1,1-16.7
			C281.4,167.6,277,167.6,276.7,170.4z"/>
		<path class="st2" d="M317.8,172.7c-0.7,5.2-1.2,10.3-1.2,15.5c0,2.8,4.3,2.8,4.3,0c0-4.8,0.4-9.6,1.1-14.4
			C322.3,171.1,318.1,169.9,317.8,172.7z"/>
	</g>
</g>
</svg>
