<?xml version="1.0" encoding="utf-8"?>
<!-- Generator: Adobe Illustrator 24.1.0, SVG Export Plug-In . SVG Version: 6.00 Build 0)  -->
<svg version="1.1" id="Layer_1" xmlns="http://www.w3.org/2000/svg" xmlns:xlink="http://www.w3.org/1999/xlink" x="0px" y="0px"
	 viewBox="0 0 800 800" style="enable-background:new 0 0 800 800;" xml:space="preserve">
<style type="text/css">
	.st0{fill:#E6E6E6;}
	.st1{fill:#FFFFFF;}
	.st2{fill:#FFCAA6;}
	.st3{fill:#659CD0;}
	.st4{fill:#FAC5AA;}
	.st5{fill:#333333;}
	.st6{fill:#F25A5A;}
</style>
<ellipse class="st0" cx="368" cy="729.2" rx="359.8" ry="18.6"/>
<g>
	<path class="st1" d="M727.3,422.5c0,163.5-132.5,296-296,296c-40.1,0-78.3-8-113.2-22.4c-95.3-39.5-165.5-127.3-180-232.9
		c-1.8-13.3-2.8-26.9-2.8-40.7c0-163.5,132.5-296,296-296S727.3,259,727.3,422.5z"/>
	<path class="st0" d="M431.3,126.5c-15.6,0-31,1.2-46,3.6c141.6,22.1,250,144.6,250,292.4s-108.4,270.3-250,292.4
		c15,2.3,30.3,3.6,46,3.6c163.5,0,296-132.5,296-296S594.8,126.5,431.3,126.5z"/>
	<path class="st2" d="M764.3,400.6l-169,111.9c-12,8-26.6,11.1-40.9,8.9c-14.3-2.3-28.9,0.8-41,8.8l-22.6,15L364.1,358.5l31.1-134.3
		c2.4-10.4,3.6-21,3.6-31.6c0-27.3-8-54.2-23.3-77.4c-3.8-5.7-5.6-12.1-5.6-18.5c0-10.9,5.3-21.5,15-28c13.1-8.7,30.5-7.1,41.8,3.9
		l20.1,19.5c23,22.3,40.8,49.5,51.9,79.6l10.9,29.4L622.1,127c18-11.9,42.2-6.7,53.7,11.7c11.1,17.7,5.4,41.1-12,52.7
		c-0.2,0.1-0.2,0.4-0.2,0.5c0.1,0.2,0.3,0.3,0.5,0.2c4.4-1.7,9.1-2.5,13.7-2.5c7.4,0,14.7,2.1,20.9,6.2c4.3,2.8,8.1,6.5,11.1,11
		c5.8,8.8,7.5,19.1,5.6,28.6c-3,15.1-13.9,22.8-16.1,24.3c-0.4,0.3-0.5,0.8-0.2,1.1l0,0c0.2,0.3,0.7,0.4,1.1,0.2
		c3.1-0.7,6.2-1.1,9.3-1.1c7.6,0,15.2,2.2,21.6,6.3c4.4,2.8,8.2,6.5,11.2,11c11.7,17.6,6.9,41.4-10.8,53.1c-0.4,0.3-0.9,0.6-1.3,0.9
		c-0.3,0.2-0.3,0.5-0.2,0.7c0,0.1,0.1,0.1,0.1,0.1c0.2,0.2,0.5,0.2,0.8,0c11-3.7,22.9-2,32.5,4.2c4.4,2.8,8.3,6.7,11.4,11.4
		C786.7,365.1,781.9,388.9,764.3,400.6z"/>
	<path class="st1" d="M492.4,580.7l-71.3,47.2l-103,68.1c-95.3-39.5-165.5-127.3-180-232.9L257.6,384l72.7-48.2
		c8.4-5.6,19.7-3.2,25.2,5.1l142,214.4C503.1,563.8,500.8,575.1,492.4,580.7z"/>
	<path class="st3" d="M492.4,580.7l-71.3,47.2L257.6,384.1l72.7-48.2c8.4-5.6,19.7-3.2,25.2,5.1l142,214.4
		C503.1,563.8,500.8,575.1,492.4,580.7z"/>
	<g>
		<path class="st4" d="M698.8,195.7l-56.2,30.1c-8,4.3-17.9,2-23.2-5.2l44.3-28.7c0.1,0.2,0.3,0.3,0.5,0.2c4.4-1.7,9.1-2.5,13.7-2.5
			C685.3,189.5,692.6,191.6,698.8,195.7z"/>
		<path class="st4" d="M731.3,266.1l-55,29.4c-8,4.3-17.9,2.1-23.2-5.2l44.3-28.7l1.9-0.9c0.2,0.3,0.7,0.4,1.1,0.2
			c3.1-0.7,6.2-1.1,9.3-1.1C717.3,259.8,724.9,262,731.3,266.1z"/>
		<path class="st4" d="M763.6,336.1L715.1,362c-8,4.3-17.9,2-23.2-5.2l38.4-24.9c0.2,0.2,0.5,0.2,0.8,0
			C742,328.2,754,329.9,763.6,336.1z"/>
	</g>
	<g>
		<path d="M508.1,201.4L508.1,201.4L508.1,201.4L508.1,201.4z"/>
		<path class="st5" d="M784.6,377.1c2.3-11.1,0.1-22.4-6.2-31.8l0,0c-6.1-9.2-15.3-15.5-26.1-17.9l-8.3-1.8l3.9-7.5
			c7.2-13.7,6.3-30.2-2.2-43.1c-6-9.1-15.3-15.5-26-17.9l-8.3-1.9l3.9-7.5c1.9-3.5,3.2-7.3,4-11.3c2.3-11.1,0-22.4-6.2-31.8
			c-6.1-9.2-15.3-15.5-26.1-17.9l-8.3-1.8l3.9-7.5c7.2-13.7,6.3-30.2-2.2-43.1c-6.2-9.4-15.8-15.8-26.9-18.1
			c-11.1-2.3-22.4-0.1-31.8,6.2l-51.8,34.3l-3.4-1.7c-25.3-12.9-52.4-22-80.4-27.2l-2.7-0.5l-1.5-2.3c-8.9-13.4-19.1-25.8-30.4-36.8
			l-20.1-19.5c-7.2-6.9-16.7-10.5-26.2-10.5c-7.2,0-14.4,2-20.7,6.2c-8.3,5.5-14,14-16,23.8s-0.1,19.9,5.5,28.2
			c0.6,0.8,1.1,1.7,1.6,2.5l5.1,8l-9.3,1.9c-64.4,13-123.7,47.7-167,97.6c-47.3,54.5-73.3,124.3-73.3,196.5
			c0,13.9,0.9,27.7,2.8,41.2c14.4,105,84.3,195.4,182.5,236.1c36.4,15.1,75,22.7,114.7,22.7c62.9,0,123.2-19.3,174.2-55.7
			c49.9-35.7,87.3-84.9,108.1-142.4c0.4-1,0.3-2.1-0.1-3.1s-1.3-1.7-2.3-2.1c-1-0.4-2.1-0.3-3.1,0.1c-1,0.5-1.7,1.3-2.1,2.3
			c-20.2,55.9-56.6,103.8-105.2,138.5c-49.7,35.5-108.3,54.2-169.5,54.2c-31.6,0-62.6-5-92.2-14.9l-12.7-4.2l96.3-63.8l0.3-0.3
			l0.3-0.1l1.2-1h0.4l69.9-46.3c4.8-3.3,8-8.2,9.2-13.9c0.1-0.7,0.2-1.4,0.3-2.1l-82.3,54.5L302.4,443.7c-0.6-0.9-1.5-1.5-2.6-1.7
			s-2.1,0-3,0.6c-1.8,1.2-2.3,3.8-1.1,5.6l119.7,178.5l-97.7,64.7l-3.2-1.4c-44.5-19.5-83.9-50.2-113.9-88.9s-49.8-84.4-57.5-132.3
			l-0.7-4.1l114-75.2l15.7,23.4c0.8,1.1,2,1.8,3.4,1.8c0.6,0,1.4-0.1,2.2-0.7c1.9-1.2,2.4-3.8,1.1-5.6L263.1,385l69.4-45.8
			c3.1-2.1,6.9-2.8,10.6-2.1c3.7,0.8,6.9,2.9,9,6.1l142,214.4c1.5,2.3,2.3,5,2.4,7.7h8.1c0-4.3-1.3-8.5-3.7-12.2l-4.5-6.9l19.2-12.7
			c11.2-7.4,24.8-10.4,38.1-8.2c15.3,2.5,30.9-0.9,43.8-9.5l125.9-83.4l-1,13.3c-0.8,10.2-2.1,20.4-4,30.3c-0.2,1.1,0,2.1,0.6,3
			s1.5,1.5,2.6,1.7c0.3,0.1,0.5,0.1,0.8,0.1c1.9,0,3.6-1.4,4-3.3c2.8-15.3,4.5-31.1,4.9-46.9l0.1-3.4l35.2-23.3
			C775.9,397.7,782.4,388.2,784.6,377.1z M503.3,139.5c16.6,4.2,33,10,48.7,17.1l10.7,4.9l-48.8,32.3l-9.2-24.8
			c-2.5-6.7-5.5-13.6-8.8-20.3l-6.2-12.6L503.3,139.5z M356.5,335.9c-3.2-3.4-7.2-5.6-11.7-6.6c-5.8-1.2-11.8,0-16.7,3.2l-72.2,47.8
			l-1.4,1.4h-0.7l-112.5,74.5l-0.9-11c-0.6-7.6-0.9-15.3-0.9-22.8c0-70.3,25.3-138.2,71.3-191.2l0,0
			c43.6-50.2,103.4-84.3,168.5-96.1l5.2-0.9l2,4.8c10.8,26.1,13.2,55.5,6.9,82.8L365,344.7L356.5,335.9z M724.3,422.2L724.3,422.2
			l-131.3,87c-11.2,7.4-24.8,10.4-38.1,8.2c-15.3-2.5-30.9,0.9-43.8,9.5l-19.3,12.8L370.5,356.3l30.7-132.6
			c7.4-31.8,3.6-65.5-10.6-95.1l-0.1-0.3c-0.1-0.1-0.1-0.2-0.2-0.4l-0.1-0.2c-2.7-5.5-5.8-11-9.2-16.1c-9-13.5-5.2-31.9,8.3-40.8
			c11.5-7.6,26.9-6.1,36.8,3.4l20.1,19.5c22.5,21.8,40.1,48.8,51,78.1l11.1,29.8c0.1,0.3,0.2,0.4,0.3,0.5c0.6,0.9,1.5,1.5,2.6,1.7
			c1.1,0.2,2.1,0,3-0.6l112.4-74.4c7.6-5.1,16.8-6.8,25.8-5s16.7,7,21.8,14.7s6.8,16.8,5,25.8s-7,16.7-14.7,21.8l-31.4,20.8
			c0,0,0,0-0.1,0l-0.2,0.2c-1.7,1.3-2.2,3.7-1,5.5c0.6,0.9,1.5,1.5,2.6,1.7s2.1,0,3-0.6l21.8-14.4c7.6-5.1,16.8-6.8,25.8-5
			s16.7,7,21.8,14.7c5.1,7.6,6.8,16.8,5,25.8s-7,16.7-14.7,21.8l-31.5,20.9c-0.9,0.6-1.5,1.5-1.7,2.6s0,2.1,0.6,3
			c0.8,1.1,2,1.8,3.4,1.8c0.8,0,1.6-0.2,2.2-0.7l21.8-14.4c15.8-10.4,37.1-6.1,47.5,9.7c10.4,15.8,6.1,37.1-9.7,47.5l-31.5,20.9
			c-0.9,0.6-1.5,1.5-1.7,2.6s0,2.1,0.6,3c0.8,1.1,2,1.8,3.4,1.8c0.8,0,1.6-0.2,2.2-0.7l2-1.3v-3h4.5l15.3-10.1
			c7.6-5.1,16.8-6.8,25.8-5s16.7,7,21.8,14.7c5.1,7.6,6.8,16.8,5,25.8s-7,16.7-14.7,21.8L724.3,422.2z"/>
	</g>
</g>
<g>
	<g>
		<path class="st0" d="M211.3,268.2c-9.2-7.2-20.3-11.8-32-14c-0.1,32.1,7.3,64.4,23.2,91.9c6.2,10.6,13.4,20.7,21.8,29.7
			c11-14.5,16.5-32.2,16.1-49.8C240,304.5,230.5,283.1,211.3,268.2z"/>
		<path class="st0" d="M184.4,488.8c-8.1,6.3-8.8,17.5-8.8,27c0,15,2.8,30.1,6.7,44.5c0.3,1.2,0.6,2.4,1,3.7
			c2.8,10.1,6.2,20.4,10.5,30.5c4.6-9.6,8.7-19.4,12-29.6c4.2-12.9,7.2-26.4,7.1-40c-0.1-10.9-2.1-21.5-3.3-32.3
			c0-0.3-0.1-0.5-0.2-0.8c1.2-0.7,2.4-1.5,3.6-2.4c3.7-2.7,7-6,9.8-9.7C209.3,479.6,194.5,480.9,184.4,488.8z"/>
	</g>
	<g>
		<g>
			<g id="XMLID_1_">
				<g>
					<path class="st1" d="M111,697.4c-5.5,8-11.8,16.9-20.3,21.7c-5.6,3.2-16.1,4.7-20.4-1.7c-3.2-4.7,0.1-12.6,1.8-17.2
						c3.4-9.4,8-18.4,12.4-27.3C93,681.5,101.8,689.7,111,697.4z"/>
					<path class="st1" d="M191.7,521.9c0.5,14.2-2.5,28-6.8,41.5c-11.2,34.8-32.1,65.3-50.4,96.6c-10.5-9.6-22.5-19.3-28.8-31.9
						c6.7-12.8,13.6-25.6,19.4-38.8c3.3-7.5,7.3-15.9,7.5-24.3c0.2-9.6-10.2-18.1-17.7-9.5c-4.9,5.7-7.7,13.7-10.4,20.6
						c-3.2,8.3-6.3,16.9-7.7,25.6c-3.6,22.3,8.6,38.7,24.3,53.1c12.6,11.7,26.4,23.5,35.3,38.5c3.4,5.7,8.4,16.7-0.1,20.7
						c-1.2,0.6-2.5,0.8-3.8,0.8c-3.9,0-8.3-2-11.4-3.5c-15.4-7.4-28.8-19.6-41.1-31.2c-11.8-10.9-23-22.5-33-34.9
						c-35.8-44.6,11.7-99,15.4-146.6c8.7-2.8,17.2-8.8,25-13.9c1.8-1.2,3.6-2.3,5.4-3.4c-0.7,3.3-1.3,6.6-1.8,9.9
						c-0.1,1,0.1,1.8,1,2.3c4,2.6,7.7,5.8,11.3,9c2,1.7,4.9,5.5,7.5,6.4c3.5,1.2,5.7-1.8,8.3-4c3.2-2.7,10.6-7.4,13.5-11.4
						c1.9,0.7,3.9,1.3,5.9,1.9c11.1,3.4,20.7,3.5,30.3-0.9C189.8,503.6,191.4,512.7,191.7,521.9z"/>
					<path class="st1" d="M177.5,446.8c3.8,4.9,1.3,12-4.6,13.7c-6.6,1.9-14.4-1.5-21.2-1.1c-0.1,0-0.3,0-0.4,0.1
						c-4-2.2-7.7-5-10.6-6.6c-4.6-2.7-9.2-5.4-13.9-8c13.3-5.3,28.3-7.5,42.2-2.9C171.9,442.9,175.5,444.3,177.5,446.8z"/>
					<path class="st1" d="M89.1,436.5c16,2.3,30.8,10.4,44.6,18.5c9.5,5.5,23.5,18.4,34.9,11.3c4.2,0.1,8.2-0.5,11.5-3.3
						c6.4-5.4,6.1-15.7,0.3-21.2c-0.1-0.1-0.3-0.2-0.4-0.4c0.8-2.6,2.5-4.9,3.2-7.6c0.9-3.4-4.4-4.9-5.3-1.5
						c-0.6,2.1-1.7,3.9-2.6,5.9c-6.5-3.3-14.7-4.1-21.5-4.2c-3.2-0.1-6.3,0.1-9.3,0.4c-0.1-0.7-0.2-1.3-0.1-1.9
						c0-3.4-0.2-2.1,2.5-5.6c3.9-4.8,3-10.3-0.9-15.5c-2.6-3.5-11.7-3.6-15.6-2.4c-4.1,1.2-7.7,8.3-9,12.4c-0.2,0.3-0.3,0.8-0.2,1.2
						c0.1,0.4,0.2,0.8,0.5,1.1c2.2,3.2,5.6,5.5,5.6,8.3c0,2.3-0.8,4.9-1.7,7.5c-1.6,0.6-3.3,1.3-4.9,2.1
						c-9.5-4.7-19.4-8.8-29.9-10.3c0.2-0.8,0.5-1.5,0.7-2.3c1.1-3.4-4.2-4.8-5.3-1.5c-3.3,9.8-7.1,21.4-6.4,31.9
						c0.5,6.8,5.1,9.3,10.9,6c7,3.2,13.8,7.1,20.6,10.4c-2.5,1.5-4.9,3.3-7.3,5c-4,2.9-7.9,5.9-12.3,8.2c-9.9,5.2-26,8.7-33.8-1.8
						c-6.8-9.2-7.6-24.1-5.8-35.1c2.4-14.1,3.5-27.3,11.7-39.6c7.1-10.6,23.3-16.1,35.5-18.4c2.6-0.5,2.3-3.8,0.7-5
						c-21.2-16-35-42.1-32.8-68.1c0.7-8.1,3-16.2,7.1-24c15.6-29.7,53.6-42.3,85.2-38.2c29.1,3.7,53.7,27.3,59.4,56
						c0.8,3.8,1.2,7.6,1.3,11.3c0.6,26.6-14.7,52.4-37.8,65.8c-1.9,1.1-1.7,4.6,0.7,5c12.5,2.3,25.7,11.7,31.4,23.3
						c6.5,13.1,1.3,30.8-4.3,43.3c-8.3,18.5-25.6,33.2-46.5,27.7c-16.9-4.4-33.1-12.1-48.9-19.6C105,467,95.3,461,85.1,457.3
						c0-0.5,0.1-1,0.1-1.4c0.2-3.1,0.7-6.2,1.3-9.3C87.3,443.2,88.1,439.9,89.1,436.5z M171,328.6c0.4,3.5,5.9,3.5,5.5,0
						c-0.8-6.4-4.8-10.9-11.6-11.7c-6.6-0.8-13,3.8-14,10.5c-0.5,3.5,4.8,5,5.3,1.5C157.5,320.6,169.9,320.3,171,328.6z
						 M121.7,326.4c0.8,3.5,6.1,2,5.3-1.5c-1.4-6.4-6.5-10.6-13.3-10.3c-6.4,0.3-10.1,4.9-11,10.9c-0.5,3.5,4.8,5,5.3,1.5
						c0.5-3.4,1.6-6.4,5.5-6.8C118,319.8,120.8,322.3,121.7,326.4z"/>
					<path class="st6" d="M133.2,413.2c2.3,0.4,5-0.4,7.3,0.1c3.5,0.7,1.3-1.8,2.5,1.8c0.6,1.7,2.2,4.4,2.2,6.1
						c-0.1,2.9-4.7,5.1-5.4,8.7c-0.1,0.5-0.2,1.1-0.2,1.7c0,1.1,0.2,2.3,0.4,3.6c-3.5,0.6-6.9,1.6-10.3,2.7c0.2-0.7,0.4-1.4,0.6-2.1
						c2.2-7.7-0.7-7.7-4.9-13.8c1.1-2.9,3.5-7.2,5.6-9C131.1,413.1,131.8,413,133.2,413.2z"/>
					<path class="st6" d="M136.2,502c-1,0.8-2.4,2.5-3.7,3.2c-0.6-0.5-1.2-1.1-1.3-1.2c-2.8-3.7-7.9-7-11.5-9.9
						c-4.2-3.4-4.5-3.5-3.4-9c0.4-2,0.9-4.1,1.4-6.1c10.2,4.7,20.1,9.2,30.3,12.9c-0.7,0.6-1.5,1.1-1.9,1.5
						C142.9,496.3,139.5,499.2,136.2,502z"/>
					<g>
						<path class="st5" d="M164.9,316.9c-6.6-0.8-13,3.8-14,10.5c-0.5,3.5,4.8,5,5.3,1.5c1.3-8.3,13.7-8.6,14.8-0.3
							c0.4,3.5,5.9,3.5,5.5,0C175.7,322.2,171.7,317.7,164.9,316.9z"/>
						<path class="st5" d="M113.7,314.7c-6.4,0.3-10.1,4.9-11,10.9c-0.5,3.5,4.8,5,5.3,1.5c0.5-3.4,1.6-6.4,5.5-6.8
							c4.6-0.5,7.3,2,8.2,6.2c0.8,3.5,6.1,2,5.3-1.5C125.6,318.6,120.5,314.4,113.7,314.7z"/>
						<path class="st5" d="M140.6,374c6.4-0.3,10.1-4.9,11-10.9c0.5-3.5-4.8-5-5.3-1.5c-0.5,3.4-1.6,6.4-5.5,6.8
							c-4.6,0.5-7.3-2-8.2-6.2c-0.8-3.5-6.1-2-5.3,1.5C128.7,370.2,133.8,374.4,140.6,374z"/>
						<path class="st5" d="M190.6,393.1c22.9-15.8,34.8-41.6,34.2-67.1c-0.5-21.5-9.9-42.9-29.2-57.9c-41.4-32.1-119.1-13-131.7,41
							c-0.9,3.8-1.5,7.7-1.8,11.4c-2.3,26.9,9.6,51.7,30.3,69.5c-12.5,3.1-26.5,9.3-33.4,19.8c-9,13.6-12.2,31-13.2,47.1
							c-0.8,12.2,1.3,30.1,11.8,38c6.3,4.8,12.8,5.9,19.1,5c-4.2,45.8-44.9,91.6-21.5,137.7c5.2,10.2,14.1,19,21.8,27.3
							c1.2,1.2,2.3,2.5,3.5,3.7c-5.9,11.7-12.8,24-15.8,36.9c-1.5,6.3-1.8,13.4,3.8,17.7c18.3,14.2,36.8-8.4,46.7-22.4
							c9.8,7.7,21.7,17.5,34.5,19.2c1,0.1,2,0.2,2.9,0.1c8.6-0.3,14.7-7.3,13.6-16.5c-1.9-15.1-16.6-28.9-26.7-39
							c-0.3-0.3-0.6-0.6-1-0.9c18.7-32.1,40.1-63.3,51.7-99c4.2-12.9,7.2-26.4,7.1-40c-0.1-10.9-2.1-21.5-3.3-32.3
							c0-0.3-0.1-0.5-0.2-0.8c1.2-0.7,2.4-1.5,3.6-2.4c15.5-11.5,24-32.9,25.3-51.7C224,417.4,209.5,399.4,190.6,393.1z M90.7,719.1
							c-5.6,3.2-16.1,4.7-20.4-1.7c-3.2-4.7,0.1-12.6,1.8-17.2c3.4-9.4,8-18.4,12.4-27.3c8.4,8.6,17.2,16.8,26.4,24.4
							C105.5,705.3,99.2,714.2,90.7,719.1z M184.9,563.3c-11.2,34.8-32.1,65.3-50.4,96.6c-10.5-9.6-22.5-19.3-28.8-31.9
							c6.7-12.8,13.6-25.6,19.4-38.8c3.3-7.5,7.3-15.9,7.5-24.3c0.2-9.6-10.2-18.1-17.7-9.5c-4.9,5.7-7.7,13.7-10.4,20.6
							c-3.2,8.3-6.3,16.9-7.7,25.6c-3.6,22.3,8.6,38.7,24.3,53.1c12.6,11.7,26.4,23.5,35.3,38.5c3.4,5.7,8.4,16.7-0.1,20.7
							c-1.2,0.6-2.5,0.8-3.8,0.8c-3.9,0-8.3-2-11.4-3.5c-15.4-7.4-28.8-19.6-41.1-31.2c-11.8-10.8-23-22.3-33-34.8
							c-35.8-44.6,11.7-99,15.4-146.6c8.7-2.8,17.2-8.8,25-13.9c1.8-1.2,3.6-2.3,5.4-3.4c-0.7,3.3-1.3,6.6-1.8,9.9
							c-0.1,1,0.1,1.8,1,2.3c4,2.6,7.7,5.8,11.3,9c2,1.7,4.9,5.5,7.5,6.4c3.5,1.2,5.7-1.8,8.3-4c3.2-2.7,10.6-7.4,13.5-11.4
							c1.9,0.7,3.9,1.3,5.9,1.9c11.1,3.4,20.7,3.5,30.3-0.9c1.1,9.1,2.7,18.2,3,27.4C192.2,536.1,189.2,549.9,184.9,563.3z
							 M103,621.2c-0.5-1.7-0.9-3.5-1.2-5.3c-1.5-10.8,1.9-21.5,5.4-31.6c1.9-5.3,7.5-26.7,14.5-27c10.4-0.5,2.7,18.9,1.1,23
							C117.3,594.4,110.1,607.8,103,621.2z M116.3,485c0.4-2,0.9-4.1,1.4-6.1c10.2,4.7,20.1,9.2,30.3,12.9c-0.7,0.6-1.5,1.1-1.9,1.5
							c-3.3,2.9-6.6,5.8-10,8.6c-1,0.8-2.4,2.5-3.7,3.2c-0.6-0.5-1.2-1.1-1.3-1.2c-2.8-3.7-7.9-7-11.5-9.9
							C115.4,490.7,115.1,490.5,116.3,485z M210.3,463.4c-8.3,18.5-25.6,33.2-46.5,27.7c-16.9-4.4-33.1-12.1-48.9-19.6
							c-9.8-4.6-19.5-10.6-29.7-14.3c0-0.5,0.1-1,0.1-1.4c0.2-3.1,0.7-6.2,1.3-9.3c0.7-3.4,1.5-6.8,2.5-10.1
							c16,2.3,30.8,10.4,44.6,18.5c9.5,5.5,23.5,18.4,34.9,11.3c4.2,0.1,8.2-0.5,11.5-3.3c6.4-5.4,6.1-15.7,0.3-21.2
							c-0.1-0.1-0.3-0.2-0.4-0.4c0.8-2.6,2.5-4.9,3.2-7.6c0.9-3.4-4.4-4.9-5.3-1.5c-0.6,2.1-1.7,3.9-2.6,5.9
							c-6.5-3.3-14.7-4.1-21.5-4.2c-3.2-0.1-6.3,0.1-9.3,0.4c-0.1-0.7-0.2-1.3-0.1-1.9c0-3.4-0.2-2.1,2.5-5.6
							c3.9-4.8,3-10.3-0.9-15.5c-2.6-3.5-11.7-3.6-15.6-2.4c-4.1,1.2-7.7,8.3-9,12.4c-0.2,0.3-0.3,0.8-0.2,1.2
							c0.1,0.4,0.2,0.8,0.5,1.1c2.2,3.2,5.6,5.5,5.6,8.3c0,2.3-0.8,4.9-1.7,7.5c-1.6,0.6-3.3,1.3-4.9,2.1
							c-9.5-4.7-19.4-8.8-29.9-10.3c0.2-0.8,0.5-1.5,0.7-2.3c1.1-3.4-4.2-4.8-5.3-1.5c-3.3,9.8-7.1,21.4-6.4,31.9
							c0.5,6.8,5.1,9.3,10.9,6c7,3.2,13.8,7.1,20.6,10.4c-2.5,1.5-4.9,3.3-7.3,5c-4,2.9-7.9,5.9-12.3,8.2c-9.9,5.2-26,8.7-33.8-1.8
							c-6.8-9.2-7.6-24.1-5.8-35.1c2.4-14.1,3.5-27.3,11.7-39.6c7.1-10.6,23.3-16.1,35.5-18.4c2.6-0.5,2.3-3.8,0.7-5
							c-21.2-15.9-35-42-32.8-68c0.7-8.1,3-16.2,7.1-24c15.6-29.7,53.6-42.3,85.2-38.2c29.1,3.7,53.7,27.3,59.4,56
							c0.8,3.8,1.2,7.6,1.3,11.3c0.6,26.6-14.7,52.4-37.8,65.8c-1.9,1.1-1.7,4.6,0.7,5c12.5,2.3,25.7,11.7,31.4,23.3
							C221,433.2,215.9,450.9,210.3,463.4z M125.4,422.1c1.1-2.9,3.5-7.2,5.6-9c0.1,0.1,0.7-0.1,2.1,0.2c2.3,0.4,5-0.4,7.3,0.1
							c3.5,0.7,1.3-1.8,2.5,1.8c0.6,1.7,2.2,4.4,2.2,6.1c-0.1,2.9-4.7,5.1-5.4,8.7c-0.1,0.5-0.2,1.1-0.2,1.7c0,1.1,0.2,2.3,0.4,3.6
							c-3.5,0.6-6.9,1.6-10.3,2.7c0.2-0.7,0.4-1.4,0.6-2.1C132.6,428.1,129.7,428.2,125.4,422.1z M169,441.9c2.9,1,6.4,2.4,8.4,4.9
							c3.8,4.9,1.3,12-4.6,13.7c-6.6,1.9-14.4-1.5-21.2-1.1c-0.1,0-0.3,0-0.4,0.1c-4-2.2-7.7-5-10.6-6.6c-4.6-2.7-9.2-5.4-13.9-8
							C140.1,439.5,155.2,437.3,169,441.9z"/>
					</g>
				</g>
			</g>
		</g>
	</g>
</g>
</svg>
