<?xml version="1.0" encoding="utf-8"?>
<!-- Generator: Adobe Illustrator 25.0.1, SVG Export Plug-In . SVG Version: 6.00 Build 0)  -->
<svg version="1.1" id="Capa_1" xmlns="http://www.w3.org/2000/svg" xmlns:xlink="http://www.w3.org/1999/xlink" x="0px" y="0px"
	 viewBox="0 0 512 512" style="enable-background:new 0 0 512 512;" xml:space="preserve">
<g>
	<path d="M368.7,227.5c-4.3-2.5-9.8-0.9-12.3,3.4c-2.5,4.3-0.9,9.8,3.4,12.3c20.7,11.7,32.1,25.9,32.1,39.9
		c0,32-52.1,51.7-83.6,58.1c-4.9,1-8,5.7-7.1,10.6c1,4.9,5.8,8,10.6,7.1c42.1-8.5,98.1-32.9,98.1-75.8
		C410,262.3,395.3,242.5,368.7,227.5L368.7,227.5z"/>
	<path d="M210.9,360.8v30.6c0,3.3,1.8,6.4,4.8,8c2.9,1.6,6.5,1.4,9.3-0.4l54.1-36.1c2.5-1.7,4-4.5,4-7.5s-1.5-5.8-4-7.5l-54.1-36.1
		c-2.8-1.8-6.3-2-9.3-0.4c-2.9,1.6-4.8,4.6-4.8,8v23.3c-33.7-5.8-90.8-25.5-90.8-59.4c0-14,11.4-28.2,32.1-39.9
		c4.3-2.5,5.9-8,3.4-12.3c-2.5-4.3-8-5.9-12.3-3.4c-26.6,15.1-41.3,34.8-41.3,55.6C102,329.3,165.5,353.6,210.9,360.8L210.9,360.8z
		 M228.9,336l28.8,19.2l-28.8,19.2V336z"/>
	<path d="M174.8,247c0,3.4,1.9,6.5,5,8.1l72.2,36.1c1.2,0.6,2.7,1,4,1h0c1.3,0,2.7-0.3,4-1l72.2-36.1c3.1-1.5,5-4.7,5-8.1v-90.2
		c0-3.4-2-6.6-5-8.1L260,112.6c-2.5-1.3-5.5-1.3-8.1,0l-72.2,36.1c-3.1,1.5-5,4.7-5,8.1V247z M192.8,171.3l54.1,27.1v70.1
		l-54.1-27.1V171.3z M319.2,241.4L265,268.5v-70.1l54.1-27.1V241.4z M256,130.7l52,26l-52,26l-52-26L256,130.7z"/>
</g>
</svg>
