<?xml version="1.0" encoding="utf-8"?>
<!-- Generator: Adobe Illustrator 25.0.1, SVG Export Plug-In . SVG Version: 6.00 Build 0)  -->
<svg version="1.1" id="Layer_1" xmlns="http://www.w3.org/2000/svg" xmlns:xlink="http://www.w3.org/1999/xlink" x="0px" y="0px"
	 viewBox="0 0 512 512" style="enable-background:new 0 0 512 512;" xml:space="preserve">
<g id="Page-1">
	<g id="_x30_15---AR-Object-Desktop">
		<path id="Shape" d="M452.1,133.8H195.5c-21.6,0-39,17.5-39.1,39.1v223.1c0,21.6,17.5,39,39.1,39.1h256.6c21.6,0,39-17.5,39.1-39.1
			V172.8C491.1,151.2,473.7,133.8,452.1,133.8z M480,395.9c0,15.4-12.5,27.9-27.9,27.9H195.5c-15.4,0-27.9-12.5-27.9-27.9V172.8
			c0-15.4,12.5-27.9,27.9-27.9h256.6c15.4,0,27.9,12.5,27.9,27.9V395.9z"/>
		<path id="Shape_1_" d="M452.1,178.4H195.5c-9.2,0-16.7,7.5-16.7,16.7v200.8c0,9.2,7.5,16.7,16.7,16.7h256.6
			c9.2,0,16.7-7.5,16.7-16.7V195.1C468.8,185.9,461.3,178.4,452.1,178.4z M323.8,289.2L263,256.5l60.8-32.7l60.8,32.7L323.8,289.2z
			 M390.7,265.8v65.4l-61.4,33.1v-65.4L390.7,265.8z M318.2,298.9v65.4l-61.4-33.1v-65.4L318.2,298.9z M189.9,195.1
			c0-3.1,2.5-5.6,5.6-5.6h122.7v24.5l-69.6,37.5c-0.1,0-0.2,0.1-0.2,0.1c-1.7,1-2.7,2.8-2.7,4.8v46.8l-55.8,27.9V195.1z
			 M457.7,395.9c0,3.1-2.5,5.6-5.6,5.6H195.5c-3.1,0-5.6-2.5-5.6-5.6v-52.3l55.8-27.9v18.9c0,2.1,1.1,3.9,2.9,4.9l72.5,39.1
			c1.7,0.9,3.6,0.9,5.3,0l72.5-39.1c1.8-1,2.9-2.9,2.9-4.9v-18.9l55.8,27.9V395.9z M457.7,331.1l-55.8-27.9v-46.8c0-2-1-3.8-2.7-4.8
			c-0.1,0-0.2-0.1-0.2-0.1l-69.6-37.5v-24.5h122.7c3.1,0,5.6,2.5,5.6,5.6V331.1z"/>
		<circle id="Oval" cx="189.9" cy="161.6" r="5.6"/>
		<circle id="Oval_1_" cx="212.2" cy="161.6" r="5.6"/>
		<circle id="Oval_2_" cx="234.5" cy="161.6" r="5.6"/>
		<path id="Shape_2_" d="M374,167.2h78.1c3.1,0,5.6-2.5,5.6-5.6c0-3.1-2.5-5.6-5.6-5.6H374c-3.1,0-5.6,2.5-5.6,5.6
			C368.4,164.7,370.9,167.2,374,167.2z"/>
	</g>
</g>
</svg>
