<?xml version="1.0" encoding="utf-8"?>
<!-- Generator: Adobe Illustrator 25.0.1, SVG Export Plug-In . SVG Version: 6.00 Build 0)  -->
<svg version="1.1" id="Capa_1" xmlns="http://www.w3.org/2000/svg" xmlns:xlink="http://www.w3.org/1999/xlink" x="0px" y="0px"
	 viewBox="0 0 503.6 503.6" style="enable-background:new 0 0 503.6 503.6;" xml:space="preserve">
<g>
	<g>
		<g>
			<path d="M198.3,110.8c2.7,0,4.9-2.2,4.9-4.9s-2.2-4.9-4.9-4.9c-2.7,0-4.9,2.2-4.9,4.9S195.6,110.8,198.3,110.8z"/>
			<path d="M183.7,125.4c2.7,0,4.9-2.2,4.9-4.9c0-2.7-2.2-4.9-4.9-4.9c-2.7,0-4.9,2.2-4.9,4.9C178.9,123.2,181.1,125.4,183.7,125.4z
				"/>
			<path d="M125.4,154.6c2.7,0,4.9-2.2,4.9-4.9c0-2.7-2.2-4.9-4.9-4.9c-2.7,0-4.9,2.2-4.9,4.9C120.5,152.4,122.7,154.6,125.4,154.6z
				"/>
			<path d="M154.6,154.6c2.7,0,4.9-2.2,4.9-4.9c0-2.7-2.2-4.9-4.9-4.9c-2.7,0-4.9,2.2-4.9,4.9C149.7,152.4,151.9,154.6,154.6,154.6z
				"/>
			<path d="M140,140c2.7,0,4.9-2.2,4.9-4.9c0-2.7-2.2-4.9-4.9-4.9c-2.7,0-4.9,2.2-4.9,4.9C135.1,137.8,137.3,140,140,140z"/>
			<path d="M140,169.2c2.7,0,4.9-2.2,4.9-4.9c0-2.7-2.2-4.9-4.9-4.9c-2.7,0-4.9,2.2-4.9,4.9C135.1,167,137.3,169.2,140,169.2z"/>
			<path d="M183.7,154.6c2.7,0,4.9-2.2,4.9-4.9c0-2.7-2.2-4.9-4.9-4.9c-2.7,0-4.9,2.2-4.9,4.9C178.9,152.4,181.1,154.6,183.7,154.6z
				"/>
			<path d="M198.3,140c2.7,0,4.9-2.2,4.9-4.9c0-2.7-2.2-4.9-4.9-4.9c-2.7,0-4.9,2.2-4.9,4.9C193.5,137.8,195.6,140,198.3,140z"/>
			<path d="M169.2,140c2.7,0,4.9-2.2,4.9-4.9c0-2.7-2.2-4.9-4.9-4.9c-2.7,0-4.9,2.2-4.9,4.9C164.3,137.8,166.5,140,169.2,140z"/>
			<path d="M198.3,169.2c2.7,0,4.9-2.2,4.9-4.9c0-2.7-2.2-4.9-4.9-4.9c-2.7,0-4.9,2.2-4.9,4.9C193.5,167,195.6,169.2,198.3,169.2z"
				/>
			<path d="M169.2,169.2c2.7,0,4.9-2.2,4.9-4.9c0-2.7-2.2-4.9-4.9-4.9c-2.7,0-4.9,2.2-4.9,4.9C164.3,167,166.5,169.2,169.2,169.2z"
				/>
			<path d="M125.4,183.7c2.7,0,4.9-2.2,4.9-4.9c0-2.7-2.2-4.9-4.9-4.9c-2.7,0-4.9,2.2-4.9,4.9C120.5,181.6,122.7,183.7,125.4,183.7z
				"/>
			<path d="M154.6,183.7c2.7,0,4.9-2.2,4.9-4.9c0-2.7-2.2-4.9-4.9-4.9c-2.7,0-4.9,2.2-4.9,4.9C149.7,181.6,151.9,183.7,154.6,183.7z
				"/>
			<path d="M183.7,183.7c2.7,0,4.9-2.2,4.9-4.9c0-2.7-2.2-4.9-4.9-4.9c-2.7,0-4.9,2.2-4.9,4.9C178.9,181.6,181.1,183.7,183.7,183.7z
				"/>
			<path d="M125.4,212.9c2.7,0,4.9-2.2,4.9-4.9s-2.2-4.9-4.9-4.9c-2.7,0-4.9,2.2-4.9,4.9S122.7,212.9,125.4,212.9z"/>
			<path d="M110.8,188.6c-2.7,0-4.9,2.2-4.9,4.9s2.2,4.9,4.9,4.9c2.7,0,4.9-2.2,4.9-4.9S113.5,188.6,110.8,188.6z"/>
			<path d="M154.6,212.9c2.7,0,4.9-2.2,4.9-4.9s-2.2-4.9-4.9-4.9c-2.7,0-4.9,2.2-4.9,4.9S151.9,212.9,154.6,212.9z"/>
			<path d="M140,198.3c2.7,0,4.9-2.2,4.9-4.9s-2.2-4.9-4.9-4.9c-2.7,0-4.9,2.2-4.9,4.9S137.3,198.3,140,198.3z"/>
			<path d="M183.7,212.9c2.7,0,4.9-2.2,4.9-4.9s-2.2-4.9-4.9-4.9c-2.7,0-4.9,2.2-4.9,4.9S181.1,212.9,183.7,212.9z"/>
			<path d="M198.3,198.3c2.7,0,4.9-2.2,4.9-4.9s-2.2-4.9-4.9-4.9c-2.7,0-4.9,2.2-4.9,4.9S195.6,198.3,198.3,198.3z"/>
			<path d="M169.2,198.3c2.7,0,4.9-2.2,4.9-4.9s-2.2-4.9-4.9-4.9c-2.7,0-4.9,2.2-4.9,4.9S166.5,198.3,169.2,198.3z"/>
			<path d="M86.5,227.5h131.3c2.7,0,4.9-2.2,4.9-4.9V91.4c0-1.3-0.6-2.6-1.5-3.6c-1-0.9-2.3-1.4-3.7-1.3
				c-72.5,5-130.9,63.3-135.8,135.8c-0.1,1.3,0.4,2.7,1.3,3.7C83.9,226.9,85.2,227.5,86.5,227.5z M149.7,120.4c0,0.1,0,0.1,0,0.2
				c0,2.7,2.2,4.9,4.9,4.9c2.7,0,4.9-2.2,4.9-4.9c0-2.1-1.3-3.8-3.1-4.5c3.4-2.1,6.9-4,10.5-5.8c0.7,0.4,1.5,0.6,2.4,0.6
				c2.4,0,4.3-1.7,4.8-3.9c12.2-5.2,25.3-8.8,39-10.2v19c-2.7,0-4.9,2.2-4.9,4.9s2.2,4.9,4.9,4.9v19.4c-2.7,0-4.9,2.2-4.9,4.9
				c0,2.7,2.2,4.9,4.9,4.9V174c-2.7,0-4.9,2.2-4.9,4.9s2.2,4.9,4.9,4.9v19.4c-2.7,0-4.9,2.2-4.9,4.9s2.2,4.9,4.9,4.9v4.9H91.8
				c0.2-2.2,0.5-4.3,0.8-6.4c0.9,1,2.2,1.6,3.6,1.6c2.7,0,4.9-2.2,4.9-4.9s-2.2-4.9-4.9-4.9c-0.8,0-1.5,0.2-2.2,0.5
				c2.7-12.7,7.3-24.8,13.3-36c0.9,0.9,2.1,1.4,3.4,1.4c2.7,0,4.9-2.2,4.9-4.9c0-2.2-1.5-4.1-3.5-4.7
				C121.9,144.2,134.7,130.8,149.7,120.4z"/>
			<path d="M368.5,290.7c2.7,0,4.9-2.2,4.9-4.9v-29.2c0-2.7-2.2-4.9-4.9-4.9h-17.9c13.8-9.7,22.8-25.7,22.8-43.8
				c0-12.8-4.5-24.5-12-33.8c-21.8-50.4-69.2-84.1-123.8-87.8c-1.4-0.1-2.7,0.4-3.7,1.3c-1,0.9-1.5,2.2-1.5,3.5v145.8H86.9
				c-1.3,0-2.6,0.6-3.6,1.5c-0.9,1-1.4,2.3-1.3,3.6c2.2,31.7,14.3,61.1,35.1,85.2c1.8,2.1,3.9,4.3,6.8,7l7.4,7
				c2.8,2.7,5.1,4.6,7.3,6.4c25.6,19.7,56.8,30.2,89,30.2c3.8,0,7.6-0.1,11.4-0.4c0.3,0,0.6-0.1,0.9-0.1c0.7,0.3,1.4,0.5,2.2,0.5
				h116.7c2.7,0,4.9-2.2,4.9-4.9V349h4.9c2.7,0,4.9-2.2,4.9-4.9V315c0-2.7-2.2-4.9-4.9-4.9h-14.6v-19.4H368.5z M363.6,281H349h-4.9
				v-19.4h19.4V281z M315,281v-19.4h19.4V281H315z M305.3,261.5V281h-19.4v-19.4H305.3z M285.8,339.3v-19.4h19.4v19.4H285.8z
				 M266.4,310.1v-19.4h19.4v19.4H266.4z M276.1,281h-19.4v-19.4h19.4V281z M251.8,290.7h4.9v19.4h-4.9h-14.6v-19.4L251.8,290.7
				L251.8,290.7z M256.7,319.9h19.4v19.4h-19.4V319.9z M251.8,349h14.6v19.4h-19.4V349H251.8z M276.1,349h19.4v19.4h-19.4V349z
				 M305.3,349h19.4v19.4h-19.4V349z M315,339.3v-19.4h19.4v19.4H315z M295.6,310.1v-19.4H315v19.4H295.6z M319.9,251.8
				c-24.1,0-43.8-19.6-43.8-43.8s19.6-43.8,43.8-43.8s43.8,19.6,43.8,43.8S344,251.8,319.9,251.8z M144.6,340.3
				c-2-1.5-4-3.3-6.6-5.7l-7.4-7c-2.6-2.5-4.5-4.4-6.1-6.3c-18.3-21.2-29.4-46.8-32.3-74.3h145c2.7,0,4.9-2.2,4.9-4.9V96.7
				c41.8,4.4,78.6,27.8,100.6,63c-6.9-3.3-14.7-5.1-22.8-5.1c-29.5,0-53.5,24-53.5,53.5c0,18.1,9,34.1,22.8,43.8h-37.4
				c-2.7,0-4.9,2.2-4.9,4.9V281h-14.6c-2.7,0-4.9,2.2-4.9,4.9V315c0,2.7,2.2,4.9,4.9,4.9h14.6v19.4h-4.9c-2.7,0-4.9,2.2-4.9,4.9v24
				C203.9,370.5,171,360.6,144.6,340.3z M353.9,368.5h-19.4V349h19.4V368.5z M363.6,339.3h-4.9h-14.6v-19.4h4.9h14.6V339.3z
				 M344.2,310.1h-19.4v-19.4h19.4V310.1z"/>
			<path d="M319.9,183.7c5.4,0,9.7,4.4,9.7,9.7c0,2.7,2.2,4.9,4.9,4.9c2.7,0,4.9-2.2,4.9-4.9c0-10.7-8.7-19.4-19.4-19.4
				c-10.7,0-19.4,8.7-19.4,19.4c0,10.7,8.7,19.4,19.4,19.4c5.4,0,9.7,4.4,9.7,9.7c0,5.4-4.4,9.7-9.7,9.7c-5.4,0-9.7-4.4-9.7-9.7
				c0-2.7-2.2-4.9-4.9-4.9c-2.7,0-4.9,2.2-4.9,4.9c0,10.7,8.7,19.4,19.4,19.4c10.7,0,19.4-8.7,19.4-19.4s-8.7-19.4-19.4-19.4
				c-5.4,0-9.7-4.4-9.7-9.7C310.1,188.1,314.5,183.7,319.9,183.7z"/>
		</g>
	</g>
</g>
</svg>
