<?xml version="1.0" encoding="utf-8"?>
<!-- Generator: Adobe Illustrator 25.0.1, SVG Export Plug-In . SVG Version: 6.00 Build 0)  -->
<svg version="1.1" id="Layer_1" xmlns="http://www.w3.org/2000/svg" xmlns:xlink="http://www.w3.org/1999/xlink" x="0px" y="0px"
	 viewBox="0 0 512 512" style="enable-background:new 0 0 512 512;" xml:space="preserve">
<g id="Outline">
	<g>
		<path d="M272.4,380.1h-10.9v-82c0-9.1-7.3-16.4-16.4-16.4h-5.5v-38.3c0-3-2.4-5.5-5.5-5.5h-76.5c-3,0-5.5,2.4-5.5,5.5
			s2.4,5.5,5.5,5.5h71.1v92.9c0,3,2.4,5.5,5.5,5.5s5.5-2.4,5.5-5.5v-49.2h5.5c3,0,5.5,2.4,5.5,5.5v82H97.5c-3,0-5.5,2.4-5.5,5.5V402
			c0,12.1,9.8,21.9,21.9,21.9H256c12.1,0,21.9-9.8,21.9-21.9v-16.4C277.9,382.5,275.4,380.1,272.4,380.1z M266.9,402
			c0,6-4.9,10.9-10.9,10.9H113.9c-6,0-10.9-4.9-10.9-10.9V391h164V402z"/>
		<path d="M113.9,369.2c3,0,5.5-2.4,5.5-5.5v-65.6c0-3,2.4-5.5,5.5-5.5h5.5v71.1c0,3,2.4,5.5,5.5,5.5h76.5c3,0,5.5-2.4,5.5-5.5
			v-98.4c0-3-2.4-5.5-5.5-5.5h-76.5c-3,0-5.5,2.4-5.5,5.5v16.4h-5.5c-9.1,0-16.4,7.3-16.4,16.4v65.6
			C108.4,366.7,110.8,369.2,113.9,369.2z M141.2,270.8h65.6v87.5h-65.6V270.8z"/>
		<path d="M168.5,298.1h21.9c3,0,5.5-2.4,5.5-5.5c0-3-2.4-5.5-5.5-5.5h-21.9c-3,0-5.5,2.4-5.5,5.5
			C163.1,295.6,165.5,298.1,168.5,298.1z"/>
		<path d="M157.6,320h32.8c3,0,5.5-2.4,5.5-5.5c0-3-2.4-5.5-5.5-5.5h-32.8c-3,0-5.5,2.4-5.5,5.5C152.1,317.5,154.6,320,157.6,320z"
			/>
		<path d="M157.6,341.8h32.8c3,0,5.5-2.4,5.5-5.5s-2.4-5.5-5.5-5.5h-32.8c-3,0-5.5,2.4-5.5,5.5S154.6,341.8,157.6,341.8z"/>
		<path d="M168.5,221.6c3,0,5.5-2.4,5.5-5.5c0-51.3,41.6-92.9,92.9-92.9c45,0,83.5,32.2,91.5,76.5c0.5,2.9,3.3,4.9,6.3,4.4l7.2-1.2
			L359,228.7l-20.2-20.4l4.2-0.7c3-0.5,5-3.3,4.5-6.3c0,0,0-0.1,0-0.1c-8.4-44.5-51.2-73.8-95.7-65.4c-38.7,7.3-66.8,41-66.9,80.4
			c0,3,2.4,5.5,5.5,5.5c3,0,5.5-2.4,5.5-5.5c0.1-39.2,32-71,71.2-70.9c32.1,0.1,60.1,21.6,68.5,52.5l-9,1.4c-3,0.5-5,3.3-4.5,6.3
			c0.2,1.1,0.7,2.2,1.5,3l33.1,33.4c1,1,2.4,1.6,3.9,1.6c0.3,0,0.6,0,0.9-0.1c1.7-0.3,3.2-1.4,4-3l20.9-42.1c1.3-2.7,0.2-6-2.5-7.3
			c-1-0.5-2.2-0.7-3.3-0.5l-12.5,2c-13.1-55.8-69-90.5-124.8-77.4c-46.9,11-80.1,52.8-80.1,101C163.1,219.1,165.5,221.6,168.5,221.6
			z"/>
		<path d="M236,179.7c-2.1,2.2-2,5.6,0.1,7.7c2.1,2,5.5,2,7.6,0c12.8-12.8,33.6-12.8,46.4,0c2.1,2.2,5.6,2.2,7.7,0.1
			s2.2-5.6,0.1-7.7c0,0-0.1-0.1-0.1-0.1C280.8,162.6,253.1,162.6,236,179.7z"/>
		<path d="M266.9,188.8c-5.8,0-11.4,2.3-15.5,6.4c-2.1,2.1-2.1,5.6,0,7.7c2.1,2.1,5.6,2.1,7.7,0c4.3-4.1,11.1-4.1,15.5,0
			c2.2,2.1,5.6,2,7.7-0.1c2-2.1,2-5.5,0-7.6C278.3,191,272.7,188.7,266.9,188.8z"/>
		<circle cx="266.9" cy="216.1" r="5.5"/>
		<circle cx="327.1" cy="287.2" r="5.5"/>
		<circle cx="348.9" cy="287.2" r="5.5"/>
		<path d="M392.7,374.6V309c0-3-2.4-5.5-5.5-5.5h-54.7c-3,0-5.5,2.4-5.5,5.5v65.6c0,3,2.4,5.5,5.5,5.5h54.7
			C390.2,380.1,392.7,377.6,392.7,374.6z M381.7,369.2H338v-54.7h43.7V369.2z"/>
		<path d="M354.4,336.4h10.9c3,0,5.5-2.4,5.5-5.5c0-3-2.4-5.5-5.5-5.5h-10.9c-3,0-5.5,2.4-5.5,5.5
			C348.9,333.9,351.4,336.4,354.4,336.4z"/>
		<path d="M354.4,358.2h10.9c3,0,5.5-2.4,5.5-5.5c0-3-2.4-5.5-5.5-5.5h-10.9c-3,0-5.5,2.4-5.5,5.5
			C348.9,355.8,351.4,358.2,354.4,358.2z"/>
		<path d="M348.9,391c-3,0-5.5,2.4-5.5,5.5c0,3,2.4,5.5,5.5,5.5h21.9c3,0,5.5-2.4,5.5-5.5c0-3-2.4-5.5-5.5-5.5H348.9z"/>
		<path d="M414.5,309c3,0,5.5-2.4,5.5-5.5v-16.4c0-15.1-12.2-27.3-27.3-27.3h-65.6c-15.1,0-27.3,12.2-27.3,27.3v109.3
			c0,15.1,12.2,27.3,27.3,27.3h65.6c15.1,0,27.3-12.2,27.3-27.3v-71.1c0-3-2.4-5.5-5.5-5.5c-3,0-5.5,2.4-5.5,5.5v71.1
			c0,9.1-7.3,16.4-16.4,16.4h-65.6c-9.1,0-16.4-7.3-16.4-16.4V287.2c0-9.1,7.3-16.4,16.4-16.4h65.6c9.1,0,16.4,7.3,16.4,16.4v16.4
			C409.1,306.6,411.5,309,414.5,309z"/>
	</g>
</g>
</svg>
