<?xml version="1.0" encoding="utf-8"?>
<!-- Generator: Adobe Illustrator 25.0.1, SVG Export Plug-In . SVG Version: 6.00 Build 0)  -->
<svg version="1.1" id="Capa_1" xmlns="http://www.w3.org/2000/svg" xmlns:xlink="http://www.w3.org/1999/xlink" x="0px" y="0px"
	 viewBox="0 0 512 512" style="enable-background:new 0 0 512 512;" xml:space="preserve">
<g id="XMLID_1226_">
	<path id="XMLID_1263_" d="M166.9,129.4v253.2h254V129.4H166.9z M406,367.7H181.8V144.3H406V367.7z"/>
	<path id="XMLID_1267_" d="M200.6,170.3c3.9,0,7.6-3.4,7.5-7.5c-0.2-4-3.3-7.5-7.5-7.5c-3.9,0-7.6,3.4-7.5,7.5
		C193.4,166.9,196.5,170.3,200.6,170.3z"/>
	<path id="XMLID_1268_" d="M387.5,170.3c3.9,0,7.6-3.4,7.5-7.5c-0.2-4-3.3-7.5-7.5-7.5c-3.9,0-7.6,3.4-7.5,7.5
		C380.3,166.9,383.4,170.3,387.5,170.3z"/>
	<path id="XMLID_1270_" d="M200.6,358.2c3.9,0,7.6-3.4,7.5-7.5c-0.2-4-3.3-7.5-7.5-7.5c-3.9,0-7.6,3.4-7.5,7.5
		C193.4,354.8,196.5,358.2,200.6,358.2z"/>
	<path id="XMLID_1271_" d="M387.5,358.2c3.9,0,7.6-3.4,7.5-7.5c-0.2-4-3.3-7.5-7.5-7.5c-3.9,0-7.6,3.4-7.5,7.5
		C380.3,354.8,383.4,358.2,387.5,358.2z"/>
	<path id="XMLID_1274_" d="M309.1,290.9v-43.1h45.3v-14.9h-59.2v7.5c0,5.3-4.3,9.6-9.6,9.6s-9.6-4.3-9.6-9.6c0-3.2,1.5-6.1,4.1-7.9
		h7.1v-14.9h-7.1c-2.6-1.8-4.1-4.7-4.1-7.9c0-5.3,4.3-9.6,9.6-9.6c5.2,0,9.5,4.2,9.6,9.4l0.1,7.3h58.5V202h-45
		c-3.3-9.7-12.5-16.8-23.2-16.8c-13.5,0-24.5,11-24.5,24.5c0,5.6,2,11,5.4,15.3c-3.4,4.3-5.4,9.7-5.4,15.3c0,3.5,0.8,6.9,2.1,9.9
		v40.5c-9.9,3.2-17,12.4-17,23.3c0,13.5,11,24.5,24.5,24.5c5.6,0,11-2,15.3-5.4c4.3,3.4,9.7,5.4,15.3,5.4c13.5,0,24.5-11,24.5-24.5
		C325.9,303.4,318.8,294.2,309.1,290.9L309.1,290.9z M301.4,323.7c-3.2,0-6.1-1.6-7.9-4.1v-7.1h-14.9v7.1c-1.8,2.6-4.7,4.1-7.9,4.1
		c-5.3,0-9.6-4.3-9.6-9.6c0-5.3,4.3-9.6,9.6-9.6h7.5v-40.9c2.4,0.8,4.9,1.2,7.5,1.2c3,0,5.9-0.5,8.5-1.5v41.1l7.3,0.1
		c5.2,0.1,9.4,4.4,9.4,9.6C311,319.4,306.7,323.7,301.4,323.7L301.4,323.7z"/>
	<path id="XMLID_1275_" d="M331.7,276.7v64.6h14.9v-64.6c0-0.1,0-0.1,0.1-0.1h15.4v-14.9h-15.4C338.5,261.7,331.7,268.4,331.7,276.7
		L331.7,276.7z"/>
	<path id="XMLID_1283_" d="M236.4,225.3c0-28.4,23.1-51.4,51.4-51.4h74.3v-14.9h-74.3c-36.6,0-66.3,29.8-66.3,66.3v116h14.9
		L236.4,225.3L236.4,225.3z"/>
</g>
</svg>
