<?xml version="1.0" encoding="utf-8"?>
<!-- Generator: Adobe Illustrator 25.0.1, SVG Export Plug-In . SVG Version: 6.00 Build 0)  -->
<svg version="1.1" id="Capa_1" xmlns="http://www.w3.org/2000/svg" xmlns:xlink="http://www.w3.org/1999/xlink" x="0px" y="0px"
	 viewBox="0 0 512 512" style="enable-background:new 0 0 512 512;" xml:space="preserve">
<g>
	<path d="M232.5,155.5h-8.7v-8.7c0-4.3-3.4-7.7-7.7-7.7s-7.7,3.4-7.7,7.7v8.7h-8.7c-4.3,0-7.7,3.4-7.7,7.7s3.4,7.7,7.7,7.7h8.7v8.7
		c0,4.3,3.4,7.7,7.7,7.7s7.7-3.4,7.7-7.7v-8.7h8.7c4.3,0,7.7-3.4,7.7-7.7S236.7,155.5,232.5,155.5z"/>
	<path d="M322.9,207.9h57.5c4.3,0,7.7-3.4,7.7-7.7c0-4.3-3.4-7.7-7.7-7.7h-57.5c-4.3,0-7.7,3.4-7.7,7.7
		C315.2,204.5,318.6,207.9,322.9,207.9z"/>
	<path d="M322.9,240.8h57.5c4.3,0,7.7-3.4,7.7-7.7s-3.4-7.7-7.7-7.7h-57.5c-4.3,0-7.7,3.4-7.7,7.7S318.6,240.8,322.9,240.8z"/>
	<path d="M413.3,114.4H264.6l-9.4-13.2c-1.4-2-3.8-3.2-6.3-3.2h-82.2c-4.3,0-7.7,3.4-7.7,7.7v246.6c0,4.3,3.4,7.7,7.7,7.7h246.6
		c4.3,0,7.7-3.4,7.7-7.7c0-22.6,0-203.8,0-230.1C421,117.9,417.6,114.4,413.3,114.4z M307.7,344.6H207.3v-16.2
		c0-44.8,54.3-66.9,85.7-35.5c9.5,9.5,14.7,22.1,14.7,35.5L307.7,344.6L307.7,344.6z M236.3,241.5c0-11.7,9.5-21.3,21.3-21.3
		c11.7,0,21.3,9.5,21.3,21.3c0,11.7-9.5,21.3-21.3,21.3C245.8,262.8,236.3,253.2,236.3,241.5z M405.6,344.6h-82.4v-16.2
		c0-27.4-16.7-50.6-40.2-60.5c23.7-22.9,7.3-63-25.5-63c-32.7,0-49.2,40.1-25.4,63c-23.6,10-40.2,33.3-40.2,60.5v16.2h-17.5V113.4
		H245l38.8,54.3c1.4,2,3.8,3.2,6.3,3.2h115.6L405.6,344.6z M405.6,155.5H294l-18.3-25.7h130V155.5z"/>
</g>
</svg>
