<?xml version="1.0" encoding="utf-8"?>
<!-- Generator: Adobe Illustrator 25.0.1, SVG Export Plug-In . SVG Version: 6.00 Build 0)  -->
<svg version="1.1" id="Capa_1" xmlns="http://www.w3.org/2000/svg" xmlns:xlink="http://www.w3.org/1999/xlink" x="0px" y="0px"
	 viewBox="0 0 512 512" style="enable-background:new 0 0 512 512;" xml:space="preserve">
<g>
	<g>
		<path d="M458.3,268.5l-31.1-62.2c-1.6-3.3-5-5.4-8.7-5.4h-73.3v-21.4c0-5.3-4.3-9.7-9.7-9.7h-53.2c-4.8-38-37.3-67.4-76.5-67.4
			c-42.5,0-77.1,34.6-77.1,77.1v186.7c0,5.3,4.3,9.7,9.7,9.7h43.4c4.4,17.8,20.5,31.1,39.6,31.1c19.2,0,35.3-13.3,39.6-31.1h66
			c4.4,17.8,20.5,31.1,39.6,31.1s35.3-13.3,39.6-31.1h43.4c5.3,0,9.7-4.3,9.7-9.7v-93.4C459.4,271.4,459,269.9,458.3,268.5z
			 M205.9,121.7c31.8,0,57.7,25.9,57.7,57.7s-25.9,57.7-57.7,57.7s-57.7-25.9-57.7-57.7S174.1,121.7,205.9,121.7z M221.5,387.7
			c-11.8,0-21.4-9.6-21.4-21.4c0-11.8,9.6-21.4,21.4-21.4c11.8,0,21.4,9.6,21.4,21.4C242.9,378,233.3,387.7,221.5,387.7z
			 M325.9,356.5h-64.8c-4.4-17.8-20.5-31.1-39.6-31.1c-19.2,0-35.3,13.3-39.6,31.1h-33.7v-126c14.1,16,34.8,26.1,57.7,26.1
			c39.2,0,71.7-29.5,76.5-67.4h43.5V356.5z M345.3,220.3h67.3l21.4,42.9h-88.8V220.3z M366.7,387.7c-11.8,0-21.4-9.6-21.4-21.4
			c0-11.8,9.6-21.4,21.4-21.4c11.8,0,21.4,9.6,21.4,21.4C388.1,378,378.5,387.7,366.7,387.7z M440,356.5h-33.7v0
			c-4.4-17.8-20.5-31.1-39.6-31.1c-7.9,0-15.2,2.2-21.4,6.1v-49H440V356.5z"/>
	</g>
</g>
<g>
	<g>
		<path d="M228.4,169.8h-12.8V157c0-5.3-4.3-9.7-9.7-9.7c-5.3,0-9.7,4.3-9.7,9.7v22.5c0,5.3,4.3,9.7,9.7,9.7h22.5
			c5.3,0,9.7-4.3,9.7-9.7S233.7,169.8,228.4,169.8z"/>
	</g>
</g>
</svg>
