<?xml version="1.0" encoding="utf-8"?>
<!-- Generator: Adobe Illustrator 25.0.1, SVG Export Plug-In . SVG Version: 6.00 Build 0)  -->
<svg version="1.1" id="_x31__x2C_5" xmlns="http://www.w3.org/2000/svg" xmlns:xlink="http://www.w3.org/1999/xlink" x="0px"
	 y="0px" viewBox="0 0 512 512" style="enable-background:new 0 0 512 512;" xml:space="preserve">
<path d="M112.9,211.7c-2,0-3.9-0.7-5.5-2c-2.1-1.8-51-44.1-51-87.6c0-31.5,25.3-57.2,56.5-57.2s56.5,25.6,56.5,57.2
	c0,43.5-48.9,85.8-51,87.6C116.8,211,114.9,211.7,112.9,211.7z M112.9,81.9c-21.8,0-39.5,18-39.5,40.2c0,28,27.5,57.9,39.5,69.6
	c12-11.7,39.5-41.6,39.5-69.6C152.4,99.9,134.7,81.9,112.9,81.9L112.9,81.9z"/>
<path d="M112.9,144c-12.5,0-22.6-10.1-22.6-22.6s10.1-22.6,22.6-22.6s22.6,10.1,22.6,22.6S125.4,144,112.9,144z M112.9,115.7
	c-3.1,0-5.6,2.5-5.6,5.6s2.5,5.6,5.6,5.6s5.6-2.5,5.6-5.6S116,115.7,112.9,115.7z"/>
<path d="M319,335.9c-4.7,0-8.5-3.8-8.5-8.5V197.6c0-4.7,3.8-8.5,8.5-8.5s8.5,3.8,8.5,8.5v129.9C327.5,332.1,323.7,335.9,319,335.9z"
	/>
<path d="M319,268.2h-84.7c-3.2,0-6.1-1.8-7.5-4.6c-1.4-2.8-1.2-6.2,0.7-8.8l19-26.1l-19-26.1c-1.9-2.6-2.1-6-0.7-8.8
	s4.4-4.6,7.5-4.6H319c4.7,0,8.5,3.8,8.5,8.5c0,4.7-3.8,8.5-8.5,8.5h-68.1l12.8,17.6c2.2,3,2.2,7,0,10l-12.8,17.6H319
	c4.7,0,8.5,3.8,8.5,8.5C327.5,264.4,323.7,268.2,319,268.2z"/>
<path d="M319,335.9H96c-21.8,0-39.5-17.7-39.5-39.5s17.7-39.5,39.5-39.5h67.8c12.5,0,22.6-10.1,22.6-22.6s-10.1-22.6-22.6-22.6h-48
	c-4.7,0-8.5-3.8-8.5-8.5s3.8-8.5,8.5-8.5h48c21.8,0,39.5,17.7,39.5,39.5s-17.7,39.5-39.5,39.5H96c-12.5,0-22.6,10.1-22.6,22.6
	S83.5,319,96,319h223c4.7,0,8.5,3.8,8.5,8.5S323.7,335.9,319,335.9z"/>
</svg>
