<?xml version="1.0" encoding="utf-8"?>
<!-- Generator: Adobe Illustrator 25.0.1, SVG Export Plug-In . SVG Version: 6.00 Build 0)  -->
<svg version="1.1" id="Layer_1" xmlns="http://www.w3.org/2000/svg" xmlns:xlink="http://www.w3.org/1999/xlink" x="0px" y="0px"
	 viewBox="0 0 512 512" style="enable-background:new 0 0 512 512;" xml:space="preserve">
<g id="Page-1">
	<g id="_x30_07---AR-Phone-Camera">
		<path id="Shape" d="M94.7,294.4l54.5,37.6v108c0,13.1,10.6,23.7,23.7,23.7h166.1c13.1,0,23.7-10.6,23.7-23.7v-108l54.5-37.6
			c4.8-3.3,7.7-8.8,7.7-14.7s-2.9-11.3-7.7-14.7l-54.5-37.6v-96.1c0-13.1-10.6-23.7-23.7-23.7H172.9c-13.1,0-23.7,10.6-23.7,23.7
			v96.1l-54.5,37.6c-4.8,3.3-7.7,8.8-7.7,14.7C87,285.6,89.9,291.1,94.7,294.4z M362.8,241.9l47.7,32.9c1.6,1.1,2.6,2.9,2.6,4.9
			s-1,3.8-2.6,4.9l-47.7,32.9V241.9z M301.6,119.5l-7.6,8.1c-2.2,2.4-5.4,3.7-8.7,3.7h-58.7c-3.3,0-6.4-1.4-8.7-3.7l-7.6-8.1H301.6z
			 M161.1,233.7l2.3-1.6c2-1.4,2.9-3.8,2.4-6.1c-0.5-2.3-2.4-4.2-4.7-4.6v-90c0-6.6,5.3-11.9,11.9-11.9h21.2l15.2,16.2
			c4.5,4.8,10.8,7.5,17.3,7.5h58.7c6.6,0,12.8-2.7,17.3-7.5l15.2-16.2h21.2c6.6,0,11.9,5.3,11.9,11.9v90c-2.4,0.4-4.2,2.2-4.7,4.6
			c-0.5,2.3,0.5,4.8,2.4,6.1l2.3,1.6v92l-91.6,63.2c-2,1.4-4.7,1.4-6.7,0l-91.6-63.1V233.7z M161.1,340.1l84.8,58.5
			c6.1,4.2,14.1,4.2,20.2,0l84.8-58.5v70.1c0,6.6-5.3,11.9-11.9,11.9H172.9c-6.6,0-11.9-5.3-11.9-11.9L161.1,340.1z M161.1,430.7
			c3.6,2.1,7.7,3.3,11.9,3.3h166.1c4.2,0,8.3-1.2,11.9-3.3v9.2c0,6.6-5.3,11.9-11.9,11.9H172.9c-6.6,0-11.9-5.3-11.9-11.9
			L161.1,430.7z M101.5,274.9l47.7-32.9v75.6l-47.7-32.9c-1.6-1.1-2.6-2.9-2.6-4.9C98.9,277.8,99.9,276,101.5,274.9L101.5,274.9z"/>
		<path id="Shape_1_" d="M217,193.9c1.2,0,2.4-0.4,3.4-1.1l11.4-7.9c1.8-1.2,2.8-3.2,2.7-5.4s-1.5-4-3.4-5c-2-0.9-4.2-0.7-6,0.6
			l-11.4,7.8c-2.1,1.5-3.1,4.2-2.3,6.7S214.4,193.9,217,193.9L217,193.9z"/>
		<path id="Shape_2_" d="M190.8,198.8l-11.4,7.9c-2.6,1.9-3.3,5.5-1.4,8.2c1.8,2.7,5.5,3.4,8.2,1.6l11.4-7.9
			c2.6-1.9,3.3-5.5,1.4-8.2C197.2,197.7,193.5,197,190.8,198.8L190.8,198.8z"/>
		<path id="Shape_3_" d="M254.5,169.3l1.5-1l1.5,1c2.7,1.8,6.3,1.1,8.1-1.6s1.2-6.3-1.4-8.2l-4.9-3.4c-2-1.4-4.7-1.4-6.7,0l-4.9,3.4
			c-2.6,1.9-3.2,5.5-1.4,8.2C248.2,170.4,251.8,171.1,254.5,169.3L254.5,169.3z"/>
		<path id="Shape_4_" d="M291.7,192.9c2.7,1.8,6.3,1.1,8.2-1.6c1.8-2.7,1.2-6.3-1.4-8.2l-11.4-7.8c-1.7-1.4-4.1-1.6-6.1-0.7
			s-3.4,2.9-3.5,5.1c-0.1,2.2,1,4.3,2.9,5.4L291.7,192.9z"/>
		<path id="Shape_5_" d="M325.8,216.4c1.7,1.2,4,1.4,5.9,0.5c1.9-0.9,3.2-2.8,3.4-4.9c0.2-2.1-0.8-4.2-2.5-5.4l-11.4-7.9
			c-2.7-1.8-6.3-1.1-8.2,1.6c-1.8,2.7-1.2,6.3,1.4,8.2L325.8,216.4z"/>
		<path id="Shape_6_" d="M256,315.3c1.1,0,2.2-0.3,3.1-0.9l47.5-29.7c1.7-1.1,2.8-3,2.8-5v-53.4c0-2-1.1-3.9-2.8-5l-47.5-29.7
			c-1.9-1.2-4.4-1.2-6.3,0l-47.5,29.7c-1.7,1.1-2.8,3-2.8,5v53.4c0,2,1.1,3.9,2.8,5l47.5,29.7C253.8,315,254.9,315.3,256,315.3z
			 M297.5,276.4l-35.6,22.3v-39.4l35.6-22.3V276.4z M256,203.7l36.3,22.7L256,249l-36.3-22.7L256,203.7z M250.1,298.7l-35.6-22.3
			V237l35.6,22.3V298.7z"/>
	</g>
</g>
</svg>
