<?xml version="1.0" encoding="utf-8"?>
<!-- Generator: Adobe Illustrator 25.0.1, SVG Export Plug-In . SVG Version: 6.00 Build 0)  -->
<svg version="1.1" id="Layer_1" xmlns="http://www.w3.org/2000/svg" xmlns:xlink="http://www.w3.org/1999/xlink" x="0px" y="0px"
	 viewBox="0 0 512 512" style="enable-background:new 0 0 512 512;" xml:space="preserve">
<g id="Page-1">
	<g id="_x30_04---AR-Maps" transform="translate(0 -1)">
		<path id="Shape" d="M24.5,224.3c1.7,1.5,4.1,1.8,6.2,1s3.6-2.7,3.9-5c0.3-2.2-0.6-4.5-2.4-5.8l-4.1-3.2c-0.1-2.3-1.5-4.4-3.7-5.3
			s-4.6-0.6-6.4,0.8l-1.7,1.3c-1.5,1.2-2.4,3-2.4,4.9c0,1.9,0.9,3.7,2.4,4.9L24.5,224.3z"/>
		<path id="Shape_1_" d="M41.4,202.4c1.4,0,2.8-0.5,3.9-1.4l6.1-4.8v33.7c-2.7-1.8-6.4-1.2-8.4,1.5c-2,2.6-1.5,6.3,1,8.5l7.4,5.9
			v42.1c-0.1,9.9,5.8,18.8,14.9,22.7c3.2,1.5,6.6,2.2,10.1,2.2h59.6l8.1,6.4c2.7,2.1,6.6,1.7,8.7-1c1.2-1.5,1.6-3.5,1.1-5.4h95.4
			c-0.2,2.5,1.1,4.8,3.2,6c2.2,1.2,4.9,1,6.8-0.6l6.9-5.4h59.6c13.8,0,24.9-11.2,24.9-24.9v-44c0.1,0,0.1,0,0.2,0
			c1.4,0,2.8-0.5,3.9-1.3l9.8-7.7c2.7-2.1,3.1-6.1,1-8.8c-2.1-2.7-6.1-3.1-8.8-1l-6.1,4.8v-33.6c2.8,1.7,6.4,1,8.3-1.6
			s1.5-6.2-0.9-8.4l-7.4-5.9v-42.1c0-1.4-0.1-2.8-0.4-4.2c-2-12-12.4-20.8-24.5-20.8h-59.6l-6.9-5.4c-2-1.5-4.6-1.8-6.8-0.6
			c-2.2,1.2-3.5,3.5-3.2,6h-22.6c-16-8.3-35.1-8.3-51.1,0h-21.6c0.5-1.9,0.1-3.9-1.1-5.4c-2.1-2.7-6-3.1-8.7-1l-8.1,6.4H76.3
			c-13.8,0-24.9,11.2-24.9,24.9v44.1c-1.5-0.1-2.9,0.4-4.1,1.2l-9.8,7.8c-2.1,1.6-2.9,4.4-2,6.9C36.4,200.7,38.8,202.4,41.4,202.4
			L41.4,202.4z M90.3,300.3L195,242.9c1.9,0.7,4,1.1,6,1.1c0.7,0,1.5-0.1,2.2-0.2l49.9,56.5L90.3,300.3z M269.7,300.3l-55-62.3
			c0.2-0.2,0.4-0.3,0.5-0.5c2.5-2.9,5-6,7.6-9.2l63.5,72H269.7z M307,287.8c0.1,4.3-2.1,8.3-5.6,10.7l-67.7-76.8l73.3-40.2V287.8z
			 M307,167.3l-66.2,36.2c4.2-6.4,7.9-13.2,11.1-20.2l55.1-30.2V167.3z M316.1,125.7h9.6c6.2,0,11.5,4.6,12.3,10.7
			c0.1,0.6,0.2,1.2,0.1,1.7v149.6c0,6.9-5.6,12.5-12.5,12.5h-9.6c2.2-3.8,3.3-8.1,3.3-12.5V138.2
			C319.4,133.8,318.3,129.5,316.1,125.7z M295.5,125.7c6.6,0.3,11.7,5.9,11.4,12.5v0.8l-50.1,27.4c0.1-1.1,0.2-2.2,0.2-3.3
			c0-13.8-5.1-27.1-14.4-37.4H295.5z M201,119.5c24.1,0,43.6,19.5,43.6,43.6c0,12.7-14.5,37.5-38.9,66.2c-1.2,1.3-2.9,2.1-4.7,2.1
			c-1.8,0-3.5-0.8-4.7-2.1c-24.4-28.7-38.9-53.5-38.9-66.2C157.4,139,176.9,119.5,201,119.5z M63.9,177.5l8.5,8
			c2.5,2.4,3.9,5.7,3.9,9.1v36.8c0,3.4-1.4,6.7-3.9,9.1l-8.5,8V177.5z M63.9,265.6l17-16c5-4.7,7.9-11.3,7.9-18.2v-36.8
			c0-6.9-2.9-13.5-7.9-18.2l-17.1-16v-22.2c0-6.9,5.6-12.5,12.5-12.5h83c-9.3,10.3-14.4,23.6-14.4,37.4c0,14.2,10.9,33.5,23.9,51.5
			l-105,57.5V265.6z M63.9,286.4l112.5-61.7c2.6,3.4,5.3,6.7,7.9,9.8L69,297.7c-3.2-2.3-5.1-6-5.1-9.9L63.9,286.4z"/>
		<path id="Shape_2_" d="M162.5,325.9c-1,1.3-1.5,2.9-1.3,4.6c0.2,1.6,1,3.1,2.3,4.2l9.8,7.7c1.7,1.4,4.1,1.7,6.2,0.9
			c2.1-0.8,3.5-2.7,3.9-4.9c0.3-2.2-0.5-4.4-2.3-5.8l-9.8-7.7c-1.3-1-2.9-1.5-4.6-1.3C165.1,323.7,163.6,324.6,162.5,325.9
			L162.5,325.9z"/>
		<path id="Shape_3_" d="M202.6,347.1l-1.6,1.2l-0.4-0.3c-1.7-1.4-4.1-1.8-6.2-1c-2.1,0.8-3.6,2.7-3.9,4.9c-0.3,2.2,0.6,4.5,2.4,5.8
			l4.3,3.4c2.3,1.8,5.5,1.8,7.7,0l5.5-4.4c1.8-1.4,2.7-3.6,2.4-5.8c-0.3-2.2-1.8-4.1-3.9-4.9C206.7,345.3,204.4,345.6,202.6,347.1
			L202.6,347.1z"/>
		<path id="Shape_4_" d="M231.9,323.9l-9.8,7.7c-2.6,2.2-3,6-0.9,8.7c2.1,2.7,5.9,3.1,8.6,1.1l9.7-7.7c1.8-1.4,2.7-3.6,2.4-5.8
			c-0.3-2.2-1.8-4.1-3.9-4.9C236,322.1,233.6,322.5,231.9,323.9L231.9,323.9z"/>
		<path id="Shape_5_" d="M377.5,201.7c-1.7-1.5-4.1-1.8-6.2-1c-2.1,0.8-3.6,2.7-3.9,5c-0.3,2.2,0.6,4.5,2.4,5.8l4.1,3.2
			c0.1,2.3,1.5,4.4,3.7,5.3c2.1,1,4.6,0.6,6.4-0.8l1.7-1.3c1.5-1.2,2.4-3,2.4-4.9s-0.9-3.7-2.4-4.9L377.5,201.7z"/>
		<path id="Shape_6_" d="M167.4,102.5c1.4,0,2.8-0.5,3.9-1.3l9.8-7.7c1.7-1.4,2.6-3.6,2.3-5.8c-0.3-2.2-1.8-4.1-3.9-4.9
			c-2.1-0.8-4.4-0.5-6.2,0.9l-9.8,7.7c-2.1,1.6-2.9,4.4-2,6.9C162.4,100.8,164.8,102.5,167.4,102.5z"/>
		<path id="Shape_7_" d="M200.6,77.9l0.4-0.3l1.6,1.3c1.7,1.5,4.1,1.9,6.3,1.1s3.6-2.7,3.9-5c0.3-2.3-0.6-4.5-2.5-5.9l-5.5-4.4
			c-2.3-1.8-5.5-1.8-7.7,0l-4.3,3.4c-1.8,1.4-2.7,3.6-2.4,5.8s1.8,4.1,3.9,4.9C196.5,79.7,198.8,79.3,200.6,77.9L200.6,77.9z"/>
		<path id="Shape_8_" d="M231.9,102.1c1.7,1.5,4.2,1.9,6.3,1.1s3.7-2.7,4-5c0.3-2.3-0.7-4.5-2.6-5.9l-9.7-7.7
			c-2.7-2.1-6.6-1.7-8.8,1s-1.7,6.6,1,8.8L231.9,102.1z"/>
		<path id="Shape_9_" d="M201,188.1c13.8,0,24.9-11.2,24.9-24.9s-11.2-24.9-24.9-24.9s-24.9,11.2-24.9,24.9S187.2,188.1,201,188.1z
			 M201,150.7c6.9,0,12.5,5.6,12.5,12.5c0,6.9-5.6,12.5-12.5,12.5c-6.9,0-12.5-5.6-12.5-12.5C188.5,156.2,194.1,150.7,201,150.7z"/>
	</g>
</g>
</svg>
