<?xml version="1.0" encoding="utf-8"?>
<!-- Generator: Adobe Illustrator 25.0.1, SVG Export Plug-In . SVG Version: 6.00 Build 0)  -->
<svg version="1.1" id="Capa_1" xmlns="http://www.w3.org/2000/svg" xmlns:xlink="http://www.w3.org/1999/xlink" x="0px" y="0px"
	 viewBox="0 0 512 512" style="enable-background:new 0 0 512 512;" xml:space="preserve">
<path d="M383.1,168.5c4.4,0,7.9-3.5,7.9-7.9v-31.6c0-4.4-3.5-7.9-7.9-7.9h-31.6c-4.4,0-7.9,3.5-7.9,7.9v7.9H168.5v-7.9
	c0-4.4-3.5-7.9-7.9-7.9h-31.6c-4.4,0-7.9,3.5-7.9,7.9v31.6c0,4.4,3.5,7.9,7.9,7.9h7.9v175.1h-7.9c-4.4,0-7.9,3.5-7.9,7.9v31.6
	c0,4.4,3.5,7.9,7.9,7.9h31.6c4.4,0,7.9-3.5,7.9-7.9v-7.9h175.1v7.9c0,4.4,3.5,7.9,7.9,7.9h31.6c4.4,0,7.9-3.5,7.9-7.9v-31.6
	c0-4.4-3.5-7.9-7.9-7.9h-7.9V168.5H383.1z M359.4,136.8h15.8v15.8h-15.8V136.8z M136.8,136.8h15.8v15.8h-15.8V136.8z M152.6,375.2
	h-15.8v-15.8h15.8V375.2z M375.2,375.2h-15.8v-15.8h15.8V375.2z M359.4,343.5h-7.9c-4.4,0-7.9,3.5-7.9,7.9v7.9H168.5v-7.9
	c0-4.4-3.5-7.9-7.9-7.9h-7.9V168.5h7.9c4.4,0,7.9-3.5,7.9-7.9v-7.9h175.1v7.9c0,4.4,3.5,7.9,7.9,7.9h7.9V343.5z"/>
<path d="M325,303.5l-62-121.6c-1.4-2.6-4.1-4.3-7-4.3s-5.7,1.7-7,4.3l-62,121.6c0,0,0,0,0,0.1c-1.4,2.7-2.1,5.5-2.1,8.3
	c0,24.6,46.1,31.6,71.2,31.6c25.1,0,71.2-7,71.2-31.6C327.2,309,326.5,306.3,325,303.5C325.1,303.6,325.1,303.6,325,303.5z
	 M256,202.9l42.4,83.1c-12.8-3.9-28.1-5.7-42.4-5.7s-29.6,1.8-42.4,5.8L256,202.9z M256,327.7c-27.5,0-55.4-8.6-55.4-15.8
	c0-0.3,0.1-0.6,0.3-1c3.3-6,23-14.8,55.1-14.8s51.8,8.8,55.1,14.8c0.2,0.4,0.3,0.7,0.3,1C311.4,319.2,283.6,327.7,256,327.7z"/>
</svg>
