<?xml version="1.0" encoding="utf-8"?>
<!-- Generator: Adobe Illustrator 25.0.1, SVG Export Plug-In . SVG Version: 6.00 Build 0)  -->
<svg version="1.1" id="Layer_1" xmlns="http://www.w3.org/2000/svg" xmlns:xlink="http://www.w3.org/1999/xlink" x="0px" y="0px"
	 viewBox="0 0 512 512" style="enable-background:new 0 0 512 512;" xml:space="preserve">
<g id="Page-1">
	<g id="_x30_06---AR-Phone-Projection">
		<path id="Shape" d="M336.9,314.2c-5.6-8.3-14.9-13.2-24.9-13.1h-18.8l64.3-98.3c1.1-1.7,1.3-3.9,0.4-5.7c-0.9-1.8-2.7-3-4.8-3.1
			c-2-0.1-4,0.9-5,2.6l-94.1,143.9h-84L75.8,196.6c-1.1-1.7-3-2.7-5-2.6c-2,0.1-3.8,1.3-4.8,3.1s-0.8,4,0.4,5.7l64.3,98.3h-18.8
			c-10-0.1-19.3,4.8-24.9,13.1l-41.2,62.2c-1.8,2.7-2.8,5.9-2.8,9.1v22.5c0,9.3,7.6,16.9,16.9,16.9H364c9.3,0,16.9-7.6,16.9-16.9
			v-22.5c0-3.2-1-6.4-2.8-9.1L336.9,314.2z M131.1,312.3h6.9l24.1,36.9c1,1.6,2.8,2.6,4.7,2.6h90.1c1.9,0,3.7-1,4.7-2.6l24.1-36.9
			h12.5l5.4,12.3l-1.7,0.9c-7.5,3.8-11.1,12.5-8.5,20.5l6,18.1c2,6,7.1,10.3,13.3,11.4l14.1,2.4l5.9,13.5H96.6L131.1,312.3z
			 M55.1,382.7l41.2-62.3c3.5-5.1,9.3-8.2,15.5-8.1h7l-34.5,78.9H60.5c-3.3,0.2-6.1-2.3-6.3-5.6C54.1,384.5,54.5,383.5,55.1,382.7z
			 M369.6,408.1c0,3.1-2.5,5.6-5.6,5.6H59.8c-3.1,0-5.6-2.5-5.6-5.6v-6.8c2,0.8,4.2,1.2,6.3,1.2h302.8c2.2,0,4.3-0.4,6.3-1.2V408.1z
			 M363.3,391.2h-18.2l-9.2-20.9c-0.9-2.1-2.9-3.4-5.2-3.4l-16.2-2.7c-2.1-0.3-3.8-1.8-4.4-3.8l-6-18.1c-0.9-2.7,0.3-5.6,2.8-6.9
			l4.9-2.5c1.7-0.3,3.2-1.3,4.1-2.8s0.9-3.4,0.2-5l-5.6-12.9h1.4c6.2-0.1,12,2.9,15.5,8.1l41.2,62.4c0.6,0.8,0.9,1.8,0.9,2.8
			C369.4,388.9,366.6,391.4,363.3,391.2L363.3,391.2z"/>
		<path id="Shape_1_" d="M206.2,188.4c0,3.1,2.5,5.6,5.6,5.6c3.1,0,5.6-2.5,5.6-5.6v-13.5l19.6-10.5c2.7-1.5,3.8-4.9,2.3-7.6
			c-1.5-2.7-4.9-3.8-7.6-2.3l-19.9,10.7L192,154.4c-2.7-1.5-6.2-0.4-7.6,2.3c-1.5,2.7-0.4,6.2,2.3,7.6l19.6,10.6V188.4z"/>
		<path id="Shape_2_" d="M136,215.9l73.2,39.4c1.7,0.9,3.7,0.9,5.3,0l73.2-39.4c1.8-1,3-2.9,3-5v-78.9c0-2-1-3.8-2.7-4.8
			c-0.1,0-0.2-0.1-0.2-0.1l-73.2-39.4c-1.7-0.9-3.7-0.9-5.3,0L136,127.1c-0.1,0-0.2,0.1-0.2,0.1c-1.7,1-2.7,2.9-2.7,4.8v78.9
			C133,213,134.1,214.9,136,215.9L136,215.9z M144.3,141.5l14.2,7.7c2.7,1.5,6.2,0.4,7.6-2.3s0.4-6.2-2.3-7.6l-13.3-7.1l61.3-33
			l61.3,33l-13.3,7.2c-2.7,1.5-3.8,4.9-2.3,7.6c1.5,2.7,4.9,3.8,7.6,2.3l14.2-7.7v66.1l-62,33.4v-18.7c0-3.1-2.5-5.6-5.6-5.6
			c-3.1,0-5.6,2.5-5.6,5.6v18.7l-62-33.4V141.5z"/>
	</g>
</g>
</svg>
