<?xml version="1.0" encoding="utf-8"?>
<!-- Generator: Adobe Illustrator 25.0.1, SVG Export Plug-In . SVG Version: 6.00 Build 0)  -->
<svg version="1.1" id="Capa_1" xmlns="http://www.w3.org/2000/svg" xmlns:xlink="http://www.w3.org/1999/xlink" x="0px" y="0px"
	 viewBox="0 0 512 512" style="enable-background:new 0 0 512 512;" xml:space="preserve">
<g>
	<g>
		<circle cx="401" cy="180.8" r="8"/>
	</g>
</g>
<g>
	<g>
		<path d="M424.9,212.7c9.7-7.3,16-18.9,16-31.9c0-22-17.9-39.8-39.8-39.8H208.7c-22,0-39.8,17.9-39.8,39.8c0,13,6.3,24.6,16,31.9
			c-9.7,7.3-16,18.9-16,31.9c0,19.6,14.2,36,32.9,39.2v65.4h-25c-4.4,0-8,3.6-8,8v15.9c0,22,17.9,39.8,39.8,39.8h64.8h31.9
			c22,0,39.8-17.9,39.8-39.8v-88.7H401c22,0,39.8-17.9,39.8-39.8C440.9,231.6,434.6,220,424.9,212.7z M401,156.9
			c13.2,0,23.9,10.7,23.9,23.9c0,13.2-10.7,23.9-23.9,23.9s-23.9-10.7-23.9-23.9S387.8,156.9,401,156.9z M184.8,244.6
			c0-13.2,10.7-23.9,23.9-23.9h1.1c-5,6.7-8,14.9-8,23.9v22.9C192,264.5,184.8,255.4,184.8,244.6z M273.5,397.1h-64.8
			c-13.2,0-23.9-10.7-23.9-23.9v-8h80.8v8C265.6,382.1,268.5,390.4,273.5,397.1L273.5,397.1z M329.3,244.6v128.6
			c0,13.2-10.7,23.9-23.9,23.9s-23.9-10.7-23.9-23.9v-15.9c0-4.4-3.6-8-8-8h-55.8v-69.6V277v-32.4c0-13.2,10.7-23.9,23.9-23.9h95.6
			C332.3,227.4,329.3,235.6,329.3,244.6z M369.2,268.5h-23.9v-23.9c0-13.2,10.7-23.9,23.9-23.9h0c-5,6.7-8,14.9-8,23.9
			S364.2,261.8,369.2,268.5z M369.2,204.8H208.7c-13.2,0-23.9-10.7-23.9-23.9s10.7-23.9,23.9-23.9h160.5c-5,6.7-8,14.9-8,23.9
			S364.2,198.1,369.2,204.8z M401,268.5c-13.2,0-23.9-10.7-23.9-23.9s10.7-23.9,23.9-23.9s23.9,10.7,23.9,23.9
			S414.2,268.5,401,268.5z"/>
	</g>
</g>
<g>
	<g>
		<circle cx="401" cy="244.6" r="8"/>
	</g>
</g>
</svg>
