<?xml version="1.0" encoding="utf-8"?>
<!-- Generator: Adobe Illustrator 25.0.1, SVG Export Plug-In . SVG Version: 6.00 Build 0)  -->
<svg version="1.1" id="Capa_1" xmlns="http://www.w3.org/2000/svg" xmlns:xlink="http://www.w3.org/1999/xlink" x="0px" y="0px"
	 viewBox="0 0 512 512" style="enable-background:new 0 0 512 512;" xml:space="preserve">
<g>
	<g>
		<path d="M320.7,120c-3.3,0-5.9,2.6-5.9,5.9s2.6,5.9,5.9,5.9s5.9-2.6,5.9-5.9S324,120,320.7,120z"/>
	</g>
</g>
<g>
	<g>
		<path d="M320.7,363c-3.3,0-5.9,2.6-5.9,5.9s2.6,5.9,5.9,5.9s5.9-2.6,5.9-5.9S324,363,320.7,363z"/>
	</g>
</g>
<g>
	<g>
		<path d="M238.1,268.6c-3.3,0-5.9,2.6-5.9,5.9c0,3.3,2.6,5.9,5.9,5.9c3.3,0,5.9-2.6,5.9-5.9C244,271.3,241.4,268.6,238.1,268.6z"/>
	</g>
</g>
<g>
	<g>
		<path d="M238.1,304c-3.3,0-5.9,2.6-5.9,5.9s2.6,5.9,5.9,5.9c3.3,0,5.9-2.6,5.9-5.9S241.4,304,238.1,304z"/>
	</g>
</g>
<g>
	<g>
		<path d="M238.1,339.4c-3.3,0-5.9,2.6-5.9,5.9c0,3.3,2.6,5.9,5.9,5.9c3.3,0,5.9-2.6,5.9-5.9C244,342.1,241.4,339.4,238.1,339.4z"/>
	</g>
</g>
<g>
	<g>
		<path d="M155.5,120c-3.3,0-5.9,2.6-5.9,5.9s2.6,5.9,5.9,5.9c3.3,0,5.9-2.6,5.9-5.9S158.8,120,155.5,120z"/>
	</g>
</g>
<g>
	<g>
		<path d="M155.5,363c-3.3,0-5.9,2.6-5.9,5.9s2.6,5.9,5.9,5.9c3.3,0,5.9-2.6,5.9-5.9S158.8,363,155.5,363z"/>
	</g>
</g>
<g>
	<g>
		<path d="M332.5,96.4H143.7c-9.8,0-17.7,7.9-17.7,17.7v266.7c0,9.8,7.9,17.7,17.7,17.7h188.8c9.8,0,17.7-7.9,17.7-17.7V114.1
			C350.2,104.3,342.3,96.4,332.5,96.4z M338.4,380.7c0,3.3-2.6,5.9-5.9,5.9H143.7c-3.3,0-5.9-2.6-5.9-5.9V114.1
			c0-3.3,2.6-5.9,5.9-5.9h188.8c3.3,0,5.9,2.6,5.9,5.9V380.7z"/>
	</g>
</g>
<g>
	<g>
		<path d="M297.1,147.1h-118c-9.8,0-17.7,7.9-17.7,17.7c0,7.5,0,51.7,0,59c0,9.8,7.9,17.7,17.7,17.7h118c9.8,0,17.7-7.9,17.7-17.7
			c0,0,0,0,0,0v-59C314.8,155,306.9,147.1,297.1,147.1z M179.1,229.7c-3.3,0-5.9-2.6-5.9-5.9v-9.4l29.5-29.5
			c6.9,6.9,37.8,37.8,44.8,44.8H179.1z M297.1,229.7h-33l-11.8-11.8l21.2-21.2l29.1,29.1C301.8,228.1,299.7,229.7,297.1,229.7z
			 M303,209.5l-25.3-25.3c-2.3-2.3-6-2.3-8.3,0L244,209.5l-37.1-37.1c-2.3-2.3-6-2.3-8.3,0l-25.3,25.3v-33c0-3.3,2.6-5.9,5.9-5.9
			h118c3.3,0,5.9,2.6,5.9,5.9V209.5z"/>
	</g>
</g>
<g>
	<g>
		<path d="M214.5,268.6h-47.2c-3.3,0-5.9,2.6-5.9,5.9c0,3.3,2.6,5.9,5.9,5.9h47.2c3.3,0,5.9-2.6,5.9-5.9
			C220.4,271.3,217.8,268.6,214.5,268.6z"/>
	</g>
</g>
<g>
	<g>
		<path d="M214.5,304h-47.2c-3.3,0-5.9,2.6-5.9,5.9s2.6,5.9,5.9,5.9h47.2c3.3,0,5.9-2.6,5.9-5.9S217.8,304,214.5,304z"/>
	</g>
</g>
<g>
	<g>
		<path d="M214.5,339.4h-47.2c-3.3,0-5.9,2.6-5.9,5.9c0,3.3,2.6,5.9,5.9,5.9h47.2c3.3,0,5.9-2.6,5.9-5.9
			C220.4,342.1,217.8,339.4,214.5,339.4z"/>
	</g>
</g>
<g>
	<g>
		<path d="M308.9,268.6h-47.2c-3.3,0-5.9,2.6-5.9,5.9c0,3.3,2.6,5.9,5.9,5.9h47.2c3.3,0,5.9-2.6,5.9-5.9
			C314.8,271.3,312.2,268.6,308.9,268.6z"/>
	</g>
</g>
<g>
	<g>
		<path d="M308.9,304h-47.2c-3.3,0-5.9,2.6-5.9,5.9s2.6,5.9,5.9,5.9h47.2c3.3,0,5.9-2.6,5.9-5.9S312.2,304,308.9,304z"/>
	</g>
</g>
<g>
	<g>
		<path d="M308.9,339.4h-47.2c-3.3,0-5.9,2.6-5.9,5.9c0,3.3,2.6,5.9,5.9,5.9h47.2c3.3,0,5.9-2.6,5.9-5.9
			C314.8,342.1,312.2,339.4,308.9,339.4z"/>
	</g>
</g>
</svg>
