<?xml version="1.0" encoding="utf-8"?>
<!-- Generator: Adobe Illustrator 25.0.1, SVG Export Plug-In . SVG Version: 6.00 Build 0)  -->
<svg version="1.1" id="outline" xmlns="http://www.w3.org/2000/svg" xmlns:xlink="http://www.w3.org/1999/xlink" x="0px" y="0px"
	 viewBox="0 0 512 512" style="enable-background:new 0 0 512 512;" xml:space="preserve">
<path d="M118.9,342.9v6.5c0,16.4,13.3,29.7,29.7,29.7h5.9v41.6c0,3.3,2.7,5.9,5.9,5.9c0,0,0,0,0,0h29.7c3.3,0,5.9-2.7,5.9-5.9
	c0,0,0,0,0,0v-21.5l50.2-55.8h80.6c16.4,0,29.7-13.3,29.7-29.7v-13.6c0-14.7-3.3-29.2-9.5-42.4l-10.8,5.1
	c5.5,11.7,8.4,24.4,8.4,37.4v13.6c0,9.8-8,17.8-17.8,17.8h-11.9v-35.7c0-1.9-0.9-3.6-2.4-4.8L289,273.3c-1-0.8-2.3-1.2-3.6-1.2
	h-17.8V284h15.9l19.8,14.9v32.7H226v-29.7l14.3,10.7c1,0.8,2.3,1.2,3.6,1.2h29.7v-11.9h-27.8l-16.7-12.5l18.9-18.9l-8.4-8.4
	l-23.8,23.8c-1.1,1.1-1.7,2.6-1.7,4.2v41.6h-89.2c-9.8,0-17.8-8-17.8-17.8v-13.6c0-1.4,0-2.8,0.1-4.2h21.2l16.1,16.1
	c1.1,1.1,2.6,1.7,4.2,1.7h29.7v-11.9h-19.2l10.7-17.8h20.4v-11.9h-23.8c-2.1,0-4,1.1-5.1,2.9l-13.9,23.2L135,285.7
	c-1.1-1.1-2.6-1.7-4.2-1.7h-22.3c2.5-13.4,8.1-26,16.3-36.8v13c0,2,1,3.8,2.6,4.9l17.8,11.9l6.6-9.9L136.8,257v-22.6
	c13.3-11.7,29.9-19.1,47.6-21.2V228l-8.4,8.4h-21.3v11.9h23.8c1.6,0,3.1-0.6,4.2-1.7l7.7-7.7l11.9,11.9v15.4h11.9v-17.8
	c0-1.6-0.6-3.1-1.7-4.2L196.3,228v-15.4H226v17.8c0,1.6,0.6,3.1,1.7,4.2l17.8,17.8l8.4-8.4L237.9,228v-15.4h19.6
	c5.1,0,10.1,0.4,15.1,1.3l2-11.7c-5.7-1-11.4-1.5-17.1-1.5h-62.9c-54.9,0-99.4,44.5-99.4,99.4v13.6
	C95.2,327.9,105.1,340,118.9,342.9z M185.9,393c-1,1.1-1.5,2.5-1.5,4v17.8h-17.8v-35.7h11.9c1.6,0,3.1-0.6,4.2-1.7l17.8-17.8
	c1.1-1.1,1.7-2.6,1.7-4.2v-11.9h28.3L185.9,393z M190.3,343.5v9.4L176,367.3h-27.3c-9.8,0-17.8-8-17.8-17.8v-5.9H190.3z"/>
<path d="M434.2,69.9H303.3c-9.8,0-17.8,8-17.8,17.8v142.7c0,9.8,8,17.8,17.8,17.8h130.8c9.8,0,17.8-8,17.8-17.8V87.7
	C452,77.9,444,69.9,434.2,69.9z M440.1,230.5c0,3.3-2.7,5.9-5.9,5.9H303.3c-3.3,0-5.9-2.7-5.9-5.9V87.7c0-3.3,2.7-5.9,5.9-5.9h130.8
	c3.3,0,5.9,2.7,5.9,5.9V230.5z"/>
<path d="M309.3,93.7h11.9v11.9h-11.9V93.7z"/>
<path d="M333.1,93.7h59.5v11.9h-59.5V93.7z"/>
<path d="M309.3,117.5h11.9v11.9h-11.9V117.5z"/>
<path d="M333.1,117.5h23.8v11.9h-23.8V117.5z"/>
<path d="M368.7,117.5h35.7v11.9h-35.7V117.5z"/>
<path d="M309.3,141.3h11.9v11.9h-11.9V141.3z"/>
<path d="M333.1,141.3h41.6v11.9h-41.6V141.3z"/>
<path d="M309.3,165.1h11.9v11.9h-11.9V165.1z"/>
<path d="M333.1,165.1h23.8v11.9h-23.8V165.1z"/>
<path d="M309.3,212.6h11.9v11.9h-11.9V212.6z"/>
<path d="M333.1,212.6h23.8v11.9h-23.8V212.6z"/>
<path d="M404.4,93.7h11.9v11.9h-11.9V93.7z"/>
<path d="M309.3,188.8h11.9v11.9h-11.9V188.8z"/>
<path d="M333.1,188.8h53.5v11.9h-53.5V188.8z"/>
<path d="M398.5,188.8h11.9v11.9h-11.9V188.8z"/>
</svg>
