<?xml version="1.0" encoding="utf-8"?>
<!-- Generator: Adobe Illustrator 25.0.1, SVG Export Plug-In . SVG Version: 6.00 Build 0)  -->
<svg version="1.1" id="Capa_1" xmlns="http://www.w3.org/2000/svg" xmlns:xlink="http://www.w3.org/1999/xlink" x="0px" y="0px"
	 viewBox="0 0 512 512" style="enable-background:new 0 0 512 512;" xml:space="preserve">
<g>
	<g>
		<path d="M340.2,223.9c-0.7-52.6-43.8-95.2-96.6-95.2c-53.3,0-96.6,43.3-96.6,96.6c0,28.1,12,54.4,33.1,72.8v85.2h113.7v-43.9h46.3
			v-49.2H365L340.2,223.9z M325.3,275.3v49.2H279v43.9h-83.9v-77.3l-2.8-2.2C173,273.2,162,250.1,162,225.3
			c0-45,36.6-81.7,81.7-81.7s81.7,36.6,81.7,81.7v1.3l18.2,48.6H325.3z"/>
	</g>
</g>
<g>
	<g>
		<path d="M310.1,232.6v-14.9h-15.5c-1.3-8.7-4.7-16.7-9.7-23.4l10.9-10.9l-10.5-10.5l-10.9,10.9c-6.7-5-14.7-8.5-23.4-9.7v-15.5
			H236V174c-8.7,1.3-16.7,4.7-23.4,9.7l-10.9-10.9l-10.5,10.5l10.9,10.9c-5,6.7-8.5,14.7-9.7,23.4h-15.5v14.9h15.5
			c1.3,8.7,4.7,16.7,9.7,23.4L191.1,267l10.5,10.5l10.9-10.9c6.7,5,14.7,8.5,23.4,9.7v15.5h14.9v-15.5c8.7-1.3,16.7-4.7,23.4-9.7
			l10.9,10.9l10.5-10.5l-10.9-10.9c5-6.7,8.5-14.7,9.7-23.4L310.1,232.6L310.1,232.6z M243.5,261.9c-20.3,0-36.8-16.5-36.8-36.8
			s16.5-36.8,36.8-36.8s36.8,16.5,36.8,36.8S263.8,261.9,243.5,261.9z"/>
	</g>
</g>
</svg>
