<?xml version="1.0" encoding="utf-8"?>
<!-- Generator: Adobe Illustrator 25.0.1, SVG Export Plug-In . SVG Version: 6.00 Build 0)  -->
<svg version="1.1" id="Capa_1" xmlns="http://www.w3.org/2000/svg" xmlns:xlink="http://www.w3.org/1999/xlink" x="0px" y="0px"
	 viewBox="0 0 512 512" style="enable-background:new 0 0 512 512;" xml:space="preserve">
<g>
	<path d="M385.7,273.8H160.9c-4.5,0-8.1,3.6-8.1,8.1V343h-10.3c-4.5,0-8.1-3.6-8.1-8.1v-88.6c0-4.5,3.6-8.1,8.1-8.1h18.9
		c3,10,12.4,17.3,23.3,17.3h47.6c12.7,0,23.4-9.9,24.3-22.6c5.8-81.6,6.3-89.1,6.3-89.2c1-14.1-10.2-26-24.3-26h-60.3
		c-14.1,0-25.3,12-24.3,26l0.6,9.1h-6.8c-4.5,0-8.1,3.6-8.1,8.1s3.6,8.1,8.1,8.1h7.9l3.8,53h-17.1c-13.4,0-24.3,10.9-24.3,24.3v88.6
		c0,13.4,10.9,24.3,24.3,24.3h10.3v27c0,4.5,3.6,8.1,8.1,8.1h224.9c4.5,0,8.1-3.6,8.1-8.1V281.9
		C393.8,277.5,390.2,273.8,385.7,273.8L385.7,273.8z M232.3,239.2c-52,0-48.3,0.1-49.9-0.3c-3.2-0.9-5.5-3.8-5.8-7.2
		c-0.1-0.7-0.4-6.2-0.5-6.7c4.4-10.4,13.5-17.9,24.3-20.5v8.2c0,4.5,3.6,8.1,8.1,8.1s8.1-3.6,8.1-8.1v-8.2
		c10.7,2.6,19.9,10.1,24.3,20.5l-0.5,6.7C240,235.9,236.5,239.2,232.3,239.2L232.3,239.2z M178.3,133.8h60.3c4.7,0,8.4,4,8.1,8.7
		l-4.1,57.9c-19.5-17.3-48.6-17.4-68.3,0l-4.1-57.9C169.9,137.8,173.6,133.8,178.3,133.8L178.3,133.8z M377.6,308.4h-18.4v-18.4
		h18.4V308.4z M324.6,308.4v-18.4H343v18.4H324.6z M169,359.2h26.5c4.5,0,8.1-3.6,8.1-8.1c0-4.5-3.6-8.1-8.1-8.1H169v-53h139.5v88.1
		H169V359.2z M324.6,378.2v-53.5h53v53.5H324.6z"/>
	<path d="M359.1,349.5c-1-4.8-5.8-7.5-10.3-6.2c-4.6,1.5-6.6,6.1-5.4,10.1c1.3,4.2,5.7,6.7,10.1,5.4
		C357.3,357.7,359.9,353.9,359.1,349.5L359.1,349.5z"/>
	<path d="M264.6,308.4c-14,0-25.4,11.4-25.4,25.4s11.4,25.4,25.4,25.4c14,0,25.4-11.4,25.4-25.4S278.7,308.4,264.6,308.4z
		 M264.6,343c-5.1,0-9.2-4.1-9.2-9.2s4.1-9.2,9.2-9.2c5.1,0,9.2,4.1,9.2,9.2S269.7,343,264.6,343z"/>
	<path d="M221.4,308.4h-25.9c-4.5,0-8.1,3.6-8.1,8.1c0,4.5,3.6,8.1,8.1,8.1h25.9c4.5,0,8.1-3.6,8.1-8.1
		C229.5,312.1,225.9,308.4,221.4,308.4z"/>
	<path d="M229.4,349.5c-0.9-4.6-5.7-7.6-10.3-6.2c-4.5,1.4-6.6,6-5.4,10.1c1.3,4.2,5.7,6.7,10.1,5.4
		C228.1,357.5,230.1,353.3,229.4,349.5L229.4,349.5z"/>
	<path d="M195.5,169h25.9c4.5,0,8.1-3.6,8.1-8.1s-3.6-8.1-8.1-8.1h-25.9c-4.5,0-8.1,3.6-8.1,8.1S191,169,195.5,169z"/>
	<path d="M279.8,178.8c3.2,3.2,8.3,3.2,11.5,0c9.9-9.9,9.9-26,0-35.9c-3.2-3.2-8.3-3.2-11.5,0c-3.2,3.2-3.2,8.3,0,11.5
		c3.6,3.6,3.6,9.4,0,13C276.6,170.5,276.6,175.7,279.8,178.8z"/>
	<path d="M306.5,192.5c3.2,3.2,8.3,3.2,11.5,0c17.5-17.5,17.5-45.9,0-63.4c-3.2-3.2-8.3-3.2-11.5,0c-3.2,3.2-3.2,8.3,0,11.5
		c11.1,11.1,11.1,29.3,0,40.4C303.3,184.2,303.3,189.4,306.5,192.5z"/>
</g>
</svg>
