<?xml version="1.0" encoding="utf-8"?>
<!-- Generator: Adobe Illustrator 25.0.1, SVG Export Plug-In . SVG Version: 6.00 Build 0)  -->
<svg version="1.1" id="Capa_1" xmlns="http://www.w3.org/2000/svg" xmlns:xlink="http://www.w3.org/1999/xlink" x="0px" y="0px"
	 viewBox="0 0 512 512" style="enable-background:new 0 0 512 512;" xml:space="preserve">
<g>
	<path d="M375.3,362.1v-97h-54.5v-34.6h-14.6v-19h33.9V134H171.9v77.5h33.9v19h-14.6v34.6h-54.5v97h-16.6V378h271.8v-15.9H375.3z
		 M271,362.1h-30v-36.7h30V362.1z M225.1,309.5v52.6h-17.9V281h97.7v81.1h-17.9v-52.6L225.1,309.5L225.1,309.5z M304.9,246.4v18.6
		h-97.7v-18.6H304.9z M320.8,315.5h38.6v46.5h-38.6V315.5z M359.3,281v18.6h-38.6V281H359.3z M187.9,149.9h136.3v45.6H187.9V149.9z
		 M221.8,211.5h68.5v19h-68.5V211.5z M191.2,281v18.6h-38.6V281H191.2z M152.7,315.5h38.6v46.5h-38.6V315.5z"/>
	<path d="M213.8,164.8h84.4v15.9h-84.4V164.8z"/>
</g>
</svg>
