<?xml version="1.0" encoding="utf-8"?>
<!-- Generator: Adobe Illustrator 25.0.1, SVG Export Plug-In . SVG Version: 6.00 Build 0)  -->
<svg version="1.1" id="Layer_1" xmlns="http://www.w3.org/2000/svg" xmlns:xlink="http://www.w3.org/1999/xlink" x="0px" y="0px"
	 viewBox="0 0 512 512" style="enable-background:new 0 0 512 512;" xml:space="preserve">
<style type="text/css">
	.st0{fill:#E61F2D;}
</style>
<polygon class="st0" points="67,402 67,86 383,86 "/>
<g>
	<g>
		<path d="M425.8,210.2h-16v-54.4c0-20.3-16.5-36.8-36.8-36.8H143.8c-20.3,0-36.8,16.5-36.8,36.8v148.5c0,20.3,16.5,36.8,36.8,36.8
			h101.7v25.2h-31.2c-7.1,0-12.9,5.8-12.9,12.9s5.8,12.9,12.9,12.9h88.2c7.1,0,12.9-5.8,12.9-12.9s-5.8-12.9-12.9-12.9h-31.2v-25.2
			h28.8c7.1,0,12.9-5.8,12.9-12.9s-5.8-12.9-12.9-12.9H143.8c-6,0-11-4.9-11-11V155.9c0-6,4.9-11,11-11H373c6,0,11,4.9,11,11v54.4
			h-16c-17.2,0-31.2,14-31.2,31.2v119.5c0,17.2,14,31.2,31.2,31.2h58c7.1,0,12.9-5.8,12.9-12.9s-5.8-12.9-12.9-12.9h-58
			c-2.9,0-5.4-2.4-5.4-5.4V241.4c0-2.9,2.4-5.4,5.4-5.4h58c2.9,0,5.4,2.4,5.4,5.4v90.2c0,7.1,5.8,12.9,12.9,12.9s12.8-5.8,12.8-12.9
			v-90.2C457,224.2,443,210.2,425.8,210.2z"/>
	</g>
</g>
</svg>
