<?xml version="1.0" encoding="utf-8"?>
<!-- Generator: Adobe Illustrator 25.0.1, SVG Export Plug-In . SVG Version: 6.00 Build 0)  -->
<svg version="1.1" id="Capa_1" xmlns="http://www.w3.org/2000/svg" xmlns:xlink="http://www.w3.org/1999/xlink" x="0px" y="0px"
	 viewBox="0 0 512 512" style="enable-background:new 0 0 512 512;" xml:space="preserve">
<style type="text/css">
	.st0{fill:#E61F2D;}
</style>
<rect x="103" y="67" class="st0" width="214" height="214"/>
<g>
	<path d="M428.8,271l-40.7,0.2c-4.8,0-8.7,3.9-8.7,8.7v6.2c0,4.1-3.4,7.5-7.5,7.5c-4.1,0-7.5-3.4-7.5-7.5c-0.2-4.8,0.6-7.2-1.2-10.4
		c-0.1-0.1-2.2-4.5-7.6-4.6l-40.3-0.3c-4.9,0-8.8,3.9-8.8,8.7v32.1c-12.6,1.3-22.5,11.9-22.5,24.8c0,12.9,9.8,23.5,22.4,24.8
		l-0.2,32.1c0,4.8,3.9,8.8,8.7,8.8c67.6,0,122.7-55,122.7-122.7C437.5,275.1,433.8,271,428.8,271L428.8,271z M323.7,384.6l0.2-31.6
		c0-4.8-3.9-8.8-8.7-8.8h-6.2c-4.1,0-7.5-3.4-7.5-7.5s3.4-7.5,7.5-7.5h5.9c4.6,0,9-3.7,9-8.9v-31.8l23.1,0.2
		c1.2,12.6,11.9,22.5,24.8,22.5c12.9,0,23.6-9.9,24.8-22.5l23-0.1C415.5,339.6,374.7,380.4,323.7,384.6L323.7,384.6z"/>
	<path d="M318.6,258c12.9,0,23.6-9.9,24.8-22.5h32.4c4.8,0,8.7-3.9,8.7-8.7c0-67.6-55-122.7-122.7-122.7s-122.7,55-122.7,122.7
		s55,122.7,122.7,122.7c4.8,0,8.7-3.9,8.7-8.7v-41c0-4.8-3.9-8.7-8.7-8.7h-6.2c-4.1,0-7.5-3.4-7.5-7.5c0-4.1,3.4-7.5,7.5-7.5h5.9
		c4.5,0,9-3.7,9-8.9v-31.8l23.1,0.2C295,248.1,305.7,258,318.6,258L318.6,258z M366.7,218.1h-31.9c-4.8,0-8.7,3.9-8.7,8.7v6.2
		c0,4.1-3.4,7.5-7.5,7.5c-4.1,0-7.5-3.4-7.5-7.5v-5.9c0-4.5-3.7-9-8.9-9l-31.6-0.2v-22.9c12.6-1.3,22.5-11.9,22.5-24.8
		c0-12.9-9.9-23.6-22.5-24.8V122C321.7,126.2,362.5,167,366.7,218.1z M253.2,122v31.9c0,4.8,3.9,8.7,8.7,8.7h6.2
		c4.1,0,7.5,3.4,7.5,7.5s-3.4,7.5-7.5,7.5h-5.9c-4.6,0-9,3.7-9,8.9v31.6H230c-1.3-12.6-11.9-22.5-24.8-22.5s-23.6,9.9-24.8,22.5
		h-23.3C161.3,167,202.1,126.2,253.2,122L253.2,122z M230.7,283.5c0,12.9,9.9,23.6,22.5,24.8v23.3c-51-4.2-91.9-45-96.1-96.1H189
		c4.8,0,8.7-3.9,8.7-8.7v-6.2c0-4.1,3.4-7.5,7.5-7.5c4.1,0,7.5,3.4,7.5,7.5v5.9c0,4.6,3.7,9,8.9,9h31.6v23.1
		C240.6,259.9,230.7,270.6,230.7,283.5L230.7,283.5z"/>
</g>
</svg>
