<?xml version="1.0" encoding="utf-8"?>
<!-- Generator: Adobe Illustrator 24.1.0, SVG Export Plug-In . SVG Version: 6.00 Build 0)  -->
<svg version="1.1" id="Layer_1" xmlns="http://www.w3.org/2000/svg" xmlns:xlink="http://www.w3.org/1999/xlink" x="0px" y="0px"
	 viewBox="0 0 512 512" style="enable-background:new 0 0 512 512;" xml:space="preserve">
<path d="M203.5,281.3h-18.2v-28.2c0-9.2-3.7-17.5-9.6-23.6c10.1-6.7,16.8-18.2,16.8-31.3c0-20.7-16.8-37.6-37.6-37.6
	s-37.6,16.8-37.6,37.6c0,11.3,5,21.4,12.9,28.3c-7.9,6.2-12.9,15.8-12.9,26.6v84h55.4v55.4h55.8v-86.1
	C228.6,292.6,217.4,281.3,203.5,281.3z M155,177.3c11.6,0,21,9.4,21,21c0,11.6-9.4,21-21,21c-11.6,0-21-9.4-21-21
	C134,186.7,143.4,177.3,155,177.3z M212,375.9h-22.6v-55.4H134v-67.4c0-9.6,7.8-17.3,17.3-17.3c9.6,0,17.3,7.8,17.3,17.3v44.8h34.8
	c4.7,0,8.5,3.8,8.5,8.5V375.9z"/>
<path d="M387.6,226.5c7.9-6.9,12.9-17,12.9-28.3c0-20.7-16.8-37.6-37.6-37.6s-37.6,16.8-37.6,37.6c0,13,6.7,24.6,16.8,31.3
	c-5.9,6.1-9.6,14.4-9.6,23.6v28.2h-18.2c-13.8,0-25.1,11.2-25.1,25.1v86.1h55.8v-55.4h55.4v-84C400.5,242.4,395.5,232.8,387.6,226.5
	z M363,177.3c11.6,0,21,9.4,21,21c0,11.6-9.4,21-21,21s-21-9.4-21-21C342,186.7,351.4,177.3,363,177.3z M384,320.5h-55.4v55.4H306
	v-69.5c0-4.7,3.8-8.5,8.5-8.5h34.8v-44.8c0-9.6,7.8-17.3,17.3-17.3s17.3,7.8,17.3,17.3V320.5z"/>
<path d="M312.1,176.7v-43.9c0-12.9-10.5-23.4-23.4-23.4h-59.3c-12.9,0-23.4,10.5-23.4,23.4v43.9c0,12.9,10.5,23.4,23.4,23.4h10
	l19.6,34l19.6-34h10C301.6,200.1,312.1,189.6,312.1,176.7z M295.5,176.7c0,3.8-3.1,6.8-6.8,6.8h-19.6l-10,17.4l-10-17.4h-19.6
	c-3.8,0-6.8-3.1-6.8-6.8v-43.9c0-3.8,3.1-6.8,6.8-6.8h59.3c3.8,0,6.8,3.1,6.8,6.8V176.7z"/>
</svg>
