<?xml version="1.0" encoding="utf-8"?>
<!-- Generator: Adobe Illustrator 24.1.0, SVG Export Plug-In . SVG Version: 6.00 Build 0)  -->
<svg version="1.1" id="Layer_1" xmlns="http://www.w3.org/2000/svg" xmlns:xlink="http://www.w3.org/1999/xlink" x="0px" y="0px"
	 viewBox="0 0 512 512" style="enable-background:new 0 0 512 512;" xml:space="preserve">
<g>
	<path d="M295.5,198.8c0.2-22.3-18.5-39.6-39.7-39.5c-21,0.1-39.4,17.5-39.3,39.7c0.1,21.6,18.1,39.4,39.6,39.4
		C277.3,238.3,295.7,220.8,295.5,198.8z M257.1,221c-12.4,0.8-22.9-9.2-23.3-21.3c-0.6-11,7.5-22.6,21.4-23.2
		c11.8-0.5,22,8.1,23,20.7C279.1,208.5,271.1,220.2,257.1,221z"/>
	<path d="M349.8,358.7c-2.2-2.1-4.8-3.5-7.6-4.9c0-1,0-2,0-3c0-7.7,0-15.4,0-23c0-1.3,0-2.5-0.3-3.8c-0.6-3.4-2.6-5.5-5.8-6.6
		c-1.5-0.5-3-0.6-4.6-0.6c-21.2,0-42.4,0-63.6,0c-1,0-2.1,0.3-3-0.2c0-7,0-13.8,0-20.8c1.9,0,3.7,0,5.4,0c4.6-0.1,7.9-2.7,8.9-7.2
		c1.1-4.8,2-9.6,3-14.5c0.3-1.5,0.9-2.3,2.4-2.9c7.1-2.8,13.6-6.5,19.5-11.3c1.2-1,2.2-1.1,3.7-0.6c4.5,1.5,9,2.9,13.5,4.4
		c5.8,1.9,9.5-0.6,11.6-4.4c4.6-8.1,9.3-16.1,13.9-24.1c0.6-1,1.2-2,1.4-3.2c0.6-3.4-0.1-6.3-2.8-8.7c-3.7-3.3-7.3-6.7-11.1-9.9
		c-1.2-1-1.6-2-1.4-3.5c0.3-2,0.6-4,0.7-6.1c0.1-5.3,0.3-10.7-0.6-16c-0.3-1.8,0.1-3,1.6-4.3c3.7-3.1,7.3-6.4,10.9-9.7
		c3.3-3.1,3.9-7.2,1.7-11.1c-4.8-8.5-9.8-16.9-14.6-25.4c-2-3.4-5-4.8-8.8-4.4c-1,0.1-2.1,0.5-3.1,0.8c-4.9,1.6-9.9,3.2-14.8,4.9
		c-6.6-5.4-13.8-9.7-21.7-12.7c-1.2-0.4-1.5-1.3-1.8-2.4c-1-4.6-2-9.3-2.9-13.9c-1.2-5.6-4.2-8.1-9.9-8.2c-9.1,0-18.3,0-27.4,0
		c-5.6,0-8.8,2.7-10,8.2c-1,4.5-2,9-2.8,13.6c-0.3,1.6-0.9,2.3-2.3,2.8c-7,2.8-13.6,6.5-19.5,11.3c-1.2,1-2.3,1.1-3.7,0.6
		c-4.5-1.5-8.9-3.1-13.4-4.5c-5.3-1.7-8.9-0.3-11.7,4.6c-4.6,7.9-9.1,16-13.8,23.9c-2.9,4.8-1.6,9.6,2.2,12.7
		c3.6,3,6.9,6.2,10.4,9.3c1,0.9,1.4,1.6,1.2,3.2c-1.2,7.6-1.2,15.3,0,22.9c0.2,1.4-0.1,2.1-1,3c-3.7,3.3-7.4,6.6-11.1,9.9
		c-3.8,3.4-4.5,7.3-2,11.7c4.7,8.3,9.5,16.6,14.4,24.9c2.5,4.2,6.2,5.6,10.9,4.1c4.7-1.5,9.4-3,14-4.5c1.3-0.5,2.4-0.4,3.5,0.6
		c6.1,4.9,12.7,8.7,20,11.5c1.1,0.4,1.6,1,1.8,2.3c1,5.1,2.1,10.2,3.3,15.3c1.1,4.5,4.2,6.8,8.8,6.9c1.9,0,3.8,0,5.7,0
		c0,7.1,0,14,0,21c-1.1,0-2.1,0-3,0c-20.6,0-41.2,0-61.8,0c-1.2,0-2.3-0.1-3.5,0c-3.8,0.3-6.7,1.9-8.2,5.5c-0.7,1.6-0.7,3.2-0.7,4.9
		c0,8,0,15.9,0,23.9c0,1,0.2,1.9-0.3,2.8c-0.9,0.5-1.7,0.9-2.6,1.3c-8,4.7-12.4,11.8-12.3,21c0.1,12.3,8.4,20.4,17.3,22.9
		c1.4,0.4,2.9,0.1,4.2,1.1c1.7,0,3.5,0,5.2,0c0.2-0.2,0.5-0.3,0.8-0.3c9.1-0.3,15-5.7,18.7-13.3c5.8-11.8,1.3-25.3-10.2-31.9
		c-1.8-1-2.7-2.3-2.7-4.4c0.1-4.1,0.1-8.2,0-12.2c0-2.1,0.7-3,2.9-3c17.6,0,35.2,0,52.7,0c2.2,0,2.9,1,2.8,3
		c-0.1,3.6-0.2,7.2,0,10.8c0.2,2.9-0.8,4.7-3.4,6.4c-9.2,5.7-13.4,15.8-11.2,26c2.2,10.3,9.6,16.9,21.2,18.9c1.7,0,3.5,0,5.2,0
		c1.1-0.7,2.3-0.2,3.4-0.4c9.9-1.4,18.7-11.7,18.9-22.5c0.2-9.8-3.9-17.5-12.5-22.5c-1.9-1.1-2.7-2.5-2.7-4.7c0.1-4,0.1-8,0-11.9
		c0-2,0.6-3,2.8-3c17.6,0,35.2,0,52.7,0c2.2,0,2.9,0.9,2.9,3c-0.1,3.8-0.1,7.6,0,11.4c0.1,2.6-0.8,4.2-3.2,5.6
		c-9,5.2-13.5,15.4-11.7,25.6c1.9,10.5,9.2,17.4,20.9,19.6c1.9,0,3.9,0,5.8,0c0.9-0.9,2-0.4,3-0.7c9.1-2.6,15.2-8.3,17.6-17.5
		C358.9,373,356.4,365.2,349.8,358.7z M178.8,382.8c-3.8,0-6.6-2.8-6.6-6.6c0-3.5,2.9-6.5,6.4-6.6c3.6-0.1,6.8,2.9,6.8,6.5
		C185.5,379.7,182.4,382.7,178.8,382.8z M256.1,382.8c-3.8,0-6.5-2.8-6.5-6.6c0-3.6,2.8-6.6,6.4-6.5c4.1,0,6.8,3.2,6.6,6.5
		C262.7,380,259.9,382.8,256.1,382.8z M248.2,278.3c-1.1-2.4-1.2-5.2-1.9-7.9c-0.5-1.8-0.9-3.8-1.2-5.7c-0.6-4.4-3.2-6.8-7.3-8
		c-7.2-2.2-13.7-5.7-19.6-10.4c-1.5-1.2-2.9-2.5-4.4-3.8c-2.6-2.2-5.4-2.7-8.7-1.6c-4.7,1.5-9.3,3-14.3,4.6c-2.6-4.5-5.2-9-7.9-13.6
		c2.4-2.2,4.7-4.2,7-6.3c1.6-1.4,3.2-2.8,4.7-4.3c2.1-2.2,3-4.8,2.3-8c-1.7-7-1.9-14.2-1.3-21.4c0.2-2.4,0.6-4.8,1.3-7.1
		c1-3.6-0.2-6.5-2.7-8.9c-3.1-2.9-6.3-5.7-9.5-8.6c-0.5-0.4-1.1-0.8-1.4-1.8c2.4-4.2,5-8.6,7.5-13.1c2.6,0.3,4.9,1.4,7.3,2.1
		c2.1,0.6,4.2,1.4,6.3,2.1c4.1,1.4,7.6,0.6,10.7-2.4c4.8-4.6,10.4-8.1,16.4-10.8c2.2-1,4.5-1.8,6.8-2.5c4-1.2,6.3-3.8,7-7.9
		c0.8-4.5,1.9-9,2.9-13.6c5.2,0,10.4,0,15.6,0c0.9,2.3,1.1,4.8,1.7,7.2c0.5,2.2,0.9,4.5,1.4,6.8c0.8,3.9,3.1,6.3,6.9,7.4
		c3.6,1,7.1,2.5,10.4,4.3c4.8,2.5,9.3,5.6,13.2,9.4c3,2.9,6.3,3.4,10.2,2.1c3.8-1.3,7.7-2.5,11.6-3.7c0.7-0.2,1.3-0.4,2.2-0.4
		c2.5,4.3,5,8.7,7.7,13.3c-3.4,3-6.6,6.2-10.1,9.1c-3.6,2.9-4.6,6.5-3.6,10.9c2,8.7,2,17.5,0,26.2c-1,4.2-0.1,7.8,3.4,10.7
		c3.5,2.9,6.8,6.1,10.4,9.2c-2.6,4.5-5.1,8.9-7.8,13.6c-4.4-1.4-8.7-2.6-12.8-4.1c-4.5-1.7-8.1-0.8-11.7,2.5
		c-6.4,6-14,10.4-22.4,12.9c-4.6,1.4-6.9,4.2-7.6,8.8c-0.7,4.3-1.8,8.5-2.7,12.9C258.7,278.3,253.6,278.3,248.2,278.3z M333.4,382.8
		c-3.5-0.1-6.5-2.9-6.5-6.5c-0.1-3.5,3.1-6.7,6.7-6.7c3.6,0,6.6,3.1,6.6,6.7C340.1,380,337.2,382.8,333.4,382.8z"/>
</g>
</svg>
