<?xml version="1.0" encoding="utf-8"?>
<!-- Generator: Adobe Illustrator 24.1.0, SVG Export Plug-In . SVG Version: 6.00 Build 0)  -->
<svg version="1.1" id="Layer_1" xmlns="http://www.w3.org/2000/svg" xmlns:xlink="http://www.w3.org/1999/xlink" x="0px" y="0px"
	 viewBox="0 0 512 512" style="enable-background:new 0 0 512 512;" xml:space="preserve">
<g>
	<path d="M396.2,270.5v-47.6l-37.6-6.3c-2.2-7.8-5.4-15.4-9.3-22.5l22.2-31.1l-33.7-33.7l-31.1,22.2c-7.1-4-14.7-7.1-22.5-9.3
		l-6.3-37.6h-47.6l-6.3,37.6c-7.8,2.2-15.4,5.4-22.5,9.3l-31.1-22.2l-33.7,33.7l22.2,31.1c-4,7.1-7.1,14.7-9.3,22.5l-37.6,6.3v47.6
		l37.6,6.3c2.2,7.8,5.4,15.4,9.3,22.5l-22.2,31.1l33.7,33.7l31.1-22.2c7.1,4,14.7,7.1,22.5,9.3l6.3,37.6h47.6l6.3-37.6
		c7.8-2.2,15.4-5.4,22.5-9.3l31.1,22.2l33.7-33.7l-22.2-31.1c4-7.1,7.1-14.7,9.3-22.5L396.2,270.5z M349.6,328.5L336,342.2
		l-28.5-20.4c-2.8,1.5-14,10.2-32.5,14.5l-5.4,1.3l-5.8,34.5h-19.3l-5.8-34.5c-3.2-1-17-2.7-33.2-12.8l-4.7-3l-28.5,20.4l-13.6-13.6
		L179,300c-1.5-2.8-10.2-14-14.5-32.5l-1.3-5.4l-34.5-5.8v-19.3l34.5-5.8c1-3.2,2.7-17,12.8-33.2l3-4.7l-20.4-28.5l13.6-13.6
		l28.5,20.4c2.8-1.5,14-10.2,32.5-14.5l5.4-1.3l5.8-34.5h19.3l5.8,34.5c3.2,1,17,2.7,33.2,12.8l4.7,3l28.5-20.4l13.6,13.6
		l-20.4,28.5c1.5,2.8,10.2,14,14.5,32.5l1.3,5.4l34.5,5.8v19.3l-34.5,5.8c-1,3.2-2.7,17-12.8,33.2l-3,4.7L349.6,328.5z"/>
	<path d="M254.1,175.7c-39.2,0-71,31.9-71,71s31.9,71,71,71s71-31.9,71-71S293.3,175.7,254.1,175.7z M229.7,295.2
		c2.6-11,12.6-19.3,24.4-19.3c11.8,0,21.8,8.2,24.4,19.3C263.2,303,245.1,303,229.7,295.2L229.7,295.2z M241.6,246.7
		c0-6.9,5.6-12.5,12.5-12.5s12.5,5.6,12.5,12.5c0,6.9-5.6,12.5-12.5,12.5C247.2,259.3,241.6,253.6,241.6,246.7z M292.7,284.9
		c-3.3-8-9.1-14.7-16.3-19.3c4.4-5.1,7-11.7,7-19c0-16.1-13.1-29.3-29.3-29.3s-29.3,13.1-29.3,29.3c0,7.2,2.6,13.9,7,19
		c-7.2,4.6-13,11.3-16.3,19.3c-9.7-9.8-15.8-23.3-15.8-38.2c0-30,24.4-54.3,54.3-54.3s54.3,24.4,54.3,54.3
		C308.5,261.6,302.4,275.1,292.7,284.9L292.7,284.9z"/>
</g>
</svg>
