<?xml version="1.0" encoding="utf-8"?>
<!-- Generator: Adobe Illustrator 24.1.0, SVG Export Plug-In . SVG Version: 6.00 Build 0)  -->
<svg version="1.1" id="Layer_1" xmlns="http://www.w3.org/2000/svg" xmlns:xlink="http://www.w3.org/1999/xlink" x="0px" y="0px"
	 viewBox="0 0 512 512" style="enable-background:new 0 0 512 512;" xml:space="preserve">
<g>
	<path d="M373,122.1H264.9v-8.3c0-4.6-3.7-8.3-8.3-8.3c-4.6,0-8.3,3.7-8.3,8.3v8.3H140.3c-13.7,0-24.8,11.1-24.8,24.8
		c0,10.8,6.9,20,16.5,23.4v142.6c0,4.6,3.7,8.3,8.3,8.3h108.1v35.9l-44,14.7c-4.3,1.4-6.7,6.1-5.2,10.5c1.4,4.3,6.1,6.7,10.5,5.2
		l47-15.7l47,15.7c4.3,1.4,9-0.9,10.5-5.2c1.4-4.3-0.9-9-5.2-10.5l-44-14.7v-35.9H373c4.6,0,8.3-3.7,8.3-8.3V170.3
		c9.6-3.4,16.5-12.6,16.5-23.4C397.8,133.3,386.6,122.1,373,122.1z M148.6,304.6V171.7h216.1v132.9H148.6z M373,155.2H140.3
		c-4.6,0-8.3-3.7-8.3-8.3c0-4.6,3.7-8.3,8.3-8.3H373c4.6,0,8.3,3.7,8.3,8.3C381.2,151.5,377.5,155.2,373,155.2z"/>
	<path d="M289.7,271.5h-8.3v-58.4c0-4.6-3.7-8.3-8.3-8.3c-4.6,0-8.3,3.7-8.3,8.3v58.4h-16.5v-41.9c0-4.6-3.7-8.3-8.3-8.3
		c-4.6,0-8.3,3.7-8.3,8.3v41.9h-16.5v-25.4c0-4.6-3.7-8.3-8.3-8.3c-4.6,0-8.3,3.7-8.3,8.3v25.4h-16.5v-75c0-4.6-3.7-8.3-8.3-8.3
		s-8.3,3.7-8.3,8.3v83.2c0,4.6,3.7,8.3,8.3,8.3h115.8c4.6,0,8.3-3.7,8.3-8.3C298,275.2,294.3,271.5,289.7,271.5z"/>
	<path d="M339.9,188.3h-33.6c-4.6,0-8.3,3.7-8.3,8.3c0,4.6,3.7,8.3,8.3,8.3h33.6c4.6,0,8.3-3.7,8.3-8.3
		C348.1,192,344.4,188.3,339.9,188.3z"/>
	<path d="M339.9,221.4h-33.6c-4.6,0-8.3,3.7-8.3,8.3c0,4.6,3.7,8.3,8.3,8.3h33.6c4.6,0,8.3-3.7,8.3-8.3
		C348.1,225.1,344.4,221.4,339.9,221.4z"/>
</g>
</svg>
