<?xml version="1.0" encoding="utf-8"?>
<!-- Generator: Adobe Illustrator 24.1.0, SVG Export Plug-In . SVG Version: 6.00 Build 0)  -->
<svg version="1.1" id="Layer_1" xmlns="http://www.w3.org/2000/svg" xmlns:xlink="http://www.w3.org/1999/xlink" x="0px" y="0px"
	 viewBox="0 0 512 512" style="enable-background:new 0 0 512 512;" xml:space="preserve">
<g>
	<path d="M215.7,154.5h77.8c4.6,0,8.3-3.7,8.3-8.3c0-4.6-3.7-8.3-8.3-8.3h-77.8c-4.6,0-8.3,3.7-8.3,8.3
		C207.4,150.8,211.1,154.5,215.7,154.5z"/>
	<path d="M215.7,187.8h77.8c4.6,0,8.3-3.7,8.3-8.3c0-4.6-3.7-8.3-8.3-8.3h-77.8c-4.6,0-8.3,3.7-8.3,8.3
		C207.4,184.1,211.1,187.8,215.7,187.8z"/>
	<path d="M226.8,315.6h-66.7c-4.6,0-8.3,3.7-8.3,8.3s3.7,8.3,8.3,8.3h66.7c4.6,0,8.3-3.7,8.3-8.3S231.4,315.6,226.8,315.6z"/>
	<path d="M395.6,346.2l-53.8-53.8c3-7.4,4.6-15.4,4.6-23.9c0-13.4-4.2-25.9-11.3-36.2V129.5c0-13.8-11.2-25-25-25H182.4
		c-2.2,0-4.3,0.9-5.9,2.4l-55.5,55.5c-1.6,1.6-2.4,3.7-2.4,5.9v195.5c0,13.8,11.2,25,25,25h166.6c13.8,0,25-11.2,25-25v-7.4
		l25.1,25.1c4.7,4.7,11,7.3,17.7,7.3c6.7,0,13-2.6,17.7-7.3c4.7-4.7,7.3-11,7.3-17.7C402.9,357.2,400.3,351,395.6,346.2z
		 M329.7,268.5c0,26-21.2,47.2-47.2,47.2s-47.2-21.2-47.2-47.2s21.2-47.2,47.2-47.2S329.7,242.5,329.7,268.5z M221.7,248.9h-53.2
		v-27.8h71.2C231.5,228.6,225.2,238.1,221.7,248.9z M174,133v27.1h-27.1L174,133z M318.5,363.9c0,4.6-3.7,8.3-8.3,8.3H143.5
		c-4.6,0-8.3-3.7-8.3-8.3V176.7h47.2c4.6,0,8.3-3.7,8.3-8.3v-47.2h119.4c4.6,0,8.3,3.7,8.3,8.3v86.3c-10.2-7-22.6-11.3-35.9-11.3
		H160.2c-4.6,0-8.3,3.7-8.3,8.3v44.4c0,4.6,3.7,8.3,8.3,8.3h58.6c0,1-0.1,2-0.1,2.9c0,4.7,0.5,9.3,1.5,13.7h-60
		c-4.6,0-8.3,3.7-8.3,8.3s3.7,8.3,8.3,8.3h66.2c10.8,19.9,31.9,33.5,56.2,33.5c8.4,0,16.5-1.7,23.9-4.6l12.1,12.1V363.9z
		 M383.8,369.8c-1.6,1.6-3.7,2.4-5.9,2.4c-2.2,0-4.3-0.9-5.9-2.4l-50.6-50.6c4.4-3.4,8.4-7.4,11.8-11.8l50.6,50.6
		c1.6,1.6,2.4,3.7,2.4,5.9C386.2,366.2,385.4,368.2,383.8,369.8z"/>
</g>
</svg>
