<?xml version="1.0" encoding="utf-8"?>
<!-- Generator: Adobe Illustrator 24.1.0, SVG Export Plug-In . SVG Version: 6.00 Build 0)  -->
<svg version="1.1" id="Layer_1" xmlns="http://www.w3.org/2000/svg" xmlns:xlink="http://www.w3.org/1999/xlink" x="0px" y="0px"
	 viewBox="0 0 512 512" style="enable-background:new 0 0 512 512;" xml:space="preserve">
<g>
	<path d="M396.5,351.1h-35c-3.7-10.4-13.6-17.9-25.3-17.9c-11.7,0-21.6,7.5-25.3,17.9H278c-2.7-7.6-8.7-13.7-16.4-16.4v-31.4h80.6
		c34.5,0,62.7-28.1,62.7-62.7c0-15.6-5.8-30.5-16.2-42.1c-8.5-9.3-19.5-15.9-31.5-18.8c-0.6-40.6-33.8-73.4-74.6-73.4
		c-23.4,0-44.8,10.7-58.9,29c-7.8-3.3-16.2-5.1-24.6-5.1c-34.5,0-62.7,28.1-62.7,62.7c0,3.7,0.3,7.3,1,10.9
		c-21.3,6.1-36.8,25.8-36.8,48.7c0,28,22.8,50.7,50.7,50.7h92.5v31.4c-7.6,2.7-13.7,8.7-16.4,16.4h-32.9
		c-3.7-10.4-13.6-17.9-25.3-17.9s-21.6,7.5-25.3,17.9h-35c-4.9,0-9,4-9,9c0,4.9,4,9,9,9h35c3.7,10.4,13.6,17.9,25.3,17.9
		s21.6-7.5,25.3-17.9h32.9c3.7,10.4,13.6,17.9,25.3,17.9s21.6-7.5,25.3-17.9h32.9c3.7,10.4,13.6,17.9,25.3,17.9
		c11.7,0,21.6-7.5,25.3-17.9h35c4.9,0,9-4,9-9C405.4,355.1,401.4,351.1,396.5,351.1z M118.4,252.7c0-17.2,13.4-31.6,30.6-32.7
		c2.8-0.2,5.3-1.7,6.9-4c1.5-2.3,1.9-5.3,0.9-7.9c-1.8-4.9-2.7-10-2.7-15c0-24.7,20.1-44.8,44.8-44.8c8,0,16,2.2,22.9,6.4l0.1,0
		c13.6,8.2,21.7,22.5,21.7,38.4c0,4.9,4,9,9,9c4.9,0,9-4,9-9c0-18.7-8.5-36.4-22.6-48.2c10.7-12.9,26.4-20.4,43.5-20.4
		c31.3,0,56.7,25.4,56.7,56.7c0,1.7-0.1,3.5-0.3,5.4c0,0,0,0.1,0,0.1c-1.1,11.2-5.5,21.9-12.7,30.6c-3.1,3.8-2.6,9.5,1.2,12.6
		c1.7,1.4,3.7,2,5.7,2c2.6,0,5.1-1.1,6.9-3.3c7.4-8.9,12.5-19.5,15.1-30.6c18.6,5.6,31.8,22.7,31.8,42.8c0,24.7-20.1,44.8-44.8,44.8
		H151.2C133.1,285.5,118.4,270.8,118.4,252.7z M169.1,369c-4.9,0-9-4-9-9c0-4.9,4-9,9-9s9,4,9,9C178.1,365,174,369,169.1,369z
		 M252.6,369c-4.9,0-9-4-9-9c0-4.9,4-9,9-9s9,4,9,9C261.6,365,257.6,369,252.6,369z M336.2,369c-4.9,0-9-4-9-9c0-4.9,4-9,9-9
		c4.9,0,9,4,9,9C345.1,365,341.1,369,336.2,369z"/>
</g>
</svg>
