<?xml version="1.0" encoding="utf-8"?>
<!-- Generator: Adobe Illustrator 25.0.1, SVG Export Plug-In . SVG Version: 6.00 Build 0)  -->
<svg version="1.1" id="Layer_1" xmlns="http://www.w3.org/2000/svg" xmlns:xlink="http://www.w3.org/1999/xlink" x="0px" y="0px"
	 viewBox="0 0 512 512" style="enable-background:new 0 0 512 512;" xml:space="preserve">
<style type="text/css">
	.st0{fill:#E61F2D;}
</style>
<polygon class="st0" points="445.9,239 445.9,443.6 139.9,443.6 "/>
<g>
	<path d="M368.8,252.7V146.4c18.4-2.6,32.5-18.4,32.5-37.5c0-20.9-17-37.9-37.9-37.9c-20.9,0-37.9,17-37.9,37.9H65.3v216.8h162.9
		C231,371,268.6,407,314.6,407c47.8,0,86.7-38.9,86.7-86.7C401.3,293,388.6,268.6,368.8,252.7z M363.4,81.8
		c14.9,0,27.1,12.2,27.1,27.1S378.3,136,363.4,136s-27.1-12.2-27.1-27.1S348.4,81.8,363.4,81.8z M76.2,119.8h250.9
		c1.3,4.3,3.4,8.3,6,11.8l-33.1,33.1c-2.1-1-4.5-1.6-7-1.6s-4.8,0.6-7,1.6l-10.9-10.9c1-2.1,1.6-4.5,1.6-7c0-9-7.3-16.3-16.3-16.3
		c-9,0-16.3,7.3-16.3,16.3c0,2.5,0.6,4.8,1.6,7L218.6,181c-2.1-1-4.5-1.6-7-1.6c-9,0-16.3,7.3-16.3,16.3s7.3,16.3,16.3,16.3
		s16.3-7.3,16.3-16.3c0-2.5-0.6-4.8-1.6-7l27.2-27.2c2.1,1,4.5,1.6,7,1.6c2.5,0,4.8-0.6,7-1.6l10.9,10.9c-1,2.1-1.6,4.5-1.6,7
		c0,9,7.3,16.3,16.3,16.3c9,0,16.3-7.3,16.3-16.3c0-2.5-0.6-4.8-1.6-7l33.2-33.1c5,3.7,10.8,6.2,17.3,7.2v98.9
		c-12.8-7.4-27.6-11.7-43.4-11.7c-25.9,0-49.1,11.5-65,29.6V239h-32.5v65h12.4c-0.7,3.5-1.1,7.2-1.3,10.8h-152V119.8z M292.9,174
		c3,0,5.4,2.4,5.4,5.4c0,3-2.4,5.4-5.4,5.4s-5.4-2.4-5.4-5.4C287.5,176.4,289.9,174,292.9,174z M255,146.9c0-3,2.4-5.4,5.4-5.4
		c3,0,5.4,2.4,5.4,5.4c0,3-2.4,5.4-5.4,5.4C257.4,152.3,255,149.9,255,146.9z M217.1,195.6c0,3-2.4,5.4-5.4,5.4s-5.4-2.4-5.4-5.4
		s2.4-5.4,5.4-5.4S217.1,192.7,217.1,195.6z M314.6,363.6c-23.9,0-43.4-19.5-43.4-43.4c0-23.9,19.5-43.4,43.4-43.4
		c23.9,0,43.4,19.5,43.4,43.4C358,344.2,338.5,363.6,314.6,363.6z M238.7,278.4c-2.6,4.7-4.7,9.6-6.4,14.8h-4.4v-43.4h10.8V278.4z
		 M309.2,244.7v21.7c-27.3,2.7-48.8,25.9-48.8,53.9c0,7.9,1.8,15.4,4.8,22.2l-18.8,10.9c-4.9-10-7.7-21.2-7.7-33.1
		C238.7,280.3,269.9,247.5,309.2,244.7L309.2,244.7z M314.6,396.2c-26.1,0-49.1-13.2-62.8-33.4l18.9-10.9
		c9.9,13.6,25.8,22.6,43.9,22.6c18.1,0,34.1-8.9,43.9-22.6l18.9,10.9C363.8,382.9,340.7,396.2,314.6,396.2z M382.8,353.4L364,342.5
		c3.1-6.8,4.8-14.3,4.8-22.2c0-28.1-21.4-51.2-48.8-53.9v-21.7c39.3,2.8,70.5,35.6,70.5,75.6C390.5,332.2,387.7,343.4,382.8,353.4
		L382.8,353.4z"/>
	<path d="M314.6,287.8c-17.9,0-32.5,14.6-32.5,32.5c0,17.9,14.6,32.5,32.5,32.5c17.9,0,32.5-14.6,32.5-32.5
		C347.1,302.4,332.5,287.8,314.6,287.8z M314.6,342c-12,0-21.7-9.7-21.7-21.7c0-12,9.7-21.7,21.7-21.7c12,0,21.7,9.7,21.7,21.7
		C336.3,332.2,326.6,342,314.6,342z"/>
	<path d="M87,130.6h10.8v10.8H87V130.6z"/>
	<path d="M108.7,130.6h75.9v10.8h-75.9V130.6z"/>
	<path d="M87,152.3h10.8v10.8H87V152.3z"/>
	<path d="M108.7,152.3h75.9v10.8h-75.9V152.3z"/>
	<path d="M87,174h10.8v10.8H87V174z"/>
	<path d="M108.7,174h75.9v10.8h-75.9V174z"/>
	<path d="M87,195.6h10.8v10.8H87V195.6z"/>
	<path d="M108.7,195.6h75.9v10.8h-75.9V195.6z"/>
	<path d="M87,304h32.5v-54.2H87V304z M97.8,260.7h10.8v32.5H97.8V260.7z"/>
	<path d="M130.4,304h32.5v-43.4h-32.5V304z M141.2,271.5H152v21.7h-10.8V271.5z"/>
	<path d="M173.7,304h32.5v-86.7h-32.5V304z M184.5,228.2h10.8v65h-10.8V228.2z"/>
</g>
</svg>
