<?xml version="1.0" encoding="utf-8"?>
<!-- Generator: Adobe Illustrator 25.0.1, SVG Export Plug-In . SVG Version: 6.00 Build 0)  -->
<svg version="1.1" id="Capa_1" xmlns="http://www.w3.org/2000/svg" xmlns:xlink="http://www.w3.org/1999/xlink" x="0px" y="0px"
	 viewBox="0 0 512 512" style="enable-background:new 0 0 512 512;" xml:space="preserve">
<g>
	<path d="M333.1,302.9l42.8-42.8v31.6l-17,17c-3.9,3.9-3.9,10.2,0,14.1c3.9,3.9,10.2,3.9,14.1,0l12.9-12.9l12.9,12.9
		c3.9,3.9,10.2,3.9,14.1,0c3.9-3.9,3.9-10.2,0-14.1l-17-17v-31.6l42.8,42.8c3.9,3.9,10.2,3.9,14.1,0c3.9-3.9,3.9-10.2,0-14.1
		L395.8,232v-35.7c0-5.5-4.5-10-10-10c-5.5,0-10,4.5-10,10V232L319,288.8c-3.9,3.9-3.9,10.2,0,14.1
		C322.9,306.8,329.2,306.8,333.1,302.9L333.1,302.9z"/>
	<path d="M195.9,236.1c0,5.5,4.5,10,10,10h80.4c5.5,0,10-4.5,10-10s-4.5-10-10-10h-80.4C200.4,226.1,195.9,230.6,195.9,236.1z"/>
	<path d="M246.4,266h-40.5c-5.5,0-10,4.5-10,10s4.5,10,10,10h40.5c5.5,0,10-4.5,10-10S251.9,266,246.4,266z"/>
	<path d="M486.1,146.4H266.3c-5.5,0-10,4.5-10,10c0,5.5-4.5,10-10,10s-10-4.5-10-10c0-5.5-4.5-10-10-10H166c-5.5,0-10,4.5-10,10
		v199.2c0,5.5,4.5,10,10,10h60.4c5.5,0,10-4.5,10-10c0-5.5,4.5-10,10-10s10,4.5,10,10c0,5.5,4.5,10,10,10h219.8c5.5,0,10-4.5,10-10
		V156.4C496.1,150.9,491.6,146.4,486.1,146.4z M476.1,345.6H274.5c-4.1-11.6-15.2-19.9-28.2-19.9c-13,0-24.1,8.3-28.2,19.9H176
		V166.4h42.2c4.1,11.6,15.2,19.9,28.2,19.9c13,0,24.1-8.3,28.2-19.9h201.6V345.6z"/>
</g>
</svg>
