<?xml version="1.0" encoding="utf-8"?>
<!-- Generator: Adobe Illustrator 25.0.1, SVG Export Plug-In . SVG Version: 6.00 Build 0)  -->
<svg version="1.1" id="Layer_1" xmlns="http://www.w3.org/2000/svg" xmlns:xlink="http://www.w3.org/1999/xlink" x="0px" y="0px"
	 viewBox="0 0 512 512" style="enable-background:new 0 0 512 512;" xml:space="preserve">
<path d="M372,275.6c0-12.2-10-22.2-22.2-22.2H324v-34.7c15-8.7,24.5-24.8,24.5-42.4c0-10.1-3.1-19.9-8.9-28.2
	c-5.7-8.1-13.5-14.2-22.7-17.7l-10.3-3.9v32.9l-7.1,4.4l-7.1-4.4v-32.9l-10.3,3.9c-9.2,3.5-17.1,9.6-22.7,17.7
	c-5.8,8.3-8.9,18-8.9,28.2c0,17.8,9.6,34,24.9,42.7v10.2h-32.2L202.3,262H197v-12.1h-56.7v135.6H197V371l27.6,14.4h109.7V385
	c10.2-2,17.9-11,17.9-21.8c0-3.9-1-7.6-2.8-10.8c5.9-4,9.8-10.7,9.8-18.4c0-4-1.1-7.8-3-11c5.7-4,9.5-10.7,9.5-18.2
	c0-4.1-1.1-7.9-3-11.1C368.3,289.7,372,283.1,372,275.6z M265.6,176.3c0-9.9,4.4-19.1,11.6-25.4V168l22.3,13.8l22.3-13.8v-17.1
	c7.2,6.3,11.6,15.6,11.6,25.4c0,13.3-7.8,25.4-20,30.9l-4.5,2v44.2h-18.3v-44.1l-4.6-2C273.6,201.9,265.6,189.8,265.6,176.3z
	 M181.8,370.2h-26.3V265h26.3V370.2z M330,370.2H228.4L197,353.9v-76.7h10.7l40.8-32.8h26.6v24.3h74.7c3.9,0,7,3.1,7,7
	c0,3.9-3.1,7-7,7h-44.2v15.2h38c3.9,0,7,3.1,7,7c0,3.9-3.1,7-7,7H299V327h38c3.9,0,7,3.1,7,7c0,3.9-3.1,7-7,7h-44.9v15.2h38
	c3.9,0,7,3.1,7,7C337.1,367.1,333.9,370.2,330,370.2z"/>
</svg>
