<?xml version="1.0" encoding="utf-8"?>
<!-- Generator: Adobe Illustrator 25.0.1, SVG Export Plug-In . SVG Version: 6.00 Build 0)  -->
<svg version="1.1" id="Capa_1" xmlns="http://www.w3.org/2000/svg" xmlns:xlink="http://www.w3.org/1999/xlink" x="0px" y="0px"
	 viewBox="0 0 512 512" style="enable-background:new 0 0 512 512;" xml:space="preserve">
<g>
	<path d="M372.7,336l-21.6-38.3c2.3-4.1,3.5-8.8,3.5-13.6V135c0-15.4-12.5-27.9-27.9-27.9H83.9c-15.4,0-27.9,12.5-27.9,27.9v149
		c0,15.4,12.5,27.9,27.9,27.9h118.7l-13.5,24c-3.5,6.2,1,13.9,8.1,13.9h167.4C371.7,349.9,376.2,342.2,372.7,336L372.7,336z
		 M306.8,218.8h29.3v52L306.8,218.8z M272.7,187l-7.4,13.2H74.6v-27.9h261.5v27.9h-39.8l-7.4-13.2c-2.8-5-8.2-4.8-8.1-4.7
		C277.4,182.3,274.3,184.1,272.7,187L272.7,187z M83.9,125.7h242.9c5.1,0,9.3,4.2,9.3,9.3v18.7H74.6V135
		C74.6,129.8,78.7,125.7,83.9,125.7L83.9,125.7z M83.9,293.3c-5.1,0-9.3-4.2-9.3-9.3v-65.2h180.3L213,293.3L83.9,293.3z
		 M213.1,331.2c7.6-13.5,58.7-104.6,67.7-120.6c3.5,6.3,65,115.5,67.9,120.6H213.1z"/>
	<path d="M280.4,246.7c-5.1,0-9.3,4.2-9.3,9.3v18.7c0,5.1,4.2,9.3,9.3,9.3c5.1,0,9.3-4.2,9.3-9.3V256
		C289.7,250.9,285.6,246.7,280.4,246.7z"/>
	<circle cx="280.4" cy="303" r="9"/>
	<path d="M121.8,246.7h-18.6c-5.1,0-9.3,4.2-9.3,9.3c0,5.1,4.2,9.3,9.3,9.3h18.6c5.1,0,9.3-4.2,9.3-9.3
		C131.1,250.9,126.9,246.7,121.8,246.7z"/>
	<path d="M177.6,246.7h-18.6c-5.1,0-9.3,4.2-9.3,9.3c0,5.1,4.2,9.3,9.3,9.3h18.6c5.1,0,9.3-4.2,9.3-9.3
		C186.9,250.9,182.7,246.7,177.6,246.7z"/>
</g>
</svg>
