<?xml version="1.0" encoding="utf-8"?>
<!-- Generator: Adobe Illustrator 25.0.1, SVG Export Plug-In . SVG Version: 6.00 Build 0)  -->
<svg version="1.1" id="Layer_1" xmlns="http://www.w3.org/2000/svg" xmlns:xlink="http://www.w3.org/1999/xlink" x="0px" y="0px"
	 viewBox="0 0 512 512" style="enable-background:new 0 0 512 512;" xml:space="preserve">
<path d="M194,206.4c12.7,0,23.1-10.3,23.1-23.1c0-9.8-6.2-18.3-14.9-21.6c3-16,10.6-30.6,22.2-42.2c26.7-26.7,69-31.2,100.7-10.8
	c3.1,2,7.3,1.1,9.4-2c2-3.1,1.1-7.3-2-9.4c-17.8-11.5-39.3-16.6-60.5-14.5c-21.5,2.2-41.8,11.8-57.1,27.1c-14,14-23,31.6-26.3,51
	c-10.1,2.5-17.6,11.6-17.6,22.4C171,196.1,181.3,206.4,194,206.4z M194,173.9c5.2,0,9.5,4.3,9.5,9.5c0,5.2-4.3,9.5-9.5,9.5
	c-5.2,0-9.5-4.3-9.5-9.5C184.5,178.1,188.8,173.9,194,173.9z"/>
<path d="M236.1,243.4c-3.1-2.1-7.3-1.3-9.4,1.8c-2.1,3.1-1.3,7.3,1.8,9.4c16,10.9,34.5,16.3,52.8,16.3c24.3,0,48.5-9.4,66.7-27.6
	c14-14,23-31.6,26.3-51c10.1-2.5,17.6-11.6,17.6-22.4c0-12.7-10.3-23.1-23.1-23.1c-12.7,0-23.1,10.3-23.1,23.1
	c0,9.8,6.2,18.3,14.9,21.6c-3,16-10.6,30.6-22.2,42.2C311.1,261,268.1,265.1,236.1,243.4z M368.8,160.4c5.2,0,9.5,4.3,9.5,9.5
	c0,5.2-4.3,9.5-9.5,9.5c-5.2,0-9.5-4.3-9.5-9.5C359.4,164.7,363.6,160.4,368.8,160.4z"/>
<path d="M278,230.3c1,0.6,2.2,0.9,3.4,0.9s2.3-0.3,3.4-0.9l41.4-23.9c2.1-1.2,3.4-3.5,3.4-5.9v-47.8c0-2.4-1.3-4.7-3.4-5.9
	L284.8,123c-2.1-1.2-4.7-1.2-6.8,0l-41.4,23.9c-2.1,1.2-3.4,3.4-3.4,5.9v47.8c0,2.4,1.3,4.7,3.4,5.9L278,230.3z M246.9,164.5
	l27.8,16v32.1l-27.8-16V164.5z M288.2,212.6v-32.1l27.8-16v32.1L288.2,212.6z M281.4,136.7l27.8,16l-27.8,16l-27.8-16L281.4,136.7z"
	/>
<path d="M422,292.5c-0.4-7.4-4.1-14.1-10-18.6c-9.6-7.1-22.9-6.4-31.7,1.8l-51.5,48c-0.1-10.4-7-19.6-17.3-22.5l-61-16.9
	c-21.4-5.9-43.9-3.4-63.5,7L143,314.9l-6-6c-4.1-4.1-10.9-4.1-15,0l-30.9,30.9c-2.6,2.6-2.6,6.9,0,9.6c2.6,2.6,6.9,2.6,9.6,0
	l28.8-28.8l73.3,73.3L178.5,418c-2.6,2.6-2.6,6.9,0,9.6c1.3,1.3,3.1,2,4.8,2c1.7,0,3.5-0.7,4.8-2l26.3-26.3c2.3-2.3,3.3-5.3,3.1-8.3
	H293c22.1,0,43.1-8.3,59.3-23.3l61.8-57.5C419.5,307.1,422.4,299.9,422,292.5z M404.9,302.2L343,359.7c-13.6,12.7-31.4,19.7-50,19.7
	h-85.1c-0.1,0-0.3,0-0.4,0L153,324.9l40.3-21.5c16.5-8.8,35.5-10.9,53.5-5.9l61,16.9c4.7,1.3,7.8,5.8,7.3,10.6c-0.5,5.1-4.8,9-10,9
	h-77.6c-3.7,0-6.8,3-6.8,6.8c0,3.7,3,6.8,6.8,6.8l47.5,0h29.8c11.7,0,22.8-4.4,31.4-12.3l53.3-49.6c4-3.7,10-4,14.4-0.8
	c2.7,2,4.3,5.1,4.5,8.4C408.6,296.7,407.3,299.9,404.9,302.2z"/>
<path d="M351.1,130.6c1.8,0,3.5-0.7,4.8-2c1.3-1.3,2-3,2-4.8c0-1.8-0.7-3.5-2-4.8c-1.3-1.3-3-2-4.8-2c-1.8,0-3.5,0.7-4.8,2
	c-1.3,1.3-2,3-2,4.8c0,1.8,0.7,3.5,2,4.8C347.6,129.9,349.3,130.6,351.1,130.6z"/>
<path d="M210.5,220.9c-1.8,0-3.5,0.7-4.8,2c-1.3,1.3-2,3-2,4.8c0,1.8,0.7,3.5,2,4.8c1.3,1.3,3,2,4.8,2c1.8,0,3.5-0.7,4.8-2
	c1.3-1.3,2-3,2-4.8c0-1.8-0.7-3.5-2-4.8C214,221.6,212.2,220.9,210.5,220.9z"/>
</svg>
