<?xml version="1.0" encoding="utf-8"?>
<!-- Generator: Adobe Illustrator 25.0.1, SVG Export Plug-In . SVG Version: 6.00 Build 0)  -->
<svg version="1.1" id="Capa_1" xmlns="http://www.w3.org/2000/svg" xmlns:xlink="http://www.w3.org/1999/xlink" x="0px" y="0px"
	 viewBox="0 0 512 512" style="enable-background:new 0 0 512 512;" xml:space="preserve">
<g>
	<path d="M328.3,333.7V256c0-39.8-32.4-72.3-72.3-72.3s-72.3,32.4-72.3,72.3v77.7c-10.2,3.3-17.5,12.8-17.5,24V392h179.6v-34.3
		C345.8,346.5,338.4,337,328.3,333.7z M199.7,315h112.6v17.5H199.7V315z M256,199.7c31.1,0,56.3,25.3,56.3,56.3v43H199.7v-43
		C199.7,224.9,225,199.7,256,199.7z M329.9,376.1H182.2v-18.3c0-5.1,4.2-9.3,9.3-9.3h129.1c5.1,0,9.3,4.2,9.3,9.3V376.1z"/>
	<path d="M248.1,120H264v38.3h-15.9V120z"/>
	<path d="M286.9,161.2l14.2-35.5l14.8,5.9l-14.2,35.5L286.9,161.2z"/>
	<path d="M320.3,179.8l25.8-28.3l11.8,10.7l-25.8,28.3L320.3,179.8z"/>
	<path d="M196.1,131.6l14.8-5.9l14.2,35.5l-14.8,5.9L196.1,131.6z"/>
	<path d="M154.2,162.2l11.8-10.7l25.8,28.3L180,190.5L154.2,162.2z"/>
	<path d="M248.1,217.2H264v43.2h-15.9V217.2z"/>
	<path d="M248.1,271.4H264v15.9h-15.9V271.4z"/>
</g>
</svg>
