<?xml version="1.0" encoding="utf-8"?>
<!-- Generator: Adobe Illustrator 25.0.1, SVG Export Plug-In . SVG Version: 6.00 Build 0)  -->
<svg version="1.1" id="Capa_1" xmlns="http://www.w3.org/2000/svg" xmlns:xlink="http://www.w3.org/1999/xlink" x="0px" y="0px"
	 viewBox="0 0 512 512" style="enable-background:new 0 0 512 512;" xml:space="preserve">
<g>
	<g>
		<path d="M446.5,230.7h-34.3c-3,0-5.4,2.4-5.4,5.4v27c0,3,2.4,5.4,5.4,5.4s5.4-2.4,5.4-5.4v-21.7h23.5v140.9h-11.8h-11.8v-79.1
			c0-3-2.4-5.4-5.4-5.4s-5.4,2.4-5.4,5.4v79.1h-10.7V271.5c0-3-2.4-5.4-5.4-5.4h-34.3c-3,0-5.4,2.4-5.4,5.4v110.8h-10.7V309
			c0-3-2.4-5.4-5.4-5.4H301c-3,0-5.4,2.4-5.4,5.4v73.3h-10.7v-42.6c0-3-2.4-5.4-5.4-5.4h-34.3c-3,0-5.4,2.4-5.4,5.4v42.6h-46
			c-3,0-5.4-2.4-5.4-5.4V135.1c0-3,2.4-5.4,5.4-5.4H332V165c0,8.9,7.2,16.1,16.1,16.1h35.3v65.8c0,3,2.4,5.4,5.4,5.4
			c3,0,5.4-2.4,5.4-5.4v-71.2c0-1.4-0.6-2.8-1.6-3.8l-51.4-51.4c-1-1-2.4-1.6-3.8-1.6H193.9c-8.9,0-16.1,7.2-16.1,16.1v241.9
			c0,8.9,7.2,16.1,16.1,16.1h252.6c3,0,5.4-2.4,5.4-5.4V236.1C451.9,233.1,449.5,230.7,446.5,230.7z M342.7,137.3l33.1,33.1H348
			c-3,0-5.4-2.4-5.4-5.4V137.3z M274.2,382.3h-23.5V345h23.5V382.3z M329.9,382.3h-23.5v-68h23.5V382.3z M385.5,382.3H362V276.9
			h23.5V382.3z"/>
	</g>
</g>
<g>
	<g>
		<path d="M416,278.4c-1-1-2.4-1.6-3.8-1.6s-2.8,0.6-3.8,1.6c-1,1-1.6,2.4-1.6,3.8c0,1.4,0.6,2.8,1.6,3.8c1,1,2.4,1.6,3.8,1.6
			s2.8-0.6,3.8-1.6c1-1,1.6-2.4,1.6-3.8C417.6,280.8,417,279.4,416,278.4z"/>
	</g>
</g>
<g>
	<g>
		<path d="M255.8,148.3c-3,0-5.4,2.4-5.4,5.4v9.6c-24.6,2.7-43.9,23.6-43.9,48.9c0,27.1,22.1,49.2,49.2,49.2
			c25.3,0,46.3-19.2,48.9-43.9h9.6c3,0,5.4-2.4,5.4-5.4C319.7,177,291,148.3,255.8,148.3z M255.8,250.7c-21.2,0-38.5-17.3-38.5-38.5
			c0-19.4,14.5-35.5,33.2-38.1v38.1c0,3,2.4,5.4,5.4,5.4h38.1C291.3,236.3,275.2,250.7,255.8,250.7z M261.1,206.8L261.1,206.8v-47.6
			c25.1,2.5,45.1,22.5,47.6,47.6H261.1z"/>
	</g>
</g>
<g>
	<g>
		<path d="M314.3,276.5H212.1c-3,0-5.4,2.4-5.4,5.4s2.4,5.4,5.4,5.4h102.2c3,0,5.4-2.4,5.4-5.4S317.3,276.5,314.3,276.5z"/>
	</g>
</g>
<g>
	<g>
		<path d="M246.4,302.3h-34.3c-3,0-5.4,2.4-5.4,5.4s2.4,5.4,5.4,5.4h34.3c3,0,5.4-2.4,5.4-5.4S249.3,302.3,246.4,302.3z"/>
	</g>
</g>
<g>
	<g>
		<path d="M277,303.9c-1-1-2.4-1.6-3.8-1.6c-1.4,0-2.8,0.6-3.8,1.6c-1,1-1.6,2.4-1.6,3.8s0.6,2.8,1.6,3.8c1,1,2.4,1.6,3.8,1.6
			c1.4,0,2.8-0.6,3.8-1.6c1-1,1.6-2.4,1.6-3.8S277.9,304.9,277,303.9z"/>
	</g>
</g>
</svg>
