<?xml version="1.0" encoding="utf-8"?>
<!-- Generator: Adobe Illustrator 25.0.1, SVG Export Plug-In . SVG Version: 6.00 Build 0)  -->
<svg version="1.1" id="Layer_1" xmlns="http://www.w3.org/2000/svg" xmlns:xlink="http://www.w3.org/1999/xlink" x="0px" y="0px"
	 viewBox="0 0 512 512" style="enable-background:new 0 0 512 512;" xml:space="preserve">
<style type="text/css">
	.st0{fill:#E61F2D;}
</style>
<circle class="st0" cx="209" cy="174" r="108"/>
<g>
	<path d="M334.6,206h-83.2v83.2h83.2L334.6,206L334.6,206z M315.7,270.2h-45.3v-45.3h45.3V270.2z"/>
	<path d="M423,257.1c-14.1,0-26.1,9.3-30.1,22.1h-20.4V216h20.4c4,12.8,16,22.1,30.1,22.1c17.4,0,31.6-14.2,31.6-31.6
		s-14.2-31.6-31.6-31.6c-14.1,0-26.1,9.3-30.1,22.1h-20.4v-28.9h-28.9v-20.4c12.8-4,22.1-16,22.1-30.1c0-17.4-14.2-31.6-31.6-31.6
		c-17.4,0-31.6,14.2-31.6,31.6c0,14.1,9.3,26.1,22.1,30.1v20.4h-63.2v-20.4c12.8-4,22.1-16,22.1-30.1c0-17.4-14.2-31.6-31.6-31.6
		c-17.4,0-31.6,14.2-31.6,31.6c0,14.1,9.3,26.1,22.1,30.1v20.4h-28.9v28.9h-20.4c-4-12.8-16-22.1-30.1-22.1
		c-17.4,0-31.6,14.2-31.6,31.6c0,17.4,14.2,31.6,31.6,31.6c14.1,0,26.1-9.3,30.1-22.1h20.4v63.2h-20.4c-4-12.8-16-22.1-30.1-22.1
		c-17.4,0-31.6,14.2-31.6,31.6s14.2,31.6,31.6,31.6c14.1,0,26.1-9.3,30.1-22.1h20.4v28.9h28.9v20.4c-12.8,4-22.1,16-22.1,30.1
		c0,17.4,14.2,31.6,31.6,31.6c17.4,0,31.6-14.2,31.6-31.6c0-14.1-9.3-26.1-22.1-30.1v-20.4h63.2v20.4c-12.8,4-22.1,16-22.1,30.1
		c0,17.4,14.2,31.6,31.6,31.6c17.4,0,31.6-14.2,31.6-31.6c0-14.1-9.3-26.1-22.1-30.1v-20.4h28.9v-28.9h20.4
		c4,12.8,16,22.1,30.1,22.1c17.4,0,31.6-14.2,31.6-31.6S440.4,257.1,423,257.1z M423,193.9c7,0,12.6,5.7,12.6,12.6
		c0,7-5.7,12.6-12.6,12.6c-7,0-12.6-5.7-12.6-12.6C410.4,199.6,416,193.9,423,193.9z M334.1,104.9c7,0,12.6,5.7,12.6,12.6
		s-5.7,12.6-12.6,12.6c-7,0-12.6-5.7-12.6-12.6C321.4,110.6,327.1,104.9,334.1,104.9z M251.9,104.9c7,0,12.6,5.7,12.6,12.6
		s-5.7,12.6-12.6,12.6c-7,0-12.6-5.7-12.6-12.6C239.3,110.6,245,104.9,251.9,104.9z M163,219.2c-7,0-12.6-5.7-12.6-12.6
		c0-7,5.7-12.6,12.6-12.6c7,0,12.6,5.7,12.6,12.6C175.6,213.5,170,219.2,163,219.2z M163,301.3c-7,0-12.6-5.7-12.6-12.6
		S156,276,163,276c7,0,12.6,5.7,12.6,12.6S170,301.3,163,301.3L163,301.3z M251.9,390.2c-7,0-12.6-5.7-12.6-12.6
		c0-7,5.7-12.6,12.6-12.6c7,0,12.6,5.7,12.6,12.6C264.6,384.6,258.9,390.2,251.9,390.2z M334.1,390.2c-7,0-12.6-5.7-12.6-12.6
		c0-7,5.7-12.6,12.6-12.6c7,0,12.6,5.7,12.6,12.6C346.7,384.6,341,390.2,334.1,390.2z M353.5,308.1H232.5V187.1h121.1L353.5,308.1
		L353.5,308.1z M423,301.3c-7,0-12.6-5.7-12.6-12.6S416,276,423,276c7,0,12.6,5.7,12.6,12.6S430,301.3,423,301.3L423,301.3z"/>
</g>
</svg>
