<?xml version="1.0" encoding="utf-8"?>
<!-- Generator: Adobe Illustrator 25.0.1, SVG Export Plug-In . SVG Version: 6.00 Build 0)  -->
<svg version="1.1" id="Layer_1" xmlns="http://www.w3.org/2000/svg" xmlns:xlink="http://www.w3.org/1999/xlink" x="0px" y="0px"
	 viewBox="0 0 512 512" style="enable-background:new 0 0 512 512;" xml:space="preserve">
<style type="text/css">
	.st0{fill:#E61F2D;}
</style>
<rect x="86" y="78" class="st0" width="341" height="162"/>
<g>
	<path d="M428.7,372.9h-3.2v-74.2c0-12.5-10.1-22.6-22.6-22.6h-29.7v-79.8c11.3-4,19.4-14.8,19.4-27.4c0-16-13-29-29-29
		c-12.6,0-23.4,8.1-27.4,19.4h-53.9v-36.1c0-12.5-10.1-22.6-22.6-22.6H143.5c-12.5,0-22.6,10.1-22.6,22.6v74.2h-3.2
		c-5.3,0-9.7,4.3-9.7,9.7v6.5c0,23.1,18.8,41.9,41.9,41.9h23.2v60.4c-11.3,4-19.4,14.8-19.4,27.4c0,16,13,29,29,29
		c12.6,0,23.4-8.1,27.4-19.4h53.9v20h-3.2c-5.3,0-9.7,4.3-9.7,9.7v6.5c0,23.1,18.8,41.9,41.9,41.9h103.3c23.1,0,41.9-18.8,41.9-41.9
		v-6.5C438.4,377.3,434.1,372.9,428.7,372.9z M363.6,159.3c5.3,0,9.7,4.3,9.7,9.7c0,5.3-4.3,9.7-9.7,9.7c-5.3,0-9.7-4.3-9.7-9.7
		C353.9,163.7,358.2,159.3,363.6,159.3z M140.3,123.2c0-1.8,1.4-3.2,3.2-3.2h116.2c1.8,0,3.2,1.4,3.2,3.2v74.2H140.3V123.2z
		 M127.6,216.7h148c-1.6,10.9-11,19.4-22.4,19.4H149.9C138.6,236.1,129.2,227.7,127.6,216.7L127.6,216.7z M182.9,352.9
		c-5.3,0-9.7-4.3-9.7-9.7s4.3-9.7,9.7-9.7s9.7,4.3,9.7,9.7S188.2,352.9,182.9,352.9z M210.2,333.6c-2.9-8.2-9.5-14.8-17.7-17.7
		v-60.4h60.7c23.1,0,41.9-18.8,41.9-41.9v-6.5c0-5.3-4.3-9.7-9.7-9.7h-3.2v-18.7h53.9c2.9,8.2,9.5,14.8,17.7,17.7v79.8h-67.1
		c-12.5,0-22.6,10.1-22.6,22.6v34.8H210.2z M283.5,298.7c0-1.8,1.4-3.2,3.2-3.2h116.2c1.8,0,3.2,1.4,3.2,3.2v74.2H283.5V298.7z
		 M396.5,411.6H293.2c-11.4,0-20.8-8.4-22.4-19.4h148C417.3,403.2,407.8,411.6,396.5,411.6L396.5,411.6z"/>
</g>
</svg>
