<?xml version="1.0" encoding="utf-8"?>
<!-- Generator: Adobe Illustrator 25.0.1, SVG Export Plug-In . SVG Version: 6.00 Build 0)  -->
<svg version="1.1" id="Layer_1" xmlns="http://www.w3.org/2000/svg" xmlns:xlink="http://www.w3.org/1999/xlink" x="0px" y="0px"
	 viewBox="0 0 512 512" style="enable-background:new 0 0 512 512;" xml:space="preserve">
<path d="M379.2,246.8h-43.8c2.4-4.6,3.7-9.9,3.7-15.4v-98.5c0-18.7-15.2-33.8-33.8-33.8h-98.5c-18.7,0-33.8,15.2-33.8,33.8v98.5
	c0,5.6,1.4,10.8,3.7,15.4h-43.8c-18.7,0-33.8,15.2-33.8,33.8v98.5c0,18.7,15.2,33.8,33.8,33.8h98.5c9.7,0,18.5-4.1,24.6-10.7
	c6.2,6.6,14.9,10.7,24.6,10.7h98.5c18.7,0,33.8-15.2,33.8-33.8v-98.5C413,262,397.8,246.8,379.2,246.8z M394.6,280.6V365H265.2
	v-84.4c0-8.5,6.9-15.4,15.4-15.4h15.4v30.2c0,5.1,4.1,9.2,9.2,9.2h49.3c5.1,0,9.2-4.1,9.2-9.2v-30.2h15.4
	C387.7,265.2,394.6,272.1,394.6,280.6z M345.3,286.2h-30.9v-21h30.9V286.2z M271.4,117.4v21h-30.9v-21H271.4z M206.7,117.4h15.4
	v30.2c0,5.1,4.1,9.2,9.2,9.2h49.3c5.1,0,9.2-4.1,9.2-9.2v-30.2h15.4c8.5,0,15.4,6.9,15.4,15.4v84.4H191.3v-84.4
	C191.3,124.3,198.2,117.4,206.7,117.4z M191.9,235.6h128.2c-1.9,6.4-7.8,11.2-14.8,11.2h-98.5C199.7,246.8,193.8,242.1,191.9,235.6z
	 M197.5,265.2v21h-30.9v-21H197.5z M132.8,265.2h15.4v30.2c0,5.1,4.1,9.2,9.2,9.2h49.3c5.1,0,9.2-4.1,9.2-9.2v-30.2h15.4
	c8.5,0,15.4,6.9,15.4,15.4V365H117.4v-84.4C117.4,272.1,124.3,265.2,132.8,265.2z M231.4,394.6h-98.5c-7,0-13-4.7-14.8-11.2h128.2
	C244.3,389.9,238.4,394.6,231.4,394.6z M379.2,394.6h-98.5c-7,0-13-4.7-14.8-11.2H394C392.1,389.9,386.2,394.6,379.2,394.6z"/>
</svg>
