<?xml version="1.0" encoding="utf-8"?>
<!-- Generator: Adobe Illustrator 25.0.1, SVG Export Plug-In . SVG Version: 6.00 Build 0)  -->
<svg version="1.1" id="Layer_1" xmlns="http://www.w3.org/2000/svg" xmlns:xlink="http://www.w3.org/1999/xlink" x="0px" y="0px"
	 viewBox="0 0 512 512" style="enable-background:new 0 0 512 512;" xml:space="preserve">
<path d="M436.5,161.2h-39.8v-16.8H155.5v287.2h241.2v-85.3h33.7V234.1h6.2V161.2z M172.4,414.7V161.2h16.8v253.5H172.4z M419.7,178
	v39.3h-23V178H419.7z M379.9,414.7H206V161.2h173.9V414.7z M413.5,329.5h-16.8v-39.3h16.8V329.5z M413.5,273.4h-16.8v-39.3h16.8
	V273.4z"/>
<path d="M258.2,281.2c-9,0-17.4,3.5-23.8,9.9c-6.4,6.4-9.9,14.8-9.9,23.8s3.5,17.4,9.9,23.8l23.8,23.8l23.8-23.8
	c6.4-6.4,9.9-14.8,9.9-23.8s-3.5-17.4-9.9-23.8C275.6,284.7,267.2,281.2,258.2,281.2z M270.1,326.8l-11.9,11.9l-11.9-11.9
	c-3.2-3.2-4.9-7.4-4.9-11.9s1.8-8.7,4.9-11.9c3.2-3.2,7.4-4.9,11.9-4.9c4.5,0,8.7,1.8,11.9,4.9c3.2,3.2,4.9,7.4,4.9,11.9
	S273.3,323.6,270.1,326.8z"/>
<path d="M337.8,312.1H335c-13.9,0-25.2,11.3-25.2,25.2c0,13.9,11.3,25.2,25.2,25.2h2.8c4.6,0,8.4,3.8,8.4,8.4c0,4.6-3.8,8.4-8.4,8.4
	h-79.6v16.8h79.6c13.9,0,25.2-11.3,25.2-25.2s-11.3-25.2-25.2-25.2H335c-4.6,0-8.4-3.8-8.4-8.4c0-4.6,3.8-8.4,8.4-8.4h2.8
	c13.9,0,25.2-11.3,25.2-25.2s-11.3-25.2-25.2-25.2H335c-4.6,0-8.4-3.8-8.4-8.4v-30.3h-16.8V270c0,13.9,11.3,25.2,25.2,25.2h2.8
	c4.6,0,8.4,3.8,8.4,8.4C346.2,308.3,342.5,312.1,337.8,312.1z"/>
<path d="M321.7,231.3l13.9-13.9l13.9,13.9l11.9-11.9l-13.9-13.9l13.9-13.9l-11.9-11.9l-13.9,13.9l-13.9-13.9l-11.9,11.9l13.9,13.9
	l-13.9,13.9L321.7,231.3z"/>
<path d="M222.8,183.6h44.9v16.8h-44.9V183.6z"/>
<path d="M222.8,217.3h61.7v16.8h-61.7V217.3z"/>
</svg>
