<?xml version="1.0" encoding="utf-8"?>
<!-- Generator: Adobe Illustrator 25.0.1, SVG Export Plug-In . SVG Version: 6.00 Build 0)  -->
<svg version="1.1" id="Layer_1" xmlns="http://www.w3.org/2000/svg" xmlns:xlink="http://www.w3.org/1999/xlink" x="0px" y="0px"
	 viewBox="0 0 512 512" style="enable-background:new 0 0 512 512;" xml:space="preserve">
<style type="text/css">
	.st0{fill:#E61F2D;}
</style>
<circle class="st0" cx="191.7" cy="181.9" r="115.9"/>
<g>
	<g>
		<g>
			<path d="M319.9,121.3c-6.7-2.7-13.7-4.9-20.7-6.6l-4.9,19.8c6.1,1.5,12.2,3.5,18.1,5.8L319.9,121.3z"/>
			<path d="M275.6,131.2l2.2-20.3c-43.8-4.7-87.6,8.4-121.6,36.4l13,15.7C198.9,138.5,237.3,127,275.6,131.2z"/>
			<path d="M357.7,142.6c-5.8-4.4-11.8-8.3-18.1-11.9l-10,17.8c5.5,3.1,10.8,6.6,15.9,10.4L357.7,142.6z"/>
			<path d="M333.9,175.5c-43.9-33.3-104.8-33-148.4,0.7l12.5,16.1c36.4-28.1,87-28.3,123.6-0.6L333.9,175.5z"/>
			<path d="M215.3,204.9l11.2,17c20.1-12.9,45.7-13.1,66-0.6l11-17.2C276.4,187.3,242.1,187.6,215.3,204.9z"/>
			<rect x="260.1" y="354.5" width="20.4" height="20.4"/>
			<rect x="239.7" y="415.6" width="20.4" height="20.4"/>
			<rect x="97.1" y="334.1" width="20.4" height="20.4"/>
			<rect x="97.1" y="374.9" width="20.4" height="20.4"/>
			<rect x="97.1" y="415.6" width="20.4" height="20.4"/>
			<rect x="402.8" y="374.9" width="20.4" height="20.4"/>
			<rect x="402.8" y="415.6" width="20.4" height="20.4"/>
			<rect x="402.8" y="334.1" width="20.4" height="20.4"/>
			<path d="M402.8,242.4V273H362v81.5h-40.8v-50.9h-20.4v-40.8h-30.6v-30.6h-20.4v30.6h-30.6v40.8H199v50.9h-40.8v-61.1h-20.4v-40.8
				H97.1V273h20.4v20.4H97.1v20.4h40.8V436h20.4v-61.1H199V436h20.4V323.9h81.5V436h20.4v-61.1H362V436h20.4V293.4h40.8v-50.9H402.8
				z M280.5,303.5h-40.8v-20.4h40.8V303.5z"/>
		</g>
	</g>
</g>
</svg>
