<?xml version="1.0" encoding="utf-8"?>
<!-- Generator: Adobe Illustrator 25.0.1, SVG Export Plug-In . SVG Version: 6.00 Build 0)  -->
<svg version="1.1" id="Capa_1" xmlns="http://www.w3.org/2000/svg" xmlns:xlink="http://www.w3.org/1999/xlink" x="0px" y="0px"
	 viewBox="0 0 512 512" style="enable-background:new 0 0 512 512;" xml:space="preserve">
<g>
	<path d="M320,119.5C301.9,105,279.2,97,256,97c-23.2,0-45.9,8-64,22.5l11.7,14.5c15-12,33.1-18.4,52.3-18.4s37.3,6.4,52.3,18.4
		L320,119.5z"/>
	<path d="M296.7,148.6c-11.5-9.2-26-14.3-40.7-14.3s-29.2,5.1-40.7,14.3l11.7,14.5c8.3-6.7,18.4-10.2,29.1-10.2
		c10.7,0,20.7,3.5,29.1,10.2L296.7,148.6z"/>
	<path d="M238.5,177.7l11.6,14.5c1.2-0.9,3.1-2,5.8-2s4.7,1.1,5.8,2l11.6-14.5c-4.9-4-11.1-6.1-17.5-6.1
		C249.7,171.5,243.5,173.7,238.5,177.7L238.5,177.7z"/>
	<path d="M415,415V264.7h-93.8v-55.9H190.8v32.9L97,204.4V415H415z M321.2,283.3h75.2v113h-75.2V283.3z M209.4,227.4h93.2v168.9
		h-37.3v-38.5h-18.6v38.5h-37.3V227.4z M115.6,231.8l75.2,29.9v134.7h-75.2V231.8z"/>
	<path d="M265.3,246.1h18.6v18.6h-18.6V246.1z"/>
	<path d="M265.3,283.3h18.6V302h-18.6V283.3z"/>
	<path d="M265.3,320.6h18.6v18.6h-18.6V320.6z"/>
	<path d="M228.1,246.1h18.6v18.6h-18.6V246.1z"/>
	<path d="M228.1,283.3h18.6V302h-18.6V283.3z"/>
	<path d="M228.1,320.6h18.6v18.6h-18.6V320.6z"/>
</g>
</svg>
