<?xml version="1.0" encoding="utf-8"?>
<!-- Generator: Adobe Illustrator 25.0.1, SVG Export Plug-In . SVG Version: 6.00 Build 0)  -->
<svg version="1.1" id="Capa_1" xmlns="http://www.w3.org/2000/svg" xmlns:xlink="http://www.w3.org/1999/xlink" x="0px" y="0px"
	 viewBox="0 0 512 512" style="enable-background:new 0 0 512 512;" xml:space="preserve">
<g>
	<g>
		<path d="M397.4,356.9V114.6H114.6v242.3h97.9l-12.6,24h-16.8v16.6h145.8v-16.6h-16.6l-12.6-24H397.4z M380.9,131.1v174H131.1v-174
			H380.9z M131.1,321.7h249.7v18.6H131.1V321.7z M293.5,380.9h-74.9l12.6-24h49.7L293.5,380.9z"/>
		<path d="M177.7,237.2h56.9v16.6h-56.9L177.7,237.2z"/>
		<path d="M177.7,270.4h56.9v16.6h-56.9L177.7,270.4z"/>
		<path d="M277.4,237.2h56.9v16.6h-56.9L277.4,237.2z"/>
		<path d="M277.4,270.4h56.9v16.6h-56.9L277.4,270.4z"/>
	</g>
	<path d="M255.9,226.8l34.4-34.4c9.4-9.4,9.4-24.8,0-34.2c-4.6-4.6-10.6-7.1-17.1-7.1s-12.5,2.5-17.1,7.1l-0.1,0.1l-0.1-0.1
		c-4.6-4.6-10.6-7.1-17.1-7.1c-6.5,0-12.5,2.5-17.1,7.1c-9.4,9.4-9.4,24.8,0,34.2L255.9,226.8z M233.3,169.7c3-3,7.8-3,10.8,0
		l11.9,11.9l11.9-11.9c3-3,7.8-3,10.8,0c3,3,3,7.8,0,10.8l-22.8,22.8l-22.6-22.8C230.3,177.5,230.3,172.7,233.3,169.7z"/>
</g>
</svg>
