<?xml version="1.0" encoding="utf-8"?>
<!-- Generator: Adobe Illustrator 25.0.1, SVG Export Plug-In . SVG Version: 6.00 Build 0)  -->
<svg version="1.1" id="Layer_1" xmlns="http://www.w3.org/2000/svg" xmlns:xlink="http://www.w3.org/1999/xlink" x="0px" y="0px"
	 viewBox="0 0 512 512" style="enable-background:new 0 0 512 512;" xml:space="preserve">
<style type="text/css">
	.st0{fill:#E61F2D;}
</style>
<polygon class="st0" points="67,402 67,86 383,86 "/>
<g id="Solid">
	<path d="M231.7,182.6c42.6-22.8,94.9-17,131.5,14.6h-14c-9.5,0-17.2,7.7-17.2,17.2c0,9.5,7.7,17.2,17.2,17.2h52.6
		c9.5,0,17.2-7.7,17.2-17.2v-52.6c0-9.5-7.7-17.2-17.2-17.2s-17.2,7.7-17.2,17.2v8.5c-47.4-40.1-114.5-47.3-169.2-18
		c-8.4,4.5-11.6,14.9-7.1,23.3C212.8,184,223.2,187.1,231.7,182.6C231.6,182.6,231.7,182.6,231.7,182.6L231.7,182.6z"/>
	<path d="M230.7,388c-40.6-22.3-64.3-66.5-60.3-112.6c0.4-4.1,0.9-8.2,1.7-12.2l7.4,12.7c4.7,8.3,15.2,11.2,23.5,6.5
		c8.3-4.7,11.2-15.2,6.5-23.5c0-0.1-0.1-0.1-0.1-0.2L183,213.1c-4.8-8.2-15.3-11-23.5-6.3l-45.6,26.3c-8.2,4.8-11,15.3-6.2,23.5
		c4.8,8.2,15.2,11,23.4,6.3l6.8-3.9c-0.8,4.4-1.4,8.9-1.8,13.4c-5.2,59.8,25.4,117,78,145.8c8.3,4.6,18.8,1.7,23.4-6.6
		c4.6-8.3,1.7-18.8-6.6-23.4C230.9,388.1,230.8,388.1,230.7,388z"/>
	<path d="M420.8,267.6L420.8,267.6c-9.6,0-17.3,7.8-17.2,17.3c0,3.6-0.1,7.3-0.5,10.9c-4,45.7-34.3,84.8-77.6,100l7-12.1
		c4.7-8.2,1.9-18.8-6.4-23.5c-8.2-4.7-18.7-1.9-23.4,6.3l-26.3,45.5l0,0.1c-4.7,8.2-1.9,18.7,6.3,23.5l45.6,26.3
		c8.2,4.7,18.8,1.9,23.5-6.4c4.7-8.2,1.9-18.7-6.3-23.4l-7.4-4.2c55.4-20,94.1-70.4,99.3-129c0.4-4.7,0.6-9.4,0.6-14.1
		C438,275.2,430.3,267.6,420.8,267.6L420.8,267.6z"/>
</g>
</svg>
