<?xml version="1.0" encoding="utf-8"?>
<!-- Generator: Adobe Illustrator 25.0.1, SVG Export Plug-In . SVG Version: 6.00 Build 0)  -->
<svg version="1.1" id="Capa_1" xmlns="http://www.w3.org/2000/svg" xmlns:xlink="http://www.w3.org/1999/xlink" x="0px" y="0px"
	 viewBox="0 0 512 512" style="enable-background:new 0 0 512 512;" xml:space="preserve">
<g>
	<g>
		<g>
			<path d="M307.6,135.6H187.2c-14.2,0-25.8,11.6-25.8,25.8V385c0,14.2,11.6,25.8,25.8,25.8h120.4c14.2,0,25.8-11.6,25.8-25.8V161.4
				C333.4,147.2,321.8,135.6,307.6,135.6z M316.2,385c0,4.7-3.9,8.6-8.6,8.6H187.2c-4.7,0-8.6-3.9-8.6-8.6v-8.6h86v-17.2h-86v-172
				h137.6V385z M316.2,170H178.6v-8.6c0-4.7,3.9-8.6,8.6-8.6h120.4c4.7,0,8.6,3.9,8.6,8.6V170z"/>
			<rect x="281.8" y="359.2" width="17.2" height="17.2"/>
			<path d="M222.4,301.2L222.4,301.2l25,39.6l25-39.6c24.9-13.8,33.9-45.2,20.1-70.1s-45.2-33.9-70.1-20.1
				c-24.9,13.8-33.9,45.2-20.1,70.1C207,289.5,213.9,296.5,222.4,301.2z M216.5,240.9c5.8-11.8,17.8-19.3,30.9-19.3
				c19,0,34.4,15.4,34.4,34.4c0,13.2-7.5,25.2-19.3,30.9l-2.2,1.1l-13,20.6l-13-20.6l-2.2-1.1C215.2,278.6,208.1,257.9,216.5,240.9z
				"/>
			<rect x="238.8" y="247.4" width="17.2" height="17.2"/>
		</g>
	</g>
</g>
</svg>
