<?xml version="1.0" encoding="utf-8"?>
<!-- Generator: Adobe Illustrator 25.0.1, SVG Export Plug-In . SVG Version: 6.00 Build 0)  -->
<svg version="1.1" id="Capa_1" xmlns="http://www.w3.org/2000/svg" xmlns:xlink="http://www.w3.org/1999/xlink" x="0px" y="0px"
	 viewBox="0 0 512 512" style="enable-background:new 0 0 512 512;" xml:space="preserve">
<circle cx="187.5" cy="170.7" r="10.2"/>
<circle cx="187.5" cy="211.6" r="10.2"/>
<circle cx="187.5" cy="252.5" r="10.2"/>
<circle cx="228.4" cy="170.7" r="10.2"/>
<circle cx="269.3" cy="170.7" r="10.2"/>
<circle cx="353.8" cy="361.6" r="10.2"/>
<circle cx="353.8" cy="320.7" r="10.2"/>
<circle cx="353.8" cy="279.8" r="10.2"/>
<circle cx="312.9" cy="361.6" r="10.2"/>
<circle cx="272" cy="361.6" r="10.2"/>
<path d="M217.8,283.2h-60.7c-13.2,0-23.9,10.7-23.9,23.9l0.3,111.1c0,13.2,10.7,23.9,23.9,23.9h60.7c13.2,0,23.9-10.7,23.9-23.9
	L241.7,307C241.7,293.9,231,283.2,217.8,283.2z M157.1,303.6h60.7c1.9,0,3.4,1.5,3.4,3.4l0.2,73.6H154l-0.2-73.6
	C153.7,305.2,155.3,303.6,157.1,303.6z M218.1,421.6h-60.7c-1.9,0-3.4-1.5-3.4-3.4l-0.1-17h67.5l0.1,17
	C221.6,420,220,421.6,218.1,421.6z"/>
<path d="M384.1,93h-60.7c-13.2,0-23.9,10.7-23.9,23.9v108.4c0,13.2,10.7,23.9,23.9,23.9h60.7c13.2,0,23.9-10.7,23.9-23.9V116.9
	C408,103.7,397.3,93,384.1,93z M323.5,113.4h60.7c1.9,0,3.4,1.5,3.4,3.4v70.9h-67.5v-70.9C320.1,115,321.6,113.4,323.5,113.4z
	 M384.1,228.6h-60.7c-1.9,0-3.4-1.5-3.4-3.4v-17h67.5v17C387.5,227.1,386,228.6,384.1,228.6z"/>
</svg>
