<?xml version="1.0" encoding="utf-8"?>
<!-- Generator: Adobe Illustrator 25.0.1, SVG Export Plug-In . SVG Version: 6.00 Build 0)  -->
<svg version="1.1" id="Layer_1" xmlns="http://www.w3.org/2000/svg" xmlns:xlink="http://www.w3.org/1999/xlink" x="0px" y="0px"
	 viewBox="0 0 511 511" style="enable-background:new 0 0 511 511;" xml:space="preserve">
<path d="M293.3,204.3h-75.6v14.4h-7.5v14.9h7.5V249h-7.5V264h7.5v15.4h-7.5v14.9h7.5v14.4h75.6v-14.4h7.5v-14.9h-7.5V264h7.5V249
	h-7.5v-15.4h7.5v-14.9h-7.5V204.3z M278.4,264h-45.8V249h45.8V264z M278.4,293.8h-45.8v-14.9h45.8V293.8z M232.6,234.1v-14.9h45.8
	v14.9H232.6z"/>
<path d="M378.6,285c-2.5-9.5-6-19.1-10.5-28.6c15.4-33,19.2-65.5,8.8-89.8c3.6-4,5.9-9.3,5.9-15.1c0-12.3-10-22.4-22.4-22.4
	c-5.8,0-11.1,2.2-15.1,5.9c-24.3-10.4-56.8-6.6-89.8,8.8c-9.5-4.5-19.1-8-28.6-10.5c-33.6-8.8-62.1-3.7-80.2,14.3
	c-18.1,18.1-23.2,46.6-14.3,80.2c2.5,9.5,6,19.1,10.5,28.6c-15.4,33-19.2,65.5-8.8,89.8c-3.6,4-5.9,9.3-5.9,15.1
	c0,12.3,10,22.4,22.4,22.4c5.8,0,11.1-2.2,15.1-5.9c9.2,3.9,19.6,5.8,30.7,5.8c18.3,0,38.5-5.1,59-14.7c9.5,4.5,19.1,8,28.6,10.5
	c10.8,2.8,21,4.2,30.6,4.2c20.2,0,37.3-6.3,49.6-18.6C382.3,347.1,387.4,318.7,378.6,285z M360.4,144.1c4.1,0,7.5,3.3,7.5,7.5
	c0,4.1-3.3,7.5-7.5,7.5s-7.5-3.3-7.5-7.5C352.9,147.5,356.3,144.1,360.4,144.1z M279,150.5c22.9-7.7,43.6-8.4,59.3-2.2
	c-0.2,1.1-0.2,2.2-0.2,3.3c0,12.3,10,22.4,22.4,22.4c1.1,0,2.2-0.1,3.3-0.2c6.2,15.6,5.5,36.4-2.2,59.3c-0.7,2.2-1.5,4.3-2.4,6.5
	c-10-17-22.8-33.5-38-48.7c-15.1-15.1-31.7-28-48.7-38C274.7,152,276.8,151.2,279,150.5z M351.5,256.5c-9.9,19.2-24,38.3-40.9,55.2
	c-16.9,16.9-35.9,30.9-55.2,40.9c-19.1-9.9-38-23.8-55.1-40.9c-17.1-17.1-31-35.9-40.9-55.1c9.9-19.2,24-38.3,40.9-55.2
	c16.9-16.9,35.9-30.9,55.2-40.9c19.1,9.9,38,23.8,55.1,40.9S341.6,237.3,351.5,256.5z M146.8,224.2c-7.4-28.3-3.7-51.7,10.5-65.8
	c9.4-9.4,22.9-14.2,39.1-14.2c8.2,0,17.2,1.2,26.7,3.7c5.1,1.3,10.2,3,15.4,5c-16.8,9.9-33.4,22.6-48.7,38s-28.1,31.9-38,48.7
	C149.9,234.4,148.2,229.3,146.8,224.2z M150.6,368.9c-4.1,0-7.5-3.3-7.5-7.5s3.3-7.5,7.5-7.5c4.1,0,7.5,3.3,7.5,7.5
	S154.7,368.9,150.6,368.9z M232,362.5c-22.9,7.7-43.6,8.4-59.3,2.2c0.2-1.1,0.2-2.2,0.2-3.3c0-12.3-10-22.4-22.4-22.4
	c-1.1,0-2.2,0.1-3.3,0.2c-6.2-15.6-5.5-36.4,2.2-59.3c0.7-2.2,1.5-4.3,2.4-6.5c10,17,22.8,33.5,38,48.7c15.1,15.1,31.7,28,48.7,38
	C236.3,361,234.2,361.8,232,362.5z M353.7,354.7c-14.2,14.2-37.6,17.9-65.8,10.5c-5.1-1.3-10.2-3-15.4-5c16.8-9.9,33.4-22.6,48.7-38
	c15.3-15.3,28.1-31.9,38-48.7c2,5.2,3.7,10.3,5,15.4C371.6,317.1,367.9,340.5,353.7,354.7z"/>
</svg>
