<?xml version="1.0" encoding="utf-8"?>
<!-- Generator: Adobe Illustrator 25.0.1, SVG Export Plug-In . SVG Version: 6.00 Build 0)  -->
<svg version="1.1" id="Capa_1" xmlns="http://www.w3.org/2000/svg" xmlns:xlink="http://www.w3.org/1999/xlink" x="0px" y="0px"
	 viewBox="0 0 512 512" style="enable-background:new 0 0 512 512;" xml:space="preserve">
<g>
	<g>
		<path d="M345,290c0,14.1,11.4,25.5,25.5,25.5S396,304,396,290s-11.4-25.5-25.5-25.5S345,275.9,345,290z M362,290
			c0-4.7,3.8-8.5,8.5-8.5s8.5,3.8,8.5,8.5s-3.8,8.5-8.5,8.5S362,294.7,362,290z"/>
	</g>
</g>
<g>
	<g>
		<path d="M140,341c0,11.3,4.4,22.1,12.4,30.3c8.1,8.3,18.8,12.8,30.1,12.8h60.9c3.5,9.9,13,17,24,17s20.5-7.1,24-17h79
			c0,0,0.1,0,0.1,0c2.8,0,5.4-1.4,6.9-3.6l40.7-54.8C425.9,315.3,430,303,430,290c0-32.8-26.7-59.5-59.5-59.5s-59.5,26.7-59.5,59.5
			c0,13,4.1,25.3,11.9,35.7l30.7,41.4h-62.2c-3.5-9.9-13-17-24-17s-20.5,7.1-24,17h-60.9c-13.8,0-25.5-11.9-25.5-26.1
			c0-14.1,11.4-25.5,25.5-25.5h10c3.5,9.9,13,17,24,17s20.5-7.1,24-17h18.5c18.7,0,34-15.2,34-34s-15.2-34-34-34h-42.6l30.7-41.4
			c7.8-10.3,11.9-22.7,11.9-35.6c0-32.8-26.7-59.5-59.5-59.5S140,137.7,140,170.5c0,13,4.1,25.3,11.9,35.7l40.8,54.9
			c1.6,2.1,4.1,3.4,6.8,3.4h59.5c9.4,0,17,7.6,17,17s-7.6,17-17,17h-18.5c-3.5-9.9-13-17-24-17c-11.1,0-20.5,7.1-24,17h-10
			C159.1,298.5,140,317.5,140,341z M199.5,241.7l-34-45.8c-5.6-7.4-8.5-16.2-8.5-25.5C157,147,176,128,199.5,128S242,147,242,170.5
			c0,9.3-2.9,18.1-8.5,25.5c0,0,0,0,0,0L199.5,241.7z M208,307c0-4.7,3.8-8.5,8.5-8.5s8.5,3.8,8.5,8.5s-3.8,8.5-8.5,8.5
			S208,311.7,208,307z M336.5,315.5c-5.6-7.4-8.5-16.2-8.5-25.5c0-23.4,19.1-42.5,42.5-42.5S413,266.6,413,290
			c0,9.3-2.9,18.1-8.5,25.5l-34,45.8L336.5,315.5z M258.9,375.5c0-4.7,3.8-8.5,8.5-8.5s8.5,3.8,8.5,8.5s-3.8,8.5-8.5,8.5
			S258.9,380.2,258.9,375.5z"/>
	</g>
</g>
<g>
	<g>
		<path d="M174,170.5c0,14.1,11.4,25.5,25.5,25.5s25.5-11.4,25.5-25.5S213.5,145,199.5,145S174,156.4,174,170.5z M191,170.5
			c0-4.7,3.8-8.5,8.5-8.5s8.5,3.8,8.5,8.5s-3.8,8.5-8.5,8.5S191,175.2,191,170.5z"/>
	</g>
</g>
</svg>
