<?xml version="1.0" encoding="utf-8"?>
<!-- Generator: Adobe Illustrator 25.0.1, SVG Export Plug-In . SVG Version: 6.00 Build 0)  -->
<svg version="1.1" id="Layer_1" xmlns="http://www.w3.org/2000/svg" xmlns:xlink="http://www.w3.org/1999/xlink" x="0px" y="0px"
	 viewBox="0 0 512 512" style="enable-background:new 0 0 512 512;" xml:space="preserve">
<path d="M185.1,258.5c-11.9,0-21.5,9.6-21.5,21.5s9.6,21.5,21.5,21.5c11.9,0,21.5-9.6,21.5-21.5C206.6,268.2,197,258.6,185.1,258.5z
	 M185.1,290.9c-6,0-10.9-4.9-10.9-10.9c0-6,4.9-10.9,10.9-10.9c6,0,10.9,4.9,10.9,10.9C196,286,191.1,290.9,185.1,290.9z"/>
<path d="M125.7,221.3L125.7,221.3l20.9,0.1c-2.2,1.6-4.3,3.5-6,5.6c-5.8,7-9,15.8-8.9,24.9c0,0.2,0,0.5,0,0.7l9.3,72.1
	c0,10.3,7.6,19,17.8,20.3v23.4c0,7.2,5.6,13.3,12.8,13.3h23.7c7.3-0.1,13.2-6,13.2-13.3v-22.8h103.3c1.6,0,2.9-1.1,4.4-2.2v48.7
	c0,2.9,2,5.5,4.9,5.5H341c2.7-0.1,5-2.2,5.2-4.9l2.5-25.9c10.9-2.8,21.4-7.3,31-13.1l19.9,16.4c2.1,1.7,5.2,1.6,7.1-0.3l28.1-28.1
	c1.9-1.9,2.1-5,0.3-7.1l-16.4-19.8c5.9-9.6,10.3-20.1,13.1-31.1l25.8-2.5c2.7-0.3,4.8-2.5,4.8-5.3V236c0-2.7-2.1-5-4.8-5.2
	l-25.8-2.5c-2.8-10.9-7.2-21.4-13.1-31l16.5-19.9c1.7-2.1,1.6-5.2-0.3-7.1l-28.1-28.1c-1.9-1.9-5-2.1-7.1-0.3l-19.8,16.4
	c-9.6-5.9-20.1-10.3-31.1-13.1l-2.5-25.9c-0.3-2.7-2.5-4.8-5.3-4.9h-19.8c-2.9,0-4.9,2.6-4.9,5.5v9.2c-0.8-0.3-1.7-0.4-2.5-0.4h-79
	c-17.4,0-32.8,12-43.4,33.9L178,186.1c-6.3,0-20.7-0.1-28.6-0.1c-12.7,0-23,6.3-26.2,16.1c-1.5,4.5-2.4,9.2-2.8,13.9
	c-0.1,1.4,0.5,2.8,1.5,3.8C122.9,220.8,124.3,221.4,125.7,221.3z M326.8,183.8c36.9,2.8,67,34.1,67,72.2s-30.1,69.4-67,72.2V183.8z
	 M326.8,338.8c42.9-2.8,77.5-38.9,77.5-82.8s-34.6-80-77.5-82.8v-48.3h9.4l2.4,24.9c0.2,2.3,1.9,4.2,4.1,4.7
	c12.3,2.7,24,7.6,34.5,14.6c1.9,1.3,4.5,1.2,6.3-0.3l19.1-15.8l21.4,21.4l-15.8,19.1c-1.5,1.8-1.6,4.3-0.4,6.2
	c6.9,10.6,11.9,22.3,14.6,34.6c0.5,2.2,2.4,3.9,4.6,4.1l24.8,2.4v30.3l-24.8,2.4c-2.3,0.2-4.2,1.9-4.6,4.1
	c-2.7,12.3-7.6,24-14.6,34.5c-1.3,1.9-1.2,4.5,0.3,6.3l15.8,19.1L402.6,359l-19.1-15.8c-1.8-1.5-4.3-1.6-6.2-0.4
	c-10.6,6.9-22.3,11.9-34.6,14.6c-2.3,0.5-3.9,2.5-4.1,4.8l-2.4,24.9h-9.4V338.8z M198,368.5c0,1.5-1.2,2.7-2.7,2.8h-23.7
	c-1.4,0-2.2-1.4-2.2-2.8v-22.8H198V368.5z M316.3,281.5c-0.8-0.4-1.6-0.6-2.5-0.7h-69.6l2.7-8.3c2-6,9.2-11.3,15.5-11.3h51.4
	c0.8,0.1,1.7,0,2.5-0.2L316.3,281.5z M316.3,251.5c-0.8-0.4-1.6-0.7-2.5-0.8h-51.4c-10.9,0-22.1,8.3-25.5,18.6l-4.9,15.2
	c-0.5,1.6-0.2,3.3,0.7,4.7c1,1.4,2.6,2.1,4.3,2.1h76.8c0.8,0.1,1.7,0,2.5-0.3v10.4c-0.8-0.3-1.7-0.4-2.5-0.3h-92
	c-2.9,0-5.3,2.4-5.3,5.3c0,2.9,2.4,5.3,5.3,5.3h92c0.9-0.1,1.7-0.3,2.5-0.6v25.5c-1.2-1-2.8-1.6-4.4-1.5H161.7
	c-5.7-0.1-10.4-4.8-10.4-10.5c0-0.2,0-0.5,0-0.7l-9.1-72.1c0.1-15.2,10.6-24.6,21.1-25.1c0.3,0.1,0.6,0.1,0.9,0.1h149.5
	c0.9,0,1.7-0.2,2.5-0.5V251.5z M200.6,167.6c0.1-0.1,0.1-0.1,0.2-0.2c5.1-10.5,16.3-28.1,34-28.1h79c0.9-0.1,1.7-0.3,2.5-0.6v77.9
	c-0.8-0.3-1.7-0.5-2.5-0.5H173.2L200.6,167.6z M133.2,205.5c1.8-5.3,8.3-8.9,16.2-8.9c6,0,15.6,0,22.7,0L164,211l-32.3,0
	C132.1,209.2,132.6,207.3,133.2,205.5z"/>
</svg>
