<?xml version="1.0" encoding="utf-8"?>
<!-- Generator: Adobe Illustrator 25.0.1, SVG Export Plug-In . SVG Version: 6.00 Build 0)  -->
<svg version="1.1" id="Capa_1" xmlns="http://www.w3.org/2000/svg" xmlns:xlink="http://www.w3.org/1999/xlink" x="0px" y="0px"
	 viewBox="0 0 512 512" style="enable-background:new 0 0 512 512;" xml:space="preserve">
<path d="M381.3,104H130.7c-14.7,0-26.7,12-26.7,26.7v231.6c0,14.7,12,26.7,26.7,26.7h80.8v10.1c0,4.9,4,8.9,8.9,8.9s8.9-4,8.9-8.9
	v-46.3c0-3.2-1.7-6.1-4.4-7.7c-19.2-11.1-31.2-31.8-31.2-54c0-16.5,6.6-32.1,17.8-43.6v25.8c0,2.8,1.3,5.4,3.6,7.1l35.6,26.7
	c3.2,2.4,7.5,2.4,10.7,0l35.6-26.7c2.2-1.7,3.6-4.3,3.6-7.1v-25.8c11.2,11.5,17.8,27.2,17.8,43.6c0,22.2-11.9,42.9-31.2,54
	c-2.8,1.6-4.4,4.5-4.4,7.7v46.3c0,4.9,4,8.9,8.9,8.9s8.9-4,8.9-8.9V389h80.8c14.7,0,26.7-12,26.7-26.7V130.7
	C408,116,396,104,381.3,104z M130.7,121.8h250.6c4.9,0,8.9,4,8.9,8.9v44.5H121.8v-44.5C121.8,125.8,125.8,121.8,130.7,121.8z
	 M381.3,371.2h-80.8v-13.5c22.1-14.8,35.6-39.9,35.6-66.7c0-28.5-15.4-55.1-40.1-69.4c-5.9-3.4-13.4,0.9-13.4,7.7v39.4l-26.7,20
	l-26.7-20v-39.4c0-6.9-7.4-11.1-13.4-7.7c-24.7,14.3-40.1,40.9-40.1,69.4c0,26.8,13.5,51.9,35.6,66.7v13.5h-80.8
	c-4.9,0-8.9-4-8.9-8.9V193.1h268.4v169.2C390.2,367.2,386.2,371.2,381.3,371.2L381.3,371.2z"/>
<circle cx="149.1" cy="148.5" r="8.9"/>
<circle cx="184.8" cy="148.5" r="8.9"/>
<circle cx="220.4" cy="148.5" r="8.9"/>
<path d="M309.4,157.4h53.4c4.9,0,8.9-4,8.9-8.9s-4-8.9-8.9-8.9h-53.4c-4.9,0-8.9,4-8.9,8.9S304.5,157.4,309.4,157.4z"/>
</svg>
