<?xml version="1.0" encoding="utf-8"?>
<!-- Generator: Adobe Illustrator 25.0.1, SVG Export Plug-In . SVG Version: 6.00 Build 0)  -->
<svg version="1.1" id="Capa_1" xmlns="http://www.w3.org/2000/svg" xmlns:xlink="http://www.w3.org/1999/xlink" x="0px" y="0px"
	 viewBox="0 0 512 512" style="enable-background:new 0 0 512 512;" xml:space="preserve">
<g>
	<path d="M187.9,201.4c4.7,0,8.4,3.8,8.4,8.4h16.9c0-11-7.1-20.4-16.9-23.9v-18.9h-16.9V186c-9.8,3.5-16.9,12.9-16.9,23.9
		c0,14,11.4,25.3,25.3,25.3c4.7,0,8.4,3.8,8.4,8.4s-3.8,8.4-8.4,8.4s-8.4-3.8-8.4-8.4h-16.9c0,11,7.1,20.4,16.9,23.9v18.3h16.9
		v-18.3c9.8-3.5,16.9-12.9,16.9-23.9c0-14-11.4-25.3-25.3-25.3c-4.7,0-8.4-3.8-8.4-8.4S183.3,201.4,187.9,201.4L187.9,201.4z"/>
	<path d="M365.5,168.4c-3.6-19.6-20.8-35-41.5-35H154.2c-23.3,0-42.2,19.5-42.2,42.8v168.8h16.9c0-14,11.4-25.3,25.3-25.3h9.3
		c3.9,19.2,21,33.8,41.3,33.8h153c14,0,25.3,11.4,25.3,25.3H400V209.9C400,189.2,385.1,172,365.5,168.4z M128.9,311.1v-135
		c0-14,11.4-25.9,25.3-25.9h169.9c14,0,25.3,11.9,25.3,25.9v101.3c0,14-11.4,25.3-25.3,25.3H154.2
		C144.7,302.7,135.9,305.8,128.9,311.1z M383.1,344.9c-7.1-5.3-15.8-8.5-25.3-8.5h-153c-11,0-20.4-7.1-23.9-16.9h143.1
		c23.3,0,42.2-18.9,42.2-42.2V186c9.8,3.5,16.9,12.9,16.9,23.9V344.9z"/>
	<path d="M238.6,184.6h34.9v16.9h-34.9V184.6z"/>
	<path d="M238.6,218.3h85.5v16.9h-85.5V218.3z"/>
	<path d="M238.6,252.1h85.5v16.9h-85.5V252.1z"/>
</g>
</svg>
