<?xml version="1.0" encoding="utf-8"?>
<!-- Generator: Adobe Illustrator 25.0.1, SVG Export Plug-In . SVG Version: 6.00 Build 0)  -->
<svg version="1.1" id="Capa_1" xmlns="http://www.w3.org/2000/svg" xmlns:xlink="http://www.w3.org/1999/xlink" x="0px" y="0px"
	 viewBox="0 0 512 512" style="enable-background:new 0 0 512 512;" xml:space="preserve">
<g>
	<path d="M198.5,399h131.3c47.1,0,85.5-38.3,85.5-85.5c0-47.1-38.3-85.5-85.5-85.5c-9.6,0-18.9,1.6-27.8,4.6
		c-7.6-30.9-35.6-53.5-68.5-53.5c-38.9,0-70.6,31.7-70.6,70.6c0,15.6,5.1,30.5,14.3,42.6c-20.1,8.3-34.2,28.2-34.2,51.2
		C143,374.1,167.9,399,198.5,399L198.5,399z M233.5,197.8c25.5,0,47,18.5,51.1,43.1c-6.3,3.9-12.2,8.7-17.4,14.3c-0.1,0-0.1,0-0.2,0
		c-25,0-47.7,12.7-60.8,33.5c-2.5-0.4-5.1-0.5-7.6-0.5c-10.9-9.8-17-23.7-17-38.4C181.6,221.1,204.9,197.8,233.5,197.8L233.5,197.8z
		 M198.5,306.8c3.4,0,6.8,0.5,10,1.4c4.3,1.2,8.9-0.8,10.9-4.8c9.1-18.2,27.3-29.5,47.7-29.5c3.5,0,7.9,1.1,11.4-3.2
		c12.7-15.2,31.4-23.9,51.3-23.9c36.8,0,66.8,30,66.8,66.8c0,36.8-30,66.8-66.8,66.8H198.5c-20.3,0-36.8-16.5-36.8-36.8
		C161.7,323.3,178.2,306.8,198.5,306.8L198.5,306.8z"/>
	<path d="M136.9,153c-3.6,3.6-3.6,9.5,0,13.2l22.1,22.1c3.6,3.6,9.5,3.6,13.2,0c3.6-3.6,3.6-9.5,0-13.2L150,153
		C146.4,149.4,140.5,149.4,136.9,153z"/>
	<path d="M316.9,153l-22.1,22.1c-3.6,3.6-3.6,9.5,0,13.2c3.6,3.6,9.5,3.6,13.2,0l22.1-22.1c3.6-3.6,3.6-9.5,0-13.2
		C326.5,149.4,320.6,149.4,316.9,153z"/>
	<path d="M106.1,259h31.2c5.2,0,9.3-4.2,9.3-9.3s-4.2-9.3-9.3-9.3h-31.2c-5.2,0-9.3,4.2-9.3,9.3S101,259,106.1,259z"/>
	<path d="M224.2,122.3v31.2c0,5.2,4.2,9.3,9.3,9.3s9.3-4.2,9.3-9.3v-31.2c0-5.2-4.2-9.3-9.3-9.3S224.2,117.2,224.2,122.3z"/>
</g>
</svg>
