<?xml version="1.0" encoding="utf-8"?>
<!-- Generator: Adobe Illustrator 25.0.1, SVG Export Plug-In . SVG Version: 6.00 Build 0)  -->
<svg version="1.1" id="Capa_1" xmlns="http://www.w3.org/2000/svg" xmlns:xlink="http://www.w3.org/1999/xlink" x="0px" y="0px"
	 viewBox="0 0 477.9 477.9" style="enable-background:new 0 0 477.9 477.9;" xml:space="preserve">
<g>
	<g>
		<path d="M378.4,116.9H186.6c-14.4,0-26.2,11.7-26.2,26.2v191.8c0,14.4,11.7,26.2,26.2,26.2h191.8c14.4,0,26.2-11.7,26.2-26.2V143
			C404.6,128.6,392.9,116.9,378.4,116.9z M387.2,334.8c0,4.8-3.9,8.7-8.7,8.7H186.6c-4.8,0-8.7-3.9-8.7-8.7V143
			c0-4.8,3.9-8.7,8.7-8.7h191.8c4.8,0,8.7,3.9,8.7,8.7L387.2,334.8L387.2,334.8z"/>
	</g>
</g>
<g>
	<g>
		<path d="M238.9,169.2h-26.2c-4.8,0-8.7,3.9-8.7,8.7c0,4.8,3.9,8.7,8.7,8.7h26.2c4.8,0,8.7-3.9,8.7-8.7
			C247.7,173.1,243.7,169.2,238.9,169.2z"/>
	</g>
</g>
<g>
	<g>
		<path d="M352.3,169.2h-78.5c-4.8,0-8.7,3.9-8.7,8.7c0,4.8,3.9,8.7,8.7,8.7h78.5c4.8,0,8.7-3.9,8.7-8.7
			C361,173.1,357.1,169.2,352.3,169.2z"/>
	</g>
</g>
<g>
	<g>
		<path d="M238.9,230.2h-26.2c-4.8,0-8.7,3.9-8.7,8.7c0,4.8,3.9,8.7,8.7,8.7h26.2c4.8,0,8.7-3.9,8.7-8.7
			C247.7,234.1,243.7,230.2,238.9,230.2z"/>
	</g>
</g>
<g>
	<g>
		<path d="M352.3,230.2h-78.5c-4.8,0-8.7,3.9-8.7,8.7c0,4.8,3.9,8.7,8.7,8.7h78.5c4.8,0,8.7-3.9,8.7-8.7
			C361,234.1,357.1,230.2,352.3,230.2z"/>
	</g>
</g>
<g>
	<g>
		<path d="M238.9,291.2h-26.2c-4.8,0-8.7,3.9-8.7,8.7s3.9,8.7,8.7,8.7h26.2c4.8,0,8.7-3.9,8.7-8.7S243.7,291.2,238.9,291.2z"/>
	</g>
</g>
<g>
	<g>
		<path d="M352.3,291.2h-78.5c-4.8,0-8.7,3.9-8.7,8.7s3.9,8.7,8.7,8.7h78.5c4.8,0,8.7-3.9,8.7-8.7S357.1,291.2,352.3,291.2z"/>
	</g>
</g>
</svg>
