<?xml version="1.0" encoding="utf-8"?>
<!-- Generator: Adobe Illustrator 25.0.1, SVG Export Plug-In . SVG Version: 6.00 Build 0)  -->
<svg version="1.1" id="Layer_1" xmlns="http://www.w3.org/2000/svg" xmlns:xlink="http://www.w3.org/1999/xlink" x="0px" y="0px"
	 viewBox="0 0 512 512" style="enable-background:new 0 0 512 512;" xml:space="preserve">
<path d="M354,370.3h-72.2c-1.6-2.2-4.2-3.7-7.1-3.7h-4.4v-33.7h25.3c2.3,0,4.2-1.9,4.2-4.2c0-2.3-1.9-4.2-4.2-4.2H174.3
	c-4.2,0-7.6-3.4-7.6-7.6V127c0-4.2,3.4-7.6,7.6-7.6h165.2c4.2,0,7.6,3.4,7.6,7.6v189.8c0,4.2-3.4,7.6-7.6,7.6h-24.4
	c-2.3,0-4.2,1.9-4.2,4.2c0,2.3,1.9,4.2,4.2,4.2h24.4c8.9,0,16.1-7.2,16.1-16.1V127c0-8.9-7.2-16.1-16.1-16.1H174.3
	c-8.9,0-16.1,7.2-16.1,16.1v189.8c0,8.9,7.2,16.1,16.1,16.1h68.4v33.7h-4.4c-4.8,0-8.8,3.9-8.8,8.8v13.5H159c-0.2,0-0.3-0.1-0.3-0.3
	v-9.6c0-0.2,0.1-0.3,0.3-0.3h55.2c2.3,0,4.2-1.9,4.2-4.2c0-2.3-1.9-4.2-4.2-4.2H159c-4.8,0-8.8,3.9-8.8,8.8v9.6
	c0,4.8,3.9,8.8,8.8,8.8h72.2c1.6,2.2,4.2,3.7,7.1,3.7h36.4c2.9,0,5.5-1.5,7.1-3.7H354c4.8,0,8.8-3.9,8.8-8.8v-9.6
	C362.7,374.2,358.8,370.3,354,370.3z M251.2,332.9h10.6v33.7h-10.6V332.9z M238.2,392.6c0-0.3-0.1-0.5-0.2-0.8v-16.4
	c0-0.2,0.1-0.3,0.3-0.3h7.8c0.3,0.1,0.6,0.1,0.8,0.1c0.3,0,0.6,0,0.8-0.1h17.4c0.3,0.1,0.6,0.1,0.8,0.1c0.3,0,0.6,0,0.8-0.1h7.8
	c0,0,0,0,0,0c0,0.3,0.1,0.7,0.3,1v15.5c-0.1,0.3-0.2,0.6-0.3,1c0,0,0,0,0,0h-36.4C238.3,392.6,238.2,392.6,238.2,392.6z
	 M354.3,388.6c0,0.2-0.1,0.3-0.3,0.3h-70.5v-10.1H354c0.2,0,0.3,0.1,0.3,0.3V388.6z"/>
<path d="M190.4,147.4h54.3c2.3,0,4.2-1.9,4.2-4.2c0-2.3-1.9-4.2-4.2-4.2h-54.3c-9.1,0-16.6,7.4-16.6,16.6v1.7
	c0,9.1,7.4,16.6,16.6,16.6h54.3c9.1,0,16.6-7.4,16.6-16.6c0-2.3-1.9-4.2-4.2-4.2c-2.3,0-4.2,1.9-4.2,4.2c0,4.5-3.6,8.1-8.1,8.1
	h-54.3c-4.5,0-8.1-3.6-8.1-8.1v-1.7C182.3,151,186,147.4,190.4,147.4z"/>
<path d="M173.9,199.1c0,9.1,7.4,16.6,16.6,16.6h54.3c9.1,0,16.6-7.4,16.6-16.6v-1.7c0-9.1-7.4-16.6-16.6-16.6h-54.3
	c-9.1,0-16.6,7.4-16.6,16.6V199.1z M182.3,197.4c0-4.5,3.6-8.1,8.1-8.1h54.3c4.5,0,8.1,3.6,8.1,8.1v1.7c0,4.5-3.6,8.1-8.1,8.1h-54.3
	c-4.5,0-8.1-3.6-8.1-8.1V197.4z"/>
<path d="M173.9,240.6c0,9.1,7.4,16.6,16.6,16.6h54.3c9.1,0,16.6-7.4,16.6-16.6v-1.7c0-9.1-7.4-16.6-16.6-16.6h-54.3
	c-9.1,0-16.6,7.4-16.6,16.6V240.6z M182.3,238.9c0-4.5,3.6-8.1,8.1-8.1h54.3c4.5,0,8.1,3.6,8.1,8.1v1.7c0,4.5-3.6,8.1-8.1,8.1h-54.3
	c-4.5,0-8.1-3.6-8.1-8.1V238.9z"/>
<path d="M284.8,138.9c-9.6,0-17.4,7.8-17.4,17.4s7.8,17.4,17.4,17.4c9.6,0,17.4-7.8,17.4-17.4S294.4,138.9,284.8,138.9z
	 M284.8,165.3c-4.9,0-9-4-9-9c0-4.9,4-9,9-9c4.9,0,9,4,9,9C293.8,161.3,289.8,165.3,284.8,165.3z"/>
<path d="M284.8,180.6c-9.6,0-17.4,7.8-17.4,17.4c0,9.6,7.8,17.4,17.4,17.4c9.6,0,17.4-7.8,17.4-17.4
	C302.3,188.4,294.4,180.6,284.8,180.6z M284.8,207c-4.9,0-9-4-9-9c0-4.9,4-9,9-9c4.9,0,9,4,9,9C293.8,203,289.8,207,284.8,207z"/>
<path d="M302.3,239.7c0-9.6-7.8-17.4-17.4-17.4c-9.6,0-17.4,7.8-17.4,17.4c0,9.6,7.8,17.4,17.4,17.4
	C294.4,257.2,302.3,249.3,302.3,239.7z M275.9,239.7c0-4.9,4-9,9-9c4.9,0,9,4,9,9c0,4.9-4,9-9,9
	C279.9,248.7,275.9,244.7,275.9,239.7z"/>
<path d="M322.3,173.8c9.6,0,17.4-7.8,17.4-17.4c0-9.6-7.8-17.4-17.4-17.4c-9.6,0-17.4,7.8-17.4,17.4
	C304.8,166,312.6,173.8,322.3,173.8z M322.3,147.4c4.9,0,9,4,9,9s-4,9-9,9c-4.9,0-9-4-9-9S317.3,147.4,322.3,147.4z"/>
<path d="M322.3,215.5c9.6,0,17.4-7.8,17.4-17.4c0-9.6-7.8-17.4-17.4-17.4c-9.6,0-17.4,7.8-17.4,17.4
	C304.8,207.7,312.6,215.5,322.3,215.5z M322.3,189.1c4.9,0,9,4,9,9c0,4.9-4,9-9,9c-4.9,0-9-4-9-9
	C313.3,193.1,317.3,189.1,322.3,189.1z"/>
<path d="M322.3,257.2c9.6,0,17.4-7.8,17.4-17.4c0-9.6-7.8-17.4-17.4-17.4c-9.6,0-17.4,7.8-17.4,17.4
	C304.8,249.3,312.6,257.2,322.3,257.2z M322.3,230.7c4.9,0,9,4,9,9c0,4.9-4,9-9,9c-4.9,0-9-4-9-9
	C313.3,234.8,317.3,230.7,322.3,230.7z"/>
<path d="M256.9,309.4c12.7,0,23-10.3,23-23c0-12.7-10.3-23-23-23c-12.7,0-23,10.3-23,23C233.8,299,244.2,309.4,256.9,309.4z
	 M256.9,271.8c8,0,14.6,6.5,14.6,14.6c0,8-6.5,14.6-14.6,14.6c-8,0-14.6-6.5-14.6-14.6C242.3,278.3,248.9,271.8,256.9,271.8z"/>
</svg>
