<?xml version="1.0" encoding="utf-8"?>
<!-- Generator: Adobe Illustrator 25.0.1, SVG Export Plug-In . SVG Version: 6.00 Build 0)  -->
<svg version="1.1" id="Capa_1" xmlns="http://www.w3.org/2000/svg" xmlns:xlink="http://www.w3.org/1999/xlink" x="0px" y="0px"
	 viewBox="0 0 512 512" style="enable-background:new 0 0 512 512;" xml:space="preserve">
<g>
	<g>
		<path d="M305,198.5h-65.6c-5.8,0-10.5,4.7-10.5,10.5c0,5.8,4.7,10.5,10.5,10.5H305c5.8,0,10.5-4.7,10.5-10.5
			C315.5,203.1,310.8,198.5,305,198.5z"/>
	</g>
</g>
<g>
	<g>
		<path d="M330.1,249h-90.7c-5.8,0-10.5,4.7-10.5,10.5c0,5.8,4.7,10.5,10.5,10.5h90.7c5.8,0,10.5-4.7,10.5-10.5
			C340.6,253.7,335.9,249,330.1,249z"/>
	</g>
</g>
<g>
	<g>
		<path d="M377.5,132.9H192.4c-5.8,0-10.5,4.7-10.5,10.5v98.7h-18.5c-21.7,0-39.4,17.7-39.4,39.4v58.2c0,21.7,17.7,39.4,39.4,39.4
			c1.8,0,3.5-0.1,5.2-0.3h172.6c25.8,0,46.7-21,46.7-46.7V143.4C388,137.6,383.3,132.9,377.5,132.9z M181.9,339.7
			c0,9-6.4,16.5-14.9,18.1h-3.6v0.3c-10.2,0-18.5-8.3-18.5-18.5v-58.2c0-10.2,8.3-18.5,18.5-18.5h18.5L181.9,339.7L181.9,339.7z
			 M367.1,332c0,14-11.8,25.8-25.8,25.8H198.4c2.8-5.4,4.4-11.6,4.4-18.1V153.8h164.3L367.1,332L367.1,332z"/>
	</g>
</g>
<g>
	<g>
		<path d="M305,296.5h-65.6c-5.8,0-10.5,4.7-10.5,10.5c0,5.8,4.7,10.5,10.5,10.5H305c5.8,0,10.5-4.7,10.5-10.5
			C315.5,301.1,310.8,296.5,305,296.5z"/>
	</g>
</g>
</svg>
