<?xml version="1.0" encoding="utf-8"?>
<!-- Generator: Adobe Illustrator 25.0.1, SVG Export Plug-In . SVG Version: 6.00 Build 0)  -->
<svg version="1.1" id="Capa_1" xmlns="http://www.w3.org/2000/svg" xmlns:xlink="http://www.w3.org/1999/xlink" x="0px" y="0px"
	 viewBox="0 0 480.8 480.8" style="enable-background:new 0 0 480.8 480.8;" xml:space="preserve">
<g>
	<g>
		<path d="M423,148.8H315.9v-10.7c0-11.8-9.6-21.4-21.4-21.4H144.5c-11.8,0-21.4,9.6-21.4,21.4v117.8c0,58.9,56.2,58.9,75,58.9
			c3.2,0,5.4-2.1,5.4-5.4c0-3.2-2.1-5.4-5.4-5.4c-11.8,0-21.4-9.6-21.4-21.4c0-0.5,0-1.6,0-2.1c1.6-11.2,11.2-19.3,22.5-19.3H273
			V272h-48.2c-3.2,0-5.4,2.1-5.4,5.4c0,12.3,4.8,24.1,12.9,32.7c-1.6,5.4-2.1,10.2-2.1,15.5c0,21.4,12.9,40.7,32.1,49.3
			c0,3.2-1.6,9.6-16.1,9.6c-15,0-26.8,11.8-26.8,26.8V438h10.7v-26.8c0-8.6,6.4-15.5,15-16.1l26.2,12.9c2.1,1.1,4.8,2.1,7,2.7V438
			h10.7v-27.3c2.7-0.5,4.8-1.1,7-2.1l26.2-12.9c8.6,0.5,15,7.5,15,16.1v26.8H348v-26.8c0-15-11.8-26.8-26.8-26.8
			c-14.5,0-16.1-6.4-16.1-9.6c20.3-8.6,32.7-28.9,32.1-50.9c0-1.1,0-3.2,0-3.7c0-7.5-1.6-15-5.4-21.4h35.9c11.2,0,20.9,8,22.5,19.3
			c1.1,11.8-7.5,22.5-19.3,23.6c-0.5,0-1.6,0-2.1,0c-3.2,0-5.4,2.1-5.4,5.4c0,3.2,2.1,5.4,5.4,5.4c18.7,0,75,0,75-58.9V170.3
			C444.4,158.5,434.8,148.8,423,148.8z M199.1,250.6c-16.6,0-31.1,12.3-33.2,28.9c-0.5,8,1.6,16.1,6.4,22.5
			c-26.2-5.4-38.6-19.8-38.6-46.1V138.1c0-5.9,4.8-10.7,10.7-10.7h149.9c5.9,0,10.7,4.8,10.7,10.7v101.7c0,5.9-4.8,10.7-10.7,10.7
			H199.1z M230.7,282.7h58.4c18.7,0,34.3,13.9,36.9,32.1h-58.4C248.9,314.8,233.4,300.9,230.7,282.7z M298.2,365.7
			c-2.1,0.5-3.7,2.7-3.7,4.8v3.2c-0.5,7.5,3.7,15,10.7,18.2l-13.9,7c-4.8,2.1-10.7,2.1-15.5,0l-13.4-7c7-3.2,11.2-10.7,10.7-18.2
			v-2.7c0-2.1-1.6-4.3-3.7-4.8c-17.1-6.4-28.4-22.5-28.4-40.7c0-2.7,0-5.4,0.5-7.5c7.5,4.8,16.6,7.5,26.2,7.5h58.9
			C326.6,343.7,315.3,359.8,298.2,365.7z M433.7,293.4c0,26.2-12.3,40.7-38.6,46.1c4.8-6.4,7-14.5,6.4-22.5
			c-2.1-16.6-16.1-28.9-33.2-28.9H325c-9.1-10.2-22-16.1-35.9-16.1h-5.4v-10.7h10.7c11.8,0,21.4-9.6,21.4-21.4v-80.3H423
			c5.9,0,10.7,4.8,10.7,10.7L433.7,293.4L433.7,293.4z"/>
	</g>
</g>
<g>
	<g>
		<path d="M246.3,175.6h-5.4c-3.2,0-5.4-2.1-5.4-5.4v-16.1c0-9.1-7-16.1-16.1-16.1c-9.1,0-16.1,7-16.1,16.1v16.1
			c0,3.2-2.1,5.4-5.4,5.4c0-3.2-2.1-5.4-5.4-5.4h-21.4c-3.2,0-5.4,2.1-5.4,5.4v58.9c0,3.2,2.1,5.4,5.4,5.4h21.4
			c3.2,0,5.4-2.1,5.4-5.4h48.2c9.1,0,16.1-7,16.1-16.1v-26.8C262.3,182.6,255.4,175.6,246.3,175.6z M187.4,229.2h-10.7V181h10.7
			V229.2z M251.6,218.4c0,3.2-2.1,5.4-5.4,5.4h-48.2v-37.5c9.1,0,16.1-7,16.1-16.1v-16.1c0-3.2,2.1-5.4,5.4-5.4s5.4,2.1,5.4,5.4
			v16.1c0,9.1,7,16.1,16.1,16.1h5.4c3.2,0,5.4,2.1,5.4,5.4V218.4z"/>
	</g>
</g>
<g>
	<g>
		<path d="M417.6,170.3h-21.4c-3.2,0-5.4,2.1-5.4,5.4h-48.2c-9.1,0-16.1,7-16.1,16.1v26.8c0,9.1,7,16.1,16.1,16.1h5.4
			c3.2,0,5.4,2.1,5.4,5.4v16.1c0,9.1,7,16.1,16.1,16.1s16.1-7,16.1-16.1v-16.1c0-3.2,2.1-5.4,5.4-5.4c0,3.2,2.1,5.4,5.4,5.4h21.4
			c3.2,0,5.4-2.1,5.4-5.4v-58.9C423,172.4,420.8,170.3,417.6,170.3z M390.8,223.8c-9.1,0-16.1,7-16.1,16.1v16.1
			c0,3.2-2.1,5.4-5.4,5.4c-3.2,0-5.4-2.1-5.4-5.4v-16.1c0-9.1-7-16.1-16.1-16.1h-5.4c-3.2,0-5.4-2.1-5.4-5.4v-26.8
			c0-3.2,2.1-5.4,5.4-5.4h48.2V223.8z M412.3,229.2h-10.7V181h10.7V229.2z"/>
	</g>
</g>
<g>
	<g>
		<rect x="321.2" y="255.9" width="21.4" height="10.7"/>
	</g>
</g>
<g>
	<g>
		<polygon points="267.7,143.5 267.7,138.1 257,138.1 257,143.5 251.6,143.5 251.6,154.2 257,154.2 257,159.5 267.7,159.5 
			267.7,154.2 273,154.2 273,143.5 		"/>
	</g>
</g>
</svg>
