<?xml version="1.0" encoding="utf-8"?>
<!-- Generator: Adobe Illustrator 25.0.1, SVG Export Plug-In . SVG Version: 6.00 Build 0)  -->
<svg version="1.1" id="Layer_5" xmlns="http://www.w3.org/2000/svg" xmlns:xlink="http://www.w3.org/1999/xlink" x="0px" y="0px"
	 viewBox="0 0 512 512" style="enable-background:new 0 0 512 512;" xml:space="preserve">
<g>
	<path d="M272.3,92.9c0-9-7.3-16.3-16.3-16.3s-16.3,7.3-16.3,16.3s7.3,16.3,16.3,16.3S272.3,101.9,272.3,92.9z M250.6,92.9
		c0-3,2.4-5.4,5.4-5.4c3,0,5.4,2.4,5.4,5.4c0,3-2.4,5.4-5.4,5.4S250.6,95.9,250.6,92.9z"/>
	<path d="M117.8,273.9c-7.8,4.5-10.4,14.4-6,22.2c3,5.2,8.5,8.1,14.1,8.1c2.8,0,5.5-0.7,8.1-2.2c7.8-4.5,10.4-14.4,6-22.2
		C135.5,272.1,125.6,269.5,117.8,273.9z M128.7,292.7c-2.6,1.5-5.9,0.6-7.4-2c-1.5-2.6-0.6-5.9,2-7.4c2.6-1.5,5.9-0.6,7.4,2
		C132.1,287.9,131.2,291.2,128.7,292.7z"/>
	<path d="M394.2,273.9c-7.8-4.5-17.7-1.8-22.2,6c-4.5,7.8-1.8,17.7,6,22.2h0c2.6,1.5,5.3,2.2,8.1,2.2c5.6,0,11.1-2.9,14.1-8.1
		C404.6,288.4,402,278.4,394.2,273.9z M390.8,290.7c-1.5,2.6-4.8,3.5-7.4,2c-2.6-1.5-3.5-4.8-2-7.4c1.5-2.6,4.8-3.5,7.4-2
		C391.4,284.8,392.3,288.1,390.8,290.7z"/>
	<path d="M405,255.2c-8.8-5.1-19-6.4-28.8-3.8c-8.8,2.3-16.2,7.6-21.3,15l-39.3-19.7v-47.5l60.1-30c3.6,4.6,8.5,8,14.2,9.5
		c2.3,0.6,4.7,0.9,7.1,0.9c4.7,0,9.3-1.2,13.5-3.6c6.3-3.6,10.8-9.5,12.6-16.5s0.9-14.3-2.7-20.6s-9.5-10.7-16.5-12.6
		c-7-1.9-14.3-0.9-20.6,2.7c-6.3,3.6-10.8,9.5-12.6,16.5c-1.3,4.7-1.1,9.4,0.1,14l-55.2,27.6v-34.6h-54.2v-22.1
		c18.4-2.6,32.5-18.4,32.5-37.5c0-20.9-17-37.9-37.9-37.9s-37.9,17-37.9,37.9c0,19.1,14.2,34.9,32.5,37.5v22.1h-54.2v34.6
		l-55.2-27.6c1.2-4.5,1.3-9.3,0.1-14c-1.9-7-6.4-12.8-12.6-16.5c-6.3-3.6-13.6-4.6-20.6-2.7c-7,1.9-12.8,6.4-16.5,12.6
		c-3.6,6.3-4.6,13.6-2.7,20.6c1.9,7,6.4,12.8,12.6,16.5c4.2,2.4,8.8,3.6,13.5,3.6c2.4,0,4.7-0.3,7.1-0.9c5.7-1.5,10.6-4.9,14.2-9.5
		l60.1,30v47.5l-39.3,19.7c-5.1-7.4-12.6-12.7-21.3-15c-9.8-2.6-20-1.3-28.8,3.8c-18.1,10.5-24.3,33.7-13.9,51.8
		c7,12.2,19.8,19,32.9,19c6.4,0,12.9-1.6,18.9-5.1c15.8-9.1,22.6-28.1,17-44.8l34.5-17.2v34.6h54.2v43.9
		c-12.4,2.5-21.7,13.5-21.7,26.5c0,14.9,12.2,27.1,27.1,27.1c14.9,0,27.1-12.2,27.1-27.1c0-13.1-9.3-24-21.7-26.5v-43.9h54.2v-34.6
		l34.4,17.2c-5.5,16.7,1.2,35.6,17,44.8c6,3.4,12.5,5.1,18.9,5.1c13.1,0,25.9-6.8,32.9-19C429.4,288.9,423.1,265.6,405,255.2
		L405,255.2z M381.2,148.3c1.1-4.2,3.8-7.7,7.6-9.9c2.6-1.5,5.3-2.2,8.1-2.2c5.6,0,11.1,2.9,14.1,8.1c2.2,3.8,2.7,8.1,1.6,12.3
		c-1.1,4.2-3.8,7.7-7.6,9.9c-7.8,4.5-17.7,1.8-22.2-6C380.6,156.9,380.1,152.5,381.2,148.3L381.2,148.3z M228.9,92.9
		c0-14.9,12.2-27.1,27.1-27.1c14.9,0,27.1,12.2,27.1,27.1S270.9,120,256,120C241.1,120,228.9,107.9,228.9,92.9L228.9,92.9z
		 M129.2,160.7c-4.5,7.8-14.4,10.4-22.2,6c-3.8-2.2-6.4-5.7-7.6-9.9c-1.1-4.2-0.5-8.6,1.6-12.3c3-5.2,8.5-8.1,14.1-8.1
		c2.8,0,5.5,0.7,8.1,2.2c3.8,2.2,6.4,5.7,7.6,9.9C131.9,152.5,131.4,156.9,129.2,160.7L129.2,160.7z M139.5,311.5
		c-12.9,7.5-29.5,3-37-9.9s-3-29.5,9.9-37c4.2-2.4,8.8-3.6,13.5-3.6c2.4,0,4.7,0.3,7.1,0.9c7,1.9,12.8,6.4,16.5,12.6
		C156.9,287.4,152.4,304,139.5,311.5z M272.3,363.9c0,9-7.3,16.3-16.3,16.3c-9,0-16.3-7.3-16.3-16.3c0-9,7.3-16.3,16.3-16.3
		C265,347.6,272.3,354.9,272.3,363.9z M304.8,282.6h-97.5V163.4h97.5V282.6z M409.5,301.6c-7.5,12.9-24.1,17.4-37,9.9
		c-12.9-7.5-17.4-24.1-9.9-37c3.6-6.3,9.5-10.8,16.5-12.6c7-1.9,14.3-0.9,20.6,2.7C412.5,272,417,288.6,409.5,301.6L409.5,301.6z"/>
	<path d="M293.9,217.6h-32.5v10.8h-21.7v10.8h-21.7v32.5h75.9V217.6z M228.9,250.1h10.8v10.8h-10.8V250.1z M250.6,260.9v-21.7h10.8
		v21.7H250.6z M283.1,260.9h-10.8v-32.5h10.8V260.9z"/>
	<path d="M218.1,174.2h10.8v10.8h-10.8V174.2z"/>
	<path d="M239.7,174.2h54.2v10.8h-54.2V174.2z"/>
	<path d="M218.1,195.9h75.9v10.8h-75.9V195.9z"/>
</g>
</svg>
