<?xml version="1.0" encoding="utf-8"?>
<!-- Generator: Adobe Illustrator 25.0.1, SVG Export Plug-In . SVG Version: 6.00 Build 0)  -->
<svg version="1.1" id="Layer_1" xmlns="http://www.w3.org/2000/svg" xmlns:xlink="http://www.w3.org/1999/xlink" x="0px" y="0px"
	 viewBox="0 0 512 512" style="enable-background:new 0 0 512 512;" xml:space="preserve">
<style type="text/css">
	.st0{fill:#E61F2D;}
</style>
<rect x="86" y="78" class="st0" width="341" height="162"/>
<g>
	<g>
		<g>
			<path d="M412.9,289.7h-60.1c-3.5,0-6.4,2.9-6.4,6.4s2.9,6.4,6.4,6.4h60.1c3.5,0,6.4-2.9,6.4-6.4S416.4,289.7,412.9,289.7z"/>
		</g>
	</g>
	<g>
		<g>
			<path d="M333,291.6c-1.2-1.2-2.8-1.9-4.5-1.9c-1.7,0-3.3,0.7-4.5,1.9s-1.9,2.8-1.9,4.5s0.7,3.3,1.9,4.5c1.2,1.2,2.8,1.9,4.5,1.9
				c1.7,0,3.3-0.7,4.5-1.9c1.2-1.2,1.9-2.8,1.9-4.5S334.2,292.8,333,291.6z"/>
		</g>
	</g>
	<g>
		<g>
			<path d="M296.6,289.7h-50.3c-2.2,0-4.2,1.1-5.4,3l-78.2,123.9c-1.9,3-1,6.9,2,8.8c1.1,0.7,2.2,1,3.4,1c2.1,0,4.2-1.1,5.4-3
				l76.3-121h46.8c3.5,0,6.4-2.9,6.4-6.4C303,292.6,300.1,289.7,296.6,289.7z"/>
		</g>
	</g>
	<g>
		<g>
			<path d="M190.2,263.1l-86.9-86.9c-2.5-2.5-6.5-2.5-9,0c-2.5,2.5-2.5,6.5,0,9l83.2,83.2L93.1,401.9c-1.9,3-1,6.9,2,8.8
				c1.1,0.7,2.2,1,3.4,1c2.1,0,4.2-1.1,5.4-3L191.1,271C192.7,268.5,192.3,265.2,190.2,263.1z"/>
		</g>
	</g>
	<g>
		<g>
			<path d="M168.6,147.5l-46.3-46.3c-2.5-2.5-6.5-2.5-9,0c-2.5,2.5-2.5,6.5,0,9l46.3,46.3c1.2,1.2,2.9,1.9,4.5,1.9
				c1.6,0,3.3-0.6,4.5-1.9C171.1,154,171.1,150,168.6,147.5z"/>
		</g>
	</g>
	<g>
		<g>
			<path d="M184,162.9c-1.2-1.2-2.8-1.9-4.5-1.9c-1.7,0-3.3,0.7-4.5,1.9s-1.9,2.8-1.9,4.5c0,1.7,0.7,3.3,1.9,4.5
				c1.2,1.2,2.8,1.9,4.5,1.9c1.7,0,3.3-0.7,4.5-1.9c1.2-1.2,1.9-2.8,1.9-4.5C185.9,165.8,185.2,164.1,184,162.9z"/>
		</g>
	</g>
	<g>
		<g>
			<path d="M412.9,256.5H394c-3.5,0-6.4,2.9-6.4,6.4c0,3.5,2.9,6.4,6.4,6.4h18.8c3.5,0,6.4-2.9,6.4-6.4
				C419.3,259.4,416.4,256.5,412.9,256.5z"/>
		</g>
	</g>
	<g>
		<g>
			<path d="M367,256.5h-15c-3.5,0-6.4,2.9-6.4,6.4c0,3.5,2.9,6.4,6.4,6.4h15c3.5,0,6.4-2.9,6.4-6.4
				C373.4,259.4,370.5,256.5,367,256.5z"/>
		</g>
	</g>
	<g>
		<g>
			<path d="M412.9,223.3h-58.4l12.5-16c0,0,0,0,0-0.1c9.5-11.7,14.7-26.5,14.7-41.7c0-36.5-29.7-66.3-66.3-66.3
				c-36.5,0-66.3,29.7-66.3,66.3c0,15.2,5.2,29.9,14.7,41.7c0.1,0.1,0.2,0.2,0.3,0.4l12.2,15.7h-32l-43.9-43.9c-2.5-2.5-6.5-2.5-9,0
				c-2.5,2.5-2.5,6.5,0,9l45.8,45.8c1.2,1.2,2.8,1.9,4.5,1.9h42.1c0.8,0,1.5-0.1,2.2-0.4l16.3,20.9h-2.5c-3.5,0-6.4,2.9-6.4,6.4
				c0,3.5,2.9,6.4,6.4,6.4h23.4c3.5,0,6.4-2.9,6.4-6.4c0-2-0.9-3.7-2.3-4.9l17.1-21.9h68.4c3.5,0,6.4-2.9,6.4-6.4
				S416.4,223.3,412.9,223.3z M315.4,252.5l-40.8-52.3c-0.1-0.2-0.3-0.4-0.5-0.6c-7.9-9.5-12.2-21.6-12.2-34
				c0-29.5,24-53.5,53.5-53.5s53.5,24,53.5,53.5c0,12.3-4.3,24.3-12,33.8c-0.1,0.1-0.1,0.2-0.2,0.3L315.4,252.5z"/>
		</g>
	</g>
	<g>
		<g>
			<path d="M266.2,256.5h-20.7c-3.5,0-6.4,2.9-6.4,6.4c0,3.5,2.9,6.4,6.4,6.4h20.7c3.5,0,6.4-2.9,6.4-6.4
				C272.5,259.4,269.7,256.5,266.2,256.5z"/>
		</g>
	</g>
	<g>
		<g>
			<path d="M118.9,144.8L103,129c-2.5-2.5-6.5-2.5-9,0c-2.5,2.5-2.5,6.5,0,9l15.8,15.8c1.2,1.2,2.9,1.9,4.5,1.9s3.3-0.6,4.5-1.9
				C121.4,151.3,121.4,147.3,118.9,144.8z"/>
		</g>
	</g>
	<g>
		<g>
			<path d="M152.9,178.8L137,162.9c-2.5-2.5-6.5-2.5-9,0c-2.5,2.5-2.5,6.5,0,9l15.8,15.8c1.2,1.2,2.9,1.9,4.5,1.9
				c1.6,0,3.3-0.6,4.5-1.9C155.4,185.3,155.4,181.3,152.9,178.8z"/>
		</g>
	</g>
	<g>
		<g>
			<path d="M186.8,212.8L171,196.9c-2.5-2.5-6.5-2.5-9,0c-2.5,2.5-2.5,6.5,0,9l15.8,15.8c1.2,1.2,2.9,1.9,4.5,1.9
				c1.6,0,3.3-0.6,4.5-1.9C189.3,219.3,189.3,215.2,186.8,212.8z"/>
		</g>
	</g>
	<g>
		<g>
			<path d="M219.1,245L205,230.9c-2.5-2.5-6.5-2.5-9,0c-2.5,2.5-2.5,6.5,0,9l14.1,14.1c1.2,1.2,2.9,1.9,4.5,1.9
				c1.6,0,3.3-0.6,4.5-1.9C221.6,251.6,221.6,247.5,219.1,245z"/>
		</g>
	</g>
	<g>
		<g>
			<path d="M145.5,393.5c-3-1.9-6.9-1-8.8,2l-13.3,21.1c-1.9,3-1,6.9,2,8.8c1.1,0.7,2.2,1,3.4,1c2.1,0,4.2-1.1,5.4-3l13.3-21.1
				C149.4,399.4,148.5,395.4,145.5,393.5z"/>
		</g>
	</g>
	<g>
		<g>
			<path d="M174.9,346.9c-3-1.9-6.9-1-8.8,2l-13.5,21.5c-1.9,3-1,6.9,2,8.8c1.1,0.7,2.2,1,3.4,1c2.1,0,4.2-1.1,5.4-3l13.5-21.5
				C178.8,352.8,177.9,348.8,174.9,346.9z"/>
		</g>
	</g>
	<g>
		<g>
			<path d="M200,307.2c-3-1.9-6.9-1-8.8,2l-9.5,15c-1.9,3-1,6.9,2,8.8c1.1,0.7,2.2,1,3.4,1c2.1,0,4.2-1.1,5.4-3l9.5-15
				C203.9,313,203,309.1,200,307.2z"/>
		</g>
	</g>
	<g>
		<g>
			<path d="M222.6,271.3c-3-1.9-6.9-1-8.8,2l-9.3,14.7c-1.9,3-1,6.9,2,8.8c1.1,0.7,2.2,1,3.4,1c2.1,0,4.2-1.1,5.4-3l9.3-14.7
				C226.5,277.1,225.6,273.2,222.6,271.3z"/>
		</g>
	</g>
	<g>
		<g>
			<path d="M315.4,134c-18,0-32.6,14.6-32.6,32.6s14.6,32.6,32.6,32.6c18,0,32.6-14.6,32.6-32.6S333.4,134,315.4,134z M315.4,186.4
				c-10.9,0-19.8-8.9-19.8-19.8s8.9-19.8,19.8-19.8c10.9,0,19.8,8.9,19.8,19.8C335.2,177.5,326.3,186.4,315.4,186.4z"/>
		</g>
	</g>
</g>
</svg>
