<?xml version="1.0" encoding="utf-8"?>
<!-- Generator: Adobe Illustrator 25.0.1, SVG Export Plug-In . SVG Version: 6.00 Build 0)  -->
<svg version="1.1" id="Capa_1" xmlns="http://www.w3.org/2000/svg" xmlns:xlink="http://www.w3.org/1999/xlink" x="0px" y="0px"
	 viewBox="0 0 512 512" style="enable-background:new 0 0 512 512;" xml:space="preserve">
<g id="XMLID_1336_">
	<g id="XMLID_354_">
		<path id="XMLID_1365_" d="M362,219.9h18.7c2.7,8.2,10.5,14.2,19.6,14.2c11.4,0,20.6-9.3,20.6-20.6s-9.3-20.6-20.6-20.6
			c-9.1,0-16.9,6-19.6,14.2H362v-22.4c0-3.2-2.4-5.9-5.5-6.4c-6.8-1-13.4-2.3-20-3.9l9.7-18h54.2c3.6,0,6.4-2.9,6.4-6.4v-18.8
			c8.2-2.7,14.2-10.5,14.2-19.6c0-11.4-9.3-20.6-20.6-20.6s-20.6,9.3-20.6,20.6c0,9.1,6,16.9,14.2,19.6v12.3h-51.6
			c-2.4,0-4.5,1.3-5.7,3.4l-13,23.9c-23-7.2-44.6-18.5-63.8-33.2c-2.3-1.8-5.5-1.8-7.9,0c-19.2,14.8-40.8,26-63.8,33.2l-13-23.9
			c-1.1-2.1-3.3-3.4-5.7-3.4h-51.6v-12.3c8.2-2.7,14.2-10.5,14.2-19.6c0-11.4-9.3-20.6-20.6-20.6S91,100.3,91,111.6
			c0,9.1,6,16.9,14.2,19.6V150c0,3.6,2.9,6.4,6.4,6.4h54.2l9.7,18c-6.6,1.6-13.3,2.9-20,3.9c-3.2,0.5-5.5,3.2-5.5,6.4V207h-18.7
			c-2.7-8.2-10.5-14.2-19.6-14.2c-11.4,0-20.6,9.3-20.6,20.6s9.3,20.6,20.6,20.6c9.1,0,16.9-6,19.6-14.2H150v35.3
			c0,12.5,1.8,25,5.2,36.9h-24c-2.7-8.2-10.5-14.2-19.6-14.2c-11.4,0-20.6,9.3-20.6,20.6s9.3,20.6,20.6,20.6c9.1,0,16.9-6,19.6-14.2
			h28.4c4.9,12.1,11.5,23.6,19.8,33.8c1.1,1.3,2.2,2.7,3.3,3.9h-71.1c-3.6,0-6.4,2.9-6.4,6.4v31.6C97,383.5,91,391.3,91,400.4
			c0,11.4,9.3,20.6,20.6,20.6s20.6-9.3,20.6-20.6c0-9.1-6-16.9-14.2-19.6v-25.1h77.6c16.8,14.5,37.1,24.8,58.9,29.5
			c0.5,0.1,0.9,0.1,1.4,0.1c0.5,0,0.9,0,1.4-0.1c21.9-4.7,42.2-15,58.9-29.5h77.6v25.1c-8.2,2.7-14.2,10.5-14.2,19.6
			c0,11.4,9.3,20.6,20.6,20.6s20.6-9.3,20.6-20.6c0-9.1-6-16.9-14.2-19.6v-31.6c0-3.6-2.9-6.4-6.4-6.4h-71.1
			c1.1-1.3,2.2-2.6,3.3-3.9c8.3-10.3,14.9-21.7,19.8-33.8h28.4c2.7,8.2,10.5,14.2,19.6,14.2c11.4,0,20.6-9.3,20.6-20.6
			s-9.3-20.6-20.6-20.6c-9.1,0-16.9,6-19.6,14.2h-24c3.4-11.9,5.2-24.3,5.2-36.9V219.9z M400.4,205.7c4.3,0,7.7,3.5,7.7,7.7
			c0,4.3-3.5,7.7-7.7,7.7s-7.7-3.5-7.7-7.7C392.6,209.2,396.1,205.7,400.4,205.7z M400.4,103.9c4.3,0,7.7,3.5,7.7,7.7
			c0,4.3-3.5,7.7-7.7,7.7s-7.7-3.5-7.7-7.7C392.6,107.4,396.1,103.9,400.4,103.9z M111.6,103.9c4.3,0,7.7,3.5,7.7,7.7
			c0,4.3-3.5,7.7-7.7,7.7s-7.7-3.5-7.7-7.7C103.9,107.4,107.4,103.9,111.6,103.9z M111.6,221.2c-4.3,0-7.7-3.5-7.7-7.7
			c0-4.3,3.5-7.7,7.7-7.7s7.7,3.5,7.7,7.7C119.4,217.7,115.9,221.2,111.6,221.2z M111.6,306.3c-4.3,0-7.7-3.5-7.7-7.7
			s3.5-7.7,7.7-7.7s7.7,3.5,7.7,7.7S115.9,306.3,111.6,306.3z M111.6,408.1c-4.3,0-7.7-3.5-7.7-7.7s3.5-7.7,7.7-7.7s7.7,3.5,7.7,7.7
			S115.9,408.1,111.6,408.1z M400.4,408.1c-4.3,0-7.7-3.5-7.7-7.7s3.5-7.7,7.7-7.7s7.7,3.5,7.7,7.7S404.6,408.1,400.4,408.1z
			 M400.4,290.8c4.3,0,7.7,3.5,7.7,7.7s-3.5,7.7-7.7,7.7s-7.7-3.5-7.7-7.7S396.1,290.8,400.4,290.8z M256,372.3
			c-54.9-12.6-93.2-60.5-93.2-117v-65c33.6-5.7,65.6-19.2,93.2-39.4c27.5,20.2,59.5,33.7,93.2,39.4v65
			C349.2,311.8,310.9,359.7,256,372.3L256,372.3z"/>
		<path id="XMLID_1378_" d="M256,181.9c-40.9,0-74.1,33.2-74.1,74.1c0,28.8,16.9,55.3,43.1,67.3c0.9,0.4,1.8,0.6,2.7,0.6
			c2.4,0,4.8-1.4,5.9-3.8c1.5-3.2,0.1-7.1-3.2-8.6c-21.6-10-35.6-31.8-35.6-55.6c0-33.7,27.5-61.2,61.2-61.2s61.2,27.5,61.2,61.2
			c0,23.8-13.9,45.6-35.5,55.6c-3.2,1.5-4.6,5.3-3.1,8.6c1.5,3.2,5.3,4.6,8.6,3.1c26.1-12.1,43-38.5,43-67.3
			C330.1,215.1,296.9,181.9,256,181.9L256,181.9z"/>
		<path id="XMLID_1381_" d="M256,207.7c-13.9,0-25.1,11.3-25.1,25.1v3.5c-7.1,0-12.9,5.8-12.9,13v17c0,21,17.1,38,38,38
			s38-17.1,38-38v-17c0-7.1-5.8-12.9-12.9-13v-3.5C281.1,219,269.9,207.7,256,207.7L256,207.7z M256,220.6c6.8,0,12.2,5.5,12.2,12.2
			v3.5h-24.5v-3.5C243.8,226.1,249.2,220.6,256,220.6z M281.1,266.3c0,13.9-11.3,25.1-25.1,25.1s-25.1-11.3-25.1-25.1v-17
			c0,0,0-0.1,0.1-0.1h50.1c0,0,0.1,0,0.1,0.1V266.3z"/>
		<path id="XMLID_1383_" d="M256,259.6c-3.6,0-6.4,2.9-6.4,6.4v6c0,3.6,2.9,6.4,6.4,6.4s6.4-2.9,6.4-6.4v-6
			C262.4,262.5,259.6,259.6,256,259.6z"/>
		<path id="XMLID_1384_" d="M256,317.2c-3.6,0-6.4,2.9-6.4,6.4v0c0,3.6,2.9,6.4,6.4,6.4s6.4-2.9,6.4-6.5S259.6,317.2,256,317.2z"/>
	</g>
</g>
</svg>
