<?xml version="1.0" encoding="utf-8"?>
<!-- Generator: Adobe Illustrator 25.0.1, SVG Export Plug-In . SVG Version: 6.00 Build 0)  -->
<svg version="1.1" id="Layer_1" xmlns="http://www.w3.org/2000/svg" xmlns:xlink="http://www.w3.org/1999/xlink" x="0px" y="0px"
	 viewBox="0 0 512 512" style="enable-background:new 0 0 512 512;" xml:space="preserve">
<style type="text/css">
	.st0{fill:#E61F2D;}
</style>
<path class="st0" d="M190.2,440c-87,0-157.5-70.5-157.5-157.5S103.2,125,190.2,125C190.2,252,190.2,315,190.2,440z"/>
<g>
	<path d="M346.4,103.4c-18-14.4-40.6-22.4-63.6-22.4c-23,0-45.6,7.9-63.6,22.4l11.6,14.4c14.9-12,32.9-18.3,52-18.3
		s37.1,6.3,52,18.3L346.4,103.4z"/>
	<path d="M323.2,132.3c-11.4-9.2-25.8-14.2-40.5-14.2s-29,5.1-40.5,14.2l11.6,14.4c8.3-6.6,18.3-10.2,28.9-10.2s20.6,3.5,28.9,10.2
		L323.2,132.3z"/>
	<path d="M265.4,161.2l11.6,14.5c1.2-0.9,3.1-2,5.8-2s4.6,1.1,5.8,2l11.6-14.5c-4.9-3.9-11.1-6.1-17.4-6.1S270.3,157.2,265.4,161.2
		L265.4,161.2z"/>
	<path d="M440.8,397V247.6h-93.2v-55.5H218v32.6l-93.2-37V397H440.8z M347.6,266.2h74.7v112.3h-74.7V266.2z M236.5,210.6h92.6v167.9
		h-37v-38.3h-18.5v38.3h-37V210.6z M143.3,215l74.7,29.7v133.8h-74.7V215z"/>
	<path d="M292,229.1h18.5v18.5H292V229.1z"/>
	<path d="M292,266.2h18.5v18.5H292V266.2z"/>
	<path d="M292,303.2h18.5v18.5H292V303.2z"/>
	<path d="M255,229.1h18.5v18.5H255V229.1z"/>
	<path d="M255,266.2h18.5v18.5H255V266.2z"/>
	<path d="M255,303.2h18.5v18.5H255V303.2z"/>
</g>
</svg>
