<?xml version="1.0" encoding="utf-8"?>
<!-- Generator: Adobe Illustrator 25.0.1, SVG Export Plug-In . SVG Version: 6.00 Build 0)  -->
<svg version="1.1" id="Layer_1" xmlns="http://www.w3.org/2000/svg" xmlns:xlink="http://www.w3.org/1999/xlink" x="0px" y="0px"
	 viewBox="0 0 512 512" style="enable-background:new 0 0 512 512;" xml:space="preserve">
<style type="text/css">
	.st0{fill:#E61F2D;}
</style>
<path class="st0" d="M252.5,418C165.5,418,95,347.5,95,260.5S165.5,103,252.5,103C252.5,230,252.5,293,252.5,418z"/>
<path d="M366.1,245.5c0-58.5-47.6-106.1-106.1-106.1S153.9,187,153.9,245.5c0,39.1,21.4,74.6,55.2,93.1v28.1
	c0,28.1,22.8,50.9,50.9,50.9s50.9-22.8,50.9-50.9v-28.1C344.6,320.2,366.1,284.7,366.1,245.5L366.1,245.5z M331.4,291.8
	c-8.7,13.4-21,24.1-35.4,30.9c-3.7,1.7-6.1,5.4-6.1,9.5v24.5l-1.4,0.3c-10.9,2.2-11.3,17.7-0.6,20.5c-7.7,20.1-33.4,25.7-48.8,10.7
	l23-4.6c5.7-1.1,9.4-6.7,8.2-12.4c-1.1-5.7-6.7-9.4-12.4-8.2l-27.8,5.6c-0.1-1.4-0.1-0.1-0.1-21.2c9.3,2.8,19.3,4.3,29.9,4.3
	c5.8,0,10.5-4.7,10.5-10.5s-4.7-10.5-10.5-10.5c-28.9,0-55.7-14.6-71.4-38.8c-36.4-56,3.8-131.3,71.4-131.3
	C327.6,160.4,367.8,235.7,331.4,291.8L331.4,291.8z"/>
<path d="M409.5,235h-17.3c-5.8,0-10.5,4.7-10.5,10.5c0,5.8,4.7,10.5,10.5,10.5h17.3c5.8,0,10.5-4.7,10.5-10.5
	C420,239.7,415.3,235,409.5,235z"/>
<path d="M127.8,235h-17.3c-5.8,0-10.5,4.7-10.5,10.5c0,5.8,4.7,10.5,10.5,10.5h17.3c5.8,0,10.5-4.7,10.5-10.5
	C138.4,239.7,133.7,235,127.8,235z"/>
<path d="M360.9,331.5c-4.1-4.1-10.8-4.1-14.9,0c-4.1,4.1-4.1,10.8,0,14.9l12.3,12.3c2.1,2.1,4.7,3.1,7.4,3.1
	c9.3,0,14.1-11.3,7.4-17.9L360.9,331.5z"/>
<path d="M159.1,159.5c4.1,4.1,10.8,4.1,14.9,0c4.1-4.1,4.1-10.8,0-14.9l-12.3-12.3c-4.1-4.1-10.8-4.1-14.9,0
	c-4.1,4.1-4.1,10.8,0,14.9L159.1,159.5z"/>
<path d="M260,123.9c5.8,0,10.5-4.7,10.5-10.5V96c0-5.8-4.7-10.5-10.5-10.5c-5.8,0-10.5,4.7-10.5,10.5v17.3
	C249.5,119.2,254.2,123.9,260,123.9L260,123.9z"/>
<path d="M159.1,331.5l-12.3,12.3c-4.1,4.1-4.1,10.8,0,14.9c4.1,4.1,10.8,4.1,14.9,0l12.3-12.3c4.1-4.1,4.1-10.8,0-14.9
	C169.9,327.4,163.2,327.4,159.1,331.5z"/>
<path d="M358.3,132.4L346,144.6c-4.1,4.1-4.1,10.8,0,14.9c4.1,4.1,10.8,4.1,14.9,0l12.3-12.3c4.1-4.1,4.1-10.8,0-14.9
	C369,128.3,362.4,128.3,358.3,132.4z"/>
<path d="M233.6,244.1c-4.1,4.1-4.1,10.8,0,14.9c4.1,4.1,10.8,4.1,14.9,0c6.4-6.4,16.7-6.4,23,0c2.1,2.1,4.7,3.1,7.4,3.1
	c9.3,0,14.1-11.3,7.4-17.9C271.8,229.5,248.2,229.5,233.6,244.1L233.6,244.1z"/>
<path d="M219,214.9c-4.1,4.1-4.1,10.8,0,14.9c4.1,4.1,10.8,4.1,14.9,0c14.4-14.4,37.8-14.4,52.2,0c4.1,4.1,10.8,4.1,14.9,0
	c4.1-4.1,4.1-10.8,0-14.9C278.3,192.2,241.7,192.2,219,214.9L219,214.9z"/>
<circle cx="260" cy="280.8" r="12.5"/>
</svg>
