<?xml version="1.0" encoding="utf-8"?>
<!-- Generator: Adobe Illustrator 25.0.1, SVG Export Plug-In . SVG Version: 6.00 Build 0)  -->
<svg version="1.1" id="outline" xmlns="http://www.w3.org/2000/svg" xmlns:xlink="http://www.w3.org/1999/xlink" x="0px" y="0px"
	 viewBox="0 0 512 512" style="enable-background:new 0 0 512 512;" xml:space="preserve">
<path d="M446.5,80.8l-48.1-48.1c-1.1-1.1-2.7-1.8-4.3-1.8H261.7c-3.3,0-6,2.7-6,6v240.7c0,3.3,2.7,6,6,6h18.1
	c-16.6,39.9,2.2,85.7,42.1,102.3c39.9,16.6,85.7-2.2,102.3-42.1c8-19.3,8-40.9,0-60.2h18.1c3.3,0,6-2.7,6-6V85.1
	C448.3,83.5,447.6,81.9,446.5,80.8z M400.1,51.4L427.7,79h-27.6V51.4z M352,379.9c-36.6,0-66.2-29.6-66.2-66.2s29.6-66.2,66.2-66.2
	s66.2,29.6,66.2,66.2C418.1,350.3,388.5,379.9,352,379.9z M417.9,271.6c-23.2-36.4-71.6-47.1-108-23.8c-9.6,6.1-17.7,14.2-23.8,23.8
	h-18.4V42.9h120.4v42.1c0,3.3,2.7,6,6,6h42.1v180.5H417.9z"/>
<path d="M166.2,274.6c13.8,24.3,13.8,54,0,78.3l10.5,6c15.9-28,15.9-62.3,0-90.2L166.2,274.6z"/>
<path d="M200.8,256.7l-10.5,5.8c17.7,31.9,17.7,70.6,0,102.5l10.5,5.8C220.5,335.3,220.5,292.2,200.8,256.7L200.8,256.7z"/>
<path d="M214.3,250.4c21.6,39.4,21.6,87.2,0,126.6l10.6,5.8c23.5-43.1,23.5-95.1,0-138.2L214.3,250.4z"/>
<path d="M141.4,245.5v-16.1c0-29.9-24.3-54.1-54.2-54.2v12c23.3,0,42.1,18.9,42.1,42.1v17.3c0,0.8,0.2,1.6,0.5,2.3l14.5,34.6h-3
	c-3.3,0-6,2.7-6,6V304l-8.7,4.4c-3,1.5-4.2,5.1-2.7,8.1c0.6,1.2,1.5,2.1,2.7,2.7l8.7,4.4v8.3c0,3.3-2.7,6-6,6H87.2v12h42.1
	c10,0,18-8.1,18.1-18.1v-12c0-2.3-1.3-4.4-3.3-5.4l-1.3-0.6l1.3-0.6c2-1,3.3-3.1,3.3-5.4v-12h6c3.3,0,6-2.7,6-6
	c0-0.8-0.2-1.6-0.5-2.3L141.4,245.5z"/>
<path d="M382.1,301.7c0,16.6-13.5,30.1-30.1,30.1s-30.1-13.5-30.1-30.1v-6h-12v6c0,20.9,15.4,38.7,36.1,41.7v6.5h-24.1v12h60.2v-12
	H358v-6.5c20.7-3,36.1-20.8,36.1-41.7v-6h-12V301.7z"/>
<path d="M279.8,55h96.3v12h-96.3V55z"/>
<path d="M279.8,79h96.3v12h-96.3V79z"/>
<path d="M279.8,103.1h144.4v12H279.8V103.1z"/>
<path d="M279.8,127.2h144.4v12H279.8V127.2z"/>
<path d="M356.2,153c-2.4-2.4-6.2-2.4-8.5,0c0,0,0,0,0,0l-36.1,36.1c-2.4,2.4-2.4,6.2,0,8.5c1.1,1.1,2.7,1.8,4.3,1.8h18.1v18.1
	c0,3.3,2.7,6,6,6H364c3.3,0,6-2.7,6-6v-18.1h18.1c3.3,0,6-2.7,6-6c0-1.6-0.6-3.1-1.8-4.3L356.2,153z M364,187.4c-3.3,0-6,2.7-6,6
	v18.1h-12v-18.1c0-3.3-2.7-6-6-6h-9.5l21.6-21.6l21.6,21.6H364z"/>
<path d="M352,259.6c-10,0-18,8.1-18.1,18.1v24.1c0,10,8.1,18.1,18.1,18.1s18.1-8.1,18.1-18.1v-24.1C370,267.7,362,259.6,352,259.6z
	 M352,271.6c3.3,0,6,2.7,6,6v6h-12v-6C346,274.3,348.7,271.6,352,271.6z M352,307.7c-3.3,0-6-2.7-6-6v-6h12v6
	C358,305,355.3,307.7,352,307.7z"/>
</svg>
