<?xml version="1.0" encoding="utf-8"?>
<!-- Generator: Adobe Illustrator 25.0.1, SVG Export Plug-In . SVG Version: 6.00 Build 0)  -->
<svg version="1.1" id="Layer_1" xmlns="http://www.w3.org/2000/svg" xmlns:xlink="http://www.w3.org/1999/xlink" x="0px" y="0px"
	 viewBox="0 0 480 480" style="enable-background:new 0 0 480 480;" xml:space="preserve">
<path d="M439.2,316.8c9.5-9.8,11.3-24.8,4.3-36.6c-7-11.8-21-17.5-34.2-13.8c-13.2,3.6-22.4,15.6-22.4,29.3v0.7
	c-1.7-0.5-3.4-0.7-5.1-0.7c-7.6,0-14.5,4.2-18,10.9c-3.5,6.7-3,14.8,1.4,21c-5.3,2.5-8.7,7.9-8.7,13.7v20.3c0,2.8,2.3,5.1,5.1,5.1
	c2.8,0,5.1-2.3,5.1-5.1v-20.3c0-2.8,2.3-5.1,5.1-5.1h5.6c-0.3,1.7-0.5,3.4-0.5,5.1v40.5c0,2.8,2.3,5.1,5.1,5.1
	c2.8,0,5.1-2.3,5.1-5.1v-40.5c0-2.4,0.6-4.8,1.7-6.9c0.3-0.4,0.6-0.8,0.8-1.3c1.7-2.7,4.2-4.7,7.2-5.9c0.5-0.1,1-0.3,1.5-0.5
	c1.3-0.4,2.7-0.6,4.1-0.6h1.4l3.6,10.5l-5.1,29.2c-0.2,1.3,0.1,2.5,0.8,3.6l10.1,15.2c0.9,1.4,2.5,2.2,4.2,2.2
	c1.7,0,3.3-0.8,4.2-2.2l10.1-15.2c0.7-1.1,1-2.3,0.8-3.6l-5.1-29.2l3.8-10.5h1.4c8.4,0,15.2,6.8,15.2,15.2v40.5
	c0,2.8,2.3,5.1,5.1,5.1c2.8,0,5.1-2.3,5.1-5.1v-40.5C457.9,329.9,450.2,319.8,439.2,316.8z M417.3,275.4c11.2,0,20.3,9.1,20.3,20.3
	c0,11.2-9.1,20.3-20.3,20.3s-20.3-9.1-20.3-20.3C397.1,284.5,406.1,275.4,417.3,275.4z M381.9,305.8c5.6,0,10.1,4.5,10.1,10.1
	c0.1,0.7,0.1,1.5,0,2.2c-4,1.7-7.5,4.5-10.1,7.9c-5.6,0-10.1-4.5-10.1-10.1C371.7,310.4,376.3,305.8,381.9,305.8z M417.3,337.1
	l5.1,28.4l-5.1,7.2l-5.1-7.2L417.3,337.1c0.2-0.8,0.2-1.6,0-2.4l-3.1-8.5h6.2l-2.8,8.5C417.3,335.4,417.2,336.2,417.3,337.1z"/>
<path d="M407.2,234.9c2.8,0,5.1-2.3,5.1-5.1v-35.5c0-2.8-2.3-5.1-5.1-5.1h-30.4c-2.8,0-5.1,2.3-5.1,5.1v35.5c0,2.8,2.3,5.1,5.1,5.1
	c2.8,0,5.1-2.3,5.1-5.1v-30.4h20.3v30.4C402.1,232.6,404.4,234.9,407.2,234.9z"/>
<path d="M361.6,229.8v-76h20.3V169c0,2.8,2.3,5.1,5.1,5.1h50.7v55.7c0,2.8,2.3,5.1,5.1,5.1c2.8,0,5.1-2.3,5.1-5.1V123.4
	c0-2.8-2.3-5.1-5.1-5.1h-20.3c-2.6,0-4.8,1.9-5.1,4.5l-4.5,41.1H392v-15.2c0-2.8-2.3-5.1-5.1-5.1h-30.4c-2.8,0-5.1,2.3-5.1,5.1v35.5
	h-15.2c-2.8,0-5.1,2.3-5.1,5.1v40.5c0,2.8,2.3,5.1,5.1,5.1c2.8,0,5.1-2.3,5.1-5.1v-35.5h10.1v35.5c0,2.8,2.3,5.1,5.1,5.1
	C359.3,234.9,361.6,232.6,361.6,229.8z M427,128.5h10.6V164H423L427,128.5z"/>
<path d="M245.9,336.2c-2.2,6.3-0.1,13.3,5.3,17.3c5.4,4,12.7,4,18.1,0c5.4-4,7.5-11,5.3-17.3h11c2.8,0,5.1-2.3,5.1-5.1v-20.7
	c0,0,0,0,0-0.3v-0.7c-0.1-0.2-0.1-0.4-0.3-0.6v-0.6l-12.7-20.3c-1-1.7-2.9-2.7-4.8-2.5h-22.8v-5.1c0-2.8-2.3-5.1-5.1-5.1H164
	c-2.8,0-5.1,2.3-5.1,5.1s2.3,5.1,5.1,5.1h35.5v15.2c0,2.8,2.3,5.1,5.1,5.1h20.3c2.8,0,5.1-2.3,5.1-5.1v-15.2H240v40.5h-50.7v-2.2
	c0-2.8-2.3-5.1-5.1-5.1s-5.1,2.3-5.1,5.1v7.3c0,2.8,2.3,5.1,5.1,5.1h5.9c-2.2,6.3-0.1,13.3,5.3,17.3c5.4,4,12.7,4,18.1,0
	c5.4-4,7.5-11,5.3-17.3H245.9z M219.7,295.7h-10.1v-10.1h10.1V295.7z M265.3,341.3c0,2.8-2.3,5.1-5.1,5.1c-2.8,0-5.1-2.3-5.1-5.1
	c0-2.8,2.3-5.1,5.1-5.1C263.1,336.2,265.3,338.5,265.3,341.3z M280.5,326.1h-30.4V316h30.4V326.1z M270.4,295.7l6.3,10.1h-26.6
	v-10.1H270.4z M209.6,341.3c0,2.8-2.3,5.1-5.1,5.1s-5.1-2.3-5.1-5.1c0-2.8,2.3-5.1,5.1-5.1S209.6,338.5,209.6,341.3z"/>
<path d="M189.3,305.8c0-2.8-2.3-5.1-5.1-5.1h-10.1c-2.8,0-5.1,2.3-5.1,5.1c0,2.8,2.3,5.1,5.1,5.1h10.1
	C187.1,310.9,189.3,308.6,189.3,305.8z"/>
<path d="M285.6,194.4c2.8,0,5.1-2.3,5.1-5.1c0-2.8-2.3-5.1-5.1-5.1h-20.3v-10.1h20.3c2.8,0,5.1-2.3,5.1-5.1v-60.8
	c0-2.8-2.3-5.1-5.1-5.1h-10.1V88c0-2.8-2.3-5.1-5.1-5.1h-81.1c-2.8,0-5.1,2.3-5.1,5.1v20.3c0,2.8,2.3,5.1,5.1,5.1h10.1v10.1h-40.5
	c-2.8,0-5.1,2.3-5.1,5.1v60.8c0,2.8,2.3,5.1,5.1,5.1H285.6z M280.5,133.6v10.1h-15.2v-10.1H280.5z M265.3,164v-10.1h15.2V164H265.3z
	 M280.5,123.4h-30.4v-10.1h30.4V123.4z M265.3,103.2h-30.4V93h30.4V103.2z M194.4,93h30.4v10.1h-30.4V93z M209.6,113.3H240v10.1
	h-30.4V113.3z M164,133.6h91.2v50.7H164V133.6z"/>
<path d="M209.6,143.7c-8.4,0-15.2,6.8-15.2,15.2c0,8.4,6.8,15.2,15.2,15.2c8.4,0,15.2-6.8,15.2-15.2
	C224.8,150.5,218,143.7,209.6,143.7z M209.6,164c-2.8,0-5.1-2.3-5.1-5.1s2.3-5.1,5.1-5.1c2.8,0,5.1,2.3,5.1,5.1S212.4,164,209.6,164
	z"/>
<path d="M245.1,158.9c0,2.8-2.3,5.1-5.1,5.1c-2.8,0-5.1-2.3-5.1-5.1s2.3-5.1,5.1-5.1C242.8,153.8,245.1,156.1,245.1,158.9z"/>
<path d="M184.3,158.9c0,2.8-2.3,5.1-5.1,5.1s-5.1-2.3-5.1-5.1s2.3-5.1,5.1-5.1S184.3,156.1,184.3,158.9z"/>
<path d="M305.9,108.2h70.9c8.4,0,15.2,6.8,15.2,15.2c0,2.8,2.3,5.1,5.1,5.1c2.8,0,5.1-2.3,5.1-5.1c0-14-11.3-25.3-25.3-25.3h-70.9
	c-2.8,0-5.1,2.3-5.1,5.1C300.8,106,303.1,108.2,305.9,108.2z"/>
<path d="M326.1,376.8h-70.9c-8.4,0-15.2-6.8-15.2-15.2v-10.1c0-2.8-2.3-5.1-5.1-5.1c-2.8,0-5.1,2.3-5.1,5.1v10.1
	c0,14,11.3,25.3,25.3,25.3h70.9c2.8,0,5.1-2.3,5.1-5.1C331.2,379,328.9,376.8,326.1,376.8z"/>
<path d="M214.7,214.6v40.5c0,2.8,2.3,5.1,5.1,5.1c2.8,0,5.1-2.3,5.1-5.1v-40.5c0-2.8-2.3-5.1-5.1-5.1
	C216.9,209.6,214.7,211.8,214.7,214.6z"/>
<path d="M376.8,250.1c-2.8,0-5.1,2.3-5.1,5.1v20.3c0,2.8,2.3,5.1,5.1,5.1c2.8,0,5.1-2.3,5.1-5.1v-20.3
	C381.9,252.4,379.6,250.1,376.8,250.1z"/>
<path d="M289.2,221.2c-2-2-5.2-2-7.2,0c-2,2-2,5.2,0,7.2l60.8,60.8c0.9,1,2.2,1.5,3.6,1.5c1.4,0,2.6-0.5,3.6-1.5
	c1-1,1.5-2.2,1.5-3.6c0-1.4-0.5-2.6-1.5-3.6L289.2,221.2z"/>
</svg>
