<?xml version="1.0" encoding="utf-8"?>
<!-- Generator: Adobe Illustrator 25.0.1, SVG Export Plug-In . SVG Version: 6.00 Build 0)  -->
<svg version="1.1" id="_x33_0" xmlns="http://www.w3.org/2000/svg" xmlns:xlink="http://www.w3.org/1999/xlink" x="0px" y="0px"
	 viewBox="0 0 512 512" style="enable-background:new 0 0 512 512;" xml:space="preserve">
<g>
	<path d="M434.5,284.5l-87.1-65.3c-8.2-6.1-20.3-6.1-28.5,0l-57,42.7v-95h9.9c7.6,0,13.8-6.2,13.8-13.8c0-4.3-2.1-8.5-5.5-11.1
		l-87.1-65.3c-8.2-6.1-20.3-6.1-28.5,0L77.5,142c-3.5,2.6-5.5,6.7-5.5,11.1c0,7.6,6.2,13.8,13.8,13.8h9.9v118.7
		c0,6.5,5.3,11.9,11.9,11.9h118.9c1,6.7,6.7,11.9,13.7,11.9h9.9v118.7c0,6.5,5.3,11.9,11.9,11.9h142.5c6.5,0,11.9-5.3,11.9-11.9
		V309.4h9.9c7.6,0,13.8-6.2,13.8-13.8C440,291.2,437.9,287.1,434.5,284.5z M231.9,284.5c-0.5,0.4-0.8,0.8-1.2,1.2h-28v-47.5h47.5
		v32.6L231.9,284.5z M143.2,208.5c0-9.8,8-17.8,17.8-17.8c9.8,0,17.8,8,17.8,17.8s-8,17.8-17.8,17.8
		C151.2,226.3,143.2,218.3,143.2,208.5z M190.7,285.7h-59.4v-17.8c0-16.4,13.3-29.7,29.7-29.7s29.7,13.3,29.7,29.7V285.7z
		 M83.9,153.1c0-0.6,0.3-1.2,0.8-1.6l87.1-65.3c2-1.5,4.6-2.4,7.1-2.4s5.1,0.8,7.1,2.4l87.1,65.3c0.5,0.4,0.8,1,0.8,1.6
		c0,1.1-0.9,2-2,2h-186C84.8,155.1,83.9,154.2,83.9,153.1z M107.6,167h142.5v59.4h-47.5c-6.5,0-11.9,5.3-11.9,11.9v0.7
		c-3.1-3.1-6.6-5.8-10.6-7.8c6.4-5.4,10.6-13.5,10.6-22.5c0-16.4-13.3-29.7-29.7-29.7s-29.7,13.3-29.7,29.7c0,9,4.2,17.1,10.6,22.5
		c-13.3,6.9-22.4,20.8-22.4,36.8v17.8h-11.9V167z M297.5,351c0-9.8,8-17.8,17.8-17.8s17.8,8,17.8,17.8s-8,17.8-17.8,17.8
		S297.5,360.8,297.5,351z M345,428.1h-59.4v-17.8c0-16.4,13.3-29.7,29.7-29.7S345,394,345,410.3V428.1z M356.9,428.1v-47.5h47.5
		v47.5H356.9z M404.4,368.8h-47.5c-6.5,0-11.9,5.3-11.9,11.9v0.7c-3.1-3.1-6.6-5.8-10.6-7.8C340.9,368,345,360,345,351
		c0-16.4-13.3-29.7-29.7-29.7s-29.7,13.3-29.7,29.7c0,9,4.2,17.1,10.6,22.5c-13.3,6.9-22.4,20.8-22.4,36.8v17.8h-11.9V309.4h142.5
		V368.8z M426.2,297.5h-186c-1.1,0-2-0.9-2-2c0-0.6,0.3-1.2,0.8-1.6l87.1-65.3c2-1.5,4.6-2.4,7.1-2.4c2.6,0,5.1,0.8,7.1,2.4
		l87.1,65.3c0.5,0.4,0.8,1,0.8,1.6C428.1,296.7,427.2,297.5,426.2,297.5z"/>
	<path d="M143.2,321.3h-11.9c0,32.7,26.6,59.4,59.4,59.4v-11.9C164.5,368.8,143.2,347.5,143.2,321.3z"/>
	<path d="M119.5,321.3h-11.9c0,45.8,37.3,83.1,83.1,83.1v-11.9C151.4,392.5,119.5,360.6,119.5,321.3z"/>
	<path d="M83.9,321.3H72C72,386.7,125.3,440,190.7,440v-11.9C131.8,428.1,83.9,380.2,83.9,321.3z"/>
	<path d="M368.8,190.7h11.9c0-32.7-26.6-59.4-59.4-59.4v11.9C347.5,143.2,368.8,164.5,368.8,190.7z"/>
	<path d="M392.5,190.7h11.9c0-45.8-37.3-83.1-83.1-83.1v11.9C360.6,119.5,392.5,151.4,392.5,190.7z"/>
	<path d="M428.1,190.7H440C440,125.3,386.7,72,321.3,72v11.9C380.2,83.9,428.1,131.8,428.1,190.7z"/>
</g>
</svg>
