<?xml version="1.0" encoding="utf-8"?>
<!-- Generator: Adobe Illustrator 25.0.1, SVG Export Plug-In . SVG Version: 6.00 Build 0)  -->
<svg version="1.1" id="Layer_1" xmlns="http://www.w3.org/2000/svg" xmlns:xlink="http://www.w3.org/1999/xlink" x="0px" y="0px"
	 viewBox="0 0 512 512" style="enable-background:new 0 0 512 512;" xml:space="preserve">
<style type="text/css">
	.st0{fill:#E61F2D;}
</style>
<polygon class="st0" points="418,239 418,443.6 112,443.6 "/>
<g id="XMLID_86_">
	<path id="XMLID_107_" d="M315.5,104h-119c-18.8,0-34,15.3-34,34v235.1c0,18.8,15.3,34,34,34h119c18.8,0,34-15.3,34-34V138
		C349.6,119.3,334.3,104,315.5,104z M196.5,121.8h119c9,0,16.3,7.3,16.3,16.3v199.8H180.2V138C180.2,129.1,187.5,121.8,196.5,121.8z
		 M315.5,389.4h-119c-9,0-16.3-7.3-16.3-16.3v-17.5h151.6v17.5C331.8,382.1,324.5,389.4,315.5,389.4z"/>
	<path id="XMLID_122_" d="M256,362.8c-4.9,0-8.9,4-8.9,8.9v1.2c0,4.9,4,8.9,8.9,8.9s8.9-4,8.9-8.9v-1.2
		C264.9,366.7,260.9,362.8,256,362.8z"/>
</g>
</svg>
