<?xml version="1.0" encoding="utf-8"?>
<!-- Generator: Adobe Illustrator 25.0.1, SVG Export Plug-In . SVG Version: 6.00 Build 0)  -->
<svg version="1.1" id="Layer_1" xmlns="http://www.w3.org/2000/svg" xmlns:xlink="http://www.w3.org/1999/xlink" x="0px" y="0px"
	 viewBox="0 0 512 512" style="enable-background:new 0 0 512 512;" xml:space="preserve">
<g>
	<path d="M345.9,293.8L304.5,275v-12c17.7-10.3,30.3-28.4,32.9-49.6h17.3v-16.7h8.4c13.8,0,25.1-11.3,25.1-25.1
		c0-13.8-11.3-25.1-25.1-25.1h-8.4v-16.7h-25.1V96.3H212.5v33.5h-25.1v16.7H179c-13.8,0-25.1,11.3-25.1,25.1
		c0,13.8,11.3,25.1,25.1,25.1h8.4v16.7h17.3c2.7,21.2,15.2,39.3,32.9,49.6v12l-41.4,18.8c-30.7,14-50.6,44.8-50.6,78.6v8.4h251v-8.4
		C396.5,338.6,376.7,307.8,345.9,293.8z M271.1,313.8c-9.2,0-16.7-7.5-16.7-16.7v-27.2c10.8,2.8,22.6,2.8,33.5,0v27.2
		C287.8,306.3,280.3,313.8,271.1,313.8L271.1,313.8z M363.1,163.3c4.6,0,8.4,3.8,8.4,8.4c0,4.6-3.8,8.4-8.4,8.4h-8.4v-16.7H363.1z
		 M229.2,113.1h83.7v16.7h-83.7V113.1z M179,180c-4.6,0-8.4-3.8-8.4-8.4c0-4.6,3.8-8.4,8.4-8.4h8.4V180H179z M204.1,146.5H338v50.2
		h-40.1l-26.9-12l-26.5,12h-40.4V146.5z M221.6,213.5h26.6l22.9-10.4l23.3,10.4h26.2c-3.7,22.1-21.9,39.3-44.4,41.6c0,0,0,0,0,0
		C249.4,257.8,225.9,239,221.6,213.5L221.6,213.5z M203.1,309.1l34.5-15.7v3.7c0,15.6,10.7,28.7,25.1,32.4V364h-99.9
		C165.7,340.2,180.9,319.2,203.1,309.1L203.1,309.1z M279.4,364v-34.5c14.4-3.7,25.1-16.8,25.1-32.4v-3.7l34.5,15.7
		c22.2,10.1,37.4,31.1,40.3,55H279.4z"/>
</g>
</svg>
