<?xml version="1.0" encoding="utf-8"?>
<!-- Generator: Adobe Illustrator 25.0.1, SVG Export Plug-In . SVG Version: 6.00 Build 0)  -->
<svg version="1.1" id="Layer_1" xmlns="http://www.w3.org/2000/svg" xmlns:xlink="http://www.w3.org/1999/xlink" x="0px" y="0px"
	 viewBox="0 0 512 512" style="enable-background:new 0 0 512 512;" xml:space="preserve">
<path d="M394.7,177.8h-47.2l13.8-25.3c12.8,0.1,23.6-10.3,23.6-23.4c0-12.9-10.5-23.4-23.4-23.4c-20.8,0-31.3,25.3-16.6,40
	l-17.5,32.2h-54.9L255,145.6c14.7-14.7,4.2-40-16.6-40c-12.9,0-23.4,10.5-23.4,23.4c0,12.9,10.5,23.4,23.4,23.4
	c0.2,0-0.9-1.9,14,25.3h-47.2c-16.3,0-29.5,13.2-29.5,29.5v112.8c0,16.3,13.2,29.5,29.5,29.5h119.1v15.8c0,16.1,20,23.4,30.4,11.3
	l23.3-27.1h16.8c16.3,0,29.5-13.2,29.5-29.5V207.3C424.2,191.1,411,177.8,394.7,177.8z M361.5,123.4c3.1,0,5.7,2.6,5.7,5.7
	s-2.6,5.7-5.7,5.7s-5.7-2.6-5.7-5.7S358.4,123.4,361.5,123.4z M232.7,129.1c0-3.1,2.6-5.7,5.7-5.7c3.1,0,5.7,2.6,5.7,5.7
	s-2.6,5.7-5.7,5.7C235.2,134.8,232.7,132.2,232.7,129.1z M406.5,320.2c0,6.5-5.3,11.8-11.8,11.8h-20.9c-2.6,0-5,1.1-6.7,3.1
	l-25.2,29.2v-23.5c0-4.9-4-8.9-8.9-8.9H205.1c-6.5,0-11.8-5.3-11.8-11.8V207.3c0-6.5,5.3-11.8,11.8-11.8h189.6
	c6.5,0,11.8,5.3,11.8,11.8L406.5,320.2z"/>
<path d="M371.4,255.7c-16.4,0-125.6,0-143,0c-4.9,0-8.9,4-8.9,8.9v36.5c0,4.9,4,8.9,8.9,8.9h143c4.9,0,8.9-4,8.9-8.9v-36.5
	C380.3,259.7,376.3,255.7,371.4,255.7z M237.3,273.4h28.3v18.8h-28.3V273.4z M283.3,292.2v-18.8h33.3v18.8H283.3z M362.6,292.2
	h-28.3v-18.8h28.3L362.6,292.2z"/>
<path d="M247.6,234.6h24.9c4.9,0,8.9-4,8.9-8.9c0-4.9-4-8.9-8.9-8.9h-24.9c-4.9,0-8.9,4-8.9,8.9
	C238.8,230.7,242.7,234.6,247.6,234.6L247.6,234.6z"/>
<path d="M327.4,234.6h24.9c4.9,0,8.9-4,8.9-8.9c0-4.9-4-8.9-8.9-8.9h-24.9c-4.9,0-8.9,4-8.9,8.9
	C318.5,230.7,322.5,234.6,327.4,234.6z"/>
</svg>
