<?xml version="1.0" encoding="utf-8"?>
<!-- Generator: Adobe Illustrator 25.0.1, SVG Export Plug-In . SVG Version: 6.00 Build 0)  -->
<svg version="1.1" id="Layer_1" xmlns="http://www.w3.org/2000/svg" xmlns:xlink="http://www.w3.org/1999/xlink" x="0px" y="0px"
	 viewBox="0 0 512 512" style="enable-background:new 0 0 512 512;" xml:space="preserve">
<path d="M269.2,91.6c1.6,0,3.1-0.8,4-2.1c0.9-1.3,1.1-3.1,0.4-4.5c-0.2-0.6-0.6-1.1-1-1.6c-1.9-1.8-4.9-1.8-6.9,0
	c-0.4,0.5-0.8,1-1,1.6c-0.6,1.5-0.5,3.2,0.4,4.5C266,90.8,267.5,91.6,269.2,91.6z"/>
<path d="M288.5,91.6h38.7c2.7,0,4.8-2.2,4.8-4.8c0-2.7-2.2-4.8-4.8-4.8h-38.7c-2.7,0-4.8,2.2-4.8,4.8
	C283.7,89.4,285.8,91.6,288.5,91.6z"/>
<path d="M438.4,207.6h-4.8c0-2.7-2.2-4.8-4.8-4.8c-2.7,0-4.8,2.2-4.8,4.8h-4.8v-4.8c0-2.7-2.2-4.8-4.8-4.8c-2.7,0-4.8,2.2-4.8,4.8
	v4.8h-9.7v-14.5c0-2.7-2.2-4.8-4.8-4.8c-2.7,0-4.8,2.2-4.8,4.8v14.5h-9.7V81.9c0-10.7-8.7-19.3-19.3-19.3H235.3
	c-10.7,0-19.3,8.7-19.3,19.3v125.7h-9.7v-14.5c0-2.7-2.2-4.8-4.8-4.8c-2.7,0-4.8,2.2-4.8,4.8v14.5H187v-4.8c0-2.7-2.2-4.8-4.8-4.8
	c-2.7,0-4.8,2.2-4.8,4.8v4.8h-4.8c0-2.7-2.2-4.8-4.8-4.8c-2.7,0-4.8,2.2-4.8,4.8h-4.8c-2.7,0-4.8,2.2-4.8,4.8c0,2.7,2.2,4.8,4.8,4.8
	h4.8c0,2.7,2.2,4.8,4.8,4.8c2.7,0,4.8-2.2,4.8-4.8h4.8v4.8c0,2.7,2.2,4.8,4.8,4.8c2.7,0,4.8-2.2,4.8-4.8v-4.8h9.7v14.5
	c0,2.7,2.2,4.8,4.8,4.8c2.7,0,4.8-2.2,4.8-4.8v-14.5h9.7v116.1c0,10.7,8.7,19.3,19.3,19.3H361c10.7,0,19.3-8.7,19.3-19.3V217.3h9.7
	v14.5c0,2.7,2.2,4.8,4.8,4.8c2.7,0,4.8-2.2,4.8-4.8v-14.5h9.7v4.8c0,2.7,2.2,4.8,4.8,4.8c2.7,0,4.8-2.2,4.8-4.8v-4.8h4.8
	c0,2.7,2.2,4.8,4.8,4.8c2.7,0,4.8-2.2,4.8-4.8h4.8c2.7,0,4.8-2.2,4.8-4.8C443.2,209.8,441.1,207.6,438.4,207.6z M235.3,72.2H361
	c5.3,0,9.7,4.3,9.7,9.7v22c-2.9-1.7-6.3-2.7-9.7-2.7H235.3c-3.4,0-6.7,0.9-9.7,2.7v-22C225.7,76.6,230,72.3,235.3,72.2z
	 M225.6,120.6c0-5.3,4.3-9.7,9.7-9.7H361c5.3,0,9.7,4.3,9.7,9.7v87h-19.3v-24.2c0-2.7-2.2-4.8-4.8-4.8c-2.7,0-4.8,2.2-4.8,4.8v24.2
	H332v-33.8c0-2.7-2.2-4.8-4.8-4.8c-2.7,0-4.8,2.2-4.8,4.8v33.8h-9.7v-62.9c0-2.7-2.2-4.8-4.8-4.8c-2.7,0-4.8,2.2-4.8,4.8v62.9h-9.7
	v-62.9c0-2.7-2.2-4.8-4.8-4.8c-2.7,0-4.8,2.2-4.8,4.8v62.9H274v-33.8c0-2.7-2.2-4.8-4.8-4.8c-2.7,0-4.8,2.2-4.8,4.8v33.8h-9.7v-24.2
	c0-2.7-2.2-4.8-4.8-4.8c-2.7,0-4.8,2.2-4.8,4.8v24.2h-19.3V120.6z M361,343H235.3c-5.3,0-9.7-4.3-9.7-9.7V321
	c2.9,1.7,6.3,2.7,9.7,2.7H361c3.4,0,6.7-0.9,9.7-2.7v12.4C370.7,338.7,366.4,343,361,343z M370.7,223.3v81c0,5.3-4.3,9.7-9.7,9.7
	H235.3c-5.3,0-9.7-4.3-9.7-9.7v-87H245v24.2c0,2.7,2.2,4.8,4.8,4.8c2.7,0,4.8-2.2,4.8-4.8v-24.2h9.7v33.8c0,2.7,2.2,4.8,4.8,4.8
	c2.7,0,4.8-2.2,4.8-4.8v-33.8h9.7v62.9c0,2.7,2.2,4.8,4.8,4.8c2.7,0,4.8-2.2,4.8-4.8v-62.9h9.7v62.9c0,2.7,2.2,4.8,4.8,4.8
	c2.7,0,4.8-2.2,4.8-4.8v-62.9h9.7v33.8c0,2.7,2.2,4.8,4.8,4.8c2.7,0,4.8-2.2,4.8-4.8v-33.8h9.7v24.2c0,2.7,2.2,4.8,4.8,4.8
	c2.7,0,4.8-2.2,4.8-4.8v-24.2h19.3V223.3z"/>
</svg>
