<?xml version="1.0" encoding="utf-8"?>
<!-- Generator: Adobe Illustrator 25.0.1, SVG Export Plug-In . SVG Version: 6.00 Build 0)  -->
<svg version="1.1" id="Layer_1" xmlns="http://www.w3.org/2000/svg" xmlns:xlink="http://www.w3.org/1999/xlink" x="0px" y="0px"
	 viewBox="0 0 512 512" style="enable-background:new 0 0 512 512;" xml:space="preserve">
<g id="Page-1">
	<g id="_x30_29---AR-Cityscape">
		<path id="Shape" d="M473.6,152h-24.2v-24.2c0-8-6.5-14.5-14.5-14.5h-77.4c-8,0-14.5,6.5-14.5,14.5V152h-24.5
			c-2.6-21.9-21.2-38.4-43.2-38.4c-22.1,0-40.6,16.5-43.2,38.4h-10c-10.7,0-19.3,8.7-19.3,19.3v135.4c0,10.7,8.7,19.3,19.3,19.3
			h19.3v72.5c0,2.7,2.2,4.8,4.8,4.8h203.1c2.7,0,4.8-2.2,4.8-4.8v-72.5h19.3c10.7,0,19.3-8.7,19.3-19.3V171.4
			C492.9,160.7,484.3,152,473.6,152z M352.7,127.9c0-2.7,2.2-4.8,4.8-4.8h77.4c2.7,0,4.8,2.2,4.8,4.8v38.7c0,2.7-2.2,4.8-4.8,4.8
			h-77.4c-2.7,0-4.8-2.2-4.8-4.8V127.9z M430.1,229.4c0,2.7-2.2,4.8-4.8,4.8c-2.7,0-4.8-2.2-4.8-4.8c0-2.7,2.2-4.8,4.8-4.8
			C427.9,224.6,430.1,226.7,430.1,229.4z M275.3,123.1c18.7,0,33.8,15.2,33.8,33.8c0,9.9-11.3,29.1-30.2,51.4
			c-0.9,1-2.3,1.6-3.7,1.6c-1.4,0-2.7-0.6-3.7-1.6c-18.9-22.3-30.2-41.5-30.2-51.4C241.5,138.3,256.7,123.1,275.3,123.1z
			 M212.5,201.9l6.6,6.2c1.9,1.8,3.1,4.4,3.1,7.1V263c0,2.7-1.1,5.2-3.1,7.1l-6.6,6.2V201.9z M309.2,393.8h-58v-67.7h58V393.8z
			 M309.2,316.4h-58v-62.9c0-2.7,2.2-4.8,4.8-4.8h48.4c2.7,0,4.8,2.2,4.8,4.8V316.4z M376.9,393.8h-58v-67.7h58V393.8z M376.9,272.9
			v43.5h-58V210.1c0-2.7,2.2-4.8,4.8-4.8h48.4c2.7,0,4.8,2.2,4.8,4.8V272.9z M444.6,393.8h-58v-67.7h58V393.8z M444.6,316.4h-58
			v-43.5c0-2.7,2.2-4.8,4.8-4.8h48.4c2.7,0,4.8,2.2,4.8,4.8V316.4z M463.9,306.8c0,5.3-4.3,9.7-9.7,9.7v-43.5
			c0-8-6.5-14.5-14.5-14.5h-48.4c-1.7,0-3.3,0.3-4.8,0.9v-49.2c0-8-6.5-14.5-14.5-14.5h-48.4c-8,0-14.5,6.5-14.5,14.5V240
			c-1.5-0.6-3.2-0.9-4.8-0.9H256c-8,0-14.5,6.5-14.5,14.5v62.9h-19.3c-5.3,0-9.7-4.3-9.7-9.7v-17.2l13.2-12.4
			c3.9-3.7,6.1-8.8,6.1-14.1v-47.9c0-5.3-2.2-10.5-6.1-14.1l-13.2-12.4v-17.2c0-5.3,4.3-9.7,9.7-9.7h10.2
			c2.8,15.8,18.6,37.1,32,52.9c2.7,3.2,6.8,5.1,11,5.1s8.3-1.9,11-5.1c13.4-15.8,29.2-37.2,32-52.9H343v4.8c0,8,6.5,14.5,14.5,14.5
			h62.9v34.7c-6.7,2.4-10.7,9.2-9.5,16.1s7.2,12.1,14.3,12.1s13.1-5.1,14.3-12.1c1.2-7-2.8-13.8-9.5-16.1V181h4.8
			c8,0,14.5-6.5,14.5-14.5v-4.8h4.8c5.3,0,9.7,4.3,9.7,9.7V306.8z M483.3,306.8c0,5.3-4.3,9.7-9.7,9.7h-2.7c1.7-2.9,2.7-6.3,2.7-9.7
			V171.4c0-3.4-0.9-6.7-2.7-9.7h2.7c5.3,0,9.7,4.3,9.7,9.7V306.8z"/>
		<path id="Shape_1_" d="M270.5,258.4h-9.7c-2.7,0-4.8,2.2-4.8,4.8c0,2.7,2.2,4.8,4.8,4.8h9.7c2.7,0,4.8-2.2,4.8-4.8
			C275.3,260.6,273.2,258.4,270.5,258.4z"/>
		<path id="Shape_2_" d="M299.5,258.4h-9.7c-2.7,0-4.8,2.2-4.8,4.8c0,2.7,2.2,4.8,4.8,4.8h9.7c2.7,0,4.8-2.2,4.8-4.8
			C304.4,260.6,302.2,258.4,299.5,258.4z"/>
		<path id="Shape_3_" d="M270.5,277.8h-9.7c-2.7,0-4.8,2.2-4.8,4.8c0,2.7,2.2,4.8,4.8,4.8h9.7c2.7,0,4.8-2.2,4.8-4.8
			C275.3,279.9,273.2,277.8,270.5,277.8z"/>
		<path id="Shape_4_" d="M299.5,277.8h-9.7c-2.7,0-4.8,2.2-4.8,4.8c0,2.7,2.2,4.8,4.8,4.8h9.7c2.7,0,4.8-2.2,4.8-4.8
			C304.4,279.9,302.2,277.8,299.5,277.8z"/>
		<path id="Shape_5_" d="M338.2,214.9h-9.7c-2.7,0-4.8,2.2-4.8,4.8c0,2.7,2.2,4.8,4.8,4.8h9.7c2.7,0,4.8-2.2,4.8-4.8
			C343,217.1,340.9,214.9,338.2,214.9z"/>
		<path id="Shape_6_" d="M367.2,214.9h-9.7c-2.7,0-4.8,2.2-4.8,4.8c0,2.7,2.2,4.8,4.8,4.8h9.7c2.7,0,4.8-2.2,4.8-4.8
			C372.1,217.1,369.9,214.9,367.2,214.9z"/>
		<path id="Shape_7_" d="M338.2,234.2h-9.7c-2.7,0-4.8,2.2-4.8,4.8c0,2.7,2.2,4.8,4.8,4.8h9.7c2.7,0,4.8-2.2,4.8-4.8
			C343,236.4,340.9,234.2,338.2,234.2z"/>
		<path id="Shape_8_" d="M367.2,234.2h-9.7c-2.7,0-4.8,2.2-4.8,4.8c0,2.7,2.2,4.8,4.8,4.8h9.7c2.7,0,4.8-2.2,4.8-4.8
			C372.1,236.4,369.9,234.2,367.2,234.2z"/>
		<path id="Shape_9_" d="M338.2,253.6h-9.7c-2.7,0-4.8,2.2-4.8,4.8s2.2,4.8,4.8,4.8h9.7c2.7,0,4.8-2.2,4.8-4.8
			S340.9,253.6,338.2,253.6z"/>
		<path id="Shape_10_" d="M367.2,253.6h-9.7c-2.7,0-4.8,2.2-4.8,4.8s2.2,4.8,4.8,4.8h9.7c2.7,0,4.8-2.2,4.8-4.8
			S369.9,253.6,367.2,253.6z"/>
		<path id="Shape_11_" d="M338.2,272.9h-9.7c-2.7,0-4.8,2.2-4.8,4.8s2.2,4.8,4.8,4.8h9.7c2.7,0,4.8-2.2,4.8-4.8
			S340.9,272.9,338.2,272.9z"/>
		<path id="Shape_12_" d="M367.2,272.9h-9.7c-2.7,0-4.8,2.2-4.8,4.8s2.2,4.8,4.8,4.8h9.7c2.7,0,4.8-2.2,4.8-4.8
			S369.9,272.9,367.2,272.9z"/>
		<path id="Shape_13_" d="M328.5,345.5h9.7c2.7,0,4.8-2.2,4.8-4.8c0-2.7-2.2-4.8-4.8-4.8h-9.7c-2.7,0-4.8,2.2-4.8,4.8
			C323.7,343.3,325.9,345.5,328.5,345.5z"/>
		<path id="Shape_14_" d="M357.5,345.5h9.7c2.7,0,4.8-2.2,4.8-4.8c0-2.7-2.2-4.8-4.8-4.8h-9.7c-2.7,0-4.8,2.2-4.8,4.8
			C352.7,343.3,354.9,345.5,357.5,345.5z"/>
		<path id="Shape_15_" d="M338.2,292.3h-9.7c-2.7,0-4.8,2.2-4.8,4.8s2.2,4.8,4.8,4.8h9.7c2.7,0,4.8-2.2,4.8-4.8
			S340.9,292.3,338.2,292.3z"/>
		<path id="Shape_16_" d="M367.2,292.3h-9.7c-2.7,0-4.8,2.2-4.8,4.8s2.2,4.8,4.8,4.8h9.7c2.7,0,4.8-2.2,4.8-4.8
			S369.9,292.3,367.2,292.3z"/>
		<path id="Shape_17_" d="M270.5,297.1h-9.7c-2.7,0-4.8,2.2-4.8,4.8c0,2.7,2.2,4.8,4.8,4.8h9.7c2.7,0,4.8-2.2,4.8-4.8
			C275.3,299.3,273.2,297.1,270.5,297.1z"/>
		<path id="Shape_18_" d="M299.5,297.1h-9.7c-2.7,0-4.8,2.2-4.8,4.8c0,2.7,2.2,4.8,4.8,4.8h9.7c2.7,0,4.8-2.2,4.8-4.8
			C304.4,299.3,302.2,297.1,299.5,297.1z"/>
		<path id="Shape_19_" d="M260.8,345.5h9.7c2.7,0,4.8-2.2,4.8-4.8c0-2.7-2.2-4.8-4.8-4.8h-9.7c-2.7,0-4.8,2.2-4.8,4.8
			C256,343.3,258.2,345.5,260.8,345.5z"/>
		<path id="Shape_20_" d="M260.8,364.8h9.7c2.7,0,4.8-2.2,4.8-4.8c0-2.7-2.2-4.8-4.8-4.8h-9.7c-2.7,0-4.8,2.2-4.8,4.8
			C256,362.6,258.2,364.8,260.8,364.8z"/>
		<path id="Shape_21_" d="M289.8,345.5h9.7c2.7,0,4.8-2.2,4.8-4.8c0-2.7-2.2-4.8-4.8-4.8h-9.7c-2.7,0-4.8,2.2-4.8,4.8
			C285,343.3,287.2,345.5,289.8,345.5z"/>
		<path id="Shape_22_" d="M434.9,277.8h-9.7c-2.7,0-4.8,2.2-4.8,4.8c0,2.7,2.2,4.8,4.8,4.8h9.7c2.7,0,4.8-2.2,4.8-4.8
			C439.8,279.9,437.6,277.8,434.9,277.8z"/>
		<path id="Shape_23_" d="M405.9,277.8h-9.7c-2.7,0-4.8,2.2-4.8,4.8c0,2.7,2.2,4.8,4.8,4.8h9.7c2.7,0,4.8-2.2,4.8-4.8
			C410.7,279.9,408.6,277.8,405.9,277.8z"/>
		<path id="Shape_24_" d="M434.9,297.1h-9.7c-2.7,0-4.8,2.2-4.8,4.8c0,2.7,2.2,4.8,4.8,4.8h9.7c2.7,0,4.8-2.2,4.8-4.8
			C439.8,299.3,437.6,297.1,434.9,297.1z"/>
		<path id="Shape_25_" d="M405.9,297.1h-9.7c-2.7,0-4.8,2.2-4.8,4.8c0,2.7,2.2,4.8,4.8,4.8h9.7c2.7,0,4.8-2.2,4.8-4.8
			C410.7,299.3,408.6,297.1,405.9,297.1z"/>
		<path id="Shape_26_" d="M425.2,345.5h9.7c2.7,0,4.8-2.2,4.8-4.8c0-2.7-2.2-4.8-4.8-4.8h-9.7c-2.7,0-4.8,2.2-4.8,4.8
			C420.4,343.3,422.6,345.5,425.2,345.5z"/>
		<path id="Shape_27_" d="M425.2,364.8h9.7c2.7,0,4.8-2.2,4.8-4.8c0-2.7-2.2-4.8-4.8-4.8h-9.7c-2.7,0-4.8,2.2-4.8,4.8
			C420.4,362.6,422.6,364.8,425.2,364.8z"/>
		<path id="Shape_28_" d="M396.2,345.5h9.7c2.7,0,4.8-2.2,4.8-4.8c0-2.7-2.2-4.8-4.8-4.8h-9.7c-2.7,0-4.8,2.2-4.8,4.8
			C391.4,343.3,393.6,345.5,396.2,345.5z"/>
		<path id="Shape_29_" d="M294.7,157c0-10.7-8.7-19.3-19.3-19.3c-10.7,0-19.3,8.7-19.3,19.3c0,10.7,8.7,19.3,19.3,19.3
			C286,176.3,294.7,167.7,294.7,157z M265.7,157c0-5.3,4.3-9.7,9.7-9.7c5.3,0,9.7,4.3,9.7,9.7c0,5.3-4.3,9.7-9.7,9.7
			C270,166.6,265.7,162.3,265.7,157z"/>
		<path id="Shape_30_" d="M367.2,142.4h4.8c2.7,0,4.8-2.2,4.8-4.8c0-2.7-2.2-4.8-4.8-4.8h-4.8c-2.7,0-4.8,2.2-4.8,4.8
			C362.4,140.2,364.5,142.4,367.2,142.4z"/>
		<path id="Shape_31_" d="M391.4,142.4h33.8c2.7,0,4.8-2.2,4.8-4.8c0-2.7-2.2-4.8-4.8-4.8h-33.8c-2.7,0-4.8,2.2-4.8,4.8
			C386.6,140.2,388.7,142.4,391.4,142.4z"/>
		<path id="Shape_32_" d="M367.2,161.7h4.8c2.7,0,4.8-2.2,4.8-4.8s-2.2-4.8-4.8-4.8h-4.8c-2.7,0-4.8,2.2-4.8,4.8
			S364.5,161.7,367.2,161.7z"/>
		<path id="Shape_33_" d="M391.4,161.7h33.8c2.7,0,4.8-2.2,4.8-4.8s-2.2-4.8-4.8-4.8h-33.8c-2.7,0-4.8,2.2-4.8,4.8
			S388.7,161.7,391.4,161.7z"/>
	</g>
</g>
</svg>
