<?xml version="1.0" encoding="utf-8"?>
<!-- Generator: Adobe Illustrator 25.0.1, SVG Export Plug-In . SVG Version: 6.00 Build 0)  -->
<svg version="1.1" id="Layer_1" xmlns="http://www.w3.org/2000/svg" xmlns:xlink="http://www.w3.org/1999/xlink" x="0px" y="0px"
	 viewBox="0 0 512 512" style="enable-background:new 0 0 512 512;" xml:space="preserve">
<g id="Outline">
	<g>
		<path d="M456.9,339.8h-66.4v-12.4c24.8-1.9,47.2-15.5,60.4-36.5v30.8c0,3.3,2.7,6,6,6c3.3,0,6-2.7,6-6v-66.4
			c0-0.4-0.1-0.8-0.2-1.1c0.1-1.6,0.2-3.3,0.2-4.9v-12.1c10-0.1,18-8.3,17.9-18.3c-0.1-8.6-6.3-16-14.8-17.6l15.6-35.1
			c3.6-8,5.4-16.7,5.4-25.5c0-23.3-18.9-42.2-42.2-42.2c-3.3,0-6,2.7-6,6c0,3.3,2.7,6,6,6c16.7,0,30.2,13.5,30.2,30.2
			c0,7.1-1.5,14.1-4.4,20.6L452.9,201h-44.4v-6c0-13.3-10.8-24.1-24.1-24.1c-3.3,0-6,2.7-6,6c0,3.3,2.7,6,6,6
			c6.7,0,12.1,5.4,12.1,12.1v48.3c0,6.7-5.4,12.1-12.1,12.1H318c-3.3,0-6-2.7-6-6v-6h54.3c10,0,18.1-8.1,18.1-18.1V213
			c0-10-8.1-18.1-18.1-18.1H312v-6c0-3.3,2.7-6,6-6h42.2c3.3,0,6-2.7,6-6c0-3.3-2.7-6-6-6h-18.1v-12.1h72.4
			c6.7,0,12.1,5.4,12.1,12.1v12.1c0,3.3,2.7,6,6,6c3.3,0,6-2.7,6-6v-12.1c0-13.3-10.8-24.1-24.1-24.1h-78.5
			c-21,0-38.8-15.4-41.8-36.2h126.3c3.3,0,6-2.7,6-6c0-3.3-2.7-6-6-6H287.9c-3.3,0-6,2.7-6,6c0,27.6,20.8,50.9,48.3,54v12.4H318
			c-10,0-18.1,8.1-18.1,18.1v60.4c0,10,8.1,18.1,18.1,18.1h12.1v6c0,7.1,1.4,14,4.1,20.6l0,0.1c7.6,18.3,24.5,31,44.2,33.3v13.8
			c-24.7,5.6-42.2,27.6-42.2,52.9V411l-12-16.5c-4.8-6.6-12.2-11-20.3-12.1l-16.6-33.2c-1-2-3.1-3.3-5.4-3.3h-78.5c-3.3,0-6,2.7-6,6
			c0,16.7,13.5,30.2,30.2,30.2h12.1v6c0,3.3,2.7,6,6,6s6-2.7,6-6v-6h8.3l2.3,4.5c-10.9,7.2-13.9,22-6.6,32.9
			c0.8,1.2,1.7,2.3,2.7,3.3c4.6,4.8,10.9,7.5,17.5,7.5H293l20.1,27.7c2,2.7,5.7,3.3,8.4,1.3s3.3-5.7,1.3-8.4L301,420.7
			c-1.1-1.6-2.9-2.5-4.9-2.5h-20.3c-6.7,0-12.1-5.4-12.1-12.1c0-0.2,0-0.5,0-0.7c0.7-6.6,6.4-11.6,13.1-11.4h22.9
			c5.8,0,11.2,2.8,14.6,7.5l41,56.4c2,2.7,5.7,3.3,8.4,1.3c2.7-2,3.3-5.7,1.3-8.4l-16.9-23.3v-33.5c0-23.3,18.9-42.2,42.2-42.2h66.4
			c13.3,0,24.1,10.8,24.1,24.1v78.5c0,3.3,2.7,6,6,6c3.3,0,6-2.7,6-6V376C493,356,476.8,339.8,456.9,339.8z M372.4,213v12.1
			c0,2.5-1.6,4.8-4,5.6L344.7,207h21.6C369.7,207,372.4,209.7,372.4,213z M327.6,207l24.1,24.1H312V207H327.6z M349.7,297.4
			c13.6-1,26.7-5.4,38-13c2.8-1.8,3.5-5.6,1.7-8.4c-1.8-2.8-5.6-3.5-8.4-1.7c-10.8,7.2-23.5,11.1-36.5,11.2H344
			c-1.2-4-1.8-8.1-1.8-12.2v-6h42.2c13.3,0,24.1-10.8,24.1-24.1V213h54.3c3.3,0,6,2.7,6,6s-2.7,6-6,6h-36.2c-3.3,0-6,2.7-6,6
			s2.7,6,6,6h24.1v12.1c0,36.6-29.7,66.3-66.4,66.4C370.6,315.6,357.6,308.8,349.7,297.4L349.7,297.4z M273.6,382.3l-4.5-9.1
			c-1-2-3.1-3.3-5.4-3.3h-36.2c-7.7,0-14.5-4.8-17.1-12.1h67.7l12.1,24.1h-13.3C275.8,382,274.7,382.1,273.6,382.3z"/>
		<circle cx="239.6" cy="219.1" r="6"/>
		<circle cx="251.7" cy="237.2" r="6"/>
		<circle cx="251.7" cy="201" r="6"/>
		<path d="M228.6,205.5c0.2-1.6-0.2-3.2-1.2-4.5c-10-13.3-28.9-16.1-42.2-6.1c-13.3,10-16.1,28.9-6.1,42.2
			c10,13.3,28.9,16.1,42.2,6.1c2.3-1.7,4.4-3.8,6.1-6.1c2-2.7,1.5-6.4-1.2-8.4l-12.8-9.6l12.8-9.6
			C227.5,208.5,228.4,207.1,228.6,205.5z M199.8,223.9l13.6,10.2c-2.9,2-6.4,3.1-10,3.1c-10,0-18.1-8.1-18.1-18.1
			c0-10,8.1-18.1,18.1-18.1c3.6,0,7,1.1,10,3.1l-13.6,10.2c-2.7,2-3.2,5.8-1.2,8.4C198.9,223.1,199.3,223.6,199.8,223.9L199.8,223.9
			z"/>
		<path d="M420.6,376c-16.7,0-30.2,13.5-30.2,30.2v48.3c0,3.3,2.7,6,6,6c3.3,0,6-2.7,6-6v-48.3c0-10,8.1-18.1,18.1-18.1
			c10,0,18.1,8.1,18.1,18.1v48.3c0,3.3,2.7,6,6,6c3.3,0,6-2.7,6-6v-48.3C450.8,389.5,437.3,376,420.6,376z"/>
		<path d="M244.9,320.9c-2.4,2.4-2.4,6.2,0,8.5c2.4,2.4,6.2,2.4,8.5,0c2.4-2.3,6.1-2.3,8.5,0c2.4,2.4,6.2,2.4,8.5,0s2.4-6.2,0-8.5
			C263.3,314.1,252.1,314.1,244.9,320.9z"/>
		<path d="M283.3,314.2c3.3,0,6-2.7,6-6c0-1.6-0.6-3.1-1.8-4.3c-16.5-16.5-43.2-16.5-59.7,0c-2.3,2.4-2.2,6.2,0.1,8.5
			c2.3,2.3,6,2.3,8.4,0c11.8-11.8,30.9-11.8,42.7,0C280.2,313.5,281.7,314.2,283.3,314.2z"/>
		<path d="M281.8,255.3v-30.2c0-3.3-2.7-6-6-6c-3.3,0-6,2.7-6,6v26.4l-108.6,54.3v-32.5c0-3.3-2.7-6-6-6s-6,2.7-6,6v42.2
			c0,3.3,2.7,6,6,6.1c0.9,0,1.9-0.2,2.7-0.6l120.7-60.4C280.6,259.7,281.8,257.6,281.8,255.3z"/>
		<path d="M155.1,255.3c3.3,0,6-2.7,6-6v-117l108.6,54.3V201c0,3.3,2.7,6,6,6c3.3,0,6-2.7,6-6v-18.1c0-2.3-1.3-4.4-3.3-5.4
			l-120.7-60.4c-3-1.5-6.6-0.3-8.1,2.7c-0.4,0.8-0.6,1.8-0.6,2.7v126.7C149.1,252.6,151.8,255.3,155.1,255.3z"/>
	</g>
</g>
</svg>
