<?xml version="1.0" encoding="utf-8"?>
<!-- Generator: Adobe Illustrator 25.0.1, SVG Export Plug-In . SVG Version: 6.00 Build 0)  -->
<svg version="1.1" id="Capa_1" xmlns="http://www.w3.org/2000/svg" xmlns:xlink="http://www.w3.org/1999/xlink" x="0px" y="0px"
	 viewBox="0 0 512 512" style="enable-background:new 0 0 512 512;" xml:space="preserve">
<g>
	<g>
		<circle cx="311.4" cy="191.7" r="7.9"/>
	</g>
</g>
<g>
	<g>
		<circle cx="311.4" cy="223.3" r="7.9"/>
	</g>
</g>
<g>
	<g>
		<path d="M422.1,152.1H398c-18.8-29.4-51.3-47.5-86.6-47.5c-57,0-103.4,46.2-103.4,102.8c0,3.4,0,28.3,0,31.6
			c0,11.7,5.5,27.2,15.8,35.7v91.9c0,4.4,3.5,7.9,7.9,7.9H343c4.4,0,7.9-3.5,7.9-7.9V342h23.7c13.1,0,23.7-10.6,23.7-23.7v-28.4
			l13.5-13.5c2.4-2.4,3-6.1,1.5-9.1l-2.2-4.4h10.9c4.4,0,7.9-3.5,7.9-7.9V160C430,155.7,426.5,152.1,422.1,152.1z M335.1,123.8
			c16.9,4.8,32.1,14.7,43.4,28.3h-3.8c-11.8,0-22.3,5.2-29.6,13.3c-2.6-3.7-6-6.8-10-9.1V123.8z M366.7,169.3v76.4
			c-9.2-3.3-15.8-12.1-15.8-22.4v-31.6C350.9,181.4,357.5,172.6,366.7,169.3z M303.5,120.8c2.6-0.2,5.2-0.4,7.9-0.4
			c2.7,0,5.3,0.1,7.9,0.4v31.3h-15.8V120.8z M303.5,167.9h15.8c8.7,0,15.8,7.1,15.8,15.8c0,4.8,0,39.7,0,47.5
			c0,8.7-7.1,15.8-15.8,15.8h-15.8c-8.7,0-15.8-7.1-15.8-15.8v-47.5C287.6,175,294.7,167.9,303.5,167.9z M287.6,123.7v32.6
			c-9.4,5.5-15.8,15.7-15.8,27.4h-44.7C235.4,154.8,258.5,131.9,287.6,123.7z M223.8,207.5c0-2.7,0.1-5.3,0.4-7.9h47.6v15.8h-48
			V207.5z M384.9,281c-1.5,1.5-2.3,3.5-2.3,5.6v31.6c0,4.4-3.5,7.9-7.9,7.9h-34.3c-6.4,0-12.3-2.5-16.8-7L285.3,281
			c-3.1-3.1-8.1-3.1-11.2,0s-3.1,8.1,0,11.2l38.2,38.2c6.2,6.2,14.2,10.1,22.8,11.2v17.2h-95.4v-88.1c0-2.8-1.5-5.4-3.9-6.8
			c-6.4-3.7-11.9-15.1-11.9-24.8v-7.9h48c0,17.4,14.2,31.6,31.6,31.6h15.8c10.6,0,20-5.3,25.8-13.3c7.3,8.2,17.8,13.3,29.6,13.3
			h18.8l3.2,6.3L384.9,281z M414.2,247h-31.6v-79.1h31.6V247z"/>
	</g>
</g>
<g>
	<g>
		<path d="M475.7,138.6c-3.1-3.1-8.1-3.1-11.2,0l-15.8,15.8c-3.1,3.1-3.1,8.1,0,11.2c3.1,3.1,8.1,3.1,11.2,0l15.8-15.8
			C478.8,146.7,478.8,141.7,475.7,138.6z"/>
	</g>
</g>
<g>
	<g>
		<path d="M470.1,199.6h-15.8c-4.4,0-7.9,3.5-7.9,7.9s3.5,7.9,7.9,7.9h15.8c4.4,0,7.9-3.5,7.9-7.9S474.5,199.6,470.1,199.6z"/>
	</g>
</g>
<g>
	<g>
		<path d="M475.7,265.2l-15.8-15.8c-3.1-3.1-8.1-3.1-11.2,0c-3.1,3.1-3.1,8.1,0,11.2l15.8,15.8c3.1,3.1,8.1,3.1,11.2,0
			C478.8,273.3,478.8,268.3,475.7,265.2z"/>
	</g>
</g>
</svg>
