<?xml version="1.0" encoding="utf-8"?>
<!-- Generator: Adobe Illustrator 25.0.1, SVG Export Plug-In . SVG Version: 6.00 Build 0)  -->
<svg version="1.1" id="Layer_1" xmlns="http://www.w3.org/2000/svg" xmlns:xlink="http://www.w3.org/1999/xlink" x="0px" y="0px"
	 viewBox="0 0 512 512" style="enable-background:new 0 0 512 512;" xml:space="preserve">
<path d="M328,384h-72c-4.4,0-8-3.6-8-8v-58.7c0-4.4,3.6-8,8-8h72c4.4,0,8,3.6,8,8V376C336,380.4,332.4,384,328,384z M264,368h56
	v-42.7h-56V368z"/>
<path d="M290.7,325.3h-69.3c-4.4,0-8-3.6-8-8v-64c0-4.4,3.6-8,8-8h69.3c4.4,0,8,3.6,8,8v64C298.7,321.8,295.1,325.3,290.7,325.3z
	 M229.3,309.3h53.3v-48h-53.3V309.3z"/>
<path d="M256,384h-72c-4.4,0-8-3.6-8-8v-58.7c0-4.4,3.6-8,8-8h72c4.4,0,8,3.6,8,8V376C264,380.4,260.4,384,256,384z M192,368h56
	v-42.7h-56V368z"/>
<path d="M256,277.3c-4.4,0-8-3.6-8-8v-16c0-4.4,3.6-8,8-8s8,3.6,8,8v16C264,273.7,260.4,277.3,256,277.3z"/>
<path d="M221.3,341.3c-4.4,0-8-3.6-8-8v-16c0-4.4,3.6-8,8-8s8,3.6,8,8v16C229.3,337.8,225.7,341.3,221.3,341.3z"/>
<path d="M290.7,341.3c-4.4,0-8-3.6-8-8v-16c0-4.4,3.6-8,8-8s8,3.6,8,8v16C298.7,337.8,295.1,341.3,290.7,341.3z"/>
<path d="M344,384H168c-10.3,0-18.7-8.4-18.7-18.7V216c0-4.4,3.6-8,8-8h197.3c4.4,0,8,3.6,8,8v149.3C362.7,375.6,354.3,384,344,384z
	 M165.3,224v141.3c0,1.5,1.2,2.7,2.7,2.7h176c1.5,0,2.7-1.2,2.7-2.7V224H165.3z"/>
<path d="M376,224H136c-3.5,0-6.6-2.3-7.7-5.7c-1-3.4,0.3-7,3.2-9l120-80c2.7-1.8,6.2-1.8,8.9,0l120,80c2.9,2,4.2,5.6,3.2,9
	C382.6,221.7,379.5,224,376,224z M162.4,208h187.2L256,145.6L162.4,208z"/>
</svg>
