<svg xmlns="http://www.w3.org/2000/svg" xmlns:xlink="http://www.w3.org/1999/xlink" width="381" height="372" viewBox="0 0 381 372">
  <defs>
    <clipPath id="clip-Banner_image">
      <rect width="381" height="372"/>
    </clipPath>
  </defs>
  <g id="Banner_image" data-name="Banner image" clip-path="url(#clip-Banner_image)">
    <g id="Group_965" data-name="Group 965">
      <g id="Group_964" data-name="Group 964" transform="translate(-23.744 -17.956)">
        <g id="OBJECTS" transform="translate(25.726 38.079)">
          <path id="Path_619" data-name="Path 619" d="M389.831,278.057c-24.836,68.6-48.495,65.052-48.495,65.052l-158.61-.744-93.33-.438s-61.5,23.658-57.956-33.115C32.467,292.4,41,278.162,52.4,264.5q.642-.769,1.3-1.539c9.613-11.294,21.072-22.23,31.716-33.73,20.453-22.088,37.916-46.24,33.558-78.917-9.461-70.971,117.1-112.369,158.5-22.476S414.673,209.451,389.831,278.057Z" transform="translate(-26.53 -43.621)" fill="#e4e4e4"/>
          <ellipse id="Ellipse_34" data-name="Ellipse 34" cx="187.026" cy="22.115" rx="187.026" ry="22.115" transform="translate(4.966 289.06)" fill="#ebebeb"/>
          <g id="Group_912" data-name="Group 912" transform="translate(7.822 185.189)">
            <g id="Group_906" data-name="Group 906" transform="translate(8.564 9.513)">
              <g id="Group_896" data-name="Group 896">
                <g id="Group_895" data-name="Group 895">
                  <rect id="Rectangle_155" data-name="Rectangle 155" width="122.649" height="74.937" rx="3.19" fill="#fff"/>
                  <path id="Rectangle_156" data-name="Rectangle 156" d="M3.19,0H119.46a3.19,3.19,0,0,1,3.19,3.19V7.7a0,0,0,0,1,0,0H0a0,0,0,0,1,0,0V3.19A3.19,3.19,0,0,1,3.19,0Z" fill="#ff4747"/>
                </g>
              </g>
              <g id="Group_898" data-name="Group 898" transform="translate(51.051 25.718)">
                <g id="Group_897" data-name="Group 897" transform="translate(0.032)">
                  <path id="Path_620" data-name="Path 620" d="M104.581,296.123l0,.807.012,13.638a.339.339,0,0,0,.34.339l16.049-.066V297.434a.568.568,0,0,0-.57-.567l-5.527.023-6.3.026-.239-.442-.305-.566a.4.4,0,0,0-.354-.209l-2.7.009A.414.414,0,0,0,104.581,296.123Z" transform="translate(-104.581 -295.698)" fill="#575c60"/>
                </g>
                <path id="Path_621" data-name="Path 621" d="M123.218,299.4H106.176L105,310.931h17.042Z" transform="translate(-104.609 -296.233)" fill="#fff"/>
                <path id="Path_622" data-name="Path 622" d="M105.154,311.795l17.286.07a.457.457,0,0,0,.463-.366l1.692-8.3.393-1.93a.617.617,0,0,0-.6-.707l-.417,0-16.87-.068a.455.455,0,0,0-.462.366l-1.97,9.67-.05.246-.064.318A.619.619,0,0,0,105.154,311.795Z" transform="translate(-104.544 -296.389)" fill="#575c60"/>
                <path id="Path_623" data-name="Path 623" d="M105.11,311.657V297.366" transform="translate(-104.626 -295.939)" fill="none"/>
              </g>
              <g id="Group_900" data-name="Group 900" transform="translate(84.968 25.718)">
                <g id="Group_899" data-name="Group 899" transform="translate(0.032)">
                  <path id="Path_624" data-name="Path 624" d="M144.222,296.123l0,.807.012,13.638a.339.339,0,0,0,.34.339l16.049-.066V297.434a.568.568,0,0,0-.57-.567l-5.527.023-6.3.026-.239-.442-.305-.566a.4.4,0,0,0-.354-.209l-2.7.009A.414.414,0,0,0,144.222,296.123Z" transform="translate(-144.222 -295.698)" fill="#abafb2"/>
                </g>
                <path id="Path_625" data-name="Path 625" d="M162.859,299.4H145.817l-1.181,11.528h17.042Z" transform="translate(-144.25 -296.233)" fill="#fff"/>
                <path id="Path_626" data-name="Path 626" d="M144.8,311.795l17.286.07a.459.459,0,0,0,.464-.366l1.691-8.3.394-1.93a.619.619,0,0,0-.6-.707l-.417,0-16.87-.068a.455.455,0,0,0-.462.366l-1.97,9.67-.05.246-.064.318A.619.619,0,0,0,144.8,311.795Z" transform="translate(-144.185 -296.389)" fill="#abafb2"/>
                <path id="Path_627" data-name="Path 627" d="M144.751,311.657V297.366" transform="translate(-144.267 -295.939)" fill="none"/>
              </g>
              <g id="Group_902" data-name="Group 902" transform="translate(51.051 49.164)">
                <g id="Group_901" data-name="Group 901" transform="translate(0.032)">
                  <path id="Path_628" data-name="Path 628" d="M104.581,323.525l0,.807.012,13.638a.338.338,0,0,0,.34.338l16.049-.065V324.836a.568.568,0,0,0-.57-.567l-5.527.023-6.3.026-.239-.442-.305-.566a.4.4,0,0,0-.354-.209l-2.7.009A.414.414,0,0,0,104.581,323.525Z" transform="translate(-104.581 -323.1)" fill="#abafb2"/>
                </g>
                <path id="Path_629" data-name="Path 629" d="M123.218,326.805H106.176L105,338.333h17.042Z" transform="translate(-104.609 -323.635)" fill="#fff"/>
                <path id="Path_630" data-name="Path 630" d="M105.154,339.2l17.286.069a.456.456,0,0,0,.463-.365l1.692-8.3.393-1.93a.618.618,0,0,0-.6-.708l-.417,0-16.87-.068a.455.455,0,0,0-.462.366l-1.97,9.67-.05.246-.064.318A.619.619,0,0,0,105.154,339.2Z" transform="translate(-104.544 -323.791)" fill="#abafb2"/>
                <path id="Path_631" data-name="Path 631" d="M105.11,339.059V324.768" transform="translate(-104.626 -323.341)" fill="none"/>
              </g>
              <g id="Group_904" data-name="Group 904" transform="translate(84.968 49.164)">
                <g id="Group_903" data-name="Group 903" transform="translate(0.032)">
                  <path id="Path_632" data-name="Path 632" d="M144.222,323.525l0,.807.012,13.638a.338.338,0,0,0,.34.338l16.049-.065V324.836a.568.568,0,0,0-.57-.567l-5.527.023-6.3.026-.239-.442-.305-.566a.4.4,0,0,0-.354-.209l-2.7.009A.414.414,0,0,0,144.222,323.525Z" transform="translate(-144.222 -323.1)" fill="#abafb2"/>
                </g>
                <path id="Path_633" data-name="Path 633" d="M162.859,326.805H145.817l-1.181,11.528h17.042Z" transform="translate(-144.25 -323.635)" fill="#fff"/>
                <path id="Path_634" data-name="Path 634" d="M144.8,339.2l17.286.069a.458.458,0,0,0,.464-.365l1.691-8.3.394-1.93a.619.619,0,0,0-.6-.708l-.417,0-16.87-.068a.455.455,0,0,0-.462.366l-1.97,9.67-.05.246-.064.318A.619.619,0,0,0,144.8,339.2Z" transform="translate(-144.185 -323.791)" fill="#abafb2"/>
                <path id="Path_635" data-name="Path 635" d="M144.751,339.059V324.768" transform="translate(-144.267 -323.341)" fill="none"/>
              </g>
              <g id="Group_905" data-name="Group 905" transform="translate(7.477 15.009)">
                <path id="Path_636" data-name="Path 636" d="M78.674,286.26H55.155a1.54,1.54,0,0,1-1.539-1.539h0a1.54,1.54,0,0,1,1.539-1.539H78.674a1.54,1.54,0,0,1,1.539,1.539h0A1.54,1.54,0,0,1,78.674,286.26Z" transform="translate(-53.616 -283.182)" fill="#575c60"/>
                <path id="Path_637" data-name="Path 637" d="M78.674,299.151H55.155a1.539,1.539,0,0,1-1.539-1.538h0a1.539,1.539,0,0,1,1.539-1.539H78.674a1.539,1.539,0,0,1,1.539,1.539h0A1.539,1.539,0,0,1,78.674,299.151Z" transform="translate(-53.616 -285.043)" fill="#575c60"/>
                <path id="Path_638" data-name="Path 638" d="M78.674,312.042H55.155a1.539,1.539,0,0,1-1.539-1.539h0a1.539,1.539,0,0,1,1.539-1.538H78.674a1.539,1.539,0,0,1,1.539,1.538h0A1.539,1.539,0,0,1,78.674,312.042Z" transform="translate(-53.616 -286.905)" fill="#575c60"/>
                <path id="Path_639" data-name="Path 639" d="M78.674,324.932H55.155a1.54,1.54,0,0,1-1.539-1.539h0a1.54,1.54,0,0,1,1.539-1.539H78.674a1.54,1.54,0,0,1,1.539,1.539h0A1.54,1.54,0,0,1,78.674,324.932Z" transform="translate(-53.616 -288.766)" fill="#575c60"/>
                <path id="Path_640" data-name="Path 640" d="M78.674,337.823H55.155a1.539,1.539,0,0,1-1.539-1.538h0a1.539,1.539,0,0,1,1.539-1.539H78.674a1.539,1.539,0,0,1,1.539,1.539h0A1.539,1.539,0,0,1,78.674,337.823Z" transform="translate(-53.616 -290.627)" fill="#575c60"/>
              </g>
              <path id="Path_641" data-name="Path 641" d="M159.436,286.26H97.791a1.539,1.539,0,0,1-1.539-1.539h0a1.539,1.539,0,0,1,1.539-1.539h61.645a1.54,1.54,0,0,1,1.539,1.539h0A1.54,1.54,0,0,1,159.436,286.26Z" transform="translate(-52.295 -268.173)" fill="#f77"/>
            </g>
            <g id="Group_911" data-name="Group 911">
              <g id="Group_908" data-name="Group 908">
                <g id="Group_907" data-name="Group 907">
                  <path id="Path_642" data-name="Path 642" d="M54.021,261.015l-6.421-6.46-12.649-.034-.082,27.533,19.095.045Z" transform="translate(-34.868 -254.521)" fill="#575c60"/>
                  <path id="Path_643" data-name="Path 643" d="M49.725,261l6.444.018-6.426-6.462Z" transform="translate(-37.013 -254.526)" fill="#707070"/>
                </g>
              </g>
              <g id="Group_910" data-name="Group 910" transform="translate(3.647 8.818)">
                <circle id="Ellipse_35" data-name="Ellipse 35" cx="4.958" cy="4.958" r="4.958" transform="translate(0 9.689) rotate(-77.745)" fill="#abafb2"/>
                <g id="Group_909" data-name="Group 909" transform="translate(3.679 4.426)">
                  <path id="Path_644" data-name="Path 644" d="M44.3,273.459l-.84-1.944a.329.329,0,1,1,.6-.261l.533,1.232,3.792-2.434a.329.329,0,1,1,.355.554Z" transform="translate(-43.43 -270)" fill="#fff"/>
                </g>
              </g>
            </g>
          </g>
          <g id="Group_913" data-name="Group 913" transform="translate(40.422 47.814)">
            <path id="Path_645" data-name="Path 645" d="M104.9,153.831l3.164-2.878.747-2.584a41.109,41.109,0,0,1,14.747-20.4l1.691-1.173-3.165,2.878-1.691,1.173A40.9,40.9,0,0,0,104.9,153.831m71.751-16.271,3.164-2.878.31-17.752-3.165,2.878ZM195.6,113.645c-1.712-1.627-3.25-3.1-5.1-4.6-22.828-18.591-56.1-20.505-79.919-2.876,1.988-1.1,3.779-2.107,5.86-3.068a67.721,67.721,0,0,1,73.489,11.047l2.5,2.379,1.715,1.715,3.164-2.877Z" transform="translate(-77.58 -93.962)" fill="#9b9fa1" fill-rule="evenodd"/>
            <path id="Path_646" data-name="Path 646" d="M181.071,197.484l3.165-2.879a40.756,40.756,0,0,1-14.125,8.146l-.567.185-3.164,2.878a40.681,40.681,0,0,0,14.692-8.33m100.886-63.506,3.165-2.878,2.077-15.831-18.383-4.476-3.165,2.878,18.383,4.476Z" transform="translate(-86.457 -96.392)" fill="#b13131" fill-rule="evenodd"/>
            <path id="Path_647" data-name="Path 647" d="M282.051,113.671l3.165-2.878-.193.153-.192.154-.192.154-.192.155-.191.156-.191.157-.19.157-.19.158-.189.159-.189.16-.188.161-3.165,2.878.188-.161.189-.16.19-.159.19-.158.19-.157.191-.157.191-.156.191-.155.192-.154.193-.153Z" transform="translate(-102.857 -96.392)" fill="#5c93bc" fill-rule="evenodd"/>
            <path id="Path_648" data-name="Path 648" d="M298.149,203.9l-16.026,1.462-3.165,2.878,16.026-1.462a42.626,42.626,0,0,0,6.45,5.051,41.5,41.5,0,0,0,54.822-9.616l.45-.595,3.164-2.878A41,41,0,0,1,333,214.846a41.532,41.532,0,0,1-33.316-9.549Zm81.162,10.848c6.235-5.67,9.508-13.5,11.917-21.465l-15.538,6.142-8.682-16.482-3.164,2.878,8.682,16.482,15.537-6.142-.93,2.916A66.679,66.679,0,0,1,379.311,214.745Z" transform="translate(-102.713 -106.81)" fill="#9b9fa1" fill-rule="evenodd"/>
            <path id="Path_649" data-name="Path 649" d="M390.41,178.762l3.165-2.878.769-4.095A67.274,67.274,0,0,0,292.751,103.85l-2.48,1.591-3.164,2.877a73.93,73.93,0,0,1,7.6-4.414,67.256,67.256,0,0,1,96.124,72.814Z" transform="translate(-103.89 -93.972)" fill="#475257" fill-rule="evenodd"/>
            <path id="Path_650" data-name="Path 650" d="M279.137,194.634l3.164-2.878-26.455-26.432-3.008,3.008Zm-16.584,20.24L265.717,212l.327-18.757-3.164,2.878ZM213.6,123.056,196.653,124.6l-3.164,2.878,16.95-1.547,23.986,23.986,3.021-3.021Z" transform="translate(-90.372 -98.163)" fill="#9b9fa1" fill-rule="evenodd"/>
            <path id="Path_651" data-name="Path 651" d="M165.2,235.1l3.165-2.878,2.6-15.344L148.5,210.512a41.737,41.737,0,0,1-21.268-3.155,41.123,41.123,0,0,1-24.39-42.484l.148-1.169-14.55,5.751L78.984,151.5l-3.165,2.878,9.457,17.953,14.55-5.752c-.132.253-.378,4.095-.4,4.691A41.094,41.094,0,0,0,144.2,213.5l1.135-.112,22.457,6.362Z" transform="translate(-73.381 -102.27)" fill="#475257" fill-rule="evenodd"/>
            <path id="Path_652" data-name="Path 652" d="M111.705,135.428a41.479,41.479,0,0,1,58.394,0l2.625,2.624.309-17.752,17.194-1.569-1.715-1.715a67.527,67.527,0,0,0-95.219,0A66.7,66.7,0,0,0,77.713,141.48l9.608,18.241,13.652-5.4a40.869,40.869,0,0,1,10.732-18.9" transform="translate(-73.655 -94.455)" fill="#475257" fill-rule="evenodd"/>
            <path id="Path_653" data-name="Path 653" d="M111.02,202.125a41.337,41.337,0,0,1-11.605-35.058l-14.55,5.752-9.457-17.953a67.257,67.257,0,0,0,89.377,80.716l2.6-15.344-22.457-6.363a41.3,41.3,0,0,1-33.9-11.751" transform="translate(-72.97 -102.756)" fill="#677278" fill-rule="evenodd"/>
            <path id="Path_654" data-name="Path 654" d="M241.335,194.388l28.127,28.127.326-18.757,16.258-1.483-26.3-26.3Z" transform="translate(-97.28 -105.804)" fill="#475257" fill-rule="evenodd"/>
            <path id="Path_655" data-name="Path 655" d="M234.372,150.406,210.387,126.42l-16.951,1.547-.314,18.013,22.838,22.841Z" transform="translate(-90.319 -98.649)" fill="#475257" fill-rule="evenodd"/>
            <path id="Path_656" data-name="Path 656" d="M303.6,129.176a41.2,41.2,0,0,1,62.3,37.791l9.578,18.182,14.935-5.9a67.278,67.278,0,0,0-103.3-70.443l18.57,4.522Z" transform="translate(-103.89 -94.455)" fill="#677278" fill-rule="evenodd"/>
            <path id="Path_657" data-name="Path 657" d="M352.713,206.664a41.486,41.486,0,0,1-57.784.6L278.9,208.723l-.329,18.878a67.547,67.547,0,0,0,92.551-2.526,66.73,66.73,0,0,0,16.883-28.431l-15.537,6.142L363.789,186.3a40.907,40.907,0,0,1-11.076,20.36" transform="translate(-102.658 -107.296)" fill="#475257" fill-rule="evenodd"/>
            <path id="Path_658" data-name="Path 658" d="M201.315,214.658l29.2-29.2,18.413-18.415,29.2-29.2a41.07,41.07,0,0,1,3.837-3.387l2.077-15.831-18.383-4.476a67.333,67.333,0,0,0-5.945,5.283l-29.2,29.2L212.1,167.051l-29.2,29.2A40.817,40.817,0,0,1,166.379,206.3l18.811,5.33-2.758,16.293a66.766,66.766,0,0,0,18.882-13.264" transform="translate(-86.457 -96.878)" fill="#ff4747" fill-rule="evenodd"/>
          </g>
          <g id="Group_941" data-name="Group 941" transform="translate(95.434 135.695)">
            <ellipse id="Ellipse_36" data-name="Ellipse 36" cx="81.63" cy="9.824" rx="81.63" ry="9.824" transform="translate(0 171.68)" fill="#d9d9d9"/>
            <g id="Group_940" data-name="Group 940" transform="translate(9.569)">
              <g id="Group_926" data-name="Group 926" transform="translate(58.435)">
                <path id="Path_659" data-name="Path 659" d="M238.056,352.358,251.4,364.432l10.853-7.774,6.571,7.774c13.436-3.414,23-7.69,30.773-12.364l-8.488-5.222-28.07-3.115Z" transform="translate(-219.823 -217.909)" fill="#fff"/>
                <path id="Path_660" data-name="Path 660" d="M216.746,292.409l16.335,1.527,4.525-16.765.813,28.509-2.748,30.146c1.4,10.465,60.15,6.687,60.852.8,1.348-11.286-.041-20.455,0-24.069,3.869-.377,13.74-3.386,13.445-11.306-.634-17.062-5.075-51.223-16.6-58.138-5.68-3.265-18.367-6.158-18.367-6.158l-20.669-.139c-5.623.794-14.442,3.012-20.3,10.18a26.773,26.773,0,0,0-4.9,9.828C226.575,265.191,222.776,276.547,216.746,292.409Z" transform="translate(-216.746 -202.471)" fill="#ff4747"/>
                <path id="Path_661" data-name="Path 661" d="M268.235,247.949l-4.743,5.949c-4.586-5.6-4.761-11.782-4.743-16.809l2.035-3.38.41,2.769C262.417,241.368,268.235,247.949,268.235,247.949Z" transform="translate(-222.811 -202.022)" fill="#fff"/>
                <path id="Path_662" data-name="Path 662" d="M302.654,325.343l-33.714,3.533-9.737,5.1,43.87-.973Z" transform="translate(-222.876 -215.253)" fill="#b13131"/>
                <path id="Path_663" data-name="Path 663" d="M251.814,314.706c2.192-.717,3.716,1.487,5.543,1.014s4.784-1.5,5.828-1.014c1.853.867,3.165,10.165,0,11.389s-12.075,1.429-12.075,1.429-4.982-3.287-4.678-3.737S251.814,314.706,251.814,314.706Z" transform="translate(-221.03 -213.697)" fill="#ffbe9d"/>
                <path id="Path_664" data-name="Path 664" d="M272.059,247.6l4.743,5.949c4.586-5.6,4.761-11.781,4.743-16.808l-2.035-3.38-.41,2.769C277.876,241.02,272.059,247.6,272.059,247.6Z" transform="translate(-224.733 -201.972)" fill="#fff"/>
                <path id="Path_665" data-name="Path 665" d="M291.883,266.082v29.751l-25.868,11.872s5.85,15.62,1.064,24.813" transform="translate(-223.86 -206.696)" fill="none" stroke="#b13131" stroke-miterlimit="10" stroke-width="1.535"/>
                <g id="Group_925" data-name="Group 925" transform="translate(32.648)">
                  <g id="Group_914" data-name="Group 914">
                    <path id="Path_666" data-name="Path 666" d="M257.254,207.708s-3.369-3.023-2.04-4.88c9.773-13.649,35.426-3.309,20.871,18.383C270.787,227.1,260.912,209.441,257.254,207.708Z" transform="translate(-254.904 -196.674)" fill="#363435"/>
                  </g>
                  <g id="Group_915" data-name="Group 915" transform="translate(1.844 7.453)">
                    <path id="Path_667" data-name="Path 667" d="M257.47,205.874s-.959,10.841.055,15.273c.943,4.12,3.882,6.442,4.922,6.583l-1.5,8.815s6.46,6.126,8.238,6.464,7.575-7.677,7.575-7.677l-1-15.62c.673-.464,5.459-1.422,4.731-5.062-.487-2.432-3.581-1.841-5.1-.8.094-1.236-1.522-1.912-2.229-5.935S263.817,205.878,257.47,205.874Z" transform="translate(-257.059 -205.386)" fill="#ffbe9d"/>
                  </g>
                  <g id="Group_916" data-name="Group 916" transform="translate(6.727 24.821)">
                    <path id="Path_668" data-name="Path 668" d="M263.271,230.661s8.172,3.143,12.588-4.977c0,0-.994,9.974-13.092,7.768Z" transform="translate(-262.766 -225.684)" fill="#965b2f"/>
                  </g>
                  <g id="Group_917" data-name="Group 917" transform="translate(20.681 17.233)">
                    <path id="Path_669" data-name="Path 669" d="M279.352,218.641a.277.277,0,0,1-.105-.532l3.106-1.272a.276.276,0,0,1,.21.512l-3.106,1.272A.28.28,0,0,1,279.352,218.641Z" transform="translate(-279.076 -216.816)" fill="#754725"/>
                  </g>
                  <g id="Group_918" data-name="Group 918" transform="translate(6.688 14.5)">
                    <path id="Path_670" data-name="Path 670" d="M265.075,219.751c-.775,0-2.225-.113-2.347-.95-.128-.87,1.416-4.332,1.727-5.017a.277.277,0,0,1,.5.228c-.694,1.529-1.764,4.16-1.684,4.708.05.344,1.188.522,2.177.468a.276.276,0,0,1,.031.552C265.4,219.745,265.255,219.751,265.075,219.751Z" transform="translate(-262.72 -213.621)" fill="#754725"/>
                  </g>
                  <g id="Group_919" data-name="Group 919" transform="translate(4.39 14.905)">
                    <path id="Path_671" data-name="Path 671" d="M260.036,214.96a.816.816,0,1,0,.845-.865A.856.856,0,0,0,260.036,214.96Z" transform="translate(-260.035 -214.094)" fill="#363435"/>
                  </g>
                  <g id="Group_920" data-name="Group 920" transform="translate(10.925 11.696)">
                    <path id="Path_672" data-name="Path 672" d="M271.167,211.734a.277.277,0,0,1-.237-.133,1.351,1.351,0,0,0-.871-.664,3.061,3.061,0,0,0-1.962.458.276.276,0,0,1-.3-.465,3.6,3.6,0,0,1,2.385-.53,1.9,1.9,0,0,1,1.218.915.277.277,0,0,1-.093.38A.274.274,0,0,1,271.167,211.734Z" transform="translate(-267.672 -210.344)" fill="#754725"/>
                  </g>
                  <g id="Group_921" data-name="Group 921" transform="translate(3.767 11.414)">
                    <path id="Path_673" data-name="Path 673" d="M261.784,211.108a.272.272,0,0,1-.183-.069h0a1.86,1.86,0,0,0-1.177-.466.87.87,0,0,0-.618.391.277.277,0,1,1-.445-.329,1.412,1.412,0,0,1,1.007-.613,2.4,2.4,0,0,1,1.6.6.276.276,0,0,1-.183.483Z" transform="translate(-259.307 -210.015)" fill="#754725"/>
                  </g>
                  <g id="Group_922" data-name="Group 922" transform="translate(6.015 22.254)">
                    <path id="Path_674" data-name="Path 674" d="M267.988,222.684c-4.08.972-6.054.176-6.054.176s.287,2.735,2.8,2.981C268.339,226.195,267.988,222.684,267.988,222.684Z" transform="translate(-261.934 -222.684)" fill="#703123"/>
                  </g>
                  <g id="Group_923" data-name="Group 923" transform="translate(6.171 22.255)">
                    <path id="Path_675" data-name="Path 675" d="M262.116,222.913s.19.507.248.608.518.4,2.269.507a9.626,9.626,0,0,0,3.341-.471,3.716,3.716,0,0,0,.039-.871c-.238.058-.47.107-.695.151a11.147,11.147,0,0,1-5.2.076Z" transform="translate(-262.116 -222.685)" fill="#fff"/>
                  </g>
                  <g id="Group_924" data-name="Group 924" transform="translate(11.187 15.396)">
                    <path id="Path_676" data-name="Path 676" d="M267.98,215.56a.841.841,0,1,0,.871-.891A.883.883,0,0,0,267.98,215.56Z" transform="translate(-267.979 -214.668)" fill="#363435"/>
                  </g>
                </g>
              </g>
              <g id="Group_929" data-name="Group 929" transform="translate(21.738 78.899)">
                <g id="Group_927" data-name="Group 927">
                  <path id="Path_677" data-name="Path 677" d="M192.217,343.253,174.3,297.193a6.007,6.007,0,0,1,5.439-8.3h55.81a5.89,5.89,0,0,1,5.566,4.086l15.389,46.459,17.972.088c1.46.008,2.64,2.195,2.64,3.69h0l-19.782-.234Z" transform="translate(-173.857 -288.889)" fill="#9ba1a5"/>
                </g>
                <g id="Group_928" data-name="Group 928" transform="translate(30.573 20.034)">
                  <path id="Path_678" data-name="Path 678" d="M223.85,318.715c.327,3.354-2.416,6.046-6.149,6.142-3.773.1-7.365-2.484-8.011-5.9-.675-3.574,2.117-6.621,6.221-6.652C219.968,312.272,223.51,315.209,223.85,318.715Z" transform="translate(-209.589 -312.304)" fill="#fff"/>
                </g>
              </g>
              <g id="Group_939" data-name="Group 939" transform="translate(0 111.456)">
                <path id="Path_679" data-name="Path 679" d="M241.069,388.332l11.294,9.594-12.035,1.7-12.375-6.074Z" transform="translate(-159.93 -335.804)" fill="#153d68"/>
                <g id="Group_936" data-name="Group 936">
                  <g id="Group_932" data-name="Group 932" transform="translate(0.02)">
                    <g id="Group_931" data-name="Group 931">
                      <g id="Group_930" data-name="Group 930">
                        <path id="Path_680" data-name="Path 680" d="M157.068,328.47s-8.559,3.056-8.595,12.654c-.069,18.384,37.144,38.648,37.144,38.648l49.523-32.812,3.1-1.256S171.393,320.591,157.068,328.47Z" transform="translate(-148.473 -326.94)" fill="#263238"/>
                      </g>
                    </g>
                  </g>
                  <path id="Path_681" data-name="Path 681" d="M194.637,391.3s-23.321-4.974-30.765-1.372S145.5,397.713,149.189,400.4s17.3,6.326,25.163,5.615c2.806-.254,6.755-.678,10.681-1.29a5.28,5.28,0,0,0,.621.043.554.554,0,0,0,.424-.21c6.7-1.1,13.033-2.764,13.139-5.062C199.388,395.737,194.637,391.3,194.637,391.3Z" transform="translate(-148.45 -335.846)" fill="#9ba1a5"/>
                  <g id="Group_935" data-name="Group 935" transform="translate(32.475 4.17)">
                    <g id="Group_934" data-name="Group 934">
                      <g id="Group_933" data-name="Group 933">
                        <path id="Path_682" data-name="Path 682" d="M186.406,382.709s69.969-45.895,72.834-46.85,9.789-5.491,16.713-3.582,13.131,8.117,16.235,17.19c1.773,5.183,2.611,14.028,3,20.659a30.646,30.646,0,0,1-7.173,21.853,19.547,19.547,0,0,1-8.724,6.194c-.729.227-1.485.423-2.261.591a32.907,32.907,0,0,1-34.257-14.384l-1.632-2.485s-45.772,16.816-46.488,16.577Z" transform="translate(-186.406 -331.813)" fill="#475257"/>
                      </g>
                    </g>
                  </g>
                </g>
                <g id="Group_938" data-name="Group 938" transform="translate(57.254 52.285)">
                  <g id="Group_937" data-name="Group 937">
                    <path id="Path_683" data-name="Path 683" d="M243.089,393.805s-20.775-7.171-25.943-5.507,3.559,14.025,19.113,15.018,23.566-2.672,22.49-7.5S243.089,393.805,243.089,393.805Z" transform="translate(-215.408 -388.048)" fill="#263238"/>
                    <path id="Path_684" data-name="Path 684" d="M242.8,396.883s-20.775-7.172-25.943-5.508,3.558,14.025,19.113,15.018,23.566-2.672,22.49-7.5S242.8,396.883,242.8,396.883Z" transform="translate(-215.366 -388.492)" fill="#9ba1a5"/>
                  </g>
                </g>
              </g>
            </g>
          </g>
          <g id="Group_945" data-name="Group 945" transform="translate(229.511 170.789)">
            <ellipse id="Ellipse_37" data-name="Ellipse 37" cx="28.598" cy="6.722" rx="28.598" ry="6.722" transform="translate(25.972 128.531)" fill="#d9d9d9"/>
            <g id="Group_944" data-name="Group 944">
              <g id="Group_942" data-name="Group 942">
                <path id="Path_685" data-name="Path 685" d="M381.476,238.174a.657.657,0,0,0-.635-.483c-6.215.1-14.008.118-19.272,3.961-4.905,3.581-5.641,9.9-5.53,15.53a.669.669,0,0,0,1.058.514c.018.008.029.023.048.031A18.094,18.094,0,0,0,381.476,238.174Z" transform="translate(-302.93 -237.691)" fill="#52565a"/>
                <path id="Path_686" data-name="Path 686" d="M347.357,264.684c.05-4.327-.957-8.7-4.279-11.708-3.812-3.444-9.323-5.409-13.827-7.747-.458-.236-1.194.17-.968.744,2.037,5.183,1.751,11.517,5.35,16.02a11.9,11.9,0,0,0,12.824,3.706.613.613,0,0,0,.419-.409A.605.605,0,0,0,347.357,264.684Z" transform="translate(-298.918 -238.77)" fill="#52565a"/>
                <path id="Path_687" data-name="Path 687" d="M392.145,284.112c-3.057-2.37-7-2.128-10.7-1.966a30.794,30.794,0,0,0-11.966,2.582c-6.509,3.1-11.087,9.933-8.731,17.169a.64.64,0,0,0,.437.768c6.207,1.964,9.2-2.181,12.94-6.307a39.442,39.442,0,0,1,17.725-11.145C392.28,285.083,392.56,284.434,392.145,284.112Z" transform="translate(-303.522 -244.096)" fill="#52565a"/>
                <path id="Path_688" data-name="Path 688" d="M409.477,300.737a1.911,1.911,0,0,1-.237-.105c-2.635-1.133-4.993-3.281-7.391-5.348,0-.015-.014-.015-.027-.027-2.622-2.265-5.3-4.413-8.418-4.98a.173.173,0,0,0-.08-.013,9.213,9.213,0,0,0-4.637.382c-6.64,2.214-10.724,9.131-11.383,15.783a.586.586,0,0,0,.1.383c-.012.038-.026.064-.039.1a.72.72,0,0,0,.593.922,51.736,51.736,0,0,0,16.849-1.16c4.94-1.04,10.526-1.882,14.822-4.741A.666.666,0,0,0,409.477,300.737Z" transform="translate(-306.002 -245.262)" fill="#52565a"/>
                <path id="Path_689" data-name="Path 689" d="M399.422,317.125c-7.264-1.455-22.279-5.154-23.3,6.428a.539.539,0,0,0,.488.613c6.6,7.738,19.417,1.6,23.21-6.073A.666.666,0,0,0,399.422,317.125Z" transform="translate(-305.83 -248.911)" fill="#52565a"/>
                <path id="Path_690" data-name="Path 690" d="M347.547,288.452a21.092,21.092,0,0,0-10.811-10.282.665.665,0,0,0-.835.636c.074,8.4-1.988,21.637,7.154,26.285a.659.659,0,0,0,.193.054.641.641,0,0,0,1.112.006C347.183,300.108,350.148,294.207,347.547,288.452Z" transform="translate(-300.002 -243.531)" fill="#52565a"/>
                <path id="Path_691" data-name="Path 691" d="M317.706,295.878a16.07,16.07,0,0,0-16.716-1.8c-7.2,3.658-5.912,12.34-7.01,19.026a.665.665,0,0,0,1.1.642c7.122-6.247,17.054-8.7,22.489-16.879h0A.579.579,0,0,0,317.706,295.878Z" transform="translate(-293.969 -245.607)" fill="#52565a"/>
                <path id="Path_692" data-name="Path 692" d="M320.035,304.095a.642.642,0,0,0-.815-.238.623.623,0,0,0-.822-.182c-3.568,1.958-7.753,4.695-8.456,9.011-.839,5.146,2.053,10.168,2.38,15.237.044.7,1.149.949,1.294.175.915-4.872,5.964-7.092,7.819-11.474C322.963,313.017,322.157,307.338,320.035,304.095Z" transform="translate(-296.254 -247.206)" fill="#52565a"/>
                <path id="Path_693" data-name="Path 693" d="M344.693,336.96c-4.192-5.887-8.5-10.919-15.787-12.764a.666.666,0,0,0-.744.968c1.639,2.466,1.607,5.26,2.979,7.748a10.023,10.023,0,0,0,3.551,3.458c3.1,1.963,7.108,3.743,10.57,1.759A.654.654,0,0,0,344.693,336.96Z" transform="translate(-298.892 -250.179)" fill="#52565a"/>
                <path id="Path_694" data-name="Path 694" d="M356.827,328.5a.623.623,0,0,0-.07-.189c-2.882-4.6-3.009-10.449-6.987-14.408a.667.667,0,0,0-1.035.133c-1.951,3.124-2.894,6.876-1.344,10.378,1.677,3.789,5.207,4.824,9.048,5.221C357.114,329.7,357.235,328.875,356.827,328.5Z" transform="translate(-301.571 -248.668)" fill="#52565a"/>
                <path id="Path_695" data-name="Path 695" d="M366.058,270.842c-.82-.686-1.917-.005-2.728.341a20.838,20.838,0,0,0-4.351,2.391,10.144,10.144,0,0,0-4.359,7.594.66.66,0,0,0-.015.24c0,.091-.016.177-.016.27a.667.667,0,0,0,1.266.259,14.51,14.51,0,0,0,7.8-5.218C364.618,275.587,367.978,272.448,366.058,270.842Z" transform="translate(-302.722 -242.435)" fill="#52565a"/>
                <path id="Path_696" data-name="Path 696" d="M368.645,328.939c-.1-.1-.18-.2-.278-.3.82-5.62,1.17-12.129-4.364-15.433a.665.665,0,0,0-.968.394,16.528,16.528,0,0,0,4.678,16.27C368.33,330.454,369.262,329.524,368.645,328.939Z" transform="translate(-303.864 -248.582)" fill="#52565a"/>
                <path id="Path_697" data-name="Path 697" d="M408.911,300.078a35.2,35.2,0,0,1-7.061-4.795c0-.015-.014-.015-.027-.027-2.675-2.12-5.389-4.2-8.418-4.98a.173.173,0,0,0-.08-.013,9.213,9.213,0,0,0-4.637.382c-6.64,2.214-10.724,9.131-11.383,15.783a.586.586,0,0,0,.1.383c-.012.038-.026.064-.039.1a.716.716,0,0,0,.566-.316.589.589,0,0,0,.356-.184c2.16-2.307,4.465-4.453,6.732-6.653a33.012,33.012,0,0,1,3.4-3.268c2.634-1.884,4.9-1.528,7.667-.726a47.217,47.217,0,0,1,9.328,4.323c1.119.631,2.213,1.7,3.491,1.119a.606.606,0,0,0,.329-.579A.586.586,0,0,0,408.911,300.078Z" transform="translate(-306.002 -245.262)" fill="#52565a"/>
                <path id="Path_698" data-name="Path 698" d="M339.776,322.788c-.628-2.556-1.331-5.144-2.2-7.673.009-.021.024-.036.031-.058A35.983,35.983,0,0,0,339,302.8a.615.615,0,0,0,.511-.441,21.183,21.183,0,0,0,.961-7.428c-.04-.844-1.358-.849-1.318,0a20.181,20.181,0,0,1-.417,5.159,36.586,36.586,0,0,0-1.266-5.817c-.248-.809-1.52-.464-1.271.349a34.384,34.384,0,0,1,.583,18.326,34.824,34.824,0,0,0-4.856-8.8c-4.881-6.247-13.754-10.042-20.779-7.1a.575.575,0,0,0-.467-.539,10.321,10.321,0,0,0-7.862,1.2.658.658,0,0,0,.666,1.135,8.934,8.934,0,0,1,6.348-1.16,13.8,13.8,0,0,0-4.412,4.024c-.5.69.645,1.348,1.137.666,3.367-4.673,9.493-6.144,14.854-4.4a17.391,17.391,0,0,1,4.322,2.136c-5.615-.117-9.871,3.643-13.71,7.383-.608.593.323,1.524.931.931.764-.742,1.541-1.489,2.34-2.2a15,15,0,0,0-.122,4.02c.087.834,1.406.844,1.317,0a14.128,14.128,0,0,1,.377-5.106.65.65,0,0,0,.014-.252c2.715-2.143,5.749-3.706,9.474-3.44a.545.545,0,0,0,.6-.442,26.583,26.583,0,0,1,7.042,8.95c3.389,6.734,5.321,14.433,6.414,22.143a14.167,14.167,0,0,1-7.008-4.218c-.572-.627-1.5.306-.931.931a15.442,15.442,0,0,0,3.226,2.687,14.9,14.9,0,0,1-2.274-.158c-.828-.129-1.187,1.14-.35,1.271a17.4,17.4,0,0,0,3.8.19.636.636,0,0,0,.548-.369,15.62,15.62,0,0,0,3.059,1.048.654.654,0,0,0,.128,0c.482,3.736.773,7.459.944,11.065.04.845,1.358.85,1.318,0A113.525,113.525,0,0,0,339.776,322.788Z" transform="translate(-295.202 -245.794)" fill="#747474"/>
                <path id="Path_699" data-name="Path 699" d="M367.437,288.9a43.515,43.515,0,0,0-3.4,2.739,20.506,20.506,0,0,1,3.042-6.51c.488-.7-.654-1.354-1.138-.666a21.544,21.544,0,0,0-3.5,8.088.648.648,0,0,0,.092.5,42.768,42.768,0,0,0-7.463,9.758q-.539-6.812-.878-13.64c-.156-3.232-.407-6.852-.5-10.579,1.526-2.054,3.137-4.076,5.506-5.188.767-.36.1-1.5-.665-1.138a13.976,13.976,0,0,0-4.872,4.21c-.01-1.748.021-3.506.127-5.253a.656.656,0,0,0,.038-.606c.66-9.3,3.453-18.092,12.361-22.2.77-.356.1-1.49-.665-1.139a19.637,19.637,0,0,0-5.688,3.92,8.823,8.823,0,0,1,.607-3.741c.308-.791-.965-1.134-1.271-.351a9.99,9.99,0,0,0-.53,5.3.451.451,0,0,0,.027.072c-3.792,4.522-5.357,10.563-5.925,16.822l-5.727-6.646a.541.541,0,0,0,.3-.551,9.836,9.836,0,0,0-1.771-5.1c-.483-.687-1.626-.03-1.137.666a8.589,8.589,0,0,1,1.491,3.7q-1.064-1.235-2.128-2.468c-.554-.643-1.482.291-.931.932l9.763,11.328c-.141,2.3-.16,4.618-.127,6.883l-.088.117a.525.525,0,0,0,.1.767c.044,2.218.132,4.383.214,6.421q.631,15.758,2.371,31.434c-2.373-1.31-3.676-3.777-4.858-6.144-.379-.759-1.516-.093-1.138.664,1.357,2.716,2.911,5.555,5.8,6.876a.668.668,0,0,0,.355.051q1.136,10.063,2.7,20.073c.13.834,1.4.48,1.271-.351q-2.572-16.431-3.958-33.012a.57.57,0,0,0,.307-.277A41.49,41.49,0,0,1,368.1,290.036C368.781,289.543,368.124,288.4,367.437,288.9Z" transform="translate(-301.002 -238.986)" fill="#747474"/>
                <path id="Path_700" data-name="Path 700" d="M392.378,296.837a16.17,16.17,0,0,0-7.591,1.752,26.077,26.077,0,0,1,3.163-2.878c.665-.507.009-1.653-.665-1.137a28.311,28.311,0,0,0-5.763,5.905.632.632,0,0,0-.115.261c-4.456,3.5-7.752,8.838-9.8,13.935a60.188,60.188,0,0,0-2.885,9.557,20.175,20.175,0,0,1-1.6-3.983,4.481,4.481,0,0,0-1.706-2.707c-.721-.452-1.384.688-.666,1.137,1.065.667,1.313,2.6,1.7,3.706a11.752,11.752,0,0,0,1.452,3.034.648.648,0,0,0,.512.282c-1.6,7.962-2.038,16.241-2.8,24.216-.081.843,1.237.838,1.318,0,.713-7.425,1.171-15.018,2.517-22.4a.605.605,0,0,0,.275-.176,38.765,38.765,0,0,1,8.209-7.423,9.124,9.124,0,0,0,3.28,1.963c.8.274,1.149-1,.35-1.27a7.612,7.612,0,0,1-2.417-1.361,16.437,16.437,0,0,1,2.747-1.135.659.659,0,0,0-.351-1.271,17.889,17.889,0,0,0-3.582,1.535.683.683,0,0,0-.5.3,34.834,34.834,0,0,0-7.543,6.505c.438-2.074.935-4.133,1.562-6.159a42.662,42.662,0,0,1,6.089-12.458.654.654,0,0,0,.069-.008,25.115,25.115,0,0,1,4.595-1.066c.836-.113.48-1.383-.351-1.271a25.125,25.125,0,0,0-2.9.588c3.439-3.969,7.882-6.757,13.411-6.653A.659.659,0,0,0,392.378,296.837Z" transform="translate(-304.144 -245.886)" fill="#747474"/>
              </g>
              <g id="Group_943" data-name="Group 943" transform="translate(33.229 92.002)">
                <path id="Path_701" data-name="Path 701" d="M376.822,345.219l-1.046,6.528-1.883,11.693L369.8,388.931H339.83l-4.095-25.491-1.882-11.693-1.047-6.528Z" transform="translate(-332.806 -345.219)" fill="#abafb2"/>
                <path id="Path_702" data-name="Path 702" d="M345.317,351.747l-1.046-6.528H332.806l1.047,6.528,1.882,11.693,4.095,25.491h11.465L347.2,363.441Z" transform="translate(-332.806 -345.219)" fill="#a0a2a2"/>
              </g>
            </g>
          </g>
          <g id="Group_957" data-name="Group 957" transform="translate(0 131.041)">
            <path id="Path_703" data-name="Path 703" d="M445.629,350.442h-2.876v-2.886a1.124,1.124,0,0,0-2.249,0v2.886h-2.878a1.115,1.115,0,0,0-1.123,1.116,1.129,1.129,0,0,0,1.123,1.131H440.5v2.873a1.124,1.124,0,1,0,2.249,0v-2.873h2.876a1.131,1.131,0,0,0,1.126-1.131A1.118,1.118,0,0,0,445.629,350.442Z" transform="translate(-85.04 -213.645)" fill="#cfcfcf"/>
            <path id="Path_704" data-name="Path 704" d="M34.852,232.6H31.976v-2.886a1.125,1.125,0,0,0-2.249,0V232.6H26.849a1.115,1.115,0,0,0-1.123,1.116,1.129,1.129,0,0,0,1.123,1.131h2.877v2.873a1.125,1.125,0,1,0,2.249,0v-2.873h2.876a1.131,1.131,0,0,0,1.126-1.131A1.117,1.117,0,0,0,34.852,232.6Z" transform="translate(-25.726 -196.63)" fill="#cfcfcf"/>
            <g id="Group_946" data-name="Group 946" transform="translate(330.274 132.895)">
              <path id="Path_705" data-name="Path 705" d="M411.738,351.58a5.02,5.02,0,1,0,5.021-5.023A5.03,5.03,0,0,0,411.738,351.58Zm1.926,0a3.095,3.095,0,1,1,3.095,3.095A3.1,3.1,0,0,1,413.664,351.58Z" transform="translate(-411.738 -346.557)" fill="#cfcfcf"/>
            </g>
            <g id="Group_947" data-name="Group 947" transform="translate(328.437 51.209)">
              <path id="Path_706" data-name="Path 706" d="M409.591,256.108a5.02,5.02,0,1,0,5.021-5.022A5.029,5.029,0,0,0,409.591,256.108Zm1.926,0a3.095,3.095,0,1,1,3.095,3.095A3.1,3.1,0,0,1,411.517,256.108Z" transform="translate(-409.591 -251.086)" fill="#cfcfcf"/>
            </g>
            <g id="Group_948" data-name="Group 948" transform="translate(15.393 11.598)">
              <path id="Path_707" data-name="Path 707" d="M43.717,209.813a5.02,5.02,0,1,0,5.021-5.023A5.03,5.03,0,0,0,43.717,209.813Zm1.926,0a3.095,3.095,0,1,1,3.095,3.094A3.1,3.1,0,0,1,45.643,209.813Z" transform="translate(-43.717 -204.79)" fill="#cfcfcf"/>
            </g>
            <g id="Group_949" data-name="Group 949" transform="translate(19.568 35.827)">
              <path id="Path_708" data-name="Path 708" d="M49.861,233.108a1.268,1.268,0,0,0-1.265,1.271,1.255,1.255,0,0,0,1.265,1.261H62.518a1.259,1.259,0,0,0,1.268-1.261,1.272,1.272,0,0,0-1.268-1.271Z" transform="translate(-48.596 -233.108)" fill="#cfcfcf"/>
            </g>
            <g id="Group_950" data-name="Group 950" transform="translate(37.649 35.827)">
              <path id="Path_709" data-name="Path 709" d="M71,233.108a1.274,1.274,0,0,0-1.266,1.271A1.26,1.26,0,0,0,71,235.64h2.322a1.255,1.255,0,0,0,1.264-1.261,1.268,1.268,0,0,0-1.264-1.271Z" transform="translate(-69.729 -233.108)" fill="#cfcfcf"/>
            </g>
            <g id="Group_953" data-name="Group 953" transform="translate(328.529 116.382)">
              <g id="Group_951" data-name="Group 951">
                <path id="Path_710" data-name="Path 710" d="M410.964,327.258a1.268,1.268,0,0,0-1.266,1.271,1.255,1.255,0,0,0,1.266,1.261H423.62a1.259,1.259,0,0,0,1.269-1.261,1.272,1.272,0,0,0-1.269-1.271Z" transform="translate(-409.698 -327.258)" fill="#cfcfcf"/>
              </g>
              <g id="Group_952" data-name="Group 952" transform="translate(18.082)">
                <path id="Path_711" data-name="Path 711" d="M432.1,327.258a1.272,1.272,0,0,0-1.265,1.271,1.259,1.259,0,0,0,1.265,1.261h2.323a1.255,1.255,0,0,0,1.264-1.261,1.268,1.268,0,0,0-1.264-1.271Z" transform="translate(-430.832 -327.258)" fill="#cfcfcf"/>
              </g>
            </g>
            <g id="Group_956" data-name="Group 956" transform="translate(90.642)">
              <g id="Group_954" data-name="Group 954" transform="translate(0)">
                <path id="Path_712" data-name="Path 712" d="M132.931,191.235a1.269,1.269,0,0,0-1.266,1.271,1.255,1.255,0,0,0,1.266,1.261h12.656a1.258,1.258,0,0,0,1.268-1.261,1.272,1.272,0,0,0-1.268-1.271Z" transform="translate(-131.665 -191.235)" fill="#cfcfcf"/>
              </g>
              <g id="Group_955" data-name="Group 955" transform="translate(18.082)">
                <path id="Path_713" data-name="Path 713" d="M154.064,191.235a1.274,1.274,0,0,0-1.266,1.271,1.26,1.26,0,0,0,1.266,1.261h2.323a1.254,1.254,0,0,0,1.263-1.261,1.267,1.267,0,0,0-1.263-1.271Z" transform="translate(-152.798 -191.235)" fill="#cfcfcf"/>
              </g>
            </g>
          </g>
          <g id="Group_961" data-name="Group 961" transform="translate(168.875)">
            <g id="Group_958" data-name="Group 958" transform="translate(0.529 33.128)">
              <path id="Path_714" data-name="Path 714" d="M252.1,86.124l.49-1.479-3.432-2.306-2.548,1.647a12.078,12.078,0,0,0-3.655-2.079l.117-3.032L238.811,76.8l-.49,1.479-.636,2.967a12.082,12.082,0,0,0-4.056,1.111l-2.062-2.226-3.3,1.462-.49,1.479,1.648,2.549a12.164,12.164,0,0,0-2.081,3.654l-2.542-1.6-.49,1.48-.6,4.752,2.967.637A12.1,12.1,0,0,0,227.8,98.6l-1.736.582-.491,1.479,2.941,3.786,2.55-1.648a12.13,12.13,0,0,0,3.655,2.081l-.117,3.032,4.752.6.491-1.479.145-1.487a12.135,12.135,0,0,0,4.056-1.112l2.061,2.227,3.787-2.942.49-1.479-2.138-1.069a12.092,12.092,0,0,0,2.08-3.656l3.032.118.49-1.48.107-3.273-2.968-.637a12.141,12.141,0,0,0-1.111-4.056Zm-8.624,13.244a7.566,7.566,0,1,1,1.333-10.615A7.565,7.565,0,0,1,243.478,99.368Z" transform="translate(-223.719 -76.798)" fill="#677278"/>
              <path id="Path_715" data-name="Path 715" d="M252.674,84.645l-2.941-3.785-2.549,1.647a12.07,12.07,0,0,0-3.655-2.08l.118-3.031-4.754-.6-.636,2.967a12.073,12.073,0,0,0-4.056,1.111L232.14,78.65l-3.786,2.942L230,84.14a12.151,12.151,0,0,0-2.08,3.654l-3.033-.117-.6,4.753,2.967.637a12.09,12.09,0,0,0,1.111,4.056l-2.226,2.062,2.941,3.786,2.549-1.648a12.13,12.13,0,0,0,3.655,2.081l-.117,3.031,4.753.6.636-2.966a12.149,12.149,0,0,0,4.056-1.112l2.062,2.227,3.786-2.942-1.648-2.548a12.074,12.074,0,0,0,2.08-3.656l3.032.117.6-4.753-2.968-.636a12.1,12.1,0,0,0-1.111-4.056ZM244.051,97.89a7.566,7.566,0,1,1,1.334-10.616A7.566,7.566,0,0,1,244.051,97.89Z" transform="translate(-223.802 -76.798)" fill="#475257"/>
            </g>
            <g id="Group_959" data-name="Group 959">
              <path id="Path_716" data-name="Path 716" d="M252.583,50.372l.37-1.52-2.491-2.8-2.84,1.1a12.109,12.109,0,0,0-3.17-2.788l.732-2.957-4.551-1.554L239.4,42.644a12.12,12.12,0,0,0-4.213.267L233.618,40.3l-3.951.6-.369,1.52,1.1,2.841a12.208,12.208,0,0,0-2.788,3.169l-2.957-.732-1.184,3.029-.369,1.52,2.787,1.23a12.141,12.141,0,0,0,.268,4.213l-2.239.053-.369,1.52,2.12,4.32,2.841-1.1a12.181,12.181,0,0,0,3.17,2.788l-.732,2.956,4.549,1.554L236.726,67a12.2,12.2,0,0,0,4.213-.268l1.573,2.608,4.32-2.12.37-1.52-1.471-1.32a12.143,12.143,0,0,0,2.788-3.17l2.956.732,1.554-4.55.37-1.52-3.157.292a12.171,12.171,0,0,0-.267-4.212ZM241.411,61.635a7.592,7.592,0,1,1,3.469-10.16A7.591,7.591,0,0,1,241.411,61.635Z" transform="translate(-223.101 -38.336)" fill="#b13131"/>
              <path id="Path_717" data-name="Path 717" d="M253.014,48.6l-2.121-4.319-2.841,1.1a12.106,12.106,0,0,0-3.169-2.788l.732-2.957-4.551-1.554-1.229,2.788a12.119,12.119,0,0,0-4.213.267l-1.574-2.608-4.32,2.121,1.1,2.841a12.19,12.19,0,0,0-2.788,3.169l-2.957-.732-1.554,4.55,2.788,1.23a12.142,12.142,0,0,0,.268,4.213l-2.609,1.573,2.121,4.32,2.841-1.1a12.168,12.168,0,0,0,3.17,2.788l-.732,2.957,4.55,1.553,1.229-2.787a12.2,12.2,0,0,0,4.213-.268l1.573,2.608,4.321-2.12-1.1-2.841a12.125,12.125,0,0,0,2.788-3.17l2.957.732,1.554-4.551-2.788-1.229a12.15,12.15,0,0,0-.266-4.212ZM241.842,59.858a7.592,7.592,0,1,1,3.469-10.16A7.591,7.591,0,0,1,241.842,59.858Z" transform="translate(-223.163 -38.079)" fill="#ff4747"/>
            </g>
            <g id="Group_960" data-name="Group 960" transform="translate(29.21 12.022)">
              <path id="Path_718" data-name="Path 718" d="M288.719,59.626l.594-1.792-5.247-1.683L281.619,58.9a14.638,14.638,0,0,0-4.939-1.253l-.838-3.58-5.15-.96L270.1,54.9l.213,3.671a14.64,14.64,0,0,0-4.38,2.6L262.8,59.233l-2.881,2.862-.595,1.792,2.745,2.446a14.761,14.761,0,0,0-1.253,4.938l-2.985-.953-.594,1.793.832,5.743,3.671-.211a14.664,14.664,0,0,0,2.6,4.38L263,83.354l-.594,1.792,4.654,3.475,2.446-2.745a14.7,14.7,0,0,0,4.94,1.253l.838,3.579,5.743-.833.594-1.792-.806-1.878a14.729,14.729,0,0,0,4.38-2.6l3.125,1.937,3.476-4.655.594-1.792-3.339-.653a14.638,14.638,0,0,0,1.253-4.939l3.579-.839.595-1.792-1.426-3.951-3.671.213a14.652,14.652,0,0,0-2.6-4.38Zm-5.812,18.243a9.164,9.164,0,1,1-1.858-12.825A9.164,9.164,0,0,1,282.907,77.869Z" transform="translate(-257.241 -52.27)" fill="#475257"/>
              <path id="Path_719" data-name="Path 719" d="M289.413,57.693l-4.654-3.475-2.446,2.745a14.633,14.633,0,0,0-4.939-1.253l-.839-3.58-5.745.833L271,56.633a14.645,14.645,0,0,0-4.381,2.6L263.5,57.3l-3.475,4.655,2.745,2.446a14.741,14.741,0,0,0-1.254,4.938l-3.58.839.833,5.743,3.671-.211a14.647,14.647,0,0,0,2.6,4.38L263.1,83.213l4.654,3.476,2.447-2.746a14.7,14.7,0,0,0,4.939,1.253l.838,3.579,5.743-.832-.211-3.671a14.714,14.714,0,0,0,4.38-2.6l3.125,1.938,3.475-4.654-2.744-2.445A14.684,14.684,0,0,0,291,71.569l3.579-.839-.832-5.743-3.671.212a14.7,14.7,0,0,0-2.6-4.38ZM283.6,75.936a9.163,9.163,0,1,1-1.858-12.825A9.163,9.163,0,0,1,283.6,75.936Z" transform="translate(-257.341 -52.13)" fill="#677278"/>
            </g>
          </g>
          <g id="Group_963" data-name="Group 963" transform="translate(50.959 30.644)">
            <g id="Group_962" data-name="Group 962">
              <path id="Rectangle_157" data-name="Rectangle 157" d="M3.259,0H62.572a3.256,3.256,0,0,1,3.256,3.256V31.512a3.258,3.258,0,0,1-3.258,3.258H3.257A3.257,3.257,0,0,1,0,31.513V3.259A3.259,3.259,0,0,1,3.259,0Z" fill="#677278"/>
              <path id="Path_720" data-name="Path 720" d="M85.285,83.484v28.641a2.788,2.788,0,0,0,2.786,2.788h60.255a2.788,2.788,0,0,0,2.786-2.788V83.484Z" transform="translate(-85.285 -75.28)" fill="#fff"/>
            </g>
            <path id="Path_721" data-name="Path 721" d="M96.453,78.508a2.138,2.138,0,1,1-2.137-2.138A2.137,2.137,0,0,1,96.453,78.508Z" transform="translate(-86.28 -74.252)" fill="#9b9fa1"/>
            <path id="Path_722" data-name="Path 722" d="M105.967,78.508a2.138,2.138,0,1,1-2.137-2.138A2.137,2.137,0,0,1,105.967,78.508Z" transform="translate(-87.654 -74.252)" fill="#9b9fa1"/>
          </g>
        </g>
        <g id="TEXTS" transform="translate(92.861 77.578)">
          <text id="_..._" data-name="{...}" transform="translate(0 20)" fill="#9b9fa1" font-size="21" font-family="Montserrat-Bold, Montserrat" font-weight="700"><tspan x="0" y="0">{...}</tspan></text>
        </g>
      </g>
    </g>
  </g>
</svg>
