<?xml version="1.0" encoding="utf-8"?>
<!-- Generator: Adobe Illustrator 24.1.0, SVG Export Plug-In . SVG Version: 6.00 Build 0)  -->
<svg version="1.1" id="Layer_1" xmlns="http://www.w3.org/2000/svg" xmlns:xlink="http://www.w3.org/1999/xlink" x="0px" y="0px"
	 viewBox="0 0 100 100" style="enable-background:new 0 0 100 100;" xml:space="preserve">
<style type="text/css">
	.st0{fill:#FFE6E6;}
	.st1{fill:#FEFAF9;}
	.st2{fill:#FD5353;}
	.st3{fill:#81CBEE;}
	.st4{fill:#8514FD;}
</style>
<path class="st0" d="M84.7,100H15.3C6.9,100,0,93.1,0,84.7V15.3C0,6.9,6.9,0,15.3,0h69.3C93.1,0,100,6.9,100,15.3v69.3
	C100,93.1,93.1,100,84.7,100z"/>
<g>
	<path class="st1" d="M70,63.8c-1.9-5.7-6.5-9.2-12.4-9.2c-12.7,0-25.4,0-38,0c-1.1,0-1.4,0.4-1.4,1.4c0,7.9,0,15.7,0,23.6
		c0,1.2,0.3,1.5,1.5,1.5c12.7,0,25.5,0,38.2,0c5.6,0,10.8-4.2,12.2-9.6c0.3-0.1,0.7-0.2,1-0.3c11.1-2.1,18.5-13,16.3-24.1
		c-1.8-8.6-8.1-14.6-17.2-16.3c-1.6-5.9-6.6-9.7-12.7-9.7c-12.5,0-25.1,0-37.6,0c-1.3,0-1.5,0.4-1.5,1.6c0.1,7.7,0.1,15.4,0,23.1
		c0,1.3,0.3,1.8,1.7,1.7c12.3-0.1,24.6,0,36.8,0c6.5,0,10.9-3.1,13.2-9.2c5.9,1,10.5,6.4,10.5,12.7C80.6,57.2,76.2,62.7,70,63.8z"/>
	<path class="st2" d="M70,38.2c-2.3,6.1-6.7,9.2-13.2,9.2c-12.3,0-24.6,0-36.8,0c-1.4,0-1.7-0.4-1.7-1.7c0.1-7.7,0.1-15.4,0-23.1
		c0-1.2,0.2-1.6,1.5-1.6c12.5,0.1,25.1,0,37.6,0c6.1,0,11.1,3.9,12.7,9.7c-4.4-0.4-8.7-0.1-13.1-0.2c-2.1,0-3.6,1.5-3.6,3.6
		c0,2.1,1.4,3.6,3.6,3.6c3.2,0,6.3,0,9.5,0C67.8,37.8,68.9,37.8,70,38.2z"/>
	<path class="st3" d="M70.1,71.4c-1.4,5.5-6.6,9.6-12.2,9.6c-12.7,0-25.5,0-38.2,0c-1.2,0-1.5-0.3-1.5-1.5c0.1-7.9,0-15.7,0-23.6
		c0-1.1,0.3-1.5,1.4-1.4c12.7,0,25.4,0,38,0c5.8,0,10.4,3.6,12.4,9.2c-1.3,0.3-2.5,0.4-3.8,0.4c-3,0-6.1,0-9.1,0
		c-2.3,0-3.7,1.4-3.6,3.6c0,2.1,1.5,3.6,3.7,3.6C61.5,71.4,65.8,71.4,70.1,71.4z"/>
	<path class="st4" d="M70.1,71.4c-4.3,0-8.6,0.1-13,0.1c-2.2,0-3.7-1.5-3.7-3.6c0-2.2,1.4-3.6,3.6-3.6c3,0,6.1,0,9.1,0
		c1.3,0,2.6-0.1,3.8-0.4c6.1-1.1,10.6-6.6,10.5-13c-0.1-6.2-4.6-11.7-10.5-12.7c-1.1-0.3-2.2-0.4-3.4-0.4c-3.2,0-6.3,0-9.5,0
		c-2.2,0-3.7-1.5-3.6-3.6c0-2,1.5-3.6,3.6-3.6c4.4,0,8.7-0.2,13.1,0.2c9.2,1.8,15.5,7.7,17.2,16.3c2.3,11-5.1,22-16.3,24.1
		C70.8,71.2,70.4,71.3,70.1,71.4z"/>
</g>
</svg>
