<svg id="Layer_1" data-name="Layer 1" xmlns="http://www.w3.org/2000/svg" viewBox="0 0 40 40"><defs><style>.cls-1{fill:#b70000;stroke:#fff;stroke-miterlimit:10;stroke-width:0.35px;}</style></defs><path class="cls-1" d="M22,35.83a.57.57,0,0,0,0-1.13H18a.57.57,0,0,0,0,1.13Z"/><path class="cls-1" d="M29.89,24.7v0Z"/><path class="cls-1" d="M29.89,15.3v0Z"/><path class="cls-1" d="M11.24,9.63V3.57a.51.51,0,0,1,.5-.53h3.1l.41.84A2.18,2.18,0,0,0,17.13,5.3h5.74a2.18,2.18,0,0,0,1.88-1.42L25.16,3h3.1a.51.51,0,0,1,.5.53V9.63a2.76,2.76,0,0,1,.37.31l.76.76V3.57a1.64,1.64,0,0,0-1.63-1.66H11.74a1.64,1.64,0,0,0-1.63,1.66V10.7l.76-.76A2.76,2.76,0,0,1,11.24,9.63ZM23.9,3l-.17.34c-.14.29-.45.79-.86.79H17.13c-.41,0-.72-.5-.86-.79L16.1,3Z"/><path class="cls-1" d="M10.11,15.31v0Z"/><path class="cls-1" d="M28.76,30.37v6.06a.51.51,0,0,1-.5.53H11.74a.51.51,0,0,1-.5-.53V30.37a3.47,3.47,0,0,1-.37-.3l-.76-.77v7.13a1.64,1.64,0,0,0,1.63,1.66H28.26a1.64,1.64,0,0,0,1.63-1.66V29.3l-.76.76A3.57,3.57,0,0,1,28.76,30.37Z"/><path class="cls-1" d="M10.11,24.7v0Z"/><path class="cls-1" d="M30.7,17.46H29.46a9.32,9.32,0,0,0-1-2.35l.87-.88a1.6,1.6,0,0,0,.48-1.29,2,2,0,0,0-.58-1.27l-.93-.93a2,2,0,0,0-1.27-.58,1.63,1.63,0,0,0-1.29.47l-.88.88a9.32,9.32,0,0,0-2.35-1V9.3a1.81,1.81,0,0,0-1.88-1.74H19.34A1.81,1.81,0,0,0,17.46,9.3v1.24a9.32,9.32,0,0,0-2.35,1l-.88-.88a1.82,1.82,0,0,0-2.56.11l-.93.93a1.82,1.82,0,0,0-.11,2.56l.88.88a9.32,9.32,0,0,0-1,2.35H9.3a1.81,1.81,0,0,0-1.74,1.88v1.32A1.83,1.83,0,0,0,9.3,22.55h1.24a9.4,9.4,0,0,0,1,2.34l-.88.88a1.82,1.82,0,0,0,.11,2.56l.93.93a1.82,1.82,0,0,0,2.56.11l.88-.88a9.7,9.7,0,0,0,2.35,1V30.7a1.81,1.81,0,0,0,1.88,1.74h1.32a1.81,1.81,0,0,0,1.88-1.74V29.46a9.47,9.47,0,0,0,2.35-1l.88.88a1.82,1.82,0,0,0,2.56-.11l.93-.93A2,2,0,0,0,29.85,27a1.67,1.67,0,0,0-.48-1.18l-.88-.88a9.4,9.4,0,0,0,1-2.34H30.7a1.83,1.83,0,0,0,1.74-1.89V19.34A1.81,1.81,0,0,0,30.7,17.46Zm.61,3.2a.7.7,0,0,1-.61.75H29a.56.56,0,0,0-.55.45,8.68,8.68,0,0,1-1.17,2.81.57.57,0,0,0,.08.71l1.19,1.19a.71.71,0,0,1-.11,1l-.93.93a.7.7,0,0,1-1,.11l-1.19-1.19a.57.57,0,0,0-.71-.08,8.68,8.68,0,0,1-2.81,1.17.56.56,0,0,0-.45.55V30.7a.69.69,0,0,1-.75.61H19.34a.7.7,0,0,1-.75-.61V29a.56.56,0,0,0-.45-.55,8.68,8.68,0,0,1-2.81-1.17.57.57,0,0,0-.71.08l-1.19,1.19a.69.69,0,0,1-1-.11l-.93-.93a.69.69,0,0,1-.11-1l1.19-1.19a.57.57,0,0,0,.08-.71,8.68,8.68,0,0,1-1.17-2.81.56.56,0,0,0-.55-.45H9.3a.7.7,0,0,1-.61-.75V19.34a.7.7,0,0,1,.61-.75H11a.56.56,0,0,0,.55-.45,8.68,8.68,0,0,1,1.17-2.81.57.57,0,0,0-.08-.71l-1.19-1.18a.71.71,0,0,1,.11-1l.93-.93a.69.69,0,0,1,1-.11l1.19,1.19a.57.57,0,0,0,.71.08,8.68,8.68,0,0,1,2.81-1.17.56.56,0,0,0,.45-.55V9.3a.7.7,0,0,1,.75-.61h1.32a.69.69,0,0,1,.75.61V11a.56.56,0,0,0,.45.55,8.68,8.68,0,0,1,2.81,1.17.57.57,0,0,0,.71-.08l1.19-1.19a.72.72,0,0,1,1,.11l.93.93a.71.71,0,0,1,.11,1l-1.19,1.19a.57.57,0,0,0-.08.71,8.68,8.68,0,0,1,1.17,2.81.56.56,0,0,0,.55.45H30.7a.7.7,0,0,1,.61.75Z"/><path class="cls-1" d="M20,14.06A5.94,5.94,0,1,0,25.94,20h0A6,6,0,0,0,20,14.06Zm0,10.75A4.81,4.81,0,1,1,24.81,20,4.82,4.82,0,0,1,20,24.81Z"/></svg>