<svg id="Layer_1" data-name="Layer 1" xmlns="http://www.w3.org/2000/svg" viewBox="0 0 40 40"><defs><style>.cls-1{fill:#b70000;stroke:#fff;stroke-miterlimit:10;stroke-width:0.35px;}</style></defs><path class="cls-1" d="M31.62,3.55H8.38A2.67,2.67,0,0,0,5.72,6.21v19.6a.53.53,0,0,0,.53.53h4.44a.53.53,0,1,0,0-1.06H6.78V7.89H33.22V25.28h-4a.53.53,0,0,0,0,1.06h4.58a.53.53,0,0,0,.53-.53V6.21A2.67,2.67,0,0,0,31.62,3.55ZM6.78,6.21a1.6,1.6,0,0,1,1.6-1.6H31.61a1.61,1.61,0,0,1,1.61,1.6v.62H6.78Zm22.91-.74a.43.43,0,0,1,0,.11.52.52,0,0,1-.16.37L29.47,6l-.09.05-.1,0h-.21l-.1,0L28.88,6A.27.27,0,0,1,28.8,6a.52.52,0,0,1-.16-.37.41.41,0,0,1,0-.11l0-.1.05-.09a.27.27,0,0,1,.07-.08.24.24,0,0,1,.08-.06.2.2,0,0,1,.09,0,.19.19,0,0,1,.1,0,.37.37,0,0,1,.21,0l.1,0a.2.2,0,0,1,.09,0s.05,0,.08.06a.24.24,0,0,1,.06.08.41.41,0,0,1,.05.09.22.22,0,0,1,0,.1Zm1.18-.27a.55.55,0,0,1,.16.38s0,.07,0,.1l0,.1a.41.41,0,0,1,0,.09.8.8,0,0,1-.15.15l-.09.05-.1,0h-.2l-.1,0L30.2,6,30.12,6l-.06-.08a.41.41,0,0,1,0-.09.38.38,0,0,1,0-.1.34.34,0,0,1,0-.1.54.54,0,0,1,.15-.38l.08-.06.1,0a.17.17,0,0,1,.1,0A.51.51,0,0,1,30.87,5.2Zm1.33,0a.52.52,0,0,1,.16.37A.53.53,0,0,1,32.2,6s-.05,0-.08.06l-.09,0-.1,0h-.11a.53.53,0,0,1-.37-.91.56.56,0,0,1,.48-.15l.1,0,.09,0ZM18.39,30.82a.53.53,0,0,1-.53-.53v-.35a.53.53,0,0,1,.53-.54h0a.54.54,0,0,1,.53.54v.35a.53.53,0,0,1-.53.53Zm2.78-.53v-.35a.54.54,0,0,1,.53-.54.53.53,0,0,1,.53.54v.35a.53.53,0,0,1-.53.53A.53.53,0,0,1,21.17,30.29Zm-1.65-.68v-.36a.53.53,0,0,1,.53-.53.53.53,0,0,1,.53.53v.36a.53.53,0,0,1-.53.53h0A.53.53,0,0,1,19.52,29.61Zm0,1.77a.53.53,0,0,1,.53-.54h0a.54.54,0,0,1,.53.54v.35a.53.53,0,0,1-.53.53h0a.53.53,0,0,1-.53-.53Zm-1.13,1H18a.53.53,0,0,1-.53-.53h0A.53.53,0,0,1,18,31.3h.35a.54.54,0,0,1,0,1.07Zm4.2-.53h0a.53.53,0,0,1-.53.53h-.35a.54.54,0,1,1,0-1.07h.35A.54.54,0,0,1,22.59,31.84Zm-2.54,1h0a1.74,1.74,0,0,0-.35,3.45.5.5,0,0,0,.35.14.52.52,0,0,0,.36-.14,1.74,1.74,0,0,0-.35-3.45Zm.33,2.34a.63.63,0,0,1-.33.09h0a.63.63,0,0,1-.33-.09.68.68,0,0,1-.36-.59.7.7,0,0,1,.69-.69h0a.64.64,0,0,1,.46.19.69.69,0,0,1,.22.5.68.68,0,0,1-.36.59Zm4.68-5.11a1.74,1.74,0,0,0-1.73,1.58.43.43,0,0,0,0,.17h0a.41.41,0,0,0,0,.16,1.74,1.74,0,0,0,3.47-.16,1.75,1.75,0,0,0-1.74-1.75Zm0,2.43a.72.72,0,0,1-.55-.27.75.75,0,0,1-.14-.41h0a.75.75,0,0,1,.14-.42.72.72,0,0,1,.55-.27.69.69,0,0,1,0,1.37ZM15,30.09a1.75,1.75,0,1,0,1.71,2.1.5.5,0,0,0,.14-.35h0a.51.51,0,0,0-.14-.36A1.76,1.76,0,0,0,15,30.09Zm.69,1.75a.66.66,0,0,1-.11.36.68.68,0,0,1-1.26-.36.69.69,0,0,1,.68-.69.68.68,0,0,1,.58.32.66.66,0,0,1,.11.36h0ZM28.1,23.21,27.92,23,27,22.14a7.83,7.83,0,0,0,.47-1.25h1.56a.54.54,0,0,0,.54-.53V16.64a.54.54,0,0,0-.54-.53H27.27a7.83,7.83,0,0,0-.47-1l1.3-1.31a.53.53,0,0,0,0-.75L25.47,10.4a.54.54,0,0,0-.75,0l-1.41,1.42a6.76,6.76,0,0,0-.92-.36v-2a.53.53,0,0,0-.53-.53H18.14a.53.53,0,0,0-.53.53v2a6.63,6.63,0,0,0-.91.36L15.28,10.4a.54.54,0,0,0-.75,0L11.9,13a.54.54,0,0,0,0,.75l1.31,1.31a6.76,6.76,0,0,0-.48,1H10.94a.53.53,0,0,0-.53.53v3.72a.53.53,0,0,0,.53.53h1.57A6.94,6.94,0,0,0,13,22.14l-.89.89-.18.18a.56.56,0,0,0-.15.35v0a.56.56,0,0,0,.15.37l.14.13,1.71,1.72.78.78a.53.53,0,0,0,.75,0l.79-.78.18-.18.35.18a7.36,7.36,0,0,0,1,.41v1.33a.53.53,0,0,0,.25.45v.16a.52.52,0,0,0,.53.53h0a.53.53,0,0,0,.53-.53v-.08h2.25v.08a.53.53,0,0,0,.53.53.52.52,0,0,0,.53-.53v-.23a.53.53,0,0,0,.16-.38V26.22a7.24,7.24,0,0,0,1-.41l.36-.18.18.18.78.78a.53.53,0,0,0,.75,0l.79-.78L28,24.09l.13-.13a.52.52,0,0,0,.16-.37v0a.56.56,0,0,0-.15-.35ZM27,23.59l-.51.5L25.1,25.47l-.88-.88a.55.55,0,0,0-.66-.08,6.45,6.45,0,0,1-1.58.72l-.25.08a.52.52,0,0,0-.39.5h0V27H18.68v-1.2h0a.54.54,0,0,0-.39-.5l-.19-.06a6.27,6.27,0,0,1-1.65-.74.53.53,0,0,0-.65.08l-.88.88-1.37-1.38-.51-.5,0,0L13.6,23l.4-.4a.53.53,0,0,0,.09-.63,7.2,7.2,0,0,1-.64-1.75.52.52,0,0,0-.52-.42H11.48V17.17h1.63a.54.54,0,0,0,.51-.37,6.75,6.75,0,0,1,.71-1.52.53.53,0,0,0-.07-.65L13,13.41l1.88-1.88,1.3,1.31a.55.55,0,0,0,.63.09,6.53,6.53,0,0,1,1.44-.56.53.53,0,0,0,.39-.51V10h2.66v1.89a.52.52,0,0,0,.4.51,6.65,6.65,0,0,1,1.43.56.55.55,0,0,0,.63-.09l1.31-1.31L27,13.41l-1.21,1.22a.52.52,0,0,0-.08.65,6.34,6.34,0,0,1,.71,1.52.54.54,0,0,0,.51.37h1.63v2.66H27.09a.53.53,0,0,0-.52.42A6.81,6.81,0,0,1,25.93,22a.55.55,0,0,0,.09.63l.41.4.53.53,0,0Zm-7-8.38a3.63,3.63,0,1,0,3.63,3.63A3.63,3.63,0,0,0,20,15.21Zm0,6.2a2.57,2.57,0,1,1,2.57-2.57A2.58,2.58,0,0,1,20,21.41Z"/></svg>