<svg id="Layer_1" data-name="Layer 1" xmlns="http://www.w3.org/2000/svg" viewBox="0 0 40 40"><defs><style>.cls-1{fill:#b70000;stroke:#fff;stroke-miterlimit:10;stroke-width:0.35px;}</style></defs><path class="cls-1" d="M31.3,10.48H27.73V4.53a2.38,2.38,0,0,0-2.38-2.38H8.7A2.38,2.38,0,0,0,6.32,4.53V35.47A2.38,2.38,0,0,0,8.7,37.85H25.35a2.38,2.38,0,0,0,2.38-2.38V30.71H31.3a2.38,2.38,0,0,0,2.38-2.38V12.86A2.38,2.38,0,0,0,31.3,10.48ZM20,3.34v.6a.59.59,0,0,1-.59.59H14.65a.59.59,0,0,1-.6-.59v-.6Zm6.54,32.13a1.19,1.19,0,0,1-1.19,1.19H8.7a1.19,1.19,0,0,1-1.19-1.19V4.53A1.19,1.19,0,0,1,8.7,3.34h4.16v.6a1.79,1.79,0,0,0,1.79,1.78h4.76a1.78,1.78,0,0,0,1.78-1.78v-.6h4.16a1.19,1.19,0,0,1,1.19,1.19v6H11.08A2.38,2.38,0,0,0,8.7,12.86V28.33a2.38,2.38,0,0,0,2.38,2.38H26.54Zm6-7.14a1.19,1.19,0,0,1-1.19,1.19H11.08a1.19,1.19,0,0,1-1.19-1.19V12.86a1.19,1.19,0,0,1,1.19-1.19H31.3a1.19,1.19,0,0,1,1.19,1.19Z"/><path class="cls-1" d="M17.2,21A.6.6,0,0,0,18,21a.6.6,0,0,0,0-.83l-2.55-2.55L18,15.07a.59.59,0,0,0,0-.84.57.57,0,0,0-.82,0l-3,3a.58.58,0,0,0,0,.84h0Z"/><path class="cls-1" d="M25.18,14.23a.6.6,0,0,0-.84,0,.6.6,0,0,0,0,.83l2.55,2.55-2.55,2.55a.59.59,0,1,0,.83.85h0l3-3a.58.58,0,0,0,0-.84h0Z"/><path class="cls-1" d="M23.21,12.91a.59.59,0,0,0-.78.31h0l-3.57,8.33A.59.59,0,0,0,20,22l3.57-8.33a.59.59,0,0,0-.31-.78Z"/><path class="cls-1" d="M19.41,24.16H12.27a.6.6,0,0,0-.6.6.59.59,0,0,0,.6.59h7.14a.58.58,0,0,0,.58-.6A.6.6,0,0,0,19.41,24.16Z"/><path class="cls-1" d="M17,26.54H12.27a.61.61,0,0,0-.59.61.58.58,0,0,0,.59.58H17a.58.58,0,0,0,.58-.6A.6.6,0,0,0,17,26.54Z"/><path class="cls-1" d="M14.65,35.47h4.76a.6.6,0,0,0,.58-.61.58.58,0,0,0-.58-.58H14.65a.59.59,0,0,0-.59.6A.6.6,0,0,0,14.65,35.47Z"/></svg>