<svg id="Layer_1" data-name="Layer 1" xmlns="http://www.w3.org/2000/svg" viewBox="0 0 40 40"><defs><style>.cls-1{fill:#b70000;stroke:#fff;stroke-miterlimit:10;stroke-width:0.35px;fill-rule:evenodd;}</style></defs><path class="cls-1" d="M19.34,27a1.14,1.14,0,0,1-1.14-1.08L18,24.36l-.09,0-1.28.95a1.15,1.15,0,0,1-1.57,0l-.93-.93a1.12,1.12,0,0,1,0-1.57L15,21.44a.36.36,0,0,1,0-.09l-1.58-.23A1.14,1.14,0,0,1,12.3,20V18.66a1.14,1.14,0,0,1,1.08-1.14L15,17.28a.36.36,0,0,1,0-.09l-.95-1.28a1.14,1.14,0,0,1-.3-.77,1.1,1.1,0,0,1,.34-.8l.93-.93a1.13,1.13,0,0,1,1.57,0l1.28.94.09,0,.24-1.58a1.14,1.14,0,0,1,1.14-1.08h1.32A1.14,1.14,0,0,1,21.8,12.7L22,14.28l.09,0,1.28-.94a1.12,1.12,0,0,1,1.57,0l.93.93a1.14,1.14,0,0,1,0,1.57L25,17.19l0,.09,1.58.24a1.14,1.14,0,0,1,1.08,1.14V20a1.13,1.13,0,0,1-1.08,1.13L25,21.35l0,.09L26,22.73a1.14,1.14,0,0,1,0,1.57l-.93.93a1.16,1.16,0,0,1-.81.33,1.13,1.13,0,0,1-.76-.29l-1.28-.95-.09,0-.24,1.58A1.14,1.14,0,0,1,20.66,27ZM17.8,23a.59.59,0,0,1,.29.07,4.39,4.39,0,0,0,.63.26.61.61,0,0,1,.42.5l.3,2h1.12l.3-2a.61.61,0,0,1,.42-.5,4.39,4.39,0,0,0,.63-.26.63.63,0,0,1,.66.05l1.6,1.18.79-.8-1.18-1.59a.63.63,0,0,1-.05-.66A4.39,4.39,0,0,0,24,20.6a.65.65,0,0,1,.5-.43l2-.29V18.76l-2-.3A.61.61,0,0,1,24,18a4.78,4.78,0,0,0-.26-.62.63.63,0,0,1,.05-.66L25,15.15l-.79-.79-1.6,1.18a.63.63,0,0,1-.66.05,4.39,4.39,0,0,0-.63-.26.62.62,0,0,1-.42-.5l-.3-2H19.44l-.3,2a.62.62,0,0,1-.42.5,4.39,4.39,0,0,0-.63.26.63.63,0,0,1-.66-.05l-1.6-1.18-.79.79,1.18,1.6a.63.63,0,0,1,.05.66A4.78,4.78,0,0,0,16,18a.6.6,0,0,1-.5.43l-2,.3v1.12l2,.29a.63.63,0,0,1,.5.43,4.39,4.39,0,0,0,.26.63.63.63,0,0,1-.05.66L15,23.48l.79.8,1.6-1.18A.63.63,0,0,1,17.8,23Zm8.76-4.21Z"/><path class="cls-1" d="M20,21.7a2.38,2.38,0,1,1,2.38-2.38A2.39,2.39,0,0,1,20,21.7Zm0-3.51a1.13,1.13,0,1,0,1.13,1.13A1.13,1.13,0,0,0,20,18.19Z"/><path class="cls-1" d="M30.3,38.17H9.7a.62.62,0,0,1-.62-.62V2.45a.62.62,0,0,1,.62-.62H30.3a.62.62,0,0,1,.62.62v35.1a.62.62,0,0,1-.62.62Zm-20-1.25H29.68V3.08H10.32Z"/><path class="cls-1" d="M22.64,5.9H17.36a2.14,2.14,0,0,1-2.15-2.14V2.45a.63.63,0,0,1,1.25,0V3.76a.9.9,0,0,0,.9.9h5.28a.9.9,0,0,0,.9-.9V2.45a.63.63,0,0,1,1.25,0V3.76A2.14,2.14,0,0,1,22.64,5.9Z"/><path class="cls-1" d="M30.3,34H9.7a.63.63,0,0,1,0-1.25H30.3a.63.63,0,0,1,0,1.25Z"/><path class="cls-1" d="M22.43,36.08H17.57a.63.63,0,0,1,0-1.25h4.86a.63.63,0,0,1,0,1.25Z"/></svg>