<svg xmlns="http://www.w3.org/2000/svg" xmlns:xlink="http://www.w3.org/1999/xlink" width="90" height="90" viewBox="0 0 90 90">
  <defs>
    <clipPath id="clip-Custom_iOS_Application_Development">
      <rect width="90" height="90"/>
    </clipPath>
  </defs>
  <g id="Custom_iOS_Application_Development" data-name="Custom iOS Application Development" clip-path="url(#clip-Custom_iOS_Application_Development)">
    <g id="Group_2" data-name="Group 2" transform="translate(-32.474 -22.801)">
      <path id="Path_13" data-name="Path 13" d="M215.567,72.491h2.546a.993.993,0,1,0,0-1.986h-2.546a.993.993,0,1,0,0,1.986Z" transform="translate(-143.697 -32.384)" fill="#b70000"/>
      <path id="Path_14" data-name="Path 14" d="M251.288,72.491h5.763a.993.993,0,0,0,0-1.986h-5.763a.993.993,0,0,0,0,1.986Z" transform="translate(-173.585 -32.384)" fill="#b70000"/>
      <path id="Path_15" data-name="Path 15" d="M229.37,415.409h-8.126a1.875,1.875,0,0,0-1.874,1.874v2.108a1.875,1.875,0,0,0,1.874,1.874h8.126a1.875,1.875,0,0,0,1.874-1.874v-2.108A1.875,1.875,0,0,0,229.37,415.409Zm-.112,3.872-7.9.11-.112-2,8.014-.112Z" transform="translate(-147.71 -320.964)" fill="#b70000"/>
      <path id="Path_16" data-name="Path 16" d="M174.547,118.047h13.071a.993.993,0,0,0,0-1.986H174.547a.993.993,0,1,0,0,1.986Z" transform="translate(-109.376 -70.5)" fill="#b70000"/>
      <path id="Path_17" data-name="Path 17" d="M188.611,153.992a.993.993,0,0,0-.993-.993H174.547a.993.993,0,1,0,0,1.986h13.071A.993.993,0,0,0,188.611,153.992Z" transform="translate(-109.376 -101.406)" fill="#b70000"/>
      <path id="Path_18" data-name="Path 18" d="M174.547,337.417h13.071a.993.993,0,1,0,0-1.986H174.547a.993.993,0,1,0,0,1.986Z" transform="translate(-109.376 -254.046)" fill="#b70000"/>
      <path id="Path_19" data-name="Path 19" d="M188.611,373.37a.993.993,0,0,0-.993-.993H174.547a.993.993,0,1,0,0,1.986h13.071A.994.994,0,0,0,188.611,373.37Z" transform="translate(-109.376 -284.959)" fill="#b70000"/>
      <path id="Path_20" data-name="Path 20" d="M243.948,233.049a.993.993,0,0,0,.993.993h13.07a.993.993,0,0,0,0-1.986h-13.07A.993.993,0,0,0,243.948,233.049Z" transform="translate(-168.274 -167.553)" fill="#b70000"/>
      <path id="Path_21" data-name="Path 21" d="M258.011,269h-13.07a.993.993,0,1,0,0,1.986h13.07a.993.993,0,0,0,0-1.986Z" transform="translate(-168.274 -198.465)" fill="#b70000"/>
      <path id="Path_22" data-name="Path 22" d="M111.46,42.929H97.807V37.372A5.578,5.578,0,0,0,92.236,31.8H62.959a5.578,5.578,0,0,0-5.571,5.571V59.824H43.824a.993.993,0,0,0-.993.993V76.01a.993.993,0,0,0,.993.993H57.387V99.453a5.578,5.578,0,0,0,5.571,5.573H92.235a5.578,5.578,0,0,0,5.571-5.573V60.109H111.46a.993.993,0,0,0,.993-.993V43.922A.993.993,0,0,0,111.46,42.929ZM44.817,61.81h21.4V75.017h-21.4Zm51,37.643a3.591,3.591,0,0,1-3.586,3.587H62.959a3.591,3.591,0,0,1-3.586-3.587V77H67.21a.993.993,0,0,0,.993-.993V60.817a.993.993,0,0,0-.993-.993H59.373V37.372a3.59,3.59,0,0,1,3.586-3.586H92.236a3.59,3.59,0,0,1,3.586,3.586v5.557H88.074a.993.993,0,0,0-.993.993V59.116a.993.993,0,0,0,.993.993h7.747V99.453Zm14.646-41.33h-21.4V44.915h21.4V58.123Z" fill="#b70000"/>
      <path id="Path_23" data-name="Path 23" d="M75.309,235.991l2.4-2.4a.993.993,0,1,0-1.4-1.4l-3.1,3.1a.992.992,0,0,0,0,1.4l3.124,3.124a.993.993,0,1,0,1.4-1.4Z" transform="translate(-25.168 -167.417)" fill="#b70000"/>
      <path id="Path_24" data-name="Path 24" d="M137.115,239.267a.992.992,0,0,0,1.4,0l3.124-3.124a.992.992,0,0,0,0-1.4l-3.1-3.1a.993.993,0,0,0-1.4,1.4l2.4,2.4-2.421,2.422A.992.992,0,0,0,137.115,239.267Z" transform="translate(-78.644 -166.957)" fill="#b70000"/>
      <path id="Path_25" data-name="Path 25" d="M112.844,226.212a1.007,1.007,0,0,0-1.146.813l-1.342,7.91a1,1,0,0,0,.813,1.146.978.978,0,0,0,.167.013.993.993,0,0,0,.978-.827l1.342-7.91A1,1,0,0,0,112.844,226.212Z" transform="translate(-56.487 -162.653)" fill="#b70000"/>
      <path id="Path_26" data-name="Path 26" d="M349.971,128.237l-3.106,3.1a.992.992,0,0,0,0,1.4l3.124,3.124a.993.993,0,0,0,1.4-1.4l-2.421-2.422,2.4-2.4a.993.993,0,1,0-1.4-1.4Z" transform="translate(-254.141 -80.445)" fill="#b70000"/>
      <path id="Path_27" data-name="Path 27" d="M410.786,135.32a.992.992,0,0,0,1.4,0l3.123-3.124a.992.992,0,0,0,0-1.4l-3.1-3.1a.993.993,0,1,0-1.4,1.4l2.4,2.4-2.421,2.422A.992.992,0,0,0,410.786,135.32Z" transform="translate(-307.623 -79.985)" fill="#b70000"/>
      <path id="Path_28" data-name="Path 28" d="M384.833,132.133a.978.978,0,0,0,.167.013.994.994,0,0,0,.978-.827l1.343-7.909a1,1,0,0,0-.813-1.146,1.006,1.006,0,0,0-1.146.813l-1.343,7.909A1,1,0,0,0,384.833,132.133Z" transform="translate(-285.46 -75.68)" fill="#b70000"/>
    </g>
  </g>
</svg>
