<svg xmlns="http://www.w3.org/2000/svg" xmlns:xlink="http://www.w3.org/1999/xlink" width="90" height="90" viewBox="0 0 90 90">
  <defs>
    <clipPath id="clip-iOS_App_Ideation_Consulting">
      <rect width="90" height="90"/>
    </clipPath>
  </defs>
  <g id="iOS_App_Ideation_Consulting" data-name="iOS App Ideation &amp; Consulting" clip-path="url(#clip-iOS_App_Ideation_Consulting)">
    <g id="Group_1" data-name="Group 1" transform="translate(-9.652 -8.91)">
      <path id="Path_1" data-name="Path 1" d="M91.5,77.871a.477.477,0,0,0,0-.114.616.616,0,0,0-.057-.251v-.068L75.276,47.878a4.767,4.767,0,0,0-4.185-2.429H65.172A12.77,12.77,0,1,0,43.948,45.4H38a4.78,4.78,0,0,0-4.2,2.475L17.661,77.438v.08a.764.764,0,0,0,0,.228.55.55,0,0,0,0,.137h0l.388,3.034a7.983,7.983,0,0,0,7.9,6.843H83.179a7.983,7.983,0,0,0,7.9-6.843L91.5,77.94ZM43.469,36.759a11.176,11.176,0,0,1,22.239,1.585,11.017,11.017,0,0,1-3.421,8.086,10.205,10.205,0,0,0-2.2,3.091.621.621,0,0,0-.08.148,10.788,10.788,0,0,0-.958,4.413V56.1H55.33V48L59.1,45.278a.776.776,0,0,0,.233-1.072.759.759,0,0,0-.05-.068.786.786,0,0,0-1.091-.218c-.017.011-.033.023-.049.035l-3.6,2.634-3.627-2.612a.8.8,0,0,0-.935,1.3l3.763,2.714V56.1H50.072V54.082a10.7,10.7,0,0,0-.992-4.459h0A11.184,11.184,0,0,0,46.8,46.384,11.132,11.132,0,0,1,43.469,36.759ZM48.476,56.91h0v.7a.8.8,0,0,0,.8.8H59.789a.8.8,0,0,0,.8-.8h0V54.071a9.063,9.063,0,0,1,.65-3.421h8.85a1.049,1.049,0,0,1,.947.6l9.5,18.612a.355.355,0,0,1,0,.376.389.389,0,0,1-.342.194H28.872a.388.388,0,0,1-.331-.194.365.365,0,0,1,0-.376l9.409-18.635a1.015,1.015,0,0,1,.935-.582h8.93a8.888,8.888,0,0,1,.661,3.421v2.84Zm-13.32-8.268A3.183,3.183,0,0,1,37.949,47h7.185c.16.16.3.331.456.49a9.493,9.493,0,0,1,1.334,1.631h-8.04a2.623,2.623,0,0,0-2.372,1.471l-9.34,18.635a2,2,0,0,0,1.79,2.874h51.32a1.984,1.984,0,0,0,1.631-.947,1.961,1.961,0,0,0,.08-1.939L72.459,50.6a2.646,2.646,0,0,0-2.372-1.483H62.1a8.069,8.069,0,0,1,1.254-1.528c.205-.194.388-.4.57-.593h7.2a3.16,3.16,0,0,1,2.805,1.642L89.372,77.028H19.714ZM89.5,80.688a6.42,6.42,0,0,1-6.318,5.463H25.906a6.42,6.42,0,0,1-6.318-5.463l-.3-2.064h70.5Z" transform="translate(0 0.794)" fill="#b70000" stroke="#b70000" stroke-width="0.5"/>
      <path id="Path_2" data-name="Path 2" d="M55.427,67.91H45.938a.8.8,0,1,0,0,1.6h9.488a.8.8,0,1,0,0-1.6Z" transform="translate(3.86 6.741)" fill="#b70000" stroke="#b70000" stroke-width="0.5"/>
      <path id="Path_3" data-name="Path 3" d="M45.918,56.927h9.5a.8.8,0,1,0,0-1.6h-9.5a.81.81,0,0,0,0,1.608Z" transform="translate(3.869 4.974)" fill="#b70000" stroke="#b70000" stroke-width="0.5"/>
      <path id="Path_4" data-name="Path 4" d="M45.928,59.247h9.5a.8.8,0,1,0,0-1.6h-9.5a.8.8,0,1,0,0,1.6Z" transform="translate(3.859 5.3)" fill="#b70000" stroke="#b70000" stroke-width="0.5"/>
      <path id="Path_5" data-name="Path 5" d="M53.342,60H47.548a.8.8,0,1,0,0,1.6h5.793a.8.8,0,1,0,0-1.6Z" transform="translate(4.086 5.63)" fill="#b70000" stroke="#b70000" stroke-width="0.5"/>
      <path id="Path_6" data-name="Path 6" d="M34.124,34.021l2.5,1.14a.822.822,0,0,0,.331.068.8.8,0,0,0,.331-1.517l-2.5-1.14a.8.8,0,1,0-.769,1.4A.755.755,0,0,0,34.124,34.021Z" transform="translate(2.24 1.764)" fill="#b70000" stroke="#b70000" stroke-width="0.5"/>
      <path id="Path_7" data-name="Path 7" d="M38.5,29.827a.762.762,0,0,0,.559.239.848.848,0,0,0,.57-.228.809.809,0,0,0,0-1.14L37.7,26.76a.8.8,0,0,0-1.129-.011l-.011.011a.809.809,0,0,0,0,1.14Z" transform="translate(2.622 0.928)" fill="#b70000" stroke="#b70000" stroke-width="0.5"/>
      <path id="Path_8" data-name="Path 8" d="M42.5,25.653a.8.8,0,0,0,.73.468.669.669,0,0,0,.331-.08.787.787,0,0,0,.4-1.039l-.01-.022-1.14-2.463a.8.8,0,0,0-1.061-.388h0a.787.787,0,0,0-.4,1.039l.01.022Z" transform="translate(3.318 0.301)" fill="#b70000" stroke="#b70000" stroke-width="0.5"/>
      <path id="Path_9" data-name="Path 9" d="M50.1,24.209a.8.8,0,0,0,.8-.8h0v-2.7a.8.8,0,1,0-1.6,0v2.726A.809.809,0,0,0,50.1,24.209Z" transform="translate(4.445 0)" fill="#b70000" stroke="#b70000" stroke-width="0.5"/>
      <path id="Path_10" data-name="Path 10" d="M62.818,34.762a.8.8,0,0,0,.73.468.867.867,0,0,0,.331-.068l2.509-1.14a.8.8,0,1,0-.554-1.5.756.756,0,0,0-.107.049l-2.509,1.14A.81.81,0,0,0,62.818,34.762Z" transform="translate(6.334 1.764)" fill="#b70000" stroke="#b70000" stroke-width="0.5"/>
      <path id="Path_11" data-name="Path 11" d="M61.36,30.058a.8.8,0,0,0,.57-.239l1.939-1.939a.806.806,0,1,0-1.14-1.14h0L60.79,28.678a.788.788,0,0,0-.029,1.113l.029.027A.764.764,0,0,0,61.36,30.058Z" transform="translate(6.024 0.926)" fill="#b70000" stroke="#b70000" stroke-width="0.5"/>
      <path id="Path_12" data-name="Path 12" d="M56.777,26.035a.822.822,0,0,0,.331.068.8.8,0,0,0,.73-.468l1.14-2.441a.8.8,0,1,0-1.4-.769.756.756,0,0,0-.049.107l-1.14,2.441a.786.786,0,0,0,.366,1.05Z" transform="translate(5.429 0.295)" fill="#b70000" stroke="#b70000" stroke-width="0.5"/>
    </g>
  </g>
</svg>
