<svg xmlns="http://www.w3.org/2000/svg" xmlns:xlink="http://www.w3.org/1999/xlink" width="90" height="90" viewBox="0 0 90 90">
  <defs>
    <clipPath id="clip-iOS_App_Support_Maintenance">
      <rect width="90" height="90"/>
    </clipPath>
  </defs>
  <g id="iOS_App_Support_Maintenance" data-name="iOS App Support &amp; Maintenance" clip-path="url(#clip-iOS_App_Support_Maintenance)">
    <g id="Group_24" data-name="Group 24" transform="translate(7.414 5.941)">
      <path id="Path_49" data-name="Path 49" d="M53.63,2.75H22.769a6.378,6.378,0,0,0-6.375,6.368V18.63a.793.793,0,0,0-.127-.026.876.876,0,0,0-.875.875V22.1a.876.876,0,0,0,.875.875.793.793,0,0,0,.127-.026v2.709a.793.793,0,0,0-.127-.026.875.875,0,0,0-.875.875v2.619a.876.876,0,0,0,.875.875.945.945,0,0,0,.127-.026V70.5a6.376,6.376,0,0,0,6.375,6.368H53.63A6.376,6.376,0,0,0,60,70.5V9.118A6.376,6.376,0,0,0,53.63,2.75ZM58.248,70.5a4.623,4.623,0,0,1-4.619,4.617H22.762A4.622,4.622,0,0,1,18.144,70.5V9.118A4.625,4.625,0,0,1,22.769,4.5H53.63a4.623,4.623,0,0,1,4.619,4.617Z" fill="#b70000" stroke="#b70000" stroke-width="0.5"/>
      <path id="Path_50" data-name="Path 50" d="M35.148,57.786a2.875,2.875,0,1,0,2.9,2.875A2.879,2.879,0,0,0,35.148,57.786Zm0,4a1.125,1.125,0,1,1,1.145-1.125A1.127,1.127,0,0,1,35.148,61.786Z" transform="translate(2.822 9.202)" fill="#b70000" stroke="#b70000" stroke-width="0.5"/>
      <path id="Path_51" data-name="Path 51" d="M32.018,9.3h7.088a.875.875,0,1,0,0-1.751H32.018a.875.875,0,1,0,0,1.751Z" transform="translate(2.634 0.803)" fill="#b70000" stroke="#b70000" stroke-width="0.5"/>
      <path id="Path_52" data-name="Path 52" d="M53.1,32.458l-3.493-.7A12.234,12.234,0,0,0,48.586,29.3l1.963-2.957a.876.876,0,0,0-.109-1.1l-2.953-2.976a.868.868,0,0,0-1.107-.111L43.42,24.124a11.984,11.984,0,0,0-2.47-1.04l-.72-3.475a.876.876,0,0,0-.857-.7H35.194a.874.874,0,0,0-.858.7l-.7,3.471a11.836,11.836,0,0,0-2.465,1.039l-2.964-1.971a.876.876,0,0,0-1.1.109l-2.976,2.976a.875.875,0,0,0-.109,1.105L25.994,29.3a12.524,12.524,0,0,0-1.031,2.458l-3.47.7a.875.875,0,0,0-.7.858v4.19a.875.875,0,0,0,.7.857l3.474.711A12.773,12.773,0,0,0,26,41.541L24.019,44.5a.872.872,0,0,0,.111,1.107l2.976,2.952a.876.876,0,0,0,1.1.11l2.972-1.957a12.4,12.4,0,0,0,2.46,1.011l.4,2v4.913a3.254,3.254,0,0,0,6.507,0V49.678l.4-1.954a12.424,12.424,0,0,0,2.464-1.012l2.972,1.957a.873.873,0,0,0,1.1-.111l2.953-2.953a.875.875,0,0,0,.111-1.1l-1.964-2.958A12.446,12.446,0,0,0,49.6,39.073l3.5-.71a.876.876,0,0,0,.7-.858v-4.19A.875.875,0,0,0,53.1,32.458ZM38.8,54.632a1.5,1.5,0,0,1-3.006,0V42.764a.876.876,0,0,0-.619-.837,7.268,7.268,0,0,1-2.676-12.384v1.123a4.779,4.779,0,0,0,2.636,4.275,1,1,0,0,0,.113.047,4.76,4.76,0,0,0,6.826-4.3v-1.15a7.259,7.259,0,0,1-2.657,12.392.877.877,0,0,0-.617.837V54.632ZM52.049,36.79l-3.325.675a.873.873,0,0,0-.676.651,10.691,10.691,0,0,1-1.242,3.008.879.879,0,0,0,.02.938l1.868,2.812-1.941,1.941-2.825-1.858A.87.87,0,0,0,43,44.936a10.638,10.638,0,0,1-2.45,1.052v-2.6a9.01,9.01,0,0,0,1.069-16.294.877.877,0,0,0-1.3.768v2.825a3.008,3.008,0,0,1-4.377,2.7.75.75,0,0,0-.1-.042,3.031,3.031,0,0,1-1.6-2.672V27.86a.876.876,0,0,0-1.3-.766,9.017,9.017,0,0,0,1.091,16.292v2.6a10.65,10.65,0,0,1-2.444-1.05.87.87,0,0,0-.931.021l-2.828,1.861-1.96-1.945,1.877-2.809a.876.876,0,0,0,.025-.933,11.027,11.027,0,0,1-1.257-3.015.872.872,0,0,0-.675-.65l-3.3-.676V34.032l3.3-.664a.875.875,0,0,0,.678-.655,10.784,10.784,0,0,1,1.254-3,.877.877,0,0,0-.022-.937l-1.878-2.811,1.961-1.961,2.825,1.879a.878.878,0,0,0,.949.014,10.134,10.134,0,0,1,2.986-1.258.876.876,0,0,0,.652-.677l.664-3.3h2.75l.684,3.307a.874.874,0,0,0,.651.673A10.135,10.135,0,0,1,42.984,25.9a.872.872,0,0,0,.948-.014l2.82-1.878L48.7,25.966l-1.87,2.814a.878.878,0,0,0-.018.942,10.459,10.459,0,0,1,1.24,2.994.874.874,0,0,0,.678.652l3.323.665Z" transform="translate(0.903 2.702)" fill="#b70000" stroke="#b70000" stroke-width="0.5"/>
    </g>
  </g>
</svg>
