<svg xmlns="http://www.w3.org/2000/svg" xmlns:xlink="http://www.w3.org/1999/xlink" width="90" height="90" viewBox="0 0 90 90">
  <defs>
    <clipPath id="clip-Multi-platform_Deployment">
      <rect width="90" height="90"/>
    </clipPath>
  </defs>
  <g id="Multi-platform_Deployment" data-name="Multi-platform Deployment" clip-path="url(#clip-Multi-platform_Deployment)">
    <g id="Group_3" data-name="Group 3" transform="translate(0.25 -0.79)">
      <path id="Path_29" data-name="Path 29" d="M75.274,28.8H66.553V24.707a5.927,5.927,0,0,0-5.917-5.917H14.667A5.927,5.927,0,0,0,8.75,24.707V58.582A5.927,5.927,0,0,0,14.667,64.5H30.315l-2.208,6.72A1.079,1.079,0,0,0,28.8,72.58a1.1,1.1,0,0,0,.338.053H46.17a1.078,1.078,0,0,0,1.08-1.077,1.05,1.05,0,0,0-.053-.338L44.988,64.5h6.038v2.778a4.65,4.65,0,0,0,4.641,4.641H75.274a4.65,4.65,0,0,0,4.641-4.641V33.437A4.65,4.65,0,0,0,75.274,28.8ZM53.191,38.6H77.758V62.1H53.191Zm24.567-5.176v3H53.191V33.437a2.484,2.484,0,0,1,2.484-2.484h19.6a2.484,2.484,0,0,1,2.484,2.484ZM55.676,28.788a4.649,4.649,0,0,0-4.641,4.641V55.761H10.907V27.528H64.388V28.8Zm-41.008-7.85H60.636A3.761,3.761,0,0,1,64.4,24.7h0v.664H10.915V24.7a3.762,3.762,0,0,1,3.752-3.752ZM10.907,58.582v-.664H51.035v4.425H14.667A3.761,3.761,0,0,1,10.907,58.582Zm33.771,11.9H30.626L32.584,64.5H42.719Zm30.6-.69h-19.6A2.484,2.484,0,0,1,53.191,67.3v-3.01H77.758v2.985a2.484,2.484,0,0,1-2.467,2.5h-.017Z" fill="#b70000"/>
      <path id="Path_30" data-name="Path 30" d="M69.94,35.908a1.079,1.079,0,0,0,1.078,1.078h5.719a1.078,1.078,0,1,0,0-2.157H71.018A1.079,1.079,0,0,0,69.94,35.908Z" transform="translate(-8.407 -2.204)" fill="#b70000"/>
      <circle id="Ellipse_1" data-name="Ellipse 1" cx="0.966" cy="0.966" r="0.966" transform="translate(57.401 32.738)" fill="#b70000"/>
      <path id="Path_31" data-name="Path 31" d="M74.11,71.81a2.51,2.51,0,1,0,2.51,2.51A2.51,2.51,0,0,0,74.11,71.81Zm0,2.872a.349.349,0,1,0,0-.009Z" transform="translate(-8.635 -7.285)" fill="#b70000"/>
    </g>
  </g>
</svg>
