<svg width="41" height="25" viewBox="0 0 41 25" fill="none" xmlns="http://www.w3.org/2000/svg">
<path d="M22.6934 15.0117C22.7318 13.0911 23.0007 11.2474 23.5 9.48047C24.0378 7.67513 24.6139 6.10026 25.2285 4.75586C25.9199 3.18099 26.7266 1.68294 27.6484 0.261719L35.1963 0.376953C34.889 0.837891 34.6009 1.39486 34.332 2.04785C34.0632 2.58561 33.7943 3.23861 33.5254 4.00684C33.2565 4.77507 32.9876 5.65853 32.7188 6.65723C33.7559 6.81087 34.7354 7.15658 35.6572 7.69434C36.6175 8.19368 37.4434 8.82747 38.1348 9.5957C38.8262 10.3639 39.3639 11.2474 39.748 12.2461C40.1706 13.2448 40.3818 14.2819 40.3818 15.3574C40.3818 16.5866 40.1322 17.7389 39.6328 18.8145C39.1719 19.89 38.5381 20.8311 37.7314 21.6377C36.9248 22.4443 35.9837 23.0781 34.9082 23.5391C33.8327 24 32.6995 24.2305 31.5088 24.2305C30.2796 24.2305 29.1273 24 28.0518 23.5391C27.0146 23.0397 26.0928 22.3867 25.2861 21.5801C24.4795 20.735 23.8457 19.7555 23.3848 18.6416C22.9238 17.5277 22.6934 16.3177 22.6934 15.0117ZM0.280273 15.0117C0.318685 13.0911 0.587565 11.2474 1.08691 9.48047C1.62467 7.67513 2.20085 6.10026 2.81543 4.75586C3.50684 3.18099 4.31348 1.68294 5.23535 0.261719L12.7832 0.376953C12.4759 0.837891 12.1878 1.39486 11.9189 2.04785C11.6501 2.58561 11.3812 3.23861 11.1123 4.00684C10.8434 4.77507 10.5745 5.65853 10.3057 6.65723C11.3428 6.81087 12.3223 7.15658 13.2441 7.69434C14.2044 8.19368 15.0303 8.82747 15.7217 9.5957C16.4131 10.3639 16.9508 11.2474 17.335 12.2461C17.7575 13.2448 17.9688 14.2819 17.9688 15.3574C17.9688 16.5866 17.7191 17.7389 17.2197 18.8145C16.7588 19.89 16.125 20.8311 15.3184 21.6377C14.5117 22.4443 13.5706 23.0781 12.4951 23.5391C11.4196 24 10.2865 24.2305 9.0957 24.2305C7.86654 24.2305 6.71419 24 5.63867 23.5391C4.60156 23.0397 3.67969 22.3867 2.87305 21.5801C2.06641 20.735 1.43262 19.7555 0.97168 18.6416C0.510742 17.5277 0.280273 16.3177 0.280273 15.0117Z" fill="#e61f2d"/>
</svg>
