<?xml version="1.0" encoding="utf-8"?>
<!-- Generator: Adobe Illustrator 25.1.0, SVG Export Plug-In . SVG Version: 6.00 Build 0)  -->
<svg version="1.1" id="Layer_1" xmlns="http://www.w3.org/2000/svg" xmlns:xlink="http://www.w3.org/1999/xlink" x="0px" y="0px"
	 viewBox="0 0 80 80" style="enable-background:new 0 0 80 80;" xml:space="preserve">
<style type="text/css">
	.st0{fill:#4264D0;}
	.st1{fill:#23B59C;}
	.st2{fill:#FFFFFF;}
</style>
<path class="st0" d="M69.6,80H10.4C4.7,80,0,75.3,0,69.6V10.4C0,4.7,4.7,0,10.4,0h59.2C75.3,0,80,4.7,80,10.4v59.2
	C80,75.3,75.3,80,69.6,80z"/>
<g>
	<g id="path113291_1_" transform="matrix(1.67 0 0 1.67 -139.66 84)">
		<g>
			<path vector-effect="non-scaling-stroke" class="st2" d="M91.7-21.4c2.8,0,4.6-2,4.6-5V-27h-5.1v1.7h3.1
				c-0.3,1.4-1.4,2.3-2.7,2.3c-1.9,0-3.1-1.3-3.1-3.3c0-2,1.2-3.3,3.1-3.3c0.9,0,1.9,0.6,2.4,1.5l1.7-0.4c-0.8-1.6-2.5-2.7-4.1-2.7
				c-3,0-4.9,2-4.9,4.9C86.7-23.4,88.7-21.4,91.7-21.4z"/>
		</g>
	</g>
	<g id="path113293_1_" transform="matrix(1.67 0 0 1.67 -59.2 95.18)">
		<g>
			<path vector-effect="non-scaling-stroke" class="st2" d="M52.6-28.1c1.7,0,3.1-1,3.6-2.5h-1.7c-0.3,0.7-1.1,1.2-1.9,1.2
				c-1.1,0-1.9-0.7-2.1-1.8h5.7l0.1-0.1v-0.3c0-2.2-1.5-3.7-3.8-3.7c-2.3,0-3.8,1.5-3.8,3.7S50.3-28.1,52.6-28.1z M50.6-32.7
				c0.3-0.9,1-1.3,2-1.3c0.9,0,1.6,0.5,2,1.3H50.6z"/>
		</g>
	</g>
	<g id="path113295_1_" transform="matrix(1.67 0 0 1.67 11.11 94.34)">
		<g>
			<path vector-effect="non-scaling-stroke" class="st2" d="M15.2-27.8h1.7v-4.1c0-0.9,0.7-1.5,1.7-1.5c1,0,1.7,0.6,1.7,1.5v4.1h1.7
				v-4.3c0-1.7-1.3-2.8-3.2-2.8c-0.7,0-1.4,0.3-1.9,0.7v-0.5h-1.7V-27.8z"/>
		</g>
	</g>
	<g id="path113297_1_" transform="matrix(1.67 0 0 1.67 66.68 84.84)">
		<g>
			<path vector-effect="non-scaling-stroke" class="st2" d="M-7.2-21.9c0.5,0,0.9-0.1,1.2-0.2v-1.2h-1.2c-0.4,0-0.6-0.2-0.6-0.6
				v-4.3h-1.7v4.3C-9.5-22.7-8.6-21.9-7.2-21.9z"/>
		</g>
	</g>
	<g id="path113299_1_" transform="matrix(1.67 0 0 1.67 123.27 95.18)">
		<g>
			<path vector-effect="non-scaling-stroke" class="st2" d="M-35.8-28.1c0.8,0,1.7-0.4,2.2-0.9v0.7h1.7v-6.9h-1.7v0.7
				c-0.5-0.6-1.4-0.9-2.2-0.9c-2.2,0-3.6,1.5-3.6,3.7S-38-28.1-35.8-28.1z M-35.7-29.6c-1.3,0-2.1-0.9-2.1-2.2
				c0-1.3,0.8-2.2,2.1-2.2c1.2,0,2.1,0.9,2.1,2.2C-33.6-30.4-34.4-29.6-35.7-29.6z"/>
		</g>
	</g>
	<g id="path113301_1_" transform="matrix(1.67 0 0 1.67 174.05 84)">
		<g>
			<path vector-effect="non-scaling-stroke" class="st2" d="M-61.1-21.6h1.7v-9.5h-1.7V-21.6z"/>
		</g>
	</g>
	<rect x="50.8" y="32.3" class="st2" width="2.8" height="8.2"/>
	
		<rect x="50.8" y="32.3" transform="matrix(-1.836970e-16 1 -1 -1.836970e-16 88.5798 -15.8868)" class="st2" width="2.8" height="8.1"/>
</g>
</svg>
