<svg xmlns="http://www.w3.org/2000/svg" viewBox="0 0 121 121"><defs><style>.cls-2{fill:none;stroke:#204ecf;stroke-linejoin:round; stroke-width: 1.6px;}</style></defs><g id="Layer_2" data-name="Layer 2"><g id="Icons"><path fill="#e4e8f8" d="M32 87.22h58V99.5H32z"/><path class="cls-2" d="M.5 33.78h120v53.43H.5z"/><path class="cls-2" d="M50.43 68.03l-7.52-7.53 7.52-7.53M70.57 68.03l7.52-7.53-7.52-7.53M55.52 74.75l9.96-28.5M32 26.12V6.5a6 6 0 0 1 6-6h46a6 6 0 0 1 6 6v19.62"/><path class="cls-2" d="M90 8.5a4 4 0 0 0-4-4H36a4 4 0 0 0-4 4M90 87v27.5a6 6 0 0 1-6 6H38a6 6 0 0 1-6-6V87"/><path class="cls-2" d="M32 108.5a4 4 0 0 0 4 4h50a4 4 0 0 0 4-4"/></g></g></svg>