<svg xmlns="http://www.w3.org/2000/svg" viewBox="0 0 121 121"><defs><style>.cls-2{fill:none;stroke:#204ecf;stroke-linejoin:round; stroke-width: 1.6px;}</style></defs><g id="Layer_2" data-name="Layer 2"><g id="Icons"><path d="M23.74 60.3h46.13v11.28H31.74a8 8 0 0 1-8-8V60.3z" transform="rotate(90 46.805 65.935)" fill="#e4e8f8"/><rect class="cls-2" x="52.45" y="32" width="45.73" height="88.5" rx="7.38"/><path class="cls-2" d="M96 39.38a5.16 5.16 0 0 0-5.16-5.17h-4.16A1.66 1.66 0 0 0 85 35.87a1.66 1.66 0 0 1-1.66 1.66H67.26a1.66 1.66 0 0 1-1.66-1.66 1.66 1.66 0 0 0-1.66-1.66h-4.12a5.16 5.16 0 0 0-5.16 5.17v73.74a5.16 5.16 0 0 0 5.16 5.17h31a5.16 5.16 0 0 0 5.18-5.17z"/><path class="cls-2" d="M67.4 82.17l-5.92-5.92 5.92-5.92M83.22 82.17l5.92-5.92-5.92-5.92M71.4 87.45l7.82-22.4M65.6 6.4a3 3 0 0 0-2.95-2.95H25.78a3 3 0 0 0-3 3"/><path class="cls-2" d="M47.45 89h-20.2a4.42 4.42 0 0 1-4.42-4.42V4.92A4.42 4.42 0 0 1 27.25.5h33.93a4.42 4.42 0 0 1 4.42 4.42V27"/><path class="cls-2" d="M22.83 80.15a3 3 0 0 0 3 2.95h21.62M120.5 32v-6a18.05 18.05 0 0 0-18.06-18H91.79"/><path class="cls-2" d="M99.25 15.42l-7.46-7.46L99.25.5M.5 89v6a18.05 18.05 0 0 0 18.06 18h10.65"/><path class="cls-2" d="M21.75 105.58l7.46 7.46-7.46 7.46"/></g></g></svg>