<svg xmlns="http://www.w3.org/2000/svg" viewBox="0 0 121 121"><defs><style>.cls-2{fill:none;stroke:#e61f2d;stroke-linejoin:round}</style></defs><g id="Layer_2" data-name="Layer 2"><g id="Icons"><path fill="#ffd7db" d="M29.5 87.22h62V99.5h-62z"/><path class="cls-2" d="M91.5 87.22v23.28a10 10 0 0 1-10 10h-42a10 10 0 0 1-10-10V87.22M29.5 26.12V10.5a10 10 0 0 1 10-10h42a10 10 0 0 1 10 10v15.62"/><path class="cls-2" d="M88.5 26.12V10.5a7 7 0 0 0-7-7h-5.58a2.25 2.25 0 0 0-2.25 2.25A2.25 2.25 0 0 1 71.42 8H49.58a2.25 2.25 0 0 1-2.25-2.25 2.25 2.25 0 0 0-2.25-2.25H39.5a7 7 0 0 0-7 7v15.62M32.5 87.22v23.28a7 7 0 0 0 7 7h42a7 7 0 0 0 7-7V87.22M.5 33.78h120v53.43H.5z"/><path class="cls-2" d="M50.43 68.03l-7.52-7.53 7.52-7.53M70.57 68.03l7.52-7.53-7.52-7.53M55.52 74.75l9.96-28.5"/></g></g></svg>