<svg xmlns="http://www.w3.org/2000/svg" viewBox="0 0 121 121"><defs><style>.cls-1{fill:#e4e8f8}.cls-2{fill:none;stroke:#204ecf;stroke-linejoin:round; stroke-width: 1.6px;}</style></defs><g id="Layer_2" data-name="Layer 2"><g id="Icons"><path class="cls-1" d="M43.18 9.83h24v5.01h-24zM28.99 9.83h7.76v5.01h-7.76zM12.75 26.41h6.06v33.68h-6.06zM22.93 26.41h6.06v33.68h-6.06zM71.6 31.67H48.44v17.77l5.39 5.39H71.6V31.67z"/><rect class="cls-1" x="67.96" y="72.18" width="38.41" height="29.97" rx="5.08" transform="rotate(-45 87.161 87.157)"/><path class="cls-1" transform="rotate(-45 69.685 112.756)" d="M61.44 110.06h16.5v5.39h-16.5z"/><path class="cls-1" transform="rotate(-45 112.755 69.685)" d="M104.51 66.99h16.5v5.39h-16.5z"/><path class="cls-2" d="M43.18 26.41h33.68v33.68H43.18zM12.75 26.41h6.06v33.68h-6.06zM22.93 26.41h6.06v33.68h-6.06zM22.93 72.3h48.93M22.93 78.96h42.01"/><path class="cls-2" d="M58.62 92.62H6a5.54 5.54 0 0 1-5.5-5.54V10.47A5.54 5.54 0 0 1 6 4.92h23M67.18 4.92h17a5.54 5.54 0 0 1 5.54 5.55v47.84M36.75 4.92h6.43"/><circle class="cls-2" cx="7.7" cy="12.12" r="2.72"/><circle class="cls-2" cx="82.51" cy="12.12" r="2.72"/><circle class="cls-2" cx="7.7" cy="85.43" r="2.72"/><path class="cls-2" d="M43.18.5h24v9.33h-24zM28.99.5h7.76v9.33h-7.76zM71.6 31.67H48.44v17.77l5.39 5.39H71.6V31.67z"/><rect class="cls-2" x="69.18" y="64.96" width="35.97" height="44.41" rx="8.08" transform="rotate(45 87.157 87.161)"/><rect class="cls-2" x="67.96" y="72.18" width="38.41" height="29.97" rx="5.08" transform="rotate(-45 87.161 87.157)"/><path class="cls-2" d="M77.43 108.83L65.76 120.5l-11.93-11.93L65.5 96.9M108.83 77.43l11.67-11.67-11.93-11.93L96.9 65.5"/></g></g></svg>