<?xml version="1.0" encoding="utf-8"?>
<!-- Generator: Adobe Illustrator 16.0.0, SVG Export Plug-In . SVG Version: 6.00 Build 0)  -->
<!DOCTYPE svg PUBLIC "-//W3C//DTD SVG 1.1//EN" "http://www.w3.org/Graphics/SVG/1.1/DTD/svg11.dtd">
<svg version="1.1" id="Layer_1" xmlns="http://www.w3.org/2000/svg" xmlns:xlink="http://www.w3.org/1999/xlink" x="0px" y="0px"
	 width="140px" height="140px" viewBox="10.5 -27.5 140 140" enable-background="new 10.5 -27.5 140 140" xml:space="preserve">
<title>F659FC46-8C55-4CB2-8BF3-2B898B4E0391</title>
<desc>Created with sketchtool.</desc>
<g id="Company">
	<g id="company_1280_redesigned" transform="translate(-910.000000, -925.000000)">
		<g id="Section-Benefits" transform="translate(0.000000, 866.000000)">
			<g id="item" transform="translate(855.000000, 59.000000)">
				
					<g id="half_circle_curve-80294aff039bb51a7d2ae2ab561e47f07a6471c29ba1291f525000abd2d31ef5" transform="translate(54.000000, 0.000000)">
					<path id="Path" fill="#E8E8E8" d="M56.183,79.206c-0.879-9.238,3.557-18.175,11.447-23.06
						c7.89-4.884,17.868-4.869,25.744,0.037c7.876,4.907,12.287,13.857,11.381,23.092c18.168,0,34.533,0,46.654,0
						c1.312-25.808-11.703-50.24-33.854-63.551C95.405,2.414,67.723,2.389,45.549,15.662C23.375,28.933,10.318,53.343,11.584,79.153
						L56.183,79.206z"/>
					<path id="Shape" fill="#E61F2D" d="M93.122,15.385c-1.547-0.011-2.946,0.912-3.546,2.338c-0.599,1.425-0.278,3.071,0.811,4.168
						c1.09,1.097,2.733,1.428,4.163,0.839s2.362-1.982,2.362-3.528C96.917,17.102,95.221,15.394,93.122,15.385L93.122,15.385z
						 M93.122,20.944c-0.964,0-1.743-0.78-1.743-1.743s0.779-1.743,1.743-1.743c0.961,0,1.742,0.781,1.742,1.743
						S94.083,20.944,93.122,20.944z"/>
					<path id="Shape_1_" fill="#E61F2D" d="M78.743,64.331c-2.108,0-3.816,1.709-3.816,3.817c0,2.107,1.708,3.815,3.816,3.815
						s3.816-1.708,3.816-3.815c0.003-1.014-0.398-1.985-1.115-2.702C80.729,64.73,79.756,64.329,78.743,64.331L78.743,64.331z
						 M78.743,69.892c-0.962,0-1.743-0.781-1.743-1.743c0-0.963,0.78-1.743,1.743-1.743s1.743,0.78,1.743,1.743
						C80.486,69.11,79.706,69.892,78.743,69.892z"/>
					<path id="Shape_2_" fill="#E61F2D" d="M80.355,65.995c-0.176,0.002-0.335-0.104-0.404-0.265
						c-0.068-0.162-0.033-0.35,0.09-0.476l0.07-0.078c0.105-0.125,0.272-0.181,0.431-0.143c0.16,0.036,0.285,0.16,0.324,0.318
						c0.039,0.159-0.014,0.326-0.137,0.434l-0.07,0.078C80.58,65.947,80.47,65.994,80.355,65.995L80.355,65.995z M81.645,64.68
						c-0.176,0.001-0.335-0.104-0.404-0.266c-0.068-0.161-0.033-0.35,0.09-0.475l0.609-0.619c0.172-0.149,0.429-0.142,0.592,0.019
						c0.162,0.16,0.175,0.418,0.026,0.592l-0.609,0.618C81.87,64.632,81.76,64.678,81.645,64.68z M83.476,62.814
						c-0.177,0.002-0.336-0.104-0.404-0.266c-0.068-0.161-0.033-0.349,0.091-0.475l0.609-0.619c0.172-0.148,0.43-0.141,0.592,0.02
						c0.162,0.159,0.174,0.417,0.026,0.591l-0.61,0.619C83.7,62.767,83.59,62.813,83.476,62.814L83.476,62.814z M85.305,60.977
						c-0.175,0.001-0.335-0.104-0.403-0.266c-0.069-0.162-0.033-0.35,0.09-0.475l0.609-0.62c0.172-0.148,0.431-0.141,0.593,0.02
						c0.161,0.159,0.174,0.417,0.027,0.592l-0.611,0.618C85.529,60.928,85.421,60.975,85.305,60.977z M87.135,59.111
						c-0.176,0.002-0.335-0.104-0.403-0.266c-0.068-0.162-0.033-0.349,0.09-0.475l0.61-0.619c0.172-0.148,0.43-0.142,0.591,0.019
						c0.163,0.16,0.174,0.418,0.027,0.592l-0.61,0.618c-0.086,0.069-0.194,0.104-0.305,0.097V59.111z M88.965,57.247
						c-0.176,0-0.335-0.104-0.404-0.266c-0.068-0.163-0.032-0.351,0.09-0.476l0.611-0.618c0.171-0.149,0.429-0.142,0.591,0.019
						s0.174,0.417,0.027,0.591l-0.609,0.619c-0.087,0.07-0.196,0.104-0.306,0.096V57.247z M90.813,55.348
						c-0.176,0-0.336-0.104-0.403-0.267c-0.069-0.162-0.034-0.349,0.09-0.475l0.444-0.453c0.017-0.056,0.047-0.105,0.087-0.148
						c0.075-0.083,0.184-0.131,0.296-0.131s0.221,0.048,0.296,0.131h0.062c0.166,0.17,0.166,0.441,0,0.61l-0.559,0.566
						C91.05,55.278,90.936,55.34,90.813,55.348z M90.08,53.491c-0.114-0.002-0.225-0.05-0.305-0.131l-0.619-0.619
						c-0.17-0.171-0.17-0.447,0-0.618c0.171-0.17,0.447-0.17,0.619,0l0.618,0.618c0.123,0.125,0.158,0.311,0.092,0.471
						c-0.066,0.162-0.222,0.268-0.396,0.271L90.08,53.491z M88.198,51.644c-0.115-0.002-0.225-0.048-0.305-0.13l-0.567-0.611
						c-0.171-0.17-0.171-0.447,0-0.617c0.172-0.172,0.448-0.172,0.619,0l0.619,0.617c0.122,0.125,0.158,0.31,0.092,0.472
						s-0.224,0.268-0.396,0.27H88.198z M86.368,49.796c-0.115-0.001-0.225-0.048-0.306-0.131l-0.618-0.617
						c-0.17-0.172-0.17-0.449,0-0.62c0.171-0.17,0.447-0.17,0.618,0l0.619,0.62c0.122,0.124,0.158,0.31,0.092,0.47
						c-0.066,0.161-0.223,0.268-0.396,0.271L86.368,49.796z M84.521,47.905c-0.114-0.002-0.225-0.049-0.305-0.131l-0.618-0.618
						c-0.172-0.172-0.172-0.448,0-0.619c0.17-0.17,0.447-0.17,0.618,0l0.619,0.619c0.122,0.125,0.157,0.31,0.091,0.471
						s-0.222,0.268-0.396,0.27L84.521,47.905z M82.674,46.058c-0.115-0.001-0.225-0.048-0.305-0.13l-0.619-0.619
						c-0.171-0.171-0.171-0.448,0-0.618c0.17-0.172,0.447-0.172,0.619,0l0.617,0.618c0.123,0.125,0.158,0.31,0.092,0.471
						c-0.066,0.162-0.222,0.268-0.396,0.271L82.674,46.058z M80.817,44.245c-0.115-0.001-0.224-0.048-0.304-0.13l-0.619-0.619
						c-0.171-0.171-0.171-0.448,0-0.618c0.171-0.171,0.448-0.171,0.619,0l0.619,0.618c0.122,0.125,0.158,0.31,0.091,0.471
						c-0.066,0.162-0.222,0.268-0.396,0.271L80.817,44.245z M78.97,42.398c-0.115-0.002-0.225-0.049-0.305-0.131l-0.619-0.619
						c-0.171-0.17-0.171-0.447,0-0.619c0.17-0.17,0.448-0.17,0.619,0l0.619,0.619c0.122,0.125,0.158,0.31,0.092,0.471
						s-0.223,0.267-0.397,0.27L78.97,42.398z M77.123,40.551c-0.115-0.001-0.225-0.048-0.305-0.13l-0.619-0.619
						c-0.17-0.171-0.17-0.448,0-0.619c0.171-0.171,0.448-0.171,0.619,0l0.619,0.619c0.122,0.124,0.158,0.31,0.092,0.47
						c-0.066,0.162-0.222,0.268-0.397,0.27L77.123,40.551z M75.275,38.703c-0.115-0.001-0.225-0.048-0.305-0.13l-0.375-0.375
						c-0.083-0.082-0.129-0.193-0.129-0.309s0.046-0.228,0.129-0.31l0.244-0.244c0.158-0.158,0.411-0.17,0.584-0.029
						c0.172,0.142,0.21,0.391,0.087,0.578l0.07,0.07c0.122,0.124,0.158,0.31,0.092,0.471c-0.066,0.161-0.222,0.267-0.397,0.27
						V38.703z M76.382,36.856c-0.174-0.002-0.33-0.108-0.396-0.27c-0.066-0.161-0.03-0.346,0.091-0.47l0.619-0.619
						c0.171-0.171,0.448-0.171,0.619,0c0.171,0.171,0.171,0.448,0,0.619l-0.619,0.619c-0.086,0.083-0.203,0.127-0.322,0.122H76.382z
						 M78.229,35.009c-0.175-0.002-0.331-0.109-0.397-0.27c-0.066-0.162-0.03-0.347,0.092-0.471l0.619-0.619
						c0.171-0.171,0.448-0.171,0.619,0c0.171,0.17,0.171,0.448,0,0.619l-0.619,0.619C78.459,34.968,78.346,35.012,78.229,35.009
						L78.229,35.009z M80.077,33.161c-0.174-0.002-0.331-0.108-0.397-0.27s-0.03-0.346,0.092-0.471l0.619-0.619
						c0.171-0.171,0.448-0.171,0.619,0c0.171,0.171,0.171,0.448,0,0.619l-0.619,0.619c-0.085,0.078-0.198,0.119-0.313,0.113V33.161z
						 M81.924,31.349c-0.174-0.002-0.33-0.108-0.396-0.27s-0.03-0.346,0.092-0.471l0.619-0.619c0.17-0.17,0.447-0.17,0.618,0
						c0.171,0.171,0.171,0.448,0,0.619l-0.618,0.619C82.153,31.308,82.04,31.352,81.924,31.349z M83.771,29.501
						c-0.175-0.003-0.33-0.109-0.396-0.27s-0.031-0.346,0.092-0.471l0.617-0.619c0.171-0.136,0.414-0.126,0.572,0.023
						c0.158,0.149,0.183,0.393,0.057,0.569l-0.619,0.619c-0.089,0.077-0.205,0.115-0.322,0.105V29.501z M85.584,27.61
						c-0.175-0.002-0.33-0.108-0.396-0.27c-0.066-0.162-0.031-0.347,0.092-0.471l0.618-0.619c0.172-0.17,0.448-0.17,0.619,0
						c0.17,0.171,0.17,0.448,0,0.619l-0.619,0.619C85.813,27.57,85.7,27.613,85.584,27.61L85.584,27.61z M87.432,25.763
						c-0.175-0.002-0.331-0.109-0.397-0.27s-0.03-0.346,0.092-0.471l0.619-0.619c0.171-0.17,0.448-0.17,0.618,0
						c0.172,0.171,0.172,0.448,0,0.619l-0.618,0.619c-0.075,0.073-0.174,0.116-0.279,0.122H87.432z M89.278,23.916
						c-0.174-0.002-0.33-0.109-0.396-0.27s-0.03-0.347,0.093-0.471l0.617-0.619c0.171-0.171,0.448-0.171,0.62,0
						c0.17,0.17,0.17,0.447,0,0.619l-0.62,0.619c-0.075,0.073-0.174,0.116-0.279,0.122H89.278z"/>
				</g>
			</g>
		</g>
	</g>
</g>
</svg>
