<?xml version="1.0" encoding="utf-8"?>
<!-- Generator: Adobe Illustrator 16.0.0, SVG Export Plug-In . SVG Version: 6.00 Build 0)  -->
<!DOCTYPE svg PUBLIC "-//W3C//DTD SVG 1.1//EN" "http://www.w3.org/Graphics/SVG/1.1/DTD/svg11.dtd">
<svg version="1.1" id="Layer_1" xmlns="http://www.w3.org/2000/svg" xmlns:xlink="http://www.w3.org/1999/xlink" x="0px" y="0px"
	 width="140px" height="140px" viewBox="-25.5 10.5 140 140" enable-background="new -25.5 10.5 140 140" xml:space="preserve">
<title>D6CECDE9-2AC6-4BAC-9D31-49377BCFCD51</title>
<desc>Created with sketchtool.</desc>
<g id="Company">
	<g id="company_1280_redesigned" transform="translate(-596.000000, -887.000000)">
		<g id="Section-Benefits" transform="translate(0.000000, 866.000000)">
			<g id="item" transform="translate(505.000000, 20.000000)">
				<g id="deep_technology" transform="translate(91.000000, 0.000000)">
					<path id="Path" fill="#E8E8E8" d="M83.277,106.833c-9.198,0.817-18.069-3.628-22.921-11.484c-4.852-7.857-4.852-17.78,0-25.638
						s13.723-12.303,22.921-11.484c0-18.169,0-34.525,0-46.655c-25.729-1.16-50.015,11.9-63.232,34.005
						C6.828,67.68,6.816,95.257,20.014,117.372c13.197,22.115,37.473,35.197,63.203,34.06
						C83.225,137.524,83.277,122.258,83.277,106.833z"/>
					<circle id="Oval" fill="#E61F2D" cx="25.73" cy="64.727" r="3.817"/>
					<circle id="Oval_1_" fill="#E61F2D" cx="25.73" cy="82.591" r="3.816"/>
					<circle id="Oval_2_" fill="#E61F2D" cx="9.539" cy="82.591" r="3.816"/>
					<circle id="Oval_3_" fill="#E61F2D" cx="40.692" cy="64.727" r="1.743"/>
					<circle id="Oval_4_" fill="#E61F2D" cx="40.692" cy="82.591" r="1.743"/>
					<circle id="Oval_5_" fill="#E61F2D" cx="40.692" cy="98.816" r="1.743"/>
					<circle id="Oval_6_" fill="#E61F2D" cx="25.73" cy="98.816" r="1.743"/>
					<circle id="Oval_7_" fill="#E61F2D" cx="9.539" cy="98.816" r="1.743"/>
					<path id="Shape" fill="#E61F2D" d="M9.539,60.91c-2.107,0-3.816,1.709-3.816,3.816c0,2.108,1.709,3.817,3.816,3.817
						c2.108,0,3.817-1.709,3.817-3.817c0.002-1.013-0.399-1.984-1.116-2.701C11.524,61.31,10.552,60.908,9.539,60.91z M9.539,66.47
						c-0.962,0-1.743-0.78-1.743-1.743c0-0.962,0.78-1.742,1.743-1.742c0.963,0,1.743,0.78,1.743,1.742
						C11.282,65.689,10.502,66.47,9.539,66.47L9.539,66.47z"/>
				</g>
			</g>
		</g>
	</g>
</g>
</svg>
