<?xml version="1.0" encoding="utf-8"?>
<!-- Generator: Adobe Illustrator 16.0.0, SVG Export Plug-In . SVG Version: 6.00 Build 0)  -->
<!DOCTYPE svg PUBLIC "-//W3C//DTD SVG 1.1//EN" "http://www.w3.org/Graphics/SVG/1.1/DTD/svg11.dtd">
<svg version="1.1" id="Layer_1" xmlns="http://www.w3.org/2000/svg" xmlns:xlink="http://www.w3.org/1999/xlink" x="0px" y="0px"
	 width="140px" height="140px" viewBox="0 0 140 140" enable-background="new 0 0 140 140" xml:space="preserve">
<title>6C740A0A-C571-47D9-BBB2-087395A715AC</title>
<desc>Created with sketchtool.</desc>
<g id="Company">
	<g id="company_1280_redesigned" transform="translate(-221.000000, -897.000000)">
		<g id="Section-Benefits" transform="translate(0.000000, 866.000000)">
			<g id="item" transform="translate(155.000000, 31.000000)">
				
					<g id="half_circle_arrows-5cdeb85217f33b4391ed1ad5e6f720856c0bbee817b49470b959b2f3ec2d2a80" transform="translate(65.000000, 0.000000)">
					<path id="Path" fill="#E8E8E8" d="M100.01,76.317c-5.918,7.035-15.296,10.132-24.24,8.005
						c-8.942-2.127-15.922-9.114-18.04-18.06s0.989-18.32,8.029-24.231C52.963,29.228,41.436,17.7,32.862,9.17
						C13.905,26.486,5.989,52.814,12.252,77.714c6.264,24.899,25.695,44.348,50.589,50.633c24.894,6.286,51.229-1.606,68.562-20.549
						L100.01,76.317z"/>
					<path id="Path_1_" fill="#E61F2D" d="M85.069,51.856L56.342,80.583c-0.295,0.345-0.275,0.858,0.045,1.179
						c0.321,0.322,0.835,0.341,1.179,0.046L86.294,53.09l1.841,1.842l1.225-6.142l-6.133,1.208L85.069,51.856z"/>
					<path id="Shape" fill="#E61F2D" d="M55.916,71.714c-0.175,0.001-0.334-0.104-0.402-0.265s-0.033-0.349,0.09-0.474l0.608-0.617
						c0.105-0.125,0.272-0.18,0.431-0.143c0.159,0.037,0.284,0.16,0.323,0.319c0.039,0.157-0.013,0.324-0.136,0.433l-0.608,0.615
						C56.14,71.665,56.031,71.712,55.916,71.714z M57.74,69.846c-0.175,0.001-0.334-0.104-0.402-0.265
						c-0.068-0.161-0.033-0.348,0.09-0.473l0.608-0.617c0.105-0.125,0.271-0.18,0.431-0.143c0.159,0.038,0.284,0.16,0.323,0.318
						c0.04,0.158-0.013,0.326-0.137,0.433l-0.608,0.617c-0.088,0.071-0.2,0.105-0.313,0.095L57.74,69.846z M59.565,67.979
						c-0.176,0.001-0.334-0.103-0.403-0.265s-0.033-0.349,0.089-0.474l0.608-0.617c0.105-0.125,0.271-0.18,0.431-0.143
						c0.159,0.038,0.284,0.161,0.323,0.319c0.04,0.158-0.014,0.325-0.137,0.432l-0.608,0.617c-0.087,0.072-0.2,0.106-0.313,0.096
						L59.565,67.979z M61.415,66.085c-0.175,0.001-0.334-0.104-0.403-0.265c-0.068-0.161-0.033-0.348,0.09-0.473l0.608-0.617
						c0.106-0.125,0.271-0.18,0.431-0.143c0.159,0.037,0.284,0.16,0.323,0.318c0.04,0.159-0.013,0.325-0.137,0.433l-0.608,0.617
						C61.639,66.037,61.529,66.083,61.415,66.085z M63.239,64.217c-0.176,0.001-0.334-0.104-0.403-0.265
						c-0.068-0.162-0.033-0.348,0.09-0.473l0.607-0.617c0.171-0.149,0.429-0.141,0.59,0.018c0.162,0.16,0.173,0.417,0.026,0.59
						l-0.607,0.617c-0.091,0.093-0.218,0.141-0.348,0.13H63.239z M65.063,62.358c-0.176,0.001-0.334-0.104-0.402-0.265
						c-0.069-0.161-0.033-0.348,0.089-0.474l0.608-0.625c0.171-0.149,0.429-0.141,0.59,0.018c0.162,0.16,0.173,0.417,0.026,0.59
						l-0.608,0.625c-0.09,0.093-0.218,0.141-0.348,0.13H65.063z M66.887,60.491c-0.175,0.001-0.334-0.104-0.402-0.265
						c-0.068-0.161-0.033-0.348,0.09-0.473l0.608-0.626c0.171-0.148,0.428-0.141,0.589,0.019c0.162,0.159,0.173,0.416,0.027,0.589
						l-0.608,0.625c-0.09,0.093-0.218,0.141-0.347,0.13H66.887z"/>
					<path id="Shape_1_" fill="#E61F2D" d="M68.078,82.894c-0.175,0.001-0.334-0.104-0.403-0.266
						c-0.068-0.161-0.033-0.348,0.09-0.474l0.608-0.615c0.105-0.126,0.272-0.18,0.431-0.144c0.159,0.037,0.284,0.16,0.323,0.318
						c0.039,0.158-0.014,0.325-0.137,0.433l-0.608,0.617C68.301,82.846,68.192,82.892,68.078,82.894z M69.902,81.026
						c-0.175,0-0.334-0.104-0.403-0.266s-0.033-0.349,0.09-0.473l0.608-0.617c0.106-0.125,0.271-0.18,0.431-0.143
						s0.284,0.159,0.323,0.318c0.04,0.158-0.013,0.325-0.137,0.432l-0.607,0.617c-0.083,0.083-0.195,0.131-0.313,0.131H69.902z
						 M71.726,79.158c-0.175,0.001-0.334-0.104-0.402-0.265c-0.068-0.162-0.033-0.349,0.09-0.473l0.608-0.618
						c0.104-0.124,0.271-0.18,0.43-0.143c0.159,0.038,0.284,0.16,0.323,0.319c0.04,0.157-0.014,0.325-0.137,0.432l-0.607,0.617
						c-0.081,0.087-0.194,0.137-0.313,0.139L71.726,79.158z M73.576,77.299c-0.175,0.002-0.334-0.104-0.402-0.265
						s-0.034-0.348,0.09-0.473l0.607-0.617c0.105-0.125,0.271-0.18,0.432-0.144c0.158,0.037,0.283,0.161,0.322,0.319
						c0.039,0.157-0.014,0.325-0.137,0.433l-0.608,0.615C73.8,77.251,73.69,77.298,73.576,77.299z M75.4,75.431
						c-0.175,0.002-0.335-0.103-0.402-0.265c-0.068-0.161-0.033-0.348,0.09-0.473l0.607-0.616c0.105-0.126,0.271-0.18,0.431-0.144
						c0.159,0.037,0.283,0.16,0.322,0.318c0.04,0.158-0.013,0.326-0.136,0.433l-0.608,0.617c-0.089,0.097-0.216,0.147-0.348,0.139
						L75.4,75.431z M77.225,73.573c-0.176,0-0.334-0.104-0.403-0.266c-0.067-0.162-0.032-0.349,0.091-0.474l0.607-0.625
						c0.105-0.124,0.271-0.18,0.431-0.143s0.283,0.16,0.323,0.318c0.04,0.159-0.014,0.325-0.137,0.432l-0.608,0.626
						c-0.091,0.094-0.218,0.141-0.347,0.131H77.225z M79.005,71.714c-0.175,0.001-0.334-0.104-0.401-0.265
						c-0.069-0.161-0.034-0.349,0.09-0.474l0.607-0.625c0.104-0.125,0.271-0.18,0.431-0.143c0.158,0.038,0.283,0.16,0.322,0.319
						c0.039,0.157-0.014,0.325-0.137,0.432l-0.608,0.625C79.229,71.665,79.12,71.712,79.005,71.714z"/>
				</g>
			</g>
		</g>
	</g>
</g>
</svg>
