<?xml version="1.0" encoding="utf-8"?>
<!-- Generator: Adobe Illustrator 25.0.1, SVG Export Plug-In . SVG Version: 6.00 Build 0)  -->
<svg version="1.1" id="Layer_1" xmlns="http://www.w3.org/2000/svg" xmlns:xlink="http://www.w3.org/1999/xlink" x="0px" y="0px"
	 viewBox="0 0 500 500" style="enable-background:new 0 0 500 500;" xml:space="preserve">
<style type="text/css">
	.st0{enable-background:new    ;}
	.st1{opacity:0.11;}
	.st2{opacity:0.9608;fill:#1D4B5B;enable-background:new    ;}
	.st3{opacity:0.9608;clip-path:url(#SVGID_1_);enable-background:new    ;}
	.st4{fill:#1D546D;}
	.st5{opacity:0.9608;clip-path:url(#SVGID_2_);enable-background:new    ;}
	.st6{opacity:0.9608;enable-background:new    ;}
	.st7{opacity:0.9608;fill:#5B838E;enable-background:new    ;}
	.st8{opacity:0.9608;clip-path:url(#SVGID_3_);enable-background:new    ;}
	.st9{fill:#EDF8FF;}
	.st10{fill:#1D4B5B;}
	.st11{fill:none;stroke:#1D546D;stroke-width:0.7001;stroke-miterlimit:10;}
	.st12{fill:none;stroke:#1D546D;stroke-width:0.7001;stroke-linecap:round;stroke-miterlimit:10;}
	.st13{fill:none;stroke:#1D546D;stroke-width:0.7001;stroke-linecap:round;stroke-linejoin:round;stroke-miterlimit:10;}
	.st14{fill:#C7E0EF;}
	.st15{fill:#FFFFFF;}
	.st16{fill:#ABD77E;}
	.st17{fill:#DBA76E;}
	.st18{fill:#D1E9F5;}
	.st19{fill:#E8F5FD;}
	.st20{fill:#B1D3DD;}
	.st21{fill:#95DBE5;}
	.st22{fill:#73A9B1;}
	.st23{fill:#80BDC5;}
	.st24{fill:#C1DEEA;}
	.st25{fill:#FD8257;}
	.st26{fill:#D36C5E;}
	.st27{fill:#5CAD5C;}
	.st28{fill:#66BB68;}
	.st29{fill:#CA614E;}
	.st30{fill:#7AE2E2;}
</style>
<g>
	<g>
		<g>
			<g>
				<g>
					<g class="st0">
						<g class="st1">
							<path class="st2" d="M314.6,226.5c-4.6-2.7-12.1-2.7-16.7,0L32.6,380.7c-4.5,2.7-4.5,7,0.1,9.6L170.8,470
								c4.6,2.7,12.1,2.7,16.7,0l265.2-154.2c4.5-2.7,4.5-7-0.1-9.6L314.6,226.5z"/>
						</g>
						<g class="st0">
							<g>
								<defs>
									<path id="SVGID_7_" d="M458.9,307.5v-19.3c0,1.8-1.2,3.4-3.4,4.8v19.3C457.7,311,458.9,309.3,458.9,307.5z"/>
								</defs>
								<use xlink:href="#SVGID_7_"  style="overflow:visible;fill:#1D546D;"/>
								<clipPath id="SVGID_1_">
									<use xlink:href="#SVGID_7_"  style="overflow:visible;"/>
								</clipPath>
								<g class="st3">
									<path class="st4" d="M455.4,293v19.3c0.2-0.1,0.3-0.2,0.5-0.3v-19.3C455.8,292.8,455.6,292.9,455.4,293"/>
									<path class="st4" d="M455.9,292.7V312c2-1.3,2.9-2.8,2.9-4.5v-19.3C458.9,289.9,457.9,291.4,455.9,292.7"/>
								</g>
							</g>
						</g>
						<g class="st0">
							<g>
								<defs>
									<path id="SVGID_9_" d="M31.9,362.7V382c0,1.8,1.2,3.5,3.4,4.8v-19.3C33.1,366.2,31.9,364.5,31.9,362.7z"/>
								</defs>
								<use xlink:href="#SVGID_9_"  style="overflow:visible;fill:#1D546D;"/>
								<clipPath id="SVGID_2_">
									<use xlink:href="#SVGID_9_"  style="overflow:visible;"/>
								</clipPath>
								<g class="st5">
									<path class="st4" d="M31.9,362.7V382c0,1.2,0.5,2.4,1.6,3.3V366C32.4,365.1,31.9,363.9,31.9,362.7"/>
									<path class="st4" d="M33.5,366v19.3c0.5,0.5,1.2,1,2,1.5v-19.3C34.6,367.1,34,366.6,33.5,366"/>
								</g>
							</g>
						</g>
						<g class="st6">
							<polygon class="st4" points="190.1,447.2 190.1,466.5 455.4,312.3 455.4,293 							"/>
						</g>
						<g class="st6">
							<polygon class="st4" points="34.3,366.9 34.6,386.4 173.4,466.5 173.4,447.2 							"/>
						</g>
						<g>
							<path class="st7" d="M317.3,203.7c-4.6-2.7-12.1-2.7-16.7,0L35.3,357.9c-4.5,2.7-4.5,7,0.1,9.6l138.1,79.7
								c4.6,2.7,12.1,2.7,16.7,0L455.4,293c4.5-2.7,4.5-7-0.1-9.6L317.3,203.7z"/>
						</g>
						<g class="st0">
							<g>
								<defs>
									<path id="SVGID_11_" d="M173.4,447.2v19.3c4.6,2.7,12.1,2.7,16.7,0v-19.3C185.5,449.9,178.1,449.9,173.4,447.2z"/>
								</defs>
								<use xlink:href="#SVGID_11_"  style="overflow:visible;fill:#1D546D;"/>
								<clipPath id="SVGID_3_">
									<use xlink:href="#SVGID_11_"  style="overflow:visible;"/>
								</clipPath>
								<g class="st8">
									<path class="st4" d="M173.4,447.2v19.3c0.2,0.1,0.4,0.2,0.6,0.3v-19.3C173.8,447.4,173.6,447.3,173.4,447.2"/>
									<path class="st4" d="M174,447.6v19.3c3.7,1.9,9.1,2.2,13.5,0.8v-19.3C183.3,449.8,177.9,449.5,174,447.6"/>
									<path class="st4" d="M187.5,448.4v19.3c1-0.3,1.9-0.7,2.7-1.2v-19.3C189.4,447.7,188.5,448.1,187.5,448.4"/>
								</g>
							</g>
						</g>
					</g>
				</g>
			</g>
		</g>
		<g>
			<polygon class="st9" points="282.4,219.5 67.1,344.7 210.6,427.7 426,302.5 			"/>
		</g>
		<path class="st10" d="M388.9,262c-1.2-0.7-3.1-0.7-4.4,0c-1.2,0.7-1.2,1.9,0,2.6c1.2,0.7,3.1,0.7,4.4,0
			C390.2,263.7,390.2,262.6,388.9,262z"/>
		<path class="st10" d="M360.2,246c-0.9-0.5-2.3-0.5-3.1,0c-0.9,0.5-0.9,1.3,0,1.8l18.9,10.9c0.9,0.5,2.3,0.5,3.1,0
			c0.9-0.5,0.9-1.3,0-1.9L360.2,246z"/>
		<path class="st11" d="M122.3,394c-1-0.6-2.6-0.6-3.6,0l-2.3,1.3c-1,0.6-1,1.5,0,2l2.6,1.5c1,0.6,2.6,0.6,3.6,0l2.3-1.3
			c1-0.6,1-1.5,0-2L122.3,394z"/>
		<g>
			<line class="st12" x1="166" y1="419.8" x2="162.3" y2="417.6"/>
			<line class="st12" x1="164.4" y1="420.9" x2="160.6" y2="418.7"/>
			<line class="st12" x1="162.6" y1="421.9" x2="158.8" y2="419.7"/>
		</g>
		<polyline class="st13" points="81,372.4 81.6,375.4 78.2,375.4 		"/>
	</g>
	<polygon class="st14" points="404.5,315.2 426,302.5 282.4,219.5 261,232.3 	"/>
	<g>
		<polygon class="st15" points="186.5,287.4 182.7,289.5 303.1,359.1 306.9,357 		"/>
	</g>
	<g>
		<polygon class="st15" points="172.4,295.9 168.7,298 289.1,367.6 292.9,365.4 		"/>
	</g>
	<g>
		<polygon class="st15" points="158.1,304.1 154.4,306.2 274.8,375.7 278.6,373.6 		"/>
	</g>
	<g>
		<polygon class="st15" points="144.1,312.6 140.4,314.7 260.8,384.2 264.6,382.1 		"/>
	</g>
	<g>
		<g>
			<path class="st16" d="M397.3,293.8c1,0.6,1,1.5,0,2.1l-85.4,49.8c-1,0.6-2.7,0.6-3.7,0l-114.3-66c-1-0.6-1-1.5,0-2.1l85.4-49.8
				c1-0.6,2.7-0.6,3.7,0L397.3,293.8z"/>
		</g>
	</g>
	<g>
		<g class="st0">
			<g>
				<polygon class="st17" points="344.5,283.9 286.2,250.6 285.6,98.7 344,131.9 				"/>
			</g>
			<g>
				<polygon class="st17" points="229.4,282.8 285.1,250.6 285.6,98.7 228.9,130.8 				"/>
			</g>
			<g>
				<polygon class="st18" points="344,132 344.5,283.9 287.8,316 287.2,164.1 				"/>
			</g>
			<g>
				<polygon class="st19" points="287.8,316 229.4,282.8 228.9,130.8 287.2,164.1 				"/>
			</g>
			<g>
				<polygon class="st20" points="287.2,164.1 228.9,130.8 285.6,98.7 344,132 				"/>
			</g>
			<g>
				<g class="st0">
					<polygon class="st21" points="240,173.2 237.1,171.5 237.1,183.9 247.8,190.1 247.8,186.7 247.8,177.7 					"/>
					<g>
						<polygon class="st22" points="235.2,170.4 237.1,171.5 237.1,183.9 235.1,185 						"/>
					</g>
					<g>
						<polygon class="st23" points="235.1,185 237.1,183.9 247.8,190.1 247.8,192.3 						"/>
					</g>
				</g>
			</g>
			<g>
				<g class="st0">
					<polygon class="st21" points="256.6,182.7 253.6,181 253.6,193.4 264.4,199.6 264.4,196.2 264.4,187.2 					"/>
					<g>
						<polygon class="st22" points="251.7,179.9 253.6,181 253.6,193.4 251.7,194.5 						"/>
					</g>
					<g>
						<polygon class="st23" points="251.7,194.5 253.6,193.4 264.4,199.6 264.4,201.8 						"/>
					</g>
				</g>
			</g>
			<g>
				<g class="st0">
					<polygon class="st21" points="273.1,192.1 270.2,190.4 270.1,202.8 280.9,209 280.9,205.6 280.9,196.7 					"/>
					<g>
						<polygon class="st22" points="268.2,189.3 270.2,190.4 270.1,202.8 268.2,203.9 						"/>
					</g>
					<g>
						<polygon class="st23" points="268.2,203.9 270.1,202.8 280.9,209 280.9,211.3 						"/>
					</g>
				</g>
			</g>
			<g>
				<g class="st0">
					<polygon class="st21" points="240,196.4 237.1,194.7 237.1,207.1 247.8,213.3 247.8,209.9 247.8,200.9 					"/>
					<g>
						<polygon class="st22" points="235.2,193.6 237.1,194.7 237.1,207.1 235.1,208.2 						"/>
					</g>
					<g>
						<polygon class="st23" points="235.1,208.2 237.1,207.1 247.8,213.3 247.8,215.6 						"/>
					</g>
				</g>
			</g>
			<g>
				<g class="st0">
					<polygon class="st21" points="256.6,205.9 253.6,204.2 253.6,216.6 264.4,222.8 264.4,219.4 264.4,210.4 					"/>
					<g>
						<polygon class="st22" points="251.7,203.1 253.6,204.2 253.6,216.6 251.7,217.7 						"/>
					</g>
					<g>
						<polygon class="st23" points="251.7,217.7 253.6,216.6 264.4,222.8 264.4,225 						"/>
					</g>
				</g>
			</g>
			<g>
				<g class="st0">
					<polygon class="st21" points="273.1,215.4 270.2,213.7 270.1,226 280.9,232.2 280.9,228.9 280.9,219.9 					"/>
					<g>
						<polygon class="st22" points="268.2,212.5 270.2,213.7 270.1,226 268.2,227.1 						"/>
					</g>
					<g>
						<polygon class="st23" points="268.2,227.2 270.1,226 280.9,232.2 280.9,234.5 						"/>
					</g>
				</g>
			</g>
			<g>
				<g class="st0">
					<polygon class="st21" points="240,219.7 237.1,217.9 237.1,230.3 247.8,236.5 247.8,233.2 247.8,224.2 					"/>
					<g>
						<polygon class="st22" points="235.2,216.8 237.1,217.9 237.1,230.3 235.1,231.4 						"/>
					</g>
					<g>
						<polygon class="st23" points="235.1,231.4 237.1,230.3 247.8,236.5 247.8,238.8 						"/>
					</g>
				</g>
			</g>
			<g>
				<g class="st0">
					<polygon class="st21" points="256.6,229.1 253.6,227.4 253.6,239.8 264.4,246 264.4,242.6 264.4,233.6 					"/>
					<g>
						<polygon class="st22" points="251.7,226.3 253.6,227.4 253.6,239.8 251.7,240.9 						"/>
					</g>
					<g>
						<polygon class="st23" points="251.7,240.9 253.6,239.8 264.4,246 264.4,248.3 						"/>
					</g>
				</g>
			</g>
			<g>
				<g class="st0">
					<polygon class="st21" points="273.1,238.6 270.2,236.9 270.1,249.2 280.9,255.4 280.9,252.1 280.9,243.1 					"/>
					<g>
						<polygon class="st22" points="268.2,235.7 270.2,236.9 270.1,249.2 268.2,250.4 						"/>
					</g>
					<g>
						<polygon class="st23" points="268.2,250.4 270.1,249.2 280.9,255.4 280.9,257.7 						"/>
					</g>
				</g>
			</g>
			<g>
				<g class="st0">
					<polygon class="st21" points="240,242.9 237.1,241.2 237.1,253.5 247.8,259.7 247.8,256.4 247.8,247.4 					"/>
					<g>
						<polygon class="st22" points="235.2,240 237.1,241.2 237.1,253.5 235.1,254.7 						"/>
					</g>
					<g>
						<polygon class="st23" points="235.1,254.7 237.1,253.5 247.8,259.7 247.8,262 						"/>
					</g>
				</g>
			</g>
			<g>
				<g class="st0">
					<polygon class="st21" points="256.6,252.4 253.6,250.6 253.6,263 264.4,269.2 264.4,265.9 264.4,256.9 					"/>
					<g>
						<polygon class="st22" points="251.7,249.5 253.6,250.6 253.6,263 251.7,264.1 						"/>
					</g>
					<g>
						<polygon class="st23" points="251.7,264.1 253.6,263 264.4,269.2 264.4,271.5 						"/>
					</g>
				</g>
			</g>
			<g>
				<g class="st0">
					<polygon class="st21" points="273.1,261.8 270.2,260.1 270.1,272.4 280.9,278.7 280.9,275.3 280.9,266.3 					"/>
					<g>
						<polygon class="st22" points="268.2,259 270.2,260.1 270.1,272.4 268.2,273.6 						"/>
					</g>
					<g>
						<polygon class="st23" points="268.2,273.6 270.1,272.4 280.9,278.7 280.9,280.9 						"/>
					</g>
				</g>
			</g>
			<g>
				<g class="st0">
					<polygon class="st21" points="240,266.1 237.1,264.4 237.1,276.7 247.8,283 247.8,279.6 247.8,270.6 					"/>
					<g>
						<polygon class="st22" points="235.2,263.3 237.1,264.4 237.1,276.7 235.1,277.9 						"/>
					</g>
					<g>
						<polygon class="st23" points="235.1,277.9 237.1,276.7 247.8,283 247.8,285.2 						"/>
					</g>
				</g>
			</g>
			<g>
				<g class="st0">
					<polygon class="st21" points="256.6,275.6 253.6,273.9 253.6,286.2 264.4,292.4 264.4,289.1 264.4,280.1 					"/>
					<g>
						<polygon class="st22" points="251.7,272.7 253.6,273.9 253.6,286.2 251.7,287.4 						"/>
					</g>
					<g>
						<polygon class="st23" points="251.7,287.4 253.6,286.2 264.4,292.4 264.4,294.7 						"/>
					</g>
				</g>
			</g>
			<g>
				<g class="st0">
					<polygon class="st21" points="273.1,285 270.2,283.3 270.1,295.7 280.9,301.9 280.9,298.5 280.9,289.5 					"/>
					<g>
						<polygon class="st22" points="268.2,282.2 270.2,283.3 270.1,295.7 268.2,296.8 						"/>
					</g>
					<g>
						<polygon class="st23" points="268.2,296.8 270.1,295.7 280.9,301.9 280.9,304.1 						"/>
					</g>
				</g>
			</g>
			<g>
				<g class="st0">
					<polygon class="st21" points="334.2,173.2 337.1,171.5 337.2,183.9 326.4,190.1 326.4,186.7 326.4,177.7 					"/>
					<g>
						<polygon class="st22" points="339.1,170.4 337.1,171.5 337.2,183.9 339.1,185 						"/>
					</g>
					<g>
						<polygon class="st23" points="339.1,185 337.2,183.9 326.4,190.1 326.4,192.3 						"/>
					</g>
				</g>
			</g>
			<g>
				<g class="st0">
					<polygon class="st21" points="317.6,182.7 320.6,181 320.6,193.4 309.9,199.6 309.9,196.2 309.8,187.2 					"/>
					<g>
						<polygon class="st22" points="322.5,179.9 320.6,181 320.6,193.4 322.6,194.5 						"/>
					</g>
					<g>
						<polygon class="st23" points="322.6,194.5 320.6,193.4 309.9,199.6 309.9,201.8 						"/>
					</g>
				</g>
			</g>
			<g>
				<g class="st0">
					<polygon class="st21" points="301.1,192.1 304.1,190.4 304.1,202.8 293.3,209 293.3,205.6 293.3,196.7 					"/>
					<g>
						<polygon class="st22" points="306,189.3 304.1,190.4 304.1,202.8 306,203.9 						"/>
					</g>
					<g>
						<polygon class="st23" points="306,203.9 304.1,202.8 293.3,209 293.3,211.3 						"/>
					</g>
				</g>
			</g>
			<g>
				<g class="st0">
					<polygon class="st21" points="240,150.2 237.1,148.5 237.1,160.9 247.8,167.1 247.8,163.7 247.8,154.7 					"/>
					<g>
						<polygon class="st22" points="235.2,147.4 237.1,148.5 237.1,160.9 235.1,162 						"/>
					</g>
					<g>
						<polygon class="st23" points="235.1,162 237.1,160.9 247.8,167.1 247.8,169.3 						"/>
					</g>
				</g>
			</g>
			<g>
				<g class="st0">
					<polygon class="st21" points="256.6,159.7 253.6,158 253.6,170.4 264.4,176.6 264.4,173.2 264.4,164.2 					"/>
					<g>
						<polygon class="st22" points="251.7,156.9 253.6,158 253.6,170.4 251.7,171.5 						"/>
					</g>
					<g>
						<polygon class="st23" points="251.7,171.5 253.6,170.4 264.4,176.6 264.4,178.8 						"/>
					</g>
				</g>
			</g>
			<g>
				<g class="st0">
					<polygon class="st21" points="273.1,169.1 270.2,167.4 270.1,179.8 280.9,186 280.9,182.6 280.9,173.6 					"/>
					<g>
						<polygon class="st22" points="268.2,166.3 270.2,167.4 270.1,179.8 268.2,180.9 						"/>
					</g>
					<g>
						<polygon class="st23" points="268.2,180.9 270.1,179.8 280.9,186 280.9,188.2 						"/>
					</g>
				</g>
			</g>
			<g>
				<g class="st0">
					<polygon class="st21" points="334.2,150.2 337.1,148.5 337.2,160.9 326.4,167.1 326.4,163.7 326.4,154.7 					"/>
					<g>
						<polygon class="st22" points="339.1,147.4 337.1,148.5 337.2,160.9 339.1,162 						"/>
					</g>
					<g>
						<polygon class="st23" points="339.1,162 337.2,160.9 326.4,167.1 326.4,169.3 						"/>
					</g>
				</g>
			</g>
			<g>
				<g class="st0">
					<polygon class="st21" points="317.6,159.7 320.6,158 320.6,170.4 309.9,176.6 309.9,173.2 309.8,164.2 					"/>
					<g>
						<polygon class="st22" points="322.5,156.9 320.6,158 320.6,170.4 322.6,171.5 						"/>
					</g>
					<g>
						<polygon class="st23" points="322.6,171.5 320.6,170.4 309.9,176.6 309.9,178.8 						"/>
					</g>
				</g>
			</g>
			<g>
				<g class="st0">
					<polygon class="st21" points="301.1,169.1 304.1,167.4 304.1,179.8 293.3,186 293.3,182.6 293.3,173.6 					"/>
					<g>
						<polygon class="st22" points="306,166.3 304.1,167.4 304.1,179.8 306,180.9 						"/>
					</g>
					<g>
						<polygon class="st23" points="306,180.9 304.1,179.8 293.3,186 293.3,188.2 						"/>
					</g>
				</g>
			</g>
			<g>
				<g class="st0">
					<polygon class="st21" points="334.2,196.4 337.1,194.7 337.2,207.1 326.4,213.3 326.4,209.9 326.4,200.9 					"/>
					<g>
						<polygon class="st22" points="339.1,193.6 337.1,194.7 337.2,207.1 339.1,208.2 						"/>
					</g>
					<g>
						<polygon class="st23" points="339.1,208.2 337.2,207.1 326.4,213.3 326.4,215.6 						"/>
					</g>
				</g>
			</g>
			<g>
				<g class="st0">
					<polygon class="st21" points="317.6,205.9 320.6,204.2 320.6,216.6 309.9,222.8 309.9,219.4 309.8,210.4 					"/>
					<g>
						<polygon class="st22" points="322.5,203.1 320.6,204.2 320.6,216.6 322.6,217.7 						"/>
					</g>
					<g>
						<polygon class="st23" points="322.6,217.7 320.6,216.6 309.9,222.8 309.9,225 						"/>
					</g>
				</g>
			</g>
			<g>
				<g class="st0">
					<polygon class="st21" points="301.1,215.4 304.1,213.7 304.1,226 293.3,232.2 293.3,228.9 293.3,219.9 					"/>
					<g>
						<polygon class="st22" points="306,212.5 304.1,213.7 304.1,226 306,227.1 						"/>
					</g>
					<g>
						<polygon class="st23" points="306,227.2 304.1,226 293.3,232.2 293.3,234.5 						"/>
					</g>
				</g>
			</g>
			<g>
				<g class="st0">
					<polygon class="st21" points="334.2,219.7 337.1,217.9 337.2,230.3 326.4,236.5 326.4,233.2 326.4,224.2 					"/>
					<g>
						<polygon class="st22" points="339.1,216.8 337.1,217.9 337.2,230.3 339.1,231.4 						"/>
					</g>
					<g>
						<polygon class="st23" points="339.1,231.4 337.2,230.3 326.4,236.5 326.4,238.8 						"/>
					</g>
				</g>
			</g>
			<g>
				<g class="st0">
					<polygon class="st21" points="317.6,229.1 320.6,227.4 320.6,239.8 309.9,246 309.9,242.6 309.8,233.6 					"/>
					<g>
						<polygon class="st22" points="322.5,226.3 320.6,227.4 320.6,239.8 322.6,240.9 						"/>
					</g>
					<g>
						<polygon class="st23" points="322.6,240.9 320.6,239.8 309.9,246 309.9,248.3 						"/>
					</g>
				</g>
			</g>
			<g>
				<g class="st0">
					<polygon class="st21" points="301.1,238.6 304.1,236.9 304.1,249.2 293.3,255.4 293.3,252.1 293.3,243.1 					"/>
					<g>
						<polygon class="st22" points="306,235.7 304.1,236.9 304.1,249.2 306,250.4 						"/>
					</g>
					<g>
						<polygon class="st23" points="306,250.4 304.1,249.2 293.3,255.4 293.3,257.7 						"/>
					</g>
				</g>
			</g>
			<g>
				<g class="st0">
					<polygon class="st21" points="334.2,242.9 337.1,241.2 337.2,253.5 326.4,259.7 326.4,256.4 326.4,247.4 					"/>
					<g>
						<polygon class="st22" points="339.1,240 337.1,241.2 337.2,253.5 339.1,254.7 						"/>
					</g>
					<g>
						<polygon class="st23" points="339.1,254.7 337.2,253.5 326.4,259.7 326.4,262 						"/>
					</g>
				</g>
			</g>
			<g>
				<g class="st0">
					<polygon class="st21" points="317.6,252.4 320.6,250.6 320.6,263 309.9,269.2 309.9,265.9 309.8,256.9 					"/>
					<g>
						<polygon class="st22" points="322.5,249.5 320.6,250.6 320.6,263 322.6,264.1 						"/>
					</g>
					<g>
						<polygon class="st23" points="322.6,264.1 320.6,263 309.9,269.2 309.9,271.5 						"/>
					</g>
				</g>
			</g>
			<g>
				<g class="st0">
					<polygon class="st21" points="301.1,261.8 304.1,260.1 304.1,272.4 293.3,278.7 293.3,275.3 293.3,266.3 					"/>
					<g>
						<polygon class="st22" points="306,259 304.1,260.1 304.1,272.4 306,273.6 						"/>
					</g>
					<g>
						<polygon class="st23" points="306,273.6 304.1,272.4 293.3,278.7 293.3,280.9 						"/>
					</g>
				</g>
			</g>
			<g>
				<g class="st0">
					<polygon class="st21" points="334.2,266.1 337.1,264.4 337.2,276.7 326.4,283 326.4,279.6 326.4,270.6 					"/>
					<g>
						<polygon class="st22" points="339.1,263.3 337.1,264.4 337.2,276.7 339.1,277.9 						"/>
					</g>
					<g>
						<polygon class="st23" points="339.1,277.9 337.2,276.7 326.4,283 326.4,285.2 						"/>
					</g>
				</g>
			</g>
			<g>
				<g class="st0">
					<polygon class="st21" points="317.6,275.6 320.6,273.9 320.6,286.2 309.9,292.4 309.9,289.1 309.8,280.1 					"/>
					<g>
						<polygon class="st22" points="322.5,272.7 320.6,273.9 320.6,286.2 322.6,287.4 						"/>
					</g>
					<g>
						<polygon class="st23" points="322.6,287.4 320.6,286.2 309.9,292.4 309.9,294.7 						"/>
					</g>
				</g>
			</g>
			<g>
				<g class="st0">
					<polygon class="st21" points="301.1,285 304.1,283.3 304.1,295.7 293.3,301.9 293.3,298.5 293.3,289.5 					"/>
					<g>
						<polygon class="st22" points="306,282.2 304.1,283.3 304.1,295.7 306,296.8 						"/>
					</g>
					<g>
						<polygon class="st23" points="306,296.8 304.1,295.7 293.3,301.9 293.3,304.1 						"/>
					</g>
				</g>
			</g>
		</g>
		<g>
			<path class="st4" d="M249.8,118.2c0,0.2,0.1,0.4,0.4,0.6c0.6,0.3,1.4,0.3,2,0c0.3-0.2,0.4-0.4,0.4-0.6l0,8c0,0.2-0.1,0.4-0.4,0.6
				c-0.5,0.3-1.4,0.3-2,0c-0.3-0.2-0.4-0.4-0.4-0.6L249.8,118.2z"/>
			<path class="st4" d="M298.1,145.4c0,0.2,0.1,0.4,0.4,0.6c0.6,0.3,1.4,0.3,2,0c0.3-0.2,0.4-0.4,0.4-0.6l0,8c0,0.2-0.1,0.4-0.4,0.6
				c-0.5,0.3-1.4,0.3-2,0c-0.3-0.2-0.4-0.4-0.4-0.6L298.1,145.4z"/>
			<g>
				<polygon class="st18" points="303.5,123.9 304,147.3 299.5,149.8 299,126.4 				"/>
			</g>
			<g>
				<polygon class="st19" points="299.5,149.8 247.1,119.9 246.7,96.6 299,126.4 				"/>
			</g>
			<g>
				<polygon class="st24" points="299,126.4 246.7,96.6 251.1,94.1 303.5,123.9 				"/>
			</g>
			<g>
				<g class="st0">
					<g>
						<path class="st25" d="M258,109.4c0.1,0.1,0.2,0.2,0.3,0.3c0.1,0.1,0.1,0.3,0.1,0.4l0,10.7c0,0.1,0,0.2-0.1,0.2
							c-0.1,0-0.2,0-0.3,0l-1.9-1.1c-0.1-0.1-0.2-0.2-0.3-0.3c-0.1-0.1-0.1-0.3-0.1-0.4l0-4.1l-3.2-1.8l0,4.1c0,0.1,0,0.2-0.1,0.2
							c-0.1,0-0.2,0-0.3,0l-1.9-1.1c-0.1-0.1-0.2-0.2-0.3-0.3c-0.1-0.1-0.1-0.3-0.1-0.4l0-10.7c0-0.1,0-0.2,0.1-0.2
							c0.1-0.1,0.2,0,0.3,0l1.9,1.1c0.1,0.1,0.2,0.2,0.3,0.3c0.1,0.1,0.1,0.3,0.1,0.4l0,4l3.2,1.8l0-4c0-0.1,0-0.2,0.1-0.2
							c0.1-0.1,0.2,0,0.3,0L258,109.4z"/>
					</g>
				</g>
				<g class="st0">
					<g>
						<path class="st25" d="M269,120.1c0,0.5,0,1,0,1.5c0,0.5,0,1,0,1.4c0,0.6-0.1,1.1-0.4,1.5c-0.2,0.4-0.5,0.7-0.9,0.9
							c-0.4,0.2-0.8,0.2-1.4,0.2c-0.5-0.1-1.2-0.3-1.9-0.7c-0.7-0.4-1.3-0.9-1.9-1.4c-0.5-0.6-1-1.1-1.4-1.8
							c-0.4-0.6-0.7-1.3-0.9-1.9c-0.2-0.7-0.3-1.3-0.3-2c0-0.5,0-1,0-1.5c0-0.5,0-1,0-1.5c0-0.6,0.1-1.1,0.4-1.5
							c0.2-0.4,0.5-0.7,0.9-0.9c0.4-0.2,0.8-0.2,1.4-0.2c0.5,0.1,1.2,0.3,1.9,0.7c0.7,0.4,1.3,0.9,1.9,1.4c0.5,0.6,1,1.1,1.4,1.8
							c0.4,0.6,0.7,1.3,0.9,1.9C268.9,118.8,269,119.5,269,120.1z M266.4,120.8c0-0.2,0-0.5,0-0.7c0-0.2,0-0.5,0-0.7
							c0-0.2,0-0.5,0-0.7c0-0.3-0.1-0.6-0.2-0.9c-0.1-0.3-0.2-0.5-0.3-0.8c-0.2-0.3-0.3-0.5-0.6-0.7c-0.2-0.2-0.5-0.4-0.8-0.6
							c-0.3-0.2-0.6-0.3-0.8-0.3c-0.2,0-0.4,0-0.6,0.1c-0.1,0.1-0.3,0.2-0.3,0.4c-0.1,0.2-0.1,0.4-0.1,0.7c0,0.2,0,0.4,0,0.6
							c0,0.2,0,0.5,0,0.7c0,0.3,0,0.5,0,0.8c0,0.2,0,0.5,0,0.7c0,0.6,0.2,1.1,0.5,1.7c0.3,0.5,0.7,1,1.3,1.3c0.6,0.3,1,0.4,1.3,0.2
							c0.3-0.2,0.5-0.6,0.5-1.1C266.4,121.2,266.4,121,266.4,120.8"/>
					</g>
				</g>
				<g class="st0">
					<g>
						<path class="st25" d="M278,120.9c0.1,0.1,0.2,0.2,0.3,0.3c0.1,0.1,0.1,0.3,0.1,0.4l0,1.8c0,0.1,0,0.2-0.1,0.2
							c-0.1,0-0.2,0-0.3,0l-2.5-1.5l0,8.5c0,0.1,0,0.2-0.1,0.2c-0.1,0-0.2,0-0.3,0l-1.9-1.1c-0.1-0.1-0.2-0.2-0.3-0.3
							c-0.1-0.1-0.1-0.3-0.1-0.4l0-8.5l-2.5-1.5c-0.1-0.1-0.2-0.2-0.3-0.3c-0.1-0.1-0.1-0.3-0.1-0.4l0-1.8c0-0.1,0-0.2,0.1-0.2
							c0.1-0.1,0.2,0,0.3,0L278,120.9z"/>
					</g>
				</g>
				<g class="st0">
					<g>
						<path class="st25" d="M286.8,126c0.1,0.1,0.2,0.2,0.3,0.3c0.1,0.1,0.1,0.3,0.1,0.4l0,1.8c0,0.1,0,0.2-0.1,0.2
							c-0.1,0-0.2,0-0.3,0l-4.4-2.6l0,1.8l4.1,2.4c0.1,0.1,0.2,0.2,0.3,0.3c0.1,0.1,0.1,0.3,0.1,0.4l0,1.8c0,0.1,0,0.2-0.1,0.2
							c-0.1,0-0.2,0-0.3,0l-4.1-2.4l0,1.9l4.6,2.6c0.1,0.1,0.2,0.1,0.3,0.3c0.1,0.1,0.1,0.3,0.1,0.4l0,1.8c0,0.1,0,0.2-0.1,0.2
							c-0.1,0-0.2,0-0.3,0l-6.8-3.9c-0.1-0.1-0.2-0.2-0.3-0.3c-0.1-0.1-0.1-0.3-0.1-0.4l0-10.7c0-0.1,0-0.2,0.1-0.2
							c0.1-0.1,0.2,0,0.3,0L286.8,126z"/>
					</g>
				</g>
				<g class="st0">
					<g>
						<path class="st25" d="M291.2,128.6c0.1,0.1,0.2,0.2,0.3,0.3c0.1,0.1,0.1,0.3,0.1,0.4l0,8.5l4.4,2.5c0.1,0.1,0.2,0.1,0.3,0.3
							c0.1,0.1,0.1,0.3,0.1,0.4l0,1.8c0,0.1,0,0.2-0.1,0.2c-0.1,0-0.2,0-0.3,0l-6.7-3.9c-0.1-0.1-0.2-0.2-0.3-0.3
							c-0.1-0.1-0.1-0.3-0.1-0.4l0-10.7c0-0.1,0-0.2,0.1-0.2c0.1,0,0.2,0,0.3,0L291.2,128.6z"/>
					</g>
				</g>
			</g>
		</g>
	</g>
	<g>
		<g>
			<g class="st0">
				<path class="st25" d="M332.7,287.6c0,0.4,0.2,0.7,0.7,1c0.9,0.5,2.5,0.5,3.4,0c0.5-0.3,0.7-0.6,0.7-1l0,13.6
					c0,0.4-0.2,0.7-0.7,1c-0.9,0.5-2.5,0.6-3.4,0c-0.5-0.3-0.7-0.6-0.7-1L332.7,287.6z"/>
				<g>
					<path class="st26" d="M333.4,288.5c0.9,0.5,2.5,0.5,3.4,0c0.9-0.5,0.9-1.4,0-2c-0.9-0.5-2.5-0.5-3.4,0
						C332.4,287.1,332.5,288,333.4,288.5z"/>
				</g>
			</g>
		</g>
		<path class="st27" d="M316.7,275.1c0-2.7,1.5-5.1,3.7-6.3c0,0,0,0,0,0c-0.4-0.7-0.6-1.5-0.6-2.4c0-2.8,2.1-5.1,4.8-5.4
			c0,0,0-0.1,0-0.1c0-3.9,3.2-7.1,7.1-7.1c2.6,0,4.9,1.4,6.1,3.5c1-1.2,2.5-1.9,4.2-1.9c3.1,0,5.5,2.5,5.5,5.5
			c0,0.7-0.1,1.3-0.4,1.9c3.7,0.7,6.5,4,6.5,7.9c0,2.8-1.4,5.3-3.6,6.7c0.1,0.4,0.2,0.9,0.2,1.4c0,2.6-1.8,4.8-4.2,5.4
			c-0.9,2.9-3.6,5.1-6.8,5.1c-1.1,0-2.1-0.3-3.1-0.7c-0.9,0.4-2,0.7-3.1,0.7c-2.5,0-4.6-1.2-5.9-3.1c-0.1-0.1-0.2-0.1-0.3-0.2
			c-0.4,0.1-0.8,0.2-1.3,0.2c-2.8,0-5.1-2.1-5.5-4.9C318.1,280.1,316.7,277.8,316.7,275.1z"/>
	</g>
	<g>
		<g>
			<g class="st0">
				<path class="st25" d="M356.7,296.7c0,0.4,0.2,0.7,0.7,1c0.9,0.5,2.5,0.5,3.4,0c0.5-0.3,0.7-0.6,0.7-1l0,13.6
					c0,0.4-0.2,0.7-0.7,1c-0.9,0.5-2.5,0.6-3.4,0c-0.5-0.3-0.7-0.6-0.7-1L356.7,296.7z"/>
				<g>
					<path class="st26" d="M357.5,297.7c0.9,0.5,2.5,0.5,3.4,0c0.9-0.5,0.9-1.4,0-2c-0.9-0.5-2.5-0.5-3.4,0
						C356.5,296.3,356.5,297.2,357.5,297.7z"/>
				</g>
			</g>
		</g>
		<path class="st28" d="M340.7,284.3c0-2.7,1.5-5.1,3.7-6.3c0,0,0,0,0,0c-0.4-0.7-0.6-1.5-0.6-2.4c0-2.8,2.1-5.1,4.8-5.4
			c0,0,0-0.1,0-0.1c0-3.9,3.2-7.1,7.1-7.1c2.6,0,4.9,1.4,6.1,3.5c1-1.2,2.5-1.9,4.2-1.9c3.1,0,5.5,2.5,5.5,5.5
			c0,0.7-0.1,1.3-0.4,1.9c3.7,0.7,6.5,4,6.5,7.9c0,2.8-1.4,5.3-3.6,6.7c0.1,0.4,0.2,0.9,0.2,1.4c0,2.6-1.8,4.8-4.2,5.4
			c-0.9,2.9-3.6,5.1-6.8,5.1c-1.1,0-2.1-0.3-3.1-0.7c-0.9,0.4-2,0.7-3.1,0.7c-2.5,0-4.6-1.2-5.9-3.1c-0.1-0.1-0.2-0.1-0.3-0.2
			c-0.4,0.1-0.8,0.2-1.3,0.2c-2.8,0-5.1-2.1-5.5-4.9C342.2,289.2,340.7,286.9,340.7,284.3z"/>
	</g>
	<g>
		<path class="st29" d="M274.8,34c-5.2-3-9.8-3.3-13.2-1.3l9.7-5.6c3.4-2,8.1-1.7,13.2,1.3c10.3,5.9,18.6,20.3,18.5,32.1
			c0,5.1-1.6,8.8-4.1,11l0,0h0l-0.2,0.1l-14.4,12l-9.7,5.6l14.4-12l2.4-3c1.2-2.1,1.9-4.9,1.9-8.2C293.4,54.3,285.1,39.9,274.8,34z"
			/>
		<g>
			<path class="st25" d="M256.2,44.6c0,5,1.5,10.4,3.9,15.4c0.2,0.4,0.3,0.7,0.5,1l14.1,28.2l14.4-12l0.2-0.1
				c2.6-2.2,4.1-5.9,4.1-11c0-11.8-8.3-26.2-18.5-32.1C264.6,28.1,256.2,32.8,256.2,44.6z M272.7,45.7c0-0.2,0-0.3,0-0.5
				c0.3,0.1,0.7,0.3,1,0.5c4.2,2.4,7.5,8.2,7.5,13c0,0.2,0,0.3,0,0.5c-0.3-0.1-0.7-0.3-1-0.5C276,56.3,272.7,50.5,272.7,45.7z"/>
			<path class="st29" d="M272.7,45.2c0,0.2,0,0.3,0,0.5c0,4.8,3.3,10.6,7.5,13c0.3,0.2,0.7,0.4,1,0.5c-0.2,4.4-3.5,6.1-7.5,3.8
				c-4.2-2.4-7.5-8.2-7.5-13C266.2,45.6,269,43.7,272.7,45.2z"/>
		</g>
	</g>
	<g>
		<g>
			<path class="st30" d="M216,382.7c6,3.5,6,9.1,0.1,12.5c-6,3.5-15.7,3.5-21.7,0l-71.3-41.2c-6-3.5-6-9.1-0.1-12.6
				c6-3.5,15.7-3.5,21.7,0L216,382.7z"/>
		</g>
		<g>
			<g class="st0">
				<g>
					<path class="st15" d="M153.2,352c0.7,0.4,1.2,0.8,1.5,1.2c0.3,0.4,0.5,0.8,0.6,1.1c0.1,0.4,0,0.7-0.1,1
						c-0.2,0.3-0.4,0.5-0.6,0.7c-0.1,0.1-0.2,0.1-0.4,0.1c-0.2,0-0.3,0-0.4-0.1l-1.1-0.6c-0.2-0.1-0.3-0.2-0.3-0.3
						c0-0.1,0-0.2,0-0.3c0.1-0.2,0.1-0.5,0-0.8c-0.1-0.3-0.5-0.6-1.1-1c-0.3-0.2-0.5-0.3-0.8-0.4c-0.3-0.1-0.6-0.2-0.9-0.2
						c-0.3,0-0.5,0-0.8,0c-0.3,0-0.5,0.1-0.7,0.2c-0.2,0.1-0.4,0.3-0.4,0.4c-0.1,0.1,0,0.3,0.1,0.5c0.1,0.2,0.3,0.4,0.6,0.7
						c0.3,0.3,0.6,0.6,1.1,1c0.5,0.4,0.8,0.8,1.1,1.2c0.3,0.4,0.4,0.7,0.4,1c0,0.3,0,0.6-0.2,0.9c-0.2,0.3-0.5,0.5-0.9,0.8
						c-0.5,0.3-1,0.4-1.6,0.6c-0.6,0.1-1.2,0.1-1.9,0.1c-0.7-0.1-1.3-0.2-2-0.4c-0.7-0.2-1.4-0.5-2.1-0.9c-0.6-0.3-1-0.7-1.4-1.1
						c-0.4-0.4-0.6-0.8-0.8-1.1c-0.1-0.4-0.2-0.7,0-1.1c0.1-0.3,0.4-0.7,0.8-0.9c0.1-0.1,0.2-0.1,0.4-0.1c0.2,0,0.3,0,0.4,0.1
						l1.1,0.6c0.2,0.1,0.3,0.2,0.3,0.3c0,0.1,0,0.2,0,0.3c-0.1,0.1-0.1,0.2-0.1,0.4c0,0.1,0,0.3,0.1,0.4c0.1,0.2,0.2,0.3,0.4,0.5
						c0.2,0.2,0.5,0.4,0.9,0.6c0.3,0.2,0.6,0.3,0.9,0.5c0.3,0.1,0.6,0.2,1,0.3c0.3,0.1,0.6,0.1,0.9,0.1c0.3,0,0.5-0.1,0.8-0.2
						c0.2-0.1,0.3-0.3,0.3-0.4c0-0.2-0.1-0.4-0.3-0.6c-0.2-0.2-0.4-0.5-0.8-0.8c-0.3-0.3-0.7-0.6-1.1-1c-0.4-0.4-0.7-0.7-0.9-1
						c-0.2-0.3-0.3-0.6-0.3-0.9c0-0.3,0.1-0.6,0.3-0.8c0.2-0.3,0.5-0.5,1-0.8c0.4-0.3,1-0.4,1.6-0.6c0.6-0.1,1.2-0.1,1.8-0.1
						c0.6,0,1.3,0.2,1.9,0.4C152,351.4,152.6,351.7,153.2,352z"/>
				</g>
			</g>
			<g class="st0">
				<g>
					<path class="st15" d="M160.9,362.3c-0.3,0.4-0.7,0.7-1.2,1l-0.7,0.4c-0.1,0.1-0.2,0.1-0.4,0.1c-0.2,0-0.3,0-0.4-0.1l-5.1-2.9
						c-0.2,0.1-0.4,0.3-0.5,0.4c-0.1,0.2-0.1,0.3-0.1,0.5c0,0.2,0.1,0.3,0.3,0.5c0.1,0.2,0.3,0.3,0.6,0.4c0.3,0.2,0.6,0.3,0.9,0.4
						c0.3,0.1,0.5,0.1,0.7,0.1c0.2,0,0.3,0,0.4,0.1c0.1,0,0.2,0.1,0.3,0.1l1.2,0.7c0.1,0.1,0.2,0.1,0.2,0.2c0,0.1-0.1,0.2-0.2,0.2
						c-0.2,0.1-0.4,0.1-0.8,0.2c-0.4,0-0.8,0-1.3,0c-0.5,0-1-0.1-1.6-0.3c-0.6-0.2-1.1-0.4-1.7-0.7c-0.6-0.3-1-0.7-1.2-1.1
						c-0.3-0.4-0.4-0.8-0.3-1.2c0-0.4,0.2-0.8,0.5-1.2c0.3-0.4,0.8-0.8,1.4-1.1c0.6-0.3,1.2-0.6,1.8-0.8s1.3-0.3,2-0.3
						c0.7,0,1.4,0,2,0.2c0.7,0.1,1.3,0.4,1.8,0.7c0.6,0.3,1,0.7,1.2,1.1c0.3,0.4,0.4,0.8,0.3,1.2
						C161.4,361.6,161.2,361.9,160.9,362.3z M154.9,359.8l3.4,2c0.1-0.1,0.3-0.2,0.4-0.3c0.1-0.1,0.2-0.3,0.2-0.4
						c0-0.2,0-0.3-0.2-0.5c-0.1-0.2-0.3-0.3-0.7-0.5c-0.3-0.2-0.6-0.3-0.9-0.4c-0.3-0.1-0.6-0.1-0.9-0.1c-0.3,0-0.5,0-0.8,0.1
						C155.2,359.7,155,359.7,154.9,359.8"/>
				</g>
			</g>
			<g class="st0">
				<g>
					<path class="st15" d="M169.8,366.8c-0.2,0.3-0.6,0.6-1.1,0.9l-4.4,2.6c-0.1,0.1-0.2,0.1-0.4,0.1c-0.2,0-0.3,0-0.4-0.1l-1.1-0.7
						c-0.1-0.1-0.2-0.1-0.2-0.2c0-0.1,0.1-0.2,0.2-0.2l0.5-0.3c-0.5,0-1.1,0-1.7-0.1c-0.6-0.1-1.2-0.3-1.8-0.7
						c-0.4-0.3-0.8-0.5-1-0.8c-0.2-0.3-0.4-0.5-0.4-0.8c0-0.3,0-0.5,0.2-0.7c0.2-0.2,0.4-0.5,0.7-0.7c0.7-0.4,1.5-0.6,2.4-0.5
						c0.9,0.1,1.8,0.3,2.8,0.7l2.9,1.2c0.4-0.2,0.6-0.5,0.5-0.7c-0.1-0.3-0.4-0.5-0.8-0.7c-0.3-0.1-0.5-0.2-0.7-0.3
						c-0.2,0-0.4-0.1-0.7-0.1c-0.2,0-0.3,0-0.4,0c-0.1,0-0.2-0.1-0.3-0.1l-1.4-0.8c-0.1-0.1-0.2-0.1-0.2-0.2c0-0.1,0-0.1,0.2-0.2
						c0.3-0.1,0.6-0.2,1-0.2c0.4-0.1,0.8-0.1,1.3,0c0.5,0,1,0.1,1.5,0.3c0.5,0.1,1,0.4,1.6,0.7c0.5,0.3,0.9,0.6,1.2,0.9
						c0.3,0.3,0.4,0.6,0.5,1C170.1,366.1,170,366.5,169.8,366.8z M165.2,367.4l0.2-0.1l-2.4-1c-0.5-0.2-0.9-0.3-1.2-0.3
						c-0.3,0-0.6,0-0.8,0.2c-0.2,0.1-0.3,0.3-0.1,0.5c0.1,0.2,0.3,0.4,0.6,0.5c0.3,0.2,0.7,0.3,1.1,0.4c0.4,0.1,0.7,0.2,1.1,0.2
						c0.3,0,0.7,0,1-0.1C164.7,367.7,165,367.6,165.2,367.4"/>
				</g>
			</g>
			<g class="st0">
				<g>
					<path class="st15" d="M178.3,369.8c0.1,0.1,0.2,0.1,0.2,0.2c0,0.1-0.1,0.2-0.2,0.2l-1,0.6c-0.1,0.1-0.2,0.1-0.4,0.1
						c-0.2,0-0.3,0-0.4-0.1l-1-0.6c-0.6-0.4-1.2-0.5-1.7-0.5c-0.5,0-1.1,0.2-1.7,0.5l-3.9,2.3c-0.1,0.1-0.2,0.1-0.4,0.1
						c-0.2,0-0.3,0-0.4-0.1l-1.2-0.7c-0.1-0.1-0.2-0.1-0.2-0.2c0-0.1,0.1-0.2,0.2-0.2l7-4.1c0.1-0.1,0.2-0.1,0.4-0.1
						c0.2,0,0.3,0,0.4,0.1l1.2,0.7c0.1,0.1,0.2,0.1,0.2,0.2c0,0.1-0.1,0.2-0.2,0.2l-0.3,0.2c0.5,0,1,0.1,1.4,0.2
						c0.4,0.1,0.9,0.3,1.4,0.6L178.3,369.8z"/>
				</g>
			</g>
			<g class="st0">
				<g>
					<path class="st15" d="M183.4,372.6c0.6,0.4,1.1,0.7,1.4,1.1c0.3,0.4,0.4,0.7,0.4,1.1c0,0.3,0,0.6-0.2,0.9
						c-0.2,0.3-0.3,0.4-0.5,0.6c-0.1,0.1-0.2,0.1-0.4,0.1c-0.2,0-0.3,0-0.4-0.1l-1.1-0.7c-0.1-0.1-0.2-0.1-0.2-0.2
						c0-0.1,0-0.2,0.1-0.3c0-0.1,0.1-0.2,0.1-0.3c0-0.1,0-0.2-0.1-0.3c0-0.1-0.1-0.2-0.3-0.4c-0.1-0.1-0.3-0.3-0.6-0.4
						c-0.2-0.1-0.5-0.2-0.7-0.3c-0.3-0.1-0.5-0.1-0.9-0.1s-0.6,0-1,0.1c-0.3,0.1-0.7,0.2-1,0.3c-0.2,0.1-0.4,0.2-0.6,0.3
						c-0.2,0.1-0.4,0.2-0.5,0.3c-0.3,0.2-0.5,0.4-0.6,0.6c-0.1,0.2-0.1,0.4-0.1,0.6c0,0.2,0.1,0.3,0.3,0.5c0.1,0.2,0.3,0.3,0.5,0.4
						c0.3,0.1,0.5,0.3,0.7,0.3c0.2,0.1,0.4,0.1,0.6,0.2c0.2,0,0.4,0,0.6,0c0.2,0,0.4,0,0.6,0c0.2,0,0.3,0,0.5,0c0.2,0,0.3,0,0.4,0.1
						l1.1,0.7c0.1,0.1,0.2,0.1,0.2,0.2c0,0.1-0.1,0.2-0.2,0.2c-0.2,0.1-0.5,0.2-1,0.3c-0.4,0.1-0.9,0.1-1.5,0.1
						c-0.6,0-1.2-0.1-1.8-0.3c-0.7-0.2-1.3-0.4-1.9-0.8c-0.6-0.3-1-0.7-1.2-1c-0.3-0.4-0.4-0.7-0.4-1.1c0-0.4,0.1-0.7,0.3-1.1
						s0.6-0.7,1-1c0.2-0.1,0.4-0.2,0.6-0.4c0.2-0.1,0.4-0.2,0.7-0.3c0.5-0.3,1-0.4,1.7-0.6c0.6-0.1,1.2-0.2,1.9-0.2
						c0.6,0,1.3,0.1,1.9,0.2C182.3,372,182.9,372.3,183.4,372.6z"/>
				</g>
			</g>
			<g class="st0">
				<g>
					<path class="st15" d="M193.1,375c0.1,0.1,0.2,0.1,0.2,0.2c0,0.1-0.1,0.2-0.2,0.2l-3.2,1.9c0.5,0,1,0.1,1.6,0.2
						c0.5,0.1,1,0.3,1.5,0.6c0.6,0.4,1,0.7,1.3,1.1c0.2,0.3,0.3,0.7,0.2,1c-0.1,0.3-0.3,0.7-0.6,1c-0.3,0.3-0.7,0.6-1.2,0.9l-4,2.4
						c-0.1,0.1-0.2,0.1-0.4,0.1s-0.3,0-0.4-0.1l-1.1-0.7c-0.1-0.1-0.2-0.1-0.2-0.2c0-0.1,0.1-0.2,0.2-0.2l3.8-2.2
						c0.6-0.3,0.9-0.7,1-1.1c0.1-0.4-0.2-0.7-0.8-1.1c-0.5-0.3-1.1-0.4-1.8-0.4c-0.7,0-1.3,0.2-1.9,0.6l-3.8,2.2
						c-0.1,0.1-0.2,0.1-0.4,0.1c-0.2,0-0.3,0-0.4-0.1l-1.2-0.7c-0.1-0.1-0.2-0.1-0.2-0.2c0-0.1,0.1-0.2,0.2-0.2l9.9-5.7
						c0.1-0.1,0.2-0.1,0.4-0.1s0.3,0,0.4,0.1L193.1,375z"/>
				</g>
			</g>
		</g>
	</g>
</g>
</svg>
