<?xml version="1.0" encoding="utf-8"?>
<!-- Generator: Adobe Illustrator 25.0.1, SVG Export Plug-In . SVG Version: 6.00 Build 0)  -->
<svg version="1.1" id="Layer_1" xmlns="http://www.w3.org/2000/svg" xmlns:xlink="http://www.w3.org/1999/xlink" x="0px" y="0px"
	 viewBox="0 0 500 500" style="enable-background:new 0 0 500 500;" xml:space="preserve">
<style type="text/css">
	.st0{opacity:0.1;}
	.st1{fill:url(#SVGID_1_);}
	.st2{fill:url(#SVGID_2_);}
	.st3{fill:url(#SVGID_3_);}
	.st4{fill:url(#SVGID_4_);}
	.st5{fill:url(#SVGID_5_);}
	.st6{fill:url(#SVGID_6_);}
	.st7{fill:#C5AFFF;}
	.st8{fill:#191919;}
	.st9{fill:url(#SVGID_7_);}
	.st10{fill:url(#SVGID_8_);}
	.st11{fill:url(#SVGID_9_);}
	.st12{fill:url(#SVGID_10_);}
	.st13{fill:url(#SVGID_11_);}
	.st14{fill:url(#SVGID_12_);}
	.st15{fill:url(#SVGID_13_);}
	.st16{fill:url(#SVGID_14_);}
	.st17{fill:url(#SVGID_15_);}
	.st18{fill:url(#SVGID_16_);}
	.st19{fill:url(#SVGID_17_);}
	.st20{fill:url(#SVGID_18_);}
	.st21{fill:url(#SVGID_19_);}
	.st22{fill:url(#SVGID_20_);}
	.st23{fill:url(#SVGID_21_);}
	.st24{fill:url(#SVGID_22_);}
	.st25{fill:url(#SVGID_23_);}
	.st26{fill:url(#SVGID_24_);}
	.st27{fill:url(#SVGID_25_);}
	.st28{fill:url(#SVGID_26_);}
	.st29{fill:url(#SVGID_27_);}
	.st30{fill:url(#SVGID_28_);}
	.st31{fill:url(#SVGID_29_);}
	.st32{fill:url(#SVGID_30_);}
	.st33{fill:url(#SVGID_31_);}
	.st34{fill:none;}
	.st35{fill:#FFFFFF;}
	.st36{fill:#B5B8BA;}
	.st37{fill:url(#SVGID_32_);}
	.st38{fill:url(#SVGID_33_);}
	.st39{fill:url(#SVGID_34_);}
	.st40{fill:url(#SVGID_35_);}
	.st41{fill:url(#SVGID_36_);}
	.st42{fill:url(#SVGID_37_);}
	.st43{fill:url(#SVGID_38_);}
	.st44{fill:url(#SVGID_39_);}
	.st45{fill:url(#SVGID_40_);}
	.st46{fill:url(#SVGID_41_);}
	.st47{fill:url(#SVGID_42_);}
	.st48{fill:url(#SVGID_43_);}
	.st49{fill:url(#SVGID_44_);}
	.st50{fill:url(#SVGID_45_);}
	.st51{fill:url(#SVGID_46_);}
	.st52{fill:url(#SVGID_47_);}
	.st53{fill:url(#SVGID_48_);}
	.st54{fill:url(#SVGID_49_);}
	.st55{fill:url(#SVGID_50_);}
	.st56{fill:url(#SVGID_51_);}
	.st57{fill:url(#SVGID_52_);}
	.st58{fill:url(#SVGID_53_);}
	.st59{fill:url(#SVGID_54_);}
	.st60{fill:url(#SVGID_55_);}
	.st61{fill:url(#SVGID_56_);}
	.st62{fill:url(#SVGID_57_);}
	.st63{fill:url(#SVGID_58_);}
	.st64{fill:url(#SVGID_59_);}
	.st65{fill:url(#SVGID_60_);}
	.st66{fill:url(#SVGID_61_);}
	.st67{fill:url(#SVGID_62_);}
	.st68{fill:url(#SVGID_63_);}
	.st69{fill:url(#SVGID_64_);}
	.st70{fill:url(#SVGID_65_);}
	.st71{fill:url(#SVGID_66_);}
	.st72{fill:url(#SVGID_67_);}
	.st73{fill:url(#SVGID_68_);}
	.st74{fill:url(#SVGID_69_);}
	.st75{fill:url(#SVGID_70_);}
	.st76{fill:url(#SVGID_71_);}
	.st77{fill:url(#SVGID_72_);}
	.st78{clip-path:url(#SVGID_74_);}
	.st79{fill:url(#SVGID_75_);}
	.st80{fill:url(#SVGID_76_);}
	.st81{fill:url(#SVGID_77_);}
	.st82{fill:url(#SVGID_78_);}
	.st83{fill:url(#SVGID_79_);}
	.st84{fill:url(#SVGID_80_);}
	.st85{fill:url(#SVGID_81_);}
	.st86{fill:url(#SVGID_82_);}
	.st87{fill:url(#SVGID_83_);}
	.st88{fill:url(#SVGID_84_);}
	.st89{fill:url(#SVGID_85_);}
	.st90{fill:url(#SVGID_86_);}
	.st91{fill:url(#SVGID_87_);}
	.st92{fill:url(#SVGID_88_);}
	.st93{fill:url(#SVGID_89_);}
	.st94{fill:url(#SVGID_90_);}
	.st95{fill:url(#SVGID_91_);}
	.st96{fill:url(#SVGID_92_);}
	.st97{fill:url(#SVGID_93_);}
	.st98{fill:url(#SVGID_94_);}
	.st99{fill:url(#SVGID_95_);}
	.st100{fill:url(#SVGID_96_);}
	.st101{fill:url(#SVGID_97_);}
	.st102{fill:url(#SVGID_98_);}
	.st103{fill:url(#SVGID_99_);}
	.st104{fill:url(#SVGID_100_);}
	.st105{fill:url(#SVGID_101_);}
	.st106{fill:url(#SVGID_102_);}
	.st107{fill:url(#SVGID_103_);}
	.st108{fill:url(#SVGID_104_);}
	.st109{fill:url(#SVGID_105_);}
	.st110{fill:url(#SVGID_106_);}
	.st111{fill:url(#SVGID_107_);}
	.st112{clip-path:url(#SVGID_109_);fill:url(#SVGID_110_);}
	.st113{fill:url(#SVGID_111_);}
	.st114{opacity:0.31;}
	.st115{fill:url(#SVGID_112_);}
	.st116{fill:url(#SVGID_113_);}
	.st117{fill:url(#SVGID_114_);}
	.st118{fill:#262227;}
</style>
<g>
	<g class="st0">
		<g>
			<path d="M425.7,381.8c-0.2-0.1-0.4-0.3-0.6-0.4L214.8,263.2l-6.1-3.5c-2.8-1.6-7.2-1.6-10,0l-152,82.4c-2.7,1.6-2.7,4.2,0,5.8
				l84.9,49l34.4,19.9l33.9,19.6l65.4,37.8c2.8,1.6,7.2,1.6,10,0l149.7-87C427.6,385.7,427.8,383.4,425.7,381.8z"/>
		</g>
	</g>
	<g>
		<g>
			
				<linearGradient id="SVGID_1_" gradientUnits="userSpaceOnUse" x1="340.7336" y1="179.1394" x2="334.1718" y2="330.9353" gradientTransform="matrix(1 0 0 -1 0 500)">
				<stop  offset="0" style="stop-color:#C395FF"/>
				<stop  offset="1" style="stop-color:#BA87FF"/>
			</linearGradient>
			<path class="st1" d="M442,163.7c0,0.1-31.5,13.6-31.5,13.6c-4.7,1.3-8-1.8-8.9-5.5c-2.6,0.8-5.3,1.3-8.2,1.3
				c-5.5,2.2-11.1,4.2-16.8,6c-41.9,13.5-85.4,21.9-127.6,34.4c-7,2.1-14.1,4.2-21.1,6.3L404.4,322l11.9,6.8l13.1,7.6l4.6,9.5
				l6.2-4.5c0.4-0.2,0.8-0.6,1.1-1.2c0.3-0.5,0.4-1.2,0.4-2l0.8-172.1c0-0.8-0.1-1.6-0.4-2.4C442,163.8,442,163.8,442,163.7z"/>
			<g>
				
					<linearGradient id="SVGID_2_" gradientUnits="userSpaceOnUse" x1="377.1453" y1="106.3185" x2="127.7232" y2="219.736" gradientTransform="matrix(1 0 0 -1 0 500)">
					<stop  offset="0" style="stop-color:#C9A5FF"/>
					<stop  offset="1" style="stop-color:#BA87FF"/>
				</linearGradient>
				<path class="st2" d="M431.5,348.3L431.5,348.3c0-0.8-0.5-1.7-1.4-2.4c-0.2-0.1-0.4-0.3-0.6-0.4l-20-11.5l-11.9-6.8L222.5,226.1
					l-20-11.5c-2.7-1.6-7-1.6-9.7,0l-74,43l-74,43c-1.2,0.7-1.8,1.5-2,2.4l0,0c0,0,0,0.1,0,0.4l0,0c0,1.5,0,7.8,0,8.1
					c0,1,0.7,2.1,2,2.9l96.7,55.8l33.5,19.3l33,19.1l63.7,36.8c2.7,1.6,7,1.6,9.7,0l148-86c1.4-0.8,2-1.8,2-2.9
					C431.5,356.1,431.5,348.3,431.5,348.3z"/>
				
					<linearGradient id="SVGID_3_" gradientUnits="userSpaceOnUse" x1="-158.5854" y1="173.7713" x2="-11.6597" y2="90.6676" gradientTransform="matrix(-1 0 0 -1 314.5799 500)">
					<stop  offset="0" style="stop-color:#C395FF"/>
					<stop  offset="1" style="stop-color:#BA87FF"/>
				</linearGradient>
				<path class="st3" d="M431.5,348.3c0-0.8-0.5-1.7-1.4-2.4c-0.2-0.1-0.4-0.3-0.6-0.4l-0.2-0.1l-153.5,81.9v19
					c2,0.1,4.1-0.2,5.7-1.1l148-86c1.4-0.8,2-1.8,2-2.9C431.5,356.1,431.5,348.3,431.5,348.3L431.5,348.3z"/>
				
					<linearGradient id="SVGID_4_" gradientUnits="userSpaceOnUse" x1="150.5339" y1="124.0011" x2="-43.7764" y2="257.3353" gradientTransform="matrix(-1 0 0 -1 314.5799 500)">
					<stop  offset="0" style="stop-color:#CFC0FF"/>
					<stop  offset="1" style="stop-color:#B096FF"/>
				</linearGradient>
				<path class="st4" d="M430.1,346c-0.2-0.1-0.4-0.3-0.6-0.4l-20-11.5l-0.9,0.5l-4.1,2.4c-1.3,0.7-3.4,0.7-4.6,0L217.6,231.6
					c-1.3-0.7-1.3-1.9,0-2.7l4.1-2.4l0.9-0.5l-20-11.5c-2.7-1.6-7-1.6-9.7,0l-74,43l-74,43c-2.7,1.6-2.7,4.1,0,5.6l96.7,55.8
					l33.5,19.3l33,19.1l63.7,36.8c2.7,1.6,7,1.6,9.7,0l148-86C431.9,349.7,432.1,347.5,430.1,346z"/>
			</g>
			<g>
				
					<linearGradient id="SVGID_5_" gradientUnits="userSpaceOnUse" x1="221.0469" y1="164.6254" x2="157.8611" y2="133.8165" gradientTransform="matrix(1 0 0 -1 0 500)">
					<stop  offset="0" style="stop-color:#B18DFF"/>
					<stop  offset="0.5397" style="stop-color:#B795FF"/>
				</linearGradient>
				<path class="st5" d="M231.4,356.2l-51.7-29.9c-1.2-0.7-3.2-0.7-4.4,0l-32.8,19.1c-1.2,0.7-1.2,1.8,0,2.5l51.7,29.8
					c1.2,0.7,3.2,0.7,4.4,0l32.8-19.1C232.6,358,232.6,356.9,231.4,356.2z M229.7,357.7l-25.7,15l-7.1,4.1c-0.3,0.2-0.7,0.2-1,0
					l-51.7-29.9c-0.3-0.2-0.3-0.4,0-0.6l7.1-4.1l0,0l25.7-14.9c0.3-0.2,0.7-0.2,1,0l51.7,29.9C229.9,357.3,229.9,357.6,229.7,357.7z
					"/>
				
					<linearGradient id="SVGID_6_" gradientUnits="userSpaceOnUse" x1="172.7013" y1="141.0454" x2="235.3183" y2="98.719" gradientTransform="matrix(1 0 0 -1 0 500)">
					<stop  offset="0" style="stop-color:#CFC0FF"/>
					<stop  offset="1" style="stop-color:#B096FF"/>
				</linearGradient>
				<path class="st6" d="M144.2,346.4c-0.3,0.2-0.3,0.4,0,0.6l51.7,29.9c0.3,0.2,0.7,0.2,1,0l7.1-4.1l-52.7-30.4L144.2,346.4z"/>
				<path class="st7" d="M229.7,357.2L178,327.3c-0.3-0.2-0.7-0.2-1,0l-25.7,14.9l0,0l52.7,30.4l25.7-14.9
					C229.9,357.6,229.9,357.3,229.7,357.2z"/>
			</g>
			<path class="st8" d="M217.6,228.9c-1.3,0.7-1.3,1.9,0,2.7l182.3,105.2c1.3,0.7,3.4,0.7,4.6,0l4.1-2.4l0.9-0.5l-11.9-6.8
				l-175.1-101l-0.9,0.5L217.6,228.9z"/>
			
				<linearGradient id="SVGID_7_" gradientUnits="userSpaceOnUse" x1="-102.9335" y1="154.9168" x2="-89.9254" y2="148.6838" gradientTransform="matrix(-1 0 0 -1 314.5799 500)">
				<stop  offset="0" style="stop-color:#CBB1FF"/>
				<stop  offset="0.5479" style="stop-color:#BB9EFF"/>
			</linearGradient>
			<path class="st9" d="M413,344.5c1.4-0.8,3.7-0.8,5.2,0c1.4,0.8,1.4,2.2,0,3s-3.7,0.8-5.2,0C411.6,346.6,411.6,345.3,413,344.5z"
				/>
			<g>
				
					<linearGradient id="SVGID_8_" gradientUnits="userSpaceOnUse" x1="90.1685" y1="165.5334" x2="-36.7104" y2="244.9437" gradientTransform="matrix(-1 0 0 -1 314.5799 500)">
					<stop  offset="0" style="stop-color:#BC8BFF"/>
					<stop  offset="1" style="stop-color:#B081FF"/>
				</linearGradient>
				<path class="st10" d="M398.5,345.8l-83,48.2c-2.1,1.2-5.5,1.2-7.6,0L118.6,284.8c-2.1-1.2-2.1-3.2,0-4.4l83-48.2
					c2.1-1.2,5.5-1.2,7.6,0l189.4,109.2C400.6,342.7,400.6,344.6,398.5,345.8z"/>
				
					<linearGradient id="SVGID_9_" gradientUnits="userSpaceOnUse" x1="-85.5765" y1="211.75" x2="197.5436" y2="211.75" gradientTransform="matrix(-1 0 0 -1 314.5799 500)">
					<stop  offset="0" style="stop-color:#A479E3"/>
					<stop  offset="1" style="stop-color:#9562E0"/>
				</linearGradient>
				<path class="st11" d="M117.8,284.2c0.2-0.2,0.4-0.5,0.8-0.7l83-48.2c2.1-1.2,5.5-1.2,7.6,0l189.4,109.2c0.4,0.2,0.6,0.4,0.8,0.7
					c1.2-1.2,1-2.7-0.8-3.7L209.1,232.2c-2.1-1.2-5.5-1.2-7.6,0l-83,48.2C116.8,281.5,116.6,283,117.8,284.2z"/>
				<g>
					<path class="st8" d="M195.4,244.5l9.7,5.6c1,0.6,2.5,0.6,3.4,0l9.1-5.3c0.9-0.6,0.9-1.4,0-2l-9.7-5.6c-1-0.6-2.5-0.6-3.4,0
						l-9.1,5.3C194.4,243.1,194.4,244,195.4,244.5z"/>
					<path class="st8" d="M234.2,252.4l-9.7-5.6c-1-0.6-2.5-0.5-3.4,0l-9.1,5.3c-1,0.6-0.9,1.4,0,2l9.7,5.6c1,0.5,2.5,0.6,3.4,0
						l9.1-5.3C235.1,253.8,235.1,252.9,234.2,252.4z"/>
					<path class="st8" d="M146.6,284.1l-9.7-5.6c-1-0.5-2.5-0.6-3.4,0l-9.1,5.3c-0.9,0.6-0.9,1.4,0,2l9.7,5.6c1,0.6,2.5,0.6,3.4,0
						l9.1-5.3C147.5,285.5,147.5,284.6,146.6,284.1z"/>
					<path class="st8" d="M250.7,261.9l-9.7-5.6c-1-0.6-2.5-0.5-3.4,0l-9.1,5.3c-1,0.6-0.9,1.4,0,2l9.7,5.6c1,0.6,2.5,0.6,3.4,0
						l9.1-5.3C251.7,263.4,251.7,262.5,250.7,261.9z"/>
					<path class="st8" d="M267.2,271.5l-9.7-5.6c-1-0.6-2.5-0.5-3.4,0l-9.1,5.3c-1,0.6-0.9,1.4,0,2l9.7,5.6c1,0.6,2.5,0.6,3.4,0
						l9.1-5.3C268.2,272.9,268.2,272,267.2,271.5z"/>
					<path class="st8" d="M283.8,281l-9.7-5.6c-1-0.6-2.5-0.5-3.4,0l-9.1,5.3c-1,0.6-0.9,1.4,0,2l9.7,5.6c1,0.6,2.5,0.6,3.4,0
						l9.1-5.3C284.7,282.5,284.7,281.6,283.8,281z"/>
					<path class="st8" d="M300.3,290.6l-9.7-5.6c-1-0.6-2.5-0.5-3.4,0l-9.1,5.3c-1,0.6-0.9,1.4,0,2l9.7,5.6c1,0.6,2.5,0.6,3.4,0
						l9.1-5.3C301.3,292,301.3,291.1,300.3,290.6z"/>
					<path class="st8" d="M316.9,300.1l-9.7-5.6c-1-0.6-2.5-0.5-3.4,0l-9.1,5.3c-1,0.6-0.9,1.4,0,2l9.7,5.6c1,0.6,2.5,0.6,3.4,0
						l9.1-5.3C317.8,301.6,317.8,300.7,316.9,300.1z"/>
					<path class="st8" d="M333.4,309.7l-9.7-5.6c-1-0.6-2.5-0.5-3.4,0l-9.1,5.3c-1,0.6-0.9,1.4,0,2l9.7,5.6c1,0.6,2.5,0.6,3.4,0
						l9.1-5.3C334.4,311.1,334.4,310.2,333.4,309.7z"/>
					<path class="st8" d="M350,319.2l-9.7-5.6c-1-0.6-2.5-0.6-3.4,0l-9.1,5.3c-1,0.6-0.9,1.4,0,2l9.7,5.6c1,0.6,2.5,0.6,3.4,0
						l9.1-5.3C350.9,320.7,350.9,319.8,350,319.2z"/>
					<path class="st8" d="M366.5,328.8l-9.7-5.6c-1-0.6-2.5-0.6-3.4,0l-9.1,5.3c-1,0.6-0.9,1.4,0,2l9.7,5.6c1,0.5,2.5,0.6,3.4,0
						l9.1-5.3C367.5,330.2,367.5,329.3,366.5,328.8z"/>
					<path class="st8" d="M391.2,343l-17.8-10.3c-1-0.6-2.5-0.5-3.4,0l-9.1,5.3c-1,0.6-0.9,1.4,0,2l17.8,10.3c1,0.6,2.5,0.6,3.4,0
						l9.1-5.3C392.1,344.5,392.1,343.6,391.2,343z"/>
					<path class="st8" d="M177.6,254.8l17.9,10.4c1,0.6,2.5,0.6,3.4,0l9.1-5.3c1-0.6,0.9-1.4,0-2l-17.9-10.4c-1-0.6-2.5-0.6-3.4,0
						l-9.1,5.3C176.7,253.4,176.7,254.3,177.6,254.8z"/>
					<path class="st8" d="M142.1,275.5l17.9,10.4c1,0.6,2.5,0.6,3.4,0l9.1-5.3c1-0.6,0.9-1.4,0-2l-17.9-10.4c-1-0.6-2.5-0.6-3.4,0
						l-9.1,5.3C141.2,274,141.2,274.9,142.1,275.5z"/>
					<path class="st8" d="M224.7,267.4l-9.7-5.6c-1-0.6-2.5-0.6-3.4,0l-9.1,5.3c-0.9,0.6-0.9,1.4,0,2l9.7,5.6c1,0.5,2.5,0.6,3.4,0
						l9.1-5.3C225.6,268.9,225.6,268,224.7,267.4z"/>
					<path class="st8" d="M241.2,277l-9.7-5.6c-1-0.6-2.5-0.6-3.4,0l-9.1,5.3c-0.9,0.6-0.9,1.4,0,2l9.7,5.6c1,0.6,2.5,0.6,3.4,0
						l9.1-5.3C242.2,278.4,242.2,277.6,241.2,277z"/>
					<path class="st8" d="M257.8,286.6l-9.7-5.6c-1-0.6-2.5-0.6-3.4,0l-9.1,5.3c-0.9,0.6-0.9,1.4,0,2l9.7,5.6c1,0.5,2.5,0.6,3.4,0
						l9.1-5.3C258.7,288,258.7,287.1,257.8,286.6z"/>
					<path class="st8" d="M274.3,296.1l-9.7-5.6c-1-0.6-2.5-0.6-3.4,0l-9.1,5.3c-0.9,0.6-0.9,1.4,0,2l9.7,5.6c1,0.6,2.5,0.6,3.4,0
						l9.1-5.3C275.3,297.5,275.3,296.7,274.3,296.1z"/>
					<path class="st8" d="M290.9,305.7l-9.7-5.6c-1-0.6-2.5-0.6-3.4,0l-9.1,5.3c-0.9,0.6-0.9,1.4,0,2l9.7,5.6c1,0.6,2.5,0.6,3.4,0
						l9.1-5.3C291.8,307.1,291.8,306.2,290.9,305.7z"/>
					<path class="st8" d="M285.2,316.9l9.7,5.6c1,0.6,2.5,0.6,3.4,0l9.1-5.3c1-0.6,0.9-1.4,0-2l-9.7-5.6c-1-0.6-2.5-0.6-3.4,0
						l-9.1,5.3C284.2,315.5,284.2,316.4,285.2,316.9z"/>
					<path class="st8" d="M314.8,332.1l9.1-5.3c1-0.6,0.9-1.4,0-2l-9.7-5.6c-1-0.6-2.5-0.6-3.4,0l-9.1,5.3c-0.9,0.5-0.9,1.4,0,2
						l9.7,5.6C312.3,332.6,313.9,332.6,314.8,332.1z"/>
					<path class="st8" d="M318.3,336l9.7,5.6c1,0.6,2.5,0.6,3.4,0l9.1-5.3c1-0.6,0.9-1.4,0-2l-9.7-5.6c-1-0.6-2.5-0.6-3.4,0
						l-9.1,5.3C317.3,334.6,317.3,335.5,318.3,336z"/>
					<path class="st8" d="M347.9,351.2l9.1-5.3c1-0.6,0.9-1.4,0-2l-9.7-5.6c-1-0.6-2.5-0.6-3.4,0l-9.1,5.3c-0.9,0.6-0.9,1.4,0,2
						l9.7,5.6C345.4,351.7,347,351.7,347.9,351.2z"/>
					<path class="st8" d="M373.4,353.3l-9.7-5.6c-1-0.6-2.5-0.6-3.4,0l-9.1,5.3c-0.9,0.5-0.9,1.4,0,2l1.7,1c0.6,0.3,0.6,0.9,0,1.2
						l-15,8.7c-1,0.6-0.9,1.4,0,2l5.2,3c1,0.6,2.5,0.6,3.4,0l26.9-15.6C374.4,354.8,374.4,353.9,373.4,353.3z"/>
					<path class="st8" d="M159.9,265.2l20.5,11.8c1,0.6,2.5,0.6,3.4,0l9.1-5.3c0.9-0.6,0.9-1.4,0-2l-20.5-11.8c-1-0.6-2.5-0.6-3.4,0
						l-9.1,5.3C158.9,263.7,158.9,264.6,159.9,265.2z"/>
					<path class="st8" d="M187.2,281l9.7,5.6c1,0.6,2.5,0.6,3.4,0l9.1-5.3c0.9-0.6,0.9-1.4,0-2l-9.7-5.6c-1-0.6-2.5-0.6-3.4,0
						l-9.1,5.3C186.3,279.5,186.3,280.4,187.2,281z"/>
					<path class="st8" d="M203.8,290.5l9.7,5.6c1,0.6,2.5,0.6,3.4,0l9.1-5.3c0.9-0.5,0.9-1.4,0-2l-9.7-5.6c-1-0.6-2.5-0.6-3.4,0
						l-9.1,5.3C202.8,289.1,202.8,290,203.8,290.5z"/>
					<path class="st8" d="M220.3,300.1l9.7,5.6c1,0.6,2.5,0.6,3.4,0l9.1-5.3c0.9-0.6,0.9-1.4,0-2l-9.7-5.6c-1-0.6-2.5-0.6-3.4,0
						l-9.1,5.3C219.4,298.6,219.4,299.5,220.3,300.1z"/>
					<path class="st8" d="M236.9,309.6l9.7,5.6c1,0.6,2.5,0.6,3.4,0l9.1-5.3c0.9-0.6,0.9-1.4,0-2l-9.7-5.6c-1-0.6-2.5-0.6-3.4,0
						l-9.1,5.3C235.9,308.2,235.9,309.1,236.9,309.6z"/>
					<path class="st8" d="M253.4,319.2l9.7,5.6c1,0.6,2.5,0.6,3.4,0l9.1-5.3c0.9-0.6,0.9-1.4,0-2l-9.7-5.6c-1-0.6-2.5-0.6-3.4,0
						l-9.1,5.3C252.5,317.7,252.5,318.6,253.4,319.2z"/>
					<path class="st8" d="M270,328.7l9.7,5.6c1,0.6,2.5,0.6,3.4,0l9.1-5.3c0.9-0.5,0.9-1.4,0-2l-9.7-5.6c-1-0.5-2.5-0.6-3.4,0
						l-9.1,5.3C269,327.3,269,328.2,270,328.7z"/>
					<path class="st8" d="M286.5,338.3l9.7,5.6c1,0.6,2.5,0.6,3.4,0l9.1-5.3c0.9-0.5,0.9-1.4,0-2L299,331c-1-0.6-2.5-0.6-3.4,0
						l-9.1,5.3C285.6,336.8,285.6,337.7,286.5,338.3z"/>
					<path class="st8" d="M316.2,353.4l9.1-5.3c0.9-0.6,0.9-1.4,0-2l-9.7-5.6c-1-0.6-2.5-0.6-3.4,0l-9.1,5.3c-1,0.6-0.9,1.4,0,2
						l9.7,5.6C313.7,354,315.2,354,316.2,353.4z"/>
					<path class="st8" d="M319.6,357.4l9.7,5.6c1,0.6,2.5,0.6,3.4,0l9.1-5.3c0.9-0.6,0.9-1.4,0-2l-9.7-5.6c-1-0.5-2.5-0.5-3.4,0
						l-9.1,5.3C318.6,355.9,318.7,356.8,319.6,357.4z"/>
					<path class="st8" d="M166.9,289.8l9.7,5.6c1,0.6,2.5,0.6,3.4,0l9.1-5.3c1-0.6,0.9-1.4,0-2l-9.7-5.6c-1-0.6-2.5-0.6-3.4,0
						l-9.1,5.3C166,288.4,166,289.3,166.9,289.8z"/>
					<path class="st8" d="M183.5,299.4l9.7,5.6c1,0.6,2.5,0.6,3.4,0l9.1-5.3c1-0.6,0.9-1.4,0-2l-9.7-5.6c-1-0.6-2.5-0.6-3.4,0
						l-9.1,5.3C182.5,297.9,182.5,298.8,183.5,299.4z"/>
					<path class="st8" d="M200,308.9l9.7,5.6c1,0.6,2.5,0.6,3.4,0l9.1-5.3c1-0.6,0.9-1.4,0-2l-9.7-5.6c-1-0.6-2.5-0.6-3.4,0
						l-9.1,5.3C199.1,307.5,199.1,308.4,200,308.9z"/>
					<path class="st8" d="M216.6,318.5l9.7,5.6c1,0.6,2.5,0.6,3.4,0l9.1-5.3c1-0.6,0.9-1.4,0-2l-9.7-5.6c-1-0.6-2.5-0.6-3.4,0
						l-9.1,5.3C215.6,317,215.6,317.9,216.6,318.5z"/>
					<path class="st8" d="M233.1,328l9.7,5.6c1,0.5,2.5,0.5,3.4,0l9.1-5.3c1-0.6,0.9-1.4,0-2l-9.7-5.6c-1-0.6-2.5-0.6-3.4,0
						l-9.1,5.3C232.2,326.6,232.2,327.5,233.1,328z"/>
					<path class="st8" d="M249.7,337.6l9.7,5.6c1,0.6,2.5,0.6,3.4,0l9.1-5.3c1-0.6,0.9-1.4,0-2l-9.7-5.6c-1-0.6-2.5-0.6-3.4,0
						l-9.1,5.3C248.7,336.1,248.7,337,249.7,337.6z"/>
					<path class="st8" d="M266.2,347.1l9.7,5.6c1,0.5,2.5,0.5,3.4,0l9.1-5.3c1-0.6,0.9-1.4,0-2l-9.7-5.6c-1-0.6-2.5-0.6-3.4,0
						l-9.1,5.3C265.3,345.7,265.3,346.6,266.2,347.1z"/>
					<path class="st8" d="M305,355l-9.7-5.6c-1-0.6-2.5-0.6-3.4,0l-9.1,5.3c-0.9,0.6-0.9,1.4,0,2l9.7,5.6c1,0.6,2.5,0.6,3.4,0
						l9.1-5.3C305.9,356.4,305.9,355.5,305,355z"/>
					<path class="st8" d="M338.1,374.1l-16.5-9.6l-2.4-1.4l-7.3-4.2c-1-0.6-2.5-0.6-3.4,0l-9.1,5.3c-0.9,0.6-0.9,1.4,0,2l7.3,4.2
						l2.4,1.4l16.5,9.6c1,0.6,2.5,0.5,3.4,0l9.1-5.3C339,375.5,339,374.6,338.1,374.1z"/>
					<path class="st8" d="M237.8,336.8l-5.4-3.1l3.7,2.2l-6.9-4l-9.7-5.6l-6.9-4l-9.7-5.6l-6.9-4l-9.7-5.6l-6.9-4l-9.7-5.6
						l-16.5-9.6c-1-0.6-2.5-0.6-3.4,0l-9.1,5.3c-0.9,0.5-0.9,1.4,0,2l16.5,9.6l9.7,5.6l6.9,4l9.7,5.6l6.9,4l9.7,5.6l6.9,4l9.7,5.6
						l6.9,4l-3.7-2.2l5.4,3.1c1,0.6,2.5,0.6,3.4,0l9.1-5.3C238.8,338.2,238.8,337.3,237.8,336.8z"/>
					<path class="st8" d="M254.4,346.3l-9.7-5.6c-1-0.5-2.5-0.5-3.4,0l-9.1,5.3c-0.9,0.6-0.9,1.4,0,2l9.7,5.6c1,0.5,2.5,0.5,3.4,0
						l9.1-5.3C255.3,347.8,255.3,346.9,254.4,346.3z"/>
					<path class="st8" d="M270.9,355.9l-9.7-5.6c-1-0.6-2.5-0.6-3.4,0l-9.1,5.3c-0.9,0.6-0.9,1.4,0,2l9.7,5.6c1,0.6,2.5,0.6,3.4,0
						l9.1-5.3C271.9,357.3,271.9,356.4,270.9,355.9z"/>
					<path class="st8" d="M283.5,367.1l-9.7-5.6c-1-0.6-2.5-0.6-3.4,0l-5.7,3.3c-0.9,0.6-0.9,1.4,0,2l9.7,5.6c1,0.6,2.5,0.6,3.4,0
						l5.7-3.3C284.4,368.5,284.4,367.6,283.5,367.1z"/>
					<path class="st8" d="M318.1,386l-9.7-5.6c-1-0.6-2.5-0.6-3.4,0l-5.7,3.3c-0.9,0.5-0.9,1.4,0,2l9.7,5.6c1,0.5,2.5,0.5,3.4,0
						l5.7-3.3C319.1,387.5,319.1,386.6,318.1,386z"/>
					<path class="st8" d="M290.3,369.1L287,371l13.1,7.6l3.3-1.9c1-0.6,0.9-1.4,0-2l-9.7-5.6C292.8,368.5,291.3,368.5,290.3,369.1z"
						/>
					<path class="st8" d="M281.2,374.4c-0.9,0.6-0.9,1.4,0,2l9.7,5.6c1,0.6,2.5,0.6,3.4,0l3.3-1.9l-13.1-7.6L281.2,374.4z"/>
				</g>
			</g>
			<g>
				
					<linearGradient id="SVGID_10_" gradientUnits="userSpaceOnUse" x1="-127.8201" y1="313.3133" x2="114.2799" y2="313.3133" gradientTransform="matrix(-1 0 0 -1 314.5799 500)">
					<stop  offset="0" style="stop-color:#C395FF"/>
					<stop  offset="1" style="stop-color:#BA87FF"/>
				</linearGradient>
				<path class="st12" d="M442,163.9c-0.2-0.8-0.6-1.6-1-2.4c-0.4-0.8-1-1.5-1.6-2.1s-1.2-1.2-1.9-1.5l-225.8-130
					c-0.7-0.4-1.3-0.6-1.9-0.6c-0.6-0.1-1.1,0.1-1.5,0.3l-8,4.7l5.3,5.3l-0.1,91l-0.1,72.8c0,0.8,0.1,1.6,0.4,2.4
					c0.2,0.8,0.6,1.6,1,2.4c0.4,0.8,1,1.5,1.5,2.1c0.6,0.6,1.2,1.1,1.9,1.5l194.1,112.4l11.9,6.8l13.1,7.6l4.6,9.5l6.2-4.5
					c0.4-0.2,0.8-0.6,1.1-1.2c0.3-0.5,0.4-1.2,0.4-2l0.8-172.1C442.4,165.5,442.3,164.7,442,163.9z"/>
				<g>
					
						<linearGradient id="SVGID_11_" gradientUnits="userSpaceOnUse" x1="-2.7201" y1="210.9042" x2="-2.7201" y2="379.0747" gradientTransform="matrix(-1 0 0 -1 314.5799 500)">
						<stop  offset="0" style="stop-color:#CBB1FF"/>
						<stop  offset="1" style="stop-color:#BB9EFF"/>
					</linearGradient>
					<path class="st13" d="M435.4,169.4c-0.2-0.8-0.6-1.6-1-2.4c-0.4-0.8-1-1.5-1.6-2.1s-1.2-1.2-1.9-1.5L203.7,32.6
						c-0.7-0.4-1.3-0.6-1.9-0.6c-0.6-0.1-1.1,0.1-1.5,0.3c-0.4,0.3-0.8,0.7-1,1.2s-0.4,1.2-0.4,2l-0.1,98.2l-0.1,73.1
						c0,0.8,0.1,1.6,0.4,2.4c0.2,0.8,0.6,1.6,1,2.4c0.4,0.8,1,1.5,1.5,2.1c0.6,0.6,1.2,1.1,1.9,1.5l194.1,112.1l11.9,6.8l20,11.5
						c0.2,0.1,0.4,0.3,0.6,0.4c0.7,0.4,1.3,0.6,1.9,0.6c0.6,0.1,1.1,0,1.6-0.3c0.4-0.2,0.8-0.6,1.1-1.2c0.3-0.5,0.4-1.2,0.4-2
						l0.8-171.4C435.8,171,435.7,170.2,435.4,169.4z"/>
				</g>
			</g>
		</g>
		
			<linearGradient id="SVGID_12_" gradientUnits="userSpaceOnUse" x1="318.0998" y1="341.7562" x2="313.4331" y2="232.0848" gradientTransform="matrix(1 0 0 -1 0 500)">
			<stop  offset="4.143720e-02" style="stop-color:#1B0042"/>
			<stop  offset="1" style="stop-color:#5C00E3"/>
		</linearGradient>
		<path class="st14" d="M418.3,165.1L207,43.2l-0.1,159c0,0.8,0.1,1.6,0.4,2.4c0.2,0.8,0.6,1.6,1,2.4c0.4,0.8,1,1.5,1.5,2.1
			c0.6,0.6,1.2,1.1,1.9,1.5L422,332.3c0.7,0.4,1.3,0.6,1.9,0.7s1.1,0,1.5-0.3c0.4-0.2,0.8-0.6,1-1.2c0.2-0.5,0.4-1.2,0.4-1.9
			l0.7-150.2l0,0V170L418.3,165.1z"/>
		<g>
			<g>
				
					<linearGradient id="SVGID_13_" gradientUnits="userSpaceOnUse" x1="377.375" y1="303.025" x2="415.975" y2="341.625" gradientTransform="matrix(1 0 0 -1 0 500)">
					<stop  offset="0" style="stop-color:#EB197A"/>
					<stop  offset="0.1298" style="stop-color:#E61777"/>
					<stop  offset="0.2741" style="stop-color:#D9126E"/>
					<stop  offset="0.4248" style="stop-color:#C3095F"/>
					<stop  offset="0.5484" style="stop-color:#AB004F"/>
					<stop  offset="0.6396" style="stop-color:#9E0048"/>
					<stop  offset="0.8126" style="stop-color:#8C003F"/>
					<stop  offset="0.9343" style="stop-color:#85003B"/>
				</linearGradient>
				<polygon class="st15" points="397.3,203.6 427.6,170 395.9,151.9 365.7,185.3 				"/>
				
					<linearGradient id="SVGID_14_" gradientUnits="userSpaceOnUse" x1="345.75" y1="321.25" x2="384.25" y2="359.75" gradientTransform="matrix(1 0 0 -1 0 500)">
					<stop  offset="0" style="stop-color:#AB004F"/>
					<stop  offset="0.2547" style="stop-color:#8C0040"/>
					<stop  offset="0.5586" style="stop-color:#6D0031"/>
					<stop  offset="0.8179" style="stop-color:#5B0027"/>
					<stop  offset="1" style="stop-color:#540024"/>
				</linearGradient>
				<polygon class="st16" points="346.4,174.2 365.7,185.3 395.9,151.9 364.3,133.7 334.1,167.1 				"/>
				
					<linearGradient id="SVGID_15_" gradientUnits="userSpaceOnUse" x1="314.175" y1="339.525" x2="352.6654" y2="378.0154" gradientTransform="matrix(1 0 0 -1 0 500)">
					<stop  offset="0" style="stop-color:#EB197A"/>
					<stop  offset="0.1298" style="stop-color:#E61777"/>
					<stop  offset="0.2741" style="stop-color:#D9126E"/>
					<stop  offset="0.4248" style="stop-color:#C3095F"/>
					<stop  offset="0.5484" style="stop-color:#AB004F"/>
					<stop  offset="0.6396" style="stop-color:#9E0048"/>
					<stop  offset="0.8126" style="stop-color:#8C003F"/>
					<stop  offset="0.9343" style="stop-color:#85003B"/>
				</linearGradient>
				<polygon class="st17" points="334.1,167.1 364.3,133.7 350,125.4 332.7,115.4 302.5,148.8 				"/>
				
					<linearGradient id="SVGID_16_" gradientUnits="userSpaceOnUse" x1="282.55" y1="357.75" x2="321.05" y2="396.25" gradientTransform="matrix(1 0 0 -1 0 500)">
					<stop  offset="0" style="stop-color:#AB004F"/>
					<stop  offset="0.2547" style="stop-color:#8C0040"/>
					<stop  offset="0.5586" style="stop-color:#6D0031"/>
					<stop  offset="0.8179" style="stop-color:#5B0027"/>
					<stop  offset="1" style="stop-color:#540024"/>
				</linearGradient>
				<polygon class="st18" points="302.5,148.8 332.7,115.4 301.1,97.2 270.9,130.6 				"/>
				
					<linearGradient id="SVGID_17_" gradientUnits="userSpaceOnUse" x1="242.575" y1="367.625" x2="289.425" y2="414.475" gradientTransform="matrix(1 0 0 -1 0 500)">
					<stop  offset="0" style="stop-color:#EB197A"/>
					<stop  offset="0.1298" style="stop-color:#E61777"/>
					<stop  offset="0.2741" style="stop-color:#D9126E"/>
					<stop  offset="0.4248" style="stop-color:#C3095F"/>
					<stop  offset="0.5484" style="stop-color:#AB004F"/>
					<stop  offset="0.6396" style="stop-color:#9E0048"/>
					<stop  offset="0.8126" style="stop-color:#8C003F"/>
					<stop  offset="0.9343" style="stop-color:#85003B"/>
				</linearGradient>
				<polygon class="st19" points="246.8,136.6 270.9,130.6 301.1,97.2 269.5,78.9 239.3,112.3 				"/>
				
					<linearGradient id="SVGID_18_" gradientUnits="userSpaceOnUse" x1="219.3392" y1="394.2392" x2="257.8297" y2="432.7296" gradientTransform="matrix(1 0 0 -1 0 500)">
					<stop  offset="0" style="stop-color:#AB004F"/>
					<stop  offset="0.2547" style="stop-color:#8C0040"/>
					<stop  offset="0.5586" style="stop-color:#6D0031"/>
					<stop  offset="0.8179" style="stop-color:#5B0027"/>
					<stop  offset="1" style="stop-color:#540024"/>
				</linearGradient>
				<polygon class="st20" points="239.3,112.3 269.5,78.9 237.9,60.7 207.6,94.1 				"/>
				
					<linearGradient id="SVGID_19_" gradientUnits="userSpaceOnUse" x1="187.7" y1="412.5" x2="226.2" y2="451" gradientTransform="matrix(1 0 0 -1 0 500)">
					<stop  offset="0" style="stop-color:#EB197A"/>
					<stop  offset="0.1298" style="stop-color:#E61777"/>
					<stop  offset="0.2741" style="stop-color:#D9126E"/>
					<stop  offset="0.4248" style="stop-color:#C3095F"/>
					<stop  offset="0.5484" style="stop-color:#AB004F"/>
					<stop  offset="0.6396" style="stop-color:#9E0048"/>
					<stop  offset="0.8126" style="stop-color:#8C003F"/>
					<stop  offset="0.9343" style="stop-color:#85003B"/>
				</linearGradient>
				<polygon class="st21" points="237.9,60.7 206.3,42.4 176,75.8 207.6,94.1 				"/>
				
					<linearGradient id="SVGID_20_" gradientUnits="userSpaceOnUse" x1="371.7889" y1="289.2803" x2="388.0544" y2="305.5457" gradientTransform="matrix(1 0 0 -1 0 500)">
					<stop  offset="0" style="stop-color:#EB197A"/>
					<stop  offset="0.1298" style="stop-color:#E61777"/>
					<stop  offset="0.2741" style="stop-color:#D9126E"/>
					<stop  offset="0.4248" style="stop-color:#C3095F"/>
					<stop  offset="0.5484" style="stop-color:#AB004F"/>
					<stop  offset="0.6396" style="stop-color:#9E0048"/>
					<stop  offset="0.8126" style="stop-color:#8C003F"/>
					<stop  offset="0.9343" style="stop-color:#85003B"/>
				</linearGradient>
				<path class="st22" d="M365.7,192.6c0,9.5,6.6,21,14.9,25.8l1.7,1c8.2,4.8,15,0.9,15-8.5l0.1-7.1l-31.6-18.3L365.7,192.6z"/>
				
					<linearGradient id="SVGID_21_" gradientUnits="userSpaceOnUse" x1="340.1889" y1="307.5803" x2="356.4544" y2="323.8457" gradientTransform="matrix(1 0 0 -1 0 500)">
					<stop  offset="0" style="stop-color:#AB004F"/>
					<stop  offset="0.2547" style="stop-color:#8C0040"/>
					<stop  offset="0.5586" style="stop-color:#6D0031"/>
					<stop  offset="0.8179" style="stop-color:#5B0027"/>
					<stop  offset="1" style="stop-color:#540024"/>
				</linearGradient>
				<path class="st23" d="M334.2,167.2l-0.1,7.1c0,9.5,6.6,21,14.9,25.8l1.7,1c8.2,4.8,15,0.9,15-8.5l0.1-7.1L334.2,167.2z"/>
				
					<linearGradient id="SVGID_22_" gradientUnits="userSpaceOnUse" x1="308.5426" y1="325.834" x2="324.8081" y2="342.0994" gradientTransform="matrix(1 0 0 -1 0 500)">
					<stop  offset="0" style="stop-color:#EB197A"/>
					<stop  offset="0.1298" style="stop-color:#E61777"/>
					<stop  offset="0.2741" style="stop-color:#D9126E"/>
					<stop  offset="0.4248" style="stop-color:#C3095F"/>
					<stop  offset="0.5484" style="stop-color:#AB004F"/>
					<stop  offset="0.6396" style="stop-color:#9E0048"/>
					<stop  offset="0.8126" style="stop-color:#8C003F"/>
					<stop  offset="0.9343" style="stop-color:#85003B"/>
				</linearGradient>
				<path class="st24" d="M302.5,149l-0.1,7.1c0,9.5,6.6,21,14.9,25.8l1.7,1c8.2,4.8,15,0.9,15-8.5l0.1-7.1L302.5,149z"/>
				
					<linearGradient id="SVGID_23_" gradientUnits="userSpaceOnUse" x1="276.9119" y1="344.1033" x2="293.1773" y2="360.3687" gradientTransform="matrix(1 0 0 -1 0 500)">
					<stop  offset="0" style="stop-color:#AB004F"/>
					<stop  offset="0.2547" style="stop-color:#8C0040"/>
					<stop  offset="0.5586" style="stop-color:#6D0031"/>
					<stop  offset="0.8179" style="stop-color:#5B0027"/>
					<stop  offset="1" style="stop-color:#540024"/>
				</linearGradient>
				<path class="st25" d="M270.9,130.7l-0.1,7.1c0,9.5,6.6,21,14.9,25.8l1.7,1c8.2,4.8,15,0.9,15-8.5l0.1-7.1L270.9,130.7z"/>
				
					<linearGradient id="SVGID_24_" gradientUnits="userSpaceOnUse" x1="245.3315" y1="362.3228" x2="261.5969" y2="378.5882" gradientTransform="matrix(1 0 0 -1 0 500)">
					<stop  offset="0" style="stop-color:#EB197A"/>
					<stop  offset="0.1298" style="stop-color:#E61777"/>
					<stop  offset="0.2741" style="stop-color:#D9126E"/>
					<stop  offset="0.4248" style="stop-color:#C3095F"/>
					<stop  offset="0.5484" style="stop-color:#AB004F"/>
					<stop  offset="0.6396" style="stop-color:#9E0048"/>
					<stop  offset="0.8126" style="stop-color:#8C003F"/>
					<stop  offset="0.9343" style="stop-color:#85003B"/>
				</linearGradient>
				<path class="st26" d="M258.5,123.6l-19.2-11.1l-0.1,7.1c0,9.5,6.6,21,14.9,25.8l1.7,1l0,0c8.2,4.8,15,0.9,15-8.5l0.1-7.1
					L258.5,123.6z"/>
				
					<linearGradient id="SVGID_25_" gradientUnits="userSpaceOnUse" x1="213.7139" y1="380.5552" x2="229.9941" y2="396.8355" gradientTransform="matrix(1 0 0 -1 0 500)">
					<stop  offset="0" style="stop-color:#AB004F"/>
					<stop  offset="0.2547" style="stop-color:#8C0040"/>
					<stop  offset="0.5586" style="stop-color:#6D0031"/>
					<stop  offset="0.8179" style="stop-color:#5B0027"/>
					<stop  offset="1" style="stop-color:#540024"/>
				</linearGradient>
				<path class="st27" d="M228,105.9l-20.3-11.7l-0.1,7.1c0,9.5,6.6,21,14.9,25.8l0.2,0.1l1.6,0.9c8.2,4.8,15,0.9,15-8.5l0.1-7.1
					L228,105.9z"/>
				
					<linearGradient id="SVGID_26_" gradientUnits="userSpaceOnUse" x1="182.1453" y1="398.7867" x2="198.4129" y2="415.0542" gradientTransform="matrix(1 0 0 -1 0 500)">
					<stop  offset="0" style="stop-color:#EB197A"/>
					<stop  offset="0.1298" style="stop-color:#E61777"/>
					<stop  offset="0.2741" style="stop-color:#D9126E"/>
					<stop  offset="0.4248" style="stop-color:#C3095F"/>
					<stop  offset="0.5484" style="stop-color:#AB004F"/>
					<stop  offset="0.6396" style="stop-color:#9E0048"/>
					<stop  offset="0.8126" style="stop-color:#8C003F"/>
					<stop  offset="0.9343" style="stop-color:#85003B"/>
				</linearGradient>
				<path class="st28" d="M176.1,76v8c0.4,9.3,6.9,20.3,14.9,24.9l1.7,1c8.2,4.8,15,0.9,15-8.5l0.1-7.1L176.1,76z"/>
			</g>
		</g>
		<g>
			
				<linearGradient id="SVGID_27_" gradientUnits="userSpaceOnUse" x1="311.6976" y1="341.4146" x2="289.0359" y2="323.8947" gradientTransform="matrix(1 0 0 -1 0 500)">
				<stop  offset="0.1077" style="stop-color:#EED000"/>
				<stop  offset="1" style="stop-color:#ECA300"/>
			</linearGradient>
			<path class="st29" d="M280.7,172.7l2.7,3.8c0.2,0.2,0.2,0.5,0.2,0.7l-1,3c-0.1,0.4,0,0.9,0.3,1.4c0.2,0.2,0.4,0.4,0.5,0.5
				c0.2,0.1,0.4,0.1,0.5,0.1l2.7-0.7c0.1,0,0.2,0,0.3,0.1c0.1,0.1,0.2,0.1,0.3,0.2l2.7,3.8c0.2,0.2,0.4,0.4,0.5,0.5
				c0.2,0.1,0.4,0.1,0.5,0.1c0.3-0.1,0.5-0.5,0.3-1l-1-4.2c-0.1-0.2,0-0.4,0.2-0.5l2.7-0.7c0.3-0.1,0.5-0.5,0.3-1
				c-0.1-0.5-0.5-1-0.9-1.2l-3.3-1.9c-0.2-0.1-0.4-0.3-0.4-0.6l-1-4.2c-0.1-0.5-0.5-1-0.9-1.2l0,0c-0.4-0.2-0.8-0.1-0.9,0.2l-1,3
				c-0.1,0.2-0.2,0.2-0.4,0.1l-3.3-1.9c-0.4-0.2-0.8-0.1-0.9,0.2l0,0v0.6C280.4,172.3,280.5,172.5,280.7,172.7z"/>
			
				<linearGradient id="SVGID_28_" gradientUnits="userSpaceOnUse" x1="321.7654" y1="328.3922" x2="299.1036" y2="310.8723" gradientTransform="matrix(1 0 0 -1 0 500)">
				<stop  offset="0.1077" style="stop-color:#EED000"/>
				<stop  offset="1" style="stop-color:#ECA300"/>
			</linearGradient>
			<path class="st30" d="M306.3,195.1c0.3-0.1,0.5-0.5,0.3-1l-1-4.2c-0.1-0.2,0-0.4,0.2-0.5l2.7-0.7c0.3-0.1,0.5-0.5,0.3-1
				c-0.1-0.5-0.5-1-0.9-1.2l-3.3-1.9c-0.2-0.1-0.4-0.3-0.4-0.6l-1-4.2c-0.1-0.5-0.5-1-0.9-1.2l0,0c-0.4-0.2-0.8-0.1-0.9,0.2l-1,3
				c-0.1,0.2-0.2,0.2-0.4,0.1l-3.3-1.9c-0.4-0.2-0.8-0.1-0.9,0.2c-0.1,0.4,0,0.9,0.3,1.4l2.7,3.8c0.2,0.2,0.2,0.5,0.2,0.7l-1,3
				c-0.1,0.4,0,0.9,0.3,1.4c0.2,0.2,0.4,0.4,0.5,0.5c0.2,0.1,0.4,0.1,0.5,0.1l2.7-0.7c0.1,0,0.2,0,0.3,0.1c0.1,0.1,0.2,0.1,0.3,0.2
				l2.7,3.8c0.2,0.2,0.4,0.4,0.5,0.5l0,0C305.9,195.1,306.1,195.1,306.3,195.1z"/>
			
				<linearGradient id="SVGID_29_" gradientUnits="userSpaceOnUse" x1="331.8331" y1="315.3698" x2="309.1714" y2="297.8499" gradientTransform="matrix(1 0 0 -1 0 500)">
				<stop  offset="0.1077" style="stop-color:#EED000"/>
				<stop  offset="1" style="stop-color:#ECA300"/>
			</linearGradient>
			<path class="st31" d="M321.2,198.3l2.7-0.7c0.3-0.1,0.5-0.5,0.3-1c-0.1-0.5-0.5-1-0.9-1.2l-3.3-1.9c-0.2-0.1-0.4-0.3-0.4-0.6
				l-1-4.2c-0.1-0.5-0.5-1-0.9-1.2s-0.8-0.1-0.9,0.2l-1,3c-0.1,0.2-0.2,0.2-0.4,0.1l-3.3-1.9c-0.4-0.2-0.8-0.1-0.9,0.2
				c-0.1,0.4,0,0.9,0.3,1.4l2.7,3.8c0.2,0.2,0.2,0.5,0.2,0.7l-1,3c-0.1,0.4,0,0.9,0.3,1.4c0.2,0.2,0.4,0.4,0.5,0.5
				c0.2,0.1,0.4,0.1,0.5,0.1l2.7-0.7c0.1,0,0.2,0,0.3,0.1c0.1,0.1,0.2,0.1,0.3,0.2l2.7,3.8c0.2,0.2,0.4,0.4,0.5,0.5
				c0.2,0.1,0.4,0.1,0.5,0.1c0.3-0.1,0.5-0.5,0.3-1l-1-4.2C320.9,198.6,321,198.4,321.2,198.3z"/>
			
				<linearGradient id="SVGID_30_" gradientUnits="userSpaceOnUse" x1="341.9009" y1="302.3474" x2="319.2392" y2="284.8274" gradientTransform="matrix(1 0 0 -1 0 500)">
				<stop  offset="0.1077" style="stop-color:#EED000"/>
				<stop  offset="1" style="stop-color:#ECA300"/>
			</linearGradient>
			<path class="st32" d="M336.6,207.2l2.7-0.7c0.3-0.1,0.5-0.5,0.3-1c-0.1-0.5-0.5-1-0.9-1.2l-3.3-1.9c-0.2-0.1-0.4-0.3-0.4-0.6
				l-1-4.2c-0.1-0.5-0.5-1-0.9-1.2s-0.8-0.1-0.9,0.2l-1,3c-0.1,0.2-0.2,0.2-0.4,0.1l-3.3-1.9c-0.4-0.2-0.8-0.1-0.9,0.2
				c-0.1,0.4,0,0.9,0.3,1.4l2.7,3.8c0.2,0.2,0.2,0.5,0.2,0.7l-1,3c-0.1,0.4,0,0.9,0.3,1.4c0.2,0.2,0.4,0.4,0.5,0.5
				c0.2,0.1,0.4,0.1,0.5,0.1l2.7-0.7c0.1,0,0.2,0,0.3,0.1c0.1,0.1,0.2,0.1,0.3,0.2l2.7,3.8c0.2,0.2,0.4,0.4,0.5,0.5
				c0.2,0.1,0.4,0.1,0.5,0.1c0.3-0.1,0.5-0.5,0.3-1l-1-4.2C336.3,207.5,336.4,207.3,336.6,207.2z M335.9,207.6l1,4.2
				c0.1,0.3,0,0.4-0.2,0.5c-0.1,0-0.2,0-0.3-0.1c-0.1,0-0.2-0.1-0.3-0.2l-2.7-3.8c-0.2-0.2-0.4-0.4-0.5-0.5
				c-0.2-0.1-0.4-0.2-0.5-0.1l-2.7,0.7c-0.1,0-0.2,0-0.3,0c-0.1-0.1-0.2-0.2-0.3-0.3c-0.1-0.2-0.2-0.4-0.2-0.7l1-3
				c0.1-0.4,0-0.9-0.3-1.4l-2.7-3.8c-0.2-0.3-0.2-0.5-0.2-0.7c0-0.1,0.2-0.2,0.4-0.1l3.3,1.9c0.4,0.2,0.8,0.1,0.9-0.2l1-3
				c0.1-0.2,0.3-0.2,0.4-0.1c0.2,0.1,0.3,0.3,0.4,0.6l1,4.2c0.1,0.5,0.5,1,0.9,1.2l3.3,1.9c0.2,0.1,0.4,0.4,0.4,0.6
				c0,0.2,0,0.4-0.2,0.5l-2.7,0.7C336,206.7,335.8,207.1,335.9,207.6z"/>
			
				<linearGradient id="SVGID_31_" gradientUnits="userSpaceOnUse" x1="351.9686" y1="289.325" x2="329.3069" y2="271.805" gradientTransform="matrix(1 0 0 -1 0 500)">
				<stop  offset="0.1077" style="stop-color:#EED000"/>
				<stop  offset="1" style="stop-color:#ECA300"/>
			</linearGradient>
			<path class="st33" d="M355,214.4c-0.1-0.5-0.5-1-0.9-1.2l-3.3-1.9c-0.2-0.1-0.4-0.3-0.4-0.6l-1-4.2c-0.1-0.5-0.5-1-0.9-1.2
				s-0.8-0.1-0.9,0.2l-1,3c-0.1,0.2-0.2,0.2-0.4,0.1l-3.3-1.9c-0.4-0.2-0.8-0.1-0.9,0.2c-0.1,0.4,0,0.9,0.3,1.4l2.7,3.8
				c0.2,0.2,0.2,0.5,0.2,0.7l-1,3c-0.1,0.4,0,0.9,0.3,1.4c0.2,0.2,0.4,0.4,0.5,0.5c0.2,0.1,0.4,0.1,0.5,0.1l2.7-0.7
				c0.1,0,0.2,0,0.3,0.1c0.1,0.1,0.2,0.1,0.3,0.2l2.7,3.8c0.2,0.2,0.4,0.4,0.5,0.5c0.2,0.1,0.4,0.1,0.5,0.1c0.3-0.1,0.5-0.5,0.3-1
				l-1-4.2c-0.1-0.2,0-0.4,0.2-0.5l2.7-0.7c0.2,0,0.3-0.2,0.3-0.3L355,214.4z M354.4,214.8l-2.7,0.7c-0.3,0.1-0.5,0.5-0.3,1l1,4.2
				c0.1,0.3,0,0.4-0.2,0.5c-0.1,0-0.2,0-0.3-0.1c-0.1,0-0.2-0.1-0.3-0.2l-2.7-3.8c-0.2-0.2-0.4-0.4-0.5-0.5
				c-0.2-0.1-0.4-0.2-0.5-0.1l-2.7,0.7c-0.1,0-0.2,0-0.3-0.1c-0.1-0.1-0.2-0.2-0.3-0.3c-0.1-0.2-0.2-0.4-0.2-0.7l1-3
				c0.1-0.4,0-0.9-0.3-1.4l-2.7-3.8c-0.2-0.3-0.2-0.5-0.2-0.7c0-0.1,0.2-0.2,0.4-0.1l3.3,1.9c0.4,0.2,0.8,0.1,0.9-0.2l1-3
				c0.1-0.2,0.3-0.2,0.4-0.1c0.2,0.1,0.3,0.3,0.4,0.6l1,4.2c0.1,0.5,0.5,1,0.9,1.2l3.3,1.9c0.2,0.1,0.4,0.4,0.4,0.6
				C354.6,214.5,354.5,214.8,354.4,214.8z"/>
		</g>
		<g>
			<polygon class="st34" points="244.9,159.1 250.3,162.2 249.9,155.7 248.9,155.1 248.9,155.1 248.9,155.1 245.3,153 			"/>
			<path class="st34" d="M248.5,152.9c0-0.6-0.4-1.3-0.9-1.5c-0.5-0.3-0.9-0.1-0.9,0.5v1l1.8,1L248.5,152.9z"/>
			<path class="st35" d="M223.3,145c-0.8-0.4-1.5-1.3-2.1-2.5l-1,1.5c0.8,1.2,2.1,2.4,3.3,3.1c2,1.2,3.3,0.7,3.3-1.2
				c0-1.4-0.8-2.8-2-3.7l-0.4-0.3l2-1v-1.5l-5.8-3.3v2l2.9,1.7l-1.7,0.9v1.4l1.4,0.8c0.8,0.4,1.2,1,1.2,1.7
				C224.4,145.4,224,145.5,223.3,145z"/>
			<path class="st35" d="M230.6,146l-2.9,1.8v1.8l6.3,3.6V151l-3.2-1.9l1.5-0.8c0.9-0.5,1.6-1.2,1.6-2.2c0-1.5-1.2-3.2-2.9-4.1
				c-1.2-0.7-2.4-0.8-3.5-0.6l0.9,2.5c0.8-0.3,1.6-0.3,2.2,0.1c0.5,0.3,0.7,0.6,0.7,1.1C231.3,145.4,231,145.8,230.6,146z"/>
			<polygon class="st35" points="240.4,156.9 240.4,154.9 241.4,155.5 241.4,153.5 240.4,152.9 240.4,151.1 238.2,149.8 
				238.2,151.7 237.1,151 239.2,146.8 236.9,145.5 234.7,149.8 234.7,151.6 238.2,153.7 238.2,155.6 			"/>
			<path class="st35" d="M248.9,155.1l1,0.6l0.4,6.5l-5.4-3.1l0.4-6.1L248.9,155.1c-0.2-0.1-0.4-0.4-0.4-0.7V154l-1.8-1v0.4
				c0,0.3-0.2,0.3-0.4,0.2s-0.4-0.4-0.4-0.7v-0.4l-1-0.6c-0.2-0.1-0.4,0-0.4,0.2L244,159c0,0.1,0,0.3,0.1,0.4
				c0.1,0.1,0.2,0.2,0.3,0.3l6.3,3.6c0.1,0.1,0.2,0.1,0.3,0c0.1,0,0.1-0.2,0.1-0.3l-0.4-7.5c0-0.2-0.2-0.5-0.4-0.6l-1-0.6v0.4
				C249.3,155.1,249.1,155.2,248.9,155.1z"/>
			<path class="st35" d="M245.9,151.4v1v0.4c0,0.3,0.2,0.6,0.4,0.7c0.2,0.1,0.4,0,0.4-0.2v-0.4v-1c0-0.6,0.4-0.8,0.9-0.5
				s0.9,1,0.9,1.5v1v0.4c0,0.3,0.2,0.6,0.4,0.7l0,0l0,0c0.2,0.1,0.4,0,0.4-0.2v-0.4v-1c0-1.1-0.7-2.4-1.7-2.9l0,0
				C246.7,149.9,245.9,150.4,245.9,151.4z"/>
			<polygon class="st35" points="251.2,167.7 220.1,149.7 220.1,152.3 251.2,170.2 251.2,168.6 			"/>
			<polygon class="st35" points="234.4,164 220.1,155.7 220.1,156.5 220.1,158.2 234.4,166.5 			"/>
			<polygon class="st35" points="239.8,169.6 246.5,173.5 246.5,170.9 239.8,167.1 			"/>
			<polygon class="st35" points="241.4,176.5 241.4,174 220.1,161.7 220.1,162.4 220.1,164.2 			"/>
			<polygon class="st35" points="248.5,178.1 248.5,180.6 251.1,182.2 251.2,179.6 			"/>
			<polygon class="st35" points="235.9,179.4 235.9,176.8 232.3,174.7 232.3,177.3 			"/>
			<polygon class="st35" points="230.3,176.1 230.3,173.6 220,167.7 220,170.2 			"/>
			<polygon class="st35" points="220,176.2 239.9,187.7 239.9,185.1 220,173.6 220,175.9 			"/>
			<polygon class="st35" points="244,190 247,191.7 247,189.2 244,187.4 			"/>
			<polygon class="st35" points="249.1,190.4 249.1,193 251.1,194.1 251.1,191.7 251.1,191.6 			"/>
			<polygon class="st35" points="231,185.9 231,188.5 251.1,200.1 251.1,197.6 			"/>
			<polygon class="st35" points="223.7,184.2 223.7,181.7 220,179.6 220,182.1 			"/>
			<polygon class="st35" points="238.3,198.7 238.3,196.2 220,185.6 220,188.1 			"/>
			<polygon class="st35" points="243.8,201.9 251.1,206.1 251.1,204.1 251.1,203.5 243.8,199.3 			"/>
			<polygon class="st35" points="232,198.5 232,201 251.1,212.1 251.1,209.5 			"/>
		</g>
	</g>
</g>
<g>
	<g class="st0">
		<g>
			<polygon points="68.4,300.5 127.5,267.7 153.3,277.5 95.5,310.6 			"/>
		</g>
	</g>
	<g>
		<g>
			<path class="st36" d="M111.6,234c-0.6-6.5-2-16.8-6.4-19.9c-1.3-0.9-2.8-1.1-4.4-0.5c-8.5,3.4-9.1,21.8-9.2,27.3
				c0,0.8,0,2.1,0,2.1l1.1-0.5c0,0,0-0.6,0-1.2c0-4.5,0.5-23.4,8.5-26.7c1.2-0.5,2.4-0.4,3.4,0.3c4,2.9,5.4,13.1,5.9,19.4L111.6,234
				z"/>
		</g>
		
			<linearGradient id="SVGID_32_" gradientUnits="userSpaceOnUse" x1="-2462.6736" y1="168.0471" x2="-2434.5872" y2="265.0168" gradientTransform="matrix(-1 0 0 -1 -2328.5908 500)">
			<stop  offset="4.143720e-02" style="stop-color:#1B0042"/>
			<stop  offset="1" style="stop-color:#5C00E3"/>
		</linearGradient>
		<polygon class="st37" points="134.1,228 141.7,281.1 96.7,306.9 95.9,246.9 		"/>
		
			<linearGradient id="SVGID_33_" gradientUnits="userSpaceOnUse" x1="104.8322" y1="248.8015" x2="110.1263" y2="274.0721" gradientTransform="matrix(1 0 0 -1 0 500)">
			<stop  offset="4.143720e-02" style="stop-color:#1B0042"/>
			<stop  offset="1" style="stop-color:#5C00E3"/>
		</linearGradient>
		<polygon class="st38" points="134.1,228 95.9,246.9 90.8,244 82.1,243.2 117.7,225.5 123.3,227.6 		"/>
		
			<linearGradient id="SVGID_34_" gradientUnits="userSpaceOnUse" x1="123.6727" y1="262.4106" x2="126.5124" y2="276.2305" gradientTransform="matrix(1 0 0 -1 0 500)">
			<stop  offset="4.143720e-02" style="stop-color:#1B0042"/>
			<stop  offset="1" style="stop-color:#5C00E3"/>
		</linearGradient>
		<polygon class="st39" points="117.7,236.1 134.1,228 123.3,227.6 117.7,225.5 		"/>
		
			<linearGradient id="SVGID_35_" gradientUnits="userSpaceOnUse" x1="-2424.585" y1="278.8811" x2="-2416.4961" y2="213.1806" gradientTransform="matrix(-1 0 0 -1 -2328.5908 500)">
			<stop  offset="4.143720e-02" style="stop-color:#1B0042"/>
			<stop  offset="1" style="stop-color:#5C00E3"/>
		</linearGradient>
		<polygon class="st40" points="95.9,246.9 96.7,306.9 75.2,298.5 82.1,243.2 90.8,244 		"/>
		
			<linearGradient id="SVGID_36_" gradientUnits="userSpaceOnUse" x1="-2413.627" y1="191.2149" x2="-2423.3115" y2="255.7049" gradientTransform="matrix(-1 0 0 -1 -2328.5908 500)">
			<stop  offset="4.143720e-02" style="stop-color:#1B0042"/>
			<stop  offset="1" style="stop-color:#5C00E3"/>
		</linearGradient>
		<polygon class="st41" points="95.9,246.9 96.7,306.9 75.2,298.5 87.7,294.4 90.8,244 		"/>
		
			<linearGradient id="SVGID_37_" gradientUnits="userSpaceOnUse" x1="-2416.4036" y1="205.8378" x2="-2414.4226" y2="196.7586" gradientTransform="matrix(-1 0 0 -1 -2328.5908 500)">
			<stop  offset="4.143720e-02" style="stop-color:#1B0042"/>
			<stop  offset="1" style="stop-color:#5C00E3"/>
		</linearGradient>
		<polygon class="st42" points="96.7,306.9 75.2,298.5 87.7,294.4 		"/>
		
			<linearGradient id="SVGID_38_" gradientUnits="userSpaceOnUse" x1="-2456.1543" y1="261.1114" x2="-2457.5576" y2="257.067" gradientTransform="matrix(-1 0 0 -1 -2328.5908 500)">
			<stop  offset="4.143720e-02" style="stop-color:#1B0042"/>
			<stop  offset="1" style="stop-color:#5C00E3"/>
		</linearGradient>
		<path class="st43" d="M125.6,236.4c0-0.6,0.5-1.1,1.1-1.1s1.1,0.5,1.1,1.1s-0.5,1.1-1.1,1.1S125.6,237,125.6,236.4z"/>
		
			<linearGradient id="SVGID_39_" gradientUnits="userSpaceOnUse" x1="-2435.4851" y1="253.9403" x2="-2436.8882" y2="249.8959" gradientTransform="matrix(-1 0 0 -1 -2328.5908 500)">
			<stop  offset="4.143720e-02" style="stop-color:#1B0042"/>
			<stop  offset="1" style="stop-color:#5C00E3"/>
		</linearGradient>
		<path class="st44" d="M105.6,245.5c0-0.6,0.5-1.1,1.1-1.1s1.1,0.5,1.1,1.1s-0.5,1.1-1.1,1.1S105.6,246.1,105.6,245.5z"/>
		<g>
			<path class="st35" d="M126.9,237.3c0.4-0.1,0.4-0.6,0.4-0.9c0-0.1,0-0.3-0.1-0.6c-0.4-2.6-2.9-15.8-8.2-18.6
				c-1.5-0.8-3-0.7-4.7,0.2c-6.8,3.8-7.9,24.1-8,28.5c0,0.6,0.3,0.7,0.5,0.7c0.3-0.1,0.5-0.5,0.5-0.8c0.1-3.4,1.2-23.8,7.6-27.4
				c1.3-0.7,2.5-0.8,3.7-0.1c3.8,2,6.5,10.8,7.6,17.8c0,0.2,0.1,0.4,0.1,0.5C126.2,237.3,126.6,237.4,126.9,237.3z"/>
		</g>
	</g>
</g>
<g>
	<g class="st0">
		<g>
			<polygon points="258.1,321.6 202.5,290.7 166.3,310.8 221.6,342.6 			"/>
		</g>
	</g>
	<g>
		<g>
			
				<linearGradient id="SVGID_40_" gradientUnits="userSpaceOnUse" x1="239.6504" y1="229.495" x2="148.4604" y2="171.9175" gradientTransform="matrix(1 0 0 -1 0 500)">
				<stop  offset="0" style="stop-color:#F6F4FF"/>
				<stop  offset="1" style="stop-color:#D4CAFF"/>
			</linearGradient>
			<polygon class="st45" points="218.1,312.6 169.3,284.6 202.3,265.5 251.1,293.6 			"/>
		</g>
		
			<linearGradient id="SVGID_41_" gradientUnits="userSpaceOnUse" x1="251.0294" y1="143.9072" x2="238.8431" y2="171.0922" gradientTransform="matrix(1 0 0 -1 0 500)">
			<stop  offset="0" style="stop-color:#E6D9FF"/>
			<stop  offset="1" style="stop-color:#D4BBFF"/>
		</linearGradient>
		<polygon class="st46" points="219.8,338.3 219.7,319.1 249.9,301.7 249.9,320.8 		"/>
		<g>
			
				<linearGradient id="SVGID_42_" gradientUnits="userSpaceOnUse" x1="189.1805" y1="176.7609" x2="203.389" y2="197.3235" gradientTransform="matrix(1 0 0 -1 0 500)">
				<stop  offset="0" style="stop-color:#F6F4FF"/>
				<stop  offset="1" style="stop-color:#D4CAFF"/>
			</linearGradient>
			<polygon class="st47" points="219.8,338.3 170.6,310 170.5,290.9 219.7,319.1 			"/>
		</g>
		<g>
			
				<linearGradient id="SVGID_43_" gradientUnits="userSpaceOnUse" x1="236.484" y1="189.9975" x2="236.3069" y2="198.8549" gradientTransform="matrix(1 0 0 -1 0 500)">
				<stop  offset="0" style="stop-color:#EB197A"/>
				<stop  offset="0.1298" style="stop-color:#E61777"/>
				<stop  offset="0.2741" style="stop-color:#D9126E"/>
				<stop  offset="0.4248" style="stop-color:#C3095F"/>
				<stop  offset="0.5484" style="stop-color:#AB004F"/>
				<stop  offset="0.6396" style="stop-color:#9E0048"/>
				<stop  offset="0.8126" style="stop-color:#8C003F"/>
				<stop  offset="0.9343" style="stop-color:#85003B"/>
			</linearGradient>
			<polygon class="st48" points="238.1,301.1 238.1,308.5 234.7,310.5 234.7,303 			"/>
		</g>
		<g>
			
				<linearGradient id="SVGID_44_" gradientUnits="userSpaceOnUse" x1="185.6903" y1="219.3875" x2="212.6653" y2="219.3875" gradientTransform="matrix(1 0 0 -1 0 500)">
				<stop  offset="0" style="stop-color:#EB197A"/>
				<stop  offset="0.1298" style="stop-color:#E61777"/>
				<stop  offset="0.2741" style="stop-color:#D9126E"/>
				<stop  offset="0.4248" style="stop-color:#C3095F"/>
				<stop  offset="0.5484" style="stop-color:#AB004F"/>
				<stop  offset="0.6396" style="stop-color:#9E0048"/>
				<stop  offset="0.8126" style="stop-color:#8C003F"/>
				<stop  offset="0.9343" style="stop-color:#85003B"/>
			</linearGradient>
			<path class="st49" d="M212.7,286.4L189.2,273c-0.2-0.1-0.4-0.1-0.6,0l-2.8,1.6c-0.1,0.1-0.1,0.3,0,0.3l23.4,13.4L212.7,286.4z"/>
		</g>
		<g>
			
				<linearGradient id="SVGID_45_" gradientUnits="userSpaceOnUse" x1="191.6994" y1="184.9236" x2="195.1688" y2="193.1634" gradientTransform="matrix(1 0 0 -1 0 500)">
				<stop  offset="0.4301" style="stop-color:#D4BBFF;stop-opacity:0"/>
				<stop  offset="0.97" style="stop-color:#D4BBFF"/>
			</linearGradient>
			<polygon class="st50" points="219.7,323.1 170.5,294.9 170.5,290.9 219.7,319.1 			"/>
		</g>
		<g>
			
				<linearGradient id="SVGID_46_" gradientUnits="userSpaceOnUse" x1="195.6445" y1="201.539" x2="191.6064" y2="193.4627" gradientTransform="matrix(1 0 0 -1 0 500)">
				<stop  offset="0" style="stop-color:#F6F4FF"/>
				<stop  offset="1" style="stop-color:#D4CAFF"/>
			</linearGradient>
			<polygon class="st51" points="218.1,320.1 169.3,292.2 169.3,284.6 218.1,312.6 			"/>
		</g>
		<g>
			
				<linearGradient id="SVGID_47_" gradientUnits="userSpaceOnUse" x1="219.7276" y1="181.6133" x2="244.6507" y2="201.0301" gradientTransform="matrix(1 0 0 -1 0 500)">
				<stop  offset="0" style="stop-color:#F6F4FF"/>
				<stop  offset="1" style="stop-color:#D4CAFF"/>
			</linearGradient>
			<polygon class="st52" points="251.1,293.6 251.1,301 218.1,320.1 218.1,312.6 234.7,303 234.7,310.5 238.1,308.5 238.1,301.1 			
				"/>
		</g>
		<g>
			
				<linearGradient id="SVGID_48_" gradientUnits="userSpaceOnUse" x1="194.2528" y1="173.5719" x2="196.3075" y2="192.6967" gradientTransform="matrix(1 0 0 -1 0 500)">
				<stop  offset="0" style="stop-color:#EB197A"/>
				<stop  offset="0.1298" style="stop-color:#E61777"/>
				<stop  offset="0.2741" style="stop-color:#D9126E"/>
				<stop  offset="0.4248" style="stop-color:#C3095F"/>
				<stop  offset="0.5484" style="stop-color:#AB004F"/>
				<stop  offset="0.6396" style="stop-color:#9E0048"/>
				<stop  offset="0.8126" style="stop-color:#8C003F"/>
				<stop  offset="0.9343" style="stop-color:#85003B"/>
			</linearGradient>
			<polygon class="st53" points="197.1,308.1 193.7,306.2 193.7,323.3 197.1,325.3 197.1,310 			"/>
		</g>
		<g>
			
				<linearGradient id="SVGID_49_" gradientUnits="userSpaceOnUse" x1="193.7289" y1="190.4396" x2="194.7538" y2="200.6883" gradientTransform="matrix(1 0 0 -1 0 500)">
				<stop  offset="0" style="stop-color:#EB197A"/>
				<stop  offset="0.1298" style="stop-color:#E61777"/>
				<stop  offset="0.2741" style="stop-color:#D9126E"/>
				<stop  offset="0.4248" style="stop-color:#C3095F"/>
				<stop  offset="0.5484" style="stop-color:#AB004F"/>
				<stop  offset="0.6396" style="stop-color:#9E0048"/>
				<stop  offset="0.8126" style="stop-color:#8C003F"/>
				<stop  offset="0.9343" style="stop-color:#85003B"/>
			</linearGradient>
			<polygon class="st54" points="192.7,298.1 192.7,305.6 196.1,307.6 196.1,300 			"/>
		</g>
		
			<linearGradient id="SVGID_50_" gradientUnits="userSpaceOnUse" x1="234.2409" y1="223.1581" x2="220.3945" y2="216.1763" gradientTransform="matrix(1 0 0 -1 0 500)">
			<stop  offset="0" style="stop-color:#EB197A"/>
			<stop  offset="0.1298" style="stop-color:#E61777"/>
			<stop  offset="0.2741" style="stop-color:#D9126E"/>
			<stop  offset="0.4248" style="stop-color:#C3095F"/>
			<stop  offset="0.5484" style="stop-color:#AB004F"/>
			<stop  offset="0.6396" style="stop-color:#9E0048"/>
			<stop  offset="0.8126" style="stop-color:#8C003F"/>
			<stop  offset="0.9343" style="stop-color:#85003B"/>
		</linearGradient>
		<path class="st55" d="M214.5,287.3c0.6,0.3,1.1,0.6,1.7,1l12.9-7.5c0.1-0.1,0.1-0.2,0-0.3l-3-1.7c-0.1-0.1-0.3-0.1-0.4,0
			l-13.6,7.9C213,286.9,213.8,287,214.5,287.3z"/>
		
			<linearGradient id="SVGID_51_" gradientUnits="userSpaceOnUse" x1="192.1742" y1="198.7191" x2="204.0715" y2="206.5914" gradientTransform="matrix(1 0 0 -1 0 500)">
			<stop  offset="0" style="stop-color:#EB197A"/>
			<stop  offset="0.1298" style="stop-color:#E61777"/>
			<stop  offset="0.2741" style="stop-color:#D9126E"/>
			<stop  offset="0.4248" style="stop-color:#C3095F"/>
			<stop  offset="0.5484" style="stop-color:#AB004F"/>
			<stop  offset="0.6396" style="stop-color:#9E0048"/>
			<stop  offset="0.8126" style="stop-color:#8C003F"/>
			<stop  offset="0.9343" style="stop-color:#85003B"/>
		</linearGradient>
		<path class="st56" d="M212,289.6c-0.9-0.4-1.7-0.8-2.5-1.3l-16.9,9.9l3.4,2l17-9.9C212.8,289.9,212.4,289.7,212,289.6z"/>
		
			<linearGradient id="SVGID_52_" gradientUnits="userSpaceOnUse" x1="238.4822" y1="197.2686" x2="228.9109" y2="202.3859" gradientTransform="matrix(1 0 0 -1 0 500)">
			<stop  offset="0" style="stop-color:#EB197A"/>
			<stop  offset="0.1298" style="stop-color:#E61777"/>
			<stop  offset="0.2741" style="stop-color:#D9126E"/>
			<stop  offset="0.4248" style="stop-color:#C3095F"/>
			<stop  offset="0.5484" style="stop-color:#AB004F"/>
			<stop  offset="0.6396" style="stop-color:#9E0048"/>
			<stop  offset="0.8126" style="stop-color:#8C003F"/>
			<stop  offset="0.9343" style="stop-color:#85003B"/>
		</linearGradient>
		<path class="st57" d="M215.4,288c-0.5-0.3-3.7,1.7-3.1,2.2l22.4,12.9l3.4-2L215.4,288z"/>
		<g>
			
				<linearGradient id="SVGID_53_" gradientUnits="userSpaceOnUse" x1="235.5536" y1="172.9286" x2="235.1635" y2="191.7832" gradientTransform="matrix(1 0 0 -1 0 500)">
				<stop  offset="0" style="stop-color:#EB197A"/>
				<stop  offset="0.1298" style="stop-color:#E61777"/>
				<stop  offset="0.2741" style="stop-color:#D9126E"/>
				<stop  offset="0.4248" style="stop-color:#C3095F"/>
				<stop  offset="0.5484" style="stop-color:#AB004F"/>
				<stop  offset="0.6396" style="stop-color:#9E0048"/>
				<stop  offset="0.8126" style="stop-color:#8C003F"/>
				<stop  offset="0.9343" style="stop-color:#85003B"/>
			</linearGradient>
			<polygon class="st58" points="233.7,311.1 237.1,309.1 237.2,328.2 233.7,330.2 233.7,313 			"/>
		</g>
		<g>
			
				<linearGradient id="SVGID_54_" gradientUnits="userSpaceOnUse" x1="202.82" y1="217.7074" x2="208.5345" y2="215.7792" gradientTransform="matrix(1 0 0 -1 0 500)">
				<stop  offset="0" style="stop-color:#AB004F"/>
				<stop  offset="0.2547" style="stop-color:#8C0040"/>
				<stop  offset="0.5586" style="stop-color:#6D0031"/>
				<stop  offset="0.8179" style="stop-color:#5B0027"/>
				<stop  offset="1" style="stop-color:#540024"/>
			</linearGradient>
			<path class="st59" d="M203.1,279.9c0,0-1.4,0.7,0.5,3.3c1.8,2.6,6.2,5.2,6.2,5.2s1.6-2.8,1.5-2.9l-3.5-5.2
				C207.7,280.3,205.1,278.8,203.1,279.9z"/>
			
				<linearGradient id="SVGID_55_" gradientUnits="userSpaceOnUse" x1="206.0143" y1="221.6109" x2="209.9057" y2="212.0049" gradientTransform="matrix(1 0 0 -1 0 500)">
				<stop  offset="0" style="stop-color:#EB197A"/>
				<stop  offset="0.1298" style="stop-color:#E61777"/>
				<stop  offset="0.2741" style="stop-color:#D9126E"/>
				<stop  offset="0.4248" style="stop-color:#C3095F"/>
				<stop  offset="0.5484" style="stop-color:#AB004F"/>
				<stop  offset="0.6396" style="stop-color:#9E0048"/>
				<stop  offset="0.8126" style="stop-color:#8C003F"/>
				<stop  offset="0.9343" style="stop-color:#85003B"/>
			</linearGradient>
			<path class="st60" d="M209.7,288.3c0.1,0.3,2.9-1.4,2.9-1.8c0.1-0.3-1.6-5.7-3.1-7.1c-1.4-1.4-2.5-1.5-2.8-1.5s-3.3,1.7-3.7,2
				c0.6-0.5,2.6-0.4,4.1,2.4S209.6,287.6,209.7,288.3z"/>
			
				<linearGradient id="SVGID_56_" gradientUnits="userSpaceOnUse" x1="220.8308" y1="219.7072" x2="216.3434" y2="214.3082" gradientTransform="matrix(1 0 0 -1 0 500)">
				<stop  offset="0" style="stop-color:#AB004F"/>
				<stop  offset="0.2547" style="stop-color:#8C0040"/>
				<stop  offset="0.5586" style="stop-color:#6D0031"/>
				<stop  offset="0.8179" style="stop-color:#5B0027"/>
				<stop  offset="1" style="stop-color:#540024"/>
			</linearGradient>
			<path class="st61" d="M222.2,279.9c0,0,1.4,0.7-0.5,3.3c-1.8,2.6-6.2,5.2-6.2,5.2s-1.6-2.8-1.5-2.9l3.5-5.2
				C217.6,280.3,220.2,278.8,222.2,279.9z"/>
			
				<linearGradient id="SVGID_57_" gradientUnits="userSpaceOnUse" x1="219.6325" y1="222.1177" x2="215.075" y2="211.9509" gradientTransform="matrix(1 0 0 -1 0 500)">
				<stop  offset="0" style="stop-color:#EB197A"/>
				<stop  offset="0.1298" style="stop-color:#E61777"/>
				<stop  offset="0.2741" style="stop-color:#D9126E"/>
				<stop  offset="0.4248" style="stop-color:#C3095F"/>
				<stop  offset="0.5484" style="stop-color:#AB004F"/>
				<stop  offset="0.6396" style="stop-color:#9E0048"/>
				<stop  offset="0.8126" style="stop-color:#8C003F"/>
				<stop  offset="0.9343" style="stop-color:#85003B"/>
			</linearGradient>
			<path class="st62" d="M215.6,288.3c-0.1,0.3-2.9-1.4-2.9-1.8c-0.1-0.3,1.6-5.7,3.1-7.1c1.4-1.4,2.5-1.5,2.8-1.5s3.3,1.7,3.7,2
				c-0.6-0.5-2.6-0.4-4.1,2.4C216.8,285.2,215.7,287.6,215.6,288.3z"/>
			
				<linearGradient id="SVGID_58_" gradientUnits="userSpaceOnUse" x1="212.6074" y1="213.7134" x2="212.7476" y2="209.0155" gradientTransform="matrix(1 0 0 -1 0 500)">
				<stop  offset="0" style="stop-color:#EB197A"/>
				<stop  offset="0.1298" style="stop-color:#E61777"/>
				<stop  offset="0.2741" style="stop-color:#D9126E"/>
				<stop  offset="0.4248" style="stop-color:#C3095F"/>
				<stop  offset="0.5484" style="stop-color:#AB004F"/>
				<stop  offset="0.6396" style="stop-color:#9E0048"/>
				<stop  offset="0.8126" style="stop-color:#8C003F"/>
				<stop  offset="0.9343" style="stop-color:#85003B"/>
			</linearGradient>
			<path class="st63" d="M209.6,288.3c-0.1-0.1,0-0.2,0-0.2c0.4-0.3,2.1-1.5,3.1-1.5s2.5,1.1,3,1.5c0.1,0.1,0.1,0.2,0,0.3
				c-0.6,0.4-2.4,1.6-2.9,1.7C212.7,290,210.2,289.1,209.6,288.3z"/>
			
				<linearGradient id="SVGID_59_" gradientUnits="userSpaceOnUse" x1="197.7996" y1="208.0789" x2="209.8949" y2="210.0422" gradientTransform="matrix(1 0 0 -1 0 500)">
				<stop  offset="0" style="stop-color:#AB004F"/>
				<stop  offset="0.2547" style="stop-color:#8C0040"/>
				<stop  offset="0.5586" style="stop-color:#6D0031"/>
				<stop  offset="0.8179" style="stop-color:#5B0027"/>
				<stop  offset="1" style="stop-color:#540024"/>
			</linearGradient>
			<path class="st64" d="M203.9,292.8c0,0,2.8,0,8.8-2.8l-3.8-1.8c0,0-2.9,1.5-8.2,1.7C200.2,290.2,201.6,292.2,203.9,292.8z"/>
			
				<linearGradient id="SVGID_60_" gradientUnits="userSpaceOnUse" x1="199.7373" y1="210.2063" x2="212.6623" y2="210.2063" gradientTransform="matrix(1 0 0 -1 0 500)">
				<stop  offset="0" style="stop-color:#EB197A"/>
				<stop  offset="0.1298" style="stop-color:#E61777"/>
				<stop  offset="0.2741" style="stop-color:#D9126E"/>
				<stop  offset="0.4248" style="stop-color:#C3095F"/>
				<stop  offset="0.5484" style="stop-color:#AB004F"/>
				<stop  offset="0.6396" style="stop-color:#9E0048"/>
				<stop  offset="0.8126" style="stop-color:#8C003F"/>
				<stop  offset="0.9343" style="stop-color:#85003B"/>
			</linearGradient>
			<path class="st65" d="M203.9,292.8c-1.1-0.2-1.9-2.8,0.6-3.7c2.5-0.9,8.3,1,8.3,1s-3.6-2.2-4-2.3c-0.8-0.3-4.8-1.6-7.3-0.7
				c-2,0.7-2.2,3.3-0.5,4.6C201.4,292,202.7,292.8,203.9,292.8z"/>
			
				<linearGradient id="SVGID_61_" gradientUnits="userSpaceOnUse" x1="224.7764" y1="207.8884" x2="216.2924" y2="210.658" gradientTransform="matrix(1 0 0 -1 0 500)">
				<stop  offset="0" style="stop-color:#AB004F"/>
				<stop  offset="0.2547" style="stop-color:#8C0040"/>
				<stop  offset="0.5586" style="stop-color:#6D0031"/>
				<stop  offset="0.8179" style="stop-color:#5B0027"/>
				<stop  offset="1" style="stop-color:#540024"/>
			</linearGradient>
			<path class="st66" d="M221.5,292.8c0,0-2.8,0-8.8-2.8l3.8-1.8c0,0,2.9,1.5,8.2,1.7C225.1,290.2,223.7,292.2,221.5,292.8z"/>
			
				<linearGradient id="SVGID_62_" gradientUnits="userSpaceOnUse" x1="225.9501" y1="210.5297" x2="209.6131" y2="209.3377" gradientTransform="matrix(1 0 0 -1 0 500)">
				<stop  offset="0" style="stop-color:#EB197A"/>
				<stop  offset="0.1298" style="stop-color:#E61777"/>
				<stop  offset="0.2741" style="stop-color:#D9126E"/>
				<stop  offset="0.4248" style="stop-color:#C3095F"/>
				<stop  offset="0.5484" style="stop-color:#AB004F"/>
				<stop  offset="0.6396" style="stop-color:#9E0048"/>
				<stop  offset="0.8126" style="stop-color:#8C003F"/>
				<stop  offset="0.9343" style="stop-color:#85003B"/>
			</linearGradient>
			<path class="st67" d="M221.5,292.8c1.1-0.2,1.9-2.8-0.6-3.7s-8.3,1-8.3,1s3.6-2.2,4-2.3c0.8-0.3,4.8-1.6,7.3-0.7
				c2,0.7,2.2,3.3,0.5,4.6C223.9,292,222.6,292.8,221.5,292.8z"/>
		</g>
		
			<linearGradient id="SVGID_63_" gradientUnits="userSpaceOnUse" x1="237.1653" y1="183.6578" x2="234.7056" y2="187.7574" gradientTransform="matrix(1 0 0 -1 0 500)">
			<stop  offset="0.4301" style="stop-color:#D4BBFF;stop-opacity:0"/>
			<stop  offset="0.97" style="stop-color:#D4BBFF"/>
		</linearGradient>
		<polygon class="st68" points="249.9,305.5 249.9,301.7 238.1,308.5 238.1,308.5 219.7,319.1 219.7,323.1 		"/>
	</g>
</g>
<g>
	<g class="st0">
		<g>
			<polygon points="191.3,348.2 134.5,316.6 107.2,327.1 162.7,358.8 			"/>
		</g>
	</g>
	<g>
		<g>
			<path class="st36" d="M148.1,282c0.6-6.5,2-16.8,6.4-19.9c1.3-0.9,2.8-1.1,4.4-0.5c8.5,3.4,9.1,21.8,9.2,27.3c0,0.8,0,2.1,0,2.1
				l-1.1-0.5c0,0,0-0.6,0-1.2c0-4.5-0.5-23.4-8.5-26.7c-1.2-0.5-2.4-0.4-3.4,0.3c-4,2.9-5.4,13.1-5.9,19.4L148.1,282z"/>
		</g>
		
			<linearGradient id="SVGID_64_" gradientUnits="userSpaceOnUse" x1="-2309.8806" y1="120.0554" x2="-2281.7942" y2="217.025" gradientTransform="matrix(1 0 0 -1 2435.5503 500)">
			<stop  offset="6.565700e-02" style="stop-color:#85003B"/>
			<stop  offset="0.1874" style="stop-color:#8C003F"/>
			<stop  offset="0.3604" style="stop-color:#9E0048"/>
			<stop  offset="0.4516" style="stop-color:#AB004F"/>
			<stop  offset="0.5752" style="stop-color:#C3095F"/>
			<stop  offset="0.7259" style="stop-color:#D9126E"/>
			<stop  offset="0.8702" style="stop-color:#E61777"/>
			<stop  offset="1" style="stop-color:#EB197A"/>
		</linearGradient>
		<polygon class="st69" points="125.6,276 118.1,329.1 163.1,354.9 163.8,294.9 		"/>
		
			<linearGradient id="SVGID_65_" gradientUnits="userSpaceOnUse" x1="155.2405" y1="190.4687" x2="151.7897" y2="215.3911" gradientTransform="matrix(1 0 0 -1 0 500)">
			<stop  offset="0" style="stop-color:#EB197A"/>
			<stop  offset="0.1715" style="stop-color:#E61877"/>
			<stop  offset="0.3623" style="stop-color:#D9156F"/>
			<stop  offset="0.5623" style="stop-color:#C30F61"/>
			<stop  offset="0.7673" style="stop-color:#A4084E"/>
			<stop  offset="0.9343" style="stop-color:#85003B"/>
		</linearGradient>
		<polygon class="st70" points="125.6,276 163.8,294.9 168.9,292 177.7,291.2 142,273.5 136.4,275.6 		"/>
		
			<linearGradient id="SVGID_66_" gradientUnits="userSpaceOnUse" x1="-29.0653" y1="214.4217" x2="-26.2256" y2="228.2416" gradientTransform="matrix(-1 0 0 -1 106.9597 500)">
			<stop  offset="0" style="stop-color:#EB197A"/>
			<stop  offset="0.1298" style="stop-color:#E61777"/>
			<stop  offset="0.2741" style="stop-color:#D9126E"/>
			<stop  offset="0.4248" style="stop-color:#C3095F"/>
			<stop  offset="0.5484" style="stop-color:#AB004F"/>
			<stop  offset="0.6396" style="stop-color:#9E0048"/>
			<stop  offset="0.8126" style="stop-color:#8C003F"/>
			<stop  offset="0.9343" style="stop-color:#85003B"/>
		</linearGradient>
		<polygon class="st71" points="142,284.1 125.6,276 136.4,275.6 142,273.5 		"/>
		
			<linearGradient id="SVGID_67_" gradientUnits="userSpaceOnUse" x1="-2271.7925" y1="230.9011" x2="-2263.7039" y2="165.2004" gradientTransform="matrix(1 0 0 -1 2435.5503 500)">
			<stop  offset="0" style="stop-color:#EB197A"/>
			<stop  offset="0.1298" style="stop-color:#E61777"/>
			<stop  offset="0.2741" style="stop-color:#D9126E"/>
			<stop  offset="0.4248" style="stop-color:#C3095F"/>
			<stop  offset="0.5484" style="stop-color:#AB004F"/>
			<stop  offset="0.6396" style="stop-color:#9E0048"/>
			<stop  offset="0.8126" style="stop-color:#8C003F"/>
			<stop  offset="0.9343" style="stop-color:#85003B"/>
		</linearGradient>
		<polygon class="st72" points="163.8,294.9 163.1,354.9 184.5,346.5 177.7,291.2 168.9,292 		"/>
		
			<linearGradient id="SVGID_68_" gradientUnits="userSpaceOnUse" x1="-2260.8396" y1="143.2349" x2="-2270.5239" y2="207.7249" gradientTransform="matrix(1 0 0 -1 2435.5503 500)">
			<stop  offset="0" style="stop-color:#EB197A"/>
			<stop  offset="0.1298" style="stop-color:#E61777"/>
			<stop  offset="0.2741" style="stop-color:#D9126E"/>
			<stop  offset="0.4248" style="stop-color:#C3095F"/>
			<stop  offset="0.5484" style="stop-color:#AB004F"/>
			<stop  offset="0.6396" style="stop-color:#9E0048"/>
			<stop  offset="0.8126" style="stop-color:#8C003F"/>
			<stop  offset="0.9343" style="stop-color:#85003B"/>
		</linearGradient>
		<polygon class="st73" points="163.8,294.9 163.1,354.9 184.5,346.5 172.1,342.4 168.9,292 		"/>
		
			<linearGradient id="SVGID_69_" gradientUnits="userSpaceOnUse" x1="171.057" y1="161.5109" x2="175.019" y2="143.8734" gradientTransform="matrix(1 0 0 -1 0 500)">
			<stop  offset="0" style="stop-color:#EB197A"/>
			<stop  offset="0.1715" style="stop-color:#E61877"/>
			<stop  offset="0.3623" style="stop-color:#D9156F"/>
			<stop  offset="0.5623" style="stop-color:#C30F61"/>
			<stop  offset="0.7673" style="stop-color:#A4084E"/>
			<stop  offset="0.9343" style="stop-color:#85003B"/>
		</linearGradient>
		<polygon class="st74" points="163.1,354.9 184.5,346.5 172.1,342.4 		"/>
		
			<linearGradient id="SVGID_70_" gradientUnits="userSpaceOnUse" x1="-2303.406" y1="213.1335" x2="-2304.8091" y2="209.0892" gradientTransform="matrix(1 0 0 -1 2435.5503 500)">
			<stop  offset="6.565700e-02" style="stop-color:#85003B"/>
			<stop  offset="0.1874" style="stop-color:#8C003F"/>
			<stop  offset="0.3604" style="stop-color:#9E0048"/>
			<stop  offset="0.4516" style="stop-color:#AB004F"/>
			<stop  offset="0.5752" style="stop-color:#C3095F"/>
			<stop  offset="0.7259" style="stop-color:#D9126E"/>
			<stop  offset="0.8702" style="stop-color:#E61777"/>
			<stop  offset="1" style="stop-color:#EB197A"/>
		</linearGradient>
		<path class="st75" d="M134.1,284.4c0-0.6-0.5-1.1-1.1-1.1s-1.1,0.5-1.1,1.1s0.5,1.1,1.1,1.1S134.1,285,134.1,284.4z"/>
		
			<linearGradient id="SVGID_71_" gradientUnits="userSpaceOnUse" x1="-2282.7368" y1="205.9625" x2="-2284.1399" y2="201.9181" gradientTransform="matrix(1 0 0 -1 2435.5503 500)">
			<stop  offset="6.565700e-02" style="stop-color:#85003B"/>
			<stop  offset="0.1874" style="stop-color:#8C003F"/>
			<stop  offset="0.3604" style="stop-color:#9E0048"/>
			<stop  offset="0.4516" style="stop-color:#AB004F"/>
			<stop  offset="0.5752" style="stop-color:#C3095F"/>
			<stop  offset="0.7259" style="stop-color:#D9126E"/>
			<stop  offset="0.8702" style="stop-color:#E61777"/>
			<stop  offset="1" style="stop-color:#EB197A"/>
		</linearGradient>
		<path class="st76" d="M154.1,293.5c0-0.6-0.5-1.1-1.1-1.1s-1.1,0.5-1.1,1.1s0.5,1.1,1.1,1.1S154.1,294.1,154.1,293.5z"/>
		<g>
			<path class="st35" d="M132.9,285.3c-0.4-0.1-0.4-0.6-0.4-0.9c0-0.1,0-0.3,0.1-0.6c0.4-2.6,2.9-15.8,8.2-18.6
				c1.5-0.8,3-0.7,4.7,0.2c6.8,3.8,7.9,24.1,8,28.5c0,0.6-0.3,0.7-0.5,0.7c-0.3-0.1-0.5-0.5-0.5-0.8c-0.1-3.4-1.2-23.8-7.6-27.4
				c-1.3-0.7-2.5-0.8-3.7-0.1c-3.8,2-6.5,10.8-7.6,17.8c0,0.2-0.1,0.4-0.1,0.5C133.5,285.3,133.1,285.4,132.9,285.3z"/>
		</g>
	</g>
</g>
<g>
	
		<linearGradient id="SVGID_72_" gradientUnits="userSpaceOnUse" x1="313.2" y1="275.2925" x2="313.2" y2="230.0433" gradientTransform="matrix(1 0 0 -1 0 500)">
		<stop  offset="4.143720e-02" style="stop-color:#1B0042"/>
		<stop  offset="1" style="stop-color:#5C00E3"/>
	</linearGradient>
	<path class="st77" d="M350.6,232.1l-69.7-41c-3.4-2-7.6,0.4-7.6,4.4v3.5c0,1.8,1,3.5,2.5,4.4l69.7,41c3.4,2,7.6-0.4,7.6-4.4v-3.6
		C353.1,234.7,352.2,233,350.6,232.1z"/>
	<g>
		<g>
			<defs>
				<path id="SVGID_73_" d="M350.6,232.1l-69.7-41c-3.4-2-7.6,0.4-7.6,4.4l-88.8,51.7c0,1.8,64.1,59.9,65.6,60.8l95.4-63.6
					c3.4,2,7.6-0.4,7.6-4.4v-3.6C353.1,234.7,352.2,233,350.6,232.1z"/>
			</defs>
			<clipPath id="SVGID_74_">
				<use xlink:href="#SVGID_73_"  style="overflow:visible;"/>
			</clipPath>
			<g class="st78">
				<g>
					
						<linearGradient id="SVGID_75_" gradientUnits="userSpaceOnUse" x1="264.9209" y1="225.75" x2="265.2725" y2="225.75" gradientTransform="matrix(1 0 0 -1 0 500)">
						<stop  offset="0" style="stop-color:#2AF6FF"/>
						<stop  offset="0.4054" style="stop-color:#1FC3DF"/>
						<stop  offset="0.7743" style="stop-color:#169AC7"/>
						<stop  offset="0.9646" style="stop-color:#138BBD"/>
					</linearGradient>
					<path class="st79" d="M264.9,274.2c0.1,0,0.2,0.1,0.4,0.1C265.2,274.3,265,274.3,264.9,274.2z"/>
					
						<linearGradient id="SVGID_76_" gradientUnits="userSpaceOnUse" x1="265.9512" y1="225.35" x2="266.3966" y2="225.35" gradientTransform="matrix(1 0 0 -1 0 500)">
						<stop  offset="0" style="stop-color:#2AF6FF"/>
						<stop  offset="0.4054" style="stop-color:#1FC3DF"/>
						<stop  offset="0.7743" style="stop-color:#169AC7"/>
						<stop  offset="0.9646" style="stop-color:#138BBD"/>
					</linearGradient>
					<path class="st80" d="M266,274.6c0.1,0,0.3,0,0.4,0.1C266.2,274.6,266.1,274.6,266,274.6z"/>
					
						<linearGradient id="SVGID_77_" gradientUnits="userSpaceOnUse" x1="362.1" y1="279.35" x2="362.1" y2="279.35" gradientTransform="matrix(1 0 0 -1 0 500)">
						<stop  offset="0" style="stop-color:#2AF6FF"/>
						<stop  offset="0.4054" style="stop-color:#1FC3DF"/>
						<stop  offset="0.7743" style="stop-color:#169AC7"/>
						<stop  offset="0.9646" style="stop-color:#138BBD"/>
					</linearGradient>
					<path class="st81" d="M362.1,220.8c0-0.1,0-0.2,0-0.3C362.1,220.6,362.1,220.7,362.1,220.8z"/>
					
						<linearGradient id="SVGID_78_" gradientUnits="userSpaceOnUse" x1="361.7732" y1="278.75" x2="361.9032" y2="278.75" gradientTransform="matrix(1 0 0 -1 0 500)">
						<stop  offset="0" style="stop-color:#2AF6FF"/>
						<stop  offset="0.4054" style="stop-color:#1FC3DF"/>
						<stop  offset="0.7743" style="stop-color:#169AC7"/>
						<stop  offset="0.9646" style="stop-color:#138BBD"/>
					</linearGradient>
					<path class="st82" d="M361.8,221.4c0.1-0.1,0.1-0.2,0.1-0.3C361.9,221.2,361.8,221.3,361.8,221.4z"/>
					
						<linearGradient id="SVGID_79_" gradientUnits="userSpaceOnUse" x1="210.6699" y1="256.8" x2="211.4201" y2="256.8" gradientTransform="matrix(1 0 0 -1 0 500)">
						<stop  offset="0" style="stop-color:#2AF6FF"/>
						<stop  offset="0.4054" style="stop-color:#1FC3DF"/>
						<stop  offset="0.7743" style="stop-color:#169AC7"/>
						<stop  offset="0.9646" style="stop-color:#138BBD"/>
					</linearGradient>
					<path class="st83" d="M211.4,243.5c-0.3-0.1-0.5-0.3-0.7-0.5c0,0-0.1,0-0.1-0.1C210.9,243.1,211.1,243.3,211.4,243.5z"/>
					
						<linearGradient id="SVGID_80_" gradientUnits="userSpaceOnUse" x1="361.2355" y1="278.1" x2="361.4072" y2="278.1" gradientTransform="matrix(1 0 0 -1 0 500)">
						<stop  offset="0" style="stop-color:#2AF6FF"/>
						<stop  offset="0.4054" style="stop-color:#1FC3DF"/>
						<stop  offset="0.7743" style="stop-color:#169AC7"/>
						<stop  offset="0.9646" style="stop-color:#138BBD"/>
					</linearGradient>
					<path class="st84" d="M361.2,222c0.1-0.1,0.1-0.1,0.2-0.2C361.3,221.9,361.3,221.9,361.2,222z"/>
					
						<linearGradient id="SVGID_81_" gradientUnits="userSpaceOnUse" x1="271.3701" y1="226" x2="272.2808" y2="226" gradientTransform="matrix(1 0 0 -1 0 500)">
						<stop  offset="0" style="stop-color:#2AF6FF"/>
						<stop  offset="0.4054" style="stop-color:#1FC3DF"/>
						<stop  offset="0.7743" style="stop-color:#169AC7"/>
						<stop  offset="0.9646" style="stop-color:#138BBD"/>
					</linearGradient>
					<path class="st85" d="M271.4,274.2c0.3-0.1,0.6-0.3,0.9-0.4C272,274,271.7,274.1,271.4,274.2z"/>
					
						<linearGradient id="SVGID_82_" gradientUnits="userSpaceOnUse" x1="209.8116" y1="258.05" x2="210.1243" y2="258.05" gradientTransform="matrix(1 0 0 -1 0 500)">
						<stop  offset="0" style="stop-color:#2AF6FF"/>
						<stop  offset="0.4054" style="stop-color:#1FC3DF"/>
						<stop  offset="0.7743" style="stop-color:#169AC7"/>
						<stop  offset="0.9646" style="stop-color:#138BBD"/>
					</linearGradient>
					<path class="st86" d="M210.1,242.3c-0.1-0.1-0.2-0.3-0.3-0.5v-0.1c0,0,0,0,0-0.1C209.9,241.9,210,242.1,210.1,242.3z"/>
					
						<linearGradient id="SVGID_83_" gradientUnits="userSpaceOnUse" x1="210.1337" y1="257.5" x2="210.6002" y2="257.5" gradientTransform="matrix(1 0 0 -1 0 500)">
						<stop  offset="0" style="stop-color:#2AF6FF"/>
						<stop  offset="0.4054" style="stop-color:#1FC3DF"/>
						<stop  offset="0.7743" style="stop-color:#169AC7"/>
						<stop  offset="0.9646" style="stop-color:#138BBD"/>
					</linearGradient>
					<path class="st87" d="M210.6,242.8c-0.2-0.1-0.3-0.3-0.4-0.5c0,0,0,0-0.1-0.1C210.3,242.5,210.4,242.7,210.6,242.8z"/>
					
						<linearGradient id="SVGID_84_" gradientUnits="userSpaceOnUse" x1="270.3611" y1="225.6" x2="271.0208" y2="225.6" gradientTransform="matrix(1 0 0 -1 0 500)">
						<stop  offset="0" style="stop-color:#2AF6FF"/>
						<stop  offset="0.4054" style="stop-color:#1FC3DF"/>
						<stop  offset="0.7743" style="stop-color:#169AC7"/>
						<stop  offset="0.9646" style="stop-color:#138BBD"/>
					</linearGradient>
					<path class="st88" d="M270.4,274.5c0.2-0.1,0.4-0.1,0.7-0.2C270.8,274.4,270.6,274.5,270.4,274.5z"/>
					
						<linearGradient id="SVGID_85_" gradientUnits="userSpaceOnUse" x1="269.2863" y1="225.35" x2="269.9231" y2="225.35" gradientTransform="matrix(1 0 0 -1 0 500)">
						<stop  offset="0" style="stop-color:#2AF6FF"/>
						<stop  offset="0.4054" style="stop-color:#1FC3DF"/>
						<stop  offset="0.7743" style="stop-color:#169AC7"/>
						<stop  offset="0.9646" style="stop-color:#138BBD"/>
					</linearGradient>
					<path class="st89" d="M269.3,274.7c0.2,0,0.4-0.1,0.6-0.1C269.7,274.7,269.5,274.7,269.3,274.7z"/>
					
						<linearGradient id="SVGID_86_" gradientUnits="userSpaceOnUse" x1="267.0491" y1="225.2625" x2="267.5375" y2="225.2625" gradientTransform="matrix(1 0 0 -1 0 500)">
						<stop  offset="0" style="stop-color:#2AF6FF"/>
						<stop  offset="0.4054" style="stop-color:#1FC3DF"/>
						<stop  offset="0.7743" style="stop-color:#169AC7"/>
						<stop  offset="0.9646" style="stop-color:#138BBD"/>
					</linearGradient>
					<path class="st90" d="M267,274.7c0.2,0,0.3,0,0.5,0C267.4,274.8,267.2,274.8,267,274.7z"/>
					
						<linearGradient id="SVGID_87_" gradientUnits="userSpaceOnUse" x1="268.1787" y1="225.2" x2="268.8117" y2="225.2" gradientTransform="matrix(1 0 0 -1 0 500)">
						<stop  offset="0" style="stop-color:#2AF6FF"/>
						<stop  offset="0.4054" style="stop-color:#1FC3DF"/>
						<stop  offset="0.7743" style="stop-color:#169AC7"/>
						<stop  offset="0.9646" style="stop-color:#138BBD"/>
					</linearGradient>
					<path class="st91" d="M268.2,274.8L268.2,274.8c0.2,0,0.4,0,0.6,0C268.6,274.8,268.4,274.8,268.2,274.8z"/>
					
						<linearGradient id="SVGID_88_" gradientUnits="userSpaceOnUse" x1="-2097.8237" y1="302.3326" x2="-1991.5178" y2="231.3916" gradientTransform="matrix(-1 0 0 -1 -1762.5752 500)">
						<stop  offset="0" style="stop-color:#2AF6FF"/>
						<stop  offset="0.4054" style="stop-color:#1FC3DF"/>
						<stop  offset="0.7743" style="stop-color:#169AC7"/>
						<stop  offset="0.9646" style="stop-color:#138BBD"/>
					</linearGradient>
					<path class="st92" d="M362.1,220.5c0,0.1,0,0.2,0,0.3s-0.1,0.3-0.2,0.4c0,0.1-0.1,0.2-0.1,0.3c-0.1,0.1-0.2,0.3-0.4,0.4
						c-0.1,0.1-0.1,0.1-0.2,0.2c-0.2,0.2-0.5,0.4-0.8,0.5l-88.2,51.2c-0.3,0.2-0.6,0.3-0.9,0.4c-0.1,0-0.2,0.1-0.3,0.1
						c-0.2,0.1-0.4,0.1-0.7,0.2c-0.1,0-0.3,0.1-0.4,0.1c-0.2,0-0.4,0.1-0.6,0.1s-0.3,0-0.5,0s-0.4,0-0.6,0s-0.4,0-0.6,0
						s-0.3,0-0.5,0s-0.4-0.1-0.7-0.1c-0.1,0-0.3,0-0.4-0.1c-0.2-0.1-0.5-0.1-0.7-0.2c-0.1,0-0.2-0.1-0.4-0.1
						c-0.3-0.1-0.6-0.3-0.9-0.4l-52.6-30.4c-0.3-0.2-0.5-0.3-0.8-0.5c0,0,0-0.1-0.1-0.1c-0.2-0.2-0.3-0.3-0.5-0.5l0,0
						c-0.1-0.2-0.2-0.4-0.3-0.6c0,0,0,0,0-0.1c-0.3-1.1,0.2-2.2,1.6-3l88.2-51.2c2.3-1.3,6-1.3,8.3,0l52.6,30.4
						c1.1,0.7,1.7,1.5,1.7,2.4C362.2,220.3,362.2,220.4,362.1,220.5z"/>
					
						<linearGradient id="SVGID_89_" gradientUnits="userSpaceOnUse" x1="-1997.4915" y1="248.5722" x2="-2123.915" y2="300.2427" gradientTransform="matrix(-1 0 0 -1 -1762.5752 500)">
						<stop  offset="0" style="stop-color:#2AF6FF"/>
						<stop  offset="0.4054" style="stop-color:#1FC3DF"/>
						<stop  offset="0.7743" style="stop-color:#169AC7"/>
						<stop  offset="0.9646" style="stop-color:#138BBD"/>
					</linearGradient>
					<path class="st93" d="M268.2,273.1c0.1,0,0.3,0,0.4,0h0.5c0.1,0,0.3,0,0.4-0.1l0.5-0.1c0.1,0,0.3-0.1,0.4-0.1l0.3-0.1
						c0.3-0.1,0.5-0.2,0.7-0.3l88.2-51.2c0.2-0.1,0.3-0.2,0.4-0.3l0.1-0.2c0.1-0.1,0.1-0.1,0.1-0.1l0.1-0.2v-0.2
						c0-0.2-0.3-0.6-0.9-0.9l-52.6-30.4c-0.8-0.5-2-0.8-3.3-0.8s-2.5,0.3-3.3,0.8L212,240.1c-0.5,0.3-0.9,0.7-0.8,1v0.1l0.1,0.2
						c0,0,0.1,0.1,0.2,0.2l0.1,0.1c0.1,0.1,0.3,0.2,0.4,0.3l52.6,30.4c0.2,0.1,0.4,0.2,0.7,0.3l0.3,0.1c0.2,0.1,0.4,0.1,0.5,0.2h0.1
						l0.4,0.1c0.1,0,0.2,0,0.4,0.1c0.1,0,0.1,0,0.2,0h0.4C267.9,273.1,268,273.1,268.2,273.1L268.2,273.1z"/>
					
						<linearGradient id="SVGID_90_" gradientUnits="userSpaceOnUse" x1="-2124.7751" y1="251.6499" x2="-2026.5496" y2="251.6499" gradientTransform="matrix(-1 0 0 -1 -1762.5752 500)">
						<stop  offset="0" style="stop-color:#2AF6FF"/>
						<stop  offset="0.4054" style="stop-color:#1FC3DF"/>
						<stop  offset="0.7743" style="stop-color:#169AC7"/>
						<stop  offset="0.9646" style="stop-color:#138BBD"/>
					</linearGradient>
					<path class="st94" d="M264.9,274.2c0.1,0,0.2,0.1,0.4,0.1c0.2,0.1,0.4,0.1,0.7,0.2c0.1,0,0.3,0,0.4,0.1c0.2,0,0.4,0.1,0.7,0.1
						c0.2,0,0.3,0,0.5,0s0.4,0,0.6,0l0,0c0.2,0,0.4,0,0.6,0s0.3,0,0.5,0s0.4-0.1,0.6-0.1c0.1,0,0.3,0,0.4-0.1
						c0.2-0.1,0.4-0.1,0.7-0.2c0.1,0,0.2-0.1,0.3-0.1c0.3-0.1,0.6-0.3,0.9-0.4l88.2-51.2c0.3-0.2,0.5-0.3,0.8-0.5
						c0.1-0.1,0.1-0.1,0.2-0.2c0.1-0.1,0.3-0.3,0.4-0.4c0.1-0.1,0.1-0.2,0.1-0.3c0.1-0.1,0.1-0.2,0.2-0.4c0-0.1,0-0.2,0-0.3
						s0.1-0.2,0.1-0.4l0,0v2c0,0.9-0.6,1.7-1.7,2.4l-88.2,51.2c-0.3,0.2-0.6,0.3-0.9,0.4c-0.1,0-0.2,0.1-0.4,0.1
						c-0.2,0.1-0.4,0.1-0.7,0.2c-0.1,0-0.3,0.1-0.4,0.1c-0.2,0-0.4,0.1-0.6,0.1s-0.3,0-0.5,0s-0.4,0-0.6,0l0,0c-0.2,0-0.4,0-0.6,0
						s-0.3,0-0.5,0s-0.4-0.1-0.7-0.1c-0.1,0-0.3,0-0.4-0.1c-0.2-0.1-0.5-0.1-0.7-0.2c-0.1,0-0.2-0.1-0.3-0.1
						c-0.3-0.1-0.6-0.3-0.9-0.4v-2C264.3,274,264.6,274.1,264.9,274.2z"/>
					
						<linearGradient id="SVGID_91_" gradientUnits="userSpaceOnUse" x1="-2030.7942" y1="241" x2="-1972.2285" y2="241" gradientTransform="matrix(-1 0 0 -1 -1762.5752 500)">
						<stop  offset="0" style="stop-color:#2AF6FF"/>
						<stop  offset="0.4054" style="stop-color:#1FC3DF"/>
						<stop  offset="0.7743" style="stop-color:#169AC7"/>
						<stop  offset="0.9646" style="stop-color:#138BBD"/>
					</linearGradient>
					<path class="st95" d="M209.8,241.6C209.8,241.7,209.8,241.7,209.8,241.6c0,0.1,0,0.1,0,0.1v0.1c0.1,0.2,0.2,0.3,0.3,0.5l0,0
						c0,0,0,0,0.1,0.1c0.1,0.2,0.3,0.3,0.4,0.5c0,0,0,0.1,0.1,0.1c0,0,0.1,0,0.1,0.1c0.2,0.2,0.4,0.3,0.7,0.5l52.6,30.4
						c0.3,0.2,0.6,0.3,0.9,0.4c0.1,0,0.2,0.1,0.4,0.1c0.2,0.1,0.4,0.1,0.7,0.2c0.1,0,0.3,0,0.4,0.1c0.2,0,0.4,0.1,0.7,0.1
						c0.2,0,0.3,0,0.5,0s0.4,0,0.6,0l0,0v2l0,0c-0.2,0-0.4,0-0.6,0s-0.3,0-0.5,0s-0.4-0.1-0.7-0.1c-0.1,0-0.3,0-0.4-0.1
						c-0.2-0.1-0.5-0.1-0.7-0.2c-0.1,0-0.2-0.1-0.3-0.1c-0.3-0.1-0.6-0.3-0.9-0.4l0,0l-52.6-30.4c-0.3-0.1-0.5-0.3-0.7-0.5
						c-0.1,0-0.1-0.1-0.1-0.1c-0.2-0.1-0.3-0.3-0.4-0.5c0,0,0,0-0.1-0.1c-0.1-0.2-0.2-0.3-0.3-0.5c0,0,0,0,0-0.1v-0.1
						c-0.1-0.2-0.1-0.4-0.1-0.6v-2C209.7,241.3,209.7,241.4,209.8,241.6z"/>
				</g>
				<g>
					
						<linearGradient id="SVGID_92_" gradientUnits="userSpaceOnUse" x1="-2074.5364" y1="296.2395" x2="-2066.0037" y2="292.0057" gradientTransform="matrix(-1 0 0 -1 -1762.5752 500)">
						<stop  offset="0" style="stop-color:#F6F4FF"/>
						<stop  offset="1" style="stop-color:#D4CAFF"/>
					</linearGradient>
					<path class="st96" d="M300.3,210.8c-1.3-0.8-1.3-2,0-2.8l1.4-0.8l1.5,0.9l0.4,0.2l0.9,0.5l-3.8,2.2L300.3,210.8z"/>
					
						<linearGradient id="SVGID_93_" gradientUnits="userSpaceOnUse" x1="-2076.1255" y1="293.0368" x2="-2067.5928" y2="288.803" gradientTransform="matrix(-1 0 0 -1 -1762.5752 500)">
						<stop  offset="0" style="stop-color:#F6F4FF"/>
						<stop  offset="1" style="stop-color:#D4CAFF"/>
					</linearGradient>
					<polygon class="st97" points="309.9,205.8 310.3,206 312.4,207.3 312.8,207.5 314.9,208.7 315.3,209 315.9,209.3 311.1,212.1 
						310.5,211.8 310.1,211.5 308,210.3 307.6,210.1 305.5,208.8 305.1,208.6 304.2,208.1 309,205.3 					"/>
					
						<linearGradient id="SVGID_94_" gradientUnits="userSpaceOnUse" x1="-2078.1685" y1="288.9189" x2="-2069.6357" y2="284.685" gradientTransform="matrix(-1 0 0 -1 -1762.5752 500)">
						<stop  offset="0" style="stop-color:#F6F4FF"/>
						<stop  offset="1" style="stop-color:#D4CAFF"/>
					</linearGradient>
					<polygon class="st98" points="311.5,212.3 316.3,209.5 318.2,210.6 313.4,213.4 					"/>
					
						<linearGradient id="SVGID_95_" gradientUnits="userSpaceOnUse" x1="-2076.5637" y1="292.1531" x2="-2068.031" y2="287.9192" gradientTransform="matrix(-1 0 0 -1 -1762.5752 500)">
						<stop  offset="0" style="stop-color:#F6F4FF"/>
						<stop  offset="1" style="stop-color:#D4CAFF"/>
					</linearGradient>
					<polygon class="st99" points="319.4,206.1 315.3,208.5 313.2,207.3 317.3,204.9 					"/>
					
						<linearGradient id="SVGID_96_" gradientUnits="userSpaceOnUse" x1="-2075.4727" y1="294.3522" x2="-2066.9399" y2="290.1184" gradientTransform="matrix(-1 0 0 -1 -1762.5752 500)">
						<stop  offset="0" style="stop-color:#F6F4FF"/>
						<stop  offset="1" style="stop-color:#D4CAFF"/>
					</linearGradient>
					<polygon class="st100" points="316.9,204.6 312.8,207 310.7,205.8 314.8,203.4 					"/>
					
						<linearGradient id="SVGID_97_" gradientUnits="userSpaceOnUse" x1="-2076.887" y1="291.502" x2="-2068.354" y2="287.2682" gradientTransform="matrix(-1 0 0 -1 -1762.5752 500)">
						<stop  offset="0" style="stop-color:#F6F4FF"/>
						<stop  offset="1" style="stop-color:#D4CAFF"/>
					</linearGradient>
					<polygon class="st101" points="303.8,212.8 307.6,210.5 309.7,211.8 305.9,214 					"/>
					
						<linearGradient id="SVGID_98_" gradientUnits="userSpaceOnUse" x1="-2077.7937" y1="289.6745" x2="-2069.261" y2="285.4407" gradientTransform="matrix(-1 0 0 -1 -1762.5752 500)">
						<stop  offset="0" style="stop-color:#F6F4FF"/>
						<stop  offset="1" style="stop-color:#D4CAFF"/>
					</linearGradient>
					<path class="st102" d="M320.3,206.6c1.3,0.8,1.3,2,0,2.8l-1.7,1l-2.9-1.7l4.1-2.4L320.3,206.6z"/>
					
						<linearGradient id="SVGID_99_" gradientUnits="userSpaceOnUse" x1="-2078.0803" y1="289.0969" x2="-2069.5476" y2="284.8631" gradientTransform="matrix(-1 0 0 -1 -1762.5752 500)">
						<stop  offset="0" style="stop-color:#F6F4FF"/>
						<stop  offset="1" style="stop-color:#D4CAFF"/>
					</linearGradient>
					<path class="st103" d="M306.8,214.5l-0.5-0.3l3.8-2.2l0.6,0.3l0.4,0.2l1.9,1.1l-1.4,0.8C310.2,215.3,308.1,215.3,306.8,214.5z"
						/>
					
						<linearGradient id="SVGID_100_" gradientUnits="userSpaceOnUse" x1="-2075.8059" y1="293.6809" x2="-2067.2732" y2="289.4471" gradientTransform="matrix(-1 0 0 -1 -1762.5752 500)">
						<stop  offset="0" style="stop-color:#F6F4FF"/>
						<stop  offset="1" style="stop-color:#D4CAFF"/>
					</linearGradient>
					<polygon class="st104" points="301.2,211.3 305.1,209.1 307.2,210.3 303.3,212.5 					"/>
					
						<linearGradient id="SVGID_101_" gradientUnits="userSpaceOnUse" x1="-2074.1316" y1="297.0548" x2="-2065.5989" y2="292.821" gradientTransform="matrix(-1 0 0 -1 -1762.5752 500)">
						<stop  offset="0" style="stop-color:#F6F4FF"/>
						<stop  offset="1" style="stop-color:#D4CAFF"/>
					</linearGradient>
					<polygon class="st105" points="302.2,206.9 307,204.2 308.6,205 303.8,207.8 					"/>
					
						<linearGradient id="SVGID_102_" gradientUnits="userSpaceOnUse" x1="-2074.2969" y1="296.722" x2="-2065.7642" y2="292.4884" gradientTransform="matrix(-1 0 0 -1 -1762.5752 500)">
						<stop  offset="0" style="stop-color:#F6F4FF"/>
						<stop  offset="1" style="stop-color:#D4CAFF"/>
					</linearGradient>
					<path class="st106" d="M309.2,202.9c1.3-0.8,3.4-0.8,4.8,0l0.5,0.3l-4.1,2.4l-2.9-1.7L309.2,202.9
						C309.1,202.9,309.1,202.9,309.2,202.9z"/>
					
						<linearGradient id="SVGID_103_" gradientUnits="userSpaceOnUse" x1="-2025.0886" y1="260.3542" x2="-2006.771" y2="250.7189" gradientTransform="matrix(-1 0 0 -1 -1762.5752 500)">
						<stop  offset="0" style="stop-color:#F6F4FF"/>
						<stop  offset="1" style="stop-color:#D4CAFF"/>
					</linearGradient>
					<path class="st107" d="M242.1,245.8l12.9-7.5l0,0c1-0.6,2.5-0.6,3.5,0l5.4,3.1c1,0.6,1,1.5,0,2.1L251,251l0,0
						c-1,0.6-2.5,0.6-3.5,0l-5.4-3.1l0,0C241.1,247.3,241.1,246.4,242.1,245.8z"/>
					
						<linearGradient id="SVGID_104_" gradientUnits="userSpaceOnUse" x1="-2084.6094" y1="312.6001" x2="-2002.5859" y2="269.259" gradientTransform="matrix(-1 0 0 -1 -1762.5752 500)">
						<stop  offset="0" style="stop-color:#2AF6FF"/>
						<stop  offset="0.4054" style="stop-color:#1FC3DF"/>
						<stop  offset="0.7743" style="stop-color:#169AC7"/>
						<stop  offset="0.9646" style="stop-color:#138BBD"/>
					</linearGradient>
					<path class="st108" d="M302.9,202.4L275,218.6c-2.8,1.6-7.3,1.6-10.1,0c-2.8-1.6-2.8-4.2,0-5.9l27.9-16.2l0,0
						c2.8-1.6,7.3-1.6,10.1,0C305.7,198.2,305.7,200.8,302.9,202.4z"/>
					
						<linearGradient id="SVGID_105_" gradientUnits="userSpaceOnUse" x1="-2103.5742" y1="276.7096" x2="-2021.5504" y2="233.3685" gradientTransform="matrix(-1 0 0 -1 -1762.5752 500)">
						<stop  offset="0" style="stop-color:#2AF6FF"/>
						<stop  offset="0.4054" style="stop-color:#1FC3DF"/>
						<stop  offset="0.7743" style="stop-color:#169AC7"/>
						<stop  offset="0.9646" style="stop-color:#138BBD"/>
					</linearGradient>
					<polygon class="st109" points="346.9,221.9 346.9,221.9 324.5,234.9 324.5,234.9 320.3,232.5 342.7,219.5 					"/>
					
						<linearGradient id="SVGID_106_" gradientUnits="userSpaceOnUse" x1="-2099.9539" y1="283.5608" x2="-2017.9303" y2="240.2198" gradientTransform="matrix(-1 0 0 -1 -1762.5752 500)">
						<stop  offset="0" style="stop-color:#2AF6FF"/>
						<stop  offset="0.4054" style="stop-color:#1FC3DF"/>
						<stop  offset="0.7743" style="stop-color:#169AC7"/>
						<stop  offset="0.9646" style="stop-color:#138BBD"/>
					</linearGradient>
					<polygon class="st110" points="326.9,219.9 335.1,215.1 339.3,217.6 331.1,222.3 					"/>
					
						<linearGradient id="SVGID_107_" gradientUnits="userSpaceOnUse" x1="-2097.457" y1="288.286" x2="-2015.4335" y2="244.9449" gradientTransform="matrix(-1 0 0 -1 -1762.5752 500)">
						<stop  offset="0" style="stop-color:#2AF6FF"/>
						<stop  offset="0.4054" style="stop-color:#1FC3DF"/>
						<stop  offset="0.7743" style="stop-color:#169AC7"/>
						<stop  offset="0.9646" style="stop-color:#138BBD"/>
					</linearGradient>
					<polygon class="st111" points="252.6,253.9 327.2,210.6 333,213.9 258.4,257.3 					"/>
				</g>
			</g>
		</g>
		<g>
			<defs>
				<path id="SVGID_108_" d="M350.6,232.1l-69.7-41c-3.4-2-7.6,0.4-7.6,4.4l-88.8,51.7c0,1.8,64.1,59.9,65.6,60.8l95.4-63.6
					c3.4,2,7.6-0.4,7.6-4.4v-3.6C353.1,234.7,352.2,233,350.6,232.1z"/>
			</defs>
			<clipPath id="SVGID_109_">
				<use xlink:href="#SVGID_108_"  style="overflow:visible;"/>
			</clipPath>
			
				<linearGradient id="SVGID_110_" gradientUnits="userSpaceOnUse" x1="323.5855" y1="291.4432" x2="310.2988" y2="277.4572" gradientTransform="matrix(1 0 0 -1 0 500)">
				<stop  offset="4.377880e-02" style="stop-color:#81868E"/>
				<stop  offset="1" style="stop-color:#81868E;stop-opacity:0"/>
			</linearGradient>
			<path class="st112" d="M362.2,220.1L362.2,220.1c0-0.9-0.6-1.7-1.7-2.4l-52.6-30.4c-2.3-1.3-6-1.3-8.3,0l-17.9,10.4l62.6,36.1
				l16.2-9.4c1.1-0.7,1.7-1.5,1.7-2.4L362.2,220.1z"/>
		</g>
	</g>
</g>
<g>
	
		<linearGradient id="SVGID_111_" gradientUnits="userSpaceOnUse" x1="393.9" y1="245.2827" x2="393.9" y2="211.156" gradientTransform="matrix(1 0 0 -1 0 500)">
		<stop  offset="4.143720e-02" style="stop-color:#1B0042"/>
		<stop  offset="1" style="stop-color:#5C00E3"/>
	</linearGradient>
	<path class="st113" d="M372.7,239c-1-0.6-2.2,0.1-2.2,1.2v4.4c0.2,0.2,0.4,0.3,0.7,0.5L414,270c1.2,0.7,2.1,0.6,3.3-0.1v-4
		c0-0.6-0.3-1.2-0.8-1.5L372.7,239z"/>
	<g>
		<g class="st114">
			<g>
				<path d="M374.3,249.6c-2.3-1.4-5.2-1.3-7.6,0l-10,5.9c-5.5,3.2-9.6,8-12,13.7l0,0c-0.1,0.2-0.1,0.4-0.2,0.5
					c0,0.1-0.1,0.1-0.1,0.2c-0.1,0.2-0.1,0.3-0.2,0.5c0,0.1,0,0.1-0.1,0.2c-0.2,0.6-0.4,1.1-0.5,1.7c0,0.1-0.1,0.2-0.1,0.3
					c0,0.2-0.1,0.3-0.1,0.5c0,0.1-0.1,0.2-0.1,0.4c0,0.1-0.1,0.3-0.1,0.4c-0.1,0.2-0.1,0.5-0.2,0.7c0,0.1,0,0.2-0.1,0.4
					c0,0.2-0.1,0.3-0.1,0.5c0,0.1,0,0.2-0.1,0.4c0,0.2-0.1,0.3-0.1,0.5c0,0.1,0,0.2,0,0.3c0,0.3-0.1,0.5-0.1,0.8c0,0.1,0,0.1,0,0.2
					c0,0.2,0,0.4-0.1,0.7c0,0.1,0,0.2,0,0.3c0,0.2,0,0.4,0,0.6c0,0.1,0,0.2,0,0.3c0,0.3,0,0.6,0,0.9v2.1l-0.1,47.7
					c0,0.2,0,0.5,0,0.7c0,0.1,0,0.1,0,0.2c0,0.2,0,0.3,0,0.5c0,0.1,0,0.2,0,0.2c0,0.2,0,0.3,0,0.5c0,0.1,0,0.2,0,0.2
					c0,0.2,0,0.3-0.1,0.5c0,0.1,0,0.2,0,0.2c0,0.2-0.1,0.3-0.1,0.5c0,0.1,0,0.1,0,0.2c0,0.2-0.1,0.3-0.1,0.5c0,0.1,0,0.1-0.1,0.2
					c0,0.2-0.1,0.3-0.1,0.5c0,0.1,0,0.1-0.1,0.2c0,0.2-0.1,0.3-0.2,0.5c0,0.1,0,0.1-0.1,0.2c-0.1,0.2-0.1,0.3-0.2,0.5
					c0,0,0,0.1-0.1,0.1c-0.1,0.2-0.1,0.3-0.2,0.5c0,0,0,0.1-0.1,0.1c-0.1,0.2-0.2,0.4-0.2,0.5v0.1c-0.1,0.2-0.2,0.4-0.3,0.5v0.1
					c-0.1,0.2-0.2,0.4-0.3,0.5c0,0,0,0,0,0.1c-0.1,0.2-0.2,0.4-0.3,0.6l0,0c-0.1,0.2-0.2,0.4-0.4,0.6l0,0c-0.1,0.2-0.3,0.4-0.4,0.6
					c-14.9,20.8-69.4,27-69.4,38.9l0,0l4.4-0.2l-0.4,2.6l4.4-0.2l-0.4,2.6l4.4-0.2l-0.4,2.6l4.4-0.2l-0.4,2.6l4.4-0.2l-0.4,2.6
					l4.4-0.2l-0.4,2.6l0,0l4.4-0.2l-0.4,2.6l4.4-0.2l-0.4,2.6l4.4-0.2l-0.4,2.6l0,0l4.4-0.2l-0.4,2.6l0,0l2.8-0.2l1.2,2.5
					c2.8-12,48.1-18.8,67-34.4l0,0c12.1-8.5,14-17.3,14.5-31.2c1.4-36.5,6-57.8,22-69.7L374.3,249.6z"/>
			</g>
		</g>
		<g>
			<g>
				
					<linearGradient id="SVGID_112_" gradientUnits="userSpaceOnUse" x1="394.0903" y1="258.2015" x2="371.2682" y2="215.483" gradientTransform="matrix(1 0 0 -1 0 500)">
					<stop  offset="0" style="stop-color:#E8BAFF"/>
					<stop  offset="0.9954" style="stop-color:#F4DBFF"/>
				</linearGradient>
				<path class="st115" d="M374.8,244c-2.3-1.4-5.2-1.3-7.6,0l-11.2,6.6c-5.6,3.3-9.9,8.3-12.2,14.2c0.1-0.2,0.1-0.4,0.2-0.5
					l47.7,27.5l0,0c2.5-5.9,6.9-10.9,12.6-14.3l13-7.6v-0.3c0-0.7-0.4-1.4-1-1.7L374.8,244z"/>
				
					<linearGradient id="SVGID_113_" gradientUnits="userSpaceOnUse" x1="361.6436" y1="157.6295" x2="322.3967" y2="131.3707" gradientTransform="matrix(1 0 0 -1 0 500)">
					<stop  offset="0" style="stop-color:#E8BAFF"/>
					<stop  offset="0.9954" style="stop-color:#F4DBFF"/>
				</linearGradient>
				<path class="st116" d="M338.1,335.9L338.1,335.9c-14.9,20.8-72.1,22.3-72.1,34.3l2.1,0.2l-0.7,2l4.4-0.2l-0.4,2.6l4.4-0.2
					l-0.4,2.6l4.4-0.2l-0.4,2.6l4.4-0.2l-0.4,2.6l4.4-0.2l-0.4,2.6l4.4-0.2l-0.4,2.6l0,0l4.4-0.2l-0.4,2.6l0,0l4.4-0.2l-0.4,2.6
					l4.4-0.2l-0.4,2.6l0,0l4.4-0.2l-0.4,2.6l0,0l2.8-0.2l1.2,2.5c3.1-13,59.3-16.1,74.1-35.3c-0.1,0.2-0.3,0.4-0.4,0.5L338.1,335.9z
					"/>
				
					<linearGradient id="SVGID_114_" gradientUnits="userSpaceOnUse" x1="371.376" y1="234.3454" x2="366.0113" y2="190.8631" gradientTransform="matrix(1 0 0 -1 0 500)">
					<stop  offset="0" style="stop-color:#E8BAFF"/>
					<stop  offset="0.9954" style="stop-color:#F4DBFF"/>
				</linearGradient>
				<path class="st117" d="M344,264.3c-0.1,0.2-0.1,0.4-0.2,0.5c0,0.1-0.1,0.1-0.1,0.2c-0.1,0.2-0.1,0.3-0.2,0.5
					c0,0.1,0,0.1-0.1,0.2c-0.2,0.6-0.4,1.1-0.5,1.7c0,0.1-0.1,0.2-0.1,0.3c0,0.2-0.1,0.3-0.1,0.5c0,0.1-0.1,0.2-0.1,0.4
					c0,0.1-0.1,0.3-0.1,0.4c-0.1,0.2-0.1,0.5-0.2,0.7c0,0.1,0,0.2-0.1,0.4c0,0.2-0.1,0.3-0.1,0.5c0,0.1,0,0.2-0.1,0.4
					c0,0.2-0.1,0.3-0.1,0.5c0,0.1,0,0.2,0,0.3c0,0.3-0.1,0.5-0.1,0.8c0,0.1,0,0.1,0,0.2c0,0.2,0,0.4-0.1,0.7c0,0.1,0,0.2,0,0.3
					c0,0.2,0,0.4,0,0.6c0,0.1,0,0.2,0,0.3c0,0.3,0,0.6,0,0.9v2.1l-0.1,47.7c0,0.2,0,0.5,0,0.7c0,0.1,0,0.1,0,0.2c0,0.2,0,0.3,0,0.5
					c0,0.1,0,0.2,0,0.2c0,0.2,0,0.3,0,0.5c0,0.1,0,0.2,0,0.2c0,0.2,0,0.3-0.1,0.5c0,0.1,0,0.2,0,0.2c0,0.2-0.1,0.3-0.1,0.5
					c0,0.1,0,0.1,0,0.2c0,0.2-0.1,0.3-0.1,0.5c0,0.1,0,0.1-0.1,0.2c0,0.2-0.1,0.3-0.1,0.5c0,0.1,0,0.1-0.1,0.2
					c0,0.2-0.1,0.3-0.2,0.5c0,0.1,0,0.1-0.1,0.2c-0.1,0.2-0.1,0.3-0.2,0.5c0,0,0,0.1-0.1,0.1c-0.1,0.2-0.1,0.3-0.2,0.5
					c0,0,0,0.1-0.1,0.1c-0.1,0.2-0.2,0.4-0.2,0.5v0.1c-0.1,0.2-0.2,0.4-0.3,0.5v0.1c-0.1,0.2-0.2,0.4-0.3,0.5c0,0,0,0,0,0.1
					c-0.1,0.2-0.2,0.4-0.3,0.6l0,0c-0.1,0.2-0.2,0.4-0.4,0.6l0,0c-0.1,0.2-0.3,0.4-0.4,0.6l0,0l47,27.2c0.1-0.2,0.3-0.4,0.4-0.5
					l0.1-0.1c0.1-0.1,0.2-0.3,0.3-0.4c0-0.1,0.1-0.1,0.1-0.2c0.1-0.1,0.2-0.3,0.3-0.4c0-0.1,0.1-0.1,0.1-0.2
					c0.1-0.1,0.2-0.3,0.3-0.4c0-0.1,0.1-0.1,0.1-0.2c0.1-0.1,0.2-0.3,0.2-0.4s0.1-0.1,0.1-0.2c0.1-0.1,0.2-0.3,0.2-0.4
					s0.1-0.1,0.1-0.2c0.1-0.2,0.2-0.4,0.3-0.5c0,0,0,0,0-0.1c0.1-0.2,0.2-0.4,0.3-0.6l0,0c0.1-0.2,0.1-0.4,0.2-0.6
					c0-0.1,0-0.1,0.1-0.2c0-0.1,0.1-0.3,0.1-0.5c0-0.1,0-0.2,0.1-0.2c0-0.1,0.1-0.3,0.1-0.4s0-0.2,0.1-0.3c0-0.1,0.1-0.3,0.1-0.4
					s0-0.2,0.1-0.3c0-0.1,0-0.3,0.1-0.4c0-0.1,0-0.2,0-0.3c0-0.1,0-0.3,0-0.4s0-0.2,0-0.3c0-0.2,0-0.3,0-0.5c0-0.1,0-0.1,0-0.2
					c0-0.2,0-0.5,0-0.7l0.1-47.7v-1.2c0-0.3,0-0.6,0-0.9c0-0.1,0-0.2,0-0.3c0-0.2,0-0.4,0-0.6c0-0.1,0-0.2,0-0.3
					c0-0.2,0-0.4,0.1-0.6c0-0.1,0-0.2,0-0.3c0-0.3,0.1-0.6,0.1-0.8c0-0.1,0-0.3,0.1-0.4c0-0.2,0-0.3,0.1-0.5c0-0.2,0.1-0.3,0.1-0.5
					c0-0.1,0-0.3,0.1-0.4c0-0.2,0.1-0.3,0.1-0.5c0-0.1,0-0.2,0.1-0.2c0.1-0.4,0.2-0.8,0.3-1.2v-0.1c0.1-0.2,0.1-0.4,0.2-0.6
					c0-0.1,0-0.1,0-0.2c0.1-0.2,0.1-0.4,0.2-0.6l0,0c0.3-1,0.7-1.9,1.1-2.8l0,0L344,264.3z"/>
			</g>
			<g>
				<polygon class="st118" points="372.1,247.6 375.6,249.7 377.9,248.5 374.4,246.4 				"/>
				<polygon class="st118" points="380.7,250.2 378.4,251.4 382.9,254 385.1,252.8 				"/>
				<polygon class="st118" points="405.8,265.1 392.7,257.3 390.5,258.5 403.7,266.3 				"/>
				<polygon class="st118" points="407,265.9 404.9,267 407.3,268.4 409.4,267.3 				"/>
				<polygon class="st118" points="366.5,250.4 388.2,263 390.5,261.8 368.9,249.2 				"/>
				<polygon class="st118" points="393.4,263.5 391.2,264.7 392.7,265.6 394.9,264.4 				"/>
				<polygon class="st118" points="399.1,269.3 401.2,268.1 397.4,265.9 395.3,267.1 				"/>
				<polygon class="st118" points="375.6,261.6 390.3,270 392.5,268.8 377.9,260.4 				"/>
				<polygon class="st118" points="371.3,259.2 373.7,258 368,254.7 365.7,255.9 				"/>
			</g>
			<g>
				<polygon class="st118" points="347,292.6 368.6,305 368.6,302.6 347,290.2 				"/>
				<polygon class="st118" points="378.4,308.3 374.7,306.2 374.7,308.6 378.4,310.7 				"/>
				<polygon class="st118" points="379.1,308.7 379.1,311.1 381.7,312.6 381.7,310.2 				"/>
				<polygon class="st118" points="358.1,304.6 358.1,302.2 353.1,299.3 353.1,301.7 				"/>
				<polygon class="st118" points="347,298.2 351.1,300.5 351.1,298.2 347,295.8 				"/>
				<polygon class="st118" points="363,307.4 375.3,314.5 375.3,312.1 363,305 				"/>
				<polygon class="st118" points="347,303.8 364.6,313.9 364.6,311.6 347,301.4 				"/>
				<polygon class="st118" points="372.1,318.3 372.1,315.9 368.6,313.8 368.6,316.2 				"/>
				<polygon class="st118" points="373,324.4 377.1,326.8 377.1,324.4 373,322 				"/>
				<polygon class="st118" points="381.6,327 378,324.9 378,327.3 381.6,329.4 				"/>
				<polygon class="st118" points="347,309.4 365.6,320.2 365.6,317.8 347,307 				"/>
				<polygon class="st118" points="347,315 356.3,320.4 356.3,318 347,312.6 				"/>
				<polygon class="st118" points="363.8,322.3 361.9,321.2 361.9,323.6 362.3,323.8 363.7,324.7 				"/>
				<polygon class="st118" points="365.1,325.5 365.7,325.8 379.9,334 379.9,331.6 365.1,323.1 				"/>
				<polygon class="st118" points="359.4,319.8 357.6,318.8 357.6,321.1 359.4,322.2 				"/>
				<polygon class="st118" points="376.6,301.3 376.7,292.5 346.7,275.2 346.7,284 				"/>
			</g>
			<g>
				<path class="st118" d="M343,347.2l2.3-1.1l-4.7-3.1c-0.7,0.4-1.3,0.8-2.1,1.3L343,347.2z"/>
				<polygon class="st118" points="348.6,348.2 346.3,349.3 353.3,353.7 355.5,352.6 351.7,350.2 				"/>
				<polygon class="st118" points="361.1,358.7 371.4,365.4 373.5,364.3 363.3,357.7 				"/>
				<path class="st118" d="M335.2,348.2l2.3-1.1l-2-1.3c-0.8,0.4-1.5,0.8-2.3,1.1L335.2,348.2z"/>
				<polygon class="st118" points="338,350 342.4,352.8 344.7,351.7 340.3,348.9 				"/>
				<polygon class="st118" points="352.1,356.4 349.9,357.5 362.9,365.7 365,364.6 				"/>
				<polygon class="st118" points="364.1,366.5 366.4,367.9 368.5,366.8 366.2,365.4 				"/>
				<path class="st118" d="M347.5,362l2.2-1.1L330,348.5c-0.8,0.3-1.7,0.7-2.5,1L347.5,362z"/>
				<polygon class="st118" points="352.6,362.6 350.4,363.8 351.9,364.7 354.1,363.5 				"/>
				<polygon class="st118" points="354.4,366.2 358.2,368.6 360.3,367.5 356.6,365.1 				"/>
				<polygon class="st118" points="334.9,360.2 349.4,369 351.6,367.9 337.2,359 				"/>
				<polygon class="st118" points="352.5,370.9 356.2,373.2 358.4,372.1 354.7,369.8 				"/>
				<polygon class="st118" points="330.7,357.6 333.1,356.5 327.6,353.1 325.2,354.2 				"/>
				<path class="st118" d="M316,353.5l33.6,20.3l1.1-0.6L317.4,353C316.9,353.2,316.5,353.4,316,353.5z"/>
				<polygon class="st118" points="311.8,355.4 310.1,356.2 320.8,362.5 323.2,361.4 312.6,355.1 				"/>
				<polygon class="st118" points="304.2,359 308.8,361.6 311.2,360.4 306.7,357.8 				"/>
				<polygon class="st118" points="312.7,363.9 314.9,365.2 317.4,364 315.2,362.8 				"/>
			</g>
		</g>
	</g>
</g>
</svg>
