<?xml version="1.0" encoding="utf-8"?>
<!-- Generator: Adobe Illustrator 16.0.0, SVG Export Plug-In . SVG Version: 6.00 Build 0)  -->
<!DOCTYPE svg PUBLIC "-//W3C//DTD SVG 1.1//EN" "http://www.w3.org/Graphics/SVG/1.1/DTD/svg11.dtd">
<svg version="1.1" id="Layer_1" xmlns="http://www.w3.org/2000/svg" xmlns:xlink="http://www.w3.org/1999/xlink" x="0px" y="0px"
	 width="100px" height="100px" viewBox="0 0 100 100" enable-background="new 0 0 100 100" xml:space="preserve">
<path fill="#E61F2D" d="M48.983,6.747c-12.97,0-23.484,10.513-23.484,23.483h46.967C72.466,17.261,61.952,6.747,48.983,6.747z"/>
<g>
	<path fill="#010101" d="M17.063,31.7h-3.999c-3.832,0-6.937,3.168-6.937,7.002v26.763c0,3.835,3.105,6.92,6.937,6.92h3.999
		c3.833,0,6.875-3.085,6.875-6.92V38.703C23.938,34.868,20.896,31.7,17.063,31.7z M19.199,65.466c0,1.142-0.996,2.019-2.136,2.019
		h-3.999c-1.139,0-2.035-0.877-2.035-2.019V38.703c0-1.14,0.896-2.101,2.035-2.101h3.999c1.14,0,2.136,0.961,2.136,2.101V65.466
		L19.199,65.466z"/>
	<path fill="#010101" d="M86.932,31.7h-3.996c-3.834,0-6.873,3.168-6.873,7.002v26.763c0,3.835,3.039,6.92,6.873,6.92h3.996
		c3.834,0,6.94-3.085,6.94-6.92V38.703C93.872,34.868,90.766,31.7,86.932,31.7z M88.971,65.466c0,1.142-0.896,2.019-2.039,2.019
		h-3.996c-1.142,0-2.135-0.877-2.135-2.019V38.703c0-1.14,0.993-2.101,2.135-2.101h3.996c1.143,0,2.039,0.961,2.039,2.101V65.466z"
		/>
	<path fill="#010101" d="M67.857,31.7H30.591c-3.693,0-5.019,4.285-5.019,7.333v40.846c0,3.26,1.687,5.579,5.019,5.579h3.151v5.539
		c0,4.72,3.466,8.754,8.151,8.989c0.146,0.009-0.05,0.014,0.1,0.014c2.309,0,4.604-0.884,6.303-2.486
		c0.754-0.714,1.449-1.522,1.896-2.397c1.294,2.799,4.373,4.862,7.589,4.886c4.633,0,8.479-3.727,8.479-8.663V85.46h1.6
		c3.371,0,6.57-2.371,6.57-5.58V39.033C74.428,35.996,71.464,31.7,67.857,31.7z M69.525,79.878c0,0.276-0.725,0.679-1.668,0.679
		h-4.741c-1.347,0-1.761,1.074-1.761,2.422v8.358c0,1.884-1.021,3.785-3.293,3.784c-1.655-0.012-3.242-1.563-3.242-3.194v-8.948
		c0-1.348-1.733-2.422-3.078-2.422h-3.25c-1.345,0-1.678,1.074-1.678,2.422v8.358c0,0.97-0.715,1.902-1.483,2.627
		c-0.778,0.734-2.103,1.158-3.146,1.158l-0.026-0.007c-2.059-0.104-3.515-2.027-3.515-4.118v-8.021c0-1.348-1.805-2.422-3.15-2.422
		h-4.902c-0.785,0-0.118-0.236-0.118-0.679V39.033c0-0.962,0.207-2.116,0.569-2.395l37.209-0.022
		c0.398,0.185,1.273,1.451,1.273,2.417V79.878L69.525,79.878z"/>
	<path fill="#010101" d="M70.663,30.066c0.685,0,1.338-0.254,1.799-0.759c0.461-0.507,0.688-1.164,0.629-1.847
		c-0.692-7.746-3.518-13.49-8.323-17.118L68.313,4.2c0.451-0.777,0.186-1.769-0.595-2.218l-3.055-1.765
		c-0.774-0.448-1.771-0.181-2.22,0.596l-3.707,6.426C55.818,6.271,52.479,5.78,48.728,5.78c-3.751,0-7.092,0.492-10.011,1.459
		l-3.708-6.426C34.56,0.036,33.568-0.23,32.79,0.218l-3.055,1.766c-0.775,0.448-1.042,1.443-0.593,2.22l3.545,6.146
		c-4.805,3.629-7.629,9.381-8.322,17.126c-0.06,0.682,0.166,1.323,0.627,1.83c0.461,0.505,1.117,0.759,1.8,0.759L70.663,30.066
		L70.663,30.066z M35.534,14.388c0.405,0.113,0.854,0.051,1.246-0.176l3.055-1.774c0.265-0.152,0.468-0.373,0.606-0.622
		c2.38-0.771,5.14-1.156,8.287-1.156c3.146,0,5.906,0.382,8.286,1.153c0.139,0.249,0.342,0.464,0.604,0.617l3.055,1.764
		c0.394,0.228,0.843,0.307,1.248,0.194c3.125,2.423,5.103,6.038,5.966,10.939H29.569C30.432,20.426,32.409,16.811,35.534,14.388z"/>
	<path fill="#010101" d="M57.367,17.427c-1.639,0-2.967,1.328-2.967,2.967c0,1.638,1.328,2.967,2.967,2.967
		c1.638,0,2.963-1.329,2.963-2.967C60.33,18.755,59.005,17.427,57.367,17.427z"/>
	<path fill="#010101" d="M41.395,17.427c-1.637,0-2.963,1.328-2.963,2.967c0,1.638,1.326,2.967,2.963,2.967
		c1.638,0,2.966-1.329,2.966-2.967C44.36,18.755,43.033,17.427,41.395,17.427z"/>
</g>
</svg>
