<svg height="423" viewBox="0 0 497 423" width="497" xmlns="http://www.w3.org/2000/svg" xmlns:xlink="http://www.w3.org/1999/xlink"><defs><path id="a" d="m17.4352332 239.238095h121.8549218c1.656855 0 3 1.343146 3 3v33.517007c0 1.656854-1.343145 3-3 3h-121.8549218c-1.6568543 0-3-1.343146-3-3v-33.517007c0-1.656854 1.3431457-3 3-3z"/><filter id="b" height="181%" width="125%" x="-12.5%" y="-35.4%"><feOffset dx="0" dy="2" in="SourceAlpha" result="shadowOffsetOuter1"/><feGaussianBlur in="shadowOffsetOuter1" result="shadowBlurOuter1" stdDeviation="5"/><feColorMatrix in="shadowBlurOuter1" type="matrix" values="0 0 0 0 0   0 0 0 0 0   0 0 0 0 0  0 0 0 0.11681952 0"/></filter><path id="c" d="m3 232.829932h29.0569948c1.6568543 0 3 1.343146 3 3v30.312925c0 1.656854-1.3431457 3-3 3h-29.0569948c-1.65685425 0-3-1.343146-3-3v-30.312925c0-1.656854 1.34314575-3 3-3z"/><filter id="d" height="188.1%" width="191.3%" x="-45.6%" y="-38.6%"><feOffset dx="0" dy="2" in="SourceAlpha" result="shadowOffsetOuter1"/><feGaussianBlur in="shadowOffsetOuter1" result="shadowBlurOuter1" stdDeviation="5"/><feColorMatrix in="shadowBlurOuter1" type="matrix" values="0 0 0 0 0   0 0 0 0 0   0 0 0 0 0  0 0 0 0.11681952 0"/></filter><path id="e" d="m134.215515 119.619048c-2.373385 0-4.298417 1.94229-4.298417 4.338868v23.798634c0 2.395721 1.925032 4.338869 4.298417 4.338869v6.012323c0 .552285.447715 1 1 1 .275957 0 .539648-.114036.728648-.315112l6.295005-6.697211h52.462416c2.374234 0 4.298416-1.943148 4.298416-4.338869v-23.798634c0-2.396578-1.924182-4.338868-4.298416-4.338868z"/><filter id="f" height="181.2%" width="146.3%" x="-23.2%" y="-35.5%"><feOffset dx="0" dy="2" in="SourceAlpha" result="shadowOffsetOuter1"/><feGaussianBlur in="shadowOffsetOuter1" result="shadowBlurOuter1" stdDeviation="5"/><feColorMatrix in="shadowBlurOuter1" type="matrix" values="0 0 0 0 0   0 0 0 0 0   0 0 0 0 0  0 0 0 0.176007699 0"/></filter><mask id="g" fill="#fff"><path d="m15.0275661 6.25802915h-14.49845511c0-3.40181924 3.24629943-6.15916035 7.24963458-6.15916035 4.00333513 0 7.24882053 2.75734111 7.24882053 6.15916035" fill="#fff" fill-rule="evenodd"/></mask></defs><g fill="none" fill-rule="evenodd"><path d="m30.9629273 238.672737c95.6571427 96.533333 108.4420657 178.566666 252.0714287 182.833333s199 1 212-92.5c6.250394-44.954761-12.577213-113.10607-47.034356-199.50607s-105.977223-127.40155888-185.5-129c-185.734106-3.73333333-327.1942156 141.639403-231.5370727 238.172737z" fill="#40c4ff"/><g transform="translate(170 41)"><path d="m177.34715 297.362189c0 9.189135-6.723159 16.637811-15.016407 16.637811h-123.5993101c-8.2932481 0-15.016407-7.448676-15.016407-16.637811v-263.6359431c0-9.1891345 6.7231589-16.6378105 15.016407-16.6378105h123.5993101c8.293248 0 15.016407 7.448676 15.016407 16.6378105z" fill="#fff"/><path d="m171.160622 33.4285714v6.0087726 251.14572 4.008773c0 7.179701-5.820298 13-13 13h-116.2901557c-7.1797017 0-13-5.820299-13-13v-4.008773-251.14572-5.0087726c0-6.627417 5.372583-12 12-12h119.2901557c6.075132 0 11 4.9248678 11 11z" fill="#2b2f3a"/><path d="m134.041451 17.0884354-1.79607 6.0094109c-2.350194 7.8622468-9.315851 13.2150789-17.196359 13.2150789h-32.129132c-7.8805084 0-14.8461648-5.3528321-17.1963591-13.2150789l-1.7960698-6.0094109z" fill="#fff"/><path d="m110.856889 28.8367347h-19.5317154c-1.1797103 0-2.1360544-.9563441-2.1360544-2.1360544 0-1.1797103.9563441-2.1360544 2.1360544-2.1360544h19.5317154c1.17971 0 2.136054.9563441 2.136054 2.1360544 0 1.1797103-.956344 2.1360544-2.136054 2.1360544z" fill="#434343"/><ellipse cx="84.549223" cy="26.70068" fill="#434343" rx="2.062176" ry="2.136054"/><path d="m40.119171 79.0340136h117.73057c1.656854 0 3 1.3431458 3 3v134.9795914c0 1.656855-1.343146 3-3 3h-117.73057c-1.6568543 0-3-1.343145-3-3v-134.9795914c0-1.6568542 1.3431457-3 3-3z" fill="#fff"/><use fill="#000" filter="url(#b)" xlink:href="#a"/><use fill="#fff" fill-rule="evenodd" xlink:href="#a"/><use fill="#000" filter="url(#d)" xlink:href="#c"/><use fill="#4ed1db" fill-rule="evenodd" xlink:href="#c"/><path d="m52.492228 90.7823129h95.046632c1.656854 0 3 1.3431458 3 3v40.9931971c0 1.656854-1.343146 3-3 3h-95.046632c-1.6568543 0-3-1.343146-3-3v-40.9931971c0-1.6568542 1.3431457-3 3-3z" fill="#ffd740"/><path d="m161.880829 71.5578231v-41.6530612c3.416593 0 6.186529 3.4230539 6.186529 7.6452398v34.0078214 215.6605089c0 4.174589-2.769936 7.557178-6.186529 7.557178z" fill="#fff" fill-opacity=".1"/><path d="m40.119171 52.3333333h117.73057c1.656854 0 3 1.3431458 3 3v15.3605443c0 1.6568542-1.343146 3-3 3h-117.73057c-1.6568543 0-3-1.3431458-3-3v-15.3605443c0-1.6568542 1.3431457-3 3-3z" fill="#fff"/><path d="m15.0275661 6.25802915h-14.49845511c0-3.40181924 3.24629943-6.15916035 7.24963458-6.15916035 4.00333513 0 7.24882053 2.75734111 7.24882053 6.15916035" mask="url(#g)" transform="translate(49.492228)"/><path d="m15.9454641 207.197279c-3.681173 0-6.66567135-3.090592-6.66567135-6.902836v-21.438319c0-3.813151 2.98449835-6.903743 6.66567135-6.903743h20.6954392c3.6811731 0 6.6647962 3.090592 6.6647962 6.903743v21.438319c0 3.812244-2.9836231 6.902836-6.6647962 6.902836z" fill="#ffd740"/><ellipse cx="55.678757" cy="63.013605" fill="#4ed3dd" rx="5.15544" ry="5.340136"/><ellipse cx="144.352332" cy="198.653061" fill="#4ed3dd" rx="5.15544" ry="5.340136"/><g fill="#dedede"><path d="m70.1878679 60.877551h75.1216731c1.179711 0 2.136055.9563442 2.136055 2.1360544 0 1.1797103-.956344 2.1360545-2.136055 2.1360545h-75.1216731c-1.1797103 0-2.1360544-.9563442-2.1360544-2.1360545 0-1.1797102.9563441-2.1360544 2.1360544-2.1360544z"/><path d="m54.7215466 196.517007h75.1216734c1.17971 0 2.136055.956344 2.136055 2.136054 0 1.179711-.956345 2.136055-2.136055 2.136055h-75.1216734c-1.1797102 0-2.1360544-.956344-2.1360544-2.136055 0-1.17971.9563442-2.136054 2.1360544-2.136054z"/><path d="m52.6593705 146.319728h79.2460255c1.179711 0 2.136055.956344 2.136055 2.136054 0 1.179711-.956344 2.136055-2.136055 2.136055h-79.2460255c-1.1797103 0-2.1360544-.956344-2.1360544-2.136055 0-1.17971.9563441-2.136054 2.1360544-2.136054z"/><path d="m53.6904586 159.136054h54.4999114c1.179711 0 2.136055.956345 2.136055 2.136055 0 1.17971-.956344 2.136054-2.136055 2.136054h-54.4999114c-1.1797103 0-2.1360545-.956344-2.1360545-2.136054 0-1.17971.9563442-2.136055 2.1360545-2.136055z"/><path d="m54.7215466 252.054422h68.9351454c1.17971 0 2.136054.956344 2.136054 2.136054 0 1.17971-.956344 2.136055-2.136054 2.136055h-68.9351454c-1.1797102 0-2.1360544-.956345-2.1360544-2.136055 0-1.17971.9563442-2.136054 2.1360544-2.136054z"/><path d="m54.7215466 261.666667h44.1890311c1.1797103 0 2.1360543.956344 2.1360543 2.136054 0 1.17971-.956344 2.136055-2.1360543 2.136055h-44.1890311c-1.1797102 0-2.1360544-.956345-2.1360544-2.136055 0-1.17971.9563442-2.136054 2.1360544-2.136054z"/></g><use fill="#000" filter="url(#f)" xlink:href="#e"/><use fill="#4ed1db" fill-rule="evenodd" xlink:href="#e"/><path d="m153.179468 142.295553-8.310881-4.593577c-.318527-.176056-.516255-.511264-.516255-.875209v-2.386067c0-.364266.198073-.699717.517039-.875643l8.310881-4.583865c.483604-.266732 1.091871-.090922 1.358603.392682.081574.147901.124357.314054.124357.48296v1.971955c0 .375488-.210345.719331-.544646.890311l-3.984206 2.037739c-.491705.251485-.686442.853959-.434957 1.345664.095448.186621.247126.338531.433602.434263l3.986916 2.046792c.333553.171238.543291.514676.543291.889616v1.94717c0 .552285-.447715 1-1 1-.169209 0-.335651-.042937-.483744-.124791zm12.973842-16.268342h.705279c.552284 0 1 .447715 1 1 0 .062872-.00593.125604-.01771.187362l-3.08169 16.156463c-.089941.471536-.502254.812637-.982291.812637h-.68853c-.552285 0-1-.447715-1-1 0-.062537.005866-.124937.017522-.186379l3.064942-16.156463c.089539-.471995.502064-.81362.982478-.81362zm8.100576 15.393133v-1.94717c0-.37494.209738-.718378.543291-.889616l3.986917-2.046792c.491321-.252233.685141-.855003.432907-1.346325-.095732-.186475-.247641-.338154-.434263-.433602l-3.984205-2.037739c-.334302-.17098-.544647-.514823-.544647-.890311v-1.971955c0-.552285.447715-1 1-1 .168906 0 .335059.042783.48296.124358l8.310881 4.583865c.318966.175926.51704.511377.51704.875643v2.386067c0 .363945-.197728.699153-.516256.875209l-8.310881 4.593577c-.483364.267165-1.091789.0919-1.358953-.391465-.081854-.148093-.124791-.314535-.124791-.483744z" fill="#fff"/><path d="m95.710688 118.550906 8.813972-12.365881c.320556-.449735.945001-.554456 1.394737-.2339.09041.064442.169459.14349.2339.2339l12.255104 17.193741c.320556.449735.215835 1.07418-.233901 1.394736-.169442.120773-.372339.185682-.580418.185682h-19.2186442-16.9698541c-.5522848 0-1-.447716-1-1 0-.209853.0660186-.414388.1887069-.58464l8.484927-11.774371c.3228875-.448064.9478679-.549541 1.3959327-.226653.087247.062872.1637811.139407.2266536.226653z" fill="#fff" opacity=".35"/><ellipse cx="94.860104" cy="106.802721" fill="#fff" opacity=".35" rx="3.093264" ry="3.204082"/></g><g fill="#fff"><path d="m189.58 286.68v-1.68c0-.453336-.116665-.879998-.35-1.28-.233334-.400002-.549998-.716666-.95-.95s-.826664-.35-1.28-.35-.879998.116666-1.28.35-.716666.549998-.95.95c-.233335.400002-.35.826664-.35 1.28v1.68zm-2.58 7.5c.453336 0 .846665-.166665 1.18-.5s.5-.726664.5-1.18-.166665-.846665-.5-1.18-.726664-.5-1.18-.5-.846665.166665-1.18.5-.5.726664-.5 1.18.166665.846665.5 1.18.726664.5 1.18.5zm5-7.5c.453336 0 .846665.159998 1.18.48s.5.706664.5 1.16v8.36c0 .453336-.166665.839998-.5 1.16s-.726664.48-1.18.48h-10c-.453336 0-.846665-.159998-1.18-.48s-.5-.706664-.5-1.16v-8.36c0-.453336.166665-.839998.5-1.16s.726664-.48 1.18-.48h.82v-1.68c0-.760004.186665-1.459997.56-2.1s.879997-1.146665 1.52-1.52 1.339996-.56 2.1-.56 1.459997.186665 2.1.56 1.146665.879997 1.52 1.52.56 1.339996.56 2.1v1.68z"/><path d="m197 232.92c.520003 0 1.006664-.133332 1.46-.4s.813332-.623331 1.08-1.07.4-.929997.4-1.45-.133332-1.006664-.4-1.46-.626664-.813332-1.08-1.08-.939997-.4-1.46-.4-1.003331.133332-1.45.4-.803332.626664-1.07 1.08-.4.939997-.4 1.46.133332 1.003331.4 1.45.623331.803332 1.07 1.07.929997.4 1.45.4zm6.22-2.1 1.74 1.36c.08.066667.126667.153333.14.26s-.006666.206666-.06.3l-1.68 2.88c-.053334.093334-.123333.153333-.21.18s-.183333.02-.29-.02l-2.06-.82c-.533336.386669-1.006665.659999-1.42.82l-.3 2.18c-.026667.106667-.076666.193333-.15.26s-.156666.1-.25.1h-3.36c-.093334 0-.176666-.033333-.25-.1s-.116667-.153333-.13-.26l-.32-2.18c-.560003-.226668-1.026665-.499998-1.4-.82l-2.08.82c-.213334.093334-.379999.040001-.5-.16l-1.68-2.88c-.053334-.093334-.073333-.193333-.06-.3s.06-.193333.14-.26l1.76-1.36c-.026667-.186668-.04-.459998-.04-.82s.013333-.633332.04-.82l-1.76-1.36c-.08-.066667-.126667-.153333-.14-.26s.006666-.206666.06-.3l1.68-2.88c.120001-.200001.286666-.253334.5-.16l2.08.82c.480002-.360002.946664-.633332 1.4-.82l.32-2.18c.013333-.106667.056666-.193333.13-.26s.156666-.1.25-.1h3.36c.093334 0 .176666.033333.25.1s.123333.153333.15.26l.3 2.18c.520003.200001.993331.473332 1.42.82l2.06-.82c.106667-.04.203333-.046667.29-.02s.156666.086666.21.18l1.68 2.88c.053334.093334.073333.193333.06.3s-.06.193333-.14.26l-1.74 1.36c.026667.186668.04.459998.04.82s-.013333.633332-.04.82z"/></g></g></svg>