<?xml version="1.0" encoding="utf-8"?>
<!-- Generator: Adobe Illustrator 25.0.1, SVG Export Plug-In . SVG Version: 6.00 Build 0)  -->
<svg version="1.1" id="Layer_1" xmlns="http://www.w3.org/2000/svg" xmlns:xlink="http://www.w3.org/1999/xlink" x="0px" y="0px"
	 viewBox="0 0 500 500" style="enable-background:new 0 0 500 500;" xml:space="preserve">
<style type="text/css">
	.st0{fill:#CCCCCC;}
	.st1{opacity:0.5;}
	.st2{fill:#FF4D78;}
	.st3{fill:#5C4DC7;}
	.st4{opacity:0.5;fill:#FF4D78;}
	.st5{fill:#B6FF8B;}
	.st6{fill:#8446B2;}
	.st7{fill:#6328B8;}
	.st8{fill:#B66AEA;}
	.st9{fill:#BFBCC4;}
	.st10{fill:#41324C;}
	.st11{fill:#D2CED8;}
	.st12{fill:#974EC6;}
	.st13{fill:#9E9B2C;}
	.st14{fill:#B969ED;}
	.st15{fill:#31263A;}
	.st16{fill:#B458DD;}
	.st17{fill:#FFF68B;}
	.st18{fill:#4646B2;}
	.st19{fill:#1C36B8;}
	.st20{fill:#6C6AEA;}
	.st21{fill:#BCBEC4;}
	.st22{fill:#32324C;}
	.st23{fill:#CED0D8;}
	.st24{fill:#514EC6;}
	.st25{fill:#9E7A2C;}
	.st26{fill:#6C69ED;}
	.st27{fill:#26263A;}
	.st28{fill:#6258DD;}
	.st29{fill:#DDDFEB;}
	.st30{opacity:0.5;fill:#020202;}
	.st31{fill:#7E75EA;}
	.st32{opacity:0.3;}
	.st33{fill:url(#SVGID_1_);}
	.st34{fill:#DD2A55;}
	.st35{fill:#FFAF82;}
	.st36{fill:#8783A5;}
	.st37{fill:#A59FC1;}
	.st38{opacity:0.2;}
	.st39{fill:url(#SVGID_2_);}
	.st40{opacity:0.5;fill:#D3CFF0;}
	.st41{fill:#FFFFFF;}
	.st42{opacity:0.6;fill:#32324C;}
	.st43{fill:url(#SVGID_3_);}
	.st44{fill:#4841A5;}
	.st45{enable-background:new    ;}
	.st46{clip-path:url(#SVGID_4_);}
	.st47{fill:#424260;}
	.st48{opacity:0.2;fill:#121212;}
	.st49{fill:#E8E8E8;}
	.st50{fill:#BFBFC1;}
</style>
<g>
	<path class="st0" d="M153.8,317.8l-5.2,80.4h0h0l0,0l-5.9,0l0.3,3.5l-4.3-1.6l0.2,1.6c0.5,4.1-1.9,6.6-5.7,6.5
		c-1.1,3.2-4.8,4.4-9.5,2.5c-5.7-2.3-10.8-8.4-11.4-13.6l-0.9-7l-10.3-3.8l-0.9-3.8l-3.9,0l0.2,2.8l-3.4-1.3l0.2,1.2
		c0.4,3.2-1.5,5.2-4.5,5.1c-0.8,2.5-3.7,3.4-7.4,1.9c-4.5-1.8-8.4-6.6-8.9-10.7l-0.7-5.5l-8.1-3l-9.7-41l11.2-6.9l23.6-0.1l14.2,0
		L153.8,317.8z M87.8,387l-0.7-5.5l-9.4-3.5l0.2,1.2c0.5,3.7,4.2,7.9,8.2,9.3c0.6,0.2,1.1,0.3,1.6,0.4
		C87.8,388.3,87.9,387.7,87.8,387z M131.9,404.2l-0.9-7.1l-12-4.5l0.2,1.6c0.6,4.7,5.4,10.1,10.5,11.8c0.7,0.2,1.4,0.4,2.1,0.5
		C132,405.9,132,405.1,131.9,404.2z M137.4,400.9l-0.2-1.4l-4.8-1.8l0.9,7.3c0.1,0.6,0.1,1.1,0,1.6
		C136.2,406.3,137.8,404.1,137.4,400.9z M113.7,397.7c0.6,4.7,5.4,10.1,10.5,11.8c3.3,1.1,5.9,0.4,7.1-1.7c-0.7-0.2-1.4-0.4-2.2-0.7
		c-5.7-2.3-10.8-8.4-11.4-13.6l-0.2-1.3l-4.8-1.8L113.7,397.7z M92,384.4l-0.1-1.1l-3.7-1.4l0.7,5.7c0.1,0.5,0.1,0.9,0,1.3
		C91.1,388.6,92.4,386.9,92,384.4z M73.5,381.9c0.5,3.7,4.2,7.9,8.2,9.3c2.6,0.9,4.6,0.3,5.5-1.3c-0.5-0.1-1.1-0.3-1.7-0.5
		c-4.5-1.8-8.4-6.6-8.9-10.7l-0.1-1.1l-3.7-1.4L73.5,381.9z"/>
	<g class="st1">
		<g>
			<path class="st2" d="M313.4,222.4c-0.9-0.5-1.6-1.5-2.1-2.5l-8.8-20.8c-0.8-1.8-0.4-3.4,0.7-3.6c1.2-0.2,2.7,1.1,3.5,2.9
				l6.6,15.6l11.1-15.2c0.7-1,2.3-0.5,3.4,1c1.2,1.5,1.6,3.5,0.9,4.5l-13.2,18C315.1,222.9,314.3,222.9,313.4,222.4
				C313.4,222.5,313.4,222.4,313.4,222.4z"/>
			<path class="st2" d="M326.6,212.4l-2.5,3.4l0,10.6c0,2.5-1.7,3.5-3.9,2.2l-16.3-9.4c-2.1-1.2-3.9-4.2-3.9-6.7l0-18.9
				c0-2.5,1.7-3.5,3.9-2.2l15.6,9l1.5-2c-0.2-0.2-0.5-0.3-0.7-0.4l-16.3-9.4c-3.5-2-6.4-0.4-6.4,3.7l0,18.9c0,4.1,2.9,9,6.4,11.1
				l16.3,9.4c3.5,2,6.4,0.4,6.4-3.7L326.6,212.4z"/>
		</g>
	</g>
	<g>
		<path class="st3" d="M358.6,121.7l-10.6-6.1c-1.6-0.9-2.9-3.1-2.9-5l0-12.3c0-1.8,1.3-2.6,2.9-1.7l10.6,6.1c1.6,0.9,2.9,3.1,2.9,5
			l0,12.3C361.4,121.9,360.1,122.6,358.6,121.7z"/>
		<path class="st4" d="M358.6,151.7l-10.6-6.1c-1.6-0.9-2.9-3.1-2.9-5l0-12.3c0-1.8,1.3-2.6,2.9-1.7l10.6,6.1c1.6,0.9,2.9,3.1,2.9,5
			l0,12.3C361.4,151.9,360.1,152.7,358.6,151.7z"/>
		<path class="st3" d="M358.6,181.8l-10.6-6.1c-1.6-0.9-2.9-3.1-2.9-5l0-12.3c0-1.8,1.3-2.6,2.9-1.7l10.6,6.1c1.6,0.9,2.9,3.1,2.9,5
			l0,12.3C361.4,182,360.1,182.7,358.6,181.8z"/>
		<path class="st3" d="M358.6,211.9l-10.6-6.1c-1.6-0.9-2.9-3.1-2.9-5l0-12.3c0-1.8,1.3-2.6,2.9-1.7l10.6,6.1c1.6,0.9,2.9,3.1,2.9,5
			l0,12.3C361.4,212,360.1,212.8,358.6,211.9z"/>
	</g>
	<g>
		<g>
			<polygon class="st5" points="104.5,322.7 65.1,340 53.9,331.8 93.3,314.4 			"/>
			<polygon class="st6" points="65.1,340 53.9,331.8 64,333.9 			"/>
			<polygon class="st7" points="104.5,322.7 93.3,314.4 94.3,320.6 			"/>
			<polygon class="st8" points="96.4,268.7 93.3,314.4 94.3,320.6 94.8,272 			"/>
			<path class="st9" d="M87.2,276.7c-0.3,0.1-0.5,0-0.5-0.4l1.1-10.1c0.5-4.2-2.1-6.4-6-4.9c-4,1.6-7.8,6.6-8.2,11l-1.1,10.2
				c0,0.3-0.3,0.7-0.6,0.9c-0.3,0.1-0.5,0-0.5-0.4l1.1-10c0.5-4.9,4.5-10.5,8.9-12.7c4.7-2.3,8.1,0.1,7.6,5.2l-1.1,10.2
				C87.8,276.2,87.5,276.6,87.2,276.7z"/>
			<polygon class="st10" points="96.4,268.7 63.6,283.2 69.6,283.1 68,286.4 100.8,271.9 94.8,272 			"/>
			<path class="st11" d="M88.6,274.8c-0.1,0.6-0.5,1.2-1,1.4c-0.5,0.2-0.9,0-0.8-0.6s0.5-1.2,1-1.4C88.3,274,88.6,274.3,88.6,274.8z
				"/>
			<path class="st11" d="M73.3,281.6c-0.1,0.6-0.5,1.2-1,1.4c-0.5,0.2-0.9,0-0.8-0.6c0.1-0.6,0.5-1.2,1-1.4
				C73,280.7,73.3,281,73.3,281.6z"/>
			<polygon class="st12" points="63.6,283.2 69.6,283.1 64,333.9 53.9,331.8 			"/>
			<polygon class="st13" points="69.6,283.1 64,333.9 65.1,340 68,286.4 			"/>
			<polygon class="st14" points="70,282.8 68,286.4 69.7,285.5 			"/>
			<polygon class="st8" points="67.2,304.5 64,333.9 65.1,340 			"/>
			<polygon class="st15" points="94.4,272.2 100.8,271.9 104.5,322.7 93.9,320.8 			"/>
			<path class="st14" d="M100.8,271.9l-6,0.1l1.6-3.3l-32.8,14.5l6-0.1l-1.6,3.3L100.8,271.9z M64.9,282.9l31-13.7l-1.5,3l5.1-0.1
				l-31,13.7l1.5-3L64.9,282.9z"/>
			<polygon class="st16" points="68,286.4 100.8,271.9 104.5,322.7 65.1,340 			"/>
			<path class="st15" d="M92.4,278.9c-0.1,0.6-0.5,1.2-1,1.4c-0.5,0.2-0.9,0-0.8-0.6c0.1-0.6,0.5-1.2,1-1.4
				C92.1,278.1,92.5,278.3,92.4,278.9z"/>
			<path class="st15" d="M77.1,285.6c-0.1,0.6-0.5,1.2-1,1.4c-0.5,0.2-0.9,0-0.8-0.6c0.1-0.6,0.5-1.2,1-1.4
				C76.8,284.8,77.2,285.1,77.1,285.6z"/>
			<path class="st11" d="M91.4,279.8c-0.3,0.1-0.5,0-0.5-0.4l1.1-10.1c0.5-4.2-2.1-6.4-6-4.9c-4,1.6-7.8,6.6-8.2,11l-1.1,10.2
				c0,0.3-0.3,0.7-0.6,0.9c-0.3,0.1-0.5,0-0.5-0.4l1.1-10c0.5-4.9,4.5-10.5,8.9-12.7c4.7-2.3,8.1,0.1,7.6,5.2L92.1,279
				C92,279.3,91.7,279.7,91.4,279.8z"/>
		</g>
		<g>
			<polygon class="st17" points="153.3,317.9 102.9,340.1 88.5,329.6 138.9,307.4 			"/>
			<polygon class="st18" points="102.9,340.1 88.5,329.6 101.5,332.3 			"/>
			<polygon class="st19" points="153.3,317.9 138.9,307.4 140.3,315.2 			"/>
			<polygon class="st20" points="143,248.9 138.9,307.4 140.3,315.2 140.9,253.1 			"/>
			<path class="st21" d="M131.1,259.1c-0.4,0.2-0.7,0-0.6-0.5l1.4-12.9c0.6-5.4-2.7-8.2-7.6-6.3c-5.2,2.1-9.9,8.5-10.5,14.1
				l-1.4,13.1c0,0.4-0.4,0.9-0.8,1.1c-0.4,0.2-0.7,0-0.6-0.5l1.4-12.8c0.7-6.2,5.7-13.5,11.4-16.2c6-2.9,10.4,0.2,9.7,6.6l-1.4,13.1
				C131.9,258.4,131.5,258.9,131.1,259.1z"/>
			<polygon class="st22" points="143,248.9 101,267.4 108.6,267.3 106.6,271.5 148.6,253 140.9,253.1 			"/>
			<path class="st23" d="M132.9,256.7c-0.1,0.7-0.7,1.5-1.3,1.8c-0.7,0.3-1.1-0.1-1.1-0.8c0.1-0.7,0.7-1.5,1.3-1.8
				C132.5,255.7,133,256,132.9,256.7z"/>
			<path class="st23" d="M113.4,265.3c-0.1,0.7-0.7,1.5-1.3,1.8c-0.7,0.3-1.1-0.1-1.1-0.8c0.1-0.7,0.7-1.5,1.3-1.8
				C113,264.3,113.4,264.6,113.4,265.3z"/>
			<polygon class="st24" points="101,267.4 108.6,267.3 101.5,332.3 88.5,329.6 			"/>
			<polygon class="st25" points="108.6,267.3 101.5,332.3 102.9,340.1 106.6,271.5 			"/>
			<polygon class="st26" points="109.2,267 106.6,271.5 108.8,270.4 			"/>
			<polygon class="st20" points="105.6,294.7 101.5,332.3 102.9,340.1 			"/>
			<polygon class="st27" points="140.4,253.4 148.6,253 153.3,317.9 139.7,315.6 			"/>
			<path class="st26" d="M148.6,253l-7.7,0.1l2-4.2l-42,18.5l7.7-0.1l-2,4.2L148.6,253z M102.6,267l39.7-17.5l-1.9,3.9l6.6-0.1
				l-39.7,17.5l1.9-3.9L102.6,267z"/>
			<polygon class="st28" points="106.6,271.5 148.6,253 153.3,317.9 102.9,340.1 			"/>
			<path class="st27" d="M137.9,261.9c-0.1,0.7-0.7,1.5-1.3,1.8c-0.7,0.3-1.1-0.1-1.1-0.8c0.1-0.7,0.7-1.5,1.3-1.8
				C137.5,260.9,138,261.2,137.9,261.9z"/>
			<path class="st27" d="M118.3,270.5c-0.1,0.7-0.7,1.5-1.3,1.8c-0.7,0.3-1.1-0.1-1.1-0.8c0.1-0.7,0.7-1.5,1.3-1.8
				C117.9,269.5,118.4,269.8,118.3,270.5z"/>
			<path class="st23" d="M136.6,263.1c-0.4,0.2-0.7,0-0.6-0.5l1.4-12.9c0.6-5.4-2.7-8.2-7.6-6.3c-5.2,2.1-9.9,8.5-10.5,14.1
				l-1.4,13.1c0,0.4-0.4,0.9-0.8,1.1c-0.4,0.2-0.7,0-0.6-0.5l1.4-12.8c0.7-6.2,5.7-13.5,11.4-16.2c6-2.9,10.4,0.2,9.7,6.6l-1.4,13.1
				C137.4,262.5,137,262.9,136.6,263.1z"/>
		</g>
	</g>
	<g>
		<path class="st23" d="M344.8,303.2L86.7,392.3c-4.5,1.6-5.1,7.7-1,10.1l95.3,55.5c4,2.3,8.8,2.8,13.1,1.2l250-88.3
			c4.7-1.7,5.3-8.1,0.9-10.6L344.8,303.2z"/>
		<polygon class="st23" points="447.7,347 448,365.5 429.7,368.3 418.8,346.9 		"/>
		<polygon class="st23" points="83.9,377.1 82.9,397.6 138,397.5 		"/>
		<path class="st29" d="M443.5,352.4l-3,1l-63.4,22.1l-135.3,47.2l-35.7,12.4l-11.4,4c-2.7,0.9-5.5,1.2-8.3,0.8
			c-2.1-0.3-4.2-1-6.2-2.1l-12.7-7.4L87,383.4c-4.6-2.7-4-9.6,1.1-11.4l247.1-85.3c6.1-2.1,12.8-1.5,18.4,1.8l91,52.5
			C449.3,343.7,448.6,350.6,443.5,352.4z"/>
		<polygon class="st3" points="113.2,370.1 342,292.2 434.5,345.6 212.2,424.2 		"/>
		<polygon class="st30" points="341.7,294.6 431.5,346.2 434.5,345.2 341.9,291.9 113.2,370.1 116.1,371.7 		"/>
		<path class="st23" d="M157.1,401.6c0,4.2-5,7.5-11.1,7.5c-6.1,0-11.1-3.4-11.1-7.5c0-4.2,5-7.5,11.1-7.5
			C152.1,394,157.1,397.4,157.1,401.6z"/>
		<path class="st30" d="M145.9,395.6c5.9,0,10.8,3.2,11,7.2c0.1-0.4,0.2-0.8,0.2-1.2c0-4.2-5-7.5-11.1-7.5c-6.1,0-11.1,3.4-11.1,7.5
			c0,0.1,0,0.2,0,0.3C135.8,398.3,140.4,395.6,145.9,395.6z"/>
	</g>
	<ellipse class="st31" cx="250.5" cy="370.9" rx="46.6" ry="22.2"/>
	<path class="st32" d="M278.7,379.1c-1-3.1-11.3-15-15.1-11c-0.3,0.3-1.1,1.2-1.3,1.6c-2.8,3.8-3.1,6.9-3.6,8.9
		c-0.3,1-1.5,3.5-2.2,6.1c-0.7-0.5-1.2-0.8-1.2-0.8s-28.1,29.3-49,51.2l35.7-12.4c12.5-15,24.2-29,24.2-29c-0.2-0.4-0.4-0.8-0.7-1.2
		c0.6-0.4,0.8-0.8,0.8-0.8c2.3-1.5,2.1-1.6,5.5-3.9c2.1-1.4,4.6-3.3,6.1-5.2C278.7,381.5,279.1,380.3,278.7,379.1z M239.9,377.8
		c0.8-0.7,1.8-1.5,3.1-2.7c5.2-4.3,5.3-7.2,5.3-7.2s-5.6-9.1-11-15c-5.4-5.8,1.3,4.2-2.8,7.6c-4.1,3.4-7.9,0.1-6.5,1.9
		c2.8,3.9,2,6.2,1.3,7.2c-0.4-0.2-0.6-0.3-0.6-0.3s-37.3,37.3-61.2,60.8l12.7,7.4c1.9,1.1,4,1.8,6.2,2.1
		c21.1-24.9,53.6-61.7,53.6-61.7C240.1,378,240,377.9,239.9,377.8z"/>
	<linearGradient id="SVGID_1_" gradientUnits="userSpaceOnUse" x1="247.2873" y1="370.9357" x2="247.2873" y2="37.0811">
		<stop  offset="0" style="stop-color:#7E75EA;stop-opacity:0.6"/>
		<stop  offset="1" style="stop-color:#F7F5FE;stop-opacity:0.3"/>
	</linearGradient>
	<polygon class="st33" points="203.9,370.9 96.6,37.1 398,37.1 297.1,370.9 	"/>
	<g>
		<g>
			<g>
				<g>
					<g>
						<path class="st34" d="M257.9,377.8c0.3,5.5,17.6,3.6,20.4,2c1.1-0.6,1.5-1.9,1.6-3.4c0.1-2.4-0.7-5.5-1.3-7.9
							c-1.1-3.9-1-3.8-1.7-6.5c0,0,0.2-4.3-5.5-6c-5.7-1.7-7.8,9.2-8.7,11.2c-0.9,1.9-4.3,4.5-4.7,9.2
							C257.9,376.9,257.9,377.3,257.9,377.8z"/>
					</g>
				</g>
			</g>
			<path class="st34" d="M234.6,354.7c0,0,0.5,4.8-5.6,5.3c-6.1,0.5-16.5,2.4-15.6,7.7c0.9,5.2,5.4,4.3,13.2,3.3
				c7.8-1,21.3-2,21.3-2s1.7-2.3,0.5-8.9c-1.2-6.6-0.9-7.2-0.9-7.2L234.6,354.7z"/>
			<path class="st22" d="M278.7,276.5c-0.7,4.1-0.7,84-0.7,84c-1.6,0.7-4.5,0.9-7.2,0.9c-3.8,0-7.4-0.4-7.4-0.4s-6-89-6.6-101.4
				c-0.7-12.4-2.4-34.9-5.1-34.5c-2.7,0.4-3,9.2-4.5,21.8c-1.5,12.6,0.9,108.8,0.9,108.8c-4.7,2-14.2-0.6-14.2-0.6
				s-6.5-73.4-9.3-101.8c-1.5-15.3-0.5-28.3,0.9-36.9c1.1-7.3,2.4-11.5,2.4-11.5l49.8-1.8l0.7,0c0,0.1,0.1,0.2,0.1,0.2
				C280.7,210.1,279.4,272.5,278.7,276.5z"/>
			<path class="st32" d="M278.7,276.5c-0.7,4.1-0.7,84-0.7,84c-1.6,0.7-4.5,0.9-7.2,0.9c0-1.5,0.7-2.9,1.2-4.2
				c2.8-6.8,2.7-14.3,2.7-21.6c-0.3-33.6-0.7-67.2-1-100.7c-0.1-5.3-0.8-11.8-5.7-13.9c-2.1-0.9-4.4-0.7-6.6-0.5
				c-12,0.9-24.5,0.5-35.9-3.9c1.1-7.3,2.4-11.5,2.4-11.5l49.8-1.8c0.3,0.1,0.5,0.1,0.8,0.2C280.7,210.1,279.4,272.5,278.7,276.5z"
				/>
			<path class="st35" d="M141.5,139.7L141.5,139.7C141.5,139.7,141.5,139.7,141.5,139.7c-0.1,0-0.2-0.1-0.3-0.1c0,0,0,0,0,0
				c-0.1-0.1-0.1-0.1-0.2-0.2c0,0,0,0,0,0c0-0.1-0.1-0.2-0.1-0.3c0,0,0,0,0,0c0-0.1,0-0.2,0-0.4c0-0.1,0-0.1,0-0.2
				c0,0,0-0.1,0.1-0.1c0,0,0,0,0-0.1c0,0,0,0,0,0c0.7-0.7,3.8-0.5,5.5-0.7c0.1,0,0.2,0,0.3,0c0,0,0.1,0,0.1,0c0.1,0,0.1,0,0.2,0
				c0,0,0.1,0,0.1,0c0.1,0,0.1,0,0.2,0c0,0,0.1,0,0.1,0c0,0,0.1,0,0.1,0c0,0,0.1,0,0.1,0c0,0,0.1,0,0.1,0c0,0,0.1,0,0.1,0
				c0,0,0.1,0,0.1,0c0,0,0,0,0.1,0c0,0,0.1,0,0.1,0c0,0,0,0,0.1,0c0,0,0,0,0.1,0c0,0,0,0,0.1,0c0,0,0,0,0,0c0,0,0,0,0,0c0,0,0,0,0,0
				c0,0,0,0,0,0c0,0,0,0,0,0c0,0,0,0,0,0c0,0,0,0,0,0c0,0,0,0,0,0c0,0,0,0,0,0c0,0,0,0,0,0c0,0,0,0,0,0c0,0,0,0,0,0c0,0,0,0,0,0
				c0,0,0,0,0,0c0,0,0,0,0,0c-0.2-0.2-4.3-0.5-6.1-0.5c-1.3,0-3.1,0-4-0.4c0,0,0,0,0,0c0,0,0,0,0,0c-0.1,0-0.2-0.1-0.2-0.1
				c0,0,0,0-0.1,0c-0.1,0-0.1-0.1-0.1-0.1c0,0,0,0-0.1-0.1c0,0-0.1-0.1-0.1-0.1c0,0,0,0,0-0.1c0-0.1,0-0.2,0-0.2c0-0.1,0-0.1,0-0.2
				c0,0,0,0,0-0.1c0,0,0-0.1,0.1-0.1c0,0,0,0,0,0c0,0,0,0,0.1-0.1c0,0,0,0,0,0c0,0,0,0,0,0c0,0,0,0,0,0c0,0,0,0,0,0c0,0,0,0,0.1-0.1
				c0,0,0.1,0,0.1-0.1c0.1,0,0.1-0.1,0.2-0.1c0,0,0.1,0,0.2-0.1c0,0,0.1,0,0.1,0c0,0,0.1,0,0.1,0c0.1,0,0.1,0,0.2,0c0,0,0.1,0,0.1,0
				c0.1,0,0.1,0,0.2,0c0.1,0,0.1,0,0.2,0c0.1,0,0.1,0,0.2,0c0.1,0,0.1,0,0.2,0c0.1,0,0.1,0,0.2,0c0.1,0,0.1,0,0.2,0
				c0.1,0,0.3,0,0.4,0c0.1,0,0.1,0,0.2,0c0.1,0,0.2,0,0.2,0c0.1,0,0.1,0,0.2,0c0.1,0,0.2,0,0.2,0c0.1,0,0.1,0,0.2,0
				c0.1,0,0.2,0,0.3,0c0.1,0,0.1,0,0.2,0c0.2,0,0.3,0,0.5,0c0,0,0.1,0,0.1,0c0.2,0,0.3,0,0.4,0c2.5-0.1,4.8,0.5,4.9-0.1
				c0.1-0.6-9-1.5-9.7-1.6c-0.5-0.1-1.6-0.2-2.3-0.6c0,0,0,0,0,0c0,0,0,0,0,0c-0.1,0-0.1-0.1-0.2-0.1c0,0,0,0,0,0
				c0,0-0.1-0.1-0.1-0.1c0,0,0,0,0-0.1c0,0,0-0.1-0.1-0.1c0,0,0,0,0-0.1c0-0.1,0-0.1,0-0.2c0-0.1,0-0.2,0-0.2c0,0,0,0,0-0.1
				c0,0,0-0.1,0.1-0.1c0,0,0,0,0-0.1c0,0,0.1-0.1,0.1-0.1c0,0,0,0,0,0c0.1,0,0.1-0.1,0.2-0.1c0,0,0,0,0,0c0,0,0,0,0,0
				c0.7-0.3,1.8-0.3,2.5-0.3c1,0,3.9,0.2,6.2,0.5c2.4,0.3,3.1,0.4,3.2,0.1c0,0,0,0,0,0l0,0c-0.3-0.4-5.2-1.8-7.1-2.3
				c-1.1-0.3-2.1-0.7-2.7-1.2c0,0,0,0,0,0c0,0,0-0.1-0.1-0.1c0,0-0.1-0.1-0.1-0.1c0,0-0.1-0.1-0.1-0.1c0,0,0,0,0-0.1
				c0,0,0-0.1,0-0.1c0,0,0-0.1,0-0.1c0,0,0-0.1,0-0.1c0,0,0-0.1,0-0.1c0,0,0-0.1,0-0.1c0,0,0,0,0-0.1c0,0,0-0.1,0-0.1c0,0,0,0,0-0.1
				c0-0.1,0.1-0.1,0.1-0.2c0-0.1,0.1-0.1,0.1-0.2c0,0,0,0,0.1,0c0,0,0,0,0,0c0,0,0,0,0,0c1.1-0.6,4.2,0.4,6.1,1
				c2.1,0.6,5.8,1.6,7.3,1.6c1.5,0.1,2.9,0.4,2.8-0.4c0-0.2,0-0.3,0-0.4c0-0.6-0.9-1.8-1.6-2.5c-0.8-0.7-1.1-2.3-1-3.3
				c0-0.5,0.2-0.8,0.5-0.9c0,0,0,0,0,0c0,0,0,0,0,0c0,0,0.1,0,0.1,0c0,0,0,0,0.1,0c0,0,0.1,0,0.1,0c0,0,0,0,0.1,0c0,0,0.1,0,0.1,0.1
				c0,0,0,0,0.1,0c0,0,0.1,0.1,0.1,0.1c0,0,0,0,0.1,0.1c0,0,0.1,0.1,0.1,0.1c0,0,0,0,0.1,0.1c0,0,0.1,0.1,0.1,0.2c0,0,0,0,0.1,0.1
				c0.1,0.1,0.1,0.1,0.2,0.2c0,0,0,0.1,0.1,0.1c0.1,0.1,0.1,0.2,0.2,0.3c0,0,0,0,0,0.1c0,0,0,0,0,0c0,0,0,0,0,0c1.3,2,3.8,4.2,5.5,5
				c1.7,0.8,2.8,1.2,3.2,3.1c0.1,0.6,14.5,1.3,16.6,1.3c2.1,0,0.7,8.7-1,8.6c-1.7-0.2-16.4-3-17.1-2.2c-0.8,0.8-1.6,1.2-4.6,1.6
				c-1.5,0.2-4.4,0.4-6.8,0.5c0,0-4.5,0.3-6.3,0.2C142.6,139.9,141.9,139.9,141.5,139.7z"/>
			<path class="st3" d="M203,130.8c31.8-12.8,47.4-12.6,47.4-12.6c-20.9,28.3-37.9,22.4-45.5,23.9c-7.6,1.5-41.6-3.8-41.6-3.8
				c1-2.5,1.4-6.3,0.8-8.4c0,0,13.8,0.6,18.9,0.6C188.2,130.5,203,130.8,203,130.8z"/>
			<path class="st3" d="M275.3,177.9l5.6,33.5c-8.3,5.1-17.3,7.1-26.2,7c-5.4-0.1-10.7-0.9-15.8-2.3c-1-0.3-1.9-0.5-2.9-0.8
				c-3.6-1.1-7.1-2.5-10.4-4.1l10-91l10.6-1.4l0.8-0.1l1.5-0.2l0.9-0.1l0.9-0.1l13.9-1.9l2.5,0.9l1.2,0.4l0.6,0.2l1.4,0.5l0.7,0.3
				l0.9,0.3l13.1,4.5L275.3,177.9z"/>
			<g>
				<g>
					<path class="st22" d="M234.9,77.7c0,0-3.7,2.5-2.4,9.2c1.3,6.7,3.9,7.4,3.9,7.4S240.4,79.4,234.9,77.7z"/>
				</g>
				<g>
					<path class="st35" d="M252.1,109l0.5,8.5l0.2,3.9c4.9,3.6,12.8-1.4,12.8-1.4l0.8-12.6c-2.3-1.5-8.1-0.3-11.6,0.7
						C253.3,108.6,252.1,109,252.1,109z"/>
				</g>
				<g>
					<path class="st1" d="M252.1,109l0.4,6.9c5.7-1.3,13.9-6.7,13.9-6.7l-11.5-1.1C253.3,108.6,252.1,109,252.1,109z"/>
				</g>
				<g>
					<path class="st22" d="M235.7,81.1c0,0-9.1-4.3-6.5-11.8c2.7-7.5,13.6-4.1,23.5-3.7c15.8,0.6,20.8,8.8,20.4,17.4
						c-0.4,8.6-0.3,20.1-4.2,24.4c-3.9,4.3-6.5-1.8-8.6-7.1C258.3,94.9,245.9,78.5,235.7,81.1z"/>
				</g>
				<g>
					<path class="st35" d="M234.9,88.4c0,0.3,0,0.6,0,0.9c0.2,5.3,1.1,11.8,2,17.1c1,5.6,6.3,9.3,11.9,8.2
						c6.7-1.4,14.9-3.4,18.7-5.9c1.1-0.8,1.9-1.5,2-2.4c0.3-1.9,0.5-4.5,0.6-7.4c0.3-8.6-0.4-19.4-0.4-19.4c-8-10-30.5-6.1-33.9,1.2
						C235.1,82.3,234.8,85.1,234.9,88.4z"/>
				</g>
				<g>
					<path class="st22" d="M248.1,93.2c0,1.1,0.5,2,1.1,2c0.6,0,1.1-0.9,1.1-2s-0.5-2-1.1-2C248.6,91.2,248.1,92.1,248.1,93.2z"/>
				</g>
				<g>
					<path class="st22" d="M236.7,93.2c0,1.1,0.5,2,1.1,2s1.1-0.9,1.1-2s-0.5-2-1.1-2S236.7,92.1,236.7,93.2z"/>
				</g>
				<g>
					<path class="st22" d="M254.1,90.4c0,0-1.1-2.2-3.1-2.8c-1.9-0.5-3.3,0-4,0.4c-0.3,0.2-0.4,0.5-0.3,0.8l0,0
						c0.1,0.4,0.6,0.6,0.9,0.4C248.8,88.7,251.3,88,254.1,90.4z"/>
				</g>
				<g>
					<path class="st22" d="M234.9,88.4c0,0.3,0,0.6,0,0.9c2.1-1,3.9-0.5,4.8-0.1c0.1,0,0.2,0.1,0.3,0.1c0.3,0,0.5-0.2,0.6-0.4
						c0.1-0.3,0-0.7-0.3-0.8c-0.7-0.4-2-0.9-4-0.4C235.8,87.8,235.3,88.1,234.9,88.4z"/>
				</g>
				<g>
					<path class="st22" d="M267.5,108.6c1.1-0.8,2-1.7,2.2-2.5c0.3-1.9,1.1-11,1.1-13.9l-6.6,0.5
						C264.1,92.8,264.1,107.2,267.5,108.6z"/>
				</g>
				<path class="st22" d="M235.7,81.1c0,0,10.5,2.5,18.2-1.4c0,0,4.8,17.2,16.1,14.4c0,0,10.1-25.2-19.3-25.4
					C226.2,68.5,235.7,81.1,235.7,81.1z"/>
				<g class="st1">
					<path d="M243.5,104.5c-0.5,0-1,0-1.5-0.2c-0.6-0.3-1.3-0.9-1.2-1.7c0-0.6,0.4-1,0.7-1.3c0.2-0.2,0.5-0.4,0.7-0.5
						c0.1-0.1,0.3-0.2,0.4-0.3c1.2-0.9,1.9-2.4,1.9-3.9c0-0.1,0.1-0.2,0.2-0.2c0.1,0,0.2,0.1,0.2,0.2c0,1.6-0.8,3.3-2,4.3
						c-0.1,0.1-0.3,0.2-0.4,0.3c-0.2,0.2-0.5,0.3-0.6,0.5c-0.2,0.2-0.6,0.6-0.6,1c0,0.6,0.5,1.1,1,1.3c0.6,0.2,1.3,0.2,1.9,0.2
						c0.1,0,0.2,0.1,0.2,0.2c0,0.1-0.1,0.2-0.2,0.2C243.8,104.5,243.6,104.5,243.5,104.5z"/>
				</g>
				<g>
					<path class="st36" d="M230.7,88.6l0.1,9.7c0,0.9,0.7,1.4,1.6,1.4c8.4-2.9,16.8-2.3,25.2,0.4c0.9,0,1.7-0.7,1.7-1.6l0-10
						c0-0.9-0.7-1.6-1.6-1.6c-8.8-0.5-17.3-0.5-25.4,0C231.5,87,230.7,87.7,230.7,88.6z"/>
					<path class="st36" d="M256.7,86.8c0,0,2.7-0.1,2.7,1.6l-3.3,0.7L256.7,86.8z"/>
					<path class="st36" d="M256.5,100.4c0,0,3,0.3,2.9-1.9C259.2,96.3,256.5,100.4,256.5,100.4z"/>
					<path class="st37" d="M229.5,88.4l0.1,10.1c0,0.3,0.1,0.5,0.2,0.7c0.3,0.7,1.2,1,1.9,0.8c8.2-2.6,16.5-2.4,24.8,0.4
						c0.9,0,1.7-0.7,1.7-1.6l0-10.3c0-0.9-0.7-1.6-1.6-1.6c-8.8-0.5-17.3-0.6-25.4,0C230.3,86.8,229.5,87.5,229.5,88.4z"/>
				</g>
				<path class="st38" d="M235.3,82.3c0,0,13.8,3.4,18.6-2.6c-5.2,2.4-11.3,2.8-18.2,1.4L235.3,82.3z"/>
				<path class="st37" d="M267.1,90.8l-8.5,3.4l-0.1-1.8c0,0,3.7-2,4.6-1.8C263,90.6,267.5,89.6,267.1,90.8z"/>
				<path class="st37" d="M261.5,90.9l11.5-4c0,0-0.1,1.6-0.1,2c0,0.4-11.3,3.4-11.3,3.4L261.5,90.9z"/>
				<path class="st35" d="M268.4,93.7c0,2-1.6,3.6-3.6,3.6s-3.6-1.6-3.6-3.6c0-2,1.6-3.6,3.6-3.6S268.4,91.8,268.4,93.7z"/>
				<path class="st1" d="M266.4,93.9c0,0.9-0.7,1.7-1.6,1.7s-1.6-0.8-1.6-1.7c0-0.9,0.7-1.7,1.6-1.7S266.4,92.9,266.4,93.9z"/>
				<path class="st22" d="M231,89.1l0.1,8.2c0,0.7,0.6,1.3,1.4,1.3c7.5-2.6,14.9-2.3,22.3,0.2c0.8,0,1.5-0.6,1.5-1.3l0-8.4
					c0-0.7-0.6-1.3-1.5-1.3c-7.8-0.4-15.3-0.4-22.5,0C231.6,87.8,231,88.4,231,89.1z"/>
			</g>
			<path class="st35" d="M277.8,236.5C277.8,236.5,277.8,236.5,277.8,236.5L277.8,236.5c-0.1,0.1-0.1,0.1-0.2,0.2c0,0,0,0,0,0
				c-0.1,0-0.1,0.1-0.2,0.1c0,0,0,0,0,0c-0.1,0-0.2,0-0.3,0c0,0,0,0,0,0c-0.1,0-0.2,0-0.3-0.1c-0.1,0-0.1-0.1-0.2-0.1
				c0,0,0-0.1-0.1-0.1c0,0,0,0,0-0.1c0,0,0,0,0,0c-0.4-0.8,0.7-3.4,1.1-4.9c0-0.1,0-0.2,0.1-0.3c0,0,0-0.1,0-0.1c0-0.1,0-0.1,0-0.2
				c0,0,0-0.1,0-0.1c0,0,0-0.1,0-0.1c0,0,0-0.1,0-0.1c0,0,0-0.1,0-0.1c0,0,0-0.1,0-0.1c0,0,0-0.1,0-0.1c0,0,0-0.1,0-0.1
				c0,0,0-0.1,0-0.1c0,0,0,0,0-0.1c0,0,0-0.1,0-0.1c0,0,0,0,0-0.1c0,0,0,0,0-0.1c0,0,0,0,0-0.1c0,0,0,0,0,0c0,0,0,0,0,0c0,0,0,0,0,0
				c0,0,0,0,0,0c0,0,0,0,0,0c0,0,0,0,0,0c0,0,0,0,0,0c0,0,0,0,0,0c0,0,0,0,0,0c0,0,0,0,0,0c0,0,0,0,0,0c0,0,0,0,0,0c0,0,0,0,0,0
				c0,0,0,0,0,0c0,0,0,0,0,0c-0.2,0.1-1.7,3.5-2.3,5c-0.4,1.1-0.9,2.6-1.6,3.3c0,0,0,0,0,0c0,0,0,0,0,0c-0.1,0.1-0.1,0.1-0.2,0.2
				c0,0,0,0-0.1,0c0,0-0.1,0.1-0.1,0.1c0,0,0,0-0.1,0c0,0-0.1,0-0.2,0c0,0,0,0-0.1,0c-0.1,0-0.1,0-0.2,0c-0.1,0-0.1-0.1-0.2-0.1
				c0,0,0,0,0,0c0,0-0.1-0.1-0.1-0.1c0,0,0,0,0,0c0,0,0,0,0-0.1c0,0,0,0,0,0c0,0,0,0,0,0c0,0,0,0,0,0c0,0,0,0,0,0c0,0,0,0,0-0.1
				c0,0,0-0.1,0-0.1c0-0.1,0-0.1,0-0.2c0,0,0-0.1,0-0.1c0,0,0-0.1,0-0.1c0,0,0-0.1,0-0.1c0,0,0-0.1,0-0.2c0,0,0-0.1,0-0.1
				c0-0.1,0-0.1,0-0.2c0,0,0-0.1,0-0.1c0-0.1,0-0.1,0-0.2c0-0.1,0-0.1,0-0.2c0-0.1,0-0.1,0-0.2c0-0.1,0-0.1,0-0.2
				c0-0.1,0.1-0.2,0.1-0.3c0-0.1,0-0.1,0-0.2c0-0.1,0-0.1,0.1-0.2c0-0.1,0-0.1,0.1-0.2c0-0.1,0-0.1,0.1-0.2c0-0.1,0-0.1,0.1-0.2
				c0-0.1,0.1-0.2,0.1-0.2c0,0,0-0.1,0-0.1c0-0.1,0.1-0.3,0.1-0.4c0,0,0-0.1,0-0.1c0-0.1,0.1-0.3,0.1-0.4c0.7-2.1,1.9-3.9,1.4-4.2
				s-4,7.2-4.3,7.8c-0.2,0.4-0.7,1.3-1.2,1.8c0,0,0,0,0,0c0,0,0,0,0,0c-0.1,0-0.1,0.1-0.2,0.1c0,0,0,0,0,0c0,0-0.1,0-0.1,0.1
				c0,0,0,0-0.1,0c0,0-0.1,0-0.1,0c0,0,0,0-0.1,0c-0.1,0-0.1,0-0.2,0c-0.1,0-0.1-0.1-0.2-0.1c0,0,0,0,0,0c0,0-0.1-0.1-0.1-0.1
				c0,0,0,0,0-0.1c0,0,0-0.1-0.1-0.1c0,0,0,0,0,0c0-0.1,0-0.1,0-0.2c0,0,0,0,0,0c0,0,0,0,0,0c-0.1-0.7,0.3-1.6,0.5-2.2
				c0.3-0.9,1.4-3.2,2.4-5.1s1.3-2.5,1-2.7c0,0,0,0,0,0l0,0c-0.5,0.1-3.2,3.9-4.1,5.3c-0.6,0.9-1.2,1.6-1.9,1.9c0,0,0,0,0,0
				c0,0-0.1,0-0.1,0c0,0-0.1,0-0.1,0c0,0-0.1,0-0.1,0c0,0,0,0-0.1,0c0,0-0.1,0-0.1,0c0,0,0,0-0.1,0c0,0-0.1,0-0.1,0c0,0,0,0-0.1,0
				c0,0-0.1,0-0.1,0c0,0,0,0-0.1,0c0,0-0.1,0-0.1-0.1c0,0,0,0,0,0c0,0-0.1-0.1-0.1-0.1c0,0-0.1-0.1-0.1-0.2c0,0,0,0,0-0.1
				c0,0,0,0,0-0.1c0,0,0,0,0,0c-0.2-1.1,1.7-3.5,2.7-4.9c1.1-1.6,3.1-4.4,3.6-5.7c0.5-1.3,1.2-2.3,0.5-2.5c-0.2,0-0.3-0.1-0.4-0.1
				c-0.5-0.2-1.8,0.2-2.7,0.6c-0.9,0.4-2.3,0.2-3.1-0.1c-0.4-0.2-0.6-0.4-0.6-0.7c0,0,0,0,0,0c0,0,0,0,0,0c0,0,0,0,0-0.1
				c0,0,0,0,0,0c0,0,0,0,0-0.1c0,0,0,0,0,0c0,0,0,0,0.1-0.1c0,0,0,0,0,0c0,0,0.1,0,0.1-0.1c0,0,0,0,0.1,0c0,0,0.1,0,0.1-0.1
				c0,0,0,0,0.1,0c0.1,0,0.1,0,0.2-0.1c0,0,0.1,0,0.1,0c0.1,0,0.1,0,0.2-0.1c0,0,0.1,0,0.1,0c0.1,0,0.2,0,0.3-0.1c0,0,0,0,0.1,0
				c0,0,0,0,0,0c0,0,0,0,0,0c2.1-0.5,4.7-2,5.9-3.1c1.2-1.2,1.8-2,3.6-1.8c0.6,0.1,5.5-12,6.2-13.7c0.7-1.8,7.6,2,7,3.4
				c-0.7,1.4-7.6,13-7.1,13.9c0.5,0.9,0.5,1.7-0.1,4.4c-0.3,1.3-1,3.8-1.6,5.9c0,0-1.2,3.9-1.8,5.4
				C278.3,235.6,278.1,236.1,277.8,236.5z"/>
			<g>
				<g>
					<g>
						<path class="st3" d="M281.4,192.6c-2.6,11.5-4.7,21.2-4.7,21.2c1.5,2.6,4.3,3.4,7.1,4.1c8.5-18.1,12.1-33.7,13.6-46
							c0.3-13.9-12.7-48.7-12.7-48.7c-8.9-1-11.4,11.3-11.4,11.3c6.1,20.3,12.2,38.7,12.3,39C285.2,175.5,283.6,182.8,281.4,192.6z"
							/>
					</g>
				</g>
			</g>
			<polygon class="st1" points="234.1,134.6 239.1,132.8 235.7,137.3 233,143.5 			"/>
			<path class="st1" d="M279.4,154.1c-0.3-0.3-4-3.8-4-3.8l2.4,4.3l0.5,5.7L279.4,154.1z"/>
			<path class="st35" d="M271.5,118.9c-0.5,0.8-6.1,10.4-14.3,9.9c-8.2-0.5-7-9.8-6.9-10.5l13.9-1.9l2.5,0.9l1.2,0.4l0.6,0.2
				l1.4,0.5l0.7,0.3L271.5,118.9z"/>
		</g>
		<g>
			<g>
				
					<linearGradient id="SVGID_2_" gradientUnits="userSpaceOnUse" x1="111.5003" y1="277.3978" x2="241.7858" y2="277.3978" gradientTransform="matrix(1 2.600000e-03 -2.600000e-03 1 0.6149 -127.3116)">
					<stop  offset="0" style="stop-color:#5C4DC7;stop-opacity:0.5"/>
					<stop  offset="1" style="stop-color:#FFFFFF;stop-opacity:0.5"/>
				</linearGradient>
				<path class="st39" d="M111.5,114c0,0,101.6,10.2,130.1,6.5l0,66.7c0,0-113.6-1-129.4-9.9C112.1,177.3,111.4,113.9,111.5,114z"/>
				<g>
					<path class="st40" d="M119.6,122.5c0,0,44.4,3.8,53.1,4.2l-0.4,5.5c0,0-33.1-1.6-52.8-4.6L119.6,122.5z"/>
					<path class="st40" d="M124.5,134.5c0,0,44.5,3.7,53.1,3.9l-0.4,5.4c0,0-29.8-0.7-52.8-4.2L124.5,134.5z"/>
					<path class="st40" d="M117.5,143.8c0,0,44.5,3.8,53.1,4.1l-0.4,5.4c0,0-29.8-0.8-52.8-4.4L117.5,143.8z"/>
					<path class="st40" d="M126.6,154.6c0,0,44.6,3.5,53.1,3.7l-0.4,5.4c0,0-29.8-0.6-52.9-4L126.6,154.6z"/>
					<path class="st4" d="M116.9,163.6c0,0,42.1,5.6,53.1,4.9l-0.3,10.6c0,0-23.2,0.1-52.9-5.5L116.9,163.6z"/>
					<g>
						<g>
							<path class="st41" d="M152,174.1c0-0.5,0.4-0.9,0.9-0.9c-0.4-0.1-0.7-0.5-0.6-1c0-0.6,0.5-1,1.4-1c0.6,0,1.1,0.1,1.7,0.1
								c-0.1,1.3-0.1,2.7-0.2,4c-0.6,0-1.2-0.1-1.8-0.1C152.4,175.2,151.9,174.8,152,174.1z M153,172.4c0,0.3,0.2,0.5,0.6,0.5
								c0.3,0,0.5,0,0.8,0c0-0.3,0-0.7,0-1c-0.2,0-0.5,0-0.7,0C153.3,171.9,153,172.1,153,172.4z M152.8,174.1
								c0,0.3,0.2,0.5,0.6,0.6c0.3,0,0.6,0,0.8,0c0-0.4,0-0.7,0.1-1.1c-0.3,0-0.5,0-0.8,0C153.1,173.5,152.8,173.7,152.8,174.1z"/>
							<path class="st41" d="M151.3,173.6c-0.1,1.1-0.8,1.5-1.8,1.5c-0.9-0.1-1.6-0.6-1.6-1.7c0.1-0.8,0.1-1.7,0.2-2.5
								c0.3,0,0.5,0,0.8,0.1c-0.1,0.8-0.1,1.7-0.2,2.5c0,0.6,0.2,0.9,0.8,0.9c0.5,0,0.9-0.2,0.9-0.8c0.1-0.8,0.1-1.7,0.2-2.5
								c0.3,0,0.5,0,0.8,0C151.5,172,151.4,172.8,151.3,173.6z"/>
							<path class="st41" d="M146.2,173.4c0,0.5-0.1,0.9-0.1,1.4c-0.3,0-0.6,0-0.8-0.1c0-0.5,0.1-0.9,0.1-1.4
								c-0.4-0.9-0.8-1.8-1.1-2.7c0.3,0,0.6,0.1,0.9,0.1c0.2,0.6,0.5,1.3,0.7,1.9c0.3-0.6,0.7-1.2,1-1.8c0.3,0,0.6,0,0.9,0.1
								C147.2,171.7,146.7,172.6,146.2,173.4z"/>
							<path class="st41" d="M139.7,170.1c-0.1,0.9-0.2,1.8-0.3,2.7c0.7-0.8,1.4-1.7,2.2-2.5c0.3,0,0.5,0.1,0.8,0.1
								c-0.1,1.3-0.3,2.7-0.4,4c-0.3,0-0.5-0.1-0.8-0.1c0.1-0.9,0.2-1.8,0.3-2.7c-0.7,0.8-1.4,1.7-2.2,2.5c-0.3,0-0.5-0.1-0.8-0.1
								c0.2-1.3,0.3-2.7,0.5-4C139.2,170.1,139.5,170.1,139.7,170.1z"/>
							<path class="st41" d="M133.9,171.4c0.2-1.2,1.2-1.9,2.3-1.8c1.1,0.1,2,1.1,1.8,2.3c-0.1,1.2-1.2,1.9-2.4,1.8
								C134.6,173.6,133.8,172.6,133.9,171.4z M137.3,171.8c0.1-0.8-0.3-1.4-1.1-1.5c-0.7-0.1-1.3,0.3-1.4,1.2
								c-0.1,0.8,0.3,1.4,1.1,1.5C136.6,173.1,137.2,172.7,137.3,171.8z"/>
							<path class="st41" d="M132.2,173.2c-0.3,0-0.6-0.1-1-0.1c-0.1-1-0.2-2-0.3-3c-0.4,0.9-0.8,1.8-1.2,2.7
								c-0.3-0.1-0.6-0.1-1-0.2c-0.2-1.4-0.3-2.8-0.4-4.2c0.3,0,0.6,0.1,0.9,0.1c0.1,1.1,0.1,2.1,0.2,3.2c0.4-1,0.9-2,1.3-2.9
								c0.3,0,0.6,0.1,0.9,0.1c0.1,1.1,0.2,2.1,0.3,3.2c0.4-1,0.8-2,1.2-3c0.3,0,0.6,0.1,0.9,0.1
								C133.4,170.7,132.8,171.9,132.2,173.2z"/>
						</g>
					</g>
					<path class="st42" d="M195.3,127.4c0,0,23.4,1.4,36.8,0.5l-0.4,53.2c0,0-11.2-0.2-37.9-1.1C193.8,180,195.3,128.3,195.3,127.4z
						"/>
				</g>
			</g>
			<g>
				
					<linearGradient id="SVGID_3_" gradientUnits="userSpaceOnUse" x1="244.8689" y1="270.4918" x2="333.3219" y2="270.4918" gradientTransform="matrix(1 2.600000e-03 -2.600000e-03 1 0.6149 -127.3116)">
					<stop  offset="0" style="stop-color:#FFFFFF;stop-opacity:0.5"/>
					<stop  offset="1" style="stop-color:#5C4DC7;stop-opacity:0.5"/>
				</linearGradient>
				<path class="st43" d="M244.8,120.4c0,0,51-3.8,85.5-19.7c0,0,0.3,6.5,0.3,10.4l2.5,48.7c0,0-18.8,24.5-87.8,27.4L244.8,120.4z"
					/>
				<g>
					<path class="st40" d="M249.8,129.6c0,0,22.3-1.6,39.2-6l0.7,6.9c0,0-32.4,6-39.5,5.6L249.8,129.6z"/>
					<path class="st40" d="M250.8,140.5c0,0,22.3-1.6,39.2-6l0.7,6.9c0,0-32.4,6-39.5,5.6L250.8,140.5z"/>
					<path class="st40" d="M252.2,151.6c0,0,16.7-1.1,35.4-5.3l0.8,7.1c0,0-28.7,5.1-35.8,4.7L252.2,151.6z"/>
					<path class="st40" d="M253.3,163.1c0,0,29.1-3.3,45.9-7.7l1.1,6.5c0,0-39.5,8.1-46.7,7.6L253.3,163.1z"/>
					<path class="st40" d="M299.7,121.9c0,0,19.8-4.5,26.8-8.2l2.2,27.5c0,0-9.6,7.5-25.9,9.8L299.7,121.9z"/>
				</g>
			</g>
		</g>
	</g>
	<g>
		<g>
			<path class="st44" d="M357.7,236.4l10.9-7.4c0,0,2.5-1.4,7.3,1.5c4.8,2.9,61.5,33.1,61.5,33.1s6.7,2.6,7,12.4
				c0.2,7.2,0.7,29,0.9,40.1c0.1,3.7-2.8,6.8-6.5,7.1l-7.2,0.5L357.7,236.4z"/>
			<path class="st3" d="M398.1,320.2L382,297.5L359.5,286c-2.2-1.1-3.6-3.4-3.7-5.9l-0.5-38.5c-0.1-5.1,5.4-8.5,9.9-6l65.6,35.1
				c2.1,1.1,3.5,3.3,3.6,5.7l1.5,42.9c0.1,3.3-3.3,5.5-6.2,4L413,315L398.1,320.2z"/>
		</g>
		<g>
			<g class="st45">
				<defs>
					<polygon id="SVGID_9_" class="st45" points="378.7,290.4 379.7,251.3 407.5,263.8 406.5,302.9 					"/>
				</defs>
				<clipPath id="SVGID_4_">
					<use xlink:href="#SVGID_9_"  style="overflow:visible;"/>
				</clipPath>
				<g class="st46">
					<polyline class="st29" points="393.6,257.5 389,268.5 379.3,266.2 386,279.4 384,292.8 392.8,290 401.2,300.5 399.9,285.6 
						407.1,278.7 397.5,272.4 393.6,257.5 					"/>
				</g>
			</g>
		</g>
	</g>
	<path class="st32" d="M440.6,353.4l-63.4,22.1c-10.1-4.3-17.9-7.7-17.9-7.7s-6.8-2.1-7.2-10.3c-0.3-6.1-1.1-24.3-1.5-33.6
		c-0.1-3.1,2.7-5.8,6.4-6.1l7.2-0.5l0,0c0.6,0,1.2,0.1,1.8,0.3l16.8,6.7l14.9-4.7l16.4,18.8l22.7,9.3c2.2,0.9,3.7,2.8,3.8,4.9
		L440.6,353.4z"/>
	<g>
		<g>
			<polygon class="st22" points="50.3,447.6 96,475.7 96.5,453.7 50.9,425.6 			"/>
			<polygon class="st47" points="132.2,455.9 96,475.7 96.5,453.7 132.8,433.9 			"/>
		</g>
		<path class="st48" d="M50.9,425.6l45.7,28.1l-0.1,4.5l-45.7-28.1L50.9,425.6z M132.6,438.4l-36.2,19.8l0.1-4.5l36.2-19.8
			L132.6,438.4z"/>
		<g>
			<polygon class="st20" points="50.5,412.7 96.8,441.2 134.2,420.7 87.8,392.2 			"/>
			<polygon class="st28" points="134.2,420.7 96.8,441.2 96.4,457 133.8,436.5 			"/>
			<polygon class="st24" points="96.8,441.2 50.5,412.7 50.1,428.5 96.4,457 			"/>
		</g>
		<g>
			<polygon class="st49" points="109.1,462.8 123.6,454.9 123.8,446.6 109.3,454.5 			"/>
			<polygon class="st50" points="111.3,455.6 122.8,449.3 122.8,448.2 111.3,454.5 			"/>
			<polygon class="st50" points="116.3,454.9 122.7,451.4 122.7,450.6 116.3,454.1 			"/>
			<polygon class="st50" points="111.6,458.7 122.7,452.7 122.7,451.9 111.6,458 			"/>
			<polygon class="st50" points="113,459.2 122.7,454 122.7,453.2 113,458.5 			"/>
		</g>
	</g>
</g>
</svg>
