<?xml version="1.0" encoding="utf-8"?>
<svg xmlns="http://www.w3.org/2000/svg" width="44" height="74" viewBox="0 0 44 74">
  <path fill="#000000" d="M42.1,52c-0.6-0.6-1.5-0.6-2.1-0.1L23.5,67.5V3c0-0.8-0.7-1.5-1.5-1.5S20.5,2.2,20.5,3v64.6L4,52.2
	c-0.6-0.6-1.6-0.5-2.1,0.1c-0.6,0.6-0.5,1.6,0.1,2.1l19,17.7c0,0,0,0,0,0c0.1,0.1,0.3,0.2,0.4,0.3c0,0,0,0,0,0
	c0.2,0.1,0.3,0.1,0.5,0.1c0.2,0,0.3,0,0.5-0.1c0,0,0,0,0.1,0c0,0,0,0,0,0c0.2-0.1,0.3-0.2,0.4-0.3c0,0,0,0,0,0l19-18
	C42.6,53.5,42.7,52.6,42.1,52z"/>
</svg>
