<?xml version="1.0" encoding="utf-8"?>
<!-- Generator: Adobe Illustrator 16.0.0, SVG Export Plug-In . SVG Version: 6.00 Build 0)  -->
<!DOCTYPE svg PUBLIC "-//W3C//DTD SVG 1.1//EN" "http://www.w3.org/Graphics/SVG/1.1/DTD/svg11.dtd">
<svg version="1.1" id="Capa_1" xmlns="http://www.w3.org/2000/svg" xmlns:xlink="http://www.w3.org/1999/xlink" x="0px" y="0px"
	 width="100px" height="100px" viewBox="0 0 100 100" enable-background="new 0 0 100 100" xml:space="preserve">
<g>
	<g>
		<path fill="#E61F2D" d="M99.946,62.582c-0.249-5.729-1.245-12.081-2.74-18.06c-1.495-5.729-3.362-11.085-5.604-15.196
			c-8.719-15.32-18.186-12.954-29.52-9.964c-3.612,0.872-7.473,1.868-11.459,2.242h-1.246c-3.986-0.374-7.847-1.37-11.459-2.242
			c-11.334-2.865-20.801-5.356-29.52,10.089c-2.242,4.11-4.235,9.466-5.605,15.196c-1.495,5.978-2.491,12.331-2.74,18.06
			c-0.249,6.353,0.374,10.961,1.744,14.199c1.37,2.989,3.363,4.857,5.979,5.605c2.366,0.623,5.106,0.373,7.971-0.872
			c4.858-1.993,10.463-6.228,15.943-11.335C35.552,66.568,42.776,64.7,50,64.7c7.225,0,14.448,1.868,18.31,5.604
			c5.48,5.107,11.085,9.342,15.942,11.335c2.865,1.12,5.605,1.495,7.973,0.872c2.49-0.748,4.607-2.492,5.979-5.73
			C99.572,73.668,100.195,69.06,99.946,62.582z M93.968,75.038c-0.747,1.743-1.743,2.74-2.989,3.114
			c-1.37,0.373-3.113,0.124-5.107-0.623c-4.359-1.744-9.465-5.605-14.447-10.338c-4.733-4.733-13.078-7.1-21.424-7.1
			c-8.345,0-16.69,2.366-21.548,6.85c-5.106,4.734-10.213,8.719-14.448,10.339c-1.993,0.747-3.736,1.12-5.106,0.622
			c-1.246-0.373-2.242-1.369-2.99-3.113c-0.996-2.367-1.495-6.229-1.245-11.957c0.249-5.355,1.121-11.459,2.615-17.189
			c1.37-5.355,3.114-10.338,5.231-14.075c6.851-12.331,14.822-10.338,24.288-7.847c3.861,0.997,7.847,1.993,12.207,2.367
			c0.125,0,0.125,0,0.249,0h1.37c0.125,0,0.125,0,0.249,0c4.483-0.374,8.47-1.37,12.331-2.367
			c9.466-2.367,17.438-4.484,24.288,7.847c2.117,3.737,3.86,8.595,5.231,14.075c1.369,5.73,2.366,11.708,2.615,17.189
			C95.587,68.561,95.089,72.422,93.968,75.038z"/>
	</g>
</g>
<g>
	<g>
		<path fill="#E61F2D" d="M38.541,38.294c-1.246-1.121-2.74-1.993-4.484-2.117c-0.125-1.619-0.872-3.239-1.993-4.359l-0.125-0.125
			c-1.37-1.37-3.114-2.118-5.107-2.118c-1.993,0-3.861,0.872-5.106,2.118c-1.121,1.121-1.993,2.74-2.118,4.484
			c-1.744,0.125-3.238,0.872-4.484,1.993L15,38.294c-1.37,1.37-2.118,3.114-2.118,5.107c0,1.993,0.872,3.861,2.118,5.106
			c1.246,1.246,2.74,1.993,4.608,2.117c0.125,1.744,0.872,3.363,2.118,4.484c1.37,1.37,3.114,2.117,5.106,2.117
			c1.993,0,3.861-0.871,5.107-2.117c1.121-1.246,1.993-2.74,2.117-4.484c1.744-0.124,3.363-0.872,4.484-2.117
			c1.37-1.37,2.118-3.114,2.118-5.106C40.659,41.408,39.787,39.54,38.541,38.294z M35.427,45.27
			c-0.498,0.498-1.121,0.748-1.868,0.748h-1.744c-1.246,0-2.367,0.996-2.367,2.366v1.619c0,0.748-0.249,1.371-0.748,1.869
			c-0.498,0.498-1.121,0.747-1.868,0.747c-0.747,0-1.37-0.249-1.868-0.747c-0.499-0.498-0.748-1.121-0.748-1.869v-1.744
			c0-1.246-0.996-2.366-2.366-2.366h-1.744c-0.747,0-1.37-0.25-1.868-0.748c-0.374-0.374-0.747-0.997-0.747-1.744
			c0-0.748,0.249-1.37,0.747-1.868c0,0,0,0,0.125-0.125c0.498-0.374,1.121-0.623,1.744-0.623h1.744c1.245,0,2.366-0.997,2.366-2.367
			v-1.744c0-0.747,0.249-1.37,0.748-1.868c0.498-0.499,1.121-0.748,1.868-0.748c0.748,0,1.37,0.249,1.868,0.748c0,0,0,0,0.125,0.125
			c0.374,0.498,0.623,1.121,0.623,1.744v1.744c0,1.246,0.997,2.367,2.367,2.367h1.744c0.747,0,1.37,0.249,1.868,0.748
			c0.498,0.498,0.748,1.121,0.748,1.868C36.175,44.148,35.925,44.771,35.427,45.27z"/>
	</g>
</g>
<g>
	<g>
		<circle fill="#E61F2D" cx="71.673" cy="34.558" r="4.359"/>
	</g>
</g>
<g>
	<g>
		<circle fill="#E61F2D" cx="71.673" cy="52.244" r="4.359"/>
	</g>
</g>
<g>
	<g>
		<circle fill="#E61F2D" cx="62.829" cy="43.401" r="4.359"/>
	</g>
</g>
<g>
	<g>
		<circle fill="#E61F2D" cx="80.516" cy="43.401" r="4.359"/>
	</g>
</g>
</svg>
