<?xml version="1.0" encoding="utf-8"?>
<!-- Generator: Adobe Illustrator 16.0.0, SVG Export Plug-In . SVG Version: 6.00 Build 0)  -->
<!DOCTYPE svg PUBLIC "-//W3C//DTD SVG 1.1//EN" "http://www.w3.org/Graphics/SVG/1.1/DTD/svg11.dtd">
<svg version="1.1" id="Layer_1" xmlns="http://www.w3.org/2000/svg" xmlns:xlink="http://www.w3.org/1999/xlink" x="0px" y="0px"
	 width="100px" height="100px" viewBox="0 0 100 100" enable-background="new 0 0 100 100" xml:space="preserve">
<path fill="#E61F2D" d="M97.089,18.72c-0.007,0-0.013-0.001-0.019-0.001H70.508v-2.93c0-4.846-3.943-8.789-8.789-8.789H38.281
	c-4.846,0-8.789,3.943-8.789,8.789v2.93H2.93c-1.631,0-2.93,1.337-2.93,2.93v64.453c0,4.846,3.943,8.789,8.789,8.789h82.422
	c4.846,0,8.789-3.943,8.789-8.789V21.71c0-0.004,0-0.008,0-0.012C99.888,19.774,98.705,18.73,97.089,18.72z M35.352,15.789
	c0-1.615,1.314-2.93,2.93-2.93h23.438c1.615,0,2.93,1.314,2.93,2.93v2.93H35.352V15.789z M93.006,24.578l-9.099,27.293
	c-0.399,1.199-1.516,2.004-2.778,2.004h-16.48v-2.93c0-1.618-1.312-2.93-2.93-2.93H38.281c-1.618,0-2.93,1.312-2.93,2.93v2.93
	h-16.48c-1.263,0-2.379-0.805-2.778-2.004L6.995,24.578H93.006z M58.789,53.875v5.859H41.211v-5.859H58.789z M94.141,86.102
	c0,1.615-1.314,2.93-2.93,2.93H8.789c-1.615,0-2.93-1.314-2.93-2.93v-46.4l4.674,14.023c1.198,3.596,4.549,6.01,8.337,6.01h16.48
	v2.93c0,1.618,1.312,2.93,2.93,2.93h23.438c1.618,0,2.93-1.312,2.93-2.93v-2.93h16.48c3.789,0,7.139-2.414,8.338-6.01l4.674-14.023
	V86.102z"/>
</svg>
