<?xml version="1.0" encoding="utf-8"?>
<!-- Generator: Adobe Illustrator 16.0.0, SVG Export Plug-In . SVG Version: 6.00 Build 0)  -->
<!DOCTYPE svg PUBLIC "-//W3C//DTD SVG 1.1//EN" "http://www.w3.org/Graphics/SVG/1.1/DTD/svg11.dtd">
<svg version="1.1" id="Layer_1" xmlns="http://www.w3.org/2000/svg" xmlns:xlink="http://www.w3.org/1999/xlink" x="0px" y="0px"
	 width="138.34px" height="170.739px" viewBox="0 0 138.34 170.739" enable-background="new 0 0 138.34 170.739"
	 xml:space="preserve">
<g>
	
		<linearGradient id="SVGID_1_" gradientUnits="userSpaceOnUse" x1="581.1768" y1="595.1714" x2="581.1768" y2="775.7281" gradientTransform="matrix(1 0 0 1 -512 -620.2607)">
		<stop  offset="0" style="stop-color:#054F6B"/>
		<stop  offset="1" style="stop-color:#F8DB94"/>
	</linearGradient>
	<rect x="0.012" fill="url(#SVGID_1_)" width="138.329" height="170.739"/>
	<g>
		
			<linearGradient id="SVGID_2_" gradientUnits="userSpaceOnUse" x1="595.2832" y1="635.8501" x2="595.2832" y2="747.2922" gradientTransform="matrix(1 0 0 1 -512 -620.2607)">
			<stop  offset="0" style="stop-color:#054F6B"/>
			<stop  offset="1" style="stop-color:#F8DB94"/>
		</linearGradient>
		<polygon fill="url(#SVGID_2_)" points="32.441,128.4 32.441,86.809 35.546,86.809 35.546,99.54 39.81,99.54 39.81,92.467 
			42.329,92.467 42.329,105.221 49.693,105.221 49.693,83.98 59.189,83.98 59.189,98.125 65.197,98.125 65.197,78.322 
			70.779,78.322 70.779,105.221 77.257,105.221 77.257,90.687 84.262,90.687 84.262,74.57 90.501,74.57 90.501,91.456 
			95.779,91.456 95.779,82.075 98.898,82.075 98.898,108.342 108.018,108.342 108.018,70.817 119.773,70.817 119.773,89.581 
			127.212,89.581 127.212,63.312 134.124,63.312 134.124,128.4 		"/>
		
			<linearGradient id="SVGID_3_" gradientUnits="userSpaceOnUse" x1="572.4219" y1="697.853" x2="572.4219" y2="762.6617" gradientTransform="matrix(1 0 0 1 -512 -620.2607)">
			<stop  offset="0" style="stop-color:#054F6B"/>
			<stop  offset="1" style="stop-color:#F8DB94"/>
		</linearGradient>
		<polygon fill="url(#SVGID_3_)" points="120.843,134.4 120.843,107.684 117.152,107.684 117.152,115.861 112.086,115.861 
			112.086,111.318 109.092,111.318 109.092,119.51 100.34,119.51 100.34,105.866 89.055,105.866 89.055,114.954 81.915,114.954 
			81.915,102.231 75.279,102.231 75.279,119.51 67.582,119.51 67.582,110.174 59.256,110.174 59.256,99.82 51.842,99.82 
			51.842,110.668 45.569,110.668 45.569,104.643 41.862,104.643 41.862,121.516 31.026,121.516 31.026,97.411 17.054,97.411 
			17.054,109.463 8.214,109.463 8.214,92.59 0,92.59 0,134.4 		"/>
		
			<linearGradient id="SVGID_4_" gradientUnits="userSpaceOnUse" x1="589.9189" y1="714.6313" x2="589.9189" y2="761.5154" gradientTransform="matrix(1 0 0 1 -512 -620.2607)">
			<stop  offset="0" style="stop-color:#054F6B"/>
			<stop  offset="1" style="stop-color:#F8DB94"/>
		</linearGradient>
		<polygon fill="url(#SVGID_4_)" points="138.34,135.465 138.34,116.139 134.65,116.139 134.65,122.055 129.583,122.055 
			129.583,118.768 126.589,118.768 126.589,124.694 117.837,124.694 117.837,114.825 106.552,114.825 106.552,121.396 
			99.413,121.396 99.413,112.195 92.777,112.195 92.777,124.694 85.08,124.694 85.08,117.94 76.754,117.94 76.754,110.452 
			69.34,110.452 69.34,118.299 63.067,118.299 63.067,113.939 59.36,113.939 59.36,126.145 48.524,126.145 48.524,108.708 
			34.551,108.708 34.551,117.426 25.711,117.426 25.711,105.221 17.498,105.221 17.498,135.465 		"/>
		
			<linearGradient id="SVGID_5_" gradientUnits="userSpaceOnUse" x1="550.6133" y1="739.5229" x2="550.6133" y2="782.2071" gradientTransform="matrix(1 0 0 1 -512 -620.2607)">
			<stop  offset="0" style="stop-color:#054F6B"/>
			<stop  offset="1" style="stop-color:#F8DB94"/>
		</linearGradient>
		<polygon fill="url(#SVGID_5_)" points="2.926,133.59 2.926,116.09 10.426,109.995 10.426,121.792 16.926,121.792 16.926,91.179 
			21.176,91.179 21.176,83.09 23.006,81.258 23.006,72.089 25.676,72.089 25.676,101.495 30.848,106.667 30.848,153.277 
			41.676,153.277 41.676,103.211 44.676,97.09 44.676,88.34 47.926,85.59 47.926,70.589 49.808,70.589 49.808,85.59 52.492,88.273 
			52.492,97.84 55.626,102.59 55.626,119.829 60.176,119.829 60.176,91.179 69.971,81.383 71.926,83.59 71.926,98.09 
			74.301,100.465 74.301,153.277 73.176,156.678 13.426,156.678 		"/>
		<polygon fill="#355D65" points="85.816,91.179 85.816,109.379 83.283,115.038 83.283,153.277 85.816,153.277 87.506,153.277 
			93.783,153.277 93.783,102.495 		"/>
		<polygon fill="#355D65" points="106.922,85.79 106.922,79.372 105.122,79.372 105.122,71.695 103.238,71.695 103.238,63.312 
			100.759,63.312 100.759,71.695 98.876,71.695 98.876,79.372 97.076,79.372 97.076,85.79 96.488,85.79 96.488,155.016 
			97.076,155.016 98.876,155.016 100.759,155.016 103.238,155.016 105.122,155.016 106.922,155.016 107.509,155.016 107.509,85.79 
					"/>
		<g>
			<path fill="#0C3642" d="M121.713,50.121c0.059-0.074,0.102-0.131,0.107-0.147C121.831,49.951,121.79,50.008,121.713,50.121z"/>
			<path fill="#0C3642" d="M125.568,134.478v-8.573h0.979v-1.716h1.101v-5.681h-2.528v-2.715l-1.64-1.266v-3.281l1.856-1.938v-7.661
				l1.202-1.686V75.885l1.093-2.442c0,0,1.312-0.084,1.748-1.095c0.438-1.01-0.438-1.768-0.438-1.768l2.73-5.22l-4.916-1.431
				l-3.277,5.473l-3.488-5.81l-1.975-2.189l1.312-1.452v-3.937l0.655-1.154c0,0,0.105-0.609-0.561-1.218
				c0.793-1.234,1.932-3.001,2.282-3.522c-0.366,0.474-1.657,2.014-2.677,3.224c-0.422-0.264-1.026-0.508-1.896-0.677l1.481-5.094
				l-2.18,4.986c-0.678-0.082-1.328,0.014-1.938,0.226l-0.8-4.833v5.186c-0.779,0.415-1.479,0.989-2.063,1.582l-1.336-1.463
				l-0.687,0.316l-0.389-14.263l1.074-2.576l-1.08-1.474l0.096-1.989c0,0,1.271-1.295,0.834-2.431
				c-0.438-1.137-2.678-2.989-2.678-2.989l-0.219,0.379c-1.037-0.926-3.223-1.052-3.223-1.052s0.873,0.926,0.981,1.515
				c0.108,0.589-0.219,1.516,0,2.652c0.22,1.137,1.804,2.021,1.804,2.021v1.6l-0.873,0.21v0.589l0.437,1.137v1.431l0.892,1.229
				c-0.143,1.746-0.647,8.034-0.836,11.063c-0.078,1.257,0.012,2.832,0.156,4.341l-1.494,0.69l-2.05,9.472l2.513,1.833v2.86
				l3.062,6.398l1.311,37.383l-3.059,1.516v3.389h-2.656v5.683h0.858v1.716h0.848v8.573H0.006v36.263h138.328v-36.263H125.568
				L125.568,134.478z"/>
		</g>
	</g>
	<g>
		<g enable-background="new    ">
			<path fill="#FFFFFF" d="M32.249,157.331V147.31h1.36l5.264,7.866v-7.866h1.271v10.021h-1.36l-5.264-7.875v7.875H32.249z"/>
			<path fill="#FFFFFF" d="M42.4,157.331V147.31h7.246v1.183h-5.92v3.069h5.544v1.176h-5.544v3.41h6.152v1.185H42.4V157.331z"/>
			<path fill="#FFFFFF" d="M53.461,157.331l-2.659-10.021h1.36l1.524,6.567c0.164,0.689,0.305,1.373,0.424,2.052
				c0.255-1.07,0.406-1.688,0.451-1.853l1.907-6.768h1.6l1.436,5.072c0.36,1.258,0.62,2.438,0.779,3.547
				c0.127-0.633,0.294-1.359,0.499-2.18l1.572-6.439h1.333l-2.748,10.021h-1.278l-2.112-7.638c-0.178-0.637-0.283-1.028-0.314-1.176
				c-0.105,0.461-0.203,0.854-0.294,1.176l-2.126,7.638H53.461L53.461,157.331z"/>
			<path fill="#FFFFFF" d="M71.385,157.331v-4.246l-3.862-5.774h1.613l1.975,3.021c0.365,0.564,0.705,1.129,1.02,1.695
				c0.301-0.525,0.665-1.115,1.094-1.771l1.941-2.944h1.545l-3.999,5.774v4.246H71.385z"/>
			<path fill="#FFFFFF" d="M77.496,152.45c0-1.664,0.447-2.967,1.34-3.906c0.893-0.94,2.047-1.412,3.459-1.412
				c0.926,0,1.76,0.222,2.502,0.662c0.742,0.443,1.309,1.06,1.699,1.851c0.389,0.791,0.584,1.688,0.584,2.688
				c0,1.019-0.205,1.926-0.615,2.729c-0.41,0.801-0.99,1.408-1.742,1.821c-0.752,0.412-1.563,0.617-2.435,0.617
				c-0.942,0-1.786-0.227-2.529-0.684c-0.743-0.455-1.306-1.078-1.688-1.865C77.688,154.163,77.496,153.329,77.496,152.45z
				 M78.863,152.469c0,1.209,0.324,2.16,0.975,2.855c0.648,0.692,1.463,1.041,2.443,1.041c0.998,0,1.818-0.351,2.465-1.054
				c0.645-0.701,0.967-1.696,0.967-2.985c0-0.816-0.138-1.527-0.414-2.138c-0.275-0.606-0.679-1.08-1.209-1.414
				c-0.531-0.336-1.127-0.504-1.788-0.504c-0.938,0-1.747,0.321-2.423,0.97C79.201,149.885,78.863,150.961,78.863,152.469z"/>
			<path fill="#FFFFFF" d="M88.811,157.331V147.31h4.442c0.894,0,1.572,0.09,2.037,0.271c0.465,0.18,0.837,0.498,1.114,0.953
				c0.277,0.457,0.416,0.959,0.416,1.512c0,0.711-0.229,1.311-0.689,1.797c-0.461,0.488-1.172,0.799-2.133,0.93
				c0.352,0.17,0.617,0.336,0.8,0.5c0.388,0.355,0.755,0.799,1.101,1.332l1.744,2.729h-1.668l-1.326-2.086
				c-0.389-0.602-0.707-1.061-0.957-1.381c-0.252-0.318-0.477-0.541-0.674-0.67c-0.199-0.127-0.399-0.217-0.604-0.266
				c-0.149-0.033-0.396-0.049-0.738-0.049h-1.538v4.451h-1.326V157.331z M90.137,151.731h2.85c0.605,0,1.08-0.063,1.423-0.188
				c0.342-0.125,0.602-0.326,0.778-0.603c0.178-0.276,0.268-0.575,0.268-0.897c0-0.476-0.172-0.863-0.518-1.17
				c-0.344-0.306-0.887-0.457-1.629-0.457h-3.172V151.731z"/>
			<path fill="#FFFFFF" d="M98.846,157.331V147.31h1.325v4.969l4.978-4.969h1.797l-4.203,4.062l4.389,5.961h-1.75l-3.568-5.072
				l-1.641,1.6v3.473h-1.326V157.331z"/>
		</g>
	</g>
</g>
</svg>
