<?xml version="1.0" encoding="utf-8"?>
<!-- Generator: Adobe Illustrator 22.0.0, SVG Export Plug-In . SVG Version: 6.00 Build 0)  -->
<svg version="1.1" xmlns="http://www.w3.org/2000/svg" xmlns:xlink="http://www.w3.org/1999/xlink" x="0px" y="0px"
	 viewBox="0 0 138.3 170.7" style="enable-background:new 0 0 138.3 170.7;" xml:space="preserve">
<style type="text/css">
	.st0{fill:url(#SVGID_1_);}
	.st1{fill:url(#SVGID_2_);}
	.st2{display:none;fill:url(#SVGID_3_);}
	.st3{fill:url(#SVGID_4_);}
	.st4{fill:url(#SVGID_5_);}
	.st5{display:none;fill:url(#SVGID_6_);}
	.st6{display:none;fill:#D7572B;}
	.st7{display:none;fill:#B75332;}
	.st8{display:none;fill:#834838;}
	.st9{display:none;}
	.st10{display:inline;fill:url(#SVGID_7_);}
	.st11{display:inline;fill:#FFF097;}
	.st12{fill:#834838;}
	.st13{enable-background:new    ;}
	.st14{fill:#FFFFFF;}
	.st15{fill:#D7572B;}
	.st16{display:inline;}
	.st17{fill:#D19B75;}
	.st18{display:none;fill:#A57569;}
	.st19{fill:url(#SVGID_8_);}
	.st20{fill:url(#SVGID_9_);}
	.st21{display:none;fill:#2E2345;}
	.st22{fill:url(#SVGID_10_);}
	.st23{fill:url(#SVGID_11_);}
</style>
<g id="Layer_1">
	<g>
		
			<linearGradient id="SVGID_1_" gradientUnits="userSpaceOnUse" x1="325.165" y1="1208.1104" x2="325.165" y2="1351.7965" gradientTransform="matrix(1 0 0 1 -256 -1198.2607)">
			<stop  offset="1.350000e-02" style="stop-color:#A17A94"/>
			<stop  offset="1" style="stop-color:#F3BB39"/>
		</linearGradient>
		<rect class="st0" width="138.3" height="170.7"/>
		<g>
			
				<linearGradient id="SVGID_2_" gradientUnits="userSpaceOnUse" x1="325.1815" y1="1232.2827" x2="325.1815" y2="1306.2891" gradientTransform="matrix(1 0 0 1 -256 -1198.2607)">
				<stop  offset="1.350000e-02" style="stop-color:#A17A94"/>
				<stop  offset="1" style="stop-color:#F3BB39"/>
			</linearGradient>
			<polygon class="st1" points="138.4,71.1 134.1,71.1 134.1,80.2 128.3,80.2 128.3,75.2 124.9,75.2 124.9,84.3 114.9,84.3 
				114.9,69.1 102,69.1 102,79.2 93.8,79.2 93.8,65 86.2,65 86.2,84.3 77.4,84.3 77.4,73.9 67.8,73.9 67.8,62.3 59.4,62.3 
				59.4,74.4 52.2,74.4 52.2,67.7 47.9,67.7 47.9,86.6 35.5,86.6 35.5,59.7 19.5,59.7 19.5,73.1 9.4,73.1 9.4,54.3 0,54.3 0,105.4 
				63.9,105.4 74.7,105.4 77.4,105.4 77.4,105 138.3,105 138.3,103.6 138.4,103.6 			"/>
			
				<linearGradient id="SVGID_3_" gradientUnits="userSpaceOnUse" x1="328.502" y1="1271.1968" x2="328.502" y2="1318.5291" gradientTransform="matrix(1 0 0 1 -256 -1198.2607)">
				<stop  offset="1.350000e-02" style="stop-color:#A17A94"/>
				<stop  offset="1" style="stop-color:#F3BB39"/>
			</linearGradient>
			<polygon class="st2" points="42,107.2 42,75 50.5,75 50.5,86.6 57.7,86.6 57.7,80.2 61.9,80.2 61.9,98.2 74.3,98.2 74.3,72.4 
				90.3,72.4 90.3,85.3 100.4,85.3 100.4,67.3 109.9,67.3 109.9,116.2 35.2,116.2 35.2,107.2 			"/>
			
				<linearGradient id="SVGID_4_" gradientUnits="userSpaceOnUse" x1="368.4" y1="1283.7202" x2="368.4" y2="1350.0388" gradientTransform="matrix(1 0 0 1 -256 -1198.2607)">
				<stop  offset="0" style="stop-color:#EC7C31"/>
				<stop  offset="1" style="stop-color:#F09B36"/>
			</linearGradient>
			<polygon class="st3" points="138.5,107.9 134.3,107.9 134.3,116.6 128.5,116.6 128.5,111.8 125,111.8 125,125.3 115,125.3 
				115,105.9 102.1,105.9 102.1,115.6 93.9,115.6 93.9,102.1 86.3,102.1 86.3,164.6 138.5,164.6 			"/>
			
				<linearGradient id="SVGID_5_" gradientUnits="userSpaceOnUse" x1="293.479" y1="1297.272" x2="293.479" y2="1343.5392" gradientTransform="matrix(1 0 0 1 -256 -1198.2607)">
				<stop  offset="0" style="stop-color:#EC7C31"/>
				<stop  offset="1" style="stop-color:#F09B36"/>
			</linearGradient>
			<polygon class="st4" points="68,131.7 68,99.5 59.5,99.5 59.5,111.1 52.3,111.1 52.3,104.6 48.1,104.6 48.1,122.6 35.7,122.6 
				35.7,96.9 19.7,96.9 19.7,109.8 9.5,109.8 9.5,91.8 0.1,91.8 0.1,166.4 74.8,166.4 74.8,131.7 			"/>
			
				<linearGradient id="SVGID_6_" gradientUnits="userSpaceOnUse" x1="306.2745" y1="1287.2803" x2="306.2745" y2="1315.6726" gradientTransform="matrix(1 0 0 1 -256 -1198.2607)">
				<stop  offset="4.590000e-02" style="stop-color:#B75332"/>
				<stop  offset="0.9919" style="stop-color:#F09B36"/>
			</linearGradient>
			<path class="st5" d="M100.4,101.5v-0.3c-7.1-2.5-17-9.7-21-12.7v-5.2h-0.6v-4.5h-0.2v-2.9h-0.4v2.9h-0.2v4.5h-0.9L76.6,78h-1.2
				L74.2,72h-0.6L72.3,78h-1.2l-0.6,5.3h-0.8v-4.5h-0.2v-2.9h-0.4v2.9h-0.2v4.5h-0.7v1.4H32.1v-1.4h-0.6v-4.5h-0.2v-2.9h-0.4v2.9
				h-0.2v4.5h-0.9L29.3,78h-1.2L26.8,72h-0.6L25,78h-1.2l-0.6,5.3h-0.8v-4.5h-0.2v-2.9h-0.4v2.9h-0.2v4.5H21v5.3
				c-4,3-13.8,10.1-20.8,12.6v0.3c0.8-0.3,1.7-0.6,2.6-1v1.7c-0.9,0.3-1.8,0.5-2.6,0.7v0.3c0.8-0.2,1.7-0.4,2.6-0.7v5.1H0.2v1.6H21
				v0.3H0.2v0.2H21v7.7h11v-6.6c5.1-0.5,11.1-0.8,17.6-0.8c6.9,0,13.3,0.3,18.6,0.9h0.1v6.5h11v-7.7h20.9v-0.2H79.4V109h20.9v-1.6
				h-2.6v-5.1c0.9,0.3,1.8,0.5,2.6,0.7v-0.3c-0.8-0.2-1.7-0.4-2.6-0.7v-1.7C98.7,100.9,99.5,101.2,100.4,101.5z M93.6,98.3v2.3
				c-1.2-0.4-2.3-0.9-3.5-1.4v-3C91.2,97,92.4,97.7,93.6,98.3z M97.2,107.5h-3.3v-6.4c1.1,0.4,2.2,0.8,3.3,1.1V107.5z M93.6,107.5
				h-0.3v-6.6c0.1,0,0.2,0.1,0.3,0.1V107.5z M82.4,96.1c0.7,0.3,1.4,0.7,2.2,1.1v10.4h-2.2V96.1z M82,107.5h-1.3V95.3
				c0.4,0.2,0.9,0.4,1.3,0.6V107.5z M86.2,97.9c0.8,0.4,1.7,0.8,2.6,1.1v8.5h-2.6V97.9z M85.9,107.5h-0.9V97.3
				c0.3,0.1,0.6,0.3,0.9,0.4V107.5z M90.1,99.5c1,0.4,1.9,0.8,2.9,1.2v6.7h-2.9V99.5z M89.7,107.5h-0.6v-8.3
				c0.2,0.1,0.4,0.2,0.6,0.2V107.5z M89.7,96v3.1c-1.2-0.5-2.4-1-3.5-1.6v-3.8C87.3,94.5,88.5,95.3,89.7,96z M85.9,93.5v3.9
				c-1.2-0.6-2.4-1.1-3.5-1.7v-4.7C83.4,91.8,84.6,92.7,85.9,93.5z M82,90.8v4.8c-1-0.5-1.9-0.9-2.7-1.3v-5.4
				C80.1,89.4,81,90.1,82,90.8z M68.4,106.1v1.6H32.1v-1.6h-0.9V94.4h0.9v-7.6h36.3v7.6h0.9v11.7L68.4,106.1L68.4,106.1z M68.4,86.3
				v0.3H32.1v-0.3H68.4z M21,89v5.4c-0.8,0.4-1.6,0.8-2.5,1.3v-4.8C19.5,90.1,20.3,89.5,21,89z M19.8,107.5h-1.3V95.9
				c0.4-0.2,0.9-0.4,1.3-0.6L19.8,107.5L19.8,107.5z M7,101c0.1,0,0.2-0.1,0.3-0.1v6.6H7V101z M6.6,107.5H3.4v-5.3
				c1.1-0.3,2.2-0.7,3.2-1.1V107.5z M10.8,99.4c0.2-0.1,0.4-0.2,0.6-0.2v8.3h-0.6V99.4z M10.5,107.5H7.6v-6.7c1-0.4,1.9-0.8,2.9-1.2
				V107.5z M14.7,97.7c0.3-0.1,0.6-0.3,0.9-0.4v10.2h-0.9V97.7z M14.3,107.5h-2.6V99c0.9-0.4,1.7-0.8,2.6-1.1V107.5z M18.2,107.5H16
				V97.1c0.8-0.4,1.5-0.7,2.2-1.1V107.5z M18.2,91.1v4.7c-1.1,0.5-2.3,1.1-3.5,1.7v-3.9C15.9,92.7,17.1,91.8,18.2,91.1z M14.3,93.8
				v3.8c-1.1,0.5-2.3,1-3.5,1.6V96C12,95.3,13.2,94.5,14.3,93.8z M10.5,96.3v3c-1.2,0.5-2.3,1-3.5,1.4v-2.3
				C8.1,97.7,9.3,97,10.5,96.3z M3.1,100.3c1.1-0.5,2.3-1.1,3.5-1.8v2.3c-1.2,0.4-2.4,0.9-3.5,1.2V100.3z M20.2,107.5V95.1
				c0.5-0.2,0.9-0.4,1.3-0.7h0.5v11.7H21v1.4L20.2,107.5L20.2,107.5z M32.1,109.6v-0.3h36.3v0.3H32.1z M78.5,106.1V94.4h0.6
				c0.4,0.2,0.8,0.4,1.3,0.7v12.4h-1v-1.4L78.5,106.1L78.5,106.1z M93.9,100.8v-2.3c1.2,0.7,2.4,1.3,3.5,1.8v1.7
				C96.3,101.7,95.1,101.2,93.9,100.8z"/>
			<g>
				<polygon class="st6" points="0.2,114.9 2.5,110.7 2.5,106.9 4,106.9 4,110.3 6.8,115.1 6.8,119 11.7,119 15.1,112.7 15.1,106 
					16.6,106 16.6,112.4 19.7,118.4 24,118.4 27.1,111.8 27.1,106 28.8,106 28.8,111.2 32.7,119 37.8,123.2 37.8,167.6 0.3,167.6 
					0.3,133.9 0.2,133.9 				"/>
				<polygon class="st7" points="87.1,118.8 87.1,117.1 86.2,117.1 86.2,112.8 86.1,112.8 86.1,111.8 85.9,111.8 85.9,110.1 
					85,110.1 85,111.8 84.8,111.8 84.8,112.8 84.7,112.8 84.7,114.3 84.1,114.3 84.1,111.5 83.9,111.5 83.9,110.5 83.7,110.5 
					83.7,108.6 82.8,108.6 82.8,110.5 82.6,110.5 82.6,111.5 82.5,111.5 82.5,114.3 80.1,114.3 80.1,112.1 79.9,112.1 79.9,111.1 
					79.7,111.1 79.7,109.3 78.8,109.3 78.8,111.1 78.7,111.1 78.7,112.1 78.5,112.1 78.5,114.3 77.4,114.3 77.4,112.8 77.3,112.8 
					77.3,111.8 77.1,111.8 77.1,110.1 76.2,110.1 76.2,111.8 76,111.8 76,112.8 75.8,112.8 75.8,117.1 75.3,117.1 75.3,118.8 
					74.5,118.8 74.5,120.6 75.3,120.6 75.3,122.3 72.1,122.3 72.1,121.2 69,121.2 69,122.3 61.9,122.3 61.9,121.2 58.8,121.2 
					58.8,122.3 56.5,122.3 56.5,120.6 56.9,120.6 56.9,118.8 56.5,118.8 56.5,117.1 55.6,117.1 55.6,112.8 55.4,112.8 55.4,111.8 
					55.2,111.8 55.2,110.1 54.3,110.1 54.3,111.8 54.2,111.8 54.2,112.8 54,112.8 54,114.3 53.4,114.3 53.4,111.5 53.2,111.5 
					53.2,110.5 53.1,110.5 53.1,108.6 52.1,108.6 52.1,110.5 52,110.5 52,111.5 51.8,111.5 51.8,114.3 49.4,114.3 49.4,112.1 
					49.2,112.1 49.2,111.1 49.1,111.1 49.1,109.3 48.2,109.3 48.2,111.1 48,111.1 48,112.1 47.8,112.1 47.8,114.3 46.8,114.3 
					46.8,112.8 46.6,112.8 46.6,111.8 46.4,111.8 46.4,110.1 45.5,110.1 45.5,111.8 45.4,111.8 45.4,112.8 45.2,112.8 45.2,117.1 
					44.6,117.1 44.6,118.8 43.9,118.8 43.9,120.6 44.6,120.6 44.6,127.9 44.4,127.9 44.4,164.6 87.1,164.6 87.1,130.8 87.1,130.8 
					87.1,120.6 87.6,120.6 87.6,118.8 				"/>
				<path class="st8" d="M37.7,115v-1.6h1v-2.2c0,0-4.4-1.9-6.1-1.9c-1.5,0-6,1.9-6,1.9v2.2h0.8v1.6h-1.3v51.4h12.6V115H37.7z
					 M37.8,119.7h-3V116h3V119.7z M34,116v3.7h-3.4V116C30.6,116,34,116,34,116z M34,120.6v3.2h-3.4v-3.2H34z M34,124.7v3.2h-3.4
					v-3.2H34z M29.8,123.8h-2.6v-3.2h2.6V123.8z M29.8,124.7v3.2h-2.6v-3.2H29.8z M29.8,128.8v3.2h-2.6v-3.2H29.8z M30.6,128.8H34
					v3.2h-3.4V128.8z M34.8,128.8h3v3.2h-3V128.8z M34.8,127.9v-3.2h3v3.2H34.8z M34.8,123.8v-3.2h3v3.2H34.8z M29.8,116v3.7h-2.6
					V116C27.2,116,29.8,116,29.8,116z M27.2,165.3v-32.4h2.6v2.7h0.8v-2.7H34v2.7h0.8v-2.7h3v32.4H27.2z"/>
				<g class="st9">
					
						<linearGradient id="SVGID_7_" gradientUnits="userSpaceOnUse" x1="380.0715" y1="1298.627" x2="380.0715" y2="1364.1912" gradientTransform="matrix(1 0 0 1 -256 -1198.2607)">
						<stop  offset="0" style="stop-color:#834838"/>
						<stop  offset="0.9919" style="stop-color:#F09B36"/>
					</linearGradient>
					<polygon class="st10" points="133.2,95.4 131.2,95.4 131.2,91.9 132.6,91.9 131.2,88.7 131.2,88.6 131.2,88.6 129.2,84.1 
						128.1,84.1 128.1,78.2 129.4,78.2 129.4,76.3 128.3,76.3 124.2,63.7 124.2,48 123.9,48 123.9,63.2 119.9,76.3 118.7,76.3 
						118.7,78.2 120,78.2 120,84.1 118.9,84.1 117,88.6 116.9,88.6 116.9,88.7 115.6,91.9 116.9,91.9 116.9,95.4 114.9,95.4 
						114.9,110.5 116,110.5 116,117 116.9,117 116.9,165.5 131.2,165.5 131.2,117 132.1,117 132.1,110.5 133.2,110.5 					"/>
					<ellipse class="st11" cx="124.1" cy="103" rx="5" ry="4.9"/>
				</g>
				<rect x="0" y="133.6" class="st12" width="138.3" height="37.1"/>
				<polygon class="st8" points="112.3,115.6 112.3,113.6 111.3,113.6 111.3,108.6 111.1,108.6 111.1,107.5 110.9,107.5 
					110.9,105.4 109.8,105.4 109.8,107.5 109.7,107.5 109.7,108.6 109.5,108.6 109.5,110.3 108.8,110.3 108.8,107.1 108.6,107.1 
					108.6,105.9 108.4,105.9 108.4,103.7 107.3,103.7 107.3,105.9 107.1,105.9 107.1,107.1 106.9,107.1 106.9,110.3 104.1,110.3 
					104.1,107.8 103.9,107.8 103.9,106.7 103.7,106.7 103.7,104.6 102.7,104.6 102.7,106.7 102.5,106.7 102.5,107.8 102.3,107.8 
					102.3,110.3 101.1,110.3 101.1,108.6 100.9,108.6 100.9,107.5 100.7,107.5 100.7,105.4 99.6,105.4 99.6,107.5 99.4,107.5 
					99.4,108.6 99.2,108.6 99.2,113.6 98.6,113.6 98.6,115.6 97.7,115.6 97.7,117.6 98.6,117.6 98.6,119.6 94.9,119.6 94.9,118.4 
					91.3,118.4 91.3,119.6 83,119.6 83,118.4 79.4,118.4 79.4,119.6 76.7,119.6 76.7,117.6 77.3,117.6 77.3,115.6 76.7,115.6 
					76.7,113.6 75.7,113.6 75.7,108.6 75.5,108.6 75.5,107.5 75.3,107.5 75.3,105.4 74.3,105.4 74.3,107.5 74.1,107.5 74.1,108.6 
					73.9,108.6 73.9,110.3 73.2,110.3 73.2,107.1 73,107.1 73,105.9 72.8,105.9 72.8,103.7 71.7,103.7 71.7,105.9 71.5,105.9 
					71.5,107.1 71.3,107.1 71.3,110.3 68.5,110.3 68.5,107.8 68.3,107.8 68.3,106.7 68.2,106.7 68.2,104.6 67.1,104.6 67.1,106.7 
					66.9,106.7 66.9,107.8 66.7,107.8 66.7,110.3 65.5,110.3 65.5,108.6 65.3,108.6 65.3,107.5 65.1,107.5 65.1,105.4 64,105.4 
					64,107.5 63.9,107.5 63.9,108.6 63.7,108.6 63.7,113.6 63,113.6 63,115.6 62.1,115.6 62.1,117.6 63,117.6 63,126.1 62.7,126.1 
					62.7,164.6 112.3,164.6 112.3,129.5 112.3,129.5 112.3,117.6 112.9,117.6 112.9,115.6 				"/>
			</g>
		</g>
		<g>
			<g class="st13">
				<path class="st14" d="M39.7,153.1v-1.2l4.2,0v3.7c-0.7,0.5-1.3,0.9-2,1.2c-0.7,0.3-1.4,0.4-2.1,0.4c-1,0-1.9-0.2-2.7-0.6
					s-1.4-1-1.8-1.8c-0.4-0.8-0.6-1.7-0.6-2.7c0-1,0.2-1.9,0.6-2.7s1-1.5,1.8-1.9s1.6-0.6,2.6-0.6c0.7,0,1.4,0.1,2,0.4s1,0.6,1.4,1
					c0.3,0.4,0.6,1,0.8,1.6l-1.2,0.3c-0.2-0.5-0.3-0.9-0.6-1.2c-0.2-0.3-0.5-0.5-1-0.7c-0.4-0.2-0.9-0.3-1.4-0.3
					c-0.6,0-1.1,0.1-1.6,0.3c-0.4,0.2-0.8,0.4-1.1,0.7s-0.5,0.6-0.6,1c-0.3,0.6-0.4,1.3-0.4,2c0,0.9,0.2,1.6,0.5,2.2s0.8,1,1.3,1.3
					c0.6,0.3,1.2,0.4,1.9,0.4c0.6,0,1.1-0.1,1.7-0.3c0.5-0.2,1-0.5,1.2-0.7v-1.9L39.7,153.1L39.7,153.1z"/>
				<path class="st14" d="M45.9,157.1v-10h7.2v1.2h-5.9v3.1h5.5v1.2h-5.5v3.4h6.2v1.2L45.9,157.1L45.9,157.1z"/>
				<path class="st14" d="M55.2,157.1v-10h4.4c0.9,0,1.6,0.1,2,0.3c0.5,0.2,0.8,0.5,1.1,1c0.3,0.5,0.4,1,0.4,1.5
					c0,0.7-0.2,1.3-0.7,1.8c-0.5,0.5-1.2,0.8-2.1,0.9c0.4,0.2,0.6,0.3,0.8,0.5c0.4,0.4,0.8,0.8,1.1,1.3l1.7,2.7h-1.7l-1.3-2.1
					c-0.4-0.6-0.7-1.1-1-1.4c-0.3-0.3-0.5-0.5-0.7-0.7c-0.2-0.1-0.4-0.2-0.6-0.3c-0.2,0-0.4,0-0.7,0h-1.5v4.4L55.2,157.1L55.2,157.1
					z M56.6,151.5h2.9c0.6,0,1.1-0.1,1.4-0.2c0.3-0.1,0.6-0.3,0.8-0.6c0.2-0.3,0.3-0.6,0.3-0.9c0-0.5-0.2-0.9-0.5-1.2
					c-0.3-0.3-0.9-0.5-1.6-0.5h-3.2L56.6,151.5L56.6,151.5z"/>
				<path class="st14" d="M65.3,157.1v-10h2l2.4,7.1c0.2,0.7,0.4,1.2,0.5,1.5c0.1-0.4,0.3-0.9,0.5-1.6l2.4-7h1.8v10h-1.3v-8.4
					l-2.9,8.4h-1.2l-2.9-8.5v8.5L65.3,157.1L65.3,157.1z"/>
				<path class="st14" d="M75.9,157.1l3.8-10h1.4l4.1,10h-1.5l-1.2-3h-4.2l-1.1,3H75.9z M78.8,152.9h3.4l-1-2.8
					c-0.3-0.8-0.6-1.5-0.7-2.1c-0.1,0.6-0.3,1.3-0.5,1.9L78.8,152.9z"/>
				<path class="st14" d="M86.3,157.1v-10h1.4l5.3,7.9V147h1.3v10h-1.4l-5.3-7.9v7.9H86.3z"/>
				<path class="st14" d="M99.3,157.1v-4.2l-3.9-5.8H97l2,3c0.4,0.6,0.7,1.1,1,1.7c0.3-0.5,0.7-1.1,1.1-1.8l1.9-2.9h1.5l-4,5.8v4.2
					L99.3,157.1L99.3,157.1z"/>
			</g>
		</g>
	</g>
</g>
<g id="Layer_2">
	<g>
		<g>
			<g>
				<g>
					<g>
						<path class="st15" d="M96,93.8c0.3-0.4,0.3-1,0.1-1.5c-0.2-0.5-0.7-0.7-1.3-0.8c-0.5,0-1.1,0.2-1.4,0.6c0-0.3-0.3-0.6-0.6-0.8
							c-0.8-0.5-1.8-0.7-2.8-0.4c-0.9,0.3-1.7,1.1-1.8,2c-0.9-0.1-1.8,0.5-2.1,1.3c-0.3,0.8,0.1,1.9,0.9,2.3
							c0.5,0.3,1.1,0.3,1.6,0.3c0.3,0.7,1,1.2,1.7,1.4c0.2,0.1,0.4,0.1,0.7,0.2c1.1,0.2,2.3-0.3,2.9-1.3c0.6,0.3,1.3,0.3,1.9,0
							c0.6-0.3,1-0.9,1.1-1.6C96.9,94.9,96.5,94.2,96,93.8z"/>
					</g>
				</g>
				<g>
					<g>
						<path class="st12" d="M130.7,86.8c0.4-0.5,0.4-1.3,0.1-1.8c-0.3-0.6-0.9-0.9-1.6-1c-0.6,0-1.3,0.3-1.8,0.7
							c0-0.4-0.4-0.8-0.8-1c-1-0.6-2.3-0.9-3.5-0.5c-1.2,0.4-2.1,1.4-2.3,2.6c-1.1-0.1-2.3,0.6-2.7,1.7c-0.3,1.1,0.2,2.3,1.2,2.8
							c0.6,0.3,1.3,0.3,2,0.3c0.3,0.9,1.2,1.5,2.2,1.8c0.3,0.1,0.6,0.2,0.8,0.2c1.4,0.2,2.9-0.4,3.6-1.6c0.7,0.3,1.6,0.3,2.4,0
							c0.7-0.4,1.3-1.1,1.3-2C131.8,88.2,131.4,87.3,130.7,86.8z"/>
					</g>
				</g>
				<g>
					<g>
						<path class="st15" d="M92.9,63.8c0.5-0.7,0.5-1.6,0.1-2.3c-0.4-0.7-1.2-1.2-2-1.2c-0.8-0.1-1.7,0.3-2.3,0.9
							c-0.1-0.6-0.5-1-1-1.3c-1.3-0.8-2.9-1.1-4.4-0.7c-1.5,0.5-2.7,1.7-2.9,3.2c-1.4-0.2-2.9,0.8-3.4,2.1c-0.4,1.3,0.2,2.9,1.5,3.6
							c0.8,0.4,1.7,0.4,2.6,0.4c0.4,1.1,1.6,1.9,2.7,2.3c0.3,0.1,0.7,0.2,1.1,0.3c1.7,0.3,3.6-0.5,4.6-2c0.9,0.4,2.1,0.4,3-0.1
							c0.9-0.5,1.6-1.4,1.7-2.5C94.3,65.5,93.8,64.4,92.9,63.8z"/>
					</g>
				</g>
				<g class="st9">
					<g class="st16">
						<path class="st14" d="M149.8,77.1c0.5-0.2,0.8-0.7,0.9-1.3c0-0.5-0.2-1.1-0.7-1.4c0.3-0.3,0.3-0.8,0.1-1.2
							c-0.2-0.4-0.6-0.6-1-0.6c-0.4,0-0.9,0.2-1.2,0.5c0-0.3-0.3-0.5-0.5-0.7c-0.7-0.4-1.5-0.6-2.3-0.3c-0.7,0.2-1.4,0.9-1.5,1.7
							c-0.7-0.1-1.5,0.4-1.7,1.1c-0.2,0.7,0.1,1.5,0.7,1.8c0.4,0.2,0.9,0.2,1.3,0.2c0.2,0.6,0.8,1,1.4,1.2c0.2,0.1,0.4,0.1,0.6,0.1"
							/>
					</g>
				</g>
			</g>
			<g>
				<polygon class="st17" points="28.2,86.7 28.2,82.1 28.7,82.1 28.7,77 31.2,77 33.4,79.5 33.4,80.4 36.5,80.4 36.5,82.1 
					37.8,82.1 37.8,86.7 39,86.7 39,111.7 41.4,111.7 41.4,77.9 46.6,74.2 56,77.9 56,99.2 60.8,99.2 60.8,115.5 69.1,115.5 
					69.1,123.5 106.8,123.5 106.8,132.2 69.1,133.2 69.1,132.4 60.8,132.4 60.8,133.2 56,132.2 42.3,132.2 41.4,131.2 39,131.2 
					37.7,133.9 26.7,133.6 26.7,86.7 				"/>
				<rect x="53.3" y="70.9" class="st17" width="0.3" height="7.4"/>
				<rect x="49.7" y="72.9" class="st17" width="0.3" height="7.4"/>
				<rect x="35.3" y="78.2" class="st17" width="0.3" height="7.4"/>
				<path class="st17" d="M87.5,120.6c-0.1,0-0.2,0-0.2,0c-0.2-0.7-0.9-1.2-1.7-1.2c-0.7,0-1.3,0.4-1.6,1c-0.2-0.1-0.3-0.2-0.5-0.2
					c-0.6,0-1,0.4-1,1c0,0.2,0.1,0.5,0.2,0.7c-0.5,0.3-0.9,0.8-0.9,1.5c0,0.9,0.7,1.6,1.6,1.6c0.3,0,0.7-0.1,0.9-0.3
					c0.2,0.2,0.5,0.3,0.9,0.3c0.1,0,0.2,0,0.2,0v3c0,0.1,0.1,0.2,0.2,0.2c0.1,0,0.2-0.1,0.2-0.2v-3.1c0.2-0.1,0.3-0.2,0.5-0.3
					c0.4,0.3,0.8,0.4,1.3,0.4c1.2,0,2.2-1,2.2-2.2C89.7,121.6,88.8,120.6,87.5,120.6z"/>
				<path class="st17" d="M79.9,118.8c-0.4-2.1-2.3-3.7-4.5-3.7c-2.2,0-4.1,1.6-4.5,3.7c-1.3,0.6-2.2,1.9-2.2,3.4
					c0,2.1,1.7,3.7,3.7,3.7c0.1,0,0.2,0,0.2,0l2.4,2.1v2.7c0,0.2,0.1,0.3,0.3,0.3c0.2,0,0.3-0.1,0.3-0.3v-2.7l2.5-2.1
					c0.1,0,0.2,0,0.2,0c2.1,0,3.7-1.7,3.7-3.7C82.1,120.7,81.2,119.4,79.9,118.8z M73.4,125.8c0.2,0,0.3-0.1,0.5-0.2
					c0.3,0.3,0.7,0.6,1.2,0.6v1L73.4,125.8z M75.7,127.3v-1c0.5-0.1,0.9-0.3,1.2-0.6c0.2,0.1,0.3,0.1,0.5,0.2L75.7,127.3z"/>
				<polygon class="st15" points="136.9,125.1 136.9,123.3 137.3,123.3 137.3,122.9 136.3,122.9 136.3,107 136.9,107 137.8,105.8 
					136.3,105.8 136.3,105.5 136.3,104.6 136.3,104.5 136.3,103.5 135.4,103.5 135.4,104.5 134.5,104.5 134.5,105.1 120.1,102 
					120.1,99.5 120.1,98.9 119.6,98.9 119.6,99.5 118.9,99.5 118.9,98.9 118.5,98.9 118.5,99.5 117.8,99.5 117.8,98.9 117.3,98.9 
					117.3,99.5 117.3,102.1 102.9,105.1 102.9,104.5 102,104.5 102,103.5 101.2,103.5 101.2,104.5 101.2,104.6 101.2,105.5 
					101.2,105.8 99.6,105.8 100.5,107 101.2,107 101.2,122.9 100,122.9 100,123.3 100.5,123.3 100.5,125.2 96.3,126.6 96.3,133.6 
					101.2,133.6 101.5,133.6 136.3,133.5 138.3,133.6 138.2,125.6 				"/>
				<path class="st18" d="M3.8,121.9c-0.2,0-0.4,0-0.5,0.1c0-0.2,0-0.3,0-0.5c0-1.9-1.5-3.4-3.4-3.4c-1.9,0-3.4,1.5-3.4,3.4
					c0,1.8,1.4,3.3,3.2,3.4v2.7l-1.4-0.9c0.1-0.2,0.1-0.4,0.1-0.7c0-1-0.8-1.8-1.8-1.8c-1,0-1.8,0.8-1.8,1.8c0,1,0.8,1.8,1.8,1.8
					c0.5,0,1-0.2,1.4-0.6l1.7,1v3.2c0,0.1,0.1,0.2,0.2,0.2c0.1,0,0.2-0.1,0.2-0.2v-4.6l2-1.3c0.4,0.5,1,0.8,1.7,0.8
					c1.2,0,2.2-1,2.2-2.2C6,122.9,5,121.9,3.8,121.9z M0.1,126.2V125c0.5,0,1.1-0.2,1.5-0.5c0,0.2,0.1,0.4,0.2,0.6L0.1,126.2z"/>
				<path class="st12" d="M134.2,120.6c-0.4-2.2-2.4-3.9-4.8-3.9c-2.4,0-4.3,1.7-4.8,3.9c-1.4,0.6-2.4,2-2.4,3.6c0,2.2,1.8,4,4,4
					c0.1,0,0.2,0,0.3,0l2.6,2.2v2.9c0,0.2,0.1,0.3,0.3,0.3c0.2,0,0.3-0.1,0.3-0.3v-2.8l2.6-2.3c0.1,0,0.2,0,0.2,0c2.2,0,4-1.8,4-4
					C136.5,122.7,135.5,121.3,134.2,120.6z M127.3,128.1c0.2,0,0.3-0.1,0.5-0.2c0.3,0.3,0.8,0.6,1.3,0.7v1L127.3,128.1z
					 M129.7,129.6v-1.1c0.5-0.1,0.9-0.3,1.3-0.7c0.2,0.1,0.4,0.1,0.5,0.2L129.7,129.6z"/>
				<path class="st18" d="M-2,119.5c-0.2,0-0.4,0-0.7,0.1c0-0.2,0-0.4,0-0.6c0-2.4-1.9-4.3-4.3-4.3c-2.4,0-4.3,1.9-4.3,4.3
					c0,2.3,1.8,4.1,4,4.3v3.3l-1.8-1.1c0.1-0.3,0.2-0.6,0.2-0.9c0-1.2-1-2.2-2.2-2.2s-2.2,1-2.2,2.2c0,1.2,1,2.2,2.2,2.2
					c0.7,0,1.3-0.3,1.7-0.8l2.1,1.3v4c0,0.2,0.1,0.3,0.3,0.3c0.2,0,0.3-0.1,0.3-0.3v-5.7l2.5-1.6c0.5,0.6,1.3,1,2.1,1
					c1.5,0,2.7-1.2,2.7-2.7C0.7,120.8-0.5,119.5-2,119.5z M-6.6,124.8v-1.5c0.7,0,1.3-0.3,1.9-0.6c0,0.3,0.1,0.5,0.2,0.8L-6.6,124.8
					z"/>
				<g>
					<polygon class="st15" points="27.4,85.1 27.4,80.6 25,82.1 25,76.6 23.8,76.6 23.8,82.9 17,87.2 17,133.6 29.2,133.7 
						29.2,85.1 					"/>
					<linearGradient id="SVGID_8_" gradientUnits="userSpaceOnUse" x1="34.0224" y1="109.9896" x2="104.8339" y2="109.9896">
						<stop  offset="4.590000e-02" style="stop-color:#B75332"/>
						<stop  offset="0.9919" style="stop-color:#F09B36"/>
					</linearGradient>
					<path class="st19" d="M102.6,111.2l2.2-3.3v-1.4h-5.1v-2.9l1.6-2.2h1.3v-1H81.4v-1.9h-3c0,0,0,0,0,0c0.4-0.6,0.6-1.4,0.4-2
						c-0.1-0.1-0.1-0.3-0.1-0.4c0-0.1,0-0.3,0-0.4c0.1-0.4,0.1-0.9,0-1.3c0-0.1,0-0.2-0.1-0.2c-0.1-0.1-0.1-0.1-0.2-0.2
						c-0.2-0.2,0-0.5,0.2-0.6c0.2-0.2,0.4-0.3,0.4-0.6c0-0.2-0.2-0.4-0.1-0.6c0-0.2,0.2-0.3,0.2-0.5c0-0.2-0.2-0.4-0.4-0.6
						c0,0-0.1-0.1-0.1-0.1c-0.1-0.1-0.3,0-0.4,0.1c-0.4,0.3-0.7,0.7-0.9,1.1c-0.2,0.4-0.3,0.9-0.5,1.3c-0.1,0.3-0.3,0.6-0.6,0.7
						c-0.1,0.1-0.3,0.1-0.4,0.1c-0.3,0-0.7,0.2-0.8,0.5c-0.1,0.2-0.1,0.4-0.2,0.6c-0.1,0.1-0.2,0.2-0.4,0.2c-0.2,0.1-0.6,0-0.8,0.2
						c0,0,0,0,0,0c-0.7-1.4-2.1-2.3-3.7-2.4V92c0.6-0.1,1-0.6,1-1.2c0-0.6-0.4-1.1-1-1.2v-0.4l2.2-2.2v-1h-0.8l-1.6,1.6l-1.6-1.6
						h-0.8v1l2.2,2.2v0.4c-0.6,0.1-1,0.6-1,1.2c0,0.6,0.4,1.1,1,1.2v1.2c-1.6,0.1-3,1-3.7,2.4c0,0,0,0,0,0c-0.2-0.1-0.6-0.1-0.8-0.2
						c-0.2,0-0.3-0.1-0.4-0.2c-0.1-0.2-0.1-0.4-0.2-0.6c-0.1-0.3-0.5-0.4-0.8-0.5c-0.1,0-0.3,0-0.4-0.1c-0.3-0.1-0.4-0.4-0.6-0.7
						c-0.2-0.4-0.3-0.9-0.5-1.3c-0.2-0.4-0.5-0.8-0.9-1.1c-0.1-0.1-0.3-0.2-0.4-0.1c-0.1,0-0.1,0.1-0.1,0.1
						c-0.2,0.2-0.4,0.4-0.4,0.6c0,0.2,0.2,0.3,0.2,0.5c0,0.2-0.1,0.4-0.1,0.6c0,0.2,0.2,0.4,0.4,0.6c0.2,0.2,0.4,0.4,0.2,0.6
						c-0.1,0.1-0.1,0.1-0.2,0.2c0,0.1-0.1,0.2-0.1,0.2c-0.1,0.4,0,0.9,0,1.3c0,0.1,0,0.3,0,0.4c0,0.2-0.1,0.3-0.1,0.4
						c-0.2,0.7-0.1,1.5,0.4,2c0,0,0,0,0,0h-3v1.9H36.6v1h1.3l1.3,2.2v2.9H34v1.4l2.2,3.3h1.4v3h-1.5v1.3h1.5l0.7,1.5v4.7h-0.7v12.2
						l63.5-0.3v-11.9h-0.7V117l0.7-1.5h1.5v-1.3h-1.5v-3H102.6z M49.7,131h-3.2v-18.1h3.2V131z M56.9,131h-3.2v-18.1h3.2V131z
						 M61,97.2c0.1-0.3,0.2-0.6,0.4-0.9c0.1-0.1,0.1-0.2,0.2-0.2c0.2-0.1,0.4,0.1,0.6,0.3c0.2,0.2,0.3,0.3,0.4,0.5
						c0.1,0.2,0.1,0.4,0.1,0.5c0,0.3,0,0.7,0.1,1h-1.4c0,0,0-0.1,0-0.1c0-0.1-0.1-0.1-0.2-0.2C61,97.9,61,97.6,61,97.2z M64.1,131
						h-3.2v-18.1h3.2V131z M65.4,97.5v1h-1.6c0,0,0,0,0,0c0.1-0.3,0.1-0.6,0.2-0.9c0.1-0.2,0.2-0.4,0.3-0.6c0.2-0.5,0.1-1,0.3-1.5
						c0.2,0.1,0.4,0.3,0.6,0.4c0.2,0.1,0.3,0.2,0.5,0.1C65.5,96.5,65.4,97,65.4,97.5z M71.3,131h-3.2v-18.1h3.2V131z M76.6,97.5
						c0-0.2,0-0.4,0.1-0.5c0.1-0.2,0.3-0.4,0.4-0.5c0.2-0.2,0.4-0.3,0.6-0.3c0.1,0,0.2,0.1,0.2,0.2c0.2,0.3,0.4,0.6,0.4,0.9
						c0.1,0.3,0,0.7-0.2,0.9c-0.1,0.1-0.1,0.1-0.2,0.2c0,0,0,0.1,0,0.1h-1.4C76.6,98.2,76.6,97.8,76.6,97.5z M73.8,96
						c0.2,0,0.4,0,0.5-0.1c0.2-0.1,0.4-0.2,0.6-0.4c0.2,0.5,0.1,1,0.3,1.5c0.1,0.2,0.2,0.4,0.3,0.6c0.1,0.3,0.1,0.6,0.2,0.9
						c0,0,0,0,0,0H74v-1C74,97,73.9,96.5,73.8,96z M78.5,131h-3.2v-18.1h3.2V131z M85.8,131h-3.2v-18.1h3.2V131z M93,131h-3.2v-18.1
						H93V131z"/>
					<linearGradient id="SVGID_9_" gradientUnits="userSpaceOnUse" x1="109.4891" y1="87.4462" x2="118.7597" y2="87.4462">
						<stop  offset="0" style="stop-color:#834838"/>
						<stop  offset="0.9919" style="stop-color:#F09B36"/>
					</linearGradient>
					<path class="st20" d="M118.8,65.4c0-2.1-1.3-3.8-3.2-4.4v-1.6h0.5v-0.6H115V57h-0.6V41.8h-0.6V57h-0.6v1.8h-1.1v0.6h0.5V61
						c-1.8,0.6-3.2,2.3-3.2,4.4c0,2,1.2,3.6,3,4.3l0,1h-1v0.9h1l-0.6,61.6h4.6l-0.6-61.6h1v-0.9h-1l0-1
						C117.5,69,118.8,67.4,118.8,65.4z"/>
					<path class="st15" d="M0,133.6l0.1-50.4c0,0,1.5-5.9,9.9-7v2.3h2.1v3.8h2.3v51.4L0,133.6z"/>
					<rect x="-13.9" y="132.1" class="st21" width="166.7" height="3.2"/>
				</g>
				<g>
					<path class="st21" d="M117.6,124c0,1.2,1,2.2,2.2,2.2c0.7,0,1.3-0.3,1.7-0.8l2,1.3v4.7c0,0.1,0.1,0.3,0.3,0.3
						c0.1,0,0.3-0.1,0.3-0.3v-3.2l1.7-1.1c0.3,0.4,0.8,0.7,1.4,0.7c1,0,1.8-0.8,1.8-1.8c0-1-0.8-1.8-1.8-1.8s-1.8,0.8-1.8,1.8
						c0,0.3,0.1,0.5,0.1,0.7l-1.5,0.9v-2.7c1.8-0.1,3.3-1.6,3.3-3.5c0-1.9-1.6-3.5-3.5-3.5c-1.9,0-3.5,1.6-3.5,3.5
						c0,0.2,0,0.3,0,0.5c-0.2,0-0.3-0.1-0.5-0.1C118.6,121.7,117.6,122.7,117.6,124z M121.9,125c0.1-0.2,0.2-0.4,0.2-0.6
						c0.5,0.3,1,0.4,1.5,0.5v1.3L121.9,125z"/>
					<path class="st21" d="M-10.4,124c0,1.2,1,2.2,2.2,2.2c0.7,0,1.3-0.3,1.7-0.8l2,1.3v4.7c0,0.1,0.1,0.3,0.3,0.3s0.3-0.1,0.3-0.3
						v-3.2l1.7-1.1c0.3,0.4,0.8,0.7,1.4,0.7c1,0,1.8-0.8,1.8-1.8c0-1-0.8-1.8-1.8-1.8s-1.8,0.8-1.8,1.8c0,0.3,0.1,0.5,0.1,0.7
						l-1.5,0.9v-2.7c1.8-0.1,3.3-1.6,3.3-3.5c0-1.9-1.6-3.5-3.5-3.5s-3.5,1.6-3.5,3.5c0,0.2,0,0.3,0,0.5c-0.2,0-0.3-0.1-0.5-0.1
						C-9.4,121.7-10.4,122.7-10.4,124z M-6.2,125c0.1-0.2,0.2-0.4,0.2-0.6c0.5,0.3,1,0.4,1.5,0.5v1.3L-6.2,125z"/>
					<path class="st12" d="M33.9,120.6c-0.4-2.2-2.4-3.9-4.8-3.9c-2.4,0-4.3,1.7-4.8,3.9c-1.4,0.6-2.4,2-2.4,3.6c0,2.2,1.8,4,4,4
						c0.1,0,0.2,0,0.3,0l2.6,2.2v2.9c0,0.2,0.1,0.3,0.3,0.3c0.2,0,0.3-0.1,0.3-0.3v-2.8l2.6-2.3c0.1,0,0.2,0,0.2,0c2.2,0,4-1.8,4-4
						C36.3,122.7,35.3,121.3,33.9,120.6z M27,128.1c0.2,0,0.3-0.1,0.5-0.2c0.3,0.3,0.8,0.6,1.3,0.7v1L27,128.1z M29.4,129.6v-1.1
						c0.5-0.1,0.9-0.3,1.3-0.7c0.2,0.1,0.4,0.1,0.5,0.2L29.4,129.6z"/>
					<linearGradient id="SVGID_10_" gradientUnits="userSpaceOnUse" x1="16.7038" y1="127.6193" x2="26.9226" y2="127.6193">
						<stop  offset="4.590000e-02" style="stop-color:#B75332"/>
						<stop  offset="0.9919" style="stop-color:#F09B36"/>
					</linearGradient>
					<path class="st22" d="M24.1,123.5c-0.1,0-0.2,0-0.3,0c-0.3-0.9-1.2-1.6-2.2-1.6c-0.9,0-1.7,0.5-2.1,1.3
						c-0.2-0.1-0.4-0.2-0.7-0.2c-0.7,0-1.3,0.6-1.3,1.3c0,0.3,0.1,0.6,0.3,0.8c-0.7,0.3-1.2,1.1-1.2,1.9c0,1.2,0.9,2.1,2.1,2.1
						c0.4,0,0.9-0.1,1.2-0.4c0.3,0.2,0.7,0.4,1.1,0.4c0.1,0,0.2,0,0.3,0v3.8c0,0.1,0.1,0.2,0.2,0.2c0.1,0,0.2-0.1,0.2-0.2v-4
						c0.2-0.1,0.4-0.2,0.6-0.4c0.5,0.3,1,0.5,1.6,0.5c1.6,0,2.8-1.3,2.8-2.8S25.7,123.5,24.1,123.5z"/>
					<path class="st12" d="M18.6,124.5c-0.1,0-0.2,0-0.3,0c-0.3-0.8-1-1.4-2-1.4c-0.8,0-1.5,0.5-1.9,1.2c-0.2-0.1-0.4-0.2-0.6-0.2
						c-0.6,0-1.2,0.5-1.2,1.2c0,0.3,0.1,0.6,0.3,0.8c-0.6,0.3-1.1,1-1.1,1.7c0,1.1,0.9,1.9,1.9,1.9c0.4,0,0.8-0.1,1.1-0.3
						c0.3,0.2,0.6,0.3,1,0.3c0.1,0,0.2,0,0.3,0v3.5c0,0.1,0.1,0.2,0.2,0.2c0.1,0,0.2-0.1,0.2-0.2v-3.6c0.2-0.1,0.4-0.2,0.6-0.4
						c0.4,0.3,0.9,0.5,1.5,0.5c1.4,0,2.6-1.1,2.6-2.6C21.1,125.6,20,124.5,18.6,124.5z"/>
					<linearGradient id="SVGID_11_" gradientUnits="userSpaceOnUse" x1="125.9638" y1="128.1624" x2="135.199" y2="128.1624">
						<stop  offset="4.590000e-02" style="stop-color:#B75332"/>
						<stop  offset="0.9919" style="stop-color:#F09B36"/>
					</linearGradient>
					<path class="st23" d="M132.6,124.5c-0.1,0-0.2,0-0.3,0c-0.3-0.8-1-1.4-2-1.4c-0.8,0-1.5,0.5-1.9,1.2c-0.2-0.1-0.4-0.2-0.6-0.2
						c-0.6,0-1.2,0.5-1.2,1.2c0,0.3,0.1,0.6,0.3,0.8c-0.6,0.3-1.1,1-1.1,1.7c0,1.1,0.9,1.9,1.9,1.9c0.4,0,0.8-0.1,1.1-0.3
						c0.3,0.2,0.6,0.3,1,0.3c0.1,0,0.2,0,0.3,0v3.5c0,0.1,0.1,0.2,0.2,0.2c0.1,0,0.2-0.1,0.2-0.2v-3.6c0.2-0.1,0.4-0.2,0.6-0.4
						c0.4,0.3,0.9,0.5,1.5,0.5c1.4,0,2.6-1.1,2.6-2.6C135.2,125.6,134.1,124.5,132.6,124.5z"/>
					<path class="st12" d="M109.3,121.5c-0.2,0-0.4,0-0.7,0.1c0-0.2,0-0.4,0-0.6c0-2.4-1.9-4.3-4.3-4.3c-2.4,0-4.3,1.9-4.3,4.3
						c0,2.3,1.8,4.1,4,4.3v3.3l-1.8-1.1c0.1-0.3,0.2-0.6,0.2-0.9c0-1.2-1-2.2-2.2-2.2c-1.2,0-2.2,1-2.2,2.2c0,1.2,1,2.2,2.2,2.2
						c0.7,0,1.3-0.3,1.7-0.8l2.1,1.3v4c0,0.2,0.1,0.3,0.3,0.3c0.2,0,0.3-0.1,0.3-0.3v-5.7l2.5-1.6c0.5,0.6,1.3,1,2.1,1
						c1.5,0,2.7-1.2,2.7-2.7C112,122.8,110.8,121.5,109.3,121.5z M104.7,126.8v-1.5c0.7,0,1.3-0.3,1.9-0.6c0,0.3,0.1,0.5,0.2,0.8
						L104.7,126.8z"/>
					<path class="st21" d="M136.1,117.2c-0.1,0-0.3,0-0.4,0c-0.4-1.3-1.7-2.3-3.2-2.3c-1.3,0-2.5,0.8-3,1.9c-0.3-0.2-0.6-0.3-1-0.3
						c-1,0-1.9,0.8-1.9,1.9c0,0.5,0.2,0.9,0.5,1.2c-1,0.5-1.7,1.5-1.7,2.8c0,1.7,1.4,3.1,3.1,3.1c0.6,0,1.2-0.2,1.7-0.5
						c0.5,0.3,1,0.6,1.6,0.6c0.1,0,0.3,0,0.4,0v5.6c0,0.2,0.1,0.3,0.3,0.3s0.3-0.1,0.3-0.3v-5.7c0.3-0.1,0.6-0.3,0.9-0.6
						c0.7,0.5,1.5,0.8,2.4,0.8c2.3,0,4.1-1.8,4.1-4.1C140.2,119,138.4,117.2,136.1,117.2z"/>
				</g>
			</g>
			<g>
				<g>
					<g>
						<path class="st12" d="M65.6,76.1c0.8-0.5,2-0.4,2.8,0.4l0,0l-0.8,0.1c0.2-0.4,0.6-0.9,1.1-1.1c0.5-0.2,1.1-0.1,1.4,0.3
							c-0.4-0.3-0.9-0.1-1.1,0.1c-0.3,0.3-0.4,0.7-0.4,1.1c0,0.2-0.3,0.4-0.5,0.4c-0.2,0-0.3-0.1-0.3-0.3l0,0l0,0
							C67.4,76.5,66.5,75.9,65.6,76.1z"/>
					</g>
					<g>
						<path class="st12" d="M70.1,73.1c0.9-0.6,2.3-0.1,2.9,0.9l-0.8,0c0.2-0.3,0.5-0.7,0.9-1c0.4-0.3,0.9-0.4,1.3-0.1
							c-0.4,0.1-0.7,0.4-0.9,0.7c-0.2,0.3-0.4,0.6-0.6,0.9c-0.1,0.2-0.4,0.3-0.6,0.2c-0.1,0-0.1-0.1-0.1-0.1l0,0
							C71.8,73.9,71.1,73.4,70.1,73.1z"/>
					</g>
				</g>
				<g>
					<g>
						<path class="st12" d="M99.6,77.1c0.9-0.3,2.1,0.1,2.6,1.1l0,0l-0.8-0.1c0.3-0.4,0.8-0.7,1.3-0.8c0.5-0.1,1.1,0.2,1.3,0.6
							c-0.3-0.4-0.8-0.4-1.1-0.2c-0.3,0.2-0.5,0.5-0.7,0.9c-0.1,0.2-0.4,0.3-0.6,0.2c-0.1-0.1-0.2-0.2-0.3-0.3l0,0l0,0
							C101.3,77.8,100.5,77.1,99.6,77.1z"/>
					</g>
					<g>
						<path class="st12" d="M97.6,74.5c0.6-0.3,1.5,0,2,0.8l0,0l-0.8-0.1c0.3-0.3,0.6-0.5,1-0.6c0.4-0.1,0.8,0.2,0.9,0.5
							c-0.2-0.3-0.6-0.2-0.8-0.1c-0.2,0.2-0.3,0.4-0.4,0.7l0,0C99.5,75.9,99.2,76,99,76c-0.2-0.1-0.3-0.2-0.3-0.4l0,0
							C98.7,75.1,98.3,74.5,97.6,74.5z"/>
					</g>
					<g>
						<path class="st12" d="M95.3,80c1-0.3,2.2,0.5,2.5,1.5l-0.8-0.2c0.3-0.3,0.7-0.6,1.1-0.7c0.4-0.1,1-0.1,1.3,0.2
							c-0.4,0-0.7,0.2-1,0.4c-0.3,0.2-0.5,0.5-0.8,0.8c-0.2,0.2-0.5,0.2-0.6,0c0,0-0.1-0.1-0.1-0.1l0,0C96.7,81.1,96.2,80.5,95.3,80
							z"/>
					</g>
					<g>
						<path class="st12" d="M86.8,84.7c0.6-0.4,1.5-0.4,2.2-0.1c0.7,0.3,1.4,0.8,1.8,1.5l-1,0c0.3-0.4,0.7-1,1.3-1.3
							c0.6-0.3,1.3-0.5,1.9-0.1c-0.6,0.2-1,0.5-1.3,0.9c-0.3,0.4-0.6,0.8-0.9,1.3c-0.2,0.3-0.6,0.4-0.8,0.2c-0.1,0-0.1-0.1-0.2-0.2
							l0,0c-0.3-0.4-0.7-0.9-1.2-1.2C88,85.2,87.5,84.9,86.8,84.7z"/>
					</g>
				</g>
				<g>
					<path class="st12" d="M47.5,86.1c0.5-0.6,1.3-0.8,2.1-0.9c0.8,0,1.6,0.3,2.2,0.8l-1,0.3c0.2-0.6,0.4-1.2,0.8-1.7
						c0.4-0.5,1.1-0.9,1.7-0.8c-0.5,0.4-0.8,0.8-0.9,1.3c-0.2,0.5-0.3,1-0.4,1.5c-0.1,0.3-0.4,0.5-0.7,0.5c-0.1,0-0.2-0.1-0.2-0.1
						l0,0c-0.5-0.3-1-0.6-1.6-0.7C48.8,86.1,48.2,86,47.5,86.1z"/>
				</g>
			</g>
		</g>
		<g class="st9">
			<g>
				<g class="st16">
					<path class="st17" d="M-8.5,104.8c0.9,0,0.9-1.4,0-1.4C-9.4,103.5-9.4,104.8-8.5,104.8L-8.5,104.8z"/>
				</g>
			</g>
			<g>
				<g class="st16">
					<path class="st17" d="M-30.9,116.5c0.5,0,0.5-0.8,0-0.8C-31.4,115.7-31.4,116.5-30.9,116.5L-30.9,116.5z"/>
				</g>
			</g>
			<g>
				<g class="st16">
					<path class="st17" d="M-28,115.5c0.5,0,0.5-0.8,0-0.8C-28.5,114.7-28.5,115.5-28,115.5L-28,115.5z"/>
				</g>
			</g>
			<g>
				<g class="st16">
					<path class="st17" d="M-23,119.3c0.5,0,0.5-0.8,0-0.8C-23.6,118.5-23.6,119.3-23,119.3L-23,119.3z"/>
				</g>
			</g>
			<g>
				<g class="st16">
					<path class="st17" d="M-14.5,113.5c0.5,0,0.5-0.8,0-0.8C-15.1,112.7-15.1,113.5-14.5,113.5L-14.5,113.5z"/>
				</g>
			</g>
			<g>
				<g class="st16">
					<path class="st17" d="M-14.9,118.4c0.9,0,0.9-1.4,0-1.4C-15.7,117-15.7,118.4-14.9,118.4L-14.9,118.4z"/>
				</g>
			</g>
			<g>
				<g class="st16">
					<path class="st17" d="M-17.5,111.3c0.5,0,0.5-0.8,0-0.8C-18.1,110.5-18.1,111.3-17.5,111.3L-17.5,111.3z"/>
				</g>
			</g>
			<g>
				<g class="st16">
					<path class="st17" d="M66.9,87.2c0.9,0,0.9-1.4,0-1.4C66.1,85.8,66.1,87.2,66.9,87.2L66.9,87.2z"/>
				</g>
			</g>
			<g>
				<g class="st16">
					<path class="st17" d="M86.4,78.3c0.5,0,0.5-0.8,0-0.8C85.9,77.4,85.9,78.3,86.4,78.3L86.4,78.3z"/>
				</g>
			</g>
			<g>
				<g class="st16">
					<path class="st17" d="M79.6,78.9c0.9,0,0.9-1.4,0-1.4C78.7,77.6,78.7,78.9,79.6,78.9L79.6,78.9z"/>
				</g>
			</g>
			<g>
				<g class="st16">
					<path class="st17" d="M80.6,86c0.5,0,0.5-0.8,0-0.8C80.1,85.2,80.1,86,80.6,86L80.6,86z"/>
				</g>
			</g>
			<g>
				<g class="st16">
					<path class="st17" d="M139.7,61.1c0.5,0,0.5-0.8,0-0.8C139.2,60.3,139.2,61.1,139.7,61.1L139.7,61.1z"/>
				</g>
			</g>
			<g>
				<g class="st16">
					<path class="st17" d="M153.1,86c0.5,0,0.5-0.8,0-0.8C152.6,85.2,152.6,86,153.1,86L153.1,86z"/>
				</g>
			</g>
			<g>
				<g class="st16">
					<path class="st17" d="M101.4,92.6c0.9,0,0.9-1.4,0-1.4C100.5,91.2,100.5,92.6,101.4,92.6L101.4,92.6z"/>
				</g>
			</g>
			<g>
				<g class="st16">
					<path class="st17" d="M101.8,89.6c0.9,0,0.9-1.4,0-1.4C100.9,88.3,100.9,89.6,101.8,89.6L101.8,89.6z"/>
				</g>
			</g>
			<g>
				<g class="st16">
					<path class="st17" d="M94.8,69.7c0.9,0,0.9-1.4,0-1.4C93.9,68.3,93.9,69.7,94.8,69.7L94.8,69.7z"/>
				</g>
			</g>
			<g>
				<g class="st16">
					<path class="st17" d="M106.3,71.3c0.5,0,0.5-0.8,0-0.8C105.8,70.4,105.8,71.3,106.3,71.3L106.3,71.3z"/>
				</g>
			</g>
			<g>
				<g class="st16">
					<path class="st17" d="M122.9,76.4c0.9,0,0.9-1.4,0-1.4C122.1,75.1,122.1,76.4,122.9,76.4L122.9,76.4z"/>
				</g>
			</g>
			<g>
				<g class="st16">
					<path class="st17" d="M128.6,58c0.5,0,0.5-0.8,0-0.8C128.1,57.1,128.1,58,128.6,58L128.6,58z"/>
				</g>
			</g>
			<g>
				<g class="st16">
					<path class="st17" d="M141.2,83.1c0.5,0,0.5-0.8,0-0.8C140.7,82.3,140.7,83.1,141.2,83.1L141.2,83.1z"/>
				</g>
			</g>
			<g class="st16">
				<g>
					<path class="st17" d="M141.3,94.9c0.5,0,0.5-0.8,0-0.8C140.7,94.1,140.7,94.9,141.3,94.9L141.3,94.9z"/>
				</g>
			</g>
			<g class="st16">
				<g>
					<path class="st17" d="M78.3,84.5c0.5,0,0.5-0.8,0-0.8C77.7,83.7,77.7,84.5,78.3,84.5L78.3,84.5z"/>
				</g>
			</g>
			<g class="st16">
				<g>
					<path class="st17" d="M139.8,94c0.9,0,0.9-1.4,0-1.4C138.9,92.7,138.9,94,139.8,94L139.8,94z"/>
				</g>
			</g>
			<g class="st16">
				<g>
					<path class="st17" d="M146.3,107.2c0.5,0,0.5-0.8,0-0.8C145.8,106.4,145.8,107.2,146.3,107.2L146.3,107.2z"/>
				</g>
			</g>
			<g class="st16">
				<g>
					<path class="st17" d="M142.5,63.7c0.9,0,0.9-1.4,0-1.4C141.6,62.3,141.6,63.7,142.5,63.7L142.5,63.7z"/>
				</g>
			</g>
			<g class="st16">
				<g>
					<path class="st17" d="M-15.5,110.4c0.5,0,0.5-0.8,0-0.8C-16,109.6-16,110.4-15.5,110.4L-15.5,110.4z"/>
				</g>
			</g>
			<g class="st16">
				<g>
					<path class="st17" d="M-20.3,122.8c0.9,0,0.9-1.4,0-1.4C-21.2,121.4-21.2,122.8-20.3,122.8L-20.3,122.8z"/>
				</g>
			</g>
			<g class="st16">
				<g>
					<path class="st17" d="M131.1,67c0.9,0,0.9-1.4,0-1.4C130.3,65.6,130.3,67,131.1,67L131.1,67z"/>
				</g>
			</g>
			<g class="st16">
				<g>
					<path class="st17" d="M-6.8,107.3c0.5,0,0.5-0.8,0-0.8C-7.3,106.5-7.3,107.3-6.8,107.3L-6.8,107.3z"/>
				</g>
			</g>
			<g class="st16">
				<g>
					<path class="st17" d="M148.8,100.3c0.5,0,0.5-0.8,0-0.8C148.3,99.5,148.3,100.3,148.8,100.3L148.8,100.3z"/>
				</g>
			</g>
			<g class="st16">
				<g>
					<path class="st17" d="M147.1,86.2c0.9,0,0.9-1.4,0-1.4C146.3,84.9,146.2,86.2,147.1,86.2L147.1,86.2z"/>
				</g>
			</g>
			<g class="st16">
				<g>
					<path class="st17" d="M133.2,77.2c0.5,0,0.5-0.8,0-0.8C132.7,76.4,132.7,77.2,133.2,77.2L133.2,77.2z"/>
				</g>
			</g>
			<g class="st16">
				<g>
					<path class="st17" d="M-6.8,119.3c0.5,0,0.5-0.8,0-0.8C-7.3,118.5-7.3,119.3-6.8,119.3L-6.8,119.3z"/>
				</g>
			</g>
			<g class="st16">
				<g>
					<path class="st17" d="M-5.4,120.5c0.5,0,0.5-0.8,0-0.8C-6,119.7-6,120.5-5.4,120.5L-5.4,120.5z"/>
				</g>
			</g>
			<g class="st16">
				<g>
					<path class="st17" d="M125.7,58c0.5,0,0.5-0.8,0-0.8C125.2,57.1,125.2,58,125.7,58L125.7,58z"/>
				</g>
			</g>
			<g class="st16">
				<g>
					<path class="st17" d="M62.8,87c0.5,0,0.5-0.8,0-0.8C62.3,86.2,62.3,87,62.8,87L62.8,87z"/>
				</g>
			</g>
			<g class="st16">
				<g>
					<path class="st17" d="M105.6,94.3c0.5,0,0.5-0.8,0-0.8C105.1,93.5,105.1,94.3,105.6,94.3L105.6,94.3z"/>
				</g>
			</g>
			<g class="st16">
				<g>
					<path class="st17" d="M91.4,72.4c0.5,0,0.5-0.8,0-0.8C90.8,71.6,90.8,72.4,91.4,72.4L91.4,72.4z"/>
				</g>
			</g>
			<g class="st16">
				<g>
					<path class="st17" d="M135.1,66.1c0.5,0,0.5-0.8,0-0.8C134.6,65.3,134.6,66.1,135.1,66.1L135.1,66.1z"/>
				</g>
			</g>
			<g class="st16">
				<g>
					<path class="st17" d="M152.2,88.8c0.5,0,0.5-0.8,0-0.8C151.7,88,151.7,88.8,152.2,88.8L152.2,88.8z"/>
				</g>
			</g>
			<g class="st16">
				<g>
					<path class="st17" d="M143.7,101.2c0.5,0,0.5-0.8,0-0.8C143.1,100.4,143.1,101.2,143.7,101.2L143.7,101.2z"/>
				</g>
			</g>
			<g class="st16">
				<g>
					<path class="st17" d="M133.2,98.9c0.5,0,0.5-0.8,0-0.8C132.7,98.1,132.7,98.9,133.2,98.9L133.2,98.9z"/>
				</g>
			</g>
			<g class="st16">
				<g>
					<path class="st17" d="M135.9,78.3c0.5,0,0.5-0.8,0-0.8C135.4,77.5,135.4,78.3,135.9,78.3L135.9,78.3z"/>
				</g>
			</g>
			<g class="st16">
				<g>
					<path class="st17" d="M-20.3,107.3c0.5,0,0.5-0.8,0-0.8C-20.8,106.5-20.8,107.3-20.3,107.3L-20.3,107.3z"/>
				</g>
			</g>
			<g class="st16">
				<g>
					<path class="st17" d="M89.6,79.8c0.5,0,0.5-0.8,0-0.8C89.1,79,89.1,79.8,89.6,79.8L89.6,79.8z"/>
				</g>
			</g>
			<g class="st16">
				<g>
					<path class="st17" d="M118,94.9c0.5,0,0.5-0.8,0-0.8C117.5,94.1,117.5,94.9,118,94.9L118,94.9z"/>
				</g>
			</g>
			<g class="st16">
				<g>
					<path class="st17" d="M98.1,69.9c0.5,0,0.5-0.8,0-0.8C97.6,69,97.6,69.9,98.1,69.9L98.1,69.9z"/>
				</g>
			</g>
			<g class="st16">
				<g>
					<path class="st17" d="M122.3,73.1c0.5,0,0.5-0.8,0-0.8C121.8,72.3,121.8,73.1,122.3,73.1L122.3,73.1z"/>
				</g>
			</g>
			<g class="st16">
				<g>
					<path class="st17" d="M155.3,97.7c0.9,0,0.9-1.4,0-1.4C154.5,96.3,154.5,97.7,155.3,97.7L155.3,97.7z"/>
				</g>
			</g>
			<g class="st16">
				<g>
					<path class="st17" d="M94.8,92.7c0.5,0,0.5-0.8,0-0.8C94.2,91.9,94.2,92.7,94.8,92.7L94.8,92.7z"/>
				</g>
			</g>
			<g class="st16">
				<g>
					<path class="st17" d="M147.1,102c0.5,0,0.5-0.8,0-0.8C146.6,101.2,146.6,102,147.1,102L147.1,102z"/>
				</g>
			</g>
			<g class="st16">
				<g>
					<path class="st17" d="M104.8,66.8c0.9,0,0.9-1.4,0-1.4C103.9,65.4,103.9,66.8,104.8,66.8L104.8,66.8z"/>
				</g>
			</g>
			<g class="st16">
				<g>
					<path class="st17" d="M150.2,112.4c0.9,0,0.9-1.4,0-1.4C149.4,111.1,149.4,112.4,150.2,112.4L150.2,112.4z"/>
				</g>
			</g>
			<g class="st16">
				<g>
					<path class="st17" d="M148.8,107.2c0.5,0,0.5-0.8,0-0.8C148.3,106.4,148.3,107.2,148.8,107.2L148.8,107.2z"/>
				</g>
			</g>
		</g>
	</g>
</g>
</svg>
