<?xml version="1.0" encoding="utf-8"?>
<!-- Generator: Adobe Illustrator 16.0.0, SVG Export Plug-In . SVG Version: 6.00 Build 0)  -->
<!DOCTYPE svg PUBLIC "-//W3C//DTD SVG 1.1//EN" "http://www.w3.org/Graphics/SVG/1.1/DTD/svg11.dtd">
<svg version="1.1" id="Layer_1" xmlns="http://www.w3.org/2000/svg" xmlns:xlink="http://www.w3.org/1999/xlink" x="0px" y="0px"
	 width="138.34px" height="170.739px" viewBox="0 0 138.34 170.739" enable-background="new 0 0 138.34 170.739"
	 xml:space="preserve">
<g>
	
		<linearGradient id="SVGID_1_" gradientUnits="userSpaceOnUse" x1="324.9785" y1="-176.4365" x2="324.9785" y2="-310.1571" gradientTransform="matrix(1 0 0 -1 -256 -174.2607)">
		<stop  offset="0.0838" style="stop-color:#7CA588"/>
		<stop  offset="1" style="stop-color:#B7DA95"/>
	</linearGradient>
	<rect x="-0.263" fill="url(#SVGID_1_)" width="138.486" height="170.933"/>
	<g>
		
			<linearGradient id="SVGID_2_" gradientUnits="userSpaceOnUse" x1="307.2598" y1="-223.9751" x2="307.2598" y2="-290.7306" gradientTransform="matrix(1 0 0 -1 -256 -174.2607)">
			<stop  offset="0.0838" style="stop-color:#7CA588"/>
			<stop  offset="1" style="stop-color:#B7DA95"/>
		</linearGradient>
		<polygon fill="url(#SVGID_2_)" points="0.073,83.665 0.073,113.034 102.447,113.034 102.447,91.686 100.464,93.359 
			100.464,98.351 98.254,100.219 98.254,104.038 96.262,104.038 96.262,84.492 94.042,84.492 94.042,88.088 90.711,88.088 
			90.711,92.153 85.346,92.153 85.346,96.67 80.536,96.67 80.536,80.135 77.348,80.135 77.348,90.903 75.085,90.903 75.085,103.254 
			71.285,103.254 71.285,108.572 65.902,108.572 65.902,112.012 57.593,112.012 57.593,91.084 53.508,87.631 53.508,96.858 
			51.26,96.858 51.26,101.901 48.158,101.901 48.158,88.87 45.058,86.25 42.609,88.32 42.609,95.678 39.196,98.562 39.196,104.506 
			36.946,104.506 36.946,96.858 34.657,96.858 34.657,101.901 28.795,101.901 28.795,104.827 18.013,104.827 16.183,103.277 
			13.146,103.277 13.146,96.67 8.934,96.67 8.934,94.439 4.309,94.439 4.309,83.952 		"/>
		
			<linearGradient id="SVGID_3_" gradientUnits="userSpaceOnUse" x1="-157.7339" y1="-223.9766" x2="-157.7339" y2="-290.7281" gradientTransform="matrix(-1 0 0 -1 -88.5859 -174.2607)">
			<stop  offset="0.0838" style="stop-color:#7CA588"/>
			<stop  offset="1" style="stop-color:#B7DA95"/>
		</linearGradient>
		<polygon fill="url(#SVGID_3_)" points="138.223,76.048 138.223,113.034 0.073,113.034 0.073,86.147 2.748,88.258 2.748,94.542 
			5.731,96.895 5.731,101.704 8.419,101.704 8.419,77.09 11.415,77.09 11.415,81.619 15.909,81.619 15.909,86.738 23.149,86.738 
			23.149,92.424 29.641,92.424 29.641,71.603 33.943,71.603 33.943,85.163 36.998,85.163 36.998,100.719 42.125,100.719 
			42.125,107.415 49.388,107.415 49.388,111.747 60.601,111.747 60.601,85.394 66.113,81.044 66.113,92.663 69.148,92.663 
			69.148,99.016 73.333,99.016 73.333,82.604 77.516,79.305 80.822,81.911 80.822,91.176 85.427,94.808 85.427,102.293 
			88.463,102.293 88.463,92.663 91.553,92.663 91.553,99.016 99.462,99.016 99.462,102.696 114.014,102.696 116.484,100.747 
			120.581,100.747 120.581,92.424 126.264,92.424 126.264,89.618 132.505,89.618 132.505,76.41 		"/>
		<g>
			<g>
				<g>
					
						<linearGradient id="SVGID_4_" gradientUnits="userSpaceOnUse" x1="268.6387" y1="-261.3081" x2="268.6387" y2="-298.1011" gradientTransform="matrix(1 0 0 -1 -256 -174.2607)">
						<stop  offset="0.0027" style="stop-color:#7AA86F"/>
						<stop  offset="0.8633" style="stop-color:#B7DA95"/>
					</linearGradient>
					<polygon fill="url(#SVGID_4_)" points="14.637,95.663 10.642,95.663 11.529,74.759 13.749,74.759 					"/>
					
						<linearGradient id="SVGID_5_" gradientUnits="userSpaceOnUse" x1="268.6387" y1="-261.3018" x2="268.6387" y2="-298.0648" gradientTransform="matrix(1 0 0 -1 -256 -174.2607)">
						<stop  offset="0.0027" style="stop-color:#7AA86F"/>
						<stop  offset="0.8633" style="stop-color:#B7DA95"/>
					</linearGradient>
					<rect x="10.927" y="78.701" fill="url(#SVGID_5_)" width="3.425" height="0.841"/>
					
						<linearGradient id="SVGID_6_" gradientUnits="userSpaceOnUse" x1="268.6387" y1="-261.3091" x2="268.6387" y2="-298.1361" gradientTransform="matrix(1 0 0 -1 -256 -174.2607)">
						<stop  offset="0.0027" style="stop-color:#7AA86F"/>
						<stop  offset="0.8633" style="stop-color:#B7DA95"/>
					</linearGradient>
					<rect x="10.642" y="86.051" fill="url(#SVGID_6_)" width="3.995" height="0.843"/>
					
						<linearGradient id="SVGID_7_" gradientUnits="userSpaceOnUse" x1="268.6396" y1="-261.3159" x2="268.6396" y2="-298.0576" gradientTransform="matrix(1 0 0 -1 -256 -174.2607)">
						<stop  offset="0.0027" style="stop-color:#7AA86F"/>
						<stop  offset="0.8633" style="stop-color:#B7DA95"/>
					</linearGradient>
					<rect x="10.436" y="91.898" fill="url(#SVGID_7_)" width="4.408" height="0.841"/>
					
						<linearGradient id="SVGID_8_" gradientUnits="userSpaceOnUse" x1="268.6387" y1="-261.3066" x2="268.6387" y2="-298.0939" gradientTransform="matrix(1 0 0 -1 -256 -174.2607)">
						<stop  offset="0.0027" style="stop-color:#7AA86F"/>
						<stop  offset="0.8633" style="stop-color:#B7DA95"/>
					</linearGradient>
					<path fill="url(#SVGID_8_)" d="M12.639,72.117c0,0-1.886,1.205-1.365,2.388h1.365h1.365
						C14.525,73.322,12.639,72.117,12.639,72.117z"/>
					
						<linearGradient id="SVGID_9_" gradientUnits="userSpaceOnUse" x1="268.6387" y1="-261.3291" x2="268.6387" y2="-298.1728" gradientTransform="matrix(1 0 0 -1 -256 -174.2607)">
						<stop  offset="0.0027" style="stop-color:#7AA86F"/>
						<stop  offset="0.8633" style="stop-color:#B7DA95"/>
					</linearGradient>
					<ellipse fill="url(#SVGID_9_)" cx="12.639" cy="71.916" rx="0.092" ry="0.204"/>
					
						<linearGradient id="SVGID_10_" gradientUnits="userSpaceOnUse" x1="268.6387" y1="-261.2852" x2="268.6387" y2="-298.0217" gradientTransform="matrix(1 0 0 -1 -256 -174.2607)">
						<stop  offset="0.0027" style="stop-color:#7AA86F"/>
						<stop  offset="0.8633" style="stop-color:#B7DA95"/>
					</linearGradient>
					<ellipse fill="url(#SVGID_10_)" cx="12.639" cy="72.129" rx="0.069" ry="0.091"/>
					
						<linearGradient id="SVGID_11_" gradientUnits="userSpaceOnUse" x1="268.6387" y1="-261.3252" x2="268.6387" y2="-298.1596" gradientTransform="matrix(1 0 0 -1 -256 -174.2607)">
						<stop  offset="0.0027" style="stop-color:#7AA86F"/>
						<stop  offset="0.8633" style="stop-color:#B7DA95"/>
					</linearGradient>
					<ellipse fill="url(#SVGID_11_)" cx="12.639" cy="71.656" rx="0.069" ry="0.092"/>
					
						<linearGradient id="SVGID_12_" gradientUnits="userSpaceOnUse" x1="268.6387" y1="-261.3135" x2="268.6387" y2="-298.1226" gradientTransform="matrix(1 0 0 -1 -256 -174.2607)">
						<stop  offset="0.0027" style="stop-color:#7AA86F"/>
						<stop  offset="0.8633" style="stop-color:#B7DA95"/>
					</linearGradient>
					<rect x="10.915" y="74.487" fill="url(#SVGID_12_)" width="3.449" height="0.565"/>
				</g>
				<g>
					
						<linearGradient id="SVGID_13_" gradientUnits="userSpaceOnUse" x1="274.0225" y1="-261.3076" x2="274.0225" y2="-298.1006" gradientTransform="matrix(1 0 0 -1 -256 -174.2607)">
						<stop  offset="0.0027" style="stop-color:#7AA86F"/>
						<stop  offset="0.8633" style="stop-color:#B7DA95"/>
					</linearGradient>
					<polygon fill="url(#SVGID_13_)" points="20.021,100.084 16.025,100.084 16.913,79.181 19.132,79.181 					"/>
					
						<linearGradient id="SVGID_14_" gradientUnits="userSpaceOnUse" x1="274.0225" y1="-261.3076" x2="274.0225" y2="-298.0919" gradientTransform="matrix(1 0 0 -1 -256 -174.2607)">
						<stop  offset="0.0027" style="stop-color:#7AA86F"/>
						<stop  offset="0.8633" style="stop-color:#B7DA95"/>
					</linearGradient>
					<rect x="16.311" y="83.123" fill="url(#SVGID_14_)" width="3.424" height="0.841"/>
					
						<linearGradient id="SVGID_15_" gradientUnits="userSpaceOnUse" x1="274.0215" y1="-261.3081" x2="274.0215" y2="-298.1138" gradientTransform="matrix(1 0 0 -1 -256 -174.2607)">
						<stop  offset="0.0027" style="stop-color:#7AA86F"/>
						<stop  offset="0.8633" style="stop-color:#B7DA95"/>
					</linearGradient>
					<rect x="16.025" y="90.475" fill="url(#SVGID_15_)" width="3.995" height="0.842"/>
					
						<linearGradient id="SVGID_16_" gradientUnits="userSpaceOnUse" x1="274.0225" y1="-261.2998" x2="274.0225" y2="-298.127" gradientTransform="matrix(1 0 0 -1 -256 -174.2607)">
						<stop  offset="0.0027" style="stop-color:#7AA86F"/>
						<stop  offset="0.8633" style="stop-color:#B7DA95"/>
					</linearGradient>
					<rect x="15.819" y="96.32" fill="url(#SVGID_16_)" width="4.408" height="0.843"/>
					
						<linearGradient id="SVGID_17_" gradientUnits="userSpaceOnUse" x1="274.0225" y1="-261.3066" x2="274.0225" y2="-298.0939" gradientTransform="matrix(1 0 0 -1 -256 -174.2607)">
						<stop  offset="0.0027" style="stop-color:#7AA86F"/>
						<stop  offset="0.8633" style="stop-color:#B7DA95"/>
					</linearGradient>
					<path fill="url(#SVGID_17_)" d="M18.023,76.539c0,0-1.887,1.205-1.365,2.388h1.365h1.365
						C19.909,77.744,18.023,76.539,18.023,76.539z"/>
					
						<linearGradient id="SVGID_18_" gradientUnits="userSpaceOnUse" x1="274.0234" y1="-261.2979" x2="274.0234" y2="-298.0536" gradientTransform="matrix(1 0 0 -1 -256 -174.2607)">
						<stop  offset="0.0027" style="stop-color:#7AA86F"/>
						<stop  offset="0.8633" style="stop-color:#B7DA95"/>
					</linearGradient>
					<ellipse fill="url(#SVGID_18_)" cx="18.023" cy="76.337" rx="0.092" ry="0.204"/>
					
						<linearGradient id="SVGID_19_" gradientUnits="userSpaceOnUse" x1="274.0234" y1="-261.3203" x2="274.0234" y2="-298.1547" gradientTransform="matrix(1 0 0 -1 -256 -174.2607)">
						<stop  offset="0.0027" style="stop-color:#7AA86F"/>
						<stop  offset="0.8633" style="stop-color:#B7DA95"/>
					</linearGradient>
					<ellipse fill="url(#SVGID_19_)" cx="18.023" cy="76.551" rx="0.069" ry="0.092"/>
					
						<linearGradient id="SVGID_20_" gradientUnits="userSpaceOnUse" x1="274.0234" y1="-261.3213" x2="274.0234" y2="-298.1558" gradientTransform="matrix(1 0 0 -1 -256 -174.2607)">
						<stop  offset="0.0027" style="stop-color:#7AA86F"/>
						<stop  offset="0.8633" style="stop-color:#B7DA95"/>
					</linearGradient>
					<ellipse fill="url(#SVGID_20_)" cx="18.023" cy="76.079" rx="0.069" ry="0.092"/>
					
						<linearGradient id="SVGID_21_" gradientUnits="userSpaceOnUse" x1="274.0225" y1="-261.3047" x2="274.0225" y2="-298.082" gradientTransform="matrix(1 0 0 -1 -256 -174.2607)">
						<stop  offset="0.0027" style="stop-color:#7AA86F"/>
						<stop  offset="0.8633" style="stop-color:#B7DA95"/>
					</linearGradient>
					<rect x="16.298" y="78.91" fill="url(#SVGID_21_)" width="3.449" height="0.564"/>
				</g>
				<g>
					
						<linearGradient id="SVGID_22_" gradientUnits="userSpaceOnUse" x1="310.5527" y1="-261.3081" x2="310.5527" y2="-298.1011" gradientTransform="matrix(1 0 0 -1 -256 -174.2607)">
						<stop  offset="0.0027" style="stop-color:#7AA86F"/>
						<stop  offset="0.8633" style="stop-color:#B7DA95"/>
					</linearGradient>
					<polygon fill="url(#SVGID_22_)" points="52.556,95.663 56.551,95.663 55.664,74.759 53.444,74.759 					"/>
					
						<linearGradient id="SVGID_23_" gradientUnits="userSpaceOnUse" x1="310.5537" y1="-261.3018" x2="310.5537" y2="-298.0648" gradientTransform="matrix(1 0 0 -1 -256 -174.2607)">
						<stop  offset="0.0027" style="stop-color:#7AA86F"/>
						<stop  offset="0.8633" style="stop-color:#B7DA95"/>
					</linearGradient>
					<rect x="52.842" y="78.701" fill="url(#SVGID_23_)" width="3.424" height="0.841"/>
					
						<linearGradient id="SVGID_24_" gradientUnits="userSpaceOnUse" x1="310.5527" y1="-261.3091" x2="310.5527" y2="-298.1361" gradientTransform="matrix(1 0 0 -1 -256 -174.2607)">
						<stop  offset="0.0027" style="stop-color:#7AA86F"/>
						<stop  offset="0.8633" style="stop-color:#B7DA95"/>
					</linearGradient>
					<rect x="52.556" y="86.051" fill="url(#SVGID_24_)" width="3.995" height="0.843"/>
					
						<linearGradient id="SVGID_25_" gradientUnits="userSpaceOnUse" x1="310.5547" y1="-261.3159" x2="310.5547" y2="-298.0576" gradientTransform="matrix(1 0 0 -1 -256 -174.2607)">
						<stop  offset="0.0027" style="stop-color:#7AA86F"/>
						<stop  offset="0.8633" style="stop-color:#B7DA95"/>
					</linearGradient>
					<rect x="52.35" y="91.898" fill="url(#SVGID_25_)" width="4.409" height="0.841"/>
					
						<linearGradient id="SVGID_26_" gradientUnits="userSpaceOnUse" x1="310.5537" y1="-261.3066" x2="310.5537" y2="-298.0939" gradientTransform="matrix(1 0 0 -1 -256 -174.2607)">
						<stop  offset="0.0027" style="stop-color:#7AA86F"/>
						<stop  offset="0.8633" style="stop-color:#B7DA95"/>
					</linearGradient>
					<path fill="url(#SVGID_26_)" d="M54.554,72.117c0,0,1.886,1.205,1.365,2.388h-1.365h-1.365
						C52.667,73.322,54.554,72.117,54.554,72.117z"/>
					
						<linearGradient id="SVGID_27_" gradientUnits="userSpaceOnUse" x1="310.5537" y1="-261.3291" x2="310.5537" y2="-298.1728" gradientTransform="matrix(1 0 0 -1 -256 -174.2607)">
						<stop  offset="0.0027" style="stop-color:#7AA86F"/>
						<stop  offset="0.8633" style="stop-color:#B7DA95"/>
					</linearGradient>
					<ellipse fill="url(#SVGID_27_)" cx="54.554" cy="71.916" rx="0.092" ry="0.204"/>
					
						<linearGradient id="SVGID_28_" gradientUnits="userSpaceOnUse" x1="310.5537" y1="-261.2852" x2="310.5537" y2="-298.0217" gradientTransform="matrix(1 0 0 -1 -256 -174.2607)">
						<stop  offset="0.0027" style="stop-color:#7AA86F"/>
						<stop  offset="0.8633" style="stop-color:#B7DA95"/>
					</linearGradient>
					<ellipse fill="url(#SVGID_28_)" cx="54.554" cy="72.129" rx="0.07" ry="0.091"/>
					
						<linearGradient id="SVGID_29_" gradientUnits="userSpaceOnUse" x1="310.5537" y1="-261.3252" x2="310.5537" y2="-298.1596" gradientTransform="matrix(1 0 0 -1 -256 -174.2607)">
						<stop  offset="0.0027" style="stop-color:#7AA86F"/>
						<stop  offset="0.8633" style="stop-color:#B7DA95"/>
					</linearGradient>
					<ellipse fill="url(#SVGID_29_)" cx="54.554" cy="71.656" rx="0.07" ry="0.092"/>
					
						<linearGradient id="SVGID_30_" gradientUnits="userSpaceOnUse" x1="310.5537" y1="-261.3135" x2="310.5537" y2="-298.1226" gradientTransform="matrix(1 0 0 -1 -256 -174.2607)">
						<stop  offset="0.0027" style="stop-color:#7AA86F"/>
						<stop  offset="0.8633" style="stop-color:#B7DA95"/>
					</linearGradient>
					<rect x="52.83" y="74.487" fill="url(#SVGID_30_)" width="3.448" height="0.565"/>
				</g>
				<g>
					
						<linearGradient id="SVGID_31_" gradientUnits="userSpaceOnUse" x1="305.1699" y1="-261.3076" x2="305.1699" y2="-298.1006" gradientTransform="matrix(1 0 0 -1 -256 -174.2607)">
						<stop  offset="0.0027" style="stop-color:#7AA86F"/>
						<stop  offset="0.8633" style="stop-color:#B7DA95"/>
					</linearGradient>
					<polygon fill="url(#SVGID_31_)" points="47.173,100.084 51.167,100.084 50.28,79.181 48.061,79.181 					"/>
					
						<linearGradient id="SVGID_32_" gradientUnits="userSpaceOnUse" x1="305.1699" y1="-261.3076" x2="305.1699" y2="-298.0919" gradientTransform="matrix(1 0 0 -1 -256 -174.2607)">
						<stop  offset="0.0027" style="stop-color:#7AA86F"/>
						<stop  offset="0.8633" style="stop-color:#B7DA95"/>
					</linearGradient>
					<rect x="47.458" y="83.123" fill="url(#SVGID_32_)" width="3.425" height="0.841"/>
					
						<linearGradient id="SVGID_33_" gradientUnits="userSpaceOnUse" x1="305.1699" y1="-261.3081" x2="305.1699" y2="-298.1138" gradientTransform="matrix(1 0 0 -1 -256 -174.2607)">
						<stop  offset="0.0027" style="stop-color:#7AA86F"/>
						<stop  offset="0.8633" style="stop-color:#B7DA95"/>
					</linearGradient>
					<rect x="47.173" y="90.475" fill="url(#SVGID_33_)" width="3.995" height="0.842"/>
					
						<linearGradient id="SVGID_34_" gradientUnits="userSpaceOnUse" x1="305.1699" y1="-261.2998" x2="305.1699" y2="-298.127" gradientTransform="matrix(1 0 0 -1 -256 -174.2607)">
						<stop  offset="0.0027" style="stop-color:#7AA86F"/>
						<stop  offset="0.8633" style="stop-color:#B7DA95"/>
					</linearGradient>
					<rect x="46.966" y="96.32" fill="url(#SVGID_34_)" width="4.408" height="0.843"/>
					
						<linearGradient id="SVGID_35_" gradientUnits="userSpaceOnUse" x1="305.1699" y1="-261.3066" x2="305.1699" y2="-298.0939" gradientTransform="matrix(1 0 0 -1 -256 -174.2607)">
						<stop  offset="0.0027" style="stop-color:#7AA86F"/>
						<stop  offset="0.8633" style="stop-color:#B7DA95"/>
					</linearGradient>
					<path fill="url(#SVGID_35_)" d="M49.171,76.539c0,0,1.885,1.205,1.364,2.388h-1.364h-1.366
						C47.284,77.744,49.171,76.539,49.171,76.539z"/>
					
						<linearGradient id="SVGID_36_" gradientUnits="userSpaceOnUse" x1="305.1699" y1="-261.2979" x2="305.1699" y2="-298.0536" gradientTransform="matrix(1 0 0 -1 -256 -174.2607)">
						<stop  offset="0.0027" style="stop-color:#7AA86F"/>
						<stop  offset="0.8633" style="stop-color:#B7DA95"/>
					</linearGradient>
					<ellipse fill="url(#SVGID_36_)" cx="49.17" cy="76.337" rx="0.092" ry="0.204"/>
					
						<linearGradient id="SVGID_37_" gradientUnits="userSpaceOnUse" x1="305.1699" y1="-261.3203" x2="305.1699" y2="-298.1547" gradientTransform="matrix(1 0 0 -1 -256 -174.2607)">
						<stop  offset="0.0027" style="stop-color:#7AA86F"/>
						<stop  offset="0.8633" style="stop-color:#B7DA95"/>
					</linearGradient>
					<ellipse fill="url(#SVGID_37_)" cx="49.17" cy="76.551" rx="0.069" ry="0.092"/>
					
						<linearGradient id="SVGID_38_" gradientUnits="userSpaceOnUse" x1="305.1699" y1="-261.3213" x2="305.1699" y2="-298.1558" gradientTransform="matrix(1 0 0 -1 -256 -174.2607)">
						<stop  offset="0.0027" style="stop-color:#7AA86F"/>
						<stop  offset="0.8633" style="stop-color:#B7DA95"/>
					</linearGradient>
					<ellipse fill="url(#SVGID_38_)" cx="49.17" cy="76.079" rx="0.069" ry="0.092"/>
					
						<linearGradient id="SVGID_39_" gradientUnits="userSpaceOnUse" x1="305.1699" y1="-261.3047" x2="305.1699" y2="-298.082" gradientTransform="matrix(1 0 0 -1 -256 -174.2607)">
						<stop  offset="0.0027" style="stop-color:#7AA86F"/>
						<stop  offset="0.8633" style="stop-color:#B7DA95"/>
					</linearGradient>
					<rect x="47.446" y="78.91" fill="url(#SVGID_39_)" width="3.448" height="0.564"/>
				</g>
			</g>
			
				<linearGradient id="SVGID_40_" gradientUnits="userSpaceOnUse" x1="289.5957" y1="-261.3086" x2="289.5957" y2="-298.0995" gradientTransform="matrix(1 0 0 -1 -256 -174.2607)">
				<stop  offset="0.0027" style="stop-color:#7AA86F"/>
				<stop  offset="0.8633" style="stop-color:#B7DA95"/>
			</linearGradient>
			<rect x="8.505" y="95.663" fill="url(#SVGID_40_)" width="50.183" height="25.314"/>
			
				<linearGradient id="SVGID_41_" gradientUnits="userSpaceOnUse" x1="289.5957" y1="-261.3081" x2="289.5957" y2="-298.0996" gradientTransform="matrix(1 0 0 -1 -256 -174.2607)">
				<stop  offset="0.0027" style="stop-color:#7AA86F"/>
				<stop  offset="0.8633" style="stop-color:#B7DA95"/>
			</linearGradient>
			<rect x="21.964" y="90.895" fill="url(#SVGID_41_)" width="23.265" height="30.083"/>
			
				<linearGradient id="SVGID_42_" gradientUnits="userSpaceOnUse" x1="282.7266" y1="-261.3096" x2="282.7266" y2="-298.1142" gradientTransform="matrix(1 0 0 -1 -256 -174.2607)">
				<stop  offset="0.0027" style="stop-color:#7AA86F"/>
				<stop  offset="0.8633" style="stop-color:#B7DA95"/>
			</linearGradient>
			<ellipse fill="url(#SVGID_42_)" cx="26.726" cy="84.467" rx="0.195" ry="0.432"/>
			
				<linearGradient id="SVGID_43_" gradientUnits="userSpaceOnUse" x1="282.7266" y1="-261.3057" x2="282.7266" y2="-298.0489" gradientTransform="matrix(1 0 0 -1 -256 -174.2607)">
				<stop  offset="0.0027" style="stop-color:#7AA86F"/>
				<stop  offset="0.8633" style="stop-color:#B7DA95"/>
			</linearGradient>
			<ellipse fill="url(#SVGID_43_)" cx="26.726" cy="84.917" rx="0.147" ry="0.194"/>
			
				<linearGradient id="SVGID_44_" gradientUnits="userSpaceOnUse" x1="282.7266" y1="-261.3115" x2="282.7266" y2="-298.1472" gradientTransform="matrix(1 0 0 -1 -256 -174.2607)">
				<stop  offset="0.0027" style="stop-color:#7AA86F"/>
				<stop  offset="0.8633" style="stop-color:#B7DA95"/>
			</linearGradient>
			<ellipse fill="url(#SVGID_44_)" cx="26.726" cy="83.919" rx="0.147" ry="0.193"/>
			
				<linearGradient id="SVGID_45_" gradientUnits="userSpaceOnUse" x1="282.7266" y1="-261.3135" x2="282.7266" y2="-298.0579" gradientTransform="matrix(1 0 0 -1 -256 -174.2607)">
				<stop  offset="0.0027" style="stop-color:#7AA86F"/>
				<stop  offset="0.8633" style="stop-color:#B7DA95"/>
			</linearGradient>
			<rect x="23.076" y="89.913" fill="url(#SVGID_45_)" width="7.3" height="1.193"/>
			<g>
				
					<linearGradient id="SVGID_46_" gradientUnits="userSpaceOnUse" x1="282.583" y1="-261.3091" x2="282.583" y2="-298.1035" gradientTransform="matrix(1 0 0 -1 -256 -174.2607)">
					<stop  offset="0.0027" style="stop-color:#7AA86F"/>
					<stop  offset="0.8633" style="stop-color:#B7DA95"/>
				</linearGradient>
				<path fill="url(#SVGID_46_)" d="M26.583,84.893c0,0-3.993,2.551-2.89,5.057h2.89h2.89
					C30.577,87.443,26.583,84.893,26.583,84.893z"/>
				
					<linearGradient id="SVGID_47_" gradientUnits="userSpaceOnUse" x1="296.041" y1="-261.3091" x2="296.041" y2="-298.1035" gradientTransform="matrix(1 0 0 -1 -256 -174.2607)">
					<stop  offset="0.0027" style="stop-color:#7AA86F"/>
					<stop  offset="0.8633" style="stop-color:#B7DA95"/>
				</linearGradient>
				<path fill="url(#SVGID_47_)" d="M40.042,84.893c0,0-3.993,2.551-2.89,5.057h2.89h2.89
					C44.035,87.443,40.042,84.893,40.042,84.893z"/>
				
					<linearGradient id="SVGID_48_" gradientUnits="userSpaceOnUse" x1="296.041" y1="-261.3096" x2="296.041" y2="-298.1142" gradientTransform="matrix(1 0 0 -1 -256 -174.2607)">
					<stop  offset="0.0027" style="stop-color:#7AA86F"/>
					<stop  offset="0.8633" style="stop-color:#B7DA95"/>
				</linearGradient>
				<ellipse fill="url(#SVGID_48_)" cx="40.042" cy="84.467" rx="0.195" ry="0.432"/>
				
					<linearGradient id="SVGID_49_" gradientUnits="userSpaceOnUse" x1="296.041" y1="-261.3057" x2="296.041" y2="-298.0489" gradientTransform="matrix(1 0 0 -1 -256 -174.2607)">
					<stop  offset="0.0027" style="stop-color:#7AA86F"/>
					<stop  offset="0.8633" style="stop-color:#B7DA95"/>
				</linearGradient>
				<ellipse fill="url(#SVGID_49_)" cx="40.042" cy="84.917" rx="0.147" ry="0.194"/>
				
					<linearGradient id="SVGID_50_" gradientUnits="userSpaceOnUse" x1="296.041" y1="-261.3115" x2="296.041" y2="-298.1472" gradientTransform="matrix(1 0 0 -1 -256 -174.2607)">
					<stop  offset="0.0027" style="stop-color:#7AA86F"/>
					<stop  offset="0.8633" style="stop-color:#B7DA95"/>
				</linearGradient>
				<ellipse fill="url(#SVGID_50_)" cx="40.042" cy="83.919" rx="0.147" ry="0.193"/>
				
					<linearGradient id="SVGID_51_" gradientUnits="userSpaceOnUse" x1="296.041" y1="-261.3135" x2="296.041" y2="-298.0579" gradientTransform="matrix(1 0 0 -1 -256 -174.2607)">
					<stop  offset="0.0027" style="stop-color:#7AA86F"/>
					<stop  offset="0.8633" style="stop-color:#B7DA95"/>
				</linearGradient>
				<rect x="36.392" y="89.913" fill="url(#SVGID_51_)" width="7.3" height="1.193"/>
			</g>
		</g>
		
			<linearGradient id="SVGID_52_" gradientUnits="userSpaceOnUse" x1="283.1924" y1="-267.0977" x2="283.1924" y2="-322.9191" gradientTransform="matrix(1 0 0 -1 -256 -174.2607)">
			<stop  offset="0.0027" style="stop-color:#5A7D69"/>
			<stop  offset="0.8633" style="stop-color:#B7DA95"/>
		</linearGradient>
		<path fill="url(#SVGID_52_)" d="M50.768,129.627h-1.377v-1.268h1.377v-1.268h-1.377v-1.637h0.678l3.576-5.509l-4.66,1.081
			c0,0-3.1-7.143-8.674-10.056l-1.254,1.409c0,0-3.753-9.832-9.952-14.291v2.688l-1.9-2.563v-0.031L27.193,98.2l-0.012-0.016v0.031
			l-1.901,2.563V98.09c-6.198,4.459-9.952,14.291-9.952,14.291l-1.254-1.409C8.5,113.885,5.4,121.028,5.4,121.028l-4.66-1.081
			l3.576,5.509h0.678v1.637H3.615v1.268h1.377v1.268H3.615v0.826H3.119v0.825h0.496v4.132H3.119v0.826h48.145v-0.826h-0.496v-4.132
			h0.496v-0.825h-0.496V129.627z"/>
		<g>
			
				<linearGradient id="SVGID_53_" gradientUnits="userSpaceOnUse" x1="371.4141" y1="-277.3584" x2="371.4141" y2="-323.6856" gradientTransform="matrix(1 0 0 -1 -256 -174.2607)">
				<stop  offset="0.0027" style="stop-color:#5A7D69"/>
				<stop  offset="0.8633" style="stop-color:#B7DA95"/>
			</linearGradient>
			<rect x="103.904" y="100.342" fill="url(#SVGID_53_)" width="23.021" height="4.705"/>
			
				<linearGradient id="SVGID_54_" gradientUnits="userSpaceOnUse" x1="371.4141" y1="-277.3584" x2="371.4141" y2="-323.6755" gradientTransform="matrix(1 0 0 -1 -256 -174.2607)">
				<stop  offset="0.0027" style="stop-color:#5A7D69"/>
				<stop  offset="0.8633" style="stop-color:#B7DA95"/>
			</linearGradient>
			<rect x="104.956" y="97.571" fill="url(#SVGID_54_)" width="20.919" height="7.477"/>
			
				<linearGradient id="SVGID_55_" gradientUnits="userSpaceOnUse" x1="371.4141" y1="-277.3584" x2="371.4141" y2="-323.6786" gradientTransform="matrix(1 0 0 -1 -256 -174.2607)">
				<stop  offset="0.0027" style="stop-color:#5A7D69"/>
				<stop  offset="0.8633" style="stop-color:#B7DA95"/>
			</linearGradient>
			<rect x="105.957" y="95.807" fill="url(#SVGID_55_)" width="18.916" height="9.24"/>
			
				<linearGradient id="SVGID_56_" gradientUnits="userSpaceOnUse" x1="371.4141" y1="-277.3589" x2="371.4141" y2="-323.6729" gradientTransform="matrix(1 0 0 -1 -256 -174.2607)">
				<stop  offset="0.0027" style="stop-color:#5A7D69"/>
				<stop  offset="0.8633" style="stop-color:#B7DA95"/>
			</linearGradient>
			<rect x="102.688" y="101.268" fill="url(#SVGID_56_)" width="25.455" height="3.779"/>
			
				<linearGradient id="SVGID_57_" gradientUnits="userSpaceOnUse" x1="371.4141" y1="-277.3579" x2="371.4141" y2="-323.6882" gradientTransform="matrix(1 0 0 -1 -256 -174.2607)">
				<stop  offset="0.0027" style="stop-color:#5A7D69"/>
				<stop  offset="0.8633" style="stop-color:#B7DA95"/>
			</linearGradient>
			<polygon fill="url(#SVGID_57_)" points="130.611,107.131 100.218,107.131 98.572,104.22 132.257,104.22 			"/>
			
				<linearGradient id="SVGID_58_" gradientUnits="userSpaceOnUse" x1="371.4141" y1="-277.3599" x2="371.4141" y2="-323.6835" gradientTransform="matrix(1 0 0 -1 -256 -174.2607)">
				<stop  offset="0.0027" style="stop-color:#5A7D69"/>
				<stop  offset="0.8633" style="stop-color:#B7DA95"/>
			</linearGradient>
			<path fill="url(#SVGID_58_)" d="M100.172,106.225v26.044h10.505v-16.49c0-2.616,2.121-4.737,4.737-4.737
				c2.615,0,4.736,2.121,4.736,4.737v16.49h10.507v-26.044H100.172z"/>
			<g>
				<g>
					
						<linearGradient id="SVGID_59_" gradientUnits="userSpaceOnUse" x1="361.584" y1="-277.3599" x2="361.584" y2="-323.6783" gradientTransform="matrix(1 0 0 -1 -256 -174.2607)">
						<stop  offset="0.0027" style="stop-color:#5A7D69"/>
						<stop  offset="0.8633" style="stop-color:#B7DA95"/>
					</linearGradient>
					<rect x="99.459" y="114.737" fill="url(#SVGID_59_)" width="12.252" height="1.456"/>
				</g>
				<g>
					
						<linearGradient id="SVGID_60_" gradientUnits="userSpaceOnUse" x1="381.2441" y1="-277.3599" x2="381.2441" y2="-323.6783" gradientTransform="matrix(1 0 0 -1 -256 -174.2607)">
						<stop  offset="0.0027" style="stop-color:#5A7D69"/>
						<stop  offset="0.8633" style="stop-color:#B7DA95"/>
					</linearGradient>
					<rect x="119.118" y="114.737" fill="url(#SVGID_60_)" width="12.253" height="1.456"/>
				</g>
			</g>
			<g>
				<g>
					
						<linearGradient id="SVGID_61_" gradientUnits="userSpaceOnUse" x1="361.584" y1="-277.3491" x2="361.584" y2="-323.6986" gradientTransform="matrix(1 0 0 -1 -256 -174.2607)">
						<stop  offset="0.0027" style="stop-color:#5A7D69"/>
						<stop  offset="0.8633" style="stop-color:#B7DA95"/>
					</linearGradient>
					<rect x="99.459" y="119.777" fill="url(#SVGID_61_)" width="12.252" height="1.457"/>
				</g>
				<g>
					
						<linearGradient id="SVGID_62_" gradientUnits="userSpaceOnUse" x1="381.2441" y1="-277.3491" x2="381.2441" y2="-323.6986" gradientTransform="matrix(1 0 0 -1 -256 -174.2607)">
						<stop  offset="0.0027" style="stop-color:#5A7D69"/>
						<stop  offset="0.8633" style="stop-color:#B7DA95"/>
					</linearGradient>
					<rect x="119.118" y="119.777" fill="url(#SVGID_62_)" width="12.253" height="1.457"/>
				</g>
			</g>
			<g>
				
					<linearGradient id="SVGID_63_" gradientUnits="userSpaceOnUse" x1="360.4922" y1="-277.3569" x2="360.4922" y2="-323.6842" gradientTransform="matrix(1 0 0 -1 -256 -174.2607)">
					<stop  offset="0.0027" style="stop-color:#5A7D69"/>
					<stop  offset="0.8633" style="stop-color:#B7DA95"/>
				</linearGradient>
				<polygon fill="url(#SVGID_63_)" points="99.459,130.644 99.459,132.269 97.996,132.269 97.996,135.349 110.991,135.349 
					110.991,132.997 110.991,132.269 110.991,130.644 				"/>
				
					<linearGradient id="SVGID_64_" gradientUnits="userSpaceOnUse" x1="382.334" y1="-277.3569" x2="382.334" y2="-323.6842" gradientTransform="matrix(1 0 0 -1 -256 -174.2607)">
					<stop  offset="0.0027" style="stop-color:#5A7D69"/>
					<stop  offset="0.8633" style="stop-color:#B7DA95"/>
				</linearGradient>
				<polygon fill="url(#SVGID_64_)" points="131.371,130.644 131.371,132.269 132.833,132.269 132.833,135.349 119.838,135.349 
					119.838,132.997 119.838,132.269 119.838,130.644 				"/>
			</g>
		</g>
		<g>
			<g>
				<path fill="#3E5748" d="M68.979,83.024c0,0-1.041,0.457-0.754,0.906h0.754h0.753C70.02,83.481,68.979,83.024,68.979,83.024z"/>
				<path fill="#3E5748" d="M68.979,82.709c0,0-0.437,0.266-0.315,0.527h0.315h0.315C69.416,82.975,68.979,82.709,68.979,82.709z"/>
				<path fill="#3E5748" d="M68.979,82.318c0,0-0.437,0.267-0.315,0.527h0.315h0.315C69.416,82.585,68.979,82.318,68.979,82.318z"/>
				<path fill="#3E5748" d="M68.979,81.928c0,0-0.437,0.267-0.315,0.526h0.315h0.315C69.416,82.195,68.979,81.928,68.979,81.928z"/>
				<path fill="#3E5748" d="M68.979,81.538c0,0-0.437,0.265-0.315,0.527h0.315h0.315C69.416,81.803,68.979,81.538,68.979,81.538z"/>
				<path fill="#3E5748" d="M68.979,81.146c0,0-0.437,0.266-0.315,0.527h0.315h0.315C69.416,81.412,68.979,81.146,68.979,81.146z"/>
				<path fill="#3E5748" d="M68.979,80.756c0,0-0.437,0.266-0.315,0.526h0.315h0.315C69.416,81.022,68.979,80.756,68.979,80.756z"/>
			</g>
			<path fill="#3E5748" d="M71.068,84.599v-0.281c0-0.357-0.318-0.647-0.713-0.647h-2.752c-0.395,0-0.713,0.29-0.713,0.647v0.281
				c0,0.359-0.319,0.648-0.713,0.648l0,0v0.636h5.604v-0.636l0,0C71.387,85.247,71.068,84.958,71.068,84.599z"/>
			<g>
				<path fill="#3E5748" d="M68.979,84.389c0,0-18.002,7.902-13.027,15.66h13.027h13.028C86.982,92.292,68.979,84.389,68.979,84.389
					z"/>
				<rect x="56.069" y="99.727" fill="#3E5748" width="25.82" height="32.611"/>
				<rect x="43.368" y="107.045" fill="#3E5748" width="51.222" height="25.293"/>
				<g>
					<g>
						<path fill="#3E5748" d="M51.36,95.831c0,0-6.144,2.695-4.446,5.344h4.446h4.446C57.504,98.526,51.36,95.831,51.36,95.831z"/>
						<rect x="45.885" y="101.019" fill="#3E5748" width="10.657" height="1.507"/>
						<rect x="46.832" y="101.771" fill="#3E5748" width="9.356" height="6.62"/>
						<ellipse fill="#3E5748" cx="51.361" cy="95.38" rx="0.3" ry="0.456"/>
						<ellipse fill="#3E5748" cx="51.361" cy="95.857" rx="0.226" ry="0.204"/>
						<ellipse fill="#3E5748" cx="51.361" cy="94.801" rx="0.226" ry="0.205"/>
					</g>
					<g>
						<path fill="#3E5748" d="M86.598,95.831c0,0,6.144,2.695,4.446,5.344h-4.446h-4.445C80.454,98.526,86.598,95.831,86.598,95.831
							z"/>
						<rect x="81.416" y="101.019" fill="#3E5748" width="10.658" height="1.507"/>
						<rect x="81.77" y="101.771" fill="#3E5748" width="9.355" height="6.62"/>
						<ellipse fill="#3E5748" cx="86.598" cy="95.38" rx="0.299" ry="0.456"/>
						<ellipse fill="#3E5748" cx="86.598" cy="95.857" rx="0.227" ry="0.204"/>
						<ellipse fill="#3E5748" cx="86.598" cy="94.801" rx="0.227" ry="0.205"/>
					</g>
				</g>
				<g>
					<g>
						<polygon fill="#3E5748" points="40.644,132.577 36.913,132.577 37.742,107.174 39.814,107.174 						"/>
						<rect x="37.179" y="111.965" fill="#3E5748" width="3.198" height="1.021"/>
						<rect x="36.913" y="120.898" fill="#3E5748" width="3.731" height="1.021"/>
						<rect x="36.72" y="128" fill="#3E5748" width="4.115" height="1.024"/>
						<path fill="#3E5748" d="M38.778,104.909c0,0-1.762,0.987-1.275,1.959h1.275h1.274
							C40.54,105.896,38.778,104.909,38.778,104.909z"/>
						<ellipse fill="#3E5748" cx="38.778" cy="104.743" rx="0.086" ry="0.168"/>
						<ellipse fill="#3E5748" cx="38.778" cy="104.917" rx="0.064" ry="0.075"/>
						<ellipse fill="#3E5748" cx="38.778" cy="104.531" rx="0.064" ry="0.074"/>
						<rect x="37.168" y="106.845" fill="#3E5748" width="3.22" height="0.688"/>
					</g>
					<g>
						<polygon fill="#3E5748" points="101.045,132.577 97.314,132.577 98.145,107.174 100.216,107.174 						"/>
						<rect x="97.582" y="111.965" fill="#3E5748" width="3.197" height="1.021"/>
						<rect x="97.314" y="120.898" fill="#3E5748" width="3.73" height="1.021"/>
						<rect x="97.123" y="128" fill="#3E5748" width="4.115" height="1.024"/>
						<path fill="#3E5748" d="M99.182,104.909c0,0-1.763,0.987-1.275,1.959h1.275h1.272
							C100.941,105.896,99.182,104.909,99.182,104.909z"/>
						<ellipse fill="#3E5748" cx="99.18" cy="104.743" rx="0.086" ry="0.168"/>
						<ellipse fill="#3E5748" cx="99.18" cy="104.917" rx="0.064" ry="0.075"/>
						<ellipse fill="#3E5748" cx="99.18" cy="104.531" rx="0.064" ry="0.074"/>
						<rect x="97.57" y="106.845" fill="#3E5748" width="3.221" height="0.688"/>
					</g>
				</g>
				<rect x="34.159" y="130.94" fill="#3E5748" width="69.639" height="6.027"/>
			</g>
			
				<linearGradient id="SVGID_65_" gradientUnits="userSpaceOnUse" x1="305.7227" y1="-285.5239" x2="305.7227" y2="-306.1369" gradientTransform="matrix(1 0 0 -1 -256 -174.2607)">
				<stop  offset="0.0027" style="stop-color:#5A7D69"/>
				<stop  offset="0.8633" style="stop-color:#B7DA95"/>
			</linearGradient>
			<path fill="url(#SVGID_65_)" d="M51.737,130.644H47.71v-16.153c0-1.113,0.901-2.015,2.013-2.015l0,0
				c1.112,0,2.014,0.901,2.014,2.015V130.644z"/>
			
				<linearGradient id="SVGID_66_" gradientUnits="userSpaceOnUse" x1="313.5654" y1="-285.5239" x2="313.5654" y2="-306.1369" gradientTransform="matrix(1 0 0 -1 -256 -174.2607)">
				<stop  offset="0.0027" style="stop-color:#5A7D69"/>
				<stop  offset="0.8633" style="stop-color:#B7DA95"/>
			</linearGradient>
			<path fill="url(#SVGID_66_)" d="M59.579,130.644h-4.027v-16.153c0-1.113,0.902-2.015,2.013-2.015l0,0
				c1.113,0,2.014,0.901,2.014,2.015V130.644z"/>
			
				<linearGradient id="SVGID_67_" gradientUnits="userSpaceOnUse" x1="321.4082" y1="-285.5239" x2="321.4082" y2="-306.1369" gradientTransform="matrix(1 0 0 -1 -256 -174.2607)">
				<stop  offset="0.0027" style="stop-color:#5A7D69"/>
				<stop  offset="0.8633" style="stop-color:#B7DA95"/>
			</linearGradient>
			<path fill="url(#SVGID_67_)" d="M67.42,130.644h-4.025v-16.153c0-1.113,0.901-2.015,2.013-2.015l0,0
				c1.113,0,2.013,0.901,2.013,2.015L67.42,130.644L67.42,130.644z"/>
			
				<linearGradient id="SVGID_68_" gradientUnits="userSpaceOnUse" x1="329.249" y1="-285.5239" x2="329.249" y2="-306.1369" gradientTransform="matrix(1 0 0 -1 -256 -174.2607)">
				<stop  offset="0.0027" style="stop-color:#5A7D69"/>
				<stop  offset="0.8633" style="stop-color:#B7DA95"/>
			</linearGradient>
			<path fill="url(#SVGID_68_)" d="M75.264,130.644h-4.027v-16.153c0-1.113,0.9-2.015,2.015-2.015l0,0
				c1.11,0,2.013,0.901,2.013,2.015V130.644L75.264,130.644z"/>
			
				<linearGradient id="SVGID_69_" gradientUnits="userSpaceOnUse" x1="337.0918" y1="-285.5239" x2="337.0918" y2="-306.1369" gradientTransform="matrix(1 0 0 -1 -256 -174.2607)">
				<stop  offset="0.0027" style="stop-color:#5A7D69"/>
				<stop  offset="0.8633" style="stop-color:#B7DA95"/>
			</linearGradient>
			<path fill="url(#SVGID_69_)" d="M83.105,130.644h-4.026v-16.153c0-1.113,0.901-2.015,2.014-2.015l0,0
				c1.111,0,2.015,0.901,2.015,2.015v16.153H83.105z"/>
			
				<linearGradient id="SVGID_70_" gradientUnits="userSpaceOnUse" x1="344.9346" y1="-285.5239" x2="344.9346" y2="-306.1369" gradientTransform="matrix(1 0 0 -1 -256 -174.2607)">
				<stop  offset="0.0027" style="stop-color:#5A7D69"/>
				<stop  offset="0.8633" style="stop-color:#B7DA95"/>
			</linearGradient>
			<path fill="url(#SVGID_70_)" d="M90.948,130.644h-4.026v-16.153c0-1.113,0.901-2.015,2.014-2.015l0,0
				c1.111,0,2.014,0.901,2.014,2.015L90.948,130.644L90.948,130.644z"/>
		</g>
		<rect x="-0.263" y="134.633" fill="#3E5748" width="138.486" height="36.3"/>
	</g>
	<g>
		<g>
			<path fill="#FFFFFF" d="M51.331,158.388v-10.021h1.326v10.021H51.331z"/>
			<path fill="#FFFFFF" d="M54.981,158.388v-10.021h1.36l5.264,7.867v-7.867h1.271v10.021h-1.36l-5.264-7.875v7.875H54.981z"/>
			<path fill="#FFFFFF" d="M65.105,158.388v-10.021h3.453c0.779,0,1.374,0.047,1.783,0.143c0.574,0.133,1.063,0.371,1.472,0.719
				c0.526,0.445,0.924,1.018,1.186,1.712c0.262,0.695,0.393,1.489,0.393,2.384c0,0.76-0.088,1.436-0.266,2.022
				s-0.406,1.073-0.684,1.459c-0.279,0.386-0.582,0.688-0.914,0.909c-0.33,0.222-0.729,0.389-1.195,0.502
				c-0.467,0.113-1.004,0.172-1.609,0.172L65.105,158.388L65.105,158.388z M66.432,157.206h2.14c0.66,0,1.178-0.063,1.555-0.186
				c0.375-0.123,0.676-0.297,0.898-0.52c0.313-0.314,0.561-0.737,0.733-1.27c0.177-0.529,0.265-1.175,0.265-1.932
				c0-1.049-0.172-1.854-0.517-2.416c-0.344-0.563-0.762-0.939-1.254-1.131c-0.354-0.137-0.928-0.205-1.717-0.205h-2.105
				L66.432,157.206L66.432,157.206z"/>
			<path fill="#FFFFFF" d="M75.441,158.388v-10.021h1.326v10.021H75.441z"/>
			<path fill="#FFFFFF" d="M78.004,158.388l3.85-10.021h1.429l4.102,10.021h-1.511l-1.169-3.035h-4.19l-1.101,3.035H78.004z
				 M80.896,154.272h3.396l-1.046-2.775c-0.319-0.844-0.556-1.535-0.711-2.078c-0.128,0.644-0.308,1.281-0.54,1.914L80.896,154.272z
				"/>
		</g>
	</g>
</g>
</svg>
