<svg xmlns="http://www.w3.org/2000/svg" xmlns:xlink="http://www.w3.org/1999/xlink" width="1200" height="1200" viewBox="0 0 1200 1200"><rect width="100%" height="100%" fill="#ffffff" rx="60" ry="60"></rect><g transform="translate(600 600) scale(0.69 0.69) rotate(0) translate(-600 -600)" style="fill:#e61f2d"><svg fill="#e61f2d" xmlns="http://www.w3.org/2000/svg" data-name="line 31 px" viewBox="0 0 32 32" x="0px" y="0px"><title>icon line 32px</title><g><path d="M27,27H5a3,3,0,0,1-3-3V8A3,3,0,0,1,5,5H27a3,3,0,0,1,3,3V24A3,3,0,0,1,27,27ZM5,7A1,1,0,0,0,4,8V24a1,1,0,0,0,1,1H27a1,1,0,0,0,1-1V8a1,1,0,0,0-1-1Z"></path><path d="M16,17a1,1,0,0,1-.6-.2l-12-9A1,1,0,0,1,4.6,6.2L16,14.75,27.4,6.2a1,1,0,0,1,1.2,1.6l-12,9A1,1,0,0,1,16,17Z"></path></g></svg></g></svg>