<svg xmlns="http://www.w3.org/2000/svg" xmlns:xlink="http://www.w3.org/1999/xlink" width="1200" height="1200" viewBox="0 0 1200 1200"><rect width="100%" height="100%" fill="#ffffff" rx="60" ry="60"></rect><g transform="translate(600 600) scale(0.69 0.69) rotate(0) translate(-600 -600)" style="fill:#e61f2d"><svg fill="#e61f2d" xmlns:x="http://ns.adobe.com/Extensibility/1.0/" xmlns:i="http://ns.adobe.com/AdobeIllustrator/10.0/" xmlns:graph="http://ns.adobe.com/Graphs/1.0/" xmlns="http://www.w3.org/2000/svg" xmlns:xlink="http://www.w3.org/1999/xlink" version="1.1" x="0px" y="0px" viewBox="0 0 100 100" style="enable-background:new 0 0 100 100;" xml:space="preserve"><g><g i:extraneous="self"><g><path d="M44.7,50.1c3.2,2.1,7.4,2.1,10.6,0L97.2,23c-1.1-4.4-5.1-7.8-9.9-7.8H12.8C8,15.3,4,18.6,2.8,23L44.7,50.1z"></path><path d="M60.3,57.8c-3.1,2-6.7,3-10.3,3c-3.6,0-7.2-1-10.3-3l-37.2-24v40.7c0,5.7,4.6,10.3,10.3,10.3h74.5     c5.7,0,10.3-4.6,10.3-10.3V33.8L60.3,57.8z"></path></g></g></g></svg></g></svg>