<?xml version="1.0" encoding="utf-8"?>
<!-- Generator: Adobe Illustrator 16.0.0, SVG Export Plug-In . SVG Version: 6.00 Build 0)  -->
<!DOCTYPE svg PUBLIC "-//W3C//DTD SVG 1.1//EN" "http://www.w3.org/Graphics/SVG/1.1/DTD/svg11.dtd">
<svg version="1.1" id="Layer_1" xmlns="http://www.w3.org/2000/svg" xmlns:xlink="http://www.w3.org/1999/xlink" x="0px" y="0px"
	 width="100px" height="100px" viewBox="0 0 100 100" enable-background="new 0 0 100 100" xml:space="preserve">
<g>
	<circle fill="#E4232E" cx="72.904" cy="28.191" r="7.286"/>
	<path fill="#010101" d="M81.855,35.477L81.57,34.81l-0.473,0.571c-1.193,1.333-2.716,2.381-4.383,3l-0.477,0.19l0.191,0.476
		c1.475,3.477,2.189,7.191,2.189,10.953c0,15.764-12.809,28.619-28.619,28.619c-15.81,0-28.618-12.811-28.618-28.62
		c0-15.809,12.809-28.619,28.619-28.619c4.286,0,8.381,0.952,12.237,2.762l0.43,0.191l0.189-0.476
		c0.715-1.667,1.81-3.095,3.238-4.238l0.571-0.476L66,18.81C61.048,16.333,55.667,15,50,15c-19.286,0-35,15.714-35,35
		c0,19.285,15.714,35,35,35c19.285,0,35-15.715,35-35C85,44.952,83.953,40.095,81.855,35.477z"/>
	<circle fill="#E4232E" cx="50" cy="50" r="15.952"/>
</g>
</svg>
