<?xml version="1.0" encoding="utf-8"?>
<!-- Generator: Adobe Illustrator 16.0.0, SVG Export Plug-In . SVG Version: 6.00 Build 0)  -->
<!DOCTYPE svg PUBLIC "-//W3C//DTD SVG 1.1//EN" "http://www.w3.org/Graphics/SVG/1.1/DTD/svg11.dtd">
<svg version="1.1" id="Layer_1" xmlns="http://www.w3.org/2000/svg" xmlns:xlink="http://www.w3.org/1999/xlink" x="0px" y="0px"
	 width="100px" height="100px" viewBox="0 0 100 100" enable-background="new 0 0 100 100" xml:space="preserve">
<g>
	<g>
		<g id="group-6svg">
			<path id="path-1_37_" fill="#010101" d="M65.352,100c-2.849,0-5.471-0.803-7.789-2.384l-0.143-0.103
				c-0.059-0.046-1.979-1.472-5.245-1.472c-2.046,0-4.186,0.563-6.364,1.681c-0.661,0.402-3.714,2.12-7.61,2.12
				c-3.196,0-6.11-1.106-8.661-3.291c-4.038-3.459-17.319-16.419-18.635-38.011c-0.6-9.831,2.604-19.241,8.789-25.817
				c5.61-5.967,13.044-8.644,20.147-7.222c0.162,0.024,5.44,0.909,10.604,3.848c2.741-1.372,9.543-4.348,16.952-4.348
				c8.851,0,15.729,4.292,19.894,12.41l0.942,1.842l-1.689,1.193c-0.089,0.062-9.18,6.6-9.146,14.506
				c0.019,4.313,2.816,8.441,8.32,12.281c1.725,1.201,2.912,3.066,3.278,5.142c1.771,6.474-10.449,22.31-17.771,26.416l-0.182,0.092
				C70.794,99.001,68.503,100,65.352,100z M60.291,93.715c1.503,1.012,3.205,1.521,5.061,1.521c1.863,0,3.313-0.523,3.662-0.659
				c7.545-4.327,16.148-18.229,15.403-20.911l-0.094-0.384c-0.136-0.864-0.619-1.644-1.327-2.14
				c-6.859-4.781-10.346-10.229-10.357-16.19C72.616,46.96,78.96,40.571,82.1,37.898c-3.355-5.396-8.295-8.131-14.705-8.131
				c-8.156,0-15.762,4.335-15.838,4.379l-1.25,0.724l-1.221-0.779c-4.689-2.998-10.039-3.896-10.092-3.904
				c-1.045-0.208-2.021-0.305-2.993-0.305c-4.579,0-9.14,2.168-12.84,6.105c-5.212,5.542-8.016,13.865-7.505,22.265
				c1.202,19.723,13.301,31.532,16.981,34.682c1.664,1.426,3.537,2.148,5.566,2.148c2.872,0,5.115-1.414,5.136-1.426l0.209-0.124
				c2.889-1.494,5.792-2.251,8.629-2.251C56.788,91.282,59.686,93.26,60.291,93.715z"/>
			<path id="path-2_25_" fill="#E4232E" d="M50.051,25.498c-0.523,0-1.039-0.173-1.46-0.5c-0.563-0.438-0.9-1.106-0.918-1.818
				c-0.02-0.664-0.213-16.372,19.371-23.052c0.685-0.233,1.435-0.145,2.043,0.241c0.606,0.385,1.009,1.026,1.09,1.743
				c0.022,0.184,1.837,18.432-19.596,23.325C50.404,25.477,50.227,25.498,50.051,25.498z"/>
		</g>
	</g>
</g>
</svg>
