<?xml version="1.0" encoding="utf-8"?>
<!-- Generator: Adobe Illustrator 25.0.1, SVG Export Plug-In . SVG Version: 6.00 Build 0)  -->
<svg version="1.1" id="Layer_1" xmlns="http://www.w3.org/2000/svg" xmlns:xlink="http://www.w3.org/1999/xlink" x="0px" y="0px"
	 viewBox="0 0 500 500" style="enable-background:new 0 0 500 500;" xml:space="preserve">
<style type="text/css">
	.st0{opacity:0.15;}
	.st1{fill:#18627F;}
	.st2{fill:#124B62;}
	.st3{fill:#2E80A3;}
	.st4{fill:#052C3B;}
	.st5{fill:#BBEEF7;}
	.st6{opacity:0.3;}
	.st7{fill:#FFFFFF;}
	.st8{opacity:0.1;fill:#FFFFFF;}
	.st9{fill:#5CABCE;}
	.st10{fill:#DFBCAF;}
	.st11{fill:#C7A495;}
	.st12{fill:#C64945;}
	.st13{fill:#AC3E3C;}
	.st14{fill:#E64F4C;}
	.st15{fill:#D6423F;}
	.st16{fill:#FFEEE7;}
	.st17{fill:#ACEDF7;}
	.st18{opacity:0.3;fill:#FFFFFF;}
	.st19{fill:#CEA99B;}
	.st20{fill:#B49287;}
	.st21{opacity:0.1;}
	.st22{fill:#83D4E0;}
	.st23{fill:#F3DAD1;}
	.st24{fill:#FF6D6B;}
	.st25{fill:#F1F1F1;}
</style>
<g id="Circle_Landing" class="st0">
	<g>
		<path d="M293.4,288.7c-23.8-13.7-62.2-13.7-85.9,0c-0.1,0.1-0.2,0.1-0.3,0.2c-15.2,9-20.4,21.5-15.6,32.9
			c2.6,6.1,8,11.9,16.2,16.6c23.8,13.7,62.2,13.7,85.9,0C317.3,324.7,317.2,302.4,293.4,288.7L293.4,288.7z"/>
		<path d="M304.5,282.3c-29.9-17.3-78.4-17.3-108.1,0c-0.8,0.5-1.6,0.9-2.3,1.4l1.5,0.6c0.7-0.4,1.4-0.9,2.1-1.3
			c29-16.8,76.3-16.8,105.5,0c29.2,16.9,29.3,44.3,0.4,61.1c-29,16.9-76.3,16.9-105.5,0c-10.7-6.2-17.5-13.8-20.4-21.8l-1.8,0.1
			c2.9,8.2,9.9,16.1,20.9,22.5c29.9,17.3,78.4,17.3,108.1,0C334.5,327.6,334.4,299.5,304.5,282.3L304.5,282.3z"/>
		<path d="M315.3,276c-35.9-20.7-94.1-20.7-129.8,0c-1.5,0.9-2.9,1.7-4.2,2.6l4,1.6c1.2-0.8,2.4-1.5,3.6-2.2
			c33.8-19.6,88.9-19.6,122.9,0c34,19.6,34.2,51.6,0.4,71.2c-33.8,19.6-88.9,19.6-122.9,0c-12.9-7.5-20.9-16.7-24.1-26.3l-4.9,0.2
			c3.2,10.3,11.8,20.2,25.5,28.2c35.9,20.7,94.1,20.7,129.8,0C351.4,330.4,351.2,296.7,315.3,276L315.3,276z"/>
		<path d="M337.4,263.1c-48.1-27.8-126.2-27.8-174.1,0c-47.8,27.8-47.6,73,0.6,100.8c20.3,11.7,45.8,18.5,72.2,20.3l-0.3-6
			c-23.6-1.8-46.5-8-64.7-18.5c-44.1-25.5-44.3-66.9-0.5-92.4c43.8-25.5,115.4-25.5,159.5,0c28.6,16.5,38.7,39.7,30.4,60.9l9.8,2
			C379.9,307,368.9,281.3,337.4,263.1L337.4,263.1z"/>
		<path d="M155.9,368.6c-52.5-30.3-52.8-79.7-0.6-110c52.2-30.3,137.4-30.3,190,0c52.5,30.3,52.8,79.7,0.6,110
			C293.7,398.9,208.5,398.9,155.9,368.6L155.9,368.6z M347,257.6c-25.9-15-60.3-23.2-96.8-23.2c-36.5,0-70.8,8.2-96.6,23.2
			c-25.7,15-39.9,34.9-39.7,56c0.1,21.2,14.5,41.1,40.4,56c25.9,15,60.3,23.2,96.8,23.2c36.5,0,70.8-8.2,96.6-23.2
			c25.7-15,39.9-34.9,39.7-56C387.3,292.4,372.9,272.5,347,257.6L347,257.6z"/>
		<path d="M424.8,278l-4.2,0.7c18.6,30.4,12.4,64.7-18.8,92.3l3.5,1.4c19.7-17.3,30.2-37.6,30.1-58.9
			C435.3,301.3,431.7,289.3,424.8,278L424.8,278z M374.3,234.3c-34.2-17.9-77.9-27.7-124.3-27.7c-49.4,0-95.7,11.1-130.5,31.3
			c-34.8,20.2-53.9,47.1-53.7,75.7c0.2,28.6,19.5,55.5,54.5,75.7c35,20.2,81.5,31.4,130.8,31.3c29.6,0,58-4,83.6-11.5l-2.1-2.2
			c-67.6,19.8-152.6,13.4-209.3-19.4c-70.6-40.8-71-107.1-0.8-147.9c68-39.5,177.8-40.7,248.7-3.6L374.3,234.3L374.3,234.3z"/>
		<path d="M400.1,226.7c-20.3-11.7-44-20.8-70.3-27c-25.4-6-52.3-9-79.8-9c-27.5,0-54.4,3-79.7,9c-26.3,6.2-49.8,15.3-70,27
			c-20.2,11.7-35.8,25.4-46.4,40.6c-10.2,14.7-15.4,30.3-15.3,46.2c0.1,16,5.4,31.5,15.8,46.2c0.7,1,1.4,1.9,2.1,2.8l4.1-0.8
			c-33.5-44.1-19.3-97.4,42.7-133.4c80.8-46.9,212.6-46.9,293.9,0c81.3,46.9,81.7,123.3,1,170.2c-50.3,29.2-120.3,40.2-185.6,33.1
			l-1,2.5c13.1,1.4,26.4,2.2,39.9,2.2c27.5,0,54.4-3,79.7-9c26.3-6.2,49.8-15.3,70-27c20.2-11.7,35.8-25.4,46.4-40.6
			c10.2-14.7,15.4-30.3,15.3-46.2c-0.1-16-5.4-31.5-15.8-46.2C436.1,252.1,420.4,238.4,400.1,226.7L400.1,226.7z"/>
		<path d="M413.7,218.8c-22.2-12.8-48-22.7-76.7-29.4c-16-3.8-32.6-6.5-49.5-8.1l0.3,0.8c45.8,4.4,89.7,16.8,125.1,37.2
			c90,52,90.5,136.6,1.1,188.6c-89.5,52-235.5,52-325.5,0c-90-52-90.5-136.6-1.1-188.6c10.7-6.2,22.3-11.7,34.5-16.5l-0.3-0.8
			c-12.5,4.9-24.2,10.4-35,16.7c-22,12.8-39,27.7-50.6,44.3c-11.2,16.1-16.8,33-16.7,50.4c0.1,17.4,5.9,34.4,17.2,50.4
			c11.7,16.6,28.9,31.5,51.1,44.3c22.2,12.8,48,22.7,76.7,29.4c27.8,6.5,57.1,9.8,87.1,9.8c30.1,0,59.3-3.3,87-9.8
			c28.7-6.7,54.4-16.6,76.4-29.4c22-12.8,39-27.7,50.6-44.3c11.2-16.1,16.8-33,16.7-50.4c-0.1-17.4-5.9-34.4-17.2-50.4
			C453,246.5,435.9,231.6,413.7,218.8L413.7,218.8z"/>
	</g>
</g>
<g>
	<g>
		<path class="st1" d="M435,194.9L169.6,41.7c-2.8-1.6-5.4-1.4-7.1,0.1l-13.6,7.3c-0.1,0.1-0.3,0.1-0.4,0.2l0,0l0,0
			c-2,1.2-3.2,3.9-3.2,7.7v70.5v17.4v70.5c0,7,4.3,15.2,9.5,18.2l265.4,153.3c2.6,1.5,5,1.5,6.7,0.2l13.5-7.2
			c2.9-1.6,4.1-3.8,4.1-8.3V213.2C444.5,206.1,440.3,198,435,194.9z"/>
		<g>
			<path class="st2" d="M223.9,76.8L223.9,76.8C223.8,76.8,223.8,76.8,223.9,76.8C223.8,76.7,223.8,76.7,223.9,76.8
				c-0.1-0.2-0.1-0.3-0.2-0.4c0,0-0.1-0.1-0.1-0.1c-0.1-0.1-0.1-0.2-0.2-0.3c0,0-0.1-0.1-0.1-0.1c-0.1-0.1-0.3-0.2-0.5-0.3
				l-25.4-14.7c-1.6-0.9-4.4-0.8-6.2,0.3c-0.2,0.1-0.4,0.3-0.6,0.4c-0.1,0-0.1,0.1-0.2,0.1c-0.1,0.1-0.2,0.2-0.3,0.3
				c-0.1,0.1-0.1,0.1-0.2,0.2c-0.1,0.1-0.1,0.2-0.1,0.2c0,0.1-0.1,0.2-0.1,0.2c0,0.1,0,0.1,0,0.2c0,0.1,0,0.2-0.1,0.3c0,0,0,0,0,0
				c0,0,0,0.1,0,0.1l0,0v2.3l0,0c0,0.5,0.4,1.1,1.1,1.5l25.4,14.7c1.6,0.9,4.4,0.8,6.2-0.3c1.1-0.6,1.6-1.4,1.5-2.2l0,0V76.8z"/>
			<g>
				<path class="st3" d="M222.3,79.1L222.3,79.1c-1.8,1.1-4.6,1.2-6.2,0.3l-25.4-14.7c-1.6-0.9-1.4-2.5,0.4-3.6l0,0
					c1.8-1.1,4.6-1.2,6.2-0.3l25.4,14.7C224.4,76.4,224.2,78,222.3,79.1z"/>
			</g>
		</g>
		<g>
			<path class="st2" d="M261.5,97.6L261.5,97.6C261.5,97.6,261.5,97.6,261.5,97.6C261.5,97.6,261.5,97.6,261.5,97.6
				c-0.1-0.2-0.1-0.3-0.2-0.4c0,0-0.1-0.1-0.1-0.1c-0.1-0.1-0.1-0.2-0.2-0.3c0,0-0.1-0.1-0.1-0.1c-0.1-0.1-0.3-0.2-0.5-0.3L235,81.6
				c-1.6-0.9-4.4-0.8-6.2,0.3c-0.2,0.1-0.4,0.3-0.6,0.4c-0.1,0-0.1,0.1-0.2,0.1c-0.1,0.1-0.2,0.2-0.3,0.3c-0.1,0.1-0.1,0.1-0.2,0.2
				c-0.1,0.1-0.1,0.2-0.1,0.2c0,0.1-0.1,0.2-0.1,0.2c0,0.1,0,0.1,0,0.2c0,0.1,0,0.2-0.1,0.3c0,0,0,0,0,0c0,0,0,0.1,0,0.1l0,0v2.3
				l0,0c0,0.5,0.4,1.1,1.1,1.5l25.4,14.7c1.6,0.9,4.4,0.8,6.2-0.3c1.1-0.6,1.6-1.4,1.5-2.2l0,0V97.6z"/>
			<g>
				<path class="st3" d="M260,99.9L260,99.9c-1.8,1.1-4.6,1.2-6.2,0.3l-25.4-14.7c-1.6-0.9-1.4-2.5,0.4-3.6l0,0
					c1.8-1.1,4.6-1.2,6.2-0.3l25.4,14.7C262,97.3,261.8,98.9,260,99.9z"/>
			</g>
		</g>
		<path class="st2" d="M396,372.8l24.2,14c2.6,1.5,5,1.5,6.7,0.2l13.5-7.2c2.9-1.6,4.1-3.8,4.1-8.3V213.2c0-3.7-1.2-7.7-3.1-11.2
			l-26.1,12.2L396,372.8z"/>
		<path class="st4" d="M437.4,311.7l-0.3,0.2c-1,0.6-1.8,0-1.8-1.4v-25.4c0-1.3,0.8-2.9,1.8-3.5l0.3-0.2c1-0.6,1.8,0,1.8,1.4v25.4
			C439.2,309.5,438.4,311.1,437.4,311.7z"/>
		<g>
			<g>
				<path class="st3" d="M429.7,221.2l0,158.3c0,7-4.3,10.3-9.5,7.2L154.7,233.5c-5.3-3-9.5-11.2-9.5-18.2V57c0-7,4.3-10.3,9.5-7.2
					L420.2,203C425.4,206.1,429.7,214.2,429.7,221.2z"/>
				<path class="st5" d="M405.3,206.4v159.9c0,6.6-4,9.6-9,6.8L163,238.3c-4.9-2.9-9-10.5-9-17.1l0-159.9c0-6.6,4-9.6,9-6.8
					l233.3,134.7C401.3,192.1,405.3,199.8,405.3,206.4z"/>
				<g class="st6">
					<path class="st7" d="M171.3,70.2c-4.6-2.6-8.2,0.2-8.2,6.2v27.3l24.3-24.3L171.3,70.2z"/>
					<path class="st7" d="M208.8,91.9c-15.2,15.2-30.5,30.5-45.7,45.7l0,86c0,4.2,1.8,8.9,4.4,12.3l106.4-106.4L208.8,91.9z"/>
					<polygon class="st7" points="287.4,137.2 180.1,244.5 198,254.8 305.2,147.5 					"/>
					<path class="st7" d="M318.7,155.3c-35.7,35.7-71.5,71.5-107.2,107.2l44.6,25.8l107.2-107.2L318.7,155.3z"/>
					<path class="st7" d="M376.7,188.8c-35.7,35.7-71.5,71.5-107.2,107.2l3.5,2l107.2-107.2L376.7,188.8z"/>
					<path class="st7" d="M391.8,200.5L286.5,305.8l31.6,18.2l76.3-76.3V210C394.3,206.8,393.4,203.4,391.8,200.5z"/>
					<polygon class="st7" points="345.1,339.7 394.3,290.4 394.3,268.9 331.5,331.8 					"/>
					<path class="st7" d="M386.1,363.4c4.6,2.6,8.2-0.2,8.2-6.2v-45.5l-35.8,35.8L386.1,363.4z"/>
					<polygon class="st7" points="190,81 163.1,108 163.1,116.4 195.3,84.1 					"/>
				</g>
			</g>
			<g>
				<path class="st5" d="M425.9,293.3v9.8c0,2.4-1.5,3.6-3.3,2.5l-9.5-5.5c-1.8-1.1-3.3-3.9-3.3-6.3V284c0-2.4,1.5-3.6,3.3-2.5
					l9.5,5.5C424.4,288.1,425.9,290.9,425.9,293.3z"/>
				<path class="st1" d="M424.3,293.4v7.9c0,2-1.2,2.9-2.7,2l-7.6-4.4c-1.5-0.8-2.7-3.1-2.7-5.1v-7.9c0-2,1.2-2.9,2.7-2l7.6,4.4
					C423.1,289.1,424.3,291.4,424.3,293.4z"/>
				<path class="st8" d="M412.7,287.2v6.7c0,1.5,1,3.2,2.3,4l1.8,1c0.8-1.3,1.3-3.1,1.3-5.2s-0.5-4.5-1.3-6.8l-1.8-1
					C413.7,285.2,412.7,285.8,412.7,287.2z"/>
			</g>
			<g>
				<path class="st5" d="M419.1,328.4V349c0,0.8-0.5,1.2-1.1,0.9l-0.2-0.1c-0.6-0.4-1.1-1.3-1.1-2.2V327c0-0.8,0.5-1.2,1.1-0.9
					l0.2,0.1C418.6,326.6,419.1,327.5,419.1,328.4z"/>
				<path class="st5" d="M419.1,239.5v20.7c0,0.8-0.5,1.2-1.1,0.9l-0.2-0.1c-0.6-0.4-1.1-1.3-1.1-2.2v-20.7c0-0.8,0.5-1.2,1.1-0.9
					l0.2,0.1C418.6,237.7,419.1,238.7,419.1,239.5z"/>
			</g>
			<g>
				<g>
					<path class="st3" d="M145.2,144.8l11.3,6.5c4.1,2.4,7.5,0.4,7.5-4.3v0c0-4.8-3.4-10.6-7.5-13l-11.3-6.5V144.8z"/>
					<path class="st9" d="M156.3,137.3c2.5,1.5,4.6,5,4.6,7.9s-2,4.1-4.6,2.6c-2.5-1.5-4.6-5-4.6-7.9S153.8,135.8,156.3,137.3z"/>
					<path class="st1" d="M156.3,139.2c1.6,0.9,3,3.2,3,5.1s-1.3,2.6-3,1.7c-1.6-0.9-3-3.2-3-5.1S154.7,138.2,156.3,139.2z"/>
					<path class="st5" d="M156.3,140.8c0.8,0.5,1.5,1.7,1.5,2.7s-0.7,1.4-1.5,0.9c-0.8-0.5-1.5-1.7-1.5-2.7
						C154.8,140.7,155.5,140.3,156.3,140.8z"/>
				</g>
				<g>
					<path class="st9" d="M149.9,122c1.2,0.7,2.1,2.3,2.1,3.7c0,1.4-1,1.9-2.1,1.2c-1.2-0.7-2.1-2.3-2.1-3.7S148.7,121.4,149.9,122z
						"/>
					<path class="st1" d="M149.9,123.2c0.6,0.4,1.1,1.2,1.1,1.9c0,0.7-0.5,1-1.1,0.6c-0.6-0.4-1.1-1.2-1.1-1.9
						S149.3,122.9,149.9,123.2z"/>
				</g>
			</g>
		</g>
	</g>
	<g>
		<g>
			<g>
				<g>
					<polygon class="st10" points="298.2,201.6 298.2,316.5 178.6,385.5 178.6,270.7 					"/>
					<polyline class="st11" points="178.5,285.6 298.2,216.6 298.2,203.2 178.6,270.7 					"/>
					<path class="st12" d="M304,205.2l-61.6-92c-0.9-1.4-2.3-2.2-3.2-1.9l-61.6,20.9c-0.2,0.1-0.3,0.1-0.4,0.2L58,201.6l63.9-16
						l62.9,93.4l119.7-69.3C305.3,208.9,305.1,206.9,304,205.2z"/>
					<g>
						<polygon class="st13" points="196.2,126 185.2,129.7 65.8,199.7 73.9,197.6 						"/>
						<polygon class="st13" points="222.6,117 211.6,120.8 85.2,194.8 93.3,192.8 						"/>
					</g>
					<path class="st14" d="M304.4,209.7c0.9-0.8,0.7-2.8-0.4-4.4l-61.6-92c-0.2-0.3-0.4-0.6-0.7-0.8l-123.4,70l2.8,3.4l0.7-0.2
						l62.9,93.4L304.4,209.7z"/>
					<g>
						<polygon class="st15" points="268.2,151.6 264.4,146 141.9,215.4 145.7,221.1 						"/>
						<polygon class="st15" points="259.1,138.1 255.3,132.4 132.8,201.8 136.6,207.5 						"/>
						<polygon class="st15" points="123.6,188.2 127.5,193.9 250,124.5 246.2,118.8 						"/>
						<polygon class="st15" points="286.4,178.8 282.5,173.2 160.2,242.5 164,248.2 						"/>
						<path class="st15" d="M304.5,206.1c-0.1-0.3-0.3-0.6-0.5-0.8l-3.3-4.9l-122.3,69.3l3.8,5.7L304.5,206.1z"/>
						<polygon class="st15" points="295.5,192.4 291.6,186.8 169.3,256.1 173.2,261.8 						"/>
						<polygon class="st15" points="277.3,165.2 273.5,159.6 151.1,229 154.9,234.6 						"/>
					</g>
					<polygon class="st11" points="298.2,278.9 298.2,316.5 178.6,385.5 178.6,347.8 					"/>
				</g>
				<g>
					<g>
						<g>
							<path class="st16" d="M191.5,318.9l37.5-21.6c0.5-0.3,0.9-1.1,0.9-1.7v-32.6c0-0.7-0.4-1-0.9-0.7l-37.5,21.6
								c-0.5,0.3-0.9,1.1-0.9,1.7v32.6C190.6,318.9,191,319.2,191.5,318.9z"/>
							<path class="st17" d="M194.1,314.9l32.3-18.6c0.5-0.3,0.9-1.1,0.9-1.7V267c0-0.7-0.4-1-0.9-0.7l-32.3,18.6
								c-0.5,0.3-0.9,1.1-0.9,1.7v27.5C193.2,314.8,193.6,315.1,194.1,314.9z"/>
							<g>
								<path class="st18" d="M224.4,269.8c0.5-0.3,0.8,0,0.8,0.5v6.5l-6.5-3.7L224.4,269.8z"/>
								<path class="st18" d="M212.6,276.6l12.6,7.3v5.6c-5.8-3.4-11.6-6.7-17.4-10.1L212.6,276.6z"/>
								<path class="st18" d="M196.2,286.1l5.5-3.2l21.2,12.3l-6.4,3.7c-7-4-14-8.1-21-12.1C195.7,286.5,195.9,286.2,196.2,286.1z"
									/>
								<path class="st18" d="M210.4,302.4l-6.1,3.5l-9-5.2v-7.1C200.4,296.6,205.4,299.5,210.4,302.4z"/>
								<path class="st18" d="M196.2,310.6c-0.5,0.3-0.8,0-0.8-0.5v-2.3l2.8,1.6L196.2,310.6z"/>
							</g>
							<polygon class="st16" points="209,306.3 211.6,304.8 211.6,274.9 209,276.3 							"/>
						</g>
					</g>
					<g>
						<polygon class="st19" points="187.4,320.2 189.9,322.3 189.9,320.2 187.4,318.1 						"/>
						<polygon class="st20" points="189.9,322.3 235.8,295.8 235.8,293.7 189.9,320.2 						"/>
						<polygon class="st10" points="235.8,293.7 232.6,292 187.4,318.1 189.9,320.2 						"/>
					</g>
				</g>
			</g>
			<g>
				<polygon class="st16" points="178.6,270.7 121.2,184.9 63.7,204.4 63.7,319.2 178.6,385.5 				"/>
				<polygon class="st21" points="63.7,204.4 63.7,210.4 121.1,190.5 178.5,285.6 178.6,285.6 178.6,270.7 121.2,184.9 				"/>
				<g>
					<path class="st7" d="M149.7,245.2l-28.9-43.1c-0.4-0.6-1-0.9-1.4-0.8l-28.9,9.8c-0.8,0.3-0.4,2,0.7,2.6l57.7,33.3
						C150.1,247.7,150.5,246.4,149.7,245.2z"/>
					<g>
						<path class="st22" d="M142.5,238.7l-21.8-32.6c-0.3-0.4-0.7-0.7-1-0.6l-21.8,7.4c-0.6,0.2-0.3,1.5,0.5,2l43.6,25.2
							C142.7,240.5,143.1,239.6,142.5,238.7z"/>
						<path class="st17" d="M138.7,235.3l-18.1-27.1c-0.3-0.4-0.6-0.6-0.9-0.5l-18.1,6.2c-0.5,0.2-0.2,1.3,0.4,1.7l36.2,20.9
							C138.9,236.8,139.2,236,138.7,235.3z"/>
						<g>
							<path class="st18" d="M120.5,210.1c-0.2-0.3-0.5-0.5-0.7-0.4l-14.9,5.1c-0.4,0.1-0.2,1.1,0.4,1.4l3.4,2
								c4.1-2.4,8.3-4.8,12.4-7.2L120.5,210.1z"/>
							<path class="st18" d="M123.3,214.2c-3.5,2-7.1,4.1-10.6,6.1l5.1,2.9c2.8-1.6,5.6-3.2,8.4-4.8L123.3,214.2z"/>
							<polygon class="st18" points="128.3,221.7 121.7,225.6 123.8,226.8 129.5,223.5 							"/>
							<path class="st18" d="M135.4,232.3l-3.7-5.5l-3.9,2.3l7.3,4.2C135.6,233.6,135.8,233,135.4,232.3z"/>
						</g>
					</g>
				</g>
				<polygon class="st23" points="63.7,281.5 63.7,319.2 178.6,385.5 178.6,347.8 				"/>
				<polygon class="st21" points="63.7,306.3 65.4,319.1 176.5,382.2 178.6,371.4 178.6,385.5 63.7,319.2 				"/>
				<g>
					<polygon class="st10" points="140,363.3 102.6,341.7 102.6,284.7 140,306.3 					"/>
					<polygon class="st23" points="135.9,308.7 106.8,291.9 102.6,284.7 140,306.3 					"/>
					<polygon class="st0" points="135.9,360.9 106.8,344.1 106.8,291.9 135.9,308.7 					"/>
					<polygon class="st7" points="134.6,360.1 108.1,344.9 108.1,294.4 134.6,309.7 					"/>
					<ellipse transform="matrix(0.866 -0.5 0.5 0.866 -148.729 109.564)" class="st10" cx="130.1" cy="332.3" rx="1.5" ry="2.6"/>
				</g>
				<g>
					<g>
						<g>
							<path class="st7" d="M113,275.2l-37.5-21.6c-0.5-0.3-0.9-1.1-0.9-1.7v-32.6c0-0.7,0.4-1,0.9-0.7l37.5,21.6
								c0.5,0.3,0.9,1.1,0.9,1.7v32.6C113.9,275.2,113.5,275.5,113,275.2z"/>
							<path class="st17" d="M110.4,271.2l-32.3-18.6c-0.5-0.3-0.9-1.1-0.9-1.7v-27.5c0-0.7,0.4-1,0.9-0.7l32.3,18.6
								c0.5,0.3,0.9,1.1,0.9,1.7v27.5C111.3,271.2,110.9,271.5,110.4,271.2z"/>
							<g>
								<path class="st18" d="M80.1,226.1c-0.5-0.3-0.8,0-0.8,0.5v6.5l6.5-3.7L80.1,226.1z"/>
								<path class="st18" d="M91.9,232.9l-12.6,7.3v5.6c5.8-3.4,11.6-6.7,17.4-10.1L91.9,232.9z"/>
								<path class="st18" d="M108.3,242.4l-5.5-3.2l-21.2,12.3l6.4,3.7c7-4,14-8.1,21-12.1C108.8,242.8,108.6,242.6,108.3,242.4z"
									/>
								<path class="st18" d="M94.1,258.7l6.1,3.5l9-5.2V250C104.1,252.9,99.1,255.8,94.1,258.7z"/>
								<path class="st18" d="M108.3,266.9c0.5,0.3,0.8,0,0.8-0.5v-2.3l-2.8,1.6L108.3,266.9z"/>
							</g>
							<polygon class="st7" points="95.5,262.6 92.9,261.1 92.9,231.2 95.5,232.7 							"/>
						</g>
					</g>
					<g>
						<polygon class="st19" points="117.1,276.5 114.6,278.6 114.6,276.5 117.1,274.4 						"/>
						<polygon class="st10" points="114.6,278.6 68.7,252.1 68.7,250 114.6,276.5 						"/>
						<polygon class="st23" points="68.7,250 71.9,248.3 117.1,274.4 114.6,276.5 						"/>
					</g>
				</g>
				<g>
					<path class="st24" d="M182.7,279c-0.6-0.3-1.1-0.9-1.6-1.6l-60-89.6l-60,20.4c-1.1,0.4-2.7-0.8-3.6-2.6c-0.9-1.8-0.7-3.6,0.4-4
						l61.6-20.9c0.9-0.3,2.3,0.5,3.2,1.9l61.6,92c1.1,1.7,1.3,3.7,0.4,4.4C184.2,279.5,183.5,279.4,182.7,279z"/>
				</g>
				<g>
					<g>
						<g>
							<path class="st7" d="M167,306.8l-37.5-21.6c-0.5-0.3-0.9-1.1-0.9-1.7v-32.6c0-0.7,0.4-1,0.9-0.7l37.5,21.6
								c0.5,0.3,0.9,1.1,0.9,1.7v32.6C167.9,306.8,167.5,307.1,167,306.8z"/>
							<path class="st17" d="M164.4,302.7l-32.3-18.6c-0.5-0.3-0.9-1.1-0.9-1.7v-27.5c0-0.7,0.4-1,0.9-0.7l32.3,18.6
								c0.5,0.3,0.9,1.1,0.9,1.7v27.5C165.3,302.7,164.9,303,164.4,302.7z"/>
							<g>
								<path class="st18" d="M134.1,257.7c-0.5-0.3-0.8,0-0.8,0.5v6.5l6.5-3.7L134.1,257.7z"/>
								<path class="st18" d="M145.9,264.5l-12.6,7.3v5.6c5.8-3.4,11.6-6.7,17.4-10.1L145.9,264.5z"/>
								<path class="st18" d="M162.3,274l-5.5-3.2L135.6,283l6.4,3.7c7-4,14-8.1,21-12.1C162.8,274.4,162.6,274.1,162.3,274z"/>
								<path class="st18" d="M148.1,290.3l6.1,3.5l9-5.2v-7.1C158.1,284.5,153.1,287.4,148.1,290.3z"/>
								<path class="st18" d="M162.3,298.5c0.5,0.3,0.8,0,0.8-0.5v-2.3l-2.8,1.6L162.3,298.5z"/>
							</g>
							<polygon class="st7" points="149.5,294.2 146.9,292.7 146.9,262.7 149.5,264.2 							"/>
						</g>
					</g>
					<g>
						<polygon class="st19" points="171.1,308.1 168.6,310.2 168.6,308.1 171.1,306 						"/>
						<polygon class="st10" points="168.6,310.2 122.7,283.7 122.7,281.6 168.6,308.1 						"/>
						<polygon class="st23" points="122.7,281.6 125.9,279.9 171.1,306 168.6,308.1 						"/>
					</g>
				</g>
			</g>
		</g>
		<g>
			<g>
				<g>
					<polygon class="st16" points="243.3,252.7 243.3,348.2 335.8,401.6 335.8,326.1 					"/>
					<polygon class="st23" points="243.3,310.5 243.3,348.2 335.8,401.6 335.8,364 					"/>
				</g>
				<g>
					<polygon class="st23" points="252.9,353.8 322,393.7 322,324.3 252.9,284.4 					"/>
					<polygon class="st7" points="255.1,355 319.8,392.4 319.8,326.3 255.1,288.9 					"/>
					<g>
						<polygon class="st25" points="255.1,293.8 319.8,331.2 319.8,326.3 255.1,288.9 						"/>
						<polygon class="st25" points="255.1,306 319.8,343.4 319.8,338.5 255.1,301.1 						"/>
						<polygon class="st25" points="255.1,318.3 319.8,355.7 319.8,350.8 255.1,313.4 						"/>
						<polygon class="st25" points="255.1,330.5 319.8,367.9 319.8,363 255.1,325.6 						"/>
						<polygon class="st25" points="255.1,342.8 319.8,380.2 319.8,375.3 255.1,337.9 						"/>
						<polygon class="st25" points="255.1,355 319.8,392.4 319.8,387.5 255.1,350.1 						"/>
					</g>
				</g>
				<g>
					<polygon class="st10" points="390.9,294.5 390.9,370 335.8,401.8 335.8,326.2 					"/>
					<polygon class="st11" points="390.9,332.3 390.9,370 335.8,401.8 335.8,364 					"/>
					<polygon class="st21" points="319.8,392.4 319.8,389.9 333.7,398.1 335.8,380.2 337.4,398.1 388.9,368.7 390.9,343.4 
						390.9,370 335.8,401.8 					"/>
					<polygon class="st11" points="335.8,339 390.9,305.2 390.9,294.5 335.8,326.2 					"/>
				</g>
				<polygon class="st21" points="335.8,339 243.3,259.4 243.3,253.5 335.8,326.1 				"/>
				<g>
					<g>
						<g>
							<polygon class="st14" points="340.8,330.2 398.9,296.7 301.3,216.6 243.3,250.1 							"/>
							<g>
								<polygon class="st15" points="247.3,253.4 252.9,258 311.9,225.2 306.2,220.6 								"/>
								<polygon class="st15" points="325.3,236.2 319.7,231.6 260.8,264.4 266.4,269 								"/>
								<polygon class="st15" points="338.8,247.3 333.2,242.7 274.2,275.5 279.8,280.1 								"/>
								<polygon class="st15" points="392.6,291.5 387,286.9 328,319.7 333.7,324.3 								"/>
								<polygon class="st15" points="352.2,258.3 346.6,253.7 287.7,286.5 293.3,291.1 								"/>
								<polygon class="st15" points="379.2,280.5 373.5,275.8 314.6,308.6 320.2,313.3 								"/>
								<polygon class="st15" points="365.7,269.4 360.1,264.8 301.1,297.6 306.8,302.2 								"/>
							</g>
						</g>
						<polygon class="st24" points="243.3,250.1 243.3,255 340.8,334.3 340.8,330.2 						"/>
						<polygon class="st14" points="398.9,300.7 340.8,334.3 340.8,330.2 398.9,296.7 						"/>
					</g>
				</g>
			</g>
		</g>
	</g>
	<polygon class="st21" points="178.6,385.5 239.4,346.4 243.3,253.5 245.3,346.8 255.1,352.6 255.1,355 243.3,348.2 	"/>
</g>
</svg>
