<?xml version="1.0" encoding="utf-8"?>
<!-- Generator: Adobe Illustrator 25.0.1, SVG Export Plug-In . SVG Version: 6.00 Build 0)  -->
<svg version="1.1" id="Layer_1" xmlns="http://www.w3.org/2000/svg" xmlns:xlink="http://www.w3.org/1999/xlink" x="0px" y="0px"
	 viewBox="0 0 500 500" style="enable-background:new 0 0 500 500;" xml:space="preserve">
<style type="text/css">
	.st0{opacity:0.15;}
	.st1{opacity:0.1;fill:#1E1E1E;}
	.st2{fill:#EAEAE9;}
	.st3{fill:#1E1E1E;}
	.st4{enable-background:new    ;}
	.st5{clip-path:url(#SVGID_1_);}
	.st6{fill:url(#SVGID_2_);}
	.st7{fill:#5C5C5C;}
	.st8{fill:#D3D3D3;}
	.st9{fill:#C1C1C1;}
	.st10{fill:#E9E9E9;}
	.st11{fill:#D8D8D7;}
	.st12{fill:#231F20;}
	.st13{clip-path:url(#SVGID_3_);}
	.st14{fill:#9F9E9E;}
	.st15{clip-path:url(#SVGID_4_);}
	.st16{fill:#FFFFFF;}
	.st17{fill:#5DA6DB;}
	.st18{fill:#ECECEC;}
	.st19{fill:#F6B550;}
	.st20{fill:#FDC871;}
	.st21{fill:#FFCB38;}
	.st22{fill:#D6A859;}
	.st23{fill:#9D9D9D;}
	.st24{fill:#D1D1D1;}
	.st25{fill:#D1D1D0;}
	.st26{fill:#E2E2E2;}
	.st27{fill:#72BE4B;}
	.st28{fill:#FFE416;}
	.st29{fill:#ED4A4D;}
	.st30{fill:#FCFDFF;}
	.st31{fill:#D51F26;}
	.st32{fill:#F3F0F1;}
	.st33{fill:#E0E0E0;}
	.st34{fill:url(#SVGID_5_);}
	.st35{fill:#575757;}
	.st36{opacity:0.1;}
	.st37{fill:#5E9E43;}
	.st38{fill:#F1BAA9;}
	.st39{fill:#89451F;}
	.st40{fill:#FAC2B0;}
	.st41{fill:#5F3D37;}
	.st42{fill:#838383;}
	.st43{fill:#D77627;}
	.st44{fill:#F58523;}
	.st45{fill:#B2B2B2;}
	.st46{fill:#EDECED;}
	.st47{fill:#AEADAD;}
</style>
<g id="Circle_Landing" class="st0">
	<g>
		<path d="M293.4,258.7c-23.8-13.7-62.2-13.7-85.9,0c-0.1,0.1-0.2,0.1-0.3,0.2c-15.2,9-20.4,21.5-15.6,32.9
			c2.6,6.1,8,11.9,16.2,16.6c23.8,13.7,62.2,13.7,85.9,0C317.3,294.7,317.2,272.4,293.4,258.7L293.4,258.7z"/>
		<path d="M304.5,252.3c-29.9-17.3-78.4-17.3-108.1,0c-0.8,0.5-1.6,0.9-2.3,1.4l1.5,0.6c0.7-0.4,1.4-0.9,2.1-1.3
			c29-16.8,76.3-16.8,105.5,0c29.2,16.9,29.3,44.3,0.4,61.1c-29,16.9-76.3,16.9-105.5,0c-10.7-6.2-17.5-13.8-20.4-21.8l-1.8,0.1
			c2.9,8.2,9.9,16.1,20.9,22.5c29.9,17.3,78.4,17.3,108.1,0C334.5,297.6,334.4,269.5,304.5,252.3L304.5,252.3z"/>
		<path d="M315.3,246c-35.9-20.7-94.1-20.7-129.8,0c-1.5,0.9-2.9,1.7-4.2,2.6l4,1.6c1.2-0.8,2.4-1.5,3.6-2.2
			c33.8-19.6,88.9-19.6,122.9,0s34.2,51.6,0.4,71.2s-88.9,19.6-122.9,0c-12.9-7.5-20.9-16.7-24.1-26.3l-4.9,0.2
			c3.2,10.3,11.8,20.2,25.5,28.2c35.9,20.7,94.1,20.7,129.8,0C351.4,300.4,351.2,266.7,315.3,246L315.3,246z"/>
		<path d="M337.4,233.1c-48.1-27.8-126.2-27.8-174.1,0c-47.8,27.8-47.6,73,0.6,100.8c20.3,11.7,45.8,18.5,72.2,20.3l-0.3-6
			c-23.6-1.8-46.5-8-64.7-18.5c-44.1-25.5-44.3-66.9-0.5-92.4s115.4-25.5,159.5,0c28.6,16.5,38.7,39.7,30.4,60.9l9.8,2
			C379.9,277,368.9,251.3,337.4,233.1L337.4,233.1z"/>
		<path d="M155.9,338.6c-52.5-30.3-52.8-79.7-0.6-110s137.4-30.3,190,0c52.5,30.3,52.8,79.7,0.6,110
			C293.7,368.9,208.5,368.9,155.9,338.6L155.9,338.6z M347,227.6c-25.9-15-60.3-23.2-96.8-23.2s-70.8,8.2-96.6,23.2
			c-25.7,15-39.9,34.9-39.7,56c0.1,21.2,14.5,41.1,40.4,56c25.9,15,60.3,23.2,96.8,23.2s70.8-8.2,96.6-23.2
			c25.7-15,39.9-34.9,39.7-56C387.3,262.4,372.9,242.5,347,227.6L347,227.6z"/>
		<path d="M424.8,248l-4.2,0.7c18.6,30.4,12.4,64.7-18.8,92.3l3.5,1.4c19.7-17.3,30.2-37.6,30.1-58.9
			C435.3,271.3,431.7,259.3,424.8,248L424.8,248z M374.3,204.3c-34.2-17.9-77.9-27.7-124.3-27.7c-49.4,0-95.7,11.1-130.5,31.3
			S65.6,255,65.8,283.6c0.2,28.6,19.5,55.5,54.5,75.7c35,20.2,81.5,31.4,130.8,31.3c29.6,0,58-4,83.6-11.5l-2.1-2.2
			C265,396.7,180,390.3,123.3,357.5c-70.6-40.8-71-107.1-0.8-147.9c68-39.5,177.8-40.7,248.7-3.6L374.3,204.3L374.3,204.3z"/>
		<path d="M400.1,196.7c-20.3-11.7-44-20.8-70.3-27c-25.4-6-52.3-9-79.8-9s-54.4,3-79.7,9c-26.3,6.2-49.8,15.3-70,27
			s-35.8,25.4-46.4,40.6c-10.2,14.7-15.4,30.3-15.3,46.2c0.1,16,5.4,31.5,15.8,46.2c0.7,1,1.4,1.9,2.1,2.8l4.1-0.8
			c-33.5-44.1-19.3-97.4,42.7-133.4c80.8-46.9,212.6-46.9,293.9,0s81.7,123.3,1,170.2c-50.3,29.2-120.3,40.2-185.6,33.1l-1,2.5
			c13.1,1.4,26.4,2.2,39.9,2.2c27.5,0,54.4-3,79.7-9c26.3-6.2,49.8-15.3,70-27s35.8-25.4,46.4-40.6c10.2-14.7,15.4-30.3,15.3-46.2
			c-0.1-16-5.4-31.5-15.8-46.2C436.1,222.1,420.4,208.4,400.1,196.7L400.1,196.7z"/>
		<path d="M413.7,188.8c-22.2-12.8-48-22.7-76.7-29.4c-16-3.8-32.6-6.5-49.5-8.1l0.3,0.8c45.8,4.4,89.7,16.8,125.1,37.2
			c90,52,90.5,136.6,1.1,188.6c-89.5,52-235.5,52-325.5,0S-2,241.3,87.4,189.3c10.7-6.2,22.3-11.7,34.5-16.5l-0.3-0.8
			c-12.5,4.9-24.2,10.4-35,16.7c-22,12.8-39,27.7-50.6,44.3c-11.2,16.1-16.8,33-16.7,50.4c0.1,17.4,5.9,34.4,17.2,50.4
			c11.7,16.6,28.9,31.5,51.1,44.3s48,22.7,76.7,29.4c27.8,6.5,57.1,9.8,87.1,9.8c30.1,0,59.3-3.3,87-9.8
			c28.7-6.7,54.4-16.6,76.4-29.4s39-27.7,50.6-44.3c11.2-16.1,16.8-33,16.7-50.4C482,266,476.2,249,464.9,233
			C453,216.5,435.9,201.6,413.7,188.8L413.7,188.8z"/>
	</g>
</g>
<g>
	<path class="st1" d="M379.6,294.9l-20.7-11.9l-146.6-84.6L194.6,188c-2.3-1.3-6-1.3-8.3,0L63.5,259.4c-2.3,1.3-2.3,3.5,0,4.8
		l185.3,107c2.1,1.2,5.6,1.2,7.7,0l123-71.5C381.9,298.4,381.9,296.2,379.6,294.9z"/>
	<g>
		<g>
			<path class="st2" d="M372.6,144.1l-180-103.9c-2.2-1.3-4.1-0.2-4.1,2.3l-0.4,138.1c0,2.6,1.8,5.7,4,7l180.3,104.1
				c2.1,1.2,3.8,0.2,3.8-2.2l0.4-138.4C376.6,148.5,374.8,145.4,372.6,144.1z"/>
			<g>
				<path class="st3" d="M371.9,145l-180-103.9c-2-1.2-3.7-0.2-3.7,2.1l-0.4,138.1c0,2.3,1.6,5.1,3.6,6.3l180.3,104.1
					c1.9,1.1,3.4,0.2,3.4-1.9l0.4-138.4C375.5,149,373.9,146.2,371.9,145L371.9,145z"/>
				<path d="M191.5,187.6c-2-1.2-3.6-4-3.6-6.3l0.4-138.1c0-2.3,1.6-3.3,3.7-2.1l180,103.9c2,1.2,3.6,4,3.6,6.3l-0.4,138.4
					c0,2.1-1.5,3-3.4,1.9L191.5,187.6L191.5,187.6z M371.9,144.5l-180-103.9c-2.2-1.3-4.1-0.2-4.1,2.3L187.4,181c0,2.6,1.8,5.7,4,7
					l180.3,104.1c2.1,1.2,3.8,0.2,3.8-2.2l0.4-138.4C375.9,149,374.1,145.8,371.9,144.5L371.9,144.5z"/>
			</g>
			<g>
				<g class="st4">
					<defs>
						<polygon id="SVGID_8_" class="st4" points="194.2,181.4 194.6,50.1 370,151.4 369.6,282.7 						"/>
					</defs>
					<clipPath id="SVGID_1_">
						<use xlink:href="#SVGID_8_"  style="overflow:visible;"/>
					</clipPath>
					<g class="st5">
						<linearGradient id="SVGID_2_" gradientUnits="userSpaceOnUse" x1="194.2394" y1="166.3993" x2="369.9749" y2="166.3993">
							<stop  offset="0" style="stop-color:#4B5FAA"/>
							<stop  offset="1" style="stop-color:#242063"/>
						</linearGradient>
						<path class="st6" d="M369.2,151L195.4,50.6c-0.4-0.2-0.7,0-0.7,0.4l-0.4,129.6c0,0.5,0.3,1,0.7,1.3l173.9,100.4
							c0.4,0.2,0.7,0,0.7-0.4l0.4-129.6C370,151.8,369.6,151.2,369.2,151L369.2,151z"/>
					</g>
				</g>
			</g>
			<g>
				<path class="st7" d="M281.7,95.3c-0.6-0.4-1.1-0.1-1.1,0.7s0.5,1.6,1.1,2c0.6,0.4,1.1,0.1,1.1-0.7S282.3,95.7,281.7,95.3
					L281.7,95.3z"/>
			</g>
		</g>
		<g>
			<path class="st8" d="M372.3,292.2v4h0c0,0.9-0.5,1.7-1.6,2.3L251,368.1c-1,0.6-2.4,0.9-3.7,0.9c-1.4,0-2.7-0.3-3.8-0.9L63.2,264
				c-1.1-0.6-1.7-1.5-1.7-2.3l0,0v-4l4.6-0.1L182.6,190c2.2-1.3,5.8-1.3,8.1,0l17.3,10l142.6,82.3l14.5,8.4l2.3,1.3L372.3,292.2z"/>
			<path class="st9" d="M372.3,292.2v4h0c0,0.9-0.5,1.7-1.6,2.3L251,368.1c-1,0.6-2.4,0.9-3.7,0.9l0,0v-12l117.8-66.3l2.3,1.3
				L372.3,292.2z"/>
			<g>
				<path class="st10" d="M117.2,285.8c-0.6-0.4-0.6-0.9,0-1.3L156,262c0.6-0.4,1.6-0.4,2.2,0l79.5,45.9c0.6,0.4,0.6,0.9,0,1.3
					l-38.8,22.6c-0.6,0.4-1.6,0.4-2.2,0L117.2,285.8L117.2,285.8z M120.9,236.6c-1.2-0.7-1.2-1.8,0-2.4l62.4-36.2
					c1.2-0.7,3-0.7,4.2,0l160.8,92.8c1.2,0.7,1.2,1.8,0,2.4l-62.4,36.2c-1.2,0.7-3,0.7-4.2,0L120.9,236.6L120.9,236.6z M370.7,289.9
					l-20.1-11.6l-1.9,1.1L206,197.1l1.9-1.1l-17.3-10c-2.2-1.3-5.9-1.3-8.1,0L63.2,255.4c-2.2,1.3-2.2,3.4,0,4.7l180.3,104.1
					c2.1,1.2,5.4,1.2,7.5,0l119.7-69.5C372.9,293.3,372.9,291.2,370.7,289.9L370.7,289.9z"/>
				<path class="st11" d="M253.9,309.6c-0.7-0.4-0.7-1,0-1.4l2.2-1.3l9.5,5.5l-2.2,1.3c-0.7,0.4-1.8,0.4-2.5,0L253.9,309.6
					L253.9,309.6z M265.1,316.1c-0.7-0.4-0.7-1,0-1.4l2.2-1.3l9.5,5.5l-2.2,1.3c-0.7,0.4-1.8,0.4-2.5,0L265.1,316.1L265.1,316.1z
					 M276.4,322.6c-0.7-0.4-0.7-1,0-1.4l2.2-1.3l9.5,5.5l-2.2,1.3c-0.7,0.4-1.8,0.4-2.5,0L276.4,322.6L276.4,322.6z M125.2,235.3
					c-0.4-0.2-0.4-0.7,0-0.9l6.7-3.9c0.4-0.2,1.1-0.2,1.6,0l7.8,4.5c0.4,0.2,0.4,0.7,0,0.9l-6.7,3.9c-0.4,0.2-1.1,0.2-1.6,0
					L125.2,235.3L125.2,235.3z M136,241.6c-0.4-0.3-0.4-0.7,0-0.9l6.7-3.9c0.4-0.2,1.1-0.2,1.6,0l7.8,4.5c0.4,0.2,0.4,0.7,0,0.9
					l-6.7,3.9c-0.4,0.2-1.1,0.2-1.6,0L136,241.6L136,241.6z M146.8,247.8c-0.4-0.2-0.4-0.7,0-0.9l6.7-3.9c0.4-0.2,1.1-0.2,1.6,0
					l7.8,4.5c0.4,0.3,0.4,0.7,0,0.9l-6.7,3.9c-0.4,0.2-1.1,0.2-1.6,0L146.8,247.8L146.8,247.8z M157.6,254c-0.4-0.2-0.4-0.7,0-0.9
					l6.7-3.9c0.4-0.2,1.1-0.2,1.6,0l7.8,4.5c0.4,0.2,0.4,0.7,0,0.9l-6.7,3.9c-0.4,0.2-1.1,0.2-1.6,0L157.6,254L157.6,254z
					 M167.5,259.7l8.3-4.8l50.5,29.2l-8.3,4.8L167.5,259.7L167.5,259.7z M220.9,290.6c-0.4-0.3-0.4-0.7,0-0.9l6.7-3.9
					c0.4-0.2,1.1-0.2,1.6,0l7.8,4.5c0.4,0.2,0.4,0.7,0,0.9l-6.7,3.9c-0.4,0.2-1.1,0.2-1.6,0L220.9,290.6L220.9,290.6z M231.7,296.8
					c-0.4-0.2-0.4-0.7,0-0.9l6.7-3.9c0.4-0.2,1.1-0.2,1.6,0l7.8,4.5c0.4,0.2,0.4,0.7,0,0.9l-6.7,3.9c-0.4,0.2-1.1,0.2-1.6,0
					L231.7,296.8L231.7,296.8z M242.5,303.1c-0.4-0.2-0.4-0.7,0-0.9l6.7-3.9c0.4-0.2,1.1-0.2,1.6,0l7.8,4.5c0.4,0.2,0.4,0.7,0,0.9
					l-6.7,3.9c-0.4,0.2-1.1,0.2-1.6,0L242.5,303.1L242.5,303.1z M257.5,306.1l2.2-1.3c0.7-0.4,1.8-0.4,2.5,0l7,4
					c0.7,0.4,0.7,1,0,1.4l-2.2,1.3L257.5,306.1L257.5,306.1z M268.7,312.6l2.2-1.3c0.7-0.4,1.8-0.4,2.5,0l7,4c0.7,0.4,0.7,1,0,1.4
					l-2.2,1.3L268.7,312.6L268.7,312.6z M279.9,319.1l2.2-1.3c0.7-0.4,1.8-0.4,2.5,0l7,4c0.7,0.4,0.7,1,0,1.4l-2.2,1.3L279.9,319.1
					L279.9,319.1z M265.2,304c-0.4-0.2-0.4-0.7,0-0.9l6.7-3.9c0.4-0.2,1.1-0.2,1.6,0l29.1,16.8c0.4,0.2,0.4,0.7,0,0.9l-6.7,3.9
					c-0.4,0.2-1.1,0.2-1.6,0L265.2,304L265.2,304z M135.7,229.2c-0.4-0.2-0.4-0.7,0-0.9l6.7-3.9c0.4-0.2,1.1-0.2,1.6,0l18.3,10.6
					c0.4,0.2,0.4,0.7,0,0.9l-6.7,3.9c-0.4,0.2-1.1,0.2-1.6,0L135.7,229.2L135.7,229.2z M156.9,241.4c-0.4-0.2-0.4-0.7,0-0.9l6.7-3.9
					c0.4-0.2,1.1-0.2,1.6,0l7.8,4.5c0.4,0.2,0.4,0.7,0,0.9l-6.7,3.9c-0.4,0.2-1.1,0.2-1.6,0L156.9,241.4L156.9,241.4z M167.6,247.7
					c-0.4-0.2-0.4-0.7,0-0.9l6.7-3.9c0.4-0.2,1.1-0.2,1.6,0l7.8,4.5c0.4,0.2,0.4,0.7,0,0.9l-6.7,3.9c-0.4,0.2-1.1,0.2-1.6,0
					L167.6,247.7L167.6,247.7z M178.4,253.9c-0.4-0.3-0.4-0.7,0-0.9l6.7-3.9c0.4-0.2,1.1-0.2,1.6,0l7.8,4.5c0.4,0.2,0.4,0.7,0,0.9
					l-6.7,3.9c-0.4,0.2-1.1,0.2-1.6,0L178.4,253.9L178.4,253.9z M189.2,260.1c-0.4-0.2-0.4-0.7,0-0.9l6.7-3.9c0.4-0.2,1.1-0.2,1.6,0
					l7.8,4.5c0.4,0.2,0.4,0.7,0,0.9l-6.7,3.9c-0.4,0.2-1.1,0.2-1.6,0L189.2,260.1L189.2,260.1z M200,266.4c-0.4-0.2-0.4-0.7,0-0.9
					l6.7-3.9c0.4-0.2,1.1-0.2,1.6,0l7.8,4.5c0.4,0.2,0.4,0.7,0,0.9l-6.7,3.9c-0.4,0.2-1.1,0.2-1.6,0L200,266.4L200,266.4z
					 M210.8,272.6c-0.4-0.2-0.4-0.7,0-0.9l6.7-3.9c0.4-0.2,1.1-0.2,1.6,0l7.8,4.5c0.4,0.2,0.4,0.7,0,0.9l-6.7,3.9
					c-0.4,0.2-1.1,0.2-1.6,0L210.8,272.6L210.8,272.6z M221.6,278.9c-0.4-0.2-0.4-0.7,0-0.9l6.7-3.9c0.4-0.2,1.1-0.2,1.6,0l7.8,4.5
					c0.4,0.3,0.4,0.7,0,0.9l-6.7,3.9c-0.4,0.2-1.1,0.2-1.6,0L221.6,278.9L221.6,278.9z M232.4,285.1c-0.4-0.3-0.4-0.7,0-0.9l6.7-3.9
					c0.4-0.2,1.1-0.2,1.6,0l7.8,4.5c0.4,0.2,0.4,0.7,0,0.9l-6.7,3.9c-0.4,0.2-1.1,0.2-1.6,0L232.4,285.1L232.4,285.1z M243.2,291.3
					c-0.4-0.2-0.4-0.7,0-0.9l6.7-3.9c0.4-0.2,1.1-0.2,1.6,0l7.8,4.5c0.4,0.2,0.4,0.7,0,0.9l-6.7,3.9c-0.4,0.2-1.1,0.2-1.6,0
					L243.2,291.3L243.2,291.3z M254,297.6c-0.4-0.2-0.4-0.7,0-0.9l6.7-3.9c0.4-0.2,1.1-0.2,1.6,0l7.8,4.5c0.4,0.3,0.4,0.7,0,0.9
					l-6.7,3.9c-0.4,0.2-1.1,0.2-1.6,0L254,297.6L254,297.6z M146.2,223.1c-0.4-0.2-0.4-0.7,0-0.9l6.7-3.9c0.4-0.2,1.1-0.2,1.6,0
					l13.6,7.9c0.4,0.2,0.4,0.7,0,0.9l-6.7,3.9c-0.4,0.2-1.1,0.2-1.6,0L146.2,223.1L146.2,223.1z M162.7,232.7
					c-0.4-0.2-0.4-0.7,0-0.9l6.7-3.9c0.4-0.3,1.1-0.3,1.6,0l7.8,4.5c0.4,0.3,0.4,0.7,0,0.9l-6.7,3.9c-0.4,0.2-1.1,0.2-1.6,0
					L162.7,232.7L162.7,232.7z M173.5,238.9c-0.4-0.3-0.4-0.7,0-0.9l6.7-3.9c0.4-0.3,1.1-0.3,1.6,0l7.8,4.5c0.4,0.2,0.4,0.7,0,0.9
					l-6.7,3.9c-0.4,0.2-1.1,0.2-1.6,0L173.5,238.9L173.5,238.9z M184.3,245.1c-0.4-0.2-0.4-0.7,0-0.9l6.7-3.9c0.4-0.3,1.1-0.3,1.6,0
					l7.8,4.5c0.4,0.2,0.4,0.7,0,0.9l-6.7,3.9c-0.4,0.2-1.1,0.2-1.6,0L184.3,245.1L184.3,245.1z M195.1,251.4c-0.4-0.2-0.4-0.7,0-0.9
					l6.7-3.9c0.4-0.3,1.1-0.2,1.6,0l7.8,4.5c0.4,0.3,0.4,0.7,0,0.9l-6.7,3.9c-0.4,0.2-1.1,0.2-1.6,0L195.1,251.4L195.1,251.4z
					 M205.9,257.6c-0.4-0.3-0.4-0.7,0-0.9l6.7-3.9c0.4-0.3,1.1-0.3,1.6,0l7.8,4.5c0.4,0.2,0.4,0.7,0,0.9l-6.7,3.9
					c-0.4,0.2-1.1,0.2-1.6,0L205.9,257.6L205.9,257.6z M216.6,263.8c-0.4-0.2-0.4-0.7,0-0.9l6.7-3.9c0.4-0.3,1.1-0.3,1.6,0l7.8,4.5
					c0.4,0.2,0.4,0.7,0,0.9l-6.7,3.9c-0.4,0.2-1.1,0.2-1.6,0L216.6,263.8L216.6,263.8z M227.4,270.1c-0.4-0.2-0.4-0.7,0-0.9l6.7-3.9
					c0.4-0.3,1.1-0.2,1.6,0l7.8,4.5c0.4,0.2,0.4,0.7,0,0.9l-6.7,3.9c-0.4,0.2-1.1,0.2-1.6,0L227.4,270.1L227.4,270.1z M238.2,276.3
					c-0.4-0.3-0.4-0.7,0-0.9l6.7-3.9c0.4-0.3,1.1-0.3,1.6,0l7.8,4.5c0.4,0.2,0.4,0.7,0,0.9l-6.7,3.9c-0.4,0.2-1.1,0.2-1.6,0
					L238.2,276.3L238.2,276.3z M249,282.5c-0.4-0.2-0.4-0.7,0-0.9l6.7-3.9c0.4-0.3,1.1-0.3,1.6,0l7.8,4.5c0.4,0.3,0.4,0.7,0,0.9
					l-6.7,3.9c-0.4,0.2-1.1,0.2-1.6,0L249,282.5L249,282.5z M259.8,288.8c-0.4-0.2-0.4-0.7,0-0.9l6.7-3.9c0.4-0.3,1.1-0.2,1.6,0
					l7.8,4.5c0.4,0.2,0.4,0.7,0,0.9l-6.7,3.9c-0.4,0.2-1.1,0.2-1.6,0L259.8,288.8L259.8,288.8z M270.6,295c-0.4-0.3-0.4-0.7,0-0.9
					l6.7-3.9c0.4-0.3,1.1-0.3,1.6,0l7.8,4.5c0.4,0.2,0.4,0.7,0,0.9l-6.7,3.9c-0.4,0.2-1.1,0.2-1.6,0L270.6,295L270.6,295z
					 M281.5,301.3c-0.4-0.2-0.4-0.7,0-0.9l6.7-3.9c0.4-0.2,1.1-0.2,1.6,0l23.3,13.5c0.4,0.2,0.4,0.7,0,0.9l-6.7,3.9
					c-0.4,0.2-1.1,0.2-1.6,0L281.5,301.3L281.5,301.3z M156.6,217c-0.4-0.2-0.4-0.7,0-0.9l6.7-3.9c0.4-0.2,1.1-0.2,1.6,0l10.2,5.9
					c0.4,0.2,0.4,0.7,0,0.9l-6.7,3.9c-0.4,0.2-1.1,0.2-1.6,0L156.6,217L156.6,217z M170,224.7c-0.4-0.3-0.4-0.7,0-0.9l6.7-3.9
					c0.4-0.3,1.1-0.3,1.6,0l7.8,4.5c0.4,0.2,0.4,0.7,0,0.9l-6.7,3.9c-0.4,0.2-1.1,0.2-1.6,0L170,224.7L170,224.7z M180.8,231
					c-0.4-0.2-0.4-0.7,0-0.9l6.7-3.9c0.4-0.3,1.1-0.3,1.6,0l7.8,4.5c0.4,0.3,0.4,0.7,0,0.9l-6.7,3.9c-0.4,0.2-1.1,0.2-1.6,0
					L180.8,231L180.8,231z M191.6,237.2c-0.4-0.2-0.4-0.7,0-0.9l6.7-3.9c0.4-0.3,1.1-0.2,1.6,0l7.8,4.5c0.4,0.2,0.4,0.7,0,0.9
					l-6.7,3.9c-0.4,0.2-1.1,0.2-1.6,0L191.6,237.2L191.6,237.2z M202.4,243.4c-0.4-0.3-0.4-0.7,0-0.9l6.7-3.9c0.4-0.3,1.1-0.3,1.6,0
					l7.8,4.5c0.4,0.2,0.4,0.7,0,0.9l-6.7,3.9c-0.4,0.2-1.1,0.2-1.6,0L202.4,243.4L202.4,243.4z M213.2,249.7c-0.4-0.2-0.4-0.7,0-0.9
					l6.7-3.9c0.4-0.3,1.1-0.3,1.6,0l7.8,4.5c0.4,0.3,0.4,0.7,0,0.9l-6.7,3.9c-0.4,0.2-1.1,0.2-1.6,0L213.2,249.7L213.2,249.7z
					 M224,255.9c-0.4-0.3-0.4-0.7,0-0.9l6.7-3.9c0.4-0.3,1.1-0.3,1.6,0l7.8,4.5c0.4,0.2,0.4,0.7,0,0.9l-6.7,3.9
					c-0.4,0.2-1.1,0.2-1.6,0L224,255.9L224,255.9z M234.8,262.1c-0.4-0.2-0.4-0.7,0-0.9l6.7-3.9c0.4-0.3,1.1-0.3,1.6,0l7.8,4.5
					c0.4,0.2,0.4,0.7,0,0.9l-6.7,3.9c-0.4,0.2-1.1,0.2-1.6,0L234.8,262.1L234.8,262.1z M245.6,268.4c-0.4-0.2-0.4-0.7,0-0.9l6.7-3.9
					c0.4-0.3,1.1-0.2,1.6,0l7.8,4.5c0.4,0.3,0.4,0.7,0,0.9l-6.7,3.9c-0.4,0.2-1.1,0.2-1.6,0L245.6,268.4L245.6,268.4z M256.3,274.6
					c-0.4-0.3-0.4-0.7,0-0.9l6.7-3.9c0.4-0.3,1.1-0.3,1.6,0l7.8,4.5c0.4,0.2,0.4,0.7,0,0.9l-6.7,3.9c-0.4,0.2-1.1,0.2-1.6,0
					L256.3,274.6L256.3,274.6z M267.1,280.8c-0.4-0.2-0.4-0.7,0-0.9l6.7-3.9c0.4-0.3,1.1-0.3,1.6,0l7.8,4.5c0.4,0.2,0.4,0.7,0,0.9
					l-6.7,3.9c-0.4,0.2-1.1,0.2-1.6,0L267.1,280.8L267.1,280.8z M277.9,287.1c-0.4-0.2-0.4-0.7,0-0.9l6.7-3.9c0.4-0.3,1.1-0.2,1.6,0
					l7.8,4.5c0.4,0.2,0.4,0.7,0,0.9l-6.7,3.9c-0.4,0.2-1.1,0.2-1.6,0L277.9,287.1L277.9,287.1z M288.7,293.3c-0.4-0.3-0.4-0.7,0-0.9
					l6.7-3.9c0.4-0.3,1.1-0.3,1.6,0l7.8,4.5c0.4,0.2,0.4,0.7,0,0.9l-6.7,3.9c-0.4,0.2-1.1,0.2-1.6,0L288.7,293.3L288.7,293.3z
					 M299.6,299.6c-0.4-0.2-0.4-0.7,0-0.9l6.7-3.9c0.4-0.2,1.1-0.2,1.6,0l15.7,9c0.4,0.2,0.4,0.7,0,0.9l-6.7,3.9
					c-0.4,0.2-1.1,0.2-1.6,0L299.6,299.6L299.6,299.6z M167.1,210.9c-0.4-0.2-0.4-0.7,0-0.9l6.7-3.9c0.4-0.2,1.1-0.2,1.6,0l4.7,2.7
					c0.4,0.2,0.4,0.7,0,0.9l-6.7,3.9c-0.4,0.2-1.1,0.2-1.6,0L167.1,210.9L167.1,210.9z M175,215.5c-0.4-0.2-0.4-0.7,0-0.9l6.7-3.9
					c0.4-0.2,1.1-0.2,1.6,0l7.8,4.5c0.4,0.2,0.4,0.7,0,0.9l-6.7,3.9c-0.4,0.2-1.1,0.2-1.6,0L175,215.5L175,215.5z M185.8,221.7
					c-0.4-0.2-0.4-0.7,0-0.9l6.7-3.9c0.4-0.3,1.1-0.2,1.6,0l7.8,4.5c0.4,0.2,0.4,0.7,0,0.9l-6.7,3.9c-0.4,0.2-1.1,0.2-1.6,0
					L185.8,221.7L185.8,221.7z M196.6,228c-0.4-0.3-0.4-0.7,0-0.9l6.7-3.9c0.4-0.3,1.1-0.3,1.6,0l7.8,4.5c0.4,0.2,0.4,0.7,0,0.9
					l-6.7,3.9c-0.4,0.2-1.1,0.3-1.6,0L196.6,228L196.6,228z M207.4,234.2c-0.4-0.2-0.4-0.7,0-0.9l6.7-3.9c0.4-0.3,1.1-0.3,1.6,0
					l7.8,4.5c0.4,0.3,0.4,0.7,0,0.9l-6.7,3.9c-0.4,0.2-1.1,0.3-1.6,0L207.4,234.2L207.4,234.2z M218.2,240.4c-0.4-0.2-0.4-0.7,0-0.9
					l6.7-3.9c0.4-0.3,1.1-0.2,1.6,0l7.8,4.5c0.4,0.2,0.4,0.7,0,0.9l-6.7,3.9c-0.4,0.2-1.1,0.2-1.6,0L218.2,240.4L218.2,240.4z
					 M229,246.7c-0.4-0.2-0.4-0.7,0-0.9l6.7-3.9c0.4-0.3,1.1-0.3,1.6,0l7.8,4.5c0.4,0.2,0.4,0.7,0,0.9l-6.7,3.9
					c-0.4,0.2-1.1,0.3-1.6,0L229,246.7L229,246.7z M239.8,252.9c-0.4-0.2-0.4-0.7,0-0.9l6.7-3.9c0.4-0.3,1.1-0.3,1.6,0l7.8,4.5
					c0.4,0.3,0.4,0.7,0,0.9l-6.7,3.9c-0.4,0.2-1.1,0.3-1.6,0L239.8,252.9L239.8,252.9z M250.6,259.1c-0.4-0.3-0.4-0.7,0-0.9l6.7-3.9
					c0.4-0.3,1.1-0.3,1.6,0l7.8,4.5c0.4,0.2,0.4,0.7,0,0.9l-6.7,3.9c-0.4,0.2-1.1,0.2-1.6,0L250.6,259.1L250.6,259.1z M261.4,265.4
					c-0.4-0.2-0.4-0.7,0-0.9l6.7-3.9c0.4-0.3,1.1-0.3,1.6,0l7.8,4.5c0.4,0.2,0.4,0.7,0,0.9l-6.7,3.9c-0.4,0.2-1.1,0.3-1.6,0
					L261.4,265.4L261.4,265.4z M272.2,271.6c-0.4-0.2-0.4-0.7,0-0.9l6.7-3.9c0.4-0.3,1.1-0.2,1.6,0l7.8,4.5c0.4,0.3,0.4,0.7,0,0.9
					l-6.7,3.9c-0.4,0.2-1.1,0.3-1.6,0L272.2,271.6L272.2,271.6z M283,277.9c-0.4-0.3-0.4-0.7,0-0.9l6.7-3.9c0.4-0.3,1.1-0.3,1.6,0
					l7.8,4.5c0.4,0.2,0.4,0.7,0,0.9l-6.7,3.9c-0.4,0.2-1.1,0.3-1.6,0L283,277.9L283,277.9z M293.8,284.1c-0.4-0.2-0.4-0.7,0-0.9
					l6.7-3.9c0.4-0.3,1.1-0.3,1.6,0l7.8,4.5c0.4,0.2,0.4,0.7,0,0.9l-6.7,3.9c-0.4,0.2-1.1,0.3-1.6,0L293.8,284.1L293.8,284.1z
					 M304.7,290.4c-0.4-0.2-0.4-0.7,0-0.9l6.7-3.9c0.4-0.2,1.1-0.2,1.6,0l21,12.2c0.4,0.2,0.4,0.7,0,0.9l-6.7,3.9
					c-0.4,0.2-1.1,0.2-1.6,0L304.7,290.4L304.7,290.4z M177.9,205c-0.6-0.3-0.6-0.9,0-1.2l6.2-3.6c0.6-0.3,1.5-0.3,2.1,0l5.9,3.4
					c0.6,0.3,0.6,0.9,0,1.2l-6.2,3.6c-0.6,0.3-1.5,0.3-2.1,0L177.9,205L177.9,205z M187.4,210.5c-0.6-0.3-0.6-0.9,0-1.2l6.2-3.6
					c0.6-0.3,1.5-0.3,2.1,0l5.9,3.4c0.6,0.3,0.6,0.9,0,1.2l-6.2,3.6c-0.6,0.3-1.5,0.3-2.1,0L187.4,210.5L187.4,210.5z M196.9,216
					c-0.6-0.3-0.6-0.9,0-1.2l6.2-3.6c0.6-0.3,1.5-0.3,2.1,0l5.9,3.4c0.6,0.3,0.6,0.9,0,1.2l-6.2,3.6c-0.6,0.3-1.5,0.3-2.1,0
					L196.9,216L196.9,216z M206.4,221.5c-0.6-0.3-0.6-0.9,0-1.2l6.2-3.6c0.6-0.3,1.5-0.3,2.1,0l5.9,3.4c0.6,0.3,0.6,0.9,0,1.2
					l-6.2,3.6c-0.6,0.3-1.5,0.3-2.1,0L206.4,221.5L206.4,221.5z M215.9,227c-0.6-0.3-0.6-0.9,0-1.2l6.2-3.6c0.6-0.3,1.5-0.3,2.1,0
					l5.9,3.4c0.6,0.3,0.6,0.9,0,1.2l-6.2,3.6c-0.6,0.3-1.5,0.3-2.1,0L215.9,227L215.9,227z M225.5,232.5c-0.6-0.3-0.6-0.9,0-1.2
					l6.2-3.6c0.6-0.3,1.5-0.3,2.1,0l5.9,3.4c0.6,0.3,0.6,0.9,0,1.2l-6.2,3.6c-0.6,0.3-1.5,0.3-2.1,0L225.5,232.5L225.5,232.5z
					 M235,238c-0.6-0.3-0.6-0.9,0-1.2l6.2-3.6c0.6-0.3,1.5-0.3,2.1,0l5.9,3.4c0.6,0.3,0.6,0.9,0,1.2l-6.2,3.6
					c-0.6,0.3-1.5,0.3-2.1,0L235,238L235,238z M244.5,243.5c-0.6-0.3-0.6-0.9,0-1.2l6.2-3.6c0.6-0.3,1.5-0.3,2.1,0l5.9,3.4
					c0.6,0.3,0.6,0.9,0,1.2l-6.2,3.6c-0.6,0.3-1.5,0.3-2.1,0L244.5,243.5L244.5,243.5z M254,248.9c-0.6-0.3-0.6-0.9,0-1.2l6.2-3.6
					c0.6-0.3,1.5-0.3,2.1,0l5.9,3.4c0.6,0.3,0.6,0.9,0,1.2l-6.2,3.6c-0.6,0.3-1.5,0.3-2.1,0L254,248.9L254,248.9z M263.5,254.4
					c-0.6-0.3-0.6-0.9,0-1.2l6.2-3.6c0.6-0.3,1.5-0.3,2.1,0l5.9,3.4c0.6,0.3,0.6,0.9,0,1.2l-6.2,3.6c-0.6,0.3-1.5,0.3-2.1,0
					L263.5,254.4L263.5,254.4z M273.1,259.9c-0.6-0.3-0.6-0.9,0-1.2l6.2-3.6c0.6-0.3,1.5-0.3,2.1,0l5.9,3.4c0.6,0.3,0.6,0.9,0,1.2
					l-6.2,3.6c-0.6,0.3-1.5,0.3-2.1,0L273.1,259.9L273.1,259.9z M282.6,265.4c-0.6-0.3-0.6-0.9,0-1.2l6.2-3.6c0.6-0.3,1.5-0.3,2.1,0
					l5.9,3.4c0.6,0.3,0.6,0.9,0,1.2l-6.2,3.6c-0.6,0.3-1.5,0.3-2.1,0L282.6,265.4L282.6,265.4z M292.1,270.9c-0.6-0.3-0.6-0.9,0-1.2
					l6.2-3.6c0.6-0.3,1.5-0.3,2.1,0l5.9,3.4c0.6,0.3,0.6,0.9,0,1.2l-6.2,3.6c-0.6,0.3-1.5,0.3-2.1,0L292.1,270.9L292.1,270.9z
					 M301.6,276.4c-0.6-0.3-0.6-0.9,0-1.2l6.2-3.6c0.6-0.3,1.5-0.3,2.1,0l5.9,3.4c0.6,0.3,0.6,0.9,0,1.2l-6.2,3.6
					c-0.6,0.3-1.5,0.3-2.1,0L301.6,276.4L301.6,276.4z M311.1,281.9c-0.6-0.3-0.6-0.9,0-1.2l6.2-3.6c0.6-0.3,1.5-0.3,2.1,0l5.9,3.4
					c0.6,0.3,0.6,0.9,0,1.2l-6.2,3.6c-0.6,0.3-1.5,0.3-2.1,0L311.1,281.9L311.1,281.9z M320.6,287.4c-0.6-0.3-0.6-0.9,0-1.2l6.2-3.6
					c0.6-0.3,1.5-0.3,2.1,0l5.9,3.4c0.6,0.3,0.6,0.9,0,1.2l-6.2,3.6c-0.6,0.3-1.5,0.3-2.1,0L320.6,287.4L320.6,287.4z M330.2,292.9
					c-0.6-0.3-0.6-0.9,0-1.2l6.2-3.6c0.6-0.3,1.5-0.3,2.1,0l5.9,3.4c0.6,0.3,0.6,0.9,0,1.2l-6.2,3.6c-0.6,0.3-1.5,0.3-2.1,0
					L330.2,292.9L330.2,292.9z M348.3,290.7l-160.8-92.8c-1.2-0.7-3-0.7-4.2,0l-62.4,36.2c-1.2,0.7-1.1,1.8,0,2.4l160.8,92.8
					c1.2,0.7,3,0.7,4.2,0l62.4-36.2C349.4,292.5,349.4,291.4,348.3,290.7L348.3,290.7z"/>
				<path class="st12" d="M192,203.6l-5.9-3.4c-0.6-0.3-1.5-0.3-2.1,0l-6.2,3.6c-0.6,0.3-0.6,0.9,0,1.2l5.9,3.4
					c0.6,0.3,1.5,0.3,2.1,0l6.2-3.6C192.6,204.4,192.6,203.9,192,203.6L192,203.6z"/>
				<path class="st12" d="M201.5,209l-5.9-3.4c-0.6-0.3-1.5-0.3-2.1,0l-6.2,3.6c-0.6,0.3-0.6,0.9,0,1.2l5.9,3.4
					c0.6,0.3,1.5,0.3,2.1,0l6.2-3.6C202.1,209.9,202.1,209.4,201.5,209L201.5,209z"/>
				<path class="st12" d="M211,214.5l-5.9-3.4c-0.6-0.3-1.5-0.3-2.1,0l-6.2,3.6c-0.6,0.3-0.6,0.9,0,1.2l5.9,3.4
					c0.6,0.3,1.5,0.3,2.1,0l6.2-3.6C211.6,215.4,211.6,214.9,211,214.5L211,214.5z"/>
				<path class="st12" d="M220.6,220l-5.9-3.4c-0.6-0.3-1.5-0.3-2.1,0l-6.2,3.6c-0.6,0.3-0.6,0.9,0,1.2l5.9,3.4
					c0.6,0.3,1.5,0.3,2.1,0l6.2-3.6C221.1,220.9,221.1,220.4,220.6,220L220.6,220z"/>
				<path class="st12" d="M230.1,225.5l-5.9-3.4c-0.6-0.3-1.5-0.3-2.1,0l-6.2,3.6c-0.6,0.3-0.6,0.9,0,1.2l5.9,3.4
					c0.6,0.3,1.5,0.3,2.1,0l6.2-3.6C230.6,226.4,230.6,225.9,230.1,225.5L230.1,225.5z"/>
				<path class="st12" d="M239.6,231l-5.9-3.4c-0.6-0.3-1.5-0.3-2.1,0l-6.2,3.6c-0.6,0.3-0.6,0.9,0,1.2l5.9,3.4
					c0.6,0.3,1.5,0.3,2.1,0l6.2-3.6C240.2,231.9,240.2,231.4,239.6,231L239.6,231z"/>
				<path class="st12" d="M249.1,236.5l-5.9-3.4c-0.6-0.3-1.5-0.3-2.1,0l-6.2,3.6c-0.6,0.3-0.6,0.9,0,1.2l5.9,3.4
					c0.6,0.3,1.5,0.3,2.1,0l6.2-3.6C249.7,237.4,249.7,236.9,249.1,236.5L249.1,236.5z"/>
				<path class="st12" d="M258.6,242l-5.9-3.4c-0.6-0.3-1.5-0.3-2.1,0l-6.2,3.6c-0.6,0.3-0.6,0.9,0,1.2l5.9,3.4
					c0.6,0.3,1.5,0.3,2.1,0l6.2-3.6C259.2,242.9,259.2,242.3,258.6,242L258.6,242z"/>
				<path class="st12" d="M268.1,247.5l-5.9-3.4c-0.6-0.3-1.5-0.3-2.1,0l-6.2,3.6c-0.6,0.3-0.6,0.9,0,1.2l5.9,3.4
					c0.6,0.3,1.5,0.3,2.1,0l6.2-3.6C268.7,248.4,268.7,247.8,268.1,247.5L268.1,247.5z"/>
				<path class="st12" d="M277.7,253l-5.9-3.4c-0.6-0.3-1.5-0.3-2.1,0l-6.2,3.6c-0.6,0.3-0.6,0.9,0,1.2l5.9,3.4
					c0.6,0.3,1.5,0.3,2.1,0l6.2-3.6C278.2,253.9,278.2,253.3,277.7,253L277.7,253z"/>
				<path class="st12" d="M287.2,258.5l-5.9-3.4c-0.6-0.3-1.5-0.3-2.1,0l-6.2,3.6c-0.6,0.3-0.6,0.9,0,1.2l5.9,3.4
					c0.6,0.3,1.5,0.3,2.1,0l6.2-3.6C287.8,259.4,287.7,258.8,287.2,258.5L287.2,258.5z"/>
				<path class="st12" d="M296.7,264l-5.9-3.4c-0.6-0.3-1.5-0.3-2.1,0l-6.2,3.6c-0.6,0.3-0.6,0.9,0,1.2l5.9,3.4
					c0.6,0.3,1.5,0.3,2.1,0l6.2-3.6C297.3,264.9,297.3,264.3,296.7,264L296.7,264z"/>
				<path class="st12" d="M306.2,269.5l-5.9-3.4c-0.6-0.3-1.5-0.3-2.1,0l-6.2,3.6c-0.6,0.3-0.6,0.9,0,1.2l5.9,3.4
					c0.6,0.3,1.5,0.3,2.1,0l6.2-3.6C306.8,270.4,306.8,269.8,306.2,269.5L306.2,269.5z"/>
				<path class="st12" d="M315.7,275l-5.9-3.4c-0.6-0.3-1.5-0.3-2.1,0l-6.2,3.6c-0.6,0.3-0.6,0.9,0,1.2l5.9,3.4
					c0.6,0.3,1.5,0.3,2.1,0l6.2-3.6C316.3,275.9,316.3,275.3,315.7,275L315.7,275z"/>
				<path class="st12" d="M325.3,280.5l-5.9-3.4c-0.6-0.3-1.5-0.3-2.1,0l-6.2,3.6c-0.6,0.3-0.6,0.9,0,1.2l5.9,3.4
					c0.6,0.3,1.5,0.3,2.1,0l6.2-3.6C325.8,281.4,325.8,280.8,325.3,280.5L325.3,280.5z"/>
				<path class="st12" d="M334.8,286l-5.9-3.4c-0.6-0.3-1.5-0.3-2.1,0l-6.2,3.6c-0.6,0.3-0.6,0.9,0,1.2l5.9,3.4
					c0.6,0.3,1.5,0.3,2.1,0l6.2-3.6C335.3,286.8,335.3,286.3,334.8,286L334.8,286z"/>
				<path class="st12" d="M344.3,291.5l-5.9-3.4c-0.6-0.3-1.5-0.3-2.1,0l-6.2,3.6c-0.6,0.3-0.6,0.9,0,1.2l5.9,3.4
					c0.6,0.3,1.5,0.3,2.1,0l6.2-3.6C344.9,292.3,344.9,291.8,344.3,291.5L344.3,291.5z"/>
				<path class="st12" d="M178.7,232.3l-7.8-4.5c-0.4-0.2-1.1-0.2-1.6,0l-6.7,3.9c-0.4,0.2-0.4,0.7,0,0.9l7.8,4.5
					c0.4,0.3,1.1,0.3,1.6,0l6.7-3.9C179.2,233,179.2,232.6,178.7,232.3L178.7,232.3z"/>
				<path class="st12" d="M189.5,238.6l-7.8-4.5c-0.4-0.3-1.1-0.3-1.6,0l-6.7,3.9c-0.4,0.2-0.4,0.7,0,0.9l7.8,4.5
					c0.4,0.2,1.1,0.3,1.6,0l6.7-3.9C190,239.2,190,238.8,189.5,238.6L189.5,238.6z"/>
				<path class="st12" d="M200.3,244.8l-7.8-4.5c-0.4-0.2-1.1-0.2-1.6,0l-6.7,3.9c-0.4,0.2-0.4,0.7,0,0.9l7.8,4.5
					c0.4,0.2,1.1,0.2,1.6,0l6.7-3.9C200.8,245.5,200.7,245.1,200.3,244.8L200.3,244.8z"/>
				<path class="st12" d="M211.1,251l-7.8-4.5c-0.4-0.2-1.1-0.3-1.6,0l-6.7,3.9c-0.4,0.2-0.4,0.7,0,0.9l7.8,4.5
					c0.4,0.3,1.1,0.3,1.6,0l6.7-3.9C211.6,251.7,211.5,251.3,211.1,251L211.1,251z"/>
				<path class="st12" d="M221.9,257.3l-7.8-4.5c-0.4-0.3-1.1-0.3-1.6,0l-6.7,3.9c-0.4,0.2-0.4,0.7,0,0.9l7.8,4.5
					c0.4,0.2,1.1,0.2,1.6,0l6.7-3.9C222.3,257.9,222.3,257.5,221.9,257.3L221.9,257.3z"/>
				<path class="st12" d="M232.7,263.5l-7.8-4.5c-0.4-0.2-1.1-0.2-1.6,0l-6.7,3.9c-0.4,0.2-0.4,0.7,0,0.9l7.8,4.5
					c0.4,0.2,1.1,0.2,1.6,0l6.7-3.9C233.1,264.2,233.1,263.8,232.7,263.5L232.7,263.5z"/>
				<path class="st12" d="M243.5,269.7l-7.8-4.5c-0.4-0.2-1.1-0.3-1.6,0l-6.7,3.9c-0.4,0.2-0.4,0.7,0,0.9l7.8,4.5
					c0.4,0.2,1.1,0.3,1.6,0l6.7-3.9C243.9,270.4,243.9,270,243.5,269.7L243.5,269.7z"/>
				<path class="st12" d="M254.3,276l-7.8-4.5c-0.4-0.3-1.1-0.3-1.6,0l-6.7,3.9c-0.4,0.2-0.4,0.7,0,0.9l7.8,4.5
					c0.4,0.2,1.1,0.2,1.6,0l6.7-3.9C254.7,276.6,254.7,276.2,254.3,276L254.3,276z"/>
				<path class="st12" d="M265.1,282.2l-7.8-4.5c-0.4-0.2-1.1-0.2-1.6,0l-6.7,3.9c-0.4,0.2-0.4,0.7,0,0.9l7.8,4.5
					c0.4,0.3,1.1,0.3,1.6,0l6.7-3.9C265.5,282.9,265.5,282.5,265.1,282.2L265.1,282.2z"/>
				<path class="st12" d="M275.9,288.4l-7.8-4.5c-0.4-0.2-1.1-0.3-1.6,0l-6.7,3.9c-0.4,0.2-0.4,0.7,0,0.9l7.8,4.5
					c0.4,0.2,1.1,0.3,1.6,0l6.7-3.9C276.3,289.1,276.3,288.7,275.9,288.4L275.9,288.4z"/>
				<path class="st12" d="M286.7,294.7l-7.8-4.5c-0.4-0.3-1.1-0.3-1.6,0l-6.7,3.9c-0.4,0.2-0.4,0.7,0,0.9l7.8,4.5
					c0.4,0.2,1.1,0.2,1.6,0l6.7-3.9C287.1,295.3,287.1,294.9,286.7,294.7L286.7,294.7z"/>
				<path class="st12" d="M168.1,226.2l-13.6-7.9c-0.4-0.2-1.1-0.2-1.6,0l-6.7,3.9c-0.4,0.2-0.4,0.7,0,0.9l13.6,7.9
					c0.4,0.2,1.1,0.2,1.6,0l6.7-3.9C168.5,226.8,168.5,226.4,168.1,226.2L168.1,226.2z"/>
				<path class="st12" d="M313.1,309.9l-23.3-13.5c-0.4-0.2-1.1-0.2-1.6,0l-6.7,3.9c-0.4,0.2-0.4,0.7,0,0.9l23.3,13.5
					c0.4,0.2,1.1,0.2,1.6,0l6.7-3.9C313.5,310.6,313.5,310.2,313.1,309.9L313.1,309.9z"/>
				<path class="st12" d="M186,224.4l-7.8-4.5c-0.4-0.3-1.1-0.3-1.6,0l-6.7,3.9c-0.4,0.2-0.4,0.7,0,0.9l7.8,4.5
					c0.4,0.2,1.1,0.2,1.6,0l6.7-3.9C186.5,225.1,186.5,224.7,186,224.4L186,224.4z"/>
				<path class="st12" d="M196.8,230.6l-7.8-4.5c-0.4-0.2-1.1-0.2-1.6,0l-6.7,3.9c-0.4,0.2-0.4,0.7,0,0.9l7.8,4.5
					c0.4,0.3,1.1,0.3,1.6,0l6.7-3.9C197.3,231.3,197.3,230.9,196.8,230.6L196.8,230.6z"/>
				<path class="st12" d="M207.6,236.9l-7.8-4.5c-0.4-0.2-1.1-0.3-1.6,0l-6.7,3.9c-0.4,0.2-0.4,0.7,0,0.9l7.8,4.5
					c0.4,0.2,1.1,0.3,1.6,0l6.7-3.9C208.1,237.5,208.1,237.1,207.6,236.9L207.6,236.9z"/>
				<path class="st12" d="M218.4,243.1l-7.8-4.5c-0.4-0.3-1.1-0.3-1.6,0l-6.7,3.9c-0.4,0.2-0.4,0.7,0,0.9l7.8,4.5
					c0.4,0.2,1.1,0.2,1.6,0l6.7-3.9C218.9,243.8,218.9,243.4,218.4,243.1L218.4,243.1z"/>
				<path class="st12" d="M229.2,249.3l-7.8-4.5c-0.4-0.2-1.1-0.2-1.6,0l-6.7,3.9c-0.4,0.2-0.4,0.7,0,0.9l7.8,4.5
					c0.4,0.3,1.1,0.3,1.6,0l6.7-3.9C229.7,250,229.7,249.6,229.2,249.3L229.2,249.3z"/>
				<path class="st12" d="M240,255.6l-7.8-4.5c-0.4-0.3-1.1-0.3-1.6,0l-6.7,3.9c-0.4,0.2-0.4,0.7,0,0.9l7.8,4.5
					c0.4,0.2,1.1,0.3,1.6,0l6.7-3.9C240.5,256.2,240.4,255.8,240,255.6L240,255.6z"/>
				<path class="st12" d="M250.8,261.8l-7.8-4.5c-0.4-0.2-1.1-0.2-1.6,0l-6.7,3.9c-0.4,0.2-0.4,0.7,0,0.9l7.8,4.5
					c0.4,0.2,1.1,0.2,1.6,0l6.7-3.9C251.2,262.5,251.2,262.1,250.8,261.8L250.8,261.8z"/>
				<path class="st12" d="M261.6,268l-7.8-4.5c-0.4-0.2-1.1-0.3-1.6,0l-6.7,3.9c-0.4,0.2-0.4,0.7,0,0.9l7.8,4.5
					c0.4,0.3,1.1,0.3,1.6,0l6.7-3.9C262,268.7,262,268.3,261.6,268L261.6,268z"/>
				<path class="st12" d="M272.4,274.3l-7.8-4.5c-0.4-0.3-1.1-0.3-1.6,0l-6.7,3.9c-0.4,0.2-0.4,0.7,0,0.9l7.8,4.5
					c0.4,0.2,1.1,0.2,1.6,0l6.7-3.9C272.8,274.9,272.8,274.5,272.4,274.3L272.4,274.3z"/>
				<path class="st12" d="M283.2,280.5l-7.8-4.5c-0.4-0.2-1.1-0.2-1.6,0l-6.7,3.9c-0.4,0.2-0.4,0.7,0,0.9l7.8,4.5
					c0.4,0.2,1.1,0.2,1.6,0l6.7-3.9C283.6,281.2,283.6,280.8,283.2,280.5L283.2,280.5z"/>
				<path class="st12" d="M294,286.7l-7.8-4.5c-0.4-0.2-1.1-0.3-1.6,0l-6.7,3.9c-0.4,0.2-0.4,0.7,0,0.9l7.8,4.5
					c0.4,0.2,1.1,0.3,1.6,0l6.7-3.9C294.4,287.4,294.4,287,294,286.7L294,286.7z"/>
				<path class="st12" d="M304.8,293l-7.8-4.5c-0.4-0.3-1.1-0.3-1.6,0l-6.7,3.9c-0.4,0.2-0.4,0.7,0,0.9l7.8,4.5
					c0.4,0.2,1.1,0.2,1.6,0l6.7-3.9C305.2,293.6,305.2,293.2,304.8,293L304.8,293z"/>
				<path class="st12" d="M175.1,218.1l-10.2-5.9c-0.4-0.2-1.1-0.2-1.6,0l-6.7,3.9c-0.4,0.2-0.4,0.7,0,0.9l10.2,5.9
					c0.4,0.2,1.1,0.2,1.6,0l6.7-3.9C175.5,218.7,175.5,218.3,175.1,218.1L175.1,218.1z"/>
				<path class="st12" d="M323.6,303.8l-15.7-9c-0.4-0.2-1.1-0.2-1.6,0l-6.7,3.9c-0.4,0.2-0.4,0.7,0,0.9l15.7,9
					c0.4,0.2,1.1,0.2,1.6,0l6.7-3.9C324,304.5,324,304.1,323.6,303.8L323.6,303.8z"/>
				<path class="st12" d="M191.1,215.2l-7.8-4.5c-0.4-0.2-1.1-0.2-1.6,0l-6.7,3.9c-0.4,0.2-0.4,0.7,0,0.9l7.8,4.5
					c0.4,0.2,1.1,0.2,1.6,0l6.7-3.9C191.6,215.8,191.5,215.4,191.1,215.2L191.1,215.2z"/>
				<path class="st12" d="M201.9,221.4l-7.8-4.5c-0.4-0.2-1.1-0.3-1.6,0l-6.7,3.9c-0.4,0.2-0.4,0.7,0,0.9l7.8,4.5
					c0.4,0.2,1.1,0.2,1.6,0l6.7-3.9C202.3,222.1,202.3,221.7,201.9,221.4L201.9,221.4z"/>
				<path class="st12" d="M212.7,227.7l-7.8-4.5c-0.4-0.3-1.1-0.3-1.6,0l-6.7,3.9c-0.4,0.2-0.4,0.7,0,0.9l7.8,4.5
					c0.4,0.2,1.1,0.2,1.6,0l6.7-3.9C213.1,228.3,213.1,227.9,212.7,227.7L212.7,227.7z"/>
				<path class="st12" d="M223.5,233.9l-7.8-4.5c-0.4-0.2-1.1-0.2-1.6,0l-6.7,3.9c-0.4,0.2-0.4,0.7,0,0.9l7.8,4.5
					c0.4,0.3,1.1,0.2,1.6,0l6.7-3.9C223.9,234.6,223.9,234.1,223.5,233.9L223.5,233.9z"/>
				<path class="st12" d="M234.3,240.1l-7.8-4.5c-0.4-0.2-1.1-0.3-1.6,0l-6.7,3.9c-0.4,0.2-0.4,0.7,0,0.9l7.8,4.5
					c0.4,0.2,1.1,0.2,1.6,0l6.7-3.9C234.7,240.8,234.7,240.4,234.3,240.1L234.3,240.1z"/>
				<path class="st12" d="M245.1,246.4l-7.8-4.5c-0.4-0.2-1.1-0.2-1.6,0l-6.7,3.9c-0.4,0.2-0.4,0.7,0,0.9l7.8,4.5
					c0.4,0.2,1.1,0.2,1.6,0l6.7-3.9C245.5,247,245.5,246.6,245.1,246.4L245.1,246.4z"/>
				<path class="st12" d="M255.9,252.6l-7.8-4.5c-0.4-0.2-1.1-0.2-1.6,0l-6.7,3.9c-0.4,0.2-0.4,0.7,0,0.9l7.8,4.5
					c0.4,0.3,1.1,0.2,1.6,0l6.7-3.9C256.3,253.3,256.3,252.8,255.9,252.6L255.9,252.6z"/>
				<path class="st12" d="M266.7,258.8l-7.8-4.5c-0.4-0.3-1.1-0.3-1.6,0l-6.7,3.9c-0.4,0.2-0.4,0.7,0,0.9l7.8,4.5
					c0.4,0.2,1.1,0.2,1.6,0l6.7-3.9C267.1,259.5,267.1,259.1,266.7,258.8L266.7,258.8z"/>
				<path class="st12" d="M277.5,265.1l-7.8-4.5c-0.4-0.2-1.1-0.2-1.6,0l-6.7,3.9c-0.4,0.2-0.4,0.7,0,0.9l7.8,4.5
					c0.4,0.2,1.1,0.2,1.6,0l6.7-3.9C277.9,265.7,277.9,265.3,277.5,265.1L277.5,265.1z"/>
				<path class="st12" d="M288.3,271.3l-7.8-4.5c-0.4-0.2-1.1-0.3-1.6,0l-6.7,3.9c-0.4,0.2-0.4,0.7,0,0.9l7.8,4.5
					c0.4,0.3,1.1,0.2,1.6,0l6.7-3.9C288.7,272,288.7,271.6,288.3,271.3L288.3,271.3z"/>
				<path class="st12" d="M299.1,277.5l-7.8-4.5c-0.4-0.3-1.1-0.3-1.6,0l-6.7,3.9c-0.4,0.2-0.4,0.7,0,0.9l7.8,4.5
					c0.4,0.2,1.1,0.2,1.6,0l6.7-3.9C299.5,278.2,299.5,277.8,299.1,277.5L299.1,277.5z"/>
				<path class="st12" d="M309.9,283.8l-7.8-4.5c-0.4-0.2-1.1-0.2-1.6,0l-6.7,3.9c-0.4,0.2-0.4,0.7,0,0.9l7.8,4.5
					c0.4,0.2,1.1,0.2,1.6,0l6.7-3.9C310.3,284.4,310.3,284,309.9,283.8L309.9,283.8z"/>
				<path class="st12" d="M180.1,208.8l-4.7-2.7c-0.4-0.2-1.1-0.2-1.6,0l-6.7,3.9c-0.4,0.2-0.4,0.7,0,0.9l4.7,2.7
					c0.4,0.2,1.1,0.2,1.6,0l6.7-3.9C180.5,209.5,180.5,209.1,180.1,208.8L180.1,208.8z"/>
				<path class="st12" d="M334.1,297.7l-21-12.2c-0.4-0.2-1.1-0.2-1.6,0l-6.7,3.9c-0.4,0.2-0.4,0.7,0,0.9l21,12.2
					c0.4,0.2,1.1,0.2,1.6,0l6.7-3.9C334.5,298.4,334.5,298,334.1,297.7L334.1,297.7z"/>
				<path class="st12" d="M172.9,241.1l-7.8-4.5c-0.4-0.2-1.1-0.2-1.6,0l-6.7,3.9c-0.4,0.2-0.4,0.7,0,0.9l7.8,4.5
					c0.4,0.2,1.1,0.2,1.6,0l6.7-3.9C173.3,241.8,173.3,241.4,172.9,241.1L172.9,241.1z"/>
				<path class="st12" d="M183.7,247.4l-7.8-4.5c-0.4-0.2-1.1-0.3-1.6,0l-6.7,3.9c-0.4,0.2-0.4,0.7,0,0.9l7.8,4.5
					c0.4,0.2,1.1,0.3,1.6,0l6.7-3.9C184.1,248,184.1,247.6,183.7,247.4L183.7,247.4z"/>
				<path class="st12" d="M194.5,253.6l-7.8-4.5c-0.4-0.3-1.1-0.3-1.6,0l-6.7,3.9c-0.4,0.2-0.4,0.7,0,0.9l7.8,4.5
					c0.4,0.2,1.1,0.2,1.6,0l6.7-3.9C194.9,254.3,194.9,253.9,194.5,253.6L194.5,253.6z"/>
				<path class="st12" d="M205.3,259.8l-7.8-4.5c-0.4-0.2-1.1-0.2-1.6,0l-6.7,3.9c-0.4,0.2-0.4,0.7,0,0.9l7.8,4.5
					c0.4,0.2,1.1,0.2,1.6,0l6.7-3.9C205.7,260.5,205.7,260.1,205.3,259.8L205.3,259.8z"/>
				<path class="st12" d="M216.1,266.1l-7.8-4.5c-0.4-0.2-1.1-0.3-1.6,0l-6.7,3.9c-0.4,0.2-0.4,0.7,0,0.9l7.8,4.5
					c0.4,0.2,1.1,0.3,1.6,0l6.7-3.9C216.5,266.7,216.5,266.3,216.1,266.1L216.1,266.1z"/>
				<path class="st12" d="M226.9,272.3l-7.8-4.5c-0.4-0.2-1.1-0.2-1.6,0l-6.7,3.9c-0.4,0.2-0.4,0.7,0,0.9l7.8,4.5
					c0.4,0.2,1.1,0.2,1.6,0l6.7-3.9C227.3,273,227.3,272.6,226.9,272.3L226.9,272.3z"/>
				<path class="st12" d="M237.7,278.5l-7.8-4.5c-0.4-0.2-1.1-0.2-1.6,0l-6.7,3.9c-0.4,0.2-0.4,0.7,0,0.9l7.8,4.5
					c0.4,0.3,1.1,0.3,1.6,0l6.7-3.9C238.1,279.2,238.1,278.8,237.7,278.5L237.7,278.5z"/>
				<path class="st12" d="M248.5,284.8l-7.8-4.5c-0.4-0.3-1.1-0.3-1.6,0l-6.7,3.9c-0.4,0.2-0.4,0.7,0,0.9l7.8,4.5
					c0.4,0.2,1.1,0.3,1.6,0l6.7-3.9C248.9,285.4,248.9,285,248.5,284.8L248.5,284.8z"/>
				<path class="st12" d="M259.3,291l-7.8-4.5c-0.4-0.2-1.1-0.2-1.6,0l-6.7,3.9c-0.4,0.2-0.4,0.7,0,0.9l7.8,4.5
					c0.4,0.2,1.1,0.2,1.6,0l6.7-3.9C259.7,291.7,259.7,291.3,259.3,291L259.3,291z"/>
				<path class="st12" d="M270.1,297.2l-7.8-4.5c-0.4-0.2-1.1-0.3-1.6,0l-6.7,3.9c-0.4,0.2-0.4,0.7,0,0.9l7.8,4.5
					c0.4,0.3,1.1,0.3,1.6,0l6.7-3.9C270.5,297.9,270.5,297.5,270.1,297.2L270.1,297.2z"/>
				<path class="st12" d="M302.5,316l-29.1-16.8c-0.4-0.2-1.1-0.2-1.6,0l-6.7,3.9c-0.4,0.2-0.4,0.7,0,0.9l29.1,16.8
					c0.4,0.2,1.1,0.2,1.6,0l6.7-3.9C303,316.7,303,316.3,302.5,316L302.5,316z"/>
				<path class="st12" d="M162.2,235l-18.3-10.6c-0.4-0.2-1.1-0.2-1.6,0l-6.7,3.9c-0.4,0.2-0.4,0.7,0,0.9l18.3,10.6
					c0.4,0.2,1.1,0.2,1.6,0l6.7-3.9C162.7,235.6,162.7,235.2,162.2,235L162.2,235z"/>
				<path class="st12" d="M141.3,235l-7.8-4.5c-0.4-0.2-1.1-0.3-1.6,0l-6.7,3.9c-0.4,0.2-0.4,0.7,0,0.9l7.8,4.5
					c0.4,0.2,1.1,0.3,1.6,0l6.7-3.9C141.7,235.7,141.7,235.3,141.3,235L141.3,235z"/>
				<path class="st12" d="M152,241.2l-7.8-4.5c-0.4-0.3-1.1-0.3-1.6,0l-6.7,3.9c-0.4,0.2-0.4,0.7,0,0.9l7.8,4.5
					c0.4,0.2,1.1,0.2,1.6,0l6.7-3.9C152.5,241.9,152.5,241.5,152,241.2L152,241.2z"/>
				<path class="st12" d="M162.8,247.5l-7.8-4.5c-0.4-0.2-1.1-0.2-1.6,0l-6.7,3.9c-0.4,0.2-0.4,0.7,0,0.9l7.8,4.5
					c0.4,0.3,1.1,0.3,1.6,0l6.7-3.9C163.3,248.1,163.3,247.7,162.8,247.5L162.8,247.5z"/>
				<path class="st12" d="M173.6,253.7l-7.8-4.5c-0.4-0.2-1.1-0.3-1.6,0l-6.7,3.9c-0.4,0.2-0.4,0.7,0,0.9l7.8,4.5
					c0.4,0.2,1.1,0.3,1.6,0l6.7-3.9C174.1,254.4,174.1,254,173.6,253.7L173.6,253.7z"/>
				<path class="st12" d="M237,290.3l-7.8-4.5c-0.4-0.3-1.1-0.3-1.6,0l-6.7,3.9c-0.4,0.2-0.4,0.7,0,0.9l7.8,4.5
					c0.4,0.2,1.1,0.2,1.6,0l6.7-3.9C237.4,290.9,237.4,290.5,237,290.3L237,290.3z"/>
				<path class="st12" d="M247.8,296.5L240,292c-0.4-0.2-1.1-0.2-1.6,0l-6.7,3.9c-0.4,0.2-0.4,0.7,0,0.9l7.8,4.5
					c0.4,0.2,1.1,0.2,1.6,0l6.7-3.9C248.2,297.2,248.2,296.8,247.8,296.5L247.8,296.5z"/>
				<path class="st12" d="M258.6,302.7l-7.8-4.5c-0.4-0.2-1.1-0.3-1.6,0l-6.7,3.9c-0.4,0.2-0.4,0.7,0,0.9l7.8,4.5
					c0.4,0.2,1.1,0.3,1.6,0l6.7-3.9C259,303.4,259,303,258.6,302.7L258.6,302.7z"/>
				<path class="st12" d="M269.2,308.9l-7-4c-0.7-0.4-1.8-0.4-2.5,0l-2.2,1.3l9.5,5.5l2.2-1.3C269.9,309.9,269.9,309.3,269.2,308.9
					L269.2,308.9z"/>
				<path class="st12" d="M280.4,315.4l-7-4c-0.7-0.4-1.8-0.4-2.5,0l-2.2,1.3l9.5,5.5l2.2-1.3C281.1,316.4,281.1,315.8,280.4,315.4
					L280.4,315.4z"/>
				<path class="st12" d="M291.6,321.8l-7-4c-0.7-0.4-1.8-0.4-2.5,0l-2.2,1.3l9.5,5.5l2.2-1.3C292.3,322.9,292.3,322.2,291.6,321.8
					L291.6,321.8z"/>
				<path class="st12" d="M265.6,312.4l-9.5-5.5l-2.2,1.3c-0.7,0.4-0.7,1,0,1.4l7,4c0.7,0.4,1.8,0.4,2.5,0L265.6,312.4L265.6,312.4z
					"/>
				<path class="st12" d="M276.8,318.9l-9.5-5.5l-2.2,1.3c-0.7,0.4-0.7,1,0,1.4l7,4c0.7,0.4,1.8,0.4,2.5,0L276.8,318.9L276.8,318.9z
					"/>
				<path class="st12" d="M288,325.4l-9.5-5.5l-2.2,1.3c-0.7,0.4-0.7,1,0,1.4l7,4c0.7,0.4,1.8,0.4,2.5,0L288,325.4L288,325.4z"/>
				<polygon class="st12" points="226.3,284.1 175.7,254.9 167.5,259.7 218,288.9 226.3,284.1 				"/>
				<path class="st11" d="M237.7,307.9L158.2,262c-0.6-0.4-1.6-0.4-2.2,0l-38.8,22.6c-0.6,0.4-0.6,0.9,0,1.3l79.5,45.9
					c0.6,0.4,1.6,0.4,2.2,0l38.8-22.6C238.3,308.8,238.3,308.2,237.7,307.9L237.7,307.9z"/>
				<polygon class="st3" points="350.6,278.3 208,196 206,197.1 348.6,279.4 350.6,278.3 				"/>
			</g>
			<g>
				<g class="st4">
					<defs>
						<polygon id="SVGID_11_" class="st4" points="355.1,306.9 355.1,304.8 360.2,301.8 360.2,303.9 						"/>
					</defs>
					<clipPath id="SVGID_3_">
						<use xlink:href="#SVGID_11_"  style="overflow:visible;"/>
					</clipPath>
					<g class="st13">
						<path class="st14" d="M359.2,302.3l-3.3,1.9c-0.5,0.3-0.9,1-0.9,1.6c0,0.6,0.4,0.8,0.9,0.5l3.3-1.9c0.5-0.3,0.9-1,0.9-1.6
							C360.2,302.3,359.8,302,359.2,302.3L359.2,302.3z"/>
					</g>
				</g>
			</g>
			<g>
				<g class="st4">
					<defs>
						<polygon id="SVGID_13_" class="st4" points="362.3,302.5 362.3,300.4 367.4,297.4 367.4,299.5 						"/>
					</defs>
					<clipPath id="SVGID_4_">
						<use xlink:href="#SVGID_13_"  style="overflow:visible;"/>
					</clipPath>
					<g class="st15">
						<path class="st14" d="M366.5,297.9l-3.3,1.9c-0.5,0.3-0.9,1-0.9,1.6c0,0.6,0.4,0.8,0.9,0.5l3.3-1.9c0.5-0.3,0.9-1,0.9-1.6
							C367.4,297.9,367,297.7,366.5,297.9L366.5,297.9z"/>
					</g>
				</g>
			</g>
		</g>
	</g>
</g>
<g>
	<g>
		<path class="st16" d="M291.7,220.3l0.9-2.6l-2.3-3.3l2.9,1.7l0.9-2.6l0.9,3.7l2.9,1.7l-2.3,0.6l0.9,3.7l-2.3-3.3L291.7,220.3
			L291.7,220.3z M301,225.6l0.9-2.6l-2.3-3.3l2.9,1.7l0.9-2.6l0.9,3.7l2.9,1.7l-2.3,0.6l0.9,3.7l-2.3-3.3L301,225.6L301,225.6z
			 M310.3,231l0.9-2.6l-2.3-3.3l2.9,1.7l0.9-2.6l0.9,3.7l2.9,1.7L314,230l0.9,3.7l-2.3-3.3L310.3,231L310.3,231z M319.5,236.3
			l0.9-2.6l-2.3-3.3l2.9,1.7l0.9-2.6l0.9,3.7l2.9,1.7l-2.3,0.6l0.9,3.7l-2.3-3.3L319.5,236.3L319.5,236.3z M328.8,241.7l0.9-2.6
			l-2.3-3.3l2.9,1.7l0.9-2.6l0.9,3.7l2.9,1.7l-2.3,0.6l0.9,3.7l-2.3-3.3L328.8,241.7L328.8,241.7z M291.2,207.5
			c-0.5-0.3-0.8-0.9-0.8-1.5l0-5.3c0-0.5,0.4-0.8,0.8-0.5l42.9,24.8c0.5,0.3,0.8,0.9,0.8,1.5l0,5.3c0,0.5-0.4,0.8-0.8,0.5
			L291.2,207.5L291.2,207.5z M306.6,201c-8.1-4.7-14.7-16.1-14.7-25.4c0-9.3,6.6-13.1,14.8-8.4c8.1,4.7,14.7,16.1,14.7,25.4
			C321.3,201.9,314.7,205.7,306.6,201L306.6,201z M291.3,147.7c-0.5-0.3-0.8-0.9-0.8-1.5l0-5.3c0-0.5,0.4-0.8,0.8-0.5l42.9,24.8
			c0.5,0.3,0.8,0.9,0.8,1.5l0,5.3c0,0.5-0.4,0.8-0.8,0.5L291.3,147.7L291.3,147.7z M211,174.5c-1.4-0.8-2.5-2.7-2.5-4.3l0.2-86
			c0-1.6,1.1-2.2,2.5-1.4l67.9,39.2c1.4,0.8,2.5,2.7,2.5,4.3l-0.2,86c0,1.6-1.1,2.2-2.5,1.4L211,174.5L211,174.5z M291.4,136.3
			c-0.5-0.3-0.8-0.9-0.8-1.5l0-5.3c0-0.5,0.4-0.8,0.8-0.5l58.4,33.7c0.5,0.3,0.8,0.9,0.8,1.5l0,5.3c0,0.5-0.4,0.8-0.8,0.5
			L291.4,136.3L291.4,136.3z M198.7,61l-0.3,112.8c0,2.6,1.8,5.8,4.1,7.1l159,91.8c2.2,1.3,4.1,0.2,4.1-2.3l0.3-108.5L198.7,65.3
			L198.7,61L198.7,61z"/>
		<path class="st17" d="M361.7,150.4l-159-91.8c-2.2-1.3-4.1-0.2-4.1,2.3l0,4.3l167.2,96.5l0-4.3C365.8,154.9,364,151.7,361.7,150.4
			L361.7,150.4z"/>
		<path class="st18" d="M253.6,132.7l-15.3-8.9c-1.1-0.6-2-0.1-2,1.1l0,1.7c0,0.6-0.3,0.9-0.6,1l0,3.7l20.5,11.9l0-3.7
			c-0.4-0.5-0.6-1.2-0.6-1.7l0-1.7C255.5,134.9,254.7,133.4,253.6,132.7L253.6,132.7z M239.6,186.9c-1-0.6-1.8-1.9-1.8-3.1
			s0.8-1.6,1.8-1c1,0.6,1.8,1.9,1.8,3.1C241.4,187,240.6,187.5,239.6,186.9L239.6,186.9z M245.8,190.5c-1-0.6-1.8-1.9-1.8-3.1
			c0-1.1,0.8-1.6,1.8-1c1,0.6,1.8,1.9,1.8,3.1C247.6,190.6,246.8,191.1,245.8,190.5L245.8,190.5z M252,194.1c-1-0.6-1.8-1.9-1.8-3.1
			s0.8-1.6,1.8-1c1,0.6,1.8,1.9,1.8,3.1C253.8,194.2,253,194.7,252,194.1L252,194.1z M233.9,126.7c-0.4-0.5-0.6-1.2-0.6-1.7l0-1.7
			c0-3.1,2.2-4.4,4.9-2.8l15.3,8.9c2.7,1.6,4.9,5.4,4.9,8.5l0,1.7c0,0.6-0.3,0.9-0.6,1l0,3.7l7,4.1c0.9,0.5,1.6,1.7,1.6,2.7
			c0.5,9.8,4.8,15.6,5.1,27.2c0.1,3.2-2.1,7.8-4.9,6.2L225,160.4c-2.7-1.6-4.9-8.7-4.8-11.8c0.3-11.2,4.7-12.1,5.2-21.3
			c0.1-1,0.8-1.4,1.7-0.8l6.9,4L233.9,126.7L233.9,126.7z M279.2,122l-67.9-39.2c-1.4-0.8-2.5-0.1-2.5,1.4l-0.2,86
			c0,1.6,1.1,3.5,2.5,4.3l67.9,39.2c1.4,0.8,2.5,0.1,2.5-1.4l0.2-86C281.7,124.7,280.6,122.8,279.2,122L279.2,122z"/>
		<path class="st19" d="M256.1,143.3l-20.5-11.9l0,2.5c0.4,0.3,0.8,0.9,0.8,1.4l0,0.3l19,10.9l0-0.3c0-0.5,0.4-0.7,0.8-0.5
			L256.1,143.3L256.1,143.3z M264.9,148.4l-7-4.1l0,2.5c0.4,0.3,0.8,0.9,0.8,1.4l0,0.3l4.8,2.8c0.4,4.4,1.5,8,2.5,11.6
			c0.3,1.1,0.6,2.2,0.9,3.3c-6.4-2.5-15.2-6.7-23.9-11.7c-6.4-3.7-12.8-7.9-18.1-12.2c0.3-0.9,0.7-1.7,1-2.5c1-2.4,2.1-4.8,2.5-8.7
			l4.7,2.7l0-0.3c0-0.5,0.4-0.7,0.8-0.5l0-2.5l-6.9-4c-0.9-0.5-1.6-0.1-1.7,0.8c-0.5,9.2-4.9,10-5.2,21.3
			c-0.1,3.1,2.1,10.2,4.8,11.8l41.7,24.1c2.7,1.6,5-3,4.9-6.2c-0.2-11.5-4.6-17.4-5.1-27.2C266.5,150.1,265.8,148.9,264.9,148.4
			L264.9,148.4z"/>
		<path class="st20" d="M263.4,151.2l-4.8-2.8l0,1.5c0,1-0.7,1.5-1.7,0.9c-0.9-0.5-1.6-1.8-1.6-2.8l0-1.5l-19-10.9l0,1.5
			c0,1-0.7,1.5-1.7,0.9c-0.9-0.5-1.6-1.8-1.6-2.8l0-1.5l-4.7-2.7c-0.4,3.9-1.5,6.3-2.5,8.7c-0.4,0.8-0.7,1.6-1,2.5
			c5.2,4.3,11.6,8.4,18.1,12.2c8.7,5,17.5,9.2,23.9,11.7c-0.3-1.1-0.6-2.2-0.9-3.3C264.9,159.3,263.8,155.6,263.4,151.2L263.4,151.2
			z"/>
		<path class="st21" d="M233.9,126.7l0,3.7l0,2.5l1.7,1l0-2.5l0-3.7c-0.2,0.1-0.5,0-0.8-0.2C234.4,127.3,234.2,127.1,233.9,126.7
			L233.9,126.7z"/>
		<path class="st21" d="M256.2,139.6l0,3.7l0,2.5l1.7,1l0-2.5l0-3.7c-0.2,0.1-0.5,0-0.8-0.2C256.7,140.2,256.4,139.9,256.2,139.6
			L256.2,139.6z"/>
		<path class="st22" d="M253.6,129.4l-15.3-8.9c-2.7-1.6-4.9-0.3-4.9,2.8l0,1.7c0,0.6,0.2,1.2,0.6,1.7c0.2,0.3,0.5,0.6,0.8,0.8
			c0.3,0.2,0.6,0.2,0.8,0.2c0.4-0.1,0.6-0.4,0.6-1l0-1.7c0-1.3,0.9-1.8,2-1.1l15.3,8.9c1.1,0.6,2,2.2,2,3.4l0,1.7
			c0,0.6,0.2,1.2,0.6,1.7c0.2,0.3,0.5,0.6,0.8,0.8c0.3,0.2,0.6,0.2,0.8,0.2c0.4-0.1,0.6-0.4,0.6-1l0-1.7
			C258.5,134.7,256.3,130.9,253.6,129.4L253.6,129.4z"/>
		<path class="st22" d="M235.6,134l-1.7-1c-0.4-0.3-0.8-0.1-0.8,0.5l0,0.3l0,1.5c0,1,0.7,2.3,1.6,2.8c0.9,0.5,1.6,0.1,1.7-0.9l0-1.5
			l0-0.3C236.4,134.9,236,134.2,235.6,134L235.6,134z"/>
		<path class="st22" d="M257.8,146.8l-1.7-1c-0.4-0.3-0.8-0.1-0.8,0.5l0,0.3l0,1.5c0,1,0.7,2.3,1.6,2.8c0.9,0.5,1.6,0.1,1.7-0.9
			l0-1.5l0-0.3C258.6,147.7,258.3,147.1,257.8,146.8L257.8,146.8z"/>
		<path class="st23" d="M239.6,182.8c-1-0.6-1.8-0.1-1.8,1s0.8,2.5,1.8,3.1c1,0.6,1.8,0.1,1.8-1
			C241.4,184.8,240.6,183.4,239.6,182.8L239.6,182.8z"/>
		<path class="st24" d="M245.8,186.4c-1-0.6-1.8-0.1-1.8,1c0,1.1,0.8,2.5,1.8,3.1c1,0.6,1.8,0.1,1.8-1
			C247.6,188.4,246.8,187,245.8,186.4L245.8,186.4z"/>
		<path class="st24" d="M252,190c-1-0.6-1.8-0.1-1.8,1s0.8,2.5,1.8,3.1c1,0.6,1.8,0.1,1.8-1C253.8,192,253,190.6,252,190L252,190z"
			/>
		<path class="st25" d="M349.8,162.7L291.4,129c-0.5-0.3-0.8-0.1-0.8,0.5l0,5.3c0,0.5,0.4,1.2,0.8,1.5l58.4,33.7
			c0.5,0.3,0.8,0,0.8-0.5l0-5.3C350.6,163.7,350.3,163,349.8,162.7L349.8,162.7z"/>
		<path class="st26" d="M334.3,165.2l-42.9-24.8c-0.5-0.3-0.8,0-0.8,0.5l0,5.3c0,0.5,0.4,1.2,0.8,1.5l42.9,24.8
			c0.5,0.3,0.8,0.1,0.8-0.5l0-5.3C335.1,166.1,334.7,165.5,334.3,165.2L334.3,165.2z"/>
		<path class="st26" d="M334.1,225l-42.9-24.8c-0.5-0.3-0.8,0-0.8,0.5l0,5.3c0,0.5,0.4,1.2,0.8,1.5l42.9,24.8c0.5,0.3,0.8,0,0.8-0.5
			l0-5.3C334.9,225.9,334.6,225.2,334.1,225L334.1,225z"/>
		<path class="st27" d="M301.8,188.4c-0.5-0.3-0.9-0.1-0.9,0.5c0,0.6,0.4,1.3,0.9,1.6c0.5,0.3,0.9,0.1,0.9-0.5
			C302.7,189.4,302.3,188.7,301.8,188.4L301.8,188.4z M309.4,192.8c-0.5-0.3-0.9-0.1-0.9,0.5c0,0.6,0.4,1.3,0.9,1.6
			c0.5,0.3,0.9,0.1,0.9-0.5C310.2,193.8,309.8,193.1,309.4,192.8L309.4,192.8z M303.4,184.1l-3-1.7l0.4,2.3l2.8,1.6L303.4,184.1
			L303.4,184.1z M307.4,186.5l-3.4-2l0.2,2.2l3,1.7L307.4,186.5L307.4,186.5z M311.2,188.6l-3.2-1.8l-0.2,2l2.9,1.7l0.4-1.7
			L311.2,188.6L311.2,188.6z M303.1,181.3l-3.2-1.8l0.4,2.3l3,1.7L303.1,181.3L303.1,181.3z M307.6,183.9l-4-2.3l0.2,2.2l3.6,2.1
			L307.6,183.9L307.6,183.9z M311.8,186.3l-3.5-2l-0.2,1.9l3.3,1.9L311.8,186.3L311.8,186.3z M302.8,178.4l-3.4-2l0.4,2.3l3.2,1.9
			L302.8,178.4L302.8,178.4z M307.9,181.3l-4.5-2.6l0.2,2.2l4.1,2.4L307.9,181.3L307.9,181.3z M312.3,183.9l-3.9-2.2l-0.2,2l3.6,2.1
			L312.3,183.9L312.3,183.9z M312.5,183.3l0.5-1.9c0.1-0.5,0.4-0.9,0.8-1.1c0.4-0.2,0.9-0.2,1.4-0.1c0.3,0.1,0.6,0.2,0.9,0.4
			c0.5,0.3,1,0.7,1.5,1.2c0.2,0.1,0.2,0.4,0.2,0.5c0,0.1-0.2,0.1-0.3,0.1c0,0-0.1,0-0.1-0.1c-0.5-0.4-0.9-0.8-1.3-1
			c-0.3-0.1-0.5-0.3-0.7-0.3c-0.8-0.3-1.5,0.1-1.7,1l-0.5,2c0,0,0,0.1,0,0.1l-1.2,4.7c0,0,0,0,0,0.1l-0.2,0.7l-0.8,3.3
			c0,0.1-0.1,0.2-0.3,0.1l-0.6-0.4c0.5,0.6,0.9,1.4,0.9,2.1c0,0.9-0.7,1.3-1.5,0.8c-0.8-0.5-1.5-1.6-1.5-2.5c0-0.7,0.4-1.1,0.9-1
			l-6.5-3.8c0.5,0.6,0.9,1.4,0.9,2.1c0,0.9-0.7,1.3-1.5,0.8c-0.8-0.5-1.5-1.6-1.5-2.5c0-0.7,0.4-1.1,0.9-1l-0.6-0.4
			c-0.2-0.1-0.3-0.3-0.3-0.5c0-0.2,0.1-0.3,0.3-0.2l9.7,5.6l0.3-1.1l-10-5.8c-0.1-0.1-0.3-0.3-0.3-0.4l-1.6-9.1c0-0.1,0-0.2,0.1-0.2
			c0.1,0,0.1,0,0.2,0l4,2.3c0,0,0,0,0,0c0,0,0,0,0,0l5.1,3c0,0,0,0,0,0c0,0,0,0,0,0L312.5,183.3L312.5,183.3z M306.6,167.2
			c-8.1-4.7-14.7-0.9-14.8,8.4c0,9.3,6.5,20.7,14.7,25.4c8.1,4.7,14.7,0.9,14.8-8.4C321.3,183.3,314.8,171.9,306.6,167.2
			L306.6,167.2z"/>
		<path class="st16" d="M311.8,188.8C311.8,188.8,311.8,188.8,311.8,188.8l-0.2,0.7L311.8,188.8L311.8,188.8z M313,183.9l-1.2,4.8
			c0,0,0,0,0,0l1.2-4.7C313,184,313,183.9,313,183.9L313,183.9z M303,177.8l-4-2.3c-0.1-0.1-0.2-0.1-0.2,0c-0.1,0-0.1,0.1-0.1,0.2
			l1.6,9.1c0,0.2,0.1,0.3,0.3,0.4l10,5.8l0.6-2.3l-0.4,1.7l-2.9-1.7l0,0.3c0,0.2-0.1,0.2-0.3,0.1l0,0c-0.2-0.1-0.3-0.3-0.3-0.5
			l0-0.3l-3-1.7l0,0.3c0,0.2-0.1,0.3-0.2,0.2l0,0c-0.1-0.1-0.3-0.3-0.3-0.5l0-0.4l-2.8-1.6l-0.4-2.3l-0.4-0.2
			c-0.2-0.1-0.3-0.3-0.3-0.5c0-0.2,0.1-0.3,0.3-0.2l0.2,0.1l-0.4-2.3l-0.3-0.2c-0.2-0.1-0.3-0.3-0.3-0.5c0-0.2,0.1-0.3,0.3-0.2
			l0.2,0.1l-0.4-2.3l3.4,2l0-0.3C302.7,177.9,302.9,177.8,303,177.8C303,177.8,303,177.8,303,177.8L303,177.8z M308.2,180.8l-5.1-3
			c0.1,0.1,0.3,0.3,0.3,0.4l0,0.4l4.5,2.6l0-0.3C307.9,180.8,308,180.7,308.2,180.8L308.2,180.8z M312.5,183.3l-4.3-2.5
			c0.2,0.1,0.3,0.3,0.3,0.5l0,0.3l3.9,2.2L312.5,183.3L312.5,183.3z"/>
		<path class="st16" d="M303,180.6l-3.2-1.9l-0.2-0.1c-0.2-0.1-0.3,0-0.3,0.2c0,0.2,0.1,0.4,0.3,0.5l0.3,0.2l3.2,1.8L303,180.6
			L303,180.6z M307.7,183.3l-4.1-2.4l0.1,0.7l4,2.3L307.7,183.3L307.7,183.3z M311.9,185.7l-3.6-2.1l-0.1,0.6l3.5,2L311.9,185.7
			L311.9,185.7z"/>
		<path class="st16" d="M311.8,188.7l0,0.1C311.8,188.8,311.8,188.8,311.8,188.7C311.8,188.8,311.8,188.8,311.8,188.7
			C311.8,188.7,311.8,188.7,311.8,188.7L311.8,188.7z M303.3,183.4l-3-1.7l-0.2-0.1c-0.2-0.1-0.3,0-0.3,0.2c0,0.2,0.1,0.4,0.3,0.5
			l0.4,0.2l3,1.7L303.3,183.4L303.3,183.4z M307.4,185.8l-3.6-2.1l0.1,0.7l3.4,2L307.4,185.8L307.4,185.8z M311.3,188.1l-3.3-1.9
			l-0.1,0.6l3.2,1.8L311.3,188.1L311.3,188.1z"/>
		<path class="st16" d="M303,177.8C303,177.8,303,177.8,303,177.8C303,177.8,303,177.8,303,177.8c-0.2-0.1-0.3,0-0.3,0.2l0,0.3
			l0.2,2.2l0.1,0.7l0.2,2.2l0.1,0.7l0.2,2.2l0,0.4c0,0.2,0.1,0.4,0.3,0.5l0,0c0.2,0.1,0.3,0,0.2-0.2l0-0.3l-0.2-2.2l-0.1-0.7
			l-0.2-2.2l-0.1-0.7l-0.2-2.2l0-0.4C303.3,178.1,303.2,177.9,303,177.8C303.1,177.9,303,177.9,303,177.8L303,177.8z"/>
		<path class="st16" d="M308.2,180.8C308.2,180.8,308.2,180.8,308.2,180.8c-0.2-0.1-0.3,0-0.3,0.1l0,0.3l-0.2,2l-0.1,0.6l-0.2,1.9
			l-0.1,0.6l-0.2,2l0,0.3c0,0.2,0.1,0.4,0.3,0.5l0,0c0.1,0.1,0.3,0,0.3-0.1l0-0.3l0.2-2l0.1-0.6l0.2-1.9l0.1-0.6l0.2-2l0-0.3
			C308.5,181.2,308.4,180.9,308.2,180.8C308.2,180.8,308.2,180.8,308.2,180.8L308.2,180.8z"/>
		<path class="st16" d="M316,180.6c-0.3-0.2-0.6-0.3-0.9-0.4c-0.5-0.2-1-0.1-1.4,0.1c-0.4,0.2-0.6,0.6-0.8,1.1l-0.5,1.9l-0.1,0.6
			l-0.4,1.8l-0.1,0.6l-0.4,1.8l-0.1,0.6l0,0.1l-0.6,2.3l-0.3,1.1l-9.7-5.6c-0.2-0.1-0.3,0-0.3,0.2c0,0.2,0.1,0.4,0.3,0.5l0.6,0.4
			c0.2,0,0.3,0.1,0.5,0.2c0.2,0.1,0.4,0.3,0.5,0.4l6.5,3.8c0.2,0,0.3,0.1,0.5,0.2c0.2,0.1,0.4,0.3,0.5,0.4l0.6,0.4
			c0.1,0.1,0.2,0,0.3-0.1l0.8-3.3l0.2-0.7l0-0.1l1.2-4.8l0.5-2c0.2-0.9,0.9-1.2,1.7-1c0.2,0.1,0.5,0.2,0.7,0.3
			c0.4,0.2,0.9,0.6,1.3,1c0,0,0.1,0,0.1,0.1c0.1,0.1,0.2,0,0.3-0.1c0-0.1,0-0.4-0.2-0.5C316.9,181.3,316.4,180.9,316,180.6
			L316,180.6z"/>
		<path class="st16" d="M301.7,190.5c-0.5-0.3-0.9-1-0.9-1.6c0-0.6,0.4-0.8,0.9-0.5c0.5,0.3,0.9,1,0.9,1.6
			C302.6,190.5,302.2,190.8,301.7,190.5L301.7,190.5z M301.8,187.8c-0.2-0.1-0.4-0.2-0.5-0.2c-0.5-0.1-0.9,0.3-0.9,1
			c0,0.9,0.7,2.1,1.5,2.5c0.8,0.5,1.5,0.1,1.5-0.8c0-0.7-0.4-1.6-0.9-2.1C302.1,188,301.9,187.9,301.8,187.8L301.8,187.8z"/>
		<path class="st16" d="M309.3,194.9c-0.5-0.3-0.9-1-0.9-1.6c0-0.6,0.4-0.8,0.9-0.5c0.5,0.3,0.9,1,0.9,1.6
			C310.2,194.9,309.8,195.2,309.3,194.9L309.3,194.9z M309.4,192.2c-0.2-0.1-0.4-0.2-0.5-0.2c-0.5-0.1-0.9,0.3-0.9,1
			c0,0.9,0.7,2.1,1.5,2.5c0.8,0.5,1.5,0.1,1.5-0.8c0-0.7-0.4-1.6-0.9-2.1C309.7,192.4,309.5,192.3,309.4,192.2L309.4,192.2z"/>
		<polygon class="st28" points="294.1,213.4 293.2,216 290.3,214.4 292.6,217.7 291.7,220.3 294.1,219.7 296.4,223 295.5,219.3 
			297.9,218.7 295,217.1 294.1,213.4 		"/>
		<polygon class="st28" points="303.4,218.7 302.5,221.4 299.6,219.7 301.9,223 301,225.6 303.3,225 305.7,228.3 304.8,224.7 
			307.1,224.1 304.2,222.4 303.4,218.7 		"/>
		<polygon class="st28" points="312.6,224.1 311.7,226.7 308.8,225.1 311.2,228.4 310.3,231 312.6,230.4 314.9,233.7 314,230 
			316.4,229.4 313.5,227.7 312.6,224.1 		"/>
		<polygon class="st28" points="321.9,229.4 321,232.1 318.1,230.4 320.4,233.7 319.5,236.3 321.8,235.7 324.2,239 323.3,235.4 
			325.6,234.8 322.8,233.1 321.9,229.4 		"/>
		<polygon class="st28" points="331.1,234.8 330.2,237.4 327.3,235.7 329.7,239 328.8,241.7 331.1,241.1 333.4,244.4 332.6,240.7 
			334.9,240.1 332,238.4 331.1,234.8 		"/>
	</g>
</g>
<g>
	<g>
		<g>
			<g>
				<polygon class="st29" points="181,62.2 174,58.1 154.6,69.4 161.6,73.4 181,62.2 				"/>
				<polygon class="st29" points="265.4,110.9 258.4,106.8 239,118.1 239,118.1 246.1,122.2 265.4,110.9 				"/>
				<polygon class="st30" points="188.1,66.2 181,62.2 161.6,73.4 168.7,77.5 188.1,66.2 				"/>
				<polygon class="st29" points="195.1,70.3 188.1,66.2 168.7,77.5 175.7,81.5 195.1,70.3 				"/>
				<polygon class="st30" points="202.1,74.3 195.1,70.3 175.7,81.5 182.7,85.6 202.1,74.3 				"/>
				<polygon class="st29" points="209.2,78.4 202.1,74.3 182.7,85.6 189.8,89.7 209.2,78.4 				"/>
				<polygon class="st30" points="216.2,82.5 209.2,78.4 189.8,89.7 196.8,93.7 216.2,82.5 				"/>
				<polygon class="st29" points="223.2,86.5 216.2,82.5 196.8,93.7 203.8,97.8 223.2,86.5 				"/>
				<polygon class="st30" points="230.3,90.6 223.2,86.5 203.8,97.8 210.9,101.8 230.3,90.6 				"/>
				<polygon class="st29" points="237.3,94.6 230.3,90.6 210.9,101.8 217.9,105.9 237.3,94.6 				"/>
				<polygon class="st30" points="244.3,98.7 237.3,94.6 217.9,105.9 224.9,110 244.3,98.7 				"/>
				<polygon class="st29" points="251.4,102.8 244.3,98.7 224.9,110 232,114 251.4,102.8 				"/>
				<polygon class="st30" points="258.4,106.8 251.4,102.8 232,114 239,118.1 258.4,106.8 				"/>
			</g>
		</g>
		<g>
			<g>
				<path class="st31" d="M161.7,73.4l-7.1-4.1l0,8.6c0,2.2,1.6,5,3.5,6.1c1.9,1.1,3.5,0.2,3.5-2L161.7,73.4L161.7,73.4z"/>
				<path class="st31" d="M246.1,122.2l-7-4.1l0,8.6c0,2.2,1.6,5,3.5,6.1c1.9,1.1,3.5,0.2,3.5-2L246.1,122.2L246.1,122.2z"/>
				<path class="st32" d="M168.7,77.5l-7-4.1l0,8.6c0,2.2,1.6,5,3.5,6.1c1.9,1.1,3.5,0.2,3.5-2L168.7,77.5L168.7,77.5z"/>
				<path class="st31" d="M175.7,81.5l-7-4.1l0,8.6c0,2.2,1.6,5,3.5,6.1c1.9,1.1,3.5,0.2,3.5-2L175.7,81.5L175.7,81.5z"/>
				<path class="st32" d="M182.8,85.6l-7-4.1l0,8.6c0,2.2,1.6,5,3.5,6.1c1.9,1.1,3.5,0.2,3.5-2L182.8,85.6L182.8,85.6z"/>
				<path class="st31" d="M189.8,89.7l-7-4.1l0,8.6c0,2.2,1.6,5,3.5,6.1c1.9,1.1,3.5,0.2,3.5-2L189.8,89.7L189.8,89.7z"/>
				<path class="st32" d="M196.8,93.7l-7-4.1l0,8.6c0,2.2,1.6,5,3.5,6.1c1.9,1.1,3.5,0.2,3.5-2L196.8,93.7L196.8,93.7z"/>
				<path class="st31" d="M203.9,97.8l-7-4.1l0,8.6c0,2.2,1.6,5,3.5,6.1c1.9,1.1,3.5,0.2,3.5-2L203.9,97.8L203.9,97.8z"/>
				<path class="st32" d="M210.9,101.8l-7-4.1l0,8.6c0,2.2,1.6,5,3.5,6.1c1.9,1.1,3.5,0.2,3.5-2L210.9,101.8L210.9,101.8z"/>
				<path class="st31" d="M217.9,105.9l-7-4.1l0,8.6c0,2.2,1.6,5,3.5,6.1c1.9,1.1,3.5,0.2,3.5-2L217.9,105.9L217.9,105.9z"/>
				<path class="st32" d="M225,110l-7-4.1l0,8.6c0,2.2,1.6,5,3.5,6.1c1.9,1.1,3.5,0.2,3.5-2L225,110L225,110z"/>
				<path class="st31" d="M232,114l-7-4.1l0,8.6c0,2.2,1.6,5,3.5,6.1c1.9,1.1,3.5,0.2,3.5-2L232,114L232,114z"/>
				<path class="st32" d="M239,118.1l-7-4.1l0,8.6c0,2.2,1.6,5,3.5,6.1c1.9,1.1,3.5,0.2,3.5-2L239,118.1L239,118.1z"/>
			</g>
		</g>
	</g>
	<g>
		<g>
			<g>
				<polygon class="st29" points="349.8,159.6 342.8,155.6 323.4,166.8 323.4,166.8 330.5,170.9 349.8,159.6 				"/>
				<polygon class="st30" points="272.5,115 265.4,110.9 246,122.1 253.1,126.2 272.5,115 				"/>
				<polygon class="st29" points="279.5,119 272.5,115 253.1,126.2 260.1,130.3 279.5,119 				"/>
				<polygon class="st30" points="286.5,123.1 279.5,119 260.1,130.3 267.1,134.3 286.5,123.1 				"/>
				<polygon class="st29" points="293.6,127.1 286.5,123.1 267.1,134.3 274.2,138.4 293.6,127.1 				"/>
				<polygon class="st30" points="300.6,131.2 293.6,127.1 274.2,138.4 281.2,142.5 300.6,131.2 				"/>
				<polygon class="st29" points="307.6,135.3 300.6,131.2 281.2,142.5 288.2,146.5 307.6,135.3 				"/>
				<polygon class="st30" points="314.7,139.3 307.6,135.3 288.2,146.5 295.3,150.6 314.7,139.3 				"/>
				<polygon class="st29" points="321.7,143.4 314.7,139.3 295.3,150.6 302.3,154.6 321.7,143.4 				"/>
				<polygon class="st30" points="328.7,147.4 321.7,143.4 302.3,154.6 309.3,158.7 328.7,147.4 				"/>
				<polygon class="st29" points="335.8,151.5 328.7,147.4 309.3,158.7 316.4,162.8 335.8,151.5 				"/>
				<polygon class="st30" points="342.8,155.6 335.8,151.5 316.4,162.8 323.4,166.8 342.8,155.6 				"/>
			</g>
		</g>
		<g>
			<g>
				<path class="st31" d="M330.5,170.9l-7-4.1l0,8.6c0,2.2,1.6,5,3.5,6.1c1.9,1.1,3.5,0.2,3.5-2L330.5,170.9L330.5,170.9z"/>
				<path class="st32" d="M253.1,126.2l-7-4.1l0,8.6c0,2.2,1.6,5,3.5,6.1c1.9,1.1,3.5,0.2,3.5-2L253.1,126.2L253.1,126.2z"/>
				<path class="st31" d="M260.1,130.3l-7-4.1l0,8.6c0,2.2,1.6,5,3.5,6.1c1.9,1.1,3.5,0.2,3.5-2L260.1,130.3L260.1,130.3z"/>
				<path class="st32" d="M267.2,134.3l-7-4.1l0,8.6c0,2.2,1.6,5,3.5,6.1c1.9,1.1,3.5,0.2,3.5-2L267.2,134.3L267.2,134.3z"/>
				<path class="st31" d="M274.2,138.4l-7-4.1l0,8.6c0,2.2,1.6,5,3.5,6.1c1.9,1.1,3.5,0.2,3.5-2L274.2,138.4L274.2,138.4z"/>
				<path class="st32" d="M281.2,142.5l-7-4.1l0,8.6c0,2.2,1.6,5,3.5,6.1c1.9,1.1,3.5,0.2,3.5-2L281.2,142.5L281.2,142.5z"/>
				<path class="st31" d="M288.3,146.5l-7-4.1l0,8.6c0,2.2,1.6,5,3.5,6.1c1.9,1.1,3.5,0.2,3.5-2L288.3,146.5L288.3,146.5z"/>
				<path class="st32" d="M295.3,150.6l-7-4.1l0,8.6c0,2.2,1.6,5,3.5,6.1c1.9,1.1,3.5,0.2,3.5-2L295.3,150.6L295.3,150.6z"/>
				<path class="st31" d="M302.3,154.6l-7-4.1l0,8.6c0,2.2,1.6,5,3.5,6.1c1.9,1.1,3.5,0.2,3.5-2L302.3,154.6L302.3,154.6z"/>
				<path class="st32" d="M309.4,158.7l-7-4.1l0,8.6c0,2.2,1.6,5,3.5,6.1c1.9,1.1,3.5,0.2,3.5-2L309.4,158.7L309.4,158.7z"/>
				<path class="st31" d="M316.4,162.8l-7-4.1l0,8.6c0,2.2,1.6,5,3.5,6.1c1.9,1.1,3.5,0.2,3.5-2L316.4,162.8L316.4,162.8z"/>
				<path class="st32" d="M323.4,166.8l-7-4.1l0,8.6c0,2.2,1.6,5,3.5,6.1c1.9,1.1,3.5,0.2,3.5-2L323.4,166.8L323.4,166.8z"/>
			</g>
		</g>
	</g>
</g>
<g>
	<path class="st1" d="M439,349l-34.6-20c-4.7-2.7-12.4-2.7-17.1,0l-88.8,51.6c-4.7,2.7-4.7,7.2,0.1,9.9l34.6,20
		c4.7,2.7,12.4,2.7,17.1,0l88.8-51.6C443.8,356.2,443.7,351.7,439,349z"/>
	<polygon class="st33" points="292.3,383.8 292.3,381.2 293.5,381 293.7,384.6 293.1,386.3 	"/>
	<path class="st33" d="M436.3,347.4l-34.6-20c-4.7-2.7-12.4-2.7-17.1,0L295.8,379c-4.7,2.7-4.7,7.2,0.1,9.9l34.6,20
		c4.7,2.7,12.4,2.7,17.1,0l88.8-51.6C441,354.6,441,350.1,436.3,347.4z"/>
	<polygon class="st33" points="439.8,352.3 439.8,349.6 436.6,351 437.8,354.1 	"/>
	<g>
		<g>
			<path class="st16" d="M311.5,391.5c-1.1-0.6-1.1-1.6,0-2.3c1.1-0.6,2.8-0.6,3.9,0l9.1,5.3c1.1,0.6,1.1,1.6,0,2.3
				c-1.1,0.6-2.8,0.6-3.9,0L311.5,391.5L311.5,391.5z M299.5,377.4c-0.6-0.4-0.6-1,0-1.3l85-49.4c0.6-0.4,1.6-0.4,2.3,0l45.8,26.4
				c0.6,0.4,0.6,1,0,1.3l-85,49.4c-0.6,0.4-1.6,0.4-2.3,0L299.5,377.4L299.5,377.4z M406.5,334.3c-0.4-0.3-0.4-0.7,0-0.9
				c0.4-0.3,1.2-0.3,1.6,0l10,5.8c0.4,0.3,0.4,0.7,0,0.9c-0.4,0.3-1.2,0.3-1.6,0L406.5,334.3L406.5,334.3z M419.2,341.7
				c-0.5-0.3-0.5-0.8,0-1c0.5-0.3,1.3-0.3,1.8,0c0.5,0.3,0.5,0.8,0,1C420.5,342,419.7,342,419.2,341.7L419.2,341.7z M436.3,344.5
				l-34.6-20c-4.7-2.7-12.4-2.7-17.1,0l-88.8,51.6c-4.7,2.7-4.7,7.2,0.1,9.9l34.6,20c4.7,2.7,12.4,2.7,17.1,0l88.8-51.6
				C441,351.7,441,347.2,436.3,344.5L436.3,344.5z"/>
			<linearGradient id="SVGID_5_" gradientUnits="userSpaceOnUse" x1="299.0491" y1="365.2384" x2="433.0176" y2="365.2384">
				<stop  offset="0" style="stop-color:#4B5FAA"/>
				<stop  offset="1" style="stop-color:#242063"/>
			</linearGradient>
			<path class="st34" d="M432.5,353.1l-45.8-26.4c-0.6-0.4-1.7-0.4-2.3,0l-85,49.4c-0.6,0.4-0.6,1,0,1.3l45.8,26.4
				c0.6,0.4,1.7,0.4,2.3,0l85-49.4C433.2,354.1,433.2,353.5,432.5,353.1L432.5,353.1z"/>
			<path class="st35" d="M324.5,394.5l-9.1-5.3c-1.1-0.6-2.8-0.6-3.9,0c-1.1,0.6-1.1,1.6,0,2.3l9.1,5.3c1.1,0.6,2.8,0.6,3.9,0
				C325.6,396.2,325.6,395.2,324.5,394.5L324.5,394.5z"/>
			<path class="st35" d="M418.1,339.1l-10-5.8c-0.4-0.3-1.2-0.3-1.6,0c-0.4,0.3-0.4,0.7,0,0.9l10,5.8c0.4,0.3,1.2,0.3,1.6,0
				C418.6,339.8,418.6,339.4,418.1,339.1L418.1,339.1z"/>
			<path class="st35" d="M421,340.6c-0.5-0.3-1.3-0.3-1.8,0c-0.5,0.3-0.5,0.8,0,1c0.5,0.3,1.3,0.3,1.8,0
				C421.5,341.4,421.5,340.9,421,340.6L421,340.6z"/>
		</g>
	</g>
</g>
<g>
	<g class="st36">
		<g>
			<path d="M386.2,357.4c-9.5-5.5-24.8-5.5-34.2,0c-9.4,5.5-9.4,14.4,0.1,19.8c9.5,5.5,24.8,5.5,34.2,0
				C395.7,371.7,395.6,362.9,386.2,357.4L386.2,357.4z"/>
		</g>
	</g>
	<g>
		<g>
			<path class="st37" d="M383.4,356c-9.5-5.5-24.8-5.5-34.2,0c-9.4,5.5-9.4,14.4,0.1,19.8c9.5,5.5,24.8,5.5,34.2,0
				C393,370.3,392.9,361.5,383.4,356L383.4,356z"/>
		</g>
	</g>
	<rect x="342.2" y="359.7" class="st37" width="48.4" height="6.4"/>
	<g>
		<g>
			<path class="st27" d="M383.4,350.3c-9.5-5.5-24.8-5.5-34.2,0c-9.4,5.5-9.4,14.4,0.1,19.8c9.5,5.5,24.8,5.5,34.2,0
				C393,364.6,392.9,355.7,383.4,350.3L383.4,350.3z"/>
		</g>
	</g>
	<g>
		<g>
			<path class="st16" d="M371,363.3C371,363.3,371,363.3,371,363.3l-0.9,0.3L371,363.3L371,363.3z M357,355.2l-2.2,2
				c-0.1,0.1-0.1,0.2,0.1,0.3l11.6,6.7l3-1l-2.1,0.7l-3.4-2l-0.4,0.2c-0.2,0.1-0.5,0.1-0.6,0c0,0,0,0,0,0c-0.2-0.1-0.1-0.3,0.1-0.4
				l0.3-0.2l-3.5-2l-0.3,0.2c-0.2,0.1-0.5,0.1-0.7,0c0,0,0,0,0,0c-0.2-0.1-0.2-0.3,0-0.4l0.3-0.2l-3.2-1.9l1.6-1.5l-0.4-0.2
				C356.9,355.5,356.9,355.3,357,355.2L357,355.2z M378.1,360.9l-6.9,2.4c0,0,0,0,0,0l6.9-2.4C378,360.9,378,360.9,378.1,360.9
				L378.1,360.9z M366.7,354l-4.7-2.7c-0.1-0.1-0.2-0.1-0.4-0.1c-0.1,0-0.3,0.1-0.3,0.1l-4.2,3.9c0,0,0,0,0.1,0
				c0.2-0.1,0.5-0.1,0.7,0l0.3,0.2l1.6-1.5l-0.4-0.2c-0.2-0.1-0.2-0.3,0-0.4c0.2-0.1,0.5-0.1,0.7,0l0.2,0.1l1.6-1.5l4,2.3l0.3-0.2
				C366.2,353.9,366.5,353.8,366.7,354C366.7,353.9,366.7,354,366.7,354L366.7,354z M377.7,360.3l-11-6.4c0.2,0.1,0.2,0.2,0,0.4
				l-0.3,0.2l5.3,3l0.4-0.2c0.2-0.1,0.5-0.1,0.6,0c0,0,0,0,0,0c0.2,0.1,0.1,0.3-0.1,0.4l-0.3,0.2l4.5,2.6L377.7,360.3L377.7,360.3z"
				/>
			<path class="st16" d="M363.9,355.5l-3.8-2.2l-0.2-0.1c-0.2-0.1-0.5-0.1-0.7,0c-0.2,0.1-0.2,0.3,0,0.4l0.4,0.2l3.7,2.1
				L363.9,355.5L363.9,355.5z M369.4,358.7l-4.8-2.8l-0.6,0.4l4.6,2.7L369.4,358.7L369.4,358.7z M374.3,361.5l-4.2-2.4l-0.7,0.3
				l4.1,2.4L374.3,361.5L374.3,361.5z"/>
			<path class="st16" d="M371.1,363.3l-0.1,0C371,363.3,371,363.3,371.1,363.3C371.1,363.3,371.1,363.3,371.1,363.3
				C371.1,363.3,371.1,363.3,371.1,363.3L371.1,363.3z M361.5,357.3l-3.5-2l-0.3-0.2c-0.2-0.1-0.5-0.1-0.7,0c0,0,0,0-0.1,0
				c0,0,0,0,0,0c-0.1,0.1-0.1,0.2,0.1,0.3l0.4,0.2l3.5,2L361.5,357.3L361.5,357.3z M366.4,360.1l-4.2-2.4l-0.6,0.4l4,2.3
				L366.4,360.1L366.4,360.1z M370.9,362.7l-3.8-2.2l-0.7,0.3l3.7,2.2L370.9,362.7L370.9,362.7z"/>
			<path class="st16" d="M366.7,354C366.7,354,366.7,354,366.7,354C366.7,354,366.7,353.9,366.7,354c-0.3-0.1-0.5-0.1-0.7,0
				l-0.3,0.2l-1.8,1.4l-0.6,0.4l-1.8,1.4l-0.6,0.4l-1.9,1.4l-0.3,0.2c-0.1,0.1-0.1,0.3,0,0.4c0,0,0,0,0,0c0.2,0.1,0.5,0.1,0.7,0
				l0.3-0.2l1.9-1.4l0.6-0.4l1.8-1.4l0.6-0.4l1.8-1.4l0.3-0.2C366.9,354.2,366.9,354.1,366.7,354C366.7,354,366.7,354,366.7,354
				L366.7,354z"/>
			<path class="st16" d="M372.7,357.4c-0.2-0.1-0.4-0.1-0.6,0l-0.4,0.2l-2.3,1.1l-0.7,0.3l-2.3,1.1l-0.7,0.3l-2.3,1.1l-0.3,0.2
				c-0.2,0.1-0.2,0.3-0.1,0.4c0,0,0,0,0,0c0.2,0.1,0.4,0.1,0.6,0l0.4-0.2l2.3-1.1l0.7-0.3l2.3-1.1l0.7-0.3l2.3-1.1l0.3-0.2
				C372.9,357.7,372.9,357.6,372.7,357.4C372.7,357.5,372.7,357.4,372.7,357.4L372.7,357.4z"/>
			<path class="st16" d="M386.5,359.9c-0.3-0.2-0.7-0.4-1.1-0.5c-0.7-0.3-1.6-0.4-2.5-0.4c-0.9,0-1.7,0.1-2.5,0.4l-2.7,0.9l-0.8,0.3
				l-2.6,0.9l-0.8,0.3l-2.6,0.9l-0.8,0.3l-0.5,0.2l-3,1l-1.6,0.5l-11.4-6.6c-0.2-0.1-0.5-0.1-0.7,0c-0.2,0.1-0.2,0.3,0,0.4l0.8,0.4
				c0.3,0.1,0.5,0.2,0.7,0.3c0.2,0.1,0.4,0.3,0.5,0.4l7.6,4.4c0.3,0.1,0.5,0.2,0.7,0.3c0.2,0.1,0.4,0.3,0.5,0.4l0.7,0.4
				c0.2,0.1,0.4,0.1,0.6,0l4.9-1.7l0.9-0.3l0.1,0l6.9-2.4l2.8-1c1.2-0.4,2.8-0.4,4,0c0.3,0.1,0.6,0.3,0.9,0.4
				c0.5,0.3,0.9,0.6,1.3,1.1c0,0,0.1,0,0.1,0.1c0.1,0.1,0.4,0.1,0.6,0c0.2-0.1,0.3-0.2,0.2-0.4C387.5,360.6,387.1,360.2,386.5,359.9
				L386.5,359.9z"/>
			<path class="st16" d="M351.7,361c-0.6-0.3-0.6-0.9,0-1.2c0.6-0.3,1.5-0.3,2.1,0c0.6,0.3,0.6,0.9,0,1.2
				C353.3,361.3,352.3,361.3,351.7,361L351.7,361z M354.5,359.4c-0.2-0.1-0.5-0.2-0.7-0.3c-0.9-0.2-2-0.1-2.7,0.3
				c-0.9,0.5-0.9,1.4,0,2c0.9,0.5,2.5,0.5,3.4,0c0.7-0.4,0.9-1,0.5-1.6C354.9,359.6,354.7,359.5,354.5,359.4L354.5,359.4z"/>
			<path class="st16" d="M360.6,366.1c-0.6-0.3-0.6-0.9,0-1.2c0.6-0.3,1.5-0.3,2.1,0c0.6,0.3,0.6,0.9,0,1.2
				C362.1,366.4,361.2,366.4,360.6,366.1L360.6,366.1z M363.4,364.5c-0.2-0.1-0.5-0.2-0.7-0.3c-0.9-0.2-2-0.1-2.7,0.3
				c-0.9,0.5-0.9,1.4,0,2c0.9,0.5,2.5,0.5,3.4,0c0.7-0.4,0.9-1,0.5-1.6C363.8,364.8,363.6,364.6,363.4,364.5L363.4,364.5z"/>
		</g>
	</g>
</g>
<g>
	<g>
		<ellipse class="st36" cx="351.8" cy="422.2" rx="10.7" ry="5.1"/>
		<g>
			<g>
				<path class="st38" d="M357.1,421.7c0,0.7-0.7,2.3-3.4,0.5c-1.4-1-2.5-1.7-3.2-2.4c0,0,0,0,0,0c-0.7-0.6-1.2-1.2-1.3-1.9
					c-0.2-1.4,2.9-16,2.9-16l-5.2-2.1c0,0,1.5-3.9,4.5-3.7c0,0,5.2,2.4,5.1,3.5c-0.1,1.2-3.9,16.5-3.3,17.4c0.3,0.4,0.9,1,1.6,1.8
					C355.9,420,357.1,421.2,357.1,421.7z"/>
				<path class="st39" d="M357.1,421.7c0,0.7-0.7,2.3-3.4,0.5c-1.4-1-2.5-1.7-3.2-2.4c1.2,0.2,2.7,0.2,3.7-0.3
					c0.3-0.2,0.5-0.4,0.6-0.6C355.9,420,357.1,421.2,357.1,421.7z"/>
			</g>
			<g>
				<path class="st40" d="M350.7,424.4c-1.5-1.1-4-2.2-4.3-5c0-0.5,0-1,0.1-1.5c0.7-3.9,2.1-14.3,2.1-14.3l-3.4,0c0,0-1.9-2.6,0-5.9
					c0,0,8.1,1.2,8.3,3c0.2,1.8-3.7,15.2-2.9,17.4c0.3,0.9,0.9,1.6,1.5,2.2c0.9,1,1.9,1.8,2,2.6C354,424.2,352.5,425.7,350.7,424.4z
					"/>
				<path class="st39" d="M350.7,424.4c-1.5-1.1-4-2.2-4.3-5c1.5,1,3.6,1.9,5.6,0.9c0.9,1,1.9,1.8,2,2.6
					C354,424.2,352.5,425.7,350.7,424.4z"/>
			</g>
			<path class="st41" d="M330.1,394.3c0,0-0.7,6.9,5.9,8.1c6.6,1.2,9.7,1.2,9.7,1.2s1.2-6.4,6.8-7l-10.6-4.8
				C341.8,391.8,337.1,395.4,330.1,394.3z"/>
			<polygon class="st42" points="341.2,400.1 333.4,396.3 344.2,391.8 351.6,395.2 			"/>
			<polygon class="st42" points="341.2,400.4 333.4,396.6 344.2,392.1 351.6,395.5 			"/>
			<g>
				<path class="st40" d="M345.3,395.3c-2.4,0.7-2.3-2-2.3-2l-1.5-2.5l-1.3-2.2c0,0-0.6-8.5-0.6-10.2c0-1.6,0-3.6,0.8-3.8
					c0.9-0.2,3.1,2.4,3.2,4.6c0.1,2.2-0.6,8.4-0.3,9.1c0.1,0.2,0.4,0.7,0.7,1.2c0.8,1.3,1.8,3,1.8,3S347.7,394.6,345.3,395.3z"/>
				<path class="st43" d="M344,389.6c-1.1,0.2-1.9,0.7-2.5,1.1l-1.3-2.2c0,0-0.6-8.5-0.6-10.2c0-1.6,0-3.6,0.8-3.8
					c0.9-0.2,3.1,2.4,3.2,4.6c0.1,2.2-0.6,8.4-0.3,9.1C343.4,388.6,343.7,389.1,344,389.6z"/>
			</g>
			<path class="st44" d="M335.1,375c2.3-0.7,4.4-0.9,5.2-0.4c0.9,0.5,3.2,5.7,2.5,8.2c-0.7,2.5-2.2,4.1-1.9,6.3s0.8,2.7,0.8,2.7
				s-5.5,4-11.7,2.5c0,0-2-14.3-0.2-16.2C331.7,376.2,335.1,375,335.1,375z"/>
			<polygon class="st45" points="343.2,391.6 341.2,400.1 351.6,395.2 353.9,386.8 			"/>
			<path class="st38" d="M337.1,376.2c0.1,0-0.1-2.5,1.2-3.7l-3.7-3.6l-0.9,5.8C333.7,374.7,334.5,376.8,337.1,376.2z"/>
			<path class="st40" d="M337.9,364.5c1.6,0,3.9,0.8,3.9,3c-0.1,2.2-2,6.5-3.9,6.3c0,0-3-0.5-3.5-6.5
				C334.4,367.3,334.5,364.5,337.9,364.5z"/>
			<path class="st41" d="M341.8,365.9c-0.1,0.8-2.2,0.8-3.1,0.7c0,0-1.1,2.4-4,3.3c0,0-1.4,6.3,1.3,10.7c0,0-7.1-2.4-4.2-11.7
				c0,0,0.3-7.3,6.5-6.4C338.3,362.5,342,363,341.8,365.9z"/>
			<g>
				<path class="st40" d="M341.9,397.2c-0.5,0.1-4.2-0.6-4.8-1.5c0,0-4.1,0-6.9-0.8c-1.2-0.3-2.1-0.8-2.5-1.4
					c-1.3-2.1,0.6-12.2,0.9-13.1c0.3-0.9,1.2-2.8,3.2-2.2c1,0.3,1.9,1.4,1.3,3.7c-0.7,2.3-2.5,8.5-2.2,9.2c0.1,0.2,0.5,0.4,1.2,0.6
					c2.2,0.8,6.8,2,6.8,2s2.4-0.3,3.1,1.2C342.6,396.6,342.4,397.1,341.9,397.2z"/>
				<path class="st43" d="M333,382c-0.7,2.3-2.5,8.5-2.2,9.2c0.1,0.2,0.5,0.4,1.2,0.6c-0.9,0.9-1.5,2-1.8,3.1
					c-1.2-0.3-2.1-0.8-2.5-1.4c-1.3-2.1,0.6-12.2,0.9-13.1c0.3-0.9,1.2-2.8,3.2-2.2C332.8,378.6,333.7,379.7,333,382z"/>
			</g>
			<polygon class="st46" points="343.4,391.8 341.4,400.3 351.9,395.4 354.1,387 			"/>
		</g>
	</g>
	<polygon class="st45" points="353.9,386.8 354.1,387 353.2,387.4 353,387.2 	"/>
	<polygon class="st45" points="333.4,396.3 333.4,396.6 341.2,400.4 341.2,400.1 	"/>
	<polygon class="st47" points="341.2,400.1 341.2,400.4 341.4,400.3 343.4,391.8 343.2,391.6 	"/>
</g>
</svg>
