<?xml version="1.0" encoding="utf-8"?>
<!-- Generator: Adobe Illustrator 24.3.0, SVG Export Plug-In . SVG Version: 6.00 Build 0)  -->
<svg version="1.1" id="Layer_1" xmlns="http://www.w3.org/2000/svg" xmlns:xlink="http://www.w3.org/1999/xlink" x="0px" y="0px"
	 viewBox="0 0 415 415" style="enable-background:new 0 0 415 415;" xml:space="preserve">
<style type="text/css">
	.st0{fill:#1F1C1D;}
	.st1{fill:#E61F2D;}
</style>
<g id="layer101">
	<path class="st0" d="M70.7,413.6c-0.4-0.3-0.7-29.3-0.7-64.4v-63.8l2.9-3.3c1.6-1.9,5.5-4.4,8.8-5.8c33.2-13.6,58.7-29.7,88.8-56
		c14.7-12.9,14.4-12.5,11.4-15.7c-4.6-4.9-24.5-21.7-35.4-29.9c-19.9-14.7-37.2-24.8-59-33.9c-4.9-2.1-10.2-4.7-11.8-5.8
		c-5.9-4-5.7-1.9-5.7-70.6c0-45,0.3-63.2,1.1-63.7c0.7-0.4,6.6,4.8,14,12.2L98,25.8v51.3c0,58.7-0.7,54.3,9.4,59.4
		c17.3,8.7,46.6,29.8,65.4,47c17.6,16.1,21.3,21.9,17.9,28.4c-1.9,3.7-19.5,21.1-30.7,30.4c-15.4,12.7-40,29.4-53.7,36.4
		c-8.9,4.4-8.3,0.3-8.3,58.5v51.4l-12.7,12.9c-7,7-13,12.8-13.3,12.8C71.6,414.3,71,414,70.7,413.6z"/>
	<path class="st0" d="M327.2,401L314,387.8v-51c0-43.7-0.2-51.4-1.5-53.2c-0.8-1.2-5-4-9.2-6.3c-11.4-6.1-34.2-21.5-46.3-31.1
		c-5.8-4.6-16-13.7-22.8-20.3c-18.7-18.1-18.6-19.3,1.8-38.9c19.2-18.5,42-35.5,63.5-47.5c5-2.7,10.2-6.1,11.8-7.5l2.7-2.6V77.9
		V26.3l13.4-13.5c7.3-7.4,13.6-13.2,14-12.8c0.3,0.3,0.6,29.6,0.6,64.9v64.3l-2.9,3.3c-1.6,1.9-5.5,4.4-8.8,5.8
		c-26.9,11-51,25.1-73.3,43c-9.3,7.4-29,25.1-29,26c0,1,19,17.9,30.5,27c10.4,8.4,30.7,21.9,41.5,27.8c4.1,2.2,13.8,6.8,21.5,10.2
		c9.8,4.3,15,7.1,17.3,9.5l3.2,3.5v63.9c0,35.2-0.4,64.2-0.8,64.5C340.7,414,334.4,408.2,327.2,401z"/>
</g>
<g id="layer102">
	<path class="st1" d="M116.4,412.8c-0.4-1-0.5-29.6-0.2-63.6l0.6-62l2.5-3.8c1.4-2.2,8.8-9.3,16.4-15.8c13.8-12,35.3-33.6,35.3-35.6
		c0-0.6,4-5.2,8.9-10.2c4.9-5,9.3-10.3,9.6-11.7c1.3-5-1.3-9.7-10.1-18.3c-4.6-4.5-8.4-8.7-8.4-9.2c0-2-22.5-24.6-36.1-36.4
		c-7.6-6.5-14.7-13.5-15.9-15.4l-2.3-3.7L116.6,64c-0.1-51.2,0.1-63.2,1.2-63.2c0.7,0,6.5,5.6,12.7,12.5L142,25.8v50.3
		c0,47.7,0.1,50.5,1.9,54.1c2.4,4.6,8.2,11.9,22.1,27.6c5.8,6.6,13,14.9,15.9,18.5c3.5,4.1,5.1,5.5,4.6,4
		c-1.9-6.2-10.8-24.9-16.3-34.2c-3.4-5.7-6.6-12.5-7.2-15.3c-1.4-5.8-1.4-116.5-0.1-117.8c2.1-2.1,19.5,23.8,26.1,39
		c7.8,17.7,8.1,19.5,9,51.8c1.1,38.1,1.1,168.2,0,205c-0.9,32.6-1.7,37.3-8.8,52.8c-6.3,13.4-24.6,40.7-26.3,39
		c-1.3-1.3-1.3-111,0.1-116.8c0.6-2.7,3.8-9.5,7-15c7.1-12.1,19.3-38.4,16.1-34.9c-0.5,0.5-3.5,4.1-6.7,7.9
		c-3.2,3.9-9.4,11.1-13.9,16c-12.6,14-19.4,22.3-21.5,26.5c-1.9,3.8-2,6.1-2,54.2v50.3l-11.5,12.5c-6.3,6.9-11.9,12.6-12.5,12.8
		C117.5,414.3,116.7,413.7,116.4,412.8z"/>
	<path class="st1" d="M281.8,401.5l-11.7-12.7l-0.1-51v-51l-2.7-4c-3.8-5.7-9.1-12.1-22.8-27.5c-6.6-7.4-13.3-15.2-14.9-17.3
		c-1.6-2.1-3-3.6-3.2-3.4c-1.1,1,9.4,23.1,17.9,38c3,5.2,4.9,9.9,5.6,14.1c1.4,7.8,1.5,115.2,0.2,116s-8.7-7.7-15.4-17.7
		c-12.3-18.2-19-37.3-20.7-58.2c-2.6-33.4-1.9-198.6,1-243.5c1.2-19.4,5.5-30,21.6-54c11-16.5,12-17.8,13.4-16.4
		c0.8,0.8,1,17.7,0.8,58.5c-0.4,65.3,0.6,58-10.3,77.4c-6.4,11.5-9.3,17.6-13.6,28.8l-1.9,5.2l2.2-3c1.3-1.6,9.2-10.9,17.7-20.5
		c8.4-9.6,17.5-20.6,20.2-24.4l4.9-6.9V76.9l0.1-51.1l11.5-12.5c6.4-6.9,12.1-12.5,12.8-12.5c1.5,0,2.2,120.3,0.6,125.7
		c-1.5,5.1-4.3,8.2-19.5,21.4c-13.3,11.4-33.5,31.8-33.5,33.7c0,0.6-4,5.2-9,10.2c-14,14.3-14.1,16.5-1,30c4.8,5,8.9,9.5,9.1,10.2
		c0.9,2.8,19,21.1,33.4,33.8c8.5,7.5,16.7,15.2,18.2,17.2l2.8,3.6v63.5c0,41.5-0.3,63.6-1,63.8C294,414.1,288.2,408.5,281.8,401.5z"
		/>
</g>
</svg>
