<?xml version="1.0" encoding="utf-8"?>
<!-- Generator: Adobe Illustrator 16.0.0, SVG Export Plug-In . SVG Version: 6.00 Build 0)  -->
<!DOCTYPE svg PUBLIC "-//W3C//DTD SVG 1.1//EN" "http://www.w3.org/Graphics/SVG/1.1/DTD/svg11.dtd">
<svg version="1.1" id="Layer_1" xmlns="http://www.w3.org/2000/svg" xmlns:xlink="http://www.w3.org/1999/xlink" x="0px" y="0px"
	 width="1419.553px" height="555.737px" viewBox="0.354 129.263 1419.553 555.737"
	 enable-background="new 0.354 129.263 1419.553 555.737" xml:space="preserve">
<g id="Page-1">
	<g id="end_to_end" transform="translate(-175.000000, -139.000000)">
		<g id="Group-12" transform="translate(175.000000, 167.000000)">
			<g id="Group-41" transform="translate(299.000000, 457.000000)">
				<g id="Group-16">
					<g id="Group-18">
						<g id="Group-23">
							<g id="Group">
							</g>
						</g>
					</g>
				</g>
			</g>
			<g id="Group-6-Copy" transform="translate(50.000000, 379.000000)">
				<ellipse id="Oval-2-Copy-5" fill="#B2B2B2" cx="35.696" cy="36" rx="35.696" ry="36"/>
				<path id="Stroke-1722" fill="none" stroke="#FFFFFF" stroke-width="1.8" d="M21.133,26.663v2.507l-4.59,1.293
					c-0.956,0.269-1.737,1.291-1.737,2.271v0.892h9.942"/>
				<path id="Stroke-1723" fill="none" stroke="#FFFFFF" stroke-width="1.8" d="M26.556,26.663v2.507l4.588,1.293
					c0.958,0.269,1.739,1.291,1.739,2.271v0.892H22.94"/>
				<path id="Stroke-1724" fill="none" stroke="#FFFFFF" stroke-width="1.8" d="M29.268,21.631c0,3.221-2.43,5.832-5.423,5.832
					c-2.996,0-5.423-2.611-5.423-5.832c0-3.22,2.427-5.83,5.423-5.83C26.838,15.801,29.268,18.411,29.268,21.631L29.268,21.631z"/>
				<path id="Stroke-1725" fill="none" stroke="#FFFFFF" stroke-width="1.8" stroke-linejoin="round" d="M29.211,20.61
					c-0.904,0.891-3.488,0.848-4.462-0.941c-1.808,1.782-4.746,1.782-6.208,0.766"/>
				<path id="Stroke-1726" fill="none" stroke="#FFFFFF" stroke-width="1.8" d="M44.633,26.663v2.507l-4.59,1.293
					c-0.955,0.269-1.737,1.291-1.737,2.271v0.892h9.942"/>
				<path id="Stroke-1727" fill="none" stroke="#FFFFFF" stroke-width="1.8" d="M50.056,26.663v2.507l4.588,1.293
					c0.957,0.269,1.739,1.291,1.739,2.271v0.892H46.44"/>
				<path id="Stroke-1728" fill="none" stroke="#FFFFFF" stroke-width="1.8" d="M52.768,21.631c0,3.221-2.43,5.832-5.423,5.832
					c-2.997,0-5.423-2.611-5.423-5.832c0-3.22,2.427-5.83,5.423-5.83C50.338,15.801,52.768,18.411,52.768,21.631L52.768,21.631z"/>
				<path id="Stroke-1729" fill="none" stroke="#FFFFFF" stroke-width="1.8" stroke-linejoin="round" d="M52.683,20.604
					c-0.904,0.892-3.46,0.854-4.435-0.936c-1.808,1.782-4.746,1.782-6.208,0.766"/>
				<path id="Stroke-1730" fill="none" stroke="#FFFFFF" stroke-width="1.8" d="M32.883,49.855v2.488l-4.59,1.293
					c-0.956,0.269-1.737,1.291-1.737,2.272v0.892h9.942"/>
				<path id="Stroke-1731" fill="none" stroke="#FFFFFF" stroke-width="1.8" d="M38.306,49.837v2.507l4.588,1.293
					c0.957,0.269,1.739,1.291,1.739,2.271V56.8H34.69"/>
				<path id="Stroke-1732" fill="none" stroke="#FFFFFF" stroke-width="1.8" d="M41.018,44.806c0,3.22-2.43,5.831-5.423,5.831
					c-2.996,0-5.423-2.611-5.423-5.831c0-3.221,2.427-5.831,5.423-5.831C38.588,38.975,41.018,41.585,41.018,44.806L41.018,44.806z"
					/>
				<path id="Stroke-1733" fill="none" stroke="#FFFFFF" stroke-width="1.8" stroke-linejoin="round" d="M40.933,43.734
					c-0.904,0.891-3.46,0.897-4.434-0.892c-1.808,1.782-4.746,1.782-6.208,0.765"/>
				<path id="Stroke-1734" fill="none" stroke="#FFFFFF" stroke-width="1.8" stroke-linecap="round" d="M21.133,37.191l4.519,4.456"
					/>
				<path id="Stroke-1735" fill="none" stroke="#FFFFFF" stroke-width="1.8" stroke-linecap="round" d="M50.056,37.191l-4.52,4.456"
					/>
			</g>
			<text transform="matrix(1 0 0 1 0.354 363)" fill="#3D3C3F" font-family="'ArialMT'" font-size="23">Scoping Session</text>
			<text transform="matrix(1 0 0 1 363.0449 569)" fill="#3D3C3F" font-family="'ArialMT'" font-size="23">Team Extension</text>
			<text transform="matrix(1 0 0 1 895.4697 569)" fill="#3D3C3F" font-family="'ArialMT'" font-size="23">MVP/PoC</text>
			<text transform="matrix(1 0 0 1 1017.8164 340)" fill="#3D3C3F" font-family="'ArialMT'" font-size="23">Product Design </text>
			<text transform="matrix(1 0 0 1 1018.127 368)" fill="#3D3C3F" font-family="'ArialMT'" font-size="23">&amp; Development</text>
			<text transform="matrix(1 0 0 1 1196.1621 121)" fill="#3D3C3F" font-family="'ArialMT'" font-size="23">Product Maintenance</text>
			<text transform="matrix(1 0 0 1 1413.5176 121)" fill="#3D3C3F" font-family="'ArialMT'" font-size="23"> </text>
			<text transform="matrix(1 0 0 1 1256.25 149)" fill="#3D3C3F" font-family="'ArialMT'" font-size="23">&amp; Support</text>
			<text transform="matrix(1 0 0 1 386.8789 363)" fill="#3D3C3F" font-family="'ArialMT'" font-size="23">Workshops</text>
			<path id="Line-2-Copy-4" fill="none" stroke="#FF505D" stroke-width="2.4" stroke-linecap="round" d="M511,415l519,2"/>
			<path id="Line-2-Copy-5" fill="none" stroke="#CECECE" stroke-width="2.4" stroke-linecap="round" d="M149,415l237,0.5"/>
			<g id="Group-8-Copy" transform="translate(409.000000, 379.000000)">
				<circle id="Oval-2" fill="#FF505D" cx="36" cy="36" r="36"/>
				<g id="Group-17" transform="translate(18.000000, 15.000000)">
					<polygon id="Stroke-6195" fill="none" stroke="#FFFFFF" stroke-width="1.62" stroke-linejoin="round" points="14.479,36.479 
						0,36.479 0,22 14.479,22 					"/>
					<polygon id="Stroke-6196" fill="none" stroke="#FFFFFF" stroke-width="1.62" stroke-linejoin="round" points="36.479,36.479 
						22,36.479 22,22 36.479,22 					"/>
					<polygon id="Stroke-6197" fill="none" stroke="#FFFFFF" stroke-width="1.62" stroke-linejoin="round" points="26.479,14.479 
						12,14.479 12,0 26.479,0 					"/>
					
						<polyline id="Stroke-6198" fill="none" stroke="#FFFFFF" stroke-width="1.62" stroke-linecap="round" stroke-linejoin="round" points="
						32.348,22.826 32.348,18 5,18 5,22.826 					"/>
					<path id="Stroke-6199" fill="none" stroke="#FFFFFF" stroke-width="1.62" stroke-linecap="round" stroke-linejoin="round" d="
						M19,14v3.218"/>
					<path id="Stroke-6201" fill="none" stroke="#FFFFFF" stroke-width="1.62" stroke-linecap="round" stroke-linejoin="round" d="
						M25,26h8.044"/>
					<path id="Stroke-6202" fill="none" stroke="#FFFFFF" stroke-width="1.62" stroke-linecap="round" stroke-linejoin="round" d="
						M3,26h8.044"/>
				</g>
				<path id="Stroke-6200" fill="none" stroke="#FFFFFF" stroke-width="1.62" stroke-linecap="round" stroke-linejoin="round" d="
					M33,18h8.044"/>
			</g>
			<g id="Group-7-Copy" transform="translate(410.000000, 585.000000)">
				<ellipse id="Oval-2-Copy-8" fill="#FF505D" cx="35.685" cy="36" rx="35.2" ry="36"/>
				<path id="Stroke-1699" fill="none" stroke="#FFFFFF" stroke-width="2" stroke-linejoin="round" d="M28.85,50h12.635v-7.5
					c0-0.833-5-3.333-9.166-5v-3.333c0,0,1.666-0.584,1.666-4.167c1.159,0,1.667-3.333,0.054-3.333c0-0.353,1.276-2.181,0.78-4.167
					c-0.834-3.333-9.167-3.333-10,0c-3.51-0.718-0.834,3.686-0.834,4.167c-1.666,0-1.16,3.333,0,3.333
					c0,3.583,1.667,4.167,1.667,4.167V37.5c-4.167,1.667-9.167,4.167-9.167,5V50H28.85L28.85,50z"/>
				<path id="Stroke-1700" fill="none" stroke="#FFFFFF" stroke-width="2" stroke-linecap="round" stroke-linejoin="round" d="
					M45.331,50h9.153v-7.438c0-0.826-4.16-1.983-7.489-3.306v-2.479c0,0,1.665-0.463,1.665-3.307c0.926,0,1.289-3.306,0-3.306
					c0-0.279,1.349-1.765,0.832-3.306c-0.832-2.479-7.49-2.479-8.322,0c-2.804-0.569-0.832,2.925-0.832,3.306
					c-1.331,0-0.926,3.306,0,3.306c0,2.844,1.664,3.307,1.664,3.307v1.652"/>
			</g>
			<ellipse id="Oval-2-Copy-13" fill="#FF505D" cx="1100" cy="420" rx="35" ry="36"/>
			
				<path id="Stroke-5054-Copy" fill="none" stroke="#FFFFFF" stroke-width="1.6" stroke-linecap="round" stroke-linejoin="round" d="
				M1120,430.777c0,1.78-1.439,3.223-3.218,3.223h-30.564c-1.776,0-3.218-1.442-3.218-3.223v-22.555c0-1.78,1.441-3.223,3.218-3.223
				h30.564c1.778,0,3.218,1.442,3.218,3.223V430.777L1120,430.777z"/>
			
				<path id="Stroke-5055-Copy" fill="none" stroke="#FFFFFF" stroke-width="1.6" stroke-linecap="round" stroke-linejoin="round" d="
				M1083,413h37"/>
			
				<path id="Stroke-5056-Copy" fill="none" stroke="#FFFFFF" stroke-width="1.6" stroke-linecap="round" stroke-linejoin="round" d="
				M1090,410c0,0.553-0.448,1-1,1c-0.553,0-1-0.447-1-1s0.447-1,1-1C1089.552,409,1090,409.447,1090,410L1090,410z"/>
			
				<path id="Stroke-5057-Copy" fill="none" stroke="#FFFFFF" stroke-width="1.6" stroke-linecap="round" stroke-linejoin="round" d="
				M1095,410c0,0.553-0.448,1-1,1c-0.553,0-1-0.447-1-1s0.447-1,1-1C1094.552,409,1095,409.447,1095,410L1095,410z"/>
			
				<path id="Stroke-5058-Copy" fill="none" stroke="#FFFFFF" stroke-width="1.6" stroke-linecap="round" stroke-linejoin="round" d="
				M1100,410c0,0.553-0.448,1-1,1c-0.553,0-1-0.447-1-1s0.447-1,1-1C1099.552,409,1100,409.447,1100,410L1100,410z"/>
			
				<polyline id="Stroke-5059-Copy" fill="none" stroke="#FFFFFF" stroke-width="1.6" stroke-linecap="round" stroke-linejoin="round" points="
				1091,420 1095,424 1091,428 			"/>
			
				<path id="Stroke-5060-Copy" fill="none" stroke="#FFFFFF" stroke-width="1.6" stroke-linecap="round" stroke-linejoin="round" d="
				M1100,425h6"/>
			<path id="Path-5-Copy-2" fill="none" stroke="#CECECE" stroke-width="2.4" stroke-linecap="round" stroke-dasharray="8,10" d="
				M1243,194H470c-14.912,0-27,12.088-27,27v99"/>
			<polygon id="Rectangle" fill="#CECECE" points="434,321.352 452.382,321.031 443.352,330.382 			"/>
			<ellipse id="Oval-2-Copy-2" fill="#E61F2D" cx="1308" cy="201" rx="35" ry="36"/>
			<g id="Group-7" transform="translate(1294.000000, 187.000000)">
				<path id="Stroke-3867" fill="none" stroke="#FFFFFF" stroke-width="1.8" stroke-linejoin="round" d="M19.695,14.348
					c0,2.954-2.393,5.348-5.348,5.348C11.395,19.696,9,17.302,9,14.348C9,11.393,11.395,9,14.348,9
					C17.303,9,19.695,11.393,19.695,14.348L19.695,14.348z"/>
				<path id="Stroke-3869" fill="none" stroke="#FFFFFF" stroke-width="1.8" stroke-linejoin="round" d="M25.721,14.261
					c0-0.833-0.092-1.642-0.259-2.423l2.803-1.619L24.7,4.042l-2.752,1.626c-1.198-1.083-2.341-1.922-4.123-2.428V0h-7.131v3.24
					C8.912,3.746,7.641,4.587,6.443,5.668L3.597,4.042l-3.581,6.177l2.796,1.619c-0.166,0.782-0.262,1.591-0.262,2.423
					s0.089,1.642,0.255,2.424L0,18.303l3.565,6.177l2.878-1.625c1.197,1.082,2.469,1.921,4.251,2.43v3.238h7.131v-3.238
					c1.782-0.508,2.925-1.348,4.125-2.43l2.781,1.625l3.549-6.177l-2.81-1.618C25.636,15.903,25.721,15.093,25.721,14.261
					L25.721,14.261z"/>
			</g>
			<g id="Group-6" transform="translate(909.000000, 585.000000)">
				<circle id="Oval-2-Copy-4" fill="#FF505D" cx="36" cy="36" r="36"/>
				<path id="Stroke-1239" fill="none" stroke="#FFFFFF" stroke-width="1.6" stroke-linecap="round" d="M44.787,47.617
					c0,1.316-1.086,2.383-2.426,2.383H29.426C28.086,50,27,48.934,27,47.617V25.383C27,24.066,28.086,23,29.426,23h12.936
					c1.34,0,2.426,1.066,2.426,2.383V47.617L44.787,47.617z"/>
				<path id="Stroke-1241" fill="none" stroke="#FFFFFF" stroke-width="1.6" stroke-linecap="round" d="M27,45h17.787"/>
				<path id="Stroke-1242" fill="none" stroke="#FFFFFF" stroke-width="1.6" stroke-linecap="round" stroke-linejoin="round" d="
					M32,26h8.085"/>
				<path id="Stroke-1243" fill="none" stroke="#FFFFFF" stroke-width="1.6" stroke-linecap="round" stroke-linejoin="round" d="
					M22,29v19.059"/>
				<path id="Stroke-1244" fill="none" stroke="#FFFFFF" stroke-width="1.6" stroke-linecap="round" stroke-linejoin="round" d="
					M17,31v15.883"/>
				<path id="Stroke-1240" fill="none" stroke="#FFFFFF" stroke-width="1.6" stroke-linecap="round" d="M27,29h17.787"/>
			</g>
			<g id="Group-14" transform="translate(927.000000, 608.000000)">
				<g id="Group-11">
					<path id="Stroke-1245" fill="none" stroke="#FFFFFF" stroke-width="1.6" stroke-linecap="round" stroke-linejoin="round" d="
						M32,3v19.059"/>
					<path id="Stroke-1246" fill="none" stroke="#FFFFFF" stroke-width="1.6" stroke-linecap="round" stroke-linejoin="round" d="
						M37,5v15.883"/>
				</g>
			</g>
			<path id="Path-3" fill="none" stroke="#FF505D" stroke-width="2.4" stroke-linecap="round" d="M739,416h52.498
				c14.909,0,26.996,12.083,26.996,27.002v154.996c0,14.913,12.089,27.002,26.999,27.002H896"/>
			<path id="Path-3-Copy-3" fill="none" stroke="#CECECE" stroke-width="2.4" stroke-linecap="round" stroke-dasharray="8,10" d="
				M277,415.004l1.492-0.023c14.911-0.236,26.998,11.661,26.998,26.578v155.436c0,14.915,12.093,27.006,26.998,27.006H391"/>
			<path id="Path-3-Copy" fill="none" stroke="#FF505D" stroke-width="2.4" stroke-linecap="round" d="M1101,473
				c0,0,0,12.086,0,26.999v98.002c0,14.911-12.082,26.999-27.006,26.999H995"/>
			<path id="Path-3-Copy-2" fill="none" stroke="#E61F2D" stroke-width="2.4" stroke-linecap="round" d="M1313,265
				c0,0,0,12.086,0,27v98.001c0,14.911-12.098,26.999-27.006,26.999H1176"/>
		</g>
	</g>
</g>
</svg>
