<?xml version="1.0" encoding="utf-8"?>
<!-- Generator: Adobe Illustrator 16.0.0, SVG Export Plug-In . SVG Version: 6.00 Build 0)  -->
<!DOCTYPE svg PUBLIC "-//W3C//DTD SVG 1.1//EN" "http://www.w3.org/Graphics/SVG/1.1/DTD/svg11.dtd">
<svg version="1.1" id="Layer_1" xmlns:serif="http://www.serif.com/"
	 xmlns="http://www.w3.org/2000/svg" xmlns:xlink="http://www.w3.org/1999/xlink" x="0px" y="0px" width="500px" height="500px"
	 viewBox="0 0 500 500" enable-background="new 0 0 500 500" xml:space="preserve">
<rect fill="#E61F2D" width="500" height="196.5"/>
<path d="M396.527,353.057c-15.413,0-28.556,9.888-33.438,23.648h-25.681v-96.169h23.647c39.117,0,70.944-31.825,70.944-70.944
	c0-38.67-30.843-69.171-67.397-70.858c-13.597-28.667-42.518-47.383-74.491-47.383c-2.804,0-5.481,0.204-7.976,0.495
	c-17.392-15.614-39.527-24.144-62.969-24.144c-44.332,0-82.526,31.38-91.985,74.227c-29.36,9.075-49.905,36.319-49.905,67.662
	c0,39.118,31.825,70.944,70.945,70.944h23.649v96.17H146.19c-4.883-13.762-18.025-23.648-33.44-23.648
	c-19.558,0-35.472,15.913-35.472,35.471c0,19.56,15.914,35.474,35.472,35.474c15.414,0,28.557-9.888,33.44-23.648h37.504
	c6.53,0,11.823-5.293,11.823-11.825V280.536h47.297v121.849c-13.764,4.887-23.646,18.028-23.646,33.441
	c0,19.559,15.913,35.472,35.472,35.472c19.561,0,35.473-15.914,35.473-35.472c0-15.413-9.885-28.555-23.649-33.441V280.536h47.297
	v107.993c0,6.531,5.294,11.825,11.824,11.825h37.505c4.885,13.763,18.025,23.648,33.44,23.648c19.561,0,35.472-15.912,35.472-35.472
	C432,368.97,416.087,353.057,396.527,353.057z M112.75,400.354c-6.519,0-11.824-5.305-11.824-11.824
	c0-6.521,5.306-11.824,11.824-11.824c6.519,0,11.825,5.304,11.825,11.824C124.574,395.049,119.268,400.354,112.75,400.354z
	 M254.639,447.65c-6.519,0-11.824-5.306-11.824-11.824c0-6.52,5.306-11.824,11.824-11.824c6.521,0,11.824,5.305,11.824,11.824
	C266.463,442.345,261.159,447.65,254.639,447.65z M100.925,209.592c0-22.765,16.278-42.283,38.7-46.409
	c0.439-0.08,0.865-0.194,1.288-0.321c8.734-1.364,17.597-0.289,25.716,3.144c6.011,2.547,12.952-0.268,15.495-6.284
	c2.544-6.015-0.271-12.952-6.284-15.496c-7.42-3.137-15.25-4.96-23.191-5.449c9.797-27.833,36.242-47.426,66.52-47.426
	c19.094,0,37.046,7.571,50.541,21.318c2.717,2.765,6.615,4.023,10.437,3.371c2.999-0.515,6.53-1.041,9.968-1.041
	c20.135,0,38.575,10.451,49.299,27.023c-2.013,0.646-4.01,1.374-5.974,2.205c-6.013,2.543-8.828,9.48-6.283,15.495
	c2.545,6.02,9.485,8.828,15.493,6.284c30.94-13.08,65.704,9.729,65.704,43.587c0,26.082-21.215,47.297-47.297,47.297H148.222
	C122.142,256.889,100.925,235.672,100.925,209.592z M396.527,400.354c-6.519,0-11.823-5.305-11.823-11.824
	c0-6.521,5.305-11.824,11.823-11.824c6.521,0,11.826,5.304,11.826,11.824C408.354,395.049,403.045,400.354,396.527,400.354z"/>
</svg>
