<?xml version="1.0" encoding="utf-8"?>
<!-- Generator: Adobe Illustrator 16.0.0, SVG Export Plug-In . SVG Version: 6.00 Build 0)  -->
<!DOCTYPE svg PUBLIC "-//W3C//DTD SVG 1.1//EN" "http://www.w3.org/Graphics/SVG/1.1/DTD/svg11.dtd">
<svg version="1.1" id="Layer_1" xmlns:serif="http://www.serif.com/"
	 xmlns="http://www.w3.org/2000/svg" xmlns:xlink="http://www.w3.org/1999/xlink" x="0px" y="0px" width="500px" height="500px"
	 viewBox="0 0 500 500" enable-background="new 0 0 500 500" xml:space="preserve">
<polygon fill="#E61F2D" points="396.709,3.624 4.185,3.624 4.185,396.148 "/>
<g>
	<path d="M242.633,48c-106.42,0-193,86.579-193,193c0,106.42,86.58,193,193,193c106.421,0,193.001-86.58,193.001-193
		C435.634,134.579,349.054,48,242.633,48z M242.632,417.002c-97.047,0-176.001-78.954-176.001-176.002
		S145.585,64.998,242.633,64.998c46.94,0,91.118,18.329,124.396,51.609c33.279,33.28,51.605,77.456,51.604,124.393
		C418.634,338.048,339.68,417.002,242.632,417.002z"/>
	<path d="M264.338,167.382h-65.117c-4.687,0-8.5,3.813-8.5,8.5V241c0,4.687,3.813,8.5,8.5,8.5h65.117
		c22.641,0,41.06-18.419,41.06-41.06C305.397,185.801,286.979,167.382,264.338,167.382z M264.338,232.5H207.72v-48.119h56.618
		c13.267,0,24.06,10.793,24.06,24.059C288.397,221.707,277.604,232.5,264.338,232.5z"/>
	<path d="M264.338,232.5h-65.117c-4.687,0-8.5,3.813-8.5,8.5v65.119c0,4.686,3.813,8.498,8.5,8.498h65.117
		c22.641,0,41.06-18.419,41.06-41.059S286.979,232.5,264.338,232.5z M264.338,297.619H207.72V249.5h56.618
		c13.267,0,24.06,10.793,24.06,24.059C288.397,286.826,277.604,297.619,264.338,297.619z"/>
	<path d="M229.427,143.323c0-4.687-3.813-8.499-8.5-8.499c-4.686,0-8.499,3.813-8.499,8.499v32.559c0,4.686,3.813,8.499,8.499,8.499
		c4.687,0,8.5-3.813,8.5-8.499V143.323z"/>
	<path d="M272.838,143.323c0-4.687-3.813-8.499-8.5-8.499c-4.687,0-8.499,3.813-8.499,8.499v32.559c0,4.686,3.813,8.499,8.499,8.499
		c4.688,0,8.5-3.813,8.5-8.499V143.323z"/>
	<path d="M229.427,306.119c0-4.688-3.813-8.5-8.5-8.5c-4.686,0-8.499,3.813-8.499,8.5v32.557c0,4.687,3.813,8.5,8.499,8.5
		c4.687,0,8.5-3.813,8.5-8.5V306.119z"/>
	<path d="M272.838,306.119c0-4.688-3.813-8.5-8.5-8.5c-4.687,0-8.499,3.813-8.499,8.5v32.557c0,4.687,3.813,8.5,8.499,8.5
		c4.688,0,8.5-3.813,8.5-8.5V306.119z"/>
	<path d="M199.221,167.382h-21.706c-4.687,0-8.5,3.813-8.5,8.5c0,4.686,3.813,8.499,8.5,8.499h21.706c4.687,0,8.5-3.813,8.5-8.499
		C207.72,171.195,203.908,167.382,199.221,167.382z"/>
	<path d="M199.221,297.619h-21.706c-4.687,0-8.5,3.813-8.5,8.5c0,4.686,3.813,8.498,8.5,8.498h21.706c4.687,0,8.5-3.813,8.5-8.498
		C207.72,301.432,203.908,297.619,199.221,297.619z"/>
</g>
</svg>
