<?xml version="1.0" encoding="utf-8"?>
<!-- Generator: Adobe Illustrator 16.0.0, SVG Export Plug-In . SVG Version: 6.00 Build 0)  -->
<!DOCTYPE svg PUBLIC "-//W3C//DTD SVG 1.1//EN" "http://www.w3.org/Graphics/SVG/1.1/DTD/svg11.dtd">
<svg version="1.1" id="Layer_1" xmlns:serif="http://www.serif.com/"
	 xmlns="http://www.w3.org/2000/svg" xmlns:xlink="http://www.w3.org/1999/xlink" x="0px" y="0px" width="500px" height="500px"
	 viewBox="0 0 500 500" enable-background="new 0 0 500 500" xml:space="preserve">
<path fill="#E61F2D" d="M0,205.193c0,113.324,91.867,205.194,205.192,205.194V0.001C91.867,0,0,91.868,0,205.193z"/>
<g>
	<path d="M404.901,212.917c6.419-8.187,9.496-16.962,9.104-26c-0.394-9.955-4.848-17.749-8.514-22.53
		c4.257-10.61,5.894-27.31-8.317-40.278c-10.414-9.496-28.098-13.753-52.592-12.574c-17.224,0.786-31.633,3.995-32.222,4.126h-0.065
		c-3.275,0.589-6.746,1.31-10.282,2.095c-0.262-4.191,0.458-14.604,8.187-38.051c9.168-27.899,8.645-49.25-1.703-63.528
		C297.625,1.179,280.27,0,275.162,0c-4.913,0-9.432,2.03-12.641,5.764c-7.27,8.449-6.418,24.036-5.502,31.24
		c-8.645,23.185-32.877,80.032-53.376,95.815c-0.394,0.262-0.72,0.59-1.049,0.917c-6.024,6.353-10.085,13.229-12.836,19.254
		c-3.864-2.095-8.252-3.274-12.967-3.274h-39.951c-15.063,0-27.245,12.248-27.245,27.245v106.426
		c0,15.063,12.247,27.244,27.245,27.244h39.951c5.829,0,11.264-1.832,15.718-4.977l15.391,1.834
		c2.358,0.326,44.273,5.633,87.302,4.779c7.792,0.59,15.128,0.918,21.939,0.918c11.723,0,21.94-0.918,30.455-2.75
		c20.04-4.26,33.728-12.771,40.671-25.279c5.305-9.563,5.305-19.059,4.452-25.084c13.033-11.79,15.326-24.822,14.867-33.992
		C407.325,220.775,406.146,216.257,404.901,212.917z M136.841,292.949c-5.305,0-9.562-4.322-9.562-9.563V176.896
		c0-5.306,4.323-9.562,9.562-9.562h39.951c5.305,0,9.562,4.323,9.562,9.562V283.32c0,5.307-4.323,9.563-9.562,9.563h-39.951V292.949
		z M388.136,205.254c-2.751,2.882-3.274,7.271-1.179,10.675c0,0.065,2.685,4.65,3.012,10.938
		c0.459,8.579-3.667,16.176-12.313,22.661c-3.076,2.357-4.321,6.417-3.012,10.085c0,0.064,2.815,8.711-1.769,16.896
		c-4.387,7.859-14.146,13.492-28.947,16.635c-11.854,2.555-27.965,3.014-47.744,1.441c-0.263,0-0.589,0-0.916,0
		c-42.113,0.918-84.683-4.584-85.142-4.65h-0.065l-6.615-0.785c0.394-1.834,0.59-3.799,0.59-5.764V176.896
		c0-2.817-0.458-5.568-1.245-8.121c1.179-4.389,4.454-14.146,12.182-22.464c29.406-23.316,58.158-101.972,59.402-105.377
		c0.525-1.375,0.655-2.882,0.393-4.388c-1.112-7.335-0.72-16.308,0.853-18.993c3.47,0.065,12.836,1.047,18.469,8.842
		c6.68,9.234,6.419,25.738-0.786,47.613c-11.004,33.335-11.919,50.887-3.209,58.616c4.322,3.864,10.086,4.061,14.277,2.554
		c3.996-0.917,7.794-1.702,11.395-2.292c0.264-0.066,0.59-0.131,0.852-0.197c20.107-4.387,56.128-7.073,68.637,4.322
		c10.61,9.693,3.079,22.53,2.227,23.905c-2.423,3.667-1.703,8.449,1.572,11.396c0.066,0.065,6.942,6.549,7.27,15.26
		C396.585,193.399,393.834,199.36,388.136,205.254z"/>
</g>
</svg>
