<?xml version="1.0" encoding="utf-8"?>
<!-- Generator: Adobe Illustrator 16.0.0, SVG Export Plug-In . SVG Version: 6.00 Build 0)  -->
<!DOCTYPE svg PUBLIC "-//W3C//DTD SVG 1.1//EN" "http://www.w3.org/Graphics/SVG/1.1/DTD/svg11.dtd">
<svg version="1.1" id="Layer_1" xmlns:serif="http://www.serif.com/"
	 xmlns="http://www.w3.org/2000/svg" xmlns:xlink="http://www.w3.org/1999/xlink" x="0px" y="0px" width="500px" height="500px"
	 viewBox="0 0 500 500" enable-background="new 0 0 500 500" xml:space="preserve">
<rect x="1" fill="#E61F2D" width="269" height="269"/>
<g>
	<path d="M381.991,68.653c-10.741-8.928-25.688-13.846-42.088-13.846H197.424c-1.059-0.056-2.13-0.084-3.189-0.084
		c-15.229,0-29.767,5.706-40.932,16.069l-0.16,0.16c-11.421,12.374-17.372,29.1-16.334,45.905v299.714
		c0,20.616,6.87,37.239,19.867,48.066c10.751,8.958,25.7,13.893,42.091,13.893h141.135c20.617,0,37.239-6.871,48.066-19.869
		c8.958-10.751,13.892-25.698,13.892-42.09V116.678C401.86,96.065,394.99,79.458,381.991,68.653z M155.991,364.926V138.182h226.601
		v226.744H155.991z M371.366,448.401c-7.216,7.263-17.802,10.945-31.464,10.945H198.768c-15.976,0-42.777-5.558-42.777-42.776
		v-32.643h226.601l-0.001,32.661C382.643,424.201,381.248,438.455,371.366,448.401z M155.983,116.553
		c-0.853-11.632,3.085-23.301,10.806-32.039c7.713-6.863,17.634-10.64,27.958-10.64c1,0,2.014,0.036,3.012,0.107l0.104,0.008
		h142.039c15.977,0,42.777,5.558,42.777,42.777v2.324H155.991v-2.324L155.983,116.553z"/>
	<path d="M248.576,103.608h41.787c3.684,0,6.669-2.986,6.669-6.668c0-3.684-2.985-6.668-6.669-6.668h-41.787
		c-3.684,0-6.669,2.985-6.669,6.668C241.907,100.623,244.893,103.608,248.576,103.608z"/>
	<path d="M269.292,393.632c-16.155,0.049-29.212,13.185-29.163,29.34c0.049,16.156,13.186,29.212,29.34,29.164
		c16.086-0.051,29.113-13.077,29.162-29.164C298.631,406.768,285.495,393.632,269.292,393.632z M269.292,438.798v0.089
		c-8.79-0.049-15.875-7.214-15.827-16.004c0.049-8.79,7.215-15.876,16.004-15.826c8.755,0.05,15.827,7.159,15.827,15.915
		C285.246,431.762,278.082,438.848,269.292,438.798z"/>
</g>
</svg>
