<?xml version="1.0" encoding="utf-8"?>
<!-- Generator: Adobe Illustrator 16.0.0, SVG Export Plug-In . SVG Version: 6.00 Build 0)  -->
<!DOCTYPE svg PUBLIC "-//W3C//DTD SVG 1.1//EN" "http://www.w3.org/Graphics/SVG/1.1/DTD/svg11.dtd">
<svg version="1.1" id="Layer_1" xmlns:serif="http://www.serif.com/"
	 xmlns="http://www.w3.org/2000/svg" xmlns:xlink="http://www.w3.org/1999/xlink" x="0px" y="0px" width="500px" height="500px"
	 viewBox="0 0 500 500" enable-background="new 0 0 500 500" xml:space="preserve">
<circle fill="#E61F2D" cx="167.001" cy="166.995" r="166.995"/>
<g>
	<path d="M247.57,327.188l-31.91-27.176l31.908-27.172c4.155-3.533,4.661-9.794,1.121-13.959c-1.884-2.21-4.633-3.478-7.538-3.478
		c-2.349,0-4.627,0.839-6.414,2.362l-40.769,34.715c-2.208,1.89-3.475,4.635-3.475,7.531c0,2.906,1.269,5.653,3.481,7.537
		l40.764,34.713c1.79,1.522,4.067,2.36,6.41,2.36c2.907,0,5.655-1.271,7.543-3.483C252.229,336.982,251.725,330.723,247.57,327.188z
		"/>
	<path d="M400.791,292.475l-40.759-34.707c-1.788-1.524-4.065-2.363-6.415-2.363c-2.909,0-5.656,1.268-7.541,3.479
		c-3.538,4.158-3.035,10.418,1.118,13.954l31.911,27.174l-31.914,27.176c-4.152,3.543-4.652,9.803-1.117,13.951
		c1.883,2.215,4.631,3.484,7.542,3.484c2.344,0,4.622-0.84,6.412-2.363l40.766-34.711c2.211-1.885,3.479-4.633,3.479-7.539
		C404.272,297.105,403.005,294.359,400.791,292.475z"/>
	<path d="M310.389,230.452c-0.674-0.144-1.363-0.214-2.047-0.214c-4.65,0-8.721,3.305-9.682,7.859l-25.403,120.618
		c-0.545,2.587-0.05,5.229,1.396,7.447c1.443,2.216,3.664,3.735,6.252,4.282c0.679,0.143,1.367,0.214,2.047,0.214
		c4.648,0,8.718-3.306,9.677-7.858l25.404-120.617c0.547-2.59,0.051-5.234-1.394-7.451
		C315.197,232.516,312.977,230.996,310.389,230.452z"/>
	<path d="M445.868,92.528h-296.97c-25.307,0-45.896,20.589-45.896,45.896v252.055c0,25.307,20.589,45.895,45.896,45.895h296.97
		c25.307,0,45.896-20.588,45.896-45.895V138.424C491.765,113.117,471.176,92.528,445.868,92.528z M471.966,184.399H122.799v-45.975
		c0-14.39,11.708-26.098,26.099-26.098h296.97c14.391,0,26.098,11.708,26.098,26.098V184.399L471.966,184.399z M445.868,416.574
		h-296.97c-14.391,0-26.098-11.706-26.098-26.098V196.999h349.166v193.479C471.966,404.868,460.259,416.574,445.868,416.574z"/>
	<path d="M366.232,126.986c-10.988,0-19.937,8.943-19.937,19.935c0,10.99,8.947,19.935,19.937,19.935
		c10.991,0,19.936-8.946,19.936-19.935C386.168,135.928,377.225,126.986,366.232,126.986z M366.232,154.257
		c-4.043,0-7.336-3.291-7.336-7.336c0-4.047,3.294-7.336,7.336-7.336c4.047,0,7.336,3.289,7.336,7.336
		C373.568,150.967,370.279,154.257,366.232,154.257z"/>
	<path d="M304.982,126.792c-10.992,0-19.937,8.943-19.937,19.935c0,10.992,8.942,19.935,19.937,19.935
		c10.992,0,19.935-8.943,19.935-19.935C324.917,135.735,315.975,126.792,304.982,126.792z M304.982,154.064
		c-4.043,0-7.338-3.291-7.338-7.336c0-4.044,3.295-7.336,7.338-7.336c4.045,0,7.336,3.292,7.336,7.336
		C312.318,150.773,309.027,154.064,304.982,154.064z"/>
	<path d="M427.483,127.178c-10.989,0-19.934,8.944-19.934,19.932c0,10.992,8.943,19.935,19.934,19.935
		c10.992,0,19.935-8.944,19.935-19.935C447.418,136.122,438.475,127.178,427.483,127.178z M427.483,154.447
		c-4.042,0-7.333-3.291-7.333-7.336c0-4.047,3.29-7.336,7.333-7.336c4.046,0,7.336,3.29,7.336,7.336
		C434.819,151.156,431.528,154.447,427.483,154.447z"/>
</g>
</svg>
