<?xml version="1.0" encoding="utf-8"?>
<!-- Generator: Adobe Illustrator 16.0.0, SVG Export Plug-In . SVG Version: 6.00 Build 0)  -->
<!DOCTYPE svg PUBLIC "-//W3C//DTD SVG 1.1//EN" "http://www.w3.org/Graphics/SVG/1.1/DTD/svg11.dtd">
<svg version="1.1" id="Layer_1" xmlns:serif="http://www.serif.com/"
	 xmlns="http://www.w3.org/2000/svg" xmlns:xlink="http://www.w3.org/1999/xlink" x="0px" y="0px" width="500px" height="500px"
	 viewBox="0 0 500 500" enable-background="new 0 0 500 500" xml:space="preserve">
<polygon fill="#E61F2D" points="90.5,452.524 483.024,452.524 483.024,60 "/>
<g>
	<g>
		<g>
			<path d="M78.975,77.665c-14.066,0-25.468,11.402-25.468,25.467v67.911h16.978v-67.911c0-4.688,3.801-8.49,8.49-8.49h203.733
				V77.665H78.975z"/>
		</g>
	</g>
	<g>
		<g>
			<path d="M78.975,332.333c-4.688,0-8.49-3.804-8.49-8.488v-84.89H53.507v84.89c0,14.063,11.402,25.468,25.468,25.468h84.889
				v-16.979H78.975L78.975,332.333z"/>
		</g>
	</g>
	<g>
		<g>
			<path d="M288.708,354.225L82.547,148.064c-3.313-3.313-8.687-3.313-12.003,0l-48.506,48.505c-3.312,3.314-3.312,8.688,0,12.003
				l206.163,206.163c1.592,1.592,3.75,2.486,6.001,2.486c2.251-0.001,4.409-0.895,6.001-2.486l48.505-48.506
				C292.024,362.913,292.024,357.54,288.708,354.225z M234.202,396.729L40.045,202.571l36.503-36.502l194.158,194.158
				L234.202,396.729z"/>
		</g>
	</g>
	<g>
		<g>
			<path d="M393.063,332.333H265.73v16.979h93.376v42.441c0,4.688,3.801,8.49,8.488,8.49h25.468
				c18.753,0,33.954-15.202,33.954-33.957C427.019,347.533,411.816,332.333,393.063,332.333z M393.063,383.266h-16.978v-33.953
				h16.978c9.378,0,16.979,7.601,16.979,16.977C410.04,375.666,402.439,383.266,393.063,383.266z"/>
		</g>
	</g>
	<g>
		<g>
			<path d="M393.063,77.665h-42.443v16.978h42.443c9.378,0,16.979,7.602,16.979,16.978v254.666h16.979V111.621
				C427.019,92.868,411.816,77.665,393.063,77.665z"/>
		</g>
	</g>
	<g>
		<g>
			
				<rect x="150.105" y="260.171" transform="matrix(0.7071 -0.7071 0.7071 0.7071 -140.7299 197.5598)" width="36.017" height="16.975"/>
		</g>
	</g>
	<g>
		<g>
			
				<rect x="116.149" y="226.221" transform="matrix(0.7071 -0.7071 0.7071 0.7071 -126.6702 163.606)" width="36.017" height="16.976"/>
		</g>
	</g>
	<g>
		<g>
			
				<rect x="184.04" y="294.135" transform="matrix(0.7071 -0.7071 0.7071 0.7071 -154.8073 231.5033)" width="36.019" height="16.976"/>
		</g>
	</g>
	<g>
		<g>
			
				<rect x="218.014" y="328.088" transform="matrix(0.7071 -0.7071 0.7071 0.7071 -168.8641 265.4672)" width="36.019" height="16.976"/>
		</g>
	</g>
	<g>
		<g>
			
				<rect x="82.169" y="192.269" transform="matrix(0.7071 -0.7071 0.7071 0.7071 -112.6152 129.6348)" width="36.018" height="16.977"/>
		</g>
	</g>
	<g>
		<g>
			<path d="M385.712,28.837l-11.731-11.73c-9.93-9.476-25.55-9.476-35.478,0L209.422,146.189c-3.314,3.314-3.314,8.688,0,12.003
				l35.204,35.203c1.588,1.599,3.75,2.494,6.003,2.487c2.25,0,4.411-0.895,6.001-2.487L385.712,64.313
				c0.003-0.003,0.009-0.008,0.012-0.011C395.514,54.504,395.508,38.628,385.712,28.837z M373.717,52.301L250.629,175.389
				l-23.202-23.199L350.516,29.109c3.208-3.063,8.257-3.063,11.461,0l11.74,11.723c0.002,0.001,0.004,0.002,0.005,0.004
				C376.886,44.002,376.884,49.136,373.717,52.301z"/>
		</g>
	</g>
	<g>
		<g>
			<path d="M247.902,179.345l-36.639,12.233l12.233-36.697l-16.129-5.374l-17.606,52.81c-0.289,0.866-0.434,1.773-0.434,2.685
				c0,4.688,3.803,8.488,8.49,8.487c0.898,0.003,1.792-0.135,2.648-0.409l52.81-17.606L247.902,179.345z"/>
		</g>
	</g>
	<g>
		<g>
			
				<rect x="330.155" y="39.291" transform="matrix(0.7071 -0.7071 0.7071 0.7071 53.8059 258.2618)" width="16.976" height="49.785"/>
		</g>
	</g>
	<g>
		<g>
			<rect x="197.818" y="196.51" width="127.333" height="16.978"/>
		</g>
	</g>
	<g>
		<g>
			<rect x="342.13" y="196.51" width="16.979" height="16.978"/>
		</g>
	</g>
	<g>
		<g>
			<rect x="376.086" y="196.51" width="16.979" height="16.978"/>
		</g>
	</g>
</g>
</svg>
