<?xml version="1.0" encoding="utf-8"?>
<!-- Generator: Adobe Illustrator 25.0.1, SVG Export Plug-In . SVG Version: 6.00 Build 0)  -->
<svg version="1.1" id="Capa_1" xmlns="http://www.w3.org/2000/svg" xmlns:xlink="http://www.w3.org/1999/xlink" x="0px" y="0px"
	 viewBox="0 0 512 512" style="enable-background:new 0 0 512 512;" xml:space="preserve">
<style type="text/css">
	.st0{fill:#E61F2D;}
</style>
<path d="M42.6,27.1c-4.5,7-2.5,16.3,4.5,20.8l44.4,28.6l39.1,262.5c1.1,7.3,7.5,12.8,14.9,12.8c0.6,0,1.1,0,1.6-0.1l301.1-32.3
	c7.4-0.8,13-6.7,13.4-14.1l10-183.1c0.2-4.4-1.4-8.6-4.6-11.7l0,0c-3.1-3-7.4-4.5-11.8-4.2L214.5,128c-8.3,0.7-14.4,8.1-13.7,16.4
	c0.7,8.3,8.1,14.4,16.4,13.7l223.5-20L432.3,291l-273.9,29.4l-38-255c-0.6-4.3-3.1-8.1-6.7-10.5L63.5,22.6c-2.5-1.6-5.3-2.4-8.1-2.4
	C50.4,20.2,45.5,22.7,42.6,27.1z"/>
<path class="st0" d="M246,240v-21.5c0-11.1-9-20.1-20.1-20.1c-11.1,0-20.1,9-20.1,20.1V240c0,11.1,9,20.1,20.1,20.1
	C237,260,246,251.1,246,240z"/>
<path class="st0" d="M316.2,240v-21.5c0-11.1-9-20.1-20.1-20.1s-20.1,9-20.1,20.1V240c0,11.1,9,20.1,20.1,20.1
	S316.2,251.1,316.2,240z"/>
<path class="st0" d="M386.5,240v-21.5c0-11.1-9-20.1-20.1-20.1c-11.1,0-20.1,9-20.1,20.1V240c0,11.1,9,20.1,20.1,20.1
	C377.5,260,386.5,251.1,386.5,240z"/>
<path d="M391.5,386.5c-20.8,0-39.7,13.8-47,34.4l-1.2,3.3H259l-1.2-3.3c-7.3-20.6-26.2-34.4-47-34.4c-27.7,0-50.2,23.7-50.2,52.8
	c0,29.1,22.5,52.8,50.2,52.8c20.8,0,39.7-13.8,47-34.4l1.2-3.3h84.3l1.2,3.3c7.3,20.6,26.2,34.4,47,34.4c27.7,0,50.2-23.7,50.2-52.8
	C441.7,410.1,419.2,386.5,391.5,386.5z M210.8,461.9c-11.1,0-20.1-10.2-20.1-22.6c0-12.5,9-22.6,20.1-22.6
	c11.1,0,20.1,10.1,20.1,22.6C230.9,451.7,221.9,461.9,210.8,461.9z M391.5,461.9c-11.1,0-20.1-10.2-20.1-22.6
	c0-12.5,9-22.6,20.1-22.6c11.1,0,20.1,10.1,20.1,22.6C411.5,451.7,402.5,461.9,391.5,461.9z"/>
</svg>
