<?xml version="1.0" encoding="utf-8"?>
<!-- Generator: Adobe Illustrator 25.0.1, SVG Export Plug-In . SVG Version: 6.00 Build 0)  -->
<svg version="1.1" id="Capa_1" xmlns="http://www.w3.org/2000/svg" xmlns:xlink="http://www.w3.org/1999/xlink" x="0px" y="0px"
	 viewBox="0 0 512 512" style="enable-background:new 0 0 512 512;" xml:space="preserve">
<style type="text/css">
	.st0{fill:#E61F2D;}
</style>
<g>
	<g>
		<path d="M463.9,439c-0.1-0.5,0.1-1,0-1.4l-52-234.1c-0.4-1.6-1-3-1.9-4.3c-0.1-0.1-0.1-0.2-0.1-0.2c-0.2-0.3-0.5-0.4-0.8-0.7
			c-0.8-0.9-1.6-1.7-2.5-2.4c-0.5-0.3-1-0.6-1.5-0.9c-0.9-0.4-1.7-0.8-2.7-1c-0.7-0.2-1.3-0.3-1.9-0.3c-0.4-0.1-0.8-0.2-1.3-0.2
			H243.1c-7.2,0-13,5.8-13,13c0,7.2,5.8,13,13,13h114.4L80.9,410.8l30.4-136.7c1.6-7-2.9-14-9.9-15.5c-6.9-1.4-14,2.9-15.5,9.9
			L48.3,437.6c0,0.1,0,0.2,0,0.2c-0.4,1.8-0.4,3.6,0,5.4c0.1,0.4,0.4,0.7,0.5,1.1c0.4,1.2,0.8,2.4,1.5,3.5c0.1,0.1,0.2,0.2,0.3,0.3
			c0.1,0.1,0.1,0.3,0.2,0.4c0.8,1,2,1.7,3.1,2.4c0.5,0.3,0.8,0.8,1.3,1c1.8,0.9,3.7,1.4,5.8,1.4h390.2c2.2,0,4.2-0.7,6.1-1.7
			c0.6-0.3,1-0.8,1.5-1.2c0.9-0.7,1.8-1.1,2.5-2c0.3-0.4,0.4-0.9,0.7-1.3c0.2-0.3,0.5-0.4,0.7-0.8c0.3-0.6,0.3-1.2,0.5-1.8
			c0.3-0.7,0.5-1.4,0.6-2.1C464.1,441.3,464,440.2,463.9,439z M102.7,427.4L231,338.6l167.8,88.9H102.7z M255.1,321.9L390.7,228
			l41.7,187.7L255.1,321.9z"/>
	</g>
</g>
<g>
	<g>
		<path class="st0" d="M139,89.3c-21.5,0-39,17.5-39,39s17.5,39,39,39s39-17.5,39-39S160.6,89.3,139,89.3z M139,141.3
			c-7.2,0-13-5.8-13-13c0-7.2,5.8-13,13-13s13,5.8,13,13C152,135.5,146.2,141.3,139,141.3z"/>
	</g>
</g>
<g>
	<g>
		<path class="st0" d="M139,37.2c-50.2,0-91,40.8-91,91c0,46.7,73,129.5,81.4,138.8c2.5,2.7,6,4.3,9.7,4.3s7.2-1.6,9.7-4.3
			c8.3-9.3,81.4-92,81.4-138.8C230.1,78.1,189.2,37.2,139,37.2z M139,238.5c-28.4-33.7-65-85.4-65-110.2c0-35.8,29.2-65,65-65
			s65,29.2,65,65C204.1,153.1,167.4,204.8,139,238.5z"/>
	</g>
</g>
</svg>
