<?xml version="1.0" encoding="utf-8"?>
<!-- Generator: Adobe Illustrator 25.0.1, SVG Export Plug-In . SVG Version: 6.00 Build 0)  -->
<svg version="1.1" id="Capa_1" xmlns="http://www.w3.org/2000/svg" xmlns:xlink="http://www.w3.org/1999/xlink" x="0px" y="0px"
	 viewBox="0 0 512 512" style="enable-background:new 0 0 512 512;" xml:space="preserve">
<style type="text/css">
	.st0{fill:#E61F2D;}
</style>
<g>
	<path d="M58.7,454.4h397.3c23.4,0,42.4-19,42.4-42.4V101.4c0-23.4-19-42.4-42.4-42.4H58.7c-23.4,0-42.4,19-42.4,42.4V412
		C16.3,435.4,35.3,454.4,58.7,454.4z M44.5,101.4c0-7.8,6.3-14.1,14.1-14.1h397.3c7.8,0,14.1,6.3,14.1,14.1V412
		c0,7.8-6.3,14.1-14.1,14.1H58.7c-7.8,0-14.1-6.3-14.1-14.1V101.4z"/>
	<path class="st0" d="M86.9,369.7h17.5c5.8,16.4,21.5,28.2,39.9,28.2s34.1-11.8,39.9-28.2h243.4c7.8,0,14.1-6.3,14.1-14.1
		s-6.3-14.1-14.1-14.1H184.3c-5.8-16.4-21.5-28.2-39.9-28.2s-34.1,11.8-39.9,28.2H86.9c-7.8,0-14.1,6.3-14.1,14.1
		S79.1,369.7,86.9,369.7L86.9,369.7z M144.3,341.4c7.8,0,14.1,6.3,14.1,14.1s-6.3,14.1-14.1,14.1c-7.8,0-14.1-6.3-14.1-14.1
		S136.5,341.4,144.3,341.4z"/>
	<path class="st0" d="M193.4,282.8c4.2,2.6,9.4,2.8,13.7,0.6l113-56.5c4.8-2.4,7.8-7.3,7.8-12.6s-3-10.2-7.8-12.6l-113-56.5
		c-4.4-2.2-9.6-2-13.7,0.6c-4.2,2.6-6.7,7.1-6.7,12v113C186.7,275.7,189.2,280.3,193.4,282.8L193.4,282.8z M214.9,180.7l67.3,33.6
		L214.9,248L214.9,180.7z"/>
</g>
</svg>
