<?xml version="1.0" encoding="utf-8"?>
<!-- Generator: Adobe Illustrator 25.0.1, SVG Export Plug-In . SVG Version: 6.00 Build 0)  -->
<svg version="1.1" id="Capa_1" xmlns="http://www.w3.org/2000/svg" xmlns:xlink="http://www.w3.org/1999/xlink" x="0px" y="0px"
	 viewBox="0 0 512 512" style="enable-background:new 0 0 512 512;" xml:space="preserve">
<style type="text/css">
	.st0{fill:#E61F2D;}
</style>
<g>
	<path d="M480.8,137.5c-23.8-2.4-34.7,30-41.2,53c-5.9,21.2-11.4,49.2-16.3,83.3c-1.6,6.5-4,12.6-7,18.2c-0.4-0.6-0.8-1.3-1.2-1.9
		c-6.5-9.1-20.3-18.3-49-11.1c-22,5.5-50.6,20.3-85,43.8l-0.5,0.4c-9.7,7.3-17.8,15.8-24.2,25.4c-6.4-9.6-14.4-18.1-24.2-25.4
		l-0.5-0.4c-34.3-23.5-62.9-38.3-85-43.8c-28.8-7.2-42.5,2-49,11.1c-0.5,0.8-1,1.5-1.5,2.3c-3.3-5.9-5.9-12.3-7.6-19
		c-4.5-30.8-14.1-90-29.2-117.1c-9.5-17.1-20.6-19.7-28.3-19C-2,140.8-0.7,202.4,0.5,237.6c1.1,32.8,4.6,62.1,4.7,63.4l0,0.3
		c5.7,40,43.9,76.3,80.8,111.4c31.5,29.9,64,60.7,64,84.2v15H362v-15c0-23.5,32.5-54.4,64-84.2c37-35.1,75.2-71.4,80.8-111.4l0-0.3
		c0.1-1.2,3.6-30.5,4.7-63.4C512.8,201.1,513.7,140.7,480.8,137.5L480.8,137.5z M242,481.9h-63.9c-8-30.8-38.9-60.2-71.4-91
		c-33.2-31.5-67.5-64-71.8-93.7c-0.3-2.4-3.6-31.2-4.6-62c-1.1-36.3,1.6-54,3.9-62.3c15,29.9,23,96.4,23,96.5
		c4.1,28.6,19.1,53.9,42.2,71.2l70.9,53.1l18-24l-57.9-43.4c-7.4-5.6-10-16.4-8.3-18.7c0.4-0.5,4.9-2.6,17.3,0.5
		c12.7,3.2,36.1,12.6,75.1,39.3c14.6,11,23.5,24.7,27.5,42.9L242,481.9z M481.6,235.3c-1,30.8-4.3,59.6-4.6,62
		c-4.3,29.6-38.6,62.2-71.8,93.7c-32.5,30.8-63.4,60.2-71.4,91h-62.1v-94.6l0-0.2c4.2-16.6,12.7-29.3,26.5-39.7
		c39-26.7,62.3-36.1,75.1-39.3c12.4-3.1,16.9-1,17.3-0.5c1.6,2.3-0.9,13.1-8.3,18.7l-57.9,43.4l18,24l70.9-53.1
		c22.5-16.9,37.2-42.2,41.4-71.2c0-0.1,8.4-67.5,23-96.5C480.1,181.3,482.8,198.9,481.6,235.3L481.6,235.3z"/>
	<path class="st0" d="M90.1,106.1c0,58,42.8,88,92.5,122.7c20.7,14.5,42,29.4,63.6,48.2l9.8,8.5l9.8-8.5
		c24.5-21.2,47.8-37.7,68.4-52.3c49-34.7,87.7-62.1,87.7-118.6c0-58.4-47.1-106-105-106c-22.7,0-44.4,9.9-61,27.2
		C239.5,10,217.7,0.1,195,0.1C137.2,0.1,90.1,47.6,90.1,106.1L90.1,106.1z M243.3,59.6L256,80.1l12.7-20.5
		c11.5-18.5,29.5-29.5,48.2-29.5c41.3,0,75,34.1,75,76c0,39.3-24.4,58.2-75.1,94.1c-18.4,13-39,27.6-60.9,45.8
		c-19.5-16.1-38.9-29.6-56.3-41.8c-46.2-32.3-79.7-55.7-79.7-98.1c0-41.9,33.6-76,75-76C213.8,30.1,231.8,41.1,243.3,59.6
		L243.3,59.6z"/>
	<path class="st0" d="M241,181h30v-30h30v-30h-30v-31h-30v31h-30v30h30L241,181z"/>
</g>
</svg>
