<?xml version="1.0" encoding="utf-8"?>
<!-- Generator: Adobe Illustrator 25.0.1, SVG Export Plug-In . SVG Version: 6.00 Build 0)  -->
<svg version="1.1" id="Capa_1" xmlns="http://www.w3.org/2000/svg" xmlns:xlink="http://www.w3.org/1999/xlink" x="0px" y="0px"
	 viewBox="0 0 512 512" style="enable-background:new 0 0 512 512;" xml:space="preserve">
<style type="text/css">
	.st0{fill:#E61F2D;}
</style>
<g>
	<path d="M472.4,132.1h-44.2V59c0-4.7-2.4-9-6.4-11.5s-8.9-2.7-13.1-0.6L256,123.3L103.3,47c-4.2-2.1-9.1-1.9-13.1,0.6
		c-4,2.5-6.4,6.8-6.4,11.5v73.1H39.6c-7.4,0-13.5,6-13.5,13.5v274.1c0,7.4,6,13.5,13.5,13.5h432.8c7.4,0,13.5-6,13.5-13.5V145.6
		C485.9,138.1,479.8,132.1,472.4,132.1L472.4,132.1z M53.1,406.2V159.1h30.8v181.3c0,5.1,2.9,9.8,7.4,12l107.7,53.8H53.1z
		 M242.5,397.9L110.8,332V80.8l131.8,65.9V397.9z M269.5,146.7l131.8-65.9V332l-131.8,65.9V146.7z M458.9,406.2H313.1l107.7-53.8
		c4.6-2.3,7.4-6.9,7.4-12V159.1h30.8V406.2z"/>
	<path class="st0" d="M149,170.3l43.3,21.6c6.7,3.3,14.7,0.6,18.1-6s0.6-14.7-6-18.1L161,146.2c-6.7-3.3-14.7-0.6-18.1,6
		C139.6,158.8,142.3,166.9,149,170.3L149,170.3z"/>
	<path class="st0" d="M149,240.6l43.3,21.6c6.7,3.3,14.7,0.6,18.1-6c3.3-6.7,0.6-14.7-6-18.1L161,216.5c-6.7-3.3-14.7-0.6-18.1,6
		C139.6,229.2,142.3,237.3,149,240.6L149,240.6z"/>
	<path class="st0" d="M149,310.9l43.3,21.6c6.7,3.3,14.7,0.6,18.1-6s0.6-14.7-6-18.1L161,286.8c-6.7-3.3-14.7-0.6-18.1,6
		S142.3,307.6,149,310.9L149,310.9z"/>
	<path class="st0" d="M351,146.2l-43.3,21.6c-6.7,3.3-9.3,11.4-6,18.1s11.4,9.4,18.1,6l43.3-21.6c6.7-3.3,9.3-11.4,6-18.1
		C365.7,145.5,357.6,142.8,351,146.2L351,146.2z"/>
	<path class="st0" d="M351,216.5l-43.3,21.6c-6.7,3.3-9.3,11.4-6,18.1c3.3,6.7,11.4,9.4,18.1,6l43.3-21.6c6.7-3.3,9.3-11.4,6-18.1
		C365.7,215.9,357.6,213.2,351,216.5z"/>
	<path class="st0" d="M351,286.8l-43.3,21.6c-6.7,3.3-9.3,11.4-6,18.1s11.4,9.4,18.1,6l43.3-21.6c6.7-3.3,9.3-11.4,6-18.1
		C365.7,286.2,357.6,283.5,351,286.8z"/>
</g>
</svg>
