<?xml version="1.0" encoding="utf-8"?>
<!-- Generator: Adobe Illustrator 25.0.1, SVG Export Plug-In . SVG Version: 6.00 Build 0)  -->
<svg version="1.1" id="Capa_1" xmlns="http://www.w3.org/2000/svg" xmlns:xlink="http://www.w3.org/1999/xlink" x="0px" y="0px"
	 viewBox="0 0 512 512" style="enable-background:new 0 0 512 512;" xml:space="preserve">
<style type="text/css">
	.st0{fill:#E61F2D;}
</style>
<g>
	<path class="st0" d="M339.8,274.7c-4.1,0-8.2-1.6-11.3-4.7c-19.6-19.6-45.7-30.5-73.5-30.5s-53.9,10.8-73.5,30.5
		c-6.2,6.3-16.4,6.3-22.6,0s-6.3-16.4,0-22.6c25.7-25.7,59.8-39.8,96.2-39.8s70.5,14.1,96.2,39.8c6.2,6.3,6.2,16.4,0,22.6
		C348,273.1,343.9,274.7,339.8,274.7z"/>
	<path class="st0" d="M300.3,314.3c-4.1,0-8.2-1.6-11.3-4.7c-9.1-9.1-21.1-14.1-33.9-14.1c-12.8,0-24.9,5-33.9,14.1
		c-6.2,6.2-16.4,6.2-22.6,0c-6.2-6.2-6.2-16.4,0-22.6c15.1-15.1,35.2-23.4,56.6-23.4s41.5,8.3,56.6,23.4c6.2,6.2,6.2,16.4,0,22.6
		C308.4,312.7,304.4,314.3,300.3,314.3L300.3,314.3z"/>
	<path class="st0" d="M255,383.5c-13.2,0-24-10.8-24-24s10.8-24,24-24c13.2,0,24,10.8,24,24S268.2,383.5,255,383.5z"/>
	<path d="M504.5,178.6l-240-176c-5.6-4.1-13.3-4.1-18.9,0l-240,176c-7.1,5.2-8.7,15.2-3.4,22.4c5.2,7.1,15.2,8.7,22.4,3.4l6.5-4.8
		v265.9c0,25.4,20.6,46,46,46h356c25.4,0,46-20.6,46-46V199.6l6.5,4.8c2.9,2.1,6.2,3.1,9.4,3.1c4.9,0,9.8-2.3,12.9-6.5
		C513.1,193.9,511.6,183.8,504.5,178.6z M447,465.5c0,7.7-6.3,14-14,14H77c-7.7,0-14-6.3-14-14V176.2L255,35.4l192,140.8V465.5z"/>
</g>
</svg>
