<svg width="35" height="35" viewBox="0 0 35 35" fill="none" xmlns="http://www.w3.org/2000/svg">
<g clip-path="url(#clip0)">
<path d="M33.0742 1.92528C31.7911 0.64184 30.2452 0 28.4376 0H6.56246C4.7549 0 3.20896 0.64184 1.92528 1.92528C0.64184 3.20896 0 4.75482 0 6.56246V28.4374C0 30.2449 0.64184 31.7909 1.92528 33.0746C3.20896 34.3582 4.7549 35.0001 6.56246 35.0001H28.4374C30.2449 35.0001 31.7909 34.3582 33.074 33.0746C34.3577 31.7909 34.9995 30.2449 34.9995 28.4374V6.56246C34.9994 4.75482 34.3576 3.20872 33.0742 1.92528ZM28.6646 26.567C28.3456 27.2657 27.6279 27.8736 26.5115 28.3904C25.395 28.9072 24.4035 29.1655 23.5374 29.1655C23.2943 29.1655 23.0359 29.1467 22.7626 29.1088C22.4891 29.0705 22.2579 29.0328 22.068 28.9948C21.8782 28.9568 21.6272 28.8886 21.3161 28.7897C21.0044 28.6912 20.7802 28.615 20.6439 28.5619C20.5068 28.5089 20.2564 28.4139 19.892 28.2773C19.5274 28.1402 19.2993 28.0566 19.2087 28.0268C16.7174 27.1148 14.2827 25.4706 11.9054 23.0934C9.52816 20.7156 7.88365 18.2814 6.97213 15.7905C6.94196 15.6993 6.8584 15.4714 6.72152 15.1069C6.58489 14.7426 6.48967 14.4918 6.43652 14.3552C6.38368 14.2185 6.30762 13.9944 6.20882 13.6832C6.11009 13.3717 6.04193 13.1213 6.00386 12.9311C5.96571 12.7415 5.92804 12.51 5.88997 12.2365C5.85198 11.963 5.83307 11.7044 5.83307 11.4615C5.83307 10.5956 6.09142 9.60438 6.60803 8.48782C7.12457 7.37143 7.73209 6.65368 8.431 6.3346C9.23613 6.00027 10.0033 5.83315 10.7325 5.83315C10.8994 5.83315 11.0211 5.84847 11.0968 5.8788C11.1729 5.90953 11.2983 6.04592 11.4731 6.28903C11.6479 6.53213 11.8376 6.83964 12.0427 7.21188C12.2478 7.5842 12.4491 7.94503 12.6465 8.29428C12.844 8.64361 13.0339 8.98903 13.2163 9.3311C13.3986 9.67262 13.5125 9.88938 13.558 9.98021C13.6035 10.0566 13.7024 10.2006 13.8542 10.4135C14.006 10.626 14.1202 10.8157 14.196 10.983C14.2718 11.1501 14.3099 11.3096 14.3099 11.4615C14.3099 11.6897 14.154 11.9668 13.8427 12.2931C13.5312 12.6198 13.1893 12.92 12.8171 13.1935C12.4448 13.467 12.1032 13.7595 11.7918 14.0709C11.4806 14.3821 11.3247 14.6365 11.3247 14.8341C11.3247 14.9405 11.3513 15.0657 11.4045 15.21C11.4577 15.3546 11.5071 15.4723 11.5526 15.5633C11.5982 15.6544 11.6705 15.7836 11.7691 15.9509C11.8678 16.1182 11.9325 16.2244 11.9627 16.27C12.7981 17.7739 13.7591 19.069 14.845 20.1553C15.9314 21.2418 17.2262 22.2023 18.7304 23.0378C18.7756 23.0685 18.8822 23.1329 19.0499 23.2318C19.2168 23.3301 19.3463 23.4023 19.4373 23.4478C19.5285 23.4934 19.6459 23.5429 19.7904 23.5956C19.935 23.6486 20.0603 23.6754 20.167 23.6754C20.4094 23.6754 20.7437 23.4249 21.1695 22.9237C21.5947 22.422 22.0279 21.9246 22.4685 21.4309C22.9087 20.9375 23.2654 20.6907 23.5394 20.6907C23.6912 20.6907 23.8504 20.7284 24.0182 20.8043C24.1854 20.8802 24.3748 20.9944 24.5874 21.1462C24.8004 21.2987 24.9446 21.397 25.0206 21.4432L26.2277 22.1033C27.0329 22.5289 27.7051 22.9047 28.2446 23.2314C28.784 23.5581 29.0765 23.782 29.1222 23.9033C29.1524 23.9792 29.1672 24.1011 29.1672 24.2682C29.1666 24.9967 28.9994 25.764 28.6646 26.567Z" fill="white"/>
</g>
<defs>
<clipPath id="clip0">
<rect width="35" height="35" fill="white"/>
</clipPath>
</defs>
</svg>
