<svg height='300px' width='300px'  fill="#ffffff" xmlns="http://www.w3.org/2000/svg" xmlns:xlink="http://www.w3.org/1999/xlink" version="1.1" x="0px" y="0px" viewBox="0 0 512 512" enable-background="new 0 0 512 512" xml:space="preserve"><g><path d="M440.3,219.5L412.8,244c0,0-4.4,3.6-4.4,12c0,98.9-81.2,179.2-180.4,177.8C133.6,432.4,54.2,353,52.8,258.6   c-1.4-99.2,78.9-180.4,177.8-180.4c35.4,0,68.3,10.5,96.1,28.4c3.8,2.5,8.8,2.2,12.2-0.8l23.5-20.9c4.9-4.3,4.6-12.2-0.7-15.9   c-41.9-29.5-94.1-45.3-150.2-40.7C103.4,37,14.2,124.1,3.2,232.1C-11.7,378.9,112.5,501.1,260,482.8   c83.1-10.4,154.5-68.4,184.2-146.7c14.6-38.4,17.6-75.4,13-110C456.1,217.9,446.5,214,440.3,219.5z"></path><path d="M503.6,61.3c-9.3-10.5-25.4-11.4-35.9-2.1L260.9,243l-34.6-51.9c-7.8-11.7-23.6-14.9-35.2-7c-11.7,7.8-14.8,23.6-7,35.2   l50.8,76.2c4.1,6.1,10.6,10.2,17.9,11.1c1.1,0.1,12.8,1.1,20.1-6.2L501.5,97.2C512,87.9,512.9,71.8,503.6,61.3z"></path></g></svg>