<?xml version="1.0" encoding="utf-8"?>
<!-- Generator: Adobe Illustrator 16.0.0, SVG Export Plug-In . SVG Version: 6.00 Build 0)  -->
<!DOCTYPE svg PUBLIC "-//W3C//DTD SVG 1.1//EN" "http://www.w3.org/Graphics/SVG/1.1/DTD/svg11.dtd">
<svg version="1.1" id="Layer_1" xmlns="http://www.w3.org/2000/svg" xmlns:xlink="http://www.w3.org/1999/xlink" x="0px" y="0px"
	 width="100px" height="100px" viewBox="0 0 100 100" enable-background="new 0 0 100 100" xml:space="preserve">
<rect x="22.25" y="30" fill="#E61F2D" width="50.25" height="39.5"/>
<g>
	<path fill="#010101" d="M64.751,18.701L61.826,2.016C61.621,0.85,60.609,0,59.426,0H34.479c-1.184,0-2.196,0.85-2.4,2.016
		l-2.933,16.729c-5.638,1.065-9.917,6.025-9.917,11.968v38.574c0,5.943,4.279,10.902,9.917,11.968l2.933,16.729
		c0.204,1.166,1.217,2.016,2.4,2.016h24.947c1.184,0,2.195-0.85,2.4-2.016l2.925-16.687c5.759-0.965,10.163-5.981,10.163-12.012
		V30.713C74.914,24.684,70.51,19.667,64.751,18.701z M24.102,67.771V32.229h45.939v35.542H24.102z M36.524,4.873h20.854
		l2.396,13.657H34.13L36.524,4.873z M31.411,23.403h31.263h0.057c2.821,0,5.272,1.607,6.49,3.953H24.922
		C26.14,25.01,28.591,23.403,31.411,23.403z M57.379,95.127H36.524L34.13,81.471h25.644L57.379,95.127z M62.73,76.598h-0.057H31.411
		c-2.82,0-5.271-1.607-6.49-3.953h44.3C68.003,74.99,65.552,76.598,62.73,76.598z"/>
	<path fill="#010101" d="M60.268,39.728c-0.951-0.952-2.494-0.952-3.444,0l-9.751,9.75l-5.983-5.984
		c-0.951-0.952-2.494-0.952-3.445,0c-0.952,0.952-0.952,2.494,0,3.446l7.706,7.707c0.457,0.457,1.077,0.715,1.723,0.715
		c0.646,0,1.267-0.258,1.724-0.715L60.27,43.174C61.219,42.222,61.219,40.68,60.268,39.728z"/>
	<path fill="#010101" d="M79.146,32.141c-0.896,0-1.625,0.728-1.625,1.625v8.829c0,0.897,0.729,1.625,1.625,1.625
		s1.625-0.728,1.625-1.625v-8.829C80.771,32.868,80.044,32.141,79.146,32.141z"/>
	<path fill="#010101" d="M79.146,48.678c-0.896,0-1.625,0.728-1.625,1.625v15.931c0,0.897,0.729,1.625,1.625,1.625
		s1.625-0.728,1.625-1.625V50.303C80.771,49.406,80.044,48.678,79.146,48.678z"/>
</g>
</svg>
