<svg id="Layer_1" data-name="Layer 1" xmlns="http://www.w3.org/2000/svg" viewBox="0 0 40 40"><defs><style>.cls-1{fill:#b70000;}</style></defs><g id="noun-mobile-android-3185477"><g id="Group_25" data-name="Group 25"><path id="Path_53" data-name="Path 53" class="cls-1" d="M13.24,26.69a.9.9,0,0,0,.89-.88V19.12a.89.89,0,0,0-1.77,0v6.69A.9.9,0,0,0,13.24,26.69Z"/><path id="Path_54" data-name="Path 54" class="cls-1" d="M26.75,26.69a.89.89,0,0,0,.88-.88V19.12a.88.88,0,0,0-1.76,0v6.69A.89.89,0,0,0,26.75,26.69Z"/><path id="Path_55" data-name="Path 55" class="cls-1" d="M7,4.2V35.8a3,3,0,0,0,3,3H30a3,3,0,0,0,3-3V4.2a3,3,0,0,0-3-3H10A3,3,0,0,0,7,4.2Zm24.78,0V35.8A1.82,1.82,0,0,1,30,37.62H10A1.83,1.83,0,0,1,8.2,35.8V4.2A1.83,1.83,0,0,1,10,2.38H30A1.82,1.82,0,0,1,31.8,4.2Z"/><path id="Path_56" data-name="Path 56" class="cls-1" d="M9.37,5.38V32.51a1.73,1.73,0,0,0,1.7,1.76h17.8a1.73,1.73,0,0,0,1.76-1.7V5.38a1.84,1.84,0,0,0-1.82-1.83H25.46A2,2,0,0,0,24,4.26l-.88,1.17a.58.58,0,0,1-.53.24H17.41a.87.87,0,0,1-.52-.24L16,4.26a2,2,0,0,0-1.46-.71H11.19A1.84,1.84,0,0,0,9.37,5.38Zm1.17,0a.66.66,0,0,1,.65-.65h3.35a.91.91,0,0,1,.52.23L16,6.14a1.74,1.74,0,0,0,1.46.7h5.17a2,2,0,0,0,1.47-.7L24.93,5a.76.76,0,0,1,.53-.23h3.35a.66.66,0,0,1,.65.65V32.51a.56.56,0,0,1-.52.59H11.13a.55.55,0,0,1-.58-.52.08.08,0,0,1,0-.07Z"/><path id="Path_57" data-name="Path 57" class="cls-1" d="M18.12,4.61h3.76a.56.56,0,0,0,.59-.52V4A.56.56,0,0,0,22,3.44H18.12a.55.55,0,0,0-.59.52V4a.56.56,0,0,0,.52.59Z"/><path id="Path_58" data-name="Path 58" class="cls-1" d="M16.3,27.05h.41v2.58a.88.88,0,1,0,1.76,0V27.05h3v2.58a.88.88,0,1,0,1.76,0V27.05h.41a1.46,1.46,0,0,0,1.47-1.44v-7.2h0a5.17,5.17,0,0,0-1.53-3.64c-.12-.11-.24-.17-.35-.29l1.05-1.65a.59.59,0,1,0-1-.64h0l-.93,1.64a5.52,5.52,0,0,0-2.17-.58,5.05,5.05,0,0,0-2.47.58l-1.12-1.64a.6.6,0,0,0-.83-.15.6.6,0,0,0-.16.79l1.11,1.71a5.55,5.55,0,0,0-1.88,3.82v7.22a1.46,1.46,0,0,0,1.44,1.47Zm7.4-1.18H16.3a.27.27,0,0,1-.3-.26V19h8v6.58a.28.28,0,0,1-.26.29ZM17.83,15.13A3.68,3.68,0,0,1,20,14.42h.12a3.88,3.88,0,0,1,2.11.65,2.22,2.22,0,0,1,.59.47,4.19,4.19,0,0,1,1.11,2.23H16.12A4.33,4.33,0,0,1,17.83,15.13Z"/></g></g></svg>