<?xml version="1.0" encoding="UTF-8"?>
<svg id="Layer_1" data-name="Layer 1" xmlns="http://www.w3.org/2000/svg" width="40" height="40" viewBox="0 0 40 40">
  <defs>
    <style>
      .cls-1, .cls-2 {
        stroke-width: 0px;
      }

      .cls-2 {
        fill: #b70000;
      }
    </style>
  </defs>
  <g id="noun-mobile-android-3185477">
    <g id="Group_25" data-name="Group 25">
      <path id="Path_53" data-name="Path 53" class="cls-1" d="m13.24,26.69c.48-.01.87-.4.88-.88v-6.69c0-.49-.39-.88-.88-.88s-.88.39-.88.88v6.7c.01.48.4.87.88.88Z"/>
      <path id="Path_54" data-name="Path 54" class="cls-1" d="m26.75,26.69c.48-.01.87-.4.88-.88v-6.69c0-.49-.39-.88-.88-.88s-.88.39-.88.88v6.7c.01.48.4.87.88.88Z"/>
      <path id="Path_55" data-name="Path 55" class="cls-2" d="m7.02,4.2v31.59c0,1.65,1.34,2.99,3,3h19.97c1.65,0,2.99-1.34,3-3V4.2c0-1.65-1.34-2.99-3-3H10.02c-1.65,0-2.99,1.34-3,3Zm24.78,0v31.59c0,1-.82,1.81-1.82,1.82H10.02c-1,0-1.82-.82-1.82-1.82V4.2c0-1,.82-1.82,1.82-1.82h19.97c1,0,1.81.82,1.82,1.82Z"/>
      <path id="Path_56" data-name="Path 56" class="cls-2" d="m9.37,5.38v27.13c-.02.96.74,1.74,1.7,1.76.02,0,.04,0,.06,0h17.74c.96.02,1.74-.74,1.76-1.7,0-.02,0-.04,0-.06V5.38c0-1-.82-1.82-1.82-1.82h-3.35c-.57.01-1.1.27-1.47.7l-.88,1.18c-.12.17-.32.26-.53.23h-5.17c-.2-.02-.38-.1-.53-.23l-.88-1.18c-.36-.44-.9-.69-1.47-.7h-3.35c-1,0-1.82.82-1.82,1.82Zm1.17,0c0-.36.29-.64.65-.65h3.35c.2.02.38.1.53.23l.88,1.17c.35.46.89.72,1.47.7h5.17c.57-.01,1.1-.27,1.47-.7l.89-1.17c.14-.15.33-.23.53-.23h3.35c.36,0,.64.29.65.65v27.13c.02.31-.21.57-.52.59-.02,0-.04,0-.07,0H11.13c-.31.02-.57-.21-.59-.52,0-.02,0-.04,0-.07V5.38Z"/>
      <path id="Path_57" data-name="Path 57" class="cls-2" d="m18.12,4.61h3.76c.31.02.57-.21.59-.52,0-.02,0-.04,0-.07.02-.31-.21-.57-.52-.59-.02,0-.04,0-.07,0h-3.76c-.31-.02-.57.21-.59.52,0,.02,0,.04,0,.07-.02.31.21.57.52.59.02,0,.04,0,.07,0Z"/>
      <path id="Path_58" data-name="Path 58" class="cls-1" d="m16.3,27.05h.41v2.58c0,.49.4.88.88.88.49,0,.88-.39.88-.88v-2.58h2.99v2.58c0,.49.39.88.88.88s.88-.39.88-.88v-2.58h.41c.8,0,1.46-.64,1.47-1.44,0,0,0-.02,0-.03v-7.17h0c0-1.37-.55-2.68-1.53-3.64-.12-.12-.23-.18-.35-.29l1.06-1.64c.18-.28.1-.64-.18-.82-.28-.18-.64-.1-.82.18h0l-.94,1.64c-.68-.34-1.42-.54-2.17-.59-.86-.01-1.71.19-2.47.59l-1.12-1.64c-.19-.27-.56-.33-.83-.14-.25.18-.33.52-.17.79l1.12,1.7c-1.11.97-1.79,2.35-1.88,3.82v7.22c0,.8.64,1.46,1.44,1.47,0,0,.02,0,.03,0Zm7.4-1.17h-7.4c-.15,0-.28-.11-.29-.26,0-.01,0-.02,0-.03v-6.58h7.99v6.58c0,.15-.11.28-.26.29-.01,0-.02,0-.03,0h0Zm-5.87-10.75c.63-.46,1.39-.7,2.17-.7h.12c.75,0,1.49.23,2.11.64.22.12.42.28.59.47.59.62.98,1.39,1.12,2.23h-7.81c.22-1.06.83-2.01,1.7-2.64Z"/>
    </g>
  </g>
</svg>