<svg id="Layer_1" data-name="Layer 1" xmlns="http://www.w3.org/2000/svg" viewBox="0 0 40 40"><defs><style>.cls-1{fill:#b70000;}</style></defs><path id="Path_72" data-name="Path 72" class="cls-1" d="M15.41,7.08H5a1.19,1.19,0,0,0-1.2,1.2v6.38A1.19,1.19,0,0,0,5,15.86H15.41a1.19,1.19,0,0,0,1.19-1.2V8.28A1.19,1.19,0,0,0,15.41,7.08Zm-.52.8L10.22,11,5.55,7.88ZM4.63,14.71V8.23L9.5,11.47Zm.92.35L10.22,12l4.67,3.11Zm10.26-.4a.43.43,0,0,1,0,.05l-4.87-3.24L15.8,8.23a.11.11,0,0,0,0,0Z"/><path id="Path_73" data-name="Path 73" class="cls-1" d="M9.82,22.18V17.53a.94.94,0,0,0-.94-.94H4.76a.93.93,0,0,0-.93.94h0v4.65a.93.93,0,0,0,.93.94H8.89A.94.94,0,0,0,9.82,22.18ZM9,18v3.65L7.36,19.85Zm-.5-.64-1.7,1.87L5.13,17.39ZM4.63,21.68V18l1.65,1.82Zm.5.64,1.69-1.87,1.7,1.87Z"/><path id="Path_89" data-name="Path 89" class="cls-1" d="M36.24,10.21H25.33A2.81,2.81,0,0,0,22.53,13V34.3a2.81,2.81,0,0,0,2.8,2.79H36.24A2.81,2.81,0,0,0,39,34.3V13A2.81,2.81,0,0,0,36.24,10.21Zm-1.81.8-.47.86a1.28,1.28,0,0,1-1.13.73H28.74a1.3,1.3,0,0,1-1.14-.73L27.14,11ZM38.24,34.3a2,2,0,0,1-2,2H25.33a2,2,0,0,1-2-2v-13H24.4v1.6a1.2,1.2,0,0,0,1.2,1.2H36a1.19,1.19,0,0,0,1.19-1.2V16.46A1.19,1.19,0,0,0,36,15.27H25.59a1.19,1.19,0,0,0-1.19,1.19v4H23.33V13a2,2,0,0,1,2-2h.9l.67,1.24a2.11,2.11,0,0,0,1.84,1.15h4.09a2.11,2.11,0,0,0,1.84-1.15L35.34,11h.9a2,2,0,0,1,2,2ZM30.39,18.39a1.27,1.27,0,0,0-.43.23l-1.45-1H30a.4.4,0,0,1,.4.4h0Zm.39.73a.54.54,0,1,1,0,1.07.54.54,0,0,1,0-1.07Zm0,1.87a1.3,1.3,0,0,0,.83-.3l3.85,2.56H26.11L30,20.69a1.34,1.34,0,0,0,.83.3Zm1.28-1a1.33,1.33,0,0,0,0-.74l4.31-2.88V22.9Zm-.45-1.41a1.27,1.27,0,0,0-.43-.23v-.33A1.19,1.19,0,0,0,30,16.86H27.31l-1.2-.8h9.34Zm-5.24-1.43a1.2,1.2,0,0,0-.38.87v2a.4.4,0,0,1-.4.4h-.4v-4a.43.43,0,0,0,0-.05Zm-.78,4.06a1.19,1.19,0,0,0,1.2-1.19v-2a.42.42,0,0,1,.3-.39l2.42,1.62a1.33,1.33,0,0,0,0,.74L25.2,22.9a.11.11,0,0,0,0,0v-1.6Zm-7.12-.79h4.06v.76H18.47Z"/><path id="Path_89-2" data-name="Path 89" class="cls-1" d="M15.68,2H4.76A2.79,2.79,0,0,0,2,4.77v7.45c0,2.18,0-.34,0,.8v13a2.8,2.8,0,0,0,2.79,2.8H15.68a2.8,2.8,0,0,0,2.79-2.8V4.77A2.79,2.79,0,0,0,15.68,2Zm-1.82.8-.46.87a1.33,1.33,0,0,1-1.13.73H8.17A1.32,1.32,0,0,1,7,3.64l-.47-.87Zm-11.09,2a2,2,0,0,1,2-2h.91L6.34,4A2.11,2.11,0,0,0,8.17,5.17h4.1A2.12,2.12,0,0,0,14.1,4l.67-1.25h.91a2,2,0,0,1,2,2V26.06a2,2,0,0,1-2,2H4.76a2,2,0,0,1-2-2"/><path id="Path_90" data-name="Path 90" class="cls-1" d="M16.74,22.18V17.53a.94.94,0,0,0-.93-.94H11.68a.94.94,0,0,0-.93.94h0v4.65a.94.94,0,0,0,.93.94h4.13A.94.94,0,0,0,16.74,22.18ZM15.94,18v3.65l-1.66-1.83Zm-.5-.64-1.7,1.87-1.69-1.87Zm-3.89,4.29V18l1.65,1.82Zm.5.64,1.69-1.87,1.7,1.87Z"/><path id="Path_71" data-name="Path 71" class="cls-1" d="M7.69,25.58a.4.4,0,0,0,.4.4h4.26a.4.4,0,0,0,0-.8H8.09A.4.4,0,0,0,7.69,25.58Z"/><path id="Path_76" data-name="Path 76" class="cls-1" d="M30.39,30.37V25.71a.94.94,0,0,0-.94-.93H25.33a.93.93,0,0,0-.93.93h0v4.66a.92.92,0,0,0,.93.93h4.12A.93.93,0,0,0,30.39,30.37Zm-.8-4.15v3.65L27.93,28Zm-.5-.64-1.7,1.87L25.7,25.58Zm-3.9,4.29V26.22L26.85,28Zm.51.63,1.69-1.86,1.7,1.87Z"/><path id="Path_75" data-name="Path 75" class="cls-1" d="M32.91,33.37H28.65a.4.4,0,0,0,0,.79h4.26a.4.4,0,0,0,0-.79Z"/><path id="Path_77" data-name="Path 77" class="cls-1" d="M36.24,24.78H32.12a.94.94,0,0,0-.94.93h0v4.66a.93.93,0,0,0,.94.93h4.12a.92.92,0,0,0,.93-.93h0V25.71a.93.93,0,0,0-.93-.93Zm-.37.8-1.69,1.87-1.7-1.87ZM32,29.87V26.22L33.64,28Zm.5.63,1.7-1.86,1.69,1.86Zm3.89-.63L34.72,28l1.65-1.82Z"/></svg>