<svg id="Layer_1" data-name="Layer 1" xmlns="http://www.w3.org/2000/svg" viewBox="0 0 40 40"><defs><style>.cls-1{fill:#b70000;}</style></defs><g id="noun-mobile-development-204941"><g id="Group_26" data-name="Group 26"><path id="Path_59" data-name="Path 59" class="cls-1" d="M20,27.71a3.54,3.54,0,1,0,3.54,3.54A3.53,3.53,0,0,0,20,27.71Zm0,5.79a2.26,2.26,0,1,1,2.25-2.25A2.26,2.26,0,0,1,20,33.5Z"/><path id="Path_60" data-name="Path 60" class="cls-1" d="M23.94,6.53H16a1,1,0,1,0,0,1.93h7.91a1,1,0,1,0,0-1.93Z"/><path id="Path_61" data-name="Path 61" class="cls-1" d="M14.32,18.91a3.2,3.2,0,0,0,.15-1.15V17a1.39,1.39,0,0,1,.1-.67.52.52,0,0,1,.36-.19H15c.42-.07.63-.26.63-.59a.46.46,0,0,0-.17-.38A.63.63,0,0,0,15,15a1.88,1.88,0,0,0-.81.15,1.35,1.35,0,0,0-.59.41,1.31,1.31,0,0,0-.26.56,5.24,5.24,0,0,0-.08,1.12v.62c0,.6-.23.94-.7,1l-.28.07a.61.61,0,0,0-.4.76.66.66,0,0,0,.09.19.58.58,0,0,0,.37.17h0a1,1,0,0,1,.87,1.05v.65A4.91,4.91,0,0,0,13.4,23a1.25,1.25,0,0,0,.35.58,1.68,1.68,0,0,0,.57.32A2.06,2.06,0,0,0,15,24a.68.68,0,0,0,.46-.14.43.43,0,0,0,.17-.38c0-.32-.19-.51-.59-.57a.51.51,0,0,1-.17,0,.48.48,0,0,1-.33-.18,1.51,1.51,0,0,1-.08-.67v-.76a3.15,3.15,0,0,0-.16-1.18,1.43,1.43,0,0,0-.54-.6A1.43,1.43,0,0,0,14.32,18.91Z"/><path id="Path_62" data-name="Path 62" class="cls-1" d="M18.79,23.17v.09a.21.21,0,0,0,.05.12.25.25,0,0,0,.14.08l.39.14.06,0h.05a.21.21,0,0,0,.15-.05.26.26,0,0,0,.1-.13l1.56-3.06a.3.3,0,0,0,0-.08.17.17,0,0,0,0-.07.09.09,0,0,0-.05-.08.16.16,0,0,0-.13,0H19.91a.4.4,0,0,0-.24.05.41.41,0,0,0-.13.23l-.74,2.72S18.79,23.15,18.79,23.17Z"/><path id="Path_63" data-name="Path 63" class="cls-1" d="M20.15,19.22a1.14,1.14,0,0,0,.79-.28.93.93,0,0,0,.3-.72.9.9,0,0,0-.3-.7,1.28,1.28,0,0,0-1.57,0,.9.9,0,0,0-.3.7.93.93,0,0,0,.3.72A1.1,1.1,0,0,0,20.15,19.22Z"/><path id="Path_64" data-name="Path 64" class="cls-1" d="M28.05,19l-.27-.05c-.48-.09-.71-.44-.71-1v-.62A5,5,0,0,0,27,16a1.27,1.27,0,0,0-.36-.58,1.4,1.4,0,0,0-.55-.32,2.27,2.27,0,0,0-.72-.12.6.6,0,0,0-.45.15.53.53,0,0,0-.16.41.47.47,0,0,0,.12.38.88.88,0,0,0,.51.18.71.71,0,0,1,.42.17.5.5,0,0,1,.13.37v1.09a3.17,3.17,0,0,0,.15,1.14,1.38,1.38,0,0,0,.54.61,1.42,1.42,0,0,0-.55.59,3.36,3.36,0,0,0-.15,1.18v1a.64.64,0,0,1-.11.4.74.74,0,0,1-.43.17.91.91,0,0,0-.51.19.51.51,0,0,0-.13.37.49.49,0,0,0,.17.41.62.62,0,0,0,.45.15,2.15,2.15,0,0,0,.8-.15,1.41,1.41,0,0,0,.59-.4,1.31,1.31,0,0,0,.27-.54,5.51,5.51,0,0,0,.07-1.15v-.6c0-.62.25-1,.74-1.06l.24-.05a.53.53,0,0,0,.32-.19.56.56,0,0,0,.11-.37.52.52,0,0,0-.42-.56Z"/><path id="Path_65" data-name="Path 65" class="cls-1" d="M31.38,24V4.49a2.7,2.7,0,0,0-2.7-2.7H11.29a2.7,2.7,0,0,0-2.7,2.7V36.18a2.7,2.7,0,0,0,2.7,2.7h.93v0H28.68a2.73,2.73,0,0,0,2.73-2.73V24Zm-2,12.16a.74.74,0,0,1-.74.74H12.22v0h-.93a.76.76,0,0,1-.77-.76V4.49a.76.76,0,0,1,.77-.76H28.68a.76.76,0,0,1,.77.76V24h0V36.18Z"/></g></g></svg>