<svg id="Layer_1" data-name="Layer 1" xmlns="http://www.w3.org/2000/svg" viewBox="0 0 40 40"><defs><style>.cls-1{fill:#b70000;}</style></defs><g id="noun-responsive-design-659710"><path id="Path_78" data-name="Path 78" class="cls-1" d="M11.62,32.55H9.3a.79.79,0,0,1-.8-.73h-7v.67a.81.81,0,0,0,.81.81H19.09a.81.81,0,0,0,.81-.81h0v-.67H12.42a.79.79,0,0,1-.8.73Z"/><path id="Path_79" data-name="Path 79" class="cls-1" d="M37.39,17.89H35V8.22A1.19,1.19,0,0,0,33.82,7H5.29a1.19,1.19,0,0,0-1.2,1.19v9.67H2.66a1.2,1.2,0,0,0-1.2,1.19h0V31H19.92V29.25h4.34a.81.81,0,0,0,.81-.81v-.87a.81.81,0,0,0-.81-.81H19.92V25.15h7.85v7.27a1.14,1.14,0,0,0,1.14,1.14h8.48a1.15,1.15,0,0,0,1.15-1.14h0V19a1.15,1.15,0,0,0-1.15-1.14ZM37.77,19V31H28.53V19a.38.38,0,0,1,.38-.38h8.48A.38.38,0,0,1,37.77,19ZM32.5,32a.56.56,0,1,1,.56.56A.56.56,0,0,1,32.5,32ZM19.16,30.22H2.23V19.08a.43.43,0,0,1,.43-.43H18.71a.43.43,0,0,1,.43.43V30.22Zm.76-5.83V19.08a1.19,1.19,0,0,0-1.19-1.2H4.85V8.22a.43.43,0,0,1,.43-.43H33.82a.43.43,0,0,1,.43.43v9.67H28.9A1.14,1.14,0,0,0,27.76,19h0v5.36Z"/><path id="Path_80" data-name="Path 80" class="cls-1" d="M7.41,24.59l2.32,1.14v-.49L8,24.45H8l1.7-.8v-.49L7.41,24.29Z"/><path id="Path_81" data-name="Path 81" class="cls-1" d="M9.91,25.93h.41l1.14-3.51h-.41Z"/><path id="Path_82" data-name="Path 82" class="cls-1" d="M11.66,23.63l1.86.81h0l-1.86.8v.48L14,24.65v-.42l-2.32-1.08Z"/><path id="Path_83" data-name="Path 83" class="cls-1" d="M14.24,14.18,18,16v-.79L15.24,14v0L18,12.66v-.8L14.24,13.7Z"/><path id="Path_84" data-name="Path 84" class="cls-1" d="M18.28,16.34H19l1.83-5.65h-.67Z"/><path id="Path_85" data-name="Path 85" class="cls-1" d="M21.1,12.64l3,1.3h0l-3,1.3V16l3.75-1.74V13.6L21.1,11.86Z"/><path id="Path_86" data-name="Path 86" class="cls-1" d="M32.52,25.46l-1.11-.52h0l1.11-.51V24.1L31,24.84V25l1.51.74Z"/><path id="Path_87" data-name="Path 87" class="cls-1" d="M33.65,23.62h-.27l-.74,2.28h.27Z"/><path id="Path_88" data-name="Path 88" class="cls-1" d="M35.29,24.79l-1.51-.69v.31l1.21.52h0l-1.21.52v.31l1.51-.7Z"/></g></svg>