<svg id="Layer_1" data-name="Layer 1" xmlns="http://www.w3.org/2000/svg" viewBox="0 0 40 40"><defs><style>.cls-1{fill:#b70000;}</style></defs><path class="cls-1" d="M20,37.47A17.47,17.47,0,1,1,37.47,20,17.49,17.49,0,0,1,20,37.47ZM20,3.62A16.38,16.38,0,1,0,36.38,20,16.4,16.4,0,0,0,20,3.62Z"/><path class="cls-1" d="M29.15,28.62a.55.55,0,0,1-.38-.15A2.34,2.34,0,0,1,28,26.76a2.37,2.37,0,0,1,2.36-2.37,2.85,2.85,0,0,1,.4,0,11.65,11.65,0,0,0-2.7-12.81.56.56,0,0,1,0-.78.55.55,0,0,1,.77,0A12.73,12.73,0,0,1,31.6,25.31a.54.54,0,0,1-.7.28,1.24,1.24,0,0,0-.5-.1,1.27,1.27,0,0,0-.88,2.19.54.54,0,0,1,0,.77A.5.5,0,0,1,29.15,28.62Z"/><path class="cls-1" d="M10.92,28.71a.53.53,0,0,1-.42-.21.53.53,0,0,1,.08-.76,1.27,1.27,0,0,0-.81-2.25,1.35,1.35,0,0,0-.59.14.54.54,0,0,1-.43,0,.55.55,0,0,1-.32-.28A12.61,12.61,0,0,1,7.24,20,12.84,12.84,0,0,1,18.11,7.38a.55.55,0,0,1,.42.12.51.51,0,0,1,.2.38,1.27,1.27,0,0,0,2.54,0,.51.51,0,0,1,.2-.38.54.54,0,0,1,.42-.12,12.43,12.43,0,0,1,3.67,1.14.55.55,0,0,1-.48,1,11.44,11.44,0,0,0-2.84-.95,2.37,2.37,0,0,1-4.48,0A11.74,11.74,0,0,0,8.33,20a11.49,11.49,0,0,0,.89,4.46,2.51,2.51,0,0,1,.55-.07,2.37,2.37,0,0,1,2.36,2.37,2.32,2.32,0,0,1-.86,1.82A.53.53,0,0,1,10.92,28.71Z"/><path class="cls-1" d="M20,28.05a8.05,8.05,0,1,1,8.05-8A8.06,8.06,0,0,1,20,28.05Zm0-15a7,7,0,1,0,7,7A7,7,0,0,0,20,13Z"/><path class="cls-1" d="M20,23.34A3.34,3.34,0,1,1,23.34,20,3.35,3.35,0,0,1,20,23.34Zm0-5.59A2.25,2.25,0,1,0,22.25,20,2.25,2.25,0,0,0,20,17.75Z"/><path class="cls-1" d="M20,21.35a1.12,1.12,0,0,1-.4-.07h0a1.27,1.27,0,0,1-.79-.66,1.3,1.3,0,0,1-.09-1,1.27,1.27,0,0,1,.66-.79,1.3,1.3,0,0,1,1-.09,1.33,1.33,0,0,1,.88,1.68,1.27,1.27,0,0,1-.66.79A1.25,1.25,0,0,1,20,21.35Zm0-1.6a.24.24,0,0,0-.24.17.31.31,0,0,0,0,.2.27.27,0,0,0,.15.12h0a.31.31,0,0,0,.2,0,.27.27,0,0,0,.12-.15.25.25,0,0,0-.16-.32Z"/><path class="cls-1" d="M9.77,29.12a2.37,2.37,0,1,1,2.36-2.36,2.32,2.32,0,0,1-.86,1.82A2.27,2.27,0,0,1,9.77,29.12Zm0-3.63a1.35,1.35,0,0,0-.59.14A1.27,1.27,0,0,0,9.77,28a1.21,1.21,0,0,0,.8-.29,1.25,1.25,0,0,0,.47-1A1.27,1.27,0,0,0,9.77,25.49Z"/><path class="cls-1" d="M30.4,29.12a2.41,2.41,0,0,1-1.63-.64,2.36,2.36,0,0,1,2.54-3.9,2.36,2.36,0,0,1-.91,4.54Zm0-3.63a1.27,1.27,0,0,0-.88,2.19,1.26,1.26,0,0,0,.88.35,1.27,1.27,0,0,0,1.27-1.27,1.3,1.3,0,0,0-.78-1.18A1.33,1.33,0,0,0,30.4,25.49Z"/><path class="cls-1" d="M20,10.15A2.37,2.37,0,0,1,17.64,8s0-.1,0-.17a2.37,2.37,0,1,1,4.73,0,1.41,1.41,0,0,1,0,.21A2.36,2.36,0,0,1,20,10.15Zm0-3.64a1.28,1.28,0,0,0-1.26,1.28v.06a1.27,1.27,0,0,0,2.54,0V7.79A1.28,1.28,0,0,0,20,6.51Z"/><path class="cls-1" d="M20,20.55a.59.59,0,0,1-.39-.16.56.56,0,0,1,0-.78l12-12a.54.54,0,1,1,.77.77l-12,12A.59.59,0,0,1,20,20.55Z"/></svg>