<svg id="Layer_1" data-name="Layer 1" xmlns="http://www.w3.org/2000/svg" viewBox="0 0 40 40"><defs><style>.cls-1{fill:#b70000;}</style></defs><path class="cls-1" d="M29.08,1.84H10.92A2.84,2.84,0,0,0,8.08,4.67V35.33a2.84,2.84,0,0,0,2.84,2.83H29.08a2.84,2.84,0,0,0,2.84-2.83V4.67A2.84,2.84,0,0,0,29.08,1.84ZM10.92,3H29.08a1.7,1.7,0,0,1,1.7,1.7V6.38H9.22V4.67A1.7,1.7,0,0,1,10.92,3ZM29.08,37H10.92a1.7,1.7,0,0,1-1.7-1.7V7.51H30.78V35.33A1.7,1.7,0,0,1,29.08,37Z"/><path class="cls-1" d="M18.86,5.24h2.28a.57.57,0,0,0,0-1.13H18.86a.57.57,0,0,0,0,1.13Z"/><path class="cls-1" d="M20.57,34.76H19.43a.57.57,0,1,0,0,1.13h1.14a.57.57,0,1,0,0-1.13Z"/><path class="cls-1" d="M21.3,29.48a.56.56,0,0,0,.8,0h0l2.83-2.83a.57.57,0,0,0,0-.81h0L22.11,23a.57.57,0,0,0-.81.81l2.44,2.43L21.3,28.68a.57.57,0,0,0,0,.8Z"/><path class="cls-1" d="M17.89,29.48a.57.57,0,0,0,.81,0h0a.57.57,0,0,0,0-.8h0l-2.44-2.44,2.44-2.43a.57.57,0,0,0-.81-.81l-2.83,2.84a.56.56,0,0,0,0,.8h0Z"/><path class="cls-1" d="M28,31.35H12.05a.57.57,0,0,0,0,1.14H28a.57.57,0,0,0,0-1.14Z"/></svg>