<svg id="Layer_1" data-name="Layer 1" xmlns="http://www.w3.org/2000/svg" viewBox="0 0 40 40"><defs><style>.cls-1{fill:#b70000;}</style></defs><path class="cls-1" d="M26.49,38.11h-13A5.17,5.17,0,0,1,8.35,33V7.05a5.17,5.17,0,0,1,5.16-5.16h13a5.17,5.17,0,0,1,5.16,5.16V33A5.17,5.17,0,0,1,26.49,38.11Zm-13-34.82A3.77,3.77,0,0,0,9.74,7.05V33a3.77,3.77,0,0,0,3.77,3.76h13A3.77,3.77,0,0,0,30.26,33V7.05a3.77,3.77,0,0,0-3.77-3.76Z"/><path class="cls-1" d="M31,32H9.05a.7.7,0,0,1,0-1.4H31A.7.7,0,0,1,31,32Z"/><path class="cls-1" d="M31,9.4H9.05a.7.7,0,1,1,0-1.4H31a.7.7,0,1,1,0,1.4Z"/><path class="cls-1" d="M27.65,35h-1a.7.7,0,0,1,0-1.39h1a.7.7,0,0,1,0,1.39Z"/><path class="cls-1" d="M20.52,35h-1a.7.7,0,1,1,0-1.39h1a.7.7,0,1,1,0,1.39Z"/><path class="cls-1" d="M13.4,35H12.35a.7.7,0,0,1,0-1.39H13.4a.7.7,0,0,1,0,1.39Z"/><path class="cls-1" d="M23.89,6.34H16.11a.7.7,0,1,1,0-1.39h7.78a.7.7,0,1,1,0,1.39Z"/><path class="cls-1" d="M17,29.27a1.82,1.82,0,0,1-1.32-.55l-4.39-4.38a1.88,1.88,0,0,1,0-2.64l.31-.3a1.86,1.86,0,0,1,2.64,0h0l4.38,4.38a1.86,1.86,0,0,1,0,2.64h0l-.31.31A1.85,1.85,0,0,1,17,29.27Zm1.13-1.34ZM12.9,22.25a.48.48,0,0,0-.34.14l-.3.3a.47.47,0,0,0,0,.67l4.38,4.38a.48.48,0,0,0,.67,0l.3-.3a.46.46,0,0,0,0-.67l-4.38-4.38A.47.47,0,0,0,12.9,22.25Z"/><path class="cls-1" d="M19.75,28.13a1.86,1.86,0,0,1-1.32-.55l-6-6a1.86,1.86,0,0,1,0-2.64l.3-.3a1.86,1.86,0,0,1,2.64,0l6,6a1.86,1.86,0,0,1,0,2.64l-.31.3A1.84,1.84,0,0,1,19.75,28.13ZM14,19.48a.47.47,0,0,0-.33.14l-.31.3a.48.48,0,0,0,0,.67l6,6a.48.48,0,0,0,.67,0h0l.31-.31a.48.48,0,0,0,0-.67h0l-6-6A.48.48,0,0,0,14,19.48Z"/><path class="cls-1" d="M27.1,19.15a1.88,1.88,0,0,1-1.32-.55L21.4,14.22a1.86,1.86,0,0,1,0-2.64h0l.31-.31a1.87,1.87,0,0,1,2.63,0l4.39,4.39a1.88,1.88,0,0,1,0,2.64l-.31.3A1.86,1.86,0,0,1,27.1,19.15Zm-4.08-7a.47.47,0,0,0-.33.14l-.3.3a.46.46,0,0,0,0,.67l4.38,4.38a.46.46,0,0,0,.67,0h0l.3-.3a.47.47,0,0,0,0-.67l-4.38-4.38A.48.48,0,0,0,23,12.12Z"/><path class="cls-1" d="M26,21.92a1.86,1.86,0,0,1-1.32-.55l-6-6a1.86,1.86,0,0,1,0-2.64l.31-.3a1.85,1.85,0,0,1,2.63,0h0l6,6a1.86,1.86,0,0,1,0,2.64l-.3.3h0A1.88,1.88,0,0,1,26,21.92Zm.83-1Zm-6.54-7.62a.47.47,0,0,0-.33.14l-.31.31a.48.48,0,0,0,0,.67h0l6,6a.46.46,0,0,0,.67,0h0l.31-.3a.48.48,0,0,0,0-.67l-6-6A.48.48,0,0,0,20.25,13.26Z"/><path class="cls-1" d="M13.69,28.68h0a2.37,2.37,0,0,1-1.68-4l.27-.27a.7.7,0,1,1,1,1l-.27.27a1,1,0,0,0,.69,1.67h0a.94.94,0,0,0,.69-.29l.27-.27a.7.7,0,0,1,1,1l-.27.27A2.32,2.32,0,0,1,13.69,28.68Z"/><path class="cls-1" d="M16.69,21.64a.7.7,0,0,1-.5-1.19l4.26-4.26a.7.7,0,0,1,1,1l-4.26,4.26A.7.7,0,0,1,16.69,21.64Z"/><path class="cls-1" d="M19.06,24a.7.7,0,0,1-.5-1.19l4.26-4.26a.7.7,0,0,1,1,1L19.55,23.8A.67.67,0,0,1,19.06,24Z"/><path class="cls-1" d="M27.23,15.84a.7.7,0,0,1-.5-1.19l.27-.27A1,1,0,0,0,27,13a.94.94,0,0,0-.69-.29h0a.94.94,0,0,0-.69.29l-.27.27a.7.7,0,0,1-1-1l.27-.27a2.37,2.37,0,0,1,1.68-.7h0a2.38,2.38,0,0,1,1.68,4l-.27.27A.71.71,0,0,1,27.23,15.84Z"/></svg>