<svg id="Layer_1" data-name="Layer 1" xmlns="http://www.w3.org/2000/svg" viewBox="0 0 40 40"><defs><style>.cls-1{fill:#b70000;}</style></defs><path class="cls-1" d="M19,3.06a.55.55,0,0,0-.55.55h0V7.92h-.12a3.22,3.22,0,0,0,0,6.44h.12v3.47a.55.55,0,0,0,.55.54H33.17a.55.55,0,0,0,.55-.54A14.79,14.79,0,0,0,19,3.06Zm.55,14.22V13.81a.55.55,0,0,0-.55-.54h-.67a2.13,2.13,0,0,1,0-4.25H19a.55.55,0,0,0,.55-.55V4.16A13.7,13.7,0,0,1,32.61,17.28Z"/><path class="cls-1" d="M15,35.91a3.85,3.85,0,0,0,1.13-2.72V29.62a9.29,9.29,0,0,0,5.48-8.5.55.55,0,0,0-.54-.55H12.86V18.92a.55.55,0,0,0-.55-.55h-.54a1.1,1.1,0,1,1,0-2.19h.54a.55.55,0,0,0,.55-.55V12.34a.54.54,0,0,0-.55-.55h-.45A9.33,9.33,0,0,0,8.47,29.62v3.57A3.84,3.84,0,0,0,12.31,37,3.8,3.8,0,0,0,15,35.91Zm-5.8-7.16A8.24,8.24,0,0,1,11.77,12.9v2.18a2.2,2.2,0,1,0,0,4.39v1.65a.55.55,0,0,0,.54.55h8.22a8.22,8.22,0,0,1-5.13,7.08.53.53,0,0,0-.34.51v1.19H9.57V29.26A.55.55,0,0,0,9.23,28.75Zm.34,4.44V31.55h5.49v1.64Zm.23,1.1h5a2.74,2.74,0,0,1-5,0Z"/><circle class="cls-1" cx="24.59" cy="13.98" r="0.55"/><path class="cls-1" d="M24.59,9a4.4,4.4,0,0,0-3.54,1.8l.88.65a3.28,3.28,0,0,1,4.6-.71,3.41,3.41,0,0,1,.71.71l.88-.65A4.4,4.4,0,0,0,24.59,9Z"/><path class="cls-1" d="M24.59,11.24a2.18,2.18,0,0,0-1.78.9l.89.64a1.15,1.15,0,0,1,1.59-.18,1.53,1.53,0,0,1,.18.18l.89-.64A2.18,2.18,0,0,0,24.59,11.24Z"/><path class="cls-1" d="M37,30.94a.92.92,0,0,0-.11-.74L36.17,29a1,1,0,0,0-1.34-.35l-.21.11a3.92,3.92,0,0,0-.85-.47v-.19a1,1,0,0,0-1-1H31.36a1,1,0,0,0-1,1v.19a4.24,4.24,0,0,0-.86.47l-.2-.11A1,1,0,0,0,28,29l-.71,1.17a1,1,0,0,0-.1.74,1,1,0,0,0,.47.6l.18.1a3.47,3.47,0,0,0,0,.91l-.18.1a1,1,0,0,0-.47.6,1,1,0,0,0,.1.74L28,35.16a1,1,0,0,0,1.34.35l.2-.11a4.24,4.24,0,0,0,.86.47v.19a1,1,0,0,0,1,1h1.42a1,1,0,0,0,1-1v-.19a4.16,4.16,0,0,0,.85-.47l.21.11a1,1,0,0,0,1.33-.35L36.87,34a.92.92,0,0,0,.11-.74,1,1,0,0,0-.47-.6l-.19-.1a3.47,3.47,0,0,0,0-.91l.19-.1A1,1,0,0,0,37,30.94ZM35.26,32.1a2.69,2.69,0,0,1,0,.4,1,1,0,0,0,.49,1l.14.07-.58,1-.18-.1a1,1,0,0,0-1.09.08,3.28,3.28,0,0,1-.71.39,1,1,0,0,0-.63.9v.16h-1.2v-.16a1,1,0,0,0-.63-.9,3,3,0,0,1-.7-.39,1,1,0,0,0-1.1-.08l-.17.1-.58-1,.13-.07a1,1,0,0,0,.5-1,2.69,2.69,0,0,1,0-.4,2.73,2.73,0,0,1,0-.41,1,1,0,0,0-.5-1l-.13-.07.58-1,.17.1a1,1,0,0,0,1.1-.08,3.21,3.21,0,0,1,.7-.39,1,1,0,0,0,.63-.9v-.16h1.2v.16a1,1,0,0,0,.64.9,3.21,3.21,0,0,1,.7.39,1,1,0,0,0,1.09.08l.18-.1.58,1-.14.07a1,1,0,0,0-.49,1A2.83,2.83,0,0,1,35.26,32.1Z"/><path class="cls-1" d="M32.07,29.9a2.2,2.2,0,1,0,2.2,2.2A2.19,2.19,0,0,0,32.07,29.9Zm0,3.29a1.1,1.1,0,1,1,1.1-1.09A1.1,1.1,0,0,1,32.07,33.19Z"/><rect class="cls-1" x="32.05" y="5.75" width="2.2" height="1.1" transform="translate(3.89 23.11) rotate(-40.64)"/><rect class="cls-1" x="34.27" y="8.83" width="1.1" height="2.2" transform="translate(22.27 43.9) rotate(-85.64)"/><rect class="cls-1" x="28.72" y="3.55" width="2.2" height="1.1" transform="translate(23.45 33.52) rotate(-85.63)"/></svg>