<svg id="Layer_1" data-name="Layer 1" xmlns="http://www.w3.org/2000/svg" viewBox="0 0 40 40"><defs><style>.cls-1{fill:#b70000;}</style></defs><path class="cls-1" d="M27.54,1.15H12.46A3.13,3.13,0,0,0,9.32,4.29V35.71a3.13,3.13,0,0,0,3.14,3.14H27.54a3.13,3.13,0,0,0,3.14-3.14V4.29A3.13,3.13,0,0,0,27.54,1.15ZM23.65,2.4a2.78,2.78,0,0,0-.18.48,1,1,0,0,1-1,.78H17.53a1,1,0,0,1-1-.78,2.34,2.34,0,0,0-.18-.48Zm5.78,33.31a1.89,1.89,0,0,1-1.89,1.89H12.46a1.89,1.89,0,0,1-1.89-1.89V4.29A1.89,1.89,0,0,1,12.46,2.4H14.3a1,1,0,0,1,1,.78,2.29,2.29,0,0,0,2.23,1.74h4.94A2.3,2.3,0,0,0,24.7,3.18a1,1,0,0,1,1-.78h1.84a1.89,1.89,0,0,1,1.89,1.89Z"/><path class="cls-1" d="M18.19,34.56l.88.9a1.35,1.35,0,0,1,1.87,0l.88-.9A2.61,2.61,0,0,0,18.19,34.56Z"/><path class="cls-1" d="M16.36,32.78l.88.91a4,4,0,0,1,5.53,0l.88-.91A5.27,5.27,0,0,0,16.36,32.78Z"/><path class="cls-1" d="M14.53,31l.88.9a6.63,6.63,0,0,1,9.18,0l.88-.9A7.91,7.91,0,0,0,14.53,31Z"/><path class="cls-1" d="M25.71,10.53A4.08,4.08,0,0,0,20,10.44a4.08,4.08,0,0,0-5.71.09,4.17,4.17,0,0,0-.14,5.7H11.83v1.26h3.55L20,22.15l4.62-4.66h3.55V16.23H25.85A4.17,4.17,0,0,0,25.71,10.53ZM20,20.36l-3.59-3.63,1.15-1.92,2.39,3,2.5-2.5,1.11,1.48Zm4.82-4.86-.37.38-1.87-2.49-2.53,2.52-2.63-3.29L15.5,15.81l-.32-.31a2.92,2.92,0,0,1,0-4.08,2.84,2.84,0,0,1,4,0l0,0,.79.8.8-.81a2.83,2.83,0,0,1,4,0l0,0A2.93,2.93,0,0,1,24.82,15.5Z"/></svg>