<svg id="Layer_1" data-name="Layer 1" xmlns="http://www.w3.org/2000/svg" viewBox="0 0 40 40"><defs><style>.cls-1{fill:#b70000;}</style></defs><path class="cls-1" d="M34.76,27.57a.58.58,0,0,0-.35-.54L31.16,25.6l3.25-1.43a.61.61,0,0,0,.35-.54.57.57,0,0,0-.35-.54l-7.76-3.42-.26-.26a6.63,6.63,0,0,0,.36-.87h1.63A.58.58,0,0,0,29,18V14.46a.58.58,0,0,0-.59-.59H26.75a7.39,7.39,0,0,0-.36-.88l1.15-1.15a.59.59,0,0,0,0-.83L25.59,9.06a.6.6,0,0,0-.84,0,.6.6,0,0,0,0,.84l1.53,1.53-1,1a.6.6,0,0,0-.1.72,5.6,5.6,0,0,1,.59,1.43.61.61,0,0,0,.58.44h1.47v2.31H26.32a.6.6,0,0,0-.58.43,5.17,5.17,0,0,1-.5,1.27l-.09.17a.63.63,0,0,0,.09.71l.73.72.31.32-1.63,1.63-1-1a.59.59,0,0,0-.71-.1,6.85,6.85,0,0,1-1.32.56l-.12,0a.59.59,0,0,0-.4.38.63.63,0,0,0,0,.19v1.47H18.72V22.64a.29.29,0,0,0,0-.09.57.57,0,0,0-.4-.47h0a5.25,5.25,0,0,1-.79-.27,6.36,6.36,0,0,1-.64-.32.59.59,0,0,0-.72.09l-1,1L13.46,21l.12-.12.92-.92a.63.63,0,0,0,.12-.18.55.55,0,0,0,0-.53.36.36,0,0,0,0-.09A6.17,6.17,0,0,1,14,17.79a.59.59,0,0,0-.57-.44H12v-2.3h1.47a.59.59,0,0,0,.57-.44,6.51,6.51,0,0,1,.59-1.44.58.58,0,0,0-.09-.71l-1-1L15,9.89a.61.61,0,0,0,.17-.42A.63.63,0,0,0,15,9.05a.6.6,0,0,0-.84,0l-1.95,2a.59.59,0,0,0,0,.83L13.36,13a8.41,8.41,0,0,0-.37.87H11.37a.59.59,0,0,0-.59.59v3.49a.59.59,0,0,0,.59.6H13a7.32,7.32,0,0,0,.37.87l-.46.46L5.59,23.08a.61.61,0,0,0-.35.54.58.58,0,0,0,.35.54l3.25,1.43L5.59,27a.61.61,0,0,0-.35.54.57.57,0,0,0,.35.54l3.25,1.43L5.59,31a.59.59,0,0,0,0,1.08l14.17,6.23a.64.64,0,0,0,.24,0,.64.64,0,0,0,.23,0L34.4,32.05a.62.62,0,0,0,.36-.54A.58.58,0,0,0,34.4,31l-3.25-1.44L34.4,28.1a.59.59,0,0,0,.36-.54ZM20,37.1,7.31,31.51l3-1.32,9.44,4.15a.69.69,0,0,0,.24,0,.52.52,0,0,0,.24,0l9.44-4.15,3,1.32L20,37.1Zm9-7.88-.73.32L20,33.16l-8.21-3.62-.74-.32-.73-.32-3-1.33,3-1.32,3,1.32.74.32.73.33,5,2.18a.69.69,0,0,0,.24.05.52.52,0,0,0,.24-.05l5-2.18.73-.33.74-.32,3-1.32,3,1.32-3,1.33-.73.32ZM12.26,21.45l1.84,1.84.45.45.13.13a.62.62,0,0,0,.84,0l1-1,.15-.16.1.05c.25.11.5.22.76.31,0,0,0,0,0,0v1.62a.58.58,0,0,0,.59.59h3.49a.58.58,0,0,0,.59-.59V23.09l.16-.06a7.44,7.44,0,0,0,.72-.31l1.1,1.11,0,0a.6.6,0,0,0,.42.16.58.58,0,0,0,.42-.16l.21-.21.44-.45,1.81-1.81,0,0,5.14,2.27-3,1.32-.74.32-.73.33-3,1.32-.74.32-.73.33L20,29.21l-3.74-1.64-.73-.33-.73-.32-3-1.32-.74-.33L10.33,25l-3-1.32,5-2.19Zm2.49-4.92a5.12,5.12,0,0,1,.57-2.34.58.58,0,0,1,1.11.25.61.61,0,0,1-.06.29,3.85,3.85,0,0,0-.43,1.8,4.07,4.07,0,0,0,.44,1.82c.1.17.21.34.32.5s.26.32.4.47a3.92,3.92,0,0,0,2.77,1.14,4,4,0,0,0,2.85-1.22,4.54,4.54,0,0,0,.39-.48,4.27,4.27,0,0,0,.3-.51,3.82,3.82,0,0,0,.4-1.72,3.93,3.93,0,0,0-.58-2.06.62.62,0,0,1-.09-.29.59.59,0,0,1,1.09-.33,5.1,5.1,0,0,1,.26,4.88,5.29,5.29,0,0,1-.29.52,5.48,5.48,0,0,1-.35.49,5.18,5.18,0,0,1-2.32,1.63,4.46,4.46,0,0,1-1,.22,4,4,0,0,1-.7.06,4.36,4.36,0,0,1-.51,0,4.88,4.88,0,0,1-1-.2,5.26,5.26,0,0,1-2.4-1.6,4.29,4.29,0,0,1-.36-.48,5.29,5.29,0,0,1-.29-.52,5.06,5.06,0,0,1-.55-2.29Zm3.95-3H17.51V12.33H18.7Zm-.6,3.54h.6v1.19H17.51V17.06Zm.6-1.18H17.51V14.7H18.7Zm3.54-2.36H21.05V12.33h1.19Zm-.6,3.54h.6v1.19H21.05V17.06Zm.6-1.18H21.05V14.7h1.19ZM15.69,6.51a.6.6,0,0,1,.1-.63l3.59-4a.62.62,0,0,1,.44-.2.58.58,0,0,1,.44.19l3.69,4a.6.6,0,0,1,.1.64.58.58,0,0,1-.54.36H22.23v4.28H21.05v-1h0V6.27a.59.59,0,0,1,.59-.59h.52L19.83,3.14,17.55,5.68h.55a.59.59,0,0,1,.59.59V10.2h0v1H17.51V6.87H16.23a.58.58,0,0,1-.54-.36Z"/></svg>