<svg id="Layer_1" data-name="Layer 1" xmlns="http://www.w3.org/2000/svg" viewBox="0 0 40 40"><defs><style>.cls-1{fill:#b70000;}</style></defs><path class="cls-1" d="M14.21,16.87a.72.72,0,0,0,1,1,6.89,6.89,0,0,1,9.7,0,.71.71,0,0,0,1-1A8.39,8.39,0,0,0,14.21,16.87Zm9.86,11.5a9.43,9.43,0,0,1-7.17.33.71.71,0,0,0-.92.39l-1,2.73a.32.32,0,0,1-.32.2,3,3,0,0,0-2.74,1.89,2.89,2.89,0,0,0,5.43,2,2.92,2.92,0,0,0-.92-3.22.3.3,0,0,1-.12-.36L17,30.57a.39.39,0,0,1,.4-.24,10.7,10.7,0,0,0,7.32-.69.68.68,0,0,0,.32-.92.69.69,0,0,0-.92-.33Zm-8,7a1.49,1.49,0,0,1-1.89.86,1.44,1.44,0,0,1-.9-1.82v0a1.48,1.48,0,0,1,2.76,1Zm0-23.77a9.59,9.59,0,0,1,7.16-.33.7.7,0,0,0,.91-.42s0,0,0-.06l1-2.57A.39.39,0,0,1,25.48,8a2.81,2.81,0,0,0,2.74-1.86,2.89,2.89,0,0,0-5.43-2,2.84,2.84,0,0,0,.92,3.18.39.39,0,0,1,.12.39l-.62,1.76a.41.41,0,0,1-.45.2,10.53,10.53,0,0,0-7.28.68.69.69,0,0,0-.33.91h0a.65.65,0,0,0,.84.37l.09,0Zm10.82-6A1.49,1.49,0,0,1,25,6.48a1.46,1.46,0,0,1-.88-1.85,1.47,1.47,0,0,1,2.76,1Zm10,26.73a3.12,3.12,0,0,0-3.66-.52.34.34,0,0,1-.39-.08l-4.49-4.47a.39.39,0,0,1,0-.48,11,11,0,0,0,2.34-5,.78.78,0,0,0-.56-.85.73.73,0,0,0-.84.6,9.36,9.36,0,0,1-2.62,5,.71.71,0,0,0,0,1h0l5.15,5.2a.32.32,0,0,1,.08.4,3.11,3.11,0,0,0,.57,3.66,3.15,3.15,0,0,0,4.42-4.46Zm-1,3.46a1.72,1.72,0,0,1-2.44-2.43l0,0a1.76,1.76,0,0,1,2.46,0,1.73,1.73,0,0,1,0,2.43ZM7.33,8.22l4.47,4.51a.37.37,0,0,1,0,.48,11,11,0,0,0-2.41,5.47.71.71,0,0,0,1.4.2h0a9.41,9.41,0,0,1,2.66-5.47.71.71,0,0,0,0-1h0C11.72,10.71,10,9,8.34,7.21a.3.3,0,0,1-.08-.39A3,3,0,0,0,7.73,3.2C4.84.33.37,4.61,3.23,7.62a3.17,3.17,0,0,0,3.7.56.33.33,0,0,1,.39,0Zm-3-4.07a1.78,1.78,0,0,1,2.46,0,1.7,1.7,0,0,1,0,2.38l0,0A1.73,1.73,0,0,1,4.28,4.15Zm26.12,13a10.93,10.93,0,0,0-3.46-5.39.7.7,0,0,0-1,.11.72.72,0,0,0,.07,1,9.4,9.4,0,0,1,3.22,5.39.72.72,0,0,0,.93.69l2-.32a.29.29,0,0,1,.36.15A2.82,2.82,0,0,0,35,20.19a2.77,2.77,0,0,0,2.74-2.79,2.61,2.61,0,0,0,0-.48,2.75,2.75,0,0,0-3.17-2.21,2.72,2.72,0,0,0-2.26,2.21.38.38,0,0,1-.28.28l-1.13.21a.33.33,0,0,1-.39-.24ZM35,16.08a1.34,1.34,0,1,1-1.37,1.58v-.05a1.31,1.31,0,0,1,1.08-1.51,1.42,1.42,0,0,1,.29,0ZM9.75,22.82a10.58,10.58,0,0,0,3.5,5.45.71.71,0,0,0,.92-1.09,9.15,9.15,0,0,1-3.26-5.47c-.08-.4-.36-.77-.79-.68-.72.11-1.4.28-2.09.39a.31.31,0,0,1-.36-.16,2.79,2.79,0,0,0-2.9-1.37A2.75,2.75,0,1,0,8,23.07a.35.35,0,0,1,.29-.24l1.12-.24c.2,0,.36.08.39.24ZM5.44,23.93a1.35,1.35,0,0,1-1.53-1.05A1.38,1.38,0,0,1,5,21.29l.24,0a1.34,1.34,0,0,1,.16,2.66Zm14.61-1.51a1.72,1.72,0,0,0-1.73,1.71v0a1.75,1.75,0,1,0,1.73-1.73Zm0,2a.32.32,0,0,1,0-.64.32.32,0,1,1,.07.64ZM24,19.85a.71.71,0,0,0,0-1h0a5.52,5.52,0,0,0-7.77,0,.71.71,0,0,0,1,1,4,4,0,0,1,5.71-.05l.05.05a.71.71,0,0,0,1,0ZM22,20.78a2.81,2.81,0,0,0-3.9,0,.7.7,0,0,0,0,1,.71.71,0,0,0,1,0,1.34,1.34,0,0,1,1.89,0h0a.71.71,0,0,0,1-1Z"/></svg>