<svg id="Layer_1" data-name="Layer 1" xmlns="http://www.w3.org/2000/svg" viewBox="0 0 40 40"><defs><style>.cls-1{fill:#b70000;}</style></defs><path class="cls-1" d="M10.54,3.7a4.21,4.21,0,0,1,2.7-.93,4.16,4.16,0,0,1,4,3A1.44,1.44,0,1,0,18.4,5.6a5.25,5.25,0,0,0-5.16-3.93A5.36,5.36,0,0,0,9.85,2.84a.56.56,0,0,0-.08.78A.55.55,0,0,0,10.54,3.7ZM18,7.33A.35.35,0,0,1,17.65,7a.35.35,0,1,1,.69,0A.34.34,0,0,1,18,7.33ZM12.27,19.91l8.41-3.77h0a.56.56,0,0,1,.44-.77L23,15.13a.55.55,0,0,1,.44,1L22,17.33a.53.53,0,0,1-.48.12.52.52,0,0,1-.38-.31h0l-8.41,3.77a.59.59,0,0,1-.22.05.55.55,0,0,1-.23-1.05Zm.8,2.49a.55.55,0,0,0-.55.55v3.1a.55.55,0,0,0,.55.55H15.9a.55.55,0,0,0,.55-.55V23a.55.55,0,0,0-.55-.55Zm2.28,3.1H13.62v-2h1.73Zm3.52-5.87a.55.55,0,0,0-.55.54v6a.55.55,0,0,0,.55.55H21.7a.54.54,0,0,0,.55-.55v-6a.54.54,0,0,0-.55-.54Zm2.28,6H19.42V20.72h1.73Zm6.35.88a.55.55,0,0,0,.55-.55V17.19a.55.55,0,0,0-.55-.55H24.67a.55.55,0,0,0-.55.55v8.75a.55.55,0,0,0,.55.55Zm-2.28-8.75H27v7.65H25.22ZM7.87,7.27A5.29,5.29,0,0,0,9.64,11c.91.82.9,1.7.88,2.92,0,.17,0,.35,0,.53a1.35,1.35,0,0,0,.42,1,3.4,3.4,0,0,0,2.31.66h.13a3.27,3.27,0,0,0,2.17-.66,1.35,1.35,0,0,0,.42-1c0-.18,0-.36,0-.53,0-1.22,0-2.1.89-2.92a5.79,5.79,0,0,0,.74-.83.55.55,0,0,0-.11-.77.55.55,0,0,0-.77.12,4.7,4.7,0,0,1-.6.66,3.66,3.66,0,0,0-1.24,2.86H13.79V10.4a1.83,1.83,0,0,0,.66-.41A1.7,1.7,0,0,0,15,8.77a1.72,1.72,0,0,0-1.71-1.72h0a1.72,1.72,0,0,0-.55,3.35v2.66H11.62a3.67,3.67,0,0,0-1.25-2.86A4.22,4.22,0,0,1,9,7.31a1.43,1.43,0,1,0-1.1,0ZM12.8,8.33a.63.63,0,0,1,.44-.18h0a.62.62,0,0,1,.62.62.61.61,0,0,1-.19.44.58.58,0,0,1-.43.18h0a.62.62,0,0,1-.62-.62A.6.6,0,0,1,12.8,8.33Zm2,6.32a2.28,2.28,0,0,1-1.52.35h0a2.28,2.28,0,0,1-1.52-.35.22.22,0,0,1-.09-.18v-.32h3.25v.32A.22.22,0,0,1,14.77,14.65Zm-6.3-9A.34.34,0,1,1,8.13,6,.35.35,0,0,1,8.47,5.62Zm-3.91,3H6.67a.55.55,0,0,1,.55.55.55.55,0,0,1-.55.55H5.11V28.36H34.89V9.74h-15a.54.54,0,0,1-.55-.55.55.55,0,0,1,.55-.55H35.44a.55.55,0,0,1,.55.55V28.91a.55.55,0,0,1-.55.54H4.56A.55.55,0,0,1,4,28.91V9.19A.55.55,0,0,1,4.56,8.64Zm31.86-2.2H20.69a.55.55,0,0,0-.55.55.55.55,0,0,0,.55.55H36.42a.68.68,0,0,1,.68.67V29.89a.68.68,0,0,1-.68.67H3.58a.68.68,0,0,1-.68-.67V8.21a.68.68,0,0,1,.68-.67H5.89A.55.55,0,0,0,6.44,7a.55.55,0,0,0-.55-.55H3.58A1.78,1.78,0,0,0,1.8,8.21V29.89a1.78,1.78,0,0,0,1.78,1.77H16.51l-.36,3.44-.52.08-4.32.7a1.7,1.7,0,0,0-1.2.66,1,1,0,0,0-.13.78,1.68,1.68,0,0,0,1.76,1H28.26a1.68,1.68,0,0,0,1.76-1,1,1,0,0,0-.13-.78,1.7,1.7,0,0,0-1.2-.66l-4.32-.7-.52-.08-.36-3.44H36.42a1.78,1.78,0,0,0,1.78-1.77V8.21A1.78,1.78,0,0,0,36.42,6.44ZM24.2,36.27l4.32.69a1.13,1.13,0,0,1,.37.12,1.14,1.14,0,0,1-.63.15H11.74a1.14,1.14,0,0,1-.63-.15,1.13,1.13,0,0,1,.37-.12l4.32-.69a25.74,25.74,0,0,1,8.4,0ZM22.73,35a26.22,26.22,0,0,0-5.46,0l.34-3.31h4.78Z"/></svg>