<svg id="Layer_1" data-name="Layer 1" xmlns="http://www.w3.org/2000/svg" viewBox="0 0 40 40"><defs><style>.cls-1{fill:#b70000;}</style></defs><rect class="cls-1" x="6.58" y="4.52" width="1.42" height="1.15"/><rect class="cls-1" x="10.12" y="4.52" width="1.42" height="1.15"/><rect class="cls-1" x="13.67" y="4.52" width="1.42" height="1.15"/><path class="cls-1" d="M37.39,1.62H2.61V38.38H37.39Zm-1.14,2.9H19.54V2.77H36.25ZM19.54,5.67H36.25V7.42H19.54Zm-1.15-2.9V7.42H3.75V2.77ZM3.75,37.23V8.57h32.5V37.23Z"/><path class="cls-1" d="M5,36H35V9.84H5ZM6.17,11H33.82V34.81H6.17Z"/><path class="cls-1" d="M29.63,22.38v-.71a9.63,9.63,0,1,0-19.26,0v.71a1.9,1.9,0,0,0-1.51,1.85v4.19a1.9,1.9,0,0,0,1.9,1.89h1.82a1.1,1.1,0,0,0,1.1-1.1V23.45a1.11,1.11,0,0,0-1.1-1.11H11.52v-.67a8.48,8.48,0,1,1,17,0v.67H27.42a1.11,1.11,0,0,0-1.11,1.11v5.76a1.11,1.11,0,0,0,1.11,1.1h.07a1.73,1.73,0,0,1-1.63,1.18h-4.5a1.69,1.69,0,0,0-1.59-1.13H18.65a1.65,1.65,0,0,0-1.2.49,1.7,1.7,0,0,0,1.2,2.91h1.12a1.7,1.7,0,0,0,1.2-.5,1.59,1.59,0,0,0,.39-.63h4.5a2.88,2.88,0,0,0,2.82-2.32h.56a1.9,1.9,0,0,0,1.9-1.89V24.23A1.9,1.9,0,0,0,29.63,22.38ZM10,28.42V24.23a.73.73,0,0,1,.69-.73v5.65A.73.73,0,0,1,10,28.42Zm2.53.74h-.69V23.49h.69Zm7.62,3.29a.57.57,0,0,1-.39.16H18.65a.56.56,0,0,1-.56-.55.52.52,0,0,1,.17-.39.51.51,0,0,1,.39-.16h1.12a.55.55,0,0,1,.55.55A.57.57,0,0,1,20.16,32.45Zm7.3-9h.69v5.67h-.69ZM30,28.42a.74.74,0,0,1-.69.73V23.5a.74.74,0,0,1,.69.73Z"/><path class="cls-1" d="M18.36,22.43l0,0a2.23,2.23,0,0,0,1.6.66,2.28,2.28,0,0,0,1.6-.65l0-.05h0a2.26,2.26,0,0,0,0-3.13h0l0,0a2.32,2.32,0,0,0-3.21,0l0,0h0a2.26,2.26,0,0,0,0,3.13Zm.83-2.33,0,0h0a1.13,1.13,0,0,1,1.58,0l0,0a1.12,1.12,0,0,1,0,1.54l0,0h0a1.15,1.15,0,0,1-1.58,0h0l0,0A1.1,1.1,0,0,1,19.19,20.1Z"/><path class="cls-1" d="M17.66,25.27a4.79,4.79,0,0,0,.88.36l-.13,1.05.57.65H21l.56-.64-.13-1.06a4.79,4.79,0,0,0,.88-.36l.64.83.86.06,1.45-1.45-.05-.86-.84-.65a4.7,4.7,0,0,0,.36-.87l1,.13.65-.57v-2l-.65-.57-1,.13a4.52,4.52,0,0,0-.36-.88l.84-.65.05-.86-1.45-1.45-.86.06-.64.84a5.76,5.76,0,0,0-.89-.37l.13-1L21,14.46H19l-.57.65.13,1a5.65,5.65,0,0,0-.88.37L17,15.63l-.87-.05L14.71,17l0,.86.84.65a4.79,4.79,0,0,0-.36.88l-1.05-.13-.65.57v2l.65.57,1-.14a5.38,5.38,0,0,0,.37.89l-.84.64,0,.86,1.44,1.45L17,26.1ZM16,24.36l.73-.55.12-.79a3.72,3.72,0,0,1-.53-1.14c0-.1-.05-.2-.07-.3l-.64-.47-.9.12V20.5l.91.12.64-.47a1.63,1.63,0,0,1,.07-.3,3.56,3.56,0,0,1,.52-1.14l-.12-.78L16,17.37l.52-.52.56.73.78.12a3.85,3.85,0,0,1,1.45-.6l.46-.64-.11-.85h.72l-.11.85.46.64a3.92,3.92,0,0,1,1.45.6l.77-.13.56-.72.53.52-.73.57-.12.77a3.63,3.63,0,0,1,.52,1.15,2.46,2.46,0,0,1,.07.29l.64.46.91-.11v.74l-.91-.12-.64.47c0,.09,0,.19-.07.3A3.51,3.51,0,0,1,23.17,23l.12.78.73.56-.53.53-.56-.73L22.15,24a3.84,3.84,0,0,1-1.43.59l-.46.64.11.91h-.74l.11-.91-.46-.64a3.81,3.81,0,0,1-1.44-.6l-.78.13-.56.72Z"/></svg>