<svg id="Layer_1" data-name="Layer 1" xmlns="http://www.w3.org/2000/svg" viewBox="0 0 40 40"><defs><style>.cls-1{fill:#b70000;}</style></defs><path class="cls-1" d="M26.72,28.37H13.28a1.77,1.77,0,0,1-1.77-1.77V13.4a1.77,1.77,0,0,1,1.77-1.77H26.72a1.77,1.77,0,0,1,1.77,1.77V26.6A1.77,1.77,0,0,1,26.72,28.37ZM13.28,12.45a.94.94,0,0,0-.95,1V26.6a.94.94,0,0,0,.95.95H26.72a1,1,0,0,0,1-.95V13.4a1,1,0,0,0-1-1Z"/><path class="cls-1" d="M25.51,26.94h-11A1.54,1.54,0,0,1,13,25.41V14.59a1.54,1.54,0,0,1,1.53-1.53h11A1.54,1.54,0,0,1,27,14.59V25.41A1.54,1.54,0,0,1,25.51,26.94Zm-11-13.06a.7.7,0,0,0-.7.71V25.41a.7.7,0,0,0,.7.71h11a.7.7,0,0,0,.7-.71V14.59a.7.7,0,0,0-.7-.71Z"/><path class="cls-1" d="M26.34,31.85H13.66a.41.41,0,0,1-.41-.41V28a.41.41,0,0,1,.41-.41H26.34a.41.41,0,0,1,.41.41v3.48A.41.41,0,0,1,26.34,31.85ZM14.07,31H25.93V28.37H14.07Z"/><path class="cls-1" d="M25.11,38.17H14.89a.41.41,0,0,1-.41-.41V31.44a.42.42,0,0,1,.41-.41H25.11a.42.42,0,0,1,.41.41v6.32A.41.41,0,0,1,25.11,38.17Zm-9.8-.82h9.38v-5.5H15.31Z"/><path class="cls-1" d="M26.34,12.45H13.66a.41.41,0,0,1-.41-.41V8.56a.41.41,0,0,1,.41-.41H26.34a.41.41,0,0,1,.41.41V12A.41.41,0,0,1,26.34,12.45Zm-12.27-.82H25.93V9H14.07Z"/><path class="cls-1" d="M25.11,9H14.89a.42.42,0,0,1-.41-.41V2.24a.41.41,0,0,1,.41-.41H25.11a.41.41,0,0,1,.41.41V8.56A.42.42,0,0,1,25.11,9Zm-9.8-.82h9.38V2.65H15.31Z"/><path class="cls-1" d="M11.92,19H10.8A1.54,1.54,0,0,1,9.26,17.5V16.35a1.54,1.54,0,0,1,1.54-1.53h1.12a.41.41,0,0,1,.41.41v3.39A.41.41,0,0,1,11.92,19ZM10.8,15.64a.71.71,0,0,0-.72.71V17.5a.71.71,0,0,0,.72.71h.71V15.64Z"/><path class="cls-1" d="M11.92,23.47H10.8a1.53,1.53,0,0,1-1.54-1.53V20.8a1.54,1.54,0,0,1,1.54-1.54h1.12a.42.42,0,0,1,.41.41v3.39A.41.41,0,0,1,11.92,23.47ZM10.8,20.08a.72.72,0,0,0-.72.72v1.14a.71.71,0,0,0,.72.71h.71V20.08Z"/><path class="cls-1" d="M29.2,23.47H28.08a.41.41,0,0,1-.41-.41V19.67a.42.42,0,0,1,.41-.41H29.2a1.54,1.54,0,0,1,1.54,1.54v1.14A1.53,1.53,0,0,1,29.2,23.47Zm-.71-.82h.71a.71.71,0,0,0,.72-.71V20.8a.71.71,0,0,0-.72-.71h-.71Z"/><path class="cls-1" d="M25.11,36.31H21.43a.42.42,0,0,1,0-.83h3.68a.42.42,0,0,1,0,.83Z"/><path class="cls-1" d="M21.09,33.72h-6.2a.42.42,0,0,1-.41-.41.41.41,0,0,1,.41-.41h6.2a.41.41,0,0,1,.41.41A.41.41,0,0,1,21.09,33.72Z"/><path class="cls-1" d="M25.11,7.1H21.43A.41.41,0,0,1,21,6.69a.42.42,0,0,1,.41-.41h3.68a.42.42,0,0,1,.41.41A.41.41,0,0,1,25.11,7.1Z"/><path class="cls-1" d="M21.09,4.52h-6.2a.42.42,0,0,1,0-.83h6.2a.42.42,0,0,1,0,.83Z"/><path class="cls-1" d="M25.13,18.45a.42.42,0,0,1-.29-.12,6.86,6.86,0,0,0-9.68,0,.41.41,0,0,1-.58-.58,7.68,7.68,0,0,1,10.84,0,.41.41,0,0,1,0,.58A.4.4,0,0,1,25.13,18.45Z"/><path class="cls-1" d="M24,19.59a.42.42,0,0,1-.29-.12,5.24,5.24,0,0,0-7.4,0,.41.41,0,0,1-.58-.58,6.06,6.06,0,0,1,8.56,0,.41.41,0,0,1,0,.58A.4.4,0,0,1,24,19.59Z"/><path class="cls-1" d="M17.15,20.74a.45.45,0,0,1-.29-.12.42.42,0,0,1,0-.59,4.44,4.44,0,0,1,6.28,0,.42.42,0,0,1,0,.59.41.41,0,0,1-.58,0,3.6,3.6,0,0,0-5.12,0A.47.47,0,0,1,17.15,20.74Z"/><path class="cls-1" d="M21.71,21.88a.42.42,0,0,1-.29-.12,2,2,0,0,0-2.84,0,.41.41,0,0,1-.58,0,.42.42,0,0,1,0-.59,2.85,2.85,0,0,1,4,0,.42.42,0,0,1,0,.59A.4.4,0,0,1,21.71,21.88Z"/><path class="cls-1" d="M20,24.49a1.32,1.32,0,1,1,1.32-1.31A1.32,1.32,0,0,1,20,24.49Zm0-1.81a.5.5,0,1,0,.5.5A.5.5,0,0,0,20,22.68Z"/></svg>