<svg id="Layer_1" data-name="Layer 1" xmlns="http://www.w3.org/2000/svg" viewBox="0 0 40 40"><defs><style>.cls-1{fill:#b70000;}</style></defs><path class="cls-1" d="M31.65,10.19H28V4.06A2.46,2.46,0,0,0,25.52,1.6H8.35A2.46,2.46,0,0,0,5.89,4.06V35.94A2.46,2.46,0,0,0,8.35,38.4H25.52A2.46,2.46,0,0,0,28,35.94V31h3.68a2.46,2.46,0,0,0,2.46-2.45V12.64A2.46,2.46,0,0,0,31.65,10.19ZM20,2.83v.61a.62.62,0,0,1-.61.62H14.48a.62.62,0,0,1-.61-.62V2.83Zm6.75,33.11a1.23,1.23,0,0,1-1.23,1.23H8.35a1.23,1.23,0,0,1-1.23-1.23V4.06A1.23,1.23,0,0,1,8.35,2.83h4.29v.61a1.84,1.84,0,0,0,1.84,1.84h4.91a1.84,1.84,0,0,0,1.84-1.84V2.83h4.29a1.23,1.23,0,0,1,1.23,1.23v6.13H10.8a2.45,2.45,0,0,0-2.45,2.45v16A2.45,2.45,0,0,0,10.8,31h16Zm6.13-7.35a1.23,1.23,0,0,1-1.23,1.22H10.8a1.23,1.23,0,0,1-1.23-1.22V12.64a1.24,1.24,0,0,1,1.23-1.23H31.65a1.24,1.24,0,0,1,1.23,1.23Z"/><path class="cls-1" d="M17.11,21.05A.62.62,0,0,0,18,21a.61.61,0,0,0,0-.85l-2.63-2.63L18,14.91a.6.6,0,0,0,0-.86.61.61,0,0,0-.85,0l-3.06,3.06a.62.62,0,0,0,0,.87h0Z"/><path class="cls-1" d="M25.34,14.05a.61.61,0,0,0-.87.86l2.64,2.64-2.64,2.63a.62.62,0,0,0,0,.87.6.6,0,0,0,.86,0h0L28.41,18a.62.62,0,0,0,0-.87h0Z"/><path class="cls-1" d="M23.31,12.69a.62.62,0,0,0-.81.32h0L18.82,21.6a.61.61,0,0,0,1.13.48l3.68-8.58a.62.62,0,0,0-.32-.81Z"/><path class="cls-1" d="M19.39,24.29H12a.62.62,0,1,0,0,1.23h7.36a.61.61,0,0,0,.6-.62A.62.62,0,0,0,19.39,24.29Z"/><path class="cls-1" d="M16.93,26.75H12A.61.61,0,1,0,12,28h4.9a.61.61,0,1,0,0-1.22Z"/><path class="cls-1" d="M14.48,35.94h4.91a.61.61,0,0,0,0-1.22H14.48a.61.61,0,0,0,0,1.22Z"/></svg>