<svg id="Layer_1" data-name="Layer 1" xmlns="http://www.w3.org/2000/svg" viewBox="0 0 40 40"><defs><style>.cls-1{fill:#b70000;}</style></defs><path class="cls-1" d="M32.58,2.71H7.42A4.71,4.71,0,0,0,2.71,7.42V32.58a4.71,4.71,0,0,0,4.71,4.71H32.58a4.71,4.71,0,0,0,4.71-4.71V7.42A4.71,4.71,0,0,0,32.58,2.71Zm3.67,29.87a3.68,3.68,0,0,1-3.67,3.67H7.42a3.68,3.68,0,0,1-3.67-3.67V11.65H36.24V32.58Zm0-22H3.75V7.42A3.68,3.68,0,0,1,7.42,3.75H32.58a3.68,3.68,0,0,1,3.67,3.67Z"/><path class="cls-1" d="M7.61,5.33A1.83,1.83,0,1,0,9.44,7.16,1.83,1.83,0,0,0,7.61,5.33Zm0,2.61a.78.78,0,1,1,0-1.56.78.78,0,0,1,0,1.56Z"/><path class="cls-1" d="M12.81,5.33a1.83,1.83,0,1,0,1.83,1.83A1.83,1.83,0,0,0,12.81,5.33Zm0,2.61a.78.78,0,0,1,0-1.56.78.78,0,1,1,0,1.56Z"/><path class="cls-1" d="M18.54,5.36A1.84,1.84,0,1,0,20.37,7.2,1.84,1.84,0,0,0,18.54,5.36Zm0,2.63a.79.79,0,0,1-.78-.79.78.78,0,0,1,1.56,0A.79.79,0,0,1,18.54,8Z"/><path class="cls-1" d="M33.7,6.67H23.3a.53.53,0,0,0-.53.53.52.52,0,0,0,.53.52H33.7a.52.52,0,0,0,.52-.52A.52.52,0,0,0,33.7,6.67Z"/><path class="cls-1" d="M12.53,33.76a.57.57,0,0,0,.3.1.37.37,0,0,0,.18,0L17.7,32.1h0a.54.54,0,0,0,.25-.19l9.37-13.17a1.92,1.92,0,0,0-.45-2.66l-2.37-1.69a1.86,1.86,0,0,0-1.42-.32,1.89,1.89,0,0,0-1.24.77L12.5,28a.54.54,0,0,0-.1.3v0h0l-.09,5A.52.52,0,0,0,12.53,33.76Zm.9-4.71.45.14.87,1.17s0,0,0,0l0,0,.08.06.05,0,0,0L16.4,31l.28.38-3.31,1.21Zm4.09,1.68-.38-.5a.49.49,0,0,0-.26-.19L16,29.77l7.6-10.69,1.45,1Zm5.2-15.29a.88.88,0,0,1,.56-.35.83.83,0,0,1,.63.15l2.38,1.68a.88.88,0,0,1,.2,1.2l-.81,1.13-3.77-2.68Zm-1.42,2,1.46,1-7.6,10.69-.54-.73a.53.53,0,0,0-.26-.19l-.61-.19Z"/><path class="cls-1" d="M28.9,26.58a.51.51,0,0,0,.38.16.59.59,0,0,0,.37-.14L34,22.49a.51.51,0,0,0,.16-.38.53.53,0,0,0-.16-.39l-4.35-4.1a.52.52,0,1,0-.72.76l4,3.73-4,3.73A.51.51,0,0,0,28.9,26.58Z"/><path class="cls-1" d="M10.63,26.6a.54.54,0,0,0,.37.14.52.52,0,0,0,.36-.9L7.41,22.11l3.94-3.73a.52.52,0,0,0-.72-.76l-4.35,4.1a.55.55,0,0,0-.16.39.55.55,0,0,0,.16.38Z"/></svg>