<svg id="Layer_1" data-name="Layer 1" xmlns="http://www.w3.org/2000/svg" viewBox="0 0 40 40"><defs><style>.cls-1{fill:#b70000;}</style></defs><path class="cls-1" d="M27.4,23.66a.58.58,0,0,0,.26-.06.56.56,0,0,0,.3-.5V20.28h1a1.68,1.68,0,0,0,1.68-1.68V9.49A1.68,1.68,0,0,0,29,7.81H24.64V6.69A1.68,1.68,0,0,0,23,5H8.41A1.67,1.67,0,0,0,6.74,6.69v9.12a1.67,1.67,0,0,0,1.67,1.67h1v2.83a.57.57,0,0,0,.31.5.57.57,0,0,0,.25.06.55.55,0,0,0,.33-.11L12.79,19a1.67,1.67,0,0,0,1.63,1.3h8.09l4.57,3.27A.54.54,0,0,0,27.4,23.66ZM10,16.36H8.41a.55.55,0,0,1-.55-.55V6.69a.55.55,0,0,1,.55-.55H23a.55.55,0,0,1,.55.55v9.12a.55.55,0,0,1-.55.55H14.69a.57.57,0,0,0-.33.11l-3.82,2.74V16.92A.57.57,0,0,0,10,16.36Zm16.87,3.35V22L23,19.26a.57.57,0,0,0-.33-.11H14.42a.55.55,0,0,1-.56-.55v-.4l1-.72H23a1.68,1.68,0,0,0,1.68-1.67V8.93H29a.56.56,0,0,1,.56.56V18.6a.55.55,0,0,1-.56.55H27.4A.56.56,0,0,0,26.84,19.71ZM10.06,11.25a.56.56,0,0,1,.56-.56H20.75a.56.56,0,1,1,0,1.12H10.62A.56.56,0,0,1,10.06,11.25Zm0-2.83a.57.57,0,0,1,.56-.57H20.75a.57.57,0,0,1,0,1.13H10.62A.56.56,0,0,1,10.06,8.42Zm.56,6.23a.56.56,0,0,1,0-1.12H20.75a.56.56,0,1,1,0,1.12Zm-.1,13.94a3.62,3.62,0,1,0-4.35,0,6.22,6.22,0,0,0-4,5.83.56.56,0,0,0,.56.56H14a.56.56,0,0,0,.56-.56A6.22,6.22,0,0,0,10.52,28.59Zm-4.68-2.9a2.51,2.51,0,1,1,2.5,2.5A2.51,2.51,0,0,1,5.84,25.69ZM3.27,33.86a5.11,5.11,0,0,1,10.15,0Zm30.56-5.27a3.63,3.63,0,1,0-4.35,0,6.22,6.22,0,0,0-4.05,5.83A.56.56,0,0,0,26,35H37.32a.56.56,0,0,0,.56-.56A6.22,6.22,0,0,0,33.83,28.59Zm-4.68-2.9a2.51,2.51,0,1,1,2.5,2.5A2.5,2.5,0,0,1,29.15,25.69Zm-2.57,8.17a5.11,5.11,0,0,1,10.15,0Z"/></svg>