<svg id="Layer_1" data-name="Layer 1" xmlns="http://www.w3.org/2000/svg" viewBox="0 0 40 40"><defs><style>.cls-1{fill:#b70000;}</style></defs><path class="cls-1" d="M3.74,30.45a4.05,4.05,0,0,1,4.05-4.06H9.06l.5,3a.58.58,0,0,0,1,.32L13,27.21V37.42h1.16V27.21l2.5,2.49a.57.57,0,0,0,.82,0,.59.59,0,0,0,.14-.23l.58-1.74-1.11-.37-.28.85L15,26.39H17.1V22.45A6.38,6.38,0,0,0,20,17.77L20,17.1H22.9a.58.58,0,0,0,.58-.58V11.87a.58.58,0,0,0-.58-.58h-.58a8.71,8.71,0,0,0-17.42,0H4.32a.58.58,0,0,0-.58.58v4.65a.58.58,0,0,0,.58.58H4.9v1.74a.55.55,0,0,0,.09.3L6.73,22l1-.6L6.07,18.68V17.1H7.19l.07.67a6.39,6.39,0,0,0,2.87,4.68v2.78H7.81a5.21,5.21,0,0,0-5.23,5.21h0v7H3.74Zm6.78-2.37-.29-1.69h2Zm5.42-2.85H11.29V23.05a6.43,6.43,0,0,0,4.65,0Zm6.38-9.29H20.16l.36-3.49h1.8Zm-17.42,0V12.45H6.7l.37,3.49Zm1.78-4.65H6.07a7.55,7.55,0,1,1,15.09,0h-.61a7,7,0,0,0-13.88,0Zm6.93-5.22A5.81,5.81,0,0,1,19.4,11.4L17.54,9.18A.56.56,0,0,0,16.91,9a11.24,11.24,0,0,1-6.67.14L9.71,9a.58.58,0,0,0-.64.24L7.88,11A5.8,5.8,0,0,1,13.61,6.07ZM8.42,17.65,7.93,13l1.87-2.8.12,0a12.37,12.37,0,0,0,7,0l2.39,2.87-.48,4.56a5.22,5.22,0,0,1-10.39,0Z"/><rect class="cls-1" x="23.48" y="35.1" width="1.16" height="2.32"/><circle class="cls-1" cx="10.13" cy="14.19" r="1.16"/><circle class="cls-1" cx="17.1" cy="14.19" r="1.16"/><path class="cls-1" d="M14.19,17.1V15.94h-.8l.75-1.49-1-.52-1.16,2.33a.58.58,0,0,0,.26.78.51.51,0,0,0,.25.06Z"/><path class="cls-1" d="M15.53,17.27a3.42,3.42,0,0,1-2.4,1h-.68v1.16h.68a4.57,4.57,0,0,0,3.22-1.33Z"/><rect class="cls-1" x="6.65" y="32.19" width="1.16" height="5.23"/><rect class="cls-1" x="19.42" y="32.77" width="1.16" height="4.64"/><path class="cls-1" d="M36.84,23.48H35.3a6.67,6.67,0,0,0-.46-1.11l1.09-1.08a.57.57,0,0,0,0-.82L33.47,18a.59.59,0,0,0-.83,0l-1.08,1.08a7.64,7.64,0,0,0-1.11-.46V17.1a.58.58,0,0,0-.58-.58H26.39a.58.58,0,0,0-.58.58v1.53a6.82,6.82,0,0,0-1.11.46L23.61,18a.57.57,0,0,0-.82,0l-2.46,2.46a.57.57,0,0,0,0,.82l1.08,1.08A9,9,0,0,0,21,23.48H19.42a.58.58,0,0,0-.58.58v3.49a.58.58,0,0,0,.58.58H21a9,9,0,0,0,.46,1.11l-1.08,1.08a.57.57,0,0,0,0,.82l2.46,2.47a.59.59,0,0,0,.82,0l1.09-1.09a6.82,6.82,0,0,0,1.11.46v1.54a.58.58,0,0,0,.58.58h3.48a.58.58,0,0,0,.58-.58V33a7.64,7.64,0,0,0,1.11-.46l1.08,1.09a.6.6,0,0,0,.83,0l2.46-2.47a.57.57,0,0,0,0-.82l-1.09-1.08a6.67,6.67,0,0,0,.46-1.11h1.54a.58.58,0,0,0,.58-.58V24.06A.58.58,0,0,0,36.84,23.48ZM36.26,27H34.87a.57.57,0,0,0-.56.43,6.6,6.6,0,0,1-.68,1.65.56.56,0,0,0,.09.7l1,1-1.64,1.64-1-1a.59.59,0,0,0-.7-.09,6.32,6.32,0,0,1-1.64.68.59.59,0,0,0-.44.56v1.39H27V32.54a.59.59,0,0,0-.44-.56,6.18,6.18,0,0,1-1.64-.68.6.6,0,0,0-.71.09l-1,1-1.64-1.64,1-1a.58.58,0,0,0,.09-.71A6.38,6.38,0,0,1,22,27.4a.58.58,0,0,0-.56-.43H20V24.64h1.39a.57.57,0,0,0,.56-.43,6.38,6.38,0,0,1,.68-1.64.58.58,0,0,0-.09-.71l-1-1,1.64-1.64,1,1a.59.59,0,0,0,.71.09,6.53,6.53,0,0,1,1.64-.68.59.59,0,0,0,.44-.56V17.68h2.32v1.39a.59.59,0,0,0,.44.56,6.69,6.69,0,0,1,1.64.68.58.58,0,0,0,.7-.09l1-1,1.64,1.64-1,1a.58.58,0,0,0-.09.71,6.38,6.38,0,0,1,.68,1.64.56.56,0,0,0,.56.43h1.39Z"/><path class="cls-1" d="M28.13,20.58a5.23,5.23,0,1,0,5.22,5.23A5.23,5.23,0,0,0,28.13,20.58Zm0,9.29a4.07,4.07,0,1,1,4.06-4.06A4.07,4.07,0,0,1,28.13,29.87Z"/><path class="cls-1" d="M28.13,22.9A2.91,2.91,0,1,0,31,25.81,2.9,2.9,0,0,0,28.13,22.9Zm0,4.65a1.75,1.75,0,1,1,1.74-1.74A1.74,1.74,0,0,1,28.13,27.55Z"/></svg>