<?xml version="1.0" encoding="iso-8859-1"?>
<!-- Generator: Adobe Illustrator 19.0.0, SVG Export Plug-In . SVG Version: 6.00 Build 0)  -->
<svg version="1.1" id="Capa_1" xmlns="http://www.w3.org/2000/svg" xmlns:xlink="http://www.w3.org/1999/xlink" x="0px" y="0px"
	 viewBox="0 0 512 512" style="enable-background:new 0 0 512 512;" xml:space="preserve">
<path style="fill:#019ACA;" d="M512,256c0,24.409-3.417,48.013-9.791,70.374C471.636,433.539,372.976,512,256,512
	C114.615,512,0,397.385,0,256S114.615,0,256,0c112.149,0,207.454,72.119,242.071,172.502C507.099,198.677,512,226.764,512,256z"/>
<g>
	<path style="fill:#F0EFEB;" d="M498.072,172.502c-19.926-12.455-45.108-17.784-71.45-12.904
		c-44.23,8.192-74.073,44.387-74.094,91.167c-0.387,6.071,0.188,13.354,1.985,20.511c8.589,34.262,29.414,58.943,66.173,68.305
		c30.103,7.67,57.971,3.929,81.523-13.208C508.583,304.013,512,280.409,512,256C512,226.764,507.099,198.677,498.072,172.502z
		 M490.851,295.643c-16.865,18.15-38.013,22.936-61.2,16.645c-23.928-6.499-37.48-23.604-43.071-47.355
		c-1.17-4.963-1.546-10.021-1.296-14.221c0.021-32.434,19.435-57.522,48.232-63.206c38.076-7.513,72.422,19.895,73.895,58.776
		C508.123,264.903,503.745,281.767,490.851,295.643z"/>
	<path style="fill:#F0EFEB;" d="M84.868,312.922c12.492,0,24.985,0,37.476,0c13.791,0,27.583,0.135,41.371-0.085
		c3.992-0.064,5.327,1.111,5.091,5.137c-0.332,5.659-0.428,11.379,0.021,17.022c0.388,4.87-1.636,5.606-5.925,5.588
		c-36.91-0.15-73.82-0.087-110.73-0.087c-13.526,0-13.104-0.018-13.689-13.669c-0.332-7.75,1.921-12.893,8.097-17.96
		c22.096-18.125,43.654-36.911,65.297-55.583c6.453-5.567,12.277-11.784,16.926-19.021c5.188-8.074,6.848-16.926,5.221-26.21
		c-2.922-16.664-19.722-25.666-38.273-20.93c-12.54,3.201-21.052,11.856-28.623,21.486c-2.861,3.639-4.581,3.916-7.954,0.935
		c-4.699-4.153-9.793-7.873-14.827-11.631c-1.899-1.417-2.722-2.39-1.067-4.792c21.73-31.543,52.725-42.546,88.687-30.858
		c38.834,12.621,42.357,56.672,26.059,81.762c-7.615,11.723-17.872,20.935-28.433,29.82c-15.021,12.639-30.179,25.116-45.279,37.663
		C84.498,311.98,84.683,312.451,84.868,312.922z"/>
	<path style="fill:#F0EFEB;" d="M284.865,343.452c-54.955,1.164-96.58-39.644-96.716-90.472
		c-0.123-46.273,26.955-82.92,69.758-92.655c30.503-6.938,59.117-2.159,84.541,17.437c4.598,3.543,4.352,5.552,0.273,9.008
		c-4.629,3.922-8.965,8.245-13.037,12.749c-2.925,3.235-4.868,3.752-8.727,0.8c-16.533-12.647-35.196-17.295-55.577-12.103
		c-25.378,6.466-43.248,29.734-44.409,57.509c-0.971,23.229,6.213,43.253,25.18,57.717c21.007,16.02,50.546,15.303,73.637-1.764
		c4.195-3.101,6.369-3.111,9.705,0.753c3.959,4.585,8.463,8.749,13.056,12.718c3.134,2.707,2.306,4.116-0.445,6.434
		C324.287,336.604,303.68,343.595,284.865,343.452z"/>
</g>
<g>
</g>
<g>
</g>
<g>
</g>
<g>
</g>
<g>
</g>
<g>
</g>
<g>
</g>
<g>
</g>
<g>
</g>
<g>
</g>
<g>
</g>
<g>
</g>
<g>
</g>
<g>
</g>
<g>
</g>
</svg>
