<?xml version="1.0" encoding="utf-8"?>
<!-- Generator: Adobe Illustrator 24.1.0, SVG Export Plug-In . SVG Version: 6.00 Build 0)  -->
<svg version="1.1" id="Layer_1" xmlns="http://www.w3.org/2000/svg" xmlns:xlink="http://www.w3.org/1999/xlink" x="0px" y="0px"
	 viewBox="0 0 283.5 283.5" style="enable-background:new 0 0 283.5 283.5;" xml:space="preserve">
<style type="text/css">
	.st0{fill:#35FA00;}
	.st1{fill:#072600;}
</style>
<g id="XMLID_25_">
	<rect id="XMLID_27_" class="st0" width="283.5" height="283.5"/>
	<rect id="XMLID_31_" x="12.5" y="12.5" class="st1" width="258.5" height="258.5"/>
	<path id="XMLID_34_" class="st0" d="M38.4,69.9c0-0.8,0.2-1.2,1.1-1.4c9.7-0.4,21.9-0.6,32.5-0.6c36.7,0,55.2,25.2,55.2,62.6
		c0,55.6-36.4,65.5-58.5,65.5c-11.5,0-20-0.2-29.2-0.4c-0.8,0-1.1-0.4-1.1-1.8V69.9z M58.1,177.4c2.9,0.2,6.8,0.2,11.4,0.2
		c22.7,0,37.7-14.2,37.7-46.4c0-29.4-12.8-44.5-35.1-44.5c-7.3,0-12.5,0.2-14,0.4V177.4z"/>
	<path id="XMLID_35_" class="st0" d="M209.8,196.8c-1.1,0-1.4-0.4-1.8-1.6c-8.9-43.5-12-59.9-13.6-69h-0.2
		c-1.6,9.8-5.4,27.1-15.5,69c-0.3,1.2-0.8,1.6-1.8,1.6h-17.7c-1.4,0-1.8-0.6-2.1-1.8l-20.9-91.5c-0.3-1,0-1.6,1-1.6h17.1
		c1,0,1.3,0.2,1.4,1.2c10.9,50.5,13.1,64.7,14.2,71.8h0.3c0.6-3.3,4.6-23.6,15.2-71.4c0.2-1.2,0.3-1.6,1.4-1.6H204
		c0.8,0,1.1,0.4,1.3,1.2c10.4,49.7,12.9,65.3,14,72.4h0.3c1.9-11.5,4.9-30.2,14.8-72.2c0.2-1,0.6-1.4,1.3-1.4h15.8
		c0.6,0,1.1,0.4,1,1.4l-23.1,91.9c-0.3,1.2-0.5,1.6-1.8,1.6H209.8z"/>
</g>
</svg>
