<svg width="24" height="24" viewBox="0 0 24 24" fill="none" xmlns="http://www.w3.org/2000/svg">
<path d="M20.0171 14.0541C19.2427 13.7883 19.2376 13.1341 19.2376 12.4849C19.2299 10.0213 19.2631 7.55768 19.2223 5.09404C19.1711 2.06305 17.4435 0.233217 14.4432 0.0645444C12.9175 -0.0197917 11.379 -0.0223473 9.85327 0.0619887C6.56416 0.243439 4.96944 1.99405 4.96689 5.30871C4.96433 7.56023 4.96689 9.8143 4.96689 12.0658C4.96689 12.7942 4.972 13.5379 4.26409 13.9979C3.88329 14.2458 3.93952 14.4298 4.27175 14.6496C4.93878 15.084 4.96433 15.7715 4.96433 16.4615C4.96944 18.5853 4.99244 20.709 4.95411 22.8327C4.93878 23.602 5.21734 23.8652 5.97381 23.9112C9.8865 24.1514 9.8865 24.1693 9.8865 20.2515V20.1237C9.8865 16.6813 9.8865 16.7094 13.3545 16.8346C14.1595 16.8628 14.3052 17.1771 14.1672 17.8441C14.0164 18.0153 14.0113 18.1866 14.1621 18.3604C14.1774 19.8605 14.2106 21.3607 14.1979 22.8608C14.1928 23.625 14.525 23.9265 15.2738 23.9061C16.204 23.878 17.1369 23.8626 18.0646 23.9086C18.959 23.9547 19.2606 23.5713 19.2453 22.7075C19.2095 20.5505 19.2376 18.3936 19.2325 16.2366C19.2325 15.5364 19.2759 14.8668 20.0452 14.5371C20.1985 14.3685 20.1857 14.2074 20.0171 14.0541ZM12.9149 11.777C12.5393 11.7157 12.1534 11.7157 11.7726 11.6953C10.5135 11.6322 9.88394 10.9396 9.88394 9.61752C9.88394 8.47004 9.89928 7.32256 9.88139 6.17508C9.86861 5.42627 10.1932 5.08126 10.9522 5.10171C11.6729 5.12471 12.3987 5.14004 13.1194 5.09915C14.0675 5.04548 14.3308 5.50805 14.1698 6.35397C14.1672 6.5252 14.1646 6.69898 14.1621 6.87021C14.1621 7.03377 14.157 7.19733 14.1544 7.36089C14.1544 7.45801 14.1519 7.55256 14.1493 7.64968C14.1698 8.58249 14.1263 9.52296 14.2234 10.4481C14.3333 11.4934 14.0011 11.9585 12.9149 11.777Z" fill="#D5401B"/>
</svg>
