<?xml version="1.0" encoding="utf-8"?>
<!-- Generator: Adobe Illustrator 24.1.0, SVG Export Plug-In . SVG Version: 6.00 Build 0)  -->
<svg version="1.1" id="Layer_1" xmlns="http://www.w3.org/2000/svg" xmlns:xlink="http://www.w3.org/1999/xlink" x="0px" y="0px"
	 viewBox="0 0 2500 2497.3" style="enable-background:new 0 0 2500 2497.3;" xml:space="preserve">
<style type="text/css">
	.st0{fill:#4368AC;}
	.st1{fill:#FDFDFD;}
	.st2{fill:#4469AC;}
</style>
<path class="st0" d="M278.4,652.3c-0.1-7.4-0.3-14.8-0.4-22.3c0-16.9-0.1-33.9-0.1-50.8c0.2-15,0.4-30.1,0.5-45.1
	c3.9-22.6,1.7-45.5,4.1-68.2c1.7-16.3,2.2-32.8,3.2-49.3c-3.6-15-0.9-22,11.7-28.7c6.6-3.5,13-7.4,19.5-11
	c5.6-2.7,11.3-5.3,16.7-8.4c31.4-15,61.9-31.9,93.9-46c38.6-17.5,77.5-34.2,116.7-50.3c13.1-4.6,25.8-10.3,38.5-15.9
	c35.6-12.8,71.5-24.5,106.7-38.2c65.6-20.7,131.4-40.2,198.4-55.7c20.4-4.6,40.9-8.6,61.3-12.9c43.6-9.2,87.7-15.7,132-21
	c37.2-4.2,74.5-6.9,111.9-9.6c16.6-1.8,33.3-1.1,50-0.7c16.6-0.6,33.3-0.7,49.9,0c5.5-0.2,11-0.3,16.5,0.9
	c15.4,4.2,31.2,1.1,46.7,2.6c33.2,3.1,66.5,5.2,99.6,9.5c44.2,5.7,88.4,11.9,132.1,20.9c20.6,4.3,41.4,7.3,61.9,12.4
	c66.5,14.6,132.5,31.1,197.6,51.2c83.5,25.1,165.8,53.6,247,85c5.1,2,10.1,4.4,15.3,6.2c30.6,12.6,61.4,24.7,91.5,38.6
	c19.3,8.2,38.4,17.1,57.6,25.6c2.2,1.3,4.2,2.8,5,5.4c10.1,5.1,20,10.9,30.4,15.2c8.4,3.5,10.7,8.8,11,17.4c1,29,2.9,58,4.5,87
	c0.1,10.8,0.2,21.6,0.4,32.4c-1.4,67.8-3.9,135.5-7.6,203.2c-3.3,32.4-6.3,64.8-10,97.1c-21.4,187.6-61.9,370.9-125.8,548.8
	c-52.3,145.5-119.1,283.7-204.2,413c-1.1,1.7-2,3.7-2.9,5.6c-1,4.1-2.2,8-4.6,11.6c-43.9,65.7-91.9,128.2-144.7,187.1
	c-2.6,2.9-5.1,5.6-8.9,6.7c-33,34.8-66.1,69.4-100.8,102.6c-11,17.5-27.7,29.3-42.9,42.5c-33.4,28.8-67.1,57.5-103.1,83.1
	c-15.4,11-30.5,22.5-46.1,33.3c-3.4,2.4-6.6,5.3-11.3,4.8c-38.3,23.9-76.5,47.9-114.9,71.5c-11.8,7.3-24.7,13.1-36.3,20.7
	c-7.5,5-13.4,3.9-20.8,0.2c-58.1-29.1-115.3-59.9-170.6-94.1c-3.2-2-6.6-3.6-10-5.4c-4.6-0.7-8.7-2.3-12.8-4.8
	c-45.4-28.6-89.2-59.3-132-91.5c-4.1-3.1-8-6.2-10.2-11c-48.2-39.1-95.8-78.9-140.7-121.9c-57.1-54.8-110.2-113.1-159.5-175
	c-2.1-2.6-4.5-5-6.7-7.5c-5.5-2.7-9.3-7.1-12.8-11.9c-30.7-41.8-61.2-83.6-88.6-127.6c-2.9-4.7-5.2-9.5-6.1-15
	c-19.2-33.2-38.4-66.3-57.6-99.5c-5-2.4-6.9-7.1-9.2-11.7c-12.4-24.9-24.7-49.7-37.3-74.5c-2.9-5.7-5-11.4-4.9-17.8
	c-19.9-47.1-40.4-94-57.7-142.2c-40.2-111.7-71.3-225.8-92-342.8c-1.2-7-6.9-12.8-5-20.4c-4.6-33.4-9.2-66.8-13.7-100.2
	c-6.9-50.6-11.4-101.4-14.6-152.4C281.4,706.1,280,679.2,278.4,652.3z"/>
<path class="st1" d="M1273.3,579.5c125.7,0,251.5,0,377.2-0.1c7.6,0,13.5,1.2,18.9,7.5c85.2,101.3,154.5,211.7,196.3,338.2
	c41.3,125,30.7,246.7-19.3,366.8c-43.6,104.9-104.2,199.2-176.2,286.6c-5.4,6.6-11.3,8.7-19.6,8.7c-251.5-0.2-502.9-0.2-754.4,0
	c-7.8,0-13.4-1.5-18-8.6c-78.5-120.1-139.8-247.5-167.3-389.4c-19.1-99-9.7-196.3,18.7-292.3c32.6-110.1,83.4-211.5,146.9-306.9
	c5.4-8.1,11.3-10.7,20.8-10.7C1022.7,579.6,1148,579.5,1273.3,579.5z"/>
<path class="st2" d="M1318.5,1403.9c-34.3,0-68.6-0.2-102.9,0.1c-8,0.1-11-2-10.9-10.6c0.4-54.6,0.3-109.2,0.1-163.9
	c0-6.7,2.1-10.9,7.7-14.5c19.9-13.1,40.8-23.9,63.3-31.8c58.6-20.6,107.6,1.2,154.1,34.4c4.2,3,3.9,7.1,3.9,11.3
	c0,55-0.1,110.1,0.2,165.1c0,7.8-2.4,10.1-10.1,10C1388.8,1403.7,1353.6,1403.9,1318.5,1403.9z"/>
<path class="st2" d="M1571.2,922.1c0,49.9-0.2,99.8,0.2,149.7c0.1,8.8-2.5,11.7-11.4,11.5c-23.7-0.6-47.4-0.4-71-0.1
	c-7.1,0.1-9.5-2.1-9.5-9.4c0.2-100.7,0.2-201.3,0-302c0-7.2,2.2-9.5,9.4-9.4c23.7,0.4,47.4,0.7,71-0.1c10.4-0.4,11.5,3.9,11.5,12.6
	C1571,824,1571.2,873.1,1571.2,922.1z"/>
<path class="st2" d="M1067.6,922.6c0-49.5,0.2-99-0.2-148.5c-0.1-8.5,1.9-12,11.2-11.7c23.3,0.6,46.5,0.5,69.8,0
	c8.3-0.2,10.9,2.5,10.9,10.8c-0.2,99.9-0.3,199.7,0,299.6c0,8.8-3.5,10.5-11.3,10.4c-22.8-0.4-45.7-0.6-68.5,0.1
	c-9.5,0.3-12.2-2.7-12.1-12.2C1067.8,1021.7,1067.6,972.1,1067.6,922.6z"/>
</svg>
