<?xml version="1.0" encoding="utf-8"?>
<!-- Generator: Adobe Illustrator 24.1.0, SVG Export Plug-In . SVG Version: 6.00 Build 0)  -->
<svg version="1.1" id="Layer_1" xmlns="http://www.w3.org/2000/svg" xmlns:xlink="http://www.w3.org/1999/xlink" x="0px" y="0px"
	 viewBox="0 0 141.7 141.7" style="enable-background:new 0 0 141.7 141.7;" xml:space="preserve">
<style type="text/css">
	.st0{fill:#FFB924;}
</style>
<path class="st0" d="M128,84.1c-1.5-1.7-3.7-2.5-6.5-2.5c-1.7,0-3.3,0.4-4.6,1.1c-1.3,0.7-2.4,1.9-3.2,3.4c-0.8,1.5-1.2,3.4-1.2,5.6
	c0,3.2,0.7,5.7,2.2,7.3c1.2,1.4,3,2.2,5.1,2.4c1.3,13.1-8.5,18-13.1,19.6c-0.9-1.5-2.6-2.5-4.5-2.5c-2.3,0-4.2,1.5-4.9,3.5
	c-16.8-1.9-23.7-11.8-26.4-17.8c1.4-0.9,2.3-2.5,2.3-4.3c0-2.9-2.3-5.2-5.2-5.2c-0.6,0-1.2,0.1-1.8,0.3c-3.2-6-7-19.5,1.9-43.1
	c0.2,0,0.4,0,0.6,0c2.9,0,5.2-2.3,5.2-5.2c0-1.5-0.6-2.8-1.6-3.7c5.9-9.4,14.5-14.6,25.5-15.5c5-0.4,9.6,0.2,12.8,0.9
	c0,2.9,2.3,5.2,5.2,5.2c2.9,0,5.2-2.3,5.2-5.2c0-2.9-2.3-5.2-5.2-5.2c-0.5,0-0.9,0.1-1.4,0.2c-7.4-11.7-16.7-19-27.7-21.9
	C73.1-2.2,60.3,2,53.8,5c-1-1-2.3-1.7-3.8-1.7c-2.9,0-5.2,2.3-5.2,5.2c0,0.4,0.1,0.8,0.1,1.2c-10,6.2-15.8,16.5-17,30
	c-0.6,6.6,0.1,12.5,0.8,16.5c-1.7,0.9-2.8,2.6-2.8,4.6c0,0.9,0.2,1.8,0.6,2.5c-13.3,14-12.8,29.2-9.8,39.9c2,7.2,5.4,13.2,7.9,17
	c-0.6,0.8-0.9,1.8-0.9,2.9c0,2.9,2.3,5.2,5.2,5.2c0.8,0,1.5-0.2,2.2-0.5c10.1,9.2,21.2,13.9,32.9,13.9c0,0,0.1,0,0.1,0
	c16.1,0,29.1-8.6,35.3-13.6c0.8,0.5,1.8,0.9,2.9,0.9c2.9,0,5.2-2.3,5.2-5.2c0,0,0,0,0-0.1c5.2-1.8,16.5-7.5,15.1-22.2
	c1.2-0.2,2.4-0.5,3.3-1c1.4-0.8,2.4-1.9,3.1-3.4c0.7-1.5,1.1-3.4,1.1-5.7C130.2,88.1,129.5,85.7,128,84.1z M64.1,96.7
	c-0.2,0.3-0.4,0.6-0.6,0.9c-12.1-2.9-20.9-8.2-26.1-15.8c-4-5.9-5.1-11.9-5.2-16c2.3-0.5,4.1-2.6,4.1-5.1c0-1.3-0.5-2.5-1.3-3.4
	c10.2-13.7,22.3-12.9,28.7-11.1c0,0.2,0,0.4,0,0.5c0,1.7,0.8,3.2,2.1,4.2C56.3,75.9,60.5,90.2,64.1,96.7z M86.2,4
	c10.3,2.7,19,9.7,26.1,20.7c-0.3,0.3-0.5,0.6-0.7,1c-3.4-0.7-8.2-1.4-13.7-0.9C89.3,25.4,78,29,70,41.7c-0.3-0.1-0.7-0.1-1-0.1
	c-2.2-16.5-10.2-25.8-14.9-30c0.6-0.9,1-1.9,1-3.1c0-0.4,0-0.7-0.1-1C61.3,4.7,73.4,0.7,86.2,4z M30.6,39.8
	c1.1-12.6,6.3-21.9,15.5-27.7c0.9,1,2.3,1.6,3.8,1.6c0.7,0,1.4-0.1,2-0.4C56.1,17,64.3,26,66.3,42.1c-0.7,0.4-1.3,0.9-1.8,1.5
	c-7.1-2-20.7-3-31.9,12.1c-0.4-0.1-0.9-0.2-1.3-0.3C30.7,51.7,30.1,46,30.6,39.8z M64.1,138.9c0,0-0.1,0-0.1,0
	c-10.9,0-21.2-4.4-30.8-13c0.6-0.8,0.9-1.8,0.9-2.9c0-2.9-2.3-5.2-5.2-5.2c-0.8,0-1.5,0.2-2.2,0.5c-2.4-3.7-5.5-9.4-7.4-16.1
	c-4-14.1-0.9-26.6,9.1-37.1c0.3,0.2,0.7,0.3,1,0.5c0.1,4.4,1.2,11.1,5.7,17.7c5.6,8.2,15,13.8,27.8,16.9c0.2,2.7,2.4,4.9,5.2,4.9
	c0.1,0,0.2,0,0.4,0c2.9,6.6,10.6,17.6,28.7,19.6c0.1,0.4,0.2,0.8,0.4,1.2C91.6,130.7,79.1,138.9,64.1,138.9z M126.2,94.9
	c-0.2,1-0.5,1.8-0.9,2.6c-0.4,0.7-0.9,1.3-1.5,1.8c-0.6,0.4-1.4,0.7-2.3,0.7c-1.6,0-2.9-0.7-3.8-2.2c-0.9-1.5-1.3-3.6-1.3-6.4
	c0-2.6,0.4-4.6,1.3-6c0.9-1.4,2.1-2.1,3.7-2.1c1,0,1.8,0.3,2.6,0.9c0.8,0.6,1.3,1.6,1.8,2.9c0.4,1.3,0.7,2.9,0.7,4.9
	C126.4,92.9,126.3,93.9,126.2,94.9z"/>
</svg>
