<?xml version="1.0" encoding="utf-8"?>
<!-- Generator: Adobe Illustrator 24.1.0, SVG Export Plug-In . SVG Version: 6.00 Build 0)  -->
<svg version="1.1" id="Layer_1" xmlns="http://www.w3.org/2000/svg" xmlns:xlink="http://www.w3.org/1999/xlink" x="0px" y="0px"
	 viewBox="0 0 141.7 141.7" style="enable-background:new 0 0 141.7 141.7;" xml:space="preserve">
<style type="text/css">
	.st0{fill:#F69121;}
</style>
<g>
	<path class="st0" d="M141.7,26.5v-5.2h-12.1v-7.2c0-1.8-1.5-3.3-3.3-3.3H15.4c-1.8,0-3.3,1.5-3.3,3.3v7.2H0v5.2h12.1v8.9H0v5.2
		h12.1v8.9H0v5.2h12.1v8.9H0V69h12.1v8.9H0v5.2h12.1V92H0v5.2h12.1v8.9H0v5.2h12.1v7.9c0,1.8,1.5,3.3,3.3,3.3h110.9
		c1.8,0,3.3-1.5,3.3-3.3v-7.9h12.1v-5.2h-12.1v-8.9h12.1V92h-12.1v-8.9h12.1v-5.2h-12.1V69h12.1v-5.2h-12.1v-8.9h12.1v-5.2h-12.1
		v-8.9h12.1v-5.2h-12.1v-8.9H141.7z M124.9,117.9H16.8V15.5h108.1V117.9z"/>
	<path class="st0" d="M39.6,78.2c3.2,8.1,9.3,14.4,16.9,17.9v13.5h5.2V98c2,0.5,4.1,0.9,6.2,1.1v10.5H73V99.1
		c2.3-0.2,4.5-0.6,6.7-1.2v11.8h5.2V95.8c7.3-3.6,13.3-9.8,16.3-17.6c6.6-0.2,11.9-5.5,11.9-12.1c0-6.6-5.3-12-11.9-12.1
		c-3.3-8.4-9.9-15.1-18.4-18.5c-0.1-6.6-5.5-11.9-12.1-11.9c-6.5,0-11.9,5.2-12.1,11.7C49.9,38.5,43,45.3,39.6,54
		c-6.2,0.6-11,5.8-11,12.1C28.6,72.4,33.5,77.6,39.6,78.2z M56.5,90.3c-5-2.9-9.1-7.3-11.5-12.8c3.7-1.4,6.5-4.4,7.5-8.3h4V90.3z
		 M84.9,89.9V69.2h4.3c1,3.6,3.5,6.5,6.8,8C93.7,82.6,89.8,87,84.9,89.9z M107.9,66.1c0,3.8-3.1,7-7,7c-3.8,0-7-3.1-7-7
		c0-3.8,3.1-7,7-7C104.8,59.2,107.9,62.3,107.9,66.1z M81.8,40.6c6.4,2.8,11.4,8,14.2,14.4c-3.7,1.6-6.4,5-7.1,9h-6.1
		c-1.7,0-3.1,1.4-3.1,3.1v25.2c-2.1,0.8-4.4,1.3-6.7,1.5V47.6C77,46.9,80.2,44.2,81.8,40.6z M70.7,28.7c3.8,0,7,3.1,7,7s-3.1,7-7,7
		c-3.8,0-7-3.1-7-7S66.9,28.7,70.7,28.7z M59.6,40.4c1.5,3.5,4.6,6.1,8.3,7v46.4c-2.1-0.2-4.2-0.6-6.2-1.3V67.2
		c0-1.7-1.4-3.1-3.1-3.1h-5.8C52,59.7,49,56.2,45,54.7C47.8,48.3,53,43.2,59.6,40.4z M40.8,59.2c3.8,0,7,3.1,7,7c0,3.8-3.1,7-7,7
		s-7-3.1-7-7C33.8,62.3,36.9,59.2,40.8,59.2z"/>
</g>
</svg>
