<?xml version="1.0" encoding="utf-8"?>
<!-- Generator: Adobe Illustrator 24.1.0, SVG Export Plug-In . SVG Version: 6.00 Build 0)  -->
<svg version="1.1" id="Layer_1" xmlns="http://www.w3.org/2000/svg" xmlns:xlink="http://www.w3.org/1999/xlink" x="0px" y="0px"
	 viewBox="0 0 996 1000" style="enable-background:new 0 0 996 1000;" xml:space="preserve">
<style type="text/css">
	.st0{fill-rule:evenodd;clip-rule:evenodd;fill:#007FD2;}
	.st1{fill-rule:evenodd;clip-rule:evenodd;fill:#FFFFFF;}
</style>
<circle class="st0" cx="498" cy="502.5" r="498"/>
<path class="st1" d="M844.7,465.2c-0.1,0-0.1,0-0.2,0c-0.1,0-0.3-0.1-0.4-0.1l-0.5,0c-1.3-0.2-2.6-0.3-3.9-0.4l-3.5-0.3
	c-83.4-6-169.2-8.3-249.7-9.9l-0.2-0.6c-39.2-147-88.1-297.2-154.1-297.2c-61.5,0.3-116.9,99-164.8,293.5
	c-33.8-0.4-64.7-0.9-93.7-1.4c-1.7,0-3.1,0-4.5,0c-6.2,0-9.2,0.3-10.7,0.5c-16.4,2.9-28.3,17.2-28.3,34c0,17.1,12.8,31.8,29.4,34.2
	l0.3,0.3h91.7c-8.5,38.9-16,77.4-22.2,114.5l-2.7,16.3l0,0.8c0.1,12.6,10.4,22.8,22.9,22.8c8,0,15.2-4.2,19.3-10.6l0.7,0.5
	l45.1-144.3h217.1c16.6,62.7,33.8,127.4,56.5,188.1c12.2,32.5,40.6,108.5,88.2,108.9h0.5c73.6,0,102.3-119,121.4-197.7
	c4.1-16.9,7.6-31.6,10.9-42.3l1.3-4.4h0c0.3-1,0.5-2.1,0.5-3.3c0-6.3-5.1-11.4-11.4-11.4c-4.9,0-9,3.1-10.7,7.4l0,0l-1.6,4.4
	c-6.3,17.3-12,33.7-17.2,48.2l-0.4,1.1C738.1,706.8,723.5,748,695,748.1l-0.7,0l-0.4,0.1l-0.7,0c-36.5,0-70.8-148.3-83.8-204.1
	c-2.2-9.7-4.3-18.5-6.2-26.4h235.9c4.4,0,8.6-1.1,12.3-3c0,0,0,0,0.1,0c0.4-0.2,0.7-0.4,1.1-0.6c0.4-0.2,0.8-0.5,1.2-0.7
	c0.2-0.1,0.4-0.3,0.5-0.4c0.6-0.4,1.1-0.8,1.7-1.2c0,0,0.1-0.1,0.1-0.1c5.9-4.9,9.7-12.3,9.7-20.4
	C865.8,478.3,856.8,467.6,844.7,465.2z M356.1,451.1l-26.3-0.3c29.7-116.3,66-204.5,92.5-225.3c1.7-1.1,4.3-2.4,7.2-2.4
	c3.5,0,6.6,1.9,9.4,5.5c6.9,10.8,18.9,34.9,36.6,88.7c12.1,36.9,25.3,82.5,39.3,135.8C461.8,452.3,408.1,451.7,356.1,451.1z"/>
</svg>
