<?xml version="1.0" encoding="utf-8"?>
<!-- Generator: Adobe Illustrator 24.1.0, SVG Export Plug-In . SVG Version: 6.00 Build 0)  -->
<svg version="1.1" id="Layer_1" xmlns="http://www.w3.org/2000/svg" xmlns:xlink="http://www.w3.org/1999/xlink" x="0px" y="0px"
	 viewBox="0 0 128 128" style="enable-background:new 0 0 128 128;" xml:space="preserve">
<style type="text/css">
	.st0{filter:url(#Adobe_OpacityMaskFilter);}
	.st1{fill-rule:evenodd;clip-rule:evenodd;fill:#FFFFFF;}
	.st2{mask:url(#mask-2_1_);fill:#45EF8A;}
	.st3{filter:url(#Adobe_OpacityMaskFilter_1_);}
	.st4{mask:url(#mask-4_1_);fill:#263238;fill-opacity:0.2;}
	.st5{filter:url(#Adobe_OpacityMaskFilter_2_);}
	.st6{mask:url(#mask-6_1_);fill-rule:evenodd;clip-rule:evenodd;fill:#3DDC84;}
	.st7{filter:url(#Adobe_OpacityMaskFilter_3_);}
	.st8{mask:url(#mask-8_1_);fill-rule:evenodd;clip-rule:evenodd;fill:#3DDC84;}
	.st9{filter:url(#Adobe_OpacityMaskFilter_4_);}
	.st10{mask:url(#mask-10_1_);fill:#263238;fill-opacity:5.000000e-02;}
	.st11{filter:url(#Adobe_OpacityMaskFilter_5_);}
	.st12{mask:url(#mask-12_1_);fill:#FFFFFF;fill-opacity:5.000000e-02;}
	.st13{filter:url(#Adobe_OpacityMaskFilter_6_);}
	.st14{mask:url(#mask-14_1_);fill:url(#Shape_7_);}
	.st15{filter:url(#Adobe_OpacityMaskFilter_7_);}
	.st16{mask:url(#mask-19_1_);fill:#FFFFFF;fill-opacity:0.2;}
	.st17{filter:url(#Adobe_OpacityMaskFilter_8_);}
	.st18{mask:url(#mask-21_1_);}
	.st19{fill:#D7EFFE;}
	.st20{opacity:0.3;fill:#BDBDBD;enable-background:new    ;}
	.st21{fill:#FFFFFF;fill-opacity:0.2;}
	.st22{fill:#212121;fill-opacity:0.1;}
	.st23{filter:url(#Adobe_OpacityMaskFilter_9_);}
	.st24{mask:url(#mask-23_1_);}
	.st25{fill:#FFFFFF;fill-opacity:0.4;}
	.st26{filter:url(#Adobe_OpacityMaskFilter_10_);}
	.st27{mask:url(#mask-25_1_);}
	.st28{fill:#073042;}
	.st29{filter:url(#Adobe_OpacityMaskFilter_11_);}
	.st30{mask:url(#mask-27_1_);fill:#FFFFFF;fill-opacity:0.1;}
	.st31{filter:url(#Adobe_OpacityMaskFilter_12_);}
	.st32{mask:url(#mask-29_1_);fill:#212121;fill-opacity:0.1;}
	.st33{fill:url(#Shape_29_);}
	.st34{fill:none;}
</style>
<desc>Created with Sketch.</desc>
<g id="android-studio-128">
	<g id="logo_android_studio_192px_clr">
		<g>
			<g id="Group-2" transform="translate(13.000000, 8.500000)">
				<g id="Clipped" transform="translate(0.333333, 0.333333)">
					<g id="a">
					</g>
					<defs>
						<filter id="Adobe_OpacityMaskFilter" filterUnits="userSpaceOnUse" x="-8.4" y="-8.4" width="118.1" height="118.1">
							<feColorMatrix  type="matrix" values="1 0 0 0 0  0 1 0 0 0  0 0 1 0 0  0 0 0 1 0"/>
						</filter>
					</defs>
					<mask maskUnits="userSpaceOnUse" x="-8.4" y="-8.4" width="118.1" height="118.1" id="mask-2_1_">
						<g class="st0">
							<path id="path-1_1_" class="st1" d="M109.7,50.6c0-32.6-26.4-59-59-59s-59,26.4-59,59c0,17.9,8,34,20.6,44.8l-7.1,12.3v9.7
								c0,0.9,0.7,1.6,1.6,1.6c0.3,0,0.6-0.1,0.8-0.2l8.4-4.9l6.6-11.4c8.4,4.6,18,7.1,28.2,7.1s19.8-2.6,28.2-7.1l6.6,11.4l8.4,4.9
								c0.2,0.1,0.5,0.2,0.8,0.2c0.9,0,1.6-0.7,1.6-1.6v-9.7l-7.1-12.3C101.7,84.6,109.7,68.6,109.7,50.6z"/>
						</g>
					</mask>
					<circle id="Oval" class="st2" cx="50.7" cy="50.6" r="59"/>
				</g>
				<g id="Clipped_1_" transform="translate(0.333333, 0.333333)">
					<g id="a_1_">
					</g>
					<defs>
						<filter id="Adobe_OpacityMaskFilter_1_" filterUnits="userSpaceOnUse" x="-8.4" y="50.6" width="118.1" height="59">
							<feColorMatrix  type="matrix" values="1 0 0 0 0  0 1 0 0 0  0 0 1 0 0  0 0 0 1 0"/>
						</filter>
					</defs>
					<mask maskUnits="userSpaceOnUse" x="-8.4" y="50.6" width="118.1" height="59" id="mask-4_1_">
						<g class="st3">
							<path id="path-3_1_" class="st1" d="M109.7,50.6c0-32.6-26.4-59-59-59s-59,26.4-59,59c0,17.9,8,34,20.6,44.8l-7.1,12.3v9.7
								c0,0.9,0.7,1.6,1.6,1.6c0.3,0,0.6-0.1,0.8-0.2l8.4-4.9l6.6-11.4c8.4,4.6,18,7.1,28.2,7.1s19.8-2.6,28.2-7.1l6.6,11.4l8.4,4.9
								c0.2,0.1,0.5,0.2,0.8,0.2c0.9,0,1.6-0.7,1.6-1.6v-9.7l-7.1-12.3C101.7,84.6,109.7,68.6,109.7,50.6z"/>
						</g>
					</mask>
					<path id="Shape" class="st4" d="M50.7,108.9c32.3,0,58.6-26,59-58.2h0c0,32.6-26.4,59-59,59s-59-26.4-59-59h0
						C-7.9,82.9,18.3,108.9,50.7,108.9z"/>
				</g>
				<g id="Clipped_2_" transform="translate(0.333333, 0.333333)">
					<g id="a_2_">
					</g>
					<defs>
						<filter id="Adobe_OpacityMaskFilter_2_" filterUnits="userSpaceOnUse" x="-8.4" y="-8.4" width="118.1" height="59">
							<feColorMatrix  type="matrix" values="1 0 0 0 0  0 1 0 0 0  0 0 1 0 0  0 0 0 1 0"/>
						</filter>
					</defs>
					<mask maskUnits="userSpaceOnUse" x="-8.4" y="-8.4" width="118.1" height="59" id="mask-6_1_">
						<g class="st5">
							<path id="path-5_1_" class="st1" d="M109.7,50.6c0-32.6-26.4-59-59-59s-59,26.4-59,59c0,17.9,8,34,20.6,44.8l-7.1,12.3v9.7
								c0,0.9,0.7,1.6,1.6,1.6c0.3,0,0.6-0.1,0.8-0.2l8.4-4.9l6.6-11.4c8.4,4.6,18,7.1,28.2,7.1s19.8-2.6,28.2-7.1l6.6,11.4l8.4,4.9
								c0.2,0.1,0.5,0.2,0.8,0.2c0.9,0,1.6-0.7,1.6-1.6v-9.7l-7.1-12.3C101.7,84.6,109.7,68.6,109.7,50.6z"/>
						</g>
					</mask>
					<path id="Shape_1_" class="st6" d="M50.7-8.4c-32.6,0-59,26.4-59,59h118.1C109.7,18,83.3-8.4,50.7-8.4z"/>
				</g>
				<g id="Clipped_3_" transform="translate(0.333333, 0.333333)">
					<g id="a_3_">
					</g>
					<defs>
						<filter id="Adobe_OpacityMaskFilter_3_" filterUnits="userSpaceOnUse" x="42.9" y="33.5" width="15.5" height="15.5">
							<feColorMatrix  type="matrix" values="1 0 0 0 0  0 1 0 0 0  0 0 1 0 0  0 0 0 1 0"/>
						</filter>
					</defs>
					<mask maskUnits="userSpaceOnUse" x="42.9" y="33.5" width="15.5" height="15.5" id="mask-8_1_">
						<g class="st7">
							<path id="path-7_1_" class="st1" d="M109.7,50.6c0-32.6-26.4-59-59-59s-59,26.4-59,59c0,17.9,8,34,20.6,44.8l-7.1,12.3v9.7
								c0,0.9,0.7,1.6,1.6,1.6c0.3,0,0.6-0.1,0.8-0.2l8.4-4.9l6.6-11.4c8.4,4.6,18,7.1,28.2,7.1s19.8-2.6,28.2-7.1l6.6,11.4l8.4,4.9
								c0.2,0.1,0.5,0.2,0.8,0.2c0.9,0,1.6-0.7,1.6-1.6v-9.7l-7.1-12.3C101.7,84.6,109.7,68.6,109.7,50.6z"/>
						</g>
					</mask>
					<circle id="Oval_1_" class="st8" cx="50.7" cy="41.3" r="7.8"/>
				</g>
				<g id="Clipped_4_" transform="translate(0.333333, 0.333333)">
					<g id="a_4_">
					</g>
					<defs>
						<filter id="Adobe_OpacityMaskFilter_4_" filterUnits="userSpaceOnUse" x="-8.4" y="49.9" width="118.1" height="0.8">
							<feColorMatrix  type="matrix" values="1 0 0 0 0  0 1 0 0 0  0 0 1 0 0  0 0 0 1 0"/>
						</filter>
					</defs>
					<mask maskUnits="userSpaceOnUse" x="-8.4" y="49.9" width="118.1" height="0.8" id="mask-10_1_">
						<g class="st9">
							<path id="path-9_1_" class="st1" d="M109.7,50.6c0-32.6-26.4-59-59-59s-59,26.4-59,59c0,17.9,8,34,20.6,44.8l-7.1,12.3v9.7
								c0,0.9,0.7,1.6,1.6,1.6c0.3,0,0.6-0.1,0.8-0.2l8.4-4.9l6.6-11.4c8.4,4.6,18,7.1,28.2,7.1s19.8-2.6,28.2-7.1l6.6,11.4l8.4,4.9
								c0.2,0.1,0.5,0.2,0.8,0.2c0.9,0,1.6-0.7,1.6-1.6v-9.7l-7.1-12.3C101.7,84.6,109.7,68.6,109.7,50.6z"/>
						</g>
					</mask>
					<polygon id="Shape_2_" class="st10" points="-8.4,49.9 109.7,49.9 109.7,50.6 -8.4,50.6 					"/>
				</g>
				<g id="Clipped_5_" transform="translate(0.333333, 0.333333)">
					<g id="a_5_">
					</g>
					<defs>
						<filter id="Adobe_OpacityMaskFilter_5_" filterUnits="userSpaceOnUse" x="-8.4" y="50.6" width="118.1" height="0.8">
							<feColorMatrix  type="matrix" values="1 0 0 0 0  0 1 0 0 0  0 0 1 0 0  0 0 0 1 0"/>
						</filter>
					</defs>
					<mask maskUnits="userSpaceOnUse" x="-8.4" y="50.6" width="118.1" height="0.8" id="mask-12_1_">
						<g class="st11">
							<path id="path-11_1_" class="st1" d="M109.7,50.6c0-32.6-26.4-59-59-59s-59,26.4-59,59c0,17.9,8,34,20.6,44.8l-7.1,12.3v9.7
								c0,0.9,0.7,1.6,1.6,1.6c0.3,0,0.6-0.1,0.8-0.2l8.4-4.9l6.6-11.4c8.4,4.6,18,7.1,28.2,7.1s19.8-2.6,28.2-7.1l6.6,11.4l8.4,4.9
								c0.2,0.1,0.5,0.2,0.8,0.2c0.9,0,1.6-0.7,1.6-1.6v-9.7l-7.1-12.3C101.7,84.6,109.7,68.6,109.7,50.6z"/>
						</g>
					</mask>
					<polygon id="Shape_3_" class="st12" points="-8.4,50.6 109.7,50.6 109.7,51.4 -8.4,51.4 					"/>
				</g>
				<g id="Clipped_6_" transform="translate(0.333333, 0.333333)">
					<g id="a_6_">
					</g>
					<defs>
						<filter id="Adobe_OpacityMaskFilter_6_" filterUnits="userSpaceOnUse" x="6.7" y="13.3" width="103" height="105.6">
							<feColorMatrix  type="matrix" values="1 0 0 0 0  0 1 0 0 0  0 0 1 0 0  0 0 0 1 0"/>
						</filter>
					</defs>
					<mask maskUnits="userSpaceOnUse" x="6.7" y="13.3" width="103" height="105.6" id="mask-14_1_">
						<g class="st13">
							<path id="path-13_1_" class="st1" d="M109.7,50.6c0-32.6-26.4-59-59-59s-59,26.4-59,59c0,17.9,8,34,20.6,44.8l-7.1,12.3v9.7
								c0,0.9,0.7,1.6,1.6,1.6c0.3,0,0.6-0.1,0.8-0.2l8.4-4.9l6.6-11.4c8.4,4.6,18,7.1,28.2,7.1s19.8-2.6,28.2-7.1l6.6,11.4l8.4,4.9
								c0.2,0.1,0.5,0.2,0.8,0.2c0.9,0,1.6-0.7,1.6-1.6v-9.7l-7.1-12.3C101.7,84.6,109.7,68.6,109.7,50.6z"/>
						</g>
					</mask>
					
						<linearGradient id="Shape_7_" gradientUnits="userSpaceOnUse" x1="-365.0375" y1="350.3171" x2="-364.4149" y2="349.9595" gradientTransform="matrix(88.3867 0 0 -90.6667 32301.0918 31831.0996)">
						<stop  offset="0" style="stop-color:#263238;stop-opacity:0.2"/>
						<stop  offset="1" style="stop-color:#263238;stop-opacity:2.000000e-02"/>
					</linearGradient>
					<polygon id="Shape_4_" class="st14" points="56.9,13.3 44.5,22.7 38.1,50.6 6.7,119 109.7,119 109.7,66.2 					"/>
				</g>
				<g id="Clipped_7_" transform="translate(0.333333, 0.333333)">
					<g id="a_7_">
					</g>
				</g>
				<g id="Clipped_8_" transform="translate(0.333333, 0.333333)">
					<g id="a_8_">
					</g>
					<defs>
						<filter id="Adobe_OpacityMaskFilter_7_" filterUnits="userSpaceOnUse" x="-8.4" y="-8.4" width="118.1" height="59">
							<feColorMatrix  type="matrix" values="1 0 0 0 0  0 1 0 0 0  0 0 1 0 0  0 0 0 1 0"/>
						</filter>
					</defs>
					<mask maskUnits="userSpaceOnUse" x="-8.4" y="-8.4" width="118.1" height="59" id="mask-19_1_">
						<g class="st15">
							<path id="path-18_1_" class="st1" d="M109.7,50.6c0-32.6-26.4-59-59-59s-59,26.4-59,59c0,17.9,8,34,20.6,44.8l-7.1,12.3v9.7
								c0,0.9,0.7,1.6,1.6,1.6c0.3,0,0.6-0.1,0.8-0.2l8.4-4.9l6.6-11.4c8.4,4.6,18,7.1,28.2,7.1s19.8-2.6,28.2-7.1l6.6,11.4l8.4,4.9
								c0.2,0.1,0.5,0.2,0.8,0.2c0.9,0,1.6-0.7,1.6-1.6v-9.7l-7.1-12.3C101.7,84.6,109.7,68.6,109.7,50.6z"/>
						</g>
					</mask>
					<path id="Shape_5_" class="st16" d="M50.7-7.6c32.3,0,58.6,26,59,58.2h0c0-32.6-26.4-59-59-59s-59,26.4-59,59h0
						C-7.9,18.4,18.3-7.6,50.7-7.6z"/>
				</g>
				<g id="Clipped_9_" transform="translate(0.333333, 0.333333)">
					<g id="a_9_">
					</g>
					<defs>
						<filter id="Adobe_OpacityMaskFilter_8_" filterUnits="userSpaceOnUse" x="42.6" y="44.6" width="66.1" height="86.7">
							<feColorMatrix  type="matrix" values="1 0 0 0 0  0 1 0 0 0  0 0 1 0 0  0 0 0 1 0"/>
						</filter>
					</defs>
					<mask maskUnits="userSpaceOnUse" x="42.6" y="44.6" width="66.1" height="86.7" id="mask-21_1_">
						<g class="st17">
							<path id="path-20_1_" class="st1" d="M109.7,50.6c0-32.6-26.4-59-59-59s-59,26.4-59,59c0,17.9,8,34,20.6,44.8l-7.1,12.3v9.7
								c0,0.9,0.7,1.6,1.6,1.6c0.3,0,0.6-0.1,0.8-0.2l8.4-4.9l6.6-11.4c8.4,4.6,18,7.1,28.2,7.1s19.8-2.6,28.2-7.1l6.6,11.4l8.4,4.9
								c0.2,0.1,0.5,0.2,0.8,0.2c0.9,0,1.6-0.7,1.6-1.6v-9.7l-7.1-12.3C101.7,84.6,109.7,68.6,109.7,50.6z"/>
						</g>
					</mask>
					<g id="Group" class="st18">
						<g transform="translate(43.333333, 45.333333)">
							<g transform="matrix(1 0 0 1 5.960464e-08 0)" style="opacity:0.2;enable-background:new    ;">
								
									<image style="overflow:visible;" width="358" height="471" id="Bitmap" xlink:href="5E88E085.png"  transform="matrix(0.1847 0 0 0.1841 -0.7428 -0.7464)">
								</image>
							</g>
							<path id="Shape_6_" class="st19" d="M19.9,5.3H5.5l36.5,63.3l8.4,4.9c0.2,0.1,0.5,0.2,0.8,0.2c0.9,0,1.6-0.7,1.6-1.6v-9.7
								L19.9,5.3z"/>
							<path id="Shape_11_" class="st20" d="M19.9,5.3H5.5l36.5,63.3l8.4,4.9c0.2,0.1,0.5,0.2,0.8,0.2c0.9,0,1.6-0.7,1.6-1.6v-9.7
								L19.9,5.3z"/>
							<polygon id="Shape_12_" class="st21" points="19.9,5.3 19.4,5.3 52.8,63.1 52.8,62.3 							"/>
							<path id="Shape_13_" class="st22" d="M51.3,72.9c-0.3,0-0.6-0.1-0.8-0.2l-8.4-4.9L6,5.3H5.5l36.5,63.3l8.4,4.9
								c0.2,0.1,0.5,0.2,0.8,0.2c0.9,0,1.6-0.7,1.6-1.6v-0.8C52.8,72.2,52.1,72.9,51.3,72.9L51.3,72.9z"/>
						</g>
					</g>
				</g>
				<g id="Clipped_10_" transform="translate(0.333333, 0.333333)">
					<g id="a_10_">
					</g>
					<defs>
						<filter id="Adobe_OpacityMaskFilter_9_" filterUnits="userSpaceOnUse" x="-1.1" y="44.5" width="107.9" height="86.9">
							<feColorMatrix  type="matrix" values="1 0 0 0 0  0 1 0 0 0  0 0 1 0 0  0 0 0 1 0"/>
						</filter>
					</defs>
					<mask maskUnits="userSpaceOnUse" x="-1.1" y="44.5" width="107.9" height="86.9" id="mask-23_1_">
						<g class="st23">
							<path id="path-22_1_" class="st1" d="M109.7,50.6c0-32.6-26.4-59-59-59s-59,26.4-59,59c0,17.9,8,34,20.6,44.8l-7.1,12.3v9.7
								c0,0.9,0.7,1.6,1.6,1.6c0.3,0,0.6-0.1,0.8-0.2l8.4-4.9l6.6-11.4c8.4,4.6,18,7.1,28.2,7.1s19.8-2.6,28.2-7.1l6.6,11.4l8.4,4.9
								c0.2,0.1,0.5,0.2,0.8,0.2c0.9,0,1.6-0.7,1.6-1.6v-9.7l-7.1-12.3C101.7,84.6,109.7,68.6,109.7,50.6z"/>
						</g>
					</mask>
					<g id="Group_1_" class="st24">
						<g transform="translate(6.000000, 45.333333)">
							<g transform="matrix(1 0 0 1 0 -5.960464e-08)" style="opacity:0.2;enable-background:new    ;">
								
									<image style="overflow:visible;" width="583" height="471" id="Bitmap_2_" xlink:href="5E88E087.png"  transform="matrix(0.185 0 0 0.1844 -7.114 -0.8257)">
								</image>
							</g>
							<path id="Shape_14_" class="st19" d="M75.7,5.3c0,17.2-13.9,31.1-31.1,31.1c-5.1,0-9.9-1.2-14.2-3.4L44.7,8.4l1.8-3.1H32.1
								L-0.8,62.3v9.7c0,0.9,0.7,1.6,1.6,1.6c0.3,0,0.6-0.1,0.8-0.2l8.4-4.9l14.4-24.9c6.1,3.2,13,5.1,20.4,5.1
								c24,0,43.5-19.5,43.5-43.5H75.7z"/>
							<path id="Shape_17_" class="st25" d="M32.1,5.3L-0.8,62.3v0.8L32.6,5.3H32.1L32.1,5.3z M44.7,36.4c-5.1,0-9.9-1.2-14.2-3.4
								v0.8c4.2,2.2,9.1,3.4,14.2,3.4c17.2,0,31.1-13.9,31.1-31.1h12.4c0-0.3,0-0.5,0-0.8H75.7C75.7,22.5,61.8,36.4,44.7,36.4z"/>
							<path id="Shape_18_" class="st22" d="M46.5,5.3H46L30.5,32.2v0.8L46.5,5.3z M88.1,5.3C87.7,29,68.4,48,44.7,48
								c-7.4,0-14.3-1.8-20.4-5.1L9.9,67.8l-8.4,4.9c-0.2,0.1-0.5,0.2-0.8,0.2c-0.9,0-1.6-0.7-1.6-1.6v0.8c0,0.9,0.7,1.6,1.6,1.6
								c0.3,0,0.6-0.1,0.8-0.2l8.4-4.9l14.4-24.9c6.1,3.2,13,5.1,20.4,5.1C68.7,48.8,88.2,29.3,88.1,5.3L88.1,5.3z"/>
						</g>
					</g>
				</g>
				<g id="Clipped_11_" transform="translate(0.333333, 0.333333)">
					<g id="a_11_">
					</g>
					<defs>
						<filter id="Adobe_OpacityMaskFilter_10_" filterUnits="userSpaceOnUse" x="26" y="7.1" width="55.6" height="72.7">
							<feColorMatrix  type="matrix" values="1 0 0 0 0  0 1 0 0 0  0 0 1 0 0  0 0 0 1 0"/>
						</filter>
					</defs>
					<mask maskUnits="userSpaceOnUse" x="26" y="7.1" width="55.6" height="72.7" id="mask-25_1_">
						<g class="st26">
							<path id="path-24_1_" class="st1" d="M109.7,50.6c0-32.6-26.4-59-59-59s-59,26.4-59,59c0,17.9,8,34,20.6,44.8l-7.1,12.3v9.7
								c0,0.9,0.7,1.6,1.6,1.6c0.3,0,0.6-0.1,0.8-0.2l8.4-4.9l6.6-11.4c8.4,4.6,18,7.1,28.2,7.1s19.8-2.6,28.2-7.1l6.6,11.4l8.4,4.9
								c0.2,0.1,0.5,0.2,0.8,0.2c0.9,0,1.6-0.7,1.6-1.6v-9.7l-7.1-12.3C101.7,84.6,109.7,68.6,109.7,50.6z"/>
						</g>
					</mask>
					<g id="Group_2_" class="st27">
						<g transform="translate(29.333333, 13.333333)">
							<g transform="matrix(1 0 0 1 0 4.768372e-07)" style="opacity:0.2;enable-background:new    ;">
								
									<image style="overflow:visible;" width="300" height="392" id="Bitmap_3_" xlink:href="5E88E082.png"  transform="matrix(0.1854 0 0 0.1854 -3.3771 -6.1966)">
								</image>
							</g>
							<path id="Shape_15_" class="st28" d="M35.3,9.3h-7.8V0H15.1v9.3H7.4c-2.6,0-4.7,2.1-4.7,4.7v23.3L18,52.6
								c0.8,0.8,2,1.4,3.3,1.4c1.3,0,2.5-0.5,3.3-1.4L40,37.3V14C40,11.4,37.9,9.3,35.3,9.3z M21.3,35.7c-4.3,0-7.8-3.5-7.8-7.8
								s3.5-7.8,7.8-7.8s7.8,3.5,7.8,7.8S25.6,35.7,21.3,35.7z"/>
						</g>
					</g>
				</g>
				<g id="Clipped_12_" transform="translate(0.333333, 0.333333)">
					<g id="a_12_">
					</g>
					<defs>
						<filter id="Adobe_OpacityMaskFilter_11_" filterUnits="userSpaceOnUse" x="32" y="13.3" width="37.3" height="36.5">
							<feColorMatrix  type="matrix" values="1 0 0 0 0  0 1 0 0 0  0 0 1 0 0  0 0 0 1 0"/>
						</filter>
					</defs>
					<mask maskUnits="userSpaceOnUse" x="32" y="13.3" width="37.3" height="36.5" id="mask-27_1_">
						<g class="st29">
							<path id="path-26_1_" class="st1" d="M109.7,50.6c0-32.6-26.4-59-59-59s-59,26.4-59,59c0,17.9,8,34,20.6,44.8l-7.1,12.3v9.7
								c0,0.9,0.7,1.6,1.6,1.6c0.3,0,0.6-0.1,0.8-0.2l8.4-4.9l6.6-11.4c8.4,4.6,18,7.1,28.2,7.1s19.8-2.6,28.2-7.1l6.6,11.4l8.4,4.9
								c0.2,0.1,0.5,0.2,0.8,0.2c0.9,0,1.6-0.7,1.6-1.6v-9.7l-7.1-12.3C101.7,84.6,109.7,68.6,109.7,50.6z"/>
						</g>
					</mask>
					<path id="Shape_22_" class="st30" d="M64.6,22.7h-7.8v0.8h7.8c2.6,0,4.7,2.1,4.7,4.7v-0.8C69.3,24.8,67.2,22.7,64.6,22.7z
						 M56.9,13.3H44.5v0.8h12.4V13.3z M44.5,22.7h-7.8c-2.6,0-4.7,2.1-4.7,4.7v0.8c0-2.6,2.1-4.7,4.7-4.7h7.8V22.7z M50.7,49.1
						c-4.3,0-7.8-3.5-7.8-7.8v0.8c0,4.3,3.5,7.8,7.8,7.8s7.8-3.5,7.8-7.8v-0.8C58.4,45.6,55,49.1,50.7,49.1z"/>
				</g>
				<g id="Clipped_13_" transform="translate(0.333333, 0.333333)">
					<g id="a_13_">
					</g>
					<defs>
						<filter id="Adobe_OpacityMaskFilter_12_" filterUnits="userSpaceOnUse" x="32" y="32.8" width="37.3" height="34.6">
							<feColorMatrix  type="matrix" values="1 0 0 0 0  0 1 0 0 0  0 0 1 0 0  0 0 0 1 0"/>
						</filter>
					</defs>
					<mask maskUnits="userSpaceOnUse" x="32" y="32.8" width="37.3" height="34.6" id="mask-29_1_">
						<g class="st31">
							<path id="path-28_1_" class="st1" d="M109.7,50.6c0-32.6-26.4-59-59-59s-59,26.4-59,59c0,17.9,8,34,20.6,44.8l-7.1,12.3v9.7
								c0,0.9,0.7,1.6,1.6,1.6c0.3,0,0.6-0.1,0.8-0.2l8.4-4.9l6.6-11.4c8.4,4.6,18,7.1,28.2,7.1s19.8-2.6,28.2-7.1l6.6,11.4l8.4,4.9
								c0.2,0.1,0.5,0.2,0.8,0.2c0.9,0,1.6-0.7,1.6-1.6v-9.7l-7.1-12.3C101.7,84.6,109.7,68.6,109.7,50.6z"/>
						</g>
					</mask>
					<path id="Shape_23_" class="st32" d="M50.7,33.5c4.3,0,7.8,3.5,7.8,7.8v-0.8c0-4.3-3.5-7.8-7.8-7.8s-7.8,3.5-7.8,7.8v0.8
						C42.9,37,46.4,33.5,50.7,33.5z M54,65.2c-0.8,0.8-2,1.4-3.3,1.4s-2.5-0.5-3.3-1.4L32,49.9v0.8L47.4,66c0.8,0.8,2,1.4,3.3,1.4
						s2.5-0.5,3.3-1.4l15.3-15.3v-0.8L54,65.2L54,65.2z"/>
				</g>
				
					<radialGradient id="Shape_29_" cx="-365.398" cy="351.3997" r="1.3805" gradientTransform="matrix(101.3333 0 0 -101.3333 37036.332 35617.6641)" gradientUnits="userSpaceOnUse">
					<stop  offset="0" style="stop-color:#FFFFFF;stop-opacity:0.1"/>
					<stop  offset="1" style="stop-color:#FFFFFF;stop-opacity:0"/>
				</radialGradient>
				<path id="Shape_24_" class="st33" d="M110,51c0-32.6-26.4-59-59-59S-8,18.4-8,51c0,17.9,8,34,20.6,44.8L5.5,108v9.7
					c0,0.9,0.7,1.6,1.6,1.6c0.3,0,0.6-0.1,0.8-0.2l8.4-4.9l6.6-11.4c8.4,4.6,18,7.1,28.2,7.1s19.8-2.6,28.2-7.1l6.6,11.4l8.4,4.9
					c0.2,0.1,0.5,0.2,0.8,0.2c0.9,0,1.6-0.7,1.6-1.6V108l-7.1-12.3C102,84.9,110,68.9,110,51z"/>
			</g>
			<polygon id="Shape_25_" class="st34" points="-10.6,-9.9 138.6,-9.9 138.6,139.3 -10.6,139.3 			"/>
		</g>
	</g>
</g>
</svg>
