<?xml version="1.0" encoding="utf-8"?>
<!-- Generator: Adobe Illustrator 16.0.0, SVG Export Plug-In . SVG Version: 6.00 Build 0)  -->
<!DOCTYPE svg PUBLIC "-//W3C//DTD SVG 1.1//EN" "http://www.w3.org/Graphics/SVG/1.1/DTD/svg11.dtd">
<svg version="1.1" id="Capa_1" xmlns="http://www.w3.org/2000/svg" xmlns:xlink="http://www.w3.org/1999/xlink" x="0px" y="0px"
	 width="60px" height="60px" viewBox="0 0 60 60" enable-background="new 0 0 60 60" xml:space="preserve">
<g>
	<path fill="#33DD7C" d="M7.5,22.5c-2.07,0-3.75,1.68-3.75,3.75v15C3.75,43.32,5.43,45,7.5,45c2.07,0,3.75-1.68,3.75-3.75v-15
		C11.25,24.181,9.57,22.5,7.5,22.5z"/>
	<path fill="#33DD7C" d="M52.5,22.5c-2.07,0-3.75,1.68-3.75,3.75v15c0,2.07,1.68,3.75,3.75,3.75s3.75-1.68,3.75-3.75v-15
		C56.25,24.181,54.57,22.5,52.5,22.5z"/>
	<path fill="#33DD7C" d="M15,45.218c0,2.069,1.68,3.75,3.75,3.75v7.282c0,2.07,1.68,3.75,3.75,3.75c2.07,0,3.75-1.68,3.75-3.75
		v-7.282h7.5v7.282c0,2.07,1.68,3.75,3.75,3.75s3.75-1.68,3.75-3.75v-7.282c2.07,0,3.75-1.681,3.75-3.75v-22.5H15V45.218z"/>
	<path fill="#33DD7C" d="M39.359,7.114l3.338-4.046c0.66-0.799,0.548-1.98-0.251-2.64c-0.803-0.656-1.979-0.547-2.64,0.251
		l-3.649,4.421C34.275,4.25,32.201,3.751,30,3.751c-2.231,0-4.331,0.517-6.232,1.395l-3.551-4.439
		c-0.648-0.807-1.826-0.941-2.636-0.293c-0.806,0.649-0.938,1.827-0.292,2.636l3.292,4.118C17.202,9.916,15,14.056,15,18.75h30
		C45,14.025,42.772,9.863,39.359,7.114z M26.25,13.125c-1.035,0-1.875-0.84-1.875-1.875c0-1.035,0.84-1.875,1.875-1.875
		c1.035,0,1.875,0.84,1.875,1.875C28.125,12.286,27.285,13.125,26.25,13.125z M33.75,13.125c-1.035,0-1.875-0.84-1.875-1.875
		c0-1.035,0.84-1.875,1.875-1.875s1.875,0.84,1.875,1.875C35.625,12.286,34.785,13.125,33.75,13.125z"/>
</g>
</svg>
