<?xml version="1.0" encoding="utf-8"?>
<!-- Generator: Adobe Illustrator 24.1.0, SVG Export Plug-In . SVG Version: 6.00 Build 0)  -->
<svg version="1.1" id="Layer_1" xmlns="http://www.w3.org/2000/svg" xmlns:xlink="http://www.w3.org/1999/xlink" x="0px" y="0px"
	 viewBox="0 0 130.7 138.6" style="enable-background:new 0 0 130.7 138.6;" xml:space="preserve">
<style type="text/css">
	.st0{fill-rule:evenodd;clip-rule:evenodd;fill:#E23237;}
	.st1{fill-rule:evenodd;clip-rule:evenodd;fill:#B52E31;}
	.st2{fill-rule:evenodd;clip-rule:evenodd;fill:#FFFFFF;}
</style>
<g>
	<path class="st0" d="M0,23L64.5,0l66.2,22.6L120,107.9l-55.5,30.7L9.9,108.3L0,23L0,23z"/>
	<path class="st1" d="M130.7,22.6L64.5,0v138.6l55.5-30.7L130.7,22.6L130.7,22.6z"/>
	<path class="st2" d="M64.6,16.2L64.6,16.2l-40.2,89.4l15-0.3l8.1-20.2h17.1h18.8l8.8,20.4l14.3,0.3L64.6,16.2L64.6,16.2z
		 M64.7,44.9l13.6,28.4h-13h-0.7H52.8L64.7,44.9L64.7,44.9z"/>
</g>
</svg>
