<?xml version="1.0" encoding="utf-8"?>
<!-- Generator: Adobe Illustrator 24.1.0, SVG Export Plug-In . SVG Version: 6.00 Build 0)  -->
<svg version="1.1" id="Layer_1" xmlns="http://www.w3.org/2000/svg" xmlns:xlink="http://www.w3.org/1999/xlink" x="0px" y="0px"
	 viewBox="0 0 112 112" style="enable-background:new 0 0 112 112;" xml:space="preserve">
<style type="text/css">
	.st0{fill:#F58C11;}
	.st1{fill:#F58D11;}
	.st2{fill:#EA4335;}
	.st3{fill:#4285F4;}
	.st4{fill:#34A853;}
	.st5{fill:#FBBC05;}
	.st6{fill:#0089D6;}
	.st7{fill:#D32F2F;}
	.st8{fill:#B71C1C;}
	.st9{fill:#F44336;}
	.st10{fill:#03786F;}
	.st11{fill:#FCFDFD;}
	.st12{fill:#FBFDFD;}
	.st13{fill:#C40022;}
	.st14{fill:url(#SVGID_1_);}
	.st15{fill:none;}
	.st16{fill:#BE202E;}
	.st17{opacity:0.35;fill:#BE202E;enable-background:new    ;}
	.st18{fill:url(#SVGID_2_);}
	.st19{fill:url(#SVGID_3_);}
	.st20{fill:url(#SVGID_4_);}
	.st21{fill:url(#SVGID_5_);}
	.st22{fill:url(#SVGID_6_);}
	.st23{fill:url(#SVGID_7_);}
	.st24{fill:url(#SVGID_8_);}
	.st25{fill:url(#SVGID_9_);}
	.st26{fill:#00A818;}
	.st27{fill-rule:evenodd;clip-rule:evenodd;fill:#488ECB;}
	.st28{fill:#C72566;}
	.st29{fill:#FF8C2A;}
	.st30{fill:#CF4F8C;}
	.st31{opacity:0.2;fill:#FFFFFF;enable-background:new    ;}
	.st32{fill:#3F3F3F;}
	.st33{opacity:0.2;fill:none;stroke:#000000;stroke-width:2;stroke-linecap:round;enable-background:new    ;}
	.st34{fill:none;stroke:#FFFFFF;stroke-width:2;stroke-linecap:round;}
	.st35{fill:#FF496C;}
	.st36{fill:#FD405F;}
	.st37{fill:#96EFFF;}
	.st38{fill:#6CE0F9;}
	.st39{fill:#40DAF4;}
	.st40{fill:#E12826;}
	.st41{clip-path:url(#SVGID_11_);fill:#838383;}
	.st42{clip-path:url(#SVGID_11_);fill:#828282;}
	.st43{clip-path:url(#SVGID_11_);fill:#818181;}
	.st44{clip-path:url(#SVGID_11_);fill:#808080;}
	.st45{clip-path:url(#SVGID_11_);fill:#7F7F7F;}
	.st46{clip-path:url(#SVGID_11_);fill:#7E7E7E;}
	.st47{clip-path:url(#SVGID_11_);fill:#7D7D7D;}
	.st48{clip-path:url(#SVGID_11_);fill:#7C7C7C;}
	.st49{clip-path:url(#SVGID_11_);fill:#7B7B7B;}
	.st50{clip-path:url(#SVGID_11_);fill:#7A7A7A;}
	.st51{clip-path:url(#SVGID_11_);fill:#797979;}
	.st52{clip-path:url(#SVGID_11_);fill:#787878;}
	.st53{clip-path:url(#SVGID_11_);fill:#777777;}
	.st54{clip-path:url(#SVGID_11_);fill:#767676;}
	.st55{clip-path:url(#SVGID_11_);fill:#757575;}
	.st56{clip-path:url(#SVGID_11_);fill:#747474;}
	.st57{clip-path:url(#SVGID_11_);fill:#737373;}
	.st58{clip-path:url(#SVGID_11_);fill:#727272;}
	.st59{clip-path:url(#SVGID_11_);fill:#717171;}
	.st60{clip-path:url(#SVGID_11_);fill:#707070;}
	.st61{clip-path:url(#SVGID_11_);fill:#6F6F6F;}
	.st62{clip-path:url(#SVGID_11_);fill:#6E6E6E;}
	.st63{clip-path:url(#SVGID_11_);fill:#6D6D6D;}
	.st64{clip-path:url(#SVGID_11_);fill:#6C6C6C;}
	.st65{clip-path:url(#SVGID_11_);fill:#6B6B6B;}
	.st66{clip-path:url(#SVGID_11_);fill:#6A6A6A;}
	.st67{clip-path:url(#SVGID_11_);fill:#696969;}
	.st68{clip-path:url(#SVGID_11_);fill:#686868;}
	.st69{clip-path:url(#SVGID_11_);fill:#676767;}
	.st70{clip-path:url(#SVGID_11_);fill:#666666;}
	.st71{clip-path:url(#SVGID_11_);fill:#656565;}
	.st72{clip-path:url(#SVGID_11_);fill:#646464;}
	.st73{clip-path:url(#SVGID_11_);fill:#636363;}
	.st74{clip-path:url(#SVGID_11_);fill:#626262;}
	.st75{clip-path:url(#SVGID_11_);fill:#616161;}
	.st76{clip-path:url(#SVGID_11_);fill:#606060;}
	.st77{clip-path:url(#SVGID_11_);fill:#5F5F5F;}
	.st78{clip-path:url(#SVGID_11_);fill:#5E5E5E;}
	.st79{clip-path:url(#SVGID_11_);fill:#5D5D5D;}
	.st80{clip-path:url(#SVGID_11_);fill:#5C5C5C;}
	.st81{clip-path:url(#SVGID_11_);fill:#5B5B5B;}
	.st82{clip-path:url(#SVGID_11_);fill:#5A5A5A;}
	.st83{clip-path:url(#SVGID_11_);fill:#595959;}
	.st84{clip-path:url(#SVGID_11_);fill:#585858;}
	.st85{clip-path:url(#SVGID_11_);fill:#565656;}
	.st86{clip-path:url(#SVGID_11_);fill:#555555;}
	.st87{clip-path:url(#SVGID_11_);fill:#545454;}
	.st88{clip-path:url(#SVGID_11_);fill:#535353;}
	.st89{clip-path:url(#SVGID_11_);fill:#525252;}
	.st90{clip-path:url(#SVGID_11_);fill:#515151;}
	.st91{clip-path:url(#SVGID_11_);fill:#505050;}
	.st92{clip-path:url(#SVGID_11_);fill:#4F4F4F;}
	.st93{clip-path:url(#SVGID_11_);fill:#4E4E4E;}
	.st94{clip-path:url(#SVGID_11_);fill:#4D4D4D;}
	.st95{clip-path:url(#SVGID_11_);fill:#4C4C4C;}
	.st96{clip-path:url(#SVGID_11_);fill:#4B4B4B;}
	.st97{clip-path:url(#SVGID_11_);fill:#4A4A4A;}
	.st98{clip-path:url(#SVGID_11_);fill:#494949;}
	.st99{clip-path:url(#SVGID_11_);fill:#484848;}
	.st100{clip-path:url(#SVGID_11_);fill:#474747;}
	.st101{clip-path:url(#SVGID_11_);fill:#464646;}
	.st102{clip-path:url(#SVGID_11_);fill:#454545;}
	.st103{clip-path:url(#SVGID_11_);fill:#444444;}
	.st104{clip-path:url(#SVGID_11_);fill:#434343;}
	.st105{clip-path:url(#SVGID_11_);fill:#424242;}
	.st106{clip-path:url(#SVGID_11_);fill:#414141;}
	.st107{clip-path:url(#SVGID_11_);fill:#404040;}
	.st108{clip-path:url(#SVGID_11_);fill:#3F3F3F;}
	.st109{clip-path:url(#SVGID_11_);fill:#3E3E3E;}
	.st110{clip-path:url(#SVGID_11_);fill:#3D3D3D;}
	.st111{clip-path:url(#SVGID_11_);fill:#3C3C3C;}
	.st112{clip-path:url(#SVGID_11_);fill:#3B3B3B;}
	.st113{clip-path:url(#SVGID_11_);fill:#3A3A3A;}
	.st114{clip-path:url(#SVGID_11_);fill:#393939;}
	.st115{clip-path:url(#SVGID_11_);fill:#383838;}
	.st116{clip-path:url(#SVGID_11_);fill:#373737;}
	.st117{clip-path:url(#SVGID_11_);fill:#363636;}
	.st118{clip-path:url(#SVGID_11_);fill:#353535;}
	.st119{clip-path:url(#SVGID_11_);fill:#343434;}
	.st120{clip-path:url(#SVGID_11_);fill:#333333;}
	.st121{clip-path:url(#SVGID_11_);fill:#323232;}
	.st122{clip-path:url(#SVGID_11_);fill:#313131;}
	.st123{clip-path:url(#SVGID_11_);fill:#303030;}
	.st124{clip-path:url(#SVGID_11_);fill:#2F2F2F;}
	.st125{clip-path:url(#SVGID_11_);fill:#2E2E2E;}
	.st126{clip-path:url(#SVGID_11_);fill:#2D2D2D;}
	.st127{clip-path:url(#SVGID_11_);fill:#2C2C2C;}
	.st128{clip-path:url(#SVGID_11_);fill:#2B2B2B;}
	.st129{fill:#2C2C2C;}
	.st130{fill:#FFFFFF;}
	.st131{fill:url(#SVGID_12_);}
	.st132{clip-path:url(#SVGID_14_);fill:#227716;}
	.st133{clip-path:url(#SVGID_14_);fill:#227816;}
	.st134{clip-path:url(#SVGID_14_);fill:#227917;}
	.st135{clip-path:url(#SVGID_14_);fill:#227A17;}
	.st136{clip-path:url(#SVGID_14_);fill:#227B17;}
	.st137{clip-path:url(#SVGID_14_);fill:#227C18;}
	.st138{clip-path:url(#SVGID_14_);fill:#227D18;}
	.st139{clip-path:url(#SVGID_14_);fill:#227E18;}
	.st140{clip-path:url(#SVGID_14_);fill:#227F18;}
	.st141{clip-path:url(#SVGID_14_);fill:#228019;}
	.st142{clip-path:url(#SVGID_14_);fill:#228119;}
	.st143{clip-path:url(#SVGID_14_);fill:#228219;}
	.st144{clip-path:url(#SVGID_14_);fill:#22831A;}
	.st145{clip-path:url(#SVGID_14_);fill:#22841A;}
	.st146{clip-path:url(#SVGID_14_);fill:#22851A;}
	.st147{clip-path:url(#SVGID_14_);fill:#21861B;}
	.st148{clip-path:url(#SVGID_14_);fill:#21871B;}
	.st149{clip-path:url(#SVGID_14_);fill:#21881B;}
	.st150{clip-path:url(#SVGID_14_);fill:#21891C;}
	.st151{clip-path:url(#SVGID_14_);fill:#218A1C;}
	.st152{clip-path:url(#SVGID_14_);fill:#218B1C;}
	.st153{clip-path:url(#SVGID_14_);fill:#218C1D;}
	.st154{clip-path:url(#SVGID_14_);fill:#218D1D;}
	.st155{clip-path:url(#SVGID_14_);fill:#218E1D;}
	.st156{clip-path:url(#SVGID_14_);fill:#218F1D;}
	.st157{clip-path:url(#SVGID_14_);fill:#21901E;}
	.st158{clip-path:url(#SVGID_14_);fill:#21911E;}
	.st159{clip-path:url(#SVGID_14_);fill:#21921E;}
	.st160{clip-path:url(#SVGID_14_);fill:#21931F;}
	.st161{clip-path:url(#SVGID_14_);fill:#21951F;}
	.st162{clip-path:url(#SVGID_14_);fill:#21961F;}
	.st163{clip-path:url(#SVGID_14_);fill:#219720;}
	.st164{clip-path:url(#SVGID_14_);fill:#219820;}
	.st165{clip-path:url(#SVGID_14_);fill:#219920;}
	.st166{clip-path:url(#SVGID_14_);fill:#219A21;}
	.st167{clip-path:url(#SVGID_14_);fill:#219B21;}
	.st168{clip-path:url(#SVGID_14_);fill:#219C21;}
	.st169{clip-path:url(#SVGID_14_);fill:#219D21;}
	.st170{clip-path:url(#SVGID_14_);fill:#219E22;}
	.st171{clip-path:url(#SVGID_14_);fill:#219F22;}
	.st172{clip-path:url(#SVGID_14_);fill:#21A022;}
	.st173{clip-path:url(#SVGID_14_);fill:#21A123;}
	.st174{clip-path:url(#SVGID_14_);fill:#21A223;}
	.st175{clip-path:url(#SVGID_14_);fill:#21A323;}
	.st176{clip-path:url(#SVGID_14_);fill:#20A424;}
	.st177{clip-path:url(#SVGID_14_);fill:#20A524;}
	.st178{clip-path:url(#SVGID_14_);fill:#20A624;}
	.st179{clip-path:url(#SVGID_14_);fill:#20A725;}
	.st180{clip-path:url(#SVGID_14_);fill:#20A825;}
	.st181{clip-path:url(#SVGID_14_);fill:#20A925;}
	.st182{clip-path:url(#SVGID_14_);fill:#20AA26;}
	.st183{clip-path:url(#SVGID_14_);fill:#20AB26;}
	.st184{clip-path:url(#SVGID_14_);fill:#20AC26;}
	.st185{clip-path:url(#SVGID_14_);fill:#20AD26;}
	.st186{clip-path:url(#SVGID_14_);fill:#20AE27;}
	.st187{clip-path:url(#SVGID_14_);fill:#20AF27;}
	.st188{clip-path:url(#SVGID_14_);fill:#20B027;}
	.st189{clip-path:url(#SVGID_14_);fill:#20B128;}
	.st190{clip-path:url(#SVGID_14_);fill:#20B228;}
	.st191{fill:#0C0000;}
	.st192{fill:url(#SVGID_15_);}
	.st193{fill:#499CD2;}
	.st194{fill-rule:evenodd;clip-rule:evenodd;fill:#9AAB4B;}
	.st195{fill-rule:evenodd;clip-rule:evenodd;fill:#EC0677;}
	.st196{fill-rule:evenodd;clip-rule:evenodd;fill:#FFC10E;}
	.st197{fill-rule:evenodd;clip-rule:evenodd;fill:#3FB98C;}
	.st198{fill-rule:evenodd;clip-rule:evenodd;fill:#60CAE9;}
	.st199{fill-rule:evenodd;clip-rule:evenodd;fill:#009C7E;}
	.st200{fill-rule:evenodd;clip-rule:evenodd;fill:#672D85;}
	.st201{fill-rule:evenodd;clip-rule:evenodd;fill:#F48120;}
	.st202{fill:#DF4F4F;}
	.st203{clip-path:url(#SVGID_17_);fill:#F0BF1A;}
	.st204{clip-path:url(#SVGID_19_);fill:#3EBEB0;}
	.st205{clip-path:url(#SVGID_21_);fill:#07A5DE;}
	.st206{clip-path:url(#SVGID_23_);fill:#231F20;}
	.st207{fill:#D7A229;}
	.st208{fill:#019B8F;}
	.st209{fill:#F3BD19;}
	.st210{fill:#231F20;}
	.st211{fill:#3EBEB0;}
	.st212{fill:#37A595;}
	.st213{fill:#37808C;}
	.st214{fill:#9BD3CD;}
	.st215{fill:#1B1A19;}
	.st216{fill:#2C3458;}
	.st217{fill:#D43D44;}
	.st218{fill:#EE4323;}
	.st219{fill:url(#SVGID_24_);}
	.st220{fill:url(#SVGID_25_);}
	.st221{fill:url(#SVGID_26_);}
	.st222{fill:url(#SVGID_27_);}
	.st223{fill:#57A900;}
</style>
<linearGradient id="SVGID_1_" gradientUnits="userSpaceOnUse" x1="-21290.457" y1="-2550.8445" x2="-21289.1387" y2="-2549.303" gradientTransform="matrix(1.8078 -3.8771 3.8771 1.8078 48443.3789 -77917.7969)">
	<stop  offset="0" style="stop-color:#F69923"/>
	<stop  offset="0.312" style="stop-color:#F79A23"/>
	<stop  offset="0.838" style="stop-color:#E97826"/>
</linearGradient>
<path class="st14" d="M69.1,7.5c-1.5,0.8-4.2,3.4-7.2,7.2l2.7,5.3c1.9-2.7,4.2-5.3,6.1-7.6l0.4-0.4l-0.4,0.4c-0.8,0.8-2.7,3-5.7,7.6
	c3,0,7.2-0.8,11-1.5c1.1-6.1-1.1-8.8-1.1-8.8S72.1,5.6,69.1,7.5L69.1,7.5z"/>
<path class="st15" d="M64.1,38h-0.4H64.1z M61.1,47.5h-0.8H61.1z M41.7,69.2C41.7,68.9,41.7,68.9,41.7,69.2c0.8-1.9,1.5-3.4,1.9-5
	c0.8-1.9,1.5-3.4,1.9-4.9c0.8-1.9,1.5-3.4,1.9-4.9c0.8-1.5,1.5-3.4,2.3-5c0.8-1.1,1.1-2.7,1.5-3.8c0-0.4,0.4-0.8,0.4-1.1l1.1-2.3
	c0.4-0.8,0.8-1.5,1.1-1.9c0-0.4,0.4-0.4,0.4-0.8h-0.4l-0.4-0.4c-0.4,1.1-1.1,1.9-1.5,3c-0.4,0.8-0.4,1.1-0.8,1.9
	c-0.8,1.5-1.5,3.4-2.3,5s-1.5,3.4-2.3,4.9c-0.8,1.5-1.5,3.4-1.9,5c-0.8,1.5-1.5,3.4-1.9,4.9c-0.8,1.5-1.5,3.4-1.9,4.9
	c0,0.4-0.4,0.8-0.4,1.1c-0.4,1.5-1.1,2.7-1.5,3.8l0.4,0.8h0.4C40.5,72.3,40.9,70.8,41.7,69.2z"/>
<g>
	<path class="st16" d="M60.3,47.9h0.8C61.1,47.5,60.7,47.5,60.3,47.9z"/>
	<path class="st17" d="M60.3,47.9h0.8C61.1,47.5,60.7,47.5,60.3,47.9z"/>
</g>
<linearGradient id="SVGID_2_" gradientUnits="userSpaceOnUse" x1="-21314.7539" y1="-2551.3635" x2="-21305.3477" y2="-2551.3635" gradientTransform="matrix(1.8078 -3.8771 3.8771 1.8078 48443.3789 -77917.7969)">
	<stop  offset="0.323" style="stop-color:#9E2064"/>
	<stop  offset="0.63" style="stop-color:#C92037"/>
	<stop  offset="0.751" style="stop-color:#CD2335"/>
	<stop  offset="1" style="stop-color:#E97826"/>
</linearGradient>
<path class="st18" d="M56.1,33.8c0.8-1.5,1.9-3,2.7-4.6c0.8-1.5,1.9-3,2.7-4.6v-0.4c0.8-1.5,1.9-3,2.7-4.2l-2.7-5.3l-0.8,0.8
	c-0.8,1.1-1.5,2.3-2.7,3.4c-1.1,1.1-1.9,2.7-3,4.2c-0.8,1.5-1.9,2.7-3,4.2c-0.8,1.1-1.5,2.7-2.3,3.8l3.8,7.2
	C54.6,36.9,55.4,35.3,56.1,33.8L56.1,33.8z"/>
<linearGradient id="SVGID_3_" gradientUnits="userSpaceOnUse" x1="-21311.9336" y1="-2548.9358" x2="-21306.3281" y2="-2548.9358" gradientTransform="matrix(1.8078 -3.8771 3.8771 1.8078 48443.3789 -77917.7969)">
	<stop  offset="0" style="stop-color:#282662"/>
	<stop  offset="9.500000e-02" style="stop-color:#662E8D"/>
	<stop  offset="0.788" style="stop-color:#9F2064"/>
	<stop  offset="0.949" style="stop-color:#CD2032"/>
</linearGradient>
<path class="st19" d="M39.4,74.9c-0.4,1.5-1.1,2.7-1.5,4.2c0,0.4,0,0.4-0.4,0.8c-0.4,0.8-0.8,1.9-1.1,3.8c1.1,0.4,1.9,1.9,2.7,3.4
	c0-1.5-0.8-3-1.9-4.2c5.3,0.4,9.9-1.1,12.2-5c0.4-0.4,0.4-0.8,0.8-1.1c-1.1,1.5-2.3,1.9-5,1.9c3.8-1.5,5.7-3.4,7.2-6.1
	c0.4-0.8,0.8-1.1,1.1-1.9c-3.4,3.4-6.9,4.2-11,3.4l-3,0.4C39.8,74.6,39.4,74.6,39.4,74.9L39.4,74.9z"/>
<linearGradient id="SVGID_4_" gradientUnits="userSpaceOnUse" x1="-21313.4414" y1="-2551.5288" x2="-21304.0352" y2="-2551.5288" gradientTransform="matrix(1.8078 -3.8771 3.8771 1.8078 48443.3789 -77917.7969)">
	<stop  offset="0.323" style="stop-color:#9E2064"/>
	<stop  offset="0.63" style="stop-color:#C92037"/>
	<stop  offset="0.751" style="stop-color:#CD2335"/>
	<stop  offset="1" style="stop-color:#E97826"/>
</linearGradient>
<path class="st20" d="M40.9,68.5c0.8-1.5,1.1-3.4,1.9-5c0.8-1.5,1.1-3.4,1.9-5c0.8-1.5,1.5-3.4,1.9-5c0.8-1.5,1.5-3.4,2.3-5
	s1.5-3.4,2.3-5c0.4-0.8,0.4-1.1,0.8-1.9c0.4-1.1,1.1-1.9,1.5-3l-3.8-7.2v0.4c-0.8,1.5-1.9,2.7-2.7,4.2c-0.8,1.5-1.5,3-2.7,4.6
	c-0.8,1.1-1.5,2.7-1.9,3.8c0,0.4-0.4,0.4-0.4,0.8c-0.8,1.5-1.5,3.4-2.3,5c-0.8,1.9-1.5,3.4-1.9,5c0,0.8-0.4,1.9-0.4,2.7
	c-0.4,0.8-0.4,1.5-0.8,2.3c-0.4,1.9-1.1,3.8-1.5,5.7L39,73c0.4-1.1,1.1-2.7,1.5-3.8C40.5,69.2,40.5,68.8,40.9,68.5z"/>
<linearGradient id="SVGID_5_" gradientUnits="userSpaceOnUse" x1="-21311.7363" y1="-2551.1963" x2="-21306.7949" y2="-2551.1963" gradientTransform="matrix(1.8078 -3.8771 3.8771 1.8078 48443.3789 -77917.7969)">
	<stop  offset="0" style="stop-color:#282662"/>
	<stop  offset="9.500000e-02" style="stop-color:#662E8D"/>
	<stop  offset="0.788" style="stop-color:#9F2064"/>
	<stop  offset="0.949" style="stop-color:#CD2032"/>
</linearGradient>
<path class="st21" d="M35.2,66.2L34,73v0.4c-1.1-1.9-4.2-3.8-4.2-3.8c2.3,3,3.8,6.5,4.2,9.5c-1.1,0.4-2.7,0-4.6-0.8
	c1.9,1.9,3.4,2.3,4.2,2.3c-1.9,0-3.8,1.5-5.7,2.7c2.7-1.1,5-1.5,6.5-1.1c-2.7,7.2-5,15.2-7.6,23.6c0.8-0.4,1.1-0.8,1.5-1.5
	c0.4-1.5,3.4-11.4,8-24.8c0-0.4,0.4-0.8,0.4-1.1V78c0.4-1.5,1.1-2.7,1.5-4.2c0-0.4,0.4-0.8,0.4-1.1L35.2,66.2z"/>
<linearGradient id="SVGID_6_" gradientUnits="userSpaceOnUse" x1="-21313.4414" y1="-2549.0781" x2="-21304.0352" y2="-2549.0781" gradientTransform="matrix(1.8078 -3.8771 3.8771 1.8078 48443.3789 -77917.7969)">
	<stop  offset="0.323" style="stop-color:#9E2064"/>
	<stop  offset="0.63" style="stop-color:#C92037"/>
	<stop  offset="0.751" style="stop-color:#CD2335"/>
	<stop  offset="1" style="stop-color:#E97826"/>
</linearGradient>
<path class="st22" d="M54.2,39.1c0,0.4-0.4,0.4-0.4,0.8c-0.4,0.8-0.8,1.5-1.1,1.9l-1.1,2.3c0,0.4-0.4,0.8-0.4,1.1
	c-0.4,1.1-1.1,2.3-1.5,3.8c-0.8,1.5-1.5,3-2.3,5c-0.8,1.5-1.5,3.4-1.9,5c-0.8,1.5-1.5,3.4-1.9,5c-0.8,1.5-1.1,3-1.9,5v0.4
	c-0.8,1.5-1.1,3.4-1.9,5l3-0.4c3.4-0.4,8.4-3,11.4-6.5c1.5-1.5,2.7-3.4,3.8-5.3c0.8-1.5,1.5-3.4,2.7-5.3c0.8-1.5,1.5-3.4,1.9-5.3
	c-0.8,0.4-1.9,0.8-2.7,1.1h-1.1c3.4-1.1,5.3-3.8,6.9-6.9c-0.8,0.8-2.3,1.5-4.2,1.9h-0.8c1.1-0.4,2.3-1.1,3-1.5l0.4-0.4l0.8-0.8
	l0.4-0.4c0.4-0.4,0.8-0.8,0.8-1.1c0,0,0-0.4,0.4-0.4c0-0.4,0.4-0.4,0.4-0.8c0.4-0.8,0.8-1.9,1.1-2.7c0-0.4,0.4-0.8,0.4-1.1V38
	c0-0.4,0.4-0.8,0.4-0.8c0-0.4,0-0.8,0.4-1.1c0.4-0.4-0.4,0-0.4,0.4c-1.1,0.8-2.7,1.1-4.2,1.5l2.7-0.4l-3,0.4h-0.4L54.2,39.1z"/>
<linearGradient id="SVGID_7_" gradientUnits="userSpaceOnUse" x1="-21314.8906" y1="-2549.23" x2="-21305.4844" y2="-2549.23" gradientTransform="matrix(1.8078 -3.8771 3.8771 1.8078 48443.3789 -77917.7969)">
	<stop  offset="0.323" style="stop-color:#9E2064"/>
	<stop  offset="0.63" style="stop-color:#C92037"/>
	<stop  offset="0.751" style="stop-color:#CD2335"/>
	<stop  offset="1" style="stop-color:#E97826"/>
</linearGradient>
<path class="st23" d="M64.9,20.1c-0.8,1.1-1.9,2.7-2.7,4.2v0.4c-0.8,1.5-1.9,3-2.7,4.6c-0.8,1.5-1.5,3-2.7,5l-2.3,4.6l9.5-1.1
	c2.7-1.1,3.8-2.3,5-4.2c0.4-0.4,0.8-0.8,0.8-1.5c1.1-1.5,1.9-3,2.7-5c0.8-1.5,1.5-3,1.9-4.6c0.4-0.8,0.8-1.9,0.8-2.7
	s0.4-1.1,0.4-1.9C72.5,19.3,67.9,20.1,64.9,20.1L64.9,20.1z"/>
<g id="A">
</g>
</svg>
