<svg id="Capa_1" enable-background="new 0 0 512 512" height="512" viewBox="0 0 512 512" width="512" xmlns="http://www.w3.org/2000/svg"><g><circle cx="256" cy="256" fill="#665e66" r="256"/><path d="m428.5 66.85c41.523 45.505 66.85 106.043 66.85 172.5 0 19.475-2.183 38.439-6.305 56.667-.844 3.731-5.452 5.085-8.157 2.38-3.627-3.627-8.423-5.486-13.251-5.486-3.808 0-7.635 1.158-10.922 3.518l-16.26 11.679-3.239-19.756c-1.484-9.055-9.309-15.702-18.485-15.702h-34.079c-9.176 0-17.001 6.647-18.485 15.702l-3.239 19.756-16.26-11.679c-3.287-2.361-7.114-3.518-10.922-3.518-4.827 0-9.625 1.86-13.251 5.486l-24.098 24.098c-6.489 6.488-7.322 16.721-1.969 24.173l11.68 16.26-19.757 3.239c-9.055 1.484-15.701 9.309-15.701 18.485v34.079c0 9.176 6.647 17 15.701 18.485l19.757 3.239-11.68 16.26c-5.353 7.452-4.52 17.685 1.968 24.173 2.705 2.705 1.35 7.313-2.38 8.157-18.229 4.122-37.192 6.305-56.667 6.305-66.457 0-126.995-25.327-172.5-66.85 46.816 51.305 114.22 83.499 189.148 83.5 141.23.001 256.004-114.772 256.003-256.002-.001-74.927-32.195-142.333-83.5-189.148z" fill="#544f57"/><circle cx="256" cy="256" fill="#f6f9f9" r="208.13"/><path d="m460.604 294.281c-1.353.549-2.659 1.264-3.889 2.148l-10.865 7.804c-2.483 1.784-5.976.337-6.47-2.68l-2.164-13.2c-1.484-9.055-9.309-15.702-18.485-15.702h-34.079c-9.176 0-17.001 6.647-18.485 15.702l-2.164 13.2c-.494 3.017-3.987 4.464-6.47 2.68l-10.864-7.804c-3.287-2.361-7.114-3.518-10.922-3.518-4.827 0-9.625 1.86-13.251 5.486l-24.098 24.098c-6.489 6.488-7.322 16.721-1.969 24.173l7.804 10.864c1.784 2.483.337 5.976-2.68 6.47l-13.201 2.164c-9.055 1.484-15.701 9.309-15.701 18.485v34.079c0 9.176 6.647 17 15.701 18.485l13.201 2.164c3.017.495 4.464 3.987 2.68 6.471l-7.804 10.864c-.882 1.228-1.58 2.536-2.128 3.885 1.262-.235 2.523-.478 3.784-.729 81.184-16.671 145.124-80.614 161.79-161.801.25-1.261.494-2.524.729-3.788z" fill="#f1f4f6"/><path d="m436.271 151.921c-35.99-62.201-103.241-104.051-180.271-104.051-114.947 0-208.13 93.183-208.13 208.13h208.13z" fill="#e28086"/><g><path d="m256 111.791c-4.268 0-7.726-3.459-7.726-7.726v-20.813c0-4.267 3.459-7.726 7.726-7.726s7.726 3.459 7.726 7.726v20.813c0 4.267-3.458 7.726-7.726 7.726z" fill="#bed8fb"/></g><g><path d="m180.039 132.148c-2.67 0-5.268-1.386-6.698-3.865l-10.406-18.025c-2.134-3.696-.867-8.421 2.828-10.554 3.694-2.133 8.422-.868 10.554 2.828l10.406 18.025c2.134 3.696.867 8.421-2.828 10.554-1.216.703-2.545 1.037-3.856 1.037z" fill="#bed8fb"/></g><g><path d="m124.413 187.761c-1.311 0-2.639-.334-3.856-1.037l-18.025-10.406c-3.695-2.133-4.962-6.859-2.828-10.554 2.133-3.696 6.856-4.963 10.554-2.828l18.025 10.406c3.695 2.133 4.962 6.859 2.828 10.554-1.43 2.478-4.027 3.865-6.698 3.865z" fill="#bed8fb"/></g><g><path d="m104.065 263.726h-20.812c-4.268 0-7.726-3.459-7.726-7.726s3.459-7.726 7.726-7.726h20.813c4.268 0 7.726 3.459 7.726 7.726s-3.459 7.726-7.727 7.726z" fill="#bed8fb"/></g><g><path d="m106.402 350.102c-2.67 0-5.268-1.386-6.698-3.865-2.134-3.696-.867-8.421 2.828-10.554l18.025-10.406c3.693-2.134 8.422-.869 10.554 2.828 2.134 3.696.867 8.421-2.828 10.554l-18.025 10.406c-1.216.703-2.545 1.037-3.856 1.037z" fill="#bed8fb"/></g><g><path d="m169.619 413.332c-1.311 0-2.639-.334-3.856-1.037-3.695-2.133-4.962-6.859-2.828-10.554l10.406-18.025c2.132-3.696 6.857-4.963 10.554-2.828 3.695 2.133 4.962 6.859 2.828 10.554l-10.406 18.025c-1.431 2.479-4.028 3.865-6.698 3.865z" fill="#bed8fb"/></g><g><path d="m256 436.474c-4.268 0-7.726-3.459-7.726-7.726v-20.813c0-4.267 3.459-7.726 7.726-7.726s7.726 3.459 7.726 7.726v20.813c0 4.267-3.458 7.726-7.726 7.726z" fill="#bed8fb"/></g><g><path d="m428.747 263.726h-20.813c-4.268 0-7.726-3.459-7.726-7.726s3.459-7.726 7.726-7.726h20.813c4.268 0 7.726 3.459 7.726 7.726.001 4.267-3.458 7.726-7.726 7.726z" fill="#bed8fb"/></g><g><path d="m387.587 187.761c-2.67 0-5.268-1.386-6.698-3.865-2.134-3.696-.867-8.421 2.828-10.554l18.025-10.406c3.693-2.134 8.421-.868 10.554 2.828 2.134 3.696.867 8.421-2.828 10.554l-18.025 10.406c-1.217.703-2.546 1.037-3.856 1.037z" fill="#bed8fb"/></g><g><path d="m331.961 132.148c-1.311 0-2.639-.334-3.856-1.037-3.695-2.133-4.962-6.859-2.828-10.554l10.406-18.025c2.133-3.696 6.857-4.962 10.554-2.828 3.695 2.133 4.962 6.859 2.828 10.554l-10.406 18.025c-1.431 2.479-4.028 3.865-6.698 3.865z" fill="#bed8fb"/></g><g><path d="m256 378.198c-4.268 0-7.726-3.459-7.726-7.726v-93.658c0-4.267 3.459-7.726 7.726-7.726s7.726 3.459 7.726 7.726v93.658c0 4.266-3.458 7.726-7.726 7.726z" fill="#454045"/></g><g><path d="m241.283 249.01c-1.978 0-3.955-.754-5.464-2.263l-51.509-51.51c-3.017-3.017-3.017-7.909 0-10.927 3.019-3.018 7.91-3.018 10.928 0l51.509 51.51c3.017 3.017 3.017 7.909 0 10.927-1.51 1.508-3.487 2.263-5.464 2.263z" fill="#454045"/></g><g><g><g><path d="m512 413.48v-23.579c0-3.028-2.193-5.61-5.181-6.1l-23.838-3.908c-2.26-.37-4.115-1.966-4.852-4.133-1.142-3.356-2.499-6.613-4.055-9.755-1.019-2.058-.839-4.504.501-6.37l14.102-19.632c1.766-2.459 1.491-5.836-.65-7.977l-16.673-16.673c-2.141-2.141-5.518-2.416-7.977-.65l-19.632 14.102c-1.865 1.34-4.312 1.52-6.37.501-3.142-1.556-6.399-2.913-9.755-4.055-2.168-.738-3.763-2.593-4.133-4.852l-3.908-23.838c-.49-2.988-3.072-5.181-6.1-5.181h-23.579c-3.028 0-5.61 2.193-6.1 5.181l-3.908 23.838c-.37 2.26-1.966 4.115-4.133 4.852-3.356 1.142-6.613 2.499-9.755 4.055-2.058 1.019-4.504.839-6.37-.501l-19.632-14.102c-2.459-1.766-5.836-1.491-7.977.65l-16.673 16.673c-2.141 2.141-2.416 5.518-.65 7.977l14.102 19.632c1.34 1.865 1.52 4.312.501 6.37-1.556 3.142-2.913 6.399-4.055 9.755-.738 2.168-2.593 3.763-4.852 4.133l-23.838 3.908c-2.988.49-5.181 3.072-5.181 6.1v23.579c0 3.028 2.193 5.61 5.181 6.1l23.838 3.908c2.26.37 4.115 1.966 4.852 4.133 1.142 3.356 2.499 6.613 4.055 9.755 1.019 2.058.839 4.504-.501 6.37l-14.102 19.632c-1.766 2.459-1.491 5.836.65 7.977l16.673 16.673c2.141 2.141 5.518 2.416 7.977.65l19.632-14.102c1.865-1.34 4.312-1.52 6.37-.501 3.142 1.556 6.399 2.913 9.755 4.055 2.168.738 3.763 2.593 4.133 4.852l3.908 23.838c.49 2.988 3.072 5.181 6.1 5.181h23.579c3.028 0 5.61-2.193 6.1-5.181l3.908-23.838c.37-2.26 1.966-4.115 4.133-4.852 3.356-1.142 6.613-2.499 9.755-4.055 2.058-1.019 4.504-.839 6.37.501l19.632 14.102c2.459 1.766 5.836 1.491 7.977-.65l16.673-16.673c2.141-2.141 2.416-5.518.65-7.977l-14.102-19.632c-1.34-1.865-1.52-4.312-.501-6.37 1.556-3.142 2.913-6.399 4.055-9.755.738-2.168 2.593-3.763 4.852-4.133l23.838-3.908c2.988-.49 5.181-3.072 5.181-6.1zm-110.309 9.735c-11.887 0-21.524-9.637-21.524-21.524s9.637-21.524 21.524-21.524 21.524 9.637 21.524 21.524-9.637 21.524-21.524 21.524z" fill="#ffe07d"/></g></g><g><path d="m401.691 459.639c-31.953 0-57.949-25.995-57.949-57.948s25.996-57.948 57.949-57.948 57.949 25.995 57.949 57.948-25.996 57.948-57.949 57.948zm0-100.443c-23.433 0-42.496 19.063-42.496 42.495s19.063 42.495 42.496 42.495 42.496-19.063 42.496-42.495-19.063-42.495-42.496-42.495z" fill="#ffc250"/></g><path d="m506.819 383.802-23.838-3.908c-2.26-.37-4.115-1.966-4.852-4.134-.333-.98-.69-1.948-1.06-2.91.241 2.75.371 5.532.371 8.345 0 52.206-42.321 94.528-94.528 94.528-5.609 0-11.103-.492-16.443-1.428 3 1.461 6.099 2.748 9.292 3.835 2.168.738 3.763 2.592 4.134 4.852l3.908 23.838c.49 2.988 3.072 5.181 6.1 5.181h23.579c3.028 0 5.61-2.193 6.1-5.181l3.908-23.838c.37-2.26 1.966-4.115 4.133-4.852 3.356-1.142 6.613-2.499 9.755-4.055 2.058-1.019 4.505-.839 6.37.501l19.632 14.102c2.459 1.766 5.836 1.491 7.977-.65l16.673-16.673c2.141-2.141 2.416-5.518.65-7.977l-14.102-19.632c-1.34-1.865-1.52-4.312-.501-6.37 1.556-3.142 2.913-6.399 4.055-9.755.738-2.168 2.593-3.763 4.852-4.133l23.838-3.908c2.988-.49 5.181-3.072 5.181-6.1v-23.579c-.003-3.027-2.196-5.609-5.184-6.099z" fill="#ffd064"/></g><circle cx="256" cy="256" fill="#665e66" r="28.539"/></g></svg>