<?xml version="1.0" encoding="utf-8"?>
<!-- Generator: Adobe Illustrator 16.0.0, SVG Export Plug-In . SVG Version: 6.00 Build 0)  -->
<!DOCTYPE svg PUBLIC "-//W3C//DTD SVG 1.1//EN" "http://www.w3.org/Graphics/SVG/1.1/DTD/svg11.dtd">
<svg version="1.1" id="Layer_1" xmlns="http://www.w3.org/2000/svg" xmlns:xlink="http://www.w3.org/1999/xlink" x="0px" y="0px"
	 width="60px" height="60px" viewBox="0 0 60 60" enable-background="new 0 0 60 60" xml:space="preserve">
<g>
	<path fill="#52A1FF" d="M38.768,9.119C41.025,6.702,42.553,3.346,42.135,0c-3.252,0.116-7.194,1.909-9.529,4.326
		c-2.093,2.14-3.925,5.559-3.436,8.839C32.799,13.411,36.507,11.532,38.768,9.119z M45.695,32.228
		c-0.07-7.502,5.939-11.104,6.205-11.279c-3.378-5.094-8.639-5.792-10.513-5.87c-4.479-0.47-8.735,2.713-11.009,2.713
		c-2.265,0-5.769-2.651-9.484-2.58c-4.885,0.08-9.385,2.924-11.894,7.432C3.927,31.713,7.7,45.146,12.645,52.502
		c2.417,3.601,5.295,7.641,9.074,7.494c3.648-0.146,5.023-2.426,9.424-2.426c4.402,0,5.636,2.426,9.488,2.353
		c3.919-0.073,6.4-3.67,8.796-7.282c2.772-4.176,3.916-8.22,3.981-8.424C53.324,44.168,45.775,41.198,45.695,32.228z"/>
</g>
</svg>
