<?xml version="1.0" encoding="utf-8"?>
<!-- Generator: Adobe Illustrator 24.1.0, SVG Export Plug-In . SVG Version: 6.00 Build 0)  -->
<svg version="1.1" id="Capa_1" xmlns="http://www.w3.org/2000/svg" xmlns:xlink="http://www.w3.org/1999/xlink" x="0px" y="0px"
	 viewBox="0 0 512 512" style="enable-background:new 0 0 512 512;" xml:space="preserve">
<style type="text/css">
	.st0{fill:#005C76;}
</style>
<g>
	<path class="st0" d="M27.6,225.8h0.3l6.7,19H21L27.6,225.8 M35.7,269.5H61v-2.9c-4.9-0.6-6.4-1-9.6-9.7
		c-3.5-9.3-7.6-20.3-11.4-31.2l-6.1-17.1l-4.5,1.2l-18.6,47.4c-3.2,8.3-4.4,8.7-9.9,9.4v2.9h20.8v-2.9l-2.3-0.3
		c-4.3-0.5-4.4-1.5-3.1-6.1c1.2-4,2.4-8,3.5-10.7h16.3c1.4,3.4,3.1,8.2,4.3,11.3c1.6,4,1.1,5-2.3,5.5l-2.4,0.3V269.5z"/>
	<path class="st0" d="M87.4,237.4c0-3.4-0.4-4-2.8-4.4l-2.9-0.5v-2.7c4.6-0.2,12.6-1.1,17-1.7v31.3c0,3.8,0.4,4.9,3.3,4.9h2.9v2.8
		c-5.5,0.8-11.4,2.1-16.7,3.4l-0.7-0.6v-5.9c-1.7,1.3-3.3,2.5-5.3,3.7c-2.9,1.7-5.2,2.7-8.1,2.7c-7.7,0-11.9-5.1-11.9-12.2v-20.9
		c0-3.4-0.4-4-2.8-4.4l-2.5-0.5v-2.7c4.2-0.2,11.8-1.1,16.6-1.7V256c0,5.4,2.8,7.5,6.2,7.5c2.6,0,5.2-1.2,7.8-3.5V237.4"/>
	<path class="st0" d="M121.4,255.9c0,7.1,3.5,8.4,5.2,8.4c1.5,0,3-0.5,4.8-1.5l1.3,2.8l-7.9,4c-1.5,0.7-2.8,1-3.5,1
		c-7.1,0-11.1-3.1-11.1-11.3v-25.6h-5.9l-0.6-1.2l3-3.5h3.6v-5.6l9.7-7.3l1.6,0.8v12.1h9.1c1.2,1,1,4-0.6,4.7h-8.5V255.9"/>
	<path class="st0" d="M151.2,233.7c3.1-3.1,7.8-5.9,12.6-5.9c8.4,0,13,5.3,13,13.9v18.7c0,5.2,0.5,5.5,5.6,6.1v2.9h-21.7v-2.9
		c4.5-0.6,4.8-1,4.8-6.1v-17.7c0-5.7-3.2-8.1-7-8.1c-2.5,0-5.2,0.9-7.3,3v22.8c0,5.2,0.4,5.5,4.3,6.1v2.9h-22.2v-2.9
		c6.2-0.6,6.6-1,6.6-6.1v-44.6c0-5.5-0.2-5.6-6-5.9v-2.7c4.1-0.6,11.2-2,17.3-3.2V233.7"/>
	<path class="st0" d="M196.7,246.5c0-10,3.9-14.9,7.7-14.9c5.9,0,9.4,7.1,9.4,19.4c0,13.3-4.1,15.6-7.5,15.6
		C200.4,266.7,196.7,258.1,196.7,246.5 M205.7,227.8c-10.4,0-21.8,7.8-21.8,22.4c0,9.9,7.1,20.3,21.3,20.3
		c10.6,0,21.2-7.2,21.2-22.3C226.5,237.5,218.6,227.8,205.7,227.8z"/>
	<path class="st0" d="M246.2,260.5c0,5.2,0.4,5.5,7.5,6.1v2.9h-25.1v-2.9c5.8-0.6,6.3-1,6.3-6.1V240c0-5.6-0.2-5.7-6.1-6.4v-2.5
		c5.4-0.8,11.3-2,17.4-3.3v9.2h0.2c1.2-1.9,2.6-4.1,4.3-5.9c1.8-1.9,3.8-3.3,6.1-3.3c3.5,0,6.2,2.6,6.2,5.6c0,3.1-2,5.7-4.4,6.5
		c-1.2,0.5-2.1,0.2-2.8-0.4c-1.5-1.2-3.1-1.9-4.6-1.9c-1.6,0-3.4,0.7-5,4.5V260.5"/>
	<path class="st0" d="M270.3,240c0-5.6-0.2-5.7-6.1-6.4v-2.5c5.4-0.8,11.5-2,17.4-3.3v32.5c0,5.3,0.5,5.6,6.3,6.3v2.9h-24v-2.9
		c5.9-0.6,6.4-1,6.4-6.3V240 M281.9,213.3c0,3.7-3,6.7-6.7,6.7c-3.6,0-6.7-2.9-6.7-6.7c0-3.8,3.1-6.7,6.7-6.7
		C278.9,206.6,281.9,209.5,281.9,213.3z"/>
	<path class="st0" d="M324.6,228.9l0.8,1.3l-21.2,35.3h7.3c6.3,0,8.8-1.2,11.9-6.4l1.4-2.3l3.3,1.2c-1.7,4.6-2.8,8-4.2,11.4h-33.3
		l-0.9-1.4l21.9-35.3H305c-6.1,0-7.7,1.4-9.8,5.9l-1.3,2.8l-3.3-1.2c1.1-3.5,2.5-9.3,3.4-13.4h2c0.5,1.4,1.5,1.9,5,1.9H324.6"/>
	<path class="st0" d="M338.8,243.1c0.5-6.3,4-11,7.4-11c3.5,0,6.4,4.8,6.4,8.6c0,1.8-0.4,2.2-1.7,2.2L338.8,243.1 M361.6,258.8
		c-3.7,2.5-6.6,3.6-10,3.6c-7,0-13.3-4.8-13.3-15.1c9.2-0.4,21.5-1.2,22.7-1.5c1.8-0.4,2.1-0.6,2.1-4c0-7.1-6.4-13.9-14.4-13.9
		c-11.2,0-21.2,9.9-21.2,23.2c0,10.3,7.2,19.5,19.6,19.5c3.2,0,10.4-1.9,15.7-9.9L361.6,258.8z"/>
	<path class="st0" d="M366.2,263.3c0-4.2,3-7.2,7-7.2c4,0,7.1,3.1,7.1,7.2c0,4.3-3,7.2-7.1,7.2C369.2,270.5,366.2,267.6,366.2,263.3
		"/>
	<path class="st0" d="M439.7,270.2h-5.6l-36.7-45h-0.2v19.1c0,9.7,0.6,14.8,0.9,17.7c0.5,3.2,2.8,4.4,8.9,4.7v2.9h-22.9v-2.9
		c4.6-0.2,6.8-1.5,7.3-4.7c0.4-2.9,1-8,1-17.7V226c0-5.9,0-8.1-1.7-10.3c-1.8-2.2-4.1-2.8-7.8-3.1v-2.9h16l35.7,41.5h0.2v-16.3
		c0-9.7-0.5-14.8-0.9-17.7c-0.5-3.2-2.8-4.4-8.9-4.7v-2.9h22.9v2.9c-4.6,0.2-6.8,1.4-7.3,4.7c-0.4,2.9-0.9,8-0.9,17.7V270.2"/>
	<path class="st0" d="M454,243.1c0.5-6.3,4-11,7.4-11c3.5,0,6.4,4.8,6.4,8.6c0,1.8-0.3,2.2-1.7,2.2L454,243.1 M476.9,258.8
		c-3.7,2.5-6.6,3.6-10,3.6c-7,0-13.3-4.8-13.3-15.1c9.1-0.4,21.4-1.2,22.7-1.5c1.8-0.4,2.1-0.6,2.1-4c0-7.1-6.3-13.9-14.4-13.9
		c-11.3,0-21.2,9.9-21.2,23.2c0,10.3,7.2,19.5,19.6,19.5c3.2,0,10.5-1.9,15.7-9.9L476.9,258.8z"/>
	<path class="st0" d="M496.4,255.9c0,7.1,3.5,8.4,5.2,8.4c1.4,0,3-0.5,4.8-1.5l1.3,2.8l-7.9,4c-1.5,0.7-2.8,1-3.5,1
		c-7.1,0-11.1-3.1-11.1-11.3v-25.6h-5.9l-0.6-1.2l3-3.5h3.5v-5.6l9.7-7.3l1.6,0.8v12.1h9.1c1.2,1,1,4-0.6,4.7h-8.5V255.9"/>
	<path class="st0" d="M507.4,225.6c-0.8,0-1.6-0.2-2.3-0.6c-0.7-0.4-1.3-1-1.7-1.7c-0.4-0.7-0.6-1.5-0.6-2.4c0-0.8,0.2-1.6,0.6-2.3
		c0.4-0.7,1-1.3,1.7-1.7c0.7-0.4,1.5-0.6,2.3-0.6c0.8,0,1.6,0.2,2.3,0.6c0.7,0.4,1.3,1,1.7,1.7c0.4,0.7,0.6,1.5,0.6,2.3
		c0,0.8-0.2,1.6-0.6,2.4c-0.4,0.7-1,1.3-1.7,1.7C508.9,225.4,508.2,225.6,507.4,225.6 M507.4,224.9c0.7,0,1.3-0.2,1.9-0.5
		c0.6-0.3,1.1-0.8,1.5-1.4c0.4-0.6,0.5-1.3,0.5-2c0-0.7-0.2-1.4-0.5-2c-0.4-0.6-0.8-1.1-1.4-1.4c-0.6-0.4-1.3-0.5-2-0.5
		c-0.7,0-1.3,0.2-1.9,0.5c-0.6,0.3-1.1,0.8-1.5,1.4c-0.3,0.6-0.5,1.3-0.5,2c0,0.7,0.2,1.4,0.5,2c0.4,0.6,0.9,1.1,1.5,1.4
		C506,224.7,506.7,224.9,507.4,224.9z M506.5,223.7h-0.9v-5.6h1.8c0.4,0,0.8,0.1,1,0.2c0.2,0.1,0.4,0.3,0.5,0.6
		c0.1,0.2,0.2,0.5,0.2,0.8c0,0.3-0.1,0.6-0.3,0.9c-0.2,0.3-0.5,0.5-0.8,0.7c0.2,0.1,0.4,0.4,0.6,0.8l0.9,1.6h-1l-0.7-1.4l-0.2-0.4
		c-0.2-0.4-0.4-0.6-0.5-0.6h-0.7V223.7z M506.5,220.7h0.6c0.4,0,0.7-0.1,0.8-0.3c0.2-0.2,0.2-0.5,0.2-0.7c0-0.2,0-0.3-0.1-0.4
		c-0.1-0.1-0.2-0.2-0.3-0.3c-0.1-0.1-0.3-0.1-0.7-0.1h-0.7V220.7z"/>
</g>
</svg>
