<svg width="24" height="24" viewBox="0 0 24 24" fill="none" xmlns="http://www.w3.org/2000/svg">
<path d="M1 7.41602V19.3327C1 20.062 1.28973 20.7615 1.80546 21.2772C2.32118 21.793 3.02065 22.0827 3.75 22.0827H20.25C20.9793 22.0827 21.6788 21.793 22.1945 21.2772C22.7103 20.7615 23 20.062 23 19.3327V7.41602M1 7.41602V4.66602C1 3.93667 1.28973 3.2372 1.80546 2.72147C2.32118 2.20575 3.02065 1.91602 3.75 1.91602H20.25C20.9793 1.91602 21.6788 2.20575 22.1945 2.72147C22.7103 3.2372 23 3.93667 23 4.66602V7.41602M1 7.41602H23M3.75 4.66602H3.75978V4.67579H3.75V4.66602ZM6.5 4.66602H6.50978V4.67579H6.5V4.66602ZM9.25 4.66602H9.25978V4.67579H9.25V4.66602Z" stroke="#475BF1" stroke-linecap="round" stroke-linejoin="round"/>
<rect x="3" y="9.5" width="8" height="2" rx="1" fill="#475BF1"/>
<rect x="13" y="9.5" width="8" height="10" rx="1" fill="#475BF1"/>
<rect x="3" y="13.5" width="8" height="2" rx="1" fill="#475BF1"/>
<rect x="3" y="17.5" width="8" height="2" rx="1" fill="#475BF1"/>
</svg>
