<?xml version="1.0" encoding="utf-8"?>
<!-- Generator: Adobe Illustrator 24.1.0, SVG Export Plug-In . SVG Version: 6.00 Build 0)  -->
<svg version="1.1" id="Layer_1" xmlns="http://www.w3.org/2000/svg" xmlns:xlink="http://www.w3.org/1999/xlink" x="0px" y="0px"
	 viewBox="0 0 366.7 366.7" style="enable-background:new 0 0 366.7 366.7;" xml:space="preserve">
<style type="text/css">
	.st0{fill:#8C3123;}
	.st1{fill:#E05243;}
	.st2{fill:#5E1F18;}
	.st3{fill:#F2B0A9;}
</style>
<g id="XMLID_1_">
	<polyline id="XMLID_2_" class="st0" points="56.7,64.2 32.4,76.4 32.4,289.9 56.7,302 56.9,301.8 56.9,64.4 56.7,64.2 	"/>
	<polyline id="XMLID_3_" class="st1" points="186.9,271 56.7,302 56.7,64.2 186.9,94.5 186.9,271 	"/>
	<polyline id="XMLID_4_" class="st0" points="128.2,222.5 183.4,229.5 183.7,228.7 184.1,138.2 183.4,137.5 128.2,144.4 
		128.2,222.5 	"/>
	<polyline id="XMLID_5_" class="st0" points="183.4,271.4 310,302.1 310.2,301.8 310.2,64.4 310,64.2 183.4,94.9 183.4,271.4 	"/>
	<polyline id="XMLID_6_" class="st1" points="238.6,222.5 183.4,229.5 183.4,137.5 238.6,144.4 238.6,222.5 	"/>
	<polyline id="XMLID_7_" class="st2" points="238.6,106.6 183.4,116.7 128.2,106.6 183.3,92.2 238.6,106.6 	"/>
	<polyline id="XMLID_8_" class="st3" points="238.6,260.2 183.4,250 128.2,260.2 183.3,275.6 238.6,260.2 	"/>
	<polyline id="XMLID_9_" class="st0" points="128.2,106.6 183.4,93 183.8,92.8 183.8,1.3 183.4,0.9 128.2,28.5 128.2,106.6 	"/>
	<polyline id="XMLID_10_" class="st1" points="238.6,106.6 183.4,93 183.4,0.9 238.6,28.5 238.6,106.6 	"/>
	<polyline id="XMLID_11_" class="st0" points="183.4,365.9 128.2,338.3 128.2,260.2 183.4,273.8 184.2,274.8 184,364.3 183.4,365.9 
			"/>
	<polyline id="XMLID_12_" class="st1" points="183.4,365.9 238.6,338.3 238.6,260.2 183.4,273.8 183.4,365.9 	"/>
	<polyline id="XMLID_13_" class="st1" points="310,64.2 334.4,76.4 334.4,289.9 310,302.1 310,64.2 	"/>
</g>
</svg>
