<?xml version="1.0" encoding="utf-8"?>
<!-- Generator: Adobe Illustrator 24.1.0, SVG Export Plug-In . SVG Version: 6.00 Build 0)  -->
<svg version="1.1" id="Layer_1" xmlns="http://www.w3.org/2000/svg" xmlns:xlink="http://www.w3.org/1999/xlink" x="0px" y="0px"
	 viewBox="0 0 141.7 141.7" style="enable-background:new 0 0 141.7 141.7;" xml:space="preserve">
<style type="text/css">
	.st0{fill:#FE9800;}
	.st1{fill:#FEFEFE;}
</style>
<path class="st0" d="M7.9,70.8c0-8.7-0.1-17.4,0-26.1c0.1-6.7,3-11.9,8.7-15.2c14.9-8.7,29.8-17.2,44.7-25.8
	c3.2-1.9,6.7-2.9,10.4-2.7c2.9,0.1,5.5,0.9,8,2.4c15.1,8.7,30.2,17.4,45.2,26.2c5.8,3.4,8.8,8.6,8.8,15.3c0.1,17.4,0.1,34.8,0,52.3
	c0,6.7-3,11.9-8.7,15.2c-11.5,6.8-23.1,13.4-34.7,20.1c-3.6,2.1-7.1,4.2-10.7,6.2c-5.8,3.2-11.8,3.4-17.6,0.1
	C47,129.8,31.8,121,16.7,112.2c-5.8-3.4-8.7-8.6-8.8-15.4C7.9,88.1,7.9,79.4,7.9,70.8C7.9,70.8,7.9,70.8,7.9,70.8z"/>
<path class="st1" d="M59.1,70.9c0-4.9,0-9.9,0-14.8c0-0.3,0-0.6,0-0.9c0.1-2.2,2.3-3.4,4.2-2.3c3,1.7,5.9,3.4,8.8,5.1
	c6.1,3.5,12.1,7,18.2,10.5c1.4,0.8,2,2,1.5,3.4c-0.2,0.7-0.7,1.3-1.3,1.6c-9,5.2-18,10.4-27.1,15.6c-2.1,1.2-4.3-0.1-4.3-2.6
	C59,81.2,59.1,76,59.1,70.9z"/>
<path class="st1" d="M54.5,87.8c0,1.9,0,3.8,0,5.7c0,1.1-0.5,2-1.4,2.5c-3.3,1.9-6.7,3.9-10,5.8c-1,0.6-2,0.5-2.9,0
	c-3.3-1.9-6.6-3.8-10-5.8c-1-0.6-1.5-1.4-1.5-2.5c0-3.8,0-7.6,0-11.4c0-1.1,0.5-2,1.4-2.6c3.4-2,6.8-3.9,10.1-5.9
	c0.9-0.5,1.8-0.5,2.7,0c3.4,1.9,6.7,3.9,10.1,5.8c1,0.6,1.4,1.4,1.4,2.6C54.5,84,54.5,85.9,54.5,87.8z"/>
<path class="st1" d="M113,87.8c0,1.9,0,3.8,0,5.7c0,1.2-0.5,2-1.5,2.6c-3.3,1.9-6.6,3.8-10,5.8c-1,0.6-2,0.6-2.9,0
	c-3.3-1.9-6.7-3.8-10-5.8c-1-0.6-1.4-1.4-1.4-2.6c0-3.8,0-7.6,0-11.4c0-1.1,0.5-2,1.4-2.6c3.4-1.9,6.7-3.9,10.1-5.8
	c0.9-0.5,1.9-0.5,2.8,0c3.3,1.9,6.7,3.8,10,5.8c1,0.6,1.5,1.5,1.5,2.6C113,84,113,85.9,113,87.8z"/>
<path class="st1" d="M58,37.1c0-1.9,0-3.8,0-5.7c0-1.1,0.5-2,1.4-2.5c3.4-1.9,6.7-3.9,10.1-5.8c0.9-0.5,1.9-0.5,2.8,0
	c3.3,1.9,6.7,3.9,10,5.8c1,0.6,1.5,1.4,1.5,2.5c0,3.9,0,7.8,0,11.7c0,1.1-0.5,1.9-1.5,2.5c-3.3,1.9-6.6,3.8-9.9,5.7
	c-1,0.6-2,0.6-3.1,0c-3.3-1.9-6.6-3.8-9.8-5.7c-1.1-0.6-1.6-1.5-1.6-2.8C58,40.9,58,39,58,37.1z"/>
<path class="st1" d="M68.1,111.4c0-0.2,0-0.5,0-0.7c0-4,0-8,0-11.9c0-0.4,0-0.7,0-1.1c0.2-1.5,1.5-2.4,3-2.4
	c1.3,0.1,2.5,1.2,2.6,2.6c0.1,1.1,0,2.2,0,3.3c0,3.4,0,6.7,0,10.1c0.3,0.1,0.5-0.1,0.6-0.2c3.6-2.1,7.1-4.1,10.7-6.2
	c1.5-0.9,3.2-0.4,4,1c0.7,1.4,0.3,3-1.2,3.8c-4.3,2.5-8.6,5-12.9,7.4c-0.8,0.5-1.6,0.9-2.4,1.4c-1,0.6-2.1,0.6-3.1,0
	c-5-2.9-9.9-5.7-14.9-8.6c-1.4-0.8-1.9-2.5-1.1-3.9c0.8-1.4,2.4-1.8,3.9-1c3.4,1.9,6.8,3.9,10.1,5.8
	C67.6,111.2,67.7,111.4,68.1,111.4z"/>
<path class="st1" d="M104.6,48.2c-1.5-0.9-3-1.7-4.4-2.6C98.1,44.4,96,43.3,94,42c-1.5-0.9-2-2.5-1.2-3.9c0.8-1.4,2.5-1.8,4-0.9
	c4.9,2.8,9.8,5.6,14.6,8.4c1.1,0.6,1.6,1.5,1.6,2.8c0,5.5,0,11,0,16.5c0,1.8-1.1,3.1-2.7,3.1c-1.6,0-2.8-1.3-2.9-3.1
	c0-3.8,0-7.6,0-11.5c0-0.1,0-0.3,0-0.5c-0.5,0.3-0.8,0.5-1.2,0.7c-3.4,1.9-6.7,3.9-10.1,5.8c-1.5,0.9-3.2,0.5-4-0.9
	c-0.8-1.4-0.3-3,1.2-3.9c3.6-2.1,7.1-4.1,10.7-6.2C104.2,48.5,104.4,48.4,104.6,48.2z"/>
<path class="st1" d="M34.3,53.1c0,4,0,7.9,0,11.8c0,0.9-0.2,1.8-0.9,2.4c-0.9,0.8-1.9,1.1-3,0.6c-1.1-0.4-1.8-1.3-1.8-2.5
	c0-5.8,0-11.5,0-17.3c0-1,0.5-1.8,1.4-2.3c5-2.9,10-5.8,15.1-8.7c1.4-0.8,3.1-0.3,3.8,1.1c0.8,1.4,0.3,3-1.1,3.8
	c-3.3,1.9-6.6,3.8-10,5.8c-0.3,0.1-0.6,0.2-0.8,0.5c3.5,2,7,4.1,10.5,6.1c0.7,0.4,1.3,0.9,1.5,1.7c0.4,1.1,0,2.3-0.9,3
	c-0.9,0.7-2,0.9-3.1,0.3c-1.8-1-3.6-2.1-5.5-3.1C38,55.2,36.2,54.1,34.3,53.1z"/>
<path class="st0" d="M64.7,81.8c0-7.3,0-14.5,0-21.8c6.3,3.6,12.5,7.2,18.9,10.9C77.3,74.6,71,78.2,64.7,81.8z"/>
<path class="st0" d="M48.9,87.8c0,1.2,0,2.4,0,3.6c0,0.4-0.1,0.6-0.5,0.8c-2.1,1.2-4.3,2.4-6.4,3.7c-0.3,0.2-0.6,0.2-1,0
	c-2.1-1.3-4.3-2.5-6.4-3.7c-0.3-0.2-0.4-0.4-0.4-0.7c0-2.5,0-5,0-7.5c0-0.4,0.1-0.6,0.4-0.8c2.2-1.2,4.3-2.5,6.5-3.7
	c0.3-0.2,0.5-0.1,0.8,0c2.1,1.2,4.2,2.5,6.4,3.7c0.4,0.2,0.5,0.4,0.5,0.9C48.9,85.4,48.9,86.6,48.9,87.8z"/>
<path class="st0" d="M107.4,87.9c0,1.2,0,2.5,0,3.7c0,0.3-0.1,0.5-0.4,0.7c-2.2,1.2-4.3,2.5-6.5,3.8c-0.3,0.2-0.5,0.2-0.8,0
	c-2.2-1.3-4.3-2.5-6.5-3.8c-0.3-0.2-0.4-0.4-0.4-0.7c0-2.5,0-5,0-7.5c0-0.4,0.1-0.6,0.5-0.8c2.2-1.2,4.3-2.5,6.4-3.7
	c0.3-0.2,0.6-0.2,0.9,0c2.1,1.2,4.2,2.5,6.4,3.7c0.4,0.2,0.5,0.5,0.5,0.9C107.4,85.4,107.4,86.6,107.4,87.9z"/>
<path class="st0" d="M78.2,37.2c0,1.2,0,2.5,0,3.7c0,0.4-0.1,0.6-0.4,0.8c-2.2,1.2-4.3,2.5-6.5,3.7c-0.3,0.2-0.5,0.2-0.8,0
	c-2.2-1.3-4.3-2.5-6.5-3.7c-0.3-0.2-0.4-0.4-0.4-0.7c0-2.5,0-5,0-7.5c0-0.4,0.1-0.6,0.4-0.8c2.2-1.2,4.3-2.5,6.4-3.7
	c0.3-0.2,0.6-0.2,0.9,0c2.1,1.3,4.3,2.5,6.4,3.7c0.3,0.2,0.4,0.4,0.4,0.8C78.2,34.7,78.2,35.9,78.2,37.2z"/>
</svg>
