<?xml version="1.0" encoding="utf-8"?>
<!-- Generator: Adobe Illustrator 24.1.0, SVG Export Plug-In . SVG Version: 6.00 Build 0)  -->
<svg version="1.1" id="Layer_1" xmlns="http://www.w3.org/2000/svg" xmlns:xlink="http://www.w3.org/1999/xlink" x="0px" y="0px"
	 viewBox="0 0 141.7 141.7" style="enable-background:new 0 0 141.7 141.7;" xml:space="preserve">
<style type="text/css">
	.st0{fill:#4286F5;}
</style>
<g>
	<g>
		<path class="st0" d="M34.1,123c-8.2,0-14.9-6.7-14.9-14.9c0-8.2,6.7-14.9,14.9-14.9c8.2,0,14.9,6.7,14.9,14.9
			C48.9,116.3,42.3,123,34.1,123z M34.1,100.4c-4.2,0-7.7,3.4-7.7,7.7c0,4.2,3.4,7.7,7.7,7.7c4.2,0,7.7-3.4,7.7-7.7
			C41.7,103.9,38.3,100.4,34.1,100.4z"/>
	</g>
</g>
<g>
	<g>
		<path class="st0" d="M71.4,141.7c-8.2,0-14.9-6.7-14.9-14.9c0-8.2,6.7-14.9,14.9-14.9c8.2,0,14.9,6.7,14.9,14.9
			C86.3,135.1,79.6,141.7,71.4,141.7z M71.4,119.2c-4.2,0-7.7,3.4-7.7,7.7c0,4.2,3.4,7.7,7.7,7.7c4.2,0,7.7-3.4,7.7-7.7
			C79.1,122.6,75.6,119.2,71.4,119.2z"/>
	</g>
</g>
<g>
	<g>
		<path class="st0" d="M108.4,123c-8.2,0-14.9-6.7-14.9-14.9c0-8.2,6.7-14.9,14.9-14.9s14.9,6.7,14.9,14.9
			C123.2,116.3,116.6,123,108.4,123z M108.4,100.4c-4.2,0-7.7,3.4-7.7,7.7c0,4.2,3.4,7.7,7.7,7.7s7.7-3.4,7.7-7.7
			C116,103.9,112.6,100.4,108.4,100.4z"/>
	</g>
</g>
<g>
	<g>
		<rect x="30.7" y="73.2" class="st0" width="6.8" height="23.7"/>
	</g>
</g>
<g>
	<g>
		<rect x="68" y="72.9" class="st0" width="6.8" height="42.6"/>
	</g>
</g>
<g>
	<g>
		<rect x="105" y="73.2" class="st0" width="6.8" height="23.7"/>
	</g>
</g>
<path class="st0" d="M138.3,36.4c-2.8-9.2-9.6-13.6-18.7-15.6c-4.6-1-9.5-1.5-14.3-1.3c-0.2,0-1.9-3-2.1-3.4
	c-3.2-4.5-7.2-9-12.2-11.7C86.4,2,81.2,0.9,76,0.3c-8.1-0.9-16.5,0.1-23.5,4.4c-4.3,2.6-8.1,6.2-11,10.3c-0.2,0.3-3.3,5.6-3.2,5.6
	c-4.1-1.1-8.4-1.4-12.6-0.8C18.5,20.9,12.1,24.7,7.2,30C0.6,37,0,50.7,4.5,59c2.5,4.7,6.6,8.3,11.1,11c2,1.2,3.6,2.3,5.9,2.7
	c3,0.5,6.1,0.5,9.2,0.6c0,0,0,0,0,0V53.3c-2.5-1.2-4.2-3.8-4.2-6.8c0-4.2,3.4-7.6,7.6-7.6s7.6,3.4,7.6,7.6c0,3-1.7,5.5-4.2,6.8v19.9
	c3.7-0.1,7.5-0.2,11.2-0.2c6.5,0,12.9,0,19.4,0V41.7c-2.5-1.2-4.2-3.8-4.2-6.8c0-4.2,3.4-7.6,7.6-7.6s7.6,3.4,7.6,7.6
	c0,3-1.7,5.5-4.2,6.8v31.3c0.1,0,0.1,0,0.2,0c10,0,20-0.2,30-0.1V53.3c-2.5-1.2-4.2-3.8-4.2-6.8c0-4.2,3.4-7.6,7.6-7.6
	s7.6,3.4,7.6,7.6c0,3-1.7,5.5-4.2,6.8V73c0.6,0,1.1,0,1.7,0c9.5,0.3,19.2-2.6,23.8-11.7C141.1,53.7,140.7,44.4,138.3,36.4z"/>
</svg>
