<?xml version="1.0" encoding="utf-8"?>
<!-- Generator: Adobe Illustrator 24.1.0, SVG Export Plug-In . SVG Version: 6.00 Build 0)  -->
<svg version="1.1" id="Layer_1" xmlns="http://www.w3.org/2000/svg" xmlns:xlink="http://www.w3.org/1999/xlink" x="0px" y="0px"
	 viewBox="0 0 1417.3 1417.3" style="enable-background:new 0 0 1417.3 1417.3;" xml:space="preserve">
<style type="text/css">
	.st0{fill:#F58D11;}
</style>
<path class="st0" d="M413.5,862l-129.8,55.8l120.3,51.4l139.4-51.4L413.5,862L413.5,862z M218.3,931.8l-4.4,251l190,83.7v-260.6
	L218.3,931.8L218.3,931.8z M608.7,931.8l-171.7,65.4v245.7l171.7-69.7V931.8L608.7,931.8z M813.5,150.9l-130.7,55.8l121.1,51.4
	l139.4-51.4L813.5,150.9L813.5,150.9z M632.3,225v251l162.1,47.1l5.2-228.3L632.3,225L632.3,225z M994.8,239l-153.4,65.4V551
	l153.4-69.7L994.8,239L994.8,239z M199.6,504.2L69.7,559.9L190,611.4l139.4-51.4L199.6,504.2L199.6,504.2z M4.4,573.9L0,824.9
	l190,83.7V648L4.4,573.9z M394.8,573.9l-171.7,65.4V885l171.7-69.7V573.9z M617.9,494.9L488,550.7l120.3,51.4l139.4-51.4
	L617.9,494.9L617.9,494.9z M422.7,564.6l-4.4,251l190,83.7V638.7L422.7,564.6z M813.1,564.6L641.4,630v245.7L813.1,806V564.6
	L813.1,564.6z M1222.1,150.9l-129.8,55.8l120.3,51.4l139.4-51.4L1222.1,150.9L1222.1,150.9z M1026.9,220.6l-4.3,251l190,83.7V294.7
	C1212.5,294.7,1026.9,220.6,1026.9,220.6z M1417.3,220.6L1245.6,286v245.7l171.7-69.7C1417.3,462,1417.3,220.6,1417.3,220.6z"/>
</svg>
