<?xml version="1.0" encoding="utf-8"?>
<!-- Generator: Adobe Illustrator 24.1.0, SVG Export Plug-In . SVG Version: 6.00 Build 0)  -->
<svg version="1.1" id="Layer_1" xmlns="http://www.w3.org/2000/svg" xmlns:xlink="http://www.w3.org/1999/xlink" x="0px" y="0px"
	 viewBox="0 0 141.7 141.7" style="enable-background:new 0 0 141.7 141.7;" xml:space="preserve">
<style type="text/css">
	.st0{fill:#F69121;}
</style>
<g>
	<path class="st0" d="M71.9,140.2c-21.4,0-41.2-9.7-54.3-26.7l4.9-3.8C34.4,125.2,52.4,134,71.9,134c34.3,0,62.2-27.9,62.2-62.2
		c0-19.7-9-37.9-24.8-49.7l3.7-5c17.3,13.1,27.3,33,27.3,54.7C140.3,109.5,109.6,140.2,71.9,140.2z"/>
</g>
<g>
	<path class="st0" d="M102.8,28.3c-7.5,0-13.7-6.1-13.7-13.7S95.3,1,102.8,1s13.7,6.1,13.7,13.7S110.3,28.3,102.8,28.3z M102.8,7.2
		c-4.1,0-7.5,3.3-7.5,7.5s3.3,7.5,7.5,7.5c4.1,0,7.5-3.3,7.5-7.5S106.9,7.2,102.8,7.2z"/>
</g>
<g>
	<path class="st0" d="M28.4,42.3c-7.5,0-13.7-6.1-13.7-13.7S20.9,15,28.4,15s13.7,6.1,13.7,13.7S35.9,42.3,28.4,42.3z M28.4,21.2
		c-4.1,0-7.5,3.3-7.5,7.5c0,4.1,3.3,7.5,7.5,7.5s7.5-3.3,7.5-7.5C35.9,24.5,32.5,21.2,28.4,21.2z"/>
</g>
<g>
	<path class="st0" d="M14.7,117.1C7.1,117.1,1,111,1,103.4c0-7.5,6.1-13.7,13.7-13.7s13.7,6.1,13.7,13.7
		C28.3,111,22.2,117.1,14.7,117.1z M14.7,95.9c-4.1,0-7.5,3.3-7.5,7.5s3.3,7.5,7.5,7.5s7.5-3.4,7.5-7.5S18.8,95.9,14.7,95.9z"/>
</g>
<g>
	<rect x="25.2" y="100.3" class="st0" width="11.9" height="6.2"/>
</g>
<g>
	<rect x="45.7" y="100.3" class="st0" width="13.6" height="6.2"/>
</g>
<g>
	<rect x="67.6" y="100.3" class="st0" width="13.9" height="6.2"/>
</g>
<g>
	<polygon class="st0" points="106.5,106.5 89.8,106.5 89.8,100.3 100.3,100.3 100.3,90 106.5,90 	"/>
</g>
<g>
	<rect x="99.7" y="67.7" class="st0" width="6.2" height="13.9"/>
</g>
<g>
	<rect x="99.7" y="45.9" class="st0" width="6.2" height="13.8"/>
</g>
<g>
	<rect x="99.7" y="25.2" class="st0" width="6.2" height="12.4"/>
</g>
<g>
	<rect x="66.6" y="22" transform="matrix(0.7071 -0.7071 0.7071 0.7071 -28.884 69.6752)" class="st0" width="6.2" height="95.3"/>
</g>
</svg>
