<?xml version="1.0" encoding="utf-8"?>
<!-- Generator: Adobe Illustrator 24.1.0, SVG Export Plug-In . SVG Version: 6.00 Build 0)  -->
<svg version="1.1" id="Layer_1" xmlns="http://www.w3.org/2000/svg" xmlns:xlink="http://www.w3.org/1999/xlink" x="0px" y="0px"
	 viewBox="0 0 500 500" style="enable-background:new 0 0 500 500;" xml:space="preserve">
<style type="text/css">
	.st0{fill:#D9A741;}
	.st1{fill:#876929;}
	.st2{fill:#624A1E;}
	.st3{fill:#FAD791;}
</style>
<g id="XMLID_1_">
	<polyline id="XMLID_2_" class="st0" points="456.6,162.4 449.9,162.3 250.1,103.1 250,100.4 250,0.6 456.6,103.9 456.6,162.4 	"/>
	<polyline id="XMLID_3_" class="st1" points="250,106.4 250,0.6 43.4,103.9 43.4,396.1 43.5,396.1 43.5,396.1 250,499.4 
		250.7,498.4 250.4,400.2 250,399.6 237.2,390.5 77.3,342.8 78.1,158 250,106.4 	"/>
	<polyline id="XMLID_4_" class="st0" points="280.9,315.9 69.8,345.5 69.8,154.3 280.9,184.1 280.9,315.9 	"/>
	<polyline id="XMLID_5_" class="st1" points="173.9,303.7 250,313.4 250,186.5 173.9,196.2 173.9,303.7 	"/>
	<polyline id="XMLID_6_" class="st1" points="97.2,294 146.7,300.3 146.7,199.6 97.2,205.9 97.2,294 	"/>
	<polyline id="XMLID_7_" class="st2" points="69.8,154.3 250,100.4 456.6,162.4 281,184.1 69.8,154.3 	"/>
	<polyline id="XMLID_8_" class="st0" points="456.5,286.9 250,313 250,186.5 456.5,212.8 456.5,286.9 	"/>
	<polyline id="XMLID_9_" class="st0" points="456.5,337.7 452,337.9 250.7,398.8 250,399.6 250,499.4 456.5,396.2 456.5,337.7 	"/>
	<polyline id="XMLID_10_" class="st3" points="69.8,345.5 250,399.6 456.5,337.7 280.9,315.9 69.8,345.5 	"/>
</g>
</svg>
