<?xml version="1.0" encoding="utf-8"?>
<!-- Generator: Adobe Illustrator 24.1.0, SVG Export Plug-In . SVG Version: 6.00 Build 0)  -->
<svg version="1.1" id="Layer_1" xmlns="http://www.w3.org/2000/svg" xmlns:xlink="http://www.w3.org/1999/xlink" x="0px" y="0px"
	 viewBox="0 0 141.7 141.7" style="enable-background:new 0 0 141.7 141.7;" xml:space="preserve">
<style type="text/css">
	.st0{fill:#FE9800;}
	.st1{fill:#FEEFD8;}
	.st2{fill:#FEB240;}
</style>
<path class="st0" d="M134.7,41.9c-1-6-4.3-10.3-9.5-13.2c-2.2-1.3-4.5-2.6-6.7-3.8c-2-1.1-4-2.4-6.1-3.4l0,0c0,0,0,0,0,0
	c-1.1-0.7-2.2-1.3-3.3-2c-3.8-2.2-7.7-4.4-11.5-6.6c0,0,0,0,0,0c-0.1,0-0.2,0-0.3-0.1c-3.3-2.1-6.8-4-10.2-5.9c0,0,0,0,0,0v0
	c-0.2-0.1-0.4-0.1-0.6-0.3c-2.2-1.5-4.6-2.8-7-4.1c-1.2-0.7-2.4-1.2-3.8-1.5c-1-0.3-2-0.5-3.1-0.6c0-0.1,0-0.1,0-0.2
	c-1.2,0-2.3,0-3.5,0c0,0.1,0,0.1,0,0.2c-2.6,0.2-5.1,1-7.4,2.4c-9,5.2-18,10.4-27.1,15.5C28.5,22,22.2,25.6,16,29.2
	c-3.6,2.1-6.2,5.1-7.7,9.1c-0.7,1.5-1,3.1-1.1,4.7v0l0,0c-0.1,0-0.1,0-0.2,0c0,18.5,0,37,0,55.5c0,0,0.1,0,0.2,0c0,0,0,0,0,0
	c0,0,0,0,0,0c0,0.9,0.1,1.8,0.3,2.6c1.2,5.3,4.2,9.4,9,12.1c5,2.9,10,5.7,15,8.6c3.1,1.8,6.2,3.5,9.3,5.3c0.1,0.1,0.2,0.2,0.3,0.3
	c3.5,2,7.1,4.1,10.6,6.1c3.2,1.8,6.3,3.6,9.5,5.4v0l0,0c0.5,0.3,1,0.6,1.5,0.9c1.7,0.9,3.6,1.4,5.5,1.9c1.9,0,3.9,0,5.8,0
	c0.1-0.1,0.1-0.1,0.2-0.2c2.4-0.4,4.5-1.4,6.6-2.6c11.3-6.5,22.7-13,34-19.6c4.1-2.4,8.3-4.6,12.3-7.2c4.1-2.6,6.4-6.5,7.4-11.2
	c0,0,0,0,0,0c0.3-0.3,0-0.8,0.4-1.1c0-7.1,0-14.2,0-21.3c0-12.2,0-24.4,0-36.6C134.8,42.1,134.7,42,134.7,41.9z"/>
<path class="st1" d="M113.9,71.4c0,7.5,0,14.9,0,22.4c0,1.5-0.6,2.6-1.9,3.3c-13.1,7.5-26.1,15-39.2,22.5c-1.2,0.7-2.3,0.7-3.4,0
	C56.2,112.1,43,104.5,29.9,97c-1.2-0.7-1.7-1.7-1.7-3c0-15.1,0-30.2,0-45.3c0-1.3,0.6-2.3,1.7-3C43.1,38.1,56.2,30.6,69.3,23
	c1.1-0.7,2.2-0.7,3.3,0c13.1,7.6,26.2,15.1,39.3,22.6c1.3,0.7,1.8,1.7,1.8,3.2C113.8,56.3,113.9,63.8,113.9,71.4z"/>
<path class="st0" d="M34,89.2c0-0.3,0-0.6,0-0.9c0-11.3,0-22.6,0-33.9c0-1.1,0-1.1,1-0.5c4.2,2.4,8.4,4.9,12.6,7.3
	c0.7,0.4,1.5,0.7,2.3,0.6c1.3-0.3,2.1-1.2,2.3-2.4c0.2-1.2-0.3-2.3-1.5-3c-2.5-1.5-5-2.9-7.6-4.4c-2-1.2-4.1-2.4-6.3-3.6
	c1.7-1,3.3-1.9,4.9-2.8c8.5-4.9,17-9.8,25.4-14.6c1-0.6,1-0.6,1,0.6c0,2.3,0,4.7,0,7c0,0.6-0.2,0.9-0.7,1.1c-2.7,1.5-5.3,3.1-8,4.6
	c-1.1,0.6-1.7,1.5-1.7,2.7c0,3.9,0,7.7,0,11.6c0,1.3,0.6,2.2,1.7,2.8c3.2,1.9,6.5,3.7,9.7,5.6c1.2,0.7,2.3,0.7,3.5,0
	c3.1-1.9,6.3-3.7,9.5-5.5c1.3-0.7,1.9-1.7,1.9-3.2c-0.1-3.7,0-7.3,0-11c0-1.4-0.6-2.4-1.8-3.1c-2.6-1.5-5.2-3-7.7-4.4
	C74.2,39.3,74,39,74,38.4c0-2.6,0-5.3,0-8c10.5,6,20.8,12,31.3,18c-1.2,0.7-2.3,1.3-3.3,1.9c-3.5,2-7,4-10.5,6.1
	c-1.2,0.7-1.7,1.9-1.5,3.1c0.3,1.2,1.2,2.2,2.5,2.4c0.8,0.1,1.5-0.2,2.2-0.6c4.2-2.4,8.4-4.9,12.6-7.3c0.3-0.1,0.5-0.4,0.9-0.4
	c0,11.9,0,23.8,0,35.8c-1.6-0.9-3.2-1.8-4.7-2.7c-0.9-0.5-1.7-1-2.6-1.5c-0.5-0.3-0.7-0.6-0.7-1.1c0-3,0-6,0-9
	c0-1.5-0.6-2.5-1.9-3.2c-3.2-1.8-6.4-3.7-9.6-5.5c-1.1-0.6-2.2-0.7-3.3,0c-3.2,1.9-6.4,3.7-9.6,5.5c-1.3,0.7-1.9,1.7-1.9,3.2
	c0,3.8,0,7.6,0,11.4c0,1.2,0.5,2,1.5,2.6c3.4,1.9,6.7,3.9,10.1,5.8c1,0.6,2.1,0.6,3.1,0c2.6-1.6,5.3-3.1,8-4.6
	c0.5-0.3,0.9-0.3,1.4,0c2.3,1.4,4.7,2.7,7.2,4.2c-10.5,6-20.8,12-31.2,18c0-0.5,0-0.8,0-1.1c0-4.7,0-9.5,0-14.2c0-0.7,0-1.4-0.4-2
	c-0.6-1.2-1.9-1.7-3.3-1.4c-1.2,0.3-2.1,1.5-2.1,2.9c0,4.8,0,9.6,0,14.5c0,0.4,0,0.8,0,1.4c-10.4-6-20.8-11.9-31.1-17.9
	c0-0.3,0.3-0.4,0.4-0.5c2.2-1.3,4.4-2.5,6.6-3.8c0.5-0.3,0.8-0.3,1.3,0c2.6,1.5,5.3,3,7.9,4.6c1.2,0.7,2.3,0.7,3.5,0
	c3.2-1.9,6.3-3.7,9.5-5.5c1.2-0.7,1.8-1.6,1.8-3c0-3.8,0-7.6,0-11.5c0-1.2-0.6-2.1-1.6-2.7c-3.3-1.9-6.7-3.9-10-5.8
	c-1-0.6-2-0.6-3,0c-3.3,1.9-6.7,3.9-10,5.8c-1.1,0.6-1.6,1.5-1.6,2.8c0,3.1,0,6.1,0,9.2c0,0.6-0.2,0.9-0.7,1.2
	c-2.2,1.2-4.4,2.5-6.6,3.8C34.6,89,34.4,89.2,34,89.2z"/>
<path class="st2" d="M62.5,80.5c0,1.2,0,2.3,0,3.5c0,0.5-0.2,0.8-0.6,1.1c-2.1,1.2-4.2,2.4-6.3,3.6c-0.4,0.2-0.6,0.2-1,0
	c-2.1-1.2-4.2-2.4-6.3-3.6c-0.4-0.2-0.6-0.5-0.6-0.9c0-2.4,0-4.8,0-7.3c0-0.5,0.2-0.8,0.6-1c2.1-1.2,4.2-2.4,6.2-3.6
	c0.4-0.2,0.7-0.2,1.1,0c2.1,1.2,4.2,2.4,6.2,3.6c0.5,0.3,0.7,0.6,0.7,1.2C62.5,78.1,62.5,79.3,62.5,80.5z"/>
<path class="st2" d="M79.5,80.5c0-1.2,0-2.4,0-3.5c0-0.4,0.1-0.7,0.5-1c2.2-1.2,4.3-2.4,6.5-3.7c0.4-0.2,0.6-0.2,1,0
	c2.1,1.2,4.2,2.4,6.3,3.6c0.4,0.2,0.5,0.5,0.5,0.9c0,2.4,0,4.9,0,7.3c0,0.5-0.2,0.8-0.6,1c-2.1,1.2-4.1,2.3-6.2,3.5
	c-0.4,0.2-0.7,0.3-1.2,0c-2-1.2-4.1-2.4-6.2-3.5c-0.5-0.3-0.7-0.6-0.7-1.2C79.6,82.8,79.5,81.6,79.5,80.5z"/>
<path class="st2" d="M78.4,52.7c0,1.2,0,2.4,0,3.5c0,0.5-0.1,0.8-0.6,1c-2.1,1.2-4.2,2.4-6.3,3.6c-0.4,0.2-0.7,0.3-1.2,0
	c-2.1-1.2-4.2-2.4-6.3-3.6c-0.4-0.2-0.5-0.5-0.5-0.9c0-2.4,0-4.8,0-7.2c0-0.5,0.1-0.8,0.6-1c2.1-1.2,4.2-2.4,6.3-3.6
	c0.4-0.3,0.8-0.3,1.2,0c2,1.2,4,2.3,6,3.4c0.6,0.3,0.8,0.7,0.8,1.4C78.4,50.5,78.4,51.6,78.4,52.7z"/>
</svg>
