<svg xmlns="http://www.w3.org/2000/svg" xmlns:xlink="http://www.w3.org/1999/xlink" viewBox="0 0 82 72" fill="#fff" fill-rule="evenodd" stroke="#000" stroke-linecap="round" stroke-linejoin="round"><style><![CDATA[.B{stroke:#424244}.C{stroke-linejoin:miter}.D{stroke-width:2}]]></style><use xlink:href="#A" x="1" y="1"/><symbol id="A" overflow="visible"><path d="M56.353 3.2C15.598-12.4-7.044 32.884 11.573 56.28M0 54.268c5.03 1.006 7.296 2.264 11.824 2.767 1.258-1.006 3.02-10.818 3.774-12.327m8.05 21.887C64.403 82.193 87.044 36.9 68.428 13.513M80 15.526c-5.03-1.006-7.296-2.264-11.824-2.767-1.258 1.006-3.02 10.818-3.774 12.327" fill="none" class="B C D"/><g fill="#5172f4"><circle cx="39.496" cy="21.815" r="5.031" class="B C D"/><circle cx="52.327" cy="44.456" r="5.031" class="B C D"/><circle cx="26.666" cy="44.456" r="5.031" class="B C D"/></g><path d="M47.296 44.457H31.698m5.656-18.085l-8.125 13.75m20.308.143l-7.646-14.02" class="B C D" fill="none"/></symbol></svg>