<?xml version="1.0" encoding="utf-8"?>
<!-- Generator: Adobe Illustrator 24.1.0, SVG Export Plug-In . SVG Version: 6.00 Build 0)  -->
<svg version="1.1" id="Layer_1" xmlns="http://www.w3.org/2000/svg" xmlns:xlink="http://www.w3.org/1999/xlink" x="0px" y="0px"
	 viewBox="0 0 500 500" style="enable-background:new 0 0 500 500;" xml:space="preserve">
<style type="text/css">
	.st0{fill:#1A476F;}
	.st1{fill:#1F5B98;}
	.st2{fill:#2D72B8;}
	.st3{fill:#5294CF;}
</style>
<g id="XMLID_1_">
	<polyline id="XMLID_2_" class="st0" points="28.2,389.5 80.1,450.4 84.8,444.8 84.8,55.5 80.1,49.6 28.2,110.4 28.2,389.5 	"/>
	<polyline id="XMLID_3_" class="st1" points="80.1,450.4 179.3,500 183.6,493.3 183.6,5.2 179.5,0 80.1,49.5 80.1,450.4 	"/>
	<polyline id="XMLID_4_" class="st2" points="471.8,110.4 419.9,49.6 414.1,51.4 415.2,445.3 419.9,450.4 471.8,389.5 471.8,110.4 	
		"/>
	<polyline id="XMLID_5_" class="st3" points="320.7,500 419.9,450.4 419.9,49.5 320.5,0 315.9,6.3 315.9,492.7 320.7,500 	"/>
	<rect id="XMLID_6_" x="179.5" y="0" class="st2" width="141.1" height="500"/>
</g>
</svg>
