<?xml version="1.0" encoding="utf-8"?>
<!-- Generator: Adobe Illustrator 24.1.0, SVG Export Plug-In . SVG Version: 6.00 Build 0)  -->
<svg version="1.1"
	 id="balsamiq-logo-print" inkscape:version="0.92.3 (2405546, 2018-03-11)" sodipodi:docname="balsamiq-ar21.svg" xmlns:cc="http://creativecommons.org/ns#" xmlns:dc="http://purl.org/dc/elements/1.1/" xmlns:inkscape="http://www.inkscape.org/namespaces/inkscape" xmlns:rdf="http://www.w3.org/1999/02/22-rdf-syntax-ns#" xmlns:sodipodi="http://sodipodi.sourceforge.net/DTD/sodipodi-0.dtd" xmlns:svg="http://www.w3.org/2000/svg"
	 xmlns="http://www.w3.org/2000/svg" xmlns:xlink="http://www.w3.org/1999/xlink" x="0px" y="0px" viewBox="0 0 113.4 113.4"
	 style="enable-background:new 0 0 113.4 113.4;" xml:space="preserve">
<style type="text/css">
	.st0{fill-rule:evenodd;clip-rule:evenodd;fill:#CF0A2C;}
	.st1{fill:#FFFFFF;}
</style>
<path class="st0" d="M104.3,111H10.1c-4.1,0-7.5-3.4-7.5-7.5V9.3c0-4.1,3.4-7.5,7.5-7.5h94.3c4.1,0,7.5,3.4,7.5,7.5v94.3
	C111.8,107.7,108.5,111,104.3,111z"/>
<sodipodi:namedview  bordercolor="#666666" borderopacity="1" gridtolerance="10" guidetolerance="10" id="namedview29" inkscape:current-layer="balsamiq-logo-print" inkscape:cx="47.360571" inkscape:cy="22.732583" inkscape:pageopacity="0" inkscape:pageshadow="2" inkscape:window-height="1001" inkscape:window-maximized="1" inkscape:window-width="1920" inkscape:window-x="-9" inkscape:window-y="-9" inkscape:zoom="3.7666667" objecttolerance="10" pagecolor="#ffffff" showgrid="false">
	</sodipodi:namedview>
<path id="path4" inkscape:connector-curvature="0" class="st1" d="M35.7,88.9c0.2-3.1,0.4-7.6,0.4-11.6V22.9h8.1v28.3h0.2
	c2.9-5,8.1-8.3,15.3-8.3c11.2,0,19.1,9.3,19,23c0,16.1-10.1,24.1-20.2,24.1c-6.5,0-11.7-2.5-15.1-8.5h-0.3l-0.4,7.4L35.7,88.9
	L35.7,88.9z M44.2,70.9c0,1,0.2,2,0.4,3c1.6,5.7,6.3,9.6,12.3,9.6c8.6,0,13.7-7,13.7-17.3c0-9-4.6-16.7-13.4-16.7
	c-5.6,0-10.8,3.8-12.5,10c-0.2,0.9-0.5,2-0.5,3.3L44.2,70.9z"/>
</svg>
