<svg id="effect" enable-background="new 0 0 36 36" height="512" viewBox="0 0 36 36" width="512" xmlns="http://www.w3.org/2000/svg"><path d="m31.833 8.377c0 6.917 3.583 11.667 3.583 15s-1.916 10.333-17.249 10.333-17.584-9.417-17.584-13.083c0-17.167 31.25-24.5 31.25-12.25z" fill="#efefef"/><path d="m29.25 9.75v1.5h-22.5v-1.5c0-1.1.9-2 2-2h18.5c1.1 0 2 .9 2 2z" fill="#2fdf84"/><path d="m29.25 11.25v15c0 1.1-.9 2-2 2h-18.5c-1.1 0-2-.9-2-2v-15z" fill="#f3f3f1"/><path d="m11 7.75h-2.25c-1.1 0-2 .9-2 2v1.5h2.25v-1.5c0-1.1.9-2 2-2z" fill="#00b871"/><path d="m9 26.25v-15h-2.25v15c0 1.1.9 2 2 2h2.25c-1.1 0-2-.9-2-2z" fill="#d5dbe1"/><path d="m27.25 29h-18.5c-1.517 0-2.75-1.233-2.75-2.75v-16.5c0-1.517 1.233-2.75 2.75-2.75h18.5c1.517 0 2.75 1.233 2.75 2.75v16.5c0 1.517-1.233 2.75-2.75 2.75zm-18.5-20.5c-.689 0-1.25.561-1.25 1.25v16.5c0 .689.561 1.25 1.25 1.25h18.5c.689 0 1.25-.561 1.25-1.25v-16.5c0-.689-.561-1.25-1.25-1.25z"/><path d="m6 10.5h24v1.5h-24z"/><path d="m20 23h-.75c-.414 0-.75-.336-.75-.75v-4.5c0-.414.336-.75.75-.75h.75c1.654 0 3 1.346 3 3s-1.346 3-3 3zm0-4.5v3c.827 0 1.5-.673 1.5-1.5s-.673-1.5-1.5-1.5z"/><path d="m17 23h-1.5v-4c0-.275-.225-.5-.5-.5s-.5.225-.5.5v4h-1.5v-4c0-1.103.897-2 2-2s2 .897 2 2z"/><path d="m13 20h4v1.5h-4z"/><g fill="#a4afc1"><path d="m4 30.75c-.827 0-1.5-.673-1.5-1.5s.673-1.5 1.5-1.5 1.5.673 1.5 1.5-.673 1.5-1.5 1.5zm0-2c-.275 0-.5.225-.5.5s.225.5.5.5.5-.225.5-.5-.225-.5-.5-.5z"/><path d="m27.793 2.977h1v2h-1z" transform="matrix(.707 -.707 .707 .707 5.469 21.163)"/><path d="m31.858 7.043h1v2h-1z" transform="matrix(.707 -.707 .707 .707 3.79 25.237)"/><path d="m31.181 3.477h2v1h-2z" transform="matrix(.707 -.707 .707 .707 6.614 23.921)"/></g></svg>