<?xml version="1.0" encoding="utf-8"?>
<!-- Generator: Adobe Illustrator 24.1.0, SVG Export Plug-In . SVG Version: 6.00 Build 0)  -->
<svg version="1.1" id="Layer_1" xmlns="http://www.w3.org/2000/svg" xmlns:xlink="http://www.w3.org/1999/xlink" x="0px" y="0px"
	 viewBox="0 0 612 609.4" style="enable-background:new 0 0 612 609.4;" xml:space="preserve">
<style type="text/css">
	.st0{fill:#34313F;}
</style>
<g>
	<path class="st0" d="M460.9,382c0.4-51.5,39.9-84.3,87.6-84.3c30.3,0,50.7,13.7,63.1,30.7V86c0-4.6-5.4-7.5-9.1-4.6L303.1,300.2
		h7.9c31.1,0,46.9,19.9,46.9,41.5c0,17-8.7,29.5-20.8,34.9c-2.1,0.8-2.1,3.7,0,4.6c13.7,5.8,23.7,20.3,23.7,37.8
		c0,24.9-16.2,44.4-47.3,44.4h-85.1c-1.7,0-3.3-1.2-3.3-3.3v-103L2,520.3c-3.7,3.3-2.1,9.1,2.9,9.1h601.2c2.9,0,5-2.1,5-5v-82.6
		c-16.2,14.9-37.4,24.5-63.1,24.5C499.9,466.3,460.9,433.1,460.9,382z M429.3,460.5c0,1.7-1.2,2.9-2.9,2.9h-28.7
		c-1.7,0-2.9-1.2-2.9-2.9V303.2c0-1.7,1.2-2.9,2.9-2.9h28.7c1.7,0,2.9,1.2,2.9,2.9V460.5z"/>
	<path class="st0" d="M263.2,365h40.3c11.6,0,19.1-6.6,19.1-17c0-10-7.5-17-19.1-17h-41.9c-0.8,0-1.7,0.8-1.7,1.7v29.5
		C259.9,363.8,261.6,365,263.2,365z"/>
	<path class="st0" d="M263.2,433.1h41.9c12.9,0,20.8-7.1,20.8-18.7c0-10.4-7.5-18.7-20.8-18.7h-41.9c-1.7,0-3.3,1.2-3.3,3.3v30.7
		C259.9,431.5,261.6,433.1,263.2,433.1z"/>
	<path class="st0" d="M590,348.8c-1.7,0.4-3.7-0.4-4.6-1.7c-7.9-10.4-21.2-18.7-37-18.7c-29.9,0-51.5,22.8-51.5,53.6
		c0,30.7,21.6,53.6,51.5,53.6c13.7,0,26.6-5.8,33.6-11.6c0.4-0.4,0.8-1.2,0.8-2.1v-15.8c0-1.2-1.2-2.5-2.5-2.5h-37
		c-2.1,0-3.3-1.7-3.3-3.3v-23.3c0-2.1,1.7-3.3,3.3-3.3H612v-37L590,348.8z"/>
</g>
</svg>
