<?xml version="1.0" encoding="iso-8859-1"?>
<!-- Generator: Adobe Illustrator 19.0.0, SVG Export Plug-In . SVG Version: 6.00 Build 0)  -->
<svg version="1.1" id="Capa_1" xmlns="http://www.w3.org/2000/svg" xmlns:xlink="http://www.w3.org/1999/xlink" x="0px" y="0px"
	 viewBox="0 0 512 512" style="enable-background:new 0 0 512 512;" xml:space="preserve">
<path style="fill:#CCCCCC;" d="M494.345,467.862V114.759c0-14.627-11.855-26.483-26.483-26.483H44.138
	c-14.627,0-26.483,11.855-26.483,26.483v353.103H494.345z"/>
<path style="fill:#999999;" d="M512,441.379v26.483c0,14.627-11.855,26.483-26.483,26.483H26.483
	C11.855,494.345,0,482.489,0,467.862v-26.483h176.552l17.655,17.655h123.586l17.655-17.655H512z"/>
<path style="fill:#29ABE2;" d="M61.793,132.414h388.414v256H61.793V132.414z"/>
<path style="fill:#F2F2F2;" d="M247.172,414.897h17.655v17.655h-17.655V414.897z"/>
<g>
	<path style="fill:#80CAEC;" d="M114.759,300.138h17.655v17.655h-17.655V300.138z"/>
	<path style="fill:#80CAEC;" d="M150.069,300.138h264.828v17.655H150.069V300.138z"/>
	<path style="fill:#80CAEC;" d="M97.103,335.448h291.31v17.655H97.103V335.448z"/>
</g>
<path style="fill:#8C6239;" d="M273.655,194.207h-44.138v-17.655h35.31v-26.483h17.655v35.31
	C282.483,190.252,278.528,194.207,273.655,194.207z"/>
<path style="fill:#E6E6E6;" d="M167.724,61.793h8.828v70.621h-8.828c-19.5,0-35.31-15.81-35.31-35.31S148.224,61.793,167.724,61.793
	z"/>
<path style="fill:#DA4836;" d="M185.379,44.138h52.966v105.931h-52.966c-4.873,0-8.828-3.955-8.828-8.828V52.966
	C176.552,48.093,180.506,44.138,185.379,44.138z"/>
<g>
	<path style="fill:#E6E6E6;" d="M379.586,17.655v158.897l-141.241-26.483V44.138L379.586,17.655z"/>
	<path style="fill:#E6E6E6;" d="M194.207,150.069h44.138v92.69c0,12.191-9.878,22.069-22.069,22.069s-22.069-9.878-22.069-22.069
		V150.069z"/>
</g>
<path style="fill:#DA4836;" d="M194.207,220.69h44.138v22.069c0,12.191-9.878,22.069-22.069,22.069s-22.069-9.878-22.069-22.069
	V220.69z"/>
<g>
</g>
<g>
</g>
<g>
</g>
<g>
</g>
<g>
</g>
<g>
</g>
<g>
</g>
<g>
</g>
<g>
</g>
<g>
</g>
<g>
</g>
<g>
</g>
<g>
</g>
<g>
</g>
<g>
</g>
</svg>
