<?xml version="1.0" encoding="utf-8"?>
<!-- Generator: Adobe Illustrator 24.1.0, SVG Export Plug-In . SVG Version: 6.00 Build 0)  -->
<svg version="1.1" id="Capa_1" xmlns="http://www.w3.org/2000/svg" xmlns:xlink="http://www.w3.org/1999/xlink" x="0px" y="0px"
	 viewBox="0 0 512 512" style="enable-background:new 0 0 512 512;" xml:space="preserve">
<style type="text/css">
	.st0{fill:#E33625;}
	.st1{fill:#AD9E15;}
	.st2{fill:#AD9D15;}
	.st3{fill:#E43422;}
	.st4{fill:#040404;}
	.st5{fill:#050505;}
	.st6{fill:#4F79AF;}
	.st7{fill:#0B0B0B;}
	.st8{fill:#0A0A0A;}
	.st9{fill:#4677AF;}
	.st10{fill:#090909;}
	.st11{fill:#E53422;}
	.st12{fill:#C86F1E;}
	.st13{fill:#E33727;}
	.st14{fill:#DA4D22;}
	.st15{fill:#C46573;}
	.st16{fill:#BC9693;}
	.st17{fill:#CF5759;}
	.st18{fill:#8282AE;}
	.st19{fill:#C2791B;}
	.st20{fill:#DC421C;}
	.st21{fill:#A487AD;}
	.st22{fill:#E23622;}
	.st23{fill:#C08580;}
	.st24{fill:#CE585C;}
	.st25{fill:#DE4524;}
	.st26{fill:#CF5C1A;}
	.st27{fill:#A586AC;}
	.st28{fill:#BA758B;}
	.st29{fill:#9284AE;}
	.st30{fill:#B88D1C;}
	.st31{fill:#C46674;}
	.st32{fill:#8382AF;}
	.st33{fill:#B1809F;}
	.st34{fill:#CB651B;}
	.st35{fill:#B88D1B;}
	.st36{fill:#667DAE;}
	.st37{fill:#597CB0;}
	.st38{fill:#727EAD;}
	.st39{fill:#9384AE;}
	.st40{fill:#C07B1A;}
	.st41{fill:#DB5326;}
	.st42{fill:#D84A40;}
	.st43{fill:#B081A0;}
	.st44{fill:#BF7C1A;}
	.st45{fill:#DA5022;}
	.st46{fill:#CD6822;}
	.st47{fill:#C66F1A;}
	.st48{fill:#C7701C;}
	.st49{fill:#D55F29;}
	.st50{fill:#D6867E;}
	.st51{fill:#E5301E;}
	.st52{fill:#F9F9F9;}
	.st53{fill:#FEFDFC;}
	.st54{fill:#E43322;}
	.st55{fill:#FEFCFC;}
	.st56{fill:#D4574D;}
	.st57{fill:#FBFBFB;}
	.st58{fill:#FCFCFC;}
</style>
<path d="M185.7,221.7c0-12.6,0.2-25.1-0.1-37.7c-0.2-7.2,2.8-10,9.9-10c19.3,0.2,38.5-0.4,57.8,0.2c24.5,0.7,34.7,19.7,22,40.3
	c-1.5,2.4-2.7,3.7,0.2,5.8c11.3,8,14,18.9,9,31.3c-5.2,12.9-16.5,18-29.3,18.3c-20.3,0.5-40.6-0.2-60.9-0.5c-5.9-0.1-8.8-2.6-8.7-9
	C185.9,247.6,185.7,234.6,185.7,221.7z"/>
<path d="M444.8,270.2c-6.7,0-13.3,0.3-20-0.1c-12.4-0.6-22.3-6-28-17.3c-2.3-4.6-4.7-10.7,0.8-14.2c5.3-3.4,12.9-4.5,17.4,0.9
	c11.7,14.1,27.2,12.5,42.5,11.6c4.4-0.3,9.7-2.2,9.5-7.8c-0.1-4.9-4.6-6.5-8.9-7.3c-13.1-2.5-26.3-4.3-39.1-7.5
	c-17.2-4.3-26.4-18.4-23.3-34.2c2.4-12.4,12.7-20.9,28.4-21.9c12.9-0.8,25.9-0.6,38.8,0c9,0.5,16.9,4.6,22.6,11.7
	c4.4,5.5,9.8,12.8,3.9,18.5c-5.7,5.5-15.2,4.7-21-1.4c-9.6-9.9-21.3-11-33.7-10.7c-1.7,0-3.6,0-5.2,0.6c-3.7,1.1-8,2.5-8.3,6.9
	c-0.4,4.6,3.8,6.5,7.5,7.5c11.8,3.1,23.7,5.8,35.6,8.6c11.6,2.7,22.4,6.6,26.2,19.5c6,20-5.6,35.8-26.7,36.6
	C457.4,270.4,451.1,270.2,444.8,270.2z"/>
<path d="M339.4,270.2c-9-0.3-18.2,1.1-27.1-1.3c-9.3-2.5-16.5-7.7-20.4-16.5c-2.1-4.7-4.2-10.9,1.3-14c5.4-3,12.9-4.2,17.4,1.4
	c11.6,14.3,27.1,12.2,42.4,11.4c4-0.2,8.9-1.9,9.1-7c0.2-5.7-4.6-7.3-9.2-8.2c-12.7-2.4-25.5-4.2-38.1-7.1
	c-13.8-3.1-23.3-13.5-24.5-25.3c-1.6-16.9,9-29.4,28-30.9c13.2-1.1,26.6-1,39.8,0c12.6,1,22.4,7.6,27.3,19.8
	c3.5,8.7,0.8,12.5-8.3,13c-5.8,0.3-11.2-0.6-15.4-5.1c-10.4-11.2-23.9-10.1-37.2-9c-3.6,0.3-8,2.3-8.5,6.6c-0.5,4.7,3.8,6.4,7.3,7.6
	c11.9,4,24.2,6.5,36.6,8.9c18.4,3.6,27.3,13.5,26.9,29.3c-0.4,15.5-10.3,25.6-26.6,26.5C353.4,270.5,346.4,270.2,339.4,270.2z"/>
<path class="st0" d="M78.4,194.5c14.6,12.8,31.1,23.5,44,38.2c4.3,10.1,4.2,20.3,0.8,30.6c-3.8,3.2-5.9-0.1-7.4-2.5
	c-7.9-12.7-20.3-20.7-31.4-30.1c-5.4-4.6-9.9-9.7-11-17C74,207.1,69.5,199,78.4,194.5z"/>
<path class="st1" d="M19,174c13.1-14.4,31.1-22,46.5-33.2c5.1,8.5,4.1,17.1,0.2,25.6c-6.2,6.1-14.4,9.2-21.8,13.5
	c-8.7,5.1-16.2,11.4-22.7,19.1C16,191.1,18.6,182.4,19,174z"/>
<path class="st2" d="M78.4,194.5c-5.2,6.4-1,14.1-3,21c-4.1,0.7-5.4-2.8-6.7-5.2c-3.1-5.5-6.8-4.9-11.1-1.9c-5.8,3-8.8,7.6-8.7,14.3
	c0.1,2.4-0.4,4.9-2.7,6.4c-6.1-2.6-5.3-9.1-7.9-13.7c-1.5-6.8-1.2-13.7-0.4-20.5c11.6-11.3,26.9-16.7,40.5-24.8
	c6.4,5.6,6.9,11.5,2.1,21.5C79.8,192.6,79.1,193.5,78.4,194.5z"/>
<path class="st3" d="M75.6,307c-10.8-15-26.3-25.6-37.8-40c-2.8-7.6-4.1-15.2-0.6-22.9c1.8-1.9,4-1.7,5.5-0.1
	c11,11,24.1,20,33.9,32.3c1.7,2.2,3,4.7,3.7,7.4c0.9,6.5,0.9,13.1,0,19.6c-0.3,1.1-0.8,2.1-1.5,3C77.8,307.1,76.8,307.3,75.6,307z"
	/>
<path class="st4" d="M340,343.9c3.8-10.9,6.7-19.8,9.9-28.6c0.9-2.4,1.4-5.8,5.3-5.2c4.5,0.7,2.5,4.4,2.5,6.7
	c0.2,9.8,0.2,19.5,0,29.3c-0.1,2.2,2,6.4-3,6c-4.4-0.3-2.7-4.1-2.8-6.6c-0.2-4.1-0.1-8.2-1.6-12.6c-1.7,4.4-3.4,8.7-5,13.1
	c-1,2.8-1.1,6.4-5.6,6.3c-3.8-0.1-4.1-3.2-5.1-5.7c-2.3-5.4-4.4-10.8-8-16.1c0,5.9,0,11.8,0,17.7c0,1.7,0.1,3.7-2.3,3.8
	c-2.5,0.1-2.6-1.8-2.6-3.6c0-11.5,0-23,0-34.5c0-1.8,0.1-3.7,2.4-3.8c2.5-0.1,3.4,1.9,4.2,4C331.8,323.2,335.4,332.2,340,343.9z"/>
<path class="st5" d="M287.8,343.8c3.5-10,6-17.5,8.9-25c1.3-3.2,0.5-9.1,5.7-8.4c6.5,0.8,2.8,6.8,3,10.3c0.6,8.7,0.3,17.4,0.2,26.1
	c0,2.1,1.1,5.5-2.8,5.4c-3.7-0.1-2.7-3.4-2.8-5.6c-0.1-4.1,0-8.3,0-14.4c-4.9,5.9-5.5,11.4-7.4,16.2c-1,2.5-2.1,4.2-5.2,4.1
	c-2.9-0.1-3.4-2.1-4.2-3.9c-2.5-5.9-4.9-11.8-8.9-17.2c0,5.8-0.1,11.5,0,17.3c0,1.8,0.4,3.5-2.2,3.7c-2.5,0.1-2.6-1.6-2.6-3.4
	c0-11.5,0-23,0-34.5c0-1.6-0.4-3.7,2.1-4c2.5-0.3,3.6,1.3,4.4,3.5C279.6,323.1,283.4,332.4,287.8,343.8z"/>
<path class="st6" d="M67.7,340.1c-7.5,10.3-9.7,21.9-7.6,35.1c-19.6-16.8-15.2-43.4,9.5-63.1C75.5,321.8,73.4,331.1,67.7,340.1z"/>
<path class="st7" d="M408,331.1c0-2.1,0-4.2,0-6.3c0-16.9,0-16.8,16.7-14.8c6.9,0.8,11.7,5.5,9.6,10.9c-3.3,8.5,1,15.8,0.4,23.6
	c-0.2,2.6,2.1,7.6-2.7,7.4c-4.4-0.2-1.8-5-2.2-7.8c-0.5-2.7-0.1-5.5-2.2-7.8c-3.6-4.1-8.5-3.2-12.7-2.5c-4.5,0.8-1.6,5.2-2.2,7.9
	c-0.5,2.3-0.1,4.9-0.1,7.3c0,1.4-0.2,2.9-1.8,3.2c-2.4,0.3-2.8-1.4-2.8-3.3C408,342.9,408,337,408,331.1z"/>
<path class="st8" d="M224.9,332.4c0-14.8,6.1-22.5,16-22.4c9.4,0.1,15.3,7.3,15.6,19.6c0.1,3.4-0.5,6.9-1.3,10.3
	c-1.7,7.7-6.6,12.3-14.6,12.3c-7.7,0-12.1-4.7-14.1-11.7C225.5,337.2,225.2,333.8,224.9,332.4z"/>
<path class="st9" d="M82.2,370.9c-5.1,9.5-6.8,19.7-6.2,30.5c-14.4-10.9-16.9-32.3-5.8-48.9C79.5,355.8,83.8,362.4,82.2,370.9z"/>
<path class="st7" d="M372.2,330.8c0-1,0-2.1,0-3.1c0-18.8,2.4-20.9,21.2-17.7c1.6,0.3,3.7-0.1,3.9,2.3c0.3,3-1.9,3.3-4.1,3.4
	c-3.1,0.1-6.3,0.3-9.4,0c-4.7-0.4-6,1.8-5.9,6.2c0.1,4.4,0.5,7.7,6.2,7c1.4-0.2,2.8-0.2,4.2,0c2.4,0.4,6.7-1.5,6.8,2.4
	c0.1,4-4.3,1.9-6.6,2.6c-3.4,0.9-8.6-2.5-9.9,2.8c-1,4-3.2,10.5,5.6,9.7c2.8-0.2,5.6,0,8.4,0c2.5,0,5.2,0.1,4.9,3.6
	c-0.3,3.1-3,2-4.8,2.4c-0.3,0.1-0.7,0-1,0C372.2,353.5,372.2,353.5,372.2,330.8z"/>
<path class="st10" d="M486.2,330.4c0-1.4,0-2.8,0-4.2c0-16.2,5.4-20.2,21.6-16.1c1.3,0.3,2.9,0.1,3.1,2.1c0.3,2.2-1,3.2-2.9,3.4
	c-2.8,0.2-5.6,0.3-8.4,0.1c-4.8-0.3-7.8,0.2-7.6,6.5c0.2,5.8,2.3,6.9,7.5,6.9c3.2,0,9.4-2.5,9.2,2.6c-0.2,4.4-6.4,1.4-9.8,2.2
	c-2.2,0.5-4.9-1-6.4,2c-2.5,4.8,0.5,10.2,6.1,10.5c2.4,0.1,4.9,0,7.4,0c2.5,0,5.3-0.1,5,3.5c-0.2,3.1-2.9,2.2-4.8,2.5
	c-0.3,0.1-0.7,0-1.1,0C486.2,353.5,486.2,353.5,486.2,330.4z"/>
<path class="st10" d="M191.4,331.6c-0.1,5.8,0.8,11.6,6.5,14.3c6.3,3,9.6-1.5,12-6.6c1-2,2.9-2.1,4.5-1.4c2.3,1,1,3,0.5,4.5
	c-1.6,5.1-5.3,8.1-10.4,9.3c-5.6,1.4-10.4,0-14.4-4.1c-7.9-8.2-7.4-25.7,0.7-33.6c4.6-4.5,10-4.8,15.6-3.4c4.7,1.2,7.8,4.5,8.9,9.3
	c0.4,1.7,1.3,3.6-0.7,4.6c-1.5,0.8-3.7,0.9-4.5-1.2c-2.1-5.5-5.1-9.3-11.7-7C193.8,318.1,191.3,323.7,191.4,331.6z"/>
<path class="st10" d="M443.9,330.7c0-13.8,8.5-22.3,20.3-20.5c4.1,0.6,7.4,2.5,9.1,6.1c1.1,2.5,4.3,6,0.8,8.2
	c-4.2,2.6-4.6-2.1-6.1-4.5c-0.7-1.2-1.6-2.4-2.7-3c-4.8-2.4-8.7-1.1-11.8,3.2c-4.9,7-3.6,20.9,2.5,25c4.6,3.1,8.6,1.9,11.7-2.5
	c1.6-2.4,2.7-7.1,6.4-4.6c4,2.7-0.1,6.2-1.8,8.6c-5.8,7.8-17.5,7.6-23.4-0.2C445.1,341.8,443.9,336.5,443.9,330.7z"/>
<path class="st11" d="M132.5,303.7c6.5-9.9,11.3-20.3,10-32.7c12.4,11.1,13.5,30.9,2.8,47.8C136.7,317.5,133.8,311.3,132.5,303.7z"
	/>
<path class="st12" d="M19,174c4.8,8,1.2,16.7,2.2,25c-6,9.8-7.3,20.6-6.2,32.6c-4.8-0.7-6.4-3.9-7.9-7.2
	c-1.6-12.9-3.6-25.7,1.5-38.3C10.8,181,14.4,177,19,174z"/>
<path class="st13" d="M134.3,250c5.8,18.4,4.4,35.1-11.7,48.2c-9.3-4.4-4.4-12.3-4.9-18.9c0.5-2.2,1.4-4.2,2.5-6.2
	c3.4-4.9,6.5-9.9,8.7-15.5C130.8,255,129.5,250.3,134.3,250z"/>
<path class="st14" d="M25.7,253.8c-3.1-6-5.9-12.1-6.1-19c1.1-3.4,1.1-6.9,0-10.3c0.4-7.3,3.1-13.6,8.2-18.9
	c5.4,0.9,4.3,5.3,4.7,8.7c0.6,4,0.1,8.1,0.7,12.2c-1.1,6.4-3.1,12.6-2.9,19.3C30.3,249,30.6,253.1,25.7,253.8z"/>
<path class="st15" d="M109.7,308.6c-1.5,2.3-3.6,3.7-6.4,4.1c-5.2-6.3-1.9-14.2-3.7-21.1c1.5-9.3-0.8-18.9,2.1-28.1
	c2.9-3.7,4.9-0.8,6.6,1.1c3.8,4.3,6,9.3,6.9,14.9C110.5,288.7,112.6,299.1,109.7,308.6z"/>
<path class="st16" d="M130.8,258.1c-1.3,5.7-3.7,10.8-8.6,14.4c-3.9-2-4.8-4.7-1.9-8.3c4.5-10.3,0.9-21.1,2.1-31.5
	c5.3,2.7,7.4,8,10.1,12.7C131.3,249.6,132.5,254.1,130.8,258.1z"/>
<path class="st17" d="M109.7,308.6c-0.2-9.4-4.2-19.4,4.1-27.5c1.4-2.5,2.3-5.8,6.4-3.7c1,6.9-2.8,14.4,2.4,20.9
	C119.3,302.8,114.8,306.1,109.7,308.6z"/>
<path class="st18" d="M67.7,340.1c2.6-9.2,1.8-18.6,1.9-28c2-1.7,4-3.4,6-5.1c0.9-0.2,1.7-0.4,2.6-0.6c7.8,6.4,5.5,13.8,2.2,21.3
	C76.2,331.8,72,336,67.7,340.1z"/>
<path class="st19" d="M31.8,226.3c-5.4-6.1,1-14.5-4-20.7c2.2-4.7,6-7.9,10.1-10.7c4.7,6.6,1.2,14,2.3,21c1.6,3-1,4.5-2.3,6.5
	c-0.8,0.9-1.8,1.7-2.7,2.5C34.1,225.7,33.1,226.3,31.8,226.3z"/>
<path class="st20" d="M100.9,132.4c7.6,13.2,7.8,26.4-0.3,39.5c-3.7-0.6-3.9-3.6-4.1-6.3c-0.9-10,0.1-20,1.2-30
	C97.8,133.9,98.6,132.2,100.9,132.4z"/>
<path class="st21" d="M96.8,328.8c1.5-2.3,3.6-3.6,6.3-4.2c4.2,6.8,15.5,8.2,14.8,18.9c-3.5,2-7,4.1-10.4,6.1c-1.4-4-3.9-7.2-7-10
	C97.3,336.7,94.5,333.6,96.8,328.8z"/>
<path class="st22" d="M8.5,186.1c-0.6,12.8,2.1,25.7-1.5,38.3C-2,210.4-1.6,198.2,8.5,186.1z"/>
<path class="st23" d="M31.8,226.3c0.6-0.6,1.2-1.3,1.9-1.9c5.8,12.8,3,25.5-0.3,38.2c-3.2-2.4-6.1-5-7.7-8.8
	C29.6,245.1,25.1,234.5,31.8,226.3z"/>
<path class="st24" d="M122.3,312.9c2-1.6,4-3.2,6.1-4.9c7.3,2.7,10.8,8.8,13.6,15.4c-1.4,3.5-3.9,6-7.2,7.8
	C128.1,326.8,121.1,322.6,122.3,312.9z"/>
<path class="st25" d="M88,107.3c7.1,13,7.7,25.8-1.2,38.4C81.5,135.7,82.2,113.8,88,107.3z"/>
<path class="st26" d="M80.1,117.4c0.2-1.4,0.4-2.8,0.6-4.1c2.7-3.7-2.8-9.4,3.2-12.3c0.6,0.3,0.8,0.8,0.7,1.4
	c1.4,15.6,1.5,31.2-0.1,46.8c-0.6,2.2-2.2,3.6-4.1,4.6c-5.7-7.5-2.9-16.1-2.6-24.2C77.9,125.6,78.7,121.4,80.1,117.4z"/>
<path class="st27" d="M93,319.1c-2.1,1.4-4.2,2.8-6.3,4.2c-4.6-2.2-3-6.4-3.3-10c-0.3-3.3,1-6.9-1.7-9.8c0.9-3.7,2.2-7.2,4.6-10.2
	c3.7,0.3,6.9,1.5,8.6,5.1C96.1,305.5,96.5,312.5,93,319.1z"/>
<path class="st28" d="M128.8,336.3c-2,1.3-4,2.5-5.9,3.8c-6.7-4.9-12.9-10.2-13.3-19.4c1.6-2.2,4-3,6.5-3.8
	C122.6,321.9,129.2,326.8,128.8,336.3z"/>
<path class="st29" d="M96.8,328.8c1.2,3.7,2.7,7,6,9.8c3.1,2.5,6.8,5.8,4.6,11c-2,1.1-4.1,2.2-6.1,3.3c-2-4.1-5.5-7.2-8.5-10.5
	c-2.6-2.8-4.1-5.6-2.4-9.3C92,330.8,94.2,329.5,96.8,328.8z"/>
<path class="st30" d="M65.7,166.5c1.2-8.6,0.3-17.1-0.2-25.6c2-2.3,4.1-4.5,6.1-6.8c5.4,9.2,3.6,18.5,0.2,27.8
	C70.4,164.2,68.3,165.6,65.7,166.5z"/>
<path class="st31" d="M128.8,336.3c-2.7-7.5-9.5-12.3-12.8-19.3c2.1-1.4,4.2-2.8,6.3-4.1c1.5,7.9,10,11.1,12.4,18.4
	C133.4,333.7,131.3,335.2,128.8,336.3z"/>
<path class="st32" d="M90.5,333.1c0.9,5.5,5.2,8.8,8.5,12.7c1.8,2.1,3.9,3.9,2.3,7.1c-1.5,1-3,2-4.4,3.1
	c-6.3-4.2-10.3-10.6-14.9-16.3C84.1,336.5,87.4,334.9,90.5,333.1z"/>
<path class="st33" d="M109.5,320.8c4.4,6.4,8.9,12.9,13.3,19.3c-1.6,1.1-3.3,2.3-4.9,3.4c-4.9-6.3-9.9-12.6-14.8-18.9
	C105.3,323.4,107.4,322.1,109.5,320.8z"/>
<path class="st14" d="M33.4,262.6c0.1-12.7,0.2-25.5,0.3-38.2c0.8-0.7,1.5-1.5,2.3-2.2c3.8,6.6,5.1,13.6,3.6,21.1
	c-3.2,7.7-0.4,15.9-1.8,23.7C36.3,265.6,34.9,264.1,33.4,262.6z"/>
<path class="st34" d="M97.2,174.6c0.4,3.3-1.8,4.9-4.2,6.5c-6.2-9.4-2.5-19-0.4-28.5c0.9-4,1.8-7.9,2.6-11.9
	c1.6-0.1,2.7,0.7,2.7,2.3C97.7,153.5,99,164.1,97.2,174.6z"/>
<path class="st35" d="M80.4,191.6c0.3-7.3,2.9-14.7-2.1-21.5c2.7-2.7,5.5-5.5,8.2-8.2c4.7,8.4,3.5,16.8,0,25.1
	C84.5,188.5,82.5,190.1,80.4,191.6z"/>
<path class="st36" d="M93,359c-2.1,2.1-4.3,4.2-6.4,6.3c-5-5.3-9.1-11.3-13.1-17.3c1.4-1.4,2.7-2.9,4.1-4.3
	C86.3,344.2,90.9,348.8,93,359z"/>
<path class="st37" d="M73.5,348c7.4,3.5,11.4,9.6,13.1,17.3c-1.5,1.9-3,3.7-4.5,5.6c-0.8-8.2-5.8-13.7-12-18.5
	C71.3,351,72.4,349.5,73.5,348z"/>
<path class="st28" d="M100.9,291.3c5.1,6.7,1.2,14.3,2.5,21.4c-1.2,0.8-2.5,1.5-3.7,2.3c-4.9,0.7-4.5-3.1-4.5-5.8
	c0-4.7-0.2-9.5-0.1-14.2c0.3-1.7,1.1-3.1,2.6-4.1C98.8,290.5,99.9,290.6,100.9,291.3z"/>
<path class="st38" d="M93,359c-4.6-5.7-7.8-12.7-15.5-15.3c1.5-1.4,2.9-2.7,4.4-4.1c7.6,3.1,11.5,9.5,14.9,16.3
	C95.6,357,94.3,358,93,359z"/>
<path class="st39" d="M82.4,304.1c5.6,1,2.4,5.3,2.9,8.1c0.7,3.6-0.8,7.6,1.3,11c-2.1,1.5-4.2,2.9-6.3,4.4
	c-1.1-7.1,1.5-14.5-2.2-21.3c0,0-0.3-0.6-0.3-0.6C79.3,305.1,80.1,302.6,82.4,304.1z"/>
<path class="st40" d="M71.8,161.9c-0.1-9.3-0.1-18.5-0.2-27.8c0.9-1.3,1.7-2.5,2.6-3.8c6.9,3.4,3,9.6,3.7,14.6c0.7,4.4,0,9-1.7,13.3
	C75.3,159.9,73.9,161.3,71.8,161.9z"/>
<path class="st41" d="M97.2,174.6c-1.4-11.2,2.2-22.8-2-33.9c-1.4-4.9,2.2-9.1,1.8-14.3c2.7,1.6,3.4,3.7,3.9,5.9
	c-3.1,13.1-2.6,26.3-0.3,39.5C100.2,173.7,98.7,174.1,97.2,174.6z"/>
<path class="st42" d="M142,323.4c-5.7-4.1-9.2-10.2-13.6-15.4c1.4-1.4,2.8-2.9,4.2-4.3c4.4,4.9,6.9,11.5,12.9,15.1
	C145.2,321,143.6,322.3,142,323.4z"/>
<path class="st43" d="M97.1,293.7c2.1,6.9-2.7,14.7,2.6,21.2c-2.2,1.4-4.4,2.8-6.7,4.2c0-7.6-0.1-15.3-0.1-22.9
	C93.4,294,94.5,292.7,97.1,293.7z"/>
<path class="st44" d="M86.6,187c0-8.4,0-16.8,0-25.1c0.6-2.2,1.9-4,3.8-5.2c2.1,8.8,1.1,17.6,0.5,26.4C89.4,184.4,88,185.7,86.6,187
	z"/>
<path class="st45" d="M84.5,149.3c0-15.6,0-31.2,0.1-46.8c1.1,1.6,2.3,3.2,3.4,4.8c-3.1,12.7-1,25.6-1.2,38.4
	C86,146.8,85.2,148.1,84.5,149.3z"/>
<path class="st46" d="M80.1,117.4c0.1,12.2,0.2,24.3,0.3,36.5c-0.7,0.7-1.3,1.4-2,2.2c-2.3-10.8-1.9-21.6-0.4-32.4
	C78.1,121.4,78.3,119.1,80.1,117.4z"/>
<path class="st47" d="M90.9,183.1c-1.4-8.8-1-17.6-0.5-26.4c0.7-1.4,1.5-2.7,2.2-4.1c0.1,9.5,0.3,19,0.4,28.5
	C92.3,181.8,91.6,182.4,90.9,183.1z"/>
<path class="st48" d="M78,123.7c0.1,10.8,0.2,21.6,0.4,32.4c-0.7,0.7-1.4,1.4-2.1,2.1c-1.6-9.2,2-18.8-2.1-27.8
	C75.5,128.1,76.7,125.9,78,123.7z"/>
<path class="st49" d="M83.8,101c-3.4,3.5,0.4,8.8-3.2,12.3c-0.1-4.7-1.3-9.7,0.1-13.9C82.1,95.9,82.8,100.3,83.8,101z"/>
<path class="st50" d="M130.8,258.1c0.4-4.3-1.7-8.8,1.7-12.7c0.6,1.5,1.2,3,1.8,4.5C133.2,252.7,132,255.4,130.8,258.1z"/>
<path class="st51" d="M19.6,224.5c2.5,3.4,2.6,6.9,0,10.3C19.6,231.4,19.6,228,19.6,224.5z"/>
<path class="st52" d="M233.3,229c5.6,0,11.2,0.2,16.7,0c8.1-0.3,10.4,5.1,10.4,11.4c0,6.1-2.9,10.5-10.2,10.4
	c-11.9-0.2-23.7-0.3-35.6,0.1c-5.3,0.2-6.2-2-6.3-6.7c-0.4-15.1-0.6-15.1,14.5-15.1C226.3,229,229.8,229,233.3,229z"/>
<path class="st52" d="M230.5,210.2c-3.9,0-7.8-0.5-11.5,0.1c-8.9,1.4-11.4-2.1-10.7-10.7c0.4-5.5,1.3-8.1,7.5-7.8
	c9.8,0.5,19.6,0.3,29.4,0.1c6.4-0.1,9.9,2.5,10,9.1c0.1,6.8-3.7,9.2-10,9.1C240.3,210,235.4,210.1,230.5,210.2
	C230.5,210.1,230.5,210.2,230.5,210.2z"/>
<path class="st53" d="M120.2,277.3c-2.1,1.2-4.2,2.5-6.4,3.7c-2.9-6.5-4.6-13.8-10.6-18.6c-15.1-12.2-30.1-24.6-42.7-39.4
	c-3.9-4.6-7.8-10.3-3.6-17.1c6.9-6.3,11.6-5.2,14.6,3.8c0.7,2.1,2.6,3.8,4,5.7c5.1,10.5,14.9,16.3,23.3,23.6
	c8.4,7.4,16.5,14.9,21.6,25.2c-0.7,3.1,0.4,5.7,1.9,8.3C121.5,274.1,120.9,275.7,120.2,277.3z"/>
<path class="st54" d="M56.9,206c0.3,11.5,7.5,19,15.2,26.2c10.6,9.9,22.9,18.1,31.2,30.3c-0.9,9.6,2.6,19.5-2.3,28.7
	c-0.5,0-1.1,0-1.6,0.1c-10.9-16.5-26.7-28.1-41.3-41.1c-6.2-5.5-14.6-11.6-11.8-22.5C46,218.7,46,209.7,56.9,206z"/>
<path class="st55" d="M46.2,227.7c2.9,10.5,10.2,17.9,18.2,24.8c10.2,8.9,21.8,16.4,29.7,27.6c2.3,3.3,3.5,7.5,5.3,11.2
	c-0.7,0.8-1.5,1.6-2.2,2.4c-1.4,0.8-2.8,1.7-4.2,2.5c-3.1,1.5-4-1.3-5.6-2.8c-5.3-1.8-7.1-6.3-8.7-11c-11.3-14.7-26.8-25.3-39-39.1
	c-3.3-6.7-4.2-13.8-3.6-21.1c1.4-2.1,2.9-4.2,4.3-6.3C45.4,218.2,42.4,224.7,46.2,227.7z"/>
<path class="st56" d="M78.5,282.4c3.7,3,6.4,6.9,8.7,11c-0.5,4.1-1.2,8.1-4.8,10.7c-1.5,0.6-3,1.1-4.6,1.7
	C78.1,298,78.3,290.2,78.5,282.4z"/>
<path class="st57" d="M419,315.7c5.6,0,10.6-0.3,10.5,6.3c-0.1,6.6-5.2,5.9-9.7,6.1c-4.7,0.3-7.4-0.2-7.4-6.4
	C412.3,315.4,415.5,315.3,419,315.7z"/>
<path class="st58" d="M250.9,331.2c-1,6.7-0.6,15.2-10.5,14.9c-9.7-0.3-9.9-9.1-10.1-15.6c-0.3-6.5,1.5-14.3,10.2-14.5
	C250.2,315.9,250.1,324.2,250.9,331.2z"/>
</svg>
