<?xml version="1.0" encoding="utf-8"?>
<!-- Generator: Adobe Illustrator 24.1.0, SVG Export Plug-In . SVG Version: 6.00 Build 0)  -->
<svg version="1.1" id="Layer_1" xmlns="http://www.w3.org/2000/svg" xmlns:xlink="http://www.w3.org/1999/xlink" x="0px" y="0px"
	 viewBox="0 0 283.5 283.5" style="enable-background:new 0 0 283.5 283.5;" xml:space="preserve">
<style type="text/css">
	.st0{fill:#00D0B1;}
</style>
<path class="st0" d="M130.4,0c0.3,0,0.6,0,0.9,0c4.1,1.5,7.1,4.4,10.1,7.4c22.7,22.8,45.5,45.6,68.3,68.4c2.8,2.8,5.6,5.5,8.2,8.4
	c3.3,3.6,3.3,5.4,0.1,8.9c-4.4,4.7-8.8,9.5-13.7,13.7c-11,9.5-20.6,20.2-31,30.3c-3.9,3.8-3.9,5,0,8.9c19,19.2,38.2,38.3,57.3,57.4
	c8,8,7.8,10.7-1.6,16.9c-29.4,19.6-58.8,39.2-88.1,58.9c-1.2,0.8-2.3,1.6-3.6,2.3c-6,3.1-9.5,2.6-14.4-2.2
	c-11.1-11.1-22.2-22.2-33.3-33.3c-14.5-14.6-29.1-29.1-43.6-43.7c-3-3-4.5-6.1-4.3-10.8c0.7-19.8,4.1-39.2,6.8-58.7
	c2.6-18.8,5.4-37.6,8-56.4c0.5-3.9,2-7.1,4.8-9.9C82,45.8,102.7,25.2,123.2,4.4C125.3,2.3,128,1.4,130.4,0z"/>
</svg>
