<svg id="Capa_1" enable-background="new 0 0 512 512" height="512" viewBox="0 0 512 512" width="512" xmlns="http://www.w3.org/2000/svg"><g><path d="m405.669 321.056h58.189l2-3.56v-125.062l-3-18.585 3-18.585v-26.4c0-3.902-.719-7.772-2.121-11.414l-10.041-26.083c-2.228-5.787-6.446-9.642-11.325-11.565 0 0-5.018 1.487-7.608 1.487s-7.607-1.487-7.607-1.487c-4.879 1.922-9.098 5.777-11.326 11.565l-10.04 26.083c-1.402 3.642-2.121 7.511-2.121 11.414v26.4l3 18.585-3 18.585v125.061z" fill="#cbe2ff"/><path d="m437.159 91.368 10.041 26.082c1.402 3.642 2.121 7.511 2.121 11.413v192.192h14.538l2-3.56v-125.061l-3-18.585 3-18.585v-26.4c0-3.902-.719-7.772-2.121-11.413l-10.041-26.083c-2.222-5.772-6.463-9.639-11.325-11.565 0 0-4.988 1.489-7.585 1.487s-7.628-1.479-7.628-1.479c-.223.088-.445.18-.665.276 4.597 2.002 8.539 5.757 10.665 11.281z" fill="#bed8fb"/><g><path d="m475.887 356.445h-13.75c-4.2 0-7.604-3.404-7.604-7.604 0-4.199 3.404-7.604 7.604-7.604h13.75c6.988 0 12.673-5.685 12.673-12.673v-72.694c0-8.733 7.105-15.837 15.837-15.837 4.2 0 7.604 3.404 7.604 7.604 0 4.199-3.404 7.604-7.604 7.604-.348 0-.63.283-.63.63v72.694c0 15.373-12.508 27.88-27.88 27.88z" fill="#2b4d66"/></g><g><path d="m434.764 89.008c-4.2 0-7.604-3.404-7.604-7.604v-22.939c0-4.199 3.404-7.604 7.604-7.604s7.604 3.404 7.604 7.604v22.939c0 4.2-3.404 7.604-7.604 7.604z" fill="#2b4d66"/></g><g><path d="m352.89 508.142h-337.89c-8.284 0-15-6.716-15-15v-453.318c0-8.284 6.716-15 15-15h337.89c8.284 0 15 6.716 15 15v453.318c0 8.284-6.716 15-15 15z" fill="#80b4fb"/></g><g><path d="m352.89 24.824h-10.351v442.967c0 8.284-6.716 15-15 15h-327.539v10.351c0 8.284 6.716 15 15 15h337.89c8.284 0 15-6.716 15-15v-453.318c0-8.284-6.716-15-15-15z" fill="#61a2f9"/></g><g><path d="m208.324 54.718h-48.758v-26.838c0-13.267 10.755-24.022 24.022-24.022h.714c13.267 0 24.022 10.755 24.022 24.022z" fill="#ffe07d"/></g><path d="m184.302 3.858h-.714c-2.54 0-4.986.397-7.284 1.128 9.706 3.085 16.738 12.167 16.738 22.895v26.838h15.281v-26.839c.001-13.267-10.754-24.022-24.021-24.022z" fill="#ffd064"/><g><path d="m112.983 462.799h205.08c8.284 0 15-6.716 15-15v-353.87c0-8.399-6.808-15.207-15.207-15.207h-267.822c-8.399 0-15.207 6.808-15.207 15.207v290.714c0 .892.235 1.76.671 2.52.221.386 48.76 26.142 48.76 26.142s26.105 48.765 26.204 48.822c.761.437 1.629.672 2.521.672z" fill="#f4fbff"/></g><g><path d="m317.855 78.722h-18.87v335c0 8.284-6.716 15-15 15h-178.135s4.226 33.185 4.612 33.406c.761.436 1.628.671 2.52.671h205.08c8.284 0 15-6.716 15-15v-353.87c0-8.399-6.808-15.207-15.207-15.207z" fill="#e4f6ff"/></g><g><path d="m101.159 387.153c5.144 0 9.314 4.17 9.314 9.314v65.641c-.386-.221-.755-.475-1.075-.795l-73.086-73.086c-.32-.32-.574-.689-.795-1.075h65.642z" fill="#e4f6ff"/></g><g><path d="m101.159 387.153h-26.215c5.144 0 9.314 4.17 9.314 9.314v39.706l25.14 25.14c.32.32.678.592 1.064.814l.011-65.661c0-5.143-4.17-9.313-9.314-9.313z" fill="#d3effb"/></g><g><path d="m248.945 99.454-11.234 7.199c-1.866 1.196-4.258 1.196-6.124 0l-10.784-6.911c-1.866-1.196-4.258-1.196-6.125 0l-10.778 6.909c-1.866 1.196-4.258 1.197-6.125 0l-10.782-6.91c-1.866-1.196-4.258-1.196-6.124 0l-10.78 6.91c-1.866 1.196-4.258 1.196-6.125 0l-10.779-6.91c-1.866-1.196-4.259-1.196-6.125 0l-10.778 6.909c-1.866 1.196-4.258 1.197-6.125 0l-11.23-7.198c-1.628-1.043-2.613-2.844-2.613-4.778v-33.619c0-5.599 4.539-10.138 10.138-10.138h114.968c5.599 0 10.138 4.539 10.138 10.138v33.621c0 1.933-.985 3.734-2.613 4.778z" fill="#ffd064"/></g><g><g><path d="m241.42 50.916h-23.175c5.599 0 10.138 4.539 10.138 10.138v33.621c0 1.934-.985 3.735-2.613 4.778l-2.708 1.735 8.525 5.463c1.866 1.196 4.258 1.196 6.124 0l11.234-7.199c1.628-1.043 2.613-2.844 2.613-4.778v-33.619c0-5.6-4.539-10.139-10.138-10.139z" fill="#ffc250"/></g></g><path d="m442.368 79.814c-4.854-1.912-10.354-1.912-15.207 0v268.808h15.207z" fill="#80b4fb"/><g><path d="m403.669 155.263h62.189v37.171h-62.189z" fill="#ffe07d"/></g><g><path d="m403.669 317.495v41.025c0 7.018 5.69 12.708 12.708 12.708h36.773c7.018 0 12.708-5.69 12.708-12.708v-2.075l-3.313-7.823 3.313-7.384v-23.742h-62.189z" fill="#365e7d"/></g><g><path d="m449.321 155.263h16.538v37.171h-16.538z" fill="#ffd064"/></g><g><path d="m449.321 317.495v41.025c0 7.018-5.69 12.708-12.708 12.708h16.538c7.018 0 12.708-5.69 12.708-12.708v-41.025z" fill="#2b4d66"/></g><g><circle cx="85.371" cy="161.77" fill="#365e7d" r="11.138"/></g><g><circle cx="85.371" cy="231.787" fill="#365e7d" r="11.138"/></g><g><circle cx="85.371" cy="302.078" fill="#365e7d" r="11.138"/></g><g><path d="m267.963 169.374h-139.431c-4.2 0-7.604-3.404-7.604-7.604 0-4.199 3.404-7.604 7.604-7.604h139.431c4.2 0 7.604 3.404 7.604 7.604-.001 4.199-3.405 7.604-7.604 7.604z" fill="#d3effb"/></g><g><path d="m239.734 204.382h-111.202c-4.2 0-7.604-3.404-7.604-7.604s3.404-7.604 7.604-7.604h111.202c4.2 0 7.604 3.404 7.604 7.604s-3.404 7.604-7.604 7.604z" fill="#d3effb"/></g><g><path d="m267.963 239.39h-139.431c-4.2 0-7.604-3.404-7.604-7.604s3.404-7.604 7.604-7.604h139.431c4.2 0 7.604 3.404 7.604 7.604s-3.405 7.604-7.604 7.604z" fill="#d3effb"/></g><g><path d="m267.963 309.407h-139.431c-4.2 0-7.604-3.404-7.604-7.604 0-4.199 3.404-7.604 7.604-7.604h139.431c4.2 0 7.604 3.404 7.604 7.604-.001 4.2-3.405 7.604-7.604 7.604z" fill="#d3effb"/></g><g><path d="m267.963 344.415h-139.431c-4.2 0-7.604-3.404-7.604-7.604 0-4.199 3.404-7.604 7.604-7.604h139.431c4.2 0 7.604 3.404 7.604 7.604-.001 4.2-3.405 7.604-7.604 7.604z" fill="#d3effb"/></g><g><path d="m239.734 379.424h-111.202c-4.2 0-7.604-3.404-7.604-7.604 0-4.199 3.404-7.604 7.604-7.604h111.202c4.2 0 7.604 3.404 7.604 7.604s-3.404 7.604-7.604 7.604z" fill="#d3effb"/></g></g></svg>