<?xml version="1.0" encoding="utf-8"?>
<!-- Generator: Adobe Illustrator 24.1.0, SVG Export Plug-In . SVG Version: 6.00 Build 0)  -->
<svg version="1.1" id="Layer_1" xmlns="http://www.w3.org/2000/svg" xmlns:xlink="http://www.w3.org/1999/xlink" x="0px" y="0px"
	 viewBox="0 0 413.8 413.8" style="enable-background:new 0 0 413.8 413.8;" xml:space="preserve">
<style type="text/css">
	.st0{fill:#EFC389;}
	.st1{fill:#4C4371;}
	.st2{fill:#4C4372;}
	.st3{fill:#4D4372;}
	.st4{fill:#FEFEFE;}
	.st5{fill:#D2E5F7;}
	.st6{fill:#A3CEF0;}
	.st7{fill:#FC909D;}
	.st8{fill:#D2E5F6;}
	.st9{fill:#7AAAEF;}
	.st10{fill:#FA8F9D;}
	.st11{fill:#FDFDFD;}
	.st12{fill:#E6677D;}
	.st13{fill:#E7677D;}
	.st14{fill:#7AA9EF;}
	.st15{fill:#D1E4F5;}
</style>
<path class="st0" d="M0,206.4C0.5,92.6,91.7,1.5,203.9,0c116.8-1.6,209.7,92.5,209.9,206.4c0.2,114.7-92.3,207.2-206.4,207.4
	C92.9,414.1-0.1,321.4,0,206.4z"/>
<path class="st1" d="M287,329.3c0,9.2,0.1,18.3,0,27.5c-0.1,10.5-7,18-16.9,18.7c-9.3,0.6-17.8-6.4-18.3-16.6
	c-0.7-15.3-0.4-30.6-0.5-45.9c0-4.3-0.2-8.7,0.1-13c0.2-3.4-1.2-4.3-4.3-4.1c-3.1,0.2-6.4,0.3-9.4-0.4c-2.9-0.6-3.8,0.6-4.9,2.8
	c-3.4,7.2-5.1,14.7-5,22.7c0,7.1,0.4,14.3-0.5,21.4c-2.4,19-19.3,33.8-38.2,33.2c-20.3-0.6-36.3-16.6-37.2-36.5
	c-0.3-7.6,0.3-15.2-0.4-22.9c-1.4-15.6-8.7-27.7-21.2-36.8C107.7,263,93.9,241.2,88.6,214c-8.3-43,14.1-89.1,53.1-109
	c41-20.8,86.4-14.7,119.4,17.4c25.8,25.1,34.9,56.3,29.4,91.7c-0.3,1.9-1.9,4.5-0.3,5.5c2,1.4,4.7,0.4,7-1
	c10.6-6.9,21.3-13.7,32-20.4c8.4-5.4,16.8-10.8,25.3-15.9c5.6-3.4,10.3-0.6,10.3,6c0.1,14.5,0.1,29,0,43.5c0,3,0.6,4.1,3.9,4.6
	c12.1,2,19.4,10.9,19.2,22.4c-0.2,11.1-8.1,19.6-20.1,21c-3.5,0.4-3,2.3-3,4.3c0,14.2-0.1,28.3,0,42.5c0,3.1-0.1,6.2-3.1,7.8
	c-3.2,1.7-6,0.3-8.8-1.5c-18.1-11.6-36.2-23-54.3-34.5c-1-0.6-1.9-1.4-3-1.9c-5.5-2.5-8.7-0.6-8.7,5.3C287,311,287,320.1,287,329.3z
	"/>
<path class="st2" d="M181.9,57.7c0-4.3,0-8.7,0-13c0-3.8,2.2-6.1,5.8-6.2c3.6-0.1,6,2.3,6.1,5.9c0.2,9.2,0.2,18.3,0,27.5
	c-0.1,3.5-2.6,6-6.3,5.8c-3.4-0.2-5.4-2.4-5.5-6C181.8,67,181.9,62.4,181.9,57.7C181.9,57.7,181.9,57.7,181.9,57.7z"/>
<path class="st1" d="M327.9,100.2c0.1,2-1.1,3.4-2.4,4.8c-5.9,5.9-11.7,11.8-17.6,17.7c-2.8,2.8-6,3.9-9.2,0.9
	c-3.2-3.1-2.2-6.3,0.6-9.2c6-6,12-12,18-18c2-2,4.3-3.2,7.2-1.7C326.7,95.8,328,97.5,327.9,100.2z"/>
<path class="st3" d="M45.1,240.1c-4.3,0-8.6,0.1-13,0c-3.7-0.1-6-2-6.1-5.8c-0.1-3.8,2.4-6,5.9-6.1c9-0.2,18-0.2,26.9,0
	c3.7,0.1,6.4,2.3,6.1,6.4c-0.2,3.8-2.7,5.5-6.4,5.5C54,240.1,49.5,240.1,45.1,240.1z"/>
<path class="st2" d="M72.7,125.1c-1.7,0.2-3.2-0.8-4.5-2.2c-6-6-12-12-18-18c-2.9-2.9-3.7-6.1-0.6-9.2c2.9-3,6-2.2,8.7,0.6
	c6.2,6.2,12.5,12.4,18.6,18.7c1.7,1.8,2.6,3.8,1.5,6.3C77.3,123.7,75.6,125.1,72.7,125.1z"/>
<path class="st4" d="M263.9,219.9c-7.7,0.1-15.3,0.1-23,0.3c-7.4,0.3-14.3,2.8-20.6,6.8c-1.6-3.8-2.9-7.3-5.2-10.5
	c-8-11-22-15.7-35-11.7c-12.7,4-21.6,15.8-22,29.2c-0.4,13.2,7.9,25.8,20.6,30c4.3,1.4,5.2,3.4,5,7.4c-0.3,6.7-0.2,13.3,0,20
	c0.1,2.9-0.9,3.8-3.7,3.7c-6.2-0.2-12.3-0.1-18.5,0c-2.3,0.1-3.5-0.7-4.6-2.8c-4.7-9.7-12-17-20.5-23.4
	c-25.5-19.2-37.9-44.9-37.4-76.7c0.6-42.5,36.3-81.5,78.5-86.4c22.7-2.6,43.6,1.8,62.5,14.9c21.6,18.7,29.8,43.3,30.1,71
	c0.1,7.6-1.3,15.2-3.2,22.6C266.4,216.4,265.7,218.5,263.9,219.9z"/>
<path class="st5" d="M263.8,283.9c-7,0-14,0.1-21,0c-14.7-0.2-26-11.1-26.2-25.2c-0.3-14.3,10.5-26,25.1-26.4c15-0.4,30-0.1,45-0.2
	c2.5,0,3.5,0.7,3.5,3.4c-0.1,15-0.1,30,0,45c0,3-1.2,3.5-3.8,3.5C278.7,283.8,271.3,283.9,263.8,283.9z"/>
<path class="st5" d="M326.5,214.3c0,29.7,0,58.1,0,87.5c-7.9-5-15.3-9.7-22.6-14.3c-1.6-1-1.2-2.6-1.2-4.1c0-17,0-33.9,0-50.9
	c0-1.5-0.3-3,1.3-4C311.3,223.9,318.5,219.3,326.5,214.3z"/>
<path class="st6" d="M352.6,318c-4.6-2.9-8.5-5.4-12.4-7.8c-1.6-1-1.5-2.4-1.5-3.9c0-32.2,0-64.3,0-96.5c0-2,0.4-3.5,2.2-4.6
	c3.7-2.2,7.3-4.5,11.7-7.3c0,20.5,0,40.2,0,59.9C352.6,277.5,352.6,297.2,352.6,318z"/>
<path class="st7" d="M189.6,253.9c-10.8,0-19.5-8.5-19.5-19c0-10.6,8.7-19.2,19.4-19.2c10.9,0,19.4,8.3,19.4,19.1
	C208.9,245.5,200.4,253.9,189.6,253.9z"/>
<path class="st8" d="M263.9,219.9c3.4-11,5.6-22.3,4.9-33.8c-1.5-23.6-9.4-44.6-26.1-61.9c-1-1.1-2.4-1.9-2.7-3.5
	c21.6,14.4,34.3,34.6,38.9,59.9c2.1,11.5,1.6,23.1-0.8,34.6c-0.8,3.9-2.4,5.3-6.2,4.9C269.2,219.8,266.5,219.9,263.9,219.9z"/>
<path class="st9" d="M274.9,328.2c0,9,0,18,0,27c0,5.4-2.1,8.4-5.7,8.4c-3.6,0-6.1-3.2-6.1-8.2c0-18.5,0-37-0.1-55.4
	c0-2.9,0.7-4.4,3.9-4c1.1,0.1,2.3,0.1,3.5,0c3.4-0.5,4.7,0.7,4.6,4.3C274.8,309.5,274.9,318.8,274.9,328.2z"/>
<path class="st10" d="M164,324.9c-0.4-5.3-0.8-10.7-1.2-16c0.2-2.2,1.9-1.5,3-1.5c11.6-0.1,23.2,0.1,34.8-0.1c3.2,0,4.6,1.3,4.8,4.3
	c0,0.7,0-0.2,0,0.5c1.3,12.5,0.6,13.4-11.7,13.2C183.9,325.2,173.9,325.9,164,324.9z"/>
<path class="st7" d="M181.8,361.9c-9-2.5-16.6-11-17.9-19.9c-0.4-3.1,0.2-4.5,3.7-4.4c11.7,0.2,23.5,0.2,35.2,0.3
	c0.8,0.9,1.1,2.1,0.8,3.2c-2.5,9.2-11.1,19.2-20,21.1C183.1,362.3,182.4,362.3,181.8,361.9z"/>
<path class="st11" d="M207.9,294.9c-12.2,1-12.2,1-12.3-11.1c0-4.8,0.1-9.7-0.1-14.5c-0.1-2.6,1-3.4,3.3-4.6
	c4.7-2.3,6.4-1.2,7.1,3.8c0.8,5.4,4.2,9.7,7.1,14.1C213.7,287.6,210.8,291.2,207.9,294.9z"/>
<path class="st12" d="M181.8,361.9c11.5-4.1,19-11.8,21.1-24.1c2.5,0,5,0.2,7.5-0.2c5.4-0.9,5.2,2.2,4.4,5.7
	C211.6,357.7,194.8,367.6,181.8,361.9z"/>
<path class="st13" d="M164,324.9c11.8,0,23.7-0.2,35.5,0c3.6,0.1,4.5-1.2,4.5-4.6c0.1-12.5,0.2-12.5-12.5-12.5c-7.8,0-15.7,0-23.5,0
	c-1.8,0-3.7-0.6-5.2,1c-1.1-2,0.4-1.9,1.6-1.9c16.6,0,33.3,0,49.9,0c2,0,2.6,0.8,2.1,2.8c-1,4.1-0.6,8.3-0.7,12.4
	c0,2.2-0.7,3.5-3.1,3.5c-15.8,0-31.6,0-47.4,0C164.8,325.7,164.4,325.2,164,324.9z"/>
<path class="st14" d="M375.9,258.1c0.1,2.9-1,5.2-3,7.1c-1.9,1.8-4.3,3.2-6.7,2.5c-2.8-0.8-1.2-3.7-1.3-5.6c-0.2-3.6,0-7.3-0.1-10.9
	c-0.1-3.3,1.4-3.6,4-2.7C373.3,250.1,375.8,253.2,375.9,258.1z"/>
<path class="st15" d="M207.9,294.9c1.7-4.1,3.5-8.2,5.2-12.3c2.5,2.1,4.9,4.3,7.4,6.4c1,0.9,2.8,1.3,1.7,3.4
	c-0.8,1.5-1.4,2.9-3.5,2.8C215.1,295,211.5,295,207.9,294.9z"/>
</svg>
