<?xml version="1.0" encoding="utf-8"?>
<!-- Generator: Adobe Illustrator 24.1.0, SVG Export Plug-In . SVG Version: 6.00 Build 0)  -->
<svg version="1.1" id="Layer_1" xmlns="http://www.w3.org/2000/svg" xmlns:xlink="http://www.w3.org/1999/xlink" x="0px" y="0px"
	 viewBox="0 0 612 609.4" style="enable-background:new 0 0 612 609.4;" xml:space="preserve">
<style type="text/css">
	.st0{fill:#FD6517;}
</style>
<path class="st0" d="M241.3,387.6c0,19,0.4,38.1-0.1,57.1c-0.6,25-13.6,38.2-38.2,34.8c-57.4-7.9-106-31.6-134.9-85.1
	c-25.4-47.1-17.6-104.3,19.1-146.3c29.1-33.3,66.6-53.2,108.3-65c91.5-25.7,181.3-23.5,267.5,20.2c38.8,19.7,71.5,46.6,92,86.1
	c2.9,5.6,4.9,11.6,7.1,17.5c2.2,5.9,1.4,11.4-4.2,15c-5.8,3.7-11.1,1.3-15.4-2.9c-8.6-8.4-17.1-16.9-26.7-24.1
	c-62.3-46.9-131.7-61.1-207.1-43.1c-46,11-67.2,40.5-67.3,87.6c0,16,0,32,0,48.1C241.5,387.6,241.4,387.6,241.3,387.6z"/>
<path class="st0" d="M371.1,387.1c0-20.7-0.8-41.4,0.2-62.1c1-21.7,12.9-33.6,34.2-31.4c60,6.1,110,31.1,139,86.3
	c28.7,54.5,13.4,118.8-35.4,161c-37.4,32.4-82,49.5-129.8,58.3c-61.2,11.3-122.3,10.2-182-9.2c-53.2-17.3-99.6-44.8-132.2-91.8
	c-5.7-8.2-10.4-17.1-13.7-26.6c-2.4-6.8-6-14.6,1.9-19.9c8.2-5.5,14.4,0.2,20,5.9c24,25,52.2,43.7,84.7,55.3
	c53.4,19.1,107.6,23.4,161.4,2.6c33.1-12.8,50.3-38.4,50.7-74.3c0.2-18,0-36,0-54.1C370.5,387.1,370.8,387.1,371.1,387.1z"/>
<path class="st0" d="M310.6,3c19.2,1.2,39.3,9.9,52.1,31.2c12.3,20.5,5.6,49-14.7,64.4c-24.3,18.4-61.7,18.3-85.9-0.4
	c-28.1-21.6-27.4-60.6,1.5-82C275,7.7,290.3,2.9,310.6,3z"/>
</svg>
