<?xml version="1.0" encoding="utf-8"?>
<!-- Generator: Adobe Illustrator 24.1.0, SVG Export Plug-In . SVG Version: 6.00 Build 0)  -->
<svg version="1.1" id="Layer_1" xmlns="http://www.w3.org/2000/svg" xmlns:xlink="http://www.w3.org/1999/xlink" x="0px" y="0px"
	 viewBox="0 0 141.7 141.7" style="enable-background:new 0 0 141.7 141.7;" xml:space="preserve">
<style type="text/css">
	.st0{fill:#2B2B2B;}
</style>
<g>
	<path class="st0" d="M74.4,94.4l8,8.5l-13.2,11.7l-8.6-9.1c-5.6,2.8-12.1,4.4-18.8,4.4C18.7,109.9,0,91.8,0,68.1
		c0-23.7,18.7-41.8,41.8-41.8c23.1,0,41.8,18.1,41.8,41.8C83.6,78.2,80.2,87.3,74.4,94.4z M47.4,91.4L35.8,79.1L49,67.4l12.9,13.7
		c2.1-3.7,3.3-8,3.3-13c0-14.4-10.3-23.9-23.4-23.9c-13.1,0-23.4,9.5-23.4,23.9C18.4,82.5,28.7,92,41.8,92
		C43.8,92,45.6,91.8,47.4,91.4z"/>
	<path class="st0" d="M141.6,90.6v17.7H94.5V27.9h18.4v62.7H141.6z"/>
</g>
</svg>
