<svg id="Capa_1" enable-background="new 0 0 512 512" height="512" viewBox="0 0 512 512" width="512" xmlns="http://www.w3.org/2000/svg"><g><g><g><path d="m51.422 512h-10.233c-16.031 0-29.026-12.995-29.026-29.026v-310.4c0-8.721 7.07-15.791 15.791-15.791h62.727v312.302c0 22.313-17.035 40.934-39.259 42.915z" fill="#c6d0da"/></g><g><g><g><g><path d="m437.89 475.021v-451.715c0-12.871-10.434-23.306-23.306-23.306h-321.062c-12.872 0-23.307 10.435-23.307 23.306v459.839c0 14.97-11.333 27.289-25.887 28.854h356.585c20.422 0 36.977-16.556 36.977-36.978z" fill="#f9f6f6"/><path d="m449.986 0h-41.902c12.872 0 23.306 10.435 23.306 23.306v451.714c0 20.423-16.556 36.979-36.979 36.979h41.902c20.423 0 36.98-16.556 36.98-36.979v-451.714c-.001-12.871-10.436-23.306-23.307-23.306z" fill="#e7ecf1"/><path d="m421.576 145.038h-301.634c-5.42 0-9.814-4.394-9.814-9.814v-80.767c0-5.42 4.394-9.814 9.814-9.814h301.635c5.42 0 9.814 4.394 9.814 9.814v80.767c-.001 5.42-4.395 9.814-9.815 9.814z" fill="#d5b0ec"/><path d="m421.576 44.643h-32.101v90.581c0 5.42-4.394 9.814-9.814 9.814h41.915c5.42 0 9.814-4.394 9.814-9.814v-80.767c0-5.42-4.394-9.814-9.814-9.814z" fill="#c995e4"/></g><g><g><g><path d="m229.842 205.309h-118.499c-4.269 0-7.729-3.46-7.729-7.729s3.46-7.729 7.729-7.729h118.498c4.269 0 7.729 3.46 7.729 7.729.001 4.269-3.46 7.729-7.728 7.729z" fill="#c9e2e7"/></g><g><path d="m229.842 245.64h-118.499c-4.269 0-7.729-3.46-7.729-7.729s3.46-7.729 7.729-7.729h118.498c4.269 0 7.729 3.46 7.729 7.729.001 4.269-3.46 7.729-7.728 7.729z" fill="#c9e2e7"/></g></g><g><g><path d="m229.842 311.03h-118.499c-4.269 0-7.729-3.46-7.729-7.729s3.46-7.729 7.729-7.729h118.498c4.269 0 7.729 3.46 7.729 7.729.001 4.269-3.46 7.729-7.728 7.729z" fill="#c9e2e7"/></g><g><path d="m229.842 351.361h-118.499c-4.269 0-7.729-3.46-7.729-7.729s3.46-7.729 7.729-7.729h118.498c4.269 0 7.729 3.46 7.729 7.729.001 4.269-3.46 7.729-7.728 7.729z" fill="#c9e2e7"/></g></g><g><g><path d="m229.842 416.75h-118.499c-4.269 0-7.729-3.46-7.729-7.729s3.46-7.729 7.729-7.729h118.498c4.269 0 7.729 3.46 7.729 7.729s-3.46 7.729-7.728 7.729z" fill="#c9e2e7"/></g><g><path d="m229.842 457.081h-118.499c-4.269 0-7.729-3.46-7.729-7.729s3.46-7.729 7.729-7.729h118.498c4.269 0 7.729 3.46 7.729 7.729s-3.46 7.729-7.728 7.729z" fill="#c9e2e7"/></g></g></g><g><g><g><path d="m430.175 205.309h-118.499c-4.269 0-7.729-3.46-7.729-7.729s3.46-7.729 7.729-7.729h118.498c4.269 0 7.729 3.46 7.729 7.729.001 4.269-3.46 7.729-7.728 7.729z" fill="#c9e2e7"/></g><g><path d="m430.175 245.64h-19.596c-4.269 0-7.729-3.46-7.729-7.729s3.46-7.729 7.729-7.729h19.596c4.269 0 7.729 3.46 7.729 7.729s-3.461 7.729-7.729 7.729z" fill="#c9e2e7"/></g></g></g></g></g></g><g><g><path d="m494.405 506.568c-7.242 7.242-18.985 7.242-26.227 0l-79.871-79.871c-2.234-2.234-2.234-5.855 0-8.089l18.138-18.138c2.234-2.234 5.855-2.234 8.089 0l79.871 79.871c7.243 7.243 7.243 18.985 0 26.227z" fill="#7ba0b0"/></g><g><circle cx="335.983" cy="348.146" fill="#fbbe66" r="108.17"/><circle cx="335.983" cy="348.146" fill="#f9f6f6" r="76.488"/><path d="m390.068 294.061c-20.32-20.32-49.224-26.801-75.036-19.475 12.132 3.443 23.583 9.925 33.134 19.475 29.87 29.87 29.87 78.299 0 108.17-9.551 9.551-21.002 16.032-33.134 19.475 25.812 7.326 54.716.844 75.036-19.475 29.87-29.871 29.87-78.3 0-108.17z" fill="#e7ecf1"/></g></g></g></g></svg>