<svg width="24" height="24" viewBox="0 0 24 24" fill="none" xmlns="http://www.w3.org/2000/svg">
<g clip-path="url(#clip0_2072_3659)">
<path d="M23.939 23.939H0V0H23.939V23.939Z" fill="#FA2A00"/>
<path d="M15.0933 12.7477C14.7335 14.7214 13.0385 16.3359 10.4238 16.3359C7.30046 16.3359 5.41992 14.0418 5.41992 11.4271C5.41992 8.865 7.20736 6.51562 10.3966 6.51562C13.1323 6.51562 14.8273 8.23657 15.08 10.3844H12.825C12.6255 9.29058 11.7977 8.46401 10.4238 8.46401C8.63506 8.46401 7.62164 9.87838 7.62164 11.4271C7.62164 13.0676 8.75542 14.3889 10.4504 14.3889C11.7046 14.3889 12.5318 13.6681 12.7984 12.7477H15.0933Z" fill="white"/>
<path d="M17.7125 6.73438L16.3346 7.32486L18.0616 11.3632L16.334 15.4029L17.7125 15.9921L18.8715 13.2624L18.8775 13.275L19.6795 11.3632L17.7125 6.73438Z" fill="white"/>
</g>
<defs>
<clipPath id="clip0_2072_3659">
<rect width="24" height="24" fill="white"/>
</clipPath>
</defs>
</svg>
