<?xml version="1.0" encoding="utf-8"?>
<!-- Generator: Adobe Illustrator 24.1.0, SVG Export Plug-In . SVG Version: 6.00 Build 0)  -->
<svg version="1.1" id="Layer_1" xmlns="http://www.w3.org/2000/svg" xmlns:xlink="http://www.w3.org/1999/xlink" x="0px" y="0px"
	 viewBox="0 0 1635.3 1963.8" style="enable-background:new 0 0 1635.3 1963.8;" xml:space="preserve">
<style type="text/css">
	.st0{fill:#EE4323;}
</style>
<path class="st0" d="M526.1,1963.7c-117.7-50.9-227.9-180.3-228.2-312.6c-0.3-144.3,91.1-266.8,204.9-347.3
	c-13.7,51.7-21.1,98.9,12.7,145.1c31.5,43,86.7,63.8,138.7,52.5c121.7-26.6,127.3-160.4,55.1-238.4
	C638,1185.8,569,1098.6,596.2,986.7c13.6-56.1,48-108.7,91.7-146.2c-33.5,88.2,61.8,175.1,124.6,218.4
	c109,75.1,228.5,131.9,328.7,220c105.4,92.6,183.2,217.7,167.5,362.9c-17,157.3-142.1,266.8-282.3,322
	c296.4-65.4,602.6-295.4,608.9-624.1c5.2-270.4-180.3-478.5-410.1-597.6l-12-6.6c6.3,15.3,8.4,28.3,8.1,40
	c2.1-8.6,3.5-17.4,3.8-26.5c-0.1,10.8-1.5,21.6-4.2,32.1l0.4-5.5c-3.4,14.4-9.2,28.1-17,40.5l3.4-3.6
	c-45.8,76-169.9,92.5-231.3,13.8c-98.6-126.6,2.1-263.2,16.1-397.3C1010.1,260.8,904.7,97.6,774,0c72,116.4-22.9,270.5-98.7,356.6
	c-73.6,83.5-163,153.2-244.3,229c-87.2,81.5-171.1,167.3-242.8,262.9C44.8,1040-43,1280.7,21.5,1519.4
	C86,1758,292.7,1909.9,526.1,1963.7L526.1,1963.7z"/>
</svg>
