<?xml version="1.0" encoding="utf-8"?>
<!-- Generator: Adobe Illustrator 24.1.0, SVG Export Plug-In . SVG Version: 6.00 Build 0)  -->
<svg version="1.1" id="icons" xmlns="http://www.w3.org/2000/svg" xmlns:xlink="http://www.w3.org/1999/xlink" x="0px" y="0px"
	 viewBox="0 0 512 512" style="enable-background:new 0 0 512 512;" xml:space="preserve">
<style type="text/css">
	.st0{fill:#E6E9ED;}
	.st1{fill:#4A89DC;}
	.st2{fill:#5D9CEC;}
	.st3{fill:#87BCF4;}
</style>
<path class="st0" d="M256,490.6c-109,0-197.6-88.7-197.6-197.6S147,95.3,256,95.3S453.6,184,453.6,292.9S365,490.6,256,490.6z
	 M256,111.8c-99.9,0-181.2,81.3-181.2,181.2S156.1,474.1,256,474.1s181.2-81.3,181.2-181.2S355.9,111.8,256,111.8z"/>
<path class="st1" d="M511.3,367.4v82.3l-74.1,57.6V425L511.3,367.4z"/>
<path class="st2" d="M437.2,425L363,367.4l74.1-57.7l6.9,5.3v0.1l67.2,52.3L437.2,425z"/>
<path class="st3" d="M437.2,425v82.3L363,449.6v-0.3v-82h0.1L437.2,425z"/>
<path class="st1" d="M330.1,118.6v26.1L256,202.3V120l74.1-57.6V118.6z"/>
<path class="st2" d="M330.1,62.4L256,120l-74.1-57.6L256,4.7L330.1,62.4z"/>
<path class="st3" d="M256,120v82.3l-74.1-57.7v-26V62.4L256,120z"/>
<path class="st1" d="M149,449.3v0.3l-74.2,57.6V425l74.2-57.6V449.3z"/>
<path class="st2" d="M74.8,425l-74-57.6l67.1-52.3V315l6.9-5.3l74.2,57.7L74.8,425z"/>
<path class="st3" d="M74.8,425v82.3L0.7,449.6v-82.3h0.1L74.8,425z"/>
<g>
	<rect x="183.8" y="225.2" class="st1" width="31.8" height="150"/>
	<rect x="240.1" y="256" class="st1" width="31.8" height="119.3"/>
	<rect x="296.4" y="289.7" class="st1" width="31.8" height="85.6"/>
</g>
</svg>
