<svg width="24" height="24" viewBox="0 0 24 24" fill="none" xmlns="http://www.w3.org/2000/svg">
<g clip-path="url(#clip0_2072_3641)">
<path d="M23.1159 17.1028C22.7705 18.0917 22.0634 18.7308 21.1699 19.2397C18.5196 20.7479 15.8975 22.3041 13.1829 23.6999C12.3952 24.1045 11.7391 24.1075 10.9506 23.7014C8.04153 22.2028 5.21008 20.5674 2.40674 18.8839C1.49917 18.3388 0.990282 17.5192 1.00286 16.3839C1.03466 13.4991 1.03984 10.613 1.00138 7.72752C0.984365 6.48488 1.50953 5.56621 2.52139 4.97743C5.41053 3.29839 8.3115 1.63413 11.3478 0.225807C11.512 0.149621 11.6785 0.077873 11.8434 0.00390625C11.9906 0.00390625 12.1378 0.00390625 12.2857 0.00390625C13.2658 0.225807 14.1186 0.741355 14.9937 1.19699C16.7437 2.10752 18.4716 3.05873 20.1832 4.04027C20.8821 4.44117 21.6211 4.77624 22.2202 5.34357C22.7084 5.80586 23.0649 6.31845 23.1159 7.00634V17.1035V17.1028Z" fill="#004A7C"/>
<path d="M21.9372 12.0203C21.9372 13.4079 21.9054 14.797 21.949 16.1832C21.9757 17.0493 21.5711 17.5937 20.8758 17.9998C19.7219 18.6736 18.5747 19.3586 17.4119 20.0176C15.7906 20.937 14.1685 21.8557 12.4968 22.6834C12.1921 22.8343 11.9487 22.8402 11.641 22.6878C9.46568 21.6049 7.36502 20.3874 5.26215 19.1751C4.59275 18.7898 3.93001 18.394 3.26209 18.0057C2.55201 17.593 2.17034 17.0382 2.18292 16.1565C2.22138 13.3813 2.21916 10.6053 2.1844 7.83011C2.1733 6.92771 2.56533 6.32266 3.2939 5.90845C5.91602 4.41802 8.54405 2.93646 11.2409 1.58139C11.8208 1.28996 12.2956 1.28257 12.88 1.57622C15.5872 2.93794 18.2263 4.42394 20.8588 5.9225C21.574 6.32932 21.9727 6.93585 21.9476 7.82123C21.9076 9.21994 21.9365 10.6209 21.9365 12.0211L21.9372 12.0203Z" fill="#2886CD"/>
<path d="M6.89837 13.9828C7.82961 15.0058 8.87994 15.7662 10.1958 16.1027C11.383 16.406 12.579 16.3202 13.7721 16.0997C13.954 16.0665 14.0132 15.9932 14.0132 15.8113C14.008 14.1049 14.0088 12.3977 14.0125 10.6913C14.0125 10.533 13.9563 10.4124 13.8638 10.2897C13.3165 9.56478 12.7721 8.83769 12.2328 8.10764C12.1293 7.96784 12.0339 7.90719 11.8386 7.93307C10.0886 8.16237 8.33554 8.37096 6.58549 8.59877C6.36951 8.62688 6.31477 8.58324 6.30589 8.36578C6.2874 7.92938 6.48268 7.6128 6.79703 7.348C7.48418 6.76958 8.31113 6.50034 9.16767 6.31912C11.4273 5.84055 13.673 5.87384 15.8883 6.57578C16.4157 6.74295 16.9105 6.98408 17.3402 7.34726C17.7448 7.68898 17.895 8.10764 17.7988 8.6254C17.3062 11.2764 16.8136 13.9266 16.3276 16.5783C16.2788 16.8461 16.1597 17.0547 15.96 17.2337C15.3099 17.818 14.5354 18.1368 13.6915 18.298C12.2595 18.5717 10.8393 18.5532 9.44874 18.0628C8.92284 17.8772 8.44427 17.605 8.03376 17.2248C7.46865 16.7004 7.06405 16.0983 7.04112 15.2854C7.02855 14.8504 6.95014 14.417 6.90133 13.9828H6.89837Z" fill="#FEFEFE"/>
<path d="M13.3127 12.2909C13.3127 13.2459 13.3127 14.2008 13.3127 15.1557C13.3127 15.3095 13.3046 15.4575 13.1005 15.4782C11.522 15.6416 9.97019 15.6424 8.56186 14.7452C7.7645 14.237 7.46864 13.484 7.42278 12.572C7.38579 11.8287 7.27854 11.0897 7.20975 10.3478C7.19866 10.231 7.14244 10.0727 7.246 10.0009C7.35843 9.92253 7.47233 10.0534 7.57219 10.1104C8.47088 10.6223 9.45612 10.8479 10.4665 10.984C11.377 11.1067 12.2927 11.1593 13.2114 11.1178C13.3727 11.1104 13.3985 11.1644 13.3971 11.2976C13.3934 11.6289 13.3956 11.9603 13.3956 12.2909C13.3682 12.2909 13.3401 12.2909 13.3127 12.2909Z" fill="#004A7C"/>
<path d="M13.2247 10.5214C10.7964 10.7011 8.17498 10.1138 7.30957 9.20033C7.57215 8.9984 7.89391 9.06423 8.1772 9.02207C9.33478 8.84751 10.499 8.71511 11.6603 8.56496C11.7956 8.5472 11.8888 8.58123 11.9695 8.70032C12.3741 9.29649 12.7861 9.88674 13.2247 10.5214Z" fill="#004A7C"/>
</g>
<defs>
<clipPath id="clip0_2072_3641">
<rect width="24" height="24" fill="white"/>
</clipPath>
</defs>
</svg>
