<?xml version="1.0" encoding="utf-8"?>
<!-- Generator: Adobe Illustrator 24.1.0, SVG Export Plug-In . SVG Version: 6.00 Build 0)  -->
<svg version="1.1" id="Capa_1" xmlns="http://www.w3.org/2000/svg" xmlns:xlink="http://www.w3.org/1999/xlink" x="0px" y="0px"
	 viewBox="0 0 512 512" style="enable-background:new 0 0 512 512;" xml:space="preserve">
<style type="text/css">
	.st0{fill:#EAEA36;}
</style>
<path class="st0" d="M196.8,181.5c0.9-10.2,2.1-19.3,4-28.2c8.1-37.8,30.5-63.5,66-78.1c8.8-3.6,17.4-7.5,26.1-11.3
	c15.8-6.9,25.1-18.1,24.7-36.2c-0.1-6.6,4.8-11.2,11-11.1c6.4,0,10.9,4.7,10.9,11.7c0.2,24.9-11.5,42.4-33.4,53.6
	c-9.6,4.9-19.7,8.9-29.7,13.1c-19.8,8.4-36.8,20-46.5,40.2c-6.7,14-9.8,28.7-10.9,45.2c5.8-5.2,10.7-9.6,15.7-13.9
	c3.8-3.2,8.2-3.6,12.6-1c4.3,2.6,5.9,6.6,5.2,11.5c-0.4,2.6-1.8,4.6-3.7,6.3c-11.3,10.1-22.5,20.3-33.9,30.3
	c-5.1,4.5-10.6,4.3-15.7-0.3c-11.3-10.1-22.5-20.3-33.6-30.6c-5.2-4.8-5.7-11.3-1.6-16c4.4-4.9,10.9-5.1,16.4-0.2
	C185.7,171.3,190.8,176.1,196.8,181.5z"/>
<path class="st0" d="M316,180.5c-2.9-30.6-12.3-56.4-39.1-73.6c7.9-3.3,14.9-6.2,21.8-9.2c2.7-1.2,3.7,1,5,2.2
	c16.5,15.2,25.8,34.4,30.7,55.9c1.9,8.2,2.9,16.6,3.9,25.8c5.7-5.2,10.7-9.8,15.8-14.3c6-5.3,12.2-5.5,16.8-0.6
	c4.6,4.9,3.8,11.6-2.2,17c-10.6,9.7-21.1,19.3-31.8,28.9c-6.5,5.9-11.5,5.9-18,0.2c-10.8-9.6-21.6-19.3-32.3-29
	c-5.2-4.7-5.7-11.2-1.6-15.9c4.2-4.8,10.7-5.1,16-0.5C305.8,171.2,310.3,175.4,316,180.5z"/>
<path class="st0" d="M250.3,70.9c-7.4,4.3-14.4,8.4-20.6,13.6c-1.1,0.9-2.1,0.8-3.2,0.3c-17.8-7.9-33.3-18.2-39.2-38.3
	c-1.7-5.9-2.6-12-2.6-18.2c0-6.6,4.4-11.4,10.5-11.6c6.4-0.2,11.4,4.3,11.4,11.2c0,16.2,7.8,27,22.2,33.5
	C235.6,64.6,242.7,67.5,250.3,70.9z"/>
<path class="st0" d="M416.1,253.3c-3.3-2.1-6.9-2.2-10.6-2.2c-86.8,0-173.6,0-260.4,0.1c-4,0-5.8-1.2-7.2-4.8
	c-6.5-15.5-13.3-30.8-19.8-46.3c-2.8-6.6-7.7-9.7-14.8-9.7c-18.7,0-37.3,0-56,0c-2.9,0-5.6,0.3-8.2,1.7c-5.5,2.9-8.5,9.2-7.1,15.1
	c1.5,6.5,6.7,10.7,13.8,10.8c14.8,0.1,29.7,0.2,44.5,0c4-0.1,6,1,7.7,4.9c24.1,56.4,48.5,112.7,72.7,169.1
	c3.3,7.7,8.4,11.2,16.9,11.2c29.3-0.2,58.6-0.1,88-0.1c29.7,0,59.3,0,89,0c8.4,0,12.6-3,15.3-10.8c3.1-8.9,6.2-17.9,9.2-26.9
	c10.7-31.3,21.4-62.6,32.1-93.9C423.8,263.5,422,257,416.1,253.3z M171.6,318c-1.3,0-2.6,0.3-3.3-1.4c-5.3-12.4-10.7-24.9-16.3-37.9
	c11.7,0,22.6,0,33.6,0c2,0,2.5,1.1,2.9,2.7c2.6,11.1,5.3,22.3,8,33.4c0.5,2.1,0.5,3.4-2.4,3.3C186.6,317.9,179.1,318,171.6,318z
	 M207.1,375.6c-13.2,0.2-13.2,0.3-18.5-11.9c-2.2-5-4.3-10.1-6.5-15.1c-1-2.1-0.6-3.1,1.9-3c3,0.1,6,0,9,0c10.8,0,10.8,0,13.3,10.3
	c1.2,5.2,2.3,10.4,3.7,15.5C210.8,374.4,210.7,375.6,207.1,375.6z M259.6,375.6c-5.8-0.2-11.7-0.1-17.5,0c-1.9,0-3.1-0.4-3.5-2.5
	c-1.8-8.1-3.8-16.2-5.8-24.2c-0.6-2.4,0-3.3,2.6-3.2c4.2,0.2,8.3,0,12.5,0c4,0,8,0.1,12,0c2.2-0.1,2.8,0.7,2.8,2.8
	c-0.1,8-0.1,16,0,24C262.6,374.7,262,375.6,259.6,375.6z M262.6,315c0,2.4-0.7,3.1-3.1,3.1c-10.3-0.1-20.6-0.1-31,0
	c-2.1,0-3.3-0.5-3.9-2.7c-2.6-11.2-5.3-22.3-8-33.5c-0.6-2.4,0.1-3.2,2.6-3.2c6.8,0.1,13.7,0,20.5,0c6.5,0,13,0.1,19.5-0.1
	c2.7-0.1,3.4,0.8,3.3,3.4C262.5,293,262.5,304,262.6,315z M311.3,357.6c-1.2,5-2.4,10-3.7,15c-0.3,1.1-0.2,2.7-1.6,2.8
	c-4.8,0.2-9.6,0.2-14.4,0.1c-1.6,0-1.5-1.5-1.5-2.7c0-8.1,0.1-16.3,0-24.4c0-2.3,0.9-2.8,3-2.8c3,0.1,6,0,9,0
	C314.2,345.6,314.2,345.6,311.3,357.6z M329.4,281.9c-2.7,11.1-5.4,22.3-8,33.4c-0.4,1.9-1.3,2.7-3.4,2.7c-8.3-0.1-16.6-0.1-24.9,0
	c-2.5,0-3.1-0.8-3-3.1c0.1-11,0.1-21.9,0-32.9c0-2.6,0.8-3.4,3.4-3.4c5.5,0.2,11,0.1,16.5,0.1c5.5,0,11,0.1,16.5,0
	C328.8,278.6,330.1,279,329.4,281.9z M362.7,357.1c-0.4,1.1-0.7,2.2-1.1,3.3C356,377,356,377,338.2,375.6c-2.3-0.2-2.9-0.7-2.3-2.9
	c2-8,3.9-16.1,5.8-24.2c0.5-2.2,1.6-2.9,3.8-2.8c3,0.2,6,0,9.7,0c3.2,0.5,8.4-1.8,10.5,1C367,348.4,363.9,353.5,362.7,357.1z
	 M388.5,281.8c-3.9,11.1-7.7,22.3-11.4,33.5c-0.7,2.1-1.7,2.8-3.9,2.8c-7-0.1-14-0.1-20.9,0c-2.5,0-3.2-0.6-2.6-3.1
	c2.7-11.1,5.4-22.3,8-33.4c0.5-2.2,1.5-3,3.8-2.9c4.2,0.1,8.3,0,12.5,0c4.2,0,8.3,0.1,12.5,0C389.1,278.6,389.3,279.5,388.5,281.8z"
	/>
<path class="st0" d="M212.3,415.3c-22.3-0.1-40.6,18.3-40.6,40.6c0,22.2,18,40.3,40.2,40.5c22.5,0.2,40.8-17.8,40.8-40.3
	C252.7,433.6,234.7,415.3,212.3,415.3z M212.3,468.9c-7.2,0.1-13-5.7-13.1-12.9c-0.1-7.2,5.6-13.1,12.8-13.1
	c7.2-0.1,13.1,5.7,13.2,12.8C225.3,462.7,219.4,468.8,212.3,468.9z"/>
<path class="st0" d="M343.1,415.2c-22.3-0.2-40.7,18-40.8,40.4c-0.1,22.5,17.9,40.6,40.5,40.7c22.3,0.1,40.7-18.2,40.6-40.6
	C383.4,433.6,365.3,415.5,343.1,415.2z M342.9,468.9c-7.1,0-13.1-5.9-13.1-13c0-7.1,5.8-13,13-13c7.3,0,13,5.6,13,12.9
	C355.8,463,350.1,468.8,342.9,468.9z"/>
</svg>
