<?xml version="1.0" encoding="utf-8"?>
<!-- Generator: Adobe Illustrator 24.1.0, SVG Export Plug-In . SVG Version: 6.00 Build 0)  -->
<svg version="1.1" id="Layer_1" xmlns="http://www.w3.org/2000/svg" xmlns:xlink="http://www.w3.org/1999/xlink" x="0px" y="0px"
	 viewBox="0 0 2500 2500" style="enable-background:new 0 0 2500 2500;" xml:space="preserve">
<style type="text/css">
	.st0{fill:#2062AF;}
	.st1{fill:#3C9CD7;}
	.st2{fill:#FFFFFF;}
	.st3{fill:url(#SVGID_1_);}
	.st4{fill:url(#SVGID_2_);}
	.st5{fill:url(#SVGID_3_);}
	.st6{opacity:5.000000e-02;enable-background:new    ;}
	.st7{fill:url(#SVGID_4_);}
</style>
<path class="st0" d="M2152.8,2257L1250,2500.1L347.2,2257L138.9,0h2222.3L2152.8,2257z"/>
<path class="st1" d="M1250,182.8v2123.4l2,0.6l730.6-196.7l168.6-1927.2L1250,182.8L1250,182.8z"/>
<path class="st2" d="M1249.2,747.2L603,1016.3l21.4,266.4l624.7-267.1l664.6-284.1l27.6-272.6L1249.2,747.2L1249.2,747.2z"/>
<linearGradient id="SVGID_1_" gradientUnits="userSpaceOnUse" x1="22.8812" y1="-229.6595" x2="22.8812" y2="-345.0341" gradientTransform="matrix(4.6418 0 0 4.6418 819.8835 2348.7302)">
	<stop  offset="0.387" style="stop-color:#D1D3D4;stop-opacity:0"/>
	<stop  offset="1" style="stop-color:#D1D3D4"/>
</linearGradient>
<path class="st3" d="M603,1016.3l21.4,266.4l624.7-267.1V747.2L603,1016.3z"/>
<linearGradient id="SVGID_2_" gradientUnits="userSpaceOnUse" x1="167.0362" y1="-287.2047" x2="167.0362" y2="-407.1314" gradientTransform="matrix(4.6418 0 0 4.6418 819.8835 2348.7302)">
	<stop  offset="0.387" style="stop-color:#D1D3D4;stop-opacity:0"/>
	<stop  offset="1" style="stop-color:#D1D3D4"/>
</linearGradient>
<path class="st4" d="M1941.3,458.9l-692.1,288.2v268.4l664.6-284.1L1941.3,458.9z"/>
<linearGradient id="SVGID_3_" gradientUnits="userSpaceOnUse" x1="-46.5069" y1="-178.2014" x2="230.5957" y2="-178.2014" gradientTransform="matrix(4.6418 0 0 4.6418 819.8835 2348.7302)">
	<stop  offset="0" style="stop-color:#E8E7E5"/>
	<stop  offset="1" style="stop-color:#FFFFFF"/>
</linearGradient>
<path class="st5" d="M604,1016.3l21.4,266.4l958.6,3.1l-21.4,355.2l-315.4,88.8l-303.2-76.6l-18.4-220.5H643.8l36.8,425.7
	l569.6,168.4l566.6-165.4l73.5-845.2H604z"/>
<path class="st6" d="M1249.2,1016.3H603l21.4,266.4l624.7,2L1249.2,1016.3L1249.2,1016.3z M1249.2,1729l-3.1,0.9l-303.2-76.6
	l-18.4-220.5H642.8l36.7,425.7l569.6,168.4V1729z"/>
<linearGradient id="SVGID_4_" gradientUnits="userSpaceOnUse" x1="-59.2565" y1="-377.7727" x2="241.5876" y2="-377.7727" gradientTransform="matrix(4.6418 0 0 4.6418 819.8835 2348.7302)">
	<stop  offset="0" style="stop-color:#E8E7E5"/>
	<stop  offset="1" style="stop-color:#FFFFFF"/>
</linearGradient>
<path class="st7" d="M544.8,458.9h1396.5l-27.6,272.6H578.5L544.8,458.9L544.8,458.9z"/>
<path class="st6" d="M1249.2,458.9H544.8l33.7,272.6h670.7L1249.2,458.9L1249.2,458.9z"/>
</svg>
