<?xml version="1.0" encoding="iso-8859-1"?>
<!-- Generator: Adobe Illustrator 19.0.0, SVG Export Plug-In . SVG Version: 6.00 Build 0)  -->
<svg version="1.1" id="Layer_1" xmlns="http://www.w3.org/2000/svg" xmlns:xlink="http://www.w3.org/1999/xlink" x="0px" y="0px"
	 viewBox="0 0 512 512" style="enable-background:new 0 0 512 512;" xml:space="preserve">
<polygon style="fill:#BDF6EC;" points="330.094,61.793 433.655,61.793 433.655,512 78.345,512 78.345,130.83 78.345,94.898 
	78.345,61.793 176.316,61.793 "/>
<g>
	<polygon style="fill:#6C489C;" points="287.154,22.069 287.154,0 221.764,0 221.764,22.069 177.569,22.069 177.569,94.897 
		331.348,94.897 331.348,22.069 	"/>
	<path style="fill:#6C489C;" d="M383.241,181.133H211.344c-4.403,0-7.972-3.568-7.972-7.972c0-4.404,3.569-7.972,7.972-7.972
		h171.897c4.403,0,7.972,3.568,7.972,7.972C391.213,177.565,387.644,181.133,383.241,181.133z"/>
	<path style="fill:#6C489C;" d="M383.241,268.6H211.344c-4.403,0-7.972-3.568-7.972-7.972s3.569-7.972,7.972-7.972h171.897
		c4.403,0,7.972,3.568,7.972,7.972S387.644,268.6,383.241,268.6z"/>
	<path style="fill:#6C489C;" d="M383.241,356.069H211.344c-4.403,0-7.972-3.568-7.972-7.972s3.569-7.972,7.972-7.972h171.897
		c4.403,0,7.972,3.568,7.972,7.972S387.644,356.069,383.241,356.069z"/>
	<path style="fill:#6C489C;" d="M383.241,443.536H211.344c-4.403,0-7.972-3.568-7.972-7.972c0-4.404,3.569-7.972,7.972-7.972
		h171.897c4.403,0,7.972,3.568,7.972,7.972C391.213,439.968,387.644,443.536,383.241,443.536z"/>
</g>
<g>
	<rect x="134.203" y="152.091" style="fill:#FFFFFF;" width="44.063" height="44.063"/>
	<rect x="134.203" y="153.196" style="fill:#FFFFFF;" width="44.063" height="44.063"/>
	<rect x="134.203" y="241.471" style="fill:#FFFFFF;" width="44.063" height="44.063"/>
	<rect x="134.203" y="328.639" style="fill:#FFFFFF;" width="44.063" height="44.063"/>
	<rect x="134.203" y="416.924" style="fill:#FFFFFF;" width="44.063" height="44.063"/>
</g>
<polygon style="opacity:0.1;enable-background:new    ;" points="386.58,61.793 386.58,464.924 78.345,464.924 78.345,512 
	433.655,512 433.655,61.793 "/>
<g>
</g>
<g>
</g>
<g>
</g>
<g>
</g>
<g>
</g>
<g>
</g>
<g>
</g>
<g>
</g>
<g>
</g>
<g>
</g>
<g>
</g>
<g>
</g>
<g>
</g>
<g>
</g>
<g>
</g>
</svg>
