<?xml version="1.0" encoding="utf-8"?>
<!-- Generator: Adobe Illustrator 24.1.0, SVG Export Plug-In . SVG Version: 6.00 Build 0)  -->
<svg version="1.1" id="Layer_1" xmlns="http://www.w3.org/2000/svg" xmlns:xlink="http://www.w3.org/1999/xlink" x="0px" y="0px"
	 viewBox="0 0 283.5 283.5" style="enable-background:new 0 0 283.5 283.5;" xml:space="preserve">
<style type="text/css">
	.st0{fill:#00A9E5;}
	.st1{fill:#353535;}
	.st2{fill:#00BFB3;}
	.st3{fill:#019B8F;}
	.st4{fill:#F9B110;}
	.st5{fill:#FED10A;}
</style>
<g id="Elasticsearch_1_">
	<g>
		<path class="st0" d="M196.6,99.2h-74.1c0.4,1.8,1.1,3.5,1.4,5c2.5,8.5,3.9,17.4,4.6,26.6c0.4,3.5,0.4,7.4,0.4,11s0,7.4-0.4,11
			c-0.7,9.2-2.1,18.1-4.6,26.6c-0.4,1.8-1.1,3.5-1.4,5h74.1c23.4,0,42.2-19.1,42.2-42.5S220,99.2,196.6,99.2z"/>
		<path class="st1" d="M128.6,152.7c0.4-3.5,0.4-7.4,0.4-11c0-3.5,0-7.4-0.4-11c-0.7-9.2-2.1-18.1-4.6-26.6c-0.4-1.8-1.1-3.5-1.4-5
			H8.1c-4.3,13.5-6.4,27.6-6.4,42.5c0,14.9,2.1,29.1,6.4,42.5h114.4c0.4-1.8,1.1-3.5,1.4-5C126.4,170.8,127.9,161.9,128.6,152.7z"/>
	</g>
	<g>
		<path class="st2" d="M209.4,198.4h-92.1c-2.8,6.4-6,12.4-9.6,18.1c-5.3,8.9-11.7,16.7-18.8,24.1c-2.5,2.5-5,4.6-7.4,7.1
			c-5,4.6-10.6,8.5-16.3,12.4c22.3,14.9,49.3,23.4,78,23.4c49.3,0,92.5-25.2,118-63.1C248,206.9,229.6,198.4,209.4,198.4z"/>
		<path class="st3" d="M107.7,216.5c3.5-5.7,6.7-11.7,9.6-18.1H13.4c11,25.2,29.1,46.8,52.1,61.7c5.7-3.9,11-7.8,16.3-12.4
			c2.5-2.1,5-4.6,7.4-7.1C96,233.5,102.4,225.4,107.7,216.5z"/>
	</g>
	<g>
		<path class="st4" d="M88.9,42.9c-2.5-2.5-5-4.6-7.4-7.1c-5-4.6-10.6-8.5-16.3-12.4C42.5,38.3,24.4,59.9,13.1,85h103.8
			c-2.8-6.4-6-12.4-9.6-18.1C102.4,58.1,96,50,88.9,42.9z"/>
		<path class="st5" d="M143.1,0c-28.7,0-55.6,8.5-78,23.4c5.7,3.9,11,7.8,16.3,12.4c2.5,2.1,5,4.6,7.4,7.1
			c7.1,7.4,13.5,15.2,18.8,24.1c3.5,5.7,6.7,11.7,9.6,18.1h92.1c20.2,0,38.6-8.5,51.7-22C235.6,25.2,192.4,0,143.1,0z"/>
	</g>
</g>
</svg>
