<svg id="Capa_1" enable-background="new 0 0 512 512" height="512" viewBox="0 0 512 512" width="512" xmlns="http://www.w3.org/2000/svg"><g><path d="m130.231 386.83-14.021 14.019-21.079 21.075 32.278 32.284 32.397 32.403c4.961 4.962 13.004 4.962 17.966.002l3.111-3.111c4.962-4.961 4.962-13.004.002-17.966l-22.19-22.194c-2.22-2.221-2.956-5.525-1.887-8.478l3.949-10.911c1.069-2.953.333-6.257-1.887-8.478z" fill="#365e7d"/><path d="m95.131 421.924 20.291 20.295 35.1-35.094-20.291-20.295-14.021 14.019z" fill="#2b4d66"/><path d="m154.625 377.181 94.885-39.12-128.869-128.893-39.137 94.879-4.95 21.305 52.243 52.252z" fill="#dd636e"/><path d="m154.625 377.181-58.603 58.593c-5.488 5.487-14.386 5.487-19.873-.002l-53.249-53.259c-5.487-5.488-5.487-14.386.002-19.873l58.603-58.593z" fill="#f6f1f1"/><path d="m103.613 294.89h16.93v103.417h-16.93z" fill="#dae4ea" transform="matrix(.707 -.707 .707 .707 -212.241 180.738)"/><path d="m113.561 226.331 118.785 118.806 17.164-7.076-128.869-128.893z" fill="#da4a54"/><path d="m52.996 446.017 16.701-16.698-40.347-40.354-16.7 16.698c-11.143 11.141-11.145 29.207-.004 40.35 11.142 11.143 29.207 11.145 40.35.004z" fill="#dd636e"/><g><path d="m58.882 458.668c-1.961 0-3.922-.748-5.418-2.245l-51.22-51.229c-2.992-2.992-2.992-7.843.001-10.835 2.991-2.992 7.842-2.991 10.835.001l51.22 51.229c2.992 2.992 2.992 7.843-.001 10.835-1.496 1.496-3.457 2.244-5.417 2.244z" fill="#2b4d66"/></g><g><path d="m255.582 351.795c-1.961 0-3.922-.748-5.418-2.245l-141.013-141.037c-2.992-2.992-2.992-7.843.001-10.835 2.992-2.991 7.843-2.992 10.835.001l141.013 141.038c2.992 2.992 2.992 7.843-.001 10.835-1.495 1.495-3.456 2.243-5.417 2.243z" fill="#2b4d66"/></g><g><path d="m200.315 376.423c-1.961 0-3.922-.748-5.418-2.245l-110.384-110.403c-2.992-2.992-2.992-7.843.001-10.835 2.991-2.992 7.842-2.991 10.835.001l110.384 110.404c2.992 2.992 2.992 7.843-.001 10.835-1.495 1.495-3.457 2.243-5.417 2.243z" fill="#2b4d66"/></g><path d="m74.889 353.207-13.388 13.386c-4.912 4.911-12.874 4.91-17.785-.002l-12.382-12.384 31.175-31.169 12.382 12.384c4.911 4.912 4.91 12.874-.002 17.785z" fill="#dd636e"/><path d="m51.608 333.938 12.382 12.384c4.911 4.912 4.91 12.874-.002 17.785l10.901-10.899c4.912-4.911 4.912-12.873.002-17.785l-12.382-12.384z" fill="#da4a54"/><path d="m464.119 246.545h-251.067c-5.543 0-10.036-4.493-10.036-10.036v-150.014c0-5.543 4.493-10.036 10.036-10.036h251.068c5.543 0 10.036 4.493 10.036 10.036v150.014c-.001 5.543-4.494 10.036-10.037 10.036z" fill="#e27d47"/><path d="m464.119 76.459h-21.48-60.461c.04 33.409 21.891 61.699 52.078 71.416 10.921 3.515 18.419 13.544 18.419 25.017v63.616c0 5.543-4.493 10.036-10.036 10.036h21.48c5.543 0 10.036-4.493 10.036-10.036v-86.939-63.074c0-5.542-4.493-10.036-10.036-10.036z" fill="#dd544f"/><path d="m338.583 142.519-118.751 104.026h237.503z" fill="#ffe07d"/><path d="m344.35 175.433 112.985-98.975h-237.503l112.985 98.975c3.301 2.891 8.232 2.891 11.533 0z" fill="#ffc250"/><path d="m400.865 125.925 56.469-49.467h-75.157c.024 18.959 7.082 36.26 18.688 49.467z" fill="#ebb044"/><circle cx="457.3" cy="76.367" fill="#dd636e" r="54.7"/><path d="m457.3 21.667c-4.098 0-8.086.465-11.927 1.32 24.472 5.445 42.773 27.269 42.773 53.38s-18.302 47.935-42.773 53.38c3.841.855 7.828 1.32 11.927 1.32 30.21 0 54.7-24.49 54.7-54.7s-24.49-54.7-54.7-54.7z" fill="#da4a54"/><g><g><path d="m457.301 85.561c-4.232 0-7.662-3.43-7.662-7.662v-30.088c0-4.232 3.43-7.662 7.662-7.662s7.662 3.43 7.662 7.662v30.088c0 4.232-3.43 7.662-7.662 7.662z" fill="#f6f1f1"/></g><g><path d="m457.299 112.584c-4.232 0-7.662-3.43-7.662-7.662v-4.884c0-4.232 3.43-7.662 7.662-7.662s7.662 3.43 7.662 7.662v4.884c0 4.232-3.43 7.662-7.662 7.662z" fill="#f6f1f1"/></g></g><g><path d="m248.802 301.049c-3.902 0-7.238-2.968-7.618-6.931-.404-4.212 2.683-7.954 6.895-8.358l90.308-8.663c4.214-.406 7.954 2.684 8.358 6.895s-2.683 7.954-6.895 8.358l-90.308 8.663c-.249.024-.496.036-.74.036z" fill="#365e7d"/></g><g><path d="m153.788 203.105c-.361 0-.725-.026-1.092-.078-4.189-.599-7.1-4.478-6.502-8.667l11.441-80.136c.599-4.19 4.493-7.086 8.667-6.502 4.189.599 7.1 4.478 6.502 8.667l-11.441 80.136c-.546 3.821-3.824 6.58-7.575 6.58z" fill="#365e7d"/></g></g></svg>