<?xml version="1.0" encoding="utf-8"?>
<!-- Generator: Adobe Illustrator 24.1.0, SVG Export Plug-In . SVG Version: 6.00 Build 0)  -->
<svg version="1.1" id="Layer_1" xmlns="http://www.w3.org/2000/svg" xmlns:xlink="http://www.w3.org/1999/xlink" x="0px" y="0px"
	 viewBox="0 0 850.4 850.4" style="enable-background:new 0 0 850.4 850.4;" xml:space="preserve">
<style type="text/css">
	.st0{fill:#D9D9D9;}
	.st1{fill:#936E59;}
	.st2{fill:#C9C9C9;}
	.st3{fill:#7E5641;}
	.st4{fill:#FEFEFE;}
</style>
<path class="st0" d="M405.1,846.4c-7,2.4-14.4,3.1-21.6,3.5c-32.4,2-64.1-2.1-94.3-14.1c-26.9-10.7-51.3-25.7-73.6-44.4
	c-26.4-22.2-48.6-47.9-67.5-76.4c-30.2-45.4-51.7-94.7-66.5-147.1c-7.6-27.1-13.7-54.5-17.9-82.2c-2.6-17.2-4-34.6-5.6-51.9
	c-1.4-14.8,0.5-29.6-1.8-44.4c-0.4-2.7,0.8-4.9,4.1-4.9c1,0,2.1,0,3.1,0c185.3,0,370.6,0,555.9,0c2.3,2.4,1.6,5.4,1.6,8.2
	c-0.2,31.3-2.6,62.5-6.7,93.6c-3.8,29.1-9,57.9-16.2,86.2c-9.2,36.2-20.8,71.6-36.3,105.7c-11.9,26.2-25.3,51.4-41.9,74.9
	c-19.8,28.2-42.5,53.7-71.7,72.5c-12.1,7.8-24.6,15.2-38.8,18.8C407.8,844.7,405.8,844.4,405.1,846.4z"/>
<path class="st1" d="M676.1,348.5c-1.5,2.2-3.8,1.1-5.7,1.1c-202.4,0-404.9,0-607.3,0.1c-5.4,0-6.4-1.7-6.3-6.7
	c1.7-62.3,23.2-117.1,62.3-165.2c25.3-31.1,56-55.8,91.3-74.7c3.2-1.7,4-2.8,2-6.3c-15-26.6-29.7-53.3-44.5-79.9
	c-2.4-4.3-3.3-8.5-0.3-12.8c2.4-3.3,5.8-4.5,9.8-3.8c3.8,0.7,6,3.3,7.8,6.5c15,27,30.1,54,44.9,81.1c1.8,3.3,3,4.1,6.8,2.5
	c46.5-19.5,95-28.2,145.4-25.8c14.8,0.7,29.5,2,44,5.2c-0.2,0.4-1.2,1-0.3,1.2c37.1,8.5,68.6,27.4,97.1,52
	c26.4,22.9,47.1,50.2,63.1,81c17,32.7,28,67.3,32.2,104c1.3,11.1,2.9,22.1,2.4,33.3c-0.2,4.5,2,5.6,6.1,5.6
	c13.8-0.1,27.7-0.1,41.5,0C671.1,346.9,673.8,346.5,676.1,348.5z"/>
<path class="st2" d="M405.1,846.4c-0.6,0-1.5,0.2-1.8-0.2c-1.8-1.7,0.6-1.1,0.9-1.3c6.4-3.3,13.5-4.7,20-7.9
	c16.7-8.1,31.9-18.4,46.1-30.3c17.8-14.9,32.4-32.7,45.9-51.3c16.2-22.3,29.7-46.3,41.1-71.5c7.6-16.8,14.9-33.8,20.9-51.4
	c8.2-23.9,15.6-48,21.1-72.6c6-26.8,10.9-53.7,14-81c2.3-19.6,3.7-39.1,5-58.7c0.8-11.9,0.5-23.8,0.9-35.7c0,0,0,0,0,0
	c12.4-1.3,24.9-0.4,37.4-0.5c6.5-0.1,13.1-0.8,19.5,0.6c0.5,16.9,0.2,33.8-1.2,50.6c-0.3,4.1,0.7,6.3,5,7.5
	c14.6,4.1,28,10.9,40.8,18.7c1.7,2,0.8,3.9-0.3,5.6c-9.1,14.8-18.5,29.5-26.7,45c-0.7,1.3-1.5,2.4-2.9,3.1c-2.5,0.7-4.3-0.9-6.2-2.1
	c-3.1-2-6.4-3.8-9.8-5.3c-6-2.7-7.1-2.2-8.3,4.1c-10.9,56.1-28.3,110-54.6,160.9c-1.8,3.5-3.6,6.9-5.6,10.3
	c-3.6,6.1-3.3,6.5,3.8,8.5c5.3,1.5,11.1,1.3,16.1,3.9c2.1,2.3,1.5,5,1,7.6c-3.1,14.9-4.6,30.1-6.5,45.2c-0.4,2.9-0.8,5.7-2.9,8
	c-15.8-0.8-30.9-4.5-45.2-11c-5.7-2.6-8.8-1.9-12.9,3c-34.4,41.8-75.5,74.4-127.4,91.8C423.6,842.8,414.5,845.3,405.1,846.4z"/>
<path class="st0" d="M691.1,514.6c7.5-16.2,17.4-30.9,26.6-46.1c1.3-2.2,3.7-4,3.1-7.1c24.7,16.6,44.1,38,57.3,64.8
	c13.1,26.7,18.4,55.1,15.5,84.4c-3.9,39.7-20.1,73.9-49.4,101.9c-25,23.9-54.5,37.7-88.2,43.1c-12.5,2-25.3,3.2-38,0.4
	c2.5-18.3,4-36.7,7.8-54.8c0.5-2.1,0.9-3.9-0.4-5.8c2.3-2.4,5.4-1.7,8.2-1.7c26.4,0.5,49-9,67.8-26.9c16.1-15.3,25.8-34.5,28.9-56.8
	c3.4-24.4-2.1-46.6-15.1-67.3c-5.4-8.7-12.9-15.5-20.3-22.4C693.2,518.7,690.5,517.7,691.1,514.6z"/>
<path class="st3" d="M676.1,348.5c-16.9,0-33.8-0.1-50.7,0.1c-4.3,0-6.2-0.7-6.2-5.7c-0.1-44.4-9.9-86.7-28.7-126.8
	c-11.8-25.2-26.9-48.2-45.6-69.2c-23.1-25.8-50-46.2-81.1-61.1c-13.3-6.4-27.2-11.4-41.5-15.5c1.3-0.2,2.7-0.3,4-0.5
	c20.7,3.1,40.5,9.2,60,16.5c5,1.9,9.9,3.8,14.9,5.7c7,0.8,12.9,3.7,17.7,8.9c44.5,23.4,81.8,55.2,110.3,96.9
	c29.6,43.4,45.8,91.3,47.2,144C676.4,344,676.2,346.3,676.1,348.5z"/>
<path class="st1" d="M518.9,100.9c-5.9-3-11.8-5.9-17.7-8.9c11.2-20.4,22.4-40.8,33.6-61.2c4.3-7.8,8.6-15.5,12.8-23.2
	c3.7-6.8,9.2-9.2,14.5-6.5c5.8,3,6.9,8.9,3,16C549.7,45.1,534.3,73,518.9,100.9z"/>
<path class="st0" d="M676.1,384.5c-19,0-37.9,0-56.9-0.1c1-1.3,2.5-1.2,3.9-1.2c16.4,0,32.7,0,49.1,0
	C673.7,383.3,675.1,383.1,676.1,384.5z"/>
<path class="st4" d="M507.1,237.2c-14.6-0.1-25.6-11.4-25.6-26.1c0-14.6,11.4-26,25.8-26c14.3,0,26,11.5,26.2,25.9
	C533.6,225.5,521.8,237.3,507.1,237.2z"/>
<path class="st4" d="M251.5,211.6c-0.1,14.5-11.4,25.6-26,25.6c-14.6,0-26.2-11.8-26-26.4c0.2-14.5,12.1-25.9,26.8-25.7
	C240.6,185.4,251.7,197,251.5,211.6z"/>
<path class="st4" d="M691.1,514.6c7.6,7.5,16.2,14,22.3,22.9c10.1,14.6,16.8,30.3,18.7,48.2c2.8,26-3.6,49.3-19,70.1
	c-15.6,21.1-36.6,33.7-62.5,38.4c-8.4,1.5-16.8,0.7-25.2,1.2c-7.1,0-13.7-2.3-20.5-3.6c-4.2-0.8-3.8-2.6-2.2-5.5
	c5.4-10.2,11-20.3,15.9-30.7c20.3-42.7,34.9-87.2,44.1-133.5c1-5,2.1-10,3.1-15c0.6-3,1.8-3.9,5.1-2.8
	C678.2,506.6,684.1,511.5,691.1,514.6z"/>
</svg>
