<?xml version="1.0" encoding="utf-8"?>
<!-- Generator: Adobe Illustrator 24.1.0, SVG Export Plug-In . SVG Version: 6.00 Build 0)  -->
<svg version="1.1" id="Capa_1" xmlns="http://www.w3.org/2000/svg" xmlns:xlink="http://www.w3.org/1999/xlink" x="0px" y="0px"
	 viewBox="0 0 512 512" style="enable-background:new 0 0 512 512;" xml:space="preserve">
<style type="text/css">
	.st0{fill:#F5F5F5;}
	.st1{fill:#E6E6E6;}
	.st2{fill:#50758D;}
	.st3{fill:#2B597F;}
	.st4{fill:#FD646F;}
	.st5{fill:#FFC682;}
	.st6{fill:#93DDB7;}
	.st7{fill:#C9E7F7;}
</style>
<path class="st0" d="M512,92.7v376.1c0,22.8-18.5,41.2-41.2,41.2H41.2C18.5,510,0,491.6,0,468.8V92.7H512z"/>
<path class="st1" d="M512,113.3V92.7L256,82.4L0,92.7v20.6v355.5C0,491.6,18.5,510,41.2,510h20.6c-22.8,0-41.2-18.5-41.2-41.2V113.3
	H512z"/>
<path class="st2" d="M512,41.2v51.5H0V41.2C0,18.5,18.5,0,41.2,0h429.6C493.5,0,512,18.5,512,41.2z"/>
<g>
	<path class="st3" d="M488.8,46.4c0-12.8-10.4-23.2-23.2-23.2H246.2c-6.6,0-12.5,2.8-16.7,7.2c-4.9,4.9-2.6,2.6-7.5,7.5
		c-4.4,4.2-7.2,10.2-7.2,16.7c0,12.8,10.4,23.2,23.2,23.2h219.4c6.6,0,12.5-2.8,16.7-7.2c4.9-4.9,2.6-2.6,7.5-7.5
		C486.1,58.9,488.8,52.9,488.8,46.4L488.8,46.4z"/>
	<path class="st3" d="M70.3,46.1c0-12.8-10.4-23.2-23.2-23.2c-6.6,0-12.5,2.8-16.7,7.2c-4.9,4.9-2.6,2.6-7.5,7.5
		c-4.4,4.2-7.2,10.2-7.2,16.7c0,12.8,10.4,23.2,23.2,23.2c6.6,0,12.5-2.8,16.7-7.2c4.9-4.9,2.6-2.6,7.5-7.5
		C67.6,58.6,70.3,52.7,70.3,46.1z"/>
	<path class="st3" d="M136.5,46.1c0-12.8-10.4-23.2-23.2-23.2c-6.6,0-12.5,2.8-16.7,7.2c-4.9,4.9-2.6,2.6-7.5,7.5
		c-4.4,4.2-7.2,10.2-7.2,16.7c0,12.8,10.4,23.2,23.2,23.2c6.6,0,12.5-2.8,16.7-7.2c4.9-4.9,2.6-2.6,7.5-7.5
		C133.7,58.6,136.5,52.7,136.5,46.1z"/>
	<path class="st3" d="M202.4,46.1c0-12.8-10.4-23.2-23.2-23.2c-6.6,0-12.5,2.8-16.7,7.2c-4.9,4.9-2.6,2.6-7.5,7.5
		c-4.4,4.2-7.2,10.2-7.2,16.7c0,12.8,10.4,23.2,23.2,23.2c6.6,0,12.5-2.8,16.7-7.2c4.9-4.9,2.6-2.6,7.5-7.5
		C199.7,58.6,202.4,52.7,202.4,46.1z"/>
</g>
<path class="st4" d="M47.1,69.3C34.3,69.3,24,58.9,24,46.1s10.4-23.2,23.2-23.2s23.2,10.4,23.2,23.2S59.9,69.3,47.1,69.3z"/>
<path class="st5" d="M113.3,69.5c-12.8,0-23.2-10.4-23.2-23.2s10.4-23.2,23.2-23.2s23.2,10.4,23.2,23.2S126.1,69.5,113.3,69.5z"/>
<path class="st6" d="M179.3,69.5c-12.8,0-23.2-10.4-23.2-23.2s10.4-23.2,23.2-23.2c12.8,0,23.2,10.4,23.2,23.2S192,69.5,179.3,69.5z
	"/>
<path class="st0" d="M465.6,69.5H246.2c-12.8,0-23.2-10.4-23.2-23.2s10.4-23.2,23.2-23.2h219.4c12.8,0,23.2,10.4,23.2,23.2
	S478.4,69.5,465.6,69.5z"/>
<path class="st2" d="M71.1,352.7c14.7-0.1,29.3-0.6,44-1.5V249h29.2l3.5-36.7h-32.7V189c0-5.2,4.2-9.3,9.3-9.3h23.4v-36.7h-37
	c-21.9,0-39.7,17.8-39.7,39.7v29.7H49.8V249h21.4V352.7z"/>
<path class="st7" d="M458.5,211.3H196.7c-5.2,0-9.5-4.3-9.5-9.5v0c0-5.2,4.3-9.5,9.5-9.5h261.8c5.2,0,9.5,4.3,9.5,9.5v0
	C468,207,463.7,211.3,458.5,211.3z"/>
<path class="st7" d="M458.5,249.3H196.7c-5.2,0-9.5-4.3-9.5-9.5v0c0-5.2,4.3-9.5,9.5-9.5h261.8c5.2,0,9.5,4.3,9.5,9.5v0
	C468,245,463.7,249.3,458.5,249.3z"/>
<path class="st7" d="M458.5,287.3H196.7c-5.2,0-9.5-4.3-9.5-9.5v0c0-5.2,4.3-9.5,9.5-9.5h261.8c5.2,0,9.5,4.3,9.5,9.5v0
	C468,283,463.7,287.3,458.5,287.3z"/>
<path class="st7" d="M458.5,325.3H196.7c-5.2,0-9.5-4.3-9.5-9.5v0c0-5.2,4.3-9.5,9.5-9.5h261.8c5.2,0,9.5,4.3,9.5,9.5v0
	C468,321,463.7,325.3,458.5,325.3z"/>
<path class="st7" d="M458.5,363.3H196.7c-5.2,0-9.5-4.3-9.5-9.5v0c0-5.2,4.3-9.5,9.5-9.5h261.8c5.2,0,9.5,4.3,9.5,9.5v0
	C468,359,463.7,363.3,458.5,363.3z"/>
<path class="st7" d="M458.5,401.3H196.7c-5.2,0-9.5-4.3-9.5-9.5v0c0-5.2,4.3-9.5,9.5-9.5h261.8c5.2,0,9.5,4.3,9.5,9.5v0
	C468,397,463.7,401.3,458.5,401.3z"/>
<path class="st7" d="M458.5,439.3H59.3c-5.2,0-9.5-4.3-9.5-9.5v0c0-5.2,4.3-9.5,9.5-9.5h399.2c5.2,0,9.5,4.3,9.5,9.5v0
	C468,435,463.7,439.3,458.5,439.3z"/>
<path class="st7" d="M458.5,477.3H59.3c-5.2,0-9.5-4.3-9.5-9.5v0c0-5.2,4.3-9.5,9.5-9.5h399.2c5.2,0,9.5,4.3,9.5,9.5v0
	C468,473,463.7,477.3,458.5,477.3z"/>
</svg>
