<svg id="Capa_1" enable-background="new 0 0 512 512" height="512" viewBox="0 0 512 512" width="512" xmlns="http://www.w3.org/2000/svg"><g><path d="m376 30.999h-210-30c-74.443 0-136 60.557-136 135v90c0 69.375 53.588 126.68 121 134.165v75.835c0 6.064 3.647 11.543 9.258 13.857 5.533 2.309 12.023 1.073 16.348-3.252l19.394-19.394 66.211-66.211h143.789c74.443 0 136-60.557 136-135v-90c0-74.443-61.557-135-136-135z" fill="#fabe2c"/><path d="m376 390.999c74.443 0 136-60.557 136-135v-90c0-74.443-61.557-135-136-135h-210v426.211l66.211-66.211z" fill="#ff9100"/><path d="m406 240.999h-15v-75c0-6.064-3.647-11.543-9.258-13.857-5.596-2.358-12.07-1.04-16.348 3.252l-30 30c-5.859 5.859-5.859 15.352 0 21.211s15.352 5.859 21.211 0l4.395-4.395v38.789h-15c-8.291 0-15 6.709-15 15s6.709 15 15 15h60c8.291 0 15-6.709 15-15s-6.709-15-15-15z" fill="#dfe7f4"/><circle cx="166" cy="165.999" fill="#f0f7ff" r="45"/><path d="m211 165.999c0-24.814-20.186-45-45-45v90c24.814 0 45-20.185 45-45z" fill="#dfe7f4"/><path d="m166 210.999c-41.353 0-75 33.647-75 75 0 8.291 6.709 15 15 15h60 60c8.291 0 15-6.709 15-15 0-41.352-33.647-75-75-75z" fill="#f0f7ff"/><path d="m241 285.999c0-41.353-33.647-75-75-75v90h60c8.291 0 15-6.709 15-15z" fill="#dfe7f4"/></g></svg>