<svg width="24" height="25" viewBox="0 0 24 25" fill="none" xmlns="http://www.w3.org/2000/svg">
<path d="M3.00952 19.8725L5.96357 0.969901C5.99968 0.738078 6.17997 0.555329 6.41128 0.516033C6.64259 0.476737 6.8731 0.589792 6.9837 0.796693L10.0387 6.49473L11.2564 4.17622C11.3507 3.99695 11.5366 3.8847 11.7392 3.8847C11.9418 3.8847 12.1277 3.99695 12.222 4.17622L20.4663 19.8724L3.00952 19.8725Z" fill="#FFA000"/>
<path d="M13.215 12.5094L10.0373 6.49219L3.00952 19.8727L13.215 12.5094Z" fill="#F57C00"/>
<path d="M20.4664 19.8724L18.2039 5.87142C18.1697 5.67036 18.0262 5.50519 17.8319 5.44294C17.6375 5.38068 17.4249 5.4325 17.2806 5.57665L3.00952 19.8722L10.9061 24.3006C11.4019 24.5774 12.0058 24.5774 12.5017 24.3006L20.4664 19.8722V19.8724Z" fill="#FFCA28"/>
<path d="M18.2039 5.87166C18.1697 5.6706 18.0262 5.50543 17.8319 5.44317C17.6376 5.38091 17.4249 5.43273 17.2806 5.57688L14.4481 8.41655L12.2208 4.17631C12.1265 3.99704 11.9406 3.88479 11.738 3.88479C11.5354 3.88479 11.3495 3.99704 11.2552 4.17631L10.0375 6.49481L6.98232 0.796871C6.87154 0.589914 6.64076 0.477043 6.40918 0.516632C6.17759 0.556221 5.9979 0.739428 5.96219 0.971434L3.00952 19.8727H3L3.00952 19.8836L3.08725 19.9218L17.2764 5.71617C17.4207 5.57124 17.6339 5.51914 17.8287 5.58122C18.0236 5.64329 18.1673 5.8091 18.2011 6.01075L20.4446 19.8863L20.4665 19.8726L18.2039 5.87166ZM3.03543 19.8468L5.96357 1.10511C5.99924 0.873101 6.17935 0.689895 6.41073 0.650306C6.64212 0.610716 6.87291 0.723552 6.98388 0.930544L10.0387 6.62858L11.2564 4.31007C11.3507 4.1308 11.5366 4.01855 11.7392 4.01855C11.9418 4.01855 12.1277 4.1308 12.222 4.31007L14.4041 8.46018L3.03543 19.8468Z" fill="white" fill-opacity="0.2"/>
<path opacity="0.2" d="M12.5017 24.1672C12.0059 24.444 11.4019 24.444 10.9061 24.1672L3.02862 19.7511L3.00952 19.8725L10.9061 24.2995C11.4019 24.5764 12.0058 24.5764 12.5017 24.2995L20.4664 19.8725L20.446 19.7471L12.5017 24.1672Z" fill="#A52714"/>
<path d="M18.1812 5.8742C18.1472 5.6732 18.0042 5.50797 17.8105 5.44608C17.6169 5.38419 17.405 5.43564 17.2612 5.57975L14.4384 8.418L12.2191 4.17971C12.1251 4.00052 11.9398 3.88831 11.738 3.88831C11.5361 3.88831 11.3509 4.00052 11.2569 4.17971L10.0433 6.49721L6.99898 0.801633C6.88856 0.594768 6.65861 0.481915 6.42803 0.521522C6.19745 0.56113 6.01796 0.74419 5.98242 0.976141L3.04004 19.8691L10.909 24.2941C11.4031 24.5709 12.0049 24.5709 12.4991 24.2941L20.4359 19.8691L18.1812 5.87417V5.8742Z" fill="url(#paint0_linear_1876_3383)"/>
<defs>
<linearGradient id="paint0_linear_1876_3383" x1="-57.6716" y1="408.789" x2="2113.18" y2="1553.89" gradientUnits="userSpaceOnUse">
<stop stop-color="white" stop-opacity="0.1"/>
<stop offset="0.14" stop-color="white" stop-opacity="0.08"/>
<stop offset="0.61" stop-color="white" stop-opacity="0.02"/>
<stop offset="1" stop-color="white" stop-opacity="0"/>
</linearGradient>
</defs>
</svg>
