<?xml version="1.0" encoding="utf-8"?>
<!-- Generator: Adobe Illustrator 24.1.0, SVG Export Plug-In . SVG Version: 6.00 Build 0)  -->
<svg version="1.1" id="Layer_1" xmlns="http://www.w3.org/2000/svg" xmlns:xlink="http://www.w3.org/1999/xlink" x="0px" y="0px"
	 viewBox="0 0 512 512" style="enable-background:new 0 0 512 512;" xml:space="preserve">
<style type="text/css">
	.st0{fill:#465058;}
	.st1{fill:#323E44;}
	.st2{fill:#E3F6FF;}
	.st3{fill:#CEE8F2;}
	.st4{fill:#FC5C5A;}
	.st5{fill:#59C7D3;}
</style>
<path class="st0" d="M330.6,100.8c-7.2-6.4-11.3-15.6-11.3-25.3V17.8c0-9.8-8-17.8-17.8-17.8h-91.1c-9.8,0-17.8,8-17.8,17.8v57.6
	c0,9.7-4.1,18.9-11.3,25.3c-7.2,6.4-11.3,15.6-11.3,25.3v259.8c0,9.7,4.1,18.9,11.3,25.3c7.2,6.4,11.3,15.6,11.3,25.3v57.6
	c0,9.8,8,17.8,17.8,17.8h91.1c9.8,0,17.8-8,17.8-17.8v-57.6c0-9.7,4.1-18.9,11.3-25.3c7.2-6.4,11.3-15.6,11.3-25.3V126.1
	C341.9,116.4,337.8,107.2,330.6,100.8z"/>
<path class="st1" d="M330.6,100.8c-7.2-6.4-11.3-15.6-11.3-25.3V17.8c0-9.8-8-17.8-17.8-17.8h-41.8v75.5c0,9.7,4.1,18.9,11.3,25.3
	c7.2,6.4,11.3,15.6,11.3,25.3v259.8c0,9.7-4.1,18.9-11.3,25.3c-7.2,6.4-11.3,15.6-11.3,25.3V512h41.8c9.8,0,17.8-8,17.8-17.8v-57.6
	c0-9.7,4.1-18.9,11.3-25.3c7.2-6.4,11.3-15.6,11.3-25.3V126.1C341.9,116.4,337.8,107.2,330.6,100.8z"/>
<path class="st2" d="M200.4,389.9c-1.1-1-1.8-2.4-1.8-4V126.1c0-1.5,0.6-2.9,1.8-4c13.3-11.9,97.8-11.9,111.1,0c1.1,1,1.8,2.4,1.8,4
	v259.8c0,1.5-0.6,2.9-1.8,4C298.3,401.7,213.7,401.7,200.4,389.9z"/>
<path class="st3" d="M311.5,122.1c-4.4-3.9-16.5-6.5-31.4-7.9c1.4,3.7,2.1,7.7,2.1,11.8v259.8c0,4.1-0.7,8.1-2.1,11.8
	c14.8-1.3,27-4,31.4-7.9c1.1-1,1.8-2.4,1.8-4V126.1C313.3,124.6,312.6,123.1,311.5,122.1z"/>
<path class="st4" d="M283.5,235.7c-9.7-11.3-25.3-0.3-27.5,1.9c-2.2-2.2-17.8-13.2-27.5-1.9c-17.9,21,23.7,45.4,27.5,47.5
	C259.7,281.2,301.3,256.8,283.5,235.7z"/>
<g>
	<path class="st5" d="M263.7,175.5v-27.3c0-4.3-3.5-7.7-7.7-7.7c-4.3,0-7.7,3.5-7.7,7.7v27.3c0,4.3,3.5,7.7,7.7,7.7
		C260.2,183.2,263.7,179.8,263.7,175.5z"/>
	<path class="st5" d="M256,328.8c-4.3,0-7.7,3.5-7.7,7.7v27.3c0,4.3,3.5,7.7,7.7,7.7c4.3,0,7.7-3.5,7.7-7.7v-27.3
		C263.7,332.2,260.2,328.8,256,328.8z"/>
</g>
</svg>
