<svg width="24" height="24" viewBox="0 0 24 24" fill="none" xmlns="http://www.w3.org/2000/svg">
<g clip-path="url(#clip0_2072_3664)">
<mask id="mask0_2072_3664" style="mask-type:luminance" maskUnits="userSpaceOnUse" x="-1" y="0" width="25" height="24">
<path d="M-0.00195312 0.0273438H23.9686V23.9977H-0.00195312V0.0273438Z" fill="white"/>
</mask>
<g mask="url(#mask0_2072_3664)">
<path d="M23.5173 10.9451L13.0513 0.479867C12.9079 0.336405 12.7376 0.2226 12.5503 0.144954C12.3629 0.0673085 12.1621 0.0273438 11.9593 0.0273438C11.7564 0.0273437 11.5556 0.0673085 11.3682 0.144954C11.1809 0.2226 11.0106 0.336405 10.8673 0.479867L8.69473 2.65341L11.4511 5.40974C11.7751 5.29969 12.1235 5.28251 12.4568 5.36014C12.7902 5.43777 13.0951 5.60713 13.3372 5.84904C13.5806 6.09271 13.7505 6.39997 13.8275 6.73568C13.9045 7.07138 13.8855 7.42198 13.7726 7.74737L16.43 10.404C16.7555 10.291 17.1063 10.272 17.4421 10.3491C17.7779 10.4263 18.0851 10.5965 18.3286 10.8402C18.4992 11.0108 18.6345 11.2132 18.7268 11.4361C18.8192 11.6589 18.8667 11.8977 18.8667 12.1389C18.8667 12.3802 18.8192 12.619 18.7268 12.8418C18.6345 13.0647 18.4992 13.2671 18.3286 13.4377C17.9838 13.7822 17.5163 13.9757 17.0289 13.9757C16.5414 13.9757 16.0739 13.7822 15.7291 13.4377C15.4729 13.1811 15.2984 12.8544 15.2274 12.4989C15.1565 12.1433 15.1924 11.7747 15.3305 11.4394L12.8522 8.96197V15.4829C13.1138 15.6121 13.3408 15.8018 13.5145 16.0362C13.6882 16.2706 13.8035 16.543 13.8509 16.8309C13.8984 17.1188 13.8765 17.4138 13.7872 17.6916C13.6979 17.9693 13.5437 18.2218 13.3374 18.4281C13.1669 18.5986 12.9644 18.734 12.7416 18.8263C12.5187 18.9186 12.2799 18.9661 12.0387 18.9661C11.7975 18.9661 11.5586 18.9186 11.3358 18.8263C11.113 18.734 10.9105 18.5986 10.7399 18.4281C10.5693 18.2575 10.434 18.055 10.3417 17.8322C10.2493 17.6093 10.2018 17.3704 10.2018 17.1292C10.2018 16.888 10.2493 16.6491 10.3417 16.4262C10.434 16.2034 10.5693 16.0009 10.7399 15.8304C10.9118 15.6581 11.1161 15.5217 11.341 15.4289V8.84797C11.117 8.75572 10.9135 8.62012 10.7421 8.44897C10.5706 8.27781 10.4347 8.07448 10.3421 7.85064C10.2495 7.62681 10.2021 7.38688 10.2025 7.14465C10.2029 6.90242 10.2511 6.66265 10.3445 6.43912L7.62673 3.72088L0.449687 10.896C0.160476 11.1858 -0.00195312 11.5785 -0.00195312 11.9879C-0.00195313 12.3973 0.160476 12.79 0.449687 13.0798L10.9163 23.5463C11.2061 23.8354 11.5987 23.9978 12.008 23.9978C12.4174 23.9978 12.81 23.8354 13.0998 23.5463L23.5173 13.1288C23.8066 12.839 23.969 12.4464 23.969 12.0369C23.969 11.6275 23.8066 11.2349 23.5173 10.9451Z" fill="#F03C2E"/>
</g>
</g>
<defs>
<clipPath id="clip0_2072_3664">
<rect width="24" height="23.9998" fill="white"/>
</clipPath>
</defs>
</svg>
