<svg width="24" height="22" viewBox="0 0 24 22" fill="none" xmlns="http://www.w3.org/2000/svg">
<g clip-path="url(#clip0_2029_6585)">
<path fill-rule="evenodd" clip-rule="evenodd" d="M12.1728 19.8835L13.1581 19.4742C13.1033 19.3362 12.9415 19.241 12.7487 19.241C12.5024 19.2398 12.1609 19.4575 12.1728 19.8835ZM13.3294 20.2797L13.7054 20.5296C13.584 20.7093 13.2925 21.0187 12.7868 21.0187C12.1609 21.0187 11.7088 20.5344 11.7088 19.9168C11.7088 19.2612 12.1645 18.815 12.7333 18.815C13.2556 18.8328 13.5805 19.1696 13.7268 19.6408L12.2514 20.25C12.3644 20.4713 12.5393 20.5844 12.7856 20.5844C13.0307 20.5844 13.2021 20.463 13.327 20.2797M10.9354 20.952H11.4196V17.7155H10.9354V20.952ZM10.1453 19.9204C10.1453 19.5325 9.88588 19.2481 9.55628 19.2481C9.22311 19.2481 8.9423 19.5325 8.9423 19.9204C8.9423 20.3047 9.22192 20.5844 9.55628 20.5844C9.88707 20.5844 10.1453 20.3047 10.1453 19.9204ZM10.5713 18.8816V20.8568C10.5713 21.6707 10.0917 22.0051 9.52415 22.0051C8.98989 22.0051 8.66862 21.6457 8.54725 21.3542L8.96847 21.1793C9.04344 21.359 9.22787 21.572 9.52415 21.572C10.0655 21.5104 10.1131 21.1603 10.1131 20.7664H10.0953C9.98702 20.8997 9.7776 21.0175 9.51463 21.0175C8.96371 21.0175 8.45801 20.538 8.45801 19.9192C8.45801 19.2969 8.96252 18.8126 9.51463 18.8126C9.7776 18.8126 9.98702 18.9292 10.0953 19.0589H10.112V18.8793C10.112 18.8781 10.5713 18.8781 10.5713 18.8781V18.8816ZM5.28816 19.9168C5.28816 19.5206 5.00496 19.2493 4.67775 19.2493C4.34934 19.2493 4.06733 19.5206 4.06733 19.9168C4.06733 20.3095 4.35053 20.5844 4.67775 20.5844C5.00496 20.5844 5.28816 20.3083 5.28816 19.9168ZM5.76411 19.9168C5.76411 20.551 5.27626 21.0187 4.67775 21.0187C4.07923 21.0187 3.59138 20.551 3.59138 19.9168C3.59138 19.2779 4.07923 18.815 4.67775 18.815C5.27626 18.815 5.76411 19.2779 5.76411 19.9168ZM7.72742 19.9168C7.72742 19.5206 7.44423 19.2493 7.11701 19.2493C6.7886 19.2493 6.5066 19.5206 6.5066 19.9168C6.5066 20.3095 6.78979 20.5844 7.11701 20.5844C7.44423 20.5844 7.72742 20.3083 7.72742 19.9168ZM8.20338 19.9168C8.20338 20.551 7.71552 21.0187 7.11701 21.0187C6.5185 21.0187 6.03065 20.551 6.03065 19.9168C6.03065 19.2779 6.5185 18.815 7.11701 18.815C7.71552 18.815 8.20338 19.2779 8.20338 19.9168ZM1.7304 21.0187C0.788008 21.0187 -0.00683594 20.25 -0.00683594 19.3052C-0.00683594 18.3617 0.786818 17.5918 1.7304 17.5918C2.25276 17.5918 2.624 17.7965 2.90363 18.0642L2.57403 18.3938C2.37413 18.2058 2.10283 18.0594 1.7304 18.0594C1.04145 18.0594 0.504815 18.6151 0.504815 19.2969C0.504815 19.9858 1.04383 20.5344 1.7304 20.5344C2.1766 20.5344 2.43124 20.3547 2.59426 20.1917C2.72752 20.0584 2.81557 19.8657 2.84889 19.6027H1.7304V19.1351H3.30105C3.31771 19.2184 3.32603 19.3183 3.32603 19.4266C3.32603 19.7776 3.22965 20.2119 2.92147 20.5201C2.62162 20.8354 2.23729 21.0032 1.73159 21.0032" fill="#5F6368"/>
<path d="M14.8633 20.928V18.0508H15.2349L16.2341 19.8032H16.2492L17.2484 18.0508H17.62V20.928H17.2485L17.2636 18.7387H17.2485L16.3497 20.3154H16.1338L15.235 18.7387H15.2199C15.2473 19.4669 15.235 20.1999 15.235 20.928H14.8633ZM18.7799 20.9782C18.569 20.9782 18.3983 20.918 18.2577 20.7974C18.1171 20.6769 18.0468 20.5162 18.0468 20.3203C18.0468 20.1044 18.1322 19.9387 18.2979 19.8182C18.4636 19.6977 18.6694 19.6374 18.9105 19.6374C19.1264 19.6374 19.3071 19.6776 19.4427 19.7579C19.4391 19.3403 19.1505 19.2257 18.9255 19.2257C18.7131 19.2357 18.5288 19.3246 18.4535 19.5119L18.1171 19.3662C18.1623 19.2508 18.2527 19.1402 18.3882 19.0399C18.5238 18.9396 18.6996 18.8892 18.9205 18.8892C19.1716 18.8892 19.3825 18.9645 19.5482 19.1102C19.7139 19.2558 19.7992 19.4667 19.7992 19.7328V20.9229H19.4477V20.6517C19.2835 20.8576 19.0616 20.9736 18.7799 20.9781V20.9782ZM19.4427 20.0643C19.2263 19.8996 18.7749 19.879 18.564 20.0493C18.3983 20.2099 18.3807 20.4254 18.554 20.5514C18.9727 20.82 19.4578 20.4018 19.4427 20.0643ZM21.2404 20.9782C21.0897 20.9782 20.9541 20.9481 20.8387 20.8828C20.7232 20.8175 20.6328 20.7372 20.5725 20.6418H20.5524L20.5675 20.9129V21.7816H20.2009V18.9446H20.5524V19.2157H20.5675C20.6278 19.1203 20.7131 19.04 20.8336 18.9747C20.9541 18.9094 21.0897 18.8793 21.2353 18.8793C21.4914 18.8793 21.7073 18.9797 21.8931 19.1806C22.0789 19.3814 22.1692 19.6325 22.1692 19.9288C22.1692 20.225 22.0788 20.4761 21.8931 20.6769C21.7124 20.8778 21.4914 20.9782 21.2404 20.9782ZM21.1801 20.6368C21.3508 20.6368 21.4964 20.5715 21.622 20.4409C21.7475 20.3104 21.8078 20.1397 21.8078 19.9237C21.8078 19.7078 21.7475 19.5371 21.622 19.4065C21.4964 19.276 21.3508 19.2107 21.1801 19.2107C21.0044 19.2107 20.8587 19.276 20.7382 19.4015C20.6177 19.5321 20.5575 19.7028 20.5575 19.9187C20.5575 20.1346 20.6177 20.3104 20.7382 20.4359C20.8587 20.5765 21.0044 20.6368 21.1801 20.6368ZM23.2489 20.9782C23.0279 20.9782 22.8472 20.923 22.7066 20.8175C22.561 20.7121 22.4605 20.5765 22.3902 20.4158L22.7216 20.2802C22.8271 20.5263 23.0028 20.6518 23.2539 20.6518C23.3694 20.6518 23.4648 20.6268 23.5351 20.5765C23.6104 20.5263 23.6456 20.461 23.6456 20.3757C23.6456 20.2451 23.5552 20.1597 23.3744 20.1145L22.9777 20.0191C22.8522 19.989 22.7317 19.9237 22.6212 19.8384C22.5108 19.753 22.4505 19.6275 22.4505 19.4768C22.4505 19.3011 22.5258 19.1605 22.6815 19.055C22.8371 18.9446 23.0179 18.8944 23.2288 18.8944C23.4045 18.8944 23.5602 18.9345 23.6958 19.0149C23.8314 19.0952 23.9318 19.2057 23.987 19.3563L23.6657 19.4869C23.5954 19.3111 23.4447 19.2258 23.2137 19.2258C23.1033 19.2258 23.0129 19.2508 22.9377 19.2961C22.8625 19.3414 22.8272 19.4015 22.8272 19.4819C22.8272 19.5923 22.9126 19.6727 23.0883 19.7128L23.48 19.8032C23.6658 19.8484 23.8013 19.9187 23.8917 20.0242C23.9821 20.1296 24.0223 20.2451 24.0223 20.3757C24.0223 20.5514 23.952 20.702 23.8064 20.8175C23.6658 20.918 23.48 20.9782 23.249 20.9782H23.2489Z" fill="#63666A"/>
<path d="M9.8877 11.22C10.3387 11.784 10.798 12.4931 11.0383 12.9215C11.331 13.4784 11.4524 13.8544 11.6701 14.5278C11.7975 14.8967 11.9188 15.0085 12.1735 15.0085C12.4519 15.0085 12.5792 14.8205 12.6768 14.5278C12.8803 13.896 13.0373 13.4153 13.286 12.9572C14.2451 11.1486 15.8086 9.86348 16.6891 8.10245C16.6891 8.10245 17.2686 7.02679 17.2686 5.5204C17.2686 4.11633 16.6974 3.14062 16.6974 3.14062L9.89126 11.2318L9.8877 11.22Z" fill="#34A853"/>
<path d="M7.57962 7.91155C8.12816 9.16093 9.17407 10.2556 9.888 11.2194L13.6718 6.73356C13.6718 6.73356 13.1376 7.43322 12.1726 7.43322C11.0969 7.43322 10.2212 6.5765 10.2212 5.4937C10.2212 4.74883 10.665 4.23242 10.665 4.23242C7.88066 4.6465 8.03534 5.32117 7.57129 7.90917L7.57962 7.91155Z" fill="#FBBC04"/>
<path d="M13.7193 0.626953C14.9806 1.0327 16.0515 1.88823 16.694 3.13761L13.6717 6.74297C13.6717 6.74297 14.1155 6.22418 14.1155 5.48169C14.1155 4.37628 13.1827 3.54217 12.176 3.54217C11.2205 3.54217 10.6768 4.2335 10.6768 4.2335C10.9088 3.70519 13.3064 0.806626 13.7229 0.628143L13.7193 0.626953Z" fill="#4285F4"/>
<path d="M8.26953 2.2131C9.02154 1.31831 10.3399 0.392578 12.1605 0.392578C13.0398 0.392578 13.7073 0.625796 13.7073 0.625796L10.6731 4.23115C10.4684 4.12013 8.47181 2.56531 8.26953 2.20834V2.2131Z" fill="#1A73E8"/>
<path d="M7.57919 7.91226C7.57919 7.91226 7.08301 6.92704 7.08301 5.50869C7.08301 4.16412 7.60894 2.98614 8.27289 2.22461L10.6765 4.24742L7.58276 7.91226H7.57919Z" fill="#EA4335"/>
</g>
<defs>
<clipPath id="clip0_2029_6585">
<rect width="24" height="21.6083" fill="white" transform="translate(0 0.392578)"/>
</clipPath>
</defs>
</svg>
