<svg id="Capa_1" enable-background="new 0 0 512 512" height="512" viewBox="0 0 512 512" width="512" xmlns="http://www.w3.org/2000/svg"><g><g><path d="m0 256c0 141.385 114.615 256 256 256l15-256-15-256c-141.385 0-256 114.615-256 256z" fill="#e6926a"/><path d="m256 0v512c141.385 0 256-114.615 256-256s-114.615-256-256-256z" fill="#dd415b"/><path d="m63.734 256h63.734c0-70.872 57.659-128.531 128.531-128.531l15-30.359-15-33.375c-106.015-.001-192.265 86.249-192.265 192.265z" fill="#eaf2fe"/><path d="m256 63.734v63.734c70.872 0 128.531 57.659 128.531 128.531h63.734c.001-106.015-86.249-192.265-192.265-192.265z" fill="#d6e7fe"/></g><g><path d="m189.25 336.616 21.213 21.213 45.537-45.537v-42.426z" fill="#ffe278"/><path d="m393.156 132.71-137.156 137.156v42.426l158.369-158.369z" fill="#ecbd2c"/></g><path d="m215.087 291.079c0 22.595 18.317 40.913 40.913 40.913l12.945-40.912-12.945-40.913c-22.595 0-40.913 18.317-40.913 40.912z" fill="#dd415b"/><path d="m256 250.167v81.825c22.595 0 40.913-18.317 40.913-40.913 0-22.595-18.318-40.912-40.913-40.912z" fill="#b31061"/><g><path d="m164.059 387.535v30h91.941l7.5-15-7.5-15z" fill="#b31061"/></g><path d="m256 387.535h91.941v30h-91.941z" fill="#792e53"/></g></svg>