<?xml version="1.0" encoding="iso-8859-1"?>
<!-- Generator: Adobe Illustrator 19.0.0, SVG Export Plug-In . SVG Version: 6.00 Build 0)  -->
<svg version="1.1" id="Capa_1" xmlns="http://www.w3.org/2000/svg" xmlns:xlink="http://www.w3.org/1999/xlink" x="0px" y="0px"
	 viewBox="0 0 512 512" style="enable-background:new 0 0 512 512;" xml:space="preserve">
<path style="fill:#B7B8B4;" d="M280.091,50h-62.219c-5.523,0-10-4.477-10-10V10c0-5.523,4.477-10,10-10h62.219
	c5.523,0,10,4.477,10,10v30C290.091,45.523,285.614,50,280.091,50z"/>
<path style="fill:#F4925A;" d="M429.463,50v442c0,11.046-8.954,20-20,20H88.5c-11.046,0-20-8.954-20-20V50c0-11.046,8.954-20,20-20
	H112c4.418,0,8,3.582,8,8v12h260V38c0-4.418,3.582-8,8-8h21.463C420.508,30,429.463,38.954,429.463,50z"/>
<path style="fill:#EA744F;" d="M109.61,512H88.553c-11.075,0-20.053-8.954-20.053-20V50c0-11.046,8.978-20,20.053-20h21.056
	c-11.075,0-20.053,8.954-20.053,20v442C89.556,503.046,98.534,512,109.61,512z"/>
<path style="fill:#F1F3F0;" d="M395.372,40v430c0,5.523-4.477,10-10,10H122.591c-11.046,0-20-8.954-20-20V40c0-5.523,4.477-10,10-10
	h272.781C390.895,30,395.372,34.477,395.372,40z"/>
<path style="fill:#DCE5DF;" d="M432.476,391.1c5.903-0.589,11.024,4.034,11.024,9.95V460c0,11.046-8.978,20-20.053,20H122.644
	c11.075,0,20.053-8.954,20.053-20v-30.95c0-5.138,3.903-9.439,9.029-9.95L432.476,391.1z"/>
<path style="fill:#9D9F9C;" d="M305.131,22.5H192.832c-9.675,0-17.547,7.851-17.547,17.5v20c0,9.649,7.872,17.5,17.547,17.5h112.299
	c9.675,0,17.547-7.851,17.547-17.5V40C322.678,30.351,314.806,22.5,305.131,22.5z M307.638,60c0,1.378-1.125,2.5-2.507,2.5H192.832
	c-1.382,0-2.507-1.122-2.507-2.5V40c0-1.378,1.125-2.5,2.507-2.5h112.299c1.382,0,2.507,1.122,2.507,2.5V60z"/>
<path style="fill:#A59EA7;" d="M147.21,290c0,4.142-3.367,7.5-7.52,7.5h-1.003c-4.153,0-7.52-3.358-7.52-7.5s3.367-7.5,7.52-7.5
	h1.003C143.843,282.5,147.21,285.858,147.21,290z M228.928,282.5h-60.16c-4.153,0-7.52,3.358-7.52,7.5s3.367,7.5,7.52,7.5h60.16
	c4.153,0,7.52-3.358,7.52-7.5S233.081,282.5,228.928,282.5z M270.037,282.5h-1.003c-4.153,0-7.52,3.358-7.52,7.5s3.367,7.5,7.52,7.5
	h1.003c4.153,0,7.52-3.358,7.52-7.5S274.191,282.5,270.037,282.5z M359.275,282.5h-60.16c-4.153,0-7.52,3.358-7.52,7.5
	s3.367,7.5,7.52,7.5h60.16c4.153,0,7.52-3.358,7.52-7.5S363.429,282.5,359.275,282.5z M139.69,312.5h-1.003
	c-4.153,0-7.52,3.358-7.52,7.5s3.367,7.5,7.52,7.5h1.003c4.153,0,7.52-3.358,7.52-7.5S143.843,312.5,139.69,312.5z M168.767,327.5
	h54.144c4.153,0,7.52-3.358,7.52-7.5s-3.367-7.5-7.52-7.5h-54.144c-4.153,0-7.52,3.358-7.52,7.5S164.614,327.5,168.767,327.5z
	 M270.037,312.5h-1.003c-4.153,0-7.52,3.358-7.52,7.5s3.367,7.5,7.52,7.5h1.003c4.153,0,7.52-3.358,7.52-7.5
	S274.191,312.5,270.037,312.5z M299.115,327.5h34.091c4.153,0,7.52-3.358,7.52-7.5s-3.367-7.5-7.52-7.5h-34.091
	c-4.153,0-7.52,3.358-7.52,7.5S294.962,327.5,299.115,327.5z M139.69,342.5h-1.003c-4.153,0-7.52,3.358-7.52,7.5s3.367,7.5,7.52,7.5
	h1.003c4.153,0,7.52-3.358,7.52-7.5S143.843,342.5,139.69,342.5z M228.928,342.5h-60.16c-4.153,0-7.52,3.358-7.52,7.5
	s3.367,7.5,7.52,7.5h60.16c4.153,0,7.52-3.358,7.52-7.5S233.081,342.5,228.928,342.5z M270.037,342.5h-1.003
	c-4.153,0-7.52,3.358-7.52,7.5s3.367,7.5,7.52,7.5h1.003c4.153,0,7.52-3.358,7.52-7.5S274.191,342.5,270.037,342.5z M343.233,342.5
	h-44.118c-4.153,0-7.52,3.358-7.52,7.5s3.367,7.5,7.52,7.5h44.118c4.153,0,7.52-3.358,7.52-7.5S347.386,342.5,343.233,342.5z
	 M139.69,372.5h-1.003c-4.153,0-7.52,3.358-7.52,7.5s3.367,7.5,7.52,7.5h1.003c4.153,0,7.52-3.358,7.52-7.5
	S143.843,372.5,139.69,372.5z M202.858,372.5h-34.091c-4.153,0-7.52,3.358-7.52,7.5s3.367,7.5,7.52,7.5h34.091
	c4.153,0,7.52-3.358,7.52-7.5S207.011,372.5,202.858,372.5z"/>
<path style="fill:#8D7B93;" d="M338.801,240h-99.034c-3.547,0-5.972-3.573-4.655-6.857l12.261-30.571
	c3.045-7.593,10.419-12.572,18.619-12.572h46.584c8.2,0,15.574,4.979,18.619,12.572l12.261,30.571
	C344.773,236.427,342.348,240,338.801,240z M289.284,160c13.844,0,25.067-11.193,25.067-25s-11.223-25-25.067-25
	s-25.067,11.193-25.067,25S275.44,160,289.284,160z"/>
<path style="fill:#EA744F;" d="M258.196,240h-99.034c-3.547,0-5.972-3.573-4.655-6.857l12.261-30.571
	c3.045-7.593,10.419-12.572,18.619-12.572h46.584c8.2,0,15.574,4.979,18.619,12.572l12.261,30.571
	C264.168,236.427,261.743,240,258.196,240z M208.679,160c13.844,0,25.067-11.193,25.067-25s-11.223-25-25.067-25
	s-25.067,11.193-25.067,25S194.835,160,208.679,160z"/>
<g>
</g>
<g>
</g>
<g>
</g>
<g>
</g>
<g>
</g>
<g>
</g>
<g>
</g>
<g>
</g>
<g>
</g>
<g>
</g>
<g>
</g>
<g>
</g>
<g>
</g>
<g>
</g>
<g>
</g>
</svg>
