<?xml version="1.0" encoding="utf-8"?>
<!-- Generator: Adobe Illustrator 24.1.0, SVG Export Plug-In . SVG Version: 6.00 Build 0)  -->
<svg version="1.1" id="Layer_1" xmlns="http://www.w3.org/2000/svg" xmlns:xlink="http://www.w3.org/1999/xlink" x="0px" y="0px"
	 viewBox="0 0 283.5 283.5" style="enable-background:new 0 0 283.5 283.5;" xml:space="preserve">
<style type="text/css">
	.st0{fill-rule:evenodd;clip-rule:evenodd;fill:#1A1918;}
	.st1{fill-rule:evenodd;clip-rule:evenodd;fill:#21609B;}
</style>
<g>
	<path class="st0" d="M271.6,114.5l11.9,0.1c0,0-22.1,29.9-23.9,32.4c-0.6,0.8-1.5,1.6-1.9,2.7c-1.1,2.7-2.3,8.5-2.3,8.5l-10.9,0.1
		c0,0,1.7-6.1,1.6-9.3c-0.1-2.8-1.5-5.6-2.3-8.5c-0.8-2.9-1.9-8.5-1.9-8.5H253l1.5,6.2L271.6,114.5"/>
	<path class="st0" d="M249.1,120.9c2.2,1.3,3.5,8.6,3.5,8.6s-11.5,0.2-17.7,0.2h-5.4l-6.6,28.5h-10c0,0,6.2-31,7.7-36.6
		c0.5-1.8,3.3-1.5,8-1.5h7.5C241,120,246.7,119.4,249.1,120.9 M202.4,134.8c0,0,0.3-1.8-1.1-4c-1.2-1.8-2.3-2.2-5.3-2.3
		c-8.7-0.3-8.5,6.2-8.5,6.2L202.4,134.8z M211.9,127.4c1.3,4.6-1.2,15.4-1.2,15.4s-12.7-0.2-19.7,0c-2.2,0.1-4.8-0.2-5.4,0.8
		c-0.9,1.4,0.3,3.6,1.4,4.5c1.2,1.1,3.6,1.2,4.4,1.3c5.6,0.7,17.5,0.2,17.5,0.2l-2,9.1c0,0-16.7,0.8-25.1-1.2
		c-1.6-0.4-3.2-1.2-4.2-2.3c-0.3-0.3-0.5-0.7-0.8-1.1c-0.2-0.3-0.8-1.2-1.1-2c-1.9-5.1,0.2-14.8,2.3-20c0.2-0.6,0.5-1.4,0.9-2
		c0.4-0.8,0.7-1.7,1.1-2.2c0.2-0.3,0.5-0.6,0.7-0.9c0.3-0.4,0.6-0.7,0.8-1.1c0.8-0.9,1.6-1.5,2.7-2.3c3.5-2.6,9.8-4.6,17.3-3.9
		c2.8,0.3,7.2,1.3,9.3,4.2C211.3,124.7,211.5,126.2,211.9,127.4L211.9,127.4z M165.9,120l9.7-0.1c0,0-5.4,25.7-8.2,38.2h-11.2
		c-7.8,0-14.8,1-17.7-4.6c-2.9-5.4-0.1-14.4,1.2-20.4c0.9-4.3,2.8-13.1,2.8-13.1l10.1-0.1c0,0-2.8,13.7-4,20.5
		c-0.4,2.4-1.3,4.7-0.4,6.6c0.9,1.7,2.1,1.8,5.8,1.9c1.2,0,5,0,5,0L165.9,120 M120.4,138.5c1-3.6,2.5-7.5,2.3-10.8
		c-0.2-3.5-3.1-6.7-5-7.3c-5.7-2-11,0.8-13.1,3.1c-2.7,3-3.7,6.4-4.6,11.2c-0.7,3.5-1.3,7.3,0,10c2.3,4.9,9.6,3.8,17.3,3.9
		C118.5,145.4,119.4,142,120.4,138.5L120.4,138.5z M133.9,124.2c1.1,8.1-3.1,17-6.1,24.7c3,0.3,5.6,0,5.8,0.2c0.2,0.3-2,9.2-2.8,9.3
		c-2.4,0.1-10.2,0.1-13.5,0.1c-10.7,0-20.7,0.7-25.8-4.6c-2.1-2.2-3.5-5.9-3.9-8.5c-0.6-4.4,0.1-9.2,1.2-13.1
		c0.9-3.6,2.1-6.9,3.9-10c4.5-7.9,12.3-13.7,25.4-12.3c2.5,0.3,6.2,1.4,8.5,2.7c0.2,0.1,0.7,0.5,0.8,0.6
		C130.5,115.3,133.3,119.9,133.9,124.2L133.9,124.2z M86.5,120.1c-0.6,2.9-1.3,6.3-2,9.2H73.8c0.8-3.2,1.5-6.4,2.3-9.3
		C79.5,120,82.7,120.1,86.5,120.1 M73.4,132h10.4c-1.4,7.5-4.1,19.7-6.2,28.1c-1.3,5.3-2.2,9.2-5.8,12c-0.3,0.3-0.5,0.1-0.8,0.4
		c-0.7,0.6-3.7,1.4-5.4,1.5c-2.7,0.3-5.8,0-9.2,0c0.9-3.2,1.9-7.1,2.7-10c8.2,1,8.4-6.8,10-14.3C70,145.4,72.8,133.7,73.4,132"/>
	<g>
		<path class="st1" d="M49.1,151.6l-0.2,0.6c-3.8,7.4-10.5,11.9-20.1,12.1c-4.5,0.1-8.8-1.1-11.6-2.3c-6-2.7-11.1-7.7-13.9-13.1
			c-4-7.7-4.7-18.4,3.6-26.4c0.1,0-1,1.7-0.9,1.7L5.7,125c-6,18.6,12.4,34.6,30.2,32.8C40.3,157.3,45.7,155,49.1,151.6"/>
		<path class="st1" d="M38.3,143.9c4.5,0,9.2-2.1,12-5c-2.4,6.2-9.5,10.1-18.9,8.9c-7.9-1.1-15.4-9-16.2-17
			c-0.6-5.8,1.5-9.3,4.8-13.4c-1.2,2.2-1.6,3.9-1.7,5C17,134.9,28.3,143.8,38.3,143.9"/>
		<path class="st1" d="M49.8,128.3c-0.7,1.6-4.7,4.6-6.5,5c-7,1.5-11.5-1.8-13.9-5.6c-0.4-0.6-1-2.1-1.1-2.5
			c-0.9-3.1-0.5-7.8,2.2-10.2c-0.8,2.3-0.9,5-0.5,6.7c0.3,1.1,1.1,2.9,1.9,4.1c1.5,2.1,2.4,2.6,4.2,3.7c0.8,0.5,1.7,0.9,2.1,1
			C40,131.1,43.8,132.4,49.8,128.3"/>
	</g>
</g>
</svg>
