<svg id="Flat" height="512" viewBox="0 0 512 512" width="512" xmlns="http://www.w3.org/2000/svg"><g><g><g><path d="m352 488h-192v-9.585a20 20 0 0 1 13.675-18.973l6.974-2.325a40 40 0 0 0 27.351-37.947v-11.17l8-8h80l8 8v11.17a40 40 0 0 0 27.351 37.947l6.974 2.325a20 20 0 0 1 13.675 18.973z" fill="#24afd6"/><rect fill="#ecfbf9" height="280" rx="10" width="464" x="24" y="128"/><path d="m24 336h464a0 0 0 0 1 0 0v62a10 10 0 0 1 -10 10h-444a10 10 0 0 1 -10-10v-62a0 0 0 0 1 0 0z" fill="#57cee6"/></g><g><rect fill="#fffdfa" height="336" rx="10" width="400" x="56" y="24"/><path d="m456 72h-400v-38a10 10 0 0 1 10-10h380a10 10 0 0 1 10 10z" fill="#fac850"/><path d="m416 40h16v16h-16z" fill="#fffdfa"/><path d="m144 40h16v16h-16z" fill="#fffdfa"/><path d="m80 40h16v16h-16z" fill="#fffdfa"/><path d="m112 40h16v16h-16z" fill="#fffdfa"/><rect fill="#c85aed" height="64" rx="20" width="224" x="144" y="104"/><path d="m144 200h224v128h-224z" fill="#c85aed"/><g fill="#f5f1ff"><path d="m168 224h40v16h-40z"/><path d="m224 224h56v16h-56z"/><path d="m168 256h24v16h-24z"/><path d="m208 256h72v16h-72z"/><path d="m168 288h96v16h-96z"/><path d="m168 120h16v32h-16z"/></g></g></g><path d="m401.372 198.163-19.187-11.512a32.03 32.03 0 1 0 -8.951 13.289l19.906 11.944a8 8 0 0 0 10.976-2.744 8 8 0 0 0 -2.744-10.977z" fill="#fac850"/></g></svg>