<svg width="24" height="24" viewBox="0 0 24 24" fill="none" xmlns="http://www.w3.org/2000/svg">
<path d="M16.6278 18.3352C13.8127 18.3352 11.2839 16.7845 9.99561 14.375C8.70734 14.8044 7.58606 15.6394 6.79879 16.713C6.13079 16.3313 5.36737 16.1165 4.55624 16.1165C2.05127 16.1165 0.0234375 18.1444 0.0234375 20.6493H18.7034C18.7034 19.8382 18.5602 19.0748 18.2978 18.3352H16.6278Z" fill="#00BBE6"/>
<path d="M22.497 17.5487C22.5209 17.4533 22.5447 17.3817 22.5447 17.2863C22.5447 16.8807 22.33 16.5467 21.996 16.3559L19.4195 14.9006C20.2783 13.8032 20.326 12.2286 19.4672 11.0835L15.2207 5.45331C13.5746 7.09943 12.9543 9.34197 13.2883 11.4652L0 3.99805C1.09742 7.95828 4.62823 10.6064 8.54076 10.7495C8.70775 11.2028 9.5666 13.5169 9.5666 13.5169C9.68588 13.8032 9.80517 14.0895 9.94831 14.3758C10.6163 14.1611 11.3082 14.0418 12.0477 14.0418C14.8867 14.0418 17.3201 15.831 18.2505 18.3599H23.8569L22.497 17.5487ZM21.4712 17.6203C21.2803 17.6203 21.1372 17.4771 21.1372 17.2863C21.1372 17.0954 21.2803 16.9523 21.4712 16.9523C21.662 16.9523 21.8052 17.0954 21.8052 17.2863C21.829 17.4771 21.662 17.6203 21.4712 17.6203Z" fill="#152333"/>
<path d="M19.7772 19.2903H19.5625V19.2188H20.0635V19.2903H19.8488V19.8629H19.7534V19.2903H19.7772ZM20.1828 19.2188H20.3021L20.5168 19.7436L20.7076 19.2188H20.8269V19.8629H20.7315V19.2903L20.4929 19.8629H20.4452L20.2066 19.2903V19.8629H20.1112V19.2188H20.1828Z" fill="black"/>
</svg>
