<?xml version="1.0" encoding="utf-8"?>
<!-- Generator: Adobe Illustrator 24.1.0, SVG Export Plug-In . SVG Version: 6.00 Build 0)  -->
<svg version="1.1" id="Capa_1" xmlns="http://www.w3.org/2000/svg" xmlns:xlink="http://www.w3.org/1999/xlink" x="0px" y="0px"
	 viewBox="0 0 512 512" style="enable-background:new 0 0 512 512;" xml:space="preserve">
<style type="text/css">
	.st0{fill:#00ABE9;}
	.st1{fill:#0095FF;}
	.st2{fill:#D3D3D8;}
	.st3{fill:#BABAC0;}
</style>
<polygon class="st0" points="398.8,180.9 394,185.7 297.8,281.5 289.3,365 256.5,384.2 224.1,403.2 215.1,281.4 118.9,185.7 
	114.1,180.9 133.3,169 376.8,169 "/>
<polygon class="st1" points="398.8,180.9 394,185.7 297.8,281.5 289.3,365 256.5,384.2 256.5,169 376.8,169 "/>
<rect x="114.1" y="118.5" class="st2" width="284.8" height="62.7"/>
<rect x="256.5" y="118.5" class="st3" width="142.4" height="62.7"/>
<g>
	<g>
		<circle class="st2" cx="141.7" cy="9.7" r="9.2"/>
		<path class="st2" d="M144.9,23.3c-2.3-0.5-4.8-0.4-7,0.1c-15.2,1.8-20.2,19.4-18.8,32.8c0.6,5.8,9.8,5.9,9.1,0
			c-0.5-4.9-0.3-12.3,2.3-17.5c0,6.4,0,12.8,0,19.1c0,0.2,0,0.4,0,0.7c0,0.1,0,0.2,0,0.3c0,15.2,0,30.4-0.7,45.6
			c-0.3,6.7,10.2,6.7,10.5,0c0.5-11.9,0.6-23.8,0.6-35.7c0.5,0,1,0,1.5,0c0,11.9,0.2,23.8,0.6,35.7c0.3,6.7,10.7,6.7,10.5,0
			C153,89.1,153,73.9,153,58.7c0-0.5-0.1-0.9-0.2-1.3c0-6.6-0.3-13.2-0.2-19.8c3.1,5.3,3.4,13.3,2.9,18.5c-0.6,5.9,8.5,5.8,9.1,0
			C166.1,42.5,160.9,24.4,144.9,23.3z"/>
	</g>
</g>
<g>
	<g>
		<circle class="st2" cx="256.3" cy="9.7" r="9.2"/>
		<path class="st2" d="M259.5,23.3c-2.3-0.5-4.8-0.4-7,0.1c-15.2,1.8-20.2,19.4-18.8,32.8c0.6,5.8,9.8,5.9,9.1,0
			c-0.5-4.9-0.3-12.3,2.3-17.5c0,6.4,0,12.8,0,19.1c0,0.2,0,0.4,0,0.7c0,0.1,0,0.2,0,0.3c0,15.2,0,30.4-0.7,45.6
			c-0.3,6.7,10.2,6.7,10.5,0c0.5-11.9,0.6-23.8,0.6-35.7c0.5,0,1,0,1.5,0c0,11.9,0.2,23.8,0.6,35.7c0.3,6.7,10.7,6.7,10.5,0
			c-0.6-15.2-0.7-30.4-0.7-45.6c0-0.5-0.1-0.9-0.2-1.3c0-6.6-0.3-13.2-0.2-19.8c3.1,5.3,3.4,13.3,2.9,18.5c-0.6,5.9,8.5,5.8,9.1,0
			C280.6,42.5,275.5,24.4,259.5,23.3z"/>
	</g>
</g>
<g>
	<g>
		<circle class="st3" cx="256.3" cy="412.4" r="9.2"/>
		<path class="st3" d="M259.5,425.9c-2.3-0.5-4.8-0.4-7,0.1c-15.2,1.8-20.2,19.4-18.8,32.8c0.6,5.8,9.8,5.9,9.1,0
			c-0.5-4.9-0.3-12.3,2.3-17.5c0,6.4,0,12.8,0,19.1c0,0.2,0,0.4,0,0.7c0,0.1,0,0.2,0,0.3c0,15.2,0,30.4-0.7,45.6
			c-0.3,6.7,10.2,6.7,10.5,0c0.5-11.9,0.6-23.8,0.6-35.7c0.5,0,1,0,1.5,0c0,11.9,0.2,23.8,0.6,35.7c0.3,6.7,10.7,6.7,10.5,0
			c-0.6-15.2-0.7-30.4-0.7-45.6c0-0.5-0.1-0.9-0.2-1.3c0-6.6-0.3-13.2-0.2-19.8c3.1,5.3,3.4,13.3,2.9,18.5c-0.6,5.9,8.5,5.8,9.1,0
			C280.6,445.1,275.5,427,259.5,425.9z"/>
	</g>
</g>
<g>
	<g>
		<circle class="st2" cx="375.7" cy="9.7" r="9.2"/>
		<path class="st2" d="M378.9,23.3c-2.3-0.5-4.8-0.4-7,0.1c-15.2,1.8-20.2,19.4-18.8,32.8c0.6,5.8,9.8,5.9,9.1,0
			c-0.5-4.9-0.3-12.3,2.3-17.5c0,6.4,0,12.8,0,19.1c0,0.2,0,0.4,0,0.7c0,0.1,0,0.2,0,0.3c0,15.2,0,30.4-0.7,45.6
			c-0.3,6.7,10.2,6.7,10.5,0c0.5-11.9,0.6-23.8,0.6-35.7c0.5,0,1,0,1.5,0c0,11.9,0.2,23.8,0.6,35.7c0.3,6.7,10.7,6.7,10.5,0
			C387,89.1,387,73.9,387,58.7c0-0.5-0.1-0.9-0.2-1.3c0-6.6-0.3-13.2-0.2-19.8c3.1,5.3,3.4,13.3,2.9,18.5c-0.6,5.9,8.5,5.8,9.1,0
			C400,42.5,394.9,24.4,378.9,23.3z"/>
	</g>
</g>
</svg>
