<?xml version="1.0" encoding="iso-8859-1"?>
<!-- Generator: Adobe Illustrator 19.0.0, SVG Export Plug-In . SVG Version: 6.00 Build 0)  -->
<svg version="1.1" id="Capa_1" xmlns="http://www.w3.org/2000/svg" xmlns:xlink="http://www.w3.org/1999/xlink" x="0px" y="0px"
	 viewBox="0 0 466.024 466.024" style="enable-background:new 0 0 466.024 466.024;" xml:space="preserve">
<g>
	<polygon style="fill:#D4E1F4;" points="399.151,193.829 399.151,238.237 269.584,349.518 269.584,429.453 196.441,466.024 
		196.441,349.518 66.873,238.237 66.873,193.829 	"/>
	<path style="fill:#00BB64;" d="M321.829,81.502c22.793-0.289,41.504,17.955,41.793,40.748c0.002,0.175,0.003,0.35,0.003,0.526
		c0,23.083-18.713,41.796-41.796,41.796s-41.796-18.713-41.796-41.796c-0.002-22.795,18.475-41.275,41.27-41.277
		C321.478,81.499,321.653,81.5,321.829,81.502z"/>
	<path style="fill:#00ACEA;" d="M279.51,0c13.273,0,24.033,10.76,24.033,24.033s-10.76,24.033-24.033,24.033l0,0
		c-13.156-0.277-23.756-10.876-24.033-24.033C255.755,10.876,266.354,0.277,279.51,0z"/>
	<path style="fill:#00CEB4;" d="M216.816,57.469c13.273-0.007,24.038,10.748,24.044,24.021s-10.748,24.038-24.021,24.044
		c-0.008,0-0.016,0-0.024,0c-13.273-0.002-24.031-10.764-24.028-24.037C192.791,68.228,203.547,57.472,216.816,57.469z"/>
	<path style="fill:#00ACEA;" d="M114.416,91.951c19.041-0.289,34.712,14.914,35,33.955s-14.914,34.712-33.955,35
		c-19.041,0.289-34.712-14.914-35-33.955c-0.003-0.173-0.004-0.346-0.004-0.518C80.455,107.591,95.577,92.236,114.416,91.951z"/>
</g>
<g>
</g>
<g>
</g>
<g>
</g>
<g>
</g>
<g>
</g>
<g>
</g>
<g>
</g>
<g>
</g>
<g>
</g>
<g>
</g>
<g>
</g>
<g>
</g>
<g>
</g>
<g>
</g>
<g>
</g>
</svg>
