<?xml version="1.0" encoding="iso-8859-1"?>
<!-- Generator: Adobe Illustrator 19.0.0, SVG Export Plug-In . SVG Version: 6.00 Build 0)  -->
<svg version="1.1" id="Capa_1" xmlns="http://www.w3.org/2000/svg" xmlns:xlink="http://www.w3.org/1999/xlink" x="0px" y="0px"
	 viewBox="0 0 512 512" style="enable-background:new 0 0 512 512;" xml:space="preserve">
<path style="fill:#EFCDB1;" d="M512,226.712v2.915c0,4.306-0.989,8.376-2.761,11.991c-4.44,9.148-13.825,15.453-24.683,15.453
	h-9.921c14.824,0,26.847,12.022,26.847,26.846v4.121c0,4.069-0.907,7.932-2.534,11.383c-4.286,9.128-13.557,15.453-24.312,15.453
	h-7.84c14.556,0,26.352,11.796,26.352,26.352v5.099c0,3.884-0.845,7.582-2.359,10.899c-4.141,9.117-13.32,15.453-23.993,15.453
	h-15.937c13.99,0,25.332,11.342,25.332,25.332v7.15c0,13.99-11.342,25.332-25.332,25.332H315.596
	c-7.026,0-13.928-1.277-20.398-3.698c-6.48-2.421-12.517-5.996-17.812-10.611c-5.12-4.45-11.672-6.902-18.451-6.902h-94.838V220.459
	h76.831c1.205,0,2.411-0.031,3.616-0.083c20.408-0.968,39.641-10.044,53.353-25.332c28.927-32.234,76.347-86.968,90.687-114.711
	c3.163-6.099,23.2-1.442,23.2-1.442c16.318,9.076,24.353,28.114,19.46,46.142l-31.431,74.235h84.743
	C499.72,199.268,512,211.548,512,226.712z"/>
<g>
	<path style="fill:#D8AD8F;" d="M450.863,397.023H315.594c-7.02,0-13.925-1.27-20.397-3.695
		c-6.473-2.419-12.514-5.993-17.808-10.606c-5.118-4.455-11.67-6.904-18.452-6.904h-94.833v33.464h94.833
		c6.783,0,13.335,2.449,18.452,6.905c5.294,4.613,11.335,8.187,17.808,10.606c6.473,2.425,13.378,3.695,20.397,3.695h135.269
		c13.985,0,25.326-11.341,25.326-25.326v-7.154c0-4.817-1.346-9.321-3.682-13.155C468.061,392.149,460.03,397.023,450.863,397.023z"
		/>
	<path style="fill:#D8AD8F;" d="M244.543,220.375v188.906h-80.441V220.46h76.824C242.136,220.46,243.34,220.43,244.543,220.375z"/>
</g>
<path style="fill:#CAEDFF;" d="M209.687,214.358v201.026c0,4.552-3.69,8.241-8.241,8.241h-75.633V206.117h75.633
	C205.997,206.117,209.687,209.806,209.687,214.358z"/>
<path style="fill:#76C2E0;" d="M209.687,378.139v37.245c0,4.552-3.69,8.241-8.241,8.241h-75.633v-45.487h83.874V378.139z"/>
<path style="fill:#2796AF;" d="M131.89,203.175v223.392c0,4.552-3.69,8.241-8.241,8.241H8.241c-4.552,0-8.241-3.69-8.241-8.241
	V203.175c0-4.552,3.69-8.241,8.241-8.241h115.407C128.2,194.933,131.89,198.623,131.89,203.175z"/>
<path style="fill:#0E7889;" d="M131.89,378.139v48.429c0,4.552-3.69,8.241-8.241,8.241H8.241c-4.552,0-8.241-3.69-8.241-8.241
	v-48.429L131.89,378.139L131.89,378.139z"/>
<g>
	<path style="fill:#D8AD8F;" d="M509.239,241.619c-4.44,9.148-13.825,15.453-24.683,15.453h-44.112
		c-4.265,0-7.726-3.462-7.726-7.726c0-4.265,3.461-7.726,7.726-7.726L509.239,241.619L509.239,241.619z"/>
	<path style="fill:#D8AD8F;" d="M498.948,299.422c-4.286,9.128-13.557,15.453-24.312,15.453h-34.192
		c-4.265,0-7.726-3.461-7.726-7.726s3.461-7.726,7.726-7.726L498.948,299.422L498.948,299.422z"/>
	<path style="fill:#D8AD8F;" d="M490.789,357.226c-4.141,9.117-13.32,15.453-23.993,15.453h-26.352
		c-4.265,0-7.726-3.462-7.726-7.726c0-4.265,3.461-7.726,7.726-7.726L490.789,357.226L490.789,357.226z"/>
</g>
<g>
</g>
<g>
</g>
<g>
</g>
<g>
</g>
<g>
</g>
<g>
</g>
<g>
</g>
<g>
</g>
<g>
</g>
<g>
</g>
<g>
</g>
<g>
</g>
<g>
</g>
<g>
</g>
<g>
</g>
</svg>
