<?xml version="1.0" encoding="utf-8"?>
<!-- Generator: Adobe Illustrator 24.1.0, SVG Export Plug-In . SVG Version: 6.00 Build 0)  -->
<svg version="1.1" id="Layer_1" xmlns="http://www.w3.org/2000/svg" xmlns:xlink="http://www.w3.org/1999/xlink" x="0px" y="0px"
	 viewBox="0 0 509.3 509.3" style="enable-background:new 0 0 509.3 509.3;" xml:space="preserve">
<style type="text/css">
	.st0{fill:#4C4372;}
	.st1{fill:#FEFEFE;}
	.st2{fill:#A3CEF1;}
	.st3{fill:#FC909D;}
	.st4{fill:#D2E5F7;}
	.st5{fill:#7BAAF0;}
	.st6{fill:#EBEAEF;}
</style>
<path class="st0" d="M255.6,432.9c-70.6,0-141.2,0-211.9,0c-11.1,0-13.2-2.1-13.2-13.4c0-31.6-0.2-63.2,0.2-94.8
	c0.1-6-1.7-7.7-7.4-7.1c-3.6,0.4-7.2,0-10.8,0.1c-3.9,0.1-7.1-1.1-9-4.8c-2-4-0.5-7.3,2.2-10.4c12.7-15,24.6-30.6,38.2-44.7
	c11-11.5,15.4-23.5,14.8-39.6c-1.3-35,0.1-70-0.7-105c-0.6-24,18.1-36.9,37-36.8c108.3,0.5,216.6,0.3,324.9,0.3
	c16.3,0,29.1,9.8,33.1,25.3c1,3.9,0.8,7.9,0.8,11.9c0,40.2,0,80.3-0.1,120.5c0,4,0.9,7.2,3.6,10.3c16.1,18.8,32,37.7,48,56.6
	c2.8,3.3,5.4,6.6,3.4,11.2c-2.1,4.9-6.4,5.2-11,5.3c-5.2,0.2-11.9-2.4-15.3,1.2c-3.1,3.3-0.9,9.8-0.9,14.9c-0.1,28.9,0,57.9,0,86.8
	c0,9.6-2.5,12.2-12.2,12.2C398,432.9,326.8,432.9,255.6,432.9z"/>
<path class="st1" d="M395.3,289.1c-3.6,4.4-7.2,8.8-10.8,13.2c-5.8,7.1-3.8,13.2,5.2,15.6c7.7,0.9,8.1,1.2,8.1,9.1
	c0.1,26.8,0.1,53.6,0,80.4c0,3,0.4,6.2-2.5,8.4c-1.1,0.1-2.3,0.2-3.4,0.2c-94.6,0-189.2,0-283.7,0.1c-4.1,0-5.4-0.8-5.4-5.2
	c0.2-29.3,0.2-58.6,0-87.9c0-4.5,1.4-5.5,5.5-5.2c3.8,0.3,7.6-0.1,11.4,0.1c4.3,0.2,8.1-0.7,10.1-4.8c1.9-4.1,0.3-7.6-2.5-10.9
	c-15.8-18.5-31.3-37.3-47.3-55.7c-3.5-4-4.9-8-4.8-13.3c0.4-20.5,0.3-41.1,0.5-61.6c2-1,4.1-0.5,6.2-0.5c102.4,0,204.7,0,307.1,0
	c8.4,0,9,0.4,9,9.1c0.1,32.7,0,65.4,0,98.2C397.8,282,397,285.6,395.3,289.1z"/>
<path class="st2" d="M395.4,153.3c-2.3,0.1-4.6,0.3-6.8,0.3c-101.6,0-203.2,0-304.8,0c-9.8,0-8.3,1-8.3-8.6
	c-0.1-11.2-0.1-22.5,0-33.7c0-10.6,6.2-17,16.8-17.5c0.8,0,1.5,0,2.3,0c99.1,0,198.3,0,297.4,0c1.1,0,2.3,0.1,3.4,0.2
	c2.3,1.7,2.4,4.1,2.5,6.6c0.1,15.3,0.1,30.7,0,46C397.7,149.1,397.4,151.5,395.4,153.3z"/>
<path class="st3" d="M408.5,300.2c12.1-14.3,23.5-27.8,34.8-41.3c1.6-1.9,2.6-1.5,4,0.2c11.4,13.5,22.8,26.9,34.4,40.7
	c-2.1,1.5-4,0.9-5.8,0.9c-8.5,0.2-11.3,2.8-11.3,11.3c0,31.8,0,63.5,0,95.3c0,1.5-0.1,3,0,4.6c0.2,2.9-0.8,4.1-3.9,4.1
	c-10.3-0.1-20.5-0.2-30.8,0c-4.8,0.1-3.8-3-3.9-5.7c0-31.6,0-63.1,0-94.7c0-12.9-1.4-14.3-14.2-14.8
	C411.1,300.7,410.4,300.5,408.5,300.2z"/>
<path class="st3" d="M102.4,300.4c-16.6,1.5-16.6,1.5-16.6,18.2c0,30.6-0.1,61.2,0.1,91.8c0,4.1-0.9,5.7-5.3,5.5
	c-9.3-0.3-18.6-0.3-27.9,0c-4.3,0.1-5.5-1.2-5.5-5.5c0.2-31.6,0.1-63.1,0.1-94.7c0-13.6-0.9-14.5-14.4-15.1c-0.7,0-1.4-0.2-3-0.5
	c9-10.6,17.5-20.7,26-30.9c2.8-3.3,5.7-6.6,8.5-10c1.5-1.8,2.6-2.4,4.4-0.2c11.1,13.3,22.2,26.5,33.3,39.8
	C102.3,299.1,102.2,299.6,102.4,300.4z"/>
<path class="st4" d="M395.3,289.1c0-36.9-0.1-73.8,0.1-110.7c0-5.6-1.7-7-7.1-7c-101.6,0.1-203.2,0.1-304.8,0.1c-2.7,0-5.3,0-8-0.1
	c1.4-2,3.5-1,5.2-1c116.6,0,233.3,0.1,349.9,0c4.7,0,6.1,1.1,6.1,6c-0.3,19.8-0.1,39.6-0.1,59.4c0,2.5,0.1,4.8-1.7,7
	C421.7,258.1,408.5,273.6,395.3,289.1z"/>
<path class="st5" d="M395.4,153.3c0-19.8-0.1-39.6-0.1-59.4c8-0.1,16-0.3,23.9-0.1c11,0.2,17.2,6.7,17.2,17.6
	c0,12.2-0.1,24.3,0.1,36.5c0.1,4-0.7,5.9-5.3,5.7C419.3,153.3,407.4,153.4,395.4,153.3z"/>
<path class="st4" d="M395.3,415.7c0-30.1-0.1-60.1,0.2-90.2c0-4.7-1.3-7-5.8-7.7c6.2-0.2,14-2.4,18.2,0.9c3.8,3,1.1,11,1.1,16.8
	c0.1,24.8-0.1,49.7,0.2,74.5c0,4.7-1.2,6.5-5.9,5.9C400.6,415.6,397.9,415.8,395.3,415.7z"/>
<path class="st0" d="M308.3,182.6c21.9,1.2,41.2,12.9,51.6,36.8c10.3,23.6,6.9,46.4-10.5,65.3c-15.8,17.1-31.6,34.5-50.4,48.7
	c-4.2,3.2-6.7,8.7-10.5,12.6c-12.6,12.9-25.2,25.9-38.4,38.3c-34.7,32.7-90.8,15.9-101.9-30.4c-4.8-20-0.8-38.8,13.1-53.7
	c16.2-17.3,32.2-35,51.2-49.6c3.9-3,6.2-8.2,9.7-11.8c13-13.3,26.1-26.6,39.6-39.6C273.6,187.9,288,182.6,308.3,182.6z"/>
<path class="st0" d="M157.8,124c0,7-5.6,12.6-12.6,12.6c-6.9,0-12.6-5.8-12.6-12.7c0-6.9,5.8-12.7,12.7-12.7
	C152.2,111.3,157.8,117,157.8,124z"/>
<path class="st0" d="M95.8,124c0-7.1,5.5-12.7,12.5-12.7c6.8,0,12.7,5.9,12.8,12.7c0,6.8-5.8,12.7-12.7,12.7
	C101.3,136.7,95.8,131.1,95.8,124z"/>
<path class="st0" d="M194.6,124.1c0,7.1-5.7,12.7-12.8,12.6c-6.7-0.1-12.4-5.8-12.5-12.4c-0.1-6.8,5.8-12.9,12.7-12.9
	C189,111.2,194.7,117,194.6,124.1z"/>
<path class="st2" d="M243.8,241.1c11.6-11.1,21.6-23.5,34.2-33.1c18.1-13.8,43.6-10.7,59,6.2c15,16.6,15.6,42.3,0.4,58.9
	c-13.2,14.2-26.8,28.1-41.2,41.1c-20.9,18.9-54.9,12.1-67.9-12.7c-1.8-3.4,1.8-10.7,5.3-10.9c1.6-0.1,1.6,1.3,2,2.3
	c9.2,23.6,40.1,29.4,58.2,9.7c11.2-12.2,23.6-23.3,34.9-35.3c17.9-19,8.9-49.9-16.3-56.3c-11.8-3-22.7-0.4-31.8,8.1
	c-5.4,5.1-11,10.1-15.7,15.8C259.4,241.6,253.1,244.4,243.8,241.1z"/>
<path class="st4" d="M267.4,342.3c-10.4,10.6-20.1,21.7-31,31.5c-17.3,15.4-44.3,13.7-60.5-3.1c-16.2-16.8-16.9-43.6-0.9-60.6
	c12.9-13.7,26.2-27.1,40-40c20.7-19.2,55.1-13,68.5,11.8c2,3.6-0.8,10.1-4.8,11.1c-2.4,0.6-2-1.7-2.6-2.8
	c-7.4-15.7-21.9-23.5-38.6-20.7c-7,1.2-12.8,4.8-17.7,9.8c-12.3,12.2-24.6,24.4-36.5,37c-13.1,13.8-12.7,34.6,0.7,47.8
	c13.1,12.9,33.8,13.1,47.4,0.4c5.6-5.2,11.4-10.3,16.1-16.2C253,341.5,259.4,339.8,267.4,342.3z"/>
<path class="st1" d="M303.6,226.8c7.6,0.4,13,3.6,15.9,10.1c2.9,6.4,2.2,12.8-2.5,18.1c-5.2,5.8-10.9,11.1-16.3,16.7
	c-1.6,1.7-2.5,1.6-3.8-0.4c-5.1-8.4-11.9-15.2-20.4-20.3c-1.2-0.7-2.4-1.5-0.8-2.9c6.6-6.2,12.3-13.5,19.8-18.8
	C298,227.2,301.1,227.1,303.6,226.8z"/>
<path class="st1" d="M237.6,334.3c-6.4,6.5-12.2,12.8-18.5,18.6c-6.7,6.1-17.1,5.4-23.3-0.9c-6.4-6.5-6.9-16.3-0.7-23.2
	c5.1-5.7,10.7-10.8,16-16.3c1.8-1.9,2.8-1.7,4.2,0.5C220.6,321.9,228.2,328.8,237.6,334.3z"/>
<path class="st6" d="M258.8,295c-3.3-1.6-4.8-3.4-5.7-5.9C255.5,289.9,257.4,291.3,258.8,295z"/>
</svg>
