<?xml version="1.0" encoding="iso-8859-1"?>
<!-- Generator: Adobe Illustrator 19.0.0, SVG Export Plug-In . SVG Version: 6.00 Build 0)  -->
<svg version="1.1" id="Capa_1" xmlns="http://www.w3.org/2000/svg" xmlns:xlink="http://www.w3.org/1999/xlink" x="0px" y="0px"
	 viewBox="0 0 512 512" style="enable-background:new 0 0 512 512;" xml:space="preserve">
<path style="fill:#FF5A51;" d="M196,436H76V315c0-2.209,1.791-4,4-4h112c2.209,0,4,1.791,4,4V436z"/>
<path style="fill:#FFBD2A;" d="M436,436H316V255c0-2.209,1.791-4,4-4h112c2.209,0,4,1.791,4,4V436z"/>
<path style="fill:#BEC950;" d="M316,436H196V205c0-2.209,1.791-4,4-4h112c2.209,0,4,1.791,4,4V436z"/>
<path style="fill:#E75955;" d="M196,436h-30V311h26c2.209,0,4,1.791,4,4V436z"/>
<path style="fill:#FF993B;" d="M436,436h-30V251h26c2.209,0,4,1.791,4,4V436z"/>
<path style="fill:#58C357;" d="M316,436h-30V201h26c2.209,0,4,1.791,4,4V436z"/>
<g>
	<path style="fill:#FF993B;" d="M256,130.75c-4.142,0-7.5,3.357-7.5,7.5v35.5c0,4.143,3.358,7.5,7.5,7.5s7.5-3.357,7.5-7.5v-35.5
		C263.5,134.107,260.142,130.75,256,130.75z"/>
	<path style="fill:#FF993B;" d="M249.896,72c0-4.143-3.358-7.5-7.5-7.5h-25.661c-16.12,0-29.234,13.114-29.234,29.234v3.473
		c0,20.563,16.729,37.293,37.292,37.293h17.603c4.142,0,7.5-3.357,7.5-7.5V72z M234.896,119.5h-10.103
		c-12.292,0-22.292-10.001-22.292-22.293v-3.473c0-7.849,6.386-14.234,14.234-14.234h18.161V119.5z"/>
	<path style="fill:#FF993B;" d="M295.266,64.5h-25.661c-4.142,0-7.5,3.357-7.5,7.5v55c0,4.143,3.358,7.5,7.5,7.5h17.603
		c20.563,0,37.292-16.729,37.292-37.293v-3.473C324.5,77.614,311.386,64.5,295.266,64.5z M309.5,97.207
		c0,12.292-10,22.293-22.292,22.293h-10.103v-40h18.161c7.849,0,14.234,6.386,14.234,14.234L309.5,97.207L309.5,97.207z"/>
</g>
<path style="fill:#FFD681;" d="M286,201h-60c-5.523,0-10-4.477-10-10v-4c0-8.837,7.163-16,16-16h48c8.837,0,16,7.163,16,16v4
	C296,196.523,291.523,201,286,201z"/>
<path style="fill:#FFBD2A;" d="M280,171h-30c8.837,0,16,7.164,16,16v4c0,5.523-4.477,10-10,10h30c5.523,0,10-4.477,10-10v-4
	C296,178.164,288.837,171,280,171z"/>
<path style="fill:#FFD681;" d="M256,141L256,141c-18.225,0-33-14.775-33-33V64c0-1.657,1.343-3,3-3h60c1.657,0,3,1.343,3,3v44
	C289,126.225,274.225,141,256,141z"/>
<path style="fill:#FFBD2A;" d="M259,61v47c0,12.822-7.318,23.928-18,29.391c4.502,2.302,9.597,3.609,15,3.609l0,0
	c18.225,0,33-14.775,33-33V64c0-1.657-1.343-3-3-3H259z"/>
<path style="fill:#444455;" d="M497,451H15c-8.284,0-15-6.716-15-15l0,0c0-8.284,6.716-15,15-15h482c8.284,0,15,6.716,15,15l0,0
	C512,444.284,505.284,451,497,451z"/>
<path style="fill:#30303A;" d="M497,421h-30c8.284,0,15,6.716,15,15s-6.716,15-15,15h30c8.284,0,15-6.716,15-15S505.284,421,497,421
	z"/>
<g>
</g>
<g>
</g>
<g>
</g>
<g>
</g>
<g>
</g>
<g>
</g>
<g>
</g>
<g>
</g>
<g>
</g>
<g>
</g>
<g>
</g>
<g>
</g>
<g>
</g>
<g>
</g>
<g>
</g>
</svg>
