<?xml version="1.0" encoding="utf-8"?>
<!-- Generator: Adobe Illustrator 24.1.0, SVG Export Plug-In . SVG Version: 6.00 Build 0)  -->
<svg version="1.1" id="Layer_1" xmlns="http://www.w3.org/2000/svg" xmlns:xlink="http://www.w3.org/1999/xlink" x="0px" y="0px"
	 viewBox="0 0 165.2 164.4" style="enable-background:new 0 0 165.2 164.4;" xml:space="preserve">
<style type="text/css">
	.st0{fill:#FFA056;}
</style>
<g>
	<path class="st0" d="M164.4,142.8c0-11.8-9.5-21.3-21.3-21.3c-11.8,0-21.3,9.5-21.3,21.3c0,11.8,9.5,21.3,21.3,21.3
		c11.7,0.1,21.2-9.3,21.3-21C164.4,143,164.4,142.9,164.4,142.8z"/>
	<path class="st0" d="M143,43.4c-11.7,0.1-21.2-9.3-21.3-21c0-0.1,0-0.2,0-0.3c0-11.8,9.6-21.3,21.3-21.2c11.7,0,21.2,9.5,21.2,21.2
		c0.1,11.7-9.3,21.2-21,21.3C143.2,43.4,143.1,43.4,143,43.4z"/>
	<path class="st0" d="M104.1,142.8c0.1,11.8-9.4,21.4-21.1,21.5s-21.4-9.4-21.5-21.1c0-0.1,0-0.2,0-0.3c0-21.6-17.5-39-39.1-39.1
		C10.7,103.8,1.1,94.4,1,82.6s9.4-21.4,21.1-21.5c0.1,0,0.2,0,0.3,0c21.6,0,39-17.5,39.1-39.1c0-11.8,9.5-21.3,21.3-21.3
		s21.3,9.5,21.3,21.3s-9.5,21.3-21.3,21.3c-21.6,0-39,17.5-39,39.1c0,21.5,17.5,39,39,39C94.5,121.6,104,131.1,104.1,142.8z"/>
</g>
</svg>
