<?xml version="1.0" encoding="utf-8"?>
<!-- Generator: Adobe Illustrator 24.1.0, SVG Export Plug-In . SVG Version: 6.00 Build 0)  -->
<svg version="1.1" id="Layer_1" xmlns="http://www.w3.org/2000/svg" xmlns:xlink="http://www.w3.org/1999/xlink" x="0px" y="0px"
	 viewBox="0 0 2500 2497.3" style="enable-background:new 0 0 2500 2497.3;" xml:space="preserve">
<style type="text/css">
	.st0{fill:#FD5201;}
</style>
<path class="st0" d="M1726.1,475.3c-16.1,43.8-32.3,87.6-48.2,131.4c-89.5,245.9-180,491.4-267.9,737.8
	c-29.5,82.6-66.4,128.8-194.5,117c-69.8-6.4-111-48.1-134.7-110.5c-56.3-148-112.2-296.1-168.3-444.2
	C867.5,787.9,822.4,668.9,777.3,550c-0.9-2.3-2.4-4.3-6.5-11.2c0,10.4,0,15.9,0,21.4c0,265.4,0,530.7-0.1,796.1
	c0,13.9,0,27.7-3.6,41.4c-11.5,44.2-38.3,71.8-83.8,79.7c-35.6,6.2-71.3,6.7-106.7-1.3c-55.3-12.4-77.3-38.4-80.8-95.1
	c-0.5-8.6-0.6-17.2-0.6-25.9c0-393.4,0-786.8-0.1-1180.2c0-45.4,11.4-85.8,50.3-113.1c32.9-23.1,71.4-31.1,110.7-34.8
	c33.8-3.2,67.6-1.9,101.1,4c70.1,12.4,114.9,54.8,138,120.4c85.9,243.7,171.1,487.6,256.5,731.4c30.5,86.9,60.9,173.8,91.5,260.7
	c2.1,5.9,4.6,11.6,8.7,21.9c17.6-51.9,33.7-99.2,49.7-146.6c94.5-279.9,190.5-559.3,282.7-840c30.7-93.5,89.4-143.6,186.7-150.9
	c54.7-4.1,108.6-3.9,160.5,17.2c49.1,20,73.3,56.2,73.2,109.4c-0.1,402,0,804.1-0.2,1206.1c0,68.4-38.6,109.4-106.5,114.1
	c-21.1,1.4-42.5,1.5-63.6-0.1c-64.7-4.9-101.2-43-104.9-107.8c-0.5-9.3-0.3-18.6-0.3-27.9c0-281.3,0-562.6,0-843.9
	c0-6.4,0-12.8,0-19.2C1728.3,475.7,1727.2,475.5,1726.1,475.3z"/>
<path class="st0" d="M695,2219.7c-56.4,0-112.9,1.9-169.1-0.4c-199.8-8.2-347-102.7-443.3-276.6c-35.7-64.6-16.3-127.4,46.8-165.8
	c17.6-10.7,36.3-19.2,55.9-25.6c62.6-20.5,106.8-3.7,138.7,54.3c16.4,29.9,34.6,58.1,61,80.2c41.5,34.8,89.2,55.2,143.6,55.8
	c106.1,1.1,212.3,3,318.4,0.5c150.4-3.6,281.9,40.7,392.1,144.3c8.8,8.3,12.9,3.9,19.2-2c82-76.4,178.5-122.5,289.6-137.7
	c25.7-3.5,51.6-4,77.4-4c105.5-0.1,211-1.2,316.4,0.3c106.6,1.5,184.2-43.4,234.9-137.1c31.9-59,76.7-75.2,140.5-53.9
	c18.3,6.1,35.8,14.1,52.3,23.9c65.2,38.7,83.2,101.5,48.2,168.8c-44.9,86.3-109.3,154.2-193.3,203.4c-83.2,48.7-173.1,72.2-269.4,72
	c-110.8-0.2-221.6-0.1-332.4,0c-114.9,0.1-205.3,67.3-238.5,177.3c-10.6,35.2-35.9,55-69.4,65c-44.3,13.2-89.2,13-133.2-1.1
	c-34.2-10.9-56.8-33.1-66.8-69.6c-27.2-98.9-122.7-170.5-226.7-171.5c-64.3-0.6-128.7-0.1-193-0.1C695,2219.9,695,2219.8,695,2219.7
	z"/>
</svg>
