<?xml version="1.0" encoding="utf-8"?>
<!-- Generator: Adobe Illustrator 24.1.0, SVG Export Plug-In . SVG Version: 6.00 Build 0)  -->
<svg version="1.1" id="Layer_1" xmlns="http://www.w3.org/2000/svg" xmlns:xlink="http://www.w3.org/1999/xlink" x="0px" y="0px"
	 viewBox="0 0 2500 2497.3" style="enable-background:new 0 0 2500 2497.3;" xml:space="preserve">
<style type="text/css">
	.st0{fill:url(#SVGID_1_);}
	.st1{fill:#FEFEFE;}
</style>
<linearGradient id="SVGID_1_" gradientUnits="userSpaceOnUse" x1="15" y1="1264.5499" x2="2489.2632" y2="1264.5499">
	<stop  offset="0" style="stop-color:#00C4ED"/>
	<stop  offset="1" style="stop-color:#003499"/>
</linearGradient>
<path class="st0" d="M1252,2391.5c-346.4,0-692.9-0.2-1039.3,0.2c-63.3,0.1-117.5-18.3-159.2-68.6c-22.3-26.9-33.9-57.4-37.3-91.5
	c-1.5-14.7-1.1-29.5-1.1-44.3c0-643.2-0.1-1286.4,0-1929.6c0-23.1-2.1-46.7,9-68.3c27.9-54.1,105.9-70,151.7-27.9
	c60.7,55.7,118.9,114.1,178,171.6c118.8,115.4,237.4,231,356.3,346.4c92.1,89.4,184.4,178.4,276.5,267.7
	c78.7,76.2,157.3,152.5,235.8,228.8c13.1,12.8,23.4,16.3,39.4,0.7c135.4-131.7,271.9-262.3,407.9-393.4
	c91-87.7,181.5-175.9,272.4-263.7c120.9-116.7,241.9-233.2,363.1-349.6c36.8-35.3,80.5-41.1,125.4-20.8
	c40.9,18.5,58.5,52.7,58.5,98.9c-0.6,651.7-0.2,1303.3-0.6,1955c-0.1,114.9-74.7,188.2-191,188.3
	C1949.1,2391.7,1600.6,2391.5,1252,2391.5z"/>
<path class="st1" d="M2393.5,588.1c0,56-0.8,112,0.4,167.9c0.4,19.6-6.3,31.8-20.4,45.8c-99.7,99.4-197.5,200.5-296.5,300.6
	c-119.4,120.8-239,241.4-359.2,361.5c-110.5,110.3-222.4,219.3-340.2,321.8c-32.3,28.1-67.5,53.7-111.7,61.4
	c-78.1,13.5-132-29.2-182.7-78.9c-135.1-132.5-270.9-264.3-404.3-398.5c-50.5-50.8-104.4-98.3-150.4-153.8
	c-50.4-60.8-64.5-150.7-30.4-218.3c33.6-66.6,115.4-109.9,193.8-105.3c55.3,3.3,96,32.2,133.6,68.7
	c132.7,128.6,265.5,256.9,398,385.6c13.2,12.8,20.2,19.3,38.3,1.3c119.9-119.4,241.7-236.9,363.2-354.7
	c152.3-147.6,304.6-295.1,457.4-442.2c66.3-63.8,133.8-126.2,200.7-189.3c22-20.7,48.3-21.8,73.5-11.4c25,10.4,37.3,31.9,37,60.4
	C2393.1,469.8,2393.5,528.9,2393.5,588.1z"/>
</svg>
