<?xml version="1.0" encoding="utf-8"?>
<!-- Generator: Adobe Illustrator 24.1.0, SVG Export Plug-In . SVG Version: 6.00 Build 0)  -->
<svg version="1.1" id="Layer_1" xmlns="http://www.w3.org/2000/svg" xmlns:xlink="http://www.w3.org/1999/xlink" x="0px" y="0px"
	 viewBox="0 0 1133.9 1133.9" style="enable-background:new 0 0 1133.9 1133.9;" xml:space="preserve">
<style type="text/css">
	.st0{fill:#10AA50;}
	.st1{fill:#B8C4C2;}
	.st2{fill:#12924F;}
</style>
<g>
	<path class="st0" d="M797.4,451C737.5,186.9,612.7,116.6,580.9,66.9C567.8,45,556.2,22.2,546.1-1.3c-1.7,23.5-4.8,38.2-24.7,56
		c-40,35.7-210.1,174.3-224.4,474.4c-13.3,279.8,205.7,452.3,234.6,470.1c22.2,10.9,49.3,0.2,62.6-9.8
		C699.7,917,844,723.8,797.5,451"/>
	<path class="st1" d="M555.2,850.3c-5.5,69.3-9.5,109.5-23.5,149.1c0,0,9.2,65.9,15.6,135.8h22.8c5.4-49.2,13.8-98,24.9-146.2
		C565.5,974.4,556.3,911.1,555.2,850.3z"/>
	<path class="st2" d="M595.1,988.9L595.1,988.9c-29.9-13.8-38.5-78.4-39.8-138.7c7.4-99.3,9.5-199,6.5-298.6
		c-1.6-52.2,0.7-483.9-12.9-547.1c9.3,21.4,20,42.2,32.1,62.1c31.8,49.7,156.6,120,216.5,384.2C844,723.4,700.5,916,595.1,988.9z"/>
</g>
</svg>
