<?xml version="1.0" encoding="utf-8"?>
<!-- Generator: Adobe Illustrator 24.1.0, SVG Export Plug-In . SVG Version: 6.00 Build 0)  -->
<svg version="1.1"
	 id="balsamiq-logo-print" inkscape:version="0.92.3 (2405546, 2018-03-11)" sodipodi:docname="balsamiq-ar21.svg" xmlns:cc="http://creativecommons.org/ns#" xmlns:dc="http://purl.org/dc/elements/1.1/" xmlns:inkscape="http://www.inkscape.org/namespaces/inkscape" xmlns:rdf="http://www.w3.org/1999/02/22-rdf-syntax-ns#" xmlns:sodipodi="http://sodipodi.sourceforge.net/DTD/sodipodi-0.dtd" xmlns:svg="http://www.w3.org/2000/svg"
	 xmlns="http://www.w3.org/2000/svg" xmlns:xlink="http://www.w3.org/1999/xlink" x="0px" y="0px" viewBox="0 0 113.4 113.4"
	 style="enable-background:new 0 0 113.4 113.4;" xml:space="preserve">
<style type="text/css">
	.st0{fill-rule:evenodd;clip-rule:evenodd;fill:#CF0A2C;}
	.st1{fill:#FEFEFE;}
</style>
<path class="st0" d="M104.3,111H10.1c-4.1,0-7.5-3.4-7.5-7.5V9.3c0-4.1,3.4-7.5,7.5-7.5h94.3c4.1,0,7.5,3.4,7.5,7.5v94.3
	C111.8,107.7,108.5,111,104.3,111z"/>
<g>
	<path class="st1" d="M18.3,45.7c0.9-4,1.7-7.3,2.4-10.6c0.2-0.8,0.4-1.4,1.2-1.8c4.6-2.5,9.3-3.9,14.5-2.5c3.5,0.9,6.3,2.8,7.6,6.6
		c1.6-1.4,3-2.7,4.7-3.8c3.4-2.1,7-3.3,11-3.3c5,0,7.8,2.1,9.6,7.4c2.6-3,5.6-5.2,9.4-6.4c4-1.2,7.9-1.6,11.7,0.4
		c3.8,2,5.6,5.8,4.8,10.6c-1.4,7.6-3,15.2-4.5,22.9c-0.2,1-0.4,2-0.5,3c-0.4,2.9,0.9,4.1,3.8,3.6c0.7-0.1,1.3-0.3,2.3-0.6
		c-0.7,3.2-1.4,6.3-2.1,9.3c-0.1,0.5-0.5,0.6-0.9,0.7c-3.3,1.3-6.7,1.9-10.2,1.2c-5.4-1.1-8-5.4-7.2-11.7c0.8-6.3,2.7-12.4,3.8-18.6
		c0.4-2.4,0.9-4.7,1.3-7c0.5-3.1-0.8-4.4-4-3.8c-4,0.7-8.6,5.2-9.4,9.3c-2,9.7-4.1,19.5-6.1,29.2c-0.3,1.3-0.8,1.8-2.1,1.7
		c-2.8-0.1-5.6-0.1-8.4,0c-1.9,0.1-1.9-0.6-1.6-2.1c2.2-10.5,4.4-20.9,6.6-31.4c0.3-1.3,0.5-2.6,0.5-3.8c0.1-2-0.8-2.9-2.8-3
		c-1.1,0-2.2,0.1-3.2,0.7c-3.8,2.3-7.2,4.8-8.1,9.6c-1.8,9.4-4,18.8-5.9,28.2c-0.3,1.5-0.8,1.9-2.3,1.8c-3.1-0.1-6.3-0.1-9.4,0
		c-1.2,0-1.5-0.2-1.2-1.5c2.2-10.1,4.3-20.1,6.5-30.2c0.4-1.9,0.8-3.9,0.7-5.9c-0.1-2.9-1.7-4.1-4.6-3.6
		C22.9,40.9,20.7,42.9,18.3,45.7z"/>
</g>
</svg>
