<?xml version="1.0" encoding="utf-8"?>
<!-- Generator: Adobe Illustrator 24.1.0, SVG Export Plug-In . SVG Version: 6.00 Build 0)  -->
<svg version="1.1" id="Layer_1" xmlns="http://www.w3.org/2000/svg" xmlns:xlink="http://www.w3.org/1999/xlink" x="0px" y="0px"
	 viewBox="0 0 850.4 850.4" style="enable-background:new 0 0 850.4 850.4;" xml:space="preserve">
<style type="text/css">
	.st0{fill:url(#SVGID_1_);}
	.st1{fill:url(#SVGID_2_);}
	.st2{fill:url(#SVGID_3_);}
</style>
<g transform="matrix(.569 0 0 .569 199.451 -82.735)">
	
		<linearGradient id="SVGID_1_" gradientUnits="userSpaceOnUse" x1="-19446.4063" y1="-9139.5156" x2="-18928.3574" y2="-9445.6221" gradientTransform="matrix(0.1187 0 0 0.1187 2249.4023 2575.8589)">
		<stop  offset="0" style="stop-color:#909CA9"/>
		<stop  offset="1" style="stop-color:#EDEDEE"/>
	</linearGradient>
	<path class="st0" d="M576.6,842.3l-299,97.6L17.5,1054.7l-72.8,19.2c-18.5,17.6-38,35.5-59,53.6c-23,19.9-44.5,38-61,51.1
		c-18.3,14.5-45.4,41.6-59.2,58.8c-20.6,25.8-36.8,53.1-43.8,74.1c-12.4,38-6.3,76.4,17.6,111.9c30.7,45.2,92,91.3,163.4,122.7
		c36.4,16,97.6,36.6,143.7,48.1c76.6,19.4,224.8,40.5,306.4,43.6c16.5,0.7,38.6,0.7,39.5,0c1.8-1.1,14.5-25.3,29.2-55.4
		c50.2-102.4,86.3-198.4,106-280.4c11.8-49.7,21-115.9,27.1-194.3c1.6-21.9,2.3-95.4,0.9-120.2c-2-40.7-5.7-73.7-11.3-106
		c-0.9-4.7-1.1-9-0.7-9.3c0.9-0.7,3.6-1.6,40.4-12.2L576.6,842.3L576.6,842.3L576.6,842.3L576.6,842.3z M508.3,882.3
		c2.7,0,9.9,69.4,11.7,113.2c0.5,9.3,0.2,15.4-0.2,15.4c-1.8,0-38.2-21.5-64.2-37.7c-22.6-14.2-65.5-42.7-72.3-48.1
		c-2.3-1.6-2-1.8,16.5-8.1C431.3,906.3,505.8,882.3,508.3,882.3z M356,932.5c2,0,7.2,2.9,19.7,10.6c46.5,29.2,109.8,64.4,136.9,76.2
		c8.4,3.6,9.3,2.3-9.9,15.4c-41.1,28-92.4,55.6-155.2,83.4c-11.1,5-20.3,8.8-20.6,8.8c-0.5,0,0.9-5.6,2.7-12.4
		c15.1-56.3,23.7-113.2,24.2-158.9c0.2-22.6,0.2-22.6,2.3-23.3C355.6,932.5,355.8,932.5,356,932.5L356,932.5z M324.6,944.5
		c1.4,1.4,0.5,52-1.4,65.8c-4.1,33-10.4,63.7-20.8,98.3c-2.5,8.4-4.7,15.4-5.2,15.8c-0.9,1.1-31.9-29.2-42-40.9
		c-17.6-20.3-31.4-40.7-41.6-60.6c-5.2-10.2-13.3-30.1-12.7-30.7C204.6,989.7,323.7,943.6,324.6,944.5L324.6,944.5z M176.8,1002.5
		c0.2,0,0.5,0,0.7,0.2c0.5,0.5,2,4.1,3.4,8.1c7.2,19.7,23.5,48.6,37.5,67.1c15.4,20.3,35.5,42,52.2,56.3c5.4,4.5,10.4,8.8,11.1,9.5
		c1.4,1.4,1.8,1.1-35,15.1c-42.7,16.3-89.3,32.5-142.6,49.7c-12.7,4.1-25.5,8.3-38.2,12.4c-2,0.7-1.4-0.5,4.5-9.7
		c26.4-41.4,66.7-122.5,89.3-179.9c3.8-9.9,7.7-19.9,8.4-22.1c0.9-3.2,2-4.3,5-5.9C174.6,1003,176.1,1002.5,176.8,1002.5
		L176.8,1002.5z M131.6,1021.3c0.7,0.5-10.8,24.6-22.1,46.8c-21.9,42.7-45.9,84.7-78,135.8c-5.4,8.8-10.6,16.9-11.3,17.9
		c-1.1,1.6-1.6,1.1-5.2-5.9c-7.7-15.1-14-34.6-17.4-52.4c-3.4-17.6-2.7-48.4,1.1-67.3c2.9-14,2.7-13.8,9.5-17.2
		C37.2,1064.2,130.7,1020.4,131.6,1021.3L131.6,1021.3z M521.4,1037.1v9.5c0,50.4-5.4,119.5-13.3,169.9c-1.4,8.8-2.5,16-2.7,16.3
		c0,0-6.6-1.8-14.2-4.1c-33.9-10.6-70.7-26.2-103.9-44.5c-21.9-12-53.8-31.6-52.9-32.5c0.2-0.2,9.7-5.2,20.8-11.1
		c44.3-23,86.8-47.9,123.6-72.5c13.8-9.3,34.6-24.2,39.1-28.2L521.4,1037.1L521.4,1037.1z M-39,1104c0.9,0,0.7,1.8-0.7,9.9
		c-0.9,5.9-2,16.7-2.5,24.2c-1.8,33,3.6,57.4,19.9,90.8c4.5,9.3,8.1,16.9,7.9,17.2c-1.6,1.4-151.2,45.2-198.2,58.1
		c-14,3.8-26.2,7.2-27.1,7.5c-1.6,0.5-1.8,0.2-1.1-3.6c5.2-33.2,30.5-76.6,65.8-113.2c23.5-24.4,42.3-38.6,74.3-56.9
		c23-13.1,58.5-32.8,61.2-33.7C-39.4,1104-39.2,1104-39,1104L-39,1104z M313.5,1167c0.2-0.2,5.6,2.7,12.2,6.6
		c48.4,28,115.7,54,173.1,67.3l5.2,1.1l-7.2,4.1c-30.1,16.7-128.8,57.8-229.8,95.6c-14.7,5.4-29.2,10.8-31.9,12
		c-2.7,1.1-5.2,1.8-5.2,1.6c0-0.2,4.1-8.1,9.3-17.9c28.2-52.9,56.7-117.3,71.2-162C312.2,1171.1,313.3,1167.3,313.5,1167L313.5,1167
		z M277.6,1178.8c0.2,0.2-1.6,5-3.8,10.4c-19.7,47.7-45.4,99.7-78.4,158c-8.4,14.9-15.4,26.9-15.6,26.9c-0.2,0-7-4.1-15.1-9
		c-47.9-29.4-90.4-65.5-118.2-100.6l-4.1-5l20.6-5.7c73.7-20.1,136.3-41.8,198.4-68.5C270.1,1181.7,277.4,1178.8,277.6,1178.8z
		 M500.9,1256.7C500.9,1256.7,501.1,1257,500.9,1256.7c0.2,5.2-11.3,51.7-20.8,85.4c-7.9,28.2-14.7,50.4-27.1,89.5
		c-5.4,17.2-10.2,31.4-10.4,31.4c-0.2,0-1.6-0.2-2.9-0.7c-67.1-12.2-127.2-29.2-183.7-51.7c-15.8-6.3-38.4-16.5-39.8-17.6
		c-0.5-0.5,13.1-6.8,30.3-14.2c102.8-45,209.5-96,246.1-118C496.8,1258.1,500.2,1256.7,500.9,1256.7L500.9,1256.7z M-14.6,1274.4
		c0.5,0.5-28.2,41.8-68.5,98.1c-14,19.7-30.3,42.7-36.4,51.3c-6.1,8.6-15.4,22.1-20.6,30.3l-9.5,14.7l-10.2-8.6
		c-12-9.9-32.8-31.2-42-42.9c-19.4-24.2-32.5-49.7-37.7-73c-2.5-10.8-2.5-16.3-0.2-16.9c3.4-0.9,63.7-15.1,120.2-28.2
		c31.4-7.2,67.8-15.8,80.9-19C-25.4,1276.9-14.8,1274.4-14.6,1274.4L-14.6,1274.4z M14.3,1285.4l7.2,8.1
		c32.5,36.4,65.8,63.3,106,86.8c7.2,4.1,12.7,7.7,12.2,7.9c-1.6,1.1-139.7,50.2-203.6,72.3c-35.9,12.7-65.5,22.8-65.8,22.8
		c-0.2,0-2.3-1.4-4.5-2.9l-4.1-2.9l6.6-9.5c21.2-30.7,47.9-64.4,106-134.5L14.3,1285.4L14.3,1285.4z M194.7,1414.5
		c0.2-0.2,10.2,3.4,22.4,7.9c29.4,11.1,52.7,18.1,83.8,26c38.4,9.7,94,19.2,126.8,21.9c5,0.5,7.7,0.9,6.8,1.6
		c-1.6,0.9-34.8,12-59.2,19.7c-38.9,12.2-157.5,47.2-254.2,75c-17.9,5.2-33.2,9.5-34.1,9.7c-2.3,0.5-9.7-1.6-9.7-2.5
		c0-0.4,5.4-7.5,12-15.1c32.5-38.9,64.9-82.3,91.7-123.4C188.3,1424,194.7,1414.7,194.7,1414.5L194.7,1414.5z M154.9,1415.6
		c0.2,0.2-15.8,26-43.8,70.3c-12,18.8-25.3,40-30.1,47.5c-4.5,7.2-11.3,18.5-15.1,24.9l-6.6,11.5l-3.4-0.9
		c-8.1-2.3-65.3-22.4-80.4-28.5c-18.8-7.5-38.2-16.5-52.7-24.2c-18.1-9.7-40.7-24.2-38.9-24.6c0.5-0.2,31.4-8.6,68.7-18.8
		c99-26.9,153.9-42.5,189.8-53.8C149,1417,154.7,1415.4,154.9,1415.6L154.9,1415.6z M436.2,1481.6h0.2c0.9,2.3-35.7,103.9-49,136
		c-2.9,7.2-4.1,9-5.6,8.8c-3.8-0.2-56.9-7.7-89.3-12.4c-56.3-8.6-150.7-25.1-174.4-30.5l-5.4-1.1l33.7-7.7
		c72.3-16.3,107.1-25.1,142.4-35.9c44.5-13.6,88.6-30.5,133.1-51.3C428.8,1484.3,434.6,1481.8,436.2,1481.6L436.2,1481.6z"/>
	
		<linearGradient id="SVGID_2_" gradientUnits="userSpaceOnUse" x1="-19425.9707" y1="-19278.7832" x2="-19009.1348" y2="-19278.7832" gradientTransform="matrix(0.1187 0 0 0.1187 2249.4023 2575.8589)">
		<stop  offset="0" style="stop-color:#939FAB"/>
		<stop  offset="1" style="stop-color:#DCDEE1"/>
	</linearGradient>
	<path class="st1" d="M268.3,145.4c-5-0.7-85.2,28.2-136.9,49.3C61.6,223.2,7.3,250.3-26.1,273.8c-12.4,8.8-28,24.4-30.5,30.5
		c-0.9,2.3-1.4,5-1.4,7.7l30.3,28.7l72.1,23l171.5,30.7l196.1,33.7l2-16.9c-0.7,0-1.1-0.2-1.8-0.2l-25.8-4.1l-5.2-9.3
		c-26.7-47-56-105.3-73.2-144.6c-13.3-30.5-26-65.8-33-91.1C271.3,146.5,270.8,145.6,268.3,145.4L268.3,145.4L268.3,145.4
		L268.3,145.4z M264.7,156.9h0.2c0.2,0.2,1.1,6.6,2,14c3.8,31.6,10.8,62.1,21.9,95.1c8.4,24.9,8.4,23.5-1.4,20.6
		c-23-6.3-126.3-24.2-201.1-34.6c-12-1.6-22.1-3.2-22.1-3.4c-0.9-0.9,54-29.6,78.2-40.9C173.4,193.5,258.4,158.1,264.7,156.9
		L264.7,156.9z M46.9,258.2l8.8,2.9c47.9,16.3,168.3,39.3,234.8,44.7c7.5,0.7,13.8,1.4,14,1.4c0.2,0.2-6.1,3.6-14.2,7.5
		c-32.1,16-67.3,35.7-91.7,50.8c-7.2,4.5-13.8,8.1-14.7,8.1c-0.9,0-5.6-0.9-10.6-1.6l-9-1.4l-22.6-22.1
		c-39.8-38.6-71-68.5-82.9-79.8L46.9,258.2z M37.8,265.2L69.7,305c17.4,21.9,35,43.4,38.9,48.1c3.8,4.7,7,8.6,6.8,8.8
		c-0.9,0.7-46.1-8.1-70.1-13.6c-24.6-5.7-34.8-8.4-49.9-13.1l-12.4-4.1V328c0.2-15.1,19.4-37.7,52-60.8L37.8,265.2L37.8,265.2z
		 M308.6,319.4c0.9,0,2,2,4.7,8.1c7.7,16.9,31.6,62.6,37.5,71.4c1.8,2.9,5,3.2-26.9-2c-76.6-12.4-101.2-16.5-101.2-16.9
		c0-0.2,2.3-1.8,5.2-3.4c23.7-13.1,47.7-29.8,68.9-47.7c5.2-4.3,9.9-8.4,10.8-9C307.9,319.4,308.3,319.2,308.6,319.4L308.6,319.4z"
		/>
	
		<radialGradient id="SVGID_3_" cx="-7987.3477" cy="-10227.7832" r="553.4289" gradientTransform="matrix(-0.114 -1.712736e-02 3.463960e-02 -0.228 -174.704 -1783.933)" gradientUnits="userSpaceOnUse">
		<stop  offset="0" style="stop-color:#EE352C"/>
		<stop  offset="1" style="stop-color:#A91D22"/>
	</radialGradient>
	<path class="st2" d="M-55,301.1c0,0-5,7.9-0.2,19.7c2.9,7.2,11.5,16,21.2,25.1c0,0,100.6,98.1,112.8,112.1
		c55.6,64.2,79.8,127.4,82,214.7c1.4,56-9.3,105.3-35.7,162.5c-47,102.6-146.2,215.8-299.2,341.4l22.4-7.5
		c14.5-10.8,34.1-22.4,80.2-47.7c106.4-58.3,226.2-111.9,373.1-167c211.5-79.5,559.3-172.6,757.2-202.9l20.6-3.2l-3.2-5
		c-18.1-28-30.5-45.4-45.4-63.9c-43.4-53.8-96-97.4-160.4-133.5c-88.6-49.5-203.2-88.1-348.2-116.8c-27.3-5.4-87.5-15.8-136.3-23.3
		c-103.5-16-170.4-27.1-244-39.8c-26.4-4.5-66-11.3-92.2-16.9c-13.6-2.9-39.5-9-59.9-16C-26.6,326.6-50.1,320.3-55,301.1L-55,301.1z
		 M3.3,357.6c0.2-0.2,3.8,1.1,8.6,2.7c8.6,2.9,19.7,6.3,32.8,9.9c9.9,2.7,19.9,5.4,29.8,7.9c13.6,3.4,24.9,6.6,25.1,6.6
		c1.6,1.6,24.4,74.6,32.1,102.6c2.9,10.6,5.2,19.7,5,19.7c-0.2,0.2-2.7-3.6-5.7-8.8c-26.4-46.6-68.2-93.8-116.6-131.7
		C8,361.9,3.3,357.8,3.3,357.6L3.3,357.6z M114.4,388.3c1.1,0,6.1,0.7,12.2,2C165.1,399,234,412.1,278,419.5
		c7.5,1.1,13.3,2.5,13.3,2.9c0,0.5-2.7,2-6.1,3.8c-7.5,3.8-37.5,21.7-47.5,28.5c-25.1,16.7-47.7,34.8-64,51.1
		c-6.6,6.6-12.2,12-12.2,12s-1.4-3.8-2.5-8.6c-8.1-31.4-25.1-78-40.4-110.7c-2.5-5.2-4.5-9.9-4.5-10.4
		C114.2,388.6,114.2,388.3,114.4,388.3L114.4,388.3z M310.1,425.6c1.4,0.5,3.6,8.1,8.1,25.1c8.4,32.8,12.2,69.4,10.8,103.5
		c-0.5,9.5-0.9,18.3-1.4,19.4l-0.7,2.3l-11.8-3.8c-24.2-7.7-63.5-19.2-97.2-28.7c-19.2-5.2-34.8-9.9-34.8-10.4c0-1.4,28-29.4,40-40
		C246.2,472.8,308.1,424.9,310.1,425.6L310.1,425.6z M325.7,427.9c0.7-0.7,93.6,15.4,135.8,23.5c31.4,6.1,77.1,15.6,79.8,16.7
		c1.4,0.5-3.4,3.2-18.5,9.9c-59.7,26.9-103.9,51.1-148,80.4c-11.5,7.7-21.2,14-21.5,14c-0.2,0-0.5-6.6-0.5-14.5
		c0-42.9-8.6-86.3-24.4-122.9C326.9,431.5,325.5,428.1,325.7,427.9z M565.9,475.3c0.7,0.7-2.3,19-5,29.8
		c-8.1,33.7-30.1,83.6-56.9,130.6c-4.7,8.4-9,15.1-9.5,15.4c-0.4,0.2-6.5-3.2-13.6-7.2c-26.2-15.4-56-29.8-88.6-43.4
		c-9-3.8-16.9-7-17.2-7.5c-1.6-1.4,71.2-49.5,109.6-72.5C515.3,502,565,474.4,565.9,475.3L565.9,475.3z M583.1,478
		c2,0,43.2,11.3,64.6,17.6c53.1,15.8,114.1,38.2,153.9,56.3l16.5,7.5l-11.5,2.7c-97.2,22.4-180.3,48.1-260.5,80.7
		c-6.6,2.7-12.4,5-12.9,5c-0.5,0,1.8-5.2,4.7-11.5c24.2-51.3,39.8-104.9,43.6-150.5C581.8,481.4,582.4,478,583.1,478L583.1,478z
		 M173.7,572.1c0.7-0.7,32.1,6.8,49,11.5c25.8,7.2,80.4,25.5,80.4,26.9c0,0.2-6.1,5.4-13.3,11.8c-29.6,24.6-58.1,50.6-92.2,83.6
		c-10.2,9.7-18.8,17.6-19.2,17.6c-0.5,0-0.7-1.4-0.5-3.2c5.2-38,4.1-86.8-3.2-136.3C174.1,577.7,173.4,572.3,173.7,572.1z
		 M833.7,572.7c0.4,0.4-14.5,24-24,37.3c-13.6,19.4-33.4,45.2-78.4,101.7c-23.7,29.8-50.4,63.5-59.2,74.8
		c-9,11.3-16.5,20.8-16.7,20.8c-0.2,0-3.2-4.1-6.3-9c-25.3-38-55.6-71.2-91.5-101c-6.8-5.7-14.2-11.8-16.7-13.6
		c-2.5-1.8-4.5-3.6-4.5-3.8c0-0.7,38.4-17.2,67.6-28.9c51.1-20.8,120.7-45.6,172.9-61.7C804.1,580.6,833.3,572.3,833.7,572.7
		L833.7,572.7z M851.1,577.2c0.9-0.2,6.3,2.5,12.9,6.3c54.9,31.4,108.7,71.9,151.2,113.4c12,11.8,41.6,42.5,41.1,42.7
		c0,0-10.4,0.9-22.6,1.8c-95.1,7.2-216.9,27.3-334,55.6c-7.9,1.8-14.9,3.4-15.4,3.4c-0.4,0,8.4-8.8,19.4-19.4
		c68.7-66.2,100.1-108,137.2-182.6C846.1,587.4,850.7,577.9,851.1,577.2C850.9,577.2,850.9,577.2,851.1,577.2L851.1,577.2z
		 M347.9,628.8c3.2,0.7,32.5,14.5,54.7,25.5c20.3,10.2,50.8,26.4,52.4,27.8c0.2,0.2-10.6,5.9-24,12.4
		c-42.5,21.2-78.9,41.4-116.8,64.4c-10.8,6.6-19.9,12-20.1,12c-0.9,0-0.7-0.9,5.4-12c20.3-37.1,36.6-81.3,45.9-124.5
		C346.3,631,347.2,628.8,347.9,628.8L347.9,628.8z M318.5,634.2c0.7,0.7-7,28.5-11.7,43.6c-9.3,28.7-24.9,64.6-40,91.7
		c-3.6,6.3-9,15.6-12,20.8l-5.6,9l-12.7-12.2c-14.7-14.2-26.7-23-42-31c-6.1-3.2-10.8-5.9-10.8-6.3c0-1.8,38.6-36.8,68.2-62.1
		C273.1,669.4,317.8,633.5,318.5,634.2L318.5,634.2z M498.1,708.1l11.1,7.2c25.3,16.5,55.1,38.4,78,57.6
		c12.9,10.6,37.7,33,42.7,38.4l2.7,2.9l-18.3,5.2c-103.5,28.7-183.5,54.2-276.8,88.6c-10.4,3.8-19.2,7-19.9,7
		c-1.4,0-2.5,1.1,20.8-20.3c59.7-54.9,112.5-115.5,151.9-174.4L498.1,708.1L498.1,708.1z M450.9,719.8c0.5,0.5-30.5,44.1-49,68.7
		c-22.1,29.4-61.5,78.6-88.6,110.7c-11.3,13.3-21,24.4-21.5,24.6c-0.7,0.2-0.9-3.2-0.9-8.4c0-27.3-7-56.5-19.2-81.4
		c-5.2-10.4-6.1-12.9-5-14c4.3-3.8,70-41.4,111.6-63.7C406.4,741.5,450.2,719.4,450.9,719.8L450.9,719.8z M165.3,789.9
		c0.7,0,5.9,2.7,11.8,5.9c14.5,7.9,27.3,16.7,38.9,26.2c0.5,0.5-5.4,5.2-13.1,10.8c-21.5,15.4-54,40-73,55.1
		c-19.9,15.8-20.6,16.3-18.3,12.9c14.9-22.8,22.4-35.7,30.3-52.2c7-14.7,14-32.1,19-47.2C162.6,794.9,164.8,789.9,165.3,789.9
		L165.3,789.9z M241.4,849.5c1.1-0.2,2.5,1.8,8.6,10.8c12.9,19.2,22.8,45,25.3,65.8l0.4,4.5l-31,12c-55.4,21.5-106.4,42.7-141,58.5
		c-9.7,4.5-26.7,12.7-37.7,18.1c-11.1,5.6-20.1,9.9-20.1,9.7s7-5.4,15.6-11.8c67.6-49,126.1-102.8,169.9-156.6
		c4.7-5.7,9-10.8,9.5-11.1L241.4,849.5L241.4,849.5z M206.4,858.1c0.9,0.9-24.9,30.1-42.5,47.9c-43.6,44.5-86.8,79.3-140.3,113.2
		c-6.8,4.3-12.9,8.1-13.6,8.6c-1.6,0.9,0.5-1.4,24-26.9c14.9-16,26.2-29.6,39.1-46.3c8.6-11.1,10.2-12.7,22.6-21.5
		C128.9,909.2,205.5,857.2,206.4,858.1z"/>
</g>
</svg>
