<?xml version="1.0" encoding="utf-8"?>
<!-- Generator: Adobe Illustrator 24.1.0, SVG Export Plug-In . SVG Version: 6.00 Build 0)  -->
<svg version="1.1" id="Layer_1" xmlns="http://www.w3.org/2000/svg" xmlns:xlink="http://www.w3.org/1999/xlink" x="0px" y="0px"
	 viewBox="0 0 256 244" style="enable-background:new 0 0 256 244;" xml:space="preserve">
<style type="text/css">
	.st0{fill:url(#SVGID_1_);}
	.st1{fill:url(#SVGID_2_);}
	.st2{fill:#14559A;}
	.st3{fill:url(#SVGID_3_);}
	.st4{fill:#3092C4;}
	.st5{fill:#1969BC;}
	.st6{fill:url(#SVGID_4_);}
	.st7{fill:url(#SVGID_5_);}
	.st8{fill:url(#SVGID_6_);}
	.st9{fill:#2B74B1;}
	.st10{fill:#125A9E;}
	.st11{fill:url(#SVGID_7_);}
	.st12{fill:url(#SVGID_8_);}
	.st13{fill:#0D82CA;}
	.st14{fill:url(#SVGID_9_);}
	.st15{fill:#127BCA;}
	.st16{fill:url(#SVGID_10_);}
	.st17{fill:url(#SVGID_11_);}
	.st18{fill:#05A1E6;}
	.st19{fill:url(#SVGID_12_);}
	.st20{fill:url(#SVGID_13_);}
	.st21{fill:url(#SVGID_14_);}
	.st22{fill:#079AE1;}
	.st23{fill:#1E5CB3;}
	.st24{fill:#1D60B5;}
	.st25{fill:#175FAB;}
	.st26{fill:url(#SVGID_15_);}
	.st27{fill:#7DCBEC;}
	.st28{fill:#5EC5ED;}
	.st29{fill:url(#SVGID_16_);}
	.st30{fill:url(#SVGID_17_);}
	.st31{fill:url(#SVGID_18_);}
</style>
<linearGradient id="SVGID_1_" gradientUnits="userSpaceOnUse" x1="-285.0976" y1="417.5815" x2="-285.0976" y2="416.0901" gradientTransform="matrix(45.6076 0 0 -81.335 13114.7324 34025.4922)">
	<stop  offset="0" style="stop-color:#0994DC"/>
	<stop  offset="0.35" style="stop-color:#66CEF5"/>
	<stop  offset="0.35" style="stop-color:#66CEF5"/>
	<stop  offset="0.8462" style="stop-color:#127BCA"/>
	<stop  offset="0.8462" style="stop-color:#127BCA"/>
	<stop  offset="1" style="stop-color:#127BCA"/>
</linearGradient>
<path class="st0" d="M89.3,80.7c9.2,28,12.6,78,39.4,78l0,0c2,0,4.1-0.2,6.2-0.6l0,0c-24.4-5.7-27.2-55.1-42.1-80.7l0,0
	C91.6,78.4,90.5,79.5,89.3,80.7"/>
<linearGradient id="SVGID_2_" gradientUnits="userSpaceOnUse" x1="-285.4" y1="417.6533" x2="-285.4" y2="416.1619" gradientTransform="matrix(47.8692 0 0 -83.4083 13778.5977 34894.1719)">
	<stop  offset="0" style="stop-color:#0E76BC"/>
	<stop  offset="0.36" style="stop-color:#36AEE8"/>
	<stop  offset="0.36" style="stop-color:#36AEE8"/>
	<stop  offset="0.8462" style="stop-color:#00ADEF"/>
	<stop  offset="0.8462" style="stop-color:#00ADEF"/>
	<stop  offset="1" style="stop-color:#00ADEF"/>
</linearGradient>
<path class="st1" d="M92.8,77.4c14.9,25.6,17.8,75.1,42.1,80.7l0,0c1.9-0.4,3.8-0.9,5.8-1.6l0,0c-21.9-10.7-27.9-58.7-44.8-81.9l0,0
	C94.9,75.6,93.8,76.5,92.8,77.4"/>
<path class="st2" d="M114.2,62.1c-2,0-4.1,0.2-6.2,0.6c-5.4,1-10.9,3.4-16.5,6.9c1.5,1.5,3,3.2,4.3,5.1c5.6-4.7,11.3-8.2,16.8-10.2
	c2.1-0.8,4.2-1.4,6.3-1.7C117.5,62.3,115.9,62.1,114.2,62.1"/>
<linearGradient id="SVGID_3_" gradientUnits="userSpaceOnUse" x1="-285.0757" y1="416.3853" x2="-285.0757" y2="417.5567" gradientTransform="matrix(45.4522 0 0 -84.5 13099.0645 35340.4805)">
	<stop  offset="0" style="stop-color:#1C63B7"/>
	<stop  offset="0.5" style="stop-color:#33BDF2"/>
	<stop  offset="1" style="stop-color:#33BDF2;stop-opacity:0.4196"/>
</linearGradient>
<path class="st3" d="M157.7,146.7c2.2-1.8,4.5-3.7,6.7-5.9c-9.3-27.9-12.6-78.6-39.6-78.6c-1.9,0-3.9,0.2-5.8,0.5
	C143.6,68.8,146.7,122.3,157.7,146.7"/>
<path class="st4" d="M119,62.7c-1.5-0.4-3.1-0.6-4.8-0.6l10.6,0C122.9,62.2,121,62.4,119,62.7"/>
<path class="st5" d="M157.3,152.6c-1.1-1-2.1-2.1-3-3.3c-4.5,3.2-9.1,5.7-13.6,7.2c1.6,0.8,3.3,1.4,5.1,1.7c1.4,0.3,2.8,0.4,4.3,0.4
	c5,0,9-0.6,12.4-2.2C160.6,155.5,158.9,154.2,157.3,152.6"/>
<linearGradient id="SVGID_4_" gradientUnits="userSpaceOnUse" x1="-285.0126" y1="417.757" x2="-285.0126" y2="416.2656" gradientTransform="matrix(45.0105 0 0 -86.5982 12963.8057 36222.8555)">
	<stop  offset="0" style="stop-color:#166AB8"/>
	<stop  offset="0.4" style="stop-color:#36AEE8"/>
	<stop  offset="0.4" style="stop-color:#36AEE8"/>
	<stop  offset="0.8462" style="stop-color:#0798DD"/>
	<stop  offset="0.8462" style="stop-color:#0798DD"/>
	<stop  offset="1" style="stop-color:#0798DD"/>
</linearGradient>
<path class="st6" d="M112.7,64.5c22,11.5,23.9,63.7,41.5,84.8l0,0c1.2-0.8,2.3-1.7,3.5-2.6l0,0c-11-24.4-14.1-77.9-38.7-84l0,0
	C116.9,63.1,114.8,63.7,112.7,64.5"/>
<linearGradient id="SVGID_5_" gradientUnits="userSpaceOnUse" x1="-286.4958" y1="417.9187" x2="-286.4958" y2="416.4272" gradientTransform="matrix(58.3509 0 0 -92.0822 16842.3418 38529.3945)">
	<stop  offset="0" style="stop-color:#124379"/>
	<stop  offset="0.39" style="stop-color:#1487CB"/>
	<stop  offset="0.39" style="stop-color:#1487CB"/>
	<stop  offset="0.7802" style="stop-color:#165197"/>
	<stop  offset="0.7802" style="stop-color:#165197"/>
	<stop  offset="1" style="stop-color:#165197"/>
</linearGradient>
<path class="st7" d="M95.9,74.7c16.9,23.1,22.9,71.1,44.8,81.9l0,0c4.5-1.6,9-4,13.6-7.2l0,0c-17.6-21.2-19.5-73.3-41.5-84.8l0,0
	C107.1,66.6,101.5,70,95.9,74.7"/>
<linearGradient id="SVGID_6_" gradientUnits="userSpaceOnUse" x1="-276.9621" y1="412.1758" x2="-275.9621" y2="412.1758" gradientTransform="matrix(19.4176 0 0 -30.9219 5447.8315 12833.917)">
	<stop  offset="0" style="stop-color:#33BDF2;stop-opacity:0.698"/>
	<stop  offset="1" style="stop-color:#1DACD8"/>
</linearGradient>
<path class="st8" d="M78.5,80c-2.6,6-5.3,13.8-8.6,24.1c6.5-9.2,13-17,19.4-23.4c-0.9-2.7-1.8-5.2-2.9-7.5
	C83.8,75.2,81.2,77.5,78.5,80"/>
<path class="st9" d="M88.8,71.5c-0.8,0.6-1.6,1.1-2.3,1.7c1,2.2,2,4.8,2.9,7.5c1.2-1.1,2.3-2.3,3.5-3.3
	C91.6,75.2,90.2,73.3,88.8,71.5"/>
<path class="st10" d="M91.6,69.6c-0.9,0.6-1.8,1.2-2.8,1.8c1.4,1.8,2.8,3.8,4,5.9c1-0.9,2.1-1.8,3.1-2.7
	C94.5,72.8,93.1,71.1,91.6,69.6"/>
<linearGradient id="SVGID_7_" gradientUnits="userSpaceOnUse" x1="-287.8105" y1="416.9473" x2="-287.8105" y2="417.9244" gradientTransform="matrix(79.1425 0 0 -98.6787 22993.75 41297.2422)">
	<stop  offset="0" style="stop-color:#136AB4"/>
	<stop  offset="0.6" style="stop-color:#59CAF5;stop-opacity:0.549"/>
	<stop  offset="1" style="stop-color:#59CAF5;stop-opacity:0.2353"/>
</linearGradient>
<path class="st11" d="M241.7,60c-12.5,48-38.5,86.6-60.3,96.3h0c-0.4,0.2-0.8,0.3-1.2,0.5c-0.1,0-0.1,0-0.1,0.1
	c-0.1,0-0.2,0.1-0.3,0.1c-0.1,0-0.1,0-0.2,0.1c-0.2,0.1-0.4,0.1-0.5,0.2c-0.1,0-0.2,0.1-0.2,0.1c-0.1,0-0.2,0.1-0.3,0.1
	c-0.1,0-0.2,0.1-0.3,0.1c-0.1,0-0.2,0-0.2,0.1c-0.2,0-0.3,0.1-0.5,0.1c-0.1,0-0.1,0-0.2,0.1c-0.1,0-0.2,0.1-0.3,0.1
	c-0.1,0-0.1,0-0.2,0.1c-0.1,0-0.2,0.1-0.3,0.1c-0.1,0-0.3,0.1-0.4,0.1c1,0.4,2,0.5,3.1,0.5c20.7,0,41.5-37.1,76-98.7L241.7,60
	L241.7,60z"/>
<linearGradient id="SVGID_8_" gradientUnits="userSpaceOnUse" x1="-287.9457" y1="417.4057" x2="-286.9457" y2="417.4057" gradientTransform="matrix(72.0226 0 0 -99.1613 20739.5801 41502.1914)">
	<stop  offset="0" style="stop-color:#05A1E6;stop-opacity:0.2471"/>
	<stop  offset="1" style="stop-color:#05A1E6"/>
</linearGradient>
<path class="st12" d="M65.4,64.1C65.4,64.1,65.4,64.1,65.4,64.1C65.5,64.1,65.5,64.1,65.4,64.1l0.1-0.1c0.1,0,0.2-0.1,0.3-0.1
	c0,0,0,0,0.1,0c0,0,0.1,0,0.1,0c0.1,0,0.2-0.1,0.4-0.1h0c0.3-0.1,0.5-0.2,0.8-0.3c0,0,0.1,0,0.1,0c0.1,0,0.2-0.1,0.3-0.1
	c0.1,0,0.1,0,0.2,0c0.1,0,0.2-0.1,0.3-0.1c0,0,0.1,0,0.1,0c0.4-0.1,0.8-0.2,1.1-0.3c0.1,0,0.1,0,0.2,0c0.1,0,0.2,0,0.3-0.1
	c0,0,0.1,0,0.2,0c0.1,0,0.2,0,0.3-0.1h0.1c0.2,0,0.5-0.1,0.7-0.1h0.1c0.1,0,0.2,0,0.3-0.1c0.1,0,0.1,0,0.2,0c0.1,0,0.2,0,0.3,0
	c0.1,0,0.1,0,0.2,0c0.2,0,0.5,0,0.7-0.1c-0.7-0.1-1.5-0.1-2.2-0.1c-23.3,0-55.4,43.2-69.8,99.2h2.8c4.6-8.2,8.8-16.1,12.6-23.4
	C26.5,98.3,47.1,71.2,65.4,64.1"/>
<path class="st13" d="M78.5,80c2.6-2.5,5.3-4.8,7.9-6.8c-0.6-1.3-1.2-2.5-1.9-3.7C82.4,72.1,80.5,75.5,78.5,80"/>
<path class="st13" d="M80.4,64.4c1.5,1.3,2.9,3,4.1,5.1c0.4-0.5,0.8-0.9,1.2-1.3c-1.7-1.6-3.6-2.9-5.6-3.9
	C80.2,64.3,80.3,64.4,80.4,64.4C80.4,64.4,80.4,64.4,80.4,64.4"/>
<linearGradient id="SVGID_9_" gradientUnits="userSpaceOnUse" x1="-285.547" y1="415.8491" x2="-285.547" y2="417.1865" gradientTransform="matrix(49.0511 0 0 -73.8222 14047.2754 30854.7656)">
	<stop  offset="0" style="stop-color:#318ED5"/>
	<stop  offset="1" style="stop-color:#38A7E4"/>
</linearGradient>
<path class="st14" d="M16.4,137.9C37.6,97,47.6,71.1,65.4,64.1l0,0C47.1,71.3,26.5,98.3,16.4,137.9"/>
<path class="st15" d="M85.8,68.2c-0.4,0.4-0.8,0.9-1.2,1.3c0.7,1.1,1.3,2.3,1.9,3.7c0.8-0.6,1.6-1.2,2.3-1.7
	C87.8,70.3,86.8,69.2,85.8,68.2"/>
<linearGradient id="SVGID_10_" gradientUnits="userSpaceOnUse" x1="-285.097" y1="415.2501" x2="-285.097" y2="416.9299" gradientTransform="matrix(45.6036 0 0 -57.1283 13048.5352 23878.7578)">
	<stop  offset="0" style="stop-color:#05A1E6"/>
	<stop  offset="1" style="stop-color:#05A1E6;stop-opacity:0.549"/>
</linearGradient>
<path class="st16" d="M26,161.1L26,161.1c-0.1,0-0.3,0-0.4,0h-0.1c-0.1,0-0.2,0-0.3,0h-0.1c-0.3,0-0.5,0-0.8,0.1h-0.1
	c21.5-0.6,31.3-11.4,36.2-27c3.7-11.8,6.7-21.8,9.4-30.2c-9,12.7-18,27.8-27.1,44.7C38.4,157,31.7,160.4,26,161.1"/>
<linearGradient id="SVGID_11_" gradientUnits="userSpaceOnUse" x1="-285.9401" y1="416.3777" x2="-285.9401" y2="417.3777" gradientTransform="matrix(52.5191 0 0 -81.0936 15069.5723 33926.6602)">
	<stop  offset="0" style="stop-color:#1959A6"/>
	<stop  offset="0.5" style="stop-color:#05A1E6"/>
	<stop  offset="0.5" style="stop-color:#05A1E6"/>
	<stop  offset="0.9176" style="stop-color:#7EC5EA"/>
	<stop  offset="1" style="stop-color:#7EC5EA"/>
</linearGradient>
<path class="st17" d="M26,161.1L26,161.1c5.7-0.7,12.4-4.1,16.8-12.3l0,0c9.1-16.9,18.1-32,27.1-44.7l0,0c3.3-10.3,6-18.1,8.6-24.1
	l0,0C60.6,97.1,42.6,125.4,26,161.1"/>
<path class="st18" d="M16.3,137.9c-3.8,7.3-8,15.1-12.6,23.4h8.1C12.9,153.1,14.5,145.3,16.3,137.9"/>
<linearGradient id="SVGID_12_" gradientUnits="userSpaceOnUse" x1="-287.384" y1="416.9563" x2="-287.5974" y2="417.8445" gradientTransform="matrix(72.6768 0 0 -99.0047 20941.5215 41436.5508)">
	<stop  offset="0" style="stop-color:#165096"/>
	<stop  offset="1" style="stop-color:#0D82CA"/>
</linearGradient>
<path class="st19" d="M72.3,62.3c-0.1,0-0.1,0-0.2,0l0,0c-0.1,0-0.2,0-0.3,0l0,0c-0.1,0-0.1,0-0.2,0l0,0c-0.1,0-0.2,0-0.3,0.1l0,0
	c0,0-0.1,0-0.1,0l0,0c-0.2,0-0.5,0.1-0.7,0.1l0,0h-0.1l0,0c-0.1,0-0.2,0-0.3,0.1l0,0c-0.1,0-0.1,0-0.2,0l0,0c-0.1,0-0.2,0-0.3,0.1
	l0,0c-0.1,0-0.1,0-0.2,0l0,0c-0.4,0.1-0.8,0.2-1.1,0.3l0,0c0,0-0.1,0-0.1,0l0,0c-0.1,0-0.2,0.1-0.3,0.1l0,0c0,0-0.1,0-0.2,0l0,0
	c-0.1,0-0.2,0.1-0.3,0.1l0,0c0,0-0.1,0-0.1,0l0,0c-0.3,0.1-0.5,0.2-0.8,0.3l0,0l0,0l0,0c-0.1,0-0.2,0.1-0.4,0.1l0,0
	c0,0-0.1,0-0.2,0.1l0,0c-0.1,0-0.2,0.1-0.3,0.1l0,0c0,0-0.1,0-0.1,0.1l0,0c-17.8,7-27.8,32.9-49.1,73.8l0,0
	c-1.9,7.4-3.4,15.2-4.5,23.4l0,0H13c3.2,0,4.1,0,7.8,0l0,0H21h0.5h0.2h0.1H22h0.1h0.1h0.1h0.5h0.5h0.4h0.1h0.7l0,0
	c0.3,0,0.5,0,0.8-0.1l0,0h0l0,0c0.1,0,0.2,0,0.3,0l0,0h0.1l0,0c0.1,0,0.3,0,0.4,0l0,0c16.6-35.7,34.6-64,52.5-81.1l0,0
	c2-4.5,3.9-7.9,6-10.5l0,0c-1.2-2.1-2.6-3.9-4.1-5.1l0,0c0,0,0,0,0,0l0,0c-0.1,0-0.2-0.1-0.3-0.1l0,0c-0.1,0-0.2-0.1-0.2-0.1l0,0
	c-0.1,0-0.2-0.1-0.2-0.1l0,0c-0.1,0-0.2-0.1-0.3-0.1l0,0c-0.1,0-0.1-0.1-0.2-0.1l0,0c-0.2-0.1-0.3-0.1-0.5-0.2l0,0
	c-0.1,0-0.1,0-0.2-0.1l0,0c-0.1,0-0.2-0.1-0.4-0.1l0,0c-0.1,0-0.1,0-0.2-0.1l0,0c-0.2-0.1-0.3-0.1-0.5-0.2l0,0h0l0,0
	c-0.2-0.1-0.4-0.1-0.6-0.2l0,0c0,0-0.1,0-0.1,0l0,0c-0.2,0-0.3-0.1-0.5-0.1l0,0c0,0-0.1,0-0.1,0l0,0c-0.4-0.1-0.8-0.2-1.2-0.3l0,0
	c0,0-0.1,0-0.1,0l0,0c-0.2,0-0.3-0.1-0.5-0.1l0,0c0,0-0.1,0-0.1,0l0,0c-0.2,0-0.4-0.1-0.6-0.1l0,0h-0.1l0,0c-0.2,0-0.3,0-0.5-0.1
	l0,0C72.8,62.3,72.5,62.3,72.3,62.3"/>
<linearGradient id="SVGID_13_" gradientUnits="userSpaceOnUse" x1="-282.5884" y1="415.3991" x2="-282.5884" y2="416.2021" gradientTransform="matrix(32.7663 0 0 -57.2261 9458.5898 23877.8828)">
	<stop  offset="0" style="stop-color:#05A1E6"/>
	<stop  offset="0.8736" style="stop-color:#0495D6"/>
	<stop  offset="1" style="stop-color:#0495D6"/>
</linearGradient>
<path class="st20" d="M193.1,86.6c-4.1,13.1-7.4,23.9-10.3,32.8l0,0c11.2-15.4,22.3-34.8,32.8-57.2l0,0
	C203.3,66,196.8,74.8,193.1,86.6"/>
<linearGradient id="SVGID_14_" gradientUnits="userSpaceOnUse" x1="-286.5024" y1="417.8775" x2="-286.8124" y2="416.7774" gradientTransform="matrix(60.2691 0 0 -96.3231 17488.0645 40307.25)">
	<stop  offset="0" style="stop-color:#38A7E4;stop-opacity:0.3294"/>
	<stop  offset="0.9615" style="stop-color:#0E88D3"/>
	<stop  offset="0.9615" style="stop-color:#0E88D3"/>
	<stop  offset="1" style="stop-color:#0E88D3"/>
</linearGradient>
<path class="st21" d="M183.2,155.5c-0.6,0.3-1.1,0.6-1.7,0.8c21.8-9.7,47.8-48.3,60.3-96.3h-2.5
	C210.6,111.1,201.4,145.3,183.2,155.5"/>
<path class="st22" d="M168.9,151.2c4.7-5.8,8.6-15.6,13.9-31.9c-6.1,8.4-12.2,15.5-18.3,21.4c0,0,0,0,0,0.1
	C165.8,144.8,167.3,148.4,168.9,151.2"/>
<path class="st5" d="M168.9,151.2c-1.6,2-3.3,3.5-5.2,4.6c-0.4,0.2-0.8,0.5-1.3,0.7c2,1.1,4.2,1.8,6.7,2.1l0,0
	c0.4,0,0.7,0.1,1.1,0.1h0.1c0.2,0,0.3,0,0.5,0h0.1h0.5h0.6h0.2h0.4c0.1,0,0.1,0,0.2,0c0.1,0,0.3,0,0.4,0h0h0.1c0.1,0,0.3,0,0.4,0h0
	c0,0,0.1,0,0.1,0c0.2,0,0.3,0,0.5-0.1h0.1c0.2,0,0.3-0.1,0.5-0.1h0h0c0.3-0.1,0.7-0.1,1-0.2C173.3,157.2,171,154.7,168.9,151.2"/>
<path class="st23" d="M128.7,158.7c2,0,4.1-0.2,6.2-0.6c1.9-0.3,3.8-0.9,5.8-1.6c1.6,0.8,3.3,1.4,5.1,1.7c1.4,0.3,2.8,0.4,4.3,0.4
	H128.7L128.7,158.7z"/>
<path class="st23" d="M150,158.7c5,0,9-0.6,12.4-2.2c2,1.1,4.2,1.8,6.7,2.1l0,0c0.4,0,0.7,0.1,1.1,0.1h0.1c0.2,0,0.3,0,0.5,0h0.1
	h0.5L150,158.7L150,158.7z"/>
<path class="st24" d="M171.4,158.7h0.6h0.2h0.4c0.1,0,0.1,0,0.2,0c0.1,0,0.3,0,0.4,0h0h0.2c0.1,0,0.3,0,0.4,0h0c0,0,0.1,0,0.1,0
	c0.2,0,0.3,0,0.5-0.1c0,0,0.1,0,0.1,0c0.2,0,0.3,0,0.5-0.1h0h0c0.3-0.1,0.7-0.1,1-0.2l0,0c1,0.4,2,0.5,3.1,0.5L171.4,158.7
	L171.4,158.7z"/>
<path class="st25" d="M164.5,140.8L164.5,140.8c-2.2,2.1-4.5,4.1-6.7,5.9c-1.2,0.9-2.3,1.8-3.5,2.6c1,1.2,2,2.3,3,3.3
	c1.6,1.6,3.3,2.9,5.2,3.9c0.4-0.2,0.9-0.4,1.3-0.7c1.9-1.1,3.6-2.6,5.2-4.6C167.3,148.4,165.8,144.8,164.5,140.8"/>
<linearGradient id="SVGID_15_" gradientUnits="userSpaceOnUse" x1="-287.3453" y1="417.8833" x2="-287.3453" y2="416.8615" gradientTransform="matrix(70.2816 0 0 -98.1105 20399.1465 41058.4414)">
	<stop  offset="0" style="stop-color:#168CD4"/>
	<stop  offset="0.5" style="stop-color:#1C87CC"/>
	<stop  offset="1" style="stop-color:#154B8D"/>
</linearGradient>
<path class="st26" d="M231.2,60h-10.6h-1.1l0,0h-1l0,0h0c-0.7,0-1.4,0.1-2,0.1l0,0c-0.3,0.7-0.6,1.3-0.9,2l0,0
	c-10.5,22.4-21.6,41.8-32.8,57.2l0,0c-5.3,16.2-9.1,26.1-13.9,31.9l0,0c2,3.5,4.4,5.9,7.2,6.9l0,0c0.1,0,0.1,0,0.2,0l0,0h0l0,0
	c0,0,0.1,0,0.2,0l0,0c0.1,0,0.2-0.1,0.4-0.1l0,0c0.1,0,0.1,0,0.2-0.1l0,0c0.1,0,0.2-0.1,0.3-0.1l0,0c0.1,0,0.1,0,0.2-0.1l0,0
	c0.2-0.1,0.3-0.1,0.5-0.1l0,0c0.1,0,0.2-0.1,0.2-0.1l0,0c0.1,0,0.2-0.1,0.3-0.1l0,0c0.1,0,0.2,0,0.3-0.1l0,0c0.1,0,0.2-0.1,0.2-0.1
	l0,0c0.2-0.1,0.4-0.1,0.5-0.2l0,0c0,0,0.1,0,0.2-0.1l0,0c0.1,0,0.2-0.1,0.3-0.1l0,0c0,0,0.1,0,0.1-0.1l0,0c0.4-0.2,0.8-0.3,1.2-0.5
	l0,0h0l0,0c0.6-0.2,1.1-0.5,1.7-0.8l0,0c18.2-10.2,27.4-44.4,56-95.5l0,0L231.2,60L231.2,60z"/>
<path class="st27" d="M73,62.3c0,0,0.1,0,0.1,0c0.1,0,0.2,0,0.3,0h0.1c0.2,0,0.4,0,0.6,0.1c0,0,0.1,0,0.1,0c0.2,0,0.3,0.1,0.5,0.1
	c0,0,0.1,0,0.1,0c0.4,0.1,0.8,0.2,1.2,0.3c0,0,0.1,0,0.1,0c0.2,0,0.3,0.1,0.5,0.1c0,0,0.1,0,0.1,0c0.2,0,0.4,0.1,0.6,0.2
	c0,0,0,0,0,0c0.2,0,0.3,0.1,0.5,0.2c0.1,0,0.1,0,0.2,0.1c0.1,0,0.2,0.1,0.4,0.1c0.1,0,0.1,0,0.2,0.1c0.2,0.1,0.3,0.1,0.5,0.2
	c0.1,0,0.2,0.1,0.2,0.1c0.1,0,0.2,0.1,0.3,0.1c0.1,0,0.2,0.1,0.2,0.1c0.1,0,0.2,0.1,0.2,0.1c2,1,3.9,2.3,5.6,3.9
	c0.6-0.7,1.3-1.3,2-1.8c-3.8-2.7-8.1-4.2-13-4.2C74.2,62.2,73.6,62.3,73,62.3"/>
<path class="st28" d="M85.8,68.2c1.1,1,2.1,2.1,3,3.3c0.9-0.6,1.8-1.3,2.8-1.8c-1.2-1.2-2.5-2.3-3.8-3.2
	C87.1,66.9,86.4,67.5,85.8,68.2"/>
<linearGradient id="SVGID_16_" gradientUnits="userSpaceOnUse" x1="-282.8373" y1="473.5253" x2="-282.1259" y2="475.7793" gradientTransform="matrix(32.4594 0 0 4.2491 9256.9668 -1954.4119)">
	<stop  offset="0" style="stop-color:#97D6EE"/>
	<stop  offset="0.7033" style="stop-color:#55C1EA"/>
	<stop  offset="1" style="stop-color:#55C1EA"/>
</linearGradient>
<path class="st29" d="M73,62.3c0.6,0,1.2-0.1,1.7-0.1c4.9,0,9.2,1.5,13,4.2c4-3.1,8.8-4.2,15.5-4.2H70.8
	C71.6,62.1,72.3,62.2,73,62.3"/>
<linearGradient id="SVGID_17_" gradientUnits="userSpaceOnUse" x1="-280.9005" y1="451.6129" x2="-280.2118" y2="450.5085" gradientTransform="matrix(26.4722 0 0 7.484 7525.6357 -3310.7275)">
	<stop  offset="0" style="stop-color:#7ACCEC"/>
	<stop  offset="1" style="stop-color:#3FB7ED"/>
</linearGradient>
<path class="st30" d="M103.3,62.1c-6.7,0-11.5,1.1-15.5,4.2c1.3,0.9,2.6,2,3.8,3.2c5.6-3.5,11.1-5.9,16.5-6.9
	c2.1-0.4,4.1-0.6,6.2-0.6H103.3L103.3,62.1z"/>
<linearGradient id="SVGID_18_" gradientUnits="userSpaceOnUse" x1="-285.8895" y1="417.2976" x2="-285.8895" y2="416.0816" gradientTransform="matrix(52.0449 0 0 -80.6355 15069.6016 33714.2852)">
	<stop  offset="0" style="stop-color:#1DA7E7"/>
	<stop  offset="1" style="stop-color:#37ABE7;stop-opacity:0"/>
</linearGradient>
<path class="st31" d="M182.8,119.4c2.9-8.9,6.2-19.7,10.3-32.8c3.7-11.8,10.2-20.6,22.5-24.5c0.3-0.7,0.6-1.3,0.9-2
	c-20,1.2-29.3,11.4-34,26.4c-8.2,26.3-13.2,43.3-18,54.2C170.6,134.9,176.7,127.7,182.8,119.4"/>
</svg>
