<?xml version="1.0" encoding="utf-8"?>
<!-- Generator: Adobe Illustrator 24.1.0, SVG Export Plug-In . SVG Version: 6.00 Build 0)  -->
<svg version="1.1" id="Layer_1" xmlns="http://www.w3.org/2000/svg" xmlns:xlink="http://www.w3.org/1999/xlink" x="0px" y="0px"
	 viewBox="0 0 112 112" style="enable-background:new 0 0 112 112;" xml:space="preserve">
<style type="text/css">
	.st0{fill:#F58C11;}
	.st1{fill:#F58D11;}
	.st2{fill:#EA4335;}
	.st3{fill:#4285F4;}
	.st4{fill:#34A853;}
	.st5{fill:#FBBC05;}
	.st6{fill:#0089D6;}
	.st7{fill:#D32F2F;}
	.st8{fill:#B71C1C;}
	.st9{fill:#F44336;}
	.st10{fill:#03786F;}
	.st11{fill:#FCFDFD;}
	.st12{fill:#FBFDFD;}
	.st13{fill:#C40022;}
	.st14{fill:url(#SVGID_1_);}
	.st15{fill:none;}
	.st16{fill:#BE202E;}
	.st17{opacity:0.35;fill:#BE202E;enable-background:new    ;}
	.st18{fill:url(#SVGID_2_);}
	.st19{fill:url(#SVGID_3_);}
	.st20{fill:url(#SVGID_4_);}
	.st21{fill:url(#SVGID_5_);}
	.st22{fill:url(#SVGID_6_);}
	.st23{fill:url(#SVGID_7_);}
	.st24{fill:url(#SVGID_8_);}
	.st25{fill:url(#SVGID_9_);}
	.st26{fill:#00A818;}
	.st27{fill-rule:evenodd;clip-rule:evenodd;fill:#488ECB;}
	.st28{fill:#C72566;}
	.st29{fill:#FF8C2A;}
	.st30{fill:#CF4F8C;}
	.st31{opacity:0.2;fill:#FFFFFF;enable-background:new    ;}
	.st32{fill:#3F3F3F;}
	.st33{opacity:0.2;fill:none;stroke:#000000;stroke-width:2;stroke-linecap:round;enable-background:new    ;}
	.st34{fill:none;stroke:#FFFFFF;stroke-width:2;stroke-linecap:round;}
	.st35{fill:#FF496C;}
	.st36{fill:#FD405F;}
	.st37{fill:#96EFFF;}
	.st38{fill:#6CE0F9;}
	.st39{fill:#40DAF4;}
	.st40{fill:#E12826;}
	.st41{clip-path:url(#SVGID_11_);fill:#838383;}
	.st42{clip-path:url(#SVGID_11_);fill:#828282;}
	.st43{clip-path:url(#SVGID_11_);fill:#818181;}
	.st44{clip-path:url(#SVGID_11_);fill:#808080;}
	.st45{clip-path:url(#SVGID_11_);fill:#7F7F7F;}
	.st46{clip-path:url(#SVGID_11_);fill:#7E7E7E;}
	.st47{clip-path:url(#SVGID_11_);fill:#7D7D7D;}
	.st48{clip-path:url(#SVGID_11_);fill:#7C7C7C;}
	.st49{clip-path:url(#SVGID_11_);fill:#7B7B7B;}
	.st50{clip-path:url(#SVGID_11_);fill:#7A7A7A;}
	.st51{clip-path:url(#SVGID_11_);fill:#797979;}
	.st52{clip-path:url(#SVGID_11_);fill:#787878;}
	.st53{clip-path:url(#SVGID_11_);fill:#777777;}
	.st54{clip-path:url(#SVGID_11_);fill:#767676;}
	.st55{clip-path:url(#SVGID_11_);fill:#757575;}
	.st56{clip-path:url(#SVGID_11_);fill:#747474;}
	.st57{clip-path:url(#SVGID_11_);fill:#737373;}
	.st58{clip-path:url(#SVGID_11_);fill:#727272;}
	.st59{clip-path:url(#SVGID_11_);fill:#717171;}
	.st60{clip-path:url(#SVGID_11_);fill:#707070;}
	.st61{clip-path:url(#SVGID_11_);fill:#6F6F6F;}
	.st62{clip-path:url(#SVGID_11_);fill:#6E6E6E;}
	.st63{clip-path:url(#SVGID_11_);fill:#6D6D6D;}
	.st64{clip-path:url(#SVGID_11_);fill:#6C6C6C;}
	.st65{clip-path:url(#SVGID_11_);fill:#6B6B6B;}
	.st66{clip-path:url(#SVGID_11_);fill:#6A6A6A;}
	.st67{clip-path:url(#SVGID_11_);fill:#696969;}
	.st68{clip-path:url(#SVGID_11_);fill:#686868;}
	.st69{clip-path:url(#SVGID_11_);fill:#676767;}
	.st70{clip-path:url(#SVGID_11_);fill:#666666;}
	.st71{clip-path:url(#SVGID_11_);fill:#656565;}
	.st72{clip-path:url(#SVGID_11_);fill:#646464;}
	.st73{clip-path:url(#SVGID_11_);fill:#636363;}
	.st74{clip-path:url(#SVGID_11_);fill:#626262;}
	.st75{clip-path:url(#SVGID_11_);fill:#616161;}
	.st76{clip-path:url(#SVGID_11_);fill:#606060;}
	.st77{clip-path:url(#SVGID_11_);fill:#5F5F5F;}
	.st78{clip-path:url(#SVGID_11_);fill:#5E5E5E;}
	.st79{clip-path:url(#SVGID_11_);fill:#5D5D5D;}
	.st80{clip-path:url(#SVGID_11_);fill:#5C5C5C;}
	.st81{clip-path:url(#SVGID_11_);fill:#5B5B5B;}
	.st82{clip-path:url(#SVGID_11_);fill:#5A5A5A;}
	.st83{clip-path:url(#SVGID_11_);fill:#595959;}
	.st84{clip-path:url(#SVGID_11_);fill:#585858;}
	.st85{clip-path:url(#SVGID_11_);fill:#565656;}
	.st86{clip-path:url(#SVGID_11_);fill:#555555;}
	.st87{clip-path:url(#SVGID_11_);fill:#545454;}
	.st88{clip-path:url(#SVGID_11_);fill:#535353;}
	.st89{clip-path:url(#SVGID_11_);fill:#525252;}
	.st90{clip-path:url(#SVGID_11_);fill:#515151;}
	.st91{clip-path:url(#SVGID_11_);fill:#505050;}
	.st92{clip-path:url(#SVGID_11_);fill:#4F4F4F;}
	.st93{clip-path:url(#SVGID_11_);fill:#4E4E4E;}
	.st94{clip-path:url(#SVGID_11_);fill:#4D4D4D;}
	.st95{clip-path:url(#SVGID_11_);fill:#4C4C4C;}
	.st96{clip-path:url(#SVGID_11_);fill:#4B4B4B;}
	.st97{clip-path:url(#SVGID_11_);fill:#4A4A4A;}
	.st98{clip-path:url(#SVGID_11_);fill:#494949;}
	.st99{clip-path:url(#SVGID_11_);fill:#484848;}
	.st100{clip-path:url(#SVGID_11_);fill:#474747;}
	.st101{clip-path:url(#SVGID_11_);fill:#464646;}
	.st102{clip-path:url(#SVGID_11_);fill:#454545;}
	.st103{clip-path:url(#SVGID_11_);fill:#444444;}
	.st104{clip-path:url(#SVGID_11_);fill:#434343;}
	.st105{clip-path:url(#SVGID_11_);fill:#424242;}
	.st106{clip-path:url(#SVGID_11_);fill:#414141;}
	.st107{clip-path:url(#SVGID_11_);fill:#404040;}
	.st108{clip-path:url(#SVGID_11_);fill:#3F3F3F;}
	.st109{clip-path:url(#SVGID_11_);fill:#3E3E3E;}
	.st110{clip-path:url(#SVGID_11_);fill:#3D3D3D;}
	.st111{clip-path:url(#SVGID_11_);fill:#3C3C3C;}
	.st112{clip-path:url(#SVGID_11_);fill:#3B3B3B;}
	.st113{clip-path:url(#SVGID_11_);fill:#3A3A3A;}
	.st114{clip-path:url(#SVGID_11_);fill:#393939;}
	.st115{clip-path:url(#SVGID_11_);fill:#383838;}
	.st116{clip-path:url(#SVGID_11_);fill:#373737;}
	.st117{clip-path:url(#SVGID_11_);fill:#363636;}
	.st118{clip-path:url(#SVGID_11_);fill:#353535;}
	.st119{clip-path:url(#SVGID_11_);fill:#343434;}
	.st120{clip-path:url(#SVGID_11_);fill:#333333;}
	.st121{clip-path:url(#SVGID_11_);fill:#323232;}
	.st122{clip-path:url(#SVGID_11_);fill:#313131;}
	.st123{clip-path:url(#SVGID_11_);fill:#303030;}
	.st124{clip-path:url(#SVGID_11_);fill:#2F2F2F;}
	.st125{clip-path:url(#SVGID_11_);fill:#2E2E2E;}
	.st126{clip-path:url(#SVGID_11_);fill:#2D2D2D;}
	.st127{clip-path:url(#SVGID_11_);fill:#2C2C2C;}
	.st128{clip-path:url(#SVGID_11_);fill:#2B2B2B;}
	.st129{fill:#2C2C2C;}
	.st130{fill:#FFFFFF;}
	.st131{fill:url(#SVGID_12_);}
	.st132{clip-path:url(#SVGID_14_);fill:#227716;}
	.st133{clip-path:url(#SVGID_14_);fill:#227816;}
	.st134{clip-path:url(#SVGID_14_);fill:#227917;}
	.st135{clip-path:url(#SVGID_14_);fill:#227A17;}
	.st136{clip-path:url(#SVGID_14_);fill:#227B17;}
	.st137{clip-path:url(#SVGID_14_);fill:#227C18;}
	.st138{clip-path:url(#SVGID_14_);fill:#227D18;}
	.st139{clip-path:url(#SVGID_14_);fill:#227E18;}
	.st140{clip-path:url(#SVGID_14_);fill:#227F18;}
	.st141{clip-path:url(#SVGID_14_);fill:#228019;}
	.st142{clip-path:url(#SVGID_14_);fill:#228119;}
	.st143{clip-path:url(#SVGID_14_);fill:#228219;}
	.st144{clip-path:url(#SVGID_14_);fill:#22831A;}
	.st145{clip-path:url(#SVGID_14_);fill:#22841A;}
	.st146{clip-path:url(#SVGID_14_);fill:#22851A;}
	.st147{clip-path:url(#SVGID_14_);fill:#21861B;}
	.st148{clip-path:url(#SVGID_14_);fill:#21871B;}
	.st149{clip-path:url(#SVGID_14_);fill:#21881B;}
	.st150{clip-path:url(#SVGID_14_);fill:#21891C;}
	.st151{clip-path:url(#SVGID_14_);fill:#218A1C;}
	.st152{clip-path:url(#SVGID_14_);fill:#218B1C;}
	.st153{clip-path:url(#SVGID_14_);fill:#218C1D;}
	.st154{clip-path:url(#SVGID_14_);fill:#218D1D;}
	.st155{clip-path:url(#SVGID_14_);fill:#218E1D;}
	.st156{clip-path:url(#SVGID_14_);fill:#218F1D;}
	.st157{clip-path:url(#SVGID_14_);fill:#21901E;}
	.st158{clip-path:url(#SVGID_14_);fill:#21911E;}
	.st159{clip-path:url(#SVGID_14_);fill:#21921E;}
	.st160{clip-path:url(#SVGID_14_);fill:#21931F;}
	.st161{clip-path:url(#SVGID_14_);fill:#21951F;}
	.st162{clip-path:url(#SVGID_14_);fill:#21961F;}
	.st163{clip-path:url(#SVGID_14_);fill:#219720;}
	.st164{clip-path:url(#SVGID_14_);fill:#219820;}
	.st165{clip-path:url(#SVGID_14_);fill:#219920;}
	.st166{clip-path:url(#SVGID_14_);fill:#219A21;}
	.st167{clip-path:url(#SVGID_14_);fill:#219B21;}
	.st168{clip-path:url(#SVGID_14_);fill:#219C21;}
	.st169{clip-path:url(#SVGID_14_);fill:#219D21;}
	.st170{clip-path:url(#SVGID_14_);fill:#219E22;}
	.st171{clip-path:url(#SVGID_14_);fill:#219F22;}
	.st172{clip-path:url(#SVGID_14_);fill:#21A022;}
	.st173{clip-path:url(#SVGID_14_);fill:#21A123;}
	.st174{clip-path:url(#SVGID_14_);fill:#21A223;}
	.st175{clip-path:url(#SVGID_14_);fill:#21A323;}
	.st176{clip-path:url(#SVGID_14_);fill:#20A424;}
	.st177{clip-path:url(#SVGID_14_);fill:#20A524;}
	.st178{clip-path:url(#SVGID_14_);fill:#20A624;}
	.st179{clip-path:url(#SVGID_14_);fill:#20A725;}
	.st180{clip-path:url(#SVGID_14_);fill:#20A825;}
	.st181{clip-path:url(#SVGID_14_);fill:#20A925;}
	.st182{clip-path:url(#SVGID_14_);fill:#20AA26;}
	.st183{clip-path:url(#SVGID_14_);fill:#20AB26;}
	.st184{clip-path:url(#SVGID_14_);fill:#20AC26;}
	.st185{clip-path:url(#SVGID_14_);fill:#20AD26;}
	.st186{clip-path:url(#SVGID_14_);fill:#20AE27;}
	.st187{clip-path:url(#SVGID_14_);fill:#20AF27;}
	.st188{clip-path:url(#SVGID_14_);fill:#20B027;}
	.st189{clip-path:url(#SVGID_14_);fill:#20B128;}
	.st190{clip-path:url(#SVGID_14_);fill:#20B228;}
	.st191{fill:#0C0000;}
	.st192{fill:url(#SVGID_15_);}
	.st193{fill:#499CD2;}
	.st194{fill-rule:evenodd;clip-rule:evenodd;fill:#9AAB4B;}
	.st195{fill-rule:evenodd;clip-rule:evenodd;fill:#EC0677;}
	.st196{fill-rule:evenodd;clip-rule:evenodd;fill:#FFC10E;}
	.st197{fill-rule:evenodd;clip-rule:evenodd;fill:#3FB98C;}
	.st198{fill-rule:evenodd;clip-rule:evenodd;fill:#60CAE9;}
	.st199{fill-rule:evenodd;clip-rule:evenodd;fill:#009C7E;}
	.st200{fill-rule:evenodd;clip-rule:evenodd;fill:#672D85;}
	.st201{fill-rule:evenodd;clip-rule:evenodd;fill:#F48120;}
	.st202{fill:#DF4F4F;}
	.st203{clip-path:url(#SVGID_17_);fill:#F0BF1A;}
	.st204{clip-path:url(#SVGID_19_);fill:#3EBEB0;}
	.st205{clip-path:url(#SVGID_21_);fill:#07A5DE;}
	.st206{clip-path:url(#SVGID_23_);fill:#231F20;}
	.st207{fill:#D7A229;}
	.st208{fill:#019B8F;}
	.st209{fill:#F3BD19;}
	.st210{fill:#231F20;}
	.st211{fill:#3EBEB0;}
	.st212{fill:#37A595;}
	.st213{fill:#37808C;}
	.st214{fill:#9BD3CD;}
	.st215{fill:#1B1A19;}
	.st216{fill:#2C3458;}
	.st217{fill:#D43D44;}
	.st218{fill:#EE4323;}
	.st219{fill:url(#SVGID_24_);}
	.st220{fill:url(#SVGID_25_);}
	.st221{fill:url(#SVGID_26_);}
	.st222{fill:url(#SVGID_27_);}
	.st223{fill:#57A900;}
</style>
<g id="A">
	<path class="st213" d="M55.2,80.6c-13.2,0-23.9-10.7-23.9-23.9c0-13.2,10.7-23.9,23.9-23.9c13.2,0,23.9,10.7,23.9,23.9
		C79.1,69.8,68.4,80.6,55.2,80.6z M99.7,47.8C95.6,29.1,73.1,18,49.4,23.2C25.8,28.3,9.9,47.7,13.9,66.5
		C18,85.2,40.5,96.3,64.2,91.1C87.9,86,103.8,66.6,99.7,47.8L99.7,47.8z"/>
	<path class="st214" d="M55.1,80.1c-13,0-23.5-10.5-23.5-23.5c0-13,10.5-23.5,23.5-23.5c13,0,23.5,10.5,23.5,23.5
		C78.6,69.6,68.1,80.1,55.1,80.1z M61.1,27c-16.9,0-30.6,13.7-30.6,30.6c0,16.9,13.7,30.6,30.6,30.6c16.9,0,30.6-13.7,30.6-30.6
		C91.7,40.7,78,27,61.1,27z"/>
	<g>
		<path class="st215" d="M46.6,54.1l-2.6-5.4c-0.6-1.3-1.2-2.7-1.5-3.4l0,0c0.1,1,0.1,2.2,0.1,3.2l0.1,5.5h-1.9V42.7H43l2.8,5.6
			c0.5,1.1,1,2.4,1.2,2.9l0,0c0-0.6-0.2-2.2-0.2-3.3l0-5.2h1.8v11.5H46.6"/>
		<path class="st215" d="M53.6,46.9c-1,0-1.6,0.8-1.6,2.2h3.1C55.1,47.7,54.6,46.9,53.6,46.9z M52,50.4v0.1c0,1.2,0.4,2.4,2.1,2.4
			c0.8,0,1.5-0.3,2.1-0.8l0.7,1.1c-0.9,0.7-1.9,1.1-3,1.1c-2.4,0-3.9-1.7-3.9-4.4c0-1.5,0.3-2.4,1-3.3c0.7-0.8,1.5-1.1,2.6-1.1
			c0.8,0,1.6,0.2,2.3,0.9c0.7,0.7,1.1,1.7,1.1,3.6v0.4C57,50.4,52,50.4,52,50.4z"/>
		<path class="st215" d="M66.7,54.2H65l-1-3.9c-0.3-1-0.5-2.3-0.5-2.3h0c0,0-0.1,0.8-0.5,2.4l-1,3.8h-1.7l-2.3-8.3l1.8-0.2l0.9,4.1
			c0.2,0.7,0.3,1.5,0.4,2.2h0c0,0,0.2-1.1,0.5-2.3l1.1-3.9h1.8l0.9,3.8c0.3,1.4,0.5,2.4,0.5,2.4h0c0,0,0.2-1.3,0.4-2.3l0.9-3.9h1.9
			L66.7,54.2"/>
		<path class="st215" d="M42.5,58.9h-1v3.6h1c1,0,1.5-0.1,1.9-0.5c0.3-0.3,0.5-0.8,0.5-1.4C44.9,59.5,44.2,58.9,42.5,58.9z
			 M45.2,68.9l-1-1.8c-0.8-1.4-1.3-2.2-2-2.8c-0.2-0.2-0.4-0.3-0.7-0.3v4.9h-1.9V57.4h3.5c2.6,0,3.7,1.5,3.7,3.3
			c0,1.6-1.1,3.1-2.8,3.1c0.4,0.2,1.2,1.3,1.8,2.3l1.7,2.7L45.2,68.9L45.2,68.9z"/>
		<path class="st215" d="M51.6,61.7c-1,0-1.6,0.8-1.6,2.2h3.1C53.1,62.5,52.5,61.7,51.6,61.7L51.6,61.7z M50,65.2v0.1
			c0,1.2,0.4,2.4,2.1,2.4c0.8,0,1.5-0.3,2.1-0.8l0.7,1.1c-0.9,0.7-1.9,1.1-3,1.1c-2.4,0-3.9-1.7-3.9-4.4c0-1.5,0.3-2.4,1-3.3
			c0.7-0.8,1.5-1.1,2.6-1.1c0.8,0,1.6,0.2,2.3,0.9c0.7,0.7,1.1,1.7,1.1,3.6v0.4L50,65.2z"/>
		<path class="st215" d="M58.4,69c-1.8,0-1.8-1.7-1.8-2.4v-7.1c0-1.1,0-1.8-0.2-2.4l1.9-0.4c0.1,0.5,0.1,1.2,0.1,2.3v7.1
			c0,1.1,0,1.3,0.2,1.5c0.1,0.1,0.4,0.2,0.6,0.1l0.3,1.1C59.1,69,58.8,69,58.4,69"/>
		<path class="st215" d="M60.6,68.9v-8.2l1.8-0.3v8.6H60.6z M61.5,59.2c-0.7,0-1.2-0.5-1.2-1.2c0-0.7,0.5-1.2,1.2-1.2
			c0.6,0,1.2,0.5,1.2,1.2C62.7,58.7,62.2,59.2,61.5,59.2z"/>
		<path class="st215" d="M67.7,69.1c-2.3,0-3.6-1.6-3.6-4.3c0-3,1.8-4.5,3.7-4.5c0.9,0,1.6,0.2,2.3,0.9l-0.9,1.2
			c-0.5-0.4-0.9-0.6-1.4-0.6c-0.6,0-1.1,0.3-1.3,0.8c-0.2,0.5-0.3,1.3-0.3,2.3c0,1.1,0.2,1.9,0.6,2.3c0.3,0.3,0.7,0.5,1.1,0.5
			c0.6,0,1.1-0.3,1.7-0.8l0.9,1.1C69.6,68.7,68.8,69.1,67.7,69.1"/>
		<path class="st215" d="M72,67.4c-0.1,0-0.1,0-0.2,0h-0.1v0.4h0.1c0.1,0,0.2,0,0.2,0c0,0,0.1-0.1,0.1-0.1
			C72.1,67.4,72.1,67.4,72,67.4L72,67.4z M72.1,68.5c-0.1-0.1-0.1-0.1-0.1-0.2c-0.1-0.2-0.2-0.3-0.2-0.3c0,0,0,0,0,0v0.6h-0.3v-1.4
			H72c0.2,0,0.4,0.2,0.4,0.4c0,0.2-0.1,0.4-0.3,0.4c0,0,0,0,0.1,0.1c0.1,0.1,0.3,0.5,0.3,0.5H72.1L72.1,68.5z M71.9,66.8
			c-0.5,0-0.9,0.4-0.9,1s0.4,1,0.9,1c0.5,0,0.9-0.4,0.9-1S72.4,66.8,71.9,66.8z M71.9,69c-0.7,0-1.2-0.5-1.2-1.2c0,0,0,0,0,0
			c0-0.7,0.5-1.2,1.2-1.2c0,0,0,0,0,0c0.7,0,1.2,0.6,1.2,1.2c0,0,0,0,0,0C73.1,68.5,72.6,69,71.9,69C71.9,69,71.9,69,71.9,69z"/>
	</g>
</g>
</svg>
