<svg width="24" height="24" viewBox="0 0 24 24" fill="none" xmlns="http://www.w3.org/2000/svg">
<g clip-path="url(#clip0_2019_5720)">
<path d="M11.9669 24C5.51881 24 0.0505561 18.5535 0.000306129 12.0638C-0.010956 10.4984 0.288627 8.9464 0.881686 7.49771C1.47475 6.04902 2.34948 4.73247 3.45518 3.62438C4.56816 2.4845 5.89652 1.57712 7.36313 0.954935C8.82973 0.332746 10.4053 0.0081523 11.9984 4.5567e-06C13.5627 -0.00136679 15.1119 0.306806 16.5565 0.906768C18.0012 1.50673 19.3129 2.38662 20.4161 3.49575C21.5371 4.58936 22.4309 5.89385 23.046 7.33416C23.661 8.77447 23.9852 10.3222 23.9999 11.8883C24.0299 18.525 18.6967 23.9325 12.0644 24H11.9669ZM12.0044 0.62813C10.4948 0.636934 9.00186 0.945513 7.61241 1.53595C6.22295 2.12639 4.96462 2.98694 3.91043 4.06763C2.86181 5.11607 2.03171 6.36222 1.46827 7.73385C0.904822 9.10548 0.619234 10.5753 0.628056 12.0581C0.675306 18.2081 5.85781 23.3655 11.9636 23.3655H12.0453C18.3341 23.3085 23.3958 18.1811 23.3714 11.8916C23.3429 8.89463 22.1197 6.03338 19.9728 3.94163C18.93 2.88946 17.6887 2.05476 16.3208 1.48591C14.953 0.917054 13.4858 0.625742 12.0044 0.62813ZM2.69243 15.51V8.49938H4.39793V9.1275H3.49306V14.8943H4.39756V15.5224L2.69243 15.51ZM8.48056 11.9355C8.48056 13.2105 7.70431 13.9425 6.65243 13.9425C5.60056 13.9425 4.89968 13.1228 4.89968 12.0015C4.89968 10.83 5.63468 10.0039 6.70868 10.0039C7.78268 10.0039 8.48018 10.8645 8.48018 11.9351L8.48056 11.9355ZM5.63506 11.9918C5.63506 12.768 6.02506 13.3793 6.69368 13.3793C7.36231 13.3793 7.74593 12.7511 7.74593 11.9595C7.74593 11.2403 7.39118 10.5619 6.69368 10.5619C5.99618 10.5619 5.62493 11.2226 5.62493 12.0075L5.63506 11.9918ZM9.07493 10.1363C9.40894 10.0786 9.74736 10.0502 10.0863 10.0515C10.4669 10.014 10.8498 10.0991 11.1794 10.2934C11.4307 10.4415 11.5826 10.7145 11.5751 11.0059C11.5707 11.1922 11.5076 11.3723 11.3948 11.5207C11.282 11.669 11.1253 11.778 10.9469 11.832C11.3951 11.9231 11.7168 12.3173 11.7164 12.7744C11.7188 12.9246 11.6869 13.0733 11.6232 13.2094C11.5595 13.3454 11.4657 13.4652 11.3489 13.5596C11.0789 13.7985 10.6297 13.9144 9.93518 13.9144C9.64965 13.9158 9.36433 13.899 9.08093 13.8641L9.07493 10.1363ZM9.76606 11.6408H10.1208C10.6008 11.6408 10.8716 11.4146 10.8716 11.091C10.8716 10.7674 10.6016 10.566 10.1591 10.566C10.0266 10.5615 9.89395 10.5709 9.76343 10.5941L9.76606 11.6408ZM9.76606 13.3935C9.88831 13.4063 10.0109 13.4115 10.1336 13.4093C10.5836 13.4093 10.9754 13.2398 10.9754 12.7811C10.9754 12.3225 10.5922 12.153 10.1118 12.153H9.76681L9.76606 13.3935ZM13.0848 10.086H13.7786V12.561C13.7786 13.6133 13.2697 13.965 12.5223 13.965C12.3224 13.9633 12.1241 13.9294 11.9351 13.8645L12.0198 13.302C12.1591 13.3455 12.304 13.3687 12.4499 13.371C12.8456 13.371 13.0781 13.1888 13.0781 12.5291L13.0848 10.086ZM15.7548 12.1496V12.6304H14.3099V12.15L15.7548 12.1496ZM19.1249 13.7824C18.8126 13.9069 18.4777 13.9646 18.1417 13.9519C16.9323 13.9519 16.1973 13.1944 16.1973 12.0394C16.1831 11.7694 16.2261 11.4994 16.3236 11.2472C16.4212 10.995 16.571 10.7663 16.7632 10.5761C16.9554 10.386 17.1857 10.2386 17.4389 10.1438C17.6922 10.049 17.9626 10.0089 18.2324 10.026C18.5552 10.0128 18.8769 10.0707 19.1748 10.1955L19.0248 10.7483C18.7886 10.6479 18.5341 10.5976 18.2774 10.6005C17.5012 10.6005 16.9424 11.0873 16.9424 12.0045C16.9424 12.84 17.4356 13.3808 18.2711 13.3808C18.5305 13.3848 18.7881 13.3367 19.0286 13.2394L19.1249 13.7824ZM21.3044 8.48063V15.51H19.5989V14.8819H20.5034V9.1125H19.5989V8.48438L21.3044 8.48063Z" fill="#F1592A"/>
</g>
<defs>
<clipPath id="clip0_2019_5720">
<rect width="24" height="24" fill="white"/>
</clipPath>
</defs>
</svg>
