<?xml version="1.0" encoding="utf-8"?>
<!-- Generator: Adobe Illustrator 24.1.0, SVG Export Plug-In . SVG Version: 6.00 Build 0)  -->
<svg version="1.1" id="svg115845" xmlns:svg="http://www.w3.org/2000/svg"
	 xmlns="http://www.w3.org/2000/svg" xmlns:xlink="http://www.w3.org/1999/xlink" x="0px" y="0px" viewBox="0 0 566.9 566.9"
	 style="enable-background:new 0 0 566.9 566.9;" xml:space="preserve">
<style type="text/css">
	.st0{fill:#F80000;}
</style>
<g id="layer1" transform="translate(-702.6538,-712.5837)">
	<g id="g16337">
		<path id="path16197" class="st0" d="M938.8,1006.3H975l-19.1-30.7l-35,55.5h-16l42.6-66.7c1.9-2.7,4.9-4.3,8.4-4.3
			c3.3,0,6.4,1.6,8.2,4.2l42.8,66.8h-16l-7.5-12.4h-36.6L938.8,1006.3z M1104.5,1018.7v-58H1091v63.6c0,1.7,0.7,3.4,2,4.7
			c1.3,1.3,3,2,4.9,2h61.7l8-12.4H1104.5z M880.6,1008.3c13.1,0,23.8-10.6,23.8-23.8c0-13.1-10.7-23.8-23.8-23.8h-59.2v70.4h13.5
			v-58h44.8c6.3,0,11.3,5.1,11.3,11.4s-5.1,11.4-11.3,11.4l-38.2-0.1l40.4,35.2h19.7l-27.2-22.8H880.6z M738.1,1031.1
			c-19.4,0-35.2-15.7-35.2-35.2c0-19.4,15.8-35.2,35.2-35.2H779c19.4,0,35.2,15.8,35.2,35.2c0,19.4-15.8,35.2-35.2,35.2H738.1z
			 M778.1,1018.7c12.6,0,22.8-10.2,22.8-22.7c0-12.6-10.2-22.8-22.8-22.8H739c-12.6,0-22.8,10.2-22.8,22.8
			c0,12.6,10.2,22.7,22.8,22.7H778.1z M1035.1,1031.1c-19.4,0-35.2-15.7-35.2-35.2c0-19.4,15.8-35.2,35.2-35.2h48.6l-7.9,12.4H1036
			c-12.6,0-22.8,10.2-22.8,22.8c0,12.6,10.2,22.7,22.8,22.7h48.8l-8,12.4H1035.1z M1200.6,1018.7c-10.4,0-19.2-7-21.9-16.6h57.8
			l8-12.4h-65.8c2.7-9.5,11.5-16.6,21.9-16.6h39.7l8-12.4h-48.6c-19.4,0-35.2,15.8-35.2,35.2c0,19.4,15.8,35.2,35.2,35.2h41.7
			l8-12.4H1200.6"/>
		<path id="path16199" class="st0" d="M1255.6,968.2c0-3.4,2.8-6.2,6.2-6.2c3.5,0,6.2,2.8,6.2,6.2c0,3.5-2.8,6.2-6.2,6.2
			C1258.4,974.4,1255.6,971.7,1255.6,968.2z M1261.8,976.2c4.4,0,7.9-3.5,7.9-7.9c0-4.4-3.5-7.9-7.9-7.9c-4.3,0-7.9,3.5-7.9,7.9
			C1253.9,972.6,1257.5,976.2,1261.8,976.2z M1261.1,963.5c1.2,0,1.7,0.1,2.3,0.3c1.6,0.5,1.7,1.9,1.7,2.5c0,0.1,0,0.4-0.1,0.7
			c-0.1,0.3-0.3,1-1.1,1.5c-0.1,0.1-0.2,0.1-0.4,0.2l2,3.7h-2l-1.8-3.4h-1.2v3.4h-1.7v-8.9H1261.1z M1261.7,967.6
			c0.6-0.1,1.1-0.1,1.5-0.6c0.2-0.2,0.2-0.4,0.2-0.8c0-0.4-0.3-0.8-0.7-1.1c-0.4-0.2-0.8-0.2-1.6-0.2h-0.5v2.6H1261.7"/>
	</g>
</g>
</svg>
