<svg id="Flat" height="512" viewBox="0 0 512 512" width="512" xmlns="http://www.w3.org/2000/svg"><g><path d="m248 488 16-24 63.922-12.784a20 20 0 0 0 16.078-19.616v-23.6h-120v-192h-34.667a20 20 0 0 0 -18.461 12.308l-34.872 83.692v88l-48 72v16z" fill="#ffd4cf"/><g><rect fill="#b3e9ff" height="408" rx="20" width="224" x="200" y="24"/><path d="m200 392h224a0 0 0 0 1 0 0v20a20 20 0 0 1 -20 20h-184a20 20 0 0 1 -20-20v-20a0 0 0 0 1 0 0z" fill="#4dccff"/></g><path d="m192 280h26a30 30 0 0 0 30-30v-34h-56z" fill="#ffd4cf"/><g><path d="m240 96h144v112h-144z" fill="#f29a49" transform="matrix(-1 0 0 -1 624 304)"/><path d="m288 96h48v32h-48z" fill="#fac850" transform="matrix(-1 0 0 -1 624 224)"/><path d="m240 96h144l-16-32h-112z" fill="#994635"/></g><rect fill="#fac850" height="48" rx="24" transform="matrix(-1 0 0 -1 624 656)" width="128" x="248" y="304"/><g fill="#ff7f45"><circle cx="384" cy="256" r="16"/><circle cx="312" cy="256" r="16"/></g><path d="m124 144-9.899 18.101-18.101 9.899 18.101 9.899 9.899 18.101 9.899-18.101 18.101-9.899-18.101-9.899z" fill="#fac850"/><g fill="#fffdfa"><path d="m336 168h24v16h-24z"/><path d="m264 168h24v16h-24z"/></g></g></svg>