<?xml version="1.0" encoding="utf-8"?>
<!-- Generator: Adobe Illustrator 24.1.0, SVG Export Plug-In . SVG Version: 6.00 Build 0)  -->
<svg version="1.1" id="Layer_1" xmlns="http://www.w3.org/2000/svg" xmlns:xlink="http://www.w3.org/1999/xlink" x="0px" y="0px"
	 viewBox="0 0 2294 2500" style="enable-background:new 0 0 2294 2500;" xml:space="preserve">
<style type="text/css">
	.st0{fill:#1B92F3;}
</style>
<path class="st0" d="M2173.5,364.3c-7.4-192.7-176.8-233.1-176.8-233.1s-587.1-88.5-844.3-120.6c-257.3-32.3-241.3,217-241.3,217
	s58.4,1817.1,64.5,2042.1c6.9,268.1,257.2,225,257.2,225l884.5-153c160.8-32.2,168.8-233,168.8-233S2181.7,574.7,2173.5,364.3
	C2166.1,171.6,2181.7,574.7,2173.5,364.3z M1975.6,1907.8l-657.7,68.1c0,0-191.5,29.2-195.9-203.5
	C1118.9,1601,1081,618.9,1081,618.9s-13.2-180.1,183.9-165.3c201.2,14.9,683.2,51.6,683.2,51.6s129.1,30.7,134.7,177.8
	c6.1,159.8,61.7,1047.5,61.7,1047.5S2159.1,1876.4,1975.6,1907.8L1975.6,1907.8z M365.6,1643.1l-121.5,8.6
	c0,0-122.6,16.6-125.4-117.5c-2-98.8-14.3-659.9-14.3-659.9S95.9,770.5,222,779c32,2.1,77.3,5,127.3,8c-1.7-93-3.2-174.4-4.4-236.3
	c-69.4-5.2-134.3-10.9-180.7-15.8C-2.3,516.6,7.9,656.4,7.9,656.4S28,1685.3,31.7,1811.5c4.6,150.4,166.5,126,166.5,126L371,1919
	C369.5,1844.4,367.5,1749.3,365.6,1643.1L365.6,1643.1z M848.8,707.9c-0.5-12.1-2.5-24.2-6.1-35.8c-53.2-4.3-186.7-39.1-229.6,6.1
	c-27.1,28.5-15.9,88.5-15.3,122.6l96.9,5.5c0,0,82.6,17.7,86.1,102.3c3.8,92.3,3.3,609.2,3.3,609.2s9.3,84.3-107.9,102.2l-61.5,4.6
	c0.3,18.3,0.7,33.1,0.8,44.1c2.6,147.4,159.3,100.2,257.7,90.6c8.5-156.4-6.6-317.4-10-473.9C859.1,1093,857.5,900.2,848.8,707.9
	C848.2,694.8,854.1,825.6,848.8,707.9L848.8,707.9z"/>
<path class="st0" d="M899.7,1819.7l-177.2,17.1c0,0-165.2,23.7-168.8-166.6c-2.6-140.5-19.2-936.9-19.2-936.9
	s-11.5-147.2,158.1-135.4c43.6,3,103.5,7.9,168.7,13.1c-4.9-152.8-8.8-273.3-10.8-335.4c-89.3-8.7-173.4-17.5-235.7-24.6
	c-224.1-25.4-210,172.7-210,172.7s26.6,1460.8,31.9,1639.3c6.1,213.4,224.1,179.1,224.1,179.1l250.9-32.1
	C909.2,2126.9,905,1987.3,899.7,1819.7L899.7,1819.7z M1260.2,515.7c-31.4-2.5-69.5-0.4-92.7,24.1c-24.6,25.7-25,62.2-23.6,95.3
	c88.9,7.7,153.4,13.4,153.4,13.4s111,25,116.1,145.3c5.1,130.9,36.9,842,36.9,842s12.4,119.6-145.4,145.4l-119.5,11.5
	c15.9,186.8,257.4,108,381,95.2c-12.7-280.9-52-1149.7-60.9-1353.7C1423.8,527.7,1342,521.6,1260.2,515.7
	C1254,515.2,1322.3,520.1,1260.2,515.7L1260.2,515.7z"/>
</svg>
