<?xml version="1.0" encoding="utf-8"?>
<!-- Generator: Adobe Illustrator 24.1.0, SVG Export Plug-In . SVG Version: 6.00 Build 0)  -->
<svg version="1.1" id="Layer_1" xmlns="http://www.w3.org/2000/svg" xmlns:xlink="http://www.w3.org/1999/xlink" x="0px" y="0px"
	 viewBox="0 0 431 444.2" style="enable-background:new 0 0 431 444.2;" xml:space="preserve">
<style type="text/css">
	.st0{fill:#336791;}
	.st1{fill:#FFFFFF;}
	.st2{fill:none;stroke:#FFFFFF;stroke-width:3;stroke-linecap:round;stroke-linejoin:round;}
</style>
<g id="orginal">
</g>
<g>
	<path class="st0" d="M422.6,275.6c-56.1,11.6-59.9-7.4-59.9-7.4c59.2-87.7,83.9-199.2,62.6-226.4C367-32.6,266.2,2.5,264.5,3.4
		L264,3.5c-11-2.3-23.5-3.7-37.4-3.9c-25.4-0.4-44.6,6.7-59.2,17.7c0,0-179.8-74-171.4,93.1C-2.1,146,47,379.7,105.8,309
		c21.5-25.8,42.2-47.6,42.2-47.6c10.3,6.8,22.6,10.3,35.6,9l1-0.8c-0.3,3.2-0.2,6.4,0.4,10.1c-15.1,16.9-10.7,19.9-40.9,26.1
		c-30.6,6.3-12.6,17.5-0.8,20.5c14.2,3.5,47.2,8.6,69.3-22.5l-0.8,3.5c5.9,4.8,10.1,30.9,9.3,54.6c-0.7,23.7-1.2,39.9,3.5,52.7
		c4.7,12.7,9.3,41.3,49.1,32.7c33.2-7.1,50.4-25.6,52.8-56.3c1.7-21.9,5.5-18.6,5.7-38.2l3.1-9.2c3.5-29.6,0.5-39.2,21-34.7l5,0.4
		c15.1,0.6,34.7-2.4,46.3-7.8C432.3,289.8,447.1,270.5,422.6,275.6L422.6,275.6z"/>
</g>
<g>
	<path class="st1" d="M262.4,456.2c-33.2,0-43.8-26.3-48.1-37.1c-6.3-16.1-7.6-77-6.2-126.8c0.1-3.7,3.2-6.5,6.8-6.4
		c3.7,0.1,6.5,3.2,6.4,6.8c-1.6,56.5,0.7,109.9,5.3,121.5c7.2,18,18.2,33.8,49.2,27.2c29.8-6.4,40.4-17.1,45.4-46
		c3.8-22,11.2-84.3,12.1-96.5c0.3-3.6,3.5-6.4,7.1-6.1c3.6,0.3,6.4,3.5,6.1,7.1c-1,12.7-8.4,74.9-12.3,97.8
		c-5.9,33.9-21,49.2-55.7,56.7C272.7,455.7,267.3,456.2,262.4,456.2z"/>
</g>
<g>
	<path class="st1" d="M83,328.1c-3.2,0-6.1-0.6-8.6-1.4c-21.6-7.2-42.1-42.3-61-104.3C-1,175.3-10.2,126.1-11,110
		C-13.4,62.6-1.1,29,25.4,10.2C77.8-27,165.9,8.4,169.7,9.9c3.4,1.4,5,5.2,3.6,8.6c-1.4,3.4-5.2,5-8.6,3.6
		c-1-0.4-85.2-34.1-131.6-1.1C10.5,37,0.1,66.7,2.3,109.4c0.7,13.5,9.2,61.5,23.8,109.2c16.9,55.2,36,90.1,52.6,95.6
		c2.6,0.9,10.4,3.5,21.7-10.1c21.4-25.7,41-46.2,41.2-46.4c2.5-2.6,6.7-2.7,9.4-0.2c2.6,2.5,2.7,6.7,0.2,9.4
		c-0.2,0.2-19.5,20.4-40.6,45.7C100.4,324.6,90.8,328.1,83,328.1z"/>
</g>
<g>
	<path class="st1" d="M362.2,274.1c-1.3,0-2.6-0.4-3.7-1.1c-3-2-3.8-6.2-1.8-9.2c59.7-88.7,80.8-195.8,62.8-218.8
		C397,16.2,365.2,1.1,324.9,0.2c-29.9-0.7-53.5,6.9-57.5,8.3c-0.4,0.2-0.7,0.3-1.1,0.5c-4,1.2-7.1-1-8.2-3.6
		c-1.4-3.1-0.2-6.7,2.7-8.4c2.6-1.6,30-10.4,62.5-10.1c44.7,0.5,81.6,17.8,106.8,49.9c11.9,15.3,12,50.4,0.1,96.3
		c-12.1,46.8-34.8,97.1-62.4,138C366.5,273.1,364.4,274.1,362.2,274.1z"/>
</g>
<g>
	<path class="st1" d="M365.3,315.2c-10.3,0-19.5-1.4-25-4.7c-5.7-3.4-6.8-8.1-6.9-10.5c-1.5-26.8,13-31.8,20.8-34.1
		c-1-1.5-2.5-3.3-3.9-5.1c-4.5-5.5-10.5-13.1-15.2-24.5c-0.7-1.7-3-5.8-5.7-10.6C315,199.8,285,146,304.3,118.3
		c8.9-12.7,26.6-17.8,52.6-15.1C349,79.6,312.2,7,226.1,5.5c-26.1-0.4-47.4,7.6-63.5,23.8c-36,36.3-34.7,102.2-34.7,102.8
		c0.1,3.7-2.8,6.7-6.4,6.8c-3.7,0.1-6.7-2.8-6.8-6.4c-0.1-2.9-1.4-72.2,38.5-112.5c18.7-18.9,43.3-28.2,73.1-27.7
		c55.7,0.9,91.5,29.3,111.8,52.9c22.1,25.8,32.9,54.1,33.7,63.5c0.7,7.3-5,8.7-5.6,8.8l-2.3,0c-17.6-2.8-40.3-3.6-48.7,8.4
		c-14.6,20.8,13.7,71.6,25.8,93.3c3.1,5.5,5.3,9.6,6.3,12c3.9,9.6,9.1,16.1,13.3,21.3c3.7,4.6,6.9,8.5,8,13.2
		c0.5,0.9,8,11.8,52.2,2.7c11.2-2.3,18-0.3,20.1,5.9c4.1,12.3-18.5,26.5-31,32.3C398.7,311.9,380.8,315.2,365.3,315.2z M346.6,298.8
		c1.5,1.4,8.7,3.8,23.1,3.1c12.9-0.6,26.5-3.4,34.6-7.1c10-4.7,16.9-9.9,20.6-13.6c-0.4,0.1-0.9,0.2-1.4,0.3
		c-28.5,5.9-48.6,5.1-59.8-2.4c-0.8-0.5-1.5-1-2.1-1.6c-1.1,0.4-2.2,0.7-2.9,0.9C352.3,280.2,345.8,282,346.6,298.8z M430.3,280.8
		L430.3,280.8L430.3,280.8z M355.8,269C355.8,269,355.8,269,355.8,269C355.8,269,355.8,269,355.8,269z M368.6,265.8
		c0,0.1,0,0.2,0.1,0.3c0,0,0,0.1,0,0.1C368.7,266.2,368.7,266,368.6,265.8z"/>
</g>
<g>
	<path class="st1" d="M163.3,335c-7.1,0-14.5-1-22.2-2.9c-7.9-2-21.3-8-21.1-17.8c0.2-11.1,16.2-14.3,22.2-15.6
		c21.5-4.5,22.9-6.2,29.6-14.8c2-2.5,4.4-5.6,7.7-9.2c11-12.5,21.3-8,25.8-6.1c6.9,2.9,12.7,9.8,15,18c2.2,7.5,1.1,14.8-2.9,20.4
		C204.3,325.5,185.5,335,163.3,335z M134.5,314.9c2,1.5,5.7,3.4,9.9,4.4c18.6,4.7,44.5,5.1,62.3-19.9c2.2-3.1,1.5-7,1-9
		c-1.2-4.3-4.3-8.2-7.4-9.5c-0.1,0-0.1,0-0.2-0.1c-3.7-1.6-6-2.6-10.6,2.7c0,0,0,0,0,0c-3,3.4-5.2,6.2-7.2,8.6
		c-8.4,10.7-12.3,14.4-37.3,19.6C139.2,312.9,136.1,314.1,134.5,314.9z M184.5,279.1L184.5,279.1L184.5,279.1z"/>
</g>
<g>
	<path class="st1" d="M183.4,285.4c-3.2,0-6-2.4-6.5-5.6c-0.1-1-0.2-1.9-0.3-2.9c-16.3-0.3-32-7.3-44-19.8
		c-15.2-15.9-22.2-37.8-19-60.3c3.4-24.5,2.1-46,1.4-57.5c-0.2-3-0.3-5.2-0.3-6.8c0-2.1,0-7.6,18.1-16.8c6.4-3.3,19.2-8.9,33.2-10.4
		c23.5-2.5,39,7.9,43.6,29.3c12.4,57.4,1,82.7-7.4,101.3c-1.5,3.4-3,6.6-4.1,9.7l-1.1,2.9c-4.3,11.7-8.1,21.8-7,29.4
		c0.5,3.6-2,7-5.6,7.5C184,285.4,183.7,285.4,183.4,285.4z M127.9,134.2c0.1,1.1,0.1,2.6,0.2,4.2c0.7,11.1,2,34.3-1.5,60.1
		c-2.6,18.4,3.1,36.4,15.5,49.3c9.7,10.1,22.5,15.7,35.7,15.7c0.1,0,0.1,0,0.2,0c1.5-6.2,3.9-12.7,6.5-19.8l1.1-2.9
		c1.3-3.5,2.9-6.9,4.5-10.5c8-17.8,18-39.9,6.5-93c-2.3-10.4-7.7-16.5-16.7-18.5C161.5,114.8,133.9,128.6,127.9,134.2z"/>
</g>
<g>
	<path class="st1" d="M166.5,131.2c-0.3,2.2,4.1,8.3,10,9.1c5.8,0.8,10.8-3.9,11.2-6.2s-4.1-4.8-10-5.6
		C171.8,127.9,166.8,129,166.5,131.2L166.5,131.2z"/>
	<path class="st1" d="M177.9,142.7c-0.6,0-1.1,0-1.7-0.1c-6.8-1-12.4-8-11.8-11.6v0c0.6-4.2,7.3-5.3,13.6-4.5
		c6.2,0.9,12.5,3.8,11.9,8.1c-0.2,1.7-1.7,3.7-3.9,5.3C184.5,141,181.6,142.7,177.9,142.7z M168.7,131.7c0.3,1.5,3.7,5.9,8.1,6.5
		c4.5,0.6,8.1-2.9,8.6-4.2c-0.5-0.7-3.1-2.5-8.1-3.2C172.5,130.2,169.4,131.1,168.7,131.7z"/>
</g>
<g>
	<path class="st1" d="M338,131c0.3,2.1-3.9,8-9.6,8.7c-5.5,0.7-10.3-3.7-10.6-5.9c-0.3-2.1,3.9-4.6,9.6-5.3
		C333,127.7,337.8,128.9,338,131L338,131z"/>
	<path class="st1" d="M327.2,140.9c-5.5,0-10.1-4.3-10.5-7c-0.1-0.5,0-1.4,0.7-2.3c1.5-2,5.3-3.6,9.8-4.2c4.6-0.6,8.7,0,10.7,1.5
		c0.9,0.7,1.1,1.5,1.2,2c0.2,1.6-1.1,3.7-1.8,4.5c-2.3,3-5.5,5-8.8,5.5C328.1,140.9,327.7,140.9,327.2,140.9z M330.8,129.4
		c-1,0-2,0.1-3.2,0.2c-4.4,0.6-7.4,2.2-8.3,3.4c-0.1,0.2-0.3,0.5-0.3,0.7c0.2,1.5,4.3,5.7,9.4,5c3.1-0.4,5.8-2.6,7.3-4.6
		c1.1-1.4,1.4-2.5,1.3-2.9l0-0.1c0-0.2-0.2-0.4-0.4-0.5C335.7,129.9,333.6,129.4,330.8,129.4z"/>
</g>
<g>
	<path class="st1" d="M346.1,255.8c-1.3,0-2.6-0.4-3.7-1.1c-3-2-3.8-6.2-1.8-9.2c12.9-19.3,10.6-39.1,8.3-58.2
		c-1-8.2-2-16.7-1.7-24.8c0.3-8.3,1.3-15.1,2.4-21.7c1.2-7.9,2.4-15.4,1.9-24.3c-0.2-3.6,2.6-6.8,6.2-7c3.6-0.2,6.8,2.6,7,6.2
		c0.6,10.3-0.7,18.8-2,27.1c-1,6.2-2,12.7-2.2,20.2c-0.2,7.1,0.7,14.7,1.7,22.8c2.5,20.5,5.3,43.8-10.4,67.1
		C350.3,254.7,348.2,255.8,346.1,255.8z"/>
</g>
<g>
	<path class="st2" d="M-14.4,48.9"/>
</g>
</svg>
