<?xml version="1.0" encoding="utf-8"?>
<!-- Generator: Adobe Illustrator 24.1.0, SVG Export Plug-In . SVG Version: 6.00 Build 0)  -->
<svg version="1.1" id="Capa_1" xmlns="http://www.w3.org/2000/svg" xmlns:xlink="http://www.w3.org/1999/xlink" x="0px" y="0px"
	 viewBox="0 0 490.7 490.7" style="enable-background:new 0 0 490.7 490.7;" xml:space="preserve">
<style type="text/css">
	.st0{fill:#607D8B;}
	.st1{fill:#B0BEC5;}
	.st2{fill:#F44336;}
	.st3{fill:#F5F5F5;}
	.st4{fill:#6ED868;}
	.st5{fill:#FFFFFF;}
</style>
<path class="st0" d="M145.3,420.3c-2.2-2.2-3.1-5.3-2.5-8.3l13.9-69.4c0.9-4.2-1.9-8.4-6.1-9.2c-0.5-0.1-1-0.2-1.6-0.2H54.9
	c-4.3,0-7.8,3.5-7.9,7.8c0,2.1,0.8,4.1,2.3,5.6l29.1,29.1v58.4c0,13.1,6.5,25.3,17.5,32.6l33.1,22c3.1,2.1,7.2,1.7,9.9-1l6.5-6.5
	c7.4-7.3,11.5-17.3,11.5-27.7V448C156.8,437.6,152.7,427.6,145.3,420.3z"/>
<ellipse class="st1" cx="282.2" cy="286.1" rx="54.9" ry="149"/>
<g>
	<path class="st2" d="M274.4,239c-4.3,0-7.8,3.5-7.8,7.8v78.4c0,4.3,3.5,7.8,7.8,7.8c23.7-2.4,41.1-23.3,39.2-47
		C315.5,262.3,298.1,241.4,274.4,239z"/>
	<path class="st2" d="M149,333.1c-28.9,0-39.2-25.3-39.2-47c0-21.7,10.3-47,39.2-47c4.3,0,7.8-3.5,7.8-7.8s-3.5-7.8-7.8-7.8H62.7
		C28.1,223.4,0,251.4,0,286.1s28.1,62.7,62.7,62.7H149c4.3,0,7.8-3.5,7.8-7.8C156.8,336.6,153.3,333.1,149,333.1z"/>
</g>
<g>
	<path class="st3" d="M235.2,286.1c0-52.5,10.3-100.7,26.9-125.8c2.4-3.6,1.4-8.5-2.2-10.9c-2.7-1.8-6.2-1.7-8.9,0.1l-104.7,73.8
		c-30.9,1.4-52.3,26.8-52.3,62.7s21.4,61.3,52.3,62.7L251,422.7c3.5,2.5,8.4,1.7,10.9-1.9c1.9-2.6,1.9-6.2,0.1-8.9
		C245.5,386.7,235.2,338.5,235.2,286.1z"/>
	<path class="st3" d="M282.2,442.9c-40.8,0-62.7-80.8-62.7-156.8s22-156.8,62.7-156.8s62.7,80.8,62.7,156.8S323,442.9,282.2,442.9z
		 M282.2,145c-22.2,0-47,58-47,141.1s24.8,141.1,47,141.1c22.2,0,47-58,47-141.1S304.5,145,282.2,145z"/>
</g>
<circle class="st4" cx="413.7" cy="78.3" r="78"/>
<path class="st5" d="M368.2,80l17.9,24.4c1.8,2.5,5.3,3,7.8,1.3l64-44.9c2.6-1.9,3.2-5.6,1.2-8.1l-0.6-0.7c-1.8-2.3-5.2-2.9-7.6-1.2
	l-54.3,37.3c-2.4,1.6-5.6,1.2-7.5-1L377,73c-1.9-2.2-5.2-2.6-7.6-0.9v0C366.9,73.9,366.4,77.5,368.2,80z"/>
</svg>
