<?xml version="1.0" encoding="utf-8"?>
<!-- Generator: Adobe Illustrator 24.1.0, SVG Export Plug-In . SVG Version: 6.00 Build 0)  -->
<svg version="1.1" id="Layer_1" xmlns="http://www.w3.org/2000/svg" xmlns:xlink="http://www.w3.org/1999/xlink" x="0px" y="0px"
	 viewBox="0 0 283.5 283.5" style="enable-background:new 0 0 283.5 283.5;" xml:space="preserve">
<style type="text/css">
	.st0{fill:#FEFEFE;}
	.st1{fill:#ECECEC;}
	.st2{fill:#F1F1F1;}
	.st3{fill:#D7D7D7;}
	.st4{fill:#2D4466;}
	.st5{fill:#CED7DC;}
	.st6{fill:#607D8A;}
	.st7{fill:#4BD543;}
	.st8{fill:#4CD543;}
</style>
<path class="st0" d="M36.7,38.8c0-7.4,0-14.8,0-22.2c0-3.3,1-6.3,2.9-9c1.9-2.1,3.8-4.2,6.4-5.4c2-1,4.2-1.8,6.4-1.8
	c65.9,0,131.7,0,197.6,0c3.8,0,6.5,2,8.9,4.5c3.4,3.5,4.9,7.8,4.9,12.7c0,69.8,0,139.6,0,209.3c0,6.8-2.9,12-8.6,15.6
	c-1.6,1-3.4,1.5-5.3,1.6c-1.3,0.1-2.6-0.2-3.9,0.2l0.1,0c-0.5,0.6-1.2,0.7-2,0.7c-5.5,0-10.9,0.1-16.4-0.1c-1.1,0.1-2.1,0.1-3.2,0.1
	c-56.6,0-113.2,0-169.8,0c-3.8,0-7.3-0.6-10.5-2.7c-5.3-3.5-8.3-8.3-8.3-14.7c-0.1-30.1,0-60.2,0-90.2c0-31.6,0-63.2,0-94.8
	C36,41.2,35.7,39.8,36.7,38.8z"/>
<path class="st1" d="M36.7,38.8c0,1.5,0,2.9,0,4.4c0,61.5,0,122.9,0,184.4c0,8.2,5.4,13.9,12.5,16.1c1.5,0.5,3.2,0.5,4.9,0.5
	c57,0,114,0,170.9,0c0.9,0,1.8,0,2.7,0c0.7,0.6,0.7,1.4,0.7,2.2c0,7,0.1,14,0,21.1c-0.1,6-5,12.6-10.6,14.6c-1.4,0.5-3,0.7-4.5,0.7
	c-65.2,0-130.3,0-195.5,0c-0.5,0-1,0.1-1.5-0.2c-7.8-0.8-14.2-8-14.4-15.8c0-1.2,0-2.5,0-3.7c0-68.2,0-136.3,0-204.5
	c0-4.3,0.2-8.4,2.7-12c3.4-5,8.1-7.6,14.1-7.7C24.8,38.8,30.8,38.8,36.7,38.8z"/>
<path class="st2" d="M246.1,244.2c0.4-0.4,0.9-0.4,1.4-0.4c4.1,0.4,7.1-1.7,10-4.2c2.9-2.5,4.6-5.8,5.3-9.6c0.3-1.5,0.3-2.9,0.3-4.4
	c0-69.3,0-138.6,0-208c0-7.2-3.3-12.4-9.4-16c-1.5-0.9-3.1-1.3-5-1.3c-65,0.1-129.9,0-194.9,0.1c-4.8,0-9,1.8-12.3,5.5
	c-0.6,0.6-1.1,1.3-1.9,1.6c2.9-4.6,7.2-6.9,12.5-7.4C54.5-0.1,56.9,0,59.3,0c67.7,0,135.5,0,203.2,0c5.6,0,10.3,1.6,14,5.9
	c2.9,3.3,4.2,7.2,4.2,11.5c0,62,0,124,0,185.9c0,7.8,0,15.5,0,23.3c0,7.7-4.1,13.7-11.3,16.5c-2,0.8-4.2,1-6.3,1
	C257.4,244.2,251.8,244.2,246.1,244.2z"/>
<path class="st3" d="M16.4,282.6c21,0,42,0,63,0c43.8,0,87.6-0.1,131.5,0.1c9.5,0.1,17.1-8.6,16.9-16.9c-0.2-7.2,0-14.4,0-21.6
	c6.1,0,12.3,0,18.4,0c0,7,0,14-0.1,21.1c0,6.6-2.7,11.8-8.4,15.3c-2.5,1.5-5.2,2.3-8.1,2.3c-6.7,0.1-13.4,0.1-20.1,0.1
	c-62.8,0-125.6,0-188.5,0C19.6,282.9,18,283.2,16.4,282.6z"/>
<path class="st4" d="M60.2,116.4c0-9.2-0.1-18.3-0.1-27.5c0-1.5,0-3.1,0-4.6c0.1-1.8,1.4-3.5,3.1-3.6c5-0.2,10.1-0.6,15.1,0.3
	c3.4,0.6,6.1,2.6,8.2,5.4c5.8,7.6,13.6,11,23.1,10.9c4.6-0.1,9-0.5,13.2-2.3c3.2-1.4,6.2-3.2,8.5-5.8c7.8-8.6,21.1-11.4,33.2-4.6
	c14.1,7.8,28.4,15.3,42.6,22.8c6.7,3.5,13.8,6.1,21.2,7.9c0,1-0.8,1-1.4,1.1c-4.2,0.9-7.5,3.3-10.6,6.1c-7.4,6.6-13.5,14.4-19,22.6
	c-0.7,1-1.2,2.2-2.4,2.7c-1,0.1-2,0.1-3.1,0.1c-28.8,0-57.7,0-86.5,0c-1.1,0-2.2,0-3.2-0.1c-1.1-0.5-1.4-1.4-1.6-2.4
	c-1.1-5.9-3.4-11.3-7-16.2c-4.6-6-10.5-10.2-17.6-12.7c-3.4-1.2-6.9-1.6-10.5-1.9c-1.3-0.1-2.6,0.3-3.6,1.3
	C61.4,116.1,61,116.7,60.2,116.4z"/>
<path class="st5" d="M101.7,147c1.7,0,3.4,0.1,5.1,0.1c28.9,0,57.9,0,86.8,0c0.6,0,1.2-0.1,1.9-0.1c0.7-0.6,1.6-0.7,2.6-0.7
	c19.6,0,39.2,0,58.8,0c0.9,0,1.8,0,2.5,0.7c0.7,5.3,0.9,10.6,0,15.8c-1,5.9-7,9.4-13.1,9.4c-57.7-0.1-115.3,0-173,0
	c-5,0-8.8-2.1-11.5-6.2c-1.1-1.7-1.5-3.7-1.5-5.7c0-4.4,0-8.8,0-13.3c0.5-0.7,1.3-0.8,2.1-0.8c12.4,0,24.8,0,37.1,0
	C100.3,146.2,101.1,146.4,101.7,147z"/>
<path class="st6" d="M259.3,146.9c-0.4,0-0.9,0.1-1.3,0.1c-20.3,0-40.6,0-60.9,0c-0.6,0-1.1-0.1-1.7-0.1c1.2-2.8,3.1-5.1,4.9-7.5
	c4.4-6,9-11.7,14.5-16.8c2.9-2.7,6-5,9.7-6.5c1.3-0.5,2.6-0.7,3.9-1.1c14.1,3.2,23.8,11.4,29.1,24.9
	C258.4,142.2,258.8,144.6,259.3,146.9z"/>
<path class="st6" d="M101.7,147c-13.8,0-27.6,0-41.5,0c0-10.2,0-20.4,0-30.6c2.3-3.7,5.9-2.7,9.2-2.3c10.8,1.5,19.3,6.8,25.7,15.7
	c3.4,4.7,5.5,10,6.3,15.7C101.4,146,101.6,146.5,101.7,147z"/>
<path class="st7" d="M156,109.6c-3.3,0-5.3-3-4-5.8c0.6-1.2,1.4-2.3,2.2-3.4c2.1-3.2,4.2-6.3,6.3-9.5c1.4-2.1,3.9-2.7,5.9-1.5
	c2,1.2,2.5,3.9,1.2,6c-2.6,4-5.3,8-8,12C158.7,108.8,157.5,109.7,156,109.6z"/>
<path class="st8" d="M197.4,105.5c3.4,0,5.3,3.5,3.4,6.5c-2,3.3-4.2,6.4-6.4,9.6c-0.6,0.8-1.1,1.7-1.7,2.6c-1.5,2.2-4.1,2.8-6.1,1.5
	c-2.1-1.4-2.5-3.8-1-6.1c2.6-4,5.2-7.9,7.9-11.9C194.6,106.3,195.7,105.4,197.4,105.5z"/>
<path class="st8" d="M184.9,101.4c0.1,0.8-0.2,1.6-0.7,2.3c-2.6,4-5.2,7.9-7.9,11.8c-1.9,2.7-4.4,3.2-6.5,1.4
	c-1.6-1.4-2.1-3.6-0.9-5.5c2.7-4.2,5.5-8.4,8.4-12.5c1.2-1.7,3.1-2.2,4.9-1.6C183.8,97.9,184.9,99.6,184.9,101.4z"/>
</svg>
