<?xml version="1.0" encoding="utf-8"?>
<!-- Generator: Adobe Illustrator 24.1.0, SVG Export Plug-In . SVG Version: 6.00 Build 0)  -->
<svg version="1.1" id="Layer_1" xmlns="http://www.w3.org/2000/svg" xmlns:xlink="http://www.w3.org/1999/xlink" x="0px" y="0px"
	 viewBox="0 0 283.5 283.5" style="enable-background:new 0 0 283.5 283.5;" xml:space="preserve">
<style type="text/css">
	.st0{fill:#B169A3;}
	.st1{fill:#002C89;}
	.st2{fill:#009AE0;}
	.st3{fill:#002C8A;}
	.st4{fill:#009BE1;}
	.st5{fill:#012C8A;}
	.st6{fill:#019BE1;}
	.st7{fill:#FEFEFE;}
	.st8{fill:#FEFDFE;}
	.st9{fill:#FEFDFD;}
	.st10{fill:#001F6B;}
	.st11{fill:#F8F9FB;}
	.st12{fill:#F8FCFD;}
	.st13{fill:#FCFCFD;}
	.st14{fill:#FBFDFE;}
	.st15{fill:#B169A4;}
	.st16{fill:#B269A4;}
	.st17{fill:#B26AA4;}
	.st18{fill:#B673A9;}
	.st19{fill:#FDFCFD;}
</style>
<path class="st0" d="M283.4,97.9c-1,0-2-0.1-3-0.1c-92.5,0-184.9,0-277.4,0c-1,0-2,0-3,0.1c0-30.5,0-61,0-91.6C0,1.7,1.9,0,6.9,0
	c30.9,0,61.7,0,92.6,0c58.7,0,117.4,0,176.2,0c6.5,0,7.9,1.3,7.9,7.7C283.5,37.8,283.4,67.8,283.4,97.9z"/>
<path class="st1" d="M129.6,198.8c-4.4,0-8.9,0-13.3,0c-4.4,0-4.8-0.3-4.1-4.6c2.4-15.3,4.8-30.6,7.3-45.9c0.9-6,2-11.9,2.8-17.9
	c0.4-3.1,2.1-4.6,5.1-4.5c10,0.2,20-0.6,30,0.6c4,0.5,7.8,1.3,11.1,3.7c5.9,4.2,6.9,10.2,6,16.8c-0.2,0.1-0.3,0.2-0.5,0.3
	c-3.9,0.3-7.5-1.1-11.3-1.4c-6.4-0.6-12.8-0.2-19.2-0.3c-2.9,0-4.1,1.8-4.5,4.4c-1.1,7.7-2.6,15.3-3.5,23.1
	c-1.6,7.3-2.2,14.8-3.7,22.1C131.5,196.6,131.2,198.1,129.6,198.8z"/>
<path class="st2" d="M129.6,198.8c1.2-7.2,2.4-14.3,3.5-21.5c0.3-1.6,0.6-3.2,1.4-4.6c0.8-2.3,2.7-2.6,4.8-2.8c2.7-0.1,5.3,0,8-0.1
	c12.7,0,21.3-6.6,24.9-18.7c0.5-1.5,0.6-3.2,2.1-4.3c0.1,0,0.2,0,0.3,0.1c4.8,2.6,6.7,6.9,6.8,12.1c0.2,15.8-9.6,25.9-25.5,26.1
	c-5.5,0.1-5.8,0.4-6.6,5.7c-0.7,4.5-1.4,9-2.1,13.4c-0.3,2.3-1.6,3.5-4,3.5c-3.7,0-7.5-0.1-11.2,0c-2.7,0.1-3.6-1-3.1-3.6
	C129.3,202.5,129.4,200.6,129.6,198.8z"/>
<path class="st3" d="M76.4,221.1c3.1,0.1,6.3-0.2,9.4,0.5c4.6,1.1,6.9,4,6.8,8.8c-0.2,8.7-5.3,13.7-14.4,14
	c-5.8,0.1-5.4-1.1-6.5,5.8c-0.9,6-1.9,6.7-7.9,5.8c-1.5-0.2-1.7-0.7-1.4-2.3c1.6-9.4,3.1-18.8,4.4-28.2c0.4-3.3,1.7-4.8,5.1-4.3
	C73.3,221.3,74.8,221.1,76.4,221.1z"/>
<path class="st4" d="M166.3,221.1c3,0.1,6.1-0.2,9,0.5c4.7,1.1,6.9,3.9,6.9,8.7c-0.1,8.4-4.8,13.4-13.3,14c-6.8,0.5-6.8,0.5-7.9,7.5
	c-0.3,1.9,0.1,4.3-3.3,4.2c-7-0.2-6.2,0.5-5.1-6c1.4-8.4,2.8-16.7,3.9-25.2c0.4-2.9,1.5-4.1,4.5-3.8
	C162.8,221.3,164.5,221.1,166.3,221.1z"/>
<path class="st5" d="M112.4,256c-1.2-0.5-3.1,1-3.7-1.5c-0.3-1.3-1.1-0.1-1.5,0.1c-6.5,3.1-12.1,2.3-14.9-2.3
	c-3.2-5.2-1.4-13.5,4.1-17.4c4.4-3.1,9.2-3.9,14.1-1.1c0.9,0.5,1,0.5,1.9-0.3c1.9-1.7,4.6-0.7,7-0.5c0.8,0,0.7,1.1,0.6,1.8
	c-1,6.4-1.9,12.9-3,19.3C116.5,256.9,114.1,255.6,112.4,256z"/>
<path class="st6" d="M202.2,256c-1.3-0.5-3.3,1-3.8-1.6c-0.2-0.8-0.9,0-1.4,0.2c-7.5,3.5-13.6,2-15.8-4c-2.6-6.8,1.7-15.5,8.9-17.7
	c1.2-0.4,2.5-0.6,3.8-0.6c2.8-0.2,5.3,0.6,7.5,2.3c1.7-2.8,4.4-1.4,6.7-1.6c1.5-0.2,2,0.6,1.7,2.2c-1,6.2-2.1,12.4-2.9,18.6
	C206.3,256.7,204.1,255.8,202.2,256z"/>
<path class="st3" d="M135.4,245.7c2.7-4,5.1-7.5,7.6-11c1.1-1.6,7.1-2.9,8.6-1.7c1.5,1.1,0.1,2.1-0.5,2.9
	c-4.2,6.1-8.5,12.2-12.7,18.3c-1.5,2.1-3.2,4.1-4.3,6.3c-1.9,4.1-5.2,4-8.8,3.7c-1.6-0.1-2.2-0.8-1.2-2.2c0.2-0.4,0.5-0.8,0.8-1.1
	c5-4.7,5.3-9.9,2.3-15.8c-1.6-3.1-2.3-6.6-3.5-9.8c-0.5-1.5-0.3-2.3,1.6-2.4c5.9-0.5,6.2-0.3,7.8,5.1
	C133.8,240.3,134.5,242.8,135.4,245.7z"/>
<path class="st6" d="M214.4,255.9c-3.4,0.7-3.7-0.8-3.2-3.9c1.7-9.3,3-18.6,4.5-27.9c0.2-1.1,0-2.7,1.5-2.8c2-0.2,4.2-0.6,6.2,0.3
	c0.8,0.4,0.4,1.2,0.3,1.9c-1.6,9.9-3.2,19.8-4.6,29.7C218.6,256.2,216.7,256.2,214.4,255.9z"/>
<path class="st7" d="M76.8,73.7c-1.8-0.9-2.8-1.3-3.6-1.9c-6.8-5.3-14.5-6.6-23-6c-5.9,0.4-11.9,0.1-17.8,0.1
	c-5.5-0.1-8.3-3-8.4-8.5c0-7.9,0-15.8,0-23.8c0-5.5,3-8.5,8.4-8.5c21.4,0,42.9,0,64.3,0c5.3,0,8.3,3,8.4,8.2
	c0.1,8.2,0.1,16.3,0,24.5c0,5.1-3,8-8,8.1c-6.4,0.1-12.8,0-19.2,0c-4,0-3.9,0-2.5,3.8C75.9,70.8,76.2,71.9,76.8,73.7z"/>
<path class="st7" d="M180.7,43.2c-0.4,3.7-1.1,7.3-1.2,11c-0.1,3.1-2.2,2.3-3.9,2.4c-2.3,0.2-2-1.4-1.8-2.8
	c0.7-5.9,1.5-11.8,2.2-17.7c0.2-1.4,0.8-1.9,2.3-2c5.5-0.5,5.7-0.4,6.9,4.9c0.5,2,0.9,4.1,1.5,6.9c0.9-3.6,1.7-6.5,2.3-9.5
	c0.8-4,3.9-1.6,5.9-2.2c1.8-0.5,2.6,0.5,2.9,2.4c0.7,5.8,1.6,11.5,2.4,17.3c0.2,1.2,0.7,2.9-1.5,2.7c-1.7-0.1-4.3,1.3-4.6-2
	c-0.4-3.6-0.7-7.1-1.2-11.7c-2,3.9-2.2,7.3-3.2,10.5c-0.4,1.4-0.1,3.3-2.6,3.4c-2.5,0.1-2.8-1.4-3.2-3.2c-0.8-3.5-1.8-6.9-2.7-10.4
	C181.1,43.2,180.9,43.2,180.7,43.2z"/>
<path class="st7" d="M158.7,46c0.9-3.8,1.6-6.8,2.4-9.8c1-3.8,4.1-1.3,6.1-1.9c1.7-0.5,2.4,0.6,2.6,2.3c0.8,5.9,1.6,11.8,2.5,17.6
	c0.2,1.4,0.2,2.8-1.8,2.5c-1.6-0.2-4,1.1-4.3-2c-0.4-3.6-0.7-7.3-1.9-11c-0.8,3.4-1.7,6.8-2.5,10.2c-0.4,1.4-0.6,2.9-2.8,2.8
	c-2-0.1-2.5-1.1-2.8-2.8c-0.8-3.6-1.9-7.2-3.4-10.8c-0.4,3.7-1,7.5-1.2,11.2c-0.1,2.9-2.1,2.1-3.7,2.2c-2.1,0.2-2.2-1.1-2-2.7
	c0.8-6,1.5-12,2.3-18c0.1-0.5,0.3-1.2,0.7-1.5c2.4-1.8,7.5,0.2,8.1,3C157.4,40.1,158,42.7,158.7,46z"/>
<path class="st8" d="M144.9,44.6c0,9-4.9,13.8-12,12.5c-3.8-0.7-6.2-3-7.3-6.6c-0.9-3.1-1.1-6.2-0.3-9.3c1.3-5.1,4.7-7.8,9.7-7.7
	c5.1,0.1,8.3,2.9,9.4,8.1C144.7,42.8,144.8,44.1,144.9,44.6z"/>
<path class="st7" d="M222.7,47.7c0,2.3-0.1,4.6,0,6.9c0.1,2.5-1.7,2-3.1,2c-1.4,0-3.1,0.4-3.1-2c0.1-6.2,0-12.3,0-18.5
	c0-1,0.2-1.9,1.5-1.9c3.4,0.1,6.8-0.5,10,0.5c5.4,1.7,6.8,6.7,2.9,10.8c-1,1.1-1.2,1.8-0.5,2.9c0.8,1.4,1.6,2.9,2.1,4.4
	c0.4,1.2,2.1,2.3,0.8,3.6c-1.1,1.1-5.5,0-6.2-1.4c-1.3-2.5-2.4-5-3.7-7.5C223.2,47.6,222.9,47.7,222.7,47.7z"/>
<path class="st8" d="M250.7,45.4c0-2.7,0.2-5.4-0.1-8c-0.3-2.8,0.9-3.4,3.4-3.2c2,0.2,4,0,5.9,0.1c1.5,0.1,3.3-0.6,3.4,2.1
	c0.1,2.7-1.3,2.7-3.2,2.7c-1.1,0-2.7-0.8-3.1,1.2c-0.3,2,0.2,3.2,2.5,2.9c1.6-0.2,3-0.1,3,2.2c0,2.3-1.4,2.3-3,2.3
	c-1.6-0.1-2.7,0.2-2.6,2.2c0.1,2.3,1.6,1.7,2.9,1.9c1.2,0.2,3.1-0.9,3.4,1.3c0.3,1.9,0.4,3.5-2.6,3.5c-9.9,0.2-9.9,0.3-9.9-9.6
	C250.7,46.5,250.7,46,250.7,45.4z"/>
<path class="st8" d="M202.3,45.4c0-2.9,0.1-5.8,0-8.7c-0.1-1.7,0.5-2.6,2.4-2.5c2.6,0.1,5.1,0.1,7.7,0c1.7-0.1,2.5,0.4,2.6,2.3
	c0,2.1-0.8,2.7-2.7,2.5c-0.3,0-0.7,0-1,0c-1.3,0-2.6-0.1-2.6,1.8c-0.1,1.9,0.8,2.4,2.5,2.4c1.3,0,2.9-0.5,2.9,1.8c0,2.2-1,2.9-3,2.7
	c-1.5-0.1-2.4,0.3-2.4,2.1c0,2.2,1.4,1.9,2.8,2.1c1.2,0.1,3.1-0.9,3.5,1.2c0.3,1.9,0.5,3.5-2.5,3.6c-9.9,0.3-9.9,0.4-9.9-9.6
	C202.3,46.5,202.3,45.9,202.3,45.4z"/>
<path class="st9" d="M108,45.4c-0.1-7.3,6.1-12.7,13.3-11.9c2.5,0.3,2.1,1.9,2.2,3.5c0.1,1.8-0.7,2-2.3,2c-4.4,0-6.4,2.1-6.4,6.3
	c0,4.2,1.9,6.3,6.4,6.4c1.5,0,2.4,0.2,2.4,2c-0.1,1.7,0.2,3.2-2.2,3.5C114.3,58.3,108.1,52.8,108,45.4z"/>
<path class="st9" d="M233.5,45.2c0-7.2,6-12.4,13.1-11.7c2.3,0.2,2.4,1.5,2.5,3.3c0.1,1.9-0.8,2.2-2.5,2.2c-4.4,0-6.4,2.1-6.4,6.3
	c0,4.3,2,6.4,6.4,6.4c1.7,0,2.6,0.3,2.6,2.2c0,1.9-0.3,3.1-2.5,3.4C239.6,58.2,233.5,52.6,233.5,45.2z"/>
<path class="st10" d="M174.3,146.8c-0.5,13.1-10.7,23.4-24.3,24.4c-3.6,0.3-7.2,0.2-10.8,0.2c-1.7,0-3.3,0.2-4.7,1.2
	c-0.6-4.4,1-8.7,1.5-13c0.5-3.9,1.3-7.8,1.9-11.7c0.3-2.3,1.8-3.8,3.9-3.8c10.3-0.2,20.7-1,30.8,1.9
	C173.2,146.3,173.8,146.6,174.3,146.8z"/>
<path class="st11" d="M76.3,237.5c-0.9-0.2-2.6,0.7-2.5-1.6c0.2-5.6,1.2-7.8,4.1-7.7c2.5,0,5.1,0.2,5.2,3.7
	C83.2,235.6,81,237.4,76.3,237.5z"/>
<path class="st12" d="M168.4,228.1c2,0.1,4.4,0.5,4.5,3.8c0.1,3.6-2.4,5.6-6.9,5.6c-1.3,0-2.5,0.3-2.4-1.9
	C163.9,229.4,164.6,228.1,168.4,228.1z"/>
<path class="st13" d="M110.8,243.4c0.1,3.7-3.1,6.9-6.9,6.9c-3,0-4.9-1.8-5-4.6c-0.1-3.8,2.9-7,6.7-7.1
	C108.7,238.5,110.8,240.4,110.8,243.4z"/>
<path class="st14" d="M200.5,243.4c0.1,3.7-2.8,6.7-6.5,6.8c-3.2,0.1-5.3-1.7-5.4-4.6c-0.2-3.8,2.9-7,6.7-7
	C198.4,238.5,200.4,240.4,200.5,243.4z"/>
<path class="st15" d="M52.5,49.4c0.7-6,1.5-11.2,3.5-16.1c0.8-1.8,1.6-4.1,4.2-3c2.5,1,1.8,3,1.1,5.1c-2.7,7.4-3.6,15.1-3.6,23
	c0,1.6,0.2,3.5-1.7,4.2c-1.9,0.7-2.9-1-4-2.2c-3.1-3.6-4.6-8-6.5-12.9c-1.4,2.8-2.5,5.1-3.8,7.4c-1,1.9-2,4-3.3,5.7
	c-2.1,2.9-4,2.7-5.1-0.7c-2.7-8.1-4.1-16.5-5.2-24.9c-0.2-1.8,0.4-3.3,2.5-3.5c2-0.2,2.6,1.2,2.9,2.8c0.9,4.6,1.6,9.2,2.5,13.7
	c0.2,0.9,0.5,1.8,0.9,3.4c2-3.7,3.6-6.9,5.3-10c0.6-1.1,1.1-2.3,1.8-3.4c0.7-1.2,1.5-2.5,3.2-2.2c1.5,0.3,1.8,1.6,2.2,2.9
	C50.1,42,50.5,45.5,52.5,49.4z"/>
<path class="st16" d="M101.4,44.3c-0.2,3.8-1.3,7.3-3.8,10.2c-2.2,2.6-5,3.5-8.4,2.9c-3.3-0.7-5.3-2.9-6.2-5.9
	c-1.5-5.6-0.2-10.6,3.6-14.9c2.4-2.7,6.2-3.5,9.6-2.1C99.5,35.9,101.6,39.8,101.4,44.3z"/>
<path class="st16" d="M81.1,43.9c-0.1,3.7-1,7.1-3.3,10.1c-2.2,2.9-5.2,4.2-8.8,3.5c-3.6-0.7-5.5-3.2-6.4-6.6
	c-1-4.2-0.3-8.1,1.8-11.7c2.5-4.4,6.2-6.1,10.4-5C78.7,35.2,81.2,39.1,81.1,43.9z"/>
<path class="st17" d="M138.2,45.3c-0.3,3.1,0.3,6.6-3.4,6.7c-3.9,0.1-3.2-3.6-3.5-6c-0.2-1.4,0.2-3,0.4-4.5c0.3-1.5,1.1-2.7,2.7-2.8
	c1.7-0.1,2.8,1,3.2,2.6C138.1,42.7,138.1,44.3,138.2,45.3z"/>
<path class="st18" d="M222.6,41.3c0.3-1.2-0.5-2.9,1.5-2.6c1.5,0.2,2.7,1,2.7,2.7c0,1.8-1.4,2.4-2.9,2.4
	C221.9,43.8,223.2,41.9,222.6,41.3z"/>
<path class="st19" d="M95.9,44.2c-0.4,3-0.9,5.3-2.9,7c-1.9,1.6-3.4,1.2-4.4-0.9c-1.4-2.9-0.2-8.2,2.4-10.2c0.8-0.7,1.8-1.3,2.8-0.6
	C95.7,40.7,95.7,42.8,95.9,44.2z"/>
<path class="st19" d="M75.6,44.3c-0.3,2.9-0.9,5.3-3.1,7.1c-1.8,1.4-3.2,1-4.2-1c-1.5-2.9-0.2-8.6,2.5-10.5c0.9-0.6,1.8-1.1,2.9-0.3
	C75.3,40.8,75.5,42.7,75.6,44.3z"/>
</svg>
