<?xml version="1.0" encoding="utf-8"?>
<!-- Generator: Adobe Illustrator 24.1.0, SVG Export Plug-In . SVG Version: 6.00 Build 0)  -->
<svg version="1.1" id="Layer_1" xmlns="http://www.w3.org/2000/svg" xmlns:xlink="http://www.w3.org/1999/xlink" x="0px" y="0px"
	 viewBox="0 0 612 609.4" style="enable-background:new 0 0 612 609.4;" xml:space="preserve">
<style type="text/css">
	.st0{fill:#56C8AB;}
	.st1{fill:#FEFEFE;}
</style>
<path class="st0" d="M90.3,265.1c5.1-1.5,9.6-3.3,14.1-5.3c14.3-6.2,26.9-14.5,35.7-27.8c2.1-3.2,3.9-6.6,4.8-10.3
	c2.4-9.8-1.5-17.2-11.2-20.3c-9.1-2.9-18.4-2.3-27.5-0.3c-25.2,5.6-46.7,17.8-64.5,36.5c-7,7.4-12.5,15.8-14.5,26
	c-0.7,3.6-0.7,7.2-0.1,10.8c0.2,1.3,0.2,1.8-1.4,1.8C9.3,275.7-1.2,264,0.1,247.6c1.3-16.2,8.5-29.8,18.1-42.4
	c9.9-13,22.5-23.3,35.5-33c19.3-14.4,40.3-25.5,63.6-31.8c9.1-2.4,18.3-4.2,27.6-4.5c13.8-0.4,26.7,2.4,36.9,12.5
	c7.9,7.8,12,17.7,13.1,28.5c3.2,29.1-4.6,55-24.3,76.9c-1.5,1.7-3.3,3.2-5.4,5.1c4.5-0.7,8.4-1.7,12.4-1.8
	c8.4-0.3,12.5,3.8,12.7,12.1c0.1,4.8,0.4,9.6,0.7,15.1c1.7-7.2,3-13.9,4.8-20.6c3.9-14.8,8.7-29.3,17.5-42.2
	c6.5-9.6,14.9-16.7,26.8-18.5c9.3-1.4,17.8-0.1,23.5,8.5c5.9,8.7,5.6,17.8,0.5,26.8c-3.6,6.4-9.9,8.3-16.7,8.5
	c-18.3,0.5-31.5,9.2-40.6,24.7c-7,11.9-10.6,24.9-13,38.4c-2.4,13.8-3.4,27.8-2.9,41.8c0.2,6.1,0.8,12.2,2.4,18.2
	c1.1,4.3,2.6,8.5,5.9,12.2c-10.7,2.4-21.1,4.6-31.7,1.6c-9.6-2.7-14.6-10.2-14.9-21.3c-0.2-9.1,1.2-18.1,1.6-27.1
	c0.8-19.1,1.7-38.2-3.4-57c-1.6-6-1.6-5.8-6.8-2.9c-12.6,7-25.7,12.4-40.6,12c-5.4-0.2-10.2-1.9-14.7-5.7
	c-0.3,5.9-0.7,11.2-0.7,16.6c-0.1,12.3-0.5,24.6,0.4,36.8c1.2,16,5.6,30.6,17.6,42.1c0.2,0.2,0.3,0.5,0.8,1.1
	c-5.2,1.5-10.3,3.1-15.3,4.4c-9,2.4-18.1,4.6-27.4,5.9c-2.5,0.3-5.1,0.5-7.5,0.2c-4.7-0.6-7.5-3.7-8.9-8c-2.5-7.4-2.5-15.1-2.4-22.7
	c0.1-17.8,2.2-35.5,3.2-53.3c1-17.6,1.7-35.2-2.8-52.5c-0.7-2.5-1.4-5.1-2.5-7.4c-0.9-2.1-0.3-3.1,1.4-4.2
	c6.7-4.3,14.3-6.5,21.9-8.3c4.2-1,8.4-2,12.8-1.9c6.5,0.1,9.9,2.9,11,9.3c1,5.4,0.7,10.8,0.3,16.3C90.6,258.9,90.5,261.8,90.3,265.1
	z"/>
<path class="st0" d="M434.7,351.3c-2.4,3.4-3.9,7-6,10.3c-7.5,12.4-17.7,16.6-31.9,13.2c-12.4-3-18.7-11.8-22.7-22.9
	c-4.7-13.1-5.6-26.7-5.3-40.5c0.2-13.9,2-27.7,4.3-41.4c0.6-3.7,2.8-5.9,5.9-7.5c3.7-1.9,7.8-2.7,11.9-3c7.6-0.4,15.1,0,22.6,1.1
	c1.4,0.2,1.9,0.5,1.5,2.1c-2.1,9.8-3.9,19.7-4.8,29.7c-1.1,11.6-1.8,23.3,0.9,34.8c0.8,3.5,2.2,6.7,4.8,9.3c2.4,2.5,5.4,3.2,8.2,1.2
	c6-4.3,10.6-9.9,10.6-17.6c0-16.1-0.4-32.2-3.5-48.1c-1.3-6.3-1.3-6.2,5.1-8c6.3-1.7,12.7-3,19.2-3.8c3.8-0.5,7.7-0.1,11.4,0.7
	c5.9,1.1,8.7,4.8,8.3,10.8c-0.5,8.9-1.3,17.9-1.9,26.8c-0.7,9.5-1.4,19.1-2.2,28.6c-1.3,16.6-2.7,33.3-4,49.9
	c-0.3,3.9-0.6,7.8-0.9,11.7c-0.1,1.2,0,2.1,1.4,2.5c16.1,5.2,31.5,12.3,47.6,17.5c26.7,8.5,53.4,8.5,80.3,1
	c3.9-1.1,7.7-2.2,11.5-3.5c1.3-0.5,2-0.3,2.4,1.1c4.7,14.3,3.2,32.2-8.8,43.4c-7.7,7.2-17.1,9.5-27.3,9.4c-12.6-0.2-24.4-4-35.9-8.7
	c-17-7-33-15.9-49.6-23.7c-8.3-3.9-16.7-7.6-25.1-11.1c-2-0.8-2.9-0.4-3.9,1.6c-8.7,18.5-21.8,32.8-40.8,41.1
	c-12.9,5.6-26.2,7.1-39.7,2.4c-16.6-5.8-25.4-21.3-22.8-38.7c2.9-19.3,14.6-30.3,32.3-35.9c14.3-4.5,29.1-5,44-3.8
	c1.7,0.1,2.4-0.2,2.5-2c0-3.5,0.2-7,0.2-10.6C434.7,364.3,434.7,357.8,434.7,351.3z"/>
<path class="st0" d="M275.6,322.1c-0.1-14.4,1-27,2.9-39.7c2.2-15.1,11.7-23.5,24.8-28.9c4.6-1.9,9.4-2.9,14.5-2.4
	c4.3,0.4,4.7,1.2,3.3,5.2c-7.4,20.3-10,41.4-8.9,62.9c0.3,5.4,1.1,10.8,2.9,16c0.5,1.4,1.1,2.8,1.9,4.1c2,3.1,4.4,3.5,7.4,1.4
	c2.9-2,4.7-4.9,6.4-7.9c4.7-8.4,7.4-17.6,9.6-26.9c3.8-16.6,5.3-33.3,4.8-50.3c-0.1-2.5-0.4-5-0.5-7.5c0-1.6-1-2.3-2.1-3.1
	c-13.1-10-18.9-29-13.6-44.5c2.2-6.4,6.3-10.6,12.9-12.4c5.3-1.4,9.6,0.1,12.9,4.2c5.3,6.6,7,14.6,8.6,22.6c1.1,5.5,0.9,5.5,6.3,3.9
	c11.2-3.4,21.3-9,30.8-15.7c2-1.4,3.9-1.7,6.2-1.2c7.2,1.7,12.3,5.8,14.3,12.9c2.1,7.4,0.3,14.2-5,19.8
	c-7.9,8.3-17.9,12.5-28.9,14.6c-5.8,1.1-11.7,1.9-17.7,1.7c-2.7-0.1-3.4,0.6-3.5,3.4c-1.5,28.5-4.9,56.7-14.4,83.8
	c-4.3,12.1-9.7,23.7-17.6,33.9c-4,5.1-8.6,9.6-14.3,12.9c-12.2,6.9-23.4,4.4-31.2-7.2c-6.1-8.9-8.8-19.1-10.7-29.6
	C275.8,339,275.3,329.8,275.6,322.1z"/>
<path class="st0" d="M221.7,361.9c-0.1-14.1,1.7-25.7,2.8-37.3c1.7-18.2,2.1-36.4-2.9-54.2c-0.6-2.2-0.1-3,1.8-3.8
	c9.1-3.7,18.4-6.4,28.3-6.8c8.4-0.4,13,3.8,13.6,12.2c0.6,7.7-0.7,15.2-2.1,22.7c-2.4,12.7-5.6,25.3-5.8,38.4
	c-0.2,15.7,4.9,29.8,13.6,42.7c2.1,3.1,2,3-1.5,4.1c-11.3,3.5-22.9,5.3-34.8,4.9c-6.4-0.2-9.6-2.5-11.5-8.6
	C221.5,370.7,221.7,365.1,221.7,361.9z"/>
<path class="st1" d="M418.7,406.5c3.4-0.1,6.8,0,10.2,0.4c2.2,0.3,2.4,1.2,2,3c-2.1,10.4-6.4,19.7-13,27.9
	c-3.7,4.6-8.3,8.1-14.6,6.6c-6.7-1.6-10.2-6.7-11.6-13.1c-3-13.6,5.2-23.7,19.9-24.8C414.1,406.3,416.4,406.5,418.7,406.5z"/>
</svg>
