<svg height="464pt" viewBox="-72 0 464 464" width="464pt" xmlns="http://www.w3.org/2000/svg"><path d="m232 464 88-88v-360c0-8.800781-7.199219-16-16-16h-288c-8.800781 0-16 7.199219-16 16v432c0 8.800781 7.199219 16 16 16zm0 0" fill="#e9e9e9"/><g fill="#b4b4b5"><path d="m112 40h96v16h-96zm0 0"/><path d="m56 256h208v16h-208zm0 0"/><path d="m56 296h208v16h-208zm0 0"/><path d="m56 336h208v16h-208zm0 0"/><path d="m56 376h136v16h-136zm0 0"/></g><path d="m96 112v88l64 32 64-32v-88l-64-32zm0 0" fill="#e2c8ac"/><path d="m248 376c-8.800781 0-16 7.199219-16 16v72l88-88zm0 0" fill="#b4b4b5"/><path d="m96 112 64 40 64-40-64-32zm0 0" fill="#edd9be"/><path d="m96 200 64 32v-80l-64-40zm0 0" fill="#ceb195"/><path d="m132 134.398438 64-36-16.800781-8.796876-62.398438 35.199219zm0 0" fill="#ceb195"/></svg>