<?xml version="1.0" encoding="utf-8"?>
<!-- Generator: Adobe Illustrator 24.1.0, SVG Export Plug-In . SVG Version: 6.00 Build 0)  -->
<svg version="1.1" id="Capa_1" xmlns="http://www.w3.org/2000/svg" xmlns:xlink="http://www.w3.org/1999/xlink" x="0px" y="0px"
	 viewBox="0 0 512 512" style="enable-background:new 0 0 512 512;" xml:space="preserve">
<style type="text/css">
	.st0{fill:#BBECFF;}
	.st1{fill:#F1FBFF;}
	.st2{fill:#FEE0B0;}
	.st3{fill:#FDBA4F;}
	.st4{fill:#E29E3B;}
	.st5{fill:#77C1D8;}
	.st6{fill:#C1EE92;}
	.st7{fill:#99CE5B;}
</style>
<path class="st0" d="M438.4,43.9c0-13.9-11.3-25.1-25.1-25.1H202.2c-13.9,0-25.1,11.3-25.1,25.1v370.6c0,13.9,11.3,25.1,25.1,25.1
	h211.1c13.9,0,25.1-11.3,25.1-25.1V43.9z"/>
<rect x="178" y="70.7" class="st1" width="260.5" height="306.5"/>
<g>
	<path class="st2" d="M162.5,411.8h35.4c27.5,0,53.2-13.3,69.1-35.7l40.6-57.1c11.2-15.8-0.1-37.8-19.5-37.8l0,0
		c-5.1,0-10.2,1.7-14.3,4.7L213,331.2c-3.9,2.9-8.6,4.5-13.4,4.5l0,0c-12.4,0-22.5-10.1-22.5-22.5v-11.8"/>
	<path class="st2" d="M177.1,409.2h-57.2H85.8V301.7c0-73,33.7-142,91.3-186.8l0,0v164.3V409.2z"/>
</g>
<path class="st3" d="M57.9,491.6h189.7v-70.1c0-5.3-4.3-9.6-9.6-9.6H67.5c-5.3,0-9.6,4.3-9.6,9.6V491.6z"/>
<path class="st4" d="M202.1,446.4c-2.5,0-5,1-6.8,2.8s-2.8,4.3-2.8,6.8c0,2.5,1,5,2.8,6.8c1.8,1.8,4.3,2.8,6.8,2.8s5-1,6.8-2.8
	c1.8-1.8,2.8-4.3,2.8-6.8c0-2.5-1-5-2.8-6.8C207.1,447.5,204.6,446.4,202.1,446.4z"/>
<path class="st5" d="M337.9,36h-60.3c-5.3,0-9.6,4.3-9.6,9.6s4.3,9.6,9.6,9.6h60.3c5.3,0,9.6-4.3,9.6-9.6S343.2,36,337.9,36z"/>
<path class="st5" d="M307.8,417.3c2.5,0,5-1,6.8-2.8c1.8-1.8,2.8-4.3,2.8-6.8c0-2.5-1-5-2.8-6.8c-1.8-1.8-4.3-2.8-6.8-2.8
	c-2.5,0-5,1-6.8,2.8c-1.8,1.8-2.8,4.3-2.8,6.8c0,2.5,1,5,2.8,6.8C302.8,416.2,305.2,417.3,307.8,417.3z"/>
<path class="st6" d="M382.8,232.6h-154c-7.1,0-12.8-5.7-12.8-12.8v-59.9c0-7.1,5.7-12.8,12.8-12.8h154c7.1,0,12.8,5.7,12.8,12.8
	v59.9C395.6,226.9,389.9,232.6,382.8,232.6z"/>
<path class="st7" d="M305.8,147.1h22.6c12.2,0,22.1-9.9,22.1-22.1v0c0-12.2-9.9-22.1-22.1-22.1h-0.5c-12.2,0-22.1,9.9-22.1,22.1
	V147.1z"/>
<path class="st1" d="M313,139.9V125c0-8.2,6.7-14.9,14.9-14.9h0.5c8.2,0,14.9,6.7,14.9,14.9s-6.7,14.9-14.9,14.9H313z"/>
<path class="st7" d="M305.8,147.1h-22.6c-12.2,0-22.1-9.9-22.1-22.1v0c0-12.2,9.9-22.1,22.1-22.1h0.5c12.2,0,22.1,9.9,22.1,22.1
	V147.1z"/>
<path class="st1" d="M298.6,139.9V125c0-8.2-6.7-14.9-14.9-14.9h-0.5c-8.2,0-14.9,6.7-14.9,14.9s6.7,14.9,14.9,14.9H298.6z"/>
</svg>
