<?xml version="1.0" encoding="utf-8"?>
<!-- Generator: Adobe Illustrator 24.1.0, SVG Export Plug-In . SVG Version: 6.00 Build 0)  -->
<svg version="1.1" id="Layer_1" xmlns="http://www.w3.org/2000/svg" xmlns:xlink="http://www.w3.org/1999/xlink" x="0px" y="0px"
	 viewBox="0 0 112 112" style="enable-background:new 0 0 112 112;" xml:space="preserve">
<style type="text/css">
	.st0{fill:#F58C11;}
	.st1{fill:#F58D11;}
	.st2{fill:#EA4335;}
	.st3{fill:#4285F4;}
	.st4{fill:#34A853;}
	.st5{fill:#FBBC05;}
	.st6{fill:#0089D6;}
	.st7{fill:#D32F2F;}
	.st8{fill:#B71C1C;}
	.st9{fill:#F44336;}
	.st10{fill:#03786F;}
	.st11{fill:#FCFDFD;}
	.st12{fill:#FBFDFD;}
	.st13{fill:#C40022;}
	.st14{fill:url(#SVGID_1_);}
	.st15{fill:none;}
	.st16{fill:#BE202E;}
	.st17{opacity:0.35;fill:#BE202E;enable-background:new    ;}
	.st18{fill:url(#SVGID_2_);}
	.st19{fill:url(#SVGID_3_);}
	.st20{fill:url(#SVGID_4_);}
	.st21{fill:url(#SVGID_5_);}
	.st22{fill:url(#SVGID_6_);}
	.st23{fill:url(#SVGID_7_);}
	.st24{fill:url(#SVGID_8_);}
	.st25{fill:url(#SVGID_9_);}
	.st26{fill:#00A818;}
	.st27{fill-rule:evenodd;clip-rule:evenodd;fill:#488ECB;}
	.st28{fill:#C72566;}
	.st29{fill:#FF8C2A;}
	.st30{fill:#CF4F8C;}
	.st31{opacity:0.2;fill:#FFFFFF;enable-background:new    ;}
	.st32{fill:#3F3F3F;}
	.st33{opacity:0.2;fill:none;stroke:#000000;stroke-width:2;stroke-linecap:round;enable-background:new    ;}
	.st34{fill:none;stroke:#FFFFFF;stroke-width:2;stroke-linecap:round;}
	.st35{fill:#FF496C;}
	.st36{fill:#FD405F;}
	.st37{fill:#96EFFF;}
	.st38{fill:#6CE0F9;}
	.st39{fill:#40DAF4;}
	.st40{fill:#E12826;}
	.st41{clip-path:url(#SVGID_11_);fill:#838383;}
	.st42{clip-path:url(#SVGID_11_);fill:#828282;}
	.st43{clip-path:url(#SVGID_11_);fill:#818181;}
	.st44{clip-path:url(#SVGID_11_);fill:#808080;}
	.st45{clip-path:url(#SVGID_11_);fill:#7F7F7F;}
	.st46{clip-path:url(#SVGID_11_);fill:#7E7E7E;}
	.st47{clip-path:url(#SVGID_11_);fill:#7D7D7D;}
	.st48{clip-path:url(#SVGID_11_);fill:#7C7C7C;}
	.st49{clip-path:url(#SVGID_11_);fill:#7B7B7B;}
	.st50{clip-path:url(#SVGID_11_);fill:#7A7A7A;}
	.st51{clip-path:url(#SVGID_11_);fill:#797979;}
	.st52{clip-path:url(#SVGID_11_);fill:#787878;}
	.st53{clip-path:url(#SVGID_11_);fill:#777777;}
	.st54{clip-path:url(#SVGID_11_);fill:#767676;}
	.st55{clip-path:url(#SVGID_11_);fill:#757575;}
	.st56{clip-path:url(#SVGID_11_);fill:#747474;}
	.st57{clip-path:url(#SVGID_11_);fill:#737373;}
	.st58{clip-path:url(#SVGID_11_);fill:#727272;}
	.st59{clip-path:url(#SVGID_11_);fill:#717171;}
	.st60{clip-path:url(#SVGID_11_);fill:#707070;}
	.st61{clip-path:url(#SVGID_11_);fill:#6F6F6F;}
	.st62{clip-path:url(#SVGID_11_);fill:#6E6E6E;}
	.st63{clip-path:url(#SVGID_11_);fill:#6D6D6D;}
	.st64{clip-path:url(#SVGID_11_);fill:#6C6C6C;}
	.st65{clip-path:url(#SVGID_11_);fill:#6B6B6B;}
	.st66{clip-path:url(#SVGID_11_);fill:#6A6A6A;}
	.st67{clip-path:url(#SVGID_11_);fill:#696969;}
	.st68{clip-path:url(#SVGID_11_);fill:#686868;}
	.st69{clip-path:url(#SVGID_11_);fill:#676767;}
	.st70{clip-path:url(#SVGID_11_);fill:#666666;}
	.st71{clip-path:url(#SVGID_11_);fill:#656565;}
	.st72{clip-path:url(#SVGID_11_);fill:#646464;}
	.st73{clip-path:url(#SVGID_11_);fill:#636363;}
	.st74{clip-path:url(#SVGID_11_);fill:#626262;}
	.st75{clip-path:url(#SVGID_11_);fill:#616161;}
	.st76{clip-path:url(#SVGID_11_);fill:#606060;}
	.st77{clip-path:url(#SVGID_11_);fill:#5F5F5F;}
	.st78{clip-path:url(#SVGID_11_);fill:#5E5E5E;}
	.st79{clip-path:url(#SVGID_11_);fill:#5D5D5D;}
	.st80{clip-path:url(#SVGID_11_);fill:#5C5C5C;}
	.st81{clip-path:url(#SVGID_11_);fill:#5B5B5B;}
	.st82{clip-path:url(#SVGID_11_);fill:#5A5A5A;}
	.st83{clip-path:url(#SVGID_11_);fill:#595959;}
	.st84{clip-path:url(#SVGID_11_);fill:#585858;}
	.st85{clip-path:url(#SVGID_11_);fill:#565656;}
	.st86{clip-path:url(#SVGID_11_);fill:#555555;}
	.st87{clip-path:url(#SVGID_11_);fill:#545454;}
	.st88{clip-path:url(#SVGID_11_);fill:#535353;}
	.st89{clip-path:url(#SVGID_11_);fill:#525252;}
	.st90{clip-path:url(#SVGID_11_);fill:#515151;}
	.st91{clip-path:url(#SVGID_11_);fill:#505050;}
	.st92{clip-path:url(#SVGID_11_);fill:#4F4F4F;}
	.st93{clip-path:url(#SVGID_11_);fill:#4E4E4E;}
	.st94{clip-path:url(#SVGID_11_);fill:#4D4D4D;}
	.st95{clip-path:url(#SVGID_11_);fill:#4C4C4C;}
	.st96{clip-path:url(#SVGID_11_);fill:#4B4B4B;}
	.st97{clip-path:url(#SVGID_11_);fill:#4A4A4A;}
	.st98{clip-path:url(#SVGID_11_);fill:#494949;}
	.st99{clip-path:url(#SVGID_11_);fill:#484848;}
	.st100{clip-path:url(#SVGID_11_);fill:#474747;}
	.st101{clip-path:url(#SVGID_11_);fill:#464646;}
	.st102{clip-path:url(#SVGID_11_);fill:#454545;}
	.st103{clip-path:url(#SVGID_11_);fill:#444444;}
	.st104{clip-path:url(#SVGID_11_);fill:#434343;}
	.st105{clip-path:url(#SVGID_11_);fill:#424242;}
	.st106{clip-path:url(#SVGID_11_);fill:#414141;}
	.st107{clip-path:url(#SVGID_11_);fill:#404040;}
	.st108{clip-path:url(#SVGID_11_);fill:#3F3F3F;}
	.st109{clip-path:url(#SVGID_11_);fill:#3E3E3E;}
	.st110{clip-path:url(#SVGID_11_);fill:#3D3D3D;}
	.st111{clip-path:url(#SVGID_11_);fill:#3C3C3C;}
	.st112{clip-path:url(#SVGID_11_);fill:#3B3B3B;}
	.st113{clip-path:url(#SVGID_11_);fill:#3A3A3A;}
	.st114{clip-path:url(#SVGID_11_);fill:#393939;}
	.st115{clip-path:url(#SVGID_11_);fill:#383838;}
	.st116{clip-path:url(#SVGID_11_);fill:#373737;}
	.st117{clip-path:url(#SVGID_11_);fill:#363636;}
	.st118{clip-path:url(#SVGID_11_);fill:#353535;}
	.st119{clip-path:url(#SVGID_11_);fill:#343434;}
	.st120{clip-path:url(#SVGID_11_);fill:#333333;}
	.st121{clip-path:url(#SVGID_11_);fill:#323232;}
	.st122{clip-path:url(#SVGID_11_);fill:#313131;}
	.st123{clip-path:url(#SVGID_11_);fill:#303030;}
	.st124{clip-path:url(#SVGID_11_);fill:#2F2F2F;}
	.st125{clip-path:url(#SVGID_11_);fill:#2E2E2E;}
	.st126{clip-path:url(#SVGID_11_);fill:#2D2D2D;}
	.st127{clip-path:url(#SVGID_11_);fill:#2C2C2C;}
	.st128{clip-path:url(#SVGID_11_);fill:#2B2B2B;}
	.st129{fill:#2C2C2C;}
	.st130{fill:#FFFFFF;}
	.st131{fill:url(#SVGID_12_);}
	.st132{clip-path:url(#SVGID_14_);fill:#227716;}
	.st133{clip-path:url(#SVGID_14_);fill:#227816;}
	.st134{clip-path:url(#SVGID_14_);fill:#227917;}
	.st135{clip-path:url(#SVGID_14_);fill:#227A17;}
	.st136{clip-path:url(#SVGID_14_);fill:#227B17;}
	.st137{clip-path:url(#SVGID_14_);fill:#227C18;}
	.st138{clip-path:url(#SVGID_14_);fill:#227D18;}
	.st139{clip-path:url(#SVGID_14_);fill:#227E18;}
	.st140{clip-path:url(#SVGID_14_);fill:#227F18;}
	.st141{clip-path:url(#SVGID_14_);fill:#228019;}
	.st142{clip-path:url(#SVGID_14_);fill:#228119;}
	.st143{clip-path:url(#SVGID_14_);fill:#228219;}
	.st144{clip-path:url(#SVGID_14_);fill:#22831A;}
	.st145{clip-path:url(#SVGID_14_);fill:#22841A;}
	.st146{clip-path:url(#SVGID_14_);fill:#22851A;}
	.st147{clip-path:url(#SVGID_14_);fill:#21861B;}
	.st148{clip-path:url(#SVGID_14_);fill:#21871B;}
	.st149{clip-path:url(#SVGID_14_);fill:#21881B;}
	.st150{clip-path:url(#SVGID_14_);fill:#21891C;}
	.st151{clip-path:url(#SVGID_14_);fill:#218A1C;}
	.st152{clip-path:url(#SVGID_14_);fill:#218B1C;}
	.st153{clip-path:url(#SVGID_14_);fill:#218C1D;}
	.st154{clip-path:url(#SVGID_14_);fill:#218D1D;}
	.st155{clip-path:url(#SVGID_14_);fill:#218E1D;}
	.st156{clip-path:url(#SVGID_14_);fill:#218F1D;}
	.st157{clip-path:url(#SVGID_14_);fill:#21901E;}
	.st158{clip-path:url(#SVGID_14_);fill:#21911E;}
	.st159{clip-path:url(#SVGID_14_);fill:#21921E;}
	.st160{clip-path:url(#SVGID_14_);fill:#21931F;}
	.st161{clip-path:url(#SVGID_14_);fill:#21951F;}
	.st162{clip-path:url(#SVGID_14_);fill:#21961F;}
	.st163{clip-path:url(#SVGID_14_);fill:#219720;}
	.st164{clip-path:url(#SVGID_14_);fill:#219820;}
	.st165{clip-path:url(#SVGID_14_);fill:#219920;}
	.st166{clip-path:url(#SVGID_14_);fill:#219A21;}
	.st167{clip-path:url(#SVGID_14_);fill:#219B21;}
	.st168{clip-path:url(#SVGID_14_);fill:#219C21;}
	.st169{clip-path:url(#SVGID_14_);fill:#219D21;}
	.st170{clip-path:url(#SVGID_14_);fill:#219E22;}
	.st171{clip-path:url(#SVGID_14_);fill:#219F22;}
	.st172{clip-path:url(#SVGID_14_);fill:#21A022;}
	.st173{clip-path:url(#SVGID_14_);fill:#21A123;}
	.st174{clip-path:url(#SVGID_14_);fill:#21A223;}
	.st175{clip-path:url(#SVGID_14_);fill:#21A323;}
	.st176{clip-path:url(#SVGID_14_);fill:#20A424;}
	.st177{clip-path:url(#SVGID_14_);fill:#20A524;}
	.st178{clip-path:url(#SVGID_14_);fill:#20A624;}
	.st179{clip-path:url(#SVGID_14_);fill:#20A725;}
	.st180{clip-path:url(#SVGID_14_);fill:#20A825;}
	.st181{clip-path:url(#SVGID_14_);fill:#20A925;}
	.st182{clip-path:url(#SVGID_14_);fill:#20AA26;}
	.st183{clip-path:url(#SVGID_14_);fill:#20AB26;}
	.st184{clip-path:url(#SVGID_14_);fill:#20AC26;}
	.st185{clip-path:url(#SVGID_14_);fill:#20AD26;}
	.st186{clip-path:url(#SVGID_14_);fill:#20AE27;}
	.st187{clip-path:url(#SVGID_14_);fill:#20AF27;}
	.st188{clip-path:url(#SVGID_14_);fill:#20B027;}
	.st189{clip-path:url(#SVGID_14_);fill:#20B128;}
	.st190{clip-path:url(#SVGID_14_);fill:#20B228;}
	.st191{fill:#0C0000;}
	.st192{fill:url(#SVGID_15_);}
	.st193{fill:#499CD2;}
	.st194{fill-rule:evenodd;clip-rule:evenodd;fill:#9AAB4B;}
	.st195{fill-rule:evenodd;clip-rule:evenodd;fill:#EC0677;}
	.st196{fill-rule:evenodd;clip-rule:evenodd;fill:#FFC10E;}
	.st197{fill-rule:evenodd;clip-rule:evenodd;fill:#3FB98C;}
	.st198{fill-rule:evenodd;clip-rule:evenodd;fill:#60CAE9;}
	.st199{fill-rule:evenodd;clip-rule:evenodd;fill:#009C7E;}
	.st200{fill-rule:evenodd;clip-rule:evenodd;fill:#672D85;}
	.st201{fill-rule:evenodd;clip-rule:evenodd;fill:#F48120;}
	.st202{fill:#DF4F4F;}
	.st203{clip-path:url(#SVGID_17_);fill:#F0BF1A;}
	.st204{clip-path:url(#SVGID_19_);fill:#3EBEB0;}
	.st205{clip-path:url(#SVGID_21_);fill:#07A5DE;}
	.st206{clip-path:url(#SVGID_23_);fill:#231F20;}
	.st207{fill:#D7A229;}
	.st208{fill:#019B8F;}
	.st209{fill:#F3BD19;}
	.st210{fill:#231F20;}
	.st211{fill:#3EBEB0;}
	.st212{fill:#37A595;}
	.st213{fill:#37808C;}
	.st214{fill:#9BD3CD;}
	.st215{fill:#1B1A19;}
	.st216{fill:#2C3458;}
	.st217{fill:#D43D44;}
	.st218{fill:#EE4323;}
	.st219{fill:url(#SVGID_24_);}
	.st220{fill:url(#SVGID_25_);}
	.st221{fill:url(#SVGID_26_);}
	.st222{fill:url(#SVGID_27_);}
	.st223{fill:#57A900;}
</style>
<g>
	<path d="M64.3,83.1c1.7-0.9,3.2-1.8,4.7-2.9c0-0.2-0.1-0.3-0.1-0.4c-1-2.5-1.9-5.1-2.5-7.8c-0.8-3.5-1.1-6.9-0.9-10.5
		c0.3-5.1,1.6-10.1,3.6-14.8c2.1-5.1,4.7-9.9,7.7-14.5c0.9-1.4,1.9-2.8,2.9-4.2c0.1-0.1,0.1-0.2,0.2-0.3c-0.8-0.6-1.6-1.2-2.4-1.7
		c-2.6-1.6-5.5-2.5-8.5-3.1c-2.8-0.5-5.6-0.7-8.4-0.6c-1.3,0-2.6,0.2-3.9,0.3c-0.1,0-0.1,0-0.2,0c0-0.2,0.1-0.2,0.2-0.3
		c1.3-1.5,2.7-3,4.1-4.5c0.3-0.3,0.5-0.4,0.9-0.4c1.8,0,3.5,0,5.2,0.2c2.4,0.3,4.7,0.7,7,1.5c3.9,1.3,7.3,3.4,10.3,6.2
		c3.4,3.2,5.7,7,7.2,11.4c1,2.9,1.4,5.8,1.6,8.8c0.2,5.3-0.8,10.5-2.7,15.4c-2,5.3-5,10-8.8,14.3c-4,4.5-8.7,8.2-14,11
		c-3.8,2-7.8,3.4-11.9,4.2c-2.1,0.4-4.2,0.6-6.3,0.7c-3.4,0.1-6.8-0.3-10.1-1.3c-0.1,0-0.2-0.1-0.2-0.1c-0.3,0-0.4-0.2-0.4-0.5
		c-0.1-1.1-0.1-2.2,0-3.2c0.1-2.8,0.4-5.6,1-8.4c0.8-3.6,1.9-7,3.9-10.1c1-1.6,2.2-3,3.7-4.1c1.1-0.8,2.4-1.4,3.8-1.6
		c1.6-0.2,3.1,0.1,4.5,0.8c1.7,0.9,3,2.3,4.1,3.9c1.4,2,2.4,4.2,3.1,6.5c0.8,2.3,1.3,4.6,1.6,7C64.1,81,64.2,82,64.3,83.1z"/>
	<path class="st13" d="M74.7,27.2c-0.1,0-0.2-0.1-0.4-0.2c-3.2-1.3-6.6-1.9-10-2.1c-2.8-0.1-5.5,0.1-8.3,0.5
		c-4.4,0.8-8.6,2.2-12.6,4.3c-5.2,2.7-9.8,6.3-13.7,10.7c-2.9,3.2-5.3,6.7-7.3,10.6c-2.2,4.5-3.7,9.2-4.3,14.1c-0.3,2.5-0.3,5,0,7.5
		c0.3,2.6,0.9,5.2,1.9,7.6c2.4,5.8,6.3,10.3,11.9,13.3c0.7,0.4,1.5,0.7,2.3,1.1c0.1,0,0.1,0,0.2,0c0-0.2,0-0.4,0-0.6
		c-0.1-2.6-0.1-5.2,0-7.8c0.1-2.7,0.4-5.5,0.7-8.2c0.3-2.3,0.7-4.6,1.1-6.9c0.9-4.5,2.1-9,3.6-13.4c2.1-6.2,4.9-12.1,8.2-17.7
		c2.1-3.6,4.5-7,7.1-10.2c0.2-0.2,0.3-0.3,0.6-0.3c0.5-0.1,1-0.2,1.6-0.3c0.8-0.2,1.6-0.3,2.5-0.4c-0.1,0.1-0.2,0.2-0.3,0.3
		c-1.5,1.6-2.9,3.4-4,5.4c-1.5,2.5-2.7,5.1-3,8.1c-0.1,1.1-0.1,2.2,0.3,3.3c0.3,0.9,0.9,1.6,1.9,2c0.8,0.3,1.7,0.3,2.6,0.2
		c1.4-0.2,2.7-0.9,3.9-1.6c2.7-1.7,4.9-3.8,6.8-6.3c2.9-3.9,5.1-8.1,6.8-12.7C74.8,27.4,74.8,27.3,74.7,27.2z M65.2,37.7
		c-0.8,2.2-2.2,3.9-4.1,5.3c-0.6,0.4-1.3,0.8-2.1,1c-0.4,0.1-0.9,0.1-1.3,0c-0.9-0.2-1.4-0.9-1.5-1.9c0-0.2,0-0.4,0-0.6
		c0-0.9,0.2-1.7,0.6-2.6c1-2.3,2.5-4.2,4.8-5.4c0.6-0.4,1.3-0.6,2-0.6c1.1,0,2,0.8,2.1,1.9C65.7,35.8,65.5,36.8,65.2,37.7z"/>
</g>
<g id="A">
</g>
</svg>
