<?xml version="1.0" encoding="utf-8"?>
<!-- Generator: Adobe Illustrator 24.1.0, SVG Export Plug-In . SVG Version: 6.00 Build 0)  -->
<svg version="1.1" id="Layer_1" xmlns="http://www.w3.org/2000/svg" xmlns:xlink="http://www.w3.org/1999/xlink" x="0px" y="0px"
	 viewBox="0 0 283.5 283.5" style="enable-background:new 0 0 283.5 283.5;" xml:space="preserve">
<style type="text/css">
	.st0{fill:#9C5A90;}
	.st1{fill:#FFFFFF;}
	.st2{fill:#3395FF;}
	.st3{fill:#072654;}
</style>
<path class="st0" d="M212.1,19.8H71.4c-8.9,0-16.1,7.2-16.1,16.1v53c0,8.9,7.2,16.1,16.1,16.1h66.9l29.7,17.2l-5.9-17.2h50
	c8.9,0,16.1-7.2,16.1-16.1V36C228.2,27,221,19.8,212.1,19.8z"/>
<g>
	<path class="st1" d="M80.4,97C80.4,97,80.4,97,80.4,97c-2,0-3.8-1-4.9-2.6c-1.7-2.5-4.2-8.4-8.5-31.2c-2.3-12.3-4-23.8-4-23.9
		c-0.5-3.3,1.8-6.3,5-6.7c3.3-0.5,6.3,1.8,6.7,5c0,0.1,1.7,11.4,3.9,23.4c1.3,6.9,2.4,12.1,3.3,15.9c5.6-10.3,12.4-24.2,15.4-30.5
		c1.1-2.3,3.5-3.6,6.1-3.3c2.5,0.3,4.6,2.2,5.1,4.7c1,4.7,3.5,14.5,7.2,23.4c1.3-12.6,3.9-28.7,8.9-38.8c1.4-3,5-4.2,7.9-2.7
		c3,1.4,4.2,5,2.7,7.9c-7.8,16-9,52.6-9,53c-0.1,2.4-1.5,4.5-3.7,5.3c-2.2,0.9-4.7,0.3-6.4-1.3c-5.3-5.3-10.2-14.5-14.4-27.2
		c-0.2-0.5-0.4-1.1-0.5-1.6c-5.2,10.3-12,23.5-15.9,28.8C84.1,96.1,82.3,97,80.4,97z"/>
	<path class="st1" d="M172.6,46.9c-2.5-5-6.7-8.5-12.3-10c-6.3-1.8-13.2,0.6-18.3,6.2c-6.1,6.7-10.6,19.3-4.8,34.5
		c4,10.4,10.2,12.3,14.3,12.3c0.4,0,0.8,0,1.2-0.1c10.8-1,19.8-15.3,21.6-25.1C175.5,57.8,175,51.8,172.6,46.9z M162.6,62.7
		c-0.5,3.1-2.5,7.1-4.9,10.3c-2.5,3.3-4.9,4.9-6.1,5c-0.7,0.1-2.1-1.5-3.3-4.7c-2.4-6.3-3.3-16,2.5-22.3c1.7-1.9,3.7-2.9,5.4-2.9
		c0.3,0,0.7,0,1,0.1C163.5,50.1,163.6,57.1,162.6,62.7z"/>
	<path class="st1" d="M216.6,46.9c-1.3-2.5-2.9-4.6-5-6.3c-2.1-1.7-4.5-3-7.3-3.7c-6.3-1.8-13.2,0.6-18.3,6.2
		c-6.1,6.7-10.6,19.3-4.8,34.5c4,10.4,10.2,12.3,14.3,12.3c0.4,0,0.8,0,1.2-0.1c10.8-1,19.8-15.3,21.6-25.1
		C219.6,57.8,219.1,51.8,216.6,46.9z M206.7,62.7c-0.5,3.1-2.5,7.1-4.9,10.3c-2.5,3.3-4.9,4.9-6.1,5c-0.7,0.1-2.1-1.5-3.3-4.7
		c-2.4-6.3-3.3-16,2.5-22.3c1.7-1.9,3.7-2.9,5.4-2.9c0.3,0,0.7,0,1,0.1C207.6,50.1,207.7,57.1,206.7,62.7z"/>
</g>
<path class="st2" d="M123.5,176.3l-7.1,26l40.5-26.2L130.4,275h26.9l39.1-145.9L123.5,176.3z"/>
<polyline class="st3" points="79.9,233.5 68.8,275 123.9,275 146.4,190.5 79.9,233.5 "/>
</svg>
