<?xml version="1.0" encoding="utf-8"?>
<!-- Generator: Adobe Illustrator 16.0.0, SVG Export Plug-In . SVG Version: 6.00 Build 0)  -->
<!DOCTYPE svg PUBLIC "-//W3C//DTD SVG 1.1//EN" "http://www.w3.org/Graphics/SVG/1.1/DTD/svg11.dtd">
<svg version="1.1" id="Layer_1" xmlns="http://www.w3.org/2000/svg" xmlns:xlink="http://www.w3.org/1999/xlink" x="0px" y="0px"
	 width="60px" height="60px" viewBox="0 0 60 60" enable-background="new 0 0 60 60" xml:space="preserve">
<path fill="#53C1DE" d="M48.688,21.244c-0.617-0.211-1.24-0.407-1.866-0.588c0.103-0.422,0.199-0.847,0.288-1.273
	c1.413-6.861,0.488-12.387-2.667-14.207C41.417,3.431,36.469,5.25,31.472,9.6c-0.493,0.43-0.975,0.872-1.444,1.325
	c-0.315-0.301-0.636-0.598-0.961-0.888c-5.237-4.651-10.488-6.61-13.64-4.786c-3.024,1.75-3.918,6.946-2.646,13.447
	c0.127,0.645,0.27,1.285,0.429,1.922c-0.743,0.21-1.461,0.435-2.146,0.675C4.922,23.436,1,26.792,1,30.272
	c0,3.594,4.209,7.2,10.606,9.386c0.518,0.177,1.042,0.34,1.568,0.49c-0.171,0.685-0.323,1.376-0.456,2.071
	c-1.212,6.389-0.265,11.462,2.75,13.2c3.114,1.795,8.34-0.049,13.429-4.499c0.402-0.351,0.806-0.725,1.21-1.115
	c0.509,0.491,1.033,0.969,1.568,1.432c4.929,4.241,9.798,5.954,12.81,4.209c3.111-1.801,4.122-7.25,2.81-13.882
	c-0.101-0.506-0.217-1.021-0.348-1.548c0.366-0.108,0.727-0.221,1.079-0.337C54.673,37.477,59,33.916,59,30.272
	C59,26.779,54.951,23.401,48.688,21.244z M33.098,11.469c4.283-3.727,8.283-5.198,10.107-4.146
	c1.942,1.121,2.697,5.637,1.478,11.561c-0.08,0.386-0.166,0.771-0.262,1.153c-2.405-0.555-5.019-0.969-7.755-1.225
	c-1.594-2.269-3.244-4.333-4.902-6.119C32.198,12.273,32.643,11.865,33.098,11.469z M18.125,33.244
	c0.525,1.014,1.073,2.015,1.645,3.001c0.584,1.009,1.19,2.001,1.821,2.979c-1.899-0.211-3.691-0.498-5.345-0.859
	C16.758,36.711,17.388,34.994,18.125,33.244z M18.122,27.418c-0.721-1.711-1.338-3.395-1.843-5.019
	c1.656-0.371,3.421-0.674,5.259-0.903c-0.615,0.96-1.209,1.934-1.778,2.921C19.191,25.405,18.645,26.405,18.122,27.418z
	 M19.44,30.332c0.763-1.589,1.586-3.149,2.467-4.676v0c0.88-1.527,1.819-3.022,2.812-4.478c1.726-0.131,3.494-0.199,5.282-0.199
	c1.795,0,3.567,0.068,5.292,0.201c0.982,1.453,1.915,2.941,2.794,4.461c0.885,1.523,1.718,3.076,2.5,4.654
	c-0.774,1.593-1.607,3.161-2.492,4.696l0,0c-0.878,1.526-1.807,3.021-2.782,4.487c-1.72,0.124-3.499,0.188-5.312,0.188
	c-1.804,0-3.56-0.057-5.251-0.165c-1.001-1.463-1.947-2.964-2.834-4.498C21.031,33.479,20.205,31.92,19.44,30.332z M40.24,36.229
	c0.584-1.011,1.145-2.036,1.683-3.073c0.775,1.768,1.428,3.477,1.947,5.102c-1.682,0.384-3.497,0.694-5.409,0.923
	C39.073,38.209,39.666,37.225,40.24,36.229z M41.899,27.419c-0.537-1.018-1.093-2.023-1.67-3.018
	c-0.567-0.979-1.154-1.947-1.762-2.901c1.851,0.233,3.624,0.544,5.286,0.925C43.255,24.027,42.632,25.702,41.899,27.419z
	 M30.028,14.464c1.142,1.238,2.288,2.62,3.412,4.12c-2.281-0.108-4.57-0.109-6.854-0.002C27.713,17.097,28.867,15.716,30.028,14.464
	z M16.667,7.396c1.94-1.123,6.231,0.479,10.753,4.495c0.289,0.257,0.58,0.524,0.87,0.803c-1.684,1.811-3.349,3.87-4.94,6.115
	c-2.728,0.253-5.339,0.658-7.74,1.202c-0.148-0.592-0.281-1.188-0.399-1.787l0,0C14.122,12.653,14.845,8.451,16.667,7.396z
	 M13.839,37.763c-0.48-0.14-0.958-0.288-1.432-0.448c-2.829-0.967-5.163-2.224-6.765-3.595c-1.438-1.231-2.164-2.455-2.164-3.447
	c0-2.113,3.148-4.807,8.4-6.637c0.66-0.229,1.325-0.438,1.996-0.628c0.726,2.361,1.678,4.829,2.827,7.325
	C15.538,32.865,14.572,35.373,13.839,37.763z M27.267,49.056c-2.251,1.968-4.506,3.362-6.493,4.063h0
	c-1.786,0.632-3.208,0.649-4.068,0.154c-1.83-1.056-2.59-5.129-1.553-10.592c0.124-0.646,0.265-1.287,0.424-1.926
	c2.375,0.525,5.006,0.903,7.816,1.131c1.604,2.259,3.285,4.333,4.979,6.151C28.011,48.387,27.643,48.725,27.267,49.056z
	 M30.097,46.256c-1.175-1.268-2.346-2.669-3.49-4.178c1.11,0.045,2.243,0.066,3.393,0.066c1.183,0,2.351-0.025,3.501-0.077
	C32.372,43.603,31.23,45.006,30.097,46.256z M45.143,49.703c-0.346,1.861-1.04,3.103-1.899,3.6
	c-1.829,1.059-5.738-0.316-9.952-3.944c-0.484-0.416-0.97-0.86-1.457-1.331c1.633-1.786,3.266-3.863,4.86-6.172
	c2.804-0.248,5.454-0.655,7.855-1.21c0.118,0.476,0.223,0.944,0.314,1.401C45.443,44.979,45.526,47.629,45.143,49.703z
	 M47.247,37.327L47.247,37.327c-0.318,0.104-0.645,0.208-0.975,0.305c-0.734-2.323-1.727-4.794-2.938-7.348
	c1.155-2.493,2.108-4.932,2.823-7.241c0.592,0.172,1.168,0.353,1.723,0.545c5.369,1.847,8.643,4.579,8.643,6.684
	C56.523,32.514,52.986,35.425,47.247,37.327z"/>
<circle fill="#53C1DE" cx="30" cy="30.272" r="5.179"/>
</svg>
