<?xml version="1.0" encoding="utf-8"?>
<!-- Generator: Adobe Illustrator 24.1.0, SVG Export Plug-In . SVG Version: 6.00 Build 0)  -->
<svg version="1.1" id="Layer_1" xmlns="http://www.w3.org/2000/svg" xmlns:xlink="http://www.w3.org/1999/xlink" x="0px" y="0px"
	 viewBox="0 0 414 414" style="enable-background:new 0 0 414 414;" xml:space="preserve">
<style type="text/css">
	.st0{fill:#EFC389;}
	.st1{fill:#FEFEFE;}
	.st2{fill:#F3D4AB;}
	.st3{fill:#F2CFA1;}
	.st4{fill:#F5DCBB;}
	.st5{fill:#4C4372;}
	.st6{fill:#A3CEF1;}
	.st7{fill:#D1E3F6;}
	.st8{fill:#FDFDFD;}
	.st9{fill:#D2E4F6;}
	.st10{fill:#FC909D;}
</style>
<g>
	<path class="st0" d="M200.1,0.1c4.8,0,9.7,0,14.5,0c1.9,0.6,3.8,0.6,5.6,0c1.1,0,2.2,0,3.2,0c6.4,0.9,12.8,0.6,19.1,1.5
		c17.2,2.4,33.5,7.7,49.2,14.7c23.5,10.3,44.3,24.7,62.4,42.9c30.4,30.4,49.7,66.8,57.7,109c1.2,6.3,1.1,12.8,1.5,19.2
		c0.1,1-0.3,2.2,0.4,3.1c0,1.9,0,3.8,0,5.6c-0.6,1.6-0.6,3.2,0,4.8c0,3.8,0,7.5,0,11.3c-0.8,1.3-0.2,2.8-0.4,4.1
		c0.2,1.6-0.4,3.2,0.4,4.8c0,0.8,0,1.6,0,2.4c-0.9,5.7-0.7,11.4-1.4,17.1c-1.8,15.6-6.5,30.4-12.5,44.9
		c-7.7,18.6-17.6,35.9-30.4,51.5c-17.2,21-37.4,38.4-61.1,51.7c-20.7,11.5-42.8,19.2-66.2,23.2c-7.8,1.3-15.8,1.3-23.7,1.5
		c-13.8,0.4-27.6,0.3-41.4-1.1c-14.5-1.4-28.4-5.4-42.1-10.5c-23.8-8.8-45.4-21.4-64.4-38.2c-18.3-16.2-33.8-34.8-45.6-56.4
		c-11.4-20.8-19.2-42.8-23-66.2c-1.2-7.6-1.2-15.2-1.5-22.8c-0.5-13.7-0.3-27.4,0.9-41c1.6-17.1,6.5-33.4,13-49.3
		c9.7-23.7,23.4-44.8,41-63.6c17.2-18.4,37-33.1,59.3-44.3c17.1-8.6,35.2-14.7,54.1-18c6.3-1.1,12.8-1.1,19.2-1.5
		c1-0.1,2.2,0.3,3.1-0.4c1.1,0,2.2,0,3.2,0C196.4,0.7,198.2,0.7,200.1,0.1z"/>
	<path class="st1" d="M191.2,0.1c-6.3,1.8-12.9,1.9-19.3,3.1c-34.1,5.9-64.8,19.5-91.8,40.9C39.9,75.9,14.2,117,4.7,167.6
		C-6,224.9,5.2,278,38.9,325.7c32,45.1,75.5,73.5,129.8,83.6c61,11.4,116.8-2.1,165.8-40.3c40.6-31.6,65.7-73.3,75.6-123.8
		c1.2-6.2,1.9-12.5,2.8-18.7c0.2-1-0.2-2.2,0.9-3c0,62.4,0,124.8,0.1,187.1c0,2.8-0.5,3.3-3.3,3.3c-135.8-0.1-271.6-0.1-407.3,0
		c-2.8,0-3.3-0.5-3.3-3.3C0.1,274.9,0.1,139.1,0,3.3C0,0.5,0.5,0,3.3,0C66,0.1,128.6,0.1,191.2,0.1z"/>
	<path class="st1" d="M413.9,190.4c-1.9-6.2-1.9-12.6-3-18.9c-6.5-37-21.8-69.9-46.1-98.4C335.3,38.5,298.5,16,254.3,5.4
		c-9.3-2.2-18.7-3.6-28.2-4.5c-0.9-0.1-1.9,0.1-2.6-0.8c62.3,0,124.6,0,186.9-0.1c2.9,0,3.5,0.6,3.5,3.5
		C413.9,65.8,413.9,128.1,413.9,190.4z"/>
	<path class="st2" d="M200.1,0.1c-1.9,1.1-3.8,1.3-5.6,0C196.4,0.1,198.2,0.1,200.1,0.1z"/>
	<path class="st2" d="M220.3,0.1c-1.9,1.3-3.8,1.1-5.6,0C216.5,0.1,218.4,0.1,220.3,0.1z"/>
	<path class="st3" d="M413.9,200.9c-1.1-1.6-1.2-3.2,0-4.8C413.9,197.7,413.9,199.3,413.9,200.9z"/>
	<path class="st4" d="M413.9,221.1c-1.4-1.4-0.6-3.2-0.8-4.8c0.2-0.6,0.5-0.6,0.8,0C413.9,217.9,413.9,219.5,413.9,221.1z"/>
	<path class="st3" d="M413.9,216.3c-0.3,0-0.5,0-0.8,0c0-1.4-0.3-2.9,0.8-4.1C413.9,213.6,413.9,214.9,413.9,216.3z"/>
	<path class="st5" d="M207.2,294.3c-25.1,0-50.2,0-75.4,0c-7.2,0-9-1.8-9-9.1c0-13.8,0-27.7,0-41.5c0-22.6,15-37.7,37.6-37.8
		c6.6,0,13.2,0,19.7-0.1c1.6,0,4.2,1.3,4.6-1.5c0.4-2.5,0.9-5.1-2.1-7.1c-8.7-5.9-14.2-14.1-17-24.2c-1.2-4.5-1.5-9-1.3-13.6
		c0.2-8.7-0.9-17.5,0.9-26.1c4.5-21.6,24-35.7,46.7-33.9c20.6,1.7,37.6,19.7,38.3,41c0.3,9.4,0.9,18.9-0.4,28.2
		c-1.6,11.7-7.5,21.2-17.1,28.1c-2.2,1.6-3.1,3.3-3,6c0,2.4,0.7,3.3,3.2,3.2c7.3-0.1,14.5,0,21.8,0c22.1,0.1,37.2,15.2,37.2,37.3
		c0,14.1,0,28.2,0,42.3c0,6.9-1.9,8.7-9,8.8C257.7,294.3,232.5,294.3,207.2,294.3z"/>
	<path class="st5" d="M213.3,356.3c0,4.3,0.1,8.6,0,12.9c-0.1,4.9-2.1,7-6.9,6.9c-48.9-0.7-90.2-19-123.5-54.6
		c-24.5-26.2-38.8-57.4-43.6-92.9c-0.6-4.1-1-8.3-1.1-12.4c-0.1-2.7-0.9-3.8-3.7-3.7c-5.4,0.2-10.8,0-16.1,0.1c-2.8,0-5-0.8-6.3-3.4
		c-1.3-2.7-0.4-5,1.4-7c13.2-14.7,26.3-29.5,39.6-44.1c3-3.4,6.6-3.3,9.7,0.1c13.1,14.6,26.2,29.2,39.3,43.8c1.8,2,2.9,4.3,1.6,7
		c-1.3,2.8-3.7,3.7-6.6,3.6c-5.2-0.1-10.5,0.1-15.7-0.1c-2.8-0.1-3.4,0.8-3.2,3.5c2.1,28.9,12.7,54.3,31.8,75.9
		c25.3,28.6,57.3,43.2,95.4,44.4c6.4,0.2,8,1.8,8,8.3C213.3,348.5,213.3,352.4,213.3,356.3z"/>
	<path class="st5" d="M325.7,200.7c1.2,0,2.4,0,3.6,0c7.8,0,8,0,7-7.7c-6.5-48.7-32-83.7-76.3-104.8c-15.9-7.5-32.8-10.8-50.4-11.2
		c-6.5-0.2-8.1-1.8-8.1-8.2c0-7.9,0-15.9,0-23.8c0-6.2,1.8-7.9,7.9-7.8c79.4,0.7,148.3,57.6,164.1,135.5c1.7,8.2,2.9,16.4,3.1,24.8
		c0.1,2.7,1,3.5,3.6,3.4c5.4-0.1,10.8,0,16.1-0.1c2.9,0,5.3,0.8,6.6,3.7c1.2,2.7,0.1,5-1.7,7c-13.1,14.6-26.1,29.3-39.3,43.8
		c-3.1,3.4-6.7,3.4-9.7,0C339,240.7,326,226,312.9,211.4c-1.9-2.1-3-4.5-1.6-7.3c1.3-2.6,3.6-3.4,6.3-3.4
		C320.3,200.7,323,200.7,325.7,200.7z"/>
	<path class="st1" d="M238.2,152c0.1,6,0.8,12.1-0.9,18c-4.1,15-17.7,24.3-33.6,22.8c-14.1-1.3-26-13.2-27.2-27.9
		c-0.7-8.7-0.8-17.5,0-26.2c1.4-15.8,14.8-27.7,30.8-27.7c15.9,0,29.4,11.9,30.8,27.7C238.5,143.1,238.2,147.6,238.2,152z"/>
	<path class="st6" d="M134.8,259.8c0-6.2-0.1-12.4,0-18.5c0.2-13.2,10.3-23.1,23.4-23.4c10.7-0.2,10.7-0.2,13.1,10.4
		c3.8,16.8,7.5,33.5,11.5,50.2c0.8,3.3-0.2,3.8-3.2,3.8c-11,0-11,0.1-11-10.7c0-5,0-9.9,0-14.9c0-4.8-2.2-7.5-6-7.5
		c-3.8,0-6,2.5-6,7.4c0,7.5-0.1,15.1,0,22.6c0,2.1-0.3,3.2-2.8,3.2c-5.4-0.2-10.8-0.2-16.1,0c-2.5,0.1-2.9-1.1-2.8-3.2
		C134.9,272.7,134.8,266.3,134.8,259.8z"/>
	<path class="st6" d="M279.9,259.8c0,6.5,0,12.9,0,19.4c0,2.1-0.3,3.2-2.8,3.2c-5.4-0.1-10.8-0.2-16.1,0c-2.5,0.1-2.8-1.1-2.8-3.2
		c0.1-7.5,0.1-15.1,0-22.6c0-4.8-2.2-7.4-6-7.4c-3.8,0-5.9,2.7-6,7.5c0,7.4-0.1,14.8,0,22.2c0.1,2.6-0.7,3.8-3.4,3.4
		c-3.7-0.4-8.7,1.7-10.7-0.9c-1.8-2.3,0.9-6.8,1.7-10.3c3.7-16.6,7.6-33.2,11.2-49.9c0.6-2.7,1.7-3.5,4.3-3.4
		c3.5,0.2,7-0.2,10.5,0.3c11.7,1.7,19.9,11.2,20.2,23.1C280,247.4,279.9,253.6,279.9,259.8z"/>
	<path class="st7" d="M213.3,241.2c4.3,3.8,7.9,7,11.5,10.1c1.2,1,0.6,2.2,0.4,3.4c-1.9,8.4-3.9,16.7-5.6,25.1
		c-0.5,2.5-2,2.4-3.8,2.4c-1.4,0-2.4-0.3-2.4-1.9c0-0.7,0-1.3,0-2C213.3,266.2,213.3,254.2,213.3,241.2z"/>
	<path class="st7" d="M201.4,241.2c0,13.6,0,26.2,0,38.8c0,1.5-0.6,2.3-2.1,2.2c-1.5-0.1-3.4,0.6-3.9-1.7c-2-8.9-4-17.8-6-26.7
		c-0.3-1.3,0.1-2,1-2.8C193.8,248,197.2,244.9,201.4,241.2z"/>
	<path class="st8" d="M217.7,207c0.6,2.5-1.2,3.7-2.7,5c-2.6,2.3-4.6,6.5-7.7,6.6c-3,0-5.1-4.3-7.7-6.5c-0.8-0.7-1.6-1.4-2.2-2.3
		c-1.1-1.6-0.9-3.5-0.3-5c0.6-1.5,2.4-0.4,3.6-0.3c4.7,0.7,9.3,0.8,13.9-0.2C217.1,203.8,218.3,204.3,217.7,207z"/>
	<path class="st9" d="M186,238.8c-1.5-6.5-2.8-12.4-4.2-18.3c-0.5-1.9,0-2.4,2.1-2.7c4-0.6,6.4,1.6,9,4.1c5.7,5.7,5.8,5.6-0.3,11.1
		C190.6,234.8,188.5,236.6,186,238.8z"/>
	<path class="st9" d="M228.8,238.8c-4-3.6-7.5-6.7-11-9.7c-1.2-1-1.3-1.8-0.1-2.9c2.5-2.4,4.9-4.9,7.5-7.2c2.2-1.9,4.9-1.1,7.3-0.8
		c1.4,0.2,0.6,1.8,0.4,2.7C231.6,226.6,230.2,232.4,228.8,238.8z"/>
	<path class="st10" d="M83.8,200.3c-3.7,0.9-7.3,0.3-10.8,0.4c-5.2,0.2-7.3,2.3-7.3,7.4c0.7,63.7,44.2,119.3,106.1,135.5
		c8.5,2.2,17,3.8,25.8,4.1c3,0.1,4.2,1.1,3.9,4c-0.2,1.7,0,3.5,0,5.2c0,7.4,0,7.4-7.5,6.7c-70.1-6.4-127.2-57.4-141.2-126.2
		c-1.9-9.4-2.8-18.8-2.9-28.4c-0.1-6.7-1.8-8.3-8.4-8.3c-3.2,0-6.3,0-10.6,0c4.1-4.7,7.4-8.4,10.8-12.2c4.7-5.3,9.5-10.6,14.2-15.9
		c1.2-1.3,2-2.4,3.7-0.4c7.9,9,15.9,17.9,23.8,26.8C83.5,199.3,83.6,199.7,83.8,200.3z"/>
	<path class="st10" d="M384.1,212.5c-9.2,10.3-17.5,19.6-25.8,28.9c-0.9,1.1-1.6,1.1-2.6,0c-8.3-9.3-16.6-18.6-25.8-28.9
		c4.7,0,8.4,0.1,12.1,0c4.9-0.1,7.1-2.4,7-7.3c-0.9-39-15-72.6-42.9-99.9c-24.7-24.2-54.6-37.5-89.3-39.9c-2.8-0.2-3.8-1.1-3.6-3.9
		c0.2-2.8,0.2-5.7,0-8.5c-0.3-3.4,1.1-4,4.2-3.8c32.9,2.3,62.5,13.3,88,34.1c38,30.9,58,71.1,59.5,120.2c0.2,7.4,1.7,8.9,9.2,8.9
		C376.9,212.5,379.9,212.5,384.1,212.5z"/>
</g>
</svg>
