<?xml version="1.0" encoding="utf-8"?>
<!-- Generator: Adobe Illustrator 24.1.0, SVG Export Plug-In . SVG Version: 6.00 Build 0)  -->
<svg version="1.1" id="Layer_1" xmlns="http://www.w3.org/2000/svg" xmlns:xlink="http://www.w3.org/1999/xlink" x="0px" y="0px"
	 viewBox="0 0 425.2 425.2" style="enable-background:new 0 0 425.2 425.2;" xml:space="preserve">
<style type="text/css">
	.st0{fill-rule:evenodd;clip-rule:evenodd;fill:#CC0000;}
</style>
<path class="st0" d="M14.4,377.3h147.3c0,0-28.1-173.9,65.1-244.5c20.3-13.4,85-63.4,190.9,42.7c3.4-3.8,6.5-6.8,6.5-6.8
	S327.3,37.6,219.3,52.4c-54.2,6.5-121,73.4-160.1,161.8S14.4,377.3,14.4,377.3z"/>
<path class="st0" d="M14.4,377.3h147.3c0,0-28.1-173.9,65.1-244.5c20.3-13.4,85-63.4,190.9,42.7c3.4-3.8,6.5-6.8,6.5-6.8
	S327.3,37.6,219.3,52.4c-54.2,6.5-121,73.4-160.1,161.8S14.4,377.3,14.4,377.3z"/>
<path class="st0" d="M14.4,377.3h147.3c0,0-28.1-173.9,65.1-244.5c20.3-13.4,85-63.4,190.9,42.7c3.4-3.8,6.5-6.8,6.5-6.8
	S327.3,37.6,219.3,52.4C164.9,59,98.1,125.9,59,214.2S14.4,377.3,14.4,377.3z M321.3,66.6l0.7-16.9c-1.7-1.2-6.3-4.3-18.1-8.8
	l-0.7,16.7C309.4,60.2,315.3,63.2,321.3,66.6z"/>
<path class="st0" d="M303.6,120.1l-0.7,15.8c6.2,0.3,12.3,1.2,18.5,3l0.7-15.7C315.7,121.6,309.5,120.6,303.6,120.1z M234.6,41.3
	h1.9l-3.7-15.4c-5.8,0-11.7,0.5-17.9,1.5l3.5,14.9C223.8,41.5,229.2,41.3,234.6,41.3z M243.6,134.2l4.3,17.5
	c5.4-3.5,10.8-6.5,16.2-8.8l-4.1-16.7C253.6,128.6,248.2,131.5,243.6,134.2z M158.9,67.8l-8.4-17.5c-4.7,3.3-9.5,6.8-14.5,10.8
	l8.6,17.6C149.4,74.9,154.1,71.1,158.9,67.8z M197.1,181.4l8.9,18.1c3.2-6.4,6.9-12.1,11-17.9l-8.4-17.2
	C204.4,169.8,200.5,175.6,197.1,181.4z M170.1,262.7l15.1,16.1c0.7-9.9,2.1-19.6,3.9-29.5l-13.4-14.4
	C173.3,244.3,171.6,253.6,170.1,262.7z M88.5,142.8l-13.2-15.7c-4.8,6.4-9.5,12.6-13.8,19l14.4,16.7C79.7,156,84,149.1,88.5,142.8z
	 M32.2,255.7l-21.4-10.6c-3.5,10.8-7.5,23.4-9.3,30.3L22.9,286C25.3,277.3,29.2,265,32.2,255.7z M167.3,326.9
	c0.4,13.4,1.3,24.2,2.2,31.8l22.4,10.8c-1.7-9.9-3.4-21-4.5-32.8L167.3,326.9z"/>
</svg>
