<?xml version="1.0" encoding="utf-8"?>
<!-- Generator: Adobe Illustrator 24.1.0, SVG Export Plug-In . SVG Version: 6.00 Build 0)  -->
<svg version="1.1" id="Layer_1" xmlns="http://www.w3.org/2000/svg" xmlns:xlink="http://www.w3.org/1999/xlink" x="0px" y="0px"
	 viewBox="0 0 612 609.4" style="enable-background:new 0 0 612 609.4;" xml:space="preserve">
<style type="text/css">
	.st0{fill:#42A740;}
	.st1{fill:#FEFEFE;}
	.st2{fill:#F2F9F2;}
	.st3{fill:#42A840;}
</style>
<path class="st0" d="M306.6,95.4c93.8,0,187.7,0,281.5,0c2,0,4.1-0.1,6.1,0c10.7,0.4,17.8,7.7,17.8,18.4c0,34.8,0,69.7,0,104.5
	c0,81.3,0,162.6,0,243.9c0,14.4-6.5,20.9-20.9,20.9c-190.1,0-380.2,0-570.3,0c-14.5,0-20.9-6.5-20.9-20.9c0-115.1,0-230.2,0-345.3
	c0-15.2,6.3-21.5,21.5-21.5C116.4,95.4,211.5,95.4,306.6,95.4z"/>
<path class="st1" d="M237.7,312.3c-0.3,3.2-0.3,5.7-0.7,8.1c-3.4,20.8-24.9,31.8-46.5,24c-1.3-0.5-2.6-1.1-3.9-1.7
	c-3.5-1.7-8.5-3.3-8.8-6.8c-0.3-3.1,5.2-4.3,7.9-6.8c2.1-2,3.9-1.1,6,0.3c4.2,2.7,8.8,4.5,13.8,4.1c11.4-0.8,16.6-7.4,15.8-20.3
	c-6.3,3-12.4,5.9-19.5,6.2c-7,0.2-13.2-1.6-19.2-6.2c0.2,10.4-7.1,5-11.2,6c-3.6,0.9-6.3-0.2-4.5-5.2c-13.7,7.3-26.8,8-39.6-0.2
	c-2.5-1.6-4.2-0.3-6.1,0.6c-17.6,8.5-40.4,5.8-55.8-6.6c0.1-1.4,1.3-1.9,2.1-2.7c4.6-5.4,8.9-6.7,15.7-2.1c7.2,4.9,16.1,5.4,24.7,3
	c4.1-1.2,7.8-3.5,7.6-8.3c-0.2-5.1-4.7-5.6-8.6-6.1c-6.1-0.8-12.2-1-18.2-1.8c-10.9-1.5-18.2-8.2-18.9-16.9
	c-0.7-9.4,5.1-17,15.9-20.4c3.1-1,6.4-1.4,9.6-1.7c9.3-0.8,18.3,0.7,26.8,4.7c2.5,1.2,4.5,1.3,7.3,0c16.5-7.3,32.7-7.5,48,3.2
	c1.3,0.9,1.9,1.5,3.5,0.2c12.9-10.8,26.3-11.2,40.3-1.2c-0.1-10.8,7.8-5.1,12.2-5.9c3.8-0.7,4,0,4.6,6.1c7.4-4.4,14.8-7.5,23.5-7.2
	c17.6,0.7,29.7,12.8,29.9,30.4c0.1,10.8,0.1,10.8-11,10.7c-10.6,0-21.2-0.1-31.8,0c-5.4,0-6.7,2.3-4.1,7.1c2.9,5.4,8.1,7.2,13.7,7.9
	c6.7,0.8,12.9-1.1,18.5-4.8c2.5-1.6,12.2,2.9,12.1,5.6c-0.1,1.7-1.9,2.6-3.1,3.6c-11.1,9.1-29.9,11-42.7,4.2
	C241.4,314.6,239.9,313.6,237.7,312.3z"/>
<path class="st1" d="M360.9,307.8c0,11.6-0.1,21.8,0.1,32c0,3.2-0.6,4.8-4.3,4.8c-3.7,0-4.3-1.5-4.3-4.7c0.1-28.3,0.1-56.6,0-84.9
	c0-2.9,0.5-4.3,3.9-4.3c3.8,0,3.8,1.9,3.7,4.6c-0.1,2,0,4.1,0,7.5c5.7-8.6,12.8-12.9,22-13.9c12.4-1.3,23.5,4,28.9,15.1
	c6.7,13.6,6.5,27.4,0.3,41.2C402.9,323.8,374,327.3,360.9,307.8z"/>
<path class="st1" d="M466.9,308.4c-7.3,11.2-17.8,13.7-30,12.1c-10.2-1.4-16.7-8-17.2-17.5c-0.6-11.2,4-18,14.9-20.4
	c7.7-1.7,15.7-2.5,23.5-3.8c3.7-0.6,8-0.7,8.8-5.9c0.8-5.3,0.3-10.3-4.3-13.8c-6.3-4.8-20.4-4.3-26.6,0.6c-2.5,2-4.4,4.6-4.5,7.7
	c-0.2,5.3-3.7,4.6-6.8,4.1c-4.5-0.6-1.7-3.8-1.4-5.7c1.2-7.6,6.2-12.2,13.1-14.7c8-3,16.3-3.2,24.6-0.9c8.6,2.3,13.9,7.7,14.2,16.8
	c0.4,12.4,0.3,24.8,0.4,37.2c0,4-0.3,8.1,5.7,7.8c2.6-0.1,1.7,2.2,1.9,3.6c0.2,2.3-0.9,3.1-3.2,3.5
	C473.1,320.2,470.3,318.1,466.9,308.4z"/>
<path class="st1" d="M511.1,307.5c6.1-16.8,12.5-33.5,18.1-50.4c1.9-5.6,4.5-7.7,10.6-5.8c-5.3,14-10.6,28-15.9,41.9
	c-4.8,12.7-9.4,25.5-14.6,38.1c-4.5,11-10.2,14.2-20,12.9c-2.9-0.4-3.6-1.6-3.6-4.3c0-3.3,1.7-2.8,3.9-2.8
	c9.9,0.2,18.9-13.1,15.2-22.3c-7.8-19.4-15.7-38.8-23.3-58.3c-0.6-1.6-4.3-4.4-0.2-5.7c2.9-0.9,6.5-1.4,8.3,3.4
	c5.8,16,12.1,31.9,18.4,47.8C508.7,304,508.8,306.3,511.1,307.5z"/>
<path class="st2" d="M319.6,280.8c0-19.3,0-38.6,0-57.9c0-1.4,0-2.8,0.1-4.3c0-1.2,0.6-1.9,1.8-2c1.3-0.1,1.8,0.7,1.8,1.9
	c0,1.4,0.1,2.8,0.1,4.3c0,38.4,0,76.8,0,115.3c0,1.4,0,2.8,0,4.3c-0.1,1-0.3,2.1-1.7,2c-1.2,0-1.9-0.8-1.9-1.9
	c-0.1-1.4-0.1-2.8-0.1-4.3C319.6,319,319.6,299.9,319.6,280.8z"/>
<path class="st0" d="M221.4,284.6c0.2,18.2-11.5,26-25.6,18.9c-2.9-1.5-5.1-3.5-5.9-6.6c-2-8.1-1.3-16.3,0.2-24.3
	c1.1-5.6,6.8-7.3,11.8-8.3c10.7-2,17.5,3.2,18.9,14C221.2,281,221.3,283.6,221.4,284.6z"/>
<path class="st3" d="M151,278.8c-8.2-0.3-16.4-0.8-23.6,4.3c-0.9,0.7-1.9,0.7-2.8,0.1c-8-6-17.6-4.2-26.5-5.4
	c-2.4-0.3-4.8-0.7-7.2-1.3c-2.9-0.8-5.4-2.2-5.2-5.8c0.1-3.3,2.2-5.2,5.1-6.2c8.2-2.8,16.2-1.3,23.7,2.3c3.7,1.8,6.5,2.8,9.2-1.1
	c1.5-2.3,3.4-1.9,4.9,0.1c2.8,3.7,5.5,3,9.2,0.8c7.5-4.4,15.8-3.3,23.8-1.4c5.7,1.4,4.8,6.3,4.5,10.5c-0.3,4.8-4.1,2.8-6.6,3.1
	C156.7,279,153.9,278.8,151,278.8z"/>
<path class="st3" d="M261.4,279.4c-4.7,0-9.4-0.1-14.1,0c-3.6,0.1-4-1.4-3.2-4.5c1.9-7.4,7.6-12,16.1-12.3c9-0.4,16.2,4,18.4,11.1
	c1.3,4.2,0.3,6.1-4.4,5.7C270,279.1,265.7,279.4,261.4,279.4z"/>
<path class="st3" d="M150.6,307.1c-3.7,0-7.3-0.2-10.8-1.4c-3.2-1.1-5.2-3.2-5.3-6.6c-0.2-3.6,1.8-5.8,4.9-6.8
	c8.1-2.6,16.5-1,24.7-1.2c2.3-0.1,2,2.1,2.1,3.7c0.3,4.2-0.1,8.2-4.4,10.5C158.4,307.2,154.5,307.2,150.6,307.1z"/>
<path class="st0" d="M407.4,284.6c-0.2,5.9-1.2,11.2-3.4,16.3c-3.7,8.5-10.1,13.2-19.4,13.1c-9.6,0-16.9-4.2-20.7-13.3
	c-4.3-10.4-4.3-21-0.3-31.5c3.5-9.3,10.9-13.2,20.5-13.4c9.3-0.2,15.9,4.1,19.7,12.6C406.2,273.6,407.2,279.2,407.4,284.6z"/>
<path class="st3" d="M467.1,283.3c0.1,4.6,0.5,9.3-0.5,13.9c-2.9,12.8-18.9,20.7-30.8,15.2c-5.6-2.6-8.3-7-7.7-13.2
	c0.6-6.3,4.9-9.2,10.3-10.5C447.9,286.6,457.5,285.1,467.1,283.3z"/>
</svg>
