<?xml version="1.0" encoding="utf-8"?>
<!-- Generator: Adobe Illustrator 24.1.0, SVG Export Plug-In . SVG Version: 6.00 Build 0)  -->
<svg version="1.1" id="Layer_1" xmlns="http://www.w3.org/2000/svg" xmlns:xlink="http://www.w3.org/1999/xlink" x="0px" y="0px"
	 viewBox="0 0 112 112" style="enable-background:new 0 0 112 112;" xml:space="preserve">
<style type="text/css">
	.st0{fill:#F58C11;}
	.st1{fill:#F58D11;}
	.st2{fill:#EA4335;}
	.st3{fill:#4285F4;}
	.st4{fill:#34A853;}
	.st5{fill:#FBBC05;}
	.st6{fill:#0089D6;}
	.st7{fill:#D32F2F;}
	.st8{fill:#B71C1C;}
	.st9{fill:#F44336;}
	.st10{fill:#03786F;}
	.st11{fill:#FCFDFD;}
	.st12{fill:#FBFDFD;}
	.st13{fill:#C40022;}
	.st14{fill:url(#SVGID_1_);}
	.st15{fill:none;}
	.st16{fill:#BE202E;}
	.st17{opacity:0.35;fill:#BE202E;enable-background:new    ;}
	.st18{fill:url(#SVGID_2_);}
	.st19{fill:url(#SVGID_3_);}
	.st20{fill:url(#SVGID_4_);}
	.st21{fill:url(#SVGID_5_);}
	.st22{fill:url(#SVGID_6_);}
	.st23{fill:url(#SVGID_7_);}
	.st24{fill:url(#SVGID_8_);}
	.st25{fill:url(#SVGID_9_);}
	.st26{fill:#00A818;}
	.st27{fill-rule:evenodd;clip-rule:evenodd;fill:#488ECB;}
	.st28{fill:#C72566;}
	.st29{fill:#FF8C2A;}
	.st30{fill:#CF4F8C;}
	.st31{opacity:0.2;fill:#FFFFFF;enable-background:new    ;}
	.st32{fill:#3F3F3F;}
	.st33{opacity:0.2;fill:none;stroke:#000000;stroke-width:2;stroke-linecap:round;enable-background:new    ;}
	.st34{fill:none;stroke:#FFFFFF;stroke-width:2;stroke-linecap:round;}
	.st35{fill:#FF496C;}
	.st36{fill:#FD405F;}
	.st37{fill:#96EFFF;}
	.st38{fill:#6CE0F9;}
	.st39{fill:#40DAF4;}
	.st40{fill:#E12826;}
	.st41{clip-path:url(#SVGID_11_);fill:#838383;}
	.st42{clip-path:url(#SVGID_11_);fill:#828282;}
	.st43{clip-path:url(#SVGID_11_);fill:#818181;}
	.st44{clip-path:url(#SVGID_11_);fill:#808080;}
	.st45{clip-path:url(#SVGID_11_);fill:#7F7F7F;}
	.st46{clip-path:url(#SVGID_11_);fill:#7E7E7E;}
	.st47{clip-path:url(#SVGID_11_);fill:#7D7D7D;}
	.st48{clip-path:url(#SVGID_11_);fill:#7C7C7C;}
	.st49{clip-path:url(#SVGID_11_);fill:#7B7B7B;}
	.st50{clip-path:url(#SVGID_11_);fill:#7A7A7A;}
	.st51{clip-path:url(#SVGID_11_);fill:#797979;}
	.st52{clip-path:url(#SVGID_11_);fill:#787878;}
	.st53{clip-path:url(#SVGID_11_);fill:#777777;}
	.st54{clip-path:url(#SVGID_11_);fill:#767676;}
	.st55{clip-path:url(#SVGID_11_);fill:#757575;}
	.st56{clip-path:url(#SVGID_11_);fill:#747474;}
	.st57{clip-path:url(#SVGID_11_);fill:#737373;}
	.st58{clip-path:url(#SVGID_11_);fill:#727272;}
	.st59{clip-path:url(#SVGID_11_);fill:#717171;}
	.st60{clip-path:url(#SVGID_11_);fill:#707070;}
	.st61{clip-path:url(#SVGID_11_);fill:#6F6F6F;}
	.st62{clip-path:url(#SVGID_11_);fill:#6E6E6E;}
	.st63{clip-path:url(#SVGID_11_);fill:#6D6D6D;}
	.st64{clip-path:url(#SVGID_11_);fill:#6C6C6C;}
	.st65{clip-path:url(#SVGID_11_);fill:#6B6B6B;}
	.st66{clip-path:url(#SVGID_11_);fill:#6A6A6A;}
	.st67{clip-path:url(#SVGID_11_);fill:#696969;}
	.st68{clip-path:url(#SVGID_11_);fill:#686868;}
	.st69{clip-path:url(#SVGID_11_);fill:#676767;}
	.st70{clip-path:url(#SVGID_11_);fill:#666666;}
	.st71{clip-path:url(#SVGID_11_);fill:#656565;}
	.st72{clip-path:url(#SVGID_11_);fill:#646464;}
	.st73{clip-path:url(#SVGID_11_);fill:#636363;}
	.st74{clip-path:url(#SVGID_11_);fill:#626262;}
	.st75{clip-path:url(#SVGID_11_);fill:#616161;}
	.st76{clip-path:url(#SVGID_11_);fill:#606060;}
	.st77{clip-path:url(#SVGID_11_);fill:#5F5F5F;}
	.st78{clip-path:url(#SVGID_11_);fill:#5E5E5E;}
	.st79{clip-path:url(#SVGID_11_);fill:#5D5D5D;}
	.st80{clip-path:url(#SVGID_11_);fill:#5C5C5C;}
	.st81{clip-path:url(#SVGID_11_);fill:#5B5B5B;}
	.st82{clip-path:url(#SVGID_11_);fill:#5A5A5A;}
	.st83{clip-path:url(#SVGID_11_);fill:#595959;}
	.st84{clip-path:url(#SVGID_11_);fill:#585858;}
	.st85{clip-path:url(#SVGID_11_);fill:#565656;}
	.st86{clip-path:url(#SVGID_11_);fill:#555555;}
	.st87{clip-path:url(#SVGID_11_);fill:#545454;}
	.st88{clip-path:url(#SVGID_11_);fill:#535353;}
	.st89{clip-path:url(#SVGID_11_);fill:#525252;}
	.st90{clip-path:url(#SVGID_11_);fill:#515151;}
	.st91{clip-path:url(#SVGID_11_);fill:#505050;}
	.st92{clip-path:url(#SVGID_11_);fill:#4F4F4F;}
	.st93{clip-path:url(#SVGID_11_);fill:#4E4E4E;}
	.st94{clip-path:url(#SVGID_11_);fill:#4D4D4D;}
	.st95{clip-path:url(#SVGID_11_);fill:#4C4C4C;}
	.st96{clip-path:url(#SVGID_11_);fill:#4B4B4B;}
	.st97{clip-path:url(#SVGID_11_);fill:#4A4A4A;}
	.st98{clip-path:url(#SVGID_11_);fill:#494949;}
	.st99{clip-path:url(#SVGID_11_);fill:#484848;}
	.st100{clip-path:url(#SVGID_11_);fill:#474747;}
	.st101{clip-path:url(#SVGID_11_);fill:#464646;}
	.st102{clip-path:url(#SVGID_11_);fill:#454545;}
	.st103{clip-path:url(#SVGID_11_);fill:#444444;}
	.st104{clip-path:url(#SVGID_11_);fill:#434343;}
	.st105{clip-path:url(#SVGID_11_);fill:#424242;}
	.st106{clip-path:url(#SVGID_11_);fill:#414141;}
	.st107{clip-path:url(#SVGID_11_);fill:#404040;}
	.st108{clip-path:url(#SVGID_11_);fill:#3F3F3F;}
	.st109{clip-path:url(#SVGID_11_);fill:#3E3E3E;}
	.st110{clip-path:url(#SVGID_11_);fill:#3D3D3D;}
	.st111{clip-path:url(#SVGID_11_);fill:#3C3C3C;}
	.st112{clip-path:url(#SVGID_11_);fill:#3B3B3B;}
	.st113{clip-path:url(#SVGID_11_);fill:#3A3A3A;}
	.st114{clip-path:url(#SVGID_11_);fill:#393939;}
	.st115{clip-path:url(#SVGID_11_);fill:#383838;}
	.st116{clip-path:url(#SVGID_11_);fill:#373737;}
	.st117{clip-path:url(#SVGID_11_);fill:#363636;}
	.st118{clip-path:url(#SVGID_11_);fill:#353535;}
	.st119{clip-path:url(#SVGID_11_);fill:#343434;}
	.st120{clip-path:url(#SVGID_11_);fill:#333333;}
	.st121{clip-path:url(#SVGID_11_);fill:#323232;}
	.st122{clip-path:url(#SVGID_11_);fill:#313131;}
	.st123{clip-path:url(#SVGID_11_);fill:#303030;}
	.st124{clip-path:url(#SVGID_11_);fill:#2F2F2F;}
	.st125{clip-path:url(#SVGID_11_);fill:#2E2E2E;}
	.st126{clip-path:url(#SVGID_11_);fill:#2D2D2D;}
	.st127{clip-path:url(#SVGID_11_);fill:#2C2C2C;}
	.st128{clip-path:url(#SVGID_11_);fill:#2B2B2B;}
	.st129{fill:#2C2C2C;}
	.st130{fill:#FFFFFF;}
	.st131{fill:url(#SVGID_12_);}
	.st132{clip-path:url(#SVGID_14_);fill:#227716;}
	.st133{clip-path:url(#SVGID_14_);fill:#227816;}
	.st134{clip-path:url(#SVGID_14_);fill:#227917;}
	.st135{clip-path:url(#SVGID_14_);fill:#227A17;}
	.st136{clip-path:url(#SVGID_14_);fill:#227B17;}
	.st137{clip-path:url(#SVGID_14_);fill:#227C18;}
	.st138{clip-path:url(#SVGID_14_);fill:#227D18;}
	.st139{clip-path:url(#SVGID_14_);fill:#227E18;}
	.st140{clip-path:url(#SVGID_14_);fill:#227F18;}
	.st141{clip-path:url(#SVGID_14_);fill:#228019;}
	.st142{clip-path:url(#SVGID_14_);fill:#228119;}
	.st143{clip-path:url(#SVGID_14_);fill:#228219;}
	.st144{clip-path:url(#SVGID_14_);fill:#22831A;}
	.st145{clip-path:url(#SVGID_14_);fill:#22841A;}
	.st146{clip-path:url(#SVGID_14_);fill:#22851A;}
	.st147{clip-path:url(#SVGID_14_);fill:#21861B;}
	.st148{clip-path:url(#SVGID_14_);fill:#21871B;}
	.st149{clip-path:url(#SVGID_14_);fill:#21881B;}
	.st150{clip-path:url(#SVGID_14_);fill:#21891C;}
	.st151{clip-path:url(#SVGID_14_);fill:#218A1C;}
	.st152{clip-path:url(#SVGID_14_);fill:#218B1C;}
	.st153{clip-path:url(#SVGID_14_);fill:#218C1D;}
	.st154{clip-path:url(#SVGID_14_);fill:#218D1D;}
	.st155{clip-path:url(#SVGID_14_);fill:#218E1D;}
	.st156{clip-path:url(#SVGID_14_);fill:#218F1D;}
	.st157{clip-path:url(#SVGID_14_);fill:#21901E;}
	.st158{clip-path:url(#SVGID_14_);fill:#21911E;}
	.st159{clip-path:url(#SVGID_14_);fill:#21921E;}
	.st160{clip-path:url(#SVGID_14_);fill:#21931F;}
	.st161{clip-path:url(#SVGID_14_);fill:#21951F;}
	.st162{clip-path:url(#SVGID_14_);fill:#21961F;}
	.st163{clip-path:url(#SVGID_14_);fill:#219720;}
	.st164{clip-path:url(#SVGID_14_);fill:#219820;}
	.st165{clip-path:url(#SVGID_14_);fill:#219920;}
	.st166{clip-path:url(#SVGID_14_);fill:#219A21;}
	.st167{clip-path:url(#SVGID_14_);fill:#219B21;}
	.st168{clip-path:url(#SVGID_14_);fill:#219C21;}
	.st169{clip-path:url(#SVGID_14_);fill:#219D21;}
	.st170{clip-path:url(#SVGID_14_);fill:#219E22;}
	.st171{clip-path:url(#SVGID_14_);fill:#219F22;}
	.st172{clip-path:url(#SVGID_14_);fill:#21A022;}
	.st173{clip-path:url(#SVGID_14_);fill:#21A123;}
	.st174{clip-path:url(#SVGID_14_);fill:#21A223;}
	.st175{clip-path:url(#SVGID_14_);fill:#21A323;}
	.st176{clip-path:url(#SVGID_14_);fill:#20A424;}
	.st177{clip-path:url(#SVGID_14_);fill:#20A524;}
	.st178{clip-path:url(#SVGID_14_);fill:#20A624;}
	.st179{clip-path:url(#SVGID_14_);fill:#20A725;}
	.st180{clip-path:url(#SVGID_14_);fill:#20A825;}
	.st181{clip-path:url(#SVGID_14_);fill:#20A925;}
	.st182{clip-path:url(#SVGID_14_);fill:#20AA26;}
	.st183{clip-path:url(#SVGID_14_);fill:#20AB26;}
	.st184{clip-path:url(#SVGID_14_);fill:#20AC26;}
	.st185{clip-path:url(#SVGID_14_);fill:#20AD26;}
	.st186{clip-path:url(#SVGID_14_);fill:#20AE27;}
	.st187{clip-path:url(#SVGID_14_);fill:#20AF27;}
	.st188{clip-path:url(#SVGID_14_);fill:#20B027;}
	.st189{clip-path:url(#SVGID_14_);fill:#20B128;}
	.st190{clip-path:url(#SVGID_14_);fill:#20B228;}
	.st191{fill:#0C0000;}
	.st192{fill:url(#SVGID_15_);}
	.st193{fill:#499CD2;}
	.st194{fill-rule:evenodd;clip-rule:evenodd;fill:#9AAB4B;}
	.st195{fill-rule:evenodd;clip-rule:evenodd;fill:#EC0677;}
	.st196{fill-rule:evenodd;clip-rule:evenodd;fill:#FFC10E;}
	.st197{fill-rule:evenodd;clip-rule:evenodd;fill:#3FB98C;}
	.st198{fill-rule:evenodd;clip-rule:evenodd;fill:#60CAE9;}
	.st199{fill-rule:evenodd;clip-rule:evenodd;fill:#009C7E;}
	.st200{fill-rule:evenodd;clip-rule:evenodd;fill:#672D85;}
	.st201{fill-rule:evenodd;clip-rule:evenodd;fill:#F48120;}
	.st202{fill:#DF4F4F;}
	.st203{clip-path:url(#SVGID_17_);fill:#F0BF1A;}
	.st204{clip-path:url(#SVGID_19_);fill:#3EBEB0;}
	.st205{clip-path:url(#SVGID_21_);fill:#07A5DE;}
	.st206{clip-path:url(#SVGID_23_);fill:#231F20;}
	.st207{fill:#D7A229;}
	.st208{fill:#019B8F;}
	.st209{fill:#F3BD19;}
	.st210{fill:#231F20;}
	.st211{fill:#3EBEB0;}
	.st212{fill:#37A595;}
	.st213{fill:#37808C;}
	.st214{fill:#9BD3CD;}
	.st215{fill:#1B1A19;}
	.st216{fill:#2C3458;}
	.st217{fill:#D43D44;}
	.st218{fill:#EE4323;}
	.st219{fill:url(#SVGID_24_);}
	.st220{fill:url(#SVGID_25_);}
	.st221{fill:url(#SVGID_26_);}
	.st222{fill:url(#SVGID_27_);}
	.st223{fill:#57A900;}
</style>
<g id="A">
	<g>
		<g>
			<g>
				<defs>
					<path id="SVGID_10_" d="M72.6,85.9l-38.9-1.1C29,84.6,23.5,79,23.6,74.3l0.2-39.1c0.1-4.7,5.4-9.1,10.1-9.1l38.4,1.4
						c4.7,0.1,10,4.4,10,9.1v39.9C82.3,81.6,78.2,85.9,72.6,85.9z"/>
				</defs>
				<clipPath id="SVGID_1_">
					<use xlink:href="#SVGID_10_"  style="overflow:visible;"/>
				</clipPath>
				<rect x="23.5" y="26" style="clip-path:url(#SVGID_1_);fill:#838383;" width="58.8" height="59.8"/>
				<path style="clip-path:url(#SVGID_1_);fill:#838383;" d="M69.3,55c3.7,5.3,6.2,11.2,7.5,17.2c0.6,3,1,6,1,9.1c0,1.5,0,3-0.1,4.5
					c0,0.4-0.1,0.8-0.1,1.1v-0.9H23.4V35.5H23c0.8-0.1,1.5-0.2,2.3-0.3c1.5-0.2,3-0.3,4.5-0.3c3,0,6.1,0.2,9,0.7
					C50.7,37.7,61.8,44.3,69.3,55z"/>
				<path style="clip-path:url(#SVGID_1_);fill:#828282;" d="M68.8,55.3c3.7,5.3,6.1,11.1,7.4,17c0.6,3,1,6,1,9c0,1.5,0,3-0.1,4.5
					c0,0.4-0.1,0.7-0.1,1.1v-0.8H23.4V36h-0.3c0.7-0.1,1.5-0.2,2.2-0.3c1.5-0.2,3-0.3,4.5-0.3c3,0,6,0.2,8.9,0.7
					C50.5,38.2,61.4,44.8,68.8,55.3z"/>
				<path style="clip-path:url(#SVGID_1_);fill:#818181;" d="M68.4,55.6c3.6,5.2,6.1,10.9,7.3,16.8c0.6,2.9,1,5.9,1,8.9
					c0,1.5,0,3-0.1,4.4c0,0.4-0.1,0.7-0.1,1.1v-0.8H23.4V36.5h-0.2c0.7-0.1,1.5-0.2,2.2-0.3c1.5-0.2,3-0.3,4.4-0.3
					c3,0,5.9,0.2,8.8,0.7C50.3,38.7,61.1,45.2,68.4,55.6z"/>
				<path style="clip-path:url(#SVGID_1_);fill:#808080;" d="M67.9,55.9c3.6,5.2,6,10.8,7.2,16.6c0.6,2.9,0.9,5.8,1,8.8
					c0,1.5,0,2.9-0.1,4.4c0,0.4-0.1,0.7-0.1,1.1v-0.7H23.4V37h-0.1c0.7-0.1,1.5-0.2,2.2-0.3c1.5-0.2,2.9-0.3,4.4-0.3
					c2.9,0,5.8,0.2,8.7,0.7C50,39.2,60.7,45.6,67.9,55.9z"/>
				<path style="clip-path:url(#SVGID_1_);fill:#7F7F7F;" d="M67.5,56.3c3.6,5.1,5.9,10.7,7.1,16.4c0.6,2.9,0.9,5.8,1,8.7
					c0,1.4,0,2.9-0.1,4.3c0,0.4-0.1,0.7-0.1,1.1v-0.7h-52V37.6h-0.1c0.7-0.1,1.4-0.2,2.2-0.3c1.4-0.2,2.9-0.3,4.3-0.3
					c2.9,0,5.8,0.2,8.6,0.7C49.8,39.7,60.4,46.1,67.5,56.3z"/>
				<path style="clip-path:url(#SVGID_1_);fill:#7E7E7E;" d="M67.1,56.6c3.5,5,5.9,10.6,7.1,16.2c0.6,2.8,0.9,5.7,1,8.6
					c0,1.4,0,2.9-0.1,4.3c0,0.4-0.1,0.7-0.1,1.1v-0.6H23.4V38.3h-1c0.4-0.1,0.7-0.1,1.1-0.2c0.7-0.1,1.4-0.2,2.1-0.3
					c1.4-0.2,2.9-0.3,4.3-0.3c2.9,0,5.7,0.2,8.5,0.7C49.6,40.2,60,46.5,67.1,56.6z"/>
				<path style="clip-path:url(#SVGID_1_);fill:#7D7D7D;" d="M66.6,56.9c3.5,5,5.8,10.4,7,16c0.6,2.8,0.9,5.6,1,8.4
					c0,1.4,0,2.8-0.1,4.2c0,0.4-0.1,0.7-0.1,1.1v-0.6H23.4V38.8h-0.9c0.4-0.1,0.7-0.1,1.1-0.2c0.7-0.1,1.4-0.2,2.1-0.3
					c1.4-0.2,2.8-0.2,4.2-0.3c2.8,0,5.6,0.2,8.4,0.7C49.3,40.7,59.7,46.9,66.6,56.9z"/>
				<path style="clip-path:url(#SVGID_1_);fill:#7C7C7C;" d="M66.2,57.2c3.4,4.9,5.7,10.3,6.9,15.8c0.6,2.8,0.9,5.6,0.9,8.3
					c0,1.4,0,2.8-0.1,4.2c0,0.3-0.1,0.7-0.1,1v-0.5H23.4V39.3h-0.8c0.3-0.1,0.7-0.1,1-0.2c0.7-0.1,1.4-0.2,2.1-0.3
					c1.4-0.2,2.8-0.2,4.2-0.3c2.8,0,5.6,0.2,8.3,0.7C49.1,41.2,59.3,47.3,66.2,57.2z"/>
				<path style="clip-path:url(#SVGID_1_);fill:#7B7B7B;" d="M65.7,57.5c3.4,4.9,5.6,10.2,6.8,15.6c0.6,2.7,0.9,5.5,0.9,8.2
					c0,1.4,0,2.8-0.1,4.1c0,0.3-0.1,0.7-0.1,1v-0.5H23.4V39.9h-0.7c0.3-0.1,0.7-0.1,1-0.2c0.7-0.1,1.4-0.2,2.1-0.3
					c1.4-0.2,2.8-0.2,4.1-0.3c2.8,0,5.5,0.2,8.2,0.7C48.9,41.7,59,47.8,65.7,57.5z"/>
				<path style="clip-path:url(#SVGID_1_);fill:#7A7A7A;" d="M65.3,57.8c3.4,4.8,5.6,10,6.7,15.4c0.6,2.7,0.9,5.4,0.9,8.1
					c0,1.4,0,2.7-0.1,4.1c0,0.3-0.1,0.7-0.1,1v-0.4H23.4V40.4h-0.6c0.3-0.1,0.7-0.1,1-0.2c0.7-0.1,1.4-0.2,2-0.3
					c1.4-0.2,2.7-0.2,4.1-0.3c2.7,0,5.4,0.2,8.1,0.7C48.6,42.2,58.6,48.2,65.3,57.8z"/>
				<path style="clip-path:url(#SVGID_1_);fill:#797979;" d="M64.9,58.1c3.3,4.7,5.5,9.9,6.6,15.2c0.6,2.7,0.9,5.4,0.9,8
					c0,1.3,0,2.7-0.1,4c0,0.3-0.1,0.7-0.1,1v-0.3H23.4V40.9h-0.5c0.3-0.1,0.7-0.1,1-0.2c0.7-0.1,1.3-0.2,2-0.3
					c1.3-0.2,2.7-0.2,4-0.3c2.7,0,5.4,0.2,8,0.6C48.4,42.7,58.3,48.6,64.9,58.1z"/>
				<path style="clip-path:url(#SVGID_1_);fill:#787878;" d="M64.4,58.4c3.3,4.7,5.4,9.8,6.5,15c0.6,2.6,0.9,5.3,0.9,7.9
					c0,1.3,0,2.7-0.1,4c0,0.3-0.1,0.7-0.1,1v-0.3H23.4V41.5h-0.4c0.3-0.1,0.7-0.1,1-0.2c0.7-0.1,1.3-0.2,2-0.3
					c1.3-0.1,2.7-0.2,4-0.3c2.7,0,5.3,0.2,7.9,0.6C48.2,43.2,57.9,49.1,64.4,58.4z"/>
				<path style="clip-path:url(#SVGID_1_);fill:#777777;" d="M64,58.7c3.2,4.6,5.4,9.7,6.5,14.8c0.6,2.6,0.8,5.2,0.9,7.8
					c0,1.3,0,2.6-0.1,3.9c0,0.3-0.1,0.7-0.1,1v-0.2H23.4V42H23c0.3-0.1,0.6-0.1,1-0.2c0.7-0.1,1.3-0.2,2-0.3
					c1.3-0.1,2.6-0.2,3.9-0.3c2.6,0,5.2,0.2,7.8,0.6C48,43.7,57.5,49.5,64,58.7z"/>
				<path style="clip-path:url(#SVGID_1_);fill:#767676;" d="M63.6,59c3.2,4.6,5.3,9.5,6.4,14.7c0.5,2.6,0.8,5.1,0.9,7.7
					c0,1.3,0,2.6-0.1,3.9c-0.1,0.6-0.1,1.3-0.2,1.9v-1.1H23.4V42.5h-0.2c0.3-0.1,0.6-0.1,1-0.2c0.6-0.1,1.3-0.2,1.9-0.3
					c1.3-0.1,2.6-0.2,3.9-0.2c2.6,0,5.2,0.2,7.7,0.6C47.7,44.2,57.2,49.9,63.6,59z"/>
				<path style="clip-path:url(#SVGID_1_);fill:#757575;" d="M63.1,59.3c3.1,4.5,5.2,9.4,6.3,14.5c0.5,2.5,0.8,5.1,0.9,7.6
					c0,1.3,0,2.5-0.1,3.8c-0.1,0.6-0.1,1.3-0.2,1.9v-1.1H23.4V43.2h-1.1c5-1.1,10.2-1.1,15.2-0.3C47.5,44.8,56.8,50.3,63.1,59.3z"/>
				<path style="clip-path:url(#SVGID_1_);fill:#747474;" d="M62.7,59.6c3.1,4.4,5.1,9.3,6.2,14.3c0.5,2.5,0.8,5,0.8,7.5
					c0,1.3,0,2.5-0.1,3.8c-0.1,0.6-0.1,1.2-0.2,1.9v-1h-46V43.8h-1c5-1.1,10.1-1.1,15-0.2C47.3,45.3,56.5,50.8,62.7,59.6z"/>
				<path style="clip-path:url(#SVGID_1_);fill:#737373;" d="M62.2,59.9c3.1,4.4,5.1,9.2,6.1,14.1c0.5,2.5,0.8,4.9,0.8,7.4
					c0,1.2,0,2.5-0.1,3.7c0,0.6-0.1,1.2-0.2,1.8v-0.9H23.4V44.3h-0.9c4.9-1,9.9-1.1,14.8-0.2C47,45.8,56.1,51.2,62.2,59.9z"/>
				<path style="clip-path:url(#SVGID_1_);fill:#727272;" d="M61.8,60.3c3,4.3,5,9,6,13.9c0.5,2.4,0.8,4.9,0.8,7.3
					c0,1.2,0,2.4-0.1,3.7c0,0.6-0.1,1.2-0.2,1.8v-0.9h-45V44.8h-0.8c4.8-1,9.8-1.1,14.6-0.2C46.8,46.3,55.8,51.6,61.8,60.3z"/>
				<path style="clip-path:url(#SVGID_1_);fill:#717171;" d="M61.4,60.6c3,4.3,4.9,8.9,6,13.7c0.5,2.4,0.8,4.8,0.8,7.2
					c0,1.2,0,2.4-0.1,3.6c0,0.6-0.1,1.2-0.2,1.8v-0.8H23.4V45.3h-0.6c4.8-1,9.7-1.1,14.4-0.2C46.6,46.8,55.4,52.1,61.4,60.6z"/>
				<path style="clip-path:url(#SVGID_1_);fill:#707070;" d="M60.9,60.9c2.9,4.2,4.9,8.8,5.9,13.5c0.5,2.4,0.8,4.7,0.8,7.1
					c0,1.2,0,2.4-0.1,3.6c0,0.6-0.1,1.2-0.2,1.8v-0.7H23.4V45.9h-0.5c4.7-1,9.5-1.1,14.2-0.2C46.4,47.3,55.1,52.5,60.9,60.9z"/>
				<path style="clip-path:url(#SVGID_1_);fill:#6F6F6F;" d="M60.5,61.2c2.9,4.1,4.8,8.6,5.8,13.3c0.5,2.3,0.8,4.7,0.8,7
					c0,1.2,0,2.3-0.1,3.5c0,0.6-0.1,1.2-0.2,1.7v-0.7H23.4V46.4H23c4.6-1,9.4-1,14-0.2C46.1,47.8,54.7,52.9,60.5,61.2z"/>
				<path style="clip-path:url(#SVGID_1_);fill:#6E6E6E;" d="M60,61.5c2.8,4.1,4.7,8.5,5.7,13.1c0.5,2.3,0.7,4.6,0.8,6.9
					c0,1.2,0,2.3-0.1,3.5c0,0.6-0.1,1.1-0.2,1.7v-0.6H23.4V46.9h-0.3c4.6-1,9.2-1,13.8-0.2C45.9,48.3,54.3,53.3,60,61.5z"/>
				<path style="clip-path:url(#SVGID_1_);fill:#6D6D6D;" d="M59.6,61.8c2.8,4,4.7,8.4,5.6,12.9c0.5,2.2,0.7,4.5,0.8,6.8
					c0,1.1,0,2.3-0.1,3.4c0,0.6-0.1,1.1-0.2,1.7v-0.5H23.4V47.4h-0.2c4.5-1,9.1-1,13.6-0.2C45.7,48.8,54,53.8,59.6,61.8z"/>
				<path style="clip-path:url(#SVGID_1_);fill:#6C6C6C;" d="M59.2,62.1c2.8,3.9,4.6,8.3,5.5,12.7c0.5,2.2,0.7,4.5,0.8,6.7
					c0,1.1,0,2.2-0.1,3.4c0,0.6-0.1,1.1-0.2,1.7v-0.4H23.4V48h-0.1c4.4-0.9,9-1,13.4-0.2C45.4,49.3,53.6,54.2,59.2,62.1z"/>
				<path style="clip-path:url(#SVGID_1_);fill:#6B6B6B;" d="M58.7,62.4c2.7,3.9,4.5,8.1,5.4,12.5c0.5,2.2,0.7,4.4,0.7,6.6
					c0,1.1,0,2.2-0.1,3.3c0,0.5-0.1,1.1-0.2,1.6v-0.4H23.4V48.7h-0.8c0.3-0.1,0.5-0.1,0.8-0.2c4.4-0.9,8.8-1,13.2-0.2
					C45.2,49.8,53.3,54.6,58.7,62.4z"/>
				<path style="clip-path:url(#SVGID_1_);fill:#6A6A6A;" d="M58.3,62.7c2.7,3.8,4.4,8,5.4,12.3c0.5,2.1,0.7,4.3,0.7,6.5
					c0,1.1,0,2.2-0.1,3.2c0,0.5-0.1,1.1-0.2,1.6v-0.3H23.4V49.2h-0.7c0.3-0.1,0.5-0.1,0.8-0.2c4.3-0.9,8.7-1,13-0.2
					C45,50.3,52.9,55.1,58.3,62.7z"/>
				<path style="clip-path:url(#SVGID_1_);fill:#696969;" d="M57.8,63c2.6,3.8,4.4,7.9,5.3,12.1c0.4,2.1,0.7,4.3,0.7,6.4
					c0,1.1,0,2.1-0.1,3.2c0,0.5-0.1,1.1-0.2,1.6v-0.2H23.4V49.7h-0.5c0.3-0.1,0.5-0.1,0.8-0.2c4.2-0.9,8.6-1,12.8-0.2
					C44.8,50.8,52.6,55.5,57.8,63z"/>
				<path style="clip-path:url(#SVGID_1_);fill:#686868;" d="M57.4,63.3c2.6,3.7,4.3,7.8,5.2,11.9c0.4,2.1,0.7,4.2,0.7,6.3
					c0,1.1,0,2.1-0.1,3.1c0,0.5-0.1,1-0.2,1.6v-0.2H23.4V50.2H23c0.3-0.1,0.5-0.1,0.8-0.2c4.2-0.9,8.4-0.9,12.5-0.2
					C44.5,51.3,52.2,55.9,57.4,63.3z"/>
				<path style="clip-path:url(#SVGID_1_);fill:#676767;" d="M57,63.6c2.5,3.6,4.2,7.6,5.1,11.7c0.4,2,0.7,4.1,0.7,6.2
					c0,1,0,2.1-0.1,3.1c0,0.5-0.1,1-0.2,1.5v-0.1H23.4V50.9h-1.1c0.5-0.1,1-0.3,1.5-0.4c4.1-0.9,8.3-0.9,12.3-0.2
					C44.3,51.8,51.9,56.3,57,63.6z"/>
				<path style="clip-path:url(#SVGID_1_);fill:#666666;" d="M56.5,63.9c2.5,3.6,4.2,7.5,5,11.5c0.4,2,0.7,4,0.7,6.1c0,1,0,2-0.1,3
					c0,0.5-0.1,1-0.2,1.5v0H23.4V51.5h-0.9c0.5-0.1,1-0.3,1.5-0.4c4-0.9,8.1-0.9,12.1-0.2C44.1,52.3,51.5,56.8,56.5,63.9z"/>
				<path style="clip-path:url(#SVGID_1_);fill:#656565;" d="M56.1,64.2c2.5,3.5,4.1,7.4,4.9,11.3c0.4,2,0.6,4,0.7,6c0,1,0,2-0.1,3
					c0,0.5-0.1,1-0.2,1.5c0,0.2-0.1,0.5-0.1,0.7v-0.7h-38V52h-0.8c0.5-0.1,1-0.2,1.5-0.4c4-0.8,8-0.9,11.9-0.2
					C43.8,52.8,51.2,57.2,56.1,64.2z"/>
				<path style="clip-path:url(#SVGID_1_);fill:#646464;" d="M55.6,64.6c2.4,3.5,4,7.2,4.8,11.1c0.4,1.9,0.6,3.9,0.7,5.9
					c0,1,0,2-0.1,2.9c0,0.5-0.1,1-0.2,1.5c0,0.2-0.1,0.5-0.1,0.7v-0.6H23.4V52.5h-0.6c0.5-0.1,1-0.2,1.5-0.3
					c3.9-0.8,7.9-0.9,11.7-0.2C43.6,53.3,50.8,57.6,55.6,64.6z"/>
				<path style="clip-path:url(#SVGID_1_);fill:#636363;" d="M55.2,64.9c2.4,3.4,3.9,7.1,4.8,10.9c0.4,1.9,0.6,3.8,0.7,5.8
					c0,1,0,1.9-0.1,2.9c0,0.5-0.1,1-0.1,1.4c0,0.2-0.1,0.5-0.1,0.7v-0.5H23.4V53h-0.5c0.5-0.1,0.9-0.2,1.4-0.3
					c3.8-0.8,7.7-0.9,11.5-0.2C43.4,53.8,50.4,58.1,55.2,64.9z"/>
				<path style="clip-path:url(#SVGID_1_);fill:#626262;" d="M54.8,65.2c4.7,6.7,6.2,14.6,4.9,22.1v-1.2H23.4V53.5H23
					c0.5-0.1,0.9-0.2,1.4-0.3c3.7-0.8,7.6-0.8,11.3-0.2C43.2,54.3,50.1,58.5,54.8,65.2z"/>
				<path style="clip-path:url(#SVGID_1_);fill:#616161;" d="M54.3,65.5c4.6,6.6,6.1,14.4,4.8,21.7v-1.1H23.4v-32h-0.2
					c0.5-0.1,0.9-0.2,1.4-0.3c3.7-0.8,7.5-0.8,11.1-0.2C42.9,54.8,49.7,58.9,54.3,65.5z"/>
				<path style="clip-path:url(#SVGID_1_);fill:#606060;" d="M53.9,65.8c4.5,6.4,6,14.1,4.7,21.3v-1H23.4V54.6h-0.1
					c0.4-0.1,0.9-0.2,1.4-0.3c3.6-0.8,7.3-0.8,10.9-0.2C42.7,55.3,49.4,59.3,53.9,65.8z"/>
				<path style="clip-path:url(#SVGID_1_);fill:#5F5F5F;" d="M53.4,66.1c4.4,6.3,5.8,13.8,4.6,20.9v-0.9H23.4V55.3h-0.6
					c0.2-0.1,0.4-0.1,0.7-0.2c0.4-0.1,0.9-0.2,1.3-0.3c3.5-0.8,7.2-0.8,10.7-0.2C42.5,55.8,49,59.8,53.4,66.1z"/>
				<path style="clip-path:url(#SVGID_1_);fill:#5E5E5E;" d="M53,66.4c4.3,6.2,5.7,13.6,4.5,20.5v-0.8H23.4V56h-1.1
					c0.9-0.3,1.7-0.5,2.6-0.7c3.5-0.7,7-0.8,10.5-0.2C42.2,56.3,48.7,60.2,53,66.4z"/>
				<path style="clip-path:url(#SVGID_1_);fill:#5D5D5D;" d="M52.6,66.7c4.2,6.1,5.6,13.3,4.4,20v-0.7H23.4V56.5h-0.9
					c0.8-0.3,1.7-0.5,2.5-0.7c3.4-0.7,6.9-0.8,10.3-0.2C42,56.9,48.3,60.6,52.6,66.7z"/>
				<path style="clip-path:url(#SVGID_1_);fill:#5C5C5C;" d="M52.1,67c4.2,6,5.5,13,4.3,19.6v-0.6H23.4V57h-0.8
					c0.8-0.3,1.7-0.5,2.5-0.7c3.3-0.7,6.8-0.8,10.1-0.2C41.8,57.4,48,61.1,52.1,67z"/>
				<path style="clip-path:url(#SVGID_1_);fill:#5B5B5B;" d="M51.7,67.3c4.1,5.8,5.4,12.8,4.2,19.2v-0.5H23.4V57.5h-0.6
					c0.8-0.3,1.6-0.5,2.4-0.6c3.3-0.7,6.6-0.7,9.9-0.2C41.6,57.9,47.6,61.5,51.7,67.3z"/>
				<path style="clip-path:url(#SVGID_1_);fill:#5A5A5A;" d="M51.2,67.6c4,5.7,5.3,12.5,4.2,18.8v-0.4h-32V58h-0.5
					c0.8-0.3,1.6-0.5,2.4-0.6c3.2-0.7,6.5-0.7,9.7-0.2C41.3,58.4,47.2,61.9,51.2,67.6z"/>
				<path style="clip-path:url(#SVGID_1_);fill:#595959;" d="M50.8,67.9c3.9,5.6,5.2,12.2,4.1,18.4v-0.3H23.4V58.5h-0.3
					c0.8-0.2,1.6-0.5,2.3-0.6c3.1-0.7,6.4-0.7,9.5-0.2C41.1,58.9,46.9,62.3,50.8,67.9z"/>
				<path style="clip-path:url(#SVGID_1_);fill:#585858;" d="M50.4,68.2c3.8,5.5,5.1,12,4,18v-0.2h-31v-27h-0.1
					c0.8-0.2,1.5-0.4,2.3-0.6c3.1-0.7,6.2-0.7,9.3-0.2C40.9,59.4,46.5,62.8,50.4,68.2z"/>
				<path style="clip-path:url(#SVGID_1_);fill:#565656;" d="M49.9,68.5c3.7,5.3,4.9,11.7,3.9,17.6v-0.1H23.4V59.9h-1.1
					c0.4-0.1,0.7-0.3,1.1-0.4c0.7-0.2,1.5-0.4,2.2-0.6c3-0.6,6.1-0.7,9-0.1C40.6,59.9,46.2,63.2,49.9,68.5z"/>
				<path style="clip-path:url(#SVGID_1_);fill:#555555;" d="M49.5,68.9c3.6,5.2,4.8,11.4,3.8,17.2v0H23.4V60.4h-0.9
					c0.4-0.1,0.7-0.3,1.1-0.4c0.7-0.2,1.4-0.4,2.2-0.6c2.9-0.6,5.9-0.7,8.8-0.1C40.4,60.4,45.8,63.6,49.5,68.9z"/>
				<path style="clip-path:url(#SVGID_1_);fill:#545454;" d="M49,69.2c3.6,5.1,4.7,11.2,3.7,16.8c-0.1,0.4-0.1,0.7-0.2,1.1v-1H23.4
					V60.9h-0.7c0.3-0.1,0.7-0.3,1.1-0.4c0.7-0.2,1.4-0.4,2.1-0.6c2.9-0.6,5.8-0.6,8.6-0.1C40.2,60.9,45.5,64.1,49,69.2z"/>
				<path style="clip-path:url(#SVGID_1_);fill:#535353;" d="M48.6,69.5c3.5,5,4.6,10.9,3.6,16.4c-0.1,0.3-0.1,0.7-0.2,1v-0.9H23.4
					V61.5h-0.5c0.3-0.1,0.7-0.2,1-0.4c0.7-0.2,1.4-0.4,2.1-0.6c2.8-0.6,5.7-0.6,8.4-0.1C40,61.4,45.1,64.5,48.6,69.5z"/>
				<path style="clip-path:url(#SVGID_1_);fill:#525252;" d="M48.2,69.8c3.4,4.9,4.5,10.6,3.5,16c-0.1,0.3-0.1,0.7-0.2,1v-0.8H23.4
					V62h-0.3c0.3-0.1,0.7-0.2,1-0.3c0.7-0.2,1.3-0.4,2-0.5c2.7-0.6,5.5-0.6,8.2-0.1C39.7,61.9,44.8,64.9,48.2,69.8z"/>
				<path style="clip-path:url(#SVGID_1_);fill:#515151;" d="M47.7,70.1c3.3,4.7,4.4,10.4,3.4,15.6c-0.1,0.3-0.1,0.7-0.2,1v-0.7
					H23.4V62.8h-1.1c1.3-0.6,2.6-1,3.9-1.2c2.7-0.6,5.4-0.6,8-0.1C39.5,62.4,44.4,65.3,47.7,70.1z"/>
				<path style="clip-path:url(#SVGID_1_);fill:#505050;" d="M47.3,70.4c3.2,4.6,4.3,10.1,3.4,15.2c-0.1,0.3-0.1,0.6-0.2,1v-0.5
					H23.4V63.3h-0.9c1.2-0.5,2.5-0.9,3.8-1.2c2.6-0.6,5.2-0.6,7.8-0.1C39.3,62.9,44.1,65.8,47.3,70.4z"/>
				<path style="clip-path:url(#SVGID_1_);fill:#4F4F4F;" d="M46.8,70.7c3.1,4.5,4.2,9.8,3.3,14.8c-0.1,0.3-0.1,0.6-0.2,0.9v-0.4
					H23.4V63.8h-0.7c1.2-0.5,2.5-0.9,3.7-1.2c2.5-0.5,5.1-0.6,7.6-0.1C39,63.4,43.7,66.2,46.8,70.7z"/>
				<path style="clip-path:url(#SVGID_1_);fill:#4E4E4E;" d="M46.4,71c3.1,4.4,4,9.6,3.2,14.4c-0.1,0.3-0.1,0.6-0.2,0.9v-0.3h-26
					V64.3h-0.5c1.2-0.5,2.4-0.9,3.6-1.2c2.5-0.5,5-0.6,7.4-0.1C38.8,63.9,43.3,66.6,46.4,71z"/>
				<path style="clip-path:url(#SVGID_1_);fill:#4D4D4D;" d="M46,71.3c3,4.3,3.9,9.3,3.1,14c-0.1,0.6-0.2,1.2-0.4,1.8v-1H23.4V64.8
					h-0.2c1.1-0.5,2.3-0.9,3.5-1.1c2.4-0.5,4.8-0.5,7.2-0.1C38.6,64.4,43,67.1,46,71.3z"/>
				<path style="clip-path:url(#SVGID_1_);fill:#4C4C4C;" d="M45.5,71.6c2.9,4.1,3.8,9,3,13.6c-0.1,0.6-0.2,1.1-0.4,1.7v-0.9H23.4
					V65.3h0c1.1-0.5,2.3-0.8,3.4-1.1c2.3-0.5,4.7-0.5,7-0.1C38.3,64.9,42.6,67.5,45.5,71.6z"/>
				<path style="clip-path:url(#SVGID_1_);fill:#4B4B4B;" d="M45.1,71.9c2.8,4,3.7,8.8,2.9,13.2c-0.1,0.6-0.2,1.1-0.4,1.7v-0.8H23.4
					V66.2h-0.6c0.3-0.1,0.5-0.3,0.8-0.4c1.1-0.5,2.2-0.8,3.3-1.1c2.2-0.5,4.6-0.5,6.8-0.1C38.1,65.4,42.3,67.9,45.1,71.9z"/>
				<path style="clip-path:url(#SVGID_1_);fill:#4A4A4A;" d="M44.6,72.2c2.7,3.9,3.6,8.5,2.8,12.8c-0.1,0.5-0.2,1.1-0.4,1.6v-0.6
					H23.4v-19h-1.2c0.5-0.3,1-0.5,1.5-0.8c1-0.5,2.1-0.8,3.2-1c2.2-0.5,4.4-0.5,6.6-0.1C37.9,65.9,41.9,68.3,44.6,72.2z"/>
				<path style="clip-path:url(#SVGID_1_);fill:#494949;" d="M44.2,72.5c2.6,3.8,3.5,8.2,2.7,12.4c-0.1,0.5-0.2,1-0.4,1.6v-0.5H23.4
					V67.5h-0.9c0.5-0.3,1-0.5,1.5-0.7c1-0.4,2.1-0.8,3.1-1c2.1-0.4,4.3-0.5,6.4-0.1C37.7,66.4,41.6,68.8,44.2,72.5z"/>
				<path style="clip-path:url(#SVGID_1_);fill:#484848;" d="M43.8,72.8c2.5,3.6,3.4,8,2.7,12c-0.1,0.5-0.2,1-0.3,1.5v-0.3H23.4V68
					h-0.6c0.5-0.3,1-0.5,1.4-0.7c1-0.4,2-0.7,3-1c2-0.4,4.1-0.5,6.2-0.1C37.4,66.9,41.2,69.2,43.8,72.8z"/>
				<path style="clip-path:url(#SVGID_1_);fill:#474747;" d="M43.3,73.2c2.5,3.5,3.3,7.7,2.6,11.6c-0.1,0.5-0.2,1-0.3,1.5v-0.2H23.4
					V68.5H23c0.5-0.3,0.9-0.5,1.4-0.7c0.9-0.4,1.9-0.7,2.9-0.9c2-0.4,4-0.4,6-0.1C37.2,67.4,40.9,69.6,43.3,73.2z"/>
				<path style="clip-path:url(#SVGID_1_);fill:#464646;" d="M42.9,73.5c2.4,3.4,3.1,7.4,2.5,11.2c-0.1,0.5-0.2,0.9-0.3,1.4v0H23.4
					V68.9h-0.1c0.4-0.2,0.9-0.5,1.4-0.7c0.9-0.4,1.9-0.7,2.8-0.9c1.9-0.4,3.9-0.4,5.8-0.1C37,67.9,40.5,70.1,42.9,73.5z"/>
				<path style="clip-path:url(#SVGID_1_);fill:#454545;" d="M42.4,73.8c2.3,3.3,3,7.2,2.4,10.8c-0.1,0.5-0.2,0.9-0.3,1.4
					c-0.1,0.2-0.1,0.4-0.2,0.7v-0.6H23.4V70.2h-1.1C28.8,65.6,37.9,67.2,42.4,73.8z"/>
				<path style="clip-path:url(#SVGID_1_);fill:#444444;" d="M42,74.1c2.2,3.2,2.9,6.9,2.3,10.4c-0.2,0.9-0.4,1.7-0.7,2.6v-1H23.4
					V70.6h-0.8C28.9,66.2,37.6,67.8,42,74.1z"/>
				<path style="clip-path:url(#SVGID_1_);fill:#434343;" d="M41.6,74.4c2.1,3,2.8,6.6,2.2,10c-0.1,0.8-0.4,1.7-0.7,2.5v-0.8H23.4
					v-15h-0.5C29,66.8,37.3,68.3,41.6,74.4z"/>
				<path style="clip-path:url(#SVGID_1_);fill:#424242;" d="M41.1,74.7c2,2.9,2.7,6.4,2.1,9.6c-0.1,0.8-0.4,1.6-0.7,2.4v-0.6H23.4
					V71.5h-0.2C29,67.4,37,68.9,41.1,74.7z"/>
				<path style="clip-path:url(#SVGID_1_);fill:#414141;" d="M40.7,75c2,2.8,2.6,6.1,2,9.2c-0.1,0.8-0.4,1.5-0.6,2.3v-0.4H23.4V72.7
					h-0.9c0.3-0.3,0.6-0.5,1-0.8C29.1,68,36.8,69.4,40.7,75z"/>
				<path style="clip-path:url(#SVGID_1_);fill:#404040;" d="M40.2,75.3c1.9,2.7,2.5,5.8,1.9,8.8c-0.1,0.7-0.3,1.5-0.6,2.2v-0.3
					H23.4V73.1h-0.5c0.3-0.3,0.6-0.5,1-0.7C29.1,68.7,36.5,70,40.2,75.3z"/>
				<path style="clip-path:url(#SVGID_1_);fill:#3F3F3F;" d="M39.8,75.6c1.8,2.6,2.4,5.6,1.9,8.4c-0.1,0.7-0.3,1.4-0.6,2.1v-0.1
					H23.4V74.3h-1c0.5-0.5,1.1-1,1.7-1.5C29.2,69.3,36.2,70.5,39.8,75.6z"/>
				<path style="clip-path:url(#SVGID_1_);fill:#3E3E3E;" d="M39.4,75.9c1.7,2.4,2.2,5.3,1.8,8c-0.1,0.7-0.3,1.3-0.6,2
					c-0.1,0.3-0.3,0.6-0.4,0.9v-0.8H23.4V74.7h-0.6c0.5-0.5,1-1,1.6-1.4C29.3,69.9,36,71.1,39.4,75.9z"/>
				<path style="clip-path:url(#SVGID_1_);fill:#3D3D3D;" d="M38.9,76.2c1.6,2.3,2.1,5.1,1.7,7.6c-0.1,0.6-0.3,1.3-0.5,1.9
					c-0.1,0.3-0.2,0.6-0.4,0.9v-0.6H23.4v-11h-0.2c0.5-0.5,1-0.9,1.6-1.3C29.3,70.5,35.7,71.6,38.9,76.2z"/>
				<path style="clip-path:url(#SVGID_1_);fill:#3C3C3C;" d="M38.5,76.5c1.5,2.2,2,4.8,1.6,7.2c-0.2,1.2-0.7,2.4-1.3,3.5v-1.2H23.4
					v-9.1h-1c0.7-1.1,1.6-2,2.6-2.8C29.4,71.1,35.4,72.2,38.5,76.5z"/>
				<path style="clip-path:url(#SVGID_1_);fill:#3B3B3B;" d="M38,76.8c1.4,2.1,1.9,4.5,1.5,6.8c-0.2,1.1-0.6,2.3-1.3,3.3v-0.9H23.4
					v-8.8h-0.5c0.6-1,1.5-1.9,2.5-2.6C29.5,71.7,35.2,72.7,38,76.8z"/>
				<path style="clip-path:url(#SVGID_1_);fill:#3A3A3A;" d="M37.6,77.1c1.4,1.9,1.8,4.3,1.4,6.4c-0.2,1.1-0.6,2.1-1.2,3.1v-0.6
					H23.5V87c-0.3-0.5-0.6-1-0.8-1.5h0.7v-8h-0.1c0.6-0.9,1.4-1.8,2.4-2.5C29.5,72.3,34.9,73.3,37.6,77.1z"/>
				<path style="clip-path:url(#SVGID_1_);fill:#393939;" d="M37.2,77.5c1.3,1.8,1.7,4,1.3,6c-0.2,1-0.6,2-1.1,2.9v-0.3H24v0.6
					c-1.3-1.8-1.7-4-1.3-6c0.4-2,1.5-3.9,3.3-5.2C29.6,72.9,34.6,73.8,37.2,77.5z"/>
				<path style="clip-path:url(#SVGID_1_);fill:#383838;" d="M36.7,77.8c1.2,1.7,1.6,3.7,1.2,5.6c-0.2,0.9-0.5,1.9-1,2.7v0H24.4v0.3
					c-1.2-1.7-1.6-3.7-1.2-5.6c0.3-1.9,1.4-3.7,3.1-4.8C29.7,73.5,34.3,74.4,36.7,77.8z"/>
				<path style="clip-path:url(#SVGID_1_);fill:#373737;" d="M36.3,78.1c1.1,1.6,1.5,3.5,1.1,5.2c-0.2,0.9-0.5,1.7-1,2.5
					c-0.2,0.4-0.5,0.7-0.8,1.1v-0.8H24.8v0c-2.2-3.2-1.4-7.5,1.7-9.7S34.1,74.9,36.3,78.1z"/>
				<path style="clip-path:url(#SVGID_1_);fill:#363636;" d="M35.8,78.4c1,1.5,1.3,3.2,1.1,4.8c-0.1,0.8-0.4,1.6-0.9,2.3
					c-0.2,0.4-0.5,0.7-0.8,1v-0.4h-9.1v0.7c-0.3-0.3-0.6-0.6-0.9-1c-2-2.9-1.3-6.9,1.6-9S33.8,75.5,35.8,78.4z"/>
				<path style="clip-path:url(#SVGID_1_);fill:#353535;" d="M35.4,78.7c1.9,2.7,1.2,6.4-1.5,8.2v-0.8h-6.5v1
					c-0.6-0.4-1.2-0.9-1.7-1.6c-1.9-2.7-1.2-6.4,1.5-8.2S33.5,76,35.4,78.7z"/>
				<path style="clip-path:url(#SVGID_1_);fill:#343434;" d="M35,79c1.7,2.4,1.1,5.8-1.3,7.5v-0.4h-5.9v0.6
					c-0.6-0.4-1.1-0.9-1.5-1.5c-1.7-2.4-1.1-5.8,1.3-7.5S33.3,76.6,35,79z"/>
				<path style="clip-path:url(#SVGID_1_);fill:#333333;" d="M34.5,79.3c1.5,2.2,1,5.2-1.2,6.7c-1.1,0.8-2.4,1-3.6,0.8
					c-1.2-0.2-2.4-0.9-3.1-2c-1.5-2.2-1-5.2,1.2-6.7S33,77.1,34.5,79.3z"/>
				<circle style="clip-path:url(#SVGID_1_);fill:#323232;" cx="30.6" cy="82.1" r="4.3"/>
				<circle style="clip-path:url(#SVGID_1_);fill:#313131;" cx="30.6" cy="82.1" r="3.8"/>
				<circle style="clip-path:url(#SVGID_1_);fill:#303030;" cx="30.6" cy="82.1" r="3.2"/>
				<circle style="clip-path:url(#SVGID_1_);fill:#2F2F2F;" cx="30.6" cy="82.1" r="2.7"/>
				<circle style="clip-path:url(#SVGID_1_);fill:#2E2E2E;" cx="30.6" cy="82.1" r="2.1"/>
				<circle style="clip-path:url(#SVGID_1_);fill:#2D2D2D;" cx="30.6" cy="82.1" r="1.6"/>
				<circle style="clip-path:url(#SVGID_1_);fill:#2C2C2C;" cx="30.6" cy="82.1" r="1.1"/>
				<circle style="clip-path:url(#SVGID_1_);fill:#2B2B2B;" cx="30.6" cy="82.1" r="0.5"/>
			</g>
			<path class="st129" d="M72.6,86.5L72.6,86.5l-38.9-1.1c-5.1-0.2-10.7-6.1-10.6-11.1l0.2-39.1c0-2.4,1.3-4.8,3.5-6.8
				c2.1-1.8,4.7-2.9,7.1-2.9c0,0,0.1,0,0.1,0l38.4,1.4c2.4,0,5.1,1.1,7.1,2.9c2.2,1.9,3.4,4.4,3.4,6.7v39.9
				C82.9,82.1,78.4,86.5,72.6,86.5z M33.8,26.7c-2.1,0-4.4,1-6.3,2.6c-1.9,1.7-3.1,3.9-3.1,5.9l-0.2,39.1c-0.1,4.3,5.1,9.7,9.5,9.9
				l38.9,1.1c5.1,0,9.1-3.9,9.1-8.8V36.6c0-2-1.1-4.1-3-5.8c-1.9-1.6-4.3-2.6-6.4-2.7L33.8,26.7C33.8,26.7,33.8,26.7,33.8,26.7z"/>
		</g>
		<g>
			<path class="st130" d="M27,71.2l6.2-1.5c0.2,0.7,1.2,2.6,2.1,3.3s3.3,1.1,5,1s2.4-1.6,2.5-2.6c0.1-1.1-0.4-1.8-1.4-2.3
				c-1-0.5-2-0.8-3.5-1.2c-1.5-0.4-4.2-1.1-6.4-2.5s-2.6-4.8-2.7-5.9c0-1.2,0.3-2.9,1-4.2c0.8-1.3,3.2-4,8.1-4s7,1.6,8.1,2.5
				s2.9,4.2,2.9,4.2l-5.6,2c-1-2.8-2.7-3.8-5.2-3.8s-3,1.5-3,2.5c0,0.9,0.5,2,2.9,2.6s6.2,1.6,8,2.7c1.8,1.2,3.5,3.6,3.5,6.5
				s-1.1,4.4-2.1,5.5c-1,1.1-3.3,3.5-8.2,3.5C34.5,79.4,29.6,77.3,27,71.2z"/>
			<path class="st129" d="M39.2,79.7c-2.7,0-5-0.6-7.1-1.8c-2.3-1.4-4.2-3.6-5.5-6.5L26.6,71l6.8-1.6l0.1,0.3c0.2,0.7,1.2,2.5,2,3.2
				c0.8,0.6,3.1,1.1,4.7,0.9c1.5-0.1,2.2-1.5,2.3-2.4c0.1-0.9-0.3-1.5-1.2-2c-0.9-0.4-1.8-0.7-3.1-1.1l-0.3-0.1
				c-0.2-0.1-0.4-0.1-0.7-0.2c-1.5-0.4-3.9-1.1-5.7-2.3c-2.1-1.4-2.8-4.7-2.8-6.2c0-1.1,0.2-3,1.1-4.3C30,54.5,32.4,51,38,51
				c5.1,0,7.3,1.7,8.3,2.5c1.2,0.9,2.9,4.1,3,4.2l0.2,0.3l-6.3,2.2L43.1,60c-0.8-2.5-2.3-3.6-4.9-3.6c-2.6,0-2.7,1.8-2.7,2.2
				c0,1.1,0.9,1.9,2.6,2.4l0.5,0.1c2.3,0.6,5.8,1.5,7.6,2.6c1.8,1.2,3.7,3.7,3.7,6.7c0,2.9-1.1,4.5-2.1,5.6
				C46.9,77,44.4,79.7,39.2,79.7z M27.4,71.4c2.9,6.3,8,7.6,11.9,7.6c4.9,0,7.2-2.5,8-3.4c0.9-1,2-2.5,2-5.3c0-2.8-1.7-5.1-3.4-6.2
				c-1.7-1.1-5.1-2-7.4-2.6l-0.5-0.1c-2.5-0.7-3.1-2-3.1-2.9c0-1.3,0.9-2.8,3.3-2.8c2.7,0,4.4,1.2,5.4,3.7l5-1.8
				c-0.5-0.8-1.8-3.1-2.7-3.8c-1-0.8-3-2.4-7.9-2.4c-5.3,0-7.5,3.2-7.9,3.9c-0.7,1.2-1,2.9-1,4c0,1.1,0.5,4.3,2.5,5.7
				c1.8,1.2,4.1,1.8,5.6,2.3c0.3,0.1,0.5,0.1,0.7,0.2l0.3,0.1c1.4,0.4,2.3,0.7,3.3,1.1c1.1,0.6,1.6,1.4,1.6,2.6
				c-0.1,1.3-1.1,2.8-2.8,2.9c-1.7,0.1-4.2-0.2-5.2-1.1c-0.8-0.7-1.8-2.3-2.1-3.2L27.4,71.4z"/>
		</g>
		<g>
			<path class="st130" d="M70,70.5c0,0,0.9-11.5-9.8-11.5c-9.7,0-9.4,10-9.4,10.7c0,2.9,1.7,10.3,9.9,10.3S70,73,70,73l-5.6-0.7
				c-0.3,0.7-0.8,3.3-3.4,3.3s-3.5-2.1-3.7-2.8c-0.2-0.7-0.1-2.3-0.1-2.3H70z M57.1,67.2c0,0-0.1-4.4,3.6-4.4s3.5,4.4,3.5,4.4H57.1z
				"/>
			<path class="st129" d="M60.7,80.2c-3.6,0-6.5-1.4-8.3-4.2c-1.4-2.2-1.9-4.7-1.9-6.4l0-0.1c0-1.6,0.2-5.7,2.9-8.4
				c1.6-1.7,3.9-2.5,6.8-2.5c3.1,0,5.6,1,7.3,2.8c3.2,3.5,2.8,8.8,2.8,9l0,0.3H57.4c0,0.6,0,1.5,0.1,1.9c0.2,0.6,0.9,2.6,3.4,2.6
				c2.1,0,2.8-1.9,3.1-2.8c0-0.1,0.1-0.2,0.1-0.3l0.1-0.2l6.1,0.7l0,0.3C70.3,73.2,69.1,80.2,60.7,80.2z M60.2,59.3
				c-2.7,0-4.8,0.8-6.3,2.3c-2.5,2.5-2.7,6.4-2.7,8l0,0.1c0,1.6,0.5,4,1.8,6.1c1.7,2.6,4.3,3.9,7.8,3.9c3.3,0,5.8-1.1,7.5-3.3
				c0.9-1.2,1.3-2.5,1.5-3l-5-0.6c0,0,0,0,0,0c-0.3,1-1.1,3.2-3.6,3.2c-2.9,0-3.8-2.5-3.9-3c-0.2-0.7-0.2-2.3-0.2-2.4l0-0.3h12.9
				c0-1.1,0-5.4-2.6-8.3C65.4,60.2,63.1,59.3,60.2,59.3z M64.5,67.5h-7.7l0-0.3c0-0.1-0.1-2.3,1.2-3.6c0.7-0.7,1.6-1,2.7-1
				c1.1,0,2,0.3,2.6,1c1.3,1.4,1.2,3.5,1.2,3.6L64.5,67.5z M57.4,66.9h6.5c0-0.6-0.2-2-1-2.9c-0.5-0.6-1.3-0.9-2.2-0.9
				c-0.9,0-1.7,0.3-2.2,0.9C57.6,64.9,57.4,66.3,57.4,66.9z"/>
		</g>
		<radialGradient id="SVGID_2_" cx="43.0786" cy="22.4242" r="45.6227" gradientUnits="userSpaceOnUse">
			<stop  offset="0" style="stop-color:#FFFFFF;stop-opacity:0.8"/>
			<stop  offset="1" style="stop-color:#FFFFFF;stop-opacity:0.2"/>
		</radialGradient>
		<path class="st18" d="M25.7,39.2c0,3.6,0,15.8,0,19.4c0,3.6,2.3,10.2,9.5,10.4c7.2,0.2,34,1.3,36.4,1.2c2.4-0.1,8.8-3.5,8.8-9.9
			s0-15.4,0-19.2c0-3.7-2.2-11-10.4-11.3s-31.3-1-33.9-1C31.9,28.8,25.7,30.4,25.7,39.2z"/>
		<g>
			<g>
				<defs>
					<polygon id="SVGID_13_" points="50.6,42.2 61.9,56.4 88.5,34.3 84.8,26.9 62.7,45.7 54.9,36.8 					"/>
				</defs>
				<clipPath id="SVGID_3_">
					<use xlink:href="#SVGID_13_"  style="overflow:visible;"/>
				</clipPath>
				<polygon style="clip-path:url(#SVGID_3_);fill:#227716;" points="50.6,55.7 51.5,56.4 50.6,56.4 				"/>
				<polygon style="clip-path:url(#SVGID_3_);fill:#227716;" points="50.6,54.9 52.3,56.4 51.5,56.4 50.6,55.7 				"/>
				<polygon style="clip-path:url(#SVGID_3_);fill:#227816;" points="50.6,54.2 53.2,56.4 52.3,56.4 50.6,54.9 				"/>
				<polygon style="clip-path:url(#SVGID_3_);fill:#227917;" points="50.6,53.5 54.1,56.4 53.2,56.4 50.6,54.2 				"/>
				<polygon style="clip-path:url(#SVGID_3_);fill:#227A17;" points="50.6,52.7 54.9,56.4 54.1,56.4 50.6,53.5 				"/>
				<polygon style="clip-path:url(#SVGID_3_);fill:#227B17;" points="50.6,52 55.8,56.4 54.9,56.4 50.6,52.7 				"/>
				<polygon style="clip-path:url(#SVGID_3_);fill:#227C18;" points="50.6,51.2 56.7,56.4 55.8,56.4 50.6,52 				"/>
				<polygon style="clip-path:url(#SVGID_3_);fill:#227D18;" points="50.6,50.5 57.5,56.4 56.7,56.4 50.6,51.2 				"/>
				<polygon style="clip-path:url(#SVGID_3_);fill:#227E18;" points="50.6,49.8 58.4,56.4 57.5,56.4 50.6,50.5 				"/>
				<polygon style="clip-path:url(#SVGID_3_);fill:#227F18;" points="50.6,49 59.3,56.4 58.4,56.4 50.6,49.8 				"/>
				<polygon style="clip-path:url(#SVGID_3_);fill:#228019;" points="50.6,48.3 60.1,56.4 59.3,56.4 50.6,49 				"/>
				<polygon style="clip-path:url(#SVGID_3_);fill:#228119;" points="50.6,47.6 61,56.4 60.1,56.4 50.6,48.3 				"/>
				<polygon style="clip-path:url(#SVGID_3_);fill:#228219;" points="50.6,46.8 61.9,56.4 61,56.4 50.6,47.6 				"/>
				<polygon style="clip-path:url(#SVGID_3_);fill:#22831A;" points="50.6,46.1 62.7,56.4 61.9,56.4 50.6,46.8 				"/>
				<polygon style="clip-path:url(#SVGID_3_);fill:#22841A;" points="50.6,45.3 63.6,56.4 62.7,56.4 50.6,46.1 				"/>
				<polygon style="clip-path:url(#SVGID_3_);fill:#22851A;" points="50.6,44.6 64.5,56.4 63.6,56.4 50.6,45.3 				"/>
				<polygon style="clip-path:url(#SVGID_3_);fill:#21861B;" points="50.6,43.9 65.4,56.4 64.5,56.4 50.6,44.6 				"/>
				<polygon style="clip-path:url(#SVGID_3_);fill:#21871B;" points="50.6,43.1 66.2,56.4 65.4,56.4 50.6,43.9 				"/>
				<polygon style="clip-path:url(#SVGID_3_);fill:#21881B;" points="50.6,42.4 67.1,56.4 66.2,56.4 50.6,43.1 				"/>
				<polygon style="clip-path:url(#SVGID_3_);fill:#21891C;" points="50.6,41.6 68,56.4 67.1,56.4 50.6,42.4 				"/>
				<polygon style="clip-path:url(#SVGID_3_);fill:#218A1C;" points="50.6,41.3 50.8,41.1 68.8,56.4 68,56.4 50.6,41.6 				"/>
				<polygon style="clip-path:url(#SVGID_3_);fill:#218B1C;" points="50.8,41.1 51.2,40.6 69.7,56.4 68.8,56.4 				"/>
				<polygon style="clip-path:url(#SVGID_3_);fill:#218C1D;" points="51.2,40.6 51.5,40.2 70.3,56.2 70.1,56.4 69.7,56.4 				"/>
				
					<rect x="60.8" y="35.6" transform="matrix(0.6479 -0.7617 0.7617 0.6479 -15.0319 63.4277)" style="clip-path:url(#SVGID_3_);fill:#218D1D;" width="0.6" height="24.6"/>
				
					<rect x="61.2" y="35.2" transform="matrix(0.6479 -0.7617 0.7617 0.6479 -14.5771 63.5544)" style="clip-path:url(#SVGID_3_);fill:#218E1D;" width="0.6" height="24.6"/>
				
					<rect x="61.5" y="34.8" transform="matrix(0.6479 -0.7617 0.7617 0.6479 -14.1222 63.6812)" style="clip-path:url(#SVGID_3_);fill:#218F1D;" width="0.6" height="24.6"/>
				
					<rect x="61.9" y="34.4" transform="matrix(0.6479 -0.7617 0.7617 0.6479 -13.6673 63.808)" style="clip-path:url(#SVGID_3_);fill:#21901E;" width="0.6" height="24.6"/>
				
					<rect x="62.3" y="33.9" transform="matrix(0.6479 -0.7617 0.7617 0.6479 -13.2124 63.9347)" style="clip-path:url(#SVGID_3_);fill:#21911E;" width="0.6" height="24.6"/>
				
					<rect x="62.6" y="33.5" transform="matrix(0.6479 -0.7617 0.7617 0.6479 -12.7575 64.0615)" style="clip-path:url(#SVGID_3_);fill:#21921E;" width="0.6" height="24.6"/>
				
					<rect x="63" y="33.1" transform="matrix(0.6479 -0.7617 0.7617 0.6479 -12.3026 64.1883)" style="clip-path:url(#SVGID_3_);fill:#21931F;" width="0.6" height="24.6"/>
				
					<rect x="63.4" y="32.6" transform="matrix(0.6479 -0.7617 0.7617 0.6479 -11.8477 64.3151)" style="clip-path:url(#SVGID_3_);fill:#21951F;" width="0.6" height="24.6"/>
				
					<rect x="63.7" y="32.2" transform="matrix(0.6479 -0.7617 0.7617 0.6479 -11.3928 64.4418)" style="clip-path:url(#SVGID_3_);fill:#21961F;" width="0.6" height="24.6"/>
				
					<rect x="64.1" y="31.8" transform="matrix(0.6479 -0.7617 0.7617 0.6479 -10.9379 64.5686)" style="clip-path:url(#SVGID_3_);fill:#219720;" width="0.6" height="24.6"/>
				
					<rect x="64.5" y="31.4" transform="matrix(0.6479 -0.7617 0.7617 0.6479 -10.483 64.6954)" style="clip-path:url(#SVGID_3_);fill:#219820;" width="0.6" height="24.6"/>
				
					<rect x="64.8" y="30.9" transform="matrix(0.6479 -0.7617 0.7617 0.6479 -10.0281 64.8222)" style="clip-path:url(#SVGID_3_);fill:#219920;" width="0.6" height="24.6"/>
				
					<rect x="65.2" y="30.5" transform="matrix(0.6479 -0.7617 0.7617 0.6479 -9.5732 64.9489)" style="clip-path:url(#SVGID_3_);fill:#219A21;" width="0.6" height="24.6"/>
				
					<rect x="65.5" y="30.1" transform="matrix(0.6479 -0.7617 0.7617 0.6479 -9.1183 65.0757)" style="clip-path:url(#SVGID_3_);fill:#219B21;" width="0.6" height="24.6"/>
				
					<rect x="65.9" y="29.6" transform="matrix(0.6479 -0.7617 0.7617 0.6479 -8.6634 65.2025)" style="clip-path:url(#SVGID_3_);fill:#219C21;" width="0.6" height="24.6"/>
				
					<rect x="66.3" y="29.2" transform="matrix(0.6479 -0.7617 0.7617 0.6479 -8.2085 65.3293)" style="clip-path:url(#SVGID_3_);fill:#219D21;" width="0.6" height="24.6"/>
				
					<rect x="66.6" y="28.8" transform="matrix(0.6479 -0.7617 0.7617 0.6479 -7.7536 65.456)" style="clip-path:url(#SVGID_3_);fill:#219E22;" width="0.6" height="24.6"/>
				
					<rect x="67" y="28.4" transform="matrix(0.6479 -0.7617 0.7617 0.6479 -7.2987 65.5828)" style="clip-path:url(#SVGID_3_);fill:#219F22;" width="0.6" height="24.6"/>
				
					<rect x="67.4" y="27.9" transform="matrix(0.6479 -0.7617 0.7617 0.6479 -6.8438 65.7096)" style="clip-path:url(#SVGID_3_);fill:#21A022;" width="0.6" height="24.6"/>
				
					<rect x="67.7" y="27.5" transform="matrix(0.6479 -0.7617 0.7617 0.6479 -6.3889 65.8364)" style="clip-path:url(#SVGID_3_);fill:#21A123;" width="0.6" height="24.6"/>
				
					<rect x="68.1" y="27.1" transform="matrix(0.6479 -0.7617 0.7617 0.6479 -5.934 65.9632)" style="clip-path:url(#SVGID_3_);fill:#21A223;" width="0.6" height="24.6"/>
				
					<rect x="68.5" y="26.6" transform="matrix(0.6479 -0.7617 0.7617 0.6479 -5.4791 66.0899)" style="clip-path:url(#SVGID_3_);fill:#21A323;" width="0.6" height="24.6"/>
				
					<rect x="68.8" y="26.2" transform="matrix(0.6479 -0.7617 0.7617 0.6479 -5.0242 66.2167)" style="clip-path:url(#SVGID_3_);fill:#20A424;" width="0.6" height="24.6"/>
				
					<rect x="69.2" y="25.8" transform="matrix(0.6479 -0.7617 0.7617 0.6479 -4.5693 66.3435)" style="clip-path:url(#SVGID_3_);fill:#20A524;" width="0.6" height="24.6"/>
				
					<rect x="69.6" y="25.4" transform="matrix(0.6479 -0.7617 0.7617 0.6479 -4.1144 66.4702)" style="clip-path:url(#SVGID_3_);fill:#20A624;" width="0.6" height="24.6"/>
				
					<rect x="69.9" y="24.9" transform="matrix(0.6479 -0.7617 0.7617 0.6479 -3.6595 66.597)" style="clip-path:url(#SVGID_3_);fill:#20A725;" width="0.6" height="24.6"/>
				
					<rect x="70.3" y="24.5" transform="matrix(0.6479 -0.7617 0.7617 0.6479 -3.2046 66.7238)" style="clip-path:url(#SVGID_3_);fill:#20A825;" width="0.6" height="24.6"/>
				
					<rect x="70.7" y="24.1" transform="matrix(0.6479 -0.7617 0.7617 0.6479 -2.7497 66.8506)" style="clip-path:url(#SVGID_3_);fill:#20A925;" width="0.6" height="24.6"/>
				
					<rect x="71" y="23.6" transform="matrix(0.6479 -0.7617 0.7617 0.6479 -2.2948 66.9773)" style="clip-path:url(#SVGID_3_);fill:#20AA26;" width="0.6" height="24.6"/>
				
					<rect x="71.4" y="23.2" transform="matrix(0.6479 -0.7617 0.7617 0.6479 -1.8399 67.1041)" style="clip-path:url(#SVGID_3_);fill:#20AB26;" width="0.6" height="24.6"/>
				
					<rect x="71.7" y="22.8" transform="matrix(0.6479 -0.7617 0.7617 0.6479 -1.385 67.2309)" style="clip-path:url(#SVGID_3_);fill:#20AC26;" width="0.6" height="24.6"/>
				<polygon style="clip-path:url(#SVGID_3_);fill:#20AD26;" points="62.8,26.9 62.9,26.9 63.6,26.9 82,42.5 81.6,42.9 				"/>
				<polygon style="clip-path:url(#SVGID_3_);fill:#20AE27;" points="64.5,26.9 82.3,42 82,42.5 63.6,26.9 				"/>
				<polygon style="clip-path:url(#SVGID_3_);fill:#20AF27;" points="65.4,26.9 82.7,41.6 82.3,42 64.5,26.9 				"/>
				<polygon style="clip-path:url(#SVGID_3_);fill:#20B027;" points="66.2,26.9 83.1,41.2 82.7,41.6 65.4,26.9 				"/>
				<polygon style="clip-path:url(#SVGID_3_);fill:#20B128;" points="67.1,26.9 83.4,40.7 83.1,41.2 66.2,26.9 				"/>
				<polygon style="clip-path:url(#SVGID_3_);fill:#20B228;" points="68,26.9 83.8,40.3 83.4,40.7 67.1,26.9 				"/>
				<polygon style="clip-path:url(#SVGID_3_);fill:#20B228;" points="88.5,34.8 83.8,40.3 68,26.9 88.5,26.9 				"/>
			</g>
			<path class="st191" d="M61.8,57L50.1,42.2l4.7-6l7.9,9L85,26.3l4,8.1L61.8,57z M51.1,42.2L62,55.8l26-21.7l-3.3-6.7l-22,18.7
				l-7.8-8.8L51.1,42.2z"/>
		</g>
		
			<radialGradient id="SVGID_4_" cx="62.9589" cy="48.6271" r="14.9236" gradientTransform="matrix(0.7859 -0.6184 1.7588 2.2352 -72.0452 -21.1297)" gradientUnits="userSpaceOnUse">
			<stop  offset="0" style="stop-color:#FFFFFF;stop-opacity:0.4"/>
			<stop  offset="0.9983" style="stop-color:#FFFFFF;stop-opacity:0"/>
		</radialGradient>
		<polygon class="st20" points="51.2,42 62.2,52 80.3,37.8 78.2,33 62.7,46.2 54.9,37.4 		"/>
	</g>
</g>
</svg>
