<svg id="Capa_1" enable-background="new 0 0 512 512" height="512" viewBox="0 0 512 512" width="512" xmlns="http://www.w3.org/2000/svg"><g><path d="m493.429 493.429c-24.761 24.761-64.906 24.761-89.666 0l-176.128-176.127 89.666-89.666 176.128 176.128c24.761 24.76 24.761 64.905 0 89.665z" fill="#365e7d"/><path d="m299.591 245.346-71.956 71.956 50.445 50.445c19.079-8.896 36.957-21.214 52.705-36.962.093-.093.186-.186.279-.279 14.75-14.812 38.625-15.063 53.405-.282l91.25 91.25c21.729 21.729 24.384 55.302 7.977 79.933 3.437-2.29 6.702-4.945 9.734-7.977 24.761-24.761 24.761-64.906 0-89.666l-125.683-125.684-50.445-50.445z" fill="#2b4d66"/><g><path d="m471.418 479.145c-1.977 0-3.955-.755-5.464-2.263l-17.648-17.648c-3.017-3.018-3.017-7.909 0-10.928 3.018-3.016 7.909-3.016 10.928 0l17.648 17.648c3.017 3.018 3.017 7.909 0 10.928-1.509 1.509-3.487 2.263-5.464 2.263z" fill="#2b4d66"/></g><g><path d="m311.32 431.333c-1.977 0-3.955-.755-5.464-2.263-3.017-3.018-3.017-7.909 0-10.928l112.287-112.287c3.018-3.016 7.909-3.016 10.928 0 3.017 3.018 3.017 7.909 0 10.928l-112.288 112.288c-1.509 1.508-3.487 2.262-5.463 2.262z" fill="#dd636e"/></g><circle cx="185.353" cy="185.353" fill="#365e7d" r="185.353"/><path d="m54.289 54.289c-3.389 3.389-6.619 6.877-9.691 10.454 72.822-62.535 182.679-59.304 251.675 9.691 68.996 68.996 72.226 178.853 9.691 251.674 3.577-3.072 7.065-6.302 10.454-9.691 72.385-72.385 72.385-189.744 0-262.129-72.385-72.384-189.745-72.384-262.129.001z" fill="#2b4d66"/><circle cx="185.353" cy="185.353" fill="#d3effb" r="143.038"/><path d="m84.21 84.21c-3.754 3.754-7.246 7.669-10.495 11.714 56.165-45.104 138.466-41.611 190.572 10.496 52.106 52.106 55.599 134.407 10.495 190.572 4.046-3.249 7.961-6.742 11.714-10.496 55.86-55.86 55.86-146.427 0-202.287-55.859-55.859-146.426-55.859-202.286.001z" fill="#b1e4f9"/><g><path d="m169.865 258.955c-3.032 0-5.908-1.796-7.141-4.772l-23.517-56.766c-1.634-3.942.238-8.462 4.181-10.095 3.942-1.633 8.462.238 10.095 4.181l23.517 56.767c1.634 3.942-.238 8.462-4.181 10.095-.967.4-1.969.59-2.954.59z" fill="#2b4d66"/></g><path d="m181.314 213.339h-32.299c-12.395 0-22.442-10.048-22.442-22.442v-20.421c0-12.395 10.048-22.442 22.442-22.442h32.299z" fill="#ffc250"/><path d="m160.307 148.034h21.008v65.306h-21.008z" fill="#ebb044"/><path d="m181.314 213.339 62.82 21.205v-107.715l-62.82 21.205z" fill="#e27d47"/><path d="m219.682 135.083v91.207l24.452 8.254v-107.715z" fill="#dd544f"/><g><path d="m244.133 249.619c-4.268 0-7.726-3.459-7.726-7.726v-122.413c0-4.268 3.459-7.726 7.726-7.726s7.726 3.459 7.726 7.726v122.412c.001 4.268-3.458 7.727-7.726 7.727z" fill="#2b4d66"/></g></g></svg>