<?xml version="1.0" encoding="utf-8"?>
<!-- Generator: Adobe Illustrator 24.1.0, SVG Export Plug-In . SVG Version: 6.00 Build 0)  -->
<svg version="1.1" id="Layer_1" xmlns="http://www.w3.org/2000/svg" xmlns:xlink="http://www.w3.org/1999/xlink" x="0px" y="0px"
	 viewBox="0 0 512 512" style="enable-background:new 0 0 512 512;" xml:space="preserve">
<style type="text/css">
	.st0{fill:#959CB3;}
	.st1{fill:#7F8499;}
	.st2{fill:#5B5D6E;}
	.st3{fill:#464655;}
	.st4{fill:#707487;}
	.st5{fill:#E56354;}
	.st6{fill:#E0E5E8;}
	.st7{fill:#29A1DA;}
	.st8{fill:#1A76A1;}
	.st9{fill:#3B566A;}
</style>
<rect x="298.7" y="274.9" transform="matrix(0.7071 -0.7071 0.7071 0.7071 -131.9615 318.5946)" class="st0" width="39.7" height="87.4"/>
<path class="st1" d="M273.7,301.7l61.8,61.8l10-10l-37-37c6.2-5.8,12.2-11.9,17.5-18.6l-24.3-24.3L273.7,301.7z"/>
<path class="st2" d="M342.5,335.1C342.5,335.1,342.5,335.1,342.5,335.1l-7.4,7.4c-11.4,11.4-11.4,31.2,0,42.6l118.1,118.1
	c5.7,5.7,13.3,8.8,21.3,8.8c8.1,0,15.6-3.1,21.3-8.8l7.3-7.3c5.7-5.7,8.8-13.2,8.8-21.3c0-8-3.1-15.6-8.8-21.3L385,335.1
	C373.3,323.4,354.2,323.4,342.5,335.1z"/>
<path class="st3" d="M499.2,487.3c-8,0-15.6-3.1-21.3-8.8L359.8,360.3c-8.4-8.4-10.5-21.3-6.6-32.1c-3.9,1.5-7.6,3.7-10.8,6.8
	c0,0,0,0,0,0l-7.4,7.4c-11.4,11.4-11.4,31.2,0,42.6l118.1,118.1c5.7,5.7,13.3,8.8,21.3,8.8c8.1,0,15.6-3.1,21.3-8.8l7.3-7.3
	c3.1-3,5.3-6.7,6.8-10.6C506.6,486.5,503,487.3,499.2,487.3z"/>
<path class="st2" d="M176.5,0C79,0,0,79.1,0,176.6s79,176.5,176.5,176.5s176.5-79,176.5-176.5S274.1,0,176.5,0z M176.5,317.8
	c-78,0-141.2-63.2-141.2-141.2S98.5,35.3,176.5,35.3s141.2,63.2,141.2,141.2S254.6,317.8,176.5,317.8z"/>
<path class="st4" d="M176.5,17.7c-87.8,0-158.9,71.1-158.9,158.9s71.1,158.9,158.9,158.9s158.9-71.1,158.9-158.9
	C335.4,88.8,264.3,17.7,176.5,17.7z M176.5,317.8c-78,0-141.2-63.2-141.2-141.2S98.5,35.3,176.5,35.3s141.2,63.2,141.2,141.2
	S254.6,317.8,176.5,317.8z"/>
<path class="st5" d="M114.5,285h-14.4c-5.5,0-10-4.5-10-10v-71.4h34.4V275C124.5,280.5,120,285,114.5,285z"/>
<path class="st6" d="M272.1,82.4v177.9c0,3-3.5,4.5-5.7,2.5c-3.9-3.6-8-7.1-12.1-10.3c-34.8-27.3-77.8-42.3-122.5-42.3h-23.7v-77.6
	h23.7c44.7,0,87.7-15,122.5-42.3c4.2-3.3,8.2-6.7,12.1-10.3C268.6,77.9,272.1,79.4,272.1,82.4z"/>
<path class="st7" d="M108.1,210.1H84c-20.9,0-37.9-17-37.9-37.9v-1.8c0-20.9,17-37.9,37.9-37.9h24.1V210.1z"/>
<path class="st8" d="M124.5,251.1h1c5.6,0,10.1-4.5,10.1-10.1v-0.5c0-5.6-4.5-10.1-10.1-10.1h-1V251.1z"/>
<path class="st7" d="M272.1,82.4v177.9c0,3-3.5,4.5-5.7,2.5c-3.9-3.6-8-7.1-12.1-10.3V90.2c4.2-3.3,8.2-6.7,12.1-10.3
	C268.6,77.9,272.1,79.4,272.1,82.4z"/>
<path class="st9" d="M272.1,147.5v47.8c13.2,0,23.9-10.7,23.9-23.9C296,158.1,285.3,147.5,272.1,147.5z"/>
</svg>
