<?xml version="1.0" encoding="utf-8"?>
<!-- Generator: Adobe Illustrator 24.1.0, SVG Export Plug-In . SVG Version: 6.00 Build 0)  -->
<svg version="1.1" id="Layer_1" xmlns="http://www.w3.org/2000/svg" xmlns:xlink="http://www.w3.org/1999/xlink" x="0px" y="0px"
	 viewBox="0 0 612 609.4" style="enable-background:new 0 0 612 609.4;" xml:space="preserve">
<style type="text/css">
	.st0{fill:#FC5800;}
</style>
<path class="st0" d="M267,376.6c1.3,0,0.8,1,0.9,1.7c0.6,6.3,2.1,12.3,5.6,17.7c7.3,11.4,17.6,17.9,31.2,18.1
	c25.3,0.4,50.1,3.9,74.2,12.1c42.9,14.7,78.3,39.8,106.5,75.3c1.3,1.6,2.2,2,4.2,1.1c19.8-9.3,39.7-18.6,59.6-27.8
	c1.6-0.7,2.4-1.7,2.9-3.3c5.5-20.9,11.1-41.8,16.7-62.7c0.5-1.8,0.2-3-1-4.5c-29.1-34.6-58.1-69.2-87.2-103.8
	c-24.8-29.6-49.7-59.2-74.6-88.8c-1.2-1.4-1.4-2.4-0.6-4.1c32-68.6,64-137.2,96-205.8c0.9-1.9,1.5-2.5,3.5-1.4
	c4.3,2.3,8.8,4.3,13.2,6.2c2,0.8,2.2,1.8,1.5,3.7C507.1,45,494.6,79.6,482,114.2c-10.5,29-21.1,58.1-31.6,87.1
	c-0.7,1.9-0.6,3.2,0.8,4.9c44.8,53.3,89.5,106.6,134.2,159.9c8.1,9.6,16.2,19.3,24.3,28.9c1.2,1.4,1.6,2.5,1.1,4.4
	c-8.9,33.1-17.8,66.3-26.6,99.4c-0.4,1.6-1.2,2.5-2.7,3.1c-35.2,16.4-70.5,32.8-105.7,49.3c-2.1,1-3,0.7-4.2-1.3
	c-28.6-49.3-70.6-80.6-126.3-93.2c-13.1-3-26.4-4.2-39.8-4.2c-34.4-0.1-64.4-23.2-73.4-56.4c-0.6-2.1-0.4-3.2,1.8-4.2
	c10.5-4.7,20.9-9.6,31.3-14.5C266,377.2,266.5,376.9,267,376.6z"/>
<path class="st0" d="M176.2,609.4c-22.2,0-43.6,0-64.9,0c-1.3,0-2.2-0.6-3.1-1.4c-50.5-43.9-83.8-98.3-99-163.6
	c-6.1-26.3-8.6-53-7.4-79.9c3.4-76.2,30.2-143,83-198.5c43.8-46.1,97.4-75.1,159.8-87.6c22.6-4.5,45.4-6.5,68.4-5.9
	c34.9,0.9,68.7,7.4,101.4,19.8c1.7,0.7,2.8,1,1.7,3.4c-15.1,32.1-30,64.3-45,96.4c-0.2,0.5-0.6,1-1,1.8c-4.9-5.9-9.8-11.6-14.6-17.3
	c-3.6-4.3-7.1-8.6-10.8-12.8c-1.4-1.6-1.4-2.8-0.6-4.6c6.2-13,12.2-26.1,18.3-39.2c0.4-0.9,0.8-1.8,1.2-2.7
	C275.3,95.2,146,124.1,76.1,243.4C38.7,307.1,30,375.6,49.4,446.9C68.8,518.2,112.1,571.6,176.2,609.4z"/>
<path class="st0" d="M434.3,609.4c-5.7,0-11.3-0.1-17,0c-1.9,0-2.6-0.6-3.2-2.4c-12.3-35-35.9-59-70.8-71.8
	c-12.1-4.4-24.7-6.3-37.6-6.4c-39.8-0.3-74.5-13.8-103.6-40.9c-27.7-25.8-43.6-57.8-47.6-95.6c-8.4-79.1,46-150.5,122.6-165.1
	c38.1-7.3,74.1-0.7,107.6,19.2c1.8,1,2.2,1.8,1.2,3.8c-4.8,10-9.5,20.1-14.1,30.2c-0.9,2-1.5,2.3-3.4,1
	c-21.5-14.1-45.3-20.7-70.9-18.4c-41.6,3.7-73,24.2-92.6,61c-30,56.3-7.3,125.8,49.7,154.5c16.1,8.1,33.3,12.2,51.3,12.2
	c69.7,0.1,130.3,47.2,147.4,114.8c0.1,0.6,0.2,1.2,0.4,1.7c0.8,1.8,0,2.1-1.7,2.1C446.3,609.4,440.3,609.4,434.3,609.4z"/>
</svg>
