<?xml version="1.0" encoding="utf-8"?>
<!-- Generator: Adobe Illustrator 24.1.0, SVG Export Plug-In . SVG Version: 6.00 Build 0)  -->
<svg version="1.1" id="Layer_1" xmlns="http://www.w3.org/2000/svg" xmlns:xlink="http://www.w3.org/1999/xlink" x="0px" y="0px"
	 viewBox="0 0 283.5 283.5" style="enable-background:new 0 0 283.5 283.5;" xml:space="preserve">
<style type="text/css">
	.st0{fill:#0083FE;}
	.st1{fill:#05DCA7;}
	.st2{fill:#B8B8B8;}
	.st3{fill:#B8B8B9;}
	.st4{fill:#B7B9BB;}
	.st5{fill:#FEFEFE;}
	.st6{fill:#04BB8F;}
</style>
<path class="st0" d="M142.5,178.7c-2.1-2.8-4.8-4.8-7.7-6.5c-5.1-3.2-10.5-5.8-16.5-6.8c-3.1-0.5-6.1-0.4-8.8,1.5
	c-8.5,5.9-19.6,6-27.9,0.5c-3-2-5.4-4.5-7.5-7.4c-2.6-3.4-3.7-7.2-4-11.4c-0.5-6.6,1.3-12.4,5.3-17.5c4.2-5.3,9.8-8.3,16.5-9.3
	c4.5-0.7,8.8,0.1,13,1.8c1.5,0.6,3.1,1.2,4.7,1.7c2.1,0.7,4.2,0.5,6.3,0.2c5.1-0.8,9.7-3.2,14-5.9c2.8-1.8,5.5-3.7,7.9-6
	c3.4-3.2,5.4-6.9,4.9-12c-0.4-4.2,0.7-8.3,2.8-12.1c5-8.9,12.7-13.6,22.9-13.5c5.6,0,10.7,1.7,14.9,5.7c4.5,3.9,7.7,8.6,8.8,14.4
	c1.8,10-1.2,18.5-9.3,24.6c-4.4,3.3-6.7,7.4-7.4,12.6c-1.1,7.8-0.8,15.5,1.1,23.1c0.5,2,1.2,4,2.5,5.6c1.9,1.7,4.3,2.9,6.4,4.5
	c0.5,0.4,0.9,0.8,1.3,1.2c4.3,3.8,7.3,8.4,8.6,14c2.8,11.5-4.1,24.5-15.3,28.4c-10.4,3.6-19.5,1.4-27.2-6.4c-1-1-1.7-2.1-2.6-3.2
	c-2.8-3.5-4.1-7.6-4.2-12C145.8,184.6,144.5,181.6,142.5,178.7z"/>
<path class="st1" d="M52.1,103.6c0,6.5-1,12.8-4.2,18.6c-3.9,7-10.1,10.7-17.7,12.4c-0.3,0.1-0.6,0.1-0.9,0.2
	c-0.3,0.1-0.6,0.1-1.3,0.2c3.3,0.5,6.1,1.1,8.9,2.2c7.9,3.3,12.1,9.5,14.2,17.5c0.9,3.8,1.4,7.6,1.4,11.5c0,14.3-0.1,28.5,0.1,42.8
	c0.1,5.8,1.3,11.3,4.9,16.1c3.3,4.4,7.9,6.7,13.2,7.9c4.7,1.1,9.5,0.9,14.3,0.8c1.2,0,1.4,0.3,1.4,1.5c-0.1,4.6,0,9.3,0,14
	c0,0.9-0.2,1.2-1.1,1.2c-6.9,0-13.8,0.1-20.6-1.1c-8-1.4-15.4-4.3-21.2-10.2c-4.9-5-7.6-11.1-9-17.8c-1-4.6-1.4-9.3-1.4-14
	c0-14,0.1-27.9-0.1-41.9c0-5.2-0.9-10.3-4.4-14.5c-3.1-3.8-7.3-5.6-11.9-6.7c-4.9-1.2-9.9-1.2-14.9-1.1c-1.2,0-1.6-0.2-1.6-1.5
	c0.1-4.5,0.1-8.9,0-13.4c0-1.3,0.4-1.5,1.6-1.5c5.3,0.1,10.7,0,15.9-1.1c4.9-1,9.3-2.8,12.2-7.2c1.9-2.9,2.5-6.2,2.9-9.5
	c0.5-3.5,0.1-7.1,0.3-10.6c0.4-0.3,0.9-0.2,1.3,0c5.5,1.6,11.1,2.9,16.6,4.6C51.3,103,51.8,103.1,52.1,103.6z"/>
<path class="st0" d="M233.2,153.3c3.3-10,10.3-15.7,20.6-17.7c0.4-0.1,0.8-0.2,1.3-0.4c-1.4-0.3-2.7-0.4-3.9-0.8
	c-1.3-0.3-2.6-0.7-3.8-1.2c-8.4-3.3-13-9.7-15.1-18.2c-1-4.2-1.3-8.5-1.3-12.9c0-9.7,0.1-19.3-0.1-29c-0.1-4.4-1.1-8.6-3.2-12.5
	c-3.7-6.8-9.9-9.7-17.2-10.7c-4-0.6-8-0.4-12-0.4c-1,0-1.3-0.2-1.3-1.3c0.1-4.7,0.1-9.4,0-14.1c0-0.9,0.3-1.1,1.2-1.1
	c5.1,0.1,10.2-0.2,15.3,0.3c7.2,0.7,14.2,2.3,20.5,6.1c7.9,4.8,12.5,12.1,14.7,21c1.2,4.6,1.7,9.3,1.7,14c0,9.6,0,19.2,0,28.7
	c0,3.5,0.4,6.9,1.4,10.2c2.1,6.5,6.9,10.1,13.2,11.9c5.4,1.6,11,1.7,16.5,1.6c1.3,0,1.8,0.2,1.8,1.7c-0.1,4.5-0.1,9,0,13.5
	c0,0.9-0.2,1.2-1.1,1.2c-4.4-0.1-8.8-0.1-13.2,0.5c-3.3,0.4-6.5,1.1-9.5,2.6c-4.9,2.4-7.3,6.6-8.3,11.8c-0.6,0.3-1.2,0.1-1.7-0.1
	c-4.9-1.4-9.9-2.7-14.9-4.1C234.1,154,233.5,153.9,233.2,153.3z"/>
<path class="st1" d="M233.2,153.3c5.7,1.6,11.3,3.2,17,4.7c0.4,0.1,0.7,0.2,1.1,0.3c-0.5,2.6-0.7,5.2-0.7,7.8
	c0,14.5,0.1,28.9,0,43.4c0,6.8-1.1,13.4-3.7,19.7c-4.3,10.2-12.3,15.9-22.7,18.9c-5.1,1.5-10.4,1.9-15.6,2.1
	c-3.4,0.1-6.8,0-10.2,0.1c-0.7,0-1.1-0.1-1.1-1c0-4.9,0-9.8,0-14.6c0-0.8,0.3-1,1-1c3.8,0,7.5,0.2,11.3-0.2
	c10.8-1.2,19.1-6.6,21.1-19c0.4-2.6,0.5-5.2,0.5-7.8c0-13.2,0-26.4,0-39.6c0-4.4,0.5-8.7,1.6-12.9
	C232.9,153.8,233.1,153.5,233.2,153.3z"/>
<path class="st0" d="M52.1,103.6c-6.4-1.7-12.8-3.5-19.2-5.2c0-9.7-0.4-19.4,0.3-29.1c0.5-6.4,1.9-12.7,5.1-18.4
	c4.8-8.5,12.4-13.2,21.6-15.7c5-1.4,10.2-1.9,15.4-2c3.3,0,6.5,0,9.8,0c0.9,0,1.2,0.2,1.2,1.1c0,4.7,0,9.5,0,14.2
	c0,0.9-0.3,1.2-1.2,1.2c-3.2,0-6.4,0-9.5,0.1c-4.2,0.2-8.2,1.1-11.9,3.1c-6.5,3.4-9.7,9.1-10.9,16.1c-0.5,2.9-0.6,5.8-0.6,8.7
	C52.2,86.3,52.1,94.9,52.1,103.6z"/>
<path class="st2" d="M183.1,81.6c-2.4-1.6-4.9-3.1-7.8-4.1c-14-4.7-29.4,4.3-32,18.8c-0.4,2-0.6,4.1-0.4,6.2
	c0.5,4.7-1.8,8.2-5.1,11.2c-5.2,4.8-11,8.5-17.7,10.9c-3,1.1-6.1,1.6-9.3,1.3c-1.8-0.2-3.5-1-5.2-1.7c-9.3-4-18.1-3.1-26.1,3.1
	c-5.4,4.2-8.5,9.9-9.2,16.8c-0.6,5.5,0.6,10.6,3.4,15.3c0.1,0.2,0.1,0.3,0.2,0.5c-2.2-2-3.4-4.5-4.4-7.2c-4.9-13.5,2.3-28,15.9-32.2
	c5.7-1.7,11.6-1.7,17,1c5.7,2.8,11.2,2.5,16.8,0.2c6.5-2.6,12.3-6.3,17.2-11.3c2.2-2.2,4.1-4.8,4.4-8.1c0.1-1,0-2.1,0-3.1
	c-0.1-10,4.2-17.4,12.7-22.4c9-5.3,21.7-3.6,29,3.9C182.8,81.1,183.1,81.2,183.1,81.6z"/>
<path class="st3" d="M142.5,178.7c2.2,2.2,3.6,4.9,3.6,8.1c0,4.9,1.5,9.4,3.9,13.6c-2.2-2-3.4-4.6-4.5-7.3c-1.1-2.9-1.7-6-1.6-9.1
	C144,182,143,180.4,142.5,178.7z"/>
<path class="st4" d="M186.5,167.5c-2.2-1.4-4.5-2.9-6.7-4.4c-0.4-0.3-0.8-0.7-1-1.3C181.8,163.1,184.4,164.9,186.5,167.5z"/>
<path class="st1" d="M123.4,155c-1.8-1.6-3-3.5-3.6-5.7c-0.4-1.4,0.1-3-0.2-4.5c-1-4.8,2-7.9,5.1-10.7c5.8-5.2,12.4-9.3,19.9-11.8
	c2.6-0.9,5.4-1.6,8.2-1c0.9,0.2,1.7,0.7,2.5,1.2c1.6,0.9,3.4,1.7,5.2,2.3c1.4,1.8,2.1,3.9,2.6,6c1.2,4.9,1.6,9.9,1.4,14.9
	c-0.2,4.6-0.8,9.2-3.1,13.3c-1,1.8-2.3,3.3-4.3,4.2c-1,0.5-2,1-2.8,1.8c-2,1.8-4.3,2-6.7,1.7c-3.7-0.5-7.2-1.7-10.5-3.2
	c-3.9-1.8-7.7-3.7-11.1-6.4C125,156.4,124.3,155.6,123.4,155z"/>
<path class="st5" d="M177.4,83.2c-5.6-1.7-10.5-0.6-15.1,2.1c-0.8,0.4-1.2,0.7-0.4,1.7c1.7,2,1.4,4.8-0.4,6.7
	c-1.8,1.8-4.5,2.1-6.7,0.7c-0.4-0.3-0.8-0.8-1.3,0c-2.2,3.5-3.9,7.2-4,11.5c0,1.8,0.4,3.4,0.9,5.1c-4.3-5.7-4.8-16.3,1.9-23.7
	C159.5,79.1,170.5,78.8,177.4,83.2z"/>
<path class="st5" d="M104.7,129.6c-5.3-1.4-10.1-0.3-14.6,2.3c-0.8,0.5-1.1,0.8-0.4,1.7c1.6,2.1,1.4,4.8-0.4,6.7
	c-1.7,1.8-4.5,2.1-6.6,0.7c-0.8-0.6-1.1-0.5-1.6,0.3c-0.9,1.6-1.9,3.3-2.5,5.1c-1.4,3.8-1.8,7.7,0.1,11.8
	c-4.6-5.7-5.5-16.6,1.5-24.4C87.8,125.3,99.2,125.9,104.7,129.6z"/>
<path class="st5" d="M165.4,172.2c1.7,1.6,2.2,3.5,1.6,5.6c-1,3.2-4.9,4.6-7.8,2.6c-0.8-0.6-1.1-0.5-1.6,0.3
	c-1.4,2.4-2.7,4.9-3.3,7.7c-0.7,3.1-0.6,4.8,0.8,9.1c-4.8-6.3-5.1-17.3,1.9-24.8c7.2-7.6,18.2-7.6,24.4-3.6
	C175.5,167.6,170.4,169,165.4,172.2z"/>
<path class="st6" d="M123.4,155c0.6,0,0.9,0.6,1.3,0.9c6.5,4.6,13.3,8.3,21.1,10c1.8,0.4,3.7,0.6,5.6,0.1c0.9-0.2,1.6-0.7,2.2-1.3
	c1.5-1.3,3.5-1.9,5-3.2c2.6-2.3,3.7-5.4,4.5-8.7c1-4.1,1.2-8.3,0.9-12.4c-0.3-5.4-1.1-10.8-3.6-15.8c1.4,1,2.1,2.5,2.8,4
	c1.7,3.8,2.3,7.8,2.7,11.9c0.4,4.4,0.4,8.7-0.3,13c-0.6,3.8-1.7,7.4-4.5,10.3c-1.2,1.2-2.9,1.4-4.1,2.6c-2.8,2.8-6.1,2.7-9.6,1.9
	c-8.9-2.3-16.8-6.4-23.5-12.6C123.8,155.5,123.6,155.2,123.4,155z"/>
</svg>
