<?xml version="1.0" encoding="utf-8"?>
<!-- Generator: Adobe Illustrator 24.1.0, SVG Export Plug-In . SVG Version: 6.00 Build 0)  -->
<svg version="1.1" id="Layer_1" xmlns="http://www.w3.org/2000/svg" xmlns:xlink="http://www.w3.org/1999/xlink" x="0px" y="0px"
	 viewBox="0 0 283.5 283.5" style="enable-background:new 0 0 283.5 283.5;" xml:space="preserve">
<style type="text/css">
	.st0{fill:#F4F4F4;}
	.st1{fill:#1891E5;}
	.st2{fill:#DADADA;}
	.st3{fill:#CCCCCC;}
	.st4{fill:#1890E4;}
	.st5{fill:#E1E1E1;}
	.st6{fill:#054D81;}
	.st7{fill:#075892;}
	.st8{fill:#0B66A7;}
	.st9{fill:#0F73B9;}
	.st10{fill:#127EC9;}
	.st11{fill:#095F9D;}
	.st12{fill:#0D6CB0;}
	.st13{fill:#1483D3;}
	.st14{fill:#117AC4;}
	.st15{fill:#FAFAFA;}
	.st16{fill:#147CC4;}
	.st17{fill:#1372B5;}
	.st18{fill:#0C3451;}
	.st19{fill:#0F588B;}
	.st20{fill:#0C4B77;}
	.st21{fill:#0E3F63;}
	.st22{fill:#10649E;}
	.st23{fill:#010F3A;}
	.st24{fill:#1484D3;}
	.st25{fill:#DBDBDB;}
	.st26{fill:#FCFCFC;}
	.st27{fill:#168ADB;}
	.st28{fill:#E2E2E2;}
	.st29{fill:#FEFEFE;}
	.st30{fill:#EDEDED;}
	.st31{fill:#06558C;}
	.st32{fill:#F3F3F3;}
	.st33{fill:#EEEEEE;}
	.st34{fill:#E5E5E5;}
	.st35{fill:#1483D1;}
	.st36{fill:#044B7E;}
	.st37{fill:#05548C;}
	.st38{fill:#1077BF;}
	.st39{fill:#08609E;}
	.st40{fill:#0C6BAE;}
	.st41{fill:#0C3453;}
	.st42{fill:#06336A;}
	.st43{fill:#0B417F;}
	.st44{fill:#0D4B76;}
	.st45{fill:#1166A2;}
	.st46{fill:#1166A1;}
	.st47{fill:#168CDE;}
	.st48{fill:#104D8F;}
	.st49{fill:#085C99;}
</style>
<g>
	<path class="st0" d="M17.6,73.2c-1.1-5.7-2.1-11.4-3.3-17.1c-0.4-2.1,0.6-2.8,2.3-3.4c13.4-4.6,26.8-9.2,40.2-13.9
		c22.6-7.8,45.2-15.7,67.8-23.5c13.6-4.7,27.3-9.3,40.9-14.1c4.1-1.4,2.3,2.6,3.7,3.7c1.6,2,2,4.6,2.5,7c2.1,10.9,3.8,21.8,5.8,32.7
		c0.2,1.2,0.4,2.5,0,3.7c-1.9,7.3-8.5,8.7-14.1,11c-7.2,3-14,6.8-21.3,9.5c-1.1,0.4-2.1,1-3.2,1.1c-2.8,0.4-5.2,1.5-6.6,4.2
		c-0.6,1-1.6,2-3.1,1.8c-1.2-1.4-0.8-3-0.5-4.6c0.8-3.8,2.4-7.2,4.7-10.2c3.7-5.2,7.8-10.2,12.5-14.5c2.5-1.5,4.2-3.8,6.3-5.7
		c1.2-0.9,2.5-1.7,3.3-3.1c0.9-1.3,1.2-2.8,1-4.4c0-1,0.1-2,0-2.9c-1-3.4-1.9-4.1-4.8-2.6c-17.8,8.8-35.4,17.8-50.2,31.3
		c-7.1,6.4-9.9,14.9-10.6,24.2c-1,5.2-0.8,10.4,0.1,15.6c0.1,1.5,0.2,3.1-0.6,4.5c-0.8,1-1.4,0.4-1.8-0.4c-0.9-2-1.7-4-1.4-6.3
		c0.4-3.3-0.1-3.6-3-2.4C73,99.4,62,104.5,50.9,109.5c-6.3,2.9-13,4.7-19,8c-1.4,0.8-2.8,0.5-3.6-0.9c-1.1-1.8-2.3-1.1-3.7-0.6
		c-1.2-0.8-1.2-2.2-1.4-3.4c-2-11.5-4.1-23-6.2-34.5C16.8,76.5,16.2,74.7,17.6,73.2z"/>
	<path class="st1" d="M17.6,73.2c1,6.1,2,12.1,3,18.2c1.5,8.2,3,16.4,4.5,24.6c1.1,0.9,1.3,2.2,1.5,3.4c3.5,19.5,7,39.1,10.3,58.6
		c0.1,0.6,0.1,1.1,0,1.7c-1,4.1,0.7,7.9,1.1,11.8c0.2,2.1,0.6,4.3,1.1,6.4c0.4,2,1.1,4-1.1,5.6c-0.5,0.4-0.6,1.3-0.5,1.9
		c0.6,4-0.2,8,0,12c0.3,5.2,0,10.5,0.2,15.7c0.1,2.1-1.3,3.3-2.6,4.6c-2,2.1-4.5,2.8-7.3,2.3c-3.8-21.9-7.7-43.9-11.5-65.8
		c-5.4-31-10.8-61.9-16.4-92.9c-0.4-2.4,0.2-3.2,2.4-3.7C7.6,76.4,12.2,73.6,17.6,73.2z"/>
	<path class="st2" d="M243.6,62.9c3.3,1.9,6.6,3.7,9.8,5.6c1,0.6,1.7,1.4,1.9,2.7c3.9,24.9,8.6,49.7,13,74.5
		c2.7,15.4,5.5,30.7,8.2,46.1c2.1,12,4.2,24,6.2,36.1c0.1,0.7,0,1.4-0.1,2.1c-0.5,0,0.1,0.2-0.3,0.1c-5.4-1.4-10.1-3.7-13.7-8.2
		c-4.6-21.9-7.9-44-12-66c-5.2-28.4-9.8-56.9-15.4-85.3c-0.3-1.7-0.7-3.4-0.6-5.1C240.9,63.9,241.2,62.1,243.6,62.9z"/>
	<path class="st3" d="M28,240.1c2.4-0.9,4.7-1.7,7.1-2.6c4.5-3.6,10-4.5,15.4-5.5c12.4,5.1,24.4,11.2,36.8,16.4
		c8.2,3.4,16.1,7.3,24.3,10.6c5.8,2.3,11.5,5.2,17.2,7.8c2,0.9,3.4,2.3,4.1,4.4c-0.2,1.2-1.2,1.6-2.1,1.9c-3.7,1.2-7.3,2.8-11.2,3.5
		c-1.5-0.9-2.9,0-4.2,0.5c-3.4,1.2-6.9,2.4-10.3,3.8c-3.2,1.3-5.9,0.8-8.9-1c-21.7-12.9-43.6-25.6-65.4-38.4
		C29.8,240.9,28.9,240.5,28,240.1z"/>
	<path class="st4" d="M176.9,49.1c-2.2-12.9-4.3-25.7-6.7-38.6c-0.3-1.8-1.1-3.6-1.1-5.5c0-1.1,0-2.2,0-4c7.9,4.9,15.5,9.6,23,14.2
		c-0.8,3-1.5,6-0.9,9.2c0.4,1.9-0.5,3.6-2.5,4.4c-3.6-0.4-3.5-0.4-3,3.3c0.6,4.7,2.2,9.2,2,14.1c-0.1,0.7-0.4,1.3-0.3,2
		c1.3,10-0.6,20,0,30.1c0.2,4.1-1,8.2-0.2,12.3c0.2,1-0.1,2.1-1.2,2.7c-1.7-1-1.6-2.9-1.9-4.5c-0.7-3.2-1.3-6.5-1.6-9.8
		c-0.1-0.8,0.2-1.9-1-2.4c-0.9-0.9-1-2-1.2-3.2c-1.3-6.8-2.4-13.6-3.6-20.3C176.4,51.8,176.3,50.4,176.9,49.1z"/>
	<path class="st5" d="M243.6,62.9c-1.8,0.2-2.2,1.3-1.9,2.9c1.4,7.3,2.8,14.5,4.1,21.8c1.6,9.5,3.5,19,4.8,28.6
		c0.9,6.8,2.7,13.4,3.8,20.1c2.4,13.8,4.7,27.6,7.1,41.4c1.9,10.6,3.9,21.3,5.8,31.9c0.7,3.9,1.3,7.9,2.6,11.7
		c0.2,0.6-0.4,0.7-0.8,0.8c-3,0.3-5-1-6.2-3.7c-2-11.3-4.2-22.5-6.1-33.8c-1.5-9.2-3.2-18.3-4.9-27.4c-3.8-20.8-7.5-41.5-11.2-62.3
		c-1.8-10.3-3.3-20.6-5.5-30.8c-0.4-1.8-0.5-3.6,0.1-5.4c0.7-1.5,1.8-1,2.9-0.5c1.3,0.6,2.5,1.6,4,2C242.8,61.1,243.2,62,243.6,62.9
		z"/>
	<path class="st6" d="M263.4,218.8c1.6,1.6,3.7,2.5,5.7,3.3c4.4,2.9,8.9,5.6,13.6,7.8c-0.4,0.3-0.8,0.8-1.3,1
		c-13.7,4.7-27.4,9.4-41,14c-1.3-0.8-1.8-2.3-1.6-3.4c0.7-3-0.2-5-3-6.3c0.5-1.6,2-1.8,3.3-2.2c3.4-1.2,6.9-2.5,10.7-3.9
		c-1.2-1.6-2.9-2.1-4.2-3.1c-1.3-1-3.3-1.3-3.6-3.4c2.7-1,2.9-3.1,2.8-5.6c-0.1-2.7,0.1-5.5,2.1-7.7c3.4,0,5.7,2.6,8.6,3.9
		C258,215.3,261.5,215.9,263.4,218.8z"/>
	<path class="st7" d="M236,235.2c0.2,0.1,0.3,0.4,0.5,0.4c3.4,0.2,4.1,1,3.2,4.4c-0.5,1.9,0.3,3.3,0.6,5c-12.3,4.7-24.8,8.9-37.4,13
		c-0.7,0.4-1.5,0.5-1.3-0.6c0.1-0.8,1.1-1.3,1.8-1.4c3.7-0.4,3.9-2.5,3-5.5c-0.4-1.3-0.5-2.7,0.6-3.7c-1.7,1-3.4,2.3-5.6,0.8
		c0.1-2.2,2.1-2.1,3.4-2.9c8.6-2.8,17.1-5.9,25.6-8.9C232.3,235.3,234,234,236,235.2z"/>
	<path class="st8" d="M201.4,247.6c2.2,0.5,4.1-1.1,6.7-1.2c-2.3,2.3-1,5-0.4,6.6c1.2,3.2-0.9,2.8-2.4,3.4c-1,0.4-2.1,0.8-3.2,1.1
		c0,0,0,0.3,0.1,0.3c0.2,0.1,0.4,0.2,0.6,0.2c-8.6,3.4-17.3,6.2-26.1,9c-0.3,0.2-0.9,0.1-0.8-0.2c0.7-3.7-1.1-8,2.6-10.9
		c0.1-0.1-0.1-0.6,0-1c2.2-2.4,5.7-2.3,8.3-4c3.3-1.4,6.8-2.5,10.2-3.5C198.6,247.1,200.1,246.5,201.4,247.6z"/>
	<path class="st9" d="M178.8,255.2c-0.6,0.7,3,0.3,0.4,1.5c-1,0.4-1.7,1-1.8,2.2c-0.1,2.7-0.4,5.4-0.5,8.1c-10.4,4.1-21,7.6-31.7,11
		c-0.5,0.3-1,0-0.9-0.5c0.2-1,1.1-1.6,1.9-1.7c3.5-0.3,3.6-2.7,3.8-5.4c0.2-2.2-0.3-3-2.6-2.2c-1.3,0.4-3,1.8-3.9-0.7
		c1-1.8,2.9-2.1,4.5-2.7c3.3-1.3,6.7-2.2,9.9-3.5c5.7-2.2,11.6-3.8,17.3-6.1C176.4,254.9,177.6,254.2,178.8,255.2z"/>
	<path class="st10" d="M143.7,267.6c2,1.7,3.4-0.5,5-0.9c2.1-0.6,2.6,0,2.7,2c0.1,2-1.6,3.8-0.2,6c0.4,0.6-1.2,0.6-1.8,1.1
		c-1.3,1-3.6,0-4.2,2.3c-4.2,1.5-8.4,3.1-12.6,4.6c-1.4,0.5-2.4-0.2-3.5-0.8c-3.2-1.8-6.4-3.6-9.6-5.4c2.8-2.3,6.5-2.6,9.6-4
		c1.1-0.5,2.3-1,3.4-1.4C135.9,268.6,139.5,267.1,143.7,267.6z"/>
	<path class="st11" d="M242.4,60.1c-0.1,1.1-0.5,1.3-1.4,0.7c-1.6-1-3.2-1.9-4.9-2.8c-3.3-0.2-5.2-3.1-8.2-3.9
		c-1.2-0.6-2.3-1.4-2.5-2.9c1.2-2.9,0.9-6,1-9c0-1.9-0.3-4.1,2.2-4.9c0.8,0.8,2,1.5,2.8,1.7c7.6,2.2,9.3,7.9,9.8,14.7
		C241.3,55.9,241.9,58,242.4,60.1z"/>
	<path class="st12" d="M228.6,37.3c-2.3,3.7-0.9,7.9-1.3,11.8c-0.1,1.3-0.4,1.8-1.5,2c-0.1,0-0.2,0.2-0.3,0.1
		c-5.9-2.3-11.5-5-15.7-10c3.2-1.5,3.2-1.5,3.4-6.3c0.1-2.2-0.5-5,3.1-5.3C220.4,32.1,224.6,34.5,228.6,37.3z"/>
	<path class="st13" d="M188.5,28.4c1.7-1.5,2.2-3.1,1.6-5.4c-0.7-2.7-0.7-5.7,2-7.8c3.9,2.3,7.7,4.7,11.6,7c0,3.3-0.4,6.5-0.5,9.8
		c-0.1,2.1-0.8,3.8-3.4,3.8C195.6,34.1,191.2,32.5,188.5,28.4z"/>
	<path class="st14" d="M199.5,35.2c2.3-0.2,2.7-1.7,2.8-3.7c0.1-3.1-0.9-6.5,1.4-9.3c4.3,2.3,8.4,4.8,12.4,7.6
		c-1.6,0.8-2.2,2.1-2.2,3.9c0.1,2.9,0,5.9,0,8.9c-1.6,0.7-2.3-2.4-4.1-1.1c-0.8,0.6-1.6,0.1-2.4-0.2c-1.9-1.1-3.7-2.3-5.6-3.4
		C200.9,37.2,199.6,36.7,199.5,35.2z"/>
	<path class="st15" d="M176.9,49.1c1.5,8.3,3,16.6,4.6,24.8c0.2,1,0.5,2,0.7,2.9c1,1.6,0.9,3.5,1.2,5.3c2.1,11.3,5,22.5,6.5,33.9
		c2,13.7,5,27.2,7.2,40.9c0.3,2,1,4.1-0.5,6c-2.8,2.2-6.3,2.6-9.4,3.8c-2,0.8-4.1,1.4-6.1,2.2c-1.2,0.4-2.3,0.8-3.5,1.2
		c-8.7,2.9-17.3,6.1-26,8.9c-9.2,3.2-18.4,6.4-27.6,9.5c-6.5,2.6-13.4,4.4-19.9,6.9c-6.2,2.5-12.8,4-18.9,6.7
		c-8.5,2.9-17.1,5.6-25.5,8.8c-4.3,1.5-8.7,3-13,4.4c-4.6,1.5-5.6,0.9-6.3-3.7c-1.4-8.6-2.1-17.3-3.8-25.8c-0.3-1.8-1.3-3.7-0.5-5.7
		c-3.6-20.3-7.2-40.7-10.8-61c-0.2-1-0.1-2-0.2-3.1c0.2-0.9-0.4-2.2,1-2.6c1.7-0.5,1.8,1.1,2.3,2c1,1.8,2,2.2,4,0.9
		c4.7-2.9,10.2-4.1,15.2-6.3c10.9-4.9,21.8-9.9,32.6-14.8c1.7-0.8,3.6-1.3,5.3-2.3c2.1-1.2,3.7,0.2,2.9,3c-0.9,3.2,0.5,5.6,1.6,8.3
		c0.1,0.1,0.3,0.3,0.4,0.4c1.2,4.7,1.3,9.6,3,14.2c0.4,1.7,0.1,3.5,0.8,5.1c0.1,4.3,1.1,8.6,0.9,13c-0.1,2.4-0.4,4.8-0.8,7.1
		c-3.1,8-9.3,13.4-15.5,18.8c-5.9,5.2-12.5,9.5-19.2,13.8c-1.1,0.7-2.4,1.4-3.3,2.5c-1.3,1.9-0.2,4.1-0.8,6.1
		c-0.1,0.6-0.3,1.1-0.4,1.6c-0.3,1.6-0.1,3.1,1.4,4.2c1.6,1.1,2.5-0.4,3.7-0.7c0.8-0.3,1.7-0.7,2.5-1.1c0.7-0.3,1.3-0.6,2-0.8
		c0.5-0.2,1-0.4,1.5-0.8c0.6-0.5,1.2-1,1.8-1.4c5.6-2.5,10.8-5.8,16.3-8.6c12.6-6.8,24.5-14.5,34.7-24.6
		c8.8-8.7,12.8-19.4,13.3-31.9c0.4-11.2-2.7-21.8-3.9-32.7c-0.4-4.2-1.3-8.4,0.6-12.5c1.5-1.3,2.9-2.5,3.7-4.4
		c0.4-1,1.2-1.6,2.4-1.8c7.4-1.3,13.9-5,20.5-8.3c3.6-1.8,7.4-3.2,11.1-4.5c2.8-1,4.2-4.3,7.8-3.8c0.8,0.1,0.3-1.3,0.2-2
		C174.6,49.8,174.6,48.3,176.9,49.1z"/>
	<path class="st16" d="M129.2,76c-0.8,8.6,1,16.9,2.6,25.2c2.8,14.3,3.4,28.5-3.7,41.9c-3.8,7.2-9.7,12.7-16,17.7
		c-8.6,6.8-17.6,13.1-27.6,17.8c-1.8,0.1-3.2,1-4.8,1.6c-1.4,0.5-3,1.2-4.1-0.3c-1.1-1.4,0.2-2.6,1-3.6c2.2-2.8,5.2-4.8,7.8-7.2
		c5.6-5,11-10.1,14.6-16.8c4-7.4,3.4-15.3,2.7-23.2c-1.1-11.8-4.7-23.3-4.5-35.4c0.2-13.1,4.4-24,15.1-32.4
		c8.2-6.5,16.8-12.3,26.2-16.9c1.3-0.7,2.7-1.2,4.2-1.7c1.3-0.4,2.7-0.8,3.9,0.4c1.2,1.3,0.9,2.7,0.1,4.1
		c-4.4,4.9-9.2,9.6-12.8,15.2C131,66.7,129,71,129.2,76z"/>
	<path class="st17" d="M146.5,47.4c-0.2-4.7-0.3-4.9-4.7-3.2c-10.2,4-19.2,10.1-27.7,16.9c-4.9,3.9-9.3,8.1-12,13.9
		c-4.1,8.8-4.5,18-3.6,27.5c1.1,12,4.7,23.7,4.6,36c-0.1,8.9-3.4,16.3-9.1,22.6c-4.5,5-9.4,9.7-14.9,13.7c-0.2,0.1-0.4,0.2-0.5,0.4
		c-0.9,1.5-3.4,2.8-2.5,4.4c0.8,1.4,2.8-0.5,4.4-0.6c1.3-0.1,2.5-1.4,3.9-0.4c-5.3,3-10.4,6.5-16.4,8.4c-2.9-0.4-2.3-2.5-2-4.3
		c0.3-1.5,1.5-2.5,2.3-3.7c0.2-0.3,0.4-0.5,0.7-0.7c1.9-1,3.8-2,5.3-3.7c2.3-2.4,5.4-3.7,7.5-6.3c0.8-0.9,1.8-1.6,2.9-2.2
		c9.8-7.3,16.3-16.4,15.9-29.2c-0.3-9.4-2.1-18.6-3.8-27.8c-0.9-4.6-0.7-9.3-1.4-14c-0.2-1.3-0.2-2.6,0-3.9c1.3-5,1.2-10.2,3.4-15
		c1.1-2.4,2.6-4.6,3.4-7.1c0.7-2.3,2.2-4.1,4.2-5.4c4.3-2.3,7.3-6.2,11.3-8.9c8.7-5.9,17.8-11.3,27.2-16c1.4-0.7,3-1.1,4.7-1.1
		c2.5,0,4,1,3.4,3.8C150.9,43.7,149,45.8,146.5,47.4z"/>
	<path class="st18" d="M89.9,82.9c0.7-12.5,7.2-21.8,16.7-29.1c10-7.8,20.9-14.2,32.2-20c4.6-2.3,9-5,13.8-6.9
		c2.6-1,4.8,0.6,4.9,3.7c-0.6,0.9-0.8,2.2-2.3,2.2c-6.8,0-12,4.3-18,6.7c-8.8,3.6-16.4,9.3-24.1,14.9c-5.4,3.9-10.2,8.3-14.1,13.9
		c-3.4,5-5.2,10.6-6.8,16.3c-0.3,1,0,2.7-2,2.4C89.7,85.6,90.9,84.1,89.9,82.9z"/>
	<path class="st19" d="M84.4,167c-0.7,0.7-1.4,1.4-2.1,2c-3.1,1.8-5.9,4-8.5,6.5c-1.3,1.3-3,2.2-4.6,3.2l0,0c-1.1,1.5-2.7,2.5-3.7,4
		c-2.4,1.9-0.9,4.1-0.5,6.2c-0.6,0.3-1,1.2-1.9,1c-3-1.6-3.7-3.9-2.2-7.1c1.8-3.5,4.9-5.7,8-7.9c6-4.2,11.8-8.7,17.3-13.6
		c10-9,12.9-20,10.6-33c-1.3-7.5-2.5-15.1-3.8-22.6c-0.1-3-0.4-5.9-0.5-8.9c-0.9-15.6,4.3-28.7,16.5-38.8
		c11.1-9.2,23.6-16.1,36.3-22.7c4-2.1,7.9-2.9,12.1-1.5c0.5,1.9,0.3,3.6-1.4,4.8c-0.6,0.2-1.1,0-1.6-0.3c-2.4-1.9-4.8-1.6-7.4-0.4
		C136.8,43,127,48.7,117.6,55.2c-4,2.7-7.2,6.3-11.1,9.1c-1.1,1.7-2.8,2.8-3.5,4.8c-0.6,0.9-1,1.9-1.8,2.6c-1.6,2.2-2.6,4.6-3.2,7.2
		c-0.2,0.3-0.3,0.6-0.5,0.9c-2.6,8.9-2.5,17.9-0.8,27c0.9,6.5,2.4,13,3.2,19.6c0.9,7.6,2,15.2-1.1,22.6
		C95.8,156.4,90.7,162.2,84.4,167z"/>
	<path class="st20" d="M157.5,34c-0.7,0.6-1.3,1.2-2.4,0.7c-2.9-1.4-5.5-0.3-8.1,1c-11.5,5.7-22.5,12.1-32.9,19.6
		C100.5,65.1,92.9,78,93.4,95.1c0.1,3.5,0.4,7,0.7,10.5c-0.9,0.2-1.3-0.5-1.6-1.1c-1.9-8.9-1.4-17.7,1.4-26.3
		c3.3-10.2,10.3-17.6,18.7-23.9c7.7-5.8,15.9-10.7,24.2-15.5c5.9-2.6,11.2-7.1,18.1-6.9c1.2,0,1.8-0.8,2.6-1.4
		C157.9,31.7,157.8,32.8,157.5,34z"/>
	<path class="st21" d="M136.8,38.8c-1,2.2-3.3,2.8-5.2,3.8c-9.7,5.2-18.8,11.3-26.6,18.9c-7.4,7.3-12.1,16.2-12.4,27
		c-0.1,5.3-0.6,10.6,0.7,15.8c-0.1,3,0.8,6,1.1,8.9c0.1,1.1,0.5,2.2,0,3.3c-0.5,0.7-1,1.2-1.9,0.9c-1.7-4.2-1.8-8.8-2.6-13.2
		c0,0,0,0,0,0c0-1.6-0.1-3.1-0.1-4.7c0.9-2.9-0.4-5.7,0.1-8.6c0.2-1.3-0.4-2.7,0.7-3.8c0.8-2.8,1.6-5.6,2.5-8.5
		c3.3-11.3,11.2-19.1,20.4-25.8c6.4-4.7,13.1-9,20-13C134.5,39.3,135.7,39.1,136.8,38.8z"/>
	<path class="st22" d="M106.5,64.3c4.3-6,10.6-9.8,16.5-13.7c7.6-5.1,15.8-9.3,23.9-13.4c3.9-1.9,5.6-1.7,9.2,1.6
		c-0.4,1.7-2.4,1.7-3.2,2.9c-0.8-3.6-3.4-3.4-5.9-2.4c-6.6,2.6-12.8,6.1-18.8,9.9c-6.7,4.2-13.5,8.3-19,14.1
		C108.5,64,107.6,64.4,106.5,64.3z"/>
	<path class="st23" d="M90.7,87c0,3.1,0,6.2,0,9.2c0,1.1,0.3,2.3-0.7,3.2c-0.7-5.5-0.8-11.1,0-16.6C91.2,84.1,90.4,85.7,90.7,87z"/>
	<path class="st15" d="M138.2,63c0.6,0,1.2,0.2,1,0.9c-0.3,1-1.2,1.2-2.1,1.5c-0.5,0.1-0.9-0.3-0.7-0.8
		C136.7,63.8,137.1,63,138.2,63z"/>
	<path class="st24" d="M36.1,180.1c1.1,6.4,2.1,12.7,3.2,19.1c0.8,4.6,2.1,9.2,2.5,13.8c0.2,2.7,1.2,2.4,2.9,1.8c5-1.7,10-3.4,15-5
		c5.1-0.3,5.1-0.3,5.1,5.3c0,3.3-0.2,6.6,0.8,9.8c0.5,1.4-0.1,2-1.3,2.1c-1.1,0.1-0.4,0.6-0.4,1c-4,2.8-8.2,4.7-13.2,4.5
		c-5.2,1.6-10.4,3.3-15.6,4.9c2.7-3.6,1.1-7.6,1.5-11.5c0.5-4.9-0.9-9.7,0.2-14.6c0.6-2.8-1.1-5.6,0.1-8.4c0.3-0.7-0.4-2.6,1.6-1.1
		c0.3,0.3,0.6-0.1,0.4-1.4c-1.1-5.7-2.1-11.4-3.1-17.1C35.4,182.3,35.2,181.1,36.1,180.1z"/>
	<path class="st25" d="M50.7,232.5c4.4-1.6,8.8-3.2,13.1-4.9c3.9-2.5,8.1-4.3,12.8-4.5c3.8,2.4,8,4,12,5.7
		c20.8,9,41.3,18.6,62.2,27.5c2.9,1.2,6.1,2.3,7.4,5.7c-4.8,1.8-9.7,3.6-14.5,5.5c-3.7,1.2-7.4,2.3-11,3.5c-2.3-2.9-5.7-4.1-9-5.6
		c-10.2-4.5-20.2-9.6-30.6-13.8c-13.4-5.4-26.4-12-39.7-17.6C52.4,233.7,51.6,233.1,50.7,232.5z"/>
	<path class="st26" d="M199.5,35.2c2.8,1.8,5.6,3.7,8.3,5.5c2.1,12.3,4.4,24.6,6.5,36.9c3.7,20.7,7.5,41.3,11.2,62
		c2.8,15.8,5.8,31.6,8.2,47.5c0.6,3.9,1.4,7.7,2.3,11.5c0.3,1.2,0.9,2.4,0.1,3.6c-1.7,1.2-3.1,0.2-4.5-0.6c-2.5-1.4-5-2.8-7.5-4.3
		c-3.2-2.1-6.5-4-9.9-5.9c-1.2-0.7-2.3-1.4-3-2.7c-1.3-3.3-1.1-6.9-2.3-10.2c-0.8-3.2-1.4-6.4-1.6-9.7c-3.8-20.2-6.7-40.5-10.9-60.7
		c-1-4.9-1.7-9.9-2.3-14.9c-1.5-10.3-4.1-20.5-5.5-30.8c-0.8-5.6-1.8-11.2-1.6-16.9c-1.1-6.4-2.1-12.8-3.2-19.7
		c1.9,1,3.3,1.7,4.7,2.4C192.2,30.7,195.8,32.9,199.5,35.2z"/>
	<path class="st27" d="M187.1,45.7c1.4,7.9,2.7,15.8,4.1,23.7c1.4,8,2.8,15.9,4.2,23.9c-1.1,2.4,0.3,4.7,0.6,7
		c0.3,2,0.3,3.8,0.1,5.7c-1.1,9.4-1.7,18.9-0.4,28.4c0.3,2.2,0.6,4.5-1.2,7c-1.7-3.9-1.6-7.7-2.4-11.2c-1-4.6-1.3-9.4-2.9-13.9
		c-2.6-13-5-26.1-6.9-39.3c0.1-0.4,0.1-0.9,0.2-1.3c0.1,0,0.3,0,0.4-0.1c1,5.6,2.1,11.3,3.1,16.9c-0.6-4.6,0.3-9.1,0.5-13.6
		c0.2-6.5-0.4-13.1,0.2-19.6c0.4-3.7,0.6-7.3-0.1-10.9C186.3,47.4,186.3,46.4,187.1,45.7z"/>
	<path class="st28" d="M228.4,53.4c2.8,1,5.2,2.8,7.6,4.6c0.3,8.2,2.4,16.1,3.8,24.2c2.6,15.4,5.2,30.7,8,46.1
		c1.8,10.3,4,20.6,5.7,30.9c1.9,11.8,4.4,23.5,6.1,35.3c1,7.4,2.7,14.8,4.2,22.1c0.2,0.8,0.7,1.5-0.3,2.1c-2.9-1.2-5.7-2.8-8.2-4.7
		c-0.7-1.1-1-2.3-1.2-3.6c-6.2-33.7-11.9-67.4-18.1-101.1c-3-16.5-5.9-33-8.8-49.5C226.7,57.7,225.7,55.1,228.4,53.4z"/>
	<path class="st29" d="M236,235.2c-9.1,3.1-18.3,6.3-27.4,9.4c-1.2,0.4-2.4,0.7-3.6,1c-0.8-1.8-2.2-2.8-4-3.5
		c-18-7.1-35.2-15.9-53.1-23.3c-7.6-3.1-15-6.8-22.8-9.6c-0.8-0.3-1.5-0.6-1.7-1.5c0.7-2,2.7-2.1,4.2-3c8.8-2.7,17.4-5.9,26.1-9
		c8.3-2.6,16.5-5.5,24.7-8.3c1.1-0.4,2.2-0.7,3.3-0.6c4.8,1.3,8.5,4.7,12.8,6.9c0.6,0.3,1.2,0.6,1.7,0.9c8.3,5,16.6,10,24.9,14.8
		c6.1,3.5,12,7.5,18.3,10.6c1.2,0.6,2.1,1.3,2.5,2.7c3.2,2,6.5,4.1,10.2,6.4C246.6,231.3,241.3,233.3,236,235.2z"/>
	<path class="st30" d="M228.4,53.4c-1.6,2.9-0.3,5.9,0.2,8.7c2.8,15.5,5.8,30.9,8.2,46.5c1.2,7.8,3.1,15.4,4.4,23.2
		c2.6,15.4,5.8,30.7,8.1,46.2c1.5,10.3,3.7,20.4,5.7,30.6c0.4,1.8,0.4,3.6,0.3,5.5c-2.7-1.5-5.4-2.9-8.1-4.4
		c-4.6-1.6-9.1-3.2-12-7.4c0.2-0.4,0.7-0.8,0.6-1.1c-3.6-12-4.6-24.6-7-36.9c-3.2-16.4-5.6-33-8.6-49.5c-3.4-18.1-6.6-36.3-9.7-54.5
		c-0.9-5.2-1.5-10.6-3-15.8c-0.4-1.4-0.1-2.7,0.5-4c0.7,0.3,1.3,0.5,2,0.8c5.1,3.5,10.4,6.8,15.8,9.7
		C226.7,51.8,227.1,53.1,228.4,53.4z"/>
	<path class="st31" d="M235.1,202.3c4,2.5,8,4.9,12,7.4c-1.3,3.1-1.8,6.3-1.4,9.6c0.3,2.8-0.4,4.3-3.5,3.5
		c-7.1-4.2-14.2-8.4-21.3-12.6c2.7-3,0.8-6.6,1.3-9.9c0.2-1.7-0.5-3.8,2.3-3.9C228,198.4,231.6,200.3,235.1,202.3z"/>
	<path class="st32" d="M123.7,207.7c15.7,6,30.9,12.9,46.2,19.9c11.1,5.1,22.4,9.8,33.6,14.5c1.9,0.8,2.5,1.7,1.5,3.6
		c-1,1-2.7,0.6-3.6,1.9c-5,0.7-9.4,3.2-14.3,4.4c-2.8-4.1-7.6-5-11.7-6.9c-21-9.7-42.4-18.7-63.4-28.5c-1-0.5-2.1-0.9-3.2-1.2
		c-1.1-0.3-2.3-0.7-2-2.3c0.9-1.7,2.6-1.8,4.1-2.4c2.9-1.3,6-2.1,9-3.2C121.1,207.1,122.5,206.5,123.7,207.7z"/>
	<path class="st33" d="M107.2,213.3c0.7,2.4,2.9,1.1,4.4,1.8c11.9,5.6,23.8,11,35.8,16.4c9.9,4.5,19.8,8.8,29.8,13.2
		c2.5,1.1,5,2.3,7.5,3.4c1.8,0.7,2.8,1.9,2.6,3.9c-2.8,1.1-5.6,2.2-8.3,3.3c-1.1,0.2-2.1,0.5-3.2,0.7c-2.5,0.7-4-1.5-5.8-2.3
		c-13.1-6.2-26.3-11.8-39.5-17.7c-10.5-4.7-20.9-9.4-31.3-14.1c-1.3-0.6-2.6-0.9-3.9-1.4c-1.2-0.4-2.4-1-2.1-2.6
		C97.3,215,101.8,212.7,107.2,213.3z"/>
	<path class="st34" d="M93.4,217.9c0.1,0.6,0.3,1.1,0.9,1.3c17.7,6.7,34.8,15.2,52.1,22.8c8.5,3.7,16.9,7.6,25.4,11.3
		c1.5,0.7,2.1,2.5,3.9,2.6c-5.7,2.4-11.5,4.4-17.4,6.1c-5.9-5-13.2-7-20-10c-10.8-4.7-21.5-9.6-32.3-14.4
		c-9.4-4.2-18.8-8.3-28.2-12.4c-0.8-0.3-1.6-0.6-0.9-1.7c1.8-2.4,4.7-2.6,7.1-3.6c1.6-0.7,3.2-1.2,4.8-1.7
		C90.3,217.7,91.7,216.5,93.4,217.9z"/>
	<path class="st35" d="M189.1,116.2c0.2-0.7,0.5-1.6,0.8,0c1.2,6.2,2.3,12.3,3.4,18.5c0.3,1.8,0.5,3.6,0.9,6c1.4-5.1-1-9.3-0.6-13.6
		c0.7-7.1-0.7-14.5,1.3-21.4c0.9-3.2,0.4-5.9-0.1-8.8c-0.2-1.2-0.5-2.5,0.5-3.6c4.3,24.6,8.6,49.1,12.9,73.7c0.1,0.7,0.1,1.4,0.2,2
		c-0.8,0.5-1.5,0.3-2.2-0.1c-3.3-2-7-3.4-9.9-6.2c0.8-4.1-0.8-7.9-1.4-11.7C193.1,139.3,191,127.8,189.1,116.2z"/>
	<path class="st36" d="M182.2,187.5c-9.3,3.1-18.7,6.2-28,9.2c-2.1-0.8-0.1-1.1,0.1-1.7c0.1-0.3,1.6,0.6,0.4-0.4
		c-0.8-0.6-1.1-1.5-1.3-2.4c-0.7-4.8-1-9.7,0.9-13.6c-0.7,0.7-1.8,1.7-3.1-0.4c8.7-3,17.5-6,26.2-9c1,0.2,2.1,0.5,2.4,1.6
		C181.3,176.3,183,181.7,182.2,187.5z"/>
	<path class="st37" d="M151.3,178.2c1.3,1.2,2.6-0.1,3.7-0.1c-0.5,5.5-2.6,11.1,0.7,16.5c0.8,1.2-2.4,0.4-1.6,2.1
		c-8.6,3.4-17.4,6.3-26.2,9c-0.8-1.2-0.9-1.6,0.5-1.9c2-0.5,1.5-1.4,1.2-2.8c-1.3-4.6-0.4-9,0.4-13.7c-1,0.7-2.3,1.2-3.6,1.5
		c-1,0.2-2.4,0.8-2.7-1C132.9,184.6,142.1,181.4,151.3,178.2z"/>
	<path class="st38" d="M89.2,219c-4.1,1.5-8.2,3-12.3,4.6c-4.3,1.4-8.7,2.7-13,4.1c-0.1,0-0.2,0-0.3-0.1c2-1.6,0.2-3.6,0.4-5.5
		c0.4-2.5-0.1-5.1-0.2-7.7c0-1.5,0-2.9,0-4.4c-1.3-0.5-2.8,1.3-4.1-0.1c8.4-2.9,16.6-6.3,25.3-8.5c2-0.7,3.1-0.8,3,2.1
		c-0.2,3.4,0.4,6.8,0.3,10.2c0,1.1,0.3,2,1.1,2.8C90.3,217.4,90,218.2,89.2,219z"/>
	<path class="st39" d="M123.7,187.8c2.8,1.3,4.8-1.6,7.4-1.3c-0.6,4.8-2,9.7-0.4,14.6c0.7,2.2,0.3,3-1.8,3.4
		c-0.4,0.1-1.6,0.1-0.9,1.2c-1.4,0.7-2.9,1.3-4.3,2c-4.2,1.3-8.3,2.5-12.5,3.8c-4.4-0.3-4.4-0.3-3.9-5c0.3-2.5,0.3-5-0.1-7.5
		c-0.2-1.3-0.3-2.5,0.3-3.7c-1.3,0.1-2.9,1.7-3.8-0.6C110.4,192.4,117.1,190.1,123.7,187.8z"/>
	<path class="st40" d="M103.7,194.6c1.9,1.3,3.4-0.8,5.6-0.6c-1.7,1.6-1.4,3.4-1,5.3c0.5,2.7,0.6,5.5-0.1,8.2c-0.6,2-0.5,3.2,2,3.1
		c0.3,0,0.7,0.6,1,0.9c-1.4,0.6-2.7,1.2-4.1,1.7c-4.6,1.6-9.2,3.1-13.8,4.7c-1.4,0.4-2.8,0.8-4.2,1.1c-0.2-0.4-0.3-0.8,0.1-1.2
		c-3.8-1.9-2-5.4-1.9-8.1c0-2.5-1.6-4.9-0.4-7.6c0.4-0.9-1.3-0.4-2-0.7C91,198.5,97.4,196.8,103.7,194.6z"/>
	<path class="st41" d="M92.7,117.4c0.5-0.2,0.9-0.5,1.4-0.7c0.1,0.1,0.3,0.2,0.4,0.4c1.3,3.8,1.2,7.9,2.3,11.8c0.6,5,0.8,10,0.3,15
		c-0.8,7.6-6,12.9-11.2,17.9c-5.8,5.7-12.5,10.3-19.2,14.9c-5.2,3.5-8.2,7.8-5.7,14.4c-2,1.6-4,2.1-6-0.1c-1.7-1.8-0.7-3.6-0.2-5.5
		c1.2-2.4-0.6-5.1,1-7.4c10.3-6.6,20.6-13.3,29.3-22.1c3.3-3.3,6.2-7,8.3-11.2c2.1-7,0.9-14.1,0-21.1c-1-1.5-0.5-3.3-0.8-4.9
		C92.3,118.2,92.3,117.8,92.7,117.4z"/>
	<path class="st42" d="M182.2,187.5c-0.9-4.9-1.9-9.7-2.7-14.6c-0.3-1.6-0.8-2.8-2.1-3.7c1-0.3,2.1-0.7,3.1-1
		c2.4,1.7,5.4,2.4,7.8,4.2c1.3,0.9,2.8,1.6,3.4,3.2c1.6,5.6,2.4,11.4,3.5,17.1c0.1,0.7,0.8,1.9-0.8,1.9
		C190.5,192.3,186.4,189.9,182.2,187.5z"/>
	<path class="st43" d="M191.2,175.3c-3-1.7-5.9-3.7-9.1-5.1c-1.2-0.5-0.8-1.5-1.5-2c5.1-2.3,10.4-3.8,15.7-5.5
		c4.5,1.3,8,4.4,12.1,6.3c0.5,3.1,1,6.3,1.5,9.4c0,0.8,0.8,2-0.4,2.3c-0.9,0.2-1.1-0.9-1.4-1.7c-0.5-1.6-0.7-3.3-1-5
		c-0.3-2.2-1.4-2.9-3.5-2.1c-2.8,1-5.6,1.9-8.4,2.8C193.9,175.1,192.7,175.6,191.2,175.3z"/>
	<path class="st44" d="M61,191.1c-2.9-3.2-2.7-7.7,0.7-11.3c4.4-4.6,10.2-7.3,15-11.3c6-5,12.1-9.8,16.3-16.5
		c2.4-3.8,3.8-7.6,3.2-12.2c-0.5-3.5-0.1-7.1-0.1-10.7c-0.5-4.2-1.3-8.3-2.1-12.4c0,0,0,0,0,0c-0.4-3.4-0.8-6.9-1.2-10.3
		c-0.1-0.8-0.1-1.6,0.6-2.1c0,0.6,0.2,1.1,0.7,1.4c1.6,9.7,3.7,19.4,4.6,29.2c0.9,9.3-2.4,17.7-9.1,24.6c-6,6.2-12.9,11.3-19.8,16.3
		c-2.6,1.8-5.2,3.6-7.1,6.3c-2.2,3-1.8,5.4,0.6,7.9C62.4,190.3,61.7,190.7,61,191.1z"/>
	<path class="st45" d="M65.1,182.1c0.9-1.7,2.4-2.7,4.1-3.4c0,1.2-0.9,1.8-1.5,2.6c-1.5,2-1.9,3.9,0.3,5.7c-0.2,0.8-0.7,1.2-1.5,1.3
		C63.4,186.3,63.2,185.6,65.1,182.1z"/>
	<path class="st0" d="M93.4,123.6c1.4,7,2.5,14.1,0,21.1C94.8,137.7,93.6,130.7,93.4,123.6z"/>
	<path class="st0" d="M92.7,117.4c-0.1,0.5-0.1,0.9-0.2,1.4c-1.8-4.7-2.6-9.5-2.5-14.5C90.9,108.6,91.8,113,92.7,117.4z"/>
	<path class="st46" d="M65.1,182.1c-1.3,2.5,0,4.4,1.4,6.2c-0.4,0.4-0.8,0.7-1.4,0.5C62.4,186.1,62.4,185,65.1,182.1z"/>
	<path class="st0" d="M55.8,178.1c-1.3,2.3,0.3,5.1-1,7.4C55.3,183.1,53.7,180.3,55.8,178.1z"/>
	<path class="st47" d="M96.4,164.5c1.9-3.4,3.7-6.7,5.7-10c4.5-7.7,4-16,3.3-24.4c-0.9-11.4-4.1-22.4-4.5-33.9
		c-0.6-15.7,5.8-27.3,18.5-35.9c3.8-2.6,7.5-5.2,11.7-7.2c1.1-0.5,2.4-1,3.2-0.1c0.8,0.8-0.5,1.6-0.9,2.3
		c-2.9,5.6-6.7,10.6-8.2,16.9c-2.1,8.8-1.4,17.5,0.2,26.2c1.8,9.6,3.3,19.2,2.5,28.9c-0.9,9.9-4.9,18.3-12.5,25.1
		c-4.7,4.2-9.3,8.5-15,11.4C99.2,164.4,98.2,165.3,96.4,164.5z"/>
	<path class="st45" d="M84.4,167c3.9-4.6,8.4-8.7,11.6-14c2.3-3.9,3.6-8,3.8-12.5c0.5-10.2-1.5-20.1-3.5-30
		c-0.2-1.1-0.1-2.3-0.2-3.4c-0.6-3.2-0.3-6.5-1-9.8c-0.2-0.8,0.1-1.6,1-2c1.5,3.4,0.5,7.1,1.2,10.7c1.4,6.4,2.3,13,3.2,19.5
		c1.2,9.1,2.4,18.3-2.3,26.9c-2.9,5.2-6.9,9.6-11.3,13.7C86.2,166.8,85.4,167,84.4,167z"/>
	<path class="st22" d="M96.1,95.3c0,3.9,0,7.8,0,11.7c-1.9-7.7-2-15.5-0.4-23.2c0.4-1.7,0-3.8,1.7-5c0.9,1.5-0.1,2.8-0.3,4.2
		c-0.5,2.7-0.5,5.5-1,8.3C96.1,92.5,96.1,93.9,96.1,95.3z"/>
	<path class="st45" d="M96.1,91.2c-0.6-4.3,1-8.3,1.4-12.4c0,0,0,0,0,0c0.7-2.7,2-5.2,3.4-7.6c0.5-0.9,1.1-1.6,2.1-2.1
		c0.1,2.5-1.8,4.1-2.8,6.1c-2.1,4.4-2.8,9.1-3.4,13.8C96.7,89.8,96.9,90.6,96.1,91.2z"/>
	<path class="st46" d="M73.4,175.2c2.7-2.5,5.1-5.4,9-6.2c-2,2.7-5.1,4-7.6,6.2C74.3,175.6,73.8,175.7,73.4,175.2z"/>
	<path class="st45" d="M73.4,175.2c0.5,0,0.9,0,1.4,0c-1.4,1.9-3.1,3.3-5.5,3.4C70.1,176.9,72,176.4,73.4,175.2z"/>
	<path class="st22" d="M101,71.2c-0.7,2.7-2.2,5.1-3.4,7.6C97.6,75.7,98.8,73.2,101,71.2z"/>
	<path class="st48" d="M191.2,175.3c4.6-2.3,9.6-3.4,14.4-5.1c1.5-0.5,2-0.1,2.2,1.4c0.4,2.8,1,5.6,1.9,8.4c0.1-0.5,0.2-1.1,0.2-1.6
		c1.2,3.4,1.4,7,2,10.6c0.3,1.2-0.7,1.6-1.5,1.9c-4.8,1.5-9.5,3.7-14.5,4.6c-0.5-0.3-0.9-0.5-1.4-0.8
		C193.5,188.2,192.4,181.7,191.2,175.3z"/>
	<path class="st49" d="M196,195.4c3.7-2.8,8.5-3.2,12.6-5c1.1-0.5,2.5-0.5,3.4-1.5c4.2,2.5,8.3,5.1,12.5,7.6
		c-1.7,0.8-1.7,2.2-1.4,3.7c0.6,2.4-0.3,4.8,0.3,7.2c0.3,1.2-0.2,3.2-2.5,2.8C212.5,205.5,204.1,200.6,196,195.4z"/>
	<path class="st21" d="M94.1,116.7c1.3,4,2.5,8.1,2.1,12.4C94.6,125.1,94.3,120.9,94.1,116.7z"/>
</g>
</svg>
