<?xml version="1.0" encoding="utf-8"?>
<!-- Generator: Adobe Illustrator 24.1.0, SVG Export Plug-In . SVG Version: 6.00 Build 0)  -->
<svg version="1.1" id="Capa_1" xmlns="http://www.w3.org/2000/svg" xmlns:xlink="http://www.w3.org/1999/xlink" x="0px" y="0px"
	 viewBox="0 0 512 512" style="enable-background:new 0 0 512 512;" xml:space="preserve">
<style type="text/css">
	.st0{fill:#F0F7FF;}
	.st1{fill:#DFE7F4;}
	.st2{fill:#4D578C;}
	.st3{fill:#303A6D;}
	.st4{fill:#FFBE00;}
	.st5{fill:#FF6A4D;}
</style>
<g>
	<path class="st0" d="M416.8,443.9H0.3c0-311.4-2.1-227,6.5-357.1h403.5C418.9,217,416.8,132.5,416.8,443.9z"/>
	<path class="st1" d="M416.8,443.9H208.5V86.8h201.8C418.9,217,416.8,132.5,416.8,443.9z"/>
	<path class="st2" d="M416.8,68.1v116.3H0.3c-0.1,0,0,2.7,0-116.3H416.8z"/>
	<path class="st3" d="M208.5,68.1h208.2v116.3H208.5V68.1z"/>
	<path class="st0" d="M52.3,120.1h26v24.4h-26V120.1z"/>
	<path class="st0" d="M163,120.1h201.8v24.4H163V120.1z"/>
	<path class="st1" d="M208.5,120.1h156.2v24.4H208.5V120.1z"/>
	<path class="st4" d="M248.4,250.3h115.6v115.6H248.4V250.3z"/>
	<g>
		<path class="st5" d="M39.3,243.8h156.2v24.4H39.3V243.8z"/>
		<path class="st5" d="M39.3,295.9h156.2v24.4H39.3V295.9z"/>
		<path class="st5" d="M39.3,347.9h156.2v24.4H39.3V347.9z"/>
	</g>
</g>
<polygon class="st3" points="495.8,114.8 481.6,89.9 467.2,65.1 452.8,89.9 438.5,114.8 455.3,114.8 455.3,165.1 479,165.1 
	479,114.8 "/>
<polygon class="st3" points="495.8,254.1 481.6,229.3 467.2,204.4 452.8,229.3 438.5,254.1 455.3,254.1 455.3,304.5 479,304.5 
	479,254.1 "/>
<polygon class="st3" points="495.8,393.6 481.6,368.8 467.2,343.9 452.8,368.8 438.5,393.6 455.3,393.6 455.3,443.9 479,443.9 
	479,393.6 "/>
</svg>
