<?xml version="1.0" encoding="utf-8"?>
<!-- Generator: Adobe Illustrator 24.1.0, SVG Export Plug-In . SVG Version: 6.00 Build 0)  -->
<svg version="1.1" id="Capa_1" xmlns="http://www.w3.org/2000/svg" xmlns:xlink="http://www.w3.org/1999/xlink" x="0px" y="0px"
	 viewBox="0 0 512 512" style="enable-background:new 0 0 512 512;" xml:space="preserve">
<style type="text/css">
	.st0{fill:#CECECE;}
	.st1{fill:#95BF47;}
	.st2{fill:#5E8E3E;}
	.st3{fill:#FFFFFF;}
	.st4{fill:#D3D3D3;}
	.st5{fill:#EDEDED;}
</style>
<path class="st0" d="M502.6,188.6L304,324.5l-20.3,13.9c-16.7,11.5-38.8,11.5-55.5,0L208,324.5L9.4,188.4c10-14.4,26.4-23,43.9-23
	h405.3C476.3,165.2,492.8,174,502.6,188.6z"/>
<g>
	<path class="st1" d="M415.7,114.8c0.2-1.8-1-3.2-2.3-3.6c-1.2-0.4-25.8-7.4-25.8-7.4s-15.3-25.6-16.8-28.2c-1.5-2.6-5.6-3-7.3-3
		c0,0-4.2,0.2-11.2,0.4c-0.1-3.8-0.6-8.6-1.7-13.5c-3.6-16-12.4-26.3-25.4-29.8c0,0,0,0,0,0c-0.9-0.2-1.8-0.4-2.7-0.6
		c-0.3-0.6-0.5-1.1-0.8-1.7c-4-7.6-10.5-12.5-19.3-14.6c-16.9-4-36.9,3.6-56.3,21.5c-13.6,12.6-26,29.7-32,43.9
		c-20.9,0.8-35.5,1.4-35.8,1.4c-10.6,0.4-10.9,0.7-14.7,9.5c-2.8,6.7-81.1,196.8-81.1,196.8l203.6,94.2l98.7,1.8
		C384.7,381.9,415.5,116.6,415.7,114.8z M340.8,73.4c-5.3,0.2-11.4,0.4-17.9,0.7c2.2-8.5,4.3-20.6,3.1-31.9
		C338,48,340.4,64.1,340.8,73.4z M310.7,74.5c-12.1,0.5-25.3,1-38.6,1.5c7-12.3,17-23.6,27.4-30.1c3.8-2.4,9-4.9,14.5-5.6
		C316,51.3,313.3,65.3,310.7,74.5z M299.7,24c4,1,7.1,2.7,9.4,5.4c-5.2,1.1-10.5,3.3-15.8,6.7c-13.7,8.6-26.7,24.2-34.5,40.4
		c-11,0.4-21.8,0.8-31.7,1.2C240.1,52.3,273.6,17.8,299.7,24z"/>
	<path class="st2" d="M413.5,111.1c-1.2-0.4-25.8-7.4-25.8-7.4s-15.3-25.6-16.8-28.2c-0.6-1-1.5-1.6-2.5-2.1l-82.3,306.7l98.7,1.8
		c0,0,30.8-265.3,31-267.1C416,113,414.7,111.6,413.5,111.1z"/>
	<path class="st3" d="M297.9,131.1l-21.5,37.3c0,0-10.5-8.7-25-11.6c-21.2-4.3-24.9,8.8-25.6,12.2c-3.7,18.3,42.6,34.9,33.9,77.7
		c-6.8,33.7-32.6,51.1-61.4,45.3c-34.6-7-47.9-32.1-47.9-32.1l15.4-28.7c0,0,15,19.3,30.4,22.4c10,2,15.7-5,16.9-10.8
		c4.8-23.8-34.1-32.8-26.2-72c6.7-33,36.8-60.1,84.6-50.5C289.9,124,297.9,131.1,297.9,131.1z"/>
</g>
<path class="st4" d="M499.6,487.5c-10.1,12.2-25.1,19.2-41,19.2H53.3c-15.8,0-30.8-7-41-19.2l195.6-163l20.3,13.9
	c16.7,11.5,38.8,11.5,55.5,0l20.3-13.9L499.6,487.5z"/>
<g>
	<path class="st5" d="M208,324.5l-195.6,163C4.4,477.9,0,465.8,0,453.3V218.7c-0.1-10.8,3.2-21.4,9.4-30.3L208,324.5z"/>
	<path class="st5" d="M512,218.7v234.7c0,12.5-4.4,24.6-12.4,34.1L304,324.5l198.6-135.9C508.8,197.4,512,207.9,512,218.7z"/>
</g>
</svg>
