<svg height="464.00256pt" viewBox="0 0 464.00256 464.00256" width="464.00256pt" xmlns="http://www.w3.org/2000/svg"><path d="m32 464h336v-432h-264l-72 72zm0 0" fill="#348fd9"/><path d="m0 432h336v-432h-264l-72 72zm0 0" fill="#60d1e0"/><path d="m0 392v40h336v-376zm0 0" fill="#5ac6d4"/><path d="m72 72v-72l-72 72zm0 0" fill="#9fe4ed"/><g fill="#3a9cc9"><path d="m280 96h-224c-13.253906 0-24 10.746094-24 24v256c0 13.253906 10.746094 24 24 24h224c13.253906 0 24-10.746094 24-24v-256c0-13.253906-10.746094-24-24-24zm8 24v24h-48v-32h40c4.417969 0 8 3.582031 8 8zm-192 224v-24h128v24zm128 16v24h-128v-24zm0-200v24h-128v-24zm-128-16v-32h128v32zm0 120v-24h128v24zm128 16v24h-128v-24zm-128-56v-24h128v24zm-16-40h-32v-24h32zm0 16v24h-32v-24zm0 40v24h-32v-24zm0 40v24h-32v-24zm0 40v24h-32v-24zm160 0h48v24h-48zm0-16v-24h48v24zm0-40v-24h48v24zm0-40v-24h48v24zm0-40v-24h48v24zm-184-72h24v32h-32v-24c0-4.417969 3.582031-8 8-8zm-8 264v-16h32v24h-24c-4.417969 0-8-3.582031-8-8zm232 8h-40v-24h48v16c0 4.417969-3.582031 8-8 8zm0 0"/><path d="m112 64h64v16h-64zm0 0"/><path d="m192 64h32v16h-32zm0 0"/><path d="m112 32h112v16h-112zm0 0"/></g><path d="m459.03125 435.03125-83.03125-83.03125-24 24 83.03125 83.03125c6.628906 6.628906 17.375 6.628906 24 0 6.628906-6.625 6.628906-17.371094 0-24zm0 0" fill="#e94f4f"/><path d="m407.902344 383.902344-31.902344-31.902344-24 24 31.902344 31.902344c9.09375-6.828125 17.171875-14.90625 24-24zm0 0" fill="#cf3a3a"/><path d="m416 304c0 66.273438-53.726562 120-120 120s-120-53.726562-120-120 53.726562-120 120-120 120 53.726562 120 120zm0 0" fill="#e94f4f"/><path d="m384 304c0 48.601562-39.398438 88-88 88s-88-39.398438-88-88 39.398438-88 88-88 88 39.398438 88 88zm0 0" fill="#48add9"/><path d="m368 304c0 39.765625-32.234375 72-72 72s-72-32.234375-72-72 32.234375-72 72-72 72 32.234375 72 72zm0 0" fill="#4db7e5"/><path d="m208 304c42.558594-53.335938 133.441406-53.335938 176 0-42.558594 53.335938-133.441406 53.335938-176 0zm0 0" fill="#e0e0de"/><path d="m208 304c42.558594-53.335938 133.441406-53.335938 176 0-42.558594 53.335938-133.441406 53.335938-176 0zm0 0" fill="#e0e0de"/><path d="m332.855469 269.601562c-24.269531 35.824219-63.351563 52.308594-94.222657 59.894532 46.414063 25.601562 111.320313 17.167968 145.367188-25.496094-13.238281-16.304688-31.050781-28.285156-51.144531-34.398438zm0 0" fill="#d6d6d4"/><path d="m336 304c0 22.089844-17.910156 40-40 40s-40-17.910156-40-40 17.910156-40 40-40 40 17.910156 40 40zm0 0" fill="#348fd9"/><path d="m260.503906 322.070312c6.867188 13.679688 20.957032 22.21875 36.257813 21.972657 15.300781-.246094 29.113281-9.230469 35.539062-23.121094 6.421875-13.890625 4.324219-30.230469-5.398437-42.050781-16.980469 21.089844-40.238282 36.21875-66.398438 43.199218zm0 0" fill="#3086cd"/><path d="m312 304c0 8.835938-7.164062 16-16 16s-16-7.164062-16-16 7.164062-16 16-16 16 7.164062 16 16zm0 0" fill="#3d4d63"/></svg>