<?xml version="1.0" encoding="utf-8"?>
<!-- Generator: Adobe Illustrator 24.1.0, SVG Export Plug-In . SVG Version: 6.00 Build 0)  -->
<svg version="1.1" id="Capa_1" xmlns="http://www.w3.org/2000/svg" xmlns:xlink="http://www.w3.org/1999/xlink" x="0px" y="0px"
	 viewBox="0 0 512 512" style="enable-background:new 0 0 512 512;" xml:space="preserve">
<style type="text/css">
	.st0{fill:#862165;}
</style>
<g id="g3003" transform="translate(137.0908,89.1885)">
	<path id="path3005" class="st0" d="M230,113.2c11.6,0,20.9-9.4,20.9-20.9c0-11.5-9.4-20.9-20.9-20.9c-11.5,0-20.9,9.4-20.9,20.9
		C209.1,103.9,218.5,113.2,230,113.2 M69.8,124.5c-0.9,2.4-7.7,21.6-24.2,41.5V80.9L1.9,89.6v154.2h43.8v-47.7
		c12.7,19,18.9,47.7,18.9,47.7H117c-5.2-21.6-27.9-61.3-27.9-61.3c20.4-25.8,29.3-53.3,30.7-57.9C119.9,124.5,69.8,124.5,69.8,124.5
		z M184.9,122.9c-39.2,1.3-59.1,18.9-59.1,53.8v67h42.8v-54.6c0-20.9,2.7-29.9,27.6-30.8v-34.8C192,122.6,184.9,122.9,184.9,122.9
		 M-71.6,141.5c-5.4-0.3-17.8-1.2-17.8-12.3c0-13.5,17.9-13.5,24.6-13.5c11.8,0,27.1,3.5,38,6.7c0,0,6.1,2.1,11.3,4.3l0.5,0.1v-0.5
		V90l-0.7-0.2c-12.9-4.5-27.8-8.8-55.6-8.8c-47.8,0-64.8,27.9-64.8,51.7c0,13.8,5.9,46.1,60.7,49.9c4.6,0.3,17,1,17,12.5
		c0,9.5-10.1,15.2-27.1,15.2c-18.6,0-36.6-4.7-47.6-9.2v38c16.4,4.3,34.9,6.4,56.6,6.4c46.8,0,67.7-26.4,67.7-52.5
		C-8.8,163.4-32.3,144.1-71.6,141.5 M208.8,243.8h42.4V124.7h-42.4V243.8z M331.2,88.5v155.2h42.4V80.9
		C373.6,80.9,331.2,88.5,331.2,88.5z M269.3,88.5l42.4-7.6v162.8h-42.4C269.3,243.8,269.3,88.5,269.3,88.5z"/>
</g>
</svg>
