<?xml version="1.0" encoding="utf-8"?>
<!-- Generator: Adobe Illustrator 24.1.0, SVG Export Plug-In . SVG Version: 6.00 Build 0)  -->
<svg version="1.1" id="Layer_1" xmlns="http://www.w3.org/2000/svg" xmlns:xlink="http://www.w3.org/1999/xlink" x="0px" y="0px"
	 viewBox="0 0 283.5 283.5" style="enable-background:new 0 0 283.5 283.5;" xml:space="preserve">
<style type="text/css">
	.st0{fill:#797979;}
	.st1{fill:#00C1B9;}
	.st2{fill:#5E68BC;}
	.st3{fill:#BABABA;}
	.st4{fill:#4D4D4D;}
	.st5{fill:#4E4E4E;}
	.st6{fill:#F2F2F2;}
	.st7{fill:#F0F0F0;}
</style>
<path class="st0" d="M0.3,213.3c10,3.7,20.1,7.5,30.6,11.4c-4,4.8-6.3,9.9-5.1,16.7c-9-3.4-17.3-6.5-25.5-9.6
	C0.3,225.7,0.3,219.5,0.3,213.3z"/>
<path class="st1" d="M62.9,166.2c0.9-4.5,1.9-9,2.8-13.6c1-4.9-5.3-10.5-10-8.9c-4.1,1.4-8.1,2.7-12.1,4.3c-2.9,1.2-4.4,0.3-5.7-2.3
	c-2.5-5.3-5-10.5-7.7-15.6c-1.3-2.5-0.9-4.1,1.5-5.5c2.9-1.8,5.6-4,8.6-5.6c4.2-2.2,5.9-5,4.7-9.8c-0.5-2-1-3.4-3-4.2
	c-3.6-1.6-7-3.5-10.7-5.1c-2.8-1.2-4-2.8-2.8-6c2-5.3,3.8-10.6,5.4-16c0.9-2.9,2.4-3.9,5.3-3.2c2.2,0.5,4.5,0.6,6.5,1.3
	c5.4,1.9,9.5,1.3,12.9-4c1.7-2.6,2.3-4.4,1.3-7.3c-4.3-12-4.2-12,6.9-17.5c11.4-5.7,11.4-5.7,18.6,4.9c3.4,5.1,11.9,4.6,14.6-0.9
	c1.7-3.5,3.6-7,5.1-10.6c1.2-2.7,2.8-3.6,5.6-2.6c5.5,2,11,3.9,16.5,5.7c2.9,0.9,3.6,2.5,2.8,5.4c-0.9,3.3-1.1,6.8-2.2,10
	c-1.3,4.1-0.2,6.8,3.1,9.5c2.7,2.2,4.6,2.3,7.7,1.3c4.8-1.5,9.9-5.8,14.4-3.8c4.2,1.9,5.1,8.2,7.2,12.6c5,10.2,5.4,7.8-3.8,14.1
	c-1.4,1-2.8,2.1-4.3,2.8c-4.8,1.9-4,5.8-4.1,9.8c-0.1,3.8,2.6,4.4,4.9,5.5c13.5,6.6,13.6,6.6,8.7,21c-3.9,11.4-1.7,9.7-13.3,7.6
	c-1.2-0.2-2.3-0.5-3.5-0.8c-5.8-1.2-9.2,0.4-12,5.3c-0.9,1.5-0.2,2.7,0.2,3.9c1.3,4.1,2.6,8.2,4.2,12.1c1.2,3,0.6,4.8-2.3,6.2
	c-5.1,2.4-10.2,4.8-15.2,7.5c-3,1.6-4.7,0.6-6.3-2c-2.1-3.5-4.6-6.8-6.7-10.4c-1.3-2.2-2.9-2.4-5.4-2.7c-5.5-0.5-7.7,2.3-9.7,6.8
	c-5.5,12.1-5.6,12-18.4,7.7c-2.6-0.9-5.2-1.9-7.8-2.7C63.7,169.6,62.5,168.5,62.9,166.2z"/>
<path class="st2" d="M215.9,148.8c-1.2,2.1-2.6,4.5-4,6.8c-2.9,4.9-0.6,9.1,4.9,9.3c9.9,0.2,9.5,0.3,11,10.2
	c0.9,5.8-1.3,7.5-6.3,8.4c-2.4,0.4-5.3,0.1-6.7,3.6c-1.5,3.8,0.5,5.7,2.7,7.9c5.6,5.8,5.5,5.8,0.6,12.1c-1,1.4-2.2,2.7-3.1,4.1
	c-1.4,2.1-3,2.4-5.1,0.9c-1.8-1.3-3.7-2.4-5.7-3.5c-4-2.3-8.2,0.1-8.4,4.7c-0.5,10.2-0.5,9.9-11,11.7c-4.4,0.8-6-0.3-7-4.7
	c-0.6-2.8,0.1-6.7-3.8-8.3c-2.9-1.2-5-0.7-7.2,1.6c-6.5,6.6-6.6,6.5-13.9,0.7c-7-5.6-5.7-3.8-2-10.8c1.3-2.4,3.8-4.3,1.8-7.8
	c-2.1-3.7-5.2-3-8-2.7c-5.2,0.7-7.2-1.5-7.2-6.4c0-0.7-0.1-1.4-0.2-2c-0.8-8.3-0.9-8.5,7.2-10.2c2.7-0.6,4-1.7,4.7-4.4
	c0.7-2.7,0.7-4.7-1.6-6.8c-1.8-1.7-5.7-3.3-4-6.3c2.2-4.1,5-8.3,8.9-11c1.8-1.3,3.8,1.6,5.8,2.6c2.1,1,3.6,2.6,6.4,0.9
	c2.8-1.7,3.4-3.6,3.4-6.6c-0.1-8.7,0-8.7,8.3-9.7c8.2-1,8.2-1,10.1,6.6c0.7,2.7,0.9,5.3,4.7,6.4c3.8,1,5-1.4,6.8-3.2
	c6.6-6.4,5-6,11.8-0.7C216,147.1,216,147.1,215.9,148.8z"/>
<path class="st3" d="M219.7,125.2c2.7,0.9,4.8,0.8,6.5-1.6c1.9-2.6,0.3-4.7-1-6.5c-4.3-6,1.7-7,4.4-9.6c3.5-3.4,5.1-0.5,7.1,2
	c1.1,1.4,2,3.2,4.5,2.5c2.5-0.6,3.6-1.9,4.4-4.3c0.6-1.9,0-4.9,3.1-5.3c3.4-0.4,6.9,0.3,9.9,1.9c1.9,1,0.9,3.8,0.9,5.8
	c0.2,5.5,2.7,6.9,7.6,4.4c1.7-0.9,3.2-3.3,5.4-1.7c2.7,2.1,4.8,5,6.1,8.1c0.8,1.8-1.9,3-3.1,4.3c-4.8,4.9-4.2,7.8,2.6,9.2
	c5.3,1.1,4.6,4.2,4.1,7.8c-0.5,3.6-1.3,5.9-5.9,5.7c-7.5-0.4-8.9,2.1-5,8.7c2,3.4,1.1,5.4-1.8,7.1c-2.7,1.6-4.8,5.7-8.9,1.2
	c-5.6-6.1-8-5.3-10.2,2.8c-0.9,3.2-2.5,3.7-5.6,3.4c-5.6-0.5-8.7-2.2-7.9-8.7c0.5-4.1-2.5-5.5-6.3-3.7c-1.9,0.9-3.9,3.6-5.9,2
	c-2.4-2-4.2-4.9-5.9-7.6c-1-1.6,0.8-2.7,1.8-3.8c5.2-5.6,4.7-8.2-2.5-10.5c-4.8-1.6-2.6-5-2.2-7.6
	C216.1,128.7,215.4,124.8,219.7,125.2z"/>
<path class="st0" d="M61.5,181c-3.5,3.4-5.7,6.6-5.7,10.8c0,2.1-1,2.2-2.6,1.7c-5.3-1.8-10.7-3.5-16-5.3c-3-1-3.9-3.4-2.8-6.2
	c3-7.5,4.6-15.3,7.1-23c2.1-6.4,7.6-8.2,13.4-4.7c2.2,1.3,2.4,3.1,1.7,5.3c-1.3,4.2-2.3,8.6-4,12.7c-1.6,3.9-0.9,6.1,3.4,6.9
	C57.7,179.5,59.2,180.2,61.5,181z"/>
<path class="st0" d="M78.1,201.6c3.2-4.3,4.3-8.6,3.3-13.3c0.7-0.2,1-0.5,1.3-0.4c7.2,1.9,7.2,1.9,9.6-5c1.1-3.2,2.2-6.5,3.4-9.7
	c0.9-2.4,1.1-5.9,5-5.1c4,0.9,8.3,1.9,8.6,7.2c0.1,1.5-0.1,3.1-0.5,4.5c-2.8,8.2-5.8,16.4-8.5,24.6c-0.9,2.8-2.9,3.2-5.2,2.6
	C89.4,205.5,84,203.6,78.1,201.6z"/>
<path class="st4" d="M30.1,237.5c0.1-6.7,5.3-12,12-12.1c6.9,0,12.4,5.4,12.4,12.3c0,6.5-5.6,12.1-12.1,12.2
	C35.6,250,30.1,244.4,30.1,237.5z"/>
<path class="st0" d="M44.4,220.4c4.4-7.7,8.3-14.5,12.5-21.8c3.7,4.3,7.7,7.2,14.1,6.5c-4.7,8.3-9,15.9-13.7,24.1
	C54.1,224.4,49.9,221.6,44.4,220.4z"/>
<path class="st5" d="M77.3,192.1c0.1,4.6-3.9,8.5-8.4,8.6c-4.5,0.1-8.5-3.9-8.6-8.5c0-4.6,3.8-8.5,8.4-8.6
	C73.2,183.6,77.2,187.5,77.3,192.1z"/>
<path class="st6" d="M97.2,141.5c-19.2,0-34.7-15.3-34.8-34.5c-0.1-19.1,15.4-34.6,34.5-34.7c19.2-0.1,34.7,15.3,34.8,34.4
	C131.8,125.9,116.3,141.4,97.2,141.5z"/>
<path class="st7" d="M181.9,155.7c12.6-0.1,23,10.2,23,22.8c0,12.6-10.4,23.2-22.7,23.1c-12.4-0.1-22.5-10.2-22.6-22.7
	C159.4,166,169.2,155.8,181.9,155.7z"/>
<path class="st6" d="M264.8,136.6c0,9.3-7.1,16.8-16.3,17c-9,0.2-17.6-8.3-17.6-17.4c0-9.3,7.6-16.5,17.4-16.5
	C258.2,119.8,264.8,126.4,264.8,136.6z"/>
</svg>
