<?xml version="1.0" encoding="utf-8"?>
<!-- Generator: Adobe Illustrator 24.1.0, SVG Export Plug-In . SVG Version: 6.00 Build 0)  -->
<svg version="1.1"
	 id="svg2985" inkscape:version="0.48.4 r9939" sodipodi:docname="sqlite-square-icon.svg" xmlns:cc="http://creativecommons.org/ns#" xmlns:dc="http://purl.org/dc/elements/1.1/" xmlns:inkscape="http://www.inkscape.org/namespaces/inkscape" xmlns:rdf="http://www.w3.org/1999/02/22-rdf-syntax-ns#" xmlns:sodipodi="http://sodipodi.sourceforge.net/DTD/sodipodi-0.dtd" xmlns:svg="http://www.w3.org/2000/svg"
	 xmlns="http://www.w3.org/2000/svg" xmlns:xlink="http://www.w3.org/1999/xlink" x="0px" y="0px" viewBox="0 0 248.4 248.4"
	 style="enable-background:new 0 0 248.4 248.4;" xml:space="preserve">
<style type="text/css">
	.st0{fill:#0F80CC;}
	.st1{fill:url(#path3035_1_);}
	.st2{fill:#003B57;}
</style>
<sodipodi:namedview  bordercolor="#666666" borderopacity="1" fit-margin-bottom="10" fit-margin-left="10" fit-margin-right="10" fit-margin-top="10" gridtolerance="10" guidetolerance="10" id="namedview2987" inkscape:current-layer="g2993" inkscape:cx="217.03271" inkscape:cy="157.19018" inkscape:pageopacity="0" inkscape:pageshadow="2" inkscape:snap-bbox="true" inkscape:snap-page="true" inkscape:window-height="1017" inkscape:window-maximized="1" inkscape:window-width="1920" inkscape:window-x="-8" inkscape:window-y="-8" inkscape:zoom="0.73710525" objecttolerance="10" pagecolor="#ffffff" showgrid="false">
	</sodipodi:namedview>
<g id="g2993" transform="matrix(1.25,0,0,-1.25,-41.57475,299.78375)" inkscape:groupmode="layer" inkscape:label="ink_ext_XXXXXX">
	<g id="g2998" transform="matrix(1.5512433,0,0,1.5512433,-16.326028,-27.718348)">
		<path id="path3005" inkscape:connector-curvature="0" class="st0" d="M101.1,73.6c-0.1,0.7-0.1,1.2-0.1,1.2s-2.2,14.8-4.8,19.2
			c-0.4,0.7,0,3.6,1.2,7.8c0.7-1.2,3.5-6.1,4.1-7.7c0.6-1.8,0.8-2.3,0.8-2.3s-1.6,8-4.1,12.7c0.6,1.9,1.2,4,2,6.2
			c1-1.7,3.3-5.8,3.8-7.2c0.1-0.3,0.2-0.5,0.3-0.8c0,0.1,0.1,0.3,0.1,0.4c-0.6,2.5-1.7,6.8-3.3,10c3.5,18.2,15.4,42.4,27.6,53.3H49
			c-5.3,0-9.7-4.4-9.7-9.7V68.7c0-5.3,4.4-9.7,9.7-9.7h52.4C101.1,63.6,100.9,68.7,101.1,73.6"/>
		
			<linearGradient id="path3035_1_" gradientUnits="userSpaceOnUse" x1="-123.7415" y1="-58.1982" x2="-114.8678" y2="-58.1982" gradientTransform="matrix(-7.794998e-07 -17.8181 -17.8181 7.794998e-07 -953.0569 -2043.2542)">
			<stop  offset="0" style="stop-color:#97D9F6"/>
			<stop  offset="0.9202" style="stop-color:#0F80CC"/>
			<stop  offset="1" style="stop-color:#0F80CC"/>
		</linearGradient>
		<path id="path3035" inkscape:connector-curvature="0" class="st1" d="M97.4,101.7c0.7-1.2,3.5-6.1,4.1-7.7
			c0.6-1.8,0.8-2.3,0.8-2.3s-1.6,8-4.1,12.7c0.6,1.9,1.2,4,2,6.2c0.9-1.6,2.9-5.1,3.6-6.8c0,0.3,0.1,0.6,0.1,1
			c-0.6,2.5-1.6,5.7-2.9,8.3c3.2,16.7,13.6,38.6,24.7,50.4H49c-3.8,0-6.9-3.1-6.9-6.9V75.1c17.4,6.7,38.3,12.8,56.4,12.5
			c-0.7,2.6-1.4,4.9-2.2,6.3C95.8,94.6,96.3,97.5,97.4,101.7"/>
		<path id="path3045" inkscape:connector-curvature="0" class="st2" d="M147.2,169.1c-5.5,4.9-12.1,2.9-18.6-2.9
			c-1-0.9-1.9-1.8-2.9-2.8c-11.1-11.8-21.5-33.7-24.7-50.4c1.3-2.5,2.2-5.8,2.9-8.3c0.2-0.6,0.3-1.2,0.4-1.7c0.3-1.2,0.4-2,0.4-2
			s-0.1,0.4-0.5,1.6c-0.1,0.2-0.2,0.5-0.3,0.8c0,0.1-0.1,0.3-0.2,0.4c-0.7,1.7-2.7,5.3-3.6,6.8c-0.8-2.2-1.4-4.3-2-6.2
			c2.6-4.7,4.1-12.7,4.1-12.7s-0.1,0.5-0.8,2.3c-0.6,1.6-3.4,6.6-4.1,7.7c-1.2-4.2-1.6-7.1-1.2-7.8c0.8-1.4,1.6-3.7,2.2-6.3
			c1.5-5.8,2.6-12.9,2.6-12.9s0-0.5,0.1-1.2c-0.2-4.9-0.1-9.9,0.3-14.5c0.5-6.1,1.4-11.3,2.6-14l0.8,0.4c-1.8,5.5-2.5,12.7-2.2,21
			c0.5,12.7,3.4,28,8.8,43.9c9.1,24.1,21.7,43.4,33.3,52.6c-10.5-9.5-24.8-40.3-29.1-51.7c-4.8-12.8-8.2-24.8-10.2-36.3
			c3.5,10.8,14.9,15.4,14.9,15.4s5.6,6.9,12.1,16.7c-3.9-0.9-10.3-2.4-12.5-3.3c-3.2-1.3-4-1.8-4-1.8s10.3,6.3,19.1,9.1
			C147.3,130.1,160.5,157.2,147.2,169.1"/>
	</g>
</g>
</svg>
