<svg width="24" height="24" viewBox="0 0 24 24" fill="none" xmlns="http://www.w3.org/2000/svg">
<path d="M21.0497 22.7417H1.37759C0.708741 22.7417 0.197266 22.2303 0.197266 21.5614V2.44009C0.197266 1.77124 0.708741 1.25977 1.37759 1.25977H21.0497C21.7186 1.25977 22.2301 1.77124 22.2301 2.44009V21.5221C22.2301 22.1909 21.7186 22.7417 21.0497 22.7417Z" fill="#B0BEC5" stroke="#424242" stroke-width="0.393443" stroke-miterlimit="10" stroke-linecap="round" stroke-linejoin="round"/>
<path d="M22.6239 22.7417H2.95181C2.28296 22.7417 1.77148 22.2303 1.77148 21.5614V2.44009C1.77148 1.77124 2.28296 1.25977 2.95181 1.25977H22.6239C23.2928 1.25977 23.8043 1.77124 23.8043 2.44009V21.5221C23.8043 22.1909 23.2928 22.7417 22.6239 22.7417Z" fill="#CFD8DC" stroke="#424242" stroke-width="0.393443" stroke-miterlimit="10" stroke-linecap="round" stroke-linejoin="round"/>
<path d="M2.75488 21.5608V2.43945" stroke="#ECEFF1" stroke-width="0.393443" stroke-miterlimit="10" stroke-linecap="round" stroke-linejoin="round"/>
<path d="M22.8203 2.43945V21.5214" stroke="#B0BEC5" stroke-width="0.393443" stroke-miterlimit="10" stroke-linecap="round" stroke-linejoin="round"/>
<path d="M4.13184 3.22656H11.6072V8.1446H4.13184V3.22656Z" fill="#26C6DA" stroke="#424242" stroke-width="0.393443" stroke-miterlimit="10" stroke-linecap="round" stroke-linejoin="round"/>
<path d="M4.13184 9.36328H11.6072" stroke="#424242" stroke-width="0.393443" stroke-miterlimit="10" stroke-linecap="round" stroke-linejoin="round"/>
<path d="M4.13184 10.5449H7.67282" stroke="#424242" stroke-width="0.393443" stroke-miterlimit="10" stroke-linecap="round" stroke-linejoin="round"/>
<path d="M13.9678 3.22656H21.4432V8.1446H13.9678V3.22656Z" fill="#26C6DA" stroke="#424242" stroke-width="0.393443" stroke-miterlimit="10" stroke-linecap="round" stroke-linejoin="round"/>
<path d="M13.9678 9.36328H21.4432" stroke="#424242" stroke-width="0.393443" stroke-miterlimit="10" stroke-linecap="round" stroke-linejoin="round"/>
<path d="M13.9678 10.5449H17.7055" stroke="#424242" stroke-width="0.393443" stroke-miterlimit="10" stroke-linecap="round" stroke-linejoin="round"/>
<path d="M4.13184 13.457H11.6072V18.3751H4.13184V13.457Z" fill="#26C6DA" stroke="#424242" stroke-width="0.393443" stroke-miterlimit="10" stroke-linecap="round" stroke-linejoin="round"/>
<path d="M4.13184 19.5938H11.6072" stroke="#424242" stroke-width="0.393443" stroke-miterlimit="10" stroke-linecap="round" stroke-linejoin="round"/>
<path d="M4.13184 20.7734H7.67282" stroke="#424242" stroke-width="0.393443" stroke-miterlimit="10" stroke-linecap="round" stroke-linejoin="round"/>
<path d="M13.9678 13.457H21.4432V18.3751H13.9678V13.457Z" fill="#26C6DA" stroke="#424242" stroke-width="0.393443" stroke-miterlimit="10" stroke-linecap="round" stroke-linejoin="round"/>
<path d="M13.9678 19.5938H21.4432" stroke="#424242" stroke-width="0.393443" stroke-miterlimit="10" stroke-linecap="round" stroke-linejoin="round"/>
<path d="M13.9678 20.7734H17.7055" stroke="#424242" stroke-width="0.393443" stroke-miterlimit="10" stroke-linecap="round" stroke-linejoin="round"/>
<path d="M5.90234 3.22656H9.44333V8.1446H5.90234V3.22656Z" fill="#E0E0E0" stroke="#424242" stroke-width="0.393443" stroke-miterlimit="10" stroke-linecap="round" stroke-linejoin="round"/>
<path d="M16.1318 3.22656H19.6728V8.1446H16.1318V3.22656Z" fill="#E0E0E0" stroke="#424242" stroke-width="0.393443" stroke-miterlimit="10" stroke-linecap="round" stroke-linejoin="round"/>
<path d="M16.3283 6.17815C16.8716 6.17815 17.3119 5.73777 17.3119 5.19454C17.3119 4.65131 16.8716 4.21094 16.3283 4.21094C15.7851 4.21094 15.3447 4.65131 15.3447 5.19454C15.3447 5.73777 15.7851 6.17815 16.3283 6.17815Z" fill="#546E7A" stroke="#424242" stroke-width="0.393443" stroke-miterlimit="10" stroke-linecap="round" stroke-linejoin="round"/>
<path d="M16.3283 6.2168C15.7775 6.2168 15.3447 6.64958 15.3447 7.2004V8.18401H17.3119V7.2004C17.3119 6.64958 16.8792 6.2168 16.3283 6.2168Z" fill="#546E7A" stroke="#424242" stroke-width="0.393443" stroke-miterlimit="10" stroke-linecap="round" stroke-linejoin="round"/>
<path d="M6.68945 6.29556V5.11523Z" fill="#E0E0E0"/>
<path d="M6.68945 6.29556V5.11523" stroke="#424242" stroke-width="0.393443" stroke-miterlimit="10" stroke-linecap="round" stroke-linejoin="round"/>
<path d="M4.13184 13.457H6.49249V18.3751H4.13184V13.457Z" fill="#E0E0E0" stroke="#424242" stroke-width="0.393443" stroke-miterlimit="10" stroke-linecap="round" stroke-linejoin="round"/>
<path d="M6.88595 16.4067C7.42918 16.4067 7.86956 15.9663 7.86956 15.4231C7.86956 14.8798 7.42918 14.4395 6.88595 14.4395C6.34272 14.4395 5.90234 14.8798 5.90234 15.4231C5.90234 15.9663 6.34272 16.4067 6.88595 16.4067Z" fill="#546E7A" stroke="#424242" stroke-width="0.393443" stroke-miterlimit="10" stroke-linecap="round" stroke-linejoin="round"/>
<path d="M6.88595 16.4453C6.33513 16.4453 5.90234 16.8781 5.90234 17.4289V18.4125H7.86956V17.4289C7.86956 16.8781 7.43677 16.4453 6.88595 16.4453Z" fill="#546E7A" stroke="#424242" stroke-width="0.393443" stroke-miterlimit="10" stroke-linecap="round" stroke-linejoin="round"/>
<path d="M16.3283 16.4067C16.8716 16.4067 17.3119 15.9663 17.3119 15.4231C17.3119 14.8798 16.8716 14.4395 16.3283 14.4395C15.7851 14.4395 15.3447 14.8798 15.3447 15.4231C15.3447 15.9663 15.7851 16.4067 16.3283 16.4067Z" fill="#546E7A" stroke="#424242" stroke-width="0.393443" stroke-miterlimit="10" stroke-linecap="round" stroke-linejoin="round"/>
<path d="M10.624 16.4453H11.6076V18.4125H10.624V16.4453Z" fill="#E0E0E0" stroke="#424242" stroke-width="0.393443" stroke-miterlimit="10" stroke-linecap="round" stroke-linejoin="round"/>
<path d="M17.3125 16.4062H20.46V18.3735H17.3125V16.4062Z" fill="#E0E0E0" stroke="#424242" stroke-width="0.393443" stroke-miterlimit="10" stroke-linecap="round" stroke-linejoin="round"/>
<path d="M18.689 16.4453H16.3283C15.7775 16.4453 15.3447 16.8781 15.3447 17.4289V18.4125H17.3119V17.2322H18.689C18.9251 17.2322 19.0824 17.0748 19.0824 16.8388C19.0824 16.6027 18.9251 16.4453 18.689 16.4453Z" fill="#546E7A" stroke="#424242" stroke-width="0.393443" stroke-miterlimit="10" stroke-linecap="round" stroke-linejoin="round"/>
</svg>
