<?xml version="1.0" encoding="utf-8"?>
<!-- Generator: Adobe Illustrator 24.1.0, SVG Export Plug-In . SVG Version: 6.00 Build 0)  -->
<svg version="1.1" id="Layer_1" xmlns="http://www.w3.org/2000/svg" xmlns:xlink="http://www.w3.org/1999/xlink" x="0px" y="0px"
	 viewBox="0 0 2500 2497.3" style="enable-background:new 0 0 2500 2497.3;" xml:space="preserve">
<style type="text/css">
	.st0{fill:#359AD5;}
</style>
<path class="st0" d="M2277.6,1112.8c-50.4,0-45.1,61.9-47.2,128h83.9C2314.3,1166.3,2314.3,1112.8,2277.6,1112.8L2277.6,1112.8z
	 M2230.4,1348.8c0,59.8,29.4,71.3,78.7,71.3c56.7,0,133.2-16.8,162.6-22v144.8c-23.1,8.4-93.3,28.3-162.6,28.3
	c-124.8,0-276.9-19.9-276.9-286.4c0-235,119.6-290.6,245.5-290.6c129,0,222.4,66.1,222.4,288.5v66.1H2230.4L2230.4,1348.8z
	 M1738.4,1141.1c-11.5,0-34.6,9.4-47.2,16.8v268.5c9.4,3.2,26.2,5.3,33.6,5.3c34.6,0,55.6-29.4,55.6-152.1
	C1780.3,1154.8,1770.9,1141.1,1738.4,1141.1L1738.4,1141.1z M1761.4,1571.2c-25.2,0-51.4-7.3-70.3-11.5V1760h-199.3v-755.3h161.5
	l29.4,34.6c30.4-27.3,73.4-45.1,118.5-45.1c81.8,0,178.3,23.1,178.3,285.3C1979.6,1567,1834.9,1571.2,1761.4,1571.2L1761.4,1571.2z
	 M1308.2,936.6c-55.6,0-98.6-45.1-98.6-99.7c0-54.5,43-99.7,98.6-99.7c55.6,0,98.6,45.1,98.6,99.7
	C1406.9,891.5,1363.8,936.6,1308.2,936.6L1308.2,936.6z M1208.6,1560.7v-556h199.3v556H1208.6z M1087.9,1161.1
	c-31.5,0-55.6,12.6-66.1,18.9v380.8H822.5v-556h158.4l29.4,53.5c11.5-34.6,43-64,89.2-64c31.5,0,52.4,6.3,61.9,11.5v165.7
	C1141.4,1166.3,1115.2,1161.1,1087.9,1161.1z M709.2,1420.2c12.6,0,56.7-6.3,71.3-8.4v141.6c-30.4,7.3-97.6,17.8-141.6,17.8
	c-56.7,0-162.6-6.3-162.6-160.5v-279h-73.4v-126.9h73.4l25.2-125.9l174.1-42v167.8h104.9l-26.2,126.9h-78.7v243.4
	C675.6,1412.8,687.2,1420.2,709.2,1420.2L709.2,1420.2z M194.1,1165.3c0,22,14.7,29.4,49.3,45.1l21,9.4
	c49.3,22,117.5,57.7,117.5,162.6c0,167.8-124.8,188.8-214,188.8c-57.7,0-118.5-13.6-159.4-26.2v-143.7
	c35.7,9.5,97.6,24.1,124.8,24.1c30.4,0,53.5-4.2,53.5-31.5c0-21-14.7-30.4-47.2-45.1l-25.2-11.5C67.1,1315.3,0,1277.5,0,1175.8
	c0-149,116.4-181.5,214-181.5c73.4,0,121.7,16.8,146.9,26.2V1160c-29.4-9.4-89.2-22-124.8-22C211.9,1138,194.1,1144.3,194.1,1165.3
	L194.1,1165.3z"/>
</svg>
