<svg width="24" height="24" viewBox="0 0 24 24" fill="none" xmlns="http://www.w3.org/2000/svg">
<g clip-path="url(#clip0_2029_6495)">
<path d="M18.8314 24H5.16857C2.31429 24 0 21.6857 0 18.8314V11.6443L9.99857 0H18.8314C21.6857 0 24 2.31429 24 5.16857V18.8314C24 21.6857 21.6857 24 18.8314 24Z" fill="url(#paint0_radial_2029_6495)"/>
<path d="M9.99857 0L0 11.6443C2.88429 15.48 9.87429 18.1629 14.46 13.9543C17.1257 10.62 15.5871 5.16429 13.5857 3.37286C12.5829 2.47286 11.3786 1.17857 10.0029 0L9.99857 0Z" fill="#1A5CF9"/>
<path d="M9.99857 0L0 10.4571V11.6486C3.38571 14.2843 8.67 15.3214 12.3771 11.9186C15.0429 8.58429 13.5043 3.12857 11.5029 1.33714C11.0786 0.955714 10.5686 0.492857 10.0029 0.00428571L9.99857 0Z" fill="#21AAF5"/>
<path d="M0 8.31857V10.4571C3.12429 11.7729 6.87857 11.7686 9.70714 9.16714C11.8586 6.48 11.3529 2.41714 9.99857 0H7.89857L0 8.31857Z" fill="#25E0F2"/>
<path d="M5.16857 0C2.31429 0 0 2.31429 0 5.16857V8.31857C2.31857 8.57143 4.70143 8.01429 6.65143 6.22286C8.06571 4.45714 8.29286 2.09571 7.89857 0H5.16429H5.16857Z" fill="#18FFFF"/>
<path d="M4.40613 5.91325C4.40613 5.91325 8.96184 12.7961 12.7933 15.1275C11.3447 15.5947 8.19898 17.4975 2.70898 14.1332C4.10613 16.049 6.57898 19.889 12.6347 19.529C14.7561 19.4261 16.0504 18.7532 17.2418 18.2861C18.4333 17.819 19.5733 17.8704 20.5547 19.6318C20.7604 18.029 20.8118 16.5247 19.1576 14.819C19.1576 14.819 20.7947 8.57896 13.8218 3.65039C15.2704 6.54753 16.1104 8.18468 15.429 12.179C13.8776 11.1418 8.14327 6.5261 6.84898 5.0261C7.77898 6.68468 10.4618 10.3147 11.3918 11.249C9.73756 10.109 4.40184 5.91753 4.40184 5.91753L4.40613 5.91325Z" fill="black"/>
</g>
<defs>
<radialGradient id="paint0_radial_2029_6495" cx="0" cy="0" r="1" gradientUnits="userSpaceOnUse" gradientTransform="translate(11.9571 -1.00037) scale(36.2571 21.8993)">
<stop offset="0.2" stop-color="#27F5F1"/>
<stop offset="0.29" stop-color="#25E2EE"/>
<stop offset="0.47" stop-color="#20B1E7"/>
<stop offset="0.72" stop-color="#1963DB"/>
<stop offset="0.86" stop-color="#1434D4"/>
<stop offset="1" stop-color="#0015B5"/>
</radialGradient>
<clipPath id="clip0_2029_6495">
<rect width="24" height="24" fill="white"/>
</clipPath>
</defs>
</svg>
