<?xml version="1.0" encoding="utf-8"?>
<!-- Generator: Adobe Illustrator 24.1.0, SVG Export Plug-In . SVG Version: 6.00 Build 0)  -->
<svg version="1.1" id="Layer_1" xmlns="http://www.w3.org/2000/svg" xmlns:xlink="http://www.w3.org/1999/xlink" x="0px" y="0px"
	 viewBox="0 0 511.8 512" style="enable-background:new 0 0 511.8 512;" xml:space="preserve">
<style type="text/css">
	.st0{fill:#FEFEFE;}
	.st1{fill:#FDFDFD;}
	.st2{fill:#8AA0B8;}
	.st3{fill:#8CA2BA;}
	.st4{fill:#91A6BE;}
	.st5{fill:#8FA4BC;}
	.st6{fill:#879EB6;}
	.st7{fill:#829AB2;}
	.st8{fill:#94A8C0;}
	.st9{fill:#8199B0;}
	.st10{fill:#7A94AB;}
	.st11{fill:#7D96AE;}
	.st12{fill:#597A8F;}
	.st13{fill:#7690A7;}
	.st14{fill:#7F98AF;}
	.st15{fill:#7892A9;}
	.st16{fill:#55778D;}
	.st17{fill:#5E7D94;}
	.st18{fill:#638198;}
	.st19{fill:#738EA5;}
	.st20{fill:#66849A;}
	.st21{fill:#5B7B91;}
	.st22{fill:#6B889E;}
	.st23{fill:#607F96;}
	.st24{fill:#68869C;}
	.st25{fill:#2B3B45;}
	.st26{fill:#33424C;}
	.st27{fill:#36444F;}
	.st28{fill:#9EB0C9;}
	.st29{fill:#9BAEC6;}
	.st30{fill:#2C3B45;}
	.st31{fill:#394852;}
	.st32{fill:#9DAFC8;}
	.st33{fill:#96AAC2;}
	.st34{fill:#303F49;}
	.st35{fill:#99ACC5;}
	.st36{fill:#283842;}
	.st37{fill:#283841;}
	.st38{fill:#95A9C1;}
	.st39{fill:#3C4A55;}
	.st40{fill:#293943;}
	.st41{fill:#2E3D48;}
	.st42{fill:#34424D;}
	.st43{fill:#303F4A;}
	.st44{fill:#2F3E48;}
	.st45{fill:#2E3D47;}
	.st46{fill:#374651;}
	.st47{fill:#404E5A;}
	.st48{fill:#2A3943;}
	.st49{fill:#42515C;}
	.st50{fill:#A7B7CD;}
	.st51{fill:#31404A;}
	.st52{fill:#A4B5CB;}
	.st53{fill:#B8C6D7;}
	.st54{fill:#36454F;}
	.st55{fill:#AABACF;}
	.st56{fill:#BDC9DA;}
	.st57{fill:#45535E;}
	.st58{fill:#B5C3D5;}
	.st59{fill:#AEBDD1;}
	.st60{fill:#3E4D58;}
	.st61{fill:#485661;}
	.st62{fill:#B1C0D3;}
	.st63{fill:#3D4C57;}
	.st64{fill:#475561;}
	.st65{fill:#4B5965;}
	.st66{fill:#4A5864;}
	.st67{fill:#43515C;}
	.st68{fill:#8CA2B9;}
	.st69{fill:#859CB4;}
	.st70{fill:#4D5B67;}
	.st71{fill:#869DB4;}
	.st72{fill:#4F5D69;}
	.st73{fill:#89A0B6;}
	.st74{fill:#525F6C;}
	.st75{fill:#758493;}
	.st76{fill:#FCFCFC;}
	.st77{fill:#708CA3;}
	.st78{fill:#90A6BC;}
	.st79{fill:#859DB4;}
	.st80{fill:#98ABC3;}
	.st81{fill:#596773;}
	.st82{fill:#566470;}
	.st83{fill:#53616D;}
	.st84{fill:#515F6B;}
	.st85{fill:#828E9C;}
	.st86{fill:#7F8B99;}
	.st87{fill:#84909E;}
	.st88{fill:#7D8997;}
	.st89{fill:#64717E;}
	.st90{fill:#616E7A;}
	.st91{fill:#687481;}
	.st92{fill:#667380;}
	.st93{fill:#5E6B78;}
	.st94{fill:#5C6975;}
	.st95{fill:#5D6A76;}
	.st96{fill:#8994A2;}
	.st97{fill:#8692A0;}
	.st98{fill:#8A95A4;}
	.st99{fill:#FAFAFA;}
	.st100{fill:#FBFBFB;}
	.st101{fill:#F9F9F9;}
	.st102{fill:#8B96A5;}
	.st103{fill:#85919F;}
	.st104{fill:#8E99A8;}
	.st105{fill:#8994A3;}
	.st106{fill:#F8F8F8;}
	.st107{fill:#54768C;}
	.st108{fill:#F6F6F6;}
	.st109{fill:#6A7784;}
	.st110{fill:#6D7A87;}
	.st111{fill:#7C8896;}
	.st112{fill:#F3F3F4;}
	.st113{fill:#6D8AA0;}
	.st114{fill:#C0CCDB;}
	.st115{fill:#9DB0C7;}
	.st116{fill:#9BAEC5;}
	.st117{fill:#A1B3C9;}
	.st118{fill:#7E97AE;}
	.st119{fill:#7C96AD;}
	.st120{fill:#6E8AA1;}
	.st121{fill:#6B889F;}
	.st122{fill:#68859C;}
	.st123{fill:#8B97A5;}
	.st124{fill:#686969;}
	.st125{fill:#797979;}
	.st126{fill:#737373;}
	.st127{fill:#6E6E6E;}
	.st128{fill:#8E9AA8;}
	.st129{fill:#969696;}
	.st130{fill:#8F8F8F;}
	.st131{fill:#858585;}
	.st132{fill:#7F7F7F;}
	.st133{fill:#8A8A8A;}
	.st134{fill:#F5F5F5;}
	.st135{fill:#F7F7F7;}
	.st136{fill:#919CAA;}
	.st137{fill:#F3F3F3;}
	.st138{fill:#EFEFEF;}
	.st139{fill:#EBEBEB;}
	.st140{fill:#72889B;}
	.st141{fill:#929DAC;}
	.st142{fill:#74808D;}
	.st143{fill:#717E8B;}
	.st144{fill:#6F7C89;}
	.st145{fill:#707C8A;}
	.st146{fill:#768290;}
	.st147{fill:#7A8694;}
	.st148{fill:#788492;}
	.st149{fill:#F2F2F2;}
	.st150{fill:#F0F0F0;}
	.st151{fill:#8C97A6;}
	.st152{fill:#EAEAEA;}
	.st153{fill:#EDEDED;}
	.st154{fill:#EEEEEE;}
	.st155{fill:#A0A0A0;}
	.st156{fill:#A7A7A7;}
	.st157{fill:#B4B4B4;}
	.st158{fill:#ACACAC;}
	.st159{fill:#B0B0B0;}
	.st160{fill:#929DAB;}
	.st161{fill:#F4F4F4;}
	.st162{fill:#CCCCCC;}
	.st163{fill:#C7C7C7;}
	.st164{fill:#C2C2C2;}
	.st165{fill:#B9B9B9;}
	.st166{fill:#BDBDBD;}
	.st167{fill:#E2E2E2;}
	.st168{fill:#D8D8D8;}
	.st169{fill:#D0D0D0;}
	.st170{fill:#D4D4D4;}
	.st171{fill:#DDDDDD;}
	.st172{fill:#E7E7E7;}
	.st173{fill:#7A90A3;}
</style>
<path class="st0" d="M511.8,447.9c0,20-0.1,40,0.1,60c0,3.4-0.7,4.1-4.1,4.1c-159.8-0.1-319.6-0.1-479.3-0.1c-8.5,0-17-0.1-25.5,0.1
	c-2.5,0.1-3.1-0.6-3.1-3.1C0,487.6,0,466.3,0,444.9c2.1-0.4,3,1.2,3.8,2.6c10.8,20,28.8,31.1,48.8,39.9c10.1,4.4,20.9,6.6,31.4,9.8
	c11.3,3.4,22.9,5.3,34.4,7.7c7.5,1.6,15.2,2.4,22.8,2.4c24.3,0.2,48.5,0.4,72.8,0c28.3,0.2,56.6,0.2,84.8,0
	c29.1,0,58.3,1.7,87.3-1.2c13.1-1.3,26.3-3.6,39-7.9c5-1.7,10.3-2.7,15.4-4c16.3-4.1,31.2-11.4,45.2-20.5
	c8.5-5.5,14.9-13.2,20.6-21.5C507.7,450.3,508.6,447.6,511.8,447.9z"/>
<path class="st1" d="M212.9,508.9c-21.3,0-42.6,0-63.9,0c-11.8,0-23.4-1-35-3.5c-6-1.3-12.3-2.1-18.4-3.5
	c-8.3-1.8-16.5-4.3-24.8-6.6c-14.6-4.1-28.2-10.5-41.2-18.4C18.3,470,9.9,460.4,3.2,449.3c-0.9-1.5-1.2-3.5-3.2-4.3c0-12,0-24,0-36
	c1.2-0.6,2.2-1.5,2.8-2.7c5.5-10.8,13.1-19.7,23.3-26.3c3.1,0.8,2.4,4,3.8,5.9c0.7,1.9,2,3.7,1.7,5.9c-0.5,2.1-1.9,3.4-3.3,4.9
	c-16.1,16.3-16.7,41.6-2,59c10.5,12.4,24.2,20.4,39.2,26.6c18,7.5,36.8,11.2,55.7,15.1c28.6,5.8,57.4,8.8,86.6,9.4
	C209.6,506.6,212.2,505.8,212.9,508.9z"/>
<path class="st1" d="M511.8,447.9c-4.5,3.6-7,8.7-10.4,13.2c-7,9.1-16.3,15-25.9,20.5c-15.2,8.6-31.8,13.5-48.8,17.7
	c-6.6,1.7-13.4,3.7-20.1,4.9c-7.3,1.3-14.5,3.2-21.9,3.7c-28.2,2-56.5,0.5-84.8,1c0.5-2.8,2.9-2.3,4.7-2.3c8.6-0.1,17.3,0,25.9-1.1
	c10.4-1.3,20.8-2.4,31.1-3.2c11.9-0.9,23.2-4,34.8-6c21-3.6,41.3-9.3,60.7-18.7c11.1-5.3,20.5-12.4,28.6-21.3
	c15.4-17,15.2-43-0.9-59.7c-0.9-1-1.9-1.8-2.4-3.1c1.9-4.9,3.4-10,7.3-13.9c0.6,4.8,5.7,5.5,8.1,8.9c4.4,6.3,9.3,12.2,14,18.3
	C511.8,420.6,511.8,434.3,511.8,447.9z"/>
<path class="st2" d="M435.6,54.1c3.6,3.1,7.3,6.1,10,10.1c-1.1,2.9-3.9,3.5-6.3,4.5c-19.1,8.6-38.3,17.1-57.4,25.6
	c-30.7,13.6-61.4,27.2-92.1,40.8c-28.1,12.5-56.2,25.1-84.4,37.4c-27.7,12.2-55.3,24.7-83,36.8c-1.9,0.9-3.8,2.2-6.1,1.2
	c-1.6-1.7-0.4-3,0.5-4.4c4.1-6,8.3-11.9,13-17.4c0.4-0.3,0.8-0.6,1.3-0.8c35-15.7,70-31.2,105-46.7c36.8-16.4,73.7-32.6,110.5-49
	c27.8-12.4,55.7-24.8,83.6-37.1C431.7,54.4,433.4,52.7,435.6,54.1z"/>
<path class="st3" d="M435.6,54.1c-13.2,5.8-26.4,11.6-39.6,17.4c-23.2,10.3-46.5,20.6-69.7,30.9c-21.8,9.7-43.7,19.5-65.5,29.2
	c-25.5,11.3-51,22.5-76.5,33.8c-16.5,7.3-33,14.8-49.5,22.2c-1.2,0.5-2.5,0.9-3.7,1.4c-0.7-1.4-0.1-2.7,0.8-3.7
	c5.3-6.4,9.9-13.3,15.1-19.8c1.3-1.6,3.1-2.5,5-3.3c28-12.3,55.9-24.9,83.9-37.3c31.2-13.8,62.4-27.6,93.6-41.5
	c27.5-12.2,55-24.6,82.6-36.6c2.6-1.1,5.1-2.4,7.7-3.6c1.7-0.7,3.4-1.7,5.1-0.2C428.7,46.4,432.4,50,435.6,54.1z"/>
<path class="st4" d="M399,19c6.1,3,10.3,8,14.5,13.1c-5.9,4.8-13.2,6.8-20,9.8c-34.3,15.4-68.7,30.6-103.1,45.8
	c-31.5,13.9-62.9,27.9-94.4,41.9c-4.9,2.2-9.7,4.3-14.6,6.5c-2.5,1.2-5.1,2.6-8.1,1.5c-0.4-4-2.9-6.1-6.3-7.9
	c-2.1-1.1-4.7-2.1-4.7-5.2c1.3-3.2,4.4-3.9,7.1-5.1c19.1-8.5,38.3-17.1,57.4-25.5c31-13.7,62.1-27.4,93-41.2
	c24.6-11,49.3-21.8,73.8-32.9C395.4,19,397.1,18.2,399,19z"/>
<path class="st5" d="M173.1,137.1c6.1,0.1,11-3.6,16.2-5.9c28.7-12.6,57.2-25.5,85.9-38.3c36.7-16.3,73.4-32.4,110.1-48.6
	c9.4-4.1,18.5-8.9,28.3-12.2c3.8,3.5,8.1,6.7,11.2,11c-7.9,2-15,6.1-22.4,9.3c-26.5,11.5-52.8,23.3-79.2,35
	c-19.5,8.7-39,17.6-58.6,26.2c-24.7,11-49.5,21.8-74.2,32.7c-12.7,5.6-25.3,11.6-38.2,16.9c-4.2,1.7-5.6,5.4-8,8.3
	c-4.7,5.6-8.8,11.6-13.1,17.4c-0.3,0-0.7,0-1,0c-2,0.2-1.6-1.2-1.2-2.2c0.6-1.6,1.3-3,0.8-4.8c0-0.9,0.3-1.8,0.8-2.5
	c2.6-4.3,6.7-7.3,10-11c3.2-3.7,6.3-7.6,9.9-10.9c0.8-0.8,1.6-1.6,2.4-2.4c5.2-5.2,10.4-10.5,15.7-15.6
	C169.6,138.3,170.6,136.2,173.1,137.1z"/>
<path class="st6" d="M116,210c7.4-1.5,13.9-5.4,20.7-8.4c28.8-12.5,57.4-25.3,86.1-38c19.4-8.6,38.8-17.4,58.2-26
	c22.4-10,44.9-19.8,67.4-29.8c18.7-8.3,37.3-16.6,56-24.9c13.8-6.2,27.5-12.5,41.3-18.7c2.7,2.7,6.1,4.6,8.1,8
	c-5.4,5.1-12.5,6.8-19,9.7c-37.5,16.8-75.1,33.5-112.7,50.1c-31.5,13.9-63,27.9-94.5,41.9c-36.8,16.4-73.7,32.6-110.5,49
	c-3.7,1.6-7.1,4.5-11.6,3.7c-1.7-3.3,1.8-4.7,2.5-7.1c1.3-2.4,2.8-4.7,4.4-6.9C113.2,211.3,113.8,209.5,116,210z"/>
<path class="st7" d="M43.8,304c1.2-3.5,2.8-6.9,5-10c6.9-7.7,14.7-14.5,22.5-21c7-5.9,12.3-12.8,17.5-19.9
	c19.2-9.2,38.8-17.5,58.2-26.2c30.8-13.8,61.7-27.4,92.6-41c31.6-14,63.2-28.2,94.9-42.1c3.6-1.6,6.9-4.2,11-4.4
	c4.1,1.9,7.5,4.3,8.6,9c-0.9,2-2.8,2.7-4.7,3.5c-38.3,17.2-76.7,34-115,51c-36.8,16.4-73.6,32.7-110.4,49.1
	c-12.3,5.5-24.7,10.8-36.9,16.5c-3.1,1.4-5.6,3.5-7.5,6.4c-3.7,5.7-9.7,9.1-14.8,13.3c-5.5,4.6-10.4,9.8-16,14.2
	C47.4,303.4,46.3,305.5,43.8,304z"/>
<path class="st8" d="M399,19c-11.4,5-22.8,10-34.1,15.1c-22.8,10.1-45.5,20.1-68.3,30.2c-18.4,8.1-36.7,16.3-55,24.5
	c-23.1,10.2-46.1,20.4-69.1,30.7c-3.4,1.5-7.3,2.4-9.6,5.9c-2,1-3.6-0.1-4.9-1.2c-3.7-2.9-8.8-3.9-11.3-8.3c0.7-3.6,3.8-4.6,6.6-5.2
	c11.1-2.4,21.4-6.9,32.2-10.2c8.6-2.6,17.2-4.9,26.1-6c0.3-1.9-1.3-2.3-2.1-3.1c-0.9-0.6-1.6-1.3-2-2.3c-0.9-3.4,1.7-4.4,3.9-5.4
	c11-5.4,22.4-10.1,33.7-15c3.3-1.4,6.1-4.2,10.1-3.6c1.1,1,2.4,1.2,3.9,1.1c21.6-8.6,42.6-18.5,63.8-27.9
	c17.8-7.9,35.6-15.4,53.1-23.9C384,13.7,391.7,15.5,399,19z"/>
<path class="st9" d="M43.8,304c5-1.8,8.2-6,11.8-9.5c5.8-5.7,12.5-10.2,18.5-15.6c0.7-0.7,1.8-1.1,2.3-1.9
	c5.3-10.6,16.4-12.4,25.6-16.8c15.6-7.3,31.5-14,47.3-20.9c23.1-10.2,46.1-20.4,69.2-30.6c19.3-8.6,38.5-17.2,57.7-25.8
	c22-9.7,44-19.4,66-29.1c3.9-1.7,7.7-3.8,11.5-5.8c2.9,1.3,6,2.5,6.4,6.3c-3,4.3-8.1,5.1-12.4,7c-27.8,12.3-55.6,24.9-83.5,37.1
	c-1.4,0.6-2.6,1.4-3.7,2.4c-3.3,0.5-5.3,3.9-8.7,4c-8.6,1.9-16.1,6.3-24,9.7c-46.9,20.7-93.6,41.7-140.6,62.3
	c-5.8,2.5-10.8,6.2-15.6,10.4c-9.1,8-18.3,16-27.9,23.4c-1,0.8-2.1,1.7-3.6,1.2C40.8,309.1,42.1,306.4,43.8,304z"/>
<path class="st10" d="M28.8,342.9c0.4-3.9,1.7-7.5,3.2-11c8.1-7.3,15.7-15.3,25.9-19.9c33.8-14.9,67.5-30.1,101.4-44.9
	c13.4-5.9,26.8-11.9,40.1-17.9c2.8-1.3,5.6-3.1,9-1.9c1.5,2.4-0.8,3.4-1.8,4.9c-2.4,2.8-4.6,5.7-7.3,8.2c-2.6,2.6-4.4,5.7-7.1,8.2
	c-2.1,2.2-3.3,5.4-6.8,6.1c-2.4,0.2-4.5,1.1-6.6,2c-45.9,20.3-91.7,40.6-137.6,60.9c-2.6,1.2-4.9,2.8-7.3,4.4
	C32.6,343.2,30.9,344.7,28.8,342.9z"/>
<path class="st11" d="M209,248c-6-0.3-10.7,3.4-15.8,5.5c-22,9.5-43.7,19.4-65.6,29.1c-22.5,10-45,19.8-67.4,29.8
	c-5.8,2.6-11.3,5.6-15.6,10.4c-3.5,3.9-8.3,6-12.4,9.1c1.1-4.5,2.8-8.8,5-13c7-6.2,14.3-11.9,21.3-18c11.3-9.7,25.5-14.1,38.8-20.2
	C125,268.2,153,256,181,243.6c14.6-6.5,29.1-13.1,43.8-19.4c2.1-0.9,4.3-2.3,6.4,0.1c0.1,2.3-1.7,3.4-3.1,4.7
	c-3.3,3.3-6.6,6.7-9.4,10.5C215.6,242.5,214.1,247.4,209,248z"/>
<path class="st6" d="M105,226c7.4-1.5,13.8-5.4,20.6-8.4c28.8-12.5,57.4-25.3,86.1-38c19.6-8.7,39-17.6,58.6-26.2
	c24.7-11,49.5-21.7,74.3-32.7c19.4-8.6,38.8-17.4,58.2-26c17-7.6,34-15,51-22.5c2,1.3,3.7,2.9,5,5c-3.7,4.9-9.9,5.3-14.8,8.2
	c-2,1.2-4.1,1.9-5.6,3.8c-4.9,2.4-10.5,2.6-15.6,4.5c-7.6,2.8-15.3,5.1-22.7,8.4c-3.4,1.1-6.6,2.6-9.6,4.5
	c-10.9,4.5-20.9,10.8-31,16.7c-2.4,1.4-4.6,3.2-7.6,3.5c-7.5,1.4-13.9,5.3-20.7,8.3c-34.4,15.2-68.8,30.3-103.1,45.6
	c-31.4,14-62.9,27.9-94.3,42c-9.1,4.1-18.3,8-27.4,12.1c-1.9,0.9-4,1.9-6.2,0.7C98.7,230.7,101.6,228.2,105,226z"/>
<path class="st12" d="M487.6,344.9c2.5,10,4.5,19.9,2.3,30.3c-2-1.4-4-1.2-6.1-0.3c-22.5,10-45,19.9-67.6,29.8
	c-1.8,0.8-2.9,2.2-4.3,3.4c-2.1,0.1-2.2-1.7-2.9-2.9c-1.1-3-2.8-5.7-3.4-8.8c-0.7-3.3-2.5-6.2-3.8-9.2c-0.5-1.4-1-2.8-1-4.4
	c0.3-3,2.6-4.1,4.9-5.1c25.1-11,50.1-22.3,75.3-33.2C483.3,343.5,485.7,341.7,487.6,344.9z"/>
<path class="st13" d="M25.9,375.2c-1.6-6.4-1.2-12.8,0.2-19.2c12.2-6.2,24.8-11.3,37.3-16.9c28.9-12.9,57.8-25.7,86.7-38.6
	c3.8-1.7,7.6-3.4,11.4-5c2.5-1.1,5.1-2.5,8.1-1.9c1.8,2.6-0.7,4-1.7,5.8c-2.7,3.1-5.1,6.4-7.3,9.9c-1.1,1.4-2.3,2.8-3.3,4.4
	c-1.8,1.9-2.9,4.6-5.7,5.4c-9.4,2.4-17.9,7.1-26.7,11c-30.9,13.8-61.9,27.4-92.9,41.2C29.8,372.2,27.8,373.5,25.9,375.2z"/>
<path class="st14" d="M230.9,224.8c-5.3-1.8-9.1,2.2-13.2,4c-22.5,9.8-44.9,20-67.4,29.9c-24.9,11-49.8,22-74.7,32.9
	c-10.7,4.7-18.8,12.9-27.9,19.8c-3.4,2.6-5.6,7.3-10.7,7.5c0.5-2.6,1.6-4.9,3-7c11.5-9.4,23.2-18.6,34-28.9
	c6.3-6,14.8-8.2,22.4-11.7c15.7-7.2,31.6-13.9,47.4-20.9c23.2-10.3,46.4-20.6,69.7-30.9c11.5-5.1,23.1-10.2,34.6-15.3
	c1.2-0.5,2.6-2.2,3.8,0c0.1,1.9-1.4,3-2.5,4.1c-4.7,4.7-9.4,9.5-14.1,14.1C234.2,223.8,233.2,225.8,230.9,224.8z"/>
<path class="st15" d="M170,294c-9.8,2.4-18.5,7.4-27.6,11.3c-23.5,10.2-46.8,20.6-70.1,31c-13.4,5.9-26.7,11.9-40,18
	c-2,0.9-3.9,1.9-6.2,1.6c0.2-4.5,1.1-8.9,2.8-13c1-0.1,2.2,0,2.9-0.5c10.9-8.5,24.3-12.1,36.5-17.9c16.3-7.8,33-14.6,49.5-21.9
	c21.1-9.3,42.1-18.7,63.1-28c1.6-0.7,3.3-1.6,5.2-0.6c0.5,1.2,0,2.2-0.5,3.2c-1.5,2.1-3.7,3.7-4.9,6c-0.6,0.9-1.4,1.7-2.1,2.5
	c-1.7,2-3.1,4.1-4.9,6C172.5,292.7,172,294.5,170,294z"/>
<path class="st16" d="M411.9,408c-0.3-2.3,1.2-3.2,3-4c18.4-8,36.7-16.1,55.1-24.1c5.5-2.4,11-4.7,16.4-7.2c2.8-1.3,3.6,0,3.6,2.5
	c-0.1,1.5-0.1,3-0.2,4.5c-1.9,4.6-3.5,9.4-7,13.1c-0.5,1.8-1.8,3.1-3.1,4.3c-0.8,0.7-1.6,1.5-2.3,2.2c-0.7,0.7-1.5,1.5-2.2,2.2
	c-0.9,0.9-1.8,1.8-2.7,2.7c-1.1,1-2.1,2-3.1,3.1c-1.1,1-2.1,2.1-3.1,3.2c-1.5,1.4-2.8,2.9-4.3,4.2c-0.8,0.6-1.7,1-2.6,1.2
	c-10,2.8-18.8,8.4-28.6,11.8c-8.1,2.8-13.5,6.7-11.7,16.4c0.3,1.3,0.4,3.9-2.5,3.5c-1-1.5-1-3.1-1-4.8c-0.1-2.5-0.1-5,0-7.5
	c0-1.3,0-2.7,0-4c0.2-1.8-0.5-3.5-0.8-5.2c-0.2-1.7-0.7-3.3-1-5c-0.2-1.7-0.6-3.3-1.1-4.9c-0.3-1.9-1.8-3.5-1.8-5.6
	C410.8,409.7,411,408.7,411.9,408z"/>
<path class="st17" d="M474.6,309.1c2.8,5.5,5.2,11.1,7.1,17c-1.7,3.3-5.1,4.1-8.1,5.4c-24.7,10.7-49.1,21.9-73.7,32.6
	c-2,0.9-3.8,2.1-5.6,3.2c-1.6,0.4-2.2-0.8-2.9-1.8c-1.6-3.1-2.9-6.4-5.3-9.1c-1.1-2.4-3.4-4.4-2.3-7.5c7.4-4.9,15.8-7.6,23.8-11.2
	c20.3-9.2,40.6-18.1,61-27.1C470.4,309.4,472.3,308.2,474.6,309.1z"/>
<path class="st18" d="M458.8,280c3.7,4.6,6.3,9.8,8.8,15.1c-0.5,1.6-1.8,2.3-3.2,2.9c-28.9,12.8-57.8,25.8-86.8,38.5
	c-0.5,0.2-1,0.3-1.4,0.4c-0.8,0.1-1.5,0-2.2-0.4c-2.2-2.9-3.7-6.2-6-9c-1.5-2-3.3-3.9-2.7-6.8c0.6-1.5,2-2.1,3.4-2.7
	c28.4-12.5,56.7-25,85-37.7C455.3,279.5,457,278.5,458.8,280z"/>
<path class="st19" d="M25.9,375.2c-0.1-2.2,1-3.2,2.9-4.1c31.9-14.1,63.7-28.2,95.6-42.3c7.4-3.3,14.9-6.4,22.3-9.8
	c1.7-0.8,3.4-1.2,5.3-1.1c0.6,0.6,0.6,1.2,0.5,2c-1.3,2.7-3.2,5-4.9,7.5c-2.4,2.8-4,6-5.9,9.1c-1.5,1.7-2,4.5-4.9,4.7
	c-3.7-0.7-6.8,1.4-9.9,2.8C95.9,357.8,65,371.5,34,385.3c-1.6,0.7-3.2,2-5.1,0.6c-1.7-1.6-1.4-4.2-2.8-6
	C26.1,378.3,26,376.8,25.9,375.2z"/>
<path class="st20" d="M458.8,280c-7.6,1.8-14.4,5.8-21.5,8.9c-23.3,10-46.3,20.4-69.5,30.7c-0.7,0.3-1.3,1-2,1.4
	c-1,0.5-1.7-0.1-2.5-0.6c-1.6-1.9-3.1-3.9-4.5-5.9c-0.9-2.1-2.8-3.7-3.6-5.8c-0.1-0.5,0-1,0.1-1.5c0.9-2,3-2.5,4.8-3.3
	c28.7-12.6,57.2-25.5,86-38.1c1.2-0.5,2.3-1.4,3.7-0.8C453.2,269.8,456.8,274.4,458.8,280z"/>
<path class="st21" d="M393.9,366.9c0.9-3.3,4.2-3.5,6.6-4.6c16.5-7.4,33-14.6,49.5-21.9c10.6-4.7,21.1-9.6,31.7-14.4
	c2.2,6.3,5,12.3,6,18.9c-4.5-2.3-7.6,1.4-11,2.8c-23.6,10.1-47,20.6-70.4,31.1c-1.9,0.8-4.3,1.3-4.4,4.1c-0.4,0.3-0.8,0.4-1.2,0.1
	c-0.7-0.6-1.2-1.5-1.5-2.3c-1-3-2.4-5.9-4.2-8.6C394.1,370.5,392.4,369,393.9,366.9z"/>
<path class="st22" d="M442.7,252.9c0,0.4,0,0.7,0,1.1c-0.8,1.4-2.1,2-3.5,2.6c-29.5,13-58.9,26.1-88.3,39.2
	c-1.1,0.5-2.2,0.9-3.4,0.7c-2.5-0.7-3.6-3-5.3-4.7c-1.8-2-3.2-4.5-5.1-6.5c-0.4-0.7-0.6-1.3-0.1-2c4.8-4.3,11.1-5.9,16.8-8.5
	c26.1-11.9,52.7-22.9,78.7-35.2c4.2,0.2,4.6,4.4,6.8,6.7C440.4,248.6,442.2,250.4,442.7,252.9z"/>
<path class="st23" d="M375.7,336c23.5-10.4,47-20.9,70.6-31.3c7.1-3.2,14.2-6.4,21.3-9.7c2.3,4.7,5.3,9,7,14
	c-20.6,9.1-41.1,18.3-61.7,27.4c-9.7,4.3-19.4,8.4-29.1,12.6C379,346,376.3,341.6,375.7,336z"/>
<path class="st24" d="M346.9,296c10.6-4.7,21.3-9.3,31.9-14c21.3-9.3,42.6-18.7,63.8-28c2.7,3.4,5.4,6.9,7.2,11
	c-9.4,5.6-19.8,9.1-29.7,13.7c-16.8,7.8-33.9,14.9-50.8,22.6c-4.6,2.1-9.8,3-13.6,6.7c-2.6,0.5-2.7-1.8-3.7-3.2
	c-1.3-1.7-2.5-3.5-4-5C347.2,298.7,346.2,297.6,346.9,296z"/>
<path class="st25" d="M489.8,109.1c2.5,4.7,2.7,9.8,2.8,14.9c-1.9,1.8-4.3,1.6-6.6,1.6c-32,0-63.9,0-95.9,0c-2.6,0-5.4,0.2-7.4-2.1
	c-1.1-5.2,2.3-12,7-14c28.9,0,57.8,0,86.6,0C480.9,109.5,485.3,109.5,489.8,109.1z"/>
<path class="st26" d="M492.7,145.1c-0.2,3.8-1,7.4-2,11c-2.5,2.2-5.7,1.6-8.6,1.6c-35.5,0-70.9,0-106.4,0c-3.2,0-6.3,0-9.5,0.5
	c-1.2,0.5-2.4,0.4-3.4-0.5c-0.4-0.4-0.6-1-0.7-1.5c0.9-4.6,4.1-8.1,6.4-11.9c0.9-1.4,2.3-1.8,3.9-1.2c3.1,0.5,6.3,0.5,9.4,0.5
	c34,0,68.1,0,102.1,0C487,143.5,490.1,142.8,492.7,145.1z"/>
<path class="st27" d="M151,158.1c-3.4,3.6-6.8,7.3-10.2,10.9c-1.9,0.7-3.9,0.7-5.9,0.7c-32.7,0-65.4,0-98.1,0c-3,0-6,0.4-8.6-1.6
	c-1-3.7-2-7.3-3-11c2.3-1.7,5-1.6,7.7-1.6c36.7,0,73.3,0,110,0C145.8,155.5,148.9,155.2,151,158.1z"/>
<path class="st28" d="M82,52.1c9.7-9.8,19.2-19.8,29.1-29.3c10.2-9.7,23.2-9.7,36.1-8.3c6.4,0.7,12.8,1.5,18.7,4.4
	c1.3,3.4-1.8,3.9-3.6,4.8c-10.6,5.1-21.4,9.6-32.1,14.5c-6.9,3.1-14,5.9-20.6,9.8c-9.4,0.3-18.4,2.5-27.3,5.5
	C81.7,53.1,81.6,52.7,82,52.1z"/>
<path class="st29" d="M190.9,28.1c8.4,3.3,16.4,7.3,24,12c-1.4,3.8-5.1,4.4-8.2,5.8c-11.5,5.1-23,10.2-34.4,15.3
	c-2.3,1-4.4,2.3-6.1,4.1c-0.7,0.4-1.4,0.5-2.2,0.3c-3.6-1.5-7-3.3-10.5-4.8c-4.8-2.5-10.4-3.1-14.6-6.8c-0.1-3.3,2.5-4.1,4.7-5.1
	c12.9-5.7,25.8-11.6,38.8-17.1C185.3,30.6,187.6,28.3,190.9,28.1z"/>
<path class="st30" d="M23.2,125.1c-0.4-4.5-0.4-8.9,1.9-12.9c31.5,0.8,63,0.1,94.6,0.4c2.8,0,5.6-0.2,8.4,0.4
	c4.7,2.6,6.9,7.3,5.9,12.4c-2,1.6-4.4,1.4-6.7,1.4c-32.5,0-65,0-97.4,0C27.5,126.7,25,126.9,23.2,125.1z"/>
<path class="st31" d="M28.2,168c35.5,0,70.9,0,106.4,0c2.2,0,4.3-0.3,6.3,0.9c-3.4,3.7-6.7,7.3-10.1,11c-1.3,1-2.8,0.8-4.3,0.8
	c-29.8-0.2-59.6-0.2-89.4,0c-1.5,0-3,0-4.4-0.6C31.2,176.1,29.7,172.1,28.2,168z"/>
<path class="st32" d="M190.9,28.1c-1.3,1.5-2.9,2.6-4.8,3.4c-13.5,5.9-26.9,11.8-40.4,17.8c-2.5,1.1-5.3,2-6.8,4.7
	c-0.2,0.2-0.4,0.3-0.6,0.5c-3,0.6-5.5-0.9-8.2-1.6c-5.1-1.5-10.3-2.7-15.6-3.4c-1.8-0.3-3.7-0.2-4.6-2.3c5.4-5.2,12.8-6.7,19.2-9.9
	c11-5.3,22.3-10,33.5-15.1c1.5-0.7,3.2-1.1,3.3-3.3C174.8,20.6,182.9,24.3,190.9,28.1z"/>
<path class="st33" d="M255.1,65c-14.4,6.6-28.9,13.1-43.3,19.7c-1.9,0.9-4.3,1.4-3.8,4.4c-0.9,0.5-1.7,0-2.4-0.4
	c-1.6-1-3.2-2.1-4.8-3.1c-1.3-1-2.8-1.9-4.3-2.7c-1.7-1-3.2-2.2-5-2.9c-1-0.5-2-1-3-1.6c-1.3-1-3-1.8-2.9-3.9
	c1.6-2.9,4.7-3.6,7.3-4.8c12.8-5.9,25.7-11.3,38.5-17.1c1.2-0.5,2.4-1.3,3.8-0.7C242.2,55.7,248.8,60,255.1,65z"/>
<path class="st34" d="M492.7,145.1c-38.5,0-77,0-115.6,0c-2.2,0-4.8,0.8-6.2-1.9c0.2-5.1,1.9-7.4,6.4-8.7c35.6,0.1,71.2,0,106.8,0.1
	c2.9,0,6.1-0.7,8.6,1.6C492.7,139.1,492.7,142.1,492.7,145.1z"/>
<path class="st35" d="M235.1,52c-9.2,5.2-19.3,8.6-28.8,13.2c-6.8,3.3-14.2,5.5-20.4,10c-0.3,0.3-0.7,0.5-1.2,0.6
	c-1.6-0.1-2.9-1-4.4-1.6c-1.8-0.8-3.4-2-5.2-2.8c-1.5-0.6-2.8-1.5-4.2-2c-1.8-1.2-4.8-1-5.1-4.1c0.2-2.1,1.4-3.2,3.2-3.9
	c12.7-5.5,25.4-11.1,38-16.7c2.7-1.2,5.2-2.9,7.8-4.3C222,43.4,228.9,47.2,235.1,52z"/>
<path class="st36" d="M28.9,104c1.1-3.8,4.5-5.5,7-8c1.5-0.7,2.8-1.6,4.2-2.4c1.2-0.8,2.4-1.7,3.7-2.5c6.9-4.8,15-5.3,22.9-5.2
	c5.2,0.1,10.6,0.6,15.8,2.1c6,1.9,12.3,2.7,18.2,5.1c4.5,2.4,9.3,3.9,13.9,6c1.9,1.6,6.1,1.1,4.7,5.5c-2.3,1.3-4.8,1.1-7.3,1.1
	c-25.2,0-50.5,0-75.7,0C33.8,105.7,31,106.1,28.9,104z"/>
<path class="st37" d="M398.9,101.2c12.4-6,25.6-9.7,39-13c11.3-4,22.2-2.8,32.9,2.1c1.3,0.6,2.4,1.8,4,1.7c3.5,2.8,7.4,5.2,10,9
	c0.9,1.7-0.1,2.5-1.5,3c-1.4,0.6-2.9,0.6-4.4,0.6c-24.7,0.1-49.4,0.1-74.1,0c-1.7,0-3.3,0-4.9-0.8
	C398.9,103.4,398.1,102.6,398.9,101.2z"/>
<path class="st38" d="M375.9,14.3c-0.2,2.1-2.1,2.4-3.5,3.1c-20.8,9.3-41.7,18.6-62.6,27.9c-13,5.8-26,11.6-39,17.4
	c-3.8,1.7-7.5,3.4-11.8,3.4c30.2-21.1,61.7-39.9,97.8-49.3C362.9,15.1,369.3,13.7,375.9,14.3z"/>
<path class="st39" d="M32.7,180.2c2-1.2,4.1-1.1,6.3-1.1c28.3,0,56.6,0,85,0c2.4,0,4.6,0.4,6.9,1c-0.3,0.7-0.7,1.3-1,2
	c-1.9,3.6-3.7,7.4-8.6,7.7c-26.2-0.4-52.4-0.1-78.5-0.2c-2.3,0-4.7,0.2-6.6-1.5C34.6,185.5,33.3,183,32.7,180.2z"/>
<path class="st40" d="M398.9,101.2c0.5,2.4,2.4,1.9,4,1.9c26.1,0,52.1,0,78.2,0c1.6,0,3.5,0.4,3.8-2.1c1.7,2.7,3.3,5.4,5,8.1
	c-0.4,2.5-2.3,1.9-3.9,1.9c-31.1,0-62.3,0-93.4,0c-1.3,0-2.7,0.2-3.6-1.1c-1.2-1.8-0.2-2.9,1.2-3.8
	C392.3,103.3,395.6,102.3,398.9,101.2z"/>
<path class="st39" d="M483.6,179c-1.3,2.7-2.5,5.3-3.8,8c-1.5,1.1-3.2,0.7-4.8,0.7c-25.3-0.2-50.6-0.1-76-0.1
	c-1.8,0-3.7,0.3-5.5,0.4c-4,0-6-3.2-8.5-5.5c-1-1.5-2.4-3-0.2-4.7c2.1-1.3,4.4-1.4,6.8-1.4c28.1-0.1,56.2,0,84.4,0
	C478.8,176.5,481.7,176.4,483.6,179z"/>
<path class="st27" d="M364.8,158.2c0.8-3.6,3.7-2.1,5.7-2.1c40-0.1,80.1-0.1,120.1-0.1c0.1,2.2-0.7,4.2-1.6,6.1
	c-2.7,1.9-5.7,1.5-8.7,1.5c-33.3,0.1-66.6,0-99.9,0c-3,0-6,0-9,0.4c-3.9,1.2-5.5-1.5-6.9-4.3C364.5,159.2,364.5,158.7,364.8,158.2z"
	/>
<path class="st31" d="M483.6,179c-2.4-0.8-4.8-1-7.3-1c-28.3,0-56.6,0-84.9,0c-2.5,0-5,0.2-7.3,1c-2.9-0.7-4.3-3.2-6.3-5
	c-1-1.5-2-3.1,0.7-4c1.9-0.6,4-0.5,5.9-0.5c31.6,0,63.1,0,94.7,0c2.6,0,5.4-0.5,7.6,1.6C486.3,173.9,483.6,176,483.6,179z"/>
<path class="st41" d="M23.2,125.1c35.1,0,70.1,0,105.2,0c1.9,0,4,0.8,5.6-1c3.6,1.3,4.5,3.8,3,7.3c-2,1.6-4.4,1.4-6.7,1.4
	c-33.5,0.1-67,0-100.5,0c-2.3,0-4.7,0.3-6.6-1.6C23.2,129.1,23.2,127.1,23.2,125.1z"/>
<path class="st42" d="M151,158.1c-2.7-0.8-5.5-1.1-8.3-1.1c-36.7,0-73.5,0-110.2,0c-2.4,0-4.9,0-7.3,0c-0.3-1.4-0.7-2.7-1-4.1
	c1.8-3.2,4.9-2.3,7.6-2.3c35.9-0.1,71.7,0,107.6,0c2.5,0,5,0.2,7.4-0.2c0.5-0.2,1.1-0.4,1.6-0.6c3.5,0.5,4.6,3,4.7,6.1
	C152.4,156.7,151.7,157.4,151,158.1z"/>
<path class="st43" d="M23.2,141.1c0-1.7,0-3.3,0-5c1.6-1.6,3.6-1.6,5.6-1.6c36.8,0,73.7-0.1,110.5,0c4.3,2,4.8,3.2,3.2,7.2
	c-1.7,0.8-3.6,0.7-5.4,0.7c-35.9,0-71.8,0-107.7,0C27.2,142.4,24.9,142.8,23.2,141.1z"/>
<path class="st44" d="M140,135c-1.6,1.8-3.7,1-5.6,1c-37.1,0-74.1,0-111.2,0c0-1.7,0-3.3,0-5c27,0,53.9,0,80.9,0
	c9.3,0,18.6,0,27.9,0c1.7,0,3.7,0.7,5.1-1.1C139.8,130.6,140.3,132.5,140,135z"/>
<path class="st45" d="M382.8,122c1.3,2.8,3.9,2,6.1,2c34.6,0,69.1,0,103.7,0c0,1.7,0,3.3,0,5c-1.7,1.7-4,1.4-6.1,1.5
	c-7.2,0.2-14.3-0.3-21.5,0.3c-11-0.7-21.9-0.6-32.9,0c-0.6,0.1-1.2,0.1-1.9,0c-12.1-0.8-24.1-0.1-36.2-0.4
	c-4.1-0.1-8.3,0.2-12.4-0.2c-0.9-0.2-1.7-0.6-2.2-1.4C378.8,125.7,379.4,123.1,382.8,122z"/>
<path class="st46" d="M486.6,171c-36.6,0-73.2,0-109.8,0c-3.2-0.5-5.2-1.8-3.5-5.5c2.3-1.4,4.8-1.2,7.3-1.2c33.2,0,66.4,0,99.6,0
	c2.6,0,5.4-0.5,7.6,1.6C488.5,167.9,486.7,169.3,486.6,171z"/>
<path class="st47" d="M476.6,195c-1,2.5-1.8,5-3.5,7.1c-2.5,1.8-5.4,1.5-8.2,1.5c-19.6,0.1-39.2-0.2-58.8,0.2
	c-5.1-1.6-7.6-5-6.6-8.9c2-1.5,4.4-1.4,6.7-1.4c21.3,0,42.6,0,63.9,0C472.3,193.5,474.8,193.2,476.6,195z"/>
<path class="st47" d="M42.7,202.1c-1.5-2.2-2.8-4.5-3.5-7.1c1.9-1.9,4.3-1.6,6.6-1.6c21.3,0,42.5,0,63.8,0c2.3,0,4.7-0.1,6.7,1.3
	c1.2,3.9-1.2,7.2-6.5,9c-19.6-0.3-39.3,0-58.9-0.2C48.1,203.6,45.2,203.9,42.7,202.1z"/>
<path class="st48" d="M128.9,114.1c-32.8,0-65.7,0-98.5-0.1c-1.9,0-4.5,1.4-5.4-1.9c-0.1-2,0.9-3.5,2-5c32.6,0.8,65.1,0.4,97.7,0.3
	C128,108.4,129.4,110.6,128.9,114.1z"/>
<path class="st49" d="M404.8,203c1.5-0.8,3.1-1,4.8-1c21.2,0.1,42.4,0.1,63.5,0.1c-0.9,2.9-2.5,5.4-4.2,7.9
	c-1.5,1.2-3.3,1.5-5.1,1.5c-17-0.1-34.1,0.3-51.1-0.2c-4.1-0.5-5.8-4-8-6.8C404.5,204.1,404.5,203.5,404.8,203z"/>
<path class="st50" d="M184.9,75.1c0.3,0,0.7,0,1,0c1,1,2,2,3,3c-1.6,3.4-4.9,3.7-8,4.2c-10.3,1.7-20.6,3.4-31,3.9
	c-16.2,0.8-32.3,0.4-48.5-0.1c-11.4-0.3-22.8-1.3-34.3-0.7c-5.5,0.3-10.9,0.2-16-2.3c0.9-1.7,2.3-3,4-4c3.7-1.8,7.6-0.7,11.3-0.7
	c15.3,0.3,30.6,1.1,45.9,1.7c10.4,0.4,21,1.1,31.3,0.1c10.7-1,21.6-0.8,32-4C178.6,75.4,181.8,75.3,184.9,75.1z"/>
<path class="st26" d="M24.2,151.1c-0.1-2-1.7-3.8-1-6c38,0.8,76,0.2,114,0.4c2.5,0,5-0.2,7.5-0.2c2.9,0.3,4.5,1.8,4.4,4.8l-0.2,0.2
	c-1.5,1.3-3.3,1.4-5.1,1.4c-38.9,0-77.7,0-116.6,0C26.1,151.5,25,151.7,24.2,151.1z"/>
<path class="st48" d="M125.8,108.1c-1.5,1-3.1,1-4.8,1c-29.6,0-59.2,0-88.8,0c-2,0-4.1,0.4-5.2-1.9c-0.2-1.5,0.5-2.5,1.9-3.1
	c28.8,0,57.6,0,86.4,0c1.6,0,3.4,0.5,4.7-0.9c2.4-1.7,4.1-0.4,5.7,1.3C126.3,105.6,127.1,106.8,125.8,108.1z"/>
<path class="st51" d="M146.1,146c-1.8,1.1-3.8,1-5.8,1c-37.1,0-74.2,0-111.4,0c-2.1,0-4.4,0.4-5.7-2c0-0.7,0-1.4,0-2
	c2.1-1.6,4.5-1,6.7-1c35.5,0,71.1,0,106.6,0c2.2,0,4.3,0.2,6.5-0.3C146.1,141.7,146.8,143.3,146.1,146z"/>
<path class="st52" d="M51.1,83.1c13,1.9,26.1,1.1,39.1,1.5c9.9,0.3,20,1.4,30,0.6c4.1-0.3,8.4,0.9,12.3,0.5
	c12.1-1.1,24.3-0.6,36.2-3c6.8-1.4,13.9-0.9,20.2-4.6c1,0.3,2,0.7,3,1c0.1,3.2-2.5,3.6-4.7,4.1c-12.3,2.7-24.9,4.4-37.4,5.8
	c-10.2,1.1-20.5,1.3-30.8,0.9c-10.1-0.3-20.2-1.4-30.3-0.1c-1.9,0.2-4,0.1-5.9-0.6c-6.9-0.5-13.8-2.3-20.8-1.8
	c-6.7,0.5-13.1,1.9-19.1,5c-0.4-0.4-0.4-0.9,0-1.3C45.5,88.1,48,85.3,51.1,83.1z"/>
<path class="st53" d="M154,60.1c3.5,1.3,7.2,2.2,10,5c-0.6,3.2-3.6,2.6-5.6,2.9c-8.1,1.4-16.2,1.6-24.4,1
	c-9.3-0.6-18.6-0.4-27.9-1.1c-10.8-0.9-21.6-0.9-32.3-1.8c-1.5-0.1-2.9-0.6-3.8-2.1c1.3-2.1,3-3.7,5-5c1.1-0.9,2.4-0.8,3.8-0.8
	c9.7,0.6,19.4,1.2,29.2,1.2c9.3,0.1,18.8,0.6,28.2,1.4C142.2,61.5,148.1,61.8,154,60.1z"/>
<path class="st54" d="M487.7,166c-36.4,0-72.8,0-109.2,0c-1.9,0-4-0.8-5.6,1.1c-0.4,0.3-0.8,0.3-1.2,0.2c-1.1-0.8-2.2-1.5-1.8-3.2
	c0.3-2.4,2.2-2.1,3.8-2.1c27.7,0.1,55.4,0.3,83.1,0.3c10.8,0,21.5-0.2,32.3-0.2C488.6,163.4,488.1,164.7,487.7,166z"/>
<path class="st44" d="M492.7,136.1c-37.1,0-74.1,0-111.2,0c-1.9,0-4,0.8-5.6-1.1c-0.8-3.4,0.2-5.3,4-4.9c6.9,1.3,13.9,0.7,20.9,0.7
	c21.3,0.1,42.6-0.1,63.8,0.1c7.3,0,14.6-0.1,21.9-0.2c2.1,0,4.4-0.3,6.1,1.5C492.7,133.4,492.7,134.7,492.7,136.1z"/>
<path class="st55" d="M184.9,75.1c-6.3,3-13.3,4.6-20,4.6c-9.9,0.1-19.4,3-29.3,2.2c-12.8-1-25.8-0.2-38.7-1
	c-12.2-0.7-24.3-0.8-36.5-0.9c-1.8,0-3.6-0.6-5.3-0.9c0.9-1.7,2.3-3,4-4c4-2.5,8.4-1.3,12.7-1.1c15.1,0.9,30.1,2.5,45.2,2.1
	c3.8-0.1,7.6,0.4,11.5,0.5c15.5,0.4,30.9,0,46.1-3.2c2.2-0.5,4.3,0,6.4-0.3C182.3,73.8,183.6,74.4,184.9,75.1z"/>
<path class="st56" d="M154,60.1c-2.6,3.4-6.8,3.1-10,2.8c-8.4-0.9-16.7-0.6-25.1-1.4c-9.6-0.9-19.4-0.4-29.1-0.8
	c-4.9-0.2-9.8-1-14.7-1.6c1.9-2.7,4.2-5.1,7-7c0,0.3,0,0.6,0,0.9c5.5,0.9,11.1-0.3,16.7,0.4c8,0.9,16.1,0.7,24.1,1.3
	c5.4,0.4,10.8,0.6,16.2-0.6c0,0,0-0.1,0-0.1C144.1,55.6,149.2,57.5,154,60.1z"/>
<path class="st57" d="M51.1,218c-1.3-2.3-2.6-4.7-3.9-7c0.8-2.1,2.7-2.4,4.5-2.4c17-0.1,34-0.5,51,0.2c0.3,0,0.6,0.2,0.9,0.3
	c2,0.7,1.8,2.2,0.9,3.6c-1.9,3.1-3.8,6.2-7.8,7.1c-12.7-0.1-25.4,0-38.1-0.1C56.1,219.6,53.4,219.7,51.1,218z"/>
<path class="st58" d="M70,64.1c7.3,0.6,14.6,1.9,21.8,1.6c5.7-0.2,11.3,0.9,17,1.1c3.9,0.1,7.9-0.4,11.9,0.2
	c7.8,1.1,15.9,1.2,23.9,0.9c6.5-0.2,13.1-0.2,19.3-2.9c0.7,0,1.3,0,2,0c1.7,1.7,3.7,2.6,6,3c0.1,2.9-2.1,3.2-4.1,3.2
	c-11.8,0.2-23.5,1.3-35.3,1.6c-17.1,0.5-34.1-2.4-51.2-1.9c-5,0.2-10.7,0.6-15.3-2.9C67,66.4,68.3,65.1,70,64.1z"/>
<path class="st59" d="M180.9,73.1c-6.6,1.7-13.4,2.3-19.9,3.7c-12.1,2.4-24.1,1-36.1,1.2c-12.3,0.1-24.6-0.9-36.8-1.4
	c-9.7-0.3-19.3-2.6-29-1.4c1-1.7,2.2-3.1,3.9-4c5.8-1.2,11.5-0.4,17.3,0.1c18.5,1.6,37.1,2.3,55.7,2.4c13.4,0,26.8-0.7,40-3.4
	C177.6,71.1,179.3,72.1,180.9,73.1z"/>
<path class="st60" d="M476.6,195c-23.8,0-47.6,0-71.4,0c-2.1,0-4.3-0.3-6.3,1c-2.9,0.1-3.6-2.5-5.2-4c-0.4-1.1,0.4-1.6,1.1-2.1
	c2.8-1.5,5.8-1.4,8.8-1.4c22.1-0.1,44.2,0.1,66.3,0c3.1,0,6.4-0.6,8.7,2.5C477.9,192.4,477.3,193.7,476.6,195z"/>
<path class="st57" d="M410.8,210c19.4,0,38.8,0,58.1,0c-1.4,2.7-2.8,5.3-4.2,8c-1.7,1.1-3.5,0.6-5.3,0.6
	c-13.7,0.1-27.4-0.6-41.1,0.5c-2.9-0.1-4.2-2.4-5.9-4.2C411.5,213.5,410.2,212.1,410.8,210z"/>
<path class="st61" d="M51.1,218c13.6,0,27.3,0,40.9,0c2,0,4-0.3,5.8,1c-0.6,5-3.1,8.4-8,9.9c-9.1-0.8-18.3-0.4-27.4-0.4
	c-1.8,0-3.7,0.5-5.3-0.6C54.6,224.9,52.8,221.5,51.1,218z"/>
<path class="st62" d="M175.9,70.1c-1.5,3-4.4,1.5-6.6,2.1c-7.5,2.1-15.2,1.2-22.7,2.3c-10.3,1.5-20.7,0.4-30.9,0.3
	c-16.6-0.2-33.2-1.8-49.8-2.9c-1-0.1-1.9-0.5-2.9-0.8c0.7-1.3,1.7-2.3,3.1-3c10.6,2.3,21.5,1,32.2,2c8.3,0.8,16.7,1.2,25,1.6
	c5.9,0.2,12.1-0.3,18.1-0.4c8.5-0.2,16.9-1.6,25.4-1.2c2,0.1,4.1,0.4,5.2-2C173.3,68.6,174.2,70.2,175.9,70.1z"/>
<path class="st63" d="M478.6,191c-2.4-0.8-4.8-1-7.3-1c-21.3,0.1-42.6,0-63.9,0c-4.5,0-9-0.3-13.4,1c-2-0.5-3.2-1.6-2.4-3.9
	c2.9-0.9,5.8-1.1,8.8-1.1c23.7,0.1,47.4,0.1,71.1,0c2.8,0,5.6,0.2,8.3,1C480.3,188.6,479.1,189.7,478.6,191z"/>
<path class="st64" d="M416.8,218c14.6-2.1,29.4-0.5,44-0.9c1.3,0,2.5,0.6,3.8,0.9c-1.6,2.7-3.2,5.3-4.8,8c-2,1.2-4.2,0.5-6.3,0.5
	c-9.8,0-19.6-0.3-29.3,0.4C420.1,225.4,417.5,222.5,416.8,218z"/>
<path class="st65" d="M57,228c11.3-1.6,22.6-1.6,34,0c-1.4,5.7-4.3,10.3-9.9,12.9c-5.4-1-11,0.1-16.4-0.8
	C61.7,236.4,59.3,232.3,57,228z"/>
<path class="st60" d="M116.6,196c-1.7-1.4-3.8-1-5.8-1c-23.9,0-47.8,0-71.7,0c-0.4-1-0.9-2-1.3-3c1.9-2.3,4.6-2.5,7.3-2.5
	c22.2,0,44.5-0.1,66.7,0c2.3,0,4.6,0.3,6.7,1.6C120.4,193.8,119.2,195.2,116.6,196z"/>
<path class="st66" d="M423,226c12.3-1.5,24.6-1.7,36.9,0c-1.8,3-3.6,6-5.4,9c-2.4,1.9-5.3,1.5-8,1.5c-5.1,0-10.1,0.3-15.2-0.2
	c-4.2-0.8-5.2-5-7.8-7.5C423,228,422.3,227.1,423,226z"/>
<path class="st49" d="M42.7,202.1c21.3,0,42.6-0.1,63.9-0.1c1.5,0,3,0.2,4.3,1c-0.2,3.2-2.3,4.4-5.1,4.8
	c-18.4-0.5-36.9-0.2-55.3-0.2c-1.8,0-3.7,0.5-5.3-0.6C44.3,205.4,43.5,203.8,42.7,202.1z"/>
<path class="st60" d="M119.2,192.1c-14.5-2.2-29.1-0.7-43.7-1c-7.4-0.2-14.9-0.1-22.3-0.1c-5.1,0-10.3-0.3-15.3,1
	c-1.2-1.1-1.7-2.5-1.8-4c26.8,0,53.7,0,80.5,0c2.1,0,4.3-0.3,6.3,1C123,191.7,121.1,191.9,119.2,192.1z"/>
<path class="st45" d="M492.7,132.1c-28.4,0-56.7,0-85.1,0c-7.9,0-15.9,0-23.8,0c-2,0-4.1,0.1-5-2.3c-0.4-1.1-0.3-1.8,1.1-1.8
	c0.3,0.4,0.7,0.7,1,1.1c7.7,1.1,15.5,0.3,23.2,0.5c8.9,0.3,17.9-0.6,26.8,0.5c0.3,0,0.7,0,1,0c11-0.8,22-0.8,33,0
	c4.7-2,9.7-0.7,14.6-1c4.4-0.2,8.8,0,13.3,0C492.7,130.1,492.7,131.1,492.7,132.1z"/>
<path class="st67" d="M45.1,207c2.2-0.6,4.4-1,6.8-1c16.4,0.1,32.8,0.1,49.1,0c2.2,0,4.3,0,6.3,1.1c0.4,1.9-0.1,3-2.3,2.9
	c-17.5,0-35.1,0-52.6,0c-1.8,0-3.7-0.1-5.3,1C46.5,209.7,45.8,208.3,45.1,207z"/>
<path class="st51" d="M144,142c-2.1,1.3-4.5,1-6.8,1c-38,0-76.1,0-114.1,0c0-0.7,0-1.3,0-2c40,0,79.9,0,119.9,0
	C143.9,140.9,144.2,141.2,144,142z"/>
<path class="st68" d="M105,226c-1.6,3-4.5,5.4-5,9c-0.2,1.3-1.1,2-2,2.8c-8.9,5.9-15.3,14.5-22.8,21.8c-1.9,1.3-3.3,3-4.8,4.8
	c-1.3,1.6-2.8,3.4-5.2,1.7c2.7-4.4,5.3-8.8,8-13.1c0.2-2.3,1.4-3.8,3.5-4.6c3-1.4,4.8-4,6.7-6.4c6-7.4,14-12.9,20.1-20.4
	c1.3-1.6,3-3.3,5.5-1.5C107.6,222,106.3,224,105,226z"/>
<path class="st69" d="M474.8,92c-0.4,0.6-1,1.2-1.6,0.8c-11.1-6.6-23.2-5.7-35.4-4.5c1.3-3.6,5-3.4,7.6-4.9
	c4.3-2.3,8.8-4.2,13.2-6.2C464.5,81.6,468.8,87.8,474.8,92z"/>
<path class="st70" d="M429.8,235c8.2,0,16.4,0,24.7,0c-2.6,4-5.2,8-7.9,12c-2.6,1.2-5.2,1-7.9,0.1c-2.7-1.7-3.1-5.4-5.9-7.1
	C430.8,239,429.5,237.5,429.8,235z"/>
<path class="st71" d="M89,254c-1.6,1.3-2.1,3.4-3,5.1c-2.8,5.2-7.2,8.7-11.6,12.5c-7,6.2-14.2,12.3-20.7,19.2
	c-1.3,1.4-2.4,3.3-4.8,3.1c0.4-2.3,1.8-4.2,3.3-5.9c9.8-9.1,18.6-19.3,28.7-28.1c1.7-1.5,2.6-3.4,3.3-5.5c1.4-2.1,2.6-4.6,5.9-3.6
	C91,252.3,90.1,253.2,89,254z"/>
<path class="st72" d="M76.8,248.8c-1.2,1.4-2.4,2.7-3.7,4.1c-3.1-4.1-6.1-8.2-8.4-12.7c5.8-2,11.6-1.4,17.4-0.1
	C82.1,244,79.6,246.5,76.8,248.8z"/>
<path class="st26" d="M24.2,151.1c38.8,0,77.5,0,116.3,0c2.8,0,5.6,0,8.4-0.9c-0.9,3.3-3.6,1.8-5.4,1.8c-37.7,0.1-75.3,0.1-113,0.1
	c-2.1,0-4.4-0.4-6.3,1C24.2,152.4,24.2,151.7,24.2,151.1z"/>
<path class="st71" d="M85,255c-0.2,2.1-1.1,3.9-2.7,5.1c-4.7,3.6-8.2,8.6-12.7,12.4c-5.1,4.4-8.8,10.2-14.5,13.9
	c-1,0.6-1.7,1.5-3,1.6c1.2-2.9,2.7-5.6,4.7-8c5-4.5,9.3-9.8,14-14.6c3.7-1.9,5.8-5.7,8.9-8.2C81.2,255.9,82.4,253.6,85,255z"/>
<path class="st73" d="M71,266c-4.1,5.3-7.7,11-14.2,13.9c2.2-5,5.2-9.5,8.4-13.9c2.3,0.2,3.6-1,4.7-2.8c1.2-2,2.5-3.9,5.1-4.2
	c0.1,0.2,0.3,0.4,0.4,0.5C75.4,262.7,73.2,264.3,71,266z"/>
<path class="st74" d="M438.8,247.1c2.6-1.3,5.2-0.5,7.9-0.1c-1.3,2-2.6,4-4,5.9C440.8,251.4,439.5,249.4,438.8,247.1z"/>
<path class="st48" d="M40,94.2c-0.8,1.8-2.4,2-4.1,1.9c1-1.5,2.1-2.8,4.1-2.8c0.3,0.2,0.4,0.4,0.3,0.6C40.2,94.1,40.1,94.2,40,94.2z
	"/>
<path class="st75" d="M40,94.2c-0.1-0.3-0.1-0.6,0-0.9c0.4-1.6,1.5-2.1,3-2.3c0,0.4,0,0.9,0,1.3C42.4,93.5,41.3,94,40,94.2z"/>
<path class="st76" d="M478.8,397c0.9-1.8,2.4-3,3.9-4.1c10.5,8.1,14.7,19.6,15.8,31.9c1,11.7-3,22.7-10.9,31.7
	c-11.6,13.2-26.3,21.4-42.5,27.9c-11.8,4.8-23.8,8.9-36.1,10.9c-14.8,2.5-29.2,6.6-44.2,8c-13.8,1.2-27.6,2.6-41.3,4.4
	c-6.1,0.8-12.3,0.2-18.4,0.3c-1.7,0-3.7-0.7-5.2,1c-29,0-58,0-87,0c-1.3-1.5-3.1-1-4.7-1c-19.8,0.3-39.2-2.9-58.8-4.5
	c-11.8-1-23.2-3.8-34.6-5.9c-15.7-2.9-31.5-6-46.3-12.8c-7.3-3.4-15.4-5.8-22-10C30,464,15.3,451,14.3,429.5
	c-0.6-12.7,3-24.9,13.2-34c1.5-1.3,3-2.7,3.6-4.7c3.5,0.5,5.3,2.5,5.4,6c-2.1,3.8-5.2,6.8-7.4,10.6c-8.8,15.1-7.4,31.2,3.5,44.9
	c9.4,11.8,21.5,19.5,35.1,25.4c13.6,5.9,27.5,10.8,42.1,13.8c12.5,2.6,25,5,37.8,6.1c6.8,0.6,13.3,2.9,20.1,3.4
	c9.6,0.7,19.3,2,28.8,2.2c22.1,0.4,44.2,3.1,66.3,2.4c18.1-0.6,36.2-1.3,54.3-2.4c12.5-0.8,25.3-0.6,37.6-3.5
	c11.3-2.7,23-3.2,34.4-5.3c20.3-3.8,40.1-9.3,58.9-17.9c15.1-6.9,28.4-16.2,36.7-31c6.8-12.1,7.2-24.7-0.3-36.9
	c-1.7-2.8-3.1-5.9-5.3-8.4C478.2,399.3,478,398.1,478.8,397z"/>
<path class="st77" d="M35.9,396.1c-1.6-1.8-3.2-3.5-4.9-5.3c-0.7-1.6-1.4-3.2-2.1-4.8c10.5-4.6,20.9-9.1,31.4-13.7
	c23.9-10.6,47.8-21.3,71.8-31.7c1.2-0.5,3.4-3.2,4.8,0.2c-1.1,6.4-5.1,11.3-8.2,16.7c-0.7,1-1.6,1.9-2.8,2.4
	c-14.5,5.4-28.4,12.3-42.6,18.3C68.5,384.5,54,391.7,39,397.6c-0.5,0.1-1,0.1-1.5,0C36.8,397.3,36.3,396.7,35.9,396.1z"/>
<path class="st78" d="M76.8,248.8c1.8-2.9,3.5-5.8,5.3-8.7c3.5-3.6,6.1-7.9,8.9-12c2.7-2.7,5-5.7,6.8-9c2.6-2.8,5.3-5.6,7.3-9
	c1.2-0.6,1.8-1.7,2.3-2.9c1.2-1.4,2.4-2.8,3.6-4.1c2-2.3,4.4-4.2,5.8-7c0.9-1.2,2.6-2,2.5-3.9c1.2-1,2.4-2.1,3.6-3.1
	c2.3-2.3,4.6-4.7,7-7c2.4,0.9,1.6,2.4,0.7,3.9c-0.6,1-2.3,1.8-0.6,3.2c-3.3,6.6-8.6,11.8-12.5,18c-0.6,1-1.5,1.8-1.5,3
	c-3.1,2.8-5,6.4-7,10c-3-0.4-4.6,1.8-6.1,3.7c-6.9,8.3-15.8,14.6-22.4,23.2C79.7,247.8,79.1,250.2,76.8,248.8z"/>
<path class="st0" d="M144,142c-0.3-0.3-0.7-0.7-1-1c-0.3-2.4-1.7-4.2-3.1-6c-1.2-1.5-1.1-3.9-3-5c-0.4-2.3-1.6-4.2-3-6
	c-1.7-3.3-2.7-6.9-5.1-9.9c-1-2-2.1-4-3.1-6c0.6-1.2-0.6-1.9-0.8-3c2.1-1.5,3.6,0.3,5.4,0.8c2.9,1.5,5.9,2.9,8.8,4.5
	c2.4,2.2,6,2.6,7.8,5.6c5.3,3.1,10.6,6.2,15.9,9.3c2.6,2.9,6.1,4.3,9.3,6.2c2.9,1.7,3.2,3.3,0.9,5.6c-5.9,4.5-10.6,10.3-16,15.3
	c-1.3,1.2-2.7,2.3-4,3.5c-1.4-2-2.7-4-4.1-5.9c-1-1.3-2-2.7-2.9-4C145.9,144.4,145.4,143,144,142z"/>
<path class="st79" d="M89,254c0.3-1,0.7-2,1-3c-0.8-3.5,2.5-5.3,3.2-8.1c1.2-2.2,2.7-4.3,4.8-5.9c0.4-1,1-1.6,2-2
	c6.2-0.5,11.2-4.1,16.6-6.4c25.7-11.1,51.3-22.6,77-33.9c19.4-8.6,38.8-17.4,58.2-26c21.8-9.7,43.7-19.2,65.6-28.9
	c9.9-4.4,19.7-8.8,29.6-13.2c1.5-0.7,3-2.4,5-0.7c-0.9,2.8-3.6,3.6-5.8,4.9c-3.1,1.7-4.2,3.5-1.2,6.3c0.8,0.7,1.6,1.7,1,3
	c-11.4,5-22.8,10-34.1,15.1c-22.8,10.1-45.5,20.1-68.3,30.2c-18.2,8.1-36.4,16.2-54.6,24.2c-23.2,10.3-46.4,20.5-69.6,30.9
	C109.2,244.9,99.1,249.5,89,254z"/>
<path class="st0" d="M345.9,140.1c-5.8-6.5-5.8-6.5,1.9-11.5c1.4-0.9,2.7-1.8,4.1-2.7c11.3-6.2,22.5-12.5,33.8-18.6
	c1.2-0.7,2.5-2.5,4.3-1.1c-0.4,1.3-0.8,2.6-1.2,3.8c-2.4,3.8-4.5,7.8-6,12c-1.5,1.7-2.7,3.6-3,5.9c-1,0.3-1.1,1-1.1,1.8
	c-1.4,1.5-2.5,3.1-2.9,5.2c-2.2,2.4-3.5,5.3-4.9,8.2c-2.7,4.3-5.4,8.5-8.2,12.8c-0.8,0.7-1.4,0-2.1-0.4c-0.4-0.4-0.7-0.9-0.8-1.5
	c-2.1-2-4.1-4-6.2-6C351.6,144.8,348.8,142.4,345.9,140.1z"/>
<path class="st33" d="M147,116c-2.8-1.4-5.9-2.3-8.2-4.7c-0.1-3.2,2.7-3.4,4.6-4.4c5.4-2.7,11.6-2.8,17.4-4.4
	c10.2-2.8,20.7-4.9,30.6-8.9c5.8-2.3,12.5-1.4,18.5-3.6c0.3,0.2,0.7,0.3,0.9,0.5c1.1,1.5,4.5,1.5,3.6,4.1c-0.8,2.3-3.5,1.2-5.4,1.4
	c-9.9,1.1-19.2,4.5-28.7,7.3c-8.8,2.6-17.2,6.8-26.4,8.3C151.1,112.1,148.4,113.2,147,116z"/>
<path class="st80" d="M209.9,90.1c-2.4,4-6.4,2.8-9.9,3.1c-7.9,0.6-14.7,4.8-22.3,6.5c-9.5,2.1-18.7,5.2-28.4,6.6
	c-3.9,0.6-7.7,2.1-10.6,5.1c-2.9-1.5-5.9-3-8.8-4.4c-1-3.2,1.8-3.5,3.5-4.2c4.8-1.9,10-2.5,15.1-2.9c8.7-0.7,16.9-3.1,25.1-5.7
	c10.5-3.3,21.1-5.7,32.1-6c0.7,0.3,1.3,0.7,2,1C208.6,89.4,209.3,89.7,209.9,90.1z"/>
<path class="st0" d="M230.9,224.8c7.5-6.3,14.2-13.5,21.1-20.4c2.9-0.5,3.7-6,7.9-3.5c0.2,0.1,0.4,0.1,0.6,0.1
	c1.1,0.6,2,1.5,3.1,2.1c1.1,0.7,2.1,1.6,3,2.5c2.3,2.3,4.5,4.5,6.8,6.7c2.3,2.4,4.7,4.7,7.1,7.1c2.9,3,5.9,6,8.9,8.9
	c2.6,2.8,5.4,5.3,8,8.1c0.6,0.8,1,1.6,0.9,2.6c-2.8,6.1-8.6,9.5-12.7,14.4c-2.8,2.3-4.5,5.6-7.1,8c-2.7,2.6-5.4,5.3-8,8
	c-2.5,2.6-5.7,4.3-8.1,7.1c-5.1,4.8-5.2,4.8-9.2,0c-2.6-2.4-5.5-4.5-7.9-7.1c-2.6-2.7-5.3-5.4-8-8c-3.1-2.6-5.1-6.2-8.2-8.8
	c-2.8-3.2-5.9-6.2-8.8-9.2c-1.2-1.2-2.9-2.3-2.4-4.5C221.4,233.6,226.2,229.2,230.9,224.8z"/>
<path class="st14" d="M359.9,154c0.3,0.3,0.7,0.7,1,1c0.3,3.1-2.1,3.9-4.2,4.8c-20.9,9.3-41.9,18.6-62.8,28
	c-8.8,3.9-17.6,7.9-26.4,11.7c-2.3,1-4.6,3-7.4,1.5c0,0-0.1-0.1-0.1-0.1c0-2.3,1.9-2.9,3.6-3.6c23.3-10.3,46.6-20.6,69.8-31
	C342.2,162.3,351.4,159,359.9,154z"/>
<path class="st81" d="M246.1,268.7c2.6,2.5,5.2,4.9,7.8,7.4c-0.6,3.8-3.6,3.4-6.1,3.4c-9.1,0.2-18.3,0.1-27.4,0.1
	c-9.5,0-19,0.1-28.4,0c-2.6,0-5.5,0.4-7-2.6c0.4-1,0.8-1.9,1.2-2.9c2.7-1.3,3.5-4.5,5.9-6c15.4,0.9,30.8,0.2,46.2,0.4
	C240.8,268.5,243.4,268.5,246.1,268.7z"/>
<path class="st82" d="M246.1,268.7c-1.1,1.7-2.9,1.3-4.5,1.3c-15.1,0-30.2,0-45.2,0c-1.6,0-3.9,0.8-4.4-1.9c2.3-2.7,4.1-5.9,7-8
	c11.8,0.8,23.6,0.6,35.4,0.3c1.3,0,2.7,0.1,3.9,0.6C241.1,263.2,243.7,265.8,246.1,268.7z"/>
<path class="st83" d="M238.2,260.9c-10.9,2.4-22,0.5-33,1.1c-2.3,0.1-4.6,0-6.3-2c2.3-2.7,4.7-5.3,7-8c8,0.9,16,0.7,24,0.3
	C233.1,254.7,235.5,258,238.2,260.9z"/>
<path class="st84" d="M229.9,252.3c-3.2,2.7-21.4,2.5-24-0.3c1-1.3,2-2.7,3-4c3.6-2.4,5.8-6.2,8.9-9
	C221.9,243.5,225.9,247.9,229.9,252.3z"/>
<path class="st85" d="M406.8,396c0.2,3.3,3,5.6,3,9c-2.7,2.4-6,1.6-9.1,1.6c-57,0-113.9,0-170.9,0c-38.3,0-76.6,0-114.9,0
	c-2.8,0-5.7,0.3-8.4-0.8c-2.5-4-1.6-7.1,3-10.8c2.4-0.8,4.9-0.7,7.4-0.7c93.7,0,187.5,0,281.2,0C401.2,394.3,404.3,393.8,406.8,396z
	"/>
<path class="st86" d="M406.8,396c-99.3,0-198.6,0-297.9,0c-0.6-5,0.8-7.9,5.1-10.3c2.6-0.5,5.3-0.4,8-0.4c90.4,0,180.8,0,271.2,0
	c3.3,0,6.7-0.7,9.6,1.6C404.8,389.7,406,392.7,406.8,396z"/>
<path class="st87" d="M106,404.9c101.3,0,202.6,0,303.9,0c0.7,1,1.3,2,2,3c0,1,0,2,0,3c-2.7,2.2-6,1.6-9.1,1.6
	c-63,0-125.9,0-188.9,0c-33.5,0-67,0-100.5,0c-2.8,0-5.7,0.3-8.4-0.7c-2.9-1.9-1.8-4.3-0.6-6.6C104.8,404.8,105.3,404.6,106,404.9z"
	/>
<path class="st88" d="M402.9,387c-96.6,0-193.3,0-289.9,0c-1.4-2.5-0.7-4.4,1.8-5.7c92.2,0.1,184.3,0,276.5,0.1
	c3.3,0,6.7-0.6,9.7,1.6c0.3,0,0.6,0,1,0C402.2,384.3,402.5,385.6,402.9,387z"/>
<path class="st89" d="M348.9,299c3.4,2.1,4.1,6.4,7,9c0,0.3,0,0.7,0,1c-1.9,1.9-4.3,1.6-6.6,1.6c-61,0-121.9,0-182.9,0
	c-2.3,0-4.7,0.2-6.6-1.6c1.5-4,4.2-7,7.1-10c50.5,0.9,101,0.2,151.5,0.4C328.6,299.4,338.7,299.6,348.9,299z"/>
<path class="st90" d="M348.9,299c-1.7,2-4,2-6.4,2c-56.4,0-112.8,0-169.1,0c-2.4,0-4.7,0-6.4-2c1-1.7,2-3.3,3-5c1-1,2-2,3-3
	c10.1,0.7,20.3,0.4,30.4,0.4c45.9,0,91.7,0.1,137.6-0.1c0.7,0,1.3-0.1,2-0.2c1.4,1.6,2.7,3.3,4.1,4.9C347.6,297,348.2,298,348.9,299
	z"/>
<path class="st91" d="M359.9,314c1.3,2,2.7,4,4,6c-0.3,2.3-2.2,2.2-3.7,2.5c-1.6,0.3-3.3,0.2-5,0.2c-64.9,0-129.7,0-194.6-0.1
	c-3,0-6.8,1.6-8.7-2.6c0-0.7,0.1-1.3,0.1-1.9c2.2-1.1,2.5-4.2,4.9-5.1c5.3,0.5,10.6,0.4,15.9,0.4c60.4,0,120.7,0,181.1,0
	C355.9,313.3,357.9,313.3,359.9,314z"/>
<path class="st92" d="M359.9,314c-1.8,1.1-3.8,1-5.8,1c-63.9,0-127.9,0-191.8-0.1c-1.9,0-4.6,1.3-5.3-2c0.1-2,1.4-3,3-4
	c65.3,0,130.7,0,196,0C358,310,358.9,312,359.9,314z"/>
<path class="st93" d="M342.8,291.1c-1,2.1-2.9,1.9-4.7,1.9c-53.8,0-107.5,0-161.3,0c-1.6,0-3.5,0.5-3.9-2c1.7-2,2.8-4.5,5-6
	c2.8,0.3,5.6,0.4,8.5,0.4c50,0,100,0,150.1,0c0.5,0,1-0.2,1.4-0.4C340.4,286.4,340.9,289.3,342.8,291.1z"/>
<path class="st94" d="M184.8,276.9c1.8,1.1,3.8,1.1,5.8,1.1c19.2,0,38.4,0,57.6,0c2.1,0,4.4,0.6,5.7-1.9c2.7,5.5,5.4,2.2,8.1,0
	c22.7,0.7,45.4,0.2,68.2,0.3c5.1,1.8,6.5,4.2,4.6,7.6c-2.4,0.9-4.9,0.7-7.4,0.7c-46.3,0-92.6,0-138.9,0c-2.9,0-6.1,0.7-8.6-1.6
	C180.4,280.1,182.8,278.7,184.8,276.9z"/>
<path class="st95" d="M179.8,283c52,0,104,0,156.1,0c0.5,0.1,0.9,0.4,1,1c0.3,0.4,0.7,0.7,1,1.1c-0.4,2.5-2.4,1.9-3.9,1.9
	c-50.7,0-101.5,0-152.2,0c-1.6,0-3.5,0.4-3.8-2C178.6,284.3,179.2,283.6,179.8,283z"/>
<path class="st96" d="M414.8,420.9c0.3,1.7,0.7,3.3,1,5c-2,2.6-4.9,2.5-7.7,2.5c-20.6,0-41.3,0-61.9,0c-79.4,0-158.7,0-238.1,0
	c-2.6,0-5.3,0.5-7.8-0.9c-2.3-2.7-1.4-5,0.9-7.2c2.3-1.2,4.9-1,7.3-1c99.6,0,199.1,0,298.7,0C409.8,419.3,412.6,419,414.8,420.9z"/>
<path class="st97" d="M414.8,420.9c-104.6,0-209.2,0-313.8,0c-1.6-2.4-0.5-4.3,1.2-6.1c3.2-2.1,6.8-1.5,10.2-1.5
	c70.4,0,140.9,0,211.3,0c27.1,0,54.3,0,81.4,0c3.1,0,6.5-0.6,8.6,2.6C414.1,417.6,414.5,419.3,414.8,420.9z"/>
<path class="st98" d="M416.8,430.9c0,1.3,0,2.7,0.1,4c-2.6,2.1-5.7,1.6-8.6,1.6c-45.8,0-91.7,0-137.5,0c-3.6,0-7.3-0.2-10.8,1.1
	c-1.9,0.7-3.7,1.2-5.8,0.7c-3.4-1-6.9-0.7-10.4-0.7c-45.4,0-90.7,0-136.1,0c-3,0-6,0.5-8.7-1.2c-1.6-2.2-1.6-4.4-0.1-6.7
	c1.9-1.4,4.1-1.2,6.2-1.2c101.5,0,203,0,304.6,0C412.3,428.5,415.1,428,416.8,430.9z"/>
<path class="st99" d="M471.8,403.8c0.8-1.2,1.6-2.3,3-2.9c9.3,10.8,11.6,23.3,8.1,36.8c-4,15.2-15.3,24.3-27.8,32.6
	c-10.6,7-22.5,10.3-34.1,14.7c-16.1,6.1-33,8.8-49.8,11.6c-15.9,2.7-32,3.6-47.9,5.5c-22.8,2.7-45.8,1.9-68.8,2.1
	c-19.3,0.1-38.6-0.1-57.9-1.2c-9.3-0.5-18.4-2.8-27.7-3.3c-7.5-0.4-14.8-1.5-22.2-2.6c-11.7-1.6-23.2-3.9-34.8-6.1
	c-9.7-1.9-18.7-5.9-28.1-8.6c-15-4.3-28.5-12-40.1-22.5c-17.6-16-21.5-39.5-5.3-61c2.8-0.9,3.6,1,4.4,3c0.4,2.5-1,4.5-2.1,6.5
	c-7.7,13-5.8,34.1,6.5,45.6c11.6,10.8,24.8,18.7,39.9,23.7c7.3,2.4,14.5,4.7,21.9,6.8c13.7,3.9,27.8,6.1,41.9,8.2
	c8.2,1.2,16.5,1.1,24.6,3.1c6.6,1.6,13.6,0.8,20.3,1.3c24.5,1.7,49,4.3,73.7,3.1c11.8-0.6,23.6-0.9,35.2-2.6
	c5.6-0.8,11.3-0.9,16.9-0.9c10,0,19.8-1.8,29.7-2.6c7.7-0.6,15.5-1.6,23.2-3c14.7-2.7,29.2-6.2,43.4-10.7
	c17.2-5.4,32.9-13,46.4-25.3c12.8-11.6,15.3-31.7,8.3-45.4C471.8,408,470.5,406.1,471.8,403.8z"/>
<path class="st100" d="M39,399.3c-0.6,5-4.4,8.4-6.3,12.8c-7.9,18.9,1.3,39.6,15.8,50.2c9.9,7.3,20,14.3,31.9,17.7
	c10,2.8,19.6,6.8,29.8,9.3c10.4,2.5,21,4.3,31.5,6.1c6.3,1.1,12.7,2.4,19.1,2.5c10.6,0.2,21,2.5,31.6,3.4c7.4,0.6,14.8,1.6,22.3,1.6
	c27.8,0.2,55.6,0.5,83.4-0.1c12.2-0.3,24.5-0.7,36.5-3.5c3.8-0.9,7.9-1,11.8-1.1c13.8-0.5,27.2-3.2,40.7-5.4c12-2,23.8-5.2,35.3-9.4
	c6.1-2.2,12.3-4.1,18.1-6.8c14.2-6.7,27.9-14.2,36.3-28.2c8.1-13.5,8.8-27.5,0.6-41.5c-1.1-1.8-2.3-3.7-2.6-5.9
	c0.7-0.6,1.4-1.2,2.1-1.9c1.6,0.2,2.7,1.4,3.5,2.6c10.3,15.2,14.2,29.6,1.4,48.4c-8.4,12.4-20.3,20.4-33.5,26.5
	c-15.1,7-30.8,12.3-47.1,15.7c-12.6,2.6-25.3,4.9-38.2,6.1c-5.3,0.5-10.3,2.1-15.6,2.7c-8.4,1-16.9,0.3-25.2,2.3
	c-5.6,1.3-11.2,1-16.9,1c-16.1,0-32.2,1.6-48.3,1.6c-20,0-39.9-1.2-59.8-2c-12.6-0.5-25.5-1.4-38-3.7c-11.2-2.1-22.6-3.1-33.8-5.1
	c-21.8-3.9-43-9.8-63-19.5c-14-6.8-26.5-16-34.2-30.2c-6.6-12.3-7.4-24.5,0.3-36.8c2.6-4.1,4.5-8.6,8.5-11.6c0.2,0,0.5,0,0.7,0
	C38.8,397.4,39,398.3,39,399.3z"/>
<path class="st101" d="M471.8,403.8c0.4,1.1,0.6,2.3,1.1,3.3c10.1,17.5,5.1,39.9-11,52.5c-13.1,10.2-27.5,17.5-43.3,22.2
	c-7.1,2.1-14.1,4.9-21.3,6.3c-11.8,2.2-23.6,4.6-35.6,6.2c-14.4,1.9-28.9,3.4-43.3,4.4c-9.4,0.6-18.8,1.5-28.2,2.2
	c-15.1,1.1-30.2,1.6-45.3,1.1c-12.6-0.5-25.1-1-37.6-2.8c-5.4-0.8-11-0.9-16.3-0.8c-10.2,0.2-20.2-1.7-30.2-2.7
	c-8.6-0.9-17.5-1.1-25.9-3.9c-3.5-1.2-7.2-1-10.8-1.7c-13.6-2.4-26.5-6.9-39.4-11.4c-16.8-5.9-32.7-14.3-43.2-29.3
	c-9.5-13.5-9.3-28.3-1.3-42.8c0.8-1.4,2.1-2.6,1.8-4.5c3.2-0.5,3.8,1.9,4.5,4.1c-3.9,7-6.6,14.4-6.1,22.6c0.5,7.9,3.4,14.5,8.5,20.7
	c11.2,13.5,25.9,21.2,42,27c13.6,4.7,27.4,8.6,41.6,11.4c14.4,2.9,28.9,4.6,43.3,6.1c10.8,1.2,21.8,2.3,32.7,2.7
	c19.1,0.6,38.2,0.6,57.4,0.9c15.5,0.2,30.9-0.7,46.4-1.4c13.2-0.6,26.4-2.1,39.6-3.8c12-1.6,24-3.1,35.8-5.7
	c11.3-2.5,22.4-6,33.5-9.4c9.2-2.8,17.3-7.6,25.5-12.1c9.8-5.3,17.6-13.1,22.9-23c5.1-9.6,4.6-19.5,0.6-29.4
	c-0.8-1.8-1.9-3.6-1.2-5.7C469.4,405.5,470.5,404.6,471.8,403.8z"/>
<path class="st102" d="M258.9,436.9c2-2.3,4.8-1.9,7.4-1.9c50.2,0,100.3,0,150.5,0c0,2.7,0,5.3,0,8c-2.6,2.1-5.7,1.6-8.6,1.6
	c-41.1,0-82.2,0-123.3,0c-3.8,0-7.7,0.1-11.4,0.9c-0.8,0.3-1.7,0.4-2.5,0.3c-1.6-0.2-2.8-1.2-4.1-2c-1.2-0.7-2.4-1.4-3.5-2.2
	C261.7,440.3,259.4,439.4,258.9,436.9z"/>
<path class="st103" d="M413.8,415.9c-1.8-1.1-3.8-1-5.8-1c-100.1,0-200.1,0-300.2,0c-2,0-4-0.1-5.8,1c-1-2.3-0.8-4.2,2-5
	c102.6,0,205.3,0,307.9,0C412.5,412.6,413.1,414.3,413.8,415.9z"/>
<path class="st104" d="M271.9,445c2.5-2.1,5.5-2,8.4-2c45.5,0,91,0,136.5,0c0,1.7,0,3.3,0.1,5c1.1,1.9,0.4,3.1-1.3,4
	c-2.8,0.9-5.6,0.6-8.4,0.6c-40.4,0.1-80.9-0.1-121.3,0.1c-0.6,0.2-1.1,0.3-1.7,0.3c-1.1,0-2.1-0.3-3.1-0.7c-1.1-0.5-2.1-1-3.1-1.6
	c-0.9-0.6-1.7-1.3-2.6-1.8c-1-0.7-2.1-1.4-3-2.2C271.9,446.1,271.5,445.7,271.9,445z"/>
<path class="st76" d="M36.9,397.1c-2.5,4.2-4.8,8.6-7.5,12.7c-7.5,11.4-6.6,22.9-0.6,34.3c9.9,18.5,26.7,28.4,45.4,35.7
	c13.1,5.2,26.5,9.6,40.3,12.4c12,2.4,24.2,3.7,36.1,5.9c15,2.8,30.3,2.2,45.2,5.6c0.8,0.2,1.7,0.1,2.5,0.2c28.8,1,57.5,1.8,86.3,0.8
	c17-0.6,34-1.4,51-3.3c16.7-1.9,33.3-4.7,50.1-6.6c8-0.9,16-2.7,23.7-5.1c14.9-4.5,29.9-8.8,43.6-16.5c12.6-7,23.8-15.6,30.7-28.8
	c6.1-11.6,7.1-23.2-0.5-34.7c-2.3-3.4-3.5-7.6-6.4-10.6c0.6-0.7,1.3-1.4,1.9-2.1c2.2,3.7,4.2,7.4,6.6,10.9c7,10.2,7.2,27.6,0.6,38.2
	c-9.7,15.5-23.6,25.6-40.2,32.7c-10.5,4.5-21.1,8.7-32.1,11.4c-5.9,1.5-11.7,3.5-17.9,3.9c-4.4,0.3-8.7,1.6-13.1,2.2
	c-17.8,2.4-35.4,5.8-53.5,7.1c-17.9,1.3-35.8,0.8-53.6,2.8c-17.2,1.9-34.2,0.1-51.2-0.4c-5.6-0.2-11.3-0.4-16.9-0.8
	c-18.9-1.3-37.9-1.5-56.7-5.5c-8.4-1.8-17.3-2.2-26-3.5c-8.9-1.4-17.7-3.7-26.5-5.7c-8.1-1.9-15.7-5.1-23.4-8.1
	c-7.8-3.1-15.5-6.3-22.8-10.8c-10.2-6.4-18.4-14.4-24.9-24.5c-7.2-11.1-6.9-27.8,0.2-39.1c2.6-4.1,5.4-7.9,8.5-11.5
	C36.3,396.4,36.6,396.8,36.9,397.1z"/>
<path class="st105" d="M416.8,430.9c-2.1-1.4-4.5-1-6.8-1c-103.7,0-207.3,0-311,0c-1-1.4-0.4-2.3,1-3c102.5,0,205,0,307.5,0
	c2.8,0,5.6-0.1,8.3-1C416.1,427.6,416.5,429.3,416.8,430.9z"/>
<path class="st106" d="M468.8,407c8.1,14.2,8.3,28.5-1.4,41.6c-6.8,9.1-15.9,15.8-26.2,21.4c-11.1,6.1-23,9.9-34.9,13.1
	c-8.1,2.2-16.2,5.2-24.9,6.1c-9.5,1-18.8,3.4-28.4,4.1c-7.9,0.6-15.7,2-23.6,2.9c-14,1.5-28.1,1-42.1,2.6c-1.3,0.2-2.7,0.1-4,0.1
	c-17.8,0-35.7,0.9-53.5-0.3c-13.9-0.9-27.8-0.6-41.7-2.2c-11.6-1.3-23.4-2.3-35-3.8c-13.3-1.7-26.8-3.3-39.8-7.7
	c-6.6-2.3-13.6-3.6-20.3-5.9c-1.3-0.5-2.5-0.7-3.1-2.1c0.2-0.2,0.4-0.4,0.6-0.6c4-1.6,7.3,1,10.8,2.1c3.6,1.2,7.2,2.2,10.9,2.5
	c0.5,0.1,1,0.3,1.5,0.5c9.6,2.7,19,6.1,29.2,6.3c0.5,0.1,1,0.2,1.5,0.3c3.9,1.5,8,1.4,12.1,1.7c0.5,0.1,1,0.2,1.6,0.4
	c8,1.9,16.2,2.3,24.4,2.4c0.6,0,1.1,0.1,1.6,0.3c2.4,0.9,5,0.4,7.4,1.1c6.1,0.9,12.3,0.2,18.5,0.4c5.4,0.7,10.9,0.9,16.3,1.4
	c1,0.2,1.9,0.6,2.9,0.6c18.3,0.1,36.6,0.1,54.9,0c0.8,0,1.6-0.3,2.4-0.5c6.3-0.3,12.5-1.3,18.8-1.4c17.4-0.2,34.6-2.1,51.9-4.6
	c7.5-1.1,15.1-2,22.5-3.4c6.5-1.2,12.8-3.1,19.2-4.9c9.2-2.3,18.4-4.9,27-8.8c14.5-6.7,28.6-14.1,37.6-28.4c6-9.4,6.5-18.9,3-29.1
	c-0.6-1.6-2-3.2-0.6-5.1C466.9,409.1,467.9,408,468.8,407z"/>
<path class="st107" d="M415.9,451c1.1-0.8,0.8-2,1-3.1c1.9-3.9,0.6-8.1,0.8-12.2c0.1-2.3,0.7-3.7,2.8-4.7
	c11.8-5.2,23.6-10.5,35.5-15.6c1.1-0.5,2.6-0.3,3.9-0.4c0.4,1-0.2,1.7-0.7,2.5c-2.1,2.3-3.7,5-5.9,7.1c-3.1,3-6.1,6-9,9.1
	c-8.5,8.4-16.8,16.8-25.3,25.2c-1.5,1.5-2.7,3.4-5.2,3.6c-0.8-0.1-1.3-0.6-1.6-1.4c-0.1-0.5-0.1-1,0-1.5
	C413.7,456.8,413.8,453.5,415.9,451z"/>
<path class="st108" d="M465.9,410.1c2.3,5.7,4.2,11.3,4.1,17.7c0,6-1.7,11.1-4.7,16c-7.2,11.6-17.5,19.3-29.6,25.5
	c-10.4,5.3-21.2,9-32.3,12.3c-1.1,0.3-2.3,0.2-3.5,0.3c-5.8,1.4-11.5,3.6-17.6,3.4c-1.3-1.8,0.5-2.3,1.4-3.1c3.5-1.5,7.2-2,10.8-2.6
	c6.9-0.2,13.5-2.5,19.7-4.9c14.4-5.6,28.7-11.8,39.3-23.8c8.9-10.1,14.4-20.9,8.4-34.5c-0.3-0.8-0.5-1.6-0.1-2.4
	C463.2,412.7,464.5,411.4,465.9,410.1z"/>
<path class="st108" d="M461.8,414c4.7,7.6,5.2,15.2,1.8,23.6c-6.5,15.9-19.5,24.6-33.9,31.8c-9,4.5-18.5,8-28.3,10.5
	c-2.3,0.6-4.5,1.2-6.8,0.9c1.9-3.7,5.5-4.8,9.1-5.7c1.5,0.3,3,0,4.4-0.5c14.7-5.6,29.2-11.8,40.7-23c9.4-9.1,13.5-19.8,9.8-32.8
	c-0.2-0.7-0.2-1.3,0.1-1.9c0.4-0.6,0.8-1.2,1.2-1.9C460.6,414.6,461.2,414.3,461.8,414z"/>
<path class="st1" d="M375.7,336c2.3,4.6,5,8.8,8.1,13c1.1,2.2,2.2,4.5,3.3,6.7c0.1,2.6-2,2.7-3.4,2.4c-8.1-2-16.9-1-24.7-4.9
	c-0.8-1-0.6-2-0.1-3c1.8-2.4,4.2-4.3,6.2-6.5c1.1-1,2.2-2.1,2.9-3.4c1-1.4,2.1-2.7,3.4-3.9c0.7-0.5,1.5-1,2.4-0.7
	C374.5,335.9,375.1,336,375.7,336z"/>
<path class="st100" d="M358.8,351.9c2.5,1.7,5.5,1.6,8.3,2.3c5.2,1.4,10.8,0.5,15.9,2.7c1.2,0.5,3,0.4,4-1.1
	c2.2,2.8,3.8,5.9,5.1,9.2c-2,2-4.3,1.2-6.5,0.7c-5.1-1.3-10.5-1.3-15.6-2.9c-1.4-0.4-2.9-0.4-4.4-0.1c-4.9,0-7.8-3.4-11-6.4
	C354.7,353.4,356,351.9,358.8,351.9z"/>
<path class="st106" d="M364.9,361.8c2.7-1.6,5.3-0.6,8-0.1c6.4,1.2,12.8,2.1,19.2,3.1c0.6,0.7,1.2,1.3,1.7,2c-0.2,2,1.4,3.3,2,5
	c-1.7,1.9-3.8,1.5-6,1c-2.9-0.7-5.7-1.7-8.8-1.4c-2,0-3.6-1-5.4-1.6c-3.4-2.7-7.9-3.8-10.7-7.4C365,362.3,364.9,362.1,364.9,361.8z"
	/>
<path class="st109" d="M151.9,320c1.5,1.7,3.4,1,5.2,1c67.2,0,134.4,0,201.6,0c1.7,0,3.7,0.7,5.2-1c0.7,0.3,1.3,0.7,2,1
	c0.1,2.4,1.9,4,3,6c1,2.4-0.9,2.8-2.5,3.3c-1.9,0.5-4,0.4-6,0.4c-68.4,0-136.7,0-205.1,0c-2,0-4,0.1-6-0.4c-1.6-0.4-3.4-0.8-2.5-3.3
	C148.4,324.5,149.5,321.7,151.9,320z"/>
<path class="st110" d="M146.9,327c0.8,3.3,3.5,2,5.4,2c36.1,0.1,72.2,0.1,108.4,0.1c34.3,0,68.6,0,102.9-0.1c1.9,0,4.6,1.3,5.4-1.9
	c2,2.7,4.7,5.1,5,8.8c-0.6,0.4-1.3,0.8-1.9,1.3c-1.8,0.5-3.6,0.6-5.4,0.6c-68.4-0.1-136.7,0-205.1,0c-5.8,0-11.6-0.1-17.5,0.4
	c-1.4-0.2-2.6-0.7-3-2.2C142.8,332.7,143.9,329.2,146.9,327z"/>
<path class="st1" d="M141,335.8c0.6,0.4,1.3,0.8,1.9,1.2c1.8,0.8,3.3,2,4.6,3.4c1,1.1,2.1,2.1,3.2,3.2c2.1,2.1,4.2,4.1,6.3,6.2
	c0.9,1.3,2.1,2.5,0.5,4.1c-4.1,2.2-8.6,2.2-13,3c-3.9,0.8-7.9,0.8-11.7,1.9c-1.7,0.5-4,1.1-4.7-1.8c3-5.4,6-10.8,9-16.2
	C138.3,339.1,139.6,337.4,141,335.8z"/>
<path class="st111" d="M400.9,382.9c-93.4,0-186.7,0-280.1,0.1c-2.4,0-4.6-0.5-6.8-1c-0.4-1.5,0.9-1.9,1.7-2.6
	c0.4-0.3,0.8-0.5,1.2-0.7c3.3-1.2,6.1-4.4,10.1-2.5c42,0.4,83.9,0.1,125.9,0.2c44.6,0,89.3,0.1,133.9,0c0.8,0,1.7,0,2.5-0.1
	c4.4-0.3,7.9,1.2,10.5,4.8C400.6,381.3,400.8,382.1,400.9,382.9z"/>
<path class="st112" d="M399.8,380.9c-2.9-1.3-5.9-2.7-8.8-4c-3.8-1.4-7.8-2.4-10.1-6.1c2.9-2.1,5.8,0,8.4,0.6
	c2.3,0.5,4.4,0.6,6.7,0.5C397.7,374.7,399.7,377.4,399.8,380.9z"/>
<path class="st113" d="M336.9,284c-0.3-0.3-0.7-0.7-1-1c-1.6-2-3.3-4-4.9-6.1c-2-1.7-4.7-3-4-6.4c6.8-5.2,15-7.7,22.7-11.1
	c22.9-10.3,45.8-20.4,68.7-30.6c1.8-0.8,3.5-2.2,5.6-0.9c2.8,1.6,3.6,5,5.9,7c1,1.7,2,3.3,3,5c-4.7,4.9-11.3,6.1-17,8.8
	c-15.8,7.3-31.8,14.1-47.7,21.2C357.7,274.5,347.3,279.3,336.9,284z"/>
<path class="st14" d="M260,201c12.6-4.6,24.6-10.6,36.9-16c19.7-8.6,39.4-17.4,59-26.1c2-0.9,4-1.8,5-3.9c0.6,0.3,1.2,0.6,1.9,0.9
	c0,0.4,0.1,0.7,0.1,1.1c1.3,3.5-2,3.8-3.7,4.7c-10.3,5-20.9,9.4-31.4,14.1c-19.7,8.8-39.5,17.6-59.2,26.3c-1.8,0.8-3.6,1.8-5.7,1.7
	C261.6,203.3,260.7,202.2,260,201z"/>
<path class="st14" d="M263,203.8c11.4-6.5,23.8-11,35.6-16.5c16.5-7.7,33.3-14.8,50-22.2c3.6-1.6,7.3-3.2,10.9-5
	c1.4-0.7,3.3-1,3.4-3.2c0.6,0.4,1.3,0.8,1.9,1.2c0,0.3,0,0.5,0.1,0.8c1.3,3.4-1.6,3.9-3.5,4.8c-17.4,8-34.9,15.6-52.3,23.4
	c-14.4,6.4-28.9,12.7-43.3,19.2C264.8,205.5,263.9,204.7,263,203.8z"/>
<path class="st114" d="M139,54.1c-1,2.1-2.8,2-4.7,2c-10.4-0.1-20.8-0.7-31.2-1.1c-5.4-0.2-11-2.2-16.5,0c-1.7,0.7-3.7,0.2-4.6-1.9
	c8.7-4.9,18.1-6.4,28-6c4.5,0.9,9,1.6,13.4,2.7C128.6,51.1,133.8,52.7,139,54.1z"/>
<path class="st115" d="M114,99.8c-4.5-1.7-9.3-2.7-13.3-5.6c0.8-2.8,3.1-3.6,5.5-3.2c8.8,1.3,17.6-0.2,26.4-0.2
	c13.7,0.1,27.1-1.8,40.4-4.7c8-1.8,16-2.8,24-4c1.5,0.8,3.3,1.2,4,3c0.2,1.6-0.9,2.3-2,2.3c-7-0.1-12.9,3.9-19.7,4.7
	c-11.2,1.3-22.1,5.1-33.2,5.6C135.3,98.2,124.8,101.8,114,99.8z"/>
<path class="st116" d="M114,99.8c2.4-1.2,4.8-1.5,7.6-0.9c2.6,0.5,5.2,0.2,7.8-1c2.8-1.3,5.7-1.8,9.1-1.1c5.1,1.1,10.5,0.2,15.2-1.4
	c8.9-3,18.3-2.7,27.2-5.2c3-0.8,6.4-0.9,8.9-2.7c3.5-2.4,7.9,0.3,11.2-2.5c2.1,0.2,3.5,1.7,5,3c-2.8,2.4-6.2,1.6-9.4,2.1
	c-11.7,2-23,5.4-34.3,9c-6.3,2-13.3,1.7-19.9,3c-4.3,0.8-9.4,0.2-12.3,4.7c-1.6-0.6-3.3-1.2-4.9-1.8c-1.5-1.2-3-2.4-5.1-2
	C118,102,116,100.9,114,99.8z"/>
<path class="st117" d="M196.9,82.1c-2.6,2.1-5.9,2.8-8.8,2.8c-8.9-0.1-17,3.8-25.7,4.8c-5.4,0.7-10.9,0.6-16.2,1.6
	c-11.5,2.1-23.1,1.1-34.7,1.8c-3.6,0.2-7.5-2.3-10.8,1.2c-6-1.7-11.9-3.4-17.9-5.1c10.2-2.8,20.5-0.4,30.8-0.9
	c7.8-0.4,15.6,1.1,23.4,0.5c4.5-0.3,9.1-0.1,13.4-1.1c6.7-1.4,13.4-1.7,20.1-2.7c6-0.8,11.8-2.8,17.9-3.3c1.4-0.1,2.8-1,3.5-2.6
	C193.6,80.1,195.3,81.1,196.9,82.1z"/>
<path class="st15" d="M296.6,237.2c-2.7-2.6-5.6-5-7.7-8.1c-1.3-3.5,1.7-4.3,3.8-5.2c12.8-5.6,25.6-11.3,38.3-17
	c18.3-8.3,37-15.8,55-24.9c1.9,1.7,3.8,3.5,5.7,5.2c0.8,1.3,1.6,2.6,2.4,3.9c0.3,0.4,0.6,0.8,0.8,1.1c1.2,3.2-1.7,3.6-3.4,4.3
	c-17.8,7.8-35.4,15.9-53.2,23.6c-11.4,5-22.8,10-34.1,15.1C301.8,236.3,299.5,237.9,296.6,237.2z"/>
<path class="st10" d="M385.9,181.9c-0.1,2.4-2.2,2.8-3.8,3.5c-20.1,9-40.2,17.9-60.3,26.8c-9.8,4.4-19.7,8.7-29.5,13.1
	c-1.7,0.7-3.4,1.5-3.4,3.8c-3-3-6-6-9-8.9c-0.3-2.9,2.1-3.5,3.9-4.4c27.8-12.2,55.4-24.7,83.2-36.9c3.9-1.7,7.4-4.5,11.9-4.8
	c1.7,1.7,3.4,3.3,5.2,5C384.7,180,385.3,180.9,385.9,181.9z"/>
<path class="st118" d="M265.8,206.3c4.4-5.2,11.2-6.3,16.9-8.9c15.6-7.3,31.5-13.9,47.3-20.9c10.6-4.7,21.2-9.6,31.8-14.2
	c1.6-0.7,3.1-1.2,3.1-3.3c1.6,1.8,2.8,4,5,5.1c0.7,0.9,1.4,1.9,2.1,2.8c-0.5,2.3-2.6,2.9-4.4,3.7c-29,13.1-58.2,25.8-87.2,38.6
	c-2.6,1.2-5,2.7-7.5,3.9C270.5,210.9,268.1,208.6,265.8,206.3z"/>
<path class="st119" d="M272.8,213.2c0.4-3,3.1-3.3,5.1-4.1c30.2-13.4,60.4-26.7,90.6-40.1c1.2-0.5,2.3-1.3,3.4-2
	c0.3,0,0.6,0.1,0.9,0.2c1,1.6,2.3,3,4,3.9c0.7,1,1.4,2,2.1,3c-8.9,6-19.1,9.2-28.7,13.7c-16.4,7.6-33.1,14.7-49.6,22
	c-5,2.2-10.1,4.3-15,6.6c-2.1,1-4.5,1.4-5.6,3.8C277.5,217.8,275.2,215.5,272.8,213.2z"/>
<path class="st45" d="M430.8,130.1c-15.3,0-30.6,0-45.8,0c-1.4,0-3,0.4-4.1-1c14.9,0,29.9,0,44.8,0
	C427.4,129.1,429.4,128.4,430.8,130.1z"/>
<path class="st45" d="M464.8,130.1c-11,0-22,0-33,0c1.1-1.4,2.7-1,4.1-1c8.2,0,16.5,0,24.7,0C462.1,129.1,463.7,128.7,464.8,130.1z"
	/>
<path class="st13" d="M296.6,237.2c22.2-9.8,44.4-19.5,66.5-29.3c9.6-4.2,19.1-8.5,28.7-12.8c1.3-0.6,2.9-1,3.1-2.9
	c2.1,0.5,2.5,2.9,4.1,3.8c1.9,2.3,3.9,4.7,5.8,7c0.1,0.3,0.1,0.6,0.2,1c-1.5,2.2-4,2.9-6.2,3.9c-29.3,12.9-58.4,26.1-87.7,38.9
	c-1.5,0.7-3,1.3-4.8,1.1c-4.3-1.7-7-4.8-8.5-9.1C297.4,238.3,297,237.7,296.6,237.2z"/>
<path class="st19" d="M305.9,247c7.4-1.5,13.8-5.4,20.6-8.4c25.8-11.3,51.4-22.9,77-34.4c0.4-0.2,1-0.2,1.5-0.3
	c2.6,1.4,3.4,4.5,5.8,6.1c0.7,1.3,1.4,2.6,2.2,3.8c0.4,2.7-1.8,3.3-3.5,4.1c-20.8,9.3-41.7,18.5-62.5,27.8
	c-10.2,4.5-20.3,9.1-30.6,13.6c-3.6,0-4-3.8-6.3-5.4C308.1,252,305.2,250.6,305.9,247z"/>
<path class="st77" d="M315.9,259c8.9-6,19.1-9.2,28.7-13.7c16.5-7.7,33.3-14.8,50-22.2c4.9-2.1,9.7-4.2,14.6-6.4
	c1.5-0.7,3.1-1.2,3.8-2.9c1.3,1.4,2.6,2.8,3.9,4.1c2,2.7,4.1,5.3,6.1,8c0.3,0.7,0.6,1.3,1,2c-10.5,4.6-20.9,9.1-31.4,13.7
	c-20,8.8-39.9,17.7-60,26.5c-2,0.9-3.4,2.7-5.7,2.9c-2.1,0.5-2.5-1.6-3.7-2.5c-2.5-2.3-4.3-5.3-6.8-7.7
	C315.9,260.3,315.5,259.8,315.9,259z"/>
<path class="st73" d="M98,237c-1,2.2-2.3,4.3-4,6c-4.6,5-9.5,9.7-14.4,14.4c-1.2,1.2-2.3,3.1-4.6,1.6C81.9,250.9,88.3,242.2,98,237z
	"/>
<path class="st73" d="M75,259c5.1-2,7.7-7,11.8-10.3c2.4-1.9,3.7-5.2,7.2-5.7c-0.3,3.2-3,5.2-4,8c-2.5,0.2-3.8,2.1-5,4
	c-4.3,1.2-6.3,5.1-9.2,7.9c-1.5,1.4-2.6,2.9-4.8,3.1C72.2,263.6,74.5,261.8,75,259z"/>
<path class="st120" d="M45.9,406.2c-1.4-1.3-2-3.4-4-4.1c-0.7-1.2-1.6-2.3-3-2.9c-0.4-0.7-0.9-1.4-1.3-2.2
	c22.3-9.8,44.6-19.7,66.9-29.5c4.6-2,9-4.2,13.6-6.2c2.6-1.2,5.1-2.5,8-2.3c0.4,2-0.9,3.5-1.7,5.2c-1.6,2.2-2.9,4.6-3.9,7.1
	c-1.3,3-2.2,6.2-4.6,8.5l-0.2,0.1c-10.6,3-20.3,8.3-30.3,12.6c-11.9,5.2-23.7,10.5-35.6,15.8c-0.5,0.1-1,0.1-1.4,0.1
	C47.2,408.3,46.5,407.3,45.9,406.2z"/>
<path class="st99" d="M123.9,363.9c0.2-1.9,1.5-3.3,2.3-4.9c0.6-0.7,1.2-1.4,1.8-2c0.8,1.1,2.1,1.2,3.1,0.9
	c8.8-2.7,18.1-2.5,26.9-4.9c2.2-0.1,3.1,1.1,3.2,3.1c-2.7,3.3-6.4,5-10,7.1c-2.3,1.1-4.3,3-7.2,2.5c-5.2-0.5-10.2,1.4-15.3,1.5
	C126.8,367.1,123.2,368.5,123.9,363.9z"/>
<path class="st81" d="M323.9,268c1,1,2,2,3,3c0.9,2.3,3.8,3.2,4,5.9c-1.4,1.7-3.4,1-5.1,1c-19.4,0-38.8,0-58.2,0
	c-2.1,0-4.4,0.6-5.7-1.9c2-3,5.1-5,7.8-7.3c12.4-0.7,24.8-0.1,37.2-0.3C312.6,268.4,318.3,268.6,323.9,268z"/>
<path class="st82" d="M323.9,268c-0.3,2.1-1.8,2-3.4,2c-15.9,0-31.8,0-47.7,0c-1.2,0-2.3-0.1-3-1.3c2.3-2.9,4.9-5.5,7.8-7.8
	c2.9-1.3,5.9-0.4,8.9-0.4c10.1-0.1,20.3,0.2,30.4-0.4C319.9,262.1,321.5,265.4,323.9,268z"/>
<path class="st83" d="M316.8,260.1c-1.3,1.5-3,1.9-4.9,1.9c-9.7,0-19.3,0-29-0.1c-1.8,0-3.6-0.7-5.3-1.1c2.4-2.6,4.9-5.3,7.3-7.9
	c8.6-0.8,17.3-0.9,25.9,0.2c1.7,1.9,3.4,3.9,5.1,5.8C316.2,259.4,316.5,259.7,316.8,260.1z"/>
<path class="st84" d="M310.8,253.2c-8.6,1.3-17.3,1.6-25.9-0.2c4.3-4.7,8.6-9.4,12.9-14.1c3,2.4,4.7,6.1,8.1,8.1
	C306.9,249.6,308.6,251.6,310.8,253.2z"/>
<path class="st121" d="M48.7,408.1c9.6-4.5,19.2-9,28.8-13.3c10.6-4.8,21.2-9.4,31.9-13.9c2-0.9,4.1-2.5,6.5-0.8
	c-0.6,0.7-1.3,1.3-1.9,2c-0.3,1.7-0.7,3.3-1,5c-2.2,2.6-2.9,5.9-4,9c-1.4,2.9-2.9,5.7-3,9c-0.3,0-0.7,0-1,0c-10.3,2.5-19.4,8-29,12
	c-4.3,1.8-8.8,3.3-12.5,6.1c-2.1,0.6-2.9-1.1-4-2.3c-1.2-1.6-2.7-3-4.3-4.2c-1.9-2-3.6-4.1-5.6-6C49,409.9,48.5,409.1,48.7,408.1z"
	/>
<path class="st122" d="M63,422.8c0.4-2.5,2.7-2.8,4.4-3.5c11-4.9,22-9.7,33.1-14.6c1.6-0.7,3.1-1.4,4.5,0.2c-0.3,2-0.7,4-1,6
	c-1.3,1.4-1.6,3.2-2,5c-0.3,1.7-0.7,3.3-1,5c-0.4,2-1.4,3.9-1,6c-0.3,1-0.6,2-1,3c0,2,0,4,0,6c1,1.1,1.4,2.5,1.4,3.9
	c0.1,2,0.1,3.9-0.1,5.9c-0.1,0.8-0.4,1.6-1,2.2c-2.7-0.1-2.3-2.3-2.5-3.9c-0.3-3.3,0.1-6.7-0.2-10c-0.6-5.7-3-7.3-8.4-5.5
	c-4.6,1.5-9,3.6-13.3,5.6c-1.7,0.6-2.8-0.3-4-1.3c-1.4-1.4-2.8-2.9-4.3-4.3c-1.1-1.1-2.2-2.2-3.2-3.3
	C62.9,424.4,62.2,423.7,63,422.8z"/>
<path class="st123" d="M99,439.9c0-1.3,0-2.7,0-4c49.9,0,99.8,0,149.7,0c2.2,0,4.8-0.8,6.2,1.9c-0.2,1.7-1.5,2.4-2.7,3.3
	c-1.1,0.7-2.3,1.4-3.7,1.2c-0.6-0.2-1.1-0.3-1.7-0.5c-5.8-0.5-11.6-0.3-17.5-0.3c-40.6,0-81.2,0-121.7,0
	C104.6,441.5,101.5,442.1,99,439.9z"/>
<path class="st124" d="M252,440c1-0.7,2-1.4,2.9-2.2c1.3-0.3,2.7-0.7,4-1c1.7,1.4,3.4,2.7,5.1,4.1C259.1,443.2,254.6,442.9,252,440z
	"/>
<path class="st106" d="M45.9,406.2c1.1,0.2,1.6,1,2,1.9c0.3,0.9,0,1.6-0.4,2.4c-8,15.1-4.7,28.7,5.6,40.3c6.8,7.7,15,13.5,24.3,17.7
	c3.8,1.7,6.9,4.6,11,5.7c1.1,0.3,2,1.2,1.6,2.7c-2.4,0.3-4.8-0.4-6.7-1.5c-8.8-4.9-18.7-8.3-26.1-15.2c-10-9.5-20-19.5-18.1-35.2
	C39.8,418.2,40.7,411.4,45.9,406.2z"/>
<path class="st125" d="M271.9,445c0.3,0.3,0.6,0.7,1,1c0,1.9-1.5,2.1-2.8,2.1c-8.3,0.3-16.6,0.4-24.9-0.1c-0.8,0-1.6-0.5-2.2-1.1
	c-0.5-2.7,1.3-3.2,3.3-3.6c5.5,0.4,11,0.1,16.5,0.2c2.5,0,5,0.1,7.3,1.4C270.6,444.9,271.2,444.9,271.9,445z"/>
<path class="st126" d="M270,444.9c-6.4,0-12.9,0-19.3,0c-1.6,0-3.3,0.5-4.7-0.9c0.4-1.6,1.2-2.5,3-2.2l0,0.2c6,0.2,12.1-1,18,0.9
	C268.4,443,269.4,443.7,270,444.9z"/>
<path class="st127" d="M267,442.9c-6-0.5-12.1,1.2-18-0.9c1-0.7,2-1.3,3-2c3.9,1.9,8,0.5,12,0.9C265,441.6,266,442.2,267,442.9z"/>
<path class="st128" d="M415.9,451c-0.2,3.3-0.8,6.4-3,9c-1.3,1-2.7,1-4.2,1c-33.2-1-66.4-0.2-99.6-0.4c-2.5,0-5,0.4-7.4,1.1
	c-0.5,0.2-1,0.5-1.5,0.7c-0.8,0.2-1.5,0.1-2.2-0.3c-1.3-0.8-2.7-1.6-4.1-2.3c-0.8-0.4-1.5-0.8-2.3-1.2c-1.2-0.6-2.3-1.3-3.4-2
	c-1.5-1.4-4.6-1.4-4.3-4.6c1.6-1,3.5-1,5.3-1C331.4,450.9,373.7,451,415.9,451z"/>
<path class="st129" d="M283.9,451.9c0.9,2.3,3.7,2.1,5,4c-1.7,1.8-4,1.3-6.1,1.4c-8.6,0.4-17.2,0.7-25.7,0.5
	c-9.7-0.2-19.5,0.4-29.1-1.1c-1.2-0.6-1.6-1.5-0.5-2.6c1.6-1.6,3.5-2.8,5.9-2.9c8.7,1.9,17.5,1.2,26.2,1.3
	c7.8,0.1,15.6-0.4,23.4-0.7C283.2,451.9,283.6,451.9,283.9,451.9z"/>
<path class="st130" d="M282.9,451.9c-3.4,1.3-6.9,2-10.5,2c-10.7,0-21.4,0-32,0c-2.7,0-5.3-0.2-7.4-2c0.4-0.5,1-0.8,1.6-1.1
	c15.5-0.6,30.9-0.6,46.4,0.1C281.6,451.3,282.2,451.6,282.9,451.9z"/>
<path class="st131" d="M275.9,448c1,0.3,1.7,1,2.1,1.9c-1.4,1.5-3.2,1.5-5,1.5c-12.2-0.1-24.4,0.1-36.5-0.1c-1.5-3,1.1-2.9,2.7-3.6
	C251.3,448.2,263.6,447.8,275.9,448z"/>
<path class="st132" d="M275.9,448c-1.5,1.6-3.4,0.9-5.2,0.9c-10.6,0.1-21.2,0-31.8,0c-0.5-1.1,0.1-1.8,0.8-2.4c1-0.6,2-1.2,3.2-0.5
	c3.1,1.9,6.5,1,9.7,0.8c6.7-0.3,13.6,1.3,20.2-0.8C273.9,446.7,274.9,447.3,275.9,448z"/>
<path class="st133" d="M235.9,450.9c11.2,0,22.5,0,33.7,0c2.8,0,5.6-0.2,8.3-1c1,0.3,2,0.7,2.9,1c-1.5,1.6-3.4,0.9-5.2,0.9
	c-13.9,0.1-27.9,0-41.8,0C233.9,450.3,234.8,450.3,235.9,450.9z"/>
<path class="st134" d="M49.9,410.1c2.5,1.5,4.1,3.9,5.9,6.1c0.4,1,0.2,2-0.1,2.9c-4,14.6,1.9,25.4,12.6,34.8
	c9.7,8.6,21.5,13.2,32.9,18.5c4,1.9,8.6,2.5,13,3.5c6.3,3.2,13.2,4.8,20.1,6.1c19.1,3.9,38.2,7.4,57.8,7.6c0.5,0,1.1,0.1,1.6,0.3
	c2,1,5.2,0.4,5.3,4c-0.4,0.4-0.8,0.7-1.4,0.8c-2.1,0.2-4.2,0.3-6.3-0.1c-2.4-1.2-5-0.5-7.5-0.8c-0.3,0-0.7,0-1,0
	c-8.7-0.9-17.4-1.7-26-3c-4.2-1.6-8.8-0.6-13-2c-10.5-1.5-20.7-4.4-31-7c-16.5-3.5-31.8-10.1-46-18.9c-11.3-7-18.7-17.5-22.6-30
	C41.7,424.6,45.3,417.1,49.9,410.1z"/>
<path class="st135" d="M381.9,484.9c6.1-0.2,11.8-3.1,18-3c-1.4,3.1-4.4,1.6-6.6,2.3c-15.6,5.2-31.9,6.7-48,8.6
	c-14.6,1.7-29.2,3.4-44,3.2c-4.7-0.1-9.5,0.9-14.3,0.8c-1.6,0.9-3.2,0.5-4.9,0.5c-17.1,0-34.2,0-51.2,0c-1.6,0-3.3,0.4-4.9-0.5
	c-5.4,0.5-10.7-0.6-16-1c-2-1.1-4.2-0.3-6.3-0.5c-1.3-0.2-2.4-0.4-1.5-2.1c0.6-0.6,1.3-1.3,2.1-1.2c8.1,1,16.3-0.5,24.3,1
	c4.9,0.9,9.9,0.3,14.9,0.4c12.1,0.2,24.3,0,36.4,0c4.8,0,9.5-1.6,14.4-1c4.1,0,8.2,0.5,12.3-0.4c1.1-0.3,2.3-0.3,3.5-0.1
	c7.1-0.2,14.3-0.2,21.2-1.8c1.5-0.3,2.9-0.6,4.4-0.6c4.6,0.1,9.2,0.1,13.7-1.3c0.8-0.2,1.6-0.2,2.4-0.2c2.8,0.6,5.4-0.7,8.2-0.4
	c2.9-0.1,5.9,0.5,8.6-1.2c0.5-0.2,0.9-0.3,1.4-0.3C374,487.1,377.7,483.8,381.9,484.9z"/>
<path class="st135" d="M49.9,410.1c0.3,2.5-1.1,4.6-2.1,6.5c-4,7.5-3.3,14.3,0.2,22.1c4.8,10.6,11.8,18.6,21.5,24.5
	c11.6,7,23.7,13.2,37.2,15.9c2.2,0.4,4.2,1.9,6.2,2.8c-6.1,0.9-11.2-2.2-16.7-4c-2.1-0.7-4.1-1.1-6.3-1c-3.5-3-7.8-4.8-11.8-6.6
	c-13.4-5.9-23.9-14.8-32-26.8c-6-9-5.8-27.6,1.8-35.4c0.3,0,0.5,0,0.8,0C49.1,408.8,49.5,409.4,49.9,410.1z"/>
<path class="st135" d="M225.9,496.9c20.3,0,40.7,0,61,0c-1.1,1.4-2.7,1-4.2,1c-17.6,0-35.1,0-52.7,0
	C228.6,497.9,227.1,498.3,225.9,496.9z"/>
<path class="st135" d="M113,481.9c8.1,0.6,16,2.6,23.7,5.1c2.4,0.8,5.5-0.9,7.3,1.9c-8.2,0.6-15.9-1.8-23.5-4.4
	C118,483.7,114.5,485.3,113,481.9z"/>
<path class="st135" d="M156.9,490.9c8.8-0.5,17.4,1.4,26,3C174.2,493.9,165.4,494.1,156.9,490.9z"/>
<path class="st135" d="M201.9,493.9c2.2,2.4,5.8-0.4,8,2c-6.3-0.6-12.8,1.2-19-1c0.2-0.1,0.4-0.3,0.6-0.4c2.1-0.4,4.4,0.6,6.4-0.6
	c0.3,0,0.7,0,1,0C199.9,493.1,200.9,493,201.9,493.9z"/>
<path class="st135" d="M143.9,488.9c4.4,0.3,9-1.1,13,2C152.5,490.9,148,491.4,143.9,488.9z"/>
<path class="st135" d="M183.9,493.9c2.3-1.3,4.7-1.3,7,0c0.3,0.2,0.4,0.4,0.3,0.7c-0.1,0.2-0.2,0.3-0.3,0.3
	C188.6,494.5,186,495.8,183.9,493.9z"/>
<path class="st136" d="M299.9,461.9c1.1-3,3.8-2.9,6.2-2.9c33.2-0.1,66.4-0.1,99.5,0c2.4,0,4.9,0.6,7.3,1c0,0.3,0,0.7-0.1,1
	c-1.1,2.6-2,5.2-4.2,7.2c-3.1,1.6-6.4,1.4-9.8,1.4c-27.2,0-54.4,0-81.6,0c-1.7,0.5-3.3,0.2-4.8-0.5c-1.1-0.5-2.2-1-3.3-1.4
	c-0.6-0.3-1.2-0.7-1.8-1c-1.2-0.9-2.7-1.4-4.1-1.9c-0.6-0.3-1.1-0.6-1.6-1C301,463.2,300.2,462.7,299.9,461.9z"/>
<path class="st137" d="M458.8,416.8c4.5,7.7,3,15.5,0,23.2c-4.1,10.4-12.8,16.9-21.7,22.5c-8.9,5.7-18.8,10.2-29,13.4
	c-1.4,0.5-3.1,1.9-4.3-0.4c0.6-3.5,3.5-5,5.9-6.9c5.1-3.2,11-4.7,16.2-7.7c7.4-4.1,13.5-9.6,19.2-15.7c4.1-4.4,6.2-9.8,6.5-15.9
	c0.1-2,0.4-4,1.2-5.8C454.9,421.5,456.1,418.5,458.8,416.8z"/>
<path class="st138" d="M452.7,423.6c2,14-5.8,23-15.5,31.2c-8.2,7-17.9,10.9-27.6,15c-0.6-2.7,2-4,2.8-6.2c0.5-0.6,1.1-0.9,1.8-1.2
	c7.1-5.8,16.1-9.1,21.8-16.8c3.1-4.1,5.3-8.7,7.9-13.1C446.7,429.6,449.7,426.6,452.7,423.6z"/>
<path class="st139" d="M443.7,432.6c-2.9,10.4-8.7,18.4-18.5,23.5c-3.8,2-6.9,5.5-11.2,6.8c-0.3-0.2-0.4-0.4-0.3-0.6
	c0.1-0.2,0.2-0.3,0.3-0.3C423.9,452.2,433.8,442.4,443.7,432.6z"/>
<path class="st140" d="M414,462c0,0.3,0,0.6,0.1,0.9c-0.3,0.4-0.7,0.7-1,1.1c-1.1,0.5-1.3,2.6-3.2,2c-0.2-2.4,1.3-3.8,3-5
	C413.2,461.3,413.6,461.7,414,462z"/>
<path class="st141" d="M409.8,466c1.1-0.7,2.1-1.3,3.2-2c-0.3,2.4-3,3.5-3.5,5.8c-1.9,1.9-3.9,3.9-5.8,5.8c-3,1.7-6.1,3.5-9.1,5.2
	c-3.6,0.7-7.2,1.5-10.8,2.2c-1.6,0.4-3.2,1.2-4.9,1.2c-1.4,0-2.8,0-4.2,0c-2.3-0.1-4.5,0.1-6.8,0c-4.2,0.1-8.4-0.2-12.5-1
	c-0.8-0.1-1.6-0.2-2.4-0.4c-2.9-0.8-5.9-1.2-8.8-2c-1.1-0.4-2.3-0.7-3.4-0.9c-1.3-0.4-2.6-0.8-3.9-1.2c-1.1-0.4-2.1-0.7-3.2-1.1
	c-1.9-0.7-3.8-1.2-5.7-1.9c-0.8-0.3-1.6-0.7-2.4-1.1c-1.6-0.7-3.2-1.2-4.8-1.9c-1-0.5-2-0.8-3-1.2c-0.8-0.3-1.6-0.8-2.2-1.5
	c-0.2-0.4-0.1-0.8,0.2-1.2c1.6-1.7,3.8-1,5.7-1c26.6-0.1,53.2,0,79.8,0C404.3,467.9,407.3,468,409.8,466z"/>
<path class="st108" d="M378.8,483.1c1.7,0,3.3,0,5,0c-0.7,0.6-1.3,1.2-2,1.9c-4,0.9-7.6,3.8-12,2c-0.3-0.4-0.3-0.8,0-1.3
	c0.6-0.5,1.2-0.7,1.9-0.8C374.2,484.6,376.6,484.2,378.8,483.1z"/>
<path class="st142" d="M160.9,355.9c-0.6-1.3-1.6-2.2-2.8-2.9c-0.7-1-1.5-1.9-2.2-2.9c1.2-1.9,3.2-2.3,5.2-2.5
	c1.7-0.2,3.3-0.2,5-0.2c61.3,0,122.6,0,183.8,0c3.5,0,7.5-0.9,10.2,2.6c-0.4,0.6-0.8,1.2-1.2,1.8c-1.6,1.1-3,2.3-3.9,4
	c-0.2,2.3-2.1,2.2-3.7,2.5c-1.6,0.3-3.3,0.2-5,0.2c-58.9,0-117.8,0-176.7-0.1C166.6,358.5,162.7,360.1,160.9,355.9z"/>
<path class="st143" d="M360,350c-2.7-0.8-5.5-1.1-8.3-1.1c-62.5,0-125,0-187.5,0c-2.9,0-5.6,0.2-8.3,1.1c-2-2-4-4-6-6
	c1.9-1.9,4.3-1.6,6.6-1.6c67.7,0,135.4,0,203,0c2.3,0,4.7-0.2,6.6,1.6C364,346,362,348,360,350z"/>
<path class="st144" d="M146.8,341c-1.3-1.3-2.7-2.7-4-4c2.6-0.8,5.1-1.1,7.8-1.1c71.5,0,143,0,214.5,0c2.3,0,4.7-0.3,6.8,1
	c-1.1,1.3-2.2,2.6-3.3,3.9c-1.9,0.7-3.9,0.7-5.9,0.7c-70.2,0-140.3-0.1-210.5,0C150.4,341.6,148.6,341.5,146.8,341z"/>
<path class="st145" d="M146.8,341c2-1.2,4.1-1.1,6.3-1.1c69.9,0,139.8,0,209.8,0c2,0,4-0.2,5.8,1c-0.3,1.6-1.6,2.3-2.7,3.1
	c-72.1,0-144.1,0-216.2,0C148.8,343,147.8,342,146.8,341z"/>
<path class="st146" d="M160.9,355.9c1.4,1.7,3.4,1.1,5.1,1.1c61.3,0,122.5,0,183.8,0c1.7,0,3.7,0.7,5.1-1c3.6,1.6,6.1,4.9,10,5.9
	c0,0-0.2,0.3-0.2,0.3c-0.4,2.6-2.5,2.8-4.5,3.2c-2,0.4-4,0.2-6,0.2c-64.3,0-128.5,0-192.8,0c-2,0-4,0.1-6-0.2
	c-2-0.3-4.1-0.6-4.5-3.2C154.3,360.1,157.6,358,160.9,355.9z"/>
<path class="st147" d="M380.9,370.8c3.4,2,6.7,4.1,10.1,6.1c-2,1.2-4.1,1.1-6.3,1.1c-84.6,0-169.2,0-253.9,0c-2.1,0-4.4,0.6-5.8-1.8
	c1.2-3.3,4.7-3.5,7.1-5.2c3-1.3,5.8-3.6,9.4-2.4c3.1,0.8,6.3,0.8,9.4,0.8c71.5,0,142.9,0,214.4,0c3.5,0,7-0.3,10.5-0.3
	C377.9,368.7,379.1,370.6,380.9,370.8z"/>
<path class="st148" d="M375.8,369.1c-1.8,2-4.1,1.9-6.5,1.9c-74.3,0-148.6,0-222.8,0c-2.5,0-5.1,0.2-6.7-2.3
	c0.5-2.9,2.7-3.4,5.2-3.6c2-1,4-1.9,6-2.9c1.8,1.8,4.2,1.8,6.5,1.8c66.9,0,133.8,0,200.7,0c2.3,0,4.7,0.1,6.5-1.8
	C368.5,364.3,372.6,366,375.8,369.1z"/>
<path class="st149" d="M132.1,372c-2.4,1.4-4.7,2.8-7.1,4.2c-3,1.2-5.9,2.5-8.9,3.7c0.8-3.2,2.5-5.9,4-8.7
	C124,371.9,128.2,369.5,132.1,372z"/>
<path class="st108" d="M132.1,372c-3.4,0.2-6.8,0.2-10.1,0.5c-1.3,0.1-1.8-0.2-1.9-1.4c0.7-2.7,1.7-5.3,3.9-7.2
	c1.2,3.7,4.1,1.9,6.3,1.7c3.3-0.2,6.5-1.2,9.7-1.6c1.7-0.2,3.7-0.8,5.1,1c-1.4,1.6-4,1.6-5.2,3.6C137.3,369.8,134.7,370.9,132.1,372
	z"/>
<path class="st149" d="M114.1,476.9c-4.3-1-8.9-1.3-12.9-3c-13-5.7-26.1-11.4-36.7-21.3c-8.2-7.7-16-23.8-8.7-36.4
	c1.8,0.8,3,2.3,4,3.9c0.9,1,0.6,2.2,0.5,3.3c-1.1,10.8,3.1,19.3,10.8,26.5c10.3,9.6,22.2,16,35.7,19.9
	C109.8,471.7,113.1,473.1,114.1,476.9z"/>
<path class="st150" d="M107.2,470.8c-11-2.2-20.9-7-29.6-14c-6-4.8-12.3-9.5-15.7-17c-2.9-6.5-3.8-12.9-1.9-19.8
	c1,0.9,2.1,1.8,3.1,2.7c0.4,0.6,0.7,1.2,1.1,1.8c1.6,17.1,11.8,27.8,26.3,35.3c2.5,1.3,4.6,3.4,7.4,3.9c0.4,0.1,0.9,0.3,1.3,0.5
	c1.6,0.9,3.3,1.4,5,2.1C105.7,467.6,107.3,468.6,107.2,470.8z"/>
<path class="st104" d="M235.9,450.9c-0.8,0-1.6,0.2-2,1c-0.3,0-0.7,0-1,0c-2,1.3-4,2.7-6,4c-0.4,1.5-1.6,1.9-2.8,2.6
	c-1.3,0.7-2.7,1.3-4,2c-0.8,0.4-1.6,0.8-2.4,1.3c-0.9,0.5-1.8,0.9-2.8,1.1c-0.9,0.2-1.7,0.2-2.6,0.1c-3-0.7-6-0.4-8.9-0.4
	c-29.4,0-58.9,0-88.3,0c-3,0-6,0-8.9,0.7c-2.6,0.7-3.8-1.1-4.9-2.9c-1.2-4-4.6-7.7-2.3-12.4c0-0.7,0-1.3,0-2
	c1.9-1.7,4.3-1.6,6.6-1.6c42.3,0,84.5,0,126.8,0c2.7,0,5.8-0.5,7.5,2.6c-0.4,0.7-0.7,1.3-1.1,2C237.5,448.9,236.5,449.6,235.9,450.9
	z"/>
<path class="st151" d="M239.9,446.9c-2.1-1.3-4.5-1-6.8-1c-44.7,0-89.5,0-134.2,0c0-2,0-4,0-6c47.9,0,95.8,0,143.7,0
	c2.2,0,4.8-0.8,6.2,1.9c-1,0.7-2,1.5-3,2.2c-1,0.7-2,1.3-3,2C241.9,446.3,240.9,446.6,239.9,446.9z"/>
<path class="st20" d="M98.9,447.9c-0.2,4.3,2.3,7.9,3.1,12c0.4,1-0.2,1.3-1,1.5c-1.5,0-2.5-0.8-3.4-1.8
	c-7.5-7.4-14.9-14.8-22.3-22.3c-0.9-0.9-2-1.9-1.3-3.5c5.3-4.4,11.7-6.8,18.3-7.7c4.7-0.7,5.1,4.2,5.7,7.7
	C98.6,438.5,96.9,443.3,98.9,447.9z"/>
<path class="st152" d="M74,433.9c9,9,18,18,27,27c0.8,0.6,1.8,1.2,0.7,2.4c-1.3,0.7-2.7,0.8-3.8,0c-10.2-6.9-21.7-12.3-26.6-24.9
	c-0.9-2.3-2.5-4.5-0.3-6.9C72.1,432.4,73,433.2,74,433.9z"/>
<path class="st153" d="M71.1,431.6c1,9.1,6.2,15.8,13,21.3c4.3,3.5,9.7,5.4,13.8,9.3c1.1,1,2.5,0.7,3.8,0.8c0.9,0.6,0.8,1.3,0.4,2.1
	c-1.1,0.6-2.1,0.5-3.1-0.2c-14.7-6.3-27-15.4-33.3-30.8c-1-2.4-1.5-4.9,1.4-6.5C68.4,429,69.8,430.3,71.1,431.6z"/>
<path class="st154" d="M67.1,427.6c-1.9,3-0.1,5.2,0.9,8.1c2.8,7.9,7.8,13.9,14.3,18.6c5.3,3.9,11.1,7.1,16.6,10.6
	c-6.5-0.9-11.8-4.8-16.9-8.3c-6.2-4.3-11.1-10-15-16.8c-2.8-4.9-4.5-9.7-3-15.2C65.1,425.6,66.1,426.6,67.1,427.6z"/>
<path class="st155" d="M223.9,457.9c1-0.7,2-1.3,3-2c20.7,0,41.3,0,62,0c1,0.7,2,1.3,3,2c-4.3,2.2-9,2.2-13.5,2.3
	c-14.6,0.3-29.3,0.2-44,0.1C230.8,460.3,227.1,459.9,223.9,457.9z"/>
<path class="st156" d="M223.9,457.9c22.7,1.8,45.3,1.3,68,0c0.8,0,1.6,0.2,2,1c-1,2.3-3,2.3-5,2.4c-15,0.6-30.1,1.6-45.1,1
	c-6.8-0.3-13.5-1.2-20.3-1c-1.3,0-2.7-0.2-3.6-1.3C220.9,458.6,222.3,458.1,223.9,457.9z"/>
<path class="st157" d="M214,461.9c0.6,0,1.3,0,1.9,0c6.9-2.2,13.8-0.5,20.7-0.3c15.6,0.4,31.1,0.7,46.7-0.4
	c5.2-0.4,10.6-1.6,15.7,0.7c0.3,0,0.6,0,1,0c0.8,0.1,1.6,0.2,2,1c-4,2.4-8.8,2.1-13,2.1c-11.6,0.1-23.3,1.9-34.8,1
	c-12.3-0.9-24.6,0.3-36.8-1.8c-1-0.2-2-0.2-2.9-0.8C213.8,463.2,213.6,462.6,214,461.9z"/>
<path class="st158" d="M219.9,459.9c16.5,0,32.9,2.2,49.3,0.8c8.2-0.7,16.6,0.4,24.7-1.8c1.6,0.2,3,0.7,4,2
	c-7.2,0.9-14.5,1-21.8,1.3c-13,0.6-26,0.4-39,0.1c-6.4-0.1-12.9-0.8-19.3-1.4C218.3,460.1,219.1,459.9,219.9,459.9z"/>
<path class="st159" d="M217.9,460.9c26.7,1.6,53.3,1.1,80,0c0.3,0.3,0.7,0.7,1,1c-27.7,1.3-55.3,1.5-83,0
	C216.3,461.1,217.1,460.9,217.9,460.9z"/>
<path class="st160" d="M214,461.9c0,0.3,0,0.7,0,1c-0.2,0.4-0.5,0.7-0.9,1c-1.5,1-3.1,1.7-4.7,2.5c-0.8,0.4-1.5,0.8-2.3,1.1
	c-1.3,0.6-2.6,1.2-3.9,1.9c-0.7,0.4-1.5,0.7-2.2,1c-1,0.4-1.9,0.6-2.9,1.1c-0.8,0.4-1.5,0.7-2.2,1.1c-1.6,0.8-3.2,1.3-4.9,1.9
	c-1.1,0.4-2.1,0.7-3.1,1.2c-2.6,1.2-5.3,2-8,2.9c-2.4,0.5-4.8,1.2-7.1,2.1c-3,0.8-6.2,1.3-9.2,2.1c-3.7,0.2-7.3,1.2-11,1.5
	c-5.9,0.4-11.6-0.7-17.4-1.4c-7-0.8-13.8-2.4-19.9-6.2c-2.3-2-4.6-4-6.9-6c-1.1-1.3-2.2-2.6-3.4-3.9c-0.6-0.6-1.5-1.1-1.3-2.2
	c0.2-1.5,2-0.7,2.4-1.8c1.1-2.3,3.2-2,5.2-2c32.5,0,65,0,97.5,0C209.9,460.9,211.9,461.5,214,461.9z"/>
<path class="st161" d="M201.9,493.9c-1,0-2,0-3,0c-0.7-2.6-3.8-1.3-5-3c0.7-1.7,2.1-2,3.7-1.8c8.7,1,17.4,0.4,26.2,0.4
	c1.5,0,3,0.1,4.4,0.7c1,0.6,2,1.3,3.2,1.1c11.1-1.1,22.2,0.7,33.3,0.2c5.6-0.2,11.2-2.1,16.8-0.3c1.2,0.4,2.2-0.4,3.2-1.1
	c1.4-0.6,2.9-0.7,4.3-0.7c8.7-0.1,17.5,0.6,26.2-0.5c1.6-0.2,3,0.2,3.8,1.6c-2.5,2.9-5.9,2.2-9.1,2.2c-1,0-2,0-3,0
	c-3.9,1.4-8.1-0.4-12,1c-17.3,1.4-34.7,1-52.1,1c-12.7,0-25.4-0.8-38.1-1.8C203.8,493,202.9,493.6,201.9,493.9z"/>
<path class="st161" d="M134,483.1c6,0,12,0,18,0c9.2,0.3,18.1,2.6,27.2,3.7c4.3,0.5,8.8-0.4,13,1.5c1,0.7,1.6,1.5,0.7,2.7
	C172.9,490.9,153.4,487.7,134,483.1z"/>
<path class="st149" d="M192.9,490.9c0-0.8-0.2-1.6-1-2c-0.1-2.7,1.9-3.3,3.7-2.7c7.5,2.4,15.2,0.8,22.8,1.3c2.4,0.2,5.2-0.3,5.5,3.4
	c-9.2-0.2-18.5,0.9-27.7-0.8c-0.7-0.1-1.5,0.5-2.3,0.8C193.6,490.9,193.3,490.9,192.9,490.9z"/>
<path class="st135" d="M190.9,494.9c0-0.3,0-0.7,0-1c2.3,0,4.7,0,7,0C195.8,495.8,193.3,494.5,190.9,494.9z"/>
<path class="st134" d="M309.9,492.9c3-0.7,6.2-0.5,9-2c1.5-1.5,3.7-1.4,5.3-2.6c3.6,0,7.1-0.6,10.6-1.2c2-0.3,3.9-0.5,5.2,1.5
	c-0.1,3.2-3.1,0.8-4.1,2.3c-7.6,0.9-15.2,1.9-22.9,2.8C311.8,493.9,310.7,494,309.9,492.9z"/>
<path class="st134" d="M351.9,488.9c-0.7,0-1.3,0-2,0c-2.7,0.2-5.4,2.1-8.1,0.2c1.9-4.3,5.3-4.9,10.1-1.7
	C352.1,487.9,352.2,488.4,351.9,488.9z"/>
<path class="st134" d="M341.9,488.9c2.7,0.9,5.3-0.5,8,0c-4.4,2.7-9.3,1.9-14,2c0.9-1.6,3.1-0.4,4-2
	C340.5,488.4,341.2,488.3,341.9,488.9z"/>
<path class="st134" d="M351.9,488.9c0-0.3,0-0.7,0-1c-0.1-2,1.4-1.7,2.6-1.8c1.8,0.7,3.9-0.1,5.7,0.8c0.4,0.7,0.4,1.4-0.2,2
	C357.2,487.9,354.5,490.9,351.9,488.9z"/>
<path class="st134" d="M369.9,485.9c0,0.3,0,0.7,0,1c-0.3,0-0.7,0-1,0c-2.5,1.3-5.1,3.4-7.3-0.4C364.1,483.6,367,484.1,369.9,485.9z
	"/>
<path class="st108" d="M361.9,486.9c2.3,2.3,4.7,0.2,7,0c-2.3,3.6-6,1.4-9,2c0-0.7,0-1.3,0-2C360.5,486.4,361.2,486.3,361.9,486.9z"
	/>
<path class="st134" d="M294.9,493.9c3.9-2.1,8-0.5,12-1C303,495,298.9,493.4,294.9,493.9z"/>
<path class="st162" d="M199.8,469.8c0.5-0.8,1.3-0.9,2.1-1c5.2-1.7,10.4-1.3,15.8-0.8c7.2,0.7,14.5,1.2,21.8,0.6
	c2.8-0.2,5.7-0.5,8.5,0.1c3.1,0.7,6.3,1.1,9.4,0.6c8.1-1.1,16.2-0.7,24.3-0.7c10.1,0,20.2-2.1,30.4-0.8c1.3,0.3,2.6,0.7,3.9,1
	c0.1,0.3,0.1,0.6,0.1,0.9c-4.9,2.6-10.3,1.9-15.5,2.4c-23.9,2.2-47.9,0.8-71.9,1.1c-8.8,0.1-17.5-1.2-26.3-2.1
	C201.4,471.1,200.4,470.7,199.8,469.8z"/>
<path class="st163" d="M311.9,467.9c-1.3,0.7-2.7,1.1-4.3,1.1c-10.1,0.1-20.3,2.3-30.2,1.4c-10.3-0.9-20.4,2.5-30.6-0.3
	c-5.2-1.4-10.7,0.6-16.2,0c-9.5-1-19.2-0.9-28.8-1.2c1.1-1.2,2.5-1.8,4-2c4.2-1.5,8.3-1.3,12.7-0.6c6.5,1.1,13.2,1.1,19.8,1.2
	c18.1,0.1,36.2,0.7,54.3-1c5.5-0.5,10.9-2,16.2,0.4C310,467,311.2,466.7,311.9,467.9z"/>
<path class="st164" d="M308.9,466.9c-6.8-0.2-13.5,1-20.2,1.6c-10.3,0.9-20.7,0.6-31.1,0.4c-9.6-0.2-19.2-0.1-28.8-0.5
	c-7.7-0.3-15.3-2.6-23-1.5c0.4-0.8,1.2-1,2-1c3.8-1.6,7.8-1.6,11.7-1.3c23.2,2,46.4,1.1,69.6,0.6c6.3-0.2,12.5-1.2,18.7,0.7
	C308.3,466.2,308.6,466.6,308.9,466.9z"/>
<path class="st165" d="M212.9,463c0.3,0,0.7,0,1,0c15,0.7,30,1.8,45,1.9c14.3,0,28.7-1.2,43-1.9c0.3,0.3,0.7,0.7,1,1
	c-4.3,2.1-9.1,1.6-13.6,1.8c-24,1.1-48.1,1.3-72.1-0.4C215.6,465.2,213.4,465.6,212.9,463z"/>
<path class="st166" d="M212.9,463c1.6,1.3,3.5,1.8,5.5,1.9c20.4,1.4,40.8,1.2,61.3,0.9c7.7-0.1,15.5-1.2,23.2-1.9c1.9,0,3.7,0.5,5,2
	c-33.3,1.3-66.7,1.6-100,0C209.3,464.4,211.2,463.9,212.9,463z"/>
<path class="st167" d="M178.7,477.8c2.7-1,5.5-2,8.2-3c10,1.3,20,1.8,30.1,2.6c5.4,0.5,11,0.9,16.3,0.7c10.9-0.4,21.7,1.4,32.5-0.6
	c17.1,1.6,34-0.6,51-1.9c3.8-0.3,7.5-1,11.3-0.8c2.1,0.2,4.1,0.8,5.9,1.9c-0.6,3.4-3.4,2.8-5.7,3.1c-11.5,1.6-23,2.1-34.6,3.1
	c-3.1,0.4-6.2,0.4-9.2,0.3c-18.6,0-37.3,0-55.9,0c-3.1,0-6.2,0.1-9.3-0.3c-7.3-1.3-14.7-0.8-22.1-1.6c-4.9-0.6-9.7-1.9-14.7-1.6
	C181,479.8,179.6,479.2,178.7,477.8z"/>
<path class="st168" d="M189.8,473.9c1.4-1.3,3.3-1.6,5-2c29.3,2.1,58.7,1.7,88,1.6c10.6,0,21.1-1.2,31.7-1.9
	c2.1-0.1,4.3-0.5,6.4,0.3c1.8,0.4,3.6,0.7,5,2c-2.4,2.3-5.7,1.7-8.5,2c-14.3,1.5-28.7,1.9-43.1,3c-3,0.2-5.9-0.8-8.9-0.5
	c-18,0.7-36,0.5-53.9-1.7c-5.4-0.7-10.9,0.1-16.4-0.8C193.3,475.6,191.2,475.8,189.8,473.9z"/>
<path class="st169" d="M199.8,469.8c28.3,3.2,56.7,2,85.1,2c10.4,0,20.8-1.3,31.2-2c0.7,0.3,1.4,0.6,2,1c-3,1.9-6.4,1.6-9.6,1.8
	c-26,1.9-52.1,2.2-78.1,1.4c-9.5-0.3-18.9-1.2-28.3-1.6c-1.9-0.1-3.6-0.2-5.1-1.5C197.6,469.8,198.7,469.9,199.8,469.8z"/>
<path class="st170" d="M196.9,470.9c9,1.2,18.2,1.3,27.2,2.1c11,1,21.9,0.8,32.9,0.9c20.4,0.2,40.8-1.4,61.1-3.1
	c1.1,0.1,2.2-0.1,2.9,1.1c-32.3,4.9-64.9,2.9-97.3,2.7c-9.5-0.1-19.5,0.7-28.8-2.7C195.3,471.1,196.1,470.9,196.9,470.9z"/>
<path class="st171" d="M265.9,477.9c10.9-1.3,22-0.7,33-2.2c8.9-1.2,18.1-0.9,27.1-1.8c0.7,0.3,1.4,0.6,2.1,0.9
	c-4.7,3.1-10.2,2.3-15.2,2.8c-6.5,0.6-13.1,1.7-19.8,1.3c-9-0.5-18.1,2.5-27.2,0c-0.3-0.2-0.4-0.4-0.3-0.7
	C265.7,478,265.8,477.9,265.9,477.9z"/>
<path class="st149" d="M354.9,486.9c-1.1,0-2.3-0.2-3,1c-3.5-1.2-7-2.6-10,1c-0.7,0-1.3,0-2,0c-3.3-2.3-6.7,0.1-9.9,0.3
	c-2.2,0.2-4.1,0.1-6.1-0.3c-2.7,2-5.6,0.4-8.4,0.4c-1.5-2.2,0.5-2.6,1.7-3.2c1.6-0.8,3.5-0.5,5.1-1c0.5-0.1,1-0.2,1.6-0.1
	c5.8,0.4,11.5,0.8,17-1.7c0.5-0.3,0.9-0.4,1.5-0.5c4.2-0.8,8.4,0.6,12.6-0.7c4.3,0.3,8.6,0.7,12.9,1c0.1,0.8-0.2,1.4-0.9,1.5
	C362.8,484.9,358.9,486.4,354.9,486.9z"/>
<path class="st153" d="M323.9,485.9c-0.3,0-0.7,0-1,0c-5.3,0.3-10.5,1.5-15.8,1.8c-1.2,0.1-2.3,0.1-3.2-0.7
	c-0.9-1.6-0.1-2.5,1.2-3.2c0.4-0.2,0.9-0.4,1.4-0.4c5.7-0.9,11.6,0.8,17.1-2c0.5-0.2,0.9-0.3,1.4-0.5c0.8-0.2,1.5-0.2,2.3-0.3
	c1.3,0,2.6,0,3.9-0.1c4.3,0.2,8.5-0.1,12.7-0.8c3.1,0.3,6.1,0.8,9,2.1c-1.8,1.7-4,0.8-6,1c-1.8,0.1-3.6-0.2-5.1,1c-0.3,0-0.7,0-1,0
	C335.3,485.7,329.5,484.5,323.9,485.9z"/>
<path class="st172" d="M326.9,481.9c-0.7,0-1.3,0-2,0c-2.9-1.5-5.4,1.1-8.2,1c-3.6-0.2-7.1,0.5-10.7,0.1c-3.1,0.5-6.3,0.3-9.5,0.3
	c-1,0-2.5,0.5-2.6-1.4c1.6-1.7,3.7-0.9,5.6-1c8.5-0.1,17-0.6,25.4-2.5c3-0.7,6.6,1.5,9.1-1.7c1,0.3,2.2-0.1,3,1
	c0.3,2.3-1.6,2.1-2.9,2.5C331.7,481,329.1,480.7,326.9,481.9z"/>
<path class="st134" d="M354.9,486.9c3.6-3.7,8.9-1.6,12.9-3.9c2.3,0,4.7,0,7,0c0.2,2.2-2.3,1.5-2.9,2.9c-0.7,0-1.3,0-2,0
	c-2.7,0.4-5.5-1-8,1c-0.7,0-1.3,0-2,0C358.2,487.6,356.5,488.8,354.9,486.9z"/>
<path class="st138" d="M341.9,483.9c3.1-3.9,7.4-1.1,11.1-2c0.6,0.1,1.3,0.1,1.9,0.2c-0.6,2.7-2.8,1.7-4.5,1.8
	C347.5,484,344.7,483.9,341.9,483.9z"/>
<path class="st172" d="M326.9,481.9c2.7-3.1,7.1-1.9,10.1-4.2c1.4,0.1,2.8,0.3,3.9,1.2c-0.3,2.5-2.2,2.5-3.9,2.2
	c-2.2-0.3-4.1,0.1-6.1,0.8C329.6,481.9,328.2,481.9,326.9,481.9z"/>
<path class="st152" d="M330.9,481.9c1.9-1.3,3.8-2.4,6.2-1.5c1.6,0.6,2.8-0.4,3.8-1.5c1.1,0,2.3-0.3,3.1,0.8
	C340,483.1,335.3,481.5,330.9,481.9z"/>
<path class="st134" d="M371.9,485.9c-0.2-2.1,2.2-1.7,2.9-2.9c1.3,0,2.7,0,4,0C377.2,485.6,374.6,486,371.9,485.9z"/>
<path class="st154" d="M103,464.9c0.3,0.7,0.6,1.3,0.8,2c-1.9,0-3.6-0.5-4.8-2c1.1,0,2.1-0.1,3.2-0.1
	C102.5,464.4,102.7,464.4,103,464.9z"/>
<path class="st173" d="M103,464.9c-0.3,0-0.5-0.1-0.8-0.1c-0.2-0.6-0.3-1.3-0.5-1.9c-0.2-0.7-0.5-1.3-0.7-2c0.3-0.3,0.7-0.7,1-1
	c1,1,2,2,3,3C107.2,466.6,103.5,464.1,103,464.9z"/>
<path class="st153" d="M162.8,481.8c2.9-1.2,5.9-1.9,9-2c8.8,0.4,17.6,0.6,26.4,1.5c5.3,2.7,11.1,1.1,16.6,1.6
	c4.2,0.4,8.6,0,12.8,0.5c7.7,0.9,15.4,1.4,23.3,0.3c5.2-0.7,10.5-0.5,15.8,0.6c6.4,1.2,12.8-0.8,19.3-0.5c1.4,0.3,2.8,0.8,3.9,1.9
	c0.3,2.7-1.9,3.3-3.7,4.1c-14.2,0.2-28.4,1.1-42.6-0.1c-2.7-0.2-5.2,0.9-7.9,0.6c-12.9-1.6-25.9-2.1-38.8-3.3
	c-6.9-0.7-13.9-1.4-20.9-1.6C171.4,485.2,166.8,484.4,162.8,481.8z"/>
<path class="st150" d="M162.8,481.8c6.1,0.3,11.8,2.5,18,2.6c14,0.2,27.7,2.7,41.7,3.4c13.3,0.7,26.5,0.8,39.8,0.9
	c8.2,0,16.5,0.5,24.7,0.2c0.9-0.7,1.8-0.9,2.8-0.3c1,1.2,0,1.7-0.8,2.3c-1.3,0-2.7,0-4,0c-15.2,0.2-30.4,2.4-45.6,0.1
	c-3.8-0.6-7.6,1.2-11.4-0.1c-1.3,0-2.7,0-4,0c-0.9-2.1-2.8-2-4.6-2c-4.9,0-9.9,0-14.8,0c-2.9,0-5.9,0.2-8.6-1.4
	c-1.7-1.1-3.1-0.3-4,1.4c-6.5-2-13.5-1.4-20-2c-6.9-0.6-13.1-4-19.9-3.8C155.6,482.7,159.1,481.5,162.8,481.8z"/>
<path class="st171" d="M265.9,477.9c0,0.3,0,0.7,0,1c-5.9,1.1-11.8,1.7-17.7,0.1c-3.2-0.9-6.2,1.2-9.3,0.9
	c-14.3-1.3-28.8-0.5-43-3.1c-3-0.6-6.9,2.3-9-2c0.7-1.1,1.9-0.8,2.9-0.9c2.7,0.9,5.5,1.1,8.3,1.1c13.5-0.3,26.9,2.4,40.4,2.8
	C247.7,478.1,256.8,477.9,265.9,477.9z"/>
<path class="st172" d="M197.9,481.9c-8.8-0.2-17.7,1.2-26.2-2.1c2.1-1.4,4.5-1.9,6.9-2c11.9,1,23.6,3.4,35.6,3.2
	c1.6,0,3.4-0.6,4.7,1c0,0.2,0,0.5-0.1,0.5C211.9,483.3,204.9,483.6,197.9,481.9z"/>
<path class="st149" d="M227.9,490.9c3.8-2,7.8-1.2,11.6-0.8c11.3,1.1,22.4,1.1,33.7,0c3.8-0.4,7.9-1.2,11.6,0.8
	c-0.2,1.8-1.5,2.4-2.8,1.9c-5.8-1.9-11.5,0.3-17.2,0.1c-8.9-0.4-17.9,0.8-26.8-0.9c-2-0.4-4.2,0.7-6.3,0.8
	C230.2,493,228.3,493.4,227.9,490.9z"/>
<path class="st149" d="M288.9,490.9c0.3-0.7,0.7-1.3,1-2c0.8-0.9,1.9-1.3,3.1-1.3c6.1-0.3,12.2,0.4,18.3-0.1
	c1.3-0.1,2.6,0.3,3.6,1.4c3,0,6,0,9,0c-0.7,3.2-3.2,1.6-5,2c-2.7-2-5.4,0.2-8.2,0.1C303.5,490.7,296.2,490.9,288.9,490.9z"/>
<path class="st172" d="M197.9,481.9c7,0,14,0,21,0c3,0,6,0,9,0c1.4,1.1,3.1,1,4.8,1c15.8,0,31.6,0,47.4,0c1.7,0,3.3,0.1,4.8-1
	c3,0,6,0,9,0c4,0,8,0,12,0c0.6,0.7,0.6,1.3,0,2c-6.2,2-12.6,1.2-19,1c-9.5,1.1-19,1.4-28.6,0.1c-4.6-0.6-9.2,0.4-13.8,0.8
	c-6.9,0.7-13.8-0.9-20.7-1.6c-7.3-0.7-14.7-0.2-22-0.3C200.2,483.9,198.2,484.4,197.9,481.9z"/>
<path class="st172" d="M284.9,481.9c-1.1,2.3-3.2,2-5.1,2c-15.6,0-31.1,0-46.7,0c-2,0-4.1,0.3-5.1-2
	C246.9,481.9,265.9,481.9,284.9,481.9z"/>
<path class="st138" d="M314.9,488.9c-8.3,0-16.7,0-25,0c-1,0-2,0-3,0c1-1,2-2,3-3c0.8-0.9,1.8-0.9,2.9-0.8c3.2,0.8,6.5,0.6,9.7,0.3
	c0.5,0,1,0.2,1.4,0.5c3.6,1.4,7.3-0.1,10.9-0.2c2.8-0.1,5.4-0.1,8.1,0.2C320.6,488,316.8,485.9,314.9,488.9z"/>
<path class="st138" d="M323.9,485.9c0.5-0.9,1.1-1.8,2.1-1.8c5,0.1,9.9-1,14.9-0.2c-0.1,1-0.6,2.6-1.3,2.4
	C334.4,484.7,329,488.7,323.9,485.9z"/>
<path class="st152" d="M305.9,483.9c0-0.7,0-1.3,0-2c4,0,8,0,12,0c2-0.6,4-1.1,6,0c-0.4,0.9-1.1,1.8-2.1,1.8
	C316.5,483.8,311.2,484.9,305.9,483.9z"/>
<path class="st152" d="M303.9,485.9c-0.3,0-0.7,0-1,0c-3.3-0.4-6.7,0.8-10,0c-1,0-2,0-3,0c-1.1,0-2.3,0.2-3-1c6.2-2,12.7-0.9,19-1
	C305.2,484.6,304.6,485.2,303.9,485.9z"/>
<path class="st172" d="M323.9,481.9c-2,0-4,0-6,0c2.3-0.6,4.7-3.8,7,0C324.6,481.9,324.2,481.9,323.9,481.9z"/>
<path class="st153" d="M292.9,485.9c3.3-0.2,6.7-2.2,10,0C299.6,487.5,296.2,487.5,292.9,485.9z"/>
</svg>
