<?xml version="1.0" encoding="utf-8"?>
<!-- Generator: Adobe Illustrator 24.1.0, SVG Export Plug-In . SVG Version: 6.00 Build 0)  -->
<svg version="1.1" id="Capa_1" xmlns="http://www.w3.org/2000/svg" xmlns:xlink="http://www.w3.org/1999/xlink" x="0px" y="0px"
	 viewBox="0 0 512 512" style="enable-background:new 0 0 512 512;" xml:space="preserve">
<style type="text/css">
	.st0{fill:#4DA6FF;}
	.st1{fill:#3377FF;}
	.st2{fill:#59C36A;}
	.st3{fill:#97DE3D;}
</style>
<g>
	<path class="st0" d="M403,224l26.6-21.4C406.8,128.4,337.7,73.7,256,73.7c-7.9,0-15.7,0.7-24,1.7L89.9,330.8
		c29.2,63,92.5,107.5,166.1,107.5c81.7,0,150.8-54.7,173.6-128.9L403,288V224z"/>
	<path class="st1" d="M429.6,309.4L403,288V224l26.6-21.4C406.8,128.4,337.7,73.7,256,73.7v364.7
		C337.7,438.3,406.8,383.6,429.6,309.4z"/>
	<path class="st2" d="M429.6,202.6H403l-45,22.5l-27.3,26.5V284l50.9,25.4h47.9c5.2-16.9,8.7-34.8,8.7-53.4
		C438.3,237.4,434.8,219.5,429.6,202.6z"/>
	<g>
		<path class="st3" d="M305.3,159.9H288v-17.3l-32-16l-12.2-6.1l-11.1-45.1c-89.3,11.5-159,88.3-159,180.7c0,26.7,6.6,52,17,74.8
			h41.6l19.1-19.1l42.7,21.4l34.4-34.4l-25.8-25.8v-6.3h38.7l14.8-29.5l4.8-9.6l40.1,20l32.3-32.3L305.3,159.9z"/>
		<path class="st2" d="M300.8,247.6l32.3-32.3l-27.8-55.5H288v-17.3l-32-16v110.6l4.8-9.6L300.8,247.6z"/>
		<path class="st3" d="M303.2,330.8l-21.4-21.4H256h-4.4L224,337v30.2l29.2,29.2l2.9-1l74.8-24.9v-39.7H303.2z"/>
		<path class="st2" d="M330.8,330.8h-27.6l-21.4-21.4H256v86l74.8-24.9V330.8z"/>
	</g>
</g>
<polygon class="st1" points="262.9,23.4 262.9,0 249.1,0 249.1,23.4 234.2,23.4 256,53 277.8,23.4 "/>
<polygon class="st1" points="250.6,487.4 250.6,510.9 264.3,510.9 264.3,487.4 279.2,487.4 257.4,457.9 235.6,487.4 "/>
<polygon class="st1" points="487.4,262.9 510.9,262.9 510.9,249.1 487.4,249.1 487.4,234.2 457.9,256 487.4,277.8 "/>
<polygon class="st1" points="24.6,249.1 1.1,249.1 1.1,262.9 24.6,262.9 24.6,277.8 54.1,256 24.6,234.2 "/>
</svg>
