<?xml version="1.0" encoding="utf-8"?>
<!-- Generator: Adobe Illustrator 24.1.0, SVG Export Plug-In . SVG Version: 6.00 Build 0)  -->
<svg version="1.1" id="Layer_1" xmlns="http://www.w3.org/2000/svg" xmlns:xlink="http://www.w3.org/1999/xlink" x="0px" y="0px"
	 viewBox="0 0 512 512" style="enable-background:new 0 0 512 512;" xml:space="preserve">
<style type="text/css">
	.st0{fill:#83D8F4;}
	.st1{fill:#E0E0E2;}
	.st2{fill:#898890;}
	.st3{fill:#91CC04;}
	.st4{fill:#1A6FB0;}
	.st5{fill:#FFDAAA;}
	.st6{fill:#CCA400;}
	.st7{fill:#FFFFFF;}
</style>
<g>
	<g>
		<path class="st0" d="M496,68v292H16V68c0-11,8.9-20,20-20c0,0,0,0,0,0h440C487,48,496,56.9,496,68C496,68,496,68,496,68z"/>
		<path class="st1" d="M496,360v20c0,11-8.9,20-20,20c0,0,0,0,0,0H36c-11,0-20-8.9-20-20c0,0,0,0,0,0v-20H496z"/>
		<path class="st2" d="M320,448H192l16-48h96L320,448z"/>
		<path class="st1" d="M168,448h176v24H168V448z"/>
	</g>
	<path class="st3" d="M336,264v22.4c-43.3,44.2-114.2,44.9-158.4,1.6c-0.5-0.5-1.1-1.1-1.6-1.6V264c0-22.1,17.9-40,40-40h80
		C318.1,224,336,241.9,336,264z"/>
	<path class="st4" d="M336,286.4V264c0-22.1-17.9-40-40-40h-80c-22.1,0-40,17.9-40,40v22.4c-43.3-44.2-42.6-115.1,1.6-158.4
		s115.1-42.6,158.4,1.6C378.7,173.2,378.7,242.8,336,286.4z"/>
	<circle class="st5" cx="256" cy="168" r="40"/>
	<g>
		<path class="st6" d="M40,152h80v48H40V152z"/>
		<path class="st6" d="M392,152h80v48h-80V152z"/>
	</g>
</g>
<circle class="st4" cx="406" cy="62.5" r="53"/>
<polygon class="st4" points="362.8,79.7 353,117.5 406,107.2 "/>
<path class="st7" d="M441.6,43c-2.5,1.3-6.4,1.9-7.6,2.1c0-0.1,0-0.1,0-0.2c4.3-2.7,5.6-7.7,5.6-7.7c-2.7,1.5-5,2.4-6.8,2.8
	c-1,0.3-1.8,0.4-2.4,0.5c-2.7-2.8-6.4-4.5-10.6-4.5c-8.2,0-14.8,6.6-14.8,14.8c0,0.3,0,0.6,0,0.9c0,0.7,0.1,1.4,0.3,2.1
	c-4-0.1-18.2-1.3-30.1-15c0,0-6.6,11.5,4.5,19.3c0,0-4.5-0.1-6.9-1.8c0,0-0.7,11.1,12.1,14.6c0,0-4.5,1.1-6.7,0.1
	c0,0,2.2,9.5,13.5,10.2c0,0-8,7.4-21.2,6.3c6.5,4.1,14.1,6.5,22.3,6.5c23.1,0,41.8-18.7,41.8-41.8c0-0.3,0-0.6,0-0.9
	c0-0.2,0-0.3,0-0.5c0-0.1,0-0.2,0-0.4C438.8,47.7,441.6,43,441.6,43z"/>
</svg>
