<svg width="24" height="24" viewBox="0 0 24 24" fill="none" xmlns="http://www.w3.org/2000/svg">
<g clip-path="url(#clip0_2029_6630)">
<path d="M11.3945 0.00195312H11.4745C11.7579 0.0868012 11.9988 0.239688 12.2302 0.425393C15.4848 3.04448 18.7395 5.66356 21.9894 8.28825C22.1615 8.42753 22.3736 8.54039 22.42 8.79013C22.42 8.82936 22.4128 8.86778 22.3976 8.9046C21.4635 9.73947 20.4557 10.4839 19.4775 11.2643C17.081 13.1758 14.678 15.0793 12.2734 16.9796C12.1069 17.1108 11.9484 17.2605 11.7203 17.2797C11.5058 17.2685 11.3529 17.1349 11.196 17.0116C7.96534 14.4557 4.73469 11.8991 1.51445 9.33044C1.32794 9.18156 1.12543 9.04628 1.02857 8.81255C1.02057 8.57481 1.20547 8.46675 1.35436 8.34028C3.16179 6.80661 4.97563 5.28014 6.78707 3.75208C8.0694 2.67067 9.35013 1.58605 10.6333 0.505438C10.8686 0.306926 11.1103 0.124423 11.3945 0.00275358V0.00195312Z" fill="#333333"/>
<path d="M22.3689 8.79102C22.4762 8.9335 22.4329 9.09919 22.4329 9.25448C22.4337 11.2252 22.4257 13.1959 22.4345 15.1658C22.4361 15.4596 22.3481 15.6461 22.1096 15.8326C18.7276 18.4797 15.3561 21.1396 11.9838 23.7987C11.9125 23.8548 11.8573 23.9324 11.7949 23.9996H11.7148C11.5603 23.7715 11.5355 23.5138 11.5435 23.248C11.5579 22.791 11.5163 22.3315 11.5723 21.876C11.6988 21.5639 11.9718 21.3854 12.2207 21.1884C15.3337 18.7262 18.4331 16.2472 21.5588 13.8011C22.0439 13.4216 22.2728 13.0318 22.2056 12.4267C22.1528 11.952 22.232 11.4709 22.1888 10.9923C22.18 10.4736 22.1864 9.95488 22.1848 9.43698C22.1848 9.23367 22.2056 9.03836 22.3441 8.87586C22.3521 8.84785 22.3601 8.81983 22.3689 8.79102Z" fill="#EE9EFC"/>
<path d="M11.7298 21.7578C11.725 22.5054 11.7194 23.2538 11.7146 24.0014H11.6345C10.9766 23.3787 10.2393 22.8528 9.53333 22.2893C6.77575 20.088 4.00617 17.902 1.23898 15.7119C1.0829 15.5887 0.998047 15.4502 0.998047 15.2405C1.00445 13.1209 1.00365 11.0013 1.00445 8.88086C1.25259 8.9601 1.23418 9.17783 1.23898 9.36673C1.25179 9.90704 1.24859 10.4481 1.24139 10.9885C1.21657 11.6776 1.23258 12.3676 1.23738 13.0584C1.23898 13.2906 1.40468 13.4074 1.55997 13.5331C3.13367 14.8018 4.72258 16.0513 6.30588 17.308C8.02447 18.6728 9.74225 20.0376 11.4616 21.4008C11.5665 21.484 11.669 21.5681 11.717 21.6993C11.721 21.7185 11.7258 21.7377 11.7298 21.757V21.7578Z" fill="#9DE0FE"/>
<path d="M15.1838 9.4339C15.1782 10.8187 14.2529 12.0338 12.9353 12.3852C11.5666 12.7494 10.1946 12.1891 9.49977 10.9396C8.73774 9.56838 8.34952 8.05953 7.96369 6.55467C7.75878 5.75422 7.76918 5.76062 8.58965 5.81665C10.0641 5.91751 11.5337 6.05519 12.9554 6.48743C14.3602 6.91408 15.1894 8.02751 15.1838 9.43471V9.4339Z" fill="#FEFEFE"/>
<path d="M1.08319 11.1159C1.08079 10.5091 1.07999 9.9032 1.07278 9.29645C1.07118 9.15557 1.11441 9.00429 1.00474 8.87942C0.996739 8.83299 1.01515 8.80337 1.06158 8.79297C4.47393 11.4969 7.88628 14.2008 11.2994 16.904C11.4347 17.0112 11.5756 17.1113 11.7141 17.2137C11.8245 17.2842 11.871 17.3914 11.8718 17.5147C11.875 18.1191 11.9318 18.7242 11.8341 19.3245C11.8293 19.3678 11.8181 19.4102 11.8029 19.451C11.5716 19.6975 11.4115 19.4614 11.265 19.3461C10.27 18.5625 9.27988 17.7741 8.28811 16.988C6.03162 15.2006 3.78553 13.3996 1.52024 11.6234C1.33933 11.4817 1.17124 11.3336 1.08239 11.1151L1.08319 11.1159Z" fill="#40C3FE"/>
<path d="M11.7261 19.4422C11.722 18.7002 11.7188 17.9573 11.7148 17.2153C14.2915 15.1782 16.8674 13.141 19.4433 11.1039C20.299 10.4275 21.1514 9.74708 22.0079 9.0723C22.1088 8.99225 22.1928 8.87459 22.3441 8.87699C22.3449 9.62381 22.3457 10.3706 22.3465 11.1167C22.2689 11.2904 22.1536 11.4312 22.0039 11.5489C18.7525 14.104 15.5274 16.691 12.276 19.2461C12.1223 19.3669 11.9814 19.5807 11.7261 19.4422Z" fill="#DF40FA"/>
<path d="M11.726 19.4427C12.3656 19.0601 12.9131 18.555 13.4942 18.0963C15.2464 16.7148 16.9882 15.3212 18.7356 13.934C19.8274 13.0671 20.9225 12.2034 22.0175 11.3405C22.1215 11.2589 22.2368 11.1908 22.3465 11.1172C22.3489 11.7567 22.3433 12.3963 22.3569 13.0359C22.3625 13.276 22.264 13.4313 22.0831 13.5754C19.1158 15.9287 16.1517 18.2877 13.1852 20.6418C12.7066 21.022 12.2159 21.387 11.73 21.7584H11.7044C11.4602 21.0108 11.437 20.2632 11.6988 19.5139C11.706 19.4891 11.7148 19.4651 11.726 19.4419V19.4427Z" fill="#E66FFB"/>
<path d="M11.6986 19.5147C11.7002 20.2632 11.7018 21.0108 11.7042 21.7592C10.2922 20.6514 8.87779 19.5468 7.46978 18.4341C5.70718 17.0405 3.95097 15.6389 2.19237 14.2414C1.89059 14.0012 1.58962 13.7611 1.28385 13.5258C1.11975 13.3993 1.07092 13.2376 1.07333 13.0367C1.08293 12.3971 1.08053 11.7576 1.08293 11.1172C2.00106 11.7511 2.84474 12.4828 3.71964 13.172C5.5759 14.6336 7.42256 16.1064 9.27242 17.5768C10.0825 18.2212 10.8901 18.8688 11.6986 19.5147Z" fill="#6CD1FE"/>
</g>
<defs>
<clipPath id="clip0_2029_6630">
<rect width="24" height="24" fill="white"/>
</clipPath>
</defs>
</svg>
