<svg height="512" viewBox="0 0 512 512" width="512" xmlns="http://www.w3.org/2000/svg"><g id="Flat"><rect fill="#e0e0de" height="272" rx="24" width="368" x="72" y="184"/><path d="m112 184h288v272h-288z" fill="#348fd9"/><path d="m280 184v32a24.006 24.006 0 0 0 24 24h56v40l40-28.57v-67.43z" fill="#3086cd"/><path d="m416 184h-16v67.43l16-11.43h24v-32a24.006 24.006 0 0 0 -24-24z" fill="#d6d6d4"/><path d="m129.373 344a22.627 22.627 0 0 0 -16 6.627l-41.373 41.373v-64l-38.627 38.627a32 32 0 0 0 -9.373 22.628v106.745h80v-8a71.176 71.176 0 0 0 9.145-69.139l-1.145-2.861 33.373-33.373a22.628 22.628 0 0 0 6.627-16 22.628 22.628 0 0 0 -22.627-22.627z" fill="#fec9a3"/><path d="m56 416a8 8 0 0 1 -5.657-13.657l16-16a8 8 0 0 1 11.314 11.314l-16 16a7.974 7.974 0 0 1 -5.657 2.343z" fill="#f7ad7c"/><circle cx="256" cy="312" fill="#f35244" r="64"/><path d="m232 280v64l56-32z" fill="#e0e0de"/><path d="m144 408h224v16h-224z" fill="#2b78b8"/><circle cx="184" cy="416" fill="#f35244" r="16"/><g fill="#2b78b8"><path d="m136 208h16v16h-16z"/><path d="m168 208h16v16h-16z"/><path d="m200 208h16v16h-16z"/></g><path d="m488 48v144a24.006 24.006 0 0 1 -24 24h-64l-56 40v-40h-56a24.006 24.006 0 0 1 -24-24v-144a24.006 24.006 0 0 1 24-24h176a24.005 24.005 0 0 1 24 24z" fill="#60d1e0"/><path d="m443.719 148.292-11.929-1.592a224.214 224.214 0 0 0 -85.152 5.029l-15.777-40.117a224.231 224.231 0 0 0 65.763-54.326l7.651-9.286z" fill="#e0e0de"/><path d="m448 100.286-18.086 12.904-11.833-30.088 22.03-2.874z" fill="#cfcfcd"/><path d="m363.5 184.5-25.087 5.208-16.848-28.115 22.435-9.593z" fill="#e0e0de"/><path d="m404 148a8 8 0 0 1 -7.415-4.991l-13-32a8 8 0 0 1 14.824-6.022l13 32a8 8 0 0 1 -7.409 11.013z" fill="#cfcfcd"/><path d="m302.339 117.022h37.719v43.108h-37.719z" fill="#f35244" transform="matrix(.931 -.366 .366 .931 -28.432 127.175)"/><path d="m471.96 25.36-23.99 32.56-12.61-9.84 17.74-24.08h10.9a23.848 23.848 0 0 1 7.96 1.36z" fill="#a0dde5"/><path d="m465.333 119.667h22.667v16h-22.667z" fill="#a0dde5"/><path d="m488 65.22v17.32l-19.15 7.94-5.7-14.96z" fill="#a0dde5"/><path d="m382.627 344a22.627 22.627 0 0 1 16 6.627l41.373 41.373v-64l38.627 38.627a32 32 0 0 1 9.373 22.628v106.745h-80v-8a71.176 71.176 0 0 1 -9.145-69.139l1.145-2.861-33.373-33.373a22.628 22.628 0 0 1 -6.627-16 22.628 22.628 0 0 1 22.627-22.627z" fill="#fec9a3"/><path d="m456 416a8 8 0 0 0 5.657-13.657l-16-16a8 8 0 0 0 -11.314 11.314l16 16a7.974 7.974 0 0 0 5.657 2.343z" fill="#f7ad7c"/></g></svg>