<?xml version="1.0" encoding="utf-8"?>
<!-- Generator: Adobe Illustrator 24.1.0, SVG Export Plug-In . SVG Version: 6.00 Build 0)  -->
<svg version="1.1" id="Layer_1" xmlns="http://www.w3.org/2000/svg" xmlns:xlink="http://www.w3.org/1999/xlink" x="0px" y="0px"
	 viewBox="0 0 612 609.4" style="enable-background:new 0 0 612 609.4;" xml:space="preserve">
<style type="text/css">
	.st0{fill:#508ECB;}
	.st1{fill:#32AF4A;}
</style>
<path id="_Compound_Path_" class="st0" d="M106.3,340.3H95.4L72.8,270h-0.4l-22.6,70.3H39.1L0,235.8h21l23.2,67.9h0.4l21.6-67.9
	h12.6l21.7,67.9h0.4l23.2-67.9h21L106.3,340.3z"/>
<path id="_Compound_Path_2" class="st0" d="M165.9,296.5c3.3,16.4,17.6,28.3,34.3,28.5c12.4,0.2,23.9-6.6,29.8-17.5h19.6
	c-7.5,21.2-27.6,35.4-50.1,35.4c-29.4,0-53.2-25.5-53.2-55.1c-0.4-29.5,23.3-53.7,52.7-54s53.7,23.3,54,52.7c0,3.4-0.4,8.7-0.5,10
	H165.9z M233.5,281.5c-1.9-18.6-18.5-32.2-37.1-30.4c-16.1,1.6-28.8,14.3-30.4,30.4H233.5z"/>
<path id="_Compound_Path_3" class="st1" d="M267.9,235.8h17.9v16h0.4c8.5-12.1,22.4-19.2,37.2-18.8c35.4,0,54.1,28.5,54.1,56.3
	c0.5,29.1-22.6,53-51.7,53.6c-0.4,0-0.8,0-1.1,0c-21.9,0-32.8-11.1-36.7-17.7h-0.4v50h-19.5V235.8z M322,251
	c-20.6,0-34.9,17.7-34.9,36.9c-0.8,19.5,14.4,36,33.9,36.7c19.5,0.8,36-14.4,36.7-33.9c0-0.8,0-1.6,0-2.4
	C357.9,269.6,343.4,251,322,251z"/>
<path id="_Compound_Path_4" class="st1" d="M478.3,340.3V324h-0.4c-7.6,12.3-21.2,19.5-35.6,18.9c-29.6,1-54.4-22.2-55.4-51.8
	c0-1,0-1.9,0-2.9c0-25.4,17.9-55.4,55.4-55.4c14-0.6,27.4,6,35.4,17.5h0.4v-14.5h19.6v104.4H478.3z M442.3,251
	c-24.1,0-35.8,21-35.8,37.3c-0.7,19.9,14.9,36.6,34.8,37.2c19.9,0.7,36.6-14.9,37.2-34.8c0-0.8,0-1.6,0-2.5
	c0.9-19.7-14.3-36.3-34-37.3C443.8,251,443.1,251,442.3,251z"/>
<path id="_Compound_Path_5" class="st1" d="M554.5,375.2h-20.3l15.3-37l-41.7-102.4h21l30.7,81.1l31.5-81.1h21L554.5,375.2z"/>
</svg>
