<?xml version="1.0" encoding="utf-8"?>
<!-- Generator: Adobe Illustrator 24.1.0, SVG Export Plug-In . SVG Version: 6.00 Build 0)  -->
<svg version="1.1" id="Capa_1" xmlns="http://www.w3.org/2000/svg" xmlns:xlink="http://www.w3.org/1999/xlink" x="0px" y="0px"
	 viewBox="0 0 512 512" style="enable-background:new 0 0 512 512;" xml:space="preserve">
<style type="text/css">
	.st0{fill:#F0EFEB;}
	.st1{fill:#9C5A90;}
	.st2{fill:#FFFFFF;}
	.st3{fill:#455A64;}
</style>
<path class="st0" d="M512,256c0,2.1,0,4.2-0.1,6.3c-0.1,4.8-0.4,9.5-0.7,14.2c-0.4,5.6-1.1,11.1-1.9,16.5
	C491.4,416.9,384.8,512,256,512C123,512,13.7,410.6,1.2,280.9C0.4,272.7,0,264.4,0,256c0-9.8,0.6-19.6,1.6-29.1
	c7.8-68.3,42.3-128.4,93-169.6c16.5-13.4,34.6-24.8,54.1-33.8C181.3,8.4,217.7,0,256,0s74.7,8.4,107.3,23.5
	c12.4,5.7,24.3,12.5,35.6,20.1c57.5,38.7,98.4,100.2,109.8,171.5c0.9,5.4,1.6,11,2.1,16.5c0.4,4.7,0.8,9.4,1,14.2
	C511.9,249.2,512,252.6,512,256z"/>
<path class="st1" d="M371.7,114.1H123.1c-15.8,0-28.5,12.8-28.5,28.5v93.6c0,15.8,12.8,28.5,28.5,28.5h118.3l52.4,30.5l-10.5-30.5
	h88.3c15.8,0,28.5-12.8,28.5-28.5v-93.6C400.2,126.8,387.4,114.1,371.7,114.1z"/>
<g>
	<path class="st2" d="M139,250.5h-0.1c-3.4,0-6.6-1.8-8.5-4.6c-3-4.5-7.5-14.8-15.1-55.2c-4-21.7-7.1-42.1-7.1-42.3
		c-0.9-5.7,3.1-11.1,8.8-11.9c5.7-0.9,11.1,3.1,11.9,8.8c0,0.2,3,20.1,7,41.3c2.3,12.3,4.2,21.4,5.9,28.2
		c9.9-18.2,22-42.7,27.3-53.8c1.9-4.1,6.3-6.4,10.7-5.9c4.5,0.5,8.1,3.9,9,8.3c1.7,8.3,6.2,25.6,12.6,41.3
		c2.4-22.3,6.9-50.7,15.6-68.5c2.5-5.2,8.8-7.4,14-4.8c5.2,2.5,7.4,8.8,4.8,14c-13.8,28.4-15.9,92.9-15.9,93.6
		c-0.1,4.2-2.7,7.9-6.6,9.4c-3.9,1.5-8.3,0.6-11.3-2.3c-9.4-9.4-18-25.6-25.5-48.1c-0.3-1-0.6-1.9-0.9-2.9
		c-9.2,18.3-21.3,41.5-28.1,51C145.6,248.9,142.4,250.5,139,250.5z"/>
	<path class="st2" d="M301.8,162c-4.4-8.9-11.9-15-21.7-17.7c-11.2-3.1-23.3,1-32.4,11.1c-10.8,11.9-18.7,34.1-8.4,61
		c7,18.4,18.1,21.8,25.3,21.8c0.8,0,1.5,0,2.2-0.1c19-1.8,35-27,38.1-44.3C307.1,181.3,306.1,170.6,301.8,162z M284.2,190
		c-1,5.4-4.3,12.5-8.6,18.2c-4.4,5.8-8.7,8.7-10.8,8.9c-1.3,0.1-3.7-2.7-5.9-8.3c-4.3-11.2-5.7-28.3,4.3-39.4c3-3.3,6.5-5.2,9.5-5.2
		c0.6,0,1.2,0.1,1.7,0.2C285.8,167.6,286,180,284.2,190z"/>
	<path class="st2" d="M379.7,162c-2.2-4.4-5.2-8.2-8.8-11.2c-3.7-3-8-5.2-12.9-6.6c-11.2-3.1-23.3,1-32.4,11.1
		c-10.8,11.9-18.7,34.1-8.4,61c7,18.4,18.1,21.8,25.3,21.8c0.8,0,1.5,0,2.2-0.1c19-1.8,35-27,38.1-44.3
		C385,181.3,384,170.6,379.7,162z M362.2,190c-1,5.4-4.3,12.5-8.6,18.2c-4.4,5.8-8.7,8.7-10.8,8.9c-1.3,0.1-3.7-2.7-5.9-8.3
		c-4.3-11.2-5.7-28.3,4.3-39.4c3-3.3,6.5-5.2,9.5-5.2c0.6,0,1.2,0.1,1.8,0.2C363.7,167.6,363.9,180,362.2,190z"/>
</g>
<g>
	<path class="st1" d="M339.5,320.7c-0.7-0.9-1.7-1.3-2.8-1.3H203.3c-1.9,0-3.5,1.6-3.5,3.5c0,0.2,0,0.5,0.1,0.7l14,70.2
		c0.4,1.8,2.1,3.1,3.9,2.8l105.4-14c1.4-0.2,2.6-1.2,2.9-2.6l14-56.2C340.5,322.7,340.2,321.6,339.5,320.7z"/>
	<g>
		<circle class="st3" cx="301.7" cy="435.2" r="17.6"/>
		<circle class="st3" cx="231.4" cy="435.2" r="17.6"/>
		<path class="st3" d="M234.6,410.7h81.1c1.9,0,3.5-1.6,3.5-3.5s-1.6-3.5-3.5-3.5h-81.1c-8.4,0-15.6-5.9-17.2-14.1l-17.7-88.4
			c-0.3-1.6-1.8-2.8-3.4-2.8h-21.1c-1.9,0-3.5,1.6-3.5,3.5s1.6,3.5,3.5,3.5h18.2l17.1,85.6C212.8,402.4,222.9,410.6,234.6,410.7z"/>
	</g>
</g>
</svg>
