<?xml version="1.0" encoding="utf-8"?>
<!-- Generator: Adobe Illustrator 24.1.0, SVG Export Plug-In . SVG Version: 6.00 Build 0)  -->
<svg version="1.1" id="Layer_1" xmlns="http://www.w3.org/2000/svg" xmlns:xlink="http://www.w3.org/1999/xlink" x="0px" y="0px"
	 viewBox="0 0 283.5 283.5" style="enable-background:new 0 0 283.5 283.5;" xml:space="preserve">
<style type="text/css">
	.st0{fill:#955889;}
	.st1{fill:#253B7F;}
	.st2{fill:#179AD6;}
	.st3{fill:#3C3C3C;}
	.st4{fill:#253B80;}
	.st5{fill:#F6F6F6;}
	.st6{fill:#F5F5F5;}
	.st7{fill:#222D65;}
	.st8{fill:#95588A;}
	.st9{fill:#96588A;}
</style>
<path class="st0" d="M64.1,106.6c-4.6-2.6-8.8-4.9-12.9-7.4c-2.5-1.6-5.1-2.2-8-2.2c-10.5,0.1-20.9,0.1-31.4,0.1
	c-6.1,0-9.8-3.7-9.8-9.9c0-9.6,0-19.1,0-28.7c0-6,3.7-9.7,9.7-9.7c25.2,0,50.3,0,75.5,0c5.8,0,9.6,3.6,9.6,9.4c0,9.8,0,19.6,0,29.5
	c0,5.7-3.8,9.4-9.4,9.4c-8.2,0-16.4,0-24.5,0c-2.5,0-2.5,0-1.6,2.2C62.1,101.6,63,103.9,64.1,106.6z"/>
<path class="st1" d="M25.8,229c-3.7,0-7.4,0-11,0c-2.4,0-2.9-0.6-2.5-3.1c2.3-14.5,4.6-29,6.9-43.5c0.4-2.3,0.7-4.6,1.1-6.9
	c0.3-1.6,1.3-2.6,2.8-2.6c8.9,0.2,17.8-0.8,26.6,0.7c5.3,0.9,9.3,3.6,10.8,9.1c0.6,2.1,0.1,4.3,0.2,6.4c0.1,0.5-0.2,0.6-0.6,0.6
	c-4.1-1.7-8.4-2.1-12.8-2c-3.7,0.1-7.5,0-11.2,0c-2,0-2.7,0.6-3,2.5c-1,5.7-1.8,11.4-2.7,17c-0.1,0.4,0,0.9,0,1.3
	c-1.5,5.9-2,11.9-3.1,17.9C27,227.5,26.9,228.5,25.8,229z"/>
<path class="st2" d="M60.3,189.6c0.1-0.2,0.2-0.3,0.3-0.5c3.9,1.9,5.1,5.4,5.2,9.4c0,3.3-0.7,6.4-2,9.4c-3,7-8.7,9.8-15.9,10.4
	c-1.1,0.1-2.2,0.1-3.2,0.1c-2.3,0-3,0.7-3.4,2.9c-0.6,3.9-1.2,7.8-1.9,11.6c-0.4,2.4-1,2.9-3.3,2.9c-3,0-6,0-8.9,0
	c-1.5,0-2.1-0.7-1.9-2.1c0.2-1.6,0.4-3.3,0.6-4.9c1-5.7,1.9-11.4,2.9-17.1c0.2-1.2,0.5-2.3,1.1-3.4c0.4-1.5,1.8-1.4,2.9-1.5
	c2.3-0.2,4.7,0,7-0.1c5.8-0.2,10.9-1.9,14.9-6.3c2.3-2.5,3.5-5.5,4.5-8.7C59.3,191.2,59.3,190.1,60.3,189.6z"/>
<path class="st3" d="M166.7,69.1c-0.7,3-1.5,6.1-2.2,9.1c-0.6,2.3-1.1,4.7-1.6,7c-0.2,1.1-0.6,1.7-1.9,1.5c-0.5-0.1-1-0.1-1.5,0
	c-1.5,0.2-2-0.4-2.4-1.9c-1.1-4.9-2.4-9.8-3.7-14.7c-0.1-0.4-0.1-0.8-0.6-1c-0.5,5.4-1.1,10.7-1.6,16c-0.1,1.3-0.5,1.8-1.8,1.7
	c-1.1-0.1-2.3-0.1-3.4,0c-1.4,0.1-1.9-0.3-1.7-1.8c1.1-7.9,2.1-15.8,3-23.7c0.2-1.3,0.7-1.7,1.9-1.6c2,0.1,3.9,0.1,5.9,0
	c1.3-0.1,1.7,0.5,2,1.6c0.8,4.1,1.7,8.2,2.8,12.4c0.4-1.6,0.7-3.3,1.1-4.9c0.6-2.6,1.2-5.2,1.7-7.8c0.2-0.9,0.6-1.4,1.6-1.3
	c2.3,0.1,4.6,0.1,6.8,0c1,0,1.3,0.3,1.4,1.3c1.1,8.1,2.2,16.2,3.3,24.3c0.2,1.3-0.3,1.6-1.5,1.6c-5.7,0-5.6,0.1-6.1-5.6
	c-0.3-4-0.8-8-1.2-12C166.9,69.1,166.8,69.1,166.7,69.1z"/>
<path class="st3" d="M192.6,73.6c0.7-3.4,1.5-6.7,2.2-10.1c0.9-3.9,0.9-3.9,4.9-3.9c0.9,0,1.8,0,2.7,0c2.7,0,2.7,0,3.1,2.6
	c1,7.6,2,15.2,3.1,22.8c0.2,1.3-0.1,1.7-1.5,1.7c-5.6,0-5.6,0-6-5.6c-0.2-2-0.4-4-0.6-6c-0.2-2-0.4-3.9-0.6-6
	c-0.5,0.3-0.5,0.8-0.7,1.2c-1.2,4.9-2.4,9.7-3.4,14.6c-0.3,1.4-0.9,1.9-2.4,1.9c-3-0.1-3,0-3.7-2.9c-1.1-4.5-2.3-9.1-3.4-13.6
	c-0.1-0.4,0-0.9-0.6-1.2c-0.5,5.4-1.1,10.7-1.6,16c-0.1,1.2-0.4,1.6-1.7,1.6c-5.6,0.1-5.5,0.1-4.7-5.4c0.9-6.5,1.7-13,2.5-19.6
	c0.2-1.5,0.5-2.3,2.2-2.1c1.9,0.2,3.8,0.1,5.7,0c1.2-0.1,1.6,0.4,1.9,1.5c0.8,4.2,1.7,8.3,2.6,12.4
	C192.5,73.6,192.5,73.6,192.6,73.6z"/>
<path class="st4" d="M170.7,215.1c2.6-3.7,5.2-7.1,7.3-10.7c1.9-3.4,4.3-4.7,8-4.1c0.4,0.1,0.9,0,1.3,0c0.9,0.1,2-0.4,2.6,0.7
	c0.5,1-0.4,1.6-0.9,2.3c-2.5,3.7-5.1,7.3-7.6,10.9c-4.7,6.7-9.4,13.4-14,20.1c-0.8,1.2-1.7,1.7-3.1,1.6c-1.8-0.1-3.5,0-5.3,0
	c-0.6,0-1.3,0.1-1.7-0.6c-0.3-0.7,0-1.2,0.4-1.7c2-2.8,3.9-5.6,6-8.3c0.6-0.9,0.7-1.6,0.4-2.6c-2.3-6.6-4.6-13.3-6.8-19.9
	c-0.7-2-0.4-2.5,1.8-2.5c1.7,0,3.4,0,5.1,0c1.5,0,2.3,0.6,2.7,2C168.1,206.5,169.4,210.6,170.7,215.1z"/>
<path class="st2" d="M267.4,187c4.8,0,4.8-0.4,4,4.5c-1.7,10.7-3.4,21.5-5.1,32.2c-0.4,2.8-0.8,3-3.6,3c-1.3,0-2.7,0-4,0
	c-1.4,0-1.9-0.7-1.7-2c1.7-10.5,3.3-21,5-31.5c0.2-1.3,0.5-2.6,0.6-3.9c0.1-1.7,0.9-2.5,2.7-2.3C266,187.1,266.7,187,267.4,187z"/>
<path class="st3" d="M267.3,73.2c0-3.9,0.1-7.8,0-11.8c0-1.5,0.4-1.8,1.8-1.8c3.7,0.1,7.5,0.1,11.2,0c1.3,0,1.7,0.3,1.7,1.7
	c0,4.2,0,4.2-4.1,4.2c-3.6,0-3.8,0.3-3.3,4c0.1,0.7,0.4,1,1.1,1c1.4,0,2.8,0,4.2,0c0.5,0,1.1-0.2,1.1,0.6c0,1.5,0,2.9,0,4.4
	c0,0.7-0.5,0.6-1,0.6c-0.7,0-1.4,0-2.1,0c-3.4,0-3.9,0.6-3.3,4c0.1,0.8,0.6,0.8,1.2,0.8c1.5,0,2.9,0,4.4,0c0.3,0,0.6,0,0.9,0
	c1.8,0.3,1,1.8,0.9,2.5c-0.2,1.1,1.2,3.1-0.9,3.2c-4.2,0.3-8.5,0.1-12.7,0.1c-1.2,0-1-0.9-1-1.6C267.3,81.2,267.3,77.2,267.3,73.2
	C267.3,73.2,267.3,73.2,267.3,73.2z"/>
<path class="st3" d="M210.7,73.1c0-4,0-8,0-12c0-1.2,0.3-1.5,1.5-1.5c3.9,0.1,7.9,0.1,11.8,0c1.1,0,1.3,0.4,1.4,1.4
	c0.1,4.4,0.1,4.4-4.3,4.4c-3.1,0-3.1,0-3.1,3.2c0,1.5,0.5,1.9,1.8,1.7c0.2,0,0.4,0,0.6,0c4.3,0,4.2,0,4,4.3c0,0.9-0.3,1.4-1.3,1.3
	c-1.3-0.1-2.5,0-3.8,0c-1,0-1.3,0.3-1.3,1.3c-0.1,3.6-0.2,3.6,3.3,3.6c4.1,0,4.1,0,4.1,4.2c0,1.1-0.2,1.7-1.5,1.7
	c-3.9-0.1-7.7-0.1-11.6,0c-1.4,0-1.6-0.5-1.5-1.7C210.8,81.1,210.7,77.1,210.7,73.1z"/>
<path class="st3" d="M118.7,62.7c0,3.1,0,3.1-2.9,2.7c-2.8-0.3-5,0.7-6.4,3.2c-1.7,3-1.6,6.2,0,9.3c1.4,2.5,4.2,3.6,7.6,2.9
	c1.7-0.4,1.8,0.2,1.7,1.5c-0.1,0.5,0,1,0,1.5c0,3.5,0,3.5-3.5,3.6c-7.4,0.3-13-3.9-14.3-11c-1.5-7.6,2-14.3,8.6-16.6
	c2.6-0.9,5.2-0.8,7.9-0.5c0.9,0.1,1.5,0.5,1.4,1.6C118.6,61.4,118.7,62,118.7,62.7z"/>
<path class="st3" d="M265.3,65.9c-0.6-0.1-0.9-0.2-1.2-0.2c-3-0.6-5.9-0.4-7.8,2.5c-2,3-2,6.2-0.5,9.4c1.3,2.8,4.2,4,8,3.2
	c1.3-0.3,1.6,0,1.4,1.2c-0.1,0.6,0,1.3,0,1.9c0,3.4,0,3.4-3.5,3.6c-7.5,0.3-13.4-4.4-14.4-11.5c-1.2-8.3,2.9-14.9,10.3-16.6
	c2.1-0.5,4.2-0.3,6.2-0.1c0.9,0.1,1.5,0.5,1.4,1.6C265.2,62.4,265.3,64,265.3,65.9z"/>
<path class="st5" d="M17.1,79.8c2.5-4.9,5.1-9.9,7.6-14.8c0.9-1.7,1.6-3.9,4.1-3.5c2.5,0.3,2.4,2.6,2.8,4.4
	c0.8,3.9,1.7,7.8,3.5,11.5c0.4-2.4,0.7-4.9,1.1-7.3c0.8-4.4,1.7-8.8,3.7-12.9c1.1-2.3,2.6-3.1,4.5-2.2c1.9,0.8,2.5,2.7,1.5,4.9
	c-2.8,6.5-3.5,13.4-4.4,20.3c-0.4,3.1-0.4,6.2-0.4,9.3c0,1.5-0.2,3-1.9,3.6c-1.5,0.6-2.7-0.3-3.7-1.3c-3.9-4.1-6.1-9.1-7.8-14.4
	c-0.2-0.6-0.4-1.3-0.7-2.1c-0.7,0.4-0.8,1-1.1,1.6c-1.8,3.6-3.5,7.2-5.3,10.7c-0.7,1.4-1.5,2.7-2.5,3.8c-2.3,2.7-4.1,2.5-5.4-0.9
	c-0.7-1.9-1.3-3.8-1.8-5.8C9.2,76.9,7.9,69,6.6,61c-0.3-1.7-0.3-3.3,1.5-4.3c2.3-1.3,4.4,0,4.9,2.9c0.8,4.6,1.5,9.2,2.3,13.9
	c0.4,2.1,0.9,4.2,1.3,6.3C16.8,79.7,17,79.8,17.1,79.8z"/>
<path class="st6" d="M68.6,71.3c0.1,4.3-1.2,8.1-3.7,11.5c-2.5,3.4-5.8,5-10,4.3c-4.4-0.7-6.9-3.6-7.9-7.8
	c-1.4-5.9-0.1-11.4,3.6-16.3c2.9-3.7,6.8-4.9,11-3.6c3.9,1.2,6.6,4.9,7,9.5C68.6,69.8,68.6,70.6,68.6,71.3z"/>
<path class="st6" d="M79.4,87.3c-3.3,0-6.6-2.3-8.2-6.4c-2.4-6.2-0.3-15,4.6-19.4c5.1-4.6,13.2-2.7,15.5,3.9
	c2.5,7.1,0.8,13.5-4.2,19C85.4,86.4,83.1,87.3,79.4,87.3z"/>
<path class="st7" d="M60.3,189.6c-1,10.1-8.7,17.5-19.1,18.2c-2.6,0.2-5.3,0.1-8,0.1c-1.2,0-2.4,0-3.5,0.6c-0.8-1.5,0-3,0.2-4.4
	c0.6-4.7,1.5-9.4,2.2-14c0.4-2.4,1.2-3.2,3.7-3.2c5.1,0,10.3-0.1,15.4,0c2.6,0.1,5.3,0.4,7.8,1.5C59.5,188.7,60.1,188.9,60.3,189.6z
	"/>
<path class="st2" d="M214.5,187.3c-5.4-0.5-10.8-0.1-16.1-0.2c-2.4,0-2.8,0.4-3.2,2.8c-1.7,10.6-3.4,21.2-5,31.9
	c-0.9,5.5-1.4,5.1,4.2,5.1c0.8,0,1.7-0.1,2.5,0c1.9,0.2,2.7-0.6,3-2.5c0.3-2.7,0.8-5.4,1.2-8.1c0.3-2.2,0.8-2.7,3.1-2.7
	c1.5,0,3,0,4.6,0c9.1-0.2,14.9-5.7,15.6-14.8C224.7,191.8,221.5,187.9,214.5,187.3z M206,205.6c-3.2,0-3.2,0-2.8-3.1
	c0.3-1.9,0.6-3.9,0.9-5.8c0.1-1,0.6-1.7,1.7-1.7c1.6,0,3.3,0,4.9,0.4c1.8,0.4,2.8,1.6,2.8,3.5C213.7,203.4,211.3,205.5,206,205.6z"
	/>
<path class="st4" d="M113.9,187.6c-3.6-0.8-7.3-0.4-10.4-0.5c-3,0-5.4,0.1-7.8,0c-1.9-0.1-2.8,0.8-3,2.6c-0.3,2.3-0.7,4.6-1.1,6.9
	c-1.5,9.3-2.9,18.6-4.4,27.9c-0.3,1.7,0.3,2.4,2,2.3c1.7-0.1,3.4-0.1,5.1,0c1.8,0.1,2.7-0.7,2.9-2.5c0.4-2.9,0.9-5.9,1.4-8.8
	c0.2-1.4,1-2,2.3-2c2,0,3.9,0.1,5.9-0.1c6.1-0.4,10.9-2.8,13.4-8.7c0.8-1.9,1.2-4,1.5-6.1C122.4,192.9,119.6,188.9,113.9,187.6z
	 M107.4,205c-1.3,0.5-2.7,0.5-3.9,0.5c-3.4,0-3.4,0-2.9-3c0.3-2,0.7-4,1-6c0.2-1.2,0.8-1.6,1.9-1.6c1,0,2,0,3,0.1
	c2.9,0.3,4.1,1.3,4.4,3.3C111.3,201.5,109.9,204.2,107.4,205z"/>
<path class="st4" d="M151.7,200.3c-1.6,0-3.2,0.1-4.7,0c-1.9-0.1-3.2,0.3-3,3c-1.6-2.3-3.5-3-5.5-3.4c-9.9-1.7-18.7,5.6-18.8,15.7
	c-0.1,5.8,3,10.3,8.1,11.4c4.1,0.9,7.9,0.3,11.4-2.2c0.4-0.3,0.8-0.6,1.3-0.9c-0.2,2.8-0.1,2.9,2.6,2.9c1.3,0,2.7,0,4,0
	c1.6,0,2.4-0.7,2.7-2.3c1.1-7.4,2.4-14.9,3.6-22.3C153.5,200.9,153,200.3,151.7,200.3z M134.9,220.1c-3.6,0-5.8-1.9-5.9-5.2
	c-0.1-4.5,3.3-7.9,7.7-7.9c3.6,0,5.9,2.1,5.9,5.5C142.7,216.7,139.3,220.1,134.9,220.1z"/>
<path class="st2" d="M253.4,200.3c-1.1,0-2.3,0.1-3.4,0c-1.9-0.1-3.6-0.1-3.6,2.8c-1.8-2.3-3.9-3-6.3-3.3c-9-0.9-16.3,4.8-17.7,13.7
	c-1.4,8.9,4.6,15.1,13.5,13.7c2.6-0.4,4.9-1.6,7.1-3.5c-0.3,2.9-0.1,3,2.5,3c1.4,0,2.8,0,4.2,0c1.6,0,2.4-0.8,2.7-2.3
	c0.3-2.1,0.6-4.1,1-6.2c0.8-5.1,1.7-10.2,2.4-15.4C256.1,200.5,255.8,200.3,253.4,200.3z M237.4,220.1c-3.6,0-5.8-2-5.9-5.3
	c-0.1-4.4,3.4-7.9,7.8-7.9c3.6,0,5.9,2.1,5.9,5.5C245.2,216.8,241.8,220.1,237.4,220.1z"/>
<path class="st3" d="M142.6,66.4c-1.6-4.9-5.4-7.4-10.9-7.4c-5.3,0-9,2.6-10.6,7.5c-0.7,2.1-0.9,4.3-0.9,6.7c0,2.2,0.2,4.6,1,6.8
	c1.7,4.8,5.3,7.3,10.6,7.4c5.4,0,9-2.3,10.7-7.2C144.1,75.6,144.1,71,142.6,66.4z M135,79.1c-0.5,1.6-1.9,2.3-3.6,2.1
	c-1.6-0.1-2.5-1.2-2.9-2.6c-0.6-1.8-0.6-3.6-0.6-5.4c0-2,0-3.9,0.8-5.8c0.6-1.3,1.4-2.2,2.9-2.3c1.6-0.1,2.7,0.7,3.3,2.1
	C136.4,71.1,136.3,75.1,135,79.1z"/>
<path class="st3" d="M247.8,85.9c-1.5-3.2-3-6.4-4.6-9.6c-0.6-1.2-0.8-1.9,0.6-2.7c1.3-0.6,2-1.9,2.5-3.3c1.6-4.5-1-8.9-6.1-10.1
	c-3.9-1-7.9-0.5-11.9-0.6c-0.9,0-0.9,0.6-0.9,1.3c0,8.2,0,16.3,0,24.5c0,1,0.4,1.4,1.3,1.3c0.3,0,0.6,0,0.9,0c5,0,5,0,5-4.9
	c0-2.2,0-4.4,0-6.6c2.1,3.4,3.7,6.8,5.3,10.2c0.3,0.7,0.5,1.4,1.5,1.4c2.1-0.1,4.3,0,6.6,0C247.9,86.2,247.9,86.1,247.8,85.9z
	 M238.1,70.6c-0.3,0.1-0.6,0.2-0.9,0.3c-2.3,0.7-2.5,0.6-2.6-1.9c0-0.3,0-0.6,0-0.9c0-0.2,0-0.4,0-0.6c0.2-0.9-0.7-2.1,0.6-2.6
	c1.3-0.4,3.4,0.8,3.9,2.1C239.6,68.5,239.6,69.8,238.1,70.6z"/>
<path class="st8" d="M62.2,71.8c-0.1,3-0.9,5.7-3.2,7.9c-2.3,2.1-4.3,1.6-5.4-1.3c-1.4-3.8-0.2-9,2.7-11.7c1.9-1.8,3.9-1.4,5,1
	C62,68.9,62.2,70.3,62.2,71.8z"/>
<path class="st9" d="M86,71.8c-0.3,3-1,6-3.6,8.1c-2.1,1.7-3.9,1.2-5-1.3c-1.6-3.8-0.4-9.3,2.6-12.1c1.9-1.8,4-1.3,5,1
	C85.7,68.8,85.9,70.2,86,71.8z"/>
</svg>
