<?xml version="1.0" encoding="utf-8"?>
<!-- Generator: Adobe Illustrator 24.1.0, SVG Export Plug-In . SVG Version: 6.00 Build 0)  -->
<svg version="1.1" id="Capa_1" xmlns="http://www.w3.org/2000/svg" xmlns:xlink="http://www.w3.org/1999/xlink" x="0px" y="0px"
	 viewBox="0 0 512 512" style="enable-background:new 0 0 512 512;" xml:space="preserve">
<style type="text/css">
	.st0{fill:#9C5A90;}
	.st1{fill:#FFFFFF;}
</style>
<path class="st0" d="M463,104.9H48.2c-26.3,0-47.6,21.3-47.6,47.6v156.2c0,26.3,21.3,47.6,47.6,47.6h197.4l87.5,50.8l-17.5-50.8H463
	c26.3,0,47.6-21.3,47.6-47.6V152.5C510.6,126.2,489.3,104.9,463,104.9z"/>
<g>
	<path class="st1" d="M74.8,332.5c-0.1,0-0.1,0-0.2,0c-5.7-0.1-11-2.9-14.3-7.7c-5.1-7.5-12.5-24.7-25.1-92.1
		c-6.8-36.2-11.8-70.2-11.9-70.5c-1.4-9.6,5.2-18.5,14.7-19.9c9.6-1.4,18.5,5.2,19.9,14.7c0,0.3,5,33.6,11.6,69
		c3.8,20.4,7.1,35.7,9.8,47c16.5-30.4,36.6-71.3,45.5-89.8c3.2-6.8,10.4-10.7,17.9-9.8c7.4,0.9,13.5,6.5,15,13.8
		c2.9,13.9,10.4,42.7,21.1,68.9c3.9-37.3,11.5-84.5,26.1-114.3c4.2-8.7,14.7-12.3,23.4-8.1s12.3,14.7,8.1,23.4
		c-23.1,47.3-26.5,155.1-26.6,156.2c-0.2,7-4.5,13.2-11,15.7c-6.5,2.6-13.9,1-18.8-3.9c-15.7-15.7-30-42.7-42.5-80.3
		c-0.5-1.6-1.1-3.2-1.6-4.8c-15.3,30.5-35.5,69.2-46.8,85C85.7,329.8,80.4,332.5,74.8,332.5z"/>
	<path class="st1" d="M346.5,184.8c-7.3-14.8-19.8-25-36.2-29.6c-18.7-5.2-38.9,1.7-54.1,18.4c-18,19.8-31.2,57-14.1,101.7
		c11.8,30.7,30.2,36.3,42.2,36.3c1.3,0,2.5-0.1,3.6-0.2c31.8-3,58.5-45.1,63.6-73.9C355.3,217,353.6,199.2,346.5,184.8z
		 M317.2,231.5c-1.6,9-7.3,20.9-14.4,30.4c-7.3,9.7-14.5,14.5-18.1,14.8c-2.2,0.2-6.2-4.5-9.8-13.8c-7.2-18.7-9.6-47.2,7.3-65.7
		c5-5.5,10.9-8.6,15.9-8.6c1,0,2,0.1,2.9,0.4C319.7,194.2,320.1,215,317.2,231.5z"/>
	<path class="st1" d="M476.5,184.8c-3.7-7.4-8.6-13.7-14.7-18.6c-6.1-5-13.3-8.7-21.5-10.9c-18.6-5.2-38.8,1.7-54.1,18.4
		c-18,19.8-31.2,57-14.1,101.7c11.8,30.7,30.2,36.3,42.2,36.3c1.3,0,2.5-0.1,3.6-0.2c31.8-3,58.5-45.1,63.6-73.9
		C485.3,217,483.6,199.2,476.5,184.8z M447.2,231.5c-1.6,9-7.3,20.9-14.4,30.4c-7.3,9.7-14.5,14.5-18.1,14.8
		c-2.2,0.2-6.2-4.5-9.8-13.8c-7.2-18.7-9.6-47.2,7.3-65.7c5-5.5,10.9-8.6,15.9-8.6c1,0,2,0.1,2.9,0.4
		C449.7,194.2,450.1,215,447.2,231.5z"/>
</g>
</svg>
