<?xml version="1.0" encoding="utf-8"?>
<!-- Generator: Adobe Illustrator 24.1.0, SVG Export Plug-In . SVG Version: 6.00 Build 0)  -->
<svg version="1.1" id="Capa_1" xmlns="http://www.w3.org/2000/svg" xmlns:xlink="http://www.w3.org/1999/xlink" x="0px" y="0px"
	 viewBox="0 0 512 512" style="enable-background:new 0 0 512 512;" xml:space="preserve">
<style type="text/css">
	.st0{fill:#E71E24;}
</style>
<path class="st0" d="M238.7,467.8c-22.3,3.8-44.4,6.7-66.9,5.9c-15.8-0.6-31.4-1.9-45.8-9c-10.1-4.9-18.7-12-18.5-24.3
	c0.2-12.1,8.6-19.2,18.9-24c18-8.4,37.2-9.6,56.6-8.2c26.5,1.9,51.2,10.1,76.4,22c-9.3,5.4-17,4.8-25.4,1.9
	c-28-9.7-56.7-14.1-85.9-6.8c-8.8,2.2-22.2,3.9-21.5,14.3c0.6,8.7,13.7,9.6,22.5,10.9c41.4,6.1,81.4-1.8,120.5-14.4
	c69.5-22.4,132-56.6,177.8-115.3c25.1-32.1,40.1-68,31.1-110.1c-3.9-18.3-12.4-34.4-25.4-50.3c-4.2,14.7-7.2,28.4-13.3,41
	c-2.2,4.5,2.2,6.2,4.3,8.8c5.7,6.9,11.3,13.9,17.4,20.5c12.7,14,12.3,28.6,2.1,45c-8.5-20.2-18.6-38.7-35.5-53.4
	c-12.7,18.1-26.7,34.5-43.2,48.4c-5.5,4.6-2.3,7.2,0.8,10.6c12.6,13.7,22.4,29.1,27.7,47.1c4.7,16.2,4.5,16.6-11.7,27.2
	c-1.3-24.1-11.3-44.1-26.7-61.7c-5.2-5.9-8.7-8.1-16.2-2.3c-21.3,16.5-44.6,30.2-69,41.5c-8.7,4-10.6,6.5-2.8,14.3
	c15.7,15.9,23.1,35.1,17.2,57.7c-3.2,12.4-3.4,12.4-19.4,17c15.2-26.8,10-49.3-11.3-69.2c-6.5-6.1-12.1-6.7-20.3-3.4
	c-45.1,18.3-91.7,30.8-140.6,33.4c-20.3,1.1-40.5,0.6-59.8-6.5c-10.8-4-20.6-9.9-22.1-22.9c-1.5-12.8,5.8-21.3,15.3-28
	c19.2-13.6,41.4-19,64.2-22.3c45.1-6.4,89.3-3.1,132.5,14.3c-11.9,8.7-15.7,9.4-27.9,6.4c-44.1-10.6-87.9-10.5-131.4,3.7
	c-8.1,2.7-16,6.1-22.9,11.1c-3.8,2.8-9.7,5.3-8.4,10.9c1.2,5.4,7.4,6.6,12,7.4c9.7,1.7,19.6,3.3,29.4,3
	c84.7-2.4,161.4-30.4,232.8-74.6c33.5-20.7,63.1-45.8,85.3-78.9c33.6-50,26.3-99.5-21.5-136.2C353,42.4,311,27.3,263.8,27.2
	c16.8,6.9,32,15.4,43,30.3c1.9,2.7,7.3,2.9,11.1,4.1c27.6,8.2,54.2,18.6,79.9,31.6c14.7,7.5,19.4,20.8,25.2,38
	C391.8,108.9,360.6,94.6,328,83c-9.5-3.4-15.1-5-15.3,8.8c-0.1,11.7-5.5,22.6-12.2,32.3c-4.7,6.8-3.5,9.2,4.6,11.5
	c35.6,9.9,69.4,23.9,100.7,43.8c8.4,5.3,8.1,9.6,3.5,16.9c-5.9,9.4-10,1.1-13.7-1.3c-32.8-21.1-68.6-35-106.1-44.8
	c-3.4-0.9-6.8-2.6-10,0.7c-20.2,20.5-43.7,36.7-70.9,52.8c20.1,4.3,37.4,7.5,54.4,11.6c29.4,7.1,57.2,18.1,83,34.1
	c2.9,1.8,9.9,3.1,6.7,7.6c-3,4.2-7.4,11.1-15.3,6.7c-3.1-1.8-6.1-3.7-9.3-5.4c-45.2-24.1-94-34.5-144.6-37.9
	c-6.1-0.4-11.4,1.5-16.8,3.9C129.8,240,92.2,252.9,52,256.9c-6.7,0.7-13.5,1.1-20.1,0.4c-9.4-0.9-19.7-2-22-13.8
	c-2.3-11.8,6.8-16.6,15.4-20.8c14.2-6.9,29.4-10.9,44.9-13.8c25.5-4.8,51.1-7.6,80.8-7c-34.8,17.8-69.8,22.9-102.9,33.5
	c83.4-13.8,159.7-43,221.8-102.6c13-12.5,23.7-27.1,26.3-45.8c2.3-16.8-4.6-29.2-21.1-36.9c0,9.5,12.2,10.7,12.2,20.1
	c-25-5.1-49.8-10.2-74.6-15.3c-5.3-1.1-10.2-2.1-15.3,1.6c-27.7,20-57.2,37-87.7,52.2c-1,0.5-1.8,1.6-4.6,4.3
	c54.7-0.6,107.1,1.7,160.1,13.2c-7.5,9.1-13,16-26,13.6c-55-10.3-110.7-9.7-166.3-7.7c-3.6,0.1-7.2,0.3-10.7,0.2
	c-5.5-0.1-9.7-2.8-10.8-8.3c-1.1-5.2,2.4-8.6,6.4-10.7c5.9-3.1,12.1-5.7,18.3-8.3c44.8-18.7,87.2-41.7,128.2-68.1
	c-4-4.1-7.2-1.7-10.4,0.3c-4.2,2.6-8.1,5.6-12.4,8c-7.8,4.3-13.5-0.3-16.6-6.4c-3.3-6.5,2.9-9.7,7.9-11.6
	c14.6-5.4,29.9-5.3,45.2-4.7c4.9,0.2,9.8,1.3,14.5-1c23.5-11.2,47.9-10.1,72.5-5.3c38.5,7.4,73.8,22.1,104.2,47.2
	c18.8,15.4,32.8,34.3,39.3,58.1c1.8,6.4,5.6,11,10.1,15.5c44.3,44.7,56.2,96.3,32.6,155.4c-1.3,3.3-2.8,6.8-2.7,10.2
	c1.6,56.1-24.6,99-65.1,134.6c-38.6,33.9-83.3,55.6-134.7,62.2c-8.9,1.2-17.9,1.5-26.8-0.3C242.3,495,237.2,488.5,238.7,467.8z
	 M367.5,419.7c-13.6,6.6-27.2,13.3-40.7,19.9c17.8-1.9,28-6.7,42.1-18.2c1.9-1.7,3.8-3.3,5.7-5c-0.4-0.4-0.8-0.9-1.3-1.3
	C371.4,416.6,369.5,418.2,367.5,419.7z M463.3,340.5c-11.7,12.4-23,25.2-36.3,35.9c-9.5,7.7-16.8,16.6-23.2,27.2
	c-22,36-54.9,53.9-97.1,50c-16.3-1.5-29.7,4.9-44,8.9c-5.9,1.7-11.1,8.1-10.3,14.4c1,7.3,9.1,5.6,14.5,6.5c3.9,0.6,8,0,12.1-0.4
	c49.5-5.2,91.7-26.9,129-58.5C434.4,402.1,454.5,375,463.3,340.5z M272.2,50.3c-12.5-13.1-37-18.2-48.4-10.2
	C240.5,43.9,256.7,45.4,272.2,50.3z"/>
</svg>
