<?xml version="1.0" encoding="utf-8"?>
<!-- Generator: Adobe Illustrator 24.1.0, SVG Export Plug-In . SVG Version: 6.00 Build 0)  -->
<svg version="1.1" id="Layer_1" xmlns="http://www.w3.org/2000/svg" xmlns:xlink="http://www.w3.org/1999/xlink" x="0px" y="0px"
	 viewBox="0 0 70.9 70.9" style="enable-background:new 0 0 70.9 70.9;" xml:space="preserve">
<style type="text/css">
	.st0{fill:#252B33;}
</style>
<g id="Page-1">
	<g id="ic-technology-wpf">
		<path id="WPF" class="st0" d="M5.8,46.4l8.5-16.2l0.5,16.2h4.8l11.2-22.1h-4.6l-7.7,15.3L18,24.3h-5.2l-8,15.5L4.7,24.3H0
			l0.9,22.1H5.8z M32.9,46.4l1.9-8.4l3.2,0c2,0,3.3-0.1,4.1-0.2c1.3-0.2,2.3-0.4,3.1-0.7c0.8-0.3,1.5-0.8,2.1-1.4
			c0.7-0.6,1.2-1.5,1.7-2.5s0.7-2.1,0.7-3.3c0-1.2-0.3-2.2-0.9-3.1c-0.6-0.9-1.3-1.5-2.3-1.9c-1-0.4-2.3-0.6-4-0.6l0,0H33l-4.9,22.1
			H32.9z M37.2,34.3l-1.6,0l1.4-6.4h3.4c1.6,0,2.6,0.1,3,0.2s0.8,0.4,1,0.7c0.2,0.3,0.4,0.8,0.4,1.3c0,0.8-0.2,1.5-0.7,2.2
			c-0.5,0.7-1.2,1.1-2,1.5s-2.5,0.5-5.1,0.5L37.2,34.3z M54.5,46.4l2.1-9.4h11.3l0.8-3.7H57.4l1.2-5.3H70l0.8-3.7H54.6l-4.9,22.1
			H54.5z"/>
	</g>
</g>
</svg>
