<?xml version="1.0" encoding="utf-8"?>
<!-- Generator: Adobe Illustrator 24.1.0, SVG Export Plug-In . SVG Version: 6.00 Build 0)  -->
<svg version="1.1" id="Layer_1" xmlns:sketch="http://www.bohemiancoding.com/sketch/ns"
	 xmlns="http://www.w3.org/2000/svg" xmlns:xlink="http://www.w3.org/1999/xlink" x="0px" y="0px" viewBox="0 0 102 91"
	 style="enable-background:new 0 0 102 91;" xml:space="preserve">
<style type="text/css">
	.st0{fill-rule:evenodd;clip-rule:evenodd;fill:#3498DB;}
</style>
<path class="st0" d="M101,41.5L79.4,4c-1.4-2.4-4.1-4-6.8-4H29.4c-2.8,0-5.5,1.6-6.8,4L1,41.5c-1.4,2.4-1.4,5.5,0,7.9L22.6,87
	c1.4,2.4,4.1,4,6.8,4h43.1c2.8,0,5.5-1.6,6.8-4L101,49.5C102.3,47.1,102.3,43.9,101,41.5z M72,69h-7.4c-0.3,0-0.7-0.2-0.8-0.5
	L51.1,46c-0.1-0.1-0.1-0.2-0.1-0.4c0,0.1-0.1,0.3-0.1,0.4L38.3,68.5c-0.2,0.3-0.5,0.5-0.8,0.5H30c-0.7,0-1.2-0.9-0.8-1.5l12.3-22.1
	L29.2,23.4c-0.3-0.5,0.1-1.3,0.7-1.4c0.1,0,0.1,0,0.2,0h7.4c0.3,0,0.6,0.2,0.8,0.5L50.9,45c0.1,0.1,0.1,0.2,0.1,0.4
	c0-0.1,0.1-0.3,0.1-0.4l12.6-22.6c0.2-0.3,0.5-0.5,0.8-0.5H72c0.7,0,1.2,0.8,0.8,1.4L60.5,45.5l12.3,22.1C73.2,68.2,72.7,69,72,69z"
	/>
</svg>
