<svg width="24" height="24" viewBox="0 0 24 24" fill="none" xmlns="http://www.w3.org/2000/svg">
<g clip-path="url(#clip0_2019_6317)">
<path d="M4.55989 1.7207H16.3517C18.877 1.7207 20.9223 3.76598 20.9223 6.29128V18.0829C20.9223 20.6082 18.877 22.6535 16.3517 22.6535H4.55989C2.03456 22.6535 -0.0107422 20.6082 -0.0107422 18.0829V6.29128C-0.0107422 3.76598 2.03456 1.7207 4.55989 1.7207Z" fill="url(#paint0_linear_2019_6317)"/>
<path d="M15.9962 2.84766H4.91402C2.8061 2.84766 1.09473 4.55901 1.09473 6.6669V17.749C1.09473 19.8569 2.8061 21.5682 4.91402 21.5682H15.9962C18.1042 21.5682 19.8155 19.8569 19.8155 17.749V6.64603C19.8155 4.53814 18.1042 2.84766 15.9962 2.84766ZM19.5025 17.7907C19.5025 19.7108 17.9581 21.2552 16.038 21.2552H4.87228C2.97307 21.2552 1.40778 19.7108 1.40778 17.7907V6.60429C1.40778 4.68423 2.9522 3.13984 4.87228 3.13984H16.0588C17.9581 3.13984 19.5233 4.68423 19.5233 6.60429V17.7907H19.5025Z" fill="white"/>
<path d="M10.4876 3.59961C5.77083 3.59961 1.93066 7.43973 1.93066 12.1564C1.93066 16.8731 5.77083 20.7132 10.4876 20.7132C15.2251 20.7132 19.0444 16.8731 19.0444 12.1564C19.0444 7.43973 15.2043 3.59961 10.4876 3.59961ZM10.4876 20.588C5.83344 20.588 2.05589 16.8104 2.05589 12.1564C2.05589 7.50234 5.83344 3.72483 10.4876 3.72483C15.1417 3.72483 18.9192 7.50234 18.9192 12.1564C18.9192 16.8104 15.1417 20.588 10.4876 20.588Z" fill="#69C5F3"/>
<path d="M10.4877 5.35352C6.71017 5.35352 3.66309 8.40056 3.66309 12.1781C3.66309 15.9556 6.71017 18.9818 10.4877 18.9818C14.2653 18.9818 17.3124 15.9347 17.3124 12.1572C17.3124 8.3797 14.2444 5.35352 10.4877 5.35352ZM10.4877 18.8357C6.79366 18.8357 3.80918 15.8512 3.80918 12.1572C3.80918 8.46318 6.79366 5.47874 10.4877 5.47874C14.1818 5.47874 17.1663 8.46318 17.1663 12.1572C17.1663 15.8512 14.1609 18.8357 10.4877 18.8357Z" fill="#68C5F4"/>
<path d="M3.9549 13.7227H16.9781C17.5207 13.7227 17.9381 14.1609 17.9381 14.6827C17.9381 15.2253 17.4998 15.6427 16.9781 15.6427H3.9549C3.41227 15.6427 2.99486 15.2044 2.99486 14.6827C2.97399 14.1609 3.41227 13.7227 3.9549 13.7227Z" fill="white"/>
<path d="M3.91283 13.9102H16.9777C17.3952 13.9102 17.7499 14.2441 17.7499 14.6824V14.7032C17.7499 15.1206 17.416 15.4754 16.9777 15.4754H3.91283C3.49542 15.4754 3.14062 15.1415 3.14062 14.7032V14.6615C3.1615 14.2441 3.49542 13.9102 3.91283 13.9102Z" fill="#0A93E9"/>
<path d="M3.60045 15.3927H17.3123L17.4167 15.3301H3.49609L3.60045 15.3927Z" fill="#1694EA"/>
<path d="M3.28686 15.1427H17.604L17.6457 15.0801H3.24512L3.28686 15.1427Z" fill="#319DEC"/>
<path d="M3.16211 14.7456H17.7506V14.6621H3.16211V14.7456Z" fill="#65B1EE"/>
<path d="M3.30737 14.2227H17.6245L17.6454 14.2644L17.6662 14.3061H3.26562L3.2865 14.2644L3.30737 14.2227Z" fill="#8EC6F3"/>
<path d="M3.62132 13.9727H17.3123L17.3749 13.9935L17.4376 14.0353H3.49609L3.55871 13.9935L3.62132 13.9727Z" fill="#95CAF3"/>
<path d="M16.6024 13.9102H16.498C16.498 13.9102 16.8528 14.1606 16.8528 14.7241C16.8528 15.2458 16.498 15.4754 16.498 15.4754H16.6024C16.6024 15.4754 16.9572 15.3085 16.9572 14.7241C16.9572 14.098 16.6024 13.9102 16.6024 13.9102Z" fill="url(#paint1_linear_2019_6317)"/>
<path d="M15.6004 13.9102H15.4961C15.4961 13.9102 15.8092 14.2023 15.8092 14.7241C15.8092 15.1832 15.4961 15.4754 15.4961 15.4754H15.6004C15.6004 15.4754 15.9135 15.2458 15.9135 14.7241C15.8926 14.1606 15.6004 13.9102 15.6004 13.9102Z" fill="url(#paint2_linear_2019_6317)"/>
<path d="M10.4033 13.9102H10.5077V15.4754H10.4033V13.9102Z" fill="url(#paint3_linear_2019_6317)"/>
<path d="M9.38061 13.9102H9.48496C9.48496 13.9102 9.44322 14.3067 9.44322 14.7241C9.44322 15.0998 9.48496 15.4754 9.48496 15.4754H9.38061C9.38061 15.4754 9.33887 15.0998 9.33887 14.7241C9.33887 14.3067 9.38061 13.9102 9.38061 13.9102Z" fill="url(#paint4_linear_2019_6317)"/>
<path d="M8.37877 13.9102H8.48312C8.48312 13.9102 8.37877 14.3067 8.37877 14.7241C8.37877 15.0998 8.48312 15.4754 8.48312 15.4754H8.37877C8.37877 15.4754 8.27441 15.0998 8.27441 14.7241C8.27441 14.3067 8.37877 13.9102 8.37877 13.9102Z" fill="url(#paint5_linear_2019_6317)"/>
<path d="M7.35703 13.9102H7.46138C7.46138 13.9102 7.31529 14.3067 7.31529 14.7241C7.31529 15.0998 7.46138 15.4754 7.46138 15.4754H7.35703C7.35703 15.4754 7.21094 15.0998 7.21094 14.7241C7.21094 14.3067 7.35703 13.9102 7.35703 13.9102Z" fill="url(#paint6_linear_2019_6317)"/>
<path d="M6.3337 13.9102H6.43806C6.43806 13.9102 6.22935 14.2441 6.22935 14.7241C6.22935 15.1415 6.43806 15.4754 6.43806 15.4754H6.3337C6.3337 15.4754 6.125 15.1415 6.125 14.7241C6.125 14.2441 6.3337 13.9102 6.3337 13.9102Z" fill="url(#paint7_linear_2019_6317)"/>
<path d="M5.3111 13.9102H5.41546C5.41546 13.9102 5.1024 14.2023 5.1024 14.7241C5.1024 15.1832 5.41546 15.4754 5.41546 15.4754H5.3111C5.3111 15.4754 4.99805 15.2458 4.99805 14.7241C5.01892 14.1606 5.3111 13.9102 5.3111 13.9102Z" fill="url(#paint8_linear_2019_6317)"/>
<path d="M4.30988 13.9102H4.41423C4.41423 13.9102 4.05943 14.1606 4.05943 14.7241C4.05943 15.2458 4.41423 15.4754 4.41423 15.4754H4.30988C4.30988 15.4754 3.95508 15.3085 3.95508 14.7241C3.95508 14.098 4.30988 13.9102 4.30988 13.9102Z" fill="url(#paint9_linear_2019_6317)"/>
<path d="M10.0484 5.95617L16.5599 17.2261C16.8313 17.6852 16.6643 18.2696 16.2051 18.5409C15.746 18.8122 15.1616 18.6453 14.8903 18.1861L8.37872 6.9162C8.10741 6.45705 8.27437 5.87269 8.73352 5.60138C9.19267 5.33006 9.77704 5.49703 10.0484 5.95617Z" fill="white"/>
<path d="M9.88168 6.03921L16.4141 17.3509C16.6228 17.7056 16.4976 18.1857 16.1428 18.3944L16.1011 18.4152C15.7463 18.6239 15.2663 18.4987 15.0576 18.1439L8.5251 6.8114C8.3164 6.45661 8.44162 5.9766 8.79642 5.76789L8.81729 5.74702C9.19296 5.53832 9.67298 5.66354 9.88168 6.03921Z" fill="url(#paint10_linear_2019_6317)"/>
<path d="M8.41992 6.49827L15.2654 18.3734L15.3072 18.3943L15.3489 18.4152L15.3907 18.436L8.41992 6.37305V6.49827Z" fill="url(#paint11_linear_2019_6317)"/>
<path d="M8.48242 6.10167L15.641 18.4986H15.7245L8.52416 6.03906L8.50329 6.0808L8.48242 6.10167Z" fill="url(#paint12_linear_2019_6317)"/>
<path d="M8.77539 5.78979L16.0801 18.4163L16.1427 18.3745L8.838 5.74805L8.77539 5.78979Z" fill="url(#paint13_linear_2019_6317)"/>
<path d="M9.29674 5.66345L16.4344 18.0395L16.4136 18.0812L16.3927 18.123L9.19238 5.64258H9.23412L9.29674 5.66345Z" fill="url(#paint14_linear_2019_6317)"/>
<path d="M9.6721 5.78917L16.5176 17.6434V17.7687L9.54688 5.72656L9.58862 5.74743L9.63036 5.7683L9.6721 5.78917Z" fill="url(#paint15_linear_2019_6317)"/>
<path d="M16.2049 16.9757L16.1631 16.8922C16.1631 16.8922 16.1214 17.3096 15.6622 17.6018C15.224 17.8731 14.8274 17.6852 14.8274 17.6852L14.8692 17.7687C14.8692 17.7687 15.2031 17.9983 15.704 17.6852C16.2049 17.3931 16.2049 16.9757 16.2049 16.9757ZM15.6831 16.0991L15.6414 16.0156C15.6414 16.0156 15.537 16.433 15.0987 16.6835C14.7022 16.9339 14.3057 16.8087 14.3057 16.8087L14.3474 16.8922C14.3474 16.8922 14.7022 17.0383 15.1614 16.767C15.6205 16.4956 15.6831 16.0991 15.6831 16.0991Z" fill="#3C98EA"/>
<path d="M15.1821 15.2222L15.1404 15.1387C15.1404 15.1387 14.9526 15.4935 14.556 15.723C14.2012 15.9317 13.8047 15.9317 13.8047 15.9317L13.8464 16.0152C13.8464 16.0152 14.2221 16.0152 14.5978 15.8065C14.9943 15.5769 15.1821 15.2222 15.1821 15.2222Z" fill="#4CA4ED"/>
<path d="M14.6815 14.3452L14.6398 14.2617C14.6398 14.2617 14.3685 14.6165 14.0137 14.8043C13.6797 14.9922 13.2832 15.0548 13.2832 15.0548L13.3249 15.1383C13.3249 15.1383 13.7215 15.0757 14.0554 14.8878C14.3893 14.7 14.6815 14.3452 14.6815 14.3452Z" fill="#4DA7EE"/>
<path d="M12.615 10.7988L12.6567 10.8823C12.6567 10.8823 12.3019 11.0493 11.9472 11.2371C11.6132 11.4249 11.321 11.6754 11.321 11.6754L11.2793 11.5919C11.2793 11.5919 11.5924 11.3415 11.9054 11.1536C12.2602 10.9658 12.615 10.7988 12.615 10.7988Z" fill="url(#paint16_linear_2019_6317)"/>
<path d="M12.115 9.92188L12.1567 10.0054C12.1567 10.0054 11.7602 10.1306 11.4263 10.3393C11.0924 10.5271 10.821 10.8193 10.821 10.8193L10.7793 10.7358C10.7793 10.7358 11.0506 10.4436 11.3845 10.2558C11.7185 10.0262 12.115 9.92188 12.115 9.92188Z" fill="url(#paint17_linear_2019_6317)"/>
<path d="M11.1751 9.23194C11.4462 9.14854 11.6547 9.10684 11.6547 9.10684L11.613 9.02344C11.613 9.02344 11.4253 9.04429 11.2168 9.12769C11.0917 9.16939 11.0709 9.27364 11.1751 9.23194Z" fill="#9DD4F7"/>
<path d="M10.5916 7.29035L10.6333 7.37383C10.6333 7.37383 10.2368 7.26948 9.77762 7.51992C9.38108 7.77036 9.2976 8.16689 9.2976 8.16689L9.25586 8.08341C9.25586 8.08341 9.2976 7.72862 9.73588 7.45731C10.195 7.16513 10.5916 7.29035 10.5916 7.29035Z" fill="url(#paint18_linear_2019_6317)"/>
<path d="M10.0889 6.39377L10.1515 6.47726C10.1515 6.47726 9.73408 6.31029 9.25406 6.58161C8.79491 6.87379 8.79491 7.27032 8.79491 7.27032L8.7323 7.18684C8.7323 7.18684 8.69056 6.83205 9.19145 6.519C9.71321 6.20594 10.0889 6.39377 10.0889 6.39377Z" fill="url(#paint19_linear_2019_6317)"/>
<path d="M8.69232 13.7211C10.5081 10.5906 12.5951 6.95917 12.5951 6.95917C12.8664 6.50002 12.6995 5.91566 12.2403 5.64435C11.7812 5.37303 11.1968 5.53999 10.9255 5.99914C10.9255 5.99914 8.37927 10.4236 6.45918 13.7211H8.69232ZM7.56532 15.6412C6.68876 17.1438 6.08352 18.2291 6.08352 18.2291C5.8122 18.6882 5.22783 18.8552 4.76868 18.5839C4.30953 18.3126 4.14256 17.7282 4.41388 17.269C4.41388 17.269 4.76868 16.6221 5.33218 15.662C6.04177 15.6412 7.33574 15.6412 7.56532 15.6412Z" fill="white"/>
<path d="M8.46303 13.7214C10.2996 10.5491 12.4284 6.85511 12.4284 6.85511C12.6371 6.50031 12.5119 6.0203 12.1571 5.8116L12.1362 5.79073C11.7814 5.58202 11.3014 5.70724 11.0927 6.06204C11.0927 6.06204 8.58826 10.403 6.66817 13.7214H8.46303ZM7.3569 15.6415C6.52208 17.1024 5.91684 18.1459 5.91684 18.1459C5.70813 18.5007 5.24898 18.6259 4.87332 18.4172H4.83157C4.47678 18.2085 4.35155 17.7494 4.56026 17.3737C4.56026 17.3737 4.9568 16.685 5.56204 15.6415H7.3569Z" fill="url(#paint20_linear_2019_6317)"/>
<path d="M8.39991 13.7206L12.5531 6.54124V6.41602C12.5531 6.41602 10.2574 10.4022 8.33729 13.7206H8.39991ZM7.2729 15.6406L5.68675 18.3955L5.62413 18.4373L5.56152 18.4581C5.56152 18.4581 6.27112 17.2268 7.18942 15.6406H7.2729Z" fill="url(#paint21_linear_2019_6317)"/>
<path d="M8.08679 13.7199L12.4696 6.14403L12.4487 6.10229L12.4278 6.06055C12.4278 6.06055 10.0277 10.2137 8.02418 13.699L8.08679 13.7199ZM6.98066 15.64L5.31102 18.5201H5.22754C5.22754 18.5201 5.93713 17.2887 6.89718 15.6191C6.93892 15.64 6.98066 15.64 6.98066 15.64Z" fill="url(#paint22_linear_2019_6317)"/>
<path d="M7.62867 13.7217C9.69485 10.1529 12.1784 5.83276 12.1784 5.83276L12.1158 5.79102L7.52432 13.7217H7.62867ZM6.50167 15.6626C5.58337 17.2696 4.89464 18.4592 4.89464 18.4592L4.83203 18.4175C4.83203 18.4175 5.49989 17.2488 6.41819 15.6626C6.45993 15.6418 6.43906 15.6418 6.50167 15.6626Z" fill="url(#paint23_linear_2019_6317)"/>
<path d="M7.12639 13.7206C9.19256 10.1518 11.7596 5.68555 11.7596 5.68555H11.6761C11.6761 5.68555 9.10908 10.1309 7.0429 13.7206H7.12639ZM5.9159 15.6406C5.08108 17.0807 4.51758 18.0616 4.51758 18.0616L4.53845 18.1033L4.55932 18.1451C4.55932 18.1451 5.16456 17.1015 6.02025 15.6406H5.9159Z" fill="url(#paint24_linear_2019_6317)"/>
<path d="M6.81344 13.7211L11.4049 5.76953L11.3632 5.7904L11.3215 5.81127L11.3006 5.83214C11.3006 5.83214 8.75439 10.2358 6.75083 13.7211H6.81344ZM5.70731 15.6411C4.97684 16.9142 4.45508 17.8116 4.45508 17.8116V17.6447C4.45508 17.6447 4.91423 16.8516 5.62382 15.6203C5.66556 15.6411 5.66556 15.6411 5.70731 15.6411Z" fill="url(#paint25_linear_2019_6317)"/>
<path d="M10.8845 6.39448L10.8428 6.47796C10.8428 6.47796 11.2184 6.29013 11.7193 6.56144C12.1785 6.81188 12.1994 7.25016 12.1994 7.25016L12.2411 7.16668C12.2411 7.16668 12.2828 6.77014 11.7611 6.47796C11.2393 6.18578 10.8845 6.39448 10.8845 6.39448Z" fill="url(#paint26_linear_2019_6317)"/>
<path d="M10.3826 7.29318L10.3408 7.37667C10.3408 7.37667 10.7582 7.25144 11.1965 7.50189C11.6139 7.73146 11.6974 8.12799 11.6974 8.12799L11.7391 8.04451C11.7391 8.04451 11.6974 7.66885 11.2383 7.41841C10.7582 7.14709 10.3826 7.29318 10.3826 7.29318Z" fill="url(#paint27_linear_2019_6317)"/>
<path d="M9.86108 8.16797L9.81934 8.25145C9.81934 8.25145 10.195 8.23058 10.6124 8.48102C10.9881 8.68972 11.1759 9.02365 11.1759 9.02365L11.2177 8.94017C11.2177 8.94017 11.0298 8.60624 10.6542 8.39754C10.2576 8.16797 9.86108 8.16797 9.86108 8.16797Z" fill="url(#paint28_linear_2019_6317)"/>
<path d="M9.3601 9.06641L9.31836 9.14989C9.31836 9.14989 9.73577 9.2125 10.0906 9.4212C10.4245 9.60903 10.6749 9.92208 10.6749 9.92208L10.7167 9.8386C10.7167 9.8386 10.4662 9.52555 10.1323 9.33772C9.77751 9.12902 9.3601 9.06641 9.3601 9.06641Z" fill="url(#paint29_linear_2019_6317)"/>
<path d="M8.83764 9.94336L8.7959 10.0268C8.7959 10.0268 9.19244 10.1312 9.54724 10.3399C9.88116 10.5277 10.1525 10.799 10.1525 10.799L10.1942 10.7156C10.1942 10.7156 9.9229 10.4442 9.58898 10.2564C9.25505 10.0686 8.83764 9.94336 8.83764 9.94336Z" fill="url(#paint30_linear_2019_6317)"/>
<path d="M8.33703 10.8203L8.27441 10.9038C8.27441 10.9038 8.65008 11.0499 9.00488 11.2586C9.33881 11.4464 9.63099 11.676 9.63099 11.676L9.67274 11.5925C9.67274 11.5925 9.38055 11.3629 9.04662 11.1751C8.71269 10.9873 8.33703 10.8203 8.33703 10.8203Z" fill="url(#paint31_linear_2019_6317)"/>
<path d="M7.77441 11.8022L7.81616 11.7188L9.17274 12.4909L9.13099 12.5744L7.77441 11.8022Z" fill="url(#paint32_linear_2019_6317)"/>
<path d="M7.27246 12.6987L7.3142 12.6152C7.3142 12.6152 7.64813 12.8657 8.00293 13.0535C8.33685 13.2413 8.67078 13.3874 8.67078 13.3874L8.62904 13.45C8.62904 13.45 8.27424 13.304 7.94032 13.1161C7.58552 12.9283 7.27246 12.6987 7.27246 12.6987Z" fill="url(#paint33_linear_2019_6317)"/>
<path d="M6.93926 13.7196C6.83501 13.6362 6.77246 13.5736 6.77246 13.5736L6.81416 13.4902C6.81416 13.4902 6.93926 13.5945 7.10606 13.7196H6.93926Z" fill="#73B9F1"/>
<path d="M6.12522 15.6426C6.2087 15.7052 6.29219 15.7678 6.39654 15.8304C6.77221 16.0391 7.14788 16.0182 7.14788 16.0182L7.10613 16.1017C7.10613 16.1017 6.73047 16.1226 6.3548 15.9139C6.2087 15.8304 6.08348 15.7261 6 15.6426H6.12522Z" fill="url(#paint34_linear_2019_6317)"/>
<path d="M5.22754 16.2261L5.26928 16.1426C5.26928 16.1426 5.37363 16.56 5.83278 16.8104C6.25019 17.04 6.62586 16.9148 6.62586 16.9148L6.58412 16.9983C6.58412 16.9983 6.25019 17.1443 5.79104 16.8939C5.31102 16.6226 5.22754 16.2261 5.22754 16.2261Z" fill="url(#paint35_linear_2019_6317)"/>
<path d="M4.70605 17.1245L4.7478 17.041C4.7478 17.041 4.78954 17.4793 5.29043 17.7506C5.74958 18.001 6.10438 17.8132 6.10438 17.8132L6.04176 17.8967C6.04176 17.8967 5.72871 18.1263 5.22782 17.8341C4.70605 17.5419 4.70605 17.1245 4.70605 17.1245Z" fill="url(#paint36_linear_2019_6317)"/>
<path d="M11.4685 22.6744L20.4011 3.91204L18.1471 2.84766L8.83887 22.3613C8.83887 22.3613 9.13105 22.5074 9.50672 22.6744H11.4685Z" fill="url(#paint37_linear_2019_6317)"/>
<path d="M16.7489 1.7207L20.923 3.70337V9.69312C19.483 9.0044 9.84082 4.41296 9.84082 4.41296C9.84082 4.41296 10.5087 3.01466 11.1348 1.7207H16.7489Z" fill="url(#paint38_radial_2019_6317)"/>
<path d="M6.39685 21.839C6.33424 21.9642 6.22989 22.1103 6.25076 22.3398C6.27163 23.1955 7.66995 23.9886 8.4839 23.9886C9.0474 23.9886 9.23524 23.759 9.44394 23.3416C9.65265 22.9242 6.62643 21.3381 6.39685 21.839Z" fill="url(#paint39_radial_2019_6317)"/>
<path d="M16.0175 4.07812C16.0175 4.07812 18.1671 4.59988 18.3341 4.74597C18.501 4.89206 18.0628 5.72687 17.9793 5.85209C17.2906 6.6869 15.1409 11.2992 15.1409 11.2992L13.1582 10.1722C13.1582 10.1722 14.9322 6.87473 15.5583 5.706C15.9548 4.91293 16.0175 4.07812 16.0175 4.07812Z" fill="url(#paint40_linear_2019_6317)"/>
<path d="M20.9856 2.99383C21.3612 3.26514 21.8621 3.20253 22.2587 3.13992C22.53 3.09818 22.1126 3.49471 21.6534 4.413C21.1943 5.33129 21.2151 5.3939 21.1525 5.33129C21.0899 5.26868 19.0237 4.09995 19.0864 3.9956C19.1698 3.89124 19.5038 1.61639 19.6707 1.679C20.276 1.82509 20.3803 2.55555 20.9856 2.99383Z" fill="url(#paint41_linear_2019_6317)"/>
<path d="M17.7723 5.56086C17.9184 5.33128 18.5862 3.91211 19.6506 3.91211C20.1307 3.91211 21.049 5.12258 21.1324 5.28954C21.1951 5.43563 20.9863 6.02 20.882 5.74869C20.7568 5.43563 20.235 4.76779 19.6715 4.76779C19.108 4.76779 18.3358 5.41476 18.148 5.64434C17.9601 5.85304 17.6262 5.79043 17.7723 5.56086Z" fill="url(#paint42_linear_2019_6317)"/>
<path d="M17.7301 5.47785C17.8345 5.31089 18.3145 4.58043 18.5441 4.35086C18.7737 4.12128 19.358 3.51605 19.8589 3.43257C20.3598 3.34909 20.8816 4.37173 20.7146 4.58043C20.5894 4.72652 20.3807 4.55956 20.1302 4.35086C19.8798 4.16303 19.7128 3.78736 18.9197 4.3926C18.6484 4.6013 18.3771 4.76826 17.751 5.66568C17.584 5.89525 17.6258 5.64481 17.7301 5.47785Z" fill="url(#paint43_linear_2019_6317)"/>
<path d="M15.1422 11.572C15.2256 11.405 15.33 11.1546 15.1004 10.9667C14.85 10.7789 13.6812 10.1528 13.4725 10.111C13.2638 10.0693 13.0969 10.111 13.0134 10.2571C12.9299 10.4032 6.52266 21.381 6.39744 21.694C6.27222 22.0071 6.25134 22.2366 6.43918 22.2992C6.62701 22.3619 8.77667 23.3845 8.98538 23.6141C9.19408 23.8436 9.29843 23.5932 9.38191 23.468C9.77845 22.9671 15.0378 11.7389 15.1422 11.572Z" fill="url(#paint44_linear_2019_6317)"/>
<path d="M17.8755 5.4354C17.9799 5.28931 18.2303 4.87191 18.5434 4.49624C18.7521 4.2458 19.8791 3.70318 20.1295 2.82663C20.2756 2.34661 20.046 1.8666 19.733 1.6579C18.6686 1.01092 16.832 -0.0117188 14.1397 -0.0117188C12.324 -0.0117188 11.5518 0.593517 11.5518 0.593517H12.4701L15.6632 1.84573L16.0598 3.51535C16.0598 3.51535 16.1015 4.07884 15.9137 4.72582C15.7885 5.24757 15.7467 5.56062 15.5589 6.08238C15.705 6.14499 16.0389 5.91542 16.4146 6.01977C16.7485 6.10325 16.9572 6.56239 17.1868 6.29108C17.5833 5.76933 17.7085 5.66498 17.8755 5.4354Z" fill="url(#paint45_linear_2019_6317)"/>
<path d="M15.9966 4.14235C15.8296 2.59795 15.4539 1.13704 11.5303 1.15791C11.7807 0.907464 12.386 0.657022 12.386 0.657022L11.5303 0.594411C11.5303 0.594411 11.6555 0.49006 11.9059 0.46919C14.2017 0.281358 16.247 0.761373 16.1009 3.74581C16.08 4.22583 16.0383 4.43453 15.9966 4.14235Z" fill="url(#paint46_linear_2019_6317)"/>
<path d="M11.5303 1.15631C11.8016 1.05196 12.1773 0.989353 12.8869 1.03109C13.7634 1.07283 14.8695 1.40676 15.3287 1.82416C15.5583 2.03286 15.5374 1.8659 15.287 1.59459C14.64 0.843261 13.6591 0.6763 12.386 0.65543C12.2399 0.634559 11.7598 0.905872 11.5303 1.15631Z" fill="url(#paint47_linear_2019_6317)"/>
<path d="M22.3003 3.14062L23.4482 3.72499C23.4482 3.72499 23.0099 4.30936 22.6551 4.9772C22.2794 5.68679 22.029 6.45899 22.029 6.45899L20.9229 5.79114C20.9229 5.79114 21.1942 5.03981 21.5907 4.30936C21.9038 3.70412 22.3003 3.14062 22.3003 3.14062Z" fill="url(#paint48_linear_2019_6317)"/>
<path d="M23.448 3.72281C23.5315 3.76455 23.2602 4.41152 22.8636 5.16285C22.4671 5.91418 22.0914 6.49854 22.0288 6.4568C21.9453 6.41506 22.2166 5.76809 22.6132 5.01676C22.9888 4.26543 23.3645 3.68107 23.448 3.72281Z" fill="#BFC0D0"/>
</g>
<defs>
<linearGradient id="paint0_linear_2019_6317" x1="1046.58" y1="2096.36" x2="1046.58" y2="1.3868" gradientUnits="userSpaceOnUse">
<stop stop-color="#1578E4"/>
<stop offset="1" stop-color="#00C3F2"/>
</linearGradient>
<linearGradient id="paint1_linear_2019_6317" x1="40.2278" y1="169.727" x2="40.2278" y2="13.5762" gradientUnits="userSpaceOnUse">
<stop stop-color="#1492E7"/>
<stop offset="1" stop-color="#DBEDFB"/>
</linearGradient>
<linearGradient id="paint2_linear_2019_6317" x1="35.156" y1="169.727" x2="35.156" y2="13.5762" gradientUnits="userSpaceOnUse">
<stop stop-color="#1492E7"/>
<stop offset="1" stop-color="#DBEDFB"/>
</linearGradient>
<linearGradient id="paint3_linear_2019_6317" x1="15.5897" y1="169.727" x2="15.5897" y2="13.5762" gradientUnits="userSpaceOnUse">
<stop stop-color="#1492E7"/>
<stop offset="1" stop-color="#DBEDFB"/>
</linearGradient>
<linearGradient id="paint4_linear_2019_6317" x1="16.6727" y1="169.727" x2="16.6727" y2="13.5762" gradientUnits="userSpaceOnUse">
<stop stop-color="#1492E7"/>
<stop offset="1" stop-color="#DBEDFB"/>
</linearGradient>
<linearGradient id="paint5_linear_2019_6317" x1="17.8331" y1="169.727" x2="17.8331" y2="13.5762" gradientUnits="userSpaceOnUse">
<stop stop-color="#1492E7"/>
<stop offset="1" stop-color="#DBEDFB"/>
</linearGradient>
<linearGradient id="paint6_linear_2019_6317" x1="18.961" y1="169.727" x2="18.961" y2="13.5762" gradientUnits="userSpaceOnUse">
<stop stop-color="#1492E7"/>
<stop offset="1" stop-color="#DBEDFB"/>
</linearGradient>
<linearGradient id="paint7_linear_2019_6317" x1="22.1535" y1="169.727" x2="22.1535" y2="13.5762" gradientUnits="userSpaceOnUse">
<stop stop-color="#1492E7"/>
<stop offset="1" stop-color="#DBEDFB"/>
</linearGradient>
<linearGradient id="paint8_linear_2019_6317" x1="26.9538" y1="169.727" x2="26.9538" y2="13.5762" gradientUnits="userSpaceOnUse">
<stop stop-color="#1492E7"/>
<stop offset="1" stop-color="#DBEDFB"/>
</linearGradient>
<linearGradient id="paint9_linear_2019_6317" x1="26.0152" y1="169.727" x2="26.0152" y2="13.5762" gradientUnits="userSpaceOnUse">
<stop stop-color="#1492E7"/>
<stop offset="1" stop-color="#DBEDFB"/>
</linearGradient>
<linearGradient id="paint10_linear_2019_6317" x1="412.585" y1="1291.91" x2="412.585" y2="6.14187" gradientUnits="userSpaceOnUse">
<stop stop-color="#1285E7"/>
<stop offset="1" stop-color="#00B5EF"/>
</linearGradient>
<linearGradient id="paint11_linear_2019_6317" x1="472.391" y1="1214.3" x2="-108.302" y2="208.481" gradientUnits="userSpaceOnUse">
<stop stop-color="#2B90E7"/>
<stop offset="1" stop-color="#00B6EF"/>
</linearGradient>
<linearGradient id="paint12_linear_2019_6317" x1="492.022" y1="1254.64" x2="-108.628" y2="214.278" gradientUnits="userSpaceOnUse">
<stop stop-color="#3795EA"/>
<stop offset="1" stop-color="#49C4F2"/>
</linearGradient>
<linearGradient id="paint13_linear_2019_6317" x1="500.491" y1="1271.21" x2="-108.307" y2="216.733" gradientUnits="userSpaceOnUse">
<stop stop-color="#3696EA"/>
<stop offset="1" stop-color="#90D9F6"/>
</linearGradient>
<linearGradient id="paint14_linear_2019_6317" x1="493.092" y1="1252.26" x2="-107.826" y2="211.432" gradientUnits="userSpaceOnUse">
<stop stop-color="#3097EA"/>
<stop offset="1" stop-color="#B5E5F9"/>
</linearGradient>
<linearGradient id="paint15_linear_2019_6317" x1="475.45" y1="1209.65" x2="-104.728" y2="204.736" gradientUnits="userSpaceOnUse">
<stop stop-color="#3A98EA"/>
<stop offset="1" stop-color="#BCE7FA"/>
</linearGradient>
<linearGradient id="paint16_linear_2019_6317" x1="12.9698" y1="70.0588" x2="128.02" y2="3.63254" gradientUnits="userSpaceOnUse">
<stop stop-color="#00A4EC"/>
<stop offset="1" stop-color="#B9DFF6"/>
</linearGradient>
<linearGradient id="paint17_linear_2019_6317" x1="10.508" y1="69.463" x2="126.195" y2="2.65868" gradientUnits="userSpaceOnUse">
<stop stop-color="#00A4EC"/>
<stop offset="1" stop-color="#B9DFF6"/>
</linearGradient>
<linearGradient id="paint18_linear_2019_6317" x1="3.62084" y1="63.9373" x2="118.77" y2="-2.53301" gradientUnits="userSpaceOnUse">
<stop stop-color="#00B4EF"/>
<stop offset="1" stop-color="#C3E9FA"/>
</linearGradient>
<linearGradient id="paint19_linear_2019_6317" x1="3.05638" y1="64.7555" x2="118.992" y2="-2.182" gradientUnits="userSpaceOnUse">
<stop stop-color="#00B4EF"/>
<stop offset="1" stop-color="#C3E9FA"/>
</linearGradient>
<linearGradient id="paint20_linear_2019_6317" x1="408.329" y1="1291.01" x2="408.329" y2="5.25638" gradientUnits="userSpaceOnUse">
<stop stop-color="#1285E7"/>
<stop offset="1" stop-color="#00B5EF"/>
</linearGradient>
<linearGradient id="paint21_linear_2019_6317" x1="238.577" y1="1213.36" x2="819.815" y2="206.633" gradientUnits="userSpaceOnUse">
<stop stop-color="#3194E9"/>
<stop offset="1" stop-color="#71CFF4"/>
</linearGradient>
<linearGradient id="paint22_linear_2019_6317" x1="246.147" y1="1255.81" x2="846.87" y2="215.303" gradientUnits="userSpaceOnUse">
<stop stop-color="#5AA6EC"/>
<stop offset="1" stop-color="#A2DEF8"/>
</linearGradient>
<linearGradient id="paint23_linear_2019_6317" x1="249.456" y1="1270.21" x2="857.905" y2="216.337" gradientUnits="userSpaceOnUse">
<stop stop-color="#66ABEE"/>
<stop offset="1" stop-color="#BEE8FA"/>
</linearGradient>
<linearGradient id="paint24_linear_2019_6317" x1="244.767" y1="1251.26" x2="845.888" y2="210.079" gradientUnits="userSpaceOnUse">
<stop stop-color="#7BB6F0"/>
<stop offset="1" stop-color="#B1E3F9"/>
</linearGradient>
<linearGradient id="paint25_linear_2019_6317" x1="235.207" y1="1209.4" x2="815.334" y2="204.566" gradientUnits="userSpaceOnUse">
<stop stop-color="#5AA6EC"/>
<stop offset="1" stop-color="#AFE3F9"/>
</linearGradient>
<linearGradient id="paint26_linear_2019_6317" x1="22.572" y1="30.796" x2="138.801" y2="97.9029" gradientUnits="userSpaceOnUse">
<stop stop-color="#C1E7FA"/>
<stop offset="1" stop-color="#89D4F5"/>
</linearGradient>
<linearGradient id="paint27_linear_2019_6317" x1="19.8578" y1="31.5824" x2="134.436" y2="97.7186" gradientUnits="userSpaceOnUse">
<stop stop-color="#C1E7FA"/>
<stop offset="1" stop-color="#89D4F5"/>
</linearGradient>
<linearGradient id="paint28_linear_2019_6317" x1="17.604" y1="33.4066" x2="131.61" y2="99.2224" gradientUnits="userSpaceOnUse">
<stop stop-color="#C1E7FA"/>
<stop offset="1" stop-color="#89D4F5"/>
</linearGradient>
<linearGradient id="paint29_linear_2019_6317" x1="14.7656" y1="34.6958" x2="128.763" y2="100.524" gradientUnits="userSpaceOnUse">
<stop stop-color="#B0DFF8"/>
<stop offset="1" stop-color="#52BDF2"/>
</linearGradient>
<linearGradient id="paint30_linear_2019_6317" x1="14.0135" y1="36.7372" x2="128.056" y2="102.571" gradientUnits="userSpaceOnUse">
<stop stop-color="#B4DEF8"/>
<stop offset="1" stop-color="#4EB5F0"/>
</linearGradient>
<linearGradient id="paint31_linear_2019_6317" x1="13.2833" y1="38.7786" x2="127.289" y2="104.595" gradientUnits="userSpaceOnUse">
<stop stop-color="#B4DEF8"/>
<stop offset="1" stop-color="#4EB5F0"/>
</linearGradient>
<linearGradient id="paint32_linear_2019_6317" x1="10.6754" y1="39.935" x2="124.658" y2="105.748" gradientUnits="userSpaceOnUse">
<stop stop-color="#B5DDF8"/>
<stop offset="1" stop-color="#46AEEE"/>
</linearGradient>
<linearGradient id="paint33_linear_2019_6317" x1="8.00293" y1="41.1147" x2="121.413" y2="106.594" gradientUnits="userSpaceOnUse">
<stop stop-color="#96CEF4"/>
<stop offset="1" stop-color="#46AAEE"/>
</linearGradient>
<linearGradient id="paint34_linear_2019_6317" x1="8.48358" y1="33.7198" x2="90.3032" y2="80.9621" gradientUnits="userSpaceOnUse">
<stop stop-color="#8FC1F2"/>
<stop offset="1" stop-color="#3193EA"/>
</linearGradient>
<linearGradient id="paint35_linear_2019_6317" x1="-0.324003" y1="49.557" x2="114.979" y2="116.13" gradientUnits="userSpaceOnUse">
<stop stop-color="#8FC1F2"/>
<stop offset="1" stop-color="#3193EA"/>
</linearGradient>
<linearGradient id="paint36_linear_2019_6317" x1="-1.05419" y1="50.9398" x2="115.606" y2="118.306" gradientUnits="userSpaceOnUse">
<stop stop-color="#8FC1F2"/>
<stop offset="1" stop-color="#3193EA"/>
</linearGradient>
<linearGradient id="paint37_linear_2019_6317" x1="536.005" y1="957.305" x2="657.382" y2="1016.5" gradientUnits="userSpaceOnUse">
<stop offset="0.001"/>
<stop offset="1" stop-opacity="0"/>
</linearGradient>
<radialGradient id="paint38_radial_2019_6317" cx="0" cy="0" r="1" gradientUnits="userSpaceOnUse" gradientTransform="translate(-378.931 534.503) rotate(109.896) scale(445.953 255.715)">
<stop/>
<stop offset="1" stop-opacity="0"/>
</radialGradient>
<radialGradient id="paint39_radial_2019_6317" cx="0" cy="0" r="1" gradientUnits="userSpaceOnUse" gradientTransform="translate(63.3851 185.518) rotate(34.9808) scale(180.707 150.469)">
<stop offset="0.417" stop-color="#0C0C12"/>
<stop offset="1" stop-color="#3D4651"/>
</radialGradient>
<linearGradient id="paint40_linear_2019_6317" x1="223.442" y1="297.805" x2="349.767" y2="362.172" gradientUnits="userSpaceOnUse">
<stop stop-color="#344351"/>
<stop offset="0.1" stop-color="#9697A0"/>
<stop offset="0.181" stop-color="#8B8C95"/>
<stop offset="0.351" stop-color="#787A83"/>
<stop offset="0.47" stop-color="#71747D"/>
<stop offset="0.591" stop-color="#777982"/>
<stop offset="0.749" stop-color="#87898F"/>
<stop offset="0.8" stop-color="#8E8F94"/>
<stop offset="0.849" stop-color="#3D3B42"/>
<stop offset="0.9" stop-color="#606E84"/>
</linearGradient>
<linearGradient id="paint41_linear_2019_6317" x1="260.744" y1="328.569" x2="47.955" y2="41.0176" gradientUnits="userSpaceOnUse">
<stop offset="0.27" stop-color="#262B33"/>
<stop offset="0.45" stop-color="#74747E"/>
<stop offset="0.54" stop-color="#B0B0BC"/>
<stop offset="0.73" stop-color="#74747E"/>
</linearGradient>
<linearGradient id="paint42_linear_2019_6317" x1="11.7744" y1="109.45" x2="347.572" y2="66.0744" gradientUnits="userSpaceOnUse">
<stop offset="0.14" stop-color="#606E84"/>
<stop offset="0.4" stop-color="#9899A5"/>
<stop offset="0.73" stop-color="#475768"/>
<stop offset="0.92" stop-color="#262B33"/>
</linearGradient>
<linearGradient id="paint43_linear_2019_6317" x1="179.723" y1="169.798" x2="160.758" y2="62.2539" gradientUnits="userSpaceOnUse">
<stop stop-color="#101215" stop-opacity="0.1"/>
<stop offset="0.46" stop-color="#101215" stop-opacity="0.7"/>
<stop offset="0.7" stop-color="#474951"/>
<stop offset="0.91" stop-color="#7B7D88"/>
</linearGradient>
<linearGradient id="paint44_linear_2019_6317" x1="387.355" y1="590.173" x2="558.269" y2="674.273" gradientUnits="userSpaceOnUse">
<stop offset="0.115" stop-color="#2C3952"/>
<stop offset="0.374" stop-color="#3D414E"/>
<stop offset="0.55" stop-color="#474A54"/>
<stop offset="0.754" stop-color="#4E5057"/>
<stop offset="0.892" stop-color="#323945"/>
<stop offset="1" stop-color="#143052"/>
</linearGradient>
<linearGradient id="paint45_linear_2019_6317" x1="268.425" y1="443.928" x2="421.138" y2="108.85" gradientUnits="userSpaceOnUse">
<stop offset="0.118" stop-color="#6D7078" stop-opacity="0"/>
<stop offset="0.2" stop-color="#6D7078" stop-opacity="0.7"/>
<stop offset="0.34" stop-color="#35363A"/>
<stop offset="0.374" stop-color="#1D1F22"/>
<stop offset="0.4" stop-color="#101215"/>
<stop offset="0.5" stop-color="#16171A"/>
<stop offset="0.56" stop-color="#292A2E"/>
<stop offset="0.688" stop-color="#4B4D51"/>
<stop offset="0.807" stop-color="#63666B"/>
<stop offset="0.915" stop-color="#72757B"/>
<stop offset="1" stop-color="#777A80"/>
</linearGradient>
<linearGradient id="paint46_linear_2019_6317" x1="10.7789" y1="192.597" x2="469.136" y2="192.597" gradientUnits="userSpaceOnUse">
<stop stop-color="#4A4D56"/>
<stop offset="1" stop-color="#29292D"/>
</linearGradient>
<linearGradient id="paint47_linear_2019_6317" x1="10.7789" y1="63.3156" x2="407.109" y2="63.3156" gradientUnits="userSpaceOnUse">
<stop stop-color="#767880"/>
<stop offset="0.41" stop-color="#0C0A0B"/>
</linearGradient>
<linearGradient id="paint48_linear_2019_6317" x1="101.042" y1="298.579" x2="238.764" y2="60.0319" gradientUnits="userSpaceOnUse">
<stop stop-color="#858997"/>
<stop offset="0.23" stop-color="#244668"/>
<stop offset="0.282" stop-color="#1A3249"/>
<stop offset="0.4" stop-color="#040506"/>
<stop offset="0.464" stop-color="#313236"/>
<stop offset="0.546" stop-color="#65656E"/>
<stop offset="0.607" stop-color="#868691"/>
<stop offset="0.64" stop-color="#92929E"/>
</linearGradient>
<clipPath id="clip0_2019_6317">
<rect width="24" height="24" fill="white"/>
</clipPath>
</defs>
</svg>
