<?xml version="1.0" encoding="utf-8"?>
<!-- Generator: Adobe Illustrator 24.1.0, SVG Export Plug-In . SVG Version: 6.00 Build 0)  -->
<svg version="1.1" id="Layer_1" xmlns="http://www.w3.org/2000/svg" xmlns:xlink="http://www.w3.org/1999/xlink" x="0px" y="0px"
	 viewBox="0 0 595.3 595.3" style="enable-background:new 0 0 595.3 595.3;" xml:space="preserve">
<style type="text/css">
	.st0{fill:#878984;}
	.st1{fill:#CD5C00;}
	.st2{fill:#EDEDEB;}
	.st3{fill:#C5C5C3;}
	.st4{fill:#F9F9F8;}
	.st5{fill:#F8F8F7;}
	.st6{fill:#FDFDFD;}
	.st7{fill:#F0F0EE;}
	.st8{fill:#F3F3F2;}
	.st9{fill:#F6F6F5;}
	.st10{fill:#F9FAF9;}
	.st11{fill:#D1D3CE;}
	.st12{fill:#EBEDEA;}
	.st13{fill:#F0F2EF;}
	.st14{fill:#F6F7F5;}
	.st15{fill:#F3F4F2;}
	.st16{fill:#E7E9E5;}
	.st17{fill:#F2F3F1;}
	.st18{fill:#9CA09C;}
	.st19{fill:#E4E7E2;}
	.st20{fill:#E1E4DF;}
	.st21{fill:#DDE0DA;}
	.st22{fill:#959895;}
	.st23{fill:#EEEFEC;}
	.st24{fill:#8B8F8C;}
	.st25{fill:#858986;}
	.st26{fill:#686C6B;}
	.st27{fill:#777B78;}
	.st28{fill:#909491;}
	.st29{fill:#717573;}
	.st30{fill:#6C716F;}
	.st31{fill:#A9ACA8;}
	.st32{fill:#B9BCB5;}
	.st33{fill:#7D817E;}
	.st34{fill:#656A68;}
	.st35{fill:#616664;}
	.st36{fill:#797D7B;}
	.st37{fill:#D9DCD6;}
	.st38{fill:#828683;}
	.st39{fill:#AAADA8;}
	.st40{fill:#B3B6AF;}
	.st41{fill:#A3A7A2;}
	.st42{fill:#8A8E8A;}
	.st43{fill:#B8BBB5;}
	.st44{fill:#8F938E;}
	.st45{fill:#727774;}
	.st46{fill:#B3B4B1;}
	.st47{fill:#7F8380;}
	.st48{fill:#949893;}
	.st49{fill:#FBAE3E;}
	.st50{fill:#F5F5F4;}
	.st51{fill:#F2F2F1;}
	.st52{fill:#CED0CB;}
	.st53{fill:#A3A6A3;}
	.st54{fill:#AFB2AF;}
	.st55{fill:#9FA39E;}
	.st56{fill:#C7CAC4;}
	.st57{fill:#CBCDC8;}
	.st58{fill:#C4C6C0;}
	.st59{fill:#BEC1BB;}
	.st60{fill:#7E8280;}
	.st61{fill:#A6A9A4;}
	.st62{fill:#BBBEBA;}
	.st63{fill:#B5B8B4;}
	.st64{fill:#B6B9B5;}
	.st65{fill:#BFC2BE;}
	.st66{fill:#C5C7C3;}
	.st67{fill:#F47800;}
	.st68{fill:#CCCECA;}
	.st69{fill:#ABAFA9;}
	.st70{fill:#FEFEFE;}
</style>
<path class="st0" d="M146.2,136.7c0-31.7,0.2-63.3-0.1-95c-0.1-9.9,7.3-17,16.9-17c97.8,0.2,195.6,0.1,293.4,0.1
	c3.2,0,6.3,0.2,9.4,1c2.1,0.6,4.1,0.6,6.3,0.1c7.5-1.6,14.6,0.7,21.4,3.4c15.7,6.3,29.6,15.7,42.7,26.1
	c15.1,12.1,28.7,25.7,39.8,41.6c8.1,11.6,14.6,24,17.1,38.1c1.1,6.3,2,12.7,2,19.1c0,130.9,0,261.8,0.1,392.7c0,9-6.4,16.9-17,16.9
	c-138.4-0.1-276.7-0.1-415.1,0c-11,0-17.1-8.3-17-16.9c0.2-42.4,0.1-84.9,0.2-127.3c0-2.6-0.6-3.2-3.2-3.2
	c-44.4,0.1-88.8,0.1-133.2,0c-1,0-2.1,0.3-3-0.2c0.6-0.9,1.6-0.9,2.5-0.9c0.9-0.1,1.9,0,2.8,0c144.3,0,288.5,0,432.8,0
	c1.8,0,3.6-0.4,5.2,0.7c0.1,1.3-1,1.2-1.7,1.3c-1.3,0.2-2.6,0.1-3.8,0.1c-83.8,0-167.5,0-251.3,0c-0.9,0-1.9,0-2.8-0.1
	c-8.4,0.2-16.8,0-25.2,0.1c-3.6,0-3.8,0.2-3.8,3.7c0,41.2,0,82.3,0,123.5c0,3.9,0.2,4.1,4.3,4.1c27.7,0,55.5,0,83.2,0
	c108.4,0,216.8,0,325.3,0c6.1,0,6.1,0,6.1-6c0-89.2-0.1-178.5,0-267.7c0-39.2,0-78.4,0.1-117.6c0-1.3,0.1-2.6-0.1-3.8
	c-0.1-0.3-0.2-0.6-0.2-0.9c0.1-3.8-2.7-6-5-8.2c-6-5.8-13.5-8.3-21.7-9.1c-5.1-0.3-10.3-1.1-15.4-0.6c-1.5,0.3-3.1,0.2-4.6,0.2
	c-2.9,0.2-5.9-0.2-8.8,0.4c-8.4,0.2-16.7,1.2-25.1,1.2c-6.1-0.1-12.2-0.1-18.3,0c-2.3,0.1-4.5,0.1-6.8,0c-1.5-0.1-2.6-0.6-2.5-2.4
	c0.4-1.7,0.4-3.4,0.3-5.1c0-1.4,0-2.8,0-4.2c0.9-5.4,0.1-10.8,0.7-16.2c0.9-3.7,0.1-7.5,0.3-11.3c0.1-1.7-0.1-3.5,0-5.2
	c0-1.6-0.1-3.1,0-4.7c0-2.2-0.1-4.4,0-6.6c-0.1-2.3-0.1-4.7,0-7c0-0.8-0.1-1.5,0-2.3c0.2-3.1-0.1-6.1-0.5-9.1
	c-0.1-1.2-0.1-2.4,0-3.6c0.1-3.2-0.6-6.4-0.8-9.6c-0.6-6.4-0.6-6.4-6.9-8.2c-2.6-0.7-5.1-1.3-7.8-1.1c-3.5,0.1-6.9,0.1-10.4,0
	c-3.2,0.1-6.5,0-9.7,0c-2.6,0.1-5.2,0-7.8,0c-3.1,0.2-6.2,0-9.2,0c-3.9,0.1-7.8,0-11.7,0c-3.2,0.1-6.5,0.1-9.7,0
	c-2.4,0.1-4.8,0-7.3,0c-2.7,0.1-5.5,0-8.2,0c-3.3,0.1-6.6,0-9.8,0c-11.8,0-23.5,0.1-35.3,0c-7.4,0.1-14.7,0.1-22.1,0
	c-5.5,0.1-11,0.1-16.5,0c-6.5,0.1-13,0.1-19.5,0c-8.9,0.1-17.8,0.1-26.7,0c-9.1,0.1-18.2,0.1-27.2,0c-19.9,0.1-39.8,0-59.7,0
	c-4.6,0-4.6,0-4.6,4.6c0,29.1,0,58.3,0,87.4c0,1.6,0.3,3.3-0.7,4.7c-0.7,0.6-1.5,0.7-2.4,0.7c-3.3,0.1-6.6,0.1-9.9,0
	C147.7,137.5,146.8,137.4,146.2,136.7z"/>
<path class="st1" d="M450.1,416.2c-0.9,0-1.9-0.1-2.8-0.1c-94.5,0-188.9,0-283.4,0c-51.3,0-102.7,0-154,0c-1,0-2,0.1-3.1,0.1
	c-3.9-0.9-5.8-3.2-6-7.2c0-0.8,0-1.5,0-2.3c0-86.8,0-173.6,0-260.4c0-0.8,0-1.5,0-2.3c0.2-4.4,3-7.1,7.4-7.2c4-0.1,8,0,12.1,0
	c40.9,0,81.8,0,122.7,0c1.1,0,2.2-0.1,3.3-0.1c4.8,0,9.6,0,14.4,0c1.3-1,2.8-0.8,4.2-0.8c10.9,0,21.7,0,32.6,0c58,0,116,0,174,0
	c2.1,0,4.3,0,6.4,0.1c9.1-0.1,18.2-0.1,27.3,0c8.9-0.1,17.7-0.1,26.6,0c5.4-0.1,10.7,0,16.1,0c1.2,0,2.4,0.2,3.5,0.6
	c1.5,0.5,2.6,1.4,3.7,2.5c1.4,1.6,1.8,3.5,1.8,5.5c0,84.8,0,169.6,0,254.3c0,3.3,0.2,6.7,0.1,10c-0.1,2.6-1,4.8-3.1,6.5
	C452.6,416.3,451.5,417,450.1,416.2z"/>
<path class="st2" d="M580.7,152.6c0.5,0.9,0.3,1.8,0.3,2.8c0,130.1,0,260.1,0,390.2c0,4,0,4-3.9,4c-137.5,0-275,0-412.6,0
	c-4,0-4,0-4-4.1c0-41.9,0-83.9-0.1-125.8c0-2.6,0.7-3.3,3.3-3.2c8.9,0.2,17.8,0.1,26.7,0.2c0.9,1,0.8,2.2,0.8,3.4c0,2.7,0,5.5,0,8.2
	c0,1.6,0.7,2.4,2.3,2.4c0.9,0,1.9,0,2.8,0c98.7,0,197.5,0,296.2,0c5.1,0,5.1,0,5.1-5c0-6.2,0-12.3,0-18.5c0-4-0.1-4.1-4-4.1
	c-10.4,0-20.7,0-31.1,0c-0.9,0-1.9,0-2.8,0c-3.4-0.1-3.6-0.3-3.6-3.6c0-28.4,0-56.8,0-85.2c0-0.8-0.1-1.5,0.1-2.3
	c1-1.1,2.4-0.8,3.6-0.9c6.4,0,12.8,0,19.2,0c3,0,3.2-0.2,3.2-3.2c0-7.1,0-14.2,0-21.3c0-2.8-0.2-3.1-3.1-3.1c-6.4,0-12.8,0-19.2,0
	c-1.3,0-2.6,0.2-3.7-0.7c-0.3-9.1-0.2-18.2,0-27.3c1.2-1.1,2.7-0.8,4.2-0.8c10.9,0,21.9,0,32.8,0c3.8,0,3.9-0.1,3.9-3.9
	c0-6.8,0-13.7,0-20.5c0-3-0.2-3.2-3.2-3.2c-11.1,0-22.2,0-33.3,0c-1.4,0-2.9,0.3-4.2-0.7c-0.4-0.9-0.2-1.9-0.2-2.8
	c0-12,0-23.9,0-35.9c0.5-2.4,2-1.3,3-0.7c3.6,2.2,7.1,4.4,10.7,6.7c19.7,12.5,39.5,25,59.2,37.4c15.8,10,31.7,20,47.5,30
	c1,0.6,2,1.4,3.6,1.9c0-5,0-9.9-0.1-14.8c-0.1-2.6-0.1-5.1,0-7.7c0-2.2-0.1-4.5,0-6.7c-0.1-5.3-0.1-10.5,0-15.8
	c-0.1-3.6-0.1-7.2,0-10.8c0-4.6-0.1-9.2,0-13.9c-0.1-7.5-0.1-14.9-0.1-22.4c0.1-2.1-0.1-4.2,0.1-6.3c0-1.9-0.1-3.9,0-5.8
	C580.1,156.7,579.3,154.5,580.7,152.6z"/>
<path class="st2" d="M377.9,136.7c-0.8,0-1.5,0.1-2.3,0.1c-70.9,0-141.8,0-212.7,0c-0.8,0-1.5,0-2.3-0.1c0-31.7,0-63.4,0-95.2
	c0-1.4,0.1-2.5,2-2.4c21.1,0.1,42.2,0.1,63.3,0.1c10.1,6.2,20.1,12.7,30.2,19c21,13.2,41.9,26.5,62.8,39.7
	c18.5,11.7,37,23.4,55.5,35.1C375.8,133.9,377.8,134.4,377.9,136.7z"/>
<path class="st3" d="M456.5,186.6c0,13.2,0,26.3,0,39.5c0.8,1,0.8,2.2,0.8,3.4c0,7.5,0,15,0,22.5c0,1.2,0,2.4-0.8,3.4
	c0,9,0,18,0,27.1c0.8,1,0.8,2.2,0.8,3.4c0,7.5,0,15,0,22.5c0,1.2,0,2.4-0.8,3.4c0,29.3,0,58.7-0.1,88c0,2.1,0.8,2.4,2.6,2.3
	c12.2-0.1,24.5,0,36.7-0.1c2.4,0,3,0.7,3,3c-0.1,7.9-0.1,15.7,0,23.6c0,2.1-0.6,2.7-2.7,2.7c-27-0.1-54.1,0-81.1,0
	c-73.6,0-147.2,0-220.7,0c-3.6,0-3.6,0-3.6-3.6c0-3.8,0-7.5,0-11.3c1.1,0,2.2,0,3.3,0c84.5,0,168.9,0,253.4,0c1,0,2.1,0.3,3-0.3
	c4-1.1,5.8-3.4,5.8-7.6c0-11.9,0-23.8,0-35.7c0-47.6,0-95.1,0-142.7c0-27.7,0-55.4-0.1-83.2c0-1,0.1-2,0.1-3.1
	c1.5,0.5,1.2,1.7,1.2,2.8c0.1,3.1,0.1,6.3,0,9.4c0.1,2.3,0.1,4.5,0,6.8c0.1,2.8,0.1,5.5,0,8.3c0.1,4.1,0.1,8.3,0.1,12.4
	C457.2,184.7,457.2,185.7,456.5,186.6z"/>
<path class="st4" d="M580.6,193.2c0,4.6,0,9.2,0,13.9c-1.3,0.4-2.3-0.5-3.3-1.1c-32.6-20.7-65.3-41.3-98-62
	c-28.6-18.1-57.3-36.2-85.9-54.3c-24.4-15.4-48.7-30.8-73.1-46.2c-1.1-0.7-2.2-1.2-3.3-2c-0.7-0.6-1.7-1-1.4-2.2
	c7.4,0,14.7,0,22.1,0c8.9,5.6,17.8,11.2,26.7,16.8c16,10.1,31.9,20.2,47.9,30.3c15.8,10,31.6,20,47.4,30c4.4,2.8,9,5.2,13.1,8.6
	c0,1.4-0.1,2.8-0.1,4.1c-0.5,1.5,0.2,3.2-0.4,4.7c0,1.2,0.1,2,1.8,1.9c2.3-0.2,4.6,0.1,6.9,0.1c3.2,0.4,6.4,0.1,9.6,0.2
	c4.4,2.6,8.6,5.5,12.9,8.2c22.5,14.1,44.9,28.4,67.4,42.6C574.3,188.8,577.8,190.6,580.6,193.2z"/>
<path class="st5" d="M315.7,39.2c2.3,2.7,5.6,4.1,8.5,6c11.2,7.2,22.5,14.2,33.7,21.3c17.6,11.1,35.2,22.2,52.7,33.3
	c20,12.7,40,25.3,60.1,38c20,12.7,40,25.3,60.1,38c15.8,10,31.7,20.1,47.5,30.1c0.7,0.5,1.5,0.8,2.3,1.2c0,3.6,0,7.2,0,10.8
	c-1,0.7-1.8,0-2.5-0.5c-13.4-8.5-26.9-17-40.3-25.5c-16-10.2-32.1-20.3-48.1-30.4c-11.7-7.4-23.3-14.9-35.1-22.2
	c-0.9-0.7-1.8-1.3-2.7-2c-26.7-17.1-53.6-33.9-80.4-50.9c-23.5-14.9-47-29.7-70.4-44.6c-0.9-0.6-2.5-0.8-1.7-2.6
	C304.8,39.2,310.3,39.2,315.7,39.2z"/>
<path class="st6" d="M472.9,124.9c-3.1-0.9-5.4-3.1-8.1-4.8c-14.2-8.9-28.3-18-42.5-26.9c-22.3-14.1-44.6-28.2-67-42.2
	c-5-3.2-10.1-6.4-15.1-9.6c-1-0.6-1.8-1.3-2.4-2.2c11.8,0,23.6,0,35.4,0c7.7,4.5,15.1,9.4,22.6,14.1c21.1,13.3,42.2,26.7,63.3,40
	c3.9,2.5,7.7,5,11.7,7.4c2.2,1.3,3.1,2.8,2.7,5.2c-0.1,0.9,0.2,1.9-0.2,2.8C473.4,114.1,473.6,119.5,472.9,124.9z"/>
<path class="st7" d="M377.9,136.7c-2.4-3-6-4.5-9.1-6.5c-9.7-6.3-19.6-12.4-29.4-18.6c-17.8-11.2-35.6-22.4-53.4-33.7
	c-19.3-12.2-38.6-24.4-57.9-36.6c-0.9-0.6-1.7-1.2-2.2-2.1c9.1,0,18.1,0,27.2,0c10.3,6.4,20.5,12.9,30.8,19.4
	c19.2,12.1,38.4,24.3,57.6,36.4c15.7,9.9,31.3,19.8,47,29.7c4.6,2.9,9.1,5.7,13.6,8.6c1.2,0.8,2.9,1.3,2.9,3.2
	C396,136.7,386.9,136.7,377.9,136.7z"/>
<path class="st8" d="M405.1,136.7c-2.4-3-6-4.4-9.1-6.5c-11.1-7.2-22.3-14.1-33.5-21.2c-17.8-11.2-35.6-22.4-53.4-33.7
	c-17.9-11.3-35.9-22.7-53.8-34c-0.9-0.6-1.7-1.2-2.2-2.1c8.9,0,17.8,0,26.7,0c9.4,6.2,19,12.1,28.5,18.2c15.8,10,31.6,20,47.4,30
	c17.3,10.9,34.5,21.8,51.8,32.7c7.4,4.7,14.9,9.4,22.3,14.1c0.9,0.6,2.1,1,1.9,2.4C422.9,136.7,414,136.7,405.1,136.7z"/>
<path class="st9" d="M431.8,136.7c-2-2.4-5-3.6-7.5-5.2c-13.8-8.9-27.7-17.7-41.6-26.5c-17.2-10.9-34.5-21.7-51.7-32.5
	c-16.3-10.3-32.6-20.5-48.8-30.9c-0.9-0.6-2.3-0.9-2.4-2.4c6.5,0,13,0,19.5,0c0,0.9,0.7,1.3,1.3,1.7c12.4,7.8,24.8,15.6,37.2,23.4
	c21,13.2,41.9,26.4,62.9,39.7c12.8,8.1,25.6,16.3,38.4,24.4c3.4,2.2,6.9,4.4,10.3,6.6c1,0.6,1.8,1.2,2.4,2.3
	c-5.6-1-11.2-0.3-16.7-0.5C434,136.7,432.9,136.7,431.8,136.7z"/>
<path class="st6" d="M580.6,193.2c-4.1-1.7-7.6-4.4-11.3-6.8c-20.1-12.6-40.2-25.3-60.2-38c-5.3-3.4-10.6-6.7-15.9-10.2
	c-0.7-0.5-1.8-0.8-1.8-2c2.7-0.8,5.5,0.1,8.2-0.5c8.4-0.4,16.8-0.8,25.2-1.2c17.9,11.6,36,22.9,54.1,34.3c0.7,0.5,1.5,0.8,1.8,1.7
	C580.6,178.2,580.6,185.7,580.6,193.2z"/>
<path class="st10" d="M473.4,108.7c0.8-4.3-1.3-6.7-4.9-8.8c-9.4-5.6-18.7-11.6-28-17.5C421,70,401.5,57.7,382,45.3
	c-3-1.9-6.4-3.3-8.8-6.1c3.3,0,6.5,0,9.8,0c8.9,5.6,17.8,11.2,26.6,16.8c20.7,13.1,41.4,26.2,62.1,39.3c0.8,0.5,1.7,0.9,2.1,1.8
	C473.8,101,474.1,104.9,473.4,108.7z"/>
<path class="st11" d="M486.2,121.9c-0.9-1.6-0.5-3.4-0.4-5c0.9-14.1,1-28.1,0.9-42.2c-0.4-3.2-0.2-6.4-0.1-9.6
	c1.3-0.7,1.9,0.4,2.5,1.1c1.6,1.9,3.2,3.8,4.8,5.7c1.7,1.9,2.4,4.1,2.4,6.6c0.1,13.5,0,26.9,0,40.4c0,0.9,0,1.9-0.6,2.7
	C492.5,122.5,489.4,122.8,486.2,121.9z"/>
<path class="st12" d="M473.8,73.6c0,2.4,0,4.8,0,7.2c-1.3,0.9-2.3,0-3.2-0.6c-13.6-8.7-27.3-17.3-41-25.9
	c-6.1-3.9-12.2-7.8-18.4-11.7c-1.3-0.8-3.1-1.3-3-3.4c3.9,0,7.9,0,11.8,0c10.1,6.3,20.2,12.7,30.3,19.1c6.5,4.1,13,8.2,19.4,12.3
	C471.1,71.5,472.7,72.3,473.8,73.6z"/>
<path class="st13" d="M408.2,39.2c1.9,2.7,5,3.8,7.6,5.5c11.7,7.6,23.6,15,35.4,22.4c6.8,4.3,13.5,8.6,20.3,12.9
	c0.7,0.5,1.5,0.8,2.4,0.7c0,2.2,0,4.4,0,6.7c-1.5,0.4-2.6-0.6-3.7-1.3c-15.5-9.8-31-19.5-46.4-29.3c-7.7-4.9-15.3-9.7-23-14.6
	c-1.1-0.7-3-0.9-2.3-3C401.7,39.2,404.9,39.2,408.2,39.2z"/>
<path class="st14" d="M473.8,97.2c-8.2-5.1-16.3-10.2-24.5-15.3c-19.5-12.3-39.1-24.6-58.5-37c-2.7-1.7-5.9-2.8-7.8-5.6
	c2.7,0,5.5,0,8.2,0c9.3,6.2,18.9,12,28.3,18c14.6,9.3,29.3,18.5,44,27.8c2.3,1.5,4.6,2.9,7,4.3c1.2,0.8,2.5,1.5,3.4,2.7
	C473.8,93.8,473.8,95.5,473.8,97.2z"/>
<path class="st15" d="M473.8,92.1c-5.4-2.9-10.4-6.4-15.6-9.6c-18.2-11.5-36.5-23-54.7-34.5c-3.6-2.3-7.2-4.6-10.8-6.9
	c-0.7-0.5-1.6-0.8-1.6-1.8c2.4,0,4.8,0,7.2,0c0,1.4,1.3,1.7,2.2,2.3c16.7,10.6,33.4,21.3,50.3,31.8c7.7,4.8,15,10,23,14.2
	C473.9,89,473.9,90.5,473.8,92.1z"/>
<path class="st10" d="M580.6,170.6c-7.2-4-14.1-8.7-21-13.1c-11-6.9-21.9-13.8-32.8-20.8c-0.8-0.5-1.9-0.8-2.1-2.1
	c2.9-0.7,5.8-0.5,8.7-0.4c13.3,8.5,26.7,16.9,40,25.4c2.4,1.6,5.1,2.8,7.2,4.9C580.6,166.5,580.6,168.6,580.6,170.6z"/>
<path class="st16" d="M473.8,73.6c-4.4-1.9-8.2-4.9-12.2-7.4c-12.8-7.9-25.5-16-38.2-24c-1.3-0.8-2.7-1.5-3.4-3c3.1,0,6.2,0,9.2,0
	c14.2,9,28.4,18,42.7,26.9c1.2,0.8,1.9,1.6,1.7,3.1c-0.1,0.7-0.2,1.5,0.2,2.3C473.8,72.2,473.8,72.9,473.8,73.6z"/>
<path class="st14" d="M580.6,164.5c-4.2-1.7-7.7-4.6-11.5-6.9c-11.2-7-22.4-14.2-33.5-21.3c-0.8-0.5-1.9-0.8-2.1-2
	c1.5,0,3,0,4.5-0.1c2.4-0.5,4.5-0.2,6.7,1.3c11.3,7.4,22.8,14.5,34.1,21.7c0.7,0.5,1.5,0.9,1.8,1.7
	C580.6,160.7,580.6,162.6,580.6,164.5z"/>
<path class="st17" d="M580.6,158.8c-7.5-4.6-14.9-9.2-22.3-13.9c-5.3-3.4-10.8-6.5-15.8-10.3c-1.3-1-3-0.2-4.5-0.4
	c5.4-0.6,10.7-0.1,16,0.6c7.4,5,15.1,9.6,22.6,14.5c1.4,0.9,3.2,1.4,4.1,2.9c0.1,0.1,0.1,0.3,0,0.4
	C580.7,154.7,580.7,156.7,580.6,158.8z"/>
<path class="st18" d="M560.2,122.4c-1-0.2-2.2,0.4-3.1-0.5c-3.9-4-7.2-8.4-10.7-12.7c-1.2-1.5-2.4-2.4-4.3-2.1
	c-0.9,0-1.7-0.3-2.5-0.7c-5-4.4-9.3-9.5-14.3-13.9c-0.6-0.6-1.3-1.3-0.2-2.1c0.2-0.1,0.5-0.1,0.7,0c2.4,1.2,4.2,3.1,6.5,4.6
	c3,2.4,6.2,4.7,8.1,6.8c-4.8-6.4-11-13-16.3-20.3c-2.7-3.7-5.5-7.4-8.4-11c-0.6-0.7-1.4-1.3-1.3-2.4c0.2-0.2,0.4-0.3,0.7-0.3
	c2.8,1.1,5.1,2.9,7.4,4.8c2,3,4,5.9,6.3,8.7c3,3.7,5.7,7.7,8.8,11.3c7.6,9,14.7,18.4,22,27.6c0.5,0.7,1.5,1.2,1.1,2.4
	c0,0-0.1,0.1-0.2,0.1C560.3,122.5,560.2,122.4,560.2,122.4z"/>
<path class="st19" d="M473.8,71.5c0-3.3-2.1-4.7-4.7-6.3c-12.7-7.9-25.2-15.9-37.8-23.9c-0.8-0.5-1.9-0.8-2.1-2c2.6,0,5.1,0,7.7,0
	c10.3,6.4,20.6,12.9,30.9,19.5c1.9,1.2,3.9,2.1,5.6,3.6C473.9,65.4,474,68.4,473.8,71.5z"/>
<path class="st20" d="M473.4,62.3c-1.7,0.1-2.8-1.1-4.1-1.9c-10.2-6.4-20.3-12.8-30.4-19.2c-0.8-0.5-1.5-1.1-2-2c3.3,0,6.5,0,9.8,0
	c7.8,5.3,15.9,10.1,23.9,15.2c1.8,1.1,2.8,2.2,2.8,4.3C473.3,59.9,473.4,61.1,473.4,62.3z"/>
<path class="st21" d="M473.3,58.7c-0.4-1.7-1.4-2.7-2.9-3.6c-7.5-4.5-14.8-9.3-22.1-14c-0.7-0.5-1.6-0.8-1.5-1.8c3.6,0,7.2,0,10.8,0
	c4.8,3.5,10.1,6.3,14.9,9.7C473.1,52.2,473.2,55.4,473.3,58.7z"/>
<path class="st22" d="M560.2,122.4c-0.7-2.3-2.5-3.8-3.9-5.6c-4.7-6-9.5-11.9-14.2-18c-2.9-3.8-6.2-7.2-9.1-11
	c-3.4-4.5-6.8-9-10.2-13.5c-0.3-0.5-0.4-1.1-0.6-1.7c0.5-0.3,0.9,0,1.4,0.2c1.5,1,3.2,1.7,4.3,3.3c2.6,3.8,5.4,7.4,8.2,11.1
	c5.5,7.2,11.2,14.1,16.7,21.3c3.1,4.1,6.5,7.9,9.7,11.9c0.4,0.5,0.9,0.9,1,1.5c0.2,1,0,1.6-1.2,1.1
	C561.5,122.8,560.7,123.1,560.2,122.4z"/>
<path class="st23" d="M580.7,152.2c-6.8-3.5-13-7.9-19.5-12c-2.6-1.6-5.5-2.7-7.3-5.4c10.3,1,19,5,25.4,13.4
	C580.3,149.4,581.1,150.6,580.7,152.2z"/>
<path class="st24" d="M569.4,123.9c-0.1,0.8-0.4,1-1.2,0.7c-1.3-0.5-2.8-0.4-4-1.2c0-1.8-1.2-3-2.3-4.1c-1.8-1.9-3.4-4-5.1-6.1
	c-6.9-8.6-13.7-17.2-20.5-25.9c-1.6-2.1-3.1-4.3-4.8-6.3c-0.5-0.7-1.1-1.4-0.7-2.3c0.3-0.2,0.7-0.3,1.1-0.2c2,1.4,4.2,2.6,5.6,4.7
	c3.3,5.2,7.2,9.9,11.1,14.6c1.4,1.7,2.7,3.5,4.1,5.2c5.3,6.6,10.5,13.4,16.2,19.7C569.1,123.1,569.4,123.5,569.4,123.9z"/>
<path class="st25" d="M569.4,123.9c-4.1-3-6.5-7.4-9.7-11.2c-5.3-6.4-10.6-12.9-15.6-19.5c-2.4-3.2-5.5-6-7.1-9.9
	c1.4-0.8,2,0.5,2.9,1c1.5,1,2.8,2.3,3.8,3.8c1.8,2.8,4,5.3,6,7.9c4,5.2,7.9,10.5,12.2,15.4c3.1,4.7,6.8,8.8,10.8,12.7
	c0.8,0.8,2,1.4,1.8,2.8C572.6,126.4,571,125.1,569.4,123.9z"/>
<path class="st26" d="M513.4,55.1c2.4,1.3,4.9,2.5,6.7,4.6c2.5,2.8,5.3,5.3,8,7.9c3.1,2.8,6.1,5.7,9,8.7
	c8.6,8.7,17.5,16.9,26.1,25.6c1.8,1.3,2.4,3.4,3.6,5.1c0,0.9-0.6,0.6-1,0.5c-1.1-0.4-2-1.3-2.9-2.1c-13.2-13.5-27.1-26.2-40.2-39.7
	c-2.6-2.7-5.7-4.9-8.2-7.7C513.9,57.1,512.7,56.5,513.4,55.1z"/>
<path class="st27" d="M531.9,78.8c-0.3,0-0.7,0-1,0c-1.6-0.3-2.6-1.4-3.6-2.6c-1.4-1-2.7-2.1-4.1-3.1c-7.9-6.6-14.7-14.4-22.2-21.5
	c-1.8-1.7-3.9-3.1-5.4-5c-0.5-0.6-1.7-1.4-0.1-2.2c1.9,1.1,4,1.7,5.7,3.1c3.9,3.7,7.8,7.4,11.6,11.2c5.9,5.7,11.8,11.6,17.6,17.5
	C531.1,76.8,532.2,77.4,531.9,78.8z"/>
<path class="st28" d="M527.3,76.2c1.3,0.7,2.7,1.3,3.6,2.6c2.4,3.4,4.8,6.8,7.4,10c3.4,4.4,6.9,8.8,10.5,13.2
	c5.1,6.3,10.3,12.7,15.4,19c0.5,0.6,2.1,1.5,0.2,2.4c-0.7-0.1-1.5,0.2-2.1-0.5c1.8-0.5,0.5-1.2,0.1-1.7c-4.5-5.6-9.1-11.1-13.5-16.7
	c-4.6-5.8-8.9-11.8-13.6-17.5C532.3,83.6,529.6,80,527.3,76.2z"/>
<path class="st29" d="M531.9,78.8c-3.6-4-7.4-8-11.6-11.4c-1.6-1.3-2.5-3-3.9-4.4c-4.6-4.4-9.2-8.8-13.8-13.3
	c-0.7-0.6-1.5-1.2-1.5-2.3c2.1,1.2,4.3,2,6.2,3.6c0.5,1.8,2.4,2.3,3.6,3.4c3.1,3.2,6.2,6.6,9.7,9.5c0.2,0.2,0.4,0.3,0.5,0.5
	c1.1,1.8,3,2.8,4.4,4.2c5.7,5.9,11.6,11.4,17.3,17.3c0.7,0.7,1.6,1.4,1.1,2.6c-0.2,0.2-0.4,0.2-0.6,0c-1.7-2.2-3.6-4-6.2-5.1
	C535.8,81.3,533.2,80.8,531.9,78.8z"/>
<path class="st30" d="M513.4,55.1c1.1,2.7,3.5,4.4,5.5,6.2c5.4,4.6,10.1,10,15.2,14.8c10.1,9.5,19.8,19.3,29.6,29.1
	c0.8,0.8,1.7,1.8,3.1,1.7c2.1,1.6,2.5,4.3,4.1,6.2c-1,0.8-1.1,0.9-2.2-0.1c-1.5-1.4-2.9-2.8-4.3-4.3c-0.9-0.9-1.8-1.7-3-2.3
	c-3.1-3.2-6.1-6.5-8.9-10c-1.3-2.5-3.5-4.1-5.5-6c-7-6.8-13.9-13.8-20.8-20.8c-1.8-1.8-4.1-3.1-5.6-5.3v0c-3.6-3.1-6.8-6.7-10.3-10
	c-0.3-0.3-0.8-0.7-0.4-1.3c0,0,0.1-0.1,0.2-0.1c0.1,0,0.2,0.1,0.2,0.1C511.4,53.7,512.4,54.4,513.4,55.1z"/>
<path class="st31" d="M531.9,95.2c-2.3-1.2-4.3-2.9-6.2-4.6c-6.7-8.4-13.4-16.8-20-25.3c-0.7-0.9-1.9-1.7-1.1-3.1
	c0.4-0.2,0.7-0.1,1,0.2c1,1.4,2.8,1.7,4.1,2.5c0.2,0.1,0.4,0.2,0.6,0.4c6.9,9.3,14.2,18.2,21.2,27.4
	C532.1,93.4,533.6,94.2,531.9,95.2z"/>
<path class="st32" d="M486.2,121.9c3.1,0.3,6.1-0.4,9.2-0.5c2.4-1.5,5-0.5,7.6-0.8c4.3-0.1,8.6-0.5,12.9-0.9
	c3.3,0.1,6.5-0.7,9.8-0.6c3.9-0.3,7.7-0.8,11.6-0.5c1.5,0.2,3.1-0.2,4.5,0.4c0.8,0.4,1.1,1.1,0.8,1.9c-9.1,0.4-18.2,0.5-27.3,1.1
	c-8.9,0.6-17.8,1.1-26.8,0.9C487.8,122.9,486.5,123.5,486.2,121.9z"/>
<path class="st33" d="M495.5,44.3c-1,1,0.1,1.4,0.6,1.8c9.2,8.1,17.3,17.5,26.5,25.6c0.4,0.4,0.6,0.8,0.7,1.3
	c-0.3-0.2-0.7-0.3-1-0.5c-2.4-1.6-4.8-3.1-7.2-4.7c-3.5-3-6.6-6.4-9.8-9.7c-4.6-4.8-9.6-9.2-14.3-13.8c-0.7-0.7-1.9-1.3-1.6-2.7
	C491.5,42.2,493.5,43.3,495.5,44.3z"/>
<path class="st34" d="M563.3,101.8c-1.2,0.4-1.5-0.8-2.1-1.3c-8.8-8.6-17.5-17.2-26.3-25.8c-4.5-4.4-9.1-8.7-13.6-13.1
	c-0.5-0.5-1.7-0.7-1.1-1.9c2.6,2,5.6,3.5,7.7,6.2c7.8,6.9,14.7,14.6,22.5,21.5c2.8,2.5,5.1,5.5,7.6,8.2c0.3,0.3,0.5,0.9,1.2,0.7
	C560.8,97.9,562.3,99.7,563.3,101.8z"/>
<path class="st35" d="M559.1,96.2c-1.3,0.9-1.7-0.4-2.1-1c-4.5-5.7-10.4-10.1-15.4-15.3c-4.1-4.2-8.4-8.1-12.6-12.2
	c-0.6-0.5-1.2-1-1.1-1.9c3.7,1.9,6.5,4.8,9.6,7.4C545.5,80.2,552.4,88.1,559.1,96.2z"/>
<path class="st36" d="M553,96.2c2.9,3.3,5.8,6.5,8.7,9.8c4.2,4.9,8.1,10,12.8,14.4c1.2,1.3,1.6,3,2.1,4.6c-1,0.5-1.1,0.6-1.9-0.3
	c-2.4-2.6-5.4-4.6-7.7-7.4c-0.8-0.6-1.3-1.4-1.8-2.3c-2.2-3.1-4.6-6-7-8.9c-2.5-3.2-4.9-6.5-7.3-9.8c-0.5-0.6-1-1.2-0.7-2.1
	C551.8,94,552.2,95.4,553,96.2z"/>
<path class="st37" d="M472.4,49c-1.8,0.1-2.9-1.3-4.2-2.1c-3.1-1.9-6.1-3.9-9.2-5.8c-0.7-0.4-1.5-0.8-1.5-1.8
	c4.7-0.3,9,1.5,13.3,3.1c1.4,0.5,1,1.8,1.3,2.8C472.4,46.4,472.4,47.7,472.4,49z"/>
<path class="st38" d="M489.3,41.8c3.3,4.2,7.7,7.3,11.3,11.1c4.2,4.3,8.5,8.6,12.8,12.8c0.6,0.7,1.5,1.2,1.5,2.3c-0.2,0-0.3,0-0.5,0
	c-2,0-3.1-1.7-4.6-2.6c0-0.2,0-0.3,0-0.5c0-1-0.7-1.5-1.3-2.1c-7.7-6.6-14.4-14.1-21.6-21.1c-0.2-0.2-0.2-0.4-0.4-0.7
	C487.7,40.5,488.6,41,489.3,41.8z"/>
<path class="st39" d="M539.6,106c0.9,0.2,1.7,0.3,2.6,0.5c3.7,2.8,6,6.9,9.1,10.3c0.7,0.8,1.5,1.6,2.1,2.5c0.5,0.7,1.3,1.5,0.5,2.5
	c-2.1-1.2-4.6,0.3-6.7-1c1.4-1.2,1.2-2.4-0.1-3.5c-2.6-2.4-4.4-5.3-6.7-8c-1.3-1.5-2.7-2.4-4.7-2.5c-0.2-0.1-0.4-0.3-0.5-0.6
	c0-0.3,0.1-0.5,0.4-0.6c0.6-0.3,1.3-0.3,2-0.3C538.4,105.3,539,105.6,539.6,106z"/>
<path class="st40" d="M535.5,106.5c2.6-0.5,4.2,0.8,5.7,2.8c2.7,3.6,5.7,6.9,8.6,10.3c-0.7,1.1-1.9,0.6-2.5,1.3c-1.2,0-2.4,0-3.6,0
	c-0.1-0.1-0.2-0.2-0.1-0.2c1.9-2.2,0-3.5-1.2-4.9c-2-2.4-3.9-5-6-7.3C535.9,107.9,535.2,107.4,535.5,106.5z"/>
<path class="st41" d="M554,121.8c-0.1-1.2-0.8-2-1.6-2.8c-3.4-3.5-5.9-7.7-9.4-11c-0.4-0.4-0.6-1-0.9-1.5c1.9-0.3,3.2,0.5,4.5,2.1
	c3.3,4.2,6.8,8.2,10.2,12.3c0.2,0.3,0.8,0.5,0.2,1C556,121.9,555,121.9,554,121.8z"/>
<path class="st42" d="M505.7,62.3c-0.3,0-0.7,0-1,0c-2.1-0.2-3.5-1.5-5-2.7c-3.4-4.7-7.8-8.4-12.2-12c-0.9-0.8-1.8-1.6-2.3-2.7
	c-0.5-0.9-0.7-1.7-0.4-2.7c0.2,0,0.4,0,0.5,0.1c6.7,6.5,13.4,13.1,20.1,19.6C505.6,62,505.6,62.2,505.7,62.3z"/>
<path class="st43" d="M535.5,106.5c2.7,3.3,5.2,6.6,8.1,9.7c1.6,1.7,2.7,3,0.1,4.7c-0.3,0-0.7,0-1,0c-0.2-0.5-0.3-1-0.5-1.5
	c-0.5-2.3-2.5-3.5-3.8-5.2c-1.3-1.7-2.9-3.4-4.2-5.1c-0.6-0.8-1.6-1.7-0.4-2.9C534.4,105.9,535,106,535.5,106.5z"/>
<path class="st44" d="M485.2,44.9c4.7,3.6,9.1,7.6,13.2,11.9c0.7,0.7,1.3,1.6,1.7,2.5c-0.3,0.3-0.6,0.4-1,0.4
	c-1.2-0.5-2.1-1.4-3.3-1.9c-0.7-0.4-1.4-0.9-2-1.4c-0.2-0.2-0.3-0.4-0.4-0.6c-1.9-3.1-5-5-7.7-7.3C484.7,47.4,485.4,46,485.2,44.9z"
	/>
<path class="st45" d="M574.5,120.3c-0.3,0.4-0.6,0.2-0.8-0.1c-4.4-4.1-8.4-8.6-11.8-13.6c-0.1-0.2-0.1-0.5-0.2-0.7
	c2.9,1.4,4.6,4.2,7.1,6.3c0.6,0.5,0.9,1.9,2.2,0.9C572.6,115.3,573.5,117.8,574.5,120.3z"/>
<path class="st46" d="M486.7,64.9c0,3.3,0,6.5,0,9.8c-0.2-0.4-0.5-0.8-0.4-1.2c0.4-7.8-1.9-15.2-3.4-22.7c0-0.2,0-0.3,0.1-0.6
	c1.1-0.4,1.8,0.8,2.8,0.7c0.2,0.2,0.4,0.4,0.5,0.7c0.3,1.1,0.6,2.2,0.7,3.3c0.3,2.6-0.2,5.2,0.3,7.8
	C487.3,63.5,487.4,64.3,486.7,64.9z"/>
<path class="st47" d="M565.8,114.7c0.4,0.8,0.6,1.7,1.5,2.1c0.5,1.7,1.9,2.8,3.2,3.9c2.1,1.8,3.9,3.8,5.9,5.7
	c0.6,0.5,1.3,1.2,0.7,2.2c-0.9-0.5-1.9-0.7-2.6-1.5c-3.7-4.1-7.8-7.9-11.1-12.3c-0.7-1-1.6-1.8-1.7-3.1c0.1,0,0.2-0.1,0.3-0.1
	C563.8,112,564.2,114,565.8,114.7z"/>
<path class="st48" d="M485.7,51.5c0-0.2,0-0.3,0-0.5c0-0.9,0-1.7,0-2.6c0.1-0.3,0.2-0.9,0.5-0.6c2.5,2.6,5.7,4.3,7.7,7.4
	c0.1,0.1,0,0.3,0.1,0.5c-2,0.7-3.1-1.1-4.7-1.7C488,53.2,486.5,52.9,485.7,51.5z"/>
<path class="st47" d="M577.1,128.5c-0.3-1.8-1.9-2.5-3-3.7c-1.9-2.1-4-4-6-6c-0.6-0.6-1.5-1-0.8-2.1c2.2,2.8,5.3,4.8,7.7,7.4
	c0.4,0.4,0.6,1.3,1.5,0.8c1,0.8,1.1,2,1.4,3.1C578.2,128.7,577.9,129.2,577.1,128.5z"/>
<path class="st30" d="M510.4,53.1c-0.5,1.2,0.7,1.4,1.1,1.9c3,3.2,6.1,6.3,9.1,9.4c-1.1,0-1.6-0.9-2.3-1.5
	c-3.6-3.4-6.7-7.2-10.7-10.2c-0.5-0.4-1.3-0.8-0.4-1.6C508.3,51.7,509.3,52.4,510.4,53.1z"/>
<path class="st5" d="M499.5,135.8c-2.7,1-5.5,0.1-8.2,0.5c-3.4-0.3-6.9,0.5-10.3-0.5C487.3,135.8,493.4,135.8,499.5,135.8z"/>
<path class="st5" d="M472.4,133.8c0.1-1.6-0.5-3.2,0.4-4.7C472.8,130.7,473,132.3,472.4,133.8z"/>
<path class="st49" d="M228.2,402.7c-68.5,0-137.1,0-205.6,0c-2.2,0-4.5,0-6.3-1.5c-2-1.6-2.4-3.8-2.4-6.2c0-39.9,0-79.8,0-119.6
	c0-38.9,0-77.9,0-116.8c0-6,1.9-8,7.9-8c96.8,0,193.6,0.2,290.4-0.2c40.5-0.2,80.9,0,121.4-0.3c2,0,3.9,0.2,5.6,1.4
	c2,1.4,2.5,3.4,2.5,5.8c0,19.5-0.2,39,0,58.5c0.8,59.5,0.1,119.1,0.5,178.6c0,5-2.7,8.3-8.3,8.2
	C365.3,402.7,296.7,402.7,228.2,402.7C228.2,402.7,228.2,402.7,228.2,402.7z"/>
<path class="st50" d="M454.5,139.3c2.3,0.1,3.9,1.6,5.7,2.7c20.3,12.8,40.6,25.7,60.9,38.6c19.2,12.2,38.4,24.4,57.7,36.5
	c0.6,0.4,1.2,0.5,1.9,0.8c0,5.3,0,10.6,0,15.9c-1.6,0.4-2.8-0.7-4-1.4c-22.4-14.2-44.8-28.3-67.2-42.5
	c-17.6-11.1-35.1-22.3-52.7-33.3c-0.1-0.1-0.3-0.2-0.4-0.3c-0.3-4.1,0.5-8.2-0.4-12.3C456,142.3,455.3,140.7,454.5,139.3z"/>
<path class="st7" d="M456.5,186.6c0-5.1,0-10.3,0-15.4c1.2-0.8,2.1,0.2,3,0.7c9.5,5.8,18.8,11.8,28.2,17.8
	c21,13.2,41.9,26.5,62.8,39.7c9.7,6.1,19.3,12.3,29,18.3c0.4,0.3,0.8,0.6,1.1,1c0,4.4,0,8.9,0.1,13.3c0.1,2.1-0.7,1.9-2,1.1
	c-3.7-2.3-7.4-4.5-11.1-6.8c-20.5-13-41-26-61.5-39c-15.8-10-31.5-20-47.2-30C458.1,186.8,457.4,186.5,456.5,186.6z"/>
<path class="st3" d="M456.5,255.4c0-9.8,0-19.6,0-29.4c12.9,0,25.8,0.1,38.7,0c2.4,0,3,0.8,2.9,3c-0.1,7.8-0.2,15.5,0,23.3
	c0.1,2.6-0.8,3.1-3.2,3C482.1,255.3,469.3,255.4,456.5,255.4z"/>
<path class="st51" d="M580.6,248.7c-2.7-0.6-4.7-2.4-6.9-3.8c-18.6-11.7-37.2-23.5-55.8-35.2c-19.9-12.6-39.7-25.2-59.6-37.7
	c-0.6-0.4-1.3-0.5-1.9-0.7c0-2.7,0-5.5,0-8.2c1.2-0.9,2.1-0.1,3,0.4c12.2,7.8,24.4,15.4,36.6,23.2c15.9,10.1,31.8,20.1,47.7,30.2
	c10.9,6.9,21.9,13.8,32.7,20.8c1.4,0.9,3.2,1.3,4.1,3C580.6,243.2,580.6,245.9,580.6,248.7z"/>
<path class="st17" d="M580.6,240.4c-6.5-3.3-12.4-7.5-18.5-11.4c-20.2-12.7-40.4-25.5-60.5-38.2c-14.3-9-28.5-18.1-42.7-27.2
	c-0.7-0.5-1.5-0.8-2.4-0.7c0-2.2,0-4.4,0-6.7c3.2,0.3,5.3,2.7,7.8,4.2c20.2,12.6,40.4,25.4,60.6,38.2c17.6,11.1,35.1,22.3,52.7,33.4
	c1,0.6,2.1,1.1,3.2,1.6C580.6,236,580.6,238.2,580.6,240.4z"/>
<path class="st3" d="M456.5,311.9c0-9.8,0-19.6,0-29.4c8,0,16,0.1,24.1,0c1.9,0,2.7,0.4,2.7,2.5c-0.1,8.1-0.1,16.2,0,24.3
	c0,2.2-0.8,2.5-2.7,2.5C472.5,311.8,464.5,311.9,456.5,311.9z"/>
<path class="st52" d="M486.7,64.9c0-0.7,0-1.4,0-2.1c0.1,0,0.2-0.1,0.3-0.1c0.6,0.1,1.1,0.5,1.4,1c3.5,4.5,7.3,8.7,10.9,13.1
	c0.1,0.2,0.2,0.5,0.2,0.8c0.1,1.2,0.1,2.5,0.5,3.6c0.3,1.8,0.3,3.6,0,5.4c-0.7,4.5-0.2,9-0.3,13.5c0.1,1.5,0,3,0,4.5
	c0,2.9,0.1,3,2.9,3.1c0.6,0,1.2,0,1.7,0.2c1.4,0.5,1.4,1.8,1.5,3c0.1,2.3,0,4.6,0,6.9c0.1,2.1-0.5,3.5-2.9,3.5c-2.6,0-5.1,0-7.7,0
	c0-13.1-0.2-26.3,0.1-39.4c0.1-5.2-1.2-9.3-4.9-12.8C489.3,67.8,488.5,65.9,486.7,64.9z"/>
<path class="st53" d="M509.9,65.3c1.8,0.4,3.1,1.6,4.6,2.6c9.1,12,18.6,23.7,27.7,35.9c-3.4-2.9-6.8-5.8-10.2-8.6
	c0.4-0.3,0.5-0.7,0.2-1.1c-4.5-5.7-9.1-11.4-13.5-17.2C515.7,73,512.3,69.6,509.9,65.3z"/>
<path class="st54" d="M499.1,59.2c0.3,0,0.7,0,1,0c1.5,1,3.1,2,4.6,3.1c0.5,2.1,2.1,3.4,3.4,5c5.5,7.1,11.1,14,16.7,21
	c0.6,0.7,1,1.3,0.9,2.3c-0.2,0-0.3,0-0.5,0c-2.6-1.1-4.8-2.7-6.9-4.5c-1.6-3.2-3.6-6.2-6-8.8c-4.7-5-8.5-10.6-12.7-15.9
	C499.2,60.7,498.7,60.1,499.1,59.2z"/>
<path class="st55" d="M518.6,85.9c2.3,1.4,4.7,2.7,6.7,4.6c-0.9,1,0.2,1.2,0.7,1.6c4.7,4.5,9.4,8.9,13.7,13.8c-0.7,0-1.4,0-2.1,0
	c-0.7-0.5-1.5-0.8-2.1-1.5c-5.7-5.8-11.9-11-17.5-17c-0.7-0.7-2.2-1.3-1.1-2.8C517.8,84.6,518.3,85.2,518.6,85.9z"/>
<path class="st47" d="M543.2,88.5c0.2,0,0.3,0,0.5,0c2,0,2.7,1.9,3.9,3c3.4,4.9,7,9.7,10.7,14.4c0.8,1.3,1.9,2.3,2.8,3.6
	c0.4,0.6,1.3,1.2,0.6,2.2c0,0,0,0,0,0c-3.5-2.4-5.3-6.3-8-9.5c-3.4-3.9-6.2-8.4-9.7-12.3C543.6,89.5,543.5,88.9,543.2,88.5z"/>
<path class="st30" d="M547.3,91.6c-1.2-1-2.4-2.1-3.6-3.1c0-0.9-0.6-1.4-1.2-1.9c-4.2-3.9-8.1-8-12.2-12c-2.9-2.8-5.7-5.8-8.8-8.5
	c-0.5-0.5-1-1-1-1.7c6.9,5.3,12.4,12,18.6,17.9c4.1,3.9,8.1,7.8,12.2,11.7c0.7,0.6,1.5,1.2,1.5,2.3c-0.9-0.7-1.7-1.4-2.6-2.1
	C548.8,94,548.3,92.5,547.3,91.6z"/>
<path class="st56" d="M525.8,119.8c-3.3-0.2-6.5,0.9-9.8,0.5c-0.7-0.8-0.8-1.9-0.8-2.9c0.2-3.3-0.5-6.6,0.5-9.8
	c2.4-1.6,5.2-1.3,7.9-1.4c1.1,0.1,2.3,0,3.4,0.2c1.4,0.5,1.5,1.7,1.5,2.9c0.1,2.3,0,4.6,0,6.9C528.7,118.4,528.1,119.8,525.8,119.8z
	"/>
<path class="st57" d="M516,107.5c0,4.3,0,8.6,0,12.8c-4.3,0.3-8.6,0.7-12.8,1c1.6-0.5,2.2-1.5,2.1-3.3c-0.2-2.5,0-5.1-0.1-7.6
	c0-0.8,0.2-1.8-1-1.9c0-0.9,0.8-1.1,1.4-1.1c3-0.2,6.1-0.2,9.1-0.5C515.2,106.8,515.6,107.1,516,107.5z"/>
<path class="st58" d="M525.8,119.8c1.6-0.5,2.2-1.5,2.1-3.3c-0.2-2.5,0-5.1-0.1-7.6c0-0.8,0.2-1.8-1-2c-0.2-0.3-0.2-0.5,0.1-0.7
	c0.6-0.4,1.2-0.4,1.9-0.4c0.4,0,0.8,0.1,1.1,0.3c3.9,2.9,6.7,7,9.7,10.7c1.3,1.6,1,1.9-2.1,2.5C533.6,119.3,529.7,119.2,525.8,119.8
	z"/>
<path class="st59" d="M537.6,119.3c2.7-1,2.6-0.9,0.7-3.2c-2.7-3.3-5.5-6.5-8.4-9.6c1.2-0.9,2.4-0.9,3.6,0c1,2.8,3.3,4.6,5.1,6.8
	c1.4,1.7,2.9,3.3,4.4,4.9c1.2,1.3,0,1.1-0.7,1.1C540.6,119.3,539.1,119.3,537.6,119.3z"/>
<path class="st60" d="M547.3,91.6c1,0.9,2.1,1.7,3.1,2.6c2.2,3.6,4.8,6.9,7.5,10.3c0.4,0.5,0.8,0.9,0.8,1.5c-0.2,0.2-0.3,0.2-0.5,0
	c-3.4-4.4-6.9-8.8-10.3-13.2C547.5,92.4,547.5,92,547.3,91.6z"/>
<path class="st47" d="M558.1,106c0.2,0,0.3,0,0.5,0c2.9,2.5,4.8,5.8,7.2,8.7c-1.9-0.3-2.5-2.4-4.1-3.1
	C561.2,109.3,558.9,108.1,558.1,106z"/>
<path class="st40" d="M533.5,106.5c-1.2,0-2.4,0-3.6,0c-0.3,0-0.7,0-1,0c-1.1-0.6-2-1.3-2.8-2.2c-4.1-4.1-8.2-8.2-12.3-12.3
	c-4.7-4.7-9.8-9-14.3-13.8c-0.1-0.4-0.1-0.8-0.1-1.1c-0.2-1-0.7-2,0.3-2.8c0.6-0.4,1.1,0,1.5,0.4c0.7,1.7,2.4,2.4,3.5,3.6
	c4.4,4.4,8.9,8.7,13.2,13.2c4.4,4.6,9.4,8.6,13.8,13.2c0.8,0.8,1.9,0.6,2.9,0.8c0.4,0.1,0.7,0.2,1,0.5c0,0.2,0,0.3,0,0.5
	C534.8,106.5,534.1,106.5,533.5,106.5z"/>
<path class="st61" d="M535.5,106c-0.3,0-0.7,0-1,0c-1.7-0.9-2.9-2.4-4.2-3.7c-6.2-6.1-12.3-12.3-18.7-18.2c-0.9-0.8-2.7-1.7-1.3-3.5
	c0.9-0.1,1.6,0.4,2.4,0.7c1.1,0.5,2,1.2,3,1.8c0.5,0.6,1.6,0.7,1.4,1.8c-0.5,1.2,0.7,1.4,1.2,1.9c5.8,5.7,11.7,11.4,17.5,17.1
	c0.7,0.6,1.2,1.4,1.8,2.1C536.9,106,536.2,106,535.5,106z"/>
<path class="st62" d="M512.4,81.8c-0.7-0.3-1.4-0.7-2-1c-1.3-0.5-2.7-0.9-3.4-2.3c-2.1-3.5-4.8-6.4-7.2-9.6c-3.3-4.4-6.9-8.4-9.9-13
	c-0.4-0.7-1.2-1.3-0.6-2.2c1.7,0.4,2.8,1.9,4.6,2.1c0,0.2,0,0.3,0,0.5c6,7.7,11.7,15.6,18,22.9C512.6,79.9,513.3,80.7,512.4,81.8z"
	/>
<path class="st63" d="M517,84.9c-0.5-0.5-1-1-1.5-1.5c-4.4-5.1-8.5-10.3-12.6-15.6c-1.9-2.4-3.7-4.9-5.5-7.3
	c-0.7-0.9-2.1-1.7-1.4-3.2c1.2,0.5,2.3,1.1,3.1,2c1.8,3.2,4.4,5.8,6.4,8.8c3.7,5.5,8.9,9.8,12.3,15.5c0.4,0.7,1.5,1.3,0.8,2.5
	C518.1,85.6,517.5,85.2,517,84.9z"/>
<path class="st64" d="M496,57.2c1.3,2.8,3.4,5,5.2,7.4c4.6,6.1,9.4,12,14.1,18c0.1,0.2,0.1,0.5,0.2,0.7c-1.2-0.1-2-1.2-3.1-1.6
	c0.1-0.8-0.1-1.6-0.6-2.2c-6.2-6.7-11.4-14.3-17.1-21.4c-0.5-0.6-0.8-1.3-0.8-2.1C494.8,56.1,495.3,56.9,496,57.2z"/>
<path class="st65" d="M489.3,53.6c1.6,3.4,4.1,6.2,6.3,9.1c3.9,5.1,7.9,10.1,11.8,15.2c0,0.1-0.1,0.3-0.2,0.4
	c-2.6,0.5-4.2-1.2-5.8-2.8c0.3-0.9-0.4-1.4-0.8-2c-4.4-5.5-8.5-11.4-13.2-16.6c-0.6-0.7-0.6-1.6-1.2-2.2c-0.2-1-0.7-2-0.5-3.1
	C486.9,52.2,488.3,52.6,489.3,53.6z"/>
<path class="st66" d="M486.2,54.6c5.8,6.1,10.5,13.1,15.8,19.6c0.5,0.6,0.4,0.9-0.4,0.9c-0.2,0.2-0.3,0.2-0.5,0
	c-1.5-0.8-1.5-0.8-1.6,2.1c-0.2,0.2-0.3,0.2-0.5,0c0-0.2,0-0.3,0-0.5c-2.8-5.4-7.2-9.5-10.7-14.3c-0.9-1.3-1.1,0.1-1.6,0.5
	c0,0,0,0,0,0C485.7,60.1,486.5,57.3,486.2,54.6z"/>
<path class="st67" d="M228,390.4c-66.2,0-132.3,0-198.5,0c-3.4,0-3.4,0-3.4-3.3c0-73.7,0-147.4-0.1-221c0-2.7,0.7-3.2,3.3-3.2
	c93.9,0.1,187.8,0.3,281.6-0.1c38.3-0.2,76.6-0.1,115-0.3c3.3,0,3.3,0,3.3,3.3c0,11.6-0.1,23.1,0,34.7c0.9,62.2,0.2,124.4,0.4,186.6
	c0,3.3,0,3.3-3.3,3.3C360.3,390.4,294.1,390.4,228,390.4C228,390.4,228,390.4,228,390.4z"/>
<path class="st32" d="M499.6,78.2c0.5,0.2,1,0.3,1.3,0.6c9.3,9,18.7,17.8,27.7,27.2c0.1,0.1,0.2,0.3,0.3,0.4c-0.7,0-1.4,0-2.1,0
	c-0.9,0.6-2.1-0.2-3.1,0.5c-2.6-0.3-5.1,0.6-7.7,0.5c-3.9,0.7-7.9,0.1-11.8,1c-5.1,0-5.1,0-5.1-5.2c0-1,0-2,0-3
	c0.6-3.4,0.1-6.7,0.3-10.1c0.1-1.3-0.3-2.5,0.2-3.8c0-1.9,0-3.8,0-5.7C499.2,79.9,499.2,79.1,499.6,78.2z"/>
<path class="st68" d="M486.7,62.8c0.1-0.8-0.5-2,0.5-2.3c0.9-0.3,1.2,0.9,1.7,1.6c3,3.8,6.1,7.7,9.2,11.5c0.8,1,0.9,2,0.9,3.1
	c-4-3.7-7.2-8.1-10.7-12.3C487.8,63.8,487.5,63.2,486.7,62.8z"/>
<path class="st68" d="M499.6,86.4c0,3.8,0,7.6,0,11.5c0,0.8,0.3,1.7-0.5,2.4c0-3.8,0-7.6,0-11.5C499.1,88,498.8,87.1,499.6,86.4z"/>
<path class="st68" d="M499.6,78.2c0,0.9,0,1.7,0,2.6c-1-1.1-0.3-2.4-0.5-3.6c0.2,0,0.3,0,0.5,0C499.6,77.5,499.6,77.9,499.6,78.2z"
	/>
<path class="st59" d="M523.7,107c0.9-0.9,2.1-0.3,3.1-0.5c0,0.2,0,0.3,0,0.5C525.8,107,524.7,107,523.7,107z"/>
<path class="st69" d="M501.1,75.1c0.2,0,0.3,0,0.5,0c1.6,1.5,3.5,2.5,5.6,3.1c0.6,1.4,2.5,1.2,3.1,2.5c-0.4,1.3,0.6,2,1.4,2.6
	c7.2,6.2,13.4,13.5,20.6,19.7c0.9,0.8,1.5,1.9,2.2,2.8c-1.8,0.3-2.9-0.5-4.2-1.7c-3.9-3.9-8.3-7.4-12.1-11.4
	c-3.6-3.8-7.3-7.4-10.9-11.1c-1.5-1.6-3-3.2-4.9-4.5C501.9,76.8,500.8,76.3,501.1,75.1z"/>
<path class="st70" d="M277.9,251.3c-1,0.8-1,1.7-1.3,2.5c-7.9,24.9-15.8,49.8-23.5,74.7c-0.7,2.1-1.5,2.9-3.9,2.8
	c-6.2-0.2-12.5-0.2-18.7,0c-2.1,0-3-0.5-3.7-2.6c-7.8-24.9-15.7-49.8-23.5-74.7c-0.3-1-0.7-2-1.4-3c0,1,0,2.1,0,3.1
	c0,34.8,0,69.6,0.1,104.5c0,2.4-0.6,3-3,2.9c-7.2-0.2-14.4-0.1-21.6,0c-2,0-2.4-0.5-2.4-2.4c0.1-52.5,0.1-105.1,0-157.6
	c0-2,0.5-2.9,2.5-2.5c2.1,0.4,2.6-0.7,2.3-2.5c-0.5-2.7,0.7-3.4,3.3-3.3c7.9,0.2,15.7,0.2,23.6,0c2.2,0,3.2,0.5,3.9,2.8
	c9.4,30.2,18.9,60.3,28.4,90.4c0.2,0.7,0.2,1.5,1.1,2.3c1.6-5,3.2-9.8,4.7-14.7c8.2-26,16.5-52.1,24.7-78.1c0.6-1.9,1.3-2.7,3.5-2.6
	c9.9,0.1,19.9,0.1,29.8,0c1.8,0,2.3,0.4,2.3,2.2c-0.1,54.6-0.1,109.2,0,163.8c0,1.8-0.6,2.3-2.3,2.3c-7.4-0.1-14.7-0.2-22.1,0
	c-2.5,0.1-2.7-0.9-2.7-3c0.1-34.7,0-69.3,0-104C277.9,253.6,277.9,252.6,277.9,251.3z"/>
<path class="st70" d="M101.7,246.9c5.3-9.4,10.4-18.4,15.4-27.4c4.6-8.1,9.2-16.2,13.7-24.4c0.8-1.5,1.7-2,3.4-2
	c8.6,0.1,17.3,0,25.9,0c0.7,0,1.3,0,2.4,0c-0.7,1.4-1.3,2.4-1.9,3.4c-14.1,25.1-28.2,50.2-42.3,75.3c-0.9,1.7-1,2.9-0.1,4.6
	c15.3,27.4,30.4,54.8,45.6,82.3c1.4,2.6,1.4,2.6-1.6,2.6c-8.3,0-16.6-0.1-24.9,0.1c-2,0-3-0.6-4-2.3c-10.5-19-21-38-31.6-57
	c-0.5-0.8-0.9-1.6-1.4-2.5c-0.9,0.5-1.1,1.5-1.6,2.3c-10.6,19-21.3,38-31.9,57.1c-1,1.8-2.1,2.5-4.2,2.4c-8.2-0.1-16.4,0-24.6,0
	c-3.3,0-3.3,0-1.8-2.8c15.8-28.1,31.5-56.2,47.3-84.3c0.9-1.7,1-2.9,0.1-4.6c-12.2-21.6-24.4-43.4-36.6-65c-1-1.8-1.5-3.2,0.8-4.3
	c2.4-1.1,1.9-3.2,1.8-5.1c-0.1-1.7,0.4-2.2,2.1-2.2c5.6,0.1,11.3,0.1,16.9,0c2-0.1,3,0.5,4,2.3c9,16.2,18.1,32.4,27.2,48.5
	C100.5,244.8,100.9,245.6,101.7,246.9z"/>
<path class="st70" d="M330.7,280.2c0-26.1,0-52.2,0-78.3c0-2.2,0.3-3.5,2.8-3c1.8,0.4,2.1-0.6,2.1-2.2c0-3.5,0-3.5,3.5-3.5
	c5.4,0,10.8,0.1,16.2-0.1c2.4-0.1,3,0.6,3,2.9c-0.1,38.6-0.1,77.2-0.1,115.7c0,5.9,0.1,11.8,0,17.7c0,2.1,0.6,2.5,2.6,2.5
	c19.5-0.1,39,0,58.5-0.1c2.4,0,3,0.6,2.9,3c-0.2,8-0.1,16.1,0,24.1c0,1.6-0.2,2.4-2.2,2.4c-29-0.1-58-0.1-87,0
	c-2.1,0-2.3-0.8-2.3-2.5C330.7,332.7,330.7,306.4,330.7,280.2z"/>
</svg>
