<?xml version="1.0" encoding="utf-8"?>
<!-- Generator: Adobe Illustrator 24.1.0, SVG Export Plug-In . SVG Version: 6.00 Build 0)  -->
<svg version="1.1" id="Layer_1" xmlns="http://www.w3.org/2000/svg" xmlns:xlink="http://www.w3.org/1999/xlink" x="0px" y="0px"
	 viewBox="0 0 500 500" style="enable-background:new 0 0 500 500;" xml:space="preserve">
<style type="text/css">
	.st0{fill:url(#XMLID_7_);}
	.st1{fill:url(#XMLID_8_);}
	.st2{fill:url(#XMLID_9_);}
	.st3{fill:url(#XMLID_10_);}
</style>
<g id="XMLID_1_">
	
		<linearGradient id="XMLID_7_" gradientUnits="userSpaceOnUse" x1="-169.7334" y1="552.1722" x2="-167.9087" y2="552.1722" gradientTransform="matrix(0 178.5439 92.2818 0 -50556.6133 30305.4355)">
		<stop  offset="0" style="stop-color:#73B723"/>
		<stop  offset="1" style="stop-color:#D8EE61"/>
	</linearGradient>
	<path id="XMLID_3_" class="st0" d="M421.4,0.6c34,17.2,63.1,62.7,61.6,124.3c-4.5,75.9-59.4,141.2-119.3,201.5
		c-3.3-73.4-19.3-120.3-44.3-186.1C296,73.8,364.8,2.6,421.4,0.6z"/>
	
		<linearGradient id="XMLID_8_" gradientUnits="userSpaceOnUse" x1="-171.3235" y1="551.6888" x2="-169.4992" y2="551.6888" gradientTransform="matrix(-66.866 95.7556 69.1883 92.5415 -49304.8086 -34335.0195)">
		<stop  offset="0" style="stop-color:#98C9EA"/>
		<stop  offset="0.6886" style="stop-color:#026FB2"/>
		<stop  offset="1" style="stop-color:#086EB6"/>
	</linearGradient>
	<path id="XMLID_4_" class="st1" d="M237.9,323.7c18.3-22.6,31.2-42.9,40.1-61c61.7,32.3,47.1,26.3,76.9,60.7c0.1,1,0.3,2.2,0.3,3.2
		c2.4,47.6-32.3,158-169.3,173C176.4,425.3,207.4,362.2,237.9,323.7z"/>
	
		<linearGradient id="XMLID_9_" gradientUnits="userSpaceOnUse" x1="-168.804" y1="548.5393" x2="-166.9798" y2="548.5393" gradientTransform="matrix(133.9815 81.9157 99.2398 -110.5927 -31805.2617 74540.7813)">
		<stop  offset="0" style="stop-color:#D73721"/>
		<stop  offset="1" style="stop-color:#F7D768"/>
	</linearGradient>
	<path id="XMLID_5_" class="st2" d="M17.5,46.5C115,8,220,47.6,280.7,129.9c5.9,7.9,11.4,16.2,16.7,24.8
		c9.5,60.5,2.3,94.1-16.2,111.9c-12.1-6.1-25-11.5-38.8-16.6c-32.1-11.6-61.7-19.4-104.1-31.9C37.8,190.7,13,104.5,17.5,46.5z"/>
	
		<linearGradient id="XMLID_10_" gradientUnits="userSpaceOnUse" x1="-161.5082" y1="553.2984" x2="-159.6839" y2="553.2984" gradientTransform="matrix(23.9297 49.415 21.7618 -54.3378 -7881.7612 38267.4219)">
		<stop  offset="0" style="stop-color:#D4C883"/>
		<stop  offset="1" style="stop-color:#A1D1A7"/>
	</linearGradient>
	<path id="XMLID_6_" class="st3" d="M293.7,148.8c0.6,1,1.3,2,1.9,2.9l0.8,1.3c1.5,2.6,3.1,5.1,4.6,7.7l0.3,0.4l0.4,0.6l0.4,0.6
		l1,1.9l0.1,0.1l1.4,2.6v0.1c1,1.9,2.2,3.7,3.2,5.6l0.1,0.3l1.1,2.2l0,0l1.3,2.4l0.4,0.6l0.6,1.4l0.9,1.7l0.8,1.7
		c0.9,1.7,1.7,3.3,2.6,5l0.3,0.4c1.5,3.1,2.9,6.1,4.3,9.2l1,2.3l0.1,0.3l0.6,1.5l0.8,1.8l0.5,1l0.8,1.7l0.5,1.1l1.1,2.6l0.1,0.1
		l1.1,2.8l0.1,0.4c1.3,3.1,2.4,6,3.6,9.1l0.1,0.3l1,2.6v0.1l0.5,1.5c0.6,1.7,1.3,3.3,1.8,5l0.3,0.6c0.6,1.9,1.3,3.7,1.9,5.6l0.3,0.6
		c0.6,1.8,1.1,3.6,1.8,5.2l0.3,0.9l0.1,0.3l0.9,2.8v0.1l0.9,2.7l0.9,2.8l0,0l0.6,2.4l0.3,0.8l0.4,1.4c0.5,1.7,0.9,3.3,1.4,5.1
		l0.4,1.3l0.6,2.6v0.1c0.8,3.1,1.5,6.1,2.3,9.2l0.1,0.3l0.1,0.4c0.9,4.1,1.8,8,2.6,12.1l0.1,0.4c1.3,6.3,2.3,12.4,3.2,18.6v0.1
		c0.3,1.9,0.5,3.8,0.8,5.6l0.1,0.8l0.3,2.7l0,0l0.3,2.6l0.1,0.8l0.3,2l0.1,0.8v0.4l0.3,2.7c-21.6-27.7-47.3-46.9-78.3-61.8
		C302,215.3,298.4,180.1,293.7,148.8"/>
</g>
</svg>
