<?xml version="1.0" encoding="utf-8"?>
<!-- Generator: Adobe Illustrator 24.1.0, SVG Export Plug-In . SVG Version: 6.00 Build 0)  -->
<svg version="1.1" id="Layer_1" xmlns="http://www.w3.org/2000/svg" xmlns:xlink="http://www.w3.org/1999/xlink" x="0px" y="0px"
	 viewBox="0 0 1133.9 1133.9" style="enable-background:new 0 0 1133.9 1133.9;" xml:space="preserve">
<style type="text/css">
	.st0{fill:#6FB643;}
</style>
<g>
	<path class="st0" d="M533.4,450.3c0,0,0-150.1,150.1-150.1h450.3c0,0,0,150.1-150.1,150.1L533.4,450.3 M533.4,642.1
		c0,0,0-150.1,150.1-150.1h225.2c0,0,0,150.1-150.1,150.1L533.4,642.1 M533.4,834c0,0,0-150.1,150.1-150.1h75
		c0,0,0,150.1-150.1,150.1H533.4"/>
	<path class="st0" d="M483,716.8v119.8H0.3l311-424.2h-267V292.6h503.6L238.3,716.8H483"/>
</g>
</svg>
