<svg xmlns="http://www.w3.org/2000/svg" xmlns:xlink="http://www.w3.org/1999/xlink" width="381" height="372" viewBox="0 0 381 372">
  <defs>
    <clipPath id="clip-Banner_image">
      <rect width="381" height="372"/>
    </clipPath>
  </defs>
  <g id="Banner_image" data-name="Banner image" clip-path="url(#clip-Banner_image)">
    <g id="Group_76" data-name="Group 76" transform="translate(-46.617 37.404)">
      <g id="Group_25" data-name="Group 25" transform="translate(61.718 29.596)">
        <g id="Group_24" data-name="Group 24" transform="translate(0 0)">
          <path id="Path_113" data-name="Path 113" d="M101.156,245.109c-14.533-7.054-27.675-18.4-32.575-33.166-4.067-12.251-2.049-25.635,2.959-37.382,11.267-26.428,35.59-42.331,61.175-47.762,13.065-2.774,26.126-.447,39.007-2.965,16.57-3.239,32.155-11.058,46.7-20.3,21.112-13.419,40.915-29.492,65.011-37.348,36.228-11.811,79.563-2.031,107.334,23.969s38.778,66.892,27.672,101.789-43.7,62.305-81.474,68.865c-31.871,5.534-64.7-2.81-97.207-4.366C192.981,254.206,143.192,265.513,101.156,245.109Z" transform="translate(-66.409 -43.344)" fill="#efeded" opacity="0.62"/>
          <circle id="Ellipse_1" data-name="Ellipse 1" cx="28.286" cy="28.286" r="28.286" transform="translate(26.368 55.059) rotate(-76.717)" fill="#efeded" opacity="0.62"/>
          <circle id="Ellipse_2" data-name="Ellipse 2" cx="10.048" cy="10.048" r="10.048" transform="translate(328.223 25.289) rotate(-7.049)" fill="#efeded" opacity="0.62"/>
        </g>
      </g>
      <g id="Group_37" data-name="Group 37" transform="translate(116.408 52.543)">
        <rect id="Rectangle_20" data-name="Rectangle 20" width="95.932" height="62.235" rx="7.131" transform="translate(0 3.642)" fill="#2e353a"/>
        <g id="Group_36" data-name="Group 36" transform="translate(2.143)">
          <rect id="Rectangle_21" data-name="Rectangle 21" width="97.112" height="63" rx="6.67" fill="#bcc0ce"/>
          <path id="Path_114" data-name="Path 114" d="M261.057,135.991H172.6a2.457,2.457,0,0,1-2.456-2.457V82.5a1.924,1.924,0,0,1,1.924-1.924h89.518a1.924,1.924,0,0,1,1.924,1.924v51.037A2.457,2.457,0,0,1,261.057,135.991Z" transform="translate(-168.333 -74.701)" fill="#fff"/>
          <rect id="Rectangle_22" data-name="Rectangle 22" width="90.306" height="9.254" rx="4.627" transform="translate(3.563 7.406)" fill="#575c60"/>
          <rect id="Rectangle_23" data-name="Rectangle 23" width="55.697" height="3.522" rx="1.572" transform="translate(21.707 10.086)" fill="#fff"/>
          <rect id="Rectangle_24" data-name="Rectangle 24" width="17.776" height="3.522" rx="1.454" transform="translate(6.795 10.086)" fill="#def6f8"/>
          <line id="Line_1" data-name="Line 1" x2="18.3" transform="translate(26.537 11.847)" fill="none" stroke="#57595e" stroke-miterlimit="10" stroke-width="0.757"/>
          <line id="Line_2" data-name="Line 2" x2="12.499" transform="translate(9.208 11.847)" fill="none" stroke="#57595e" stroke-miterlimit="10" stroke-width="0.757"/>
          <path id="Path_115" data-name="Path 115" d="M298.071,88.027H292.6v3.522h5.476a.888.888,0,0,0,.889-.889V88.916A.888.888,0,0,0,298.071,88.027Z" transform="translate(-221.556 -77.941)" fill="#ff4747"/>
          <g id="Group_26" data-name="Group 26" transform="translate(72.578 10.577)">
            <circle id="Ellipse_3" data-name="Ellipse 3" cx="0.927" cy="0.927" r="0.927" fill="none" stroke="#fff" stroke-miterlimit="10" stroke-width="0.505"/>
            <line id="Line_3" data-name="Line 3" x2="0.988" y2="0.988" transform="translate(1.643 1.516)" fill="none" stroke="#fff" stroke-miterlimit="10" stroke-width="0.505"/>
          </g>
          <path id="Path_116" data-name="Path 116" d="M311.66,86.828h2.078l1,2.939h4.257l.459-2.319" transform="translate(-229.843 -77.42)" fill="none" stroke="#fff" stroke-linecap="round" stroke-miterlimit="10" stroke-width="1.128"/>
          <ellipse id="Ellipse_4" data-name="Ellipse 4" cx="0.89" cy="1.001" rx="0.89" ry="1.001" transform="translate(86.044 9.08)" fill="#ff4747"/>
          <path id="Path_117" data-name="Path 117" d="M318.141,94.349a.767.767,0,1,1-.767-.767A.767.767,0,0,1,318.141,94.349Z" transform="translate(-231.993 -80.355)" fill="#fff"/>
          <path id="Path_118" data-name="Path 118" d="M323.2,94.349a.767.767,0,1,1-.768-.767A.768.768,0,0,1,323.2,94.349Z" transform="translate(-234.192 -80.355)" fill="#fff"/>
          <g id="Group_27" data-name="Group 27" transform="translate(50.427 53.039)">
            <rect id="Rectangle_25" data-name="Rectangle 25" width="31.391" height="4.748" rx="1.89" transform="translate(0 0.566)" fill="#575c60"/>
            <rect id="Rectangle_26" data-name="Rectangle 26" width="31.391" height="4.748" rx="1.89" fill="#ff4747"/>
          </g>
          <g id="Group_28" data-name="Group 28" transform="translate(64.817 36.263)">
            <path id="Path_119" data-name="Path 119" d="M283.558,134.329l.608,1.233,1.36.2-.984.959.232,1.355-1.217-.64-1.217.64.232-1.355-.984-.959,1.36-.2Z" transform="translate(-281.59 -134.329)" fill="#f5ad49"/>
            <path id="Path_120" data-name="Path 120" d="M291.191,134.329l.608,1.233,1.36.2-.984.959.232,1.355-1.217-.64-1.217.64.232-1.355-.984-.959,1.36-.2Z" transform="translate(-284.907 -134.329)" fill="#f5ad49"/>
            <path id="Path_121" data-name="Path 121" d="M298.824,134.329l.608,1.233,1.36.2-.984.959.232,1.355-1.217-.64-1.217.64.232-1.355-.984-.959,1.36-.2Z" transform="translate(-288.225 -134.329)" fill="#f5ad49"/>
            <path id="Path_122" data-name="Path 122" d="M306.458,134.329l.608,1.233,1.36.2-.984.959.232,1.355-1.217-.64-1.217.64.232-1.355-.984-.959,1.36-.2Z" transform="translate(-291.543 -134.329)" fill="#f5ad49"/>
            <path id="Path_123" data-name="Path 123" d="M314.091,134.329l.608,1.233,1.36.2-.984.959.232,1.355-1.217-.64-1.217.64.232-1.355-.984-.959,1.36-.2Z" transform="translate(-294.861 -134.329)" fill="#f5ad49"/>
          </g>
          <g id="Group_34" data-name="Group 34" transform="translate(47.435 44.391)">
            <rect id="Rectangle_27" data-name="Rectangle 27" width="38.979" height="5.896" rx="2.347" fill="#575c60"/>
            <g id="Group_33" data-name="Group 33" transform="translate(8.542 1.112)">
              <g id="Group_29" data-name="Group 29" transform="translate(17.604)">
                <rect id="Rectangle_28" data-name="Rectangle 28" width="0.696" height="3.672" transform="translate(1.488)" fill="#fff"/>
                <rect id="Rectangle_29" data-name="Rectangle 29" width="3.672" height="0.696" transform="translate(0 1.488)" fill="#fff"/>
                <rect id="Rectangle_30" data-name="Rectangle 30" width="0.696" height="3.672" transform="matrix(0.707, -0.707, 0.707, 0.707, 0.292, 0.784)" fill="#fff"/>
                <rect id="Rectangle_31" data-name="Rectangle 31" width="3.672" height="0.696" transform="translate(0.292 2.888) rotate(-45)" fill="#fff"/>
              </g>
              <g id="Group_30" data-name="Group 30" transform="translate(11.736)">
                <rect id="Rectangle_32" data-name="Rectangle 32" width="0.696" height="3.672" transform="translate(1.488)" fill="#fff"/>
                <rect id="Rectangle_33" data-name="Rectangle 33" width="3.672" height="0.696" transform="translate(0 1.488)" fill="#fff"/>
                <rect id="Rectangle_34" data-name="Rectangle 34" width="0.696" height="3.672" transform="translate(0.292 0.784) rotate(-45.003)" fill="#fff"/>
                <rect id="Rectangle_35" data-name="Rectangle 35" width="3.672" height="0.696" transform="translate(0.292 2.888) rotate(-44.997)" fill="#fff"/>
              </g>
              <g id="Group_31" data-name="Group 31" transform="translate(5.868)">
                <rect id="Rectangle_36" data-name="Rectangle 36" width="0.696" height="3.672" transform="translate(1.488)" fill="#fff"/>
                <rect id="Rectangle_37" data-name="Rectangle 37" width="3.672" height="0.696" transform="translate(0 1.488)" fill="#fff"/>
                <rect id="Rectangle_38" data-name="Rectangle 38" width="0.696" height="3.672" transform="translate(0.292 0.784) rotate(-45)" fill="#fff"/>
                <rect id="Rectangle_39" data-name="Rectangle 39" width="3.672" height="0.696" transform="translate(0.292 2.888) rotate(-45)" fill="#fff"/>
              </g>
              <g id="Group_32" data-name="Group 32">
                <rect id="Rectangle_40" data-name="Rectangle 40" width="0.696" height="3.672" transform="translate(1.488)" fill="#fff"/>
                <rect id="Rectangle_41" data-name="Rectangle 41" width="3.672" height="0.696" transform="translate(0 1.488)" fill="#fff"/>
                <rect id="Rectangle_42" data-name="Rectangle 42" width="0.696" height="3.672" transform="translate(0.292 0.784) rotate(-45.003)" fill="#fff"/>
                <rect id="Rectangle_43" data-name="Rectangle 43" width="3.672" height="0.696" transform="translate(0.292 2.888) rotate(-44.997)" fill="#fff"/>
              </g>
            </g>
          </g>
          <g id="Group_35" data-name="Group 35" transform="translate(5.04 18.873)">
            <ellipse id="Ellipse_5" data-name="Ellipse 5" cx="9.01" cy="6.709" rx="9.01" ry="6.709" transform="matrix(0.634, -0.773, 0.773, 0.634, 12.962, 33.617)" fill="#2e353a"/>
            <ellipse id="Ellipse_6" data-name="Ellipse 6" cx="9.01" cy="5.875" rx="9.01" ry="5.875" transform="translate(14.251 34.676) rotate(-50.62)" fill="#575c60"/>
            <ellipse id="Ellipse_7" data-name="Ellipse 7" cx="9.01" cy="5.875" rx="9.01" ry="5.875" transform="matrix(0.634, -0.773, 0.773, 0.634, 15.025, 35.311)" fill="#2e353a"/>
            <path id="Path_124" data-name="Path 124" d="M214.481,154.175c-2.463,3-2.784,6.806-.719,8.5s5.736.638,8.2-2.361,2.784-6.806.718-8.5S216.943,151.175,214.481,154.175Z" transform="translate(-191.74 -124.187)" fill="#b4c2cc"/>
            <path id="Path_125" data-name="Path 125" d="M216.3,155.615c-2.463,3-3.035,6.6-1.28,8.04s5.175.177,7.637-2.823,3.035-6.6,1.28-8.04S218.763,152.615,216.3,155.615Z" transform="translate(-192.436 -124.705)" fill="#9babb8"/>
            <path id="Path_126" data-name="Path 126" d="M213.071,130.339l4.03-1.063s4.921-13.688-4.077-22.45c-4.817-4.683-7.863-3.044-8.715-2.7s-2.469,1.115-2.469,1.115,3.084-.576,6.252,2.551a19.834,19.834,0,0,1,5.754,16.865C213.081,129.537,213.071,130.339,213.071,130.339Z" transform="translate(-187.149 -103.569)" fill="#2e353a"/>
            <path id="Path_127" data-name="Path 127" d="M213.561,117.67a19.964,19.964,0,0,0-5.47-9.875c-3.168-3.127-6.252-2.551-6.252-2.551s1.617-.767,2.469-1.115,3.9-1.987,8.715,2.7a17.646,17.646,0,0,1,5.025,9.547Z" transform="translate(-187.149 -103.569)" fill="#575c60"/>
            <path id="Path_128" data-name="Path 128" d="M209.067,131.42c.223-.022.655-1.978.7-2.16a24.23,24.23,0,0,0,.805-5.51,20.547,20.547,0,0,0-1.084-7.332,19.534,19.534,0,0,0-4.963-7.628c-1.308-1.256-2.716-2.544-4.6-2.714a5.677,5.677,0,0,0-3.881,1.189,8.169,8.169,0,0,0-2.506,3.248,10.357,10.357,0,0,0-.7,2.29,19.132,19.132,0,0,0-.191,2.59l4.157-.248s.369-6.666,2.972-8.523c2.065.508,13.836,7.161,8.7,24.856Z" transform="translate(-183.146 -104.649)" fill="#9babb8"/>
            <path id="Path_129" data-name="Path 129" d="M199.785,107.056c-2.6,1.857-2.972,8.523-2.972,8.523l-4.157.248c-.006,0-.01-.009-.014-.027l.556-.239C193.834,106.83,199.785,107.056,199.785,107.056Z" transform="translate(-183.151 -105.084)" fill="#2e353a"/>
            <path id="Path_130" data-name="Path 130" d="M182.493,124.936c-3.157,3.846-3.535,8.755-.843,10.965s7.433.883,10.591-2.964,3.535-8.755.842-10.965S185.65,121.089,182.493,124.936Z" transform="translate(-177.593 -111.103)" fill="#2e353a"/>
            <ellipse id="Ellipse_8" data-name="Ellipse 8" cx="9.01" cy="6.305" rx="9.01" ry="6.305" transform="translate(0 21.467) rotate(-50.62)" fill="#575c60"/>
            <ellipse id="Ellipse_9" data-name="Ellipse 9" cx="9.01" cy="5.875" rx="9.01" ry="5.875" transform="translate(1.258 22.499) rotate(-50.62)" fill="#2e353a"/>
            <path id="Path_131" data-name="Path 131" d="M191.046,132.526c-1.861,2.267-2.171,5.087-.693,6.3s4.185.36,6.045-1.907,2.17-5.088.693-6.3S192.906,130.26,191.046,132.526Z" transform="translate(-181.751 -115.087)" fill="#575c60"/>
            <path id="Path_132" data-name="Path 132" d="M196.494,136.838c1.764-2.149,2.133-4.795.908-6.1a2.3,2.3,0,0,1,.241.171c1.478,1.213,1.168,4.034-.693,6.3s-4.567,3.121-6.045,1.907a2.356,2.356,0,0,1-.215-.2C192.208,139.864,194.731,138.986,196.494,136.838Z" transform="translate(-182.303 -115.379)" fill="#9babb8"/>
            <path id="Path_133" data-name="Path 133" d="M220.172,159.1c-1.356,1.652-1.738,3.58-.853,4.306s2.7-.024,4.057-1.676,1.738-3.58.853-4.306S221.528,157.443,220.172,159.1Z" transform="translate(-194.539 -126.855)" fill="#ff4747"/>
          </g>
          <circle id="Ellipse_10" data-name="Ellipse 10" cx="1.276" cy="1.276" r="1.276" transform="translate(3.563 1.836)" fill="#2e353a"/>
          <circle id="Ellipse_11" data-name="Ellipse 11" cx="1.276" cy="1.276" r="1.276" transform="translate(8.69 1.836)" fill="#ff4747"/>
          <circle id="Ellipse_12" data-name="Ellipse 12" cx="1.276" cy="1.276" r="1.276" transform="translate(13.817 1.836)" fill="#fff"/>
          <line id="Line_4" data-name="Line 4" x2="38.979" transform="translate(47.435 21.766)" fill="#575c60" stroke="#45619b" stroke-miterlimit="10" stroke-width="1.5"/>
          <line id="Line_5" data-name="Line 5" x2="38.979" transform="translate(47.435 27.412)" fill="#575c60" stroke="#45619b" stroke-miterlimit="10" stroke-width="1.5"/>
          <line id="Line_6" data-name="Line 6" x2="38.979" transform="translate(47.435 33.057)" fill="#575c60" stroke="#45619b" stroke-miterlimit="10" stroke-width="1.5"/>
          <line id="Line_7" data-name="Line 7" x2="14.701" transform="translate(47.435 38.702)" fill="#575c60" stroke="#45619b" stroke-miterlimit="10" stroke-width="1.5"/>
        </g>
      </g>
      <path id="Path_134" data-name="Path 134" d="M508.121,445.549c0,.843-44.259,1.526-98.856,1.526s-98.855-.683-98.855-1.526,44.259-1.526,98.855-1.526S508.121,444.706,508.121,445.549Z" transform="translate(-110.748 -180.134)" fill="#131a2b"/>
      <g id="Group_51" data-name="Group 51" transform="translate(291.473 140.514)">
        <g id="Group_43" data-name="Group 43" transform="translate(39.006 9.517)">
          <g id="Group_42" data-name="Group 42">
            <g id="Group_39" data-name="Group 39" transform="translate(26.842)">
              <g id="Group_38" data-name="Group 38">
                <path id="Path_135" data-name="Path 135" d="M597.053,333.979s19.888-48.456,38.726-35.237c6.722,5.3-36.695,38.177-36.695,38.177Z" transform="translate(-592.661 -266.024)" fill="#a4bdda"/>
                <path id="Path_136" data-name="Path 136" d="M630.855,304.224s-23.15,19.807-29.2,29.1" transform="translate(-594.659 -269.4)" fill="none" stroke="#fff" stroke-miterlimit="10" stroke-width="0.747"/>
                <path id="Path_137" data-name="Path 137" d="M624.181,324.18s1.638-2.9,1.422-8.547" transform="translate(-604.452 -274.359)" fill="none" stroke="#fff" stroke-miterlimit="10" stroke-width="0.747"/>
                <path id="Path_138" data-name="Path 138" d="M604.815,334.4l16.45-33.459c-13.308,8.425-24.212,34.985-24.212,34.985l1.788,2.588,1.884-.908C601.724,336.837,603.13,335.741,604.815,334.4Z" transform="translate(-592.661 -267.975)" fill="#7590aa" style="mix-blend-mode: multiply;isolation: isolate"/>
                <path id="Path_139" data-name="Path 139" d="M589.284,313.624s.193-77.2,32.135-70.6c11.709,3.134-27.877,73.351-27.877,73.351Z" transform="translate(-589.284 -242.626)" fill="#b4d1ed"/>
                <path id="Path_140" data-name="Path 140" d="M616.626,252.156s-19.08,38.824-22.194,62.855" transform="translate(-591.522 -246.769)" fill="none" stroke="#fff" stroke-miterlimit="10" stroke-width="0.747"/>
                <path id="Path_141" data-name="Path 141" d="M635.006,264.058s-8.1,3.1-11.294,5.541" transform="translate(-604.248 -251.942)" fill="none" stroke="#fff" stroke-miterlimit="10" stroke-width="0.747"/>
                <path id="Path_142" data-name="Path 142" d="M606.909,277.883s2.677,7.552,3.138,13.1" transform="translate(-596.945 -257.951)" fill="none" stroke="#fff" stroke-miterlimit="10" stroke-width="0.747"/>
                <path id="Path_143" data-name="Path 143" d="M612.593,317.472s-5.193,1.058-8.409,3.712" transform="translate(-595.76 -275.159)" fill="none" stroke="#fff" stroke-miterlimit="10" stroke-width="0.747"/>
              </g>
              <path id="Path_144" data-name="Path 144" d="M636.741,317.839a29.233,29.233,0,0,1,11.035-1.355" transform="translate(-609.912 -274.691)" fill="none" stroke="#fff" stroke-miterlimit="10" stroke-width="0.747"/>
            </g>
            <g id="Group_41" data-name="Group 41" transform="translate(0 28.124)">
              <g id="Group_40" data-name="Group 40">
                <path id="Path_145" data-name="Path 145" d="M571.55,347.166s-19.692-27.321-29.492-16.234c-3.41,4.318,28.662,18.376,28.662,18.376Z" transform="translate(-541.805 -307.982)" fill="#a4bdda"/>
                <path id="Path_146" data-name="Path 146" d="M550.469,333.463s17.441,8.918,22.619,13.824" transform="translate(-545.571 -310.233)" fill="none" stroke="#fff" stroke-miterlimit="10" stroke-width="0.48"/>
                <path id="Path_147" data-name="Path 147" d="M570.986,341.744a11.094,11.094,0,0,1-2.169-5.131" transform="translate(-553.546 -311.602)" fill="none" stroke="#fff" stroke-miterlimit="10" stroke-width="0.48"/>
                <path id="Path_148" data-name="Path 148" d="M573.67,347.859l-15.3-18.457c9.582,3.275,20.378,18.25,20.378,18.25l-.73,1.886-1.314-.286C575.968,348.919,574.924,348.444,573.67,347.859Z" transform="translate(-549.007 -308.468)" fill="#7590aa" style="mix-blend-mode: multiply;isolation: isolate"/>
                <path id="Path_149" data-name="Path 149" d="M575.828,332.8s-11.68-48.239-30.665-39.331c-6.852,3.713,28.415,41.691,28.415,41.691Z" transform="translate(-542.881 -292.373)" fill="#b4d1ed"/>
                <path id="Path_150" data-name="Path 150" d="M554.939,297.969s17.744,21.419,23.29,35.978" transform="translate(-547.514 -294.805)" fill="none" stroke="#fff" stroke-miterlimit="10" stroke-width="0.48"/>
                <path id="Path_151" data-name="Path 151" d="M550.469,306.908s5.527.723,7.892,1.773" transform="translate(-545.571 -298.691)" fill="none" stroke="#fff" stroke-miterlimit="10" stroke-width="0.48"/>
                <path id="Path_152" data-name="Path 152" d="M575.351,310.045a41.829,41.829,0,0,0,0,8.661" transform="translate(-556.281 -300.054)" fill="none" stroke="#fff" stroke-miterlimit="10" stroke-width="0.48"/>
                <path id="Path_153" data-name="Path 153" d="M573.869,336.616a14.47,14.47,0,0,1,5.813,1.062" transform="translate(-555.742 -311.602)" fill="none" stroke="#fff" stroke-miterlimit="10" stroke-width="0.48"/>
              </g>
              <path id="Path_154" data-name="Path 154" d="M557.572,340.144a18.8,18.8,0,0,0-7.1.806" transform="translate(-545.571 -313.111)" fill="none" stroke="#fff" stroke-miterlimit="10" stroke-width="0.48"/>
            </g>
            <rect id="Rectangle_44" data-name="Rectangle 44" width="26.984" height="47.76" transform="translate(16.356 66.94)" fill="#c92d3c"/>
          </g>
          <rect id="Rectangle_45" data-name="Rectangle 45" width="26.984" height="14.632" transform="translate(16.356 74.883)" fill="#ff4747"/>
        </g>
        <g id="Group_49" data-name="Group 49" transform="translate(0 33.424)">
          <g id="Group_48" data-name="Group 48">
            <g id="Group_45" data-name="Group 45">
              <g id="Group_44" data-name="Group 44">
                <path id="Path_155" data-name="Path 155" d="M503.647,356.355s-15.553-37.894-30.285-27.557c-5.257,4.141,28.7,29.856,28.7,29.856Z" transform="translate(-472.809 -303.212)" fill="#a4bdda"/>
                <path id="Path_156" data-name="Path 156" d="M483.363,333.086s18.1,15.49,22.839,22.758" transform="translate(-477.396 -305.853)" fill="none" stroke="#fff" stroke-miterlimit="10" stroke-width="0.584"/>
                <path id="Path_157" data-name="Path 157" d="M505.275,348.693s-1.281-2.266-1.113-6.684" transform="translate(-486.43 -309.731)" fill="none" stroke="#fff" stroke-miterlimit="10" stroke-width="0.584"/>
                <path id="Path_158" data-name="Path 158" d="M506.728,356.687l-12.864-26.166c10.407,6.588,18.935,27.36,18.935,27.36l-1.4,2.024-1.473-.71C509.146,358.591,508.047,357.733,506.728,356.687Z" transform="translate(-481.961 -304.738)" fill="#7590aa" style="mix-blend-mode: multiply;isolation: isolate"/>
                <path id="Path_159" data-name="Path 159" d="M512.809,340.438s-.151-60.369-25.131-55.21c-9.157,2.451,21.8,57.364,21.8,57.364Z" transform="translate(-478.536 -284.915)" fill="#b4d1ed"/>
                <path id="Path_160" data-name="Path 160" d="M498.7,292.367s14.922,30.362,17.357,49.155" transform="translate(-484.065 -288.154)" fill="none" stroke="#fff" stroke-miterlimit="10" stroke-width="0.584"/>
                <path id="Path_161" data-name="Path 161" d="M490.886,301.675s6.333,2.42,8.832,4.333" transform="translate(-480.666 -292.2)" fill="none" stroke="#fff" stroke-miterlimit="10" stroke-width="0.584"/>
                <path id="Path_162" data-name="Path 162" d="M517.763,312.487a50.874,50.874,0,0,0-2.454,10.245" transform="translate(-491.282 -296.899)" fill="none" stroke="#fff" stroke-miterlimit="10" stroke-width="0.584"/>
                <path id="Path_163" data-name="Path 163" d="M510.148,343.447a17.6,17.6,0,0,1,6.576,2.9" transform="translate(-489.039 -310.356)" fill="none" stroke="#fff" stroke-miterlimit="10" stroke-width="0.584"/>
              </g>
              <path id="Path_164" data-name="Path 164" d="M489.685,343.734a22.851,22.851,0,0,0-8.631-1.059" transform="translate(-476.393 -309.991)" fill="none" stroke="#fff" stroke-miterlimit="10" stroke-width="0.584"/>
            </g>
            <g id="Group_47" data-name="Group 47" transform="translate(29.498 21.994)">
              <g id="Group_46" data-name="Group 46">
                <path id="Path_165" data-name="Path 165" d="M529.416,366.668s15.4-21.365,23.063-12.7c2.667,3.377-22.414,14.371-22.414,14.371Z" transform="translate(-526.912 -336.025)" fill="#a4bdda"/>
                <path id="Path_166" data-name="Path 166" d="M550.187,355.952s-13.639,6.975-17.688,10.81" transform="translate(-528.252 -337.786)" fill="none" stroke="#fff" stroke-miterlimit="10" stroke-width="0.376"/>
                <path id="Path_167" data-name="Path 167" d="M546.437,362.428a8.669,8.669,0,0,0,1.7-4.013" transform="translate(-534.31 -338.856)" fill="none" stroke="#fff" stroke-miterlimit="10" stroke-width="0.376"/>
                <path id="Path_168" data-name="Path 168" d="M533.39,367.21l11.962-14.434c-7.494,2.561-15.936,14.272-15.936,14.272l.572,1.475,1.027-.223C531.594,368.039,532.409,367.668,533.39,367.21Z" transform="translate(-526.912 -336.405)" fill="#7590aa" style="mix-blend-mode: multiply;isolation: isolate"/>
                <path id="Path_169" data-name="Path 169" d="M524.987,355.435s9.135-37.725,23.981-30.758c5.359,2.9-22.221,32.6-22.221,32.6Z" transform="translate(-524.987 -323.819)" fill="#b4d1ed"/>
                <path id="Path_170" data-name="Path 170" d="M546.289,328.194s-13.877,16.75-18.214,28.137" transform="translate(-526.329 -325.72)" fill="none" stroke="#fff" stroke-miterlimit="10" stroke-width="0.376"/>
                <path id="Path_171" data-name="Path 171" d="M559.042,335.185a31.892,31.892,0,0,0-6.171,1.387" transform="translate(-537.107 -328.759)" fill="none" stroke="#fff" stroke-miterlimit="10" stroke-width="0.376"/>
                <path id="Path_172" data-name="Path 172" d="M544.183,337.638a32.7,32.7,0,0,1,0,6.773" transform="translate(-533.331 -329.825)" fill="none" stroke="#fff" stroke-miterlimit="10" stroke-width="0.376"/>
                <path id="Path_173" data-name="Path 173" d="M541.992,358.418a11.321,11.321,0,0,0-4.547.831" transform="translate(-530.402 -338.856)" fill="none" stroke="#fff" stroke-miterlimit="10" stroke-width="0.376"/>
              </g>
              <path id="Path_174" data-name="Path 174" d="M553.962,361.176a14.692,14.692,0,0,1,5.555.63" transform="translate(-537.581 -340.036)" fill="none" stroke="#fff" stroke-miterlimit="10" stroke-width="0.376"/>
            </g>
            <rect id="Rectangle_46" data-name="Rectangle 46" width="21.103" height="37.35" transform="translate(21.371 52.349)" fill="#c92d3c"/>
          </g>
          <rect id="Rectangle_47" data-name="Rectangle 47" width="21.103" height="11.442" transform="translate(21.371 58.561)" fill="#ff4747"/>
        </g>
        <g id="Group_50" data-name="Group 50" transform="translate(6.739 0)">
          <path id="Path_175" data-name="Path 175" d="M536.691,225.792h-.2a9.911,9.911,0,0,0-9.911,9.91v10.989H546.6V235.7A9.91,9.91,0,0,0,536.691,225.792Z" transform="translate(-502.919 -225.792)" fill="none" stroke="#575c60" stroke-miterlimit="10" stroke-width="2"/>
          <path id="Path_176" data-name="Path 176" d="M542.621,225.792h-.2a9.911,9.911,0,0,0-9.911,9.91v10.989h20.022V235.7A9.91,9.91,0,0,0,542.621,225.792Z" transform="translate(-505.497 -225.792)" fill="none" stroke="#9babb8" stroke-miterlimit="10" stroke-width="2"/>
          <rect id="Rectangle_48" data-name="Rectangle 48" width="65.525" height="44.593" transform="translate(0 80.052)" fill="#2e353a"/>
          <rect id="Rectangle_49" data-name="Rectangle 49" width="25.027" height="44.593" transform="translate(0 80.052)" fill="#bcc0ce"/>
          <rect id="Rectangle_50" data-name="Rectangle 50" width="47.096" height="20.476" transform="translate(12.513 59.576)" fill="#ff4747"/>
          <rect id="Rectangle_51" data-name="Rectangle 51" width="14.561" height="20.476" transform="translate(45.048 59.576)" fill="#bc3535"/>
          <path id="Path_177" data-name="Path 177" d="M549.772,257.928H516.558l-2.049,41.408h37.313Z" transform="translate(-497.673 -239.76)" fill="#2e353a"/>
          <path id="Path_178" data-name="Path 178" d="M506.862,361.055l32.535-8.242,14.561,8.242Z" transform="translate(-494.349 -281.003)" fill="#400" opacity="0.53" style="mix-blend-mode: multiply;isolation: isolate"/>
          <path id="Path_179" data-name="Path 179" d="M514.509,299.336s21.555-8.246,24.044-41.408h11.22l2.049,41.408Z" transform="translate(-497.673 -239.76)" fill="#575c60"/>
        </g>
      </g>
      <g id="Group_52" data-name="Group 52" transform="translate(184.99 78.682)">
        <rect id="Rectangle_52" data-name="Rectangle 52" width="9.195" height="16.588" transform="translate(46.998 76.305)" fill="#575c60"/>
        <path id="Path_180" data-name="Path 180" d="M390.8,363.545l-5.175,45.818h-20.7s-.4-5.045,4.267-6.24c5.6-40.7,5.718-41.764,5.718-41.764Z" transform="translate(-319.429 -222.886)" fill="#ffc5c1"/>
        <path id="Path_181" data-name="Path 181" d="M390.066,421.9a3.513,3.513,0,0,0,3.659,3.77" transform="translate(-330.359 -249.199)" fill="none" stroke="#a50000" stroke-miterlimit="10" stroke-width="0.92"/>
        <path id="Path_182" data-name="Path 182" d="M380.117,362.075l-5.209-.716s-.121,1.068-5.718,41.764c-4.667,1.2-4.267,6.24-4.267,6.24h8.628Z" transform="translate(-319.429 -222.886)" fill="#fff" opacity="0.42" style="mix-blend-mode: overlay;isolation: isolate"/>
        <path id="Path_183" data-name="Path 183" d="M434.833,362.966l1.141,47.1H415.19a5.67,5.67,0,0,1,3.6-6.24V362.966Z" transform="translate(-341.253 -223.584)" fill="#ffc5c1"/>
        <path id="Path_184" data-name="Path 184" d="M437.651,362.965H421.608V366.9c4.351,4.582,11.745,5.313,16.267,5.279Z" transform="translate(-344.072 -223.584)" fill="#400"/>
        <path id="Path_185" data-name="Path 185" d="M426.574,362.965h-7.784v40.856a5.67,5.67,0,0,0-3.6,6.24H425.5Z" transform="translate(-341.253 -223.584)" fill="#fff" opacity="0.42" style="mix-blend-mode: overlay;isolation: isolate"/>
        <path id="Path_186" data-name="Path 186" d="M381.594,365.536a30.423,30.423,0,0,0,15.478,6.681l.979-8.672-15.893-2.186S382.133,361.578,381.594,365.536Z" transform="translate(-326.679 -222.886)" fill="#400"/>
        <path id="Path_187" data-name="Path 187" d="M377.556,427.113h-.218a4.486,4.486,0,0,0-4.486,4.486v.1h9.19v-.1A4.486,4.486,0,0,0,377.556,427.113Z" transform="translate(-322.879 -251.466)" fill="#575c60"/>
        <path id="Path_188" data-name="Path 188" d="M364.922,441.473h20.7l.7-6.24H369.19C364.522,436.428,364.922,441.473,364.922,441.473Z" transform="translate(-319.429 -254.996)" fill="#2e353a"/>
        <path id="Path_189" data-name="Path 189" d="M402.752,264.545,398.56,324.2s-7.818,2.861-19.392-2.667h0l10.645-58.522Z" transform="translate(-325.625 -180.137)" fill="#bcc0ce"/>
        <path id="Path_190" data-name="Path 190" d="M404.637,325.5a17.044,17.044,0,0,0,4.994-.733l7.241-60.449h-6.315Z" transform="translate(-336.695 -180.707)" fill="#969baa"/>
        <path id="Path_191" data-name="Path 191" d="M380.744,436.192a.959.959,0,0,1-.959.959h-7.271a.959.959,0,0,1-.959-.959h0a.959.959,0,0,1,.959-.959h7.271a.959.959,0,0,1,.959.959Z" transform="translate(-322.315 -254.996)" fill="#fff"/>
        <path id="Path_192" data-name="Path 192" d="M415.19,441.473h20.783l-.151-6.24H418.789A5.671,5.671,0,0,0,415.19,441.473Z" transform="translate(-341.253 -254.996)" fill="#2e353a"/>
        <path id="Path_193" data-name="Path 193" d="M430.8,436.192a.959.959,0,0,1-.959.959h-7.271a.959.959,0,0,1-.959-.959h0a.959.959,0,0,1,.959-.959h7.271a.959.959,0,0,1,.959.959Z" transform="translate(-344.072 -254.996)" fill="#fff"/>
        <path id="Path_194" data-name="Path 194" d="M426.312,427.113h-.218a4.486,4.486,0,0,0-4.486,4.486v.1h9.19v-.1A4.486,4.486,0,0,0,426.312,427.113Z" transform="translate(-344.072 -251.466)" fill="#575c60"/>
        <path id="Path_195" data-name="Path 195" d="M440.6,421.9a3.512,3.512,0,0,0,3.659,3.77" transform="translate(-352.323 -249.199)" fill="none" stroke="#a50000" stroke-miterlimit="10" stroke-width="0.92"/>
        <path id="Path_196" data-name="Path 196" d="M431.46,261.509l3.975,59.667s-7.355,3.9-19.575,0V278.8s-4.668-7.86-3.894-14.872l.514-4.367Z" transform="translate(-339.843 -178.638)" fill="#bcc0ce"/>
        <path id="Path_197" data-name="Path 197" d="M443.072,323.817a17.046,17.046,0,0,0,4.847-1.406l-3.975-59.667L440.6,262.4Z" transform="translate(-352.327 -179.873)" fill="#969baa"/>
        <path id="Path_198" data-name="Path 198" d="M435.3,261.855h0l-6.9-.708c.189,3.907,1.311,12.592,7.482,15.238Z" transform="translate(-347.024 -179.328)" fill="#969baa"/>
        <path id="Path_199" data-name="Path 199" d="M425.863,268.076l-.438-6.567-18.979-1.95s0,0-.343,2.913L398,261.509S407.148,269.834,425.863,268.076Z" transform="translate(-333.809 -178.638)" fill="#969baa"/>
        <path id="Path_200" data-name="Path 200" d="M376.422,167.813s-4.42.91-7.54,11.83-6.863,24.439-6.863,24.439-25.635-1.473-27.715,9.013h39.431Z" transform="translate(-306.124 -138.76)" fill="#d1544e"/>
        <path id="Path_201" data-name="Path 201" d="M390,190.559a33.069,33.069,0,0,0,9.157,2.06l1.472-24.805s-4.42.91-7.54,11.83C392.078,183.192,391,187.014,390,190.559Z" transform="translate(-330.334 -138.76)" fill="#bc3535"/>
        <path id="Path_202" data-name="Path 202" d="M397.391,200.857,393.033,223.9h3.1Z" transform="translate(-331.651 -153.122)" fill="#400"/>
        <path id="Path_203" data-name="Path 203" d="M420.957,161.717l11.358,10.595-6.89,46.668s-16.509,5.98-27.429,0c.78-30.419.34-36.557,6.11-53.818,10.868-3.7,11.587-3.445,11.587-3.445Z" transform="translate(-333.809 -136.108)" fill="#ff4747"/>
        <path id="Path_204" data-name="Path 204" d="M431.6,142.021l.536,11.053-7.256,10.595-1.169-8.645.717-6.565,4.984-6.63Z" transform="translate(-344.984 -127.466)" fill="#ffc5c1"/>
        <path id="Path_205" data-name="Path 205" d="M430.029,144.916l-1.764-.4-3.841,5.11-.717,6.565C429.078,152.618,430.029,144.916,430.029,144.916Z" transform="translate(-344.984 -128.634)" fill="#400"/>
        <path id="Path_206" data-name="Path 206" d="M413.835,126.626s-5.244,0-6.089-4.03c-.325-1.43,2.129-3.185,4.217-1.3-1.1-3.9.083-4.874,2.775-4.874s5.1,4.355,5.162,4.55c.325-3.055,2.99-3.25,3.51.91,2.34,1.235,3.974,1.578,3.808,5.07s-1.273,8.537-2.443,9.663l-.011-.007a2.763,2.763,0,0,1-1.333-2.022l-.287-2.2-1.018-2.266-3.4-4.4Z" transform="translate(-338.034 -116.422)" fill="#575c60"/>
        <path id="Path_207" data-name="Path 207" d="M420.908,124.539s-6.388-4.253-7.116-7.858c-2.038.232-2.836,1.4-1.871,4.828-2.088-1.885-4.542-.129-4.217,1.3.845,4.03,6.089,4.03,6.089,4.03l3.268-.608Z" transform="translate(-338.016 -116.535)" fill="#fff" opacity="0.42" style="mix-blend-mode: overlay;isolation: isolate"/>
        <path id="Path_208" data-name="Path 208" d="M416.163,131.526a121.467,121.467,0,0,0-.935,12.277,3.358,3.358,0,0,0,4.881,3.019c3.159-1.641,5.855-4.4,6.566-10.448l-.953.086.26-6.066a26.549,26.549,0,0,0-7.822-.853A2.262,2.262,0,0,0,416.163,131.526Z" transform="translate(-341.298 -122.097)" fill="#ffc5c1"/>
        <path id="Path_209" data-name="Path 209" d="M425.722,140.167l.093-2.162h0s-.353,4.069-2.173,5.542-4.87.707-6.587.694c-.624-.005-1.217.022-1.72.058-.059,1.1-.1,2.182-.107,3.21a3.358,3.358,0,0,0,4.882,3.02c3.158-1.641,5.854-4.4,6.565-10.448Z" transform="translate(-341.298 -125.803)" fill="#575c60"/>
        <path id="Path_210" data-name="Path 210" d="M426.571,141.192a.368.368,0,0,1-.4.327h0a.368.368,0,0,1-.4-.327v-1.046a.368.368,0,0,1,.4-.327h0a.368.368,0,0,1,.4.327Z" transform="translate(-345.882 -126.592)" fill="#414344"/>
        <path id="Path_211" data-name="Path 211" d="M417.927,142.345a.366.366,0,0,1-.4.322h0a.366.366,0,0,1-.4-.322v-1.029a.367.367,0,0,1,.4-.322h0a.366.366,0,0,1,.4.322Z" transform="translate(-342.125 -127.102)" fill="#414344"/>
        <path id="Path_212" data-name="Path 212" d="M420.456,142.168l-.319,3.453h1.647" transform="translate(-343.432 -127.613)" fill="none" stroke="#ba4a4a" stroke-miterlimit="10" stroke-width="0.46"/>
        <path id="Path_213" data-name="Path 213" d="M418.539,150.813h3.506A2.5,2.5,0,0,1,418.539,150.813Z" transform="translate(-342.738 -131.37)" fill="#fff"/>
        <path id="Path_214" data-name="Path 214" d="M438.337,197.935l-2.86,21.561,10.823,3.138Z" transform="translate(-350.1 -151.852)" fill="#400"/>
        <path id="Path_215" data-name="Path 215" d="M435.273,139.487l.455-2.591s3.77-1.287,3.315,1.9c-.39,2.21-4.035,2.379-4.035,2.379Z" transform="translate(-349.895 -125.209)" fill="#ffc5c1"/>
        <path id="Path_216" data-name="Path 216" d="M433.206,166.18l1.949,7.543,3.2-10.053-2.09-1.95Z" transform="translate(-349.113 -136.111)" fill="#bc3535"/>
        <path id="Path_217" data-name="Path 217" d="M422.009,168.254l-3.469,3.392,1.443-8.22,1.616-.481-.137,1.257Z" transform="translate(-342.738 -136.644)" fill="#bc3535"/>
        <path id="Path_218" data-name="Path 218" d="M423.707,136.73a2.444,2.444,0,0,1,2.869-.372" transform="translate(-344.984 -124.937)" fill="none" stroke="#575c60" stroke-miterlimit="10" stroke-width="1.5"/>
        <path id="Path_219" data-name="Path 219" d="M417.539,137.119s-1.222-.478-1.912,0" transform="translate(-341.472 -125.326)" fill="none" stroke="#575c60" stroke-miterlimit="10" stroke-width="1.5"/>
        <line id="Line_8" data-name="Line 8" y1="1.7" x2="2.947" transform="translate(85.29 13.227)" fill="none" stroke="#a50000" stroke-miterlimit="10" stroke-width="0.92"/>
        <line id="Line_9" data-name="Line 9" x2="2.508" y2="54.506" transform="translate(88.237 89.438)" fill="#57595e"/>
        <line id="Line_10" data-name="Line 10" x1="5.022" y2="51.9" transform="translate(67.942 92.894)" fill="#57595e"/>
        <rect id="Rectangle_53" data-name="Rectangle 53" width="4.148" height="93.583" transform="translate(49.753 92.894)" fill="#2e353a"/>
        <rect id="Rectangle_54" data-name="Rectangle 54" width="9.195" height="2.645" transform="translate(46.998 78.276)" fill="#9babb8"/>
        <rect id="Rectangle_55" data-name="Rectangle 55" width="32.968" height="2.049" transform="translate(34.974 184.427)" fill="#9babb8"/>
        <rect id="Rectangle_56" data-name="Rectangle 56" width="66.811" height="3.941" transform="translate(18.3 74.335)" fill="#2e353a"/>
        <rect id="Rectangle_57" data-name="Rectangle 57" width="27.016" height="3.553" transform="translate(38.319 70.782)" fill="#fff"/>
        <rect id="Rectangle_58" data-name="Rectangle 58" width="19.16" height="3.553" transform="translate(19.16 70.782)" fill="#575c60"/>
        <path id="Path_220" data-name="Path 220" d="M305.708,197.093h-19.16l19.16,25.175h19.16Z" transform="translate(-285.367 -151.486)" fill="#575c60"/>
        <path id="Path_221" data-name="Path 221" d="M303.618,197.093h-19.16l19.16,25.175h19.16Z" transform="translate(-284.458 -151.486)" fill="#fff"/>
        <path id="Path_222" data-name="Path 222" d="M406.045,247.909l8.389,3.941h6.687l-10.163-3.941Z" transform="translate(-337.307 -173.574)" fill="#9babb8"/>
        <path id="Path_223" data-name="Path 223" d="M315.947,217.976c1.838.784,2.953,2.3,2.49,3.385s-2.328,1.33-4.167.547-2.953-2.3-2.49-3.385S314.109,217.193,315.947,217.976Z" transform="translate(-296.289 -160.364)" fill="#def6f8"/>
        <rect id="Rectangle_59" data-name="Rectangle 59" width="6.188" height="1.702" transform="translate(40.81 71.643)" fill="#575c60"/>
        <rect id="Rectangle_60" data-name="Rectangle 60" width="6.188" height="1.702" transform="translate(48.733 71.643)" fill="#575c60"/>
        <path id="Path_224" data-name="Path 224" d="M425.718,180.46s2.21,3.64,2.556,12.826c.2,5.384.168,17,.1,25.685a7.554,7.554,0,0,1-10.216,7.013l-25.617-10.944h-9.441s-1.976-2.34,4.437-3.9a73.394,73.394,0,0,1,7.866-1.422,26.4,26.4,0,0,1,8.992.4l11.048,2.413V190.339S415.535,182.193,425.718,180.46Z" transform="translate(-327.211 -144.257)" fill="#ffc5c1"/>
        <path id="Path_225" data-name="Path 225" d="M453.362,193.286c-.347-9.186-2.557-12.826-2.557-12.826-10.183,1.733-10.269,9.879-10.269,9.879v13.183a53.569,53.569,0,0,0,12.967-1.6C453.484,198.453,453.441,195.392,453.362,193.286Z" transform="translate(-352.299 -144.257)" fill="#bc3535"/>
        <line id="Line_11" data-name="Line 11" x2="5.343" y2="1.305" transform="translate(88.237 68.269)" fill="none" stroke="#a50000" stroke-linecap="round" stroke-miterlimit="10" stroke-width="0.92"/>
        <path id="Path_226" data-name="Path 226" d="M444.628,255.3a7.552,7.552,0,0,0,10.2-6.712,7.963,7.963,0,0,0-11.127,6.365Z" transform="translate(-353.676 -173.574)" fill="#b0322f" opacity="0.49"/>
        <path id="Path_227" data-name="Path 227" d="M383.856,236.84s6.129-1.706,9.142-1.446" transform="translate(-327.662 -168.123)" fill="none" stroke="#a50000" stroke-linecap="round" stroke-miterlimit="10" stroke-width="0.92"/>
      </g>
      <g id="Group_64" data-name="Group 64" transform="translate(55.617 171.066)">
        <rect id="Rectangle_61" data-name="Rectangle 61" width="133.477" height="86.592" rx="9.922" transform="translate(0 5.068)" fill="#2e353a"/>
        <rect id="Rectangle_62" data-name="Rectangle 62" width="135.118" height="87.657" rx="9.281" transform="translate(2.982 0)" fill="#bcc0ce"/>
        <path id="Path_228" data-name="Path 228" d="M191.845,371.393H68.773a3.418,3.418,0,0,1-3.418-3.418V296.963a2.678,2.678,0,0,1,2.678-2.677H192.585a2.678,2.678,0,0,1,2.678,2.677v71.011A3.418,3.418,0,0,1,191.845,371.393Z" transform="translate(-59.85 -286.116)" fill="#fff"/>
        <rect id="Rectangle_63" data-name="Rectangle 63" width="125.648" height="12.876" rx="6.438" transform="translate(7.94 10.304)" fill="#575c60"/>
        <rect id="Rectangle_64" data-name="Rectangle 64" width="77.495" height="4.9" rx="2.187" transform="translate(33.184 14.034)" fill="#fff"/>
        <rect id="Rectangle_65" data-name="Rectangle 65" width="24.733" height="4.9" rx="2.023" transform="translate(12.436 14.034)" fill="#def6f8"/>
        <line id="Line_12" data-name="Line 12" x2="25.462" transform="translate(39.904 16.483)" fill="none" stroke="#57595e" stroke-miterlimit="10" stroke-width="0.757"/>
        <line id="Line_13" data-name="Line 13" x2="17.39" transform="translate(15.794 16.483)" fill="none" stroke="#57595e" stroke-miterlimit="10" stroke-width="0.757"/>
        <path id="Path_229" data-name="Path 229" d="M243.345,304.657h-7.619v4.9h7.619a1.236,1.236,0,0,0,1.236-1.236v-2.427A1.236,1.236,0,0,0,243.345,304.657Z" transform="translate(-133.903 -290.623)" fill="#ff4747"/>
        <g id="Group_53" data-name="Group 53" transform="translate(103.965 14.717)">
          <circle id="Ellipse_13" data-name="Ellipse 13" cx="1.29" cy="1.29" r="1.29" fill="none" stroke="#fff" stroke-miterlimit="10" stroke-width="0.505"/>
          <line id="Line_14" data-name="Line 14" x2="1.374" y2="1.374" transform="translate(2.286 2.11)" fill="none" stroke="#fff" stroke-miterlimit="10" stroke-width="0.505"/>
        </g>
        <path id="Path_230" data-name="Path 230" d="M262.253,302.989h2.892l1.388,4.089h5.924l.639-3.227" transform="translate(-145.433 -289.899)" fill="none" stroke="#fff" stroke-linecap="round" stroke-miterlimit="10" stroke-width="1.128"/>
        <ellipse id="Ellipse_14" data-name="Ellipse 14" cx="1.238" cy="1.392" rx="1.238" ry="1.392" transform="translate(122.7 12.634)" fill="#ff4747"/>
        <path id="Path_231" data-name="Path 231" d="M271.27,313.454a1.068,1.068,0,1,1-1.068-1.068A1.068,1.068,0,0,1,271.27,313.454Z" transform="translate(-148.424 -293.983)" fill="#fff"/>
        <path id="Path_232" data-name="Path 232" d="M278.309,313.454a1.068,1.068,0,1,1-1.068-1.068A1.068,1.068,0,0,1,278.309,313.454Z" transform="translate(-151.484 -293.983)" fill="#fff"/>
        <g id="Group_54" data-name="Group 54" transform="translate(73.144 73.797)">
          <rect id="Rectangle_66" data-name="Rectangle 66" width="43.676" height="6.606" rx="2.629" transform="translate(0 0.787)" fill="#575c60"/>
          <rect id="Rectangle_67" data-name="Rectangle 67" width="43.676" height="6.606" rx="2.629" fill="#ff4747"/>
        </g>
        <g id="Group_55" data-name="Group 55" transform="translate(93.166 50.454)">
          <path id="Path_233" data-name="Path 233" d="M223.152,369.08l.846,1.715,1.893.275-1.369,1.335.323,1.885-1.693-.89-1.693.89.323-1.885-1.369-1.335,1.893-.275Z" transform="translate(-220.413 -369.08)" fill="#f5ad49"/>
          <path id="Path_234" data-name="Path 234" d="M233.773,369.08l.846,1.715,1.893.275-1.369,1.335.323,1.885-1.693-.89-1.693.89.323-1.885-1.369-1.335,1.893-.275Z" transform="translate(-225.029 -369.08)" fill="#f5ad49"/>
          <path id="Path_235" data-name="Path 235" d="M244.393,369.08l.846,1.715,1.893.275-1.369,1.335.323,1.885-1.693-.89-1.693.89.323-1.885-1.369-1.335,1.893-.275Z" transform="translate(-229.646 -369.08)" fill="#f5ad49"/>
          <path id="Path_236" data-name="Path 236" d="M255.013,369.08l.846,1.715,1.893.275-1.37,1.335.323,1.885-1.693-.89-1.693.89.323-1.885-1.369-1.335,1.893-.275Z" transform="translate(-234.262 -369.08)" fill="#f5ad49"/>
          <path id="Path_237" data-name="Path 237" d="M265.634,369.08l.846,1.715,1.893.275L267,372.4l.323,1.885-1.693-.89-1.693.89.323-1.885-1.369-1.335,1.893-.275Z" transform="translate(-238.878 -369.08)" fill="#f5ad49"/>
        </g>
        <g id="Group_61" data-name="Group 61" transform="translate(68.981 61.763)">
          <rect id="Rectangle_68" data-name="Rectangle 68" width="54.234" height="8.203" rx="3.265" fill="#575c60"/>
          <g id="Group_60" data-name="Group 60" transform="translate(11.885 1.547)">
            <g id="Group_56" data-name="Group 56" transform="translate(24.494)">
              <rect id="Rectangle_69" data-name="Rectangle 69" width="0.968" height="5.109" transform="translate(2.07)" fill="#fff"/>
              <rect id="Rectangle_70" data-name="Rectangle 70" width="5.109" height="0.968" transform="translate(0 2.07)" fill="#fff"/>
              <rect id="Rectangle_71" data-name="Rectangle 71" width="0.968" height="5.109" transform="matrix(0.707, -0.707, 0.707, 0.707, 0.406, 1.09)" fill="#fff"/>
              <rect id="Rectangle_72" data-name="Rectangle 72" width="5.109" height="0.968" transform="translate(0.406 4.018) rotate(-45)" fill="#fff"/>
            </g>
            <g id="Group_57" data-name="Group 57" transform="translate(16.329)">
              <rect id="Rectangle_73" data-name="Rectangle 73" width="0.968" height="5.109" transform="translate(2.07)" fill="#fff"/>
              <rect id="Rectangle_74" data-name="Rectangle 74" width="5.109" height="0.968" transform="translate(0 2.07)" fill="#fff"/>
              <rect id="Rectangle_75" data-name="Rectangle 75" width="0.968" height="5.109" transform="translate(0.406 1.091) rotate(-45.003)" fill="#fff"/>
              <rect id="Rectangle_76" data-name="Rectangle 76" width="5.109" height="0.968" transform="translate(0.406 4.018) rotate(-44.997)" fill="#fff"/>
            </g>
            <g id="Group_58" data-name="Group 58" transform="translate(8.165)">
              <rect id="Rectangle_77" data-name="Rectangle 77" width="0.968" height="5.109" transform="translate(2.07)" fill="#fff"/>
              <rect id="Rectangle_78" data-name="Rectangle 78" width="5.109" height="0.968" transform="translate(0 2.07)" fill="#fff"/>
              <rect id="Rectangle_79" data-name="Rectangle 79" width="0.968" height="5.109" transform="translate(0.406 1.09) rotate(-45)" fill="#fff"/>
              <rect id="Rectangle_80" data-name="Rectangle 80" width="5.109" height="0.968" transform="translate(0.406 4.018) rotate(-45)" fill="#fff"/>
            </g>
            <g id="Group_59" data-name="Group 59">
              <rect id="Rectangle_81" data-name="Rectangle 81" width="0.968" height="5.109" transform="translate(2.07)" fill="#fff"/>
              <rect id="Rectangle_82" data-name="Rectangle 82" width="5.109" height="0.968" transform="translate(0 2.07)" fill="#fff"/>
              <rect id="Rectangle_83" data-name="Rectangle 83" width="0.968" height="5.109" transform="translate(0.406 1.091) rotate(-45.003)" fill="#fff"/>
              <rect id="Rectangle_84" data-name="Rectangle 84" width="5.109" height="0.968" transform="translate(0.406 4.018) rotate(-44.997)" fill="#fff"/>
            </g>
          </g>
        </g>
        <circle id="Ellipse_15" data-name="Ellipse 15" cx="1.775" cy="1.775" r="1.775" transform="translate(7.94 2.555)" fill="#2e353a"/>
        <circle id="Ellipse_16" data-name="Ellipse 16" cx="1.775" cy="1.775" r="1.775" transform="translate(15.073 2.555)" fill="#ff4747"/>
        <circle id="Ellipse_17" data-name="Ellipse 17" cx="1.775" cy="1.775" r="1.775" transform="translate(22.207 2.555)" fill="#fff"/>
        <line id="Line_15" data-name="Line 15" x2="54.234" transform="translate(68.981 30.285)" fill="#575c60" stroke="#45619b" stroke-miterlimit="10" stroke-width="1.5"/>
        <line id="Line_16" data-name="Line 16" x2="54.234" transform="translate(68.981 38.139)" fill="#575c60" stroke="#45619b" stroke-miterlimit="10" stroke-width="1.5"/>
        <line id="Line_17" data-name="Line 17" x2="54.234" transform="translate(68.981 45.994)" fill="#575c60" stroke="#45619b" stroke-miterlimit="10" stroke-width="1.5"/>
        <line id="Line_18" data-name="Line 18" x2="20.455" transform="translate(68.981 53.849)" fill="#575c60" stroke="#45619b" stroke-miterlimit="10" stroke-width="1.5"/>
        <g id="Group_63" data-name="Group 63" transform="translate(12.252 30.257)">
          <path id="Path_238" data-name="Path 238" d="M111.543,344.061l-1.438-6.921,6.709-3.408,4.313,2.077,1.6,4.685v3.567l-4.9,11.873h-3.034Z" transform="translate(-91.553 -333.518)" fill="#bc3535"/>
          <path id="Path_239" data-name="Path 239" d="M93.889,345.052s-9.732,2.716-11.488,6.07l-5.112,11.82,9.743,3.194,1.6-3.034-.159,22.52h27.471V361.983l1.758,3.141,9.423-2.5-5.112-12.3s-3.8-4.792-11.766-5.272l-4.759,3.831-3.28,9.895-2.631-9.895-.631.1-5.054-3.929" transform="translate(-77.289 -338.438)" fill="#ff4747"/>
          <path id="Path_240" data-name="Path 240" d="M106.652,345.052" transform="translate(-90.052 -338.438)" fill="#1a171b"/>
          <path id="Path_241" data-name="Path 241" d="M115.148,351.829l-2.029,1.068,4.681,9.093,4.838-9.023-1.58-1.137-3.333,9.415Z" transform="translate(-92.862 -341.384)" fill="#fff"/>
          <rect id="Rectangle_85" data-name="Rectangle 85" width="6.868" height="1.065" transform="translate(28.758 19.221)" fill="#fff"/>
          <g id="Group_62" data-name="Group 62" transform="translate(0 6.614)" opacity="0.35">
            <path id="Path_242" data-name="Path 242" d="M145.653,350.324s-3.8-4.792-11.766-5.272l-2.2,1.773a3.42,3.42,0,0,1,.419.054c1.612.324,10.252,5.435,10.252,5.435l5.427,11.1,2.983-.792Z" transform="translate(-100.933 -345.052)" fill="#653239"/>
            <path id="Path_243" data-name="Path 243" d="M93.889,345.052s-9.732,2.716-11.488,6.07l-5.112,11.82,4.214,1.381,4.73-11.625c1.4-.829,7.919-2.832,12.213-4.1Z" transform="translate(-77.289 -345.052)" fill="#653239"/>
          </g>
          <path id="Path_244" data-name="Path 244" d="M121.649,336.549c3.674,6.708.139,9.777.139,9.777l-3.514-2.528a5.08,5.08,0,0,0,1.363-2.329,5.207,5.207,0,0,0-3.956-6.719,6.089,6.089,0,0,0-4.43,1.307,4.7,4.7,0,0,0-.79,5.724c.128.228,1.519,2.221,1.9,2.018l-4.807,2.528a10.012,10.012,0,0,1,1.074-9.937,7.732,7.732,0,0,1,6.31-3.035S119.332,333.222,121.649,336.549Z" transform="translate(-90.079 -333.354)" fill="#fff"/>
        </g>
      </g>
      <g id="Group_75" data-name="Group 75" transform="translate(304.661 67.701)">
        <rect id="Rectangle_86" data-name="Rectangle 86" width="86.305" height="55.989" rx="6.415" transform="translate(0 3.277)" fill="#2e353a"/>
        <rect id="Rectangle_87" data-name="Rectangle 87" width="87.366" height="56.678" rx="6.001" transform="translate(1.928)" fill="#bcc0ce"/>
        <path id="Path_245" data-name="Path 245" d="M584.22,156.2H504.643a2.21,2.21,0,0,1-2.21-2.21V108.073a1.732,1.732,0,0,1,1.731-1.732H584.7a1.732,1.732,0,0,1,1.732,1.732v45.915A2.21,2.21,0,0,1,584.22,156.2Z" transform="translate(-498.873 -101.058)" fill="#fff"/>
        <rect id="Rectangle_88" data-name="Rectangle 88" width="81.243" height="8.326" rx="4.163" transform="translate(5.134 6.663)" fill="#575c60"/>
        <rect id="Rectangle_89" data-name="Rectangle 89" width="50.107" height="3.168" rx="1.414" transform="translate(21.456 9.074)" fill="#fff"/>
        <rect id="Rectangle_90" data-name="Rectangle 90" width="15.992" height="3.168" rx="1.308" transform="translate(8.041 9.074)" fill="#def6f8"/>
        <line id="Line_19" data-name="Line 19" x2="16.464" transform="translate(25.802 10.658)" fill="none" stroke="#57595e" stroke-miterlimit="10" stroke-width="0.757"/>
        <line id="Line_20" data-name="Line 20" x2="11.244" transform="translate(10.212 10.658)" fill="none" stroke="#57595e" stroke-miterlimit="10" stroke-width="0.757"/>
        <path id="Path_246" data-name="Path 246" d="M617.519,113.047h-4.926v3.168h4.926a.8.8,0,0,0,.8-.8v-1.569A.8.8,0,0,0,617.519,113.047Z" transform="translate(-546.755 -103.973)" fill="#ff4747"/>
        <g id="Group_65" data-name="Group 65" transform="translate(67.223 9.516)">
          <circle id="Ellipse_18" data-name="Ellipse 18" cx="0.834" cy="0.834" r="0.834" fill="none" stroke="#fff" stroke-miterlimit="10" stroke-width="0.505"/>
          <line id="Line_21" data-name="Line 21" x2="0.889" y2="0.889" transform="translate(1.478 1.364)" fill="none" stroke="#fff" stroke-miterlimit="10" stroke-width="0.505"/>
        </g>
        <path id="Path_247" data-name="Path 247" d="M629.745,111.969h1.87l.9,2.644h3.83l.413-2.086" transform="translate(-554.21 -103.505)" fill="none" stroke="#fff" stroke-linecap="round" stroke-miterlimit="10" stroke-width="1.128"/>
        <ellipse id="Ellipse_19" data-name="Ellipse 19" cx="0.8" cy="0.9" rx="0.8" ry="0.9" transform="translate(79.337 8.169)" fill="#ff4747"/>
        <path id="Path_248" data-name="Path 248" d="M635.576,118.735a.69.69,0,1,1-.69-.69A.69.69,0,0,1,635.576,118.735Z" transform="translate(-556.145 -106.146)" fill="#fff"/>
        <path id="Path_249" data-name="Path 249" d="M640.127,118.735a.691.691,0,1,1-.691-.69A.69.69,0,0,1,640.127,118.735Z" transform="translate(-558.123 -106.146)" fill="#fff"/>
        <g id="Group_66" data-name="Group 66" transform="translate(47.294 47.716)">
          <rect id="Rectangle_91" data-name="Rectangle 91" width="28.24" height="4.271" rx="1.7" transform="translate(0 0.509)" fill="#575c60"/>
          <rect id="Rectangle_92" data-name="Rectangle 92" width="28.24" height="4.272" rx="1.7" fill="#ff4747"/>
        </g>
        <g id="Group_67" data-name="Group 67" transform="translate(60.24 32.623)">
          <path id="Path_250" data-name="Path 250" d="M604.463,154.7l.547,1.109,1.224.178-.886.863.209,1.219-1.094-.575-1.095.575.209-1.219-.885-.863,1.224-.178Z" transform="translate(-602.692 -154.703)" fill="#f5ad49"/>
          <path id="Path_251" data-name="Path 251" d="M611.33,154.7l.547,1.109,1.224.178-.885.863.209,1.219-1.095-.575-1.094.575.209-1.219-.885-.863,1.224-.178Z" transform="translate(-605.677 -154.703)" fill="#f5ad49"/>
          <path id="Path_252" data-name="Path 252" d="M618.2,154.7l.547,1.109,1.224.178-.885.863.209,1.219L618.2,157.5l-1.095.575.209-1.219-.885-.863,1.224-.178Z" transform="translate(-608.662 -154.703)" fill="#f5ad49"/>
          <path id="Path_253" data-name="Path 253" d="M625.064,154.7l.547,1.109,1.224.178-.885.863.209,1.219-1.095-.575-1.094.575.209-1.219-.885-.863,1.224-.178Z" transform="translate(-611.646 -154.703)" fill="#f5ad49"/>
          <path id="Path_254" data-name="Path 254" d="M631.931,154.7l.547,1.109,1.224.178-.886.863.209,1.219-1.094-.575-1.095.575.209-1.219-.885-.863,1.224-.178Z" transform="translate(-614.631 -154.703)" fill="#f5ad49"/>
        </g>
        <g id="Group_73" data-name="Group 73" transform="translate(44.603 39.936)">
          <rect id="Rectangle_93" data-name="Rectangle 93" width="35.068" height="5.304" rx="2.111" fill="#575c60"/>
          <g id="Group_72" data-name="Group 72" transform="translate(7.684 1)">
            <g id="Group_68" data-name="Group 68" transform="translate(15.837)">
              <rect id="Rectangle_94" data-name="Rectangle 94" width="0.626" height="3.303" transform="translate(1.339)" fill="#fff"/>
              <rect id="Rectangle_95" data-name="Rectangle 95" width="3.303" height="0.626" transform="translate(0 1.339)" fill="#fff"/>
              <rect id="Rectangle_96" data-name="Rectangle 96" width="0.626" height="3.303" transform="matrix(0.707, -0.707, 0.707, 0.707, 0.262, 0.705)" fill="#fff"/>
              <rect id="Rectangle_97" data-name="Rectangle 97" width="3.303" height="0.626" transform="translate(0.262 2.598) rotate(-45)" fill="#fff"/>
            </g>
            <g id="Group_69" data-name="Group 69" transform="translate(10.558)">
              <rect id="Rectangle_98" data-name="Rectangle 98" width="0.626" height="3.303" transform="translate(1.339)" fill="#fff"/>
              <rect id="Rectangle_99" data-name="Rectangle 99" width="3.303" height="0.626" transform="translate(0 1.339)" fill="#fff"/>
              <rect id="Rectangle_100" data-name="Rectangle 100" width="0.626" height="3.303" transform="translate(0.262 0.705) rotate(-45.003)" fill="#fff"/>
              <rect id="Rectangle_101" data-name="Rectangle 101" width="3.303" height="0.626" transform="translate(0.262 2.598) rotate(-44.997)" fill="#fff"/>
            </g>
            <g id="Group_70" data-name="Group 70" transform="translate(5.279)">
              <rect id="Rectangle_102" data-name="Rectangle 102" width="0.626" height="3.303" transform="translate(1.339)" fill="#fff"/>
              <rect id="Rectangle_103" data-name="Rectangle 103" width="3.303" height="0.626" transform="translate(0 1.339)" fill="#fff"/>
              <rect id="Rectangle_104" data-name="Rectangle 104" width="0.626" height="3.303" transform="translate(0.262 0.705) rotate(-45)" fill="#fff"/>
              <rect id="Rectangle_105" data-name="Rectangle 105" width="3.303" height="0.626" transform="translate(0.262 2.598) rotate(-45)" fill="#fff"/>
            </g>
            <g id="Group_71" data-name="Group 71">
              <rect id="Rectangle_106" data-name="Rectangle 106" width="0.626" height="3.303" transform="translate(1.339)" fill="#fff"/>
              <rect id="Rectangle_107" data-name="Rectangle 107" width="3.303" height="0.626" transform="translate(0 1.339)" fill="#fff"/>
              <rect id="Rectangle_108" data-name="Rectangle 108" width="0.626" height="3.303" transform="translate(0.262 0.705) rotate(-45.003)" fill="#fff"/>
              <rect id="Rectangle_109" data-name="Rectangle 109" width="3.303" height="0.626" transform="translate(0.262 2.598) rotate(-44.997)" fill="#fff"/>
            </g>
          </g>
        </g>
        <circle id="Ellipse_20" data-name="Ellipse 20" cx="1.148" cy="1.148" r="1.148" transform="translate(5.134 1.652)" fill="#2e353a"/>
        <circle id="Ellipse_21" data-name="Ellipse 21" cx="1.148" cy="1.148" r="1.148" transform="translate(9.746 1.652)" fill="#ff4747"/>
        <circle id="Ellipse_22" data-name="Ellipse 22" cx="1.148" cy="1.148" r="1.148" transform="translate(14.359 1.652)" fill="#fff"/>
        <line id="Line_22" data-name="Line 22" x2="35.068" transform="translate(44.603 19.582)" fill="#575c60" stroke="#45619b" stroke-miterlimit="10" stroke-width="1.5"/>
        <line id="Line_23" data-name="Line 23" x2="35.068" transform="translate(44.603 24.661)" fill="#575c60" stroke="#45619b" stroke-miterlimit="10" stroke-width="1.5"/>
        <line id="Line_24" data-name="Line 24" x2="35.068" transform="translate(44.603 29.739)" fill="#575c60" stroke="#45619b" stroke-miterlimit="10" stroke-width="1.5"/>
        <line id="Line_25" data-name="Line 25" x2="13.226" transform="translate(44.603 34.818)" fill="#575c60" stroke="#45619b" stroke-miterlimit="10" stroke-width="1.5"/>
        <g id="Group_74" data-name="Group 74" transform="translate(9.036 21.316)">
          <path id="Path_255" data-name="Path 255" d="M528.349,154.552l-4.531-.62-4.532.62-5.02-4.6a6.633,6.633,0,0,1-2.145-4.877v-3.493A6.887,6.887,0,0,1,519,134.7h9.635a6.887,6.887,0,0,1,6.88,6.88v3.493a6.631,6.631,0,0,1-2.146,4.877ZM519,138a3.584,3.584,0,0,0-3.58,3.58v3.493a3.324,3.324,0,0,0,1.076,2.445l3.878,3.555,3.444-.471,3.444.471,3.878-3.555a3.324,3.324,0,0,0,1.076-2.445v-3.493a3.584,3.584,0,0,0-3.58-3.58Z" transform="translate(-512.12 -134.701)" fill="#575c60"/>
          <path id="Path_256" data-name="Path 256" d="M543.675,142.23h0a3.572,3.572,0,0,1,1.147,2.623v3.493a3.324,3.324,0,0,1-1.076,2.445l-2.622,2.4,1.31.912,2.03-1.833a5.174,5.174,0,0,0,1.707-3.84v-2.08A4.644,4.644,0,0,0,543.675,142.23Z" transform="translate(-524.727 -137.974)" fill="#bcc0ce"/>
          <path id="Path_257" data-name="Path 257" d="M526.406,154.666a8.33,8.33,0,0,0-5.58,14.515,13.555,13.555,0,0,0,11.16,0,8.33,8.33,0,0,0-5.58-14.515Z" transform="translate(-514.708 -143.379)" fill="#575c60"/>
          <path id="Path_258" data-name="Path 258" d="M534.7,172.281a24.464,24.464,0,0,1-11.757,1.221,20.145,20.145,0,0,1-4.579-1.2,8.2,8.2,0,0,0,.255.965,27,27,0,0,0,4.172,1.027,15.72,15.72,0,0,0,3.548.257,29.614,29.614,0,0,0,8.117-1.333A8.255,8.255,0,0,0,534.7,172.281Z" transform="translate(-514.835 -151.035)" fill="#def6f8"/>
          <path id="Path_259" data-name="Path 259" d="M531.754,155.684a8.336,8.336,0,0,0-10.561,2.188c.811,1.5,3.433,2.08,6.171,1.28C529.609,158.5,531.289,157.1,531.754,155.684Z" transform="translate(-516.064 -143.379)" fill="#9babb8" opacity="0.31"/>
          <path id="Path_260" data-name="Path 260" d="M533.459,176.568a13.458,13.458,0,0,0,5.214-1.2,8.309,8.309,0,0,0,2.75-6.185c0-.094,0-.187-.006-.28C539.283,169.41,534.452,171.142,533.459,176.568Z" transform="translate(-521.395 -149.568)" fill="#19181b" opacity="0.4" style="mix-blend-mode: multiply;isolation: isolate"/>
        </g>
      </g>
    </g>
  </g>
</svg>
