<?xml version="1.0" encoding="utf-8"?>
<!-- Generator: Adobe Illustrator 24.1.0, SVG Export Plug-In . SVG Version: 6.00 Build 0)  -->
<svg version="1.1" id="Layer_1_1_" xmlns="http://www.w3.org/2000/svg" xmlns:xlink="http://www.w3.org/1999/xlink" x="0px" y="0px"
	 viewBox="0 0 512 512" style="enable-background:new 0 0 512 512;" xml:space="preserve">
<style type="text/css">
	.st0{fill:#FFFFFF;}
</style>
<g>
	<g>
		<path class="st0" d="M224,0H74.7C33.5,0,0,33.5,0,74.7v362.7C0,478.5,33.5,512,74.7,512H96c5.9,0,10.7-4.8,10.7-10.7
			s-4.8-10.7-10.7-10.7H74.7c-29.4,0-53.3-23.9-53.3-53.3V74.7c0-29.4,23.9-53.3,53.3-53.3H224c29.4,0,53.3,23.9,53.3,53.3v106.7
			c0,5.9,4.8,10.7,10.7,10.7s10.7-4.8,10.7-10.7V74.7C298.7,33.5,265.2,0,224,0z"/>
	</g>
</g>
<g>
	<g>
		<path class="st0" d="M288,85.3H10.7C4.8,85.3,0,90.1,0,96s4.8,10.7,10.7,10.7H288c5.9,0,10.7-4.8,10.7-10.7S293.9,85.3,288,85.3z"
			/>
	</g>
</g>
<g>
	<g>
		<path class="st0" d="M192,384H10.7C4.8,384,0,388.8,0,394.7s4.8,10.7,10.7,10.7H192c5.9,0,10.7-4.8,10.7-10.7S197.9,384,192,384z"
			/>
	</g>
</g>
<g>
	<g>
		<path class="st0" d="M181.3,42.7h-64c-5.9,0-10.7,4.8-10.7,10.7S111.4,64,117.3,64h64c5.9,0,10.7-4.8,10.7-10.7
			S187.2,42.7,181.3,42.7z"/>
	</g>
</g>
<g>
	<g>
		<path class="st0" d="M224.4,42.7h-0.2c-5.9,0-10.6,4.8-10.6,10.7S218.5,64,224.4,64s10.7-4.8,10.7-10.7S230.3,42.7,224.4,42.7z"/>
	</g>
</g>
<g>
	<g>
		<path class="st0" d="M481.5,282.3l-80.2-88.1c-15.9-15.9-41.7-15.9-57.7,0.1c-5.1,5.1-8.5,11.2-10.3,17.6c-16-12.2-39-11-53.7,3.7
			c-5.1,5.1-8.5,11.2-10.3,17.6c-16-12.2-39-11-53.7,3.7c-5,5-8.4,10.9-10.2,17.2l-37.8-37.8c-15.9-15.9-41.7-15.9-57.7,0.1
			c-15.9,15.9-15.9,41.7,0,57.6L255,419.4l-86.1,13.5c-23.3,3.3-40.8,23.6-40.8,47.1c0,17.6,14.4,32,32,32h201.2
			c31.3,0,60.8-12.2,83-34.4l33.6-33.6c22.1-22.1,34.3-51.6,34.3-82.9C512,332,501.2,304,481.5,282.3z M462.6,429L429,462.5
			c-18.1,18.1-42.2,28.1-67.9,28.1H160c-5.9,0-10.7-4.8-10.7-10.7c0-13,9.7-24.1,22.7-26l107-16.8c4-0.6,7.2-3.4,8.5-7.2
			c1.2-3.8,0.2-8-2.6-10.8L124.8,259.1c-7.6-7.6-7.6-19.9,0.1-27.6c3.8-3.8,8.8-5.7,13.7-5.7c5,0,9.9,1.9,13.7,5.7l106.7,106.7
			c4.2,4.2,10.9,4.2,15.1,0c2.1-2.1,3.1-4.8,3.1-7.6s-1-5.5-3.1-7.5l-43.6-43.6c-7.6-7.6-7.6-19.9,0.1-27.6c7.6-7.6,19.9-7.6,27.5,0
			l43.6,43.6c4.2,4.2,10.9,4.2,15.1,0c2.1-2.1,3.1-4.8,3.1-7.6s-1-5.5-3-7.4l-22.3-22.3c-7.6-7.6-7.6-19.9,0.1-27.6
			c7.6-7.6,19.9-7.6,27.5,0l22.3,22.3c0,0,0,0,0,0l0,0c0,0,0,0,0,0c0,0,0,0,0,0h0c0,0,0,0,0,0c4.2,3.9,10.8,3.9,14.9-0.2
			c4.2-4.2,4.2-10.9,0-15.1l-0.9-0.9c-3.7-3.7-5.7-8.6-5.7-13.7c0-5.2,2-10,5.8-13.8c7.6-7.6,19.9-7.5,27.1-0.4l79.9,87.8
			c16.1,17.7,24.9,40.6,24.9,64.5C490.7,386.8,480.7,410.9,462.6,429z"/>
	</g>
</g>
</svg>
