<?xml version="1.0" encoding="utf-8"?>
<!-- Generator: Adobe Illustrator 24.1.0, SVG Export Plug-In . SVG Version: 6.00 Build 0)  -->
<svg version="1.1" id="Layer_1_1_" xmlns="http://www.w3.org/2000/svg" xmlns:xlink="http://www.w3.org/1999/xlink" x="0px" y="0px"
	 viewBox="0 0 512 512" style="enable-background:new 0 0 512 512;" xml:space="preserve">
<style type="text/css">
	.st0{fill:#FFFFFF;}
</style>
<path class="st0" d="M163.4,87.1c24,0,43.6-19.5,43.6-43.6c0-24-19.5-43.6-43.6-43.6c-24,0-43.6,19.5-43.6,43.6
	C119.8,67.6,139.4,87.1,163.4,87.1z M163.4,20.1c12.9,0,23.5,10.5,23.5,23.5c0,12.9-10.5,23.5-23.5,23.5
	c-12.9,0-23.5-10.5-23.5-23.5C139.9,30.6,150.5,20.1,163.4,20.1z"/>
<path class="st0" d="M282.6,0c-24,0-43.6,19.5-43.6,43.6c0,24,19.5,43.6,43.6,43.6s43.6-19.5,43.6-43.6C326.2,19.5,306.6,0,282.6,0z
	 M282.6,67c-12.9,0-23.5-10.5-23.5-23.5c0-12.9,10.5-23.5,23.5-23.5c12.9,0,23.5,10.5,23.5,23.5C306.1,56.5,295.5,67,282.6,67z"/>
<path class="st0" d="M401.8,87.1c24,0,43.6-19.5,43.6-43.6c0-24-19.5-43.6-43.6-43.6s-43.6,19.5-43.6,43.6
	C358.2,67.6,377.8,87.1,401.8,87.1z M401.8,20.1c12.9,0,23.5,10.5,23.5,23.5c0,12.9-10.5,23.5-23.5,23.5
	c-12.9,0-23.5-10.5-23.5-23.5C378.3,30.6,388.8,20.1,401.8,20.1z"/>
<path class="st0" d="M282.6,103.6c-24,0-43.6,19.5-43.6,43.6s19.5,43.6,43.6,43.6s43.6-19.5,43.6-43.6S306.6,103.6,282.6,103.6z
	 M282.6,170.7c-12.9,0-23.5-10.5-23.5-23.5c0-12.9,10.5-23.5,23.5-23.5c12.9,0,23.5,10.5,23.5,23.5
	C306.1,160.1,295.5,170.7,282.6,170.7z"/>
<path class="st0" d="M401.8,103.6c-24,0-43.6,19.5-43.6,43.6s19.5,43.6,43.6,43.6s43.6-19.5,43.6-43.6S425.8,103.6,401.8,103.6z
	 M401.8,170.7c-12.9,0-23.5-10.5-23.5-23.5c0-12.9,10.5-23.5,23.5-23.5c12.9,0,23.5,10.5,23.5,23.5
	C425.2,160.1,414.7,170.7,401.8,170.7z"/>
<path class="st0" d="M401.8,207.3c-24,0-43.6,19.5-43.6,43.6c0,24,19.5,43.6,43.6,43.6s43.6-19.5,43.6-43.6
	C445.3,226.8,425.8,207.3,401.8,207.3z M401.8,274.3c-12.9,0-23.5-10.5-23.5-23.5s10.5-23.5,23.5-23.5c12.9,0,23.5,10.5,23.5,23.5
	S414.7,274.3,401.8,274.3z"/>
<path class="st0" d="M304.4,408.2l3.8-5.3c6.2-8.5,10-16.2,10-27.9c0-5.6-4.5-10.1-10-10.1c-5.6,0-10.1,4.5-10.1,10.1
	c0,5.9-1.4,9.5-6.2,16.1l-3.8,5.3c-4.5,6.2-6.9,13.5-6.9,21.2v26.9H155.8v-21.5c0-11.7-4.5-22.6-12.8-30.9l-18.4-18.4
	c-7-7-10.8-16.2-10.8-26v-10.3c0-18.7-3.6-37-10.7-54.3L86.6,243c-0.8-1.8-0.6-4,0.5-5.6c1.5-2.3,4.3-3.4,7-2.6
	c8.6,2.6,15.7,8.4,20,16.3l3.7,6.8c5.3,9.9,9.1,20.5,11.1,31.5l1.8,9.8c1,5.1,5.6,8.6,10.8,8.2c5.2-0.5,9.1-4.8,9.1-10V133.7
	c0-2.7,1-5.3,2.9-7.3l0.1-0.1c2-2.1,4.6-3.4,7.5-3.5c2.9-0.1,5.7,0.9,7.8,2.9c2.2,2,3.5,5,3.5,8V263c0,5.6,4.5,10.1,10.1,10.1
	s10.1-4.5,10.1-10.1v-61c0-2.6,1.2-5,3.2-6.7c4.6-3.8,11.3-3.4,15.4,0.9c2.1,2.1,3.2,5,3.2,8v64.7c0,5.6,4.5,10.1,10.1,10.1
	c5.5,0,10-4.5,10-10.1v-39.6c0-3.9,0.9-7.3,2.7-10.4c1.4-2.3,3.6-4,6.2-4.6c2.5-0.6,5.1-0.2,7.2,1.1l0.7,0.5
	c2.7,1.7,4.3,4.6,4.3,7.8v55.7c0,5.6,4.5,10.1,10.1,10.1s10.1-4.5,10.1-10.1v-17.8c0-3.7,1.1-7.2,3.2-10.2c2.5-3.5,6.6-5.4,10.5-4.6
	c1.9,0.4,3.7,1.2,5.2,2.5c2.3,2,3.6,4.9,3.6,8v38.7c0,5.6,4.5,10.1,10.1,10.1c5.5,0,10-4.5,10-10.1v-38.7c0-8.8-3.8-17.1-10.3-23
	c-4.2-3.8-9.4-6.3-14.9-7.3c-5.9-1.1-11.9-0.3-17.3,2v-5.3c0-10.2-5.2-19.5-13.8-24.9l-0.8-0.5c-6.8-4.2-14.8-5.4-22.5-3.5
	c-1.8,0.4-3.5,1-5.2,1.8c-1.3-5.3-4.1-10.2-8-14.3c-8.8-9.1-21.7-11.8-33-7.8v-40.8c0-8.6-3.6-16.9-10-22.8
	c-6.1-5.6-14-8.5-22.3-8.2c-8.3,0.3-15.9,3.9-21.5,10l-0.1,0.1c-5.3,5.7-8.2,13.2-8.2,20.9v105.7c-6.9-11.5-17.7-19.9-30.6-23.8
	c-11.2-3.4-23.5,1.2-29.7,11.1c-4.6,7.2-5.3,16.2-2.1,24l16.5,40.2c6.1,14.9,9.2,30.6,9.2,46.7v10.3c0,15.2,5.9,29.5,16.7,40.3
	l18.4,18.4c4.4,4.4,6.9,10.4,6.9,16.7v21.7h-5.8c-2.7,0-5.2,1.1-7.1,3c-1.9,1.9-2.9,4.4-2.9,7.1l0.1,47.1c0,5.5,4.5,10,10.1,10h0
	l174.4-0.1c2.7,0,5.2-1.1,7.1-3c1.9-1.9,2.9-4.4,2.9-7.1l-0.1-47.1c0-5.5-4.5-10-10.1-10l-2.9,0v-27.2
	C301.4,414.2,302.4,411,304.4,408.2z M140,491.9l0-27l154.3,0l0,27L140,491.9z"/>
<path class="st0" d="M87.7,97.1l15.5,8.9c1.6,0.9,3.3,1.3,5,1.3c3.5,0,6.9-1.8,8.7-5c2.8-4.8,1.1-11-3.7-13.7l-15.5-8.9
	c-4.8-2.8-10.9-1.1-13.7,3.7C81.2,88.1,82.9,94.3,87.7,97.1z"/>
<path class="st0" d="M87.1,149.6c0.7,0,1.3-0.1,2-0.2l17.5-3.5c5.4-1.1,9-6.4,7.9-11.8s-6.4-9-11.8-7.9l-17.5,3.5
	c-5.4,1.1-9,6.4-7.9,11.8C78.2,146.3,82.4,149.6,87.1,149.6z"/>
<path class="st0" d="M317.5,331.4c-2.1-5.1-7.9-7.6-13.1-5.5c-5.1,2.1-7.6,7.9-5.6,13.1l0.1,0.2c1.6,3.9,5.3,6.3,9.3,6.3
	c1.3,0,2.5-0.2,3.8-0.7c5.1-2.1,7.6-7.9,5.6-13.1L317.5,331.4z"/>
</svg>
