<?xml version="1.0" encoding="utf-8"?>
<!-- Generator: Adobe Illustrator 24.1.0, SVG Export Plug-In . SVG Version: 6.00 Build 0)  -->
<svg version="1.1" id="Layer_1_1_" xmlns="http://www.w3.org/2000/svg" xmlns:xlink="http://www.w3.org/1999/xlink" x="0px" y="0px"
	 viewBox="0 0 512 512" style="enable-background:new 0 0 512 512;" xml:space="preserve">
<style type="text/css">
	.st0{fill:#FFFFFF;}
</style>
<path class="st0" d="M238.9,51.2h59.7v68.3c0,4.7,3.8,8.5,8.5,8.5h68.3c4.7,0,8.5-3.8,8.5-8.5V51.2h59.7v85.3h17.1V42.7
	c0-4.7-3.8-8.5-8.5-8.5H8.5C3.8,34.1,0,38,0,42.7v443.7c0,4.7,3.8,8.5,8.5,8.5h264.5v-17.1h-34.1V273.1h34.1V256h-34.1V51.2z
	 M366.9,110.9h-51.2V51.2h51.2V110.9z M93.9,51.2h51.2v59.7H93.9V51.2z M76.8,51.2v68.3c0,4.7,3.8,8.5,8.5,8.5h68.3
	c4.7,0,8.5-3.8,8.5-8.5V51.2h59.7V256H17.1V51.2H76.8z M93.9,273.1h51.2v59.7H93.9V273.1z M221.9,477.9H17.1V273.1h59.7v68.3
	c0,4.7,3.8,8.5,8.5,8.5h68.3c4.7,0,8.5-3.8,8.5-8.5v-68.3h59.7V477.9z"/>
<path class="st0" d="M187.7,221.9h17.1v17.1h-17.1V221.9z"/>
<path class="st0" d="M153.6,221.9h17.1v17.1h-17.1V221.9z"/>
<path class="st0" d="M187.7,443.7h17.1v17.1h-17.1V443.7z"/>
<path class="st0" d="M153.6,443.7h17.1v17.1h-17.1V443.7z"/>
<path class="st0" d="M76.8,0h256v17.1h-256V0z"/>
<path class="st0" d="M349.9,0h17.1v17.1h-17.1V0z"/>
<path class="st0" d="M477.9,153.6H324.3c-18.8,0-34.1,15.3-34.1,34.1v290.1c0,18.8,15.3,34.1,34.1,34.1h153.6
	c18.8,0,34.1-15.3,34.1-34.1V187.7C512,168.9,496.7,153.6,477.9,153.6z M494.9,477.9c0,9.4-7.6,17.1-17.1,17.1H324.3
	c-9.4,0-17.1-7.6-17.1-17.1V187.7c0-9.4,7.6-17.1,17.1-17.1h153.6c9.4,0,17.1,7.6,17.1,17.1V477.9z"/>
<path class="st0" d="M375.5,187.7h17.1v17.1h-17.1V187.7z"/>
<path class="st0" d="M409.6,187.7h17.1v17.1h-17.1V187.7z"/>
<path class="st0" d="M392.5,460.8h17.1v17.1h-17.1V460.8z"/>
<path class="st0" d="M401.1,303.7l-15.4-15.4l-12.1,12.1l21.5,21.5c3.3,3.3,8.7,3.3,12.1,0c0,0,0,0,0,0l68.3-68.3l-12.1-12.1
	L401.1,303.7z"/>
<path class="st0" d="M401.1,358.4c33,0,59.7-26.8,59.7-59.7h-17.1c0,23.6-19.1,42.6-42.7,42.6c-23.6,0-42.6-19.1-42.6-42.7
	c0-23.6,19.1-42.6,42.7-42.6c7.5,0,14.8,2,21.3,5.7l8.5-14.8c-28.6-16.5-65.1-6.7-81.6,21.9c-16.5,28.6-6.7,65.1,21.9,81.6
	C380.3,355.6,390.6,358.4,401.1,358.4L401.1,358.4z"/>
<path class="st0" d="M332.8,384h17.1v17.1h-17.1V384z"/>
<path class="st0" d="M366.9,384h102.4v17.1H366.9V384z"/>
<path class="st0" d="M332.8,418.1h136.5v17.1H332.8V418.1z"/>
</svg>
