<?xml version="1.0" encoding="utf-8"?>
<!-- Generator: Adobe Illustrator 24.1.0, SVG Export Plug-In . SVG Version: 6.00 Build 0)  -->
<svg version="1.1" id="Layer_1_1_" xmlns="http://www.w3.org/2000/svg" xmlns:xlink="http://www.w3.org/1999/xlink" x="0px" y="0px"
	 viewBox="0 0 512 512" style="enable-background:new 0 0 512 512;" xml:space="preserve">
<style type="text/css">
	.st0{fill:#FFFFFF;}
</style>
<path class="st0" d="M253.9,343.5c0,61.8,50.2,112,112,112s112-50.2,112-112c0-40.3-21.4-75.6-53.3-95.4V107.7
	c0-2.8-1.3-5.2-3.4-6.8C315.2-5.1,322,0.9,318.4,0.2C317.1-0.1,330.5,0,68.2,0C49.4,0,34.1,15.3,34.1,34.1v443.7
	c0,18.8,15.3,34.1,34.1,34.1h322.1c18.8,0,34.1-15.3,34.1-34.1c0-4.7-3.8-8.5-8.5-8.5c-4.7,0-8.5,3.8-8.5,8.5
	c0,9.4-7.7,17.1-17.1,17.1H68.2c-9.4,0-17.1-7.7-17.1-17.1V34.1c0-9.4,7.7-17.1,17.1-17.1h240v65.1c0,18.8,15.3,34.1,34.1,34.1h65.2
	v123.2c-13.9-5.6-29-8.4-44.8-8v-60.8c0-14.1-11.5-25.6-25.6-25.6H121.7c-14.1,0-25.6,11.5-25.6,25.6v108.8
	c0,14.1,11.5,25.6,25.6,25.6h112c4.7,0,8.5-3.8,8.5-8.5c0-4.7-3.8-8.5-8.5-8.5h-38.4v-54.4h76.8c4.7,0,8.5-3.8,8.5-8.5v-62.9h56.5
	c4.7,0,8.5,3.8,8.5,8.5v62.6C293.5,242.9,253.9,288.6,253.9,343.5z M342.3,99.2c-9.4,0-17.1-7.7-17.1-17.1v-53l70.1,70.1L342.3,99.2
	L342.3,99.2z M121.7,162.1h56.5v54.4h-65.1v-45.9C113.1,166,117,162.1,121.7,162.1z M178.2,288h-56.5c-4.7,0-8.5-3.8-8.5-8.5v-45.9
	h65.1V288z M263.5,216.5h-68.3v-54.4h68.3V216.5z M460.9,343.5c0,52.3-42.6,94.9-94.9,94.9S271,395.8,271,343.5s42.6-94.9,94.9-94.9
	S460.9,291.1,460.9,343.5z M374.5,364.8v-3.5c0-3.8-2.4-7-6-8.1l-10.2-3.2c-10.7-3.4-18-13.2-18-24.4v-3.5
	c0-11.1,7.1-20.6,17.1-24.1v-3.6c0-4.7,3.8-8.5,8.5-8.5s8.5,3.8,8.5,8.5v3.6c9.9,3.5,17.1,13,17.1,24.1c0,4.7-3.8,8.5-8.5,8.5
	s-8.5-3.8-8.5-8.5c0-4.7-3.8-8.5-8.5-8.5c-4.7,0-8.5,3.8-8.5,8.5v3.5c0,3.8,2.4,7,6,8.1l10.2,3.2c10.7,3.4,18,13.2,18,24.4v3.5
	c0,12.3-8.7,22.6-20.3,25v2.7c0,4.7-3.8,8.5-8.5,8.5s-8.5-3.8-8.5-8.5v-5c-8.2-4.3-13.9-12.9-13.9-22.7c0-4.7,3.8-8.5,8.5-8.5
	s8.5,3.8,8.5,8.5c0,4.7,3.8,8.5,8.5,8.5C370.6,373.3,374.5,369.5,374.5,364.8z M96.1,352c0-4.7,3.8-8.5,8.5-8.5h83.2
	c4.7,0,8.5,3.8,8.5,8.5s-3.8,8.5-8.5,8.5h-83.2C99.9,360.5,96.1,356.7,96.1,352z M96.1,416c0-4.7,3.8-8.5,8.5-8.5h104.5
	c4.7,0,8.5,3.8,8.5,8.5s-3.8,8.5-8.5,8.5H104.6C99.9,424.5,96.1,420.7,96.1,416z"/>
</svg>
