<?xml version="1.0" encoding="utf-8"?>
<!-- Generator: Adobe Illustrator 24.1.0, SVG Export Plug-In . SVG Version: 6.00 Build 0)  -->
<svg version="1.1" id="Layer_1_1_" xmlns="http://www.w3.org/2000/svg" xmlns:xlink="http://www.w3.org/1999/xlink" x="0px" y="0px"
	 viewBox="0 0 512 512" style="enable-background:new 0 0 512 512;" xml:space="preserve">
<style type="text/css">
	.st0{fill:#FFFFFF;}
</style>
<path class="st0" d="M66.1,33h16.5v16.5H66.1V33z"/>
<path class="st0" d="M33,33h16.5v16.5H33V33z"/>
<path class="st0" d="M99.1,33h16.5v16.5H99.1V33z"/>
<path class="st0" d="M82.6,193.8v-7.3c16.9-4.2,32.8-12.1,46.3-23.3l-10.5-12.7c-13.1,10.8-28.8,18.1-45.5,21.2l-6.8,1.2v20.8
	c0,10.5,1.2,20.9,3.6,31.1l16.1-3.8C83.6,212.2,82.6,203,82.6,193.8L82.6,193.8z"/>
<path class="st0" d="M173.7,115.1c-8.1-10.2-20.3-16-33.3-16s-25.1,5.8-33.3,16c-12.9,16.1-32,25.3-52.6,25.3H33v53.4
	c0,61.7,33.6,118.7,88.1,148.8c6,2.8,12.6,4.2,19.2,4.2c6.6,0,13.2-1.5,19.8-4.5c54-29.9,87.6-86.8,87.6-148.5v-53.4h-21.4
	C205.7,140.4,186.5,131.2,173.7,115.1L173.7,115.1z M231.2,193.8c0,55.7-30.3,107.1-78.5,133.8c-7.8,3.6-17.4,3.3-24.1,0.3
	c-48.8-27-79.1-78.4-79.1-134.1v-36.9h4.9c25.6,0,49.5-11.5,65.5-31.5c5-6.2,12.4-9.8,20.4-9.8c8,0,15.4,3.6,20.4,9.8
	c16,20,39.9,31.5,65.5,31.5h4.9V193.8z"/>
<path class="st0" d="M123.9,269.1l-27.2-27.2L85,253.6l38.9,38.9l96.7-96.7l-11.7-11.7L123.9,269.1z"/>
<path class="st0" d="M512,355.1V24.8C512,11.1,500.9,0,487.2,0H24.8C11.1,0,0,11.1,0,24.8v330.3c0,13.7,11.1,24.8,24.8,24.8h218
	c-17.3,13.8-28.1,35.1-28.1,58.1v74H512v-74c0-23-10.8-44.3-28.1-58.1h3.3C500.9,379.9,512,368.8,512,355.1z M24.8,16.5h462.5
	c4.6,0,8.3,3.7,8.3,8.3v24.8H145.2l-16.5,16.5H16.5V24.8C16.5,20.2,20.2,16.5,24.8,16.5L24.8,16.5z M16.5,355.1V82.6h119l16.5-16.5
	h343.4v289c0,4.6-3.7,8.3-8.3,8.3h-40.1l-50.7-14.5V335c11.3-10.5,20.1-23.4,25.8-37.7h7.3c18.2,0,33-14.8,33-33v-56.8
	c0-22.9-14.8-42.8-36.4-49.5c-17.1-21.4-43.4-34.1-70.9-34.1c-50.1,0-90.8,40.8-90.8,90.8v49.5c0,18.2,14.8,33,33,33h7.3
	c5.7,14.3,14.5,27.2,25.8,37.7v13.9l-50.7,14.5H24.8C20.2,363.4,16.5,359.6,16.5,355.1z M363.4,386.2l-16.5-33v-5.6
	c4.2,2.6,8.6,4.9,13.3,6.9l3.3,1.4l3.3-1.4c4.6-2,9.1-4.3,13.3-6.9v5.6L363.4,386.2z M299.6,280.8h-2.3c-9.1,0-16.5-7.4-16.5-16.5
	c0-9.1,7.4-16.5,16.5-16.5v11.4C297.3,266.5,298.1,273.8,299.6,280.8z M429.4,259.2v-11.4c9.1,0,16.5,7.4,16.5,16.5
	c0,9.1-7.4,16.5-16.5,16.5h-2.3C428.6,273.8,429.4,266.5,429.4,259.2z M445.9,235.8c-4.9-2.8-10.5-4.6-16.5-4.6
	c-13.8,0-26.7-5.4-36.5-15.1L379.9,203l-5.8,5.8c-14.4,14.4-33.6,22.4-54,22.4h-22.8c-6,0-11.6,1.8-16.5,4.6v-21.1
	c0-41,33.3-74.3,74.3-74.3c23.3,0,45.5,11.1,59.5,29.7l1.8,2.3l2.8,0.7c15.8,3.9,26.8,18,26.8,34.3L445.9,235.8z M313.8,247.7h6.3
	c22,0,42.9-7.6,59.6-21.6l1.7,1.7c8.9,8.9,19.8,14.9,31.6,17.8v13.5c0,33.7-19.3,64.2-49.5,78.6c-30.2-14.4-49.5-44.9-49.5-78.6
	V247.7z M334.3,364.9l18.6,37.3l-16,12l-5.4-48.4L334.3,364.9z M392.4,364.9l2.7,0.8l-5.4,48.4l-16-12L392.4,364.9z M495.5,438v57.5
	h-33v-82.6h-16.5v82.6H280.8v-82.6h-16.5v82.6h-33V438c0-25.7,17.2-48.5,41.9-55.6l42.3-12.1l8.3,74.4l39.6-29.7l39.6,29.7l8.3-74.4
	l42.3,12.1C478.2,389.4,495.5,412.3,495.5,438L495.5,438z"/>
<path class="st0" d="M355.1,462.5h16.5V479h-16.5V462.5z"/>
<path class="st0" d="M355.1,429.4h16.5v16.5h-16.5V429.4z"/>
<path class="st0" d="M396.4,82.6H479v16.5h-82.6V82.6z"/>
<path class="st0" d="M412.9,115.6H479v16.5h-66.1V115.6z"/>
<path class="st0" d="M33,330.3h16.5v16.5H33V330.3z"/>
<path class="st0" d="M33,297.3h16.5v16.5H33V297.3z"/>
</svg>
