<?xml version="1.0" encoding="utf-8"?>
<!-- Generator: Adobe Illustrator 24.1.0, SVG Export Plug-In . SVG Version: 6.00 Build 0)  -->
<svg version="1.1" id="Layer_1_1_" xmlns="http://www.w3.org/2000/svg" xmlns:xlink="http://www.w3.org/1999/xlink" x="0px" y="0px"
	 viewBox="0 0 512 512" style="enable-background:new 0 0 512 512;" xml:space="preserve">
<style type="text/css">
	.st0{fill:#FFFFFF;}
</style>
<path class="st0" d="M384,512c-1.4,0-2.8-0.3-4.1-0.8C374.8,509,256,457.7,256,352.8v-89.2c0-4.6,2.9-8.6,7.3-10.1l117.3-39.6
	c2.2-0.7,4.6-0.7,6.8,0l117.3,39.6c4.3,1.5,7.3,5.5,7.3,10.1v89.2c0,104.9-118.8,156.2-123.9,158.4C386.8,511.7,385.4,512,384,512
	L384,512z M277.3,271.3v81.5c0,80.7,86.5,127.1,106.7,136.8c20.1-9.7,106.7-56.3,106.7-136.8v-81.5l-106.7-36L277.3,271.3z"/>
<path class="st0" d="M373.3,405.3c-0.2,0-0.4,0-0.6,0c-3.1-0.2-5.8-1.6-7.7-4L322.3,348c-3.7-4.6-2.9-11.3,1.7-15
	c4.6-3.6,11.3-2.9,15,1.7l35.2,44l66.2-66.2c4.2-4.2,10.9-4.2,15.1,0c4.2,4.2,4.2,10.9,0,15.1l-74.7,74.7
	C378.9,404.2,376.1,405.3,373.3,405.3L373.3,405.3z"/>
<path class="st0" d="M394.7,170.7h-320C33.5,170.7,0,137.2,0,96s33.5-74.7,74.7-74.7h320c41.2,0,74.7,33.5,74.7,74.7
	S435.8,170.7,394.7,170.7z M74.7,42.7c-29.4,0-53.3,23.9-53.3,53.3s23.9,53.3,53.3,53.3h320c29.4,0,53.3-23.9,53.3-53.3
	s-23.9-53.3-53.3-53.3H74.7z"/>
<path class="st0" d="M96,128c-17.6,0-32-14.4-32-32s14.4-32,32-32s32,14.4,32,32S113.6,128,96,128z M96,85.3
	c-5.9,0-10.7,4.8-10.7,10.7s4.8,10.7,10.7,10.7s10.7-4.8,10.7-10.7S101.9,85.3,96,85.3z"/>
<path class="st0" d="M202.7,128c-17.6,0-32-14.4-32-32s14.4-32,32-32s32,14.4,32,32S220.3,128,202.7,128z M202.7,85.3
	c-5.9,0-10.7,4.8-10.7,10.7s4.8,10.7,10.7,10.7s10.7-4.8,10.7-10.7S208.5,85.3,202.7,85.3z"/>
<path class="st0" d="M202.7,298.7h-128C33.5,298.7,0,265.2,0,224c0-19.9,7.8-38.7,21.9-52.8c14.1-14.1,32.9-21.9,52.8-21.9h320
	c16.7,0,32.4,5.4,45.4,15.5c4.7,3.6,5.5,10.3,1.9,15c-3.6,4.6-10.3,5.5-15,1.9c-9.2-7.2-20.4-11-32.3-11h-320
	c-14.2,0-27.6,5.6-37.7,15.6S21.3,209.8,21.3,224c0,29.4,23.9,53.3,53.3,53.3h128c5.9,0,10.7,4.8,10.7,10.7S208.6,298.7,202.7,298.7
	z"/>
<path class="st0" d="M96,256c-17.6,0-32-14.4-32-32s14.4-32,32-32s32,14.4,32,32S113.6,256,96,256z M96,213.3
	c-5.9,0-10.7,4.8-10.7,10.7c0,5.9,4.8,10.7,10.7,10.7s10.7-4.8,10.7-10.7C106.7,218.1,101.9,213.3,96,213.3z"/>
<path class="st0" d="M202.7,256c-17.6,0-32-14.4-32-32s14.4-32,32-32s32,14.4,32,32S220.3,256,202.7,256z M202.7,213.3
	c-5.9,0-10.7,4.8-10.7,10.7c0,5.9,4.8,10.7,10.7,10.7s10.7-4.8,10.7-10.7C213.3,218.1,208.5,213.3,202.7,213.3z"/>
<path class="st0" d="M202.7,426.7h-128C33.5,426.7,0,393.2,0,352c0-19.9,7.8-38.7,21.9-52.8s32.9-21.9,52.8-21.9h128
	c5.9,0,10.7,4.8,10.7,10.7s-4.8,10.7-10.7,10.7h-128c-14.2,0-27.6,5.6-37.7,15.6S21.3,337.8,21.3,352c0,29.4,23.9,53.3,53.3,53.3
	h128c5.9,0,10.7,4.8,10.7,10.7C213.3,421.9,208.6,426.7,202.7,426.7z"/>
<path class="st0" d="M96,384c-17.6,0-32-14.4-32-32c0-17.6,14.4-32,32-32s32,14.4,32,32C128,369.6,113.6,384,96,384z M96,341.3
	c-5.9,0-10.7,4.8-10.7,10.7c0,5.9,4.8,10.7,10.7,10.7s10.7-4.8,10.7-10.7C106.7,346.1,101.9,341.3,96,341.3z"/>
<path class="st0" d="M202.7,384c-17.6,0-32-14.4-32-32c0-17.6,14.4-32,32-32s32,14.4,32,32C234.7,369.6,220.3,384,202.7,384z
	 M202.7,341.3c-5.9,0-10.7,4.8-10.7,10.7c0,5.9,4.8,10.7,10.7,10.7s10.7-4.8,10.7-10.7C213.3,346.1,208.5,341.3,202.7,341.3z"/>
</svg>
