<?xml version="1.0" encoding="utf-8"?>
<!-- Generator: Adobe Illustrator 24.1.0, SVG Export Plug-In . SVG Version: 6.00 Build 0)  -->
<svg version="1.1" id="Layer_1_1_" xmlns="http://www.w3.org/2000/svg" xmlns:xlink="http://www.w3.org/1999/xlink" x="0px" y="0px"
	 viewBox="0 0 512 512" style="enable-background:new 0 0 512 512;" xml:space="preserve">
<style type="text/css">
	.st0{fill:#FFFFFF;}
</style>
<g>
	<path class="st0" d="M256,363.4c-41,0-74.3,33.3-74.3,74.3S215,512,256,512s74.3-33.3,74.3-74.3S297,363.4,256,363.4z M224.4,486
		c4.1-13.7,16.9-23.6,31.6-23.6s27.4,9.9,31.6,23.6c-9.1,5.9-19.9,9.4-31.6,9.4C244.4,495.5,233.5,492,224.4,486L224.4,486z
		 M239.5,429.4c0-9.1,7.4-16.5,16.5-16.5c9.1,0,16.5,7.4,16.5,16.5c0,9.1-7.4,16.5-16.5,16.5C246.9,445.9,239.5,438.5,239.5,429.4z
		 M300.6,474.4c-4.5-9.4-11.8-17.2-20.8-22.2c5.7-5.9,9.2-13.9,9.2-22.8c0-18.2-14.8-33-33-33s-33,14.8-33,33
		c0,8.9,3.5,16.9,9.2,22.8c-9,5-16.3,12.7-20.8,22.2c-8.2-10-13.2-22.8-13.2-36.7c0-31.9,25.9-57.8,57.8-57.8s57.8,25.9,57.8,57.8
		C313.8,451.6,308.9,464.4,300.6,474.4L300.6,474.4z"/>
	<path class="st0" d="M256,0c-41,0-74.3,33.3-74.3,74.3c0,9.6,1.9,18.8,5.2,27.2c-4.3-1.5-8.7-2.5-13.5-2.5
		c-13.7,0-24.8,11.1-24.8,24.8v20.4c0,15.1-8,29.3-21,37c-12.2,7.3-21.4,18.8-25.9,32.3l-0.2,0.6L0,205.7v141.1h256
		c13.7,0,24.8-11.1,24.8-24.8c0-3.3-0.7-6.4-1.8-9.2c10.5-2.9,18.3-12.4,18.3-23.8c0-6.4-2.5-12.1-6.4-16.5c4-4.4,6.4-10.1,6.4-16.5
		s-2.5-12.1-6.4-16.5c4-4.4,6.4-10.1,6.4-16.5c0-13.7-11.1-24.8-24.8-24.8h-41.3c-9.1,0-16.5-7.4-16.5-16.5v-41.3
		c0-1.6-0.3-3.1-0.5-4.6c11.9,8.1,26.3,12.9,41.8,12.9c41,0,74.3-33.3,74.3-74.3S297,0,256,0z M99.1,330.3H16.5V223.7l82.6,6.9
		V330.3z M231.2,214.7h41.3c4.6,0,8.2,3.7,8.2,8.3s-3.7,8.3-8.3,8.3h-57.8v16.5h57.8c4.6,0,8.3,3.7,8.3,8.3s-3.7,8.3-8.3,8.3h-57.8
		v16.5h57.8c4.6,0,8.3,3.7,8.3,8.3s-3.7,8.3-8.3,8.3h-57.8v16.5H256c4.6,0,8.3,3.7,8.3,8.3s-3.7,8.3-8.3,8.3H115.6v-106l1.8-5.5
		c3.3-9.8,9.9-18.1,18.7-23.4c17.9-10.7,29-30.3,29-51.2v-20.4c0-4.6,3.7-8.3,8.3-8.3c13.7,0,24.8,11.1,24.8,24.8v41.3
		C198.2,199.9,213,214.7,231.2,214.7z M256,132.1c-31.9,0-57.8-25.9-57.8-57.8s25.9-57.8,57.8-57.8s57.8,25.9,57.8,57.8
		S287.9,132.1,256,132.1z"/>
	<path class="st0" d="M437.7,181.7c-41,0-74.3,33.3-74.3,74.3s33.3,74.3,74.3,74.3S512,297,512,256S478.7,181.7,437.7,181.7z
		 M437.7,313.8c-31.9,0-57.8-25.9-57.8-57.8s25.9-57.8,57.8-57.8s57.8,25.9,57.8,57.8S469.5,313.8,437.7,313.8z"/>
	<path class="st0" d="M462.5,231.2v33h-16.5v-49.5h-16.5v49.5h-16.5v-16.5h-16.5v33H479v-49.5H462.5z"/>
	<path class="st0" d="M247.7,66.1h16.5v16.5h-16.5V66.1z"/>
	<path class="st0" d="M280.8,66.1h16.5v16.5h-16.5V66.1z"/>
	<path class="st0" d="M214.7,66.1h16.5v16.5h-16.5V66.1z"/>
	<path class="st0" d="M430.7,144.8l11,17.6l12.3-61.6l-16.2-3.2l-4.4,22.2c-21.3-28.2-48.1-49.4-83.1-65.7l-7,15
		C381.7,86.8,409.5,110.9,430.7,144.8z"/>
	<path class="st0" d="M53.9,161.7l15,7c17.9-38.4,42.1-66.1,75.9-87.3l17.6-11L100.7,58l-3.2,16.2l22.2,4.4
		C91.4,99.9,70.2,126.7,53.9,161.7z"/>
	<path class="st0" d="M81.3,367.2l-11-17.6L58,411.3l16.2,3.2l4.4-22.2c21.3,28.2,48.1,49.4,83.1,65.7l7-15
		C130.3,425.2,102.5,401.1,81.3,367.2z"/>
	<path class="st0" d="M458.1,350.3l-15-7c-17.9,38.4-42.1,66.1-75.9,87.3l-17.6,11l61.6,12.3l3.2-16.2l-22.2-4.4
		C420.6,412.1,441.8,385.3,458.1,350.3L458.1,350.3z"/>
</g>
</svg>
