<?xml version="1.0" encoding="utf-8"?>
<!-- Generator: Adobe Illustrator 24.1.0, SVG Export Plug-In . SVG Version: 6.00 Build 0)  -->
<svg version="1.1" id="Layer_1_1_" xmlns="http://www.w3.org/2000/svg" xmlns:xlink="http://www.w3.org/1999/xlink" x="0px" y="0px"
	 viewBox="0 0 512 512" style="enable-background:new 0 0 512 512;" xml:space="preserve">
<style type="text/css">
	.st0{fill:#FFFFFF;}
</style>
<path class="st0" d="M504.6,316.9l-21.3-5c-1.1-5.5-2.6-10.8-4.3-16.1l15.9-14.9c2.7-2.5,3.4-6.4,1.9-9.7
	c-4.6-10.3-10.4-20.1-17-29.4c-2.1-3-5.9-4.2-9.4-3.2l-20.7,6.3c-3.7-4.2-7.7-8.2-11.9-11.9l6.3-20.7c1.1-3.5-0.2-7.3-3.2-9.4
	c-4.6-3.3-9.3-6.4-14.2-9.2v-151C426.7,19.1,407.5,0,384,0H42.7C19.1,0,0,19.1,0,42.7v221.9c0,23.5,19.1,42.7,42.7,42.7h90.2
	L105,384H59.7c-4.7,0-8.5,3.8-8.5,8.5c0,23.5,19.1,42.7,42.7,42.7h105.3c1.2,1.9,2.4,3.9,3.7,5.7c2.1,3,5.9,4.2,9.4,3.2l20.7-6.3
	c3.7,4.2,7.7,8.2,11.9,11.9l-6.3,20.7c-1.1,3.5,0.2,7.3,3.2,9.4c9.2,6.6,19.1,12.4,29.4,17c3.3,1.5,7.2,0.7,9.7-1.9l14.9-15.9
	c5.3,1.7,10.7,3.2,16.1,4.3l5,21.4c0.8,3.6,3.8,6.2,7.5,6.6c5.8,0.6,11.5,0.9,16.9,0.9s11.2-0.3,17-0.9c3.6-0.4,6.6-3,7.5-6.6
	l5-21.4c5.5-1.1,10.9-2.6,16.1-4.3l14.9,15.9c2.5,2.7,6.4,3.5,9.7,1.9c10.2-4.6,20.1-10.4,29.4-17c3-2.1,4.2-5.9,3.2-9.4l-6.3-20.7
	c4.2-3.7,8.2-7.7,11.9-11.9l20.7,6.3c3.5,1.1,7.3-0.2,9.4-3.2c6.6-9.2,12.4-19.1,17-29.4c1.5-3.3,0.7-7.2-1.9-9.7l-15.9-14.9
	c1.7-5.3,3.2-10.7,4.3-16.1l21.3-5c3.6-0.8,6.2-3.8,6.6-7.5c0.6-5.7,0.8-11.4,0.8-16.9s-0.3-11.2-0.9-17
	C510.8,320.7,508.2,317.7,504.6,316.9L504.6,316.9z M42.7,17.1H384c14.1,0,25.6,11.5,25.6,25.6v142.7c-2.8-0.5-5.8,0.3-7.8,2.5
	l-14.9,15.9c-5.3-1.7-10.7-3.2-16.1-4.3l-5-21.4c-0.8-3.6-3.8-6.2-7.5-6.6c-11.5-1.1-22.4-1.1-33.9,0c-3.6,0.4-6.6,3-7.5,6.6
	l-5,21.4c-5.5,1.1-10.9,2.6-16.1,4.3l-14.9-15.9c-2.5-2.7-6.4-3.4-9.7-1.9c-10.2,4.6-20.1,10.4-29.4,17c-3,2.1-4.2,5.9-3.2,9.4
	l2.9,9.6H68.3V119.5h85.3v-17.1H68.3V51.2h290.1v102.4h17.1V42.7c0-4.7-3.8-8.5-8.5-8.5H59.7c-4.7,0-8.5,3.8-8.5,8.5v179.2H17.1
	V42.7C17.1,28.6,28.6,17.1,42.7,17.1L42.7,17.1z M238.9,238.9c-2,2-4.1,3.8-5.9,5.9l-19.5-5.9H238.9z M17.1,264.5v-25.6h189.5
	c-1.4,0.6-2.7,1.5-3.7,2.8c-6.6,9.2-12.4,19.1-17,29.4c-1.5,3.3-0.7,7.2,1.9,9.7l9.9,9.3H42.7C28.6,290.1,17.1,278.6,17.1,264.5
	L17.1,264.5z M151,307.2h49.5c-0.4,1.6-0.8,3.1-1.1,4.7l-21.3,5c-3.6,0.8-6.2,3.8-6.6,7.5c-0.6,5.8-0.9,11.5-0.9,17s0.3,11.2,0.9,17
	c0.4,3.6,3,6.6,6.6,7.5l21.3,5c0.9,4.5,2.2,8.9,3.5,13.3h-79.8L151,307.2z M93.9,418.1c-11.1,0-20.6-7.1-24.1-17.1h118.9l-0.8,0.7
	c-2.7,2.5-3.4,6.4-1.9,9.7c1,2.2,2.3,4.4,3.4,6.6L93.9,418.1z M494.6,350.6l-20.7,4.8c-3.4,0.8-5.9,3.5-6.5,6.9
	c-1.3,8.2-3.5,16.2-6.4,24c-1.2,3.2-0.4,6.9,2.2,9.2l15.4,14.4c-2.7,5.5-5.8,10.8-9.2,16l-20.1-6.1c-3.3-1-6.9,0.1-9.1,2.7
	c-5.3,6.4-11.2,12.4-17.7,17.7c-2.7,2.2-3.7,5.8-2.7,9.1l6.1,20.1c-5.2,3.4-10.5,6.5-16,9.3l-14.4-15.4c-2.4-2.5-6-3.4-9.2-2.2
	c-7.7,2.9-15.8,5.1-24,6.4c-3.4,0.6-6.1,3.1-6.9,6.5l-4.8,20.7c-6.3,0.4-12.2,0.4-18.5,0l-4.8-20.7c-0.8-3.4-3.5-5.9-6.9-6.5
	c-8.2-1.4-16.3-3.5-24-6.4c-3.2-1.2-6.9-0.4-9.2,2.2l-14.4,15.4c-5.5-2.7-10.8-5.8-16-9.3l6.1-20.1c1-3.3-0.1-6.9-2.7-9.1
	c-6.4-5.3-12.4-11.2-17.7-17.7c-2.2-2.7-5.8-3.7-9.1-2.7l-20.1,6.1c-3.4-5.1-6.5-10.5-9.3-16l15.4-14.4c2.5-2.4,3.4-6,2.2-9.2
	c-2.9-7.8-5.1-15.8-6.4-24c-0.6-3.4-3.1-6.1-6.5-6.9l-20.7-4.8c-0.2-3.1-0.3-6.2-0.3-9.2s0.1-6.1,0.3-9.2l20.7-4.8
	c3.4-0.8,5.9-3.5,6.5-6.9c1.3-8.2,3.5-16.2,6.4-24c1.2-3.2,0.4-6.9-2.2-9.2l-15.4-14.4c2.7-5.5,5.8-10.8,9.2-16l20.1,6.1
	c3.3,1,6.9-0.1,9.1-2.7c5.3-6.4,11.2-12.4,17.7-17.7c2.7-2.2,3.7-5.8,2.7-9.1l-6.1-20.1c5.2-3.4,10.5-6.5,16-9.3l14.4,15.4
	c2.3,2.5,6,3.4,9.2,2.2c7.7-2.9,15.8-5.1,24-6.4c3.4-0.6,6.1-3.1,6.9-6.5l4.8-20.7c6.3-0.4,12.2-0.4,18.5,0l4.8,20.7
	c0.8,3.4,3.5,5.9,6.9,6.5c8.2,1.4,16.3,3.5,24,6.4c3.2,1.2,6.9,0.4,9.2-2.2L410,204c5.5,2.7,10.8,5.8,16,9.3l-6.1,20.1
	c-1,3.3,0.1,6.9,2.7,9.1c6.4,5.3,12.4,11.2,17.7,17.7c2.2,2.7,5.8,3.8,9.1,2.7l20.1-6.1c3.4,5.1,6.5,10.5,9.3,16l-15.4,14.4
	c-2.5,2.4-3.4,6-2.2,9.2c2.9,7.8,5.1,15.8,6.4,24c0.6,3.4,3.1,6.1,6.5,6.9l20.7,4.8c0.2,3.1,0.3,6.2,0.3,9.2
	S494.8,347.4,494.6,350.6L494.6,350.6z"/>
<path class="st0" d="M401.1,341.3c0-32.9-26.8-59.7-59.7-59.7s-59.7,26.8-59.7,59.7s26.8,59.7,59.7,59.7S401.1,374.3,401.1,341.3z
	 M341.3,384c-23.5,0-42.7-19.1-42.7-42.7s19.1-42.7,42.7-42.7s42.7,19.1,42.7,42.7S364.9,384,341.3,384z"/>
<path class="st0" d="M272.2,291.3l-13.8-10c-3.6,4.9-6.7,10.3-9.4,15.8l15.4,7.4C266.5,299.9,269.2,295.5,272.2,291.3z"/>
<path class="st0" d="M337.2,256.1l-0.8-17c-6.1,0.3-12.2,1.1-18.2,2.5l3.8,16.6C327.1,257,332.2,256.3,337.2,256.1z"/>
<path class="st0" d="M404.9,261.1l-10.6,13.4c4,3.2,7.7,6.7,11.1,10.5l12.8-11.3C414.2,269.1,409.7,264.9,404.9,261.1L404.9,261.1z"
	/>
<path class="st0" d="M259.1,364.2l-16.5,4.5c1.6,5.9,3.8,11.6,6.5,17.2l15.4-7.4C262.3,373.9,260.5,369.1,259.1,364.2L259.1,364.2z"
	/>
<path class="st0" d="M300.7,266.3l-8.1-15c-5.4,2.9-10.5,6.3-15.3,10.2l10.7,13.3C291.9,271.5,296.2,268.7,300.7,266.3L300.7,266.3z
	"/>
<path class="st0" d="M425.3,356.6l16.8,3c1.1-6,1.6-12.1,1.6-18.3V341l-17.1,0.4C426.7,346.5,426.2,351.6,425.3,356.6z"/>
<path class="st0" d="M345.3,426.6l0.8,17c6.1-0.3,12.2-1.1,18.2-2.5l-3.8-16.6C355.5,425.7,350.4,426.4,345.3,426.6L345.3,426.6z"/>
<path class="st0" d="M410.4,391.5l13.8,10c3.6-4.9,6.8-10.2,9.4-15.8l-15.4-7.4C416,382.9,413.4,387.4,410.4,391.5L410.4,391.5z"/>
<path class="st0" d="M423.5,318.3l16.5-4.6c-1.6-5.9-3.8-11.7-6.5-17.2l-15.3,7.5C420.3,308.6,422.2,313.4,423.5,318.3z"/>
<path class="st0" d="M381.8,416.5l8.1,15c5.4-2.9,10.5-6.3,15.3-10.1L394.6,408C390.6,411.2,386.3,414.1,381.8,416.5L381.8,416.5z"
	/>
<path class="st0" d="M301.2,435.6c5.6,2.4,11.5,4.3,17.5,5.6l3.7-16.6c-5-1.1-9.8-2.7-14.5-4.7L301.2,435.6z"/>
<path class="st0" d="M277.2,397.6l-12.8,11.2c4,4.6,8.5,8.9,13.3,12.7l10.6-13.4C284.2,405,280.5,401.4,277.2,397.6L277.2,397.6z"/>
<path class="st0" d="M381.3,247c-5.6-2.4-11.5-4.3-17.5-5.6l-3.7,16.6c5,1.1,9.9,2.7,14.5,4.7L381.3,247z"/>
<path class="st0" d="M257.3,326.3l-16.8-3c-1.1,5.9-1.6,12-1.6,18.1v0.2l17.1-0.2C256,336.3,256.5,331.2,257.3,326.3z"/>
<path class="st0" d="M304.7,79.3l-12.1,12.1l19.6,19.6H204.8c-23.5,0-42.7,19.1-42.7,42.7v51.2h17.1v-51.2
	c0-14.1,11.5-25.6,25.6-25.6h107.4l-19.6,19.6l12.1,12.1l34.1-34.1c3.3-3.3,3.3-8.7,0-12.1L304.7,79.3z"/>
<path class="st0" d="M85.3,68.3h17.1v17.1H85.3V68.3z"/>
<path class="st0" d="M119.5,68.3h17.1v17.1h-17.1V68.3z"/>
<path class="st0" d="M153.6,68.3h17.1v17.1h-17.1V68.3z"/>
</svg>
