<?xml version="1.0" encoding="utf-8"?>
<!-- Generator: Adobe Illustrator 24.1.0, SVG Export Plug-In . SVG Version: 6.00 Build 0)  -->
<svg version="1.1" id="Layer_1_1_" xmlns="http://www.w3.org/2000/svg" xmlns:xlink="http://www.w3.org/1999/xlink" x="0px" y="0px"
	 viewBox="0 0 512 512" style="enable-background:new 0 0 512 512;" xml:space="preserve">
<style type="text/css">
	.st0{fill:#FFFFFF;}
</style>
<g>
	<g>
		<g>
			<path class="st0" d="M392,108.2c-0.1-0.3-0.2-0.5-0.3-0.8c-0.4-0.9-1-1.8-1.7-2.5L287.6,2.5c-0.7-0.7-1.6-1.3-2.5-1.7
				c-0.3-0.1-0.5-0.2-0.8-0.3c-0.7-0.3-1.5-0.4-2.2-0.4c-0.1,0-0.3-0.1-0.5-0.1h-256c-4.7,0-8.5,3.8-8.5,8.5v494.9
				c0,4.7,3.8,8.5,8.5,8.5H384c4.7,0,8.5-3.8,8.5-8.5V110.9c0-0.2-0.1-0.3-0.1-0.5C392.4,109.6,392.2,108.9,392,108.2z M290.1,29.1
				l73.3,73.3h-64.7c-4.7,0-8.5-3.8-8.5-8.5V29.1z M375.5,494.9H34.1V17.1h238.9v76.8c0,14.1,11.5,25.6,25.6,25.6h76.8V494.9z"/>
			<path class="st0" d="M284.1,164.6l-13.2,13.2c-18.4-15.7-41.9-24.3-66.1-24.3c-24.2,0-47.6,8.6-66.1,24.3l-4.7-4.7
				c-1.6-1.6-3.8-2.5-6-2.5h-25.6v17.1h22.1l2.2,2.2c-36.6,43.1-31.2,107.8,11.9,144.3s107.8,31.2,144.3-11.9
				c32.4-38.2,32.4-94.2,0-132.4l10.7-10.7h13.5v-17.1h-17.1C287.9,162.1,285.7,163,284.1,164.6z M138.8,310.1
				c-12.5-15.3-19.3-34.4-19.3-54.1c0-19.7,6.8-38.8,19.3-54l17.3,17.3l12.1-12.1L150.8,190c12.9-10.6,28.8-17.2,45.4-18.9V256
				c0,2.3,0.9,4.4,2.5,6l60,60C222.3,351.9,168.6,346.5,138.8,310.1z M290.1,256c0,19.7-6.8,38.8-19.3,54l-57.5-57.5v-81.4
				c16.7,1.7,32.5,8.2,45.4,18.9l-17.3,17.3l12.1,12.1l17.3-17.3C283.3,217.2,290.1,236.3,290.1,256z"/>
			<rect x="68.3" y="51.2" class="st0" width="17.1" height="17.1"/>
			<rect x="102.4" y="51.2" class="st0" width="136.5" height="17.1"/>
			<rect x="68.3" y="85.3" class="st0" width="170.7" height="17.1"/>
			<rect x="51.2" y="153.6" class="st0" width="34.1" height="17.1"/>
			<rect x="51.2" y="187.7" class="st0" width="34.1" height="17.1"/>
			<rect x="324.3" y="153.6" class="st0" width="34.1" height="17.1"/>
			<rect x="324.3" y="187.7" class="st0" width="34.1" height="17.1"/>
			<rect x="68.3" y="384" class="st0" width="34.1" height="17.1"/>
			<rect x="119.5" y="384" class="st0" width="85.3" height="17.1"/>
			<rect x="221.9" y="384" class="st0" width="102.4" height="17.1"/>
			<rect x="68.3" y="426.7" class="st0" width="204.8" height="17.1"/>
			<rect x="290.1" y="426.7" class="st0" width="34.1" height="17.1"/>
			<path class="st0" d="M452.3,85.3c-23.6,0-42.6,19.1-42.7,42.7v281.6c0,1.9,0.7,3.8,1.9,5.3l34.1,42.7c2.9,3.7,8.3,4.3,12,1.3
				c0.5-0.4,0.9-0.8,1.3-1.3l34.1-42.7c1.2-1.5,1.9-3.4,1.9-5.3V128C494.9,104.4,475.8,85.4,452.3,85.3z M452.3,438.6l-16.4-20.5
				h32.8L452.3,438.6z M477.9,401.1h-17.1V187.7h-17.1v213.3h-17.1V170.7h51.2V401.1z M477.9,153.6h-51.2V128
				c0-14.1,11.5-25.6,25.6-25.6s25.6,11.5,25.6,25.6V153.6z"/>
		</g>
	</g>
</g>
</svg>
