<?xml version="1.0" encoding="utf-8"?>
<!-- Generator: Adobe Illustrator 24.1.0, SVG Export Plug-In . SVG Version: 6.00 Build 0)  -->
<svg version="1.1" id="Layer_1" xmlns="http://www.w3.org/2000/svg" xmlns:xlink="http://www.w3.org/1999/xlink" x="0px" y="0px"
	 viewBox="0 0 100 100" style="enable-background:new 0 0 100 100;" xml:space="preserve">
<style type="text/css">
	.st0{fill:#E1EDFF;}
	.st1{fill:url(#SVGID_1_);}
	.st2{fill:#1D1D1B;}
	.st3{fill:#FFFFFF;}
</style>
<path class="st0" d="M84.7,100H15.3C6.9,100,0,93.1,0,84.7V15.3C0,6.9,6.9,0,15.3,0h69.3C93.1,0,100,6.9,100,15.3v69.3
	C100,93.1,93.1,100,84.7,100z"/>
<linearGradient id="SVGID_1_" gradientUnits="userSpaceOnUse" x1="49.5345" y1="1047.7844" x2="94.5343" y2="1018.3751" gradientTransform="matrix(1 0 0 1 0 -982.7244)">
	<stop  offset="0" style="stop-color:#5C5DA6"/>
	<stop  offset="1" style="stop-color:#4972B7"/>
</linearGradient>
<path class="st1" d="M86.7,62.3l-32.4-3.7c-1.9-0.1-3.3-1.8-3.3-3.7V43.5c0-1.9,1.5-3.6,3.4-3.7l35.3-3.1c2.4-0.1,4.3,1.9,4,4.3
	l-3,18.2C90.5,61.1,88.8,62.6,86.7,62.3z"/>
<g>
	<g>
		<path class="st2" d="M19.1,55.7l-1.9-10.9l-4.6,10.4h-0.3L7.6,44.9L5.7,55.7H4.8L7,43.2h0.7l4.6,10.3L17,43.2h0.9L20,55.7
			C20,55.7,19.1,55.7,19.1,55.7z"/>
		<path class="st2" d="M21.7,50.8c0-2.8,2.2-5.1,5.1-5.1s5.1,2.1,5.1,5.1c0,2.8-2.1,5.1-5.1,5.1C23.9,55.9,21.7,53.8,21.7,50.8z
			 M30.9,50.8c0-2.4-1.8-4.2-4.2-4.2s-4.2,1.8-4.2,4.2c0,2.4,1.8,4.2,4.2,4.2S30.9,53.2,30.9,50.8z"/>
		<path class="st2" d="M44.3,50.8c0,2.8-2.1,5.1-4.9,5.1c-1.8,0-3.3-0.9-4.2-2.2l-0.1,2.1h-0.7V42.6h0.9V48c0.9-1.3,2.4-2.1,4.2-2.1
			C42.2,45.9,44.3,48,44.3,50.8z M43.4,50.8c0-2.4-1.8-4.2-4-4.2c-2.4,0-4.2,1.8-4.2,4.2c0,2.4,1.8,4.2,4.2,4.2
			C41.6,55,43.4,53.4,43.4,50.8z"/>
		<path class="st2" d="M46.7,42.8h1v1.3h-1V42.8z M46.9,46.1h0.9v9.7h-0.9V46.1z"/>
	</g>
</g>
<g>
	<path class="st3" d="M63.1,47.5c0,2.5-1.9,4.3-4.5,4.3h-2.1v3.9h-2.7V43.2h4.8C61.3,43.2,63.1,45,63.1,47.5z M60.4,47.5
		c0-1-0.7-1.8-1.8-1.8h-1.9v3.6h1.9C59.7,49.3,60.4,48.6,60.4,47.5z"/>
	<path class="st3" d="M64.3,49.5c0-3.7,2.8-6.6,6.7-6.6c3.9,0,6.7,2.8,6.7,6.6c0,3.7-3,6.6-6.7,6.6C67.1,56,64.3,53.2,64.3,49.5z
		 M74.9,49.5c0-2.2-1.6-4-3.9-4c-2.2,0-3.9,1.8-3.9,4c0,2.2,1.6,4,3.9,4C73.2,53.4,74.9,51.7,74.9,49.5z"/>
	<path class="st3" d="M79.1,51.7h2.7c0,1.2,1,1.8,2.1,1.8s2.1-0.6,2.1-1.5c0-1-1.2-1.2-2.5-1.5c-1.9-0.4-4.2-1-4.2-3.7
		c0-2.4,1.8-3.7,4.5-3.7c2.8,0,4.5,1.5,4.5,4h-2.7c0-1-0.9-1.6-1.9-1.6c-0.9,0-1.8,0.4-1.8,1.2c0,0.9,1,1.2,2.4,1.5
		c1.9,0.4,4.3,1,4.3,3.9c0,2.7-2.1,4-4.8,4C81,55.9,79.1,54.4,79.1,51.7z"/>
</g>
</svg>
