<?xml version="1.0" encoding="utf-8"?>
<!-- Generator: Adobe Illustrator 24.1.0, SVG Export Plug-In . SVG Version: 6.00 Build 0)  -->
<svg version="1.1" id="Layer_1" xmlns="http://www.w3.org/2000/svg" xmlns:xlink="http://www.w3.org/1999/xlink" x="0px" y="0px"
	 viewBox="0 0 512 512" style="enable-background:new 0 0 512 512;" xml:space="preserve">
<style type="text/css">
	.st0{fill:#FFFFFF;}
</style>
<g>
	<path class="st0" d="M497,0H15C6.7,0,0,6.7,0,15v482c0,8.3,6.7,15,15,15h482c8.3,0,15-6.7,15-15V15C512,6.7,505.3,0,497,0z M30,30
		h240.7l-45,90H30V30z M30,150h121.4l47.9,103.3L30,332.3V150z M30,365.4L148.7,310l40.4,87.5L30,473.3L30,365.4z M81.4,482
		l120.3-57.2l26.4,57.2H81.4z M261.2,482l-85.3-184.6l36.1-16.8L305.3,482H261.2z M482,482H338.4l-32-69L482,331.1V482z M374,339.8
		l-35.9-48.4c-10.3-13.9-11.8-31.4-4-46.8s22.7-24.6,40-24.6s32.2,9.2,40,24.6s6.3,32.9-4,46.8L374,339.8z M482,298l-60.6,28.3
		l12.6-17c16.9-22.8,19.5-52.8,6.7-78.1C428,205.8,402.4,190,374,190s-54,15.8-66.8,41.1c-12.8,25.4-10.2,55.3,6.7,78.1l37,49.9
		l-57.2,26.7L184.5,150H482L482,298z M482,120H259.3l45-90H482V120z"/>
	<circle class="st0" cx="75" cy="75" r="15"/>
	<circle class="st0" cx="135" cy="75" r="15"/>
	<circle class="st0" cx="195" cy="75" r="15"/>
	<circle class="st0" cx="374" cy="265" r="15"/>
	<path class="st0" d="M336,90h100c8.3,0,15-6.7,15-15s-6.7-15-15-15H336c-8.3,0-15,6.7-15,15S327.7,90,336,90z"/>
</g>
</svg>
