<?xml version="1.0" encoding="utf-8"?>
<!-- Generator: Adobe Illustrator 24.1.0, SVG Export Plug-In . SVG Version: 6.00 Build 0)  -->
<svg version="1.1" id="Layer_1" xmlns="http://www.w3.org/2000/svg" xmlns:xlink="http://www.w3.org/1999/xlink" x="0px" y="0px"
	 viewBox="0 0 512 512" style="enable-background:new 0 0 512 512;" xml:space="preserve">
<style type="text/css">
	.st0{fill:none;}
	.st1{fill:#FFFFFF;}
	.st2{fill:none;stroke:#000000;stroke-width:0;stroke-linecap:round;stroke-linejoin:round;}
</style>
<g>
	<polygon class="st0" points="188.3,382.4 188.3,336.8 145.3,364.5 145.3,382.4 	"/>
	<path class="st0" d="M407.2,170.5l0-20.1l-79.6,51.4c2.5,1.3,4.7,3.4,6.3,6c1.6,2.7,2.3,5.7,2.2,8.6L407.2,170.5z"/>
	<path class="st0" d="M253.8,255l-4.3-2.8l-104.2,67.2v20.1l47.8-30.9c1.7-1.1,3.6-1.6,5.6-1.6c5.9,0,10.6,4.7,10.6,10.5v65h15.2
		v-88.3c0-3.5,1.8-6.9,4.8-8.8l25.4-16.4L253.8,255z"/>
	<path class="st0" d="M395.5,66.8l-7.9-44.1c-0.2-1.3-1.2-4.7-3-4.7H167.8c-1.8,0-2.8,3.4-3,4.7L157,66.8H395.5z"/>
	<path class="st0" d="M157,445.2l7.9,44.1c0.2,1,1.2,4.7,3,4.7h216.7c1.6,0,2.7-3.2,3-4.7l7.9-44.1H157z"/>
	<path class="st0" d="M265.5,237.5c6.7,4.3,8.7,7.7,9.2,15.6l1.3,18.9l33.3-49.9l-17.7,1.5c-0.2,0-0.5,0-0.7,0.1l-41.4,3.5
		L265.5,237.5z"/>
	<path class="st0" d="M77.3,349.3l9.7,0v-50.5h-9.7c-5.4,0-9.7,4.4-9.7,9.7v31C67.6,344.9,71.9,349.3,77.3,349.3z"/>
	<path class="st0" d="M77.3,214l9.7,0v-50.5h-9.7c-5.4,0-9.7,4.4-9.7,9.7v31C67.6,209.7,71.9,214,77.3,214z"/>
	<path class="st0" d="M125.8,424.2h300.8c9.8,0,17.9-8,17.9-17.8V105.6c0-9.8-8-17.9-17.9-17.9H125.8c-9.8,0-17.8,8-17.8,17.9v300.8
		C108,416.2,116,424.2,125.8,424.2z M124.3,119c0-5.8,4.7-10.5,10.5-10.5h124.3c5.8,0,10.5,4.7,10.5,10.5s-4.7,10.5-10.5,10.5H145.3
		v164.9l84.9-54.8l-9.4-6.1c-5.3-3.5-7.8-9.1-6.5-14.7c1.3-5.6,6.2-9.9,12.2-10.8c0.2,0,0.4,0,0.5-0.1l60-5l113.8-73.5H294
		c-5.8,0-10.5-4.7-10.5-10.5s4.7-10.5,10.5-10.5h123.7c5.8,0,10.5,4.7,10.5,10.5v273.9c0,5.8-4.7,10.5-10.5,10.5H294
		c-5.8,0-10.5-4.7-10.5-10.5s4.7-10.5,10.5-10.5h113.1V195.5l-96.3,62.1l-29.1,43.6c-0.1,0.2-0.2,0.3-0.3,0.5
		c-2.8,3.7-7.1,5.9-11.6,5.9c-1.3,0-2.5-0.2-3.7-0.5c-5.5-1.6-9.2-6.6-9.7-12.9l-0.1-1.4l-10.9,7v82.6h13.6
		c5.8,0,10.5,4.7,10.5,10.5s-4.7,10.5-10.5,10.5H134.8c-5.8,0-10.5-4.7-10.5-10.5V119z M343.2,331h29.7c5.8,0,10.5,4.7,10.5,10.5
		s-4.7,10.5-10.5,10.5h-29.7c-5.8,0-10.5-4.7-10.5-10.5S337.5,331,343.2,331z M332.7,312.6c0-5.8,4.7-10.5,10.5-10.5h29.7
		c5.8,0,10.5,4.7,10.5,10.5s-4.7,10.5-10.5,10.5h-29.7C337.5,323.1,332.7,318.3,332.7,312.6z"/>
	<path class="st1" d="M426.6,66.8h-9.8L408.3,19c-2.3-13.2-11.9-22-23.7-22H167.8c-11.8,0-21.3,8.8-23.7,22l-8.5,47.8h-9.8
		c-21.4,0-38.8,17.4-38.8,38.9v36.9h-9.7c-16.9,0-30.7,13.8-30.7,30.7v31c0,16.9,13.8,30.7,30.7,30.7H87v42.8h-9.7
		c-16.9,0-30.7,13.8-30.7,30.7v31c0,16.9,13.8,30.7,30.7,30.7H87v36.1c0,21.4,17.4,38.8,38.8,38.8h9.8l8.5,47.8
		c2.3,13.2,11.9,22,23.7,22h216.7c11.8,0,21.3-8.8,23.7-22l8.6-47.8h9.8c21.4,0,38.9-17.4,38.9-38.8V105.6
		C465.4,84.2,448,66.8,426.6,66.8z M387.6,489.3c-0.3,1.5-1.4,4.7-3,4.7H167.8c-1.8,0-2.8-3.7-3-4.7l-7.9-44.1h238.5L387.6,489.3z
		 M164.8,22.7c0.2-1.3,1.2-4.7,3-4.7h216.7c1.8,0,2.8,3.4,3,4.7l7.9,44.1H157L164.8,22.7z M108,105.6c0-9.8,8-17.9,17.8-17.9h300.8
		c9.8,0,17.9,8,17.9,17.9v300.8c0,9.8-8,17.8-17.9,17.8H125.8c-9.8,0-17.8-8-17.8-17.8V105.6z M67.6,173.3c0-5.4,4.4-9.7,9.7-9.7H87
		V214l-9.7,0c-5.4,0-9.7-4.4-9.7-9.7V173.3z M67.6,308.5c0-5.4,4.4-9.7,9.7-9.7H87v50.5l-9.7,0c-5.4,0-9.7-4.4-9.7-9.7V308.5z"/>
	<path class="st1" d="M134.8,403.4h124.3c5.8,0,10.5-4.7,10.5-10.5s-4.7-10.5-10.5-10.5h-13.6v-82.6l10.9-7l0.1,1.4
		c0.4,6.3,4.1,11.2,9.7,12.9c1.2,0.4,2.5,0.5,3.7,0.5c4.5,0,8.8-2.2,11.6-5.9c0.1-0.1,0.2-0.3,0.3-0.5l29.1-43.6l96.3-62.1v186.9
		H294c-5.8,0-10.5,4.7-10.5,10.5s4.7,10.5,10.5,10.5h123.6c5.8,0,10.5-4.7,10.5-10.5V119c0-5.8-4.7-10.5-10.5-10.5H294
		c-5.8,0-10.5,4.7-10.5,10.5s4.7,10.5,10.5,10.5h106.7L286.9,203l-60,5c-0.2,0-0.4,0-0.5,0.1c-6,0.8-10.9,5.1-12.2,10.8
		c-1.3,5.6,1.2,11.3,6.5,14.7l9.4,6.1l-84.9,54.8V129.5h113.8c5.8,0,10.5-4.7,10.5-10.5s-4.7-10.5-10.5-10.5H134.8
		c-5.8,0-10.5,4.7-10.5,10.5v273.9C124.3,398.7,129,403.4,134.8,403.4z M188.3,336.8v45.7h-43v-17.9L188.3,336.8z M229.3,285.3
		c-3,1.9-4.8,5.3-4.8,8.8v88.3h-15.2v-65c0-5.8-4.8-10.5-10.6-10.5c-2,0-3.9,0.6-5.6,1.6l-47.8,30.9v-20.1l104.2-67.2l4.3,2.8
		l1,13.9L229.3,285.3z M291.6,223.7l17.7-1.5L276,272.1l-1.3-18.9c-0.5-8-2.5-11.3-9.2-15.6l-15.9-10.3l41.4-3.5
		C291.1,223.7,291.4,223.7,291.6,223.7z M333.8,207.8c-1.6-2.7-3.7-4.7-6.3-6l79.6-51.4l0,20.1L336,216.4
		C336.1,213.5,335.4,210.5,333.8,207.8z M417.7,111.5L417.7,111.5L417.7,111.5z"/>
	<line class="st2" x1="417.7" y1="111.5" x2="417.7" y2="111.5"/>
	<path class="st1" d="M343.2,352h29.7c5.8,0,10.5-4.7,10.5-10.5s-4.7-10.5-10.5-10.5h-29.7c-5.8,0-10.5,4.7-10.5,10.5
		S337.5,352,343.2,352z"/>
	<path class="st1" d="M343.2,323.1h29.7c5.8,0,10.5-4.7,10.5-10.5s-4.7-10.5-10.5-10.5h-29.7c-5.8,0-10.5,4.7-10.5,10.5
		S337.5,323.1,343.2,323.1z"/>
</g>
</svg>
