<?xml version="1.0" encoding="utf-8"?>
<!-- Generator: Adobe Illustrator 24.1.0, SVG Export Plug-In . SVG Version: 6.00 Build 0)  -->
<svg version="1.1" id="Layer_1" xmlns="http://www.w3.org/2000/svg" xmlns:xlink="http://www.w3.org/1999/xlink" x="0px" y="0px"
	 viewBox="0 0 512 512" style="enable-background:new 0 0 512 512;" xml:space="preserve">
<style type="text/css">
	.st0{fill:#FFFFFF;}
</style>
<g>
	<path class="st0" d="M256,451c57.9,0,105-47.1,105-105s-47.1-105-105-105s-105,47.1-105,105S198.1,451,256,451z M256,271
		c41.4,0,75,33.6,75,75s-33.6,75-75,75s-75-33.6-75-75S214.6,271,256,271z"/>
	<path class="st0" d="M256,391c24.8,0,45-20.2,45-45s-20.2-45-45-45s-45,20.2-45,45S231.2,391,256,391z M256,331c8.3,0,15,6.7,15,15
		s-6.7,15-15,15s-15-6.7-15-15S247.7,331,256,331z"/>
	<path class="st0" d="M361,0H151v180H91v332h330V180h-60V0z M181,30h150v150H181V30z M391,482H121V210h270V482z"/>
	<path class="st0" d="M256,60c-24.8,0-45,20.2-45,45s20.2,45,45,45s45-20.2,45-45S280.8,60,256,60z M256,120c-8.3,0-15-6.7-15-15
		s6.7-15,15-15s15,6.7,15,15S264.3,120,256,120z"/>
	<path class="st0" d="M31,271h30v150H31V271z"/>
	<path class="st0" d="M451,271h30v150h-30V271z"/>
	<path class="st0" d="M451,30h30v120h-30V30z"/>
	<path class="st0" d="M391,60h30v60h-30V60z"/>
	<path class="st0" d="M31,30h30v120H31V30z"/>
	<path class="st0" d="M91,60h30v60H91V60z"/>
</g>
</svg>
