<?xml version="1.0" encoding="utf-8"?>
<!-- Generator: Adobe Illustrator 24.1.0, SVG Export Plug-In . SVG Version: 6.00 Build 0)  -->
<svg version="1.1" id="Layer_1" xmlns="http://www.w3.org/2000/svg" xmlns:xlink="http://www.w3.org/1999/xlink" x="0px" y="0px"
	 viewBox="0 0 512 512" style="enable-background:new 0 0 512 512;" xml:space="preserve">
<style type="text/css">
	.st0{fill:#FFFFFF;}
</style>
<path class="st0" d="M240.9,332V134.2c0-8.3-6.7-15-15-15c-8.3,0-15,6.7-15,15V332c-26.4,6.7-45.9,30.6-45.9,59.1
	c0,33.6,27.3,60.9,60.9,60.9s60.9-27.3,60.9-60.9C286.9,362.6,267.3,338.7,240.9,332z M225.9,422c-17.1,0-30.9-13.9-30.9-30.9
	c0-17.1,13.9-30.9,30.9-30.9c17.1,0,30.9,13.9,30.9,30.9C256.9,408.1,243,422,225.9,422z"/>
<path class="st0" d="M300.4,295.7V74.5C300.4,33.4,267,0,225.9,0c-41,0-74.4,33.4-74.4,74.5v221.3C122.2,318.6,105,353.6,105,391
	c0,66.7,54.3,121,120.9,121c66.7,0,120.9-54.3,120.9-121C346.9,353.6,329.6,318.6,300.4,295.7z M225.9,482
	c-50.1,0-90.9-40.8-90.9-91c0-30.2,14.9-58.3,39.9-75.3c4.1-2.8,6.6-7.4,6.6-12.4V74.5c0-24.5,19.9-44.5,44.4-44.5
	c24.5,0,44.4,19.9,44.4,44.5v228.9c0,5,2.5,9.6,6.6,12.4c25,17,39.9,45.1,39.9,75.3C316.9,441.2,276.1,482,225.9,482z"/>
<path class="st0" d="M391.9,239.5h-46.5c-8.3,0-15,6.7-15,15s6.7,15,15,15h46.5c8.3,0,15-6.7,15-15S400.1,239.5,391.9,239.5z"/>
<path class="st0" d="M391.9,179.5h-46.5c-8.3,0-15,6.7-15,15s6.7,15,15,15h46.5c8.3,0,15-6.7,15-15S400.1,179.5,391.9,179.5z"/>
<path class="st0" d="M391.9,119.5h-46.5c-8.3,0-15,6.7-15,15s6.7,15,15,15h46.5c8.3,0,15-6.7,15-15S400.1,119.5,391.9,119.5z"/>
<path class="st0" d="M345.4,89.5h46.5c8.3,0,15-6.7,15-15c0-8.3-6.7-15-15-15h-46.5c-8.3,0-15,6.7-15,15
	C330.4,82.7,337.1,89.5,345.4,89.5z"/>
</svg>
