<?xml version="1.0" encoding="utf-8"?>
<!-- Generator: Adobe Illustrator 24.1.0, SVG Export Plug-In . SVG Version: 6.00 Build 0)  -->
<svg version="1.1" id="Layer_1" xmlns="http://www.w3.org/2000/svg" xmlns:xlink="http://www.w3.org/1999/xlink" x="0px" y="0px"
	 viewBox="0 0 512 512" style="enable-background:new 0 0 512 512;" xml:space="preserve">
<style type="text/css">
	.st0{fill:#FFFFFF;}
</style>
<g>
	<path class="st0" d="M125,362H95c-8.3,0-15,6.7-15,15s6.7,15,15,15h30c8.3,0,15-6.7,15-15S133.3,362,125,362z"/>
	<path class="st0" d="M375,362h-30c-8.3,0-15,6.7-15,15s6.7,15,15,15h30c8.3,0,15-6.7,15-15S383.3,362,375,362z"/>
	<path class="st0" d="M497,100h-5V75c0-41.4-33.6-75-75-75s-75,33.6-75,75v25h-5c-8.3,0-15,6.7-15,15v67.1c-1.3-0.1-2.6-0.1-3.8-0.1
		H151.8c-34.5,0-64.4,23.4-72.8,56.8l-0.8,3.2H45c-24.8,0-45,20.2-45,45c0,18.8,11.5,34.9,27.9,41.6c-5,8.3-7.9,18-7.9,28.4v40
		c0,25.1,16.9,46.4,40,52.9V477c0,19.3,15.7,35,35,35h30c19.3,0,35-15.7,35-35v-25h150v25c0,19.3,15.7,35,35,35h30
		c19.3,0,35-15.7,35-35v-27.1c23.1-6.5,40-27.8,40-52.9v-40c0-26.2-18.4-48.1-43-53.7l-8.3-33.3H497c8.3,0,15-6.7,15-15V115
		C512,106.7,505.3,100,497,100z M372,75c0-24.8,20.2-45,45-45s45,20.2,45,45v25h-90V75z M45,272h25.8l-7.5,30H45
		c-8.3,0-15-6.7-15-15S36.7,272,45,272z M130,477c0,2.8-2.2,5-5,5H95c-2.8,0-5-2.2-5-5v-25h40V477z M200,422v-25c0-2.8,2.2-5,5-5h60
		c2.8,0,5,2.2,5,5v25H200z M380,477c0,2.8-2.2,5-5,5h-30c-2.8,0-5-2.2-5-5v-25h40V477z M420,357v40c0,13.8-11.2,25-25,25h-95v-25
		c0-19.3-15.7-35-35-35h-60c-19.3,0-35,15.7-35,35v25H75c-13.8,0-25-11.2-25-25v-40c0-13.8,11.2-25,25-25h320
		C408.8,332,420,343.2,420,357z M375.8,302H94.2l14-55.9c5-20.1,23-34.1,43.7-34.1h166.3c1.3,0,2.6,0.1,3.8,0.2V255
		c0,8.3,6.7,15,15,15h30.8L375.8,302z M482,240H352V130h130V240z"/>
	<path class="st0" d="M417,155c-8.3,0-15,6.7-15,15v30c0,8.3,6.7,15,15,15s15-6.7,15-15v-30C432,161.7,425.3,155,417,155z"/>
</g>
</svg>
