<?xml version="1.0" encoding="utf-8"?>
<!-- Generator: Adobe Illustrator 24.1.0, SVG Export Plug-In . SVG Version: 6.00 Build 0)  -->
<svg version="1.1" id="Layer_1" xmlns="http://www.w3.org/2000/svg" xmlns:xlink="http://www.w3.org/1999/xlink" x="0px" y="0px"
	 viewBox="0 0 512 512" style="enable-background:new 0 0 512 512;" xml:space="preserve">
<style type="text/css">
	.st0{fill:#FFFFFF;}
</style>
<g>
	<g>
		<path class="st0" d="M437,181c-8.3,0-15,6.7-15,15v15h-30v-15c0-8.3-6.7-15-15-15h-23.8l-25.6-25.6c-2.8-2.8-6.6-4.4-10.6-4.4h-15
			v-30h15c8.3,0,15-6.7,15-15s-6.7-15-15-15H165c-8.3,0-15,6.7-15,15s6.7,15,15,15h15v30h-15c-4,0-7.8,1.6-10.6,4.4L128.8,181H75
			c-8.3,0-15,6.7-15,15v60H30v-60c0-8.3-6.7-15-15-15s-15,6.7-15,15v150c0,8.3,6.7,15,15,15s15-6.7,15-15v-60h30v60
			c0,8.3,6.7,15,15,15h53.8l55.6,55.6c2.8,2.8,6.6,4.4,10.6,4.4h152c5.7,0,10.9-3.2,13.4-8.3l25.9-51.7H422v15c0,8.3,6.7,15,15,15
			c41.4,0,75-33.6,75-75v-60C512,214.6,478.4,181,437,181z M120,331H90V211h30V331z M210,121h62v30h-62V121z M362,342.5L337.7,391
			H201.2L150,339.8V202.2l21.2-21.2c6.1,0,134.2,0,139.6,0l25.6,25.6c2.8,2.8,6.6,4.4,10.6,4.4h15C362,217.1,362,337.6,362,342.5z
			 M422,331h-30v-90h30V331z M482,316c0,19.6-12.5,36.2-30,42.4c0-10.5,0-140.9,0-144.9c17.5,6.2,30,22.9,30,42.4V316z"/>
	</g>
</g>
<g>
	<g>
		<path class="st0" d="M287,271h-35.7l19.1-38.3c3.7-7.4,0.7-16.4-6.7-20.1c-7.4-3.7-16.4-0.7-20.1,6.7l-30,60
			c-5,9.9,2.3,21.7,13.4,21.7h35.7l-19.1,38.3c-3.7,7.4-0.7,16.4,6.7,20.1c7.4,3.7,16.4,0.7,20.1-6.7l30-60
			C305.4,282.8,298.1,271,287,271z"/>
	</g>
</g>
</svg>
