<?xml version="1.0" encoding="utf-8"?>
<!-- Generator: Adobe Illustrator 24.1.0, SVG Export Plug-In . SVG Version: 6.00 Build 0)  -->
<svg version="1.1" id="Layer_1" xmlns="http://www.w3.org/2000/svg" xmlns:xlink="http://www.w3.org/1999/xlink" x="0px" y="0px"
	 viewBox="0 0 512 512" style="enable-background:new 0 0 512 512;" xml:space="preserve">
<style type="text/css">
	.st0{fill:#FFFFFF;}
</style>
<path class="st0" d="M106.7,277.3c-3.7,0-7.4-1.3-10.4-3.8C92.3,270.1,0,190.2,0,108C0,48.4,47.9,0,106.7,0s106.7,48.4,106.7,108
	c0,82.2-92.3,162.1-96.3,165.5C114.1,276.1,110.4,277.3,106.7,277.3z M106.7,32C65.5,32,32,66.1,32,108c0,52.9,52,109.4,74.7,131.5
	c22.7-22.1,74.7-78.5,74.7-131.5C181.3,66.1,147.8,32,106.7,32L106.7,32z"/>
<path class="st0" d="M106.7,149.3c-23.5,0-42.7-19.1-42.7-42.7S83.1,64,106.7,64s42.7,19.1,42.7,42.7S130.2,149.3,106.7,149.3z
	 M106.7,96c-5.9,0-10.7,4.8-10.7,10.7s4.8,10.7,10.7,10.7s10.7-4.8,10.7-10.7S112.5,96,106.7,96z"/>
<path class="st0" d="M496,512c-8.8,0-16-7.2-16-16V250.7c0-8.8,7.2-16,16-16c8.8,0,16,7.2,16,16V496C512,504.8,504.8,512,496,512z"
	/>
<path class="st0" d="M496,384H336c-6,0-11.5-3.4-14.3-8.7c-2.7-5.4-2.2-11.8,1.3-16.7l35.8-49.3l-35.8-49.3
	c-3.5-4.9-4-11.3-1.3-16.7c2.7-5.4,8.2-8.7,14.3-8.7h160c8.8,0,16,7.2,16,16s-7.2,16-16,16H367.4l24.2,33.3c4.1,5.6,4.1,13.2,0,18.8
	L367.4,352H496c8.8,0,16,7.2,16,16C512,376.8,504.8,384,496,384z"/>
<path class="st0" d="M496,512H74.7C33.5,512,0,478.5,0,437.3s33.5-74.7,74.7-74.7h128c23.5,0,42.7-19.1,42.7-42.7
	c0-23.5-19.1-42.7-42.7-42.7H112c-8.8,0-16-7.2-16-16s7.2-16,16-16h90.7c41.2,0,74.7,33.5,74.7,74.7s-33.5,74.7-74.7,74.7h-128
	c-23.5,0-42.7,19.1-42.7,42.7S51.1,480,74.7,480H496c8.8,0,16,7.2,16,16C512,504.8,504.8,512,496,512z"/>
</svg>
