<?xml version="1.0" encoding="utf-8"?>
<!-- Generator: Adobe Illustrator 24.1.0, SVG Export Plug-In . SVG Version: 6.00 Build 0)  -->
<svg version="1.1" id="Layer_1" xmlns="http://www.w3.org/2000/svg" xmlns:xlink="http://www.w3.org/1999/xlink" x="0px" y="0px"
	 viewBox="0 0 512 512" style="enable-background:new 0 0 512 512;" xml:space="preserve">
<style type="text/css">
	.st0{fill:#FFFFFF;}
</style>
<g>
	<g>
		<path class="st0" d="M256,0c-8.3,0-15,6.7-15,15s6.7,15,15,15c124.6,0,226,101.4,226,226S380.6,482,256,482S30,380.6,30,256
			c0-60.4,25.4-118.6,69-161v26c0,8.3,6.7,15,15,15s15-6.7,15-15V61c0-8.3-6.7-15-15-15H53.5c-8.3,0-15,6.7-15,15s6.7,14.9,15,14.9
			h22C27,124.3,0,189.1,0,256c0,140.7,115.2,256,256,256c140.7,0,256-115.2,256-256C512,115.3,396.8,0,256,0z"/>
	</g>
</g>
<g>
	<g>
		<path class="st0" d="M256,91c-91,0-165,74-165,165c0,91,74.1,165,165,165c91,0,165-74,165-165C421,165,346.9,91,256,91z
			 M361.4,340.2l-10-10c-5.9-5.9-15.4-5.9-21.2,0s-5.9,15.4,0,21.2l10,10C320.8,377,297,387.3,271,390.2V376c0-8.3-6.7-15-15-15
			s-15,6.7-15,15v14.2c-26-2.9-49.8-13.2-69.2-28.7l10-10c5.9-5.9,5.9-15.4,0-21.2c-5.9-5.9-15.4-5.9-21.2,0l-10,10
			C135,320.8,124.7,297,121.8,271H136c8.3,0,15-6.7,15-15s-6.7-15-15-15h-14.2c2.9-26,13.2-49.8,28.7-69.2l10,10
			c5.9,5.9,15.4,5.9,21.2,0c5.9-5.9,5.9-15.4,0-21.2l-10-10c19.4-15.5,43.2-25.8,69.2-28.7V136c0,8.3,6.7,15,15,15s15-6.7,15-15
			v-14.2c26,2.9,49.8,13.2,69.2,28.7l-10,10c-5.9,5.9-5.9,15.4,0,21.2c5.9,5.9,15.4,5.9,21.2,0l10-10c15.5,19.4,25.8,43.2,28.7,69.2
			H376c-8.3,0-15,6.7-15,15s6.7,14.9,15,14.9h14.2C387.3,296.9,377,320.8,361.4,340.2z"/>
	</g>
</g>
<g>
	<g>
		<path class="st0" d="M296.6,275.4L271,249.8V196c0-8.3-6.7-15-15-15s-15,6.7-15,15v60c0,4,1.6,7.8,4.4,10.6l30,30
			c5.9,5.9,15.4,5.9,21.2,0C302.5,290.7,302.5,281.3,296.6,275.4z"/>
	</g>
</g>
</svg>
