<?xml version="1.0" encoding="utf-8"?>
<!-- Generator: Adobe Illustrator 24.1.0, SVG Export Plug-In . SVG Version: 6.00 Build 0)  -->
<svg version="1.1" id="Layer_1" xmlns="http://www.w3.org/2000/svg" xmlns:xlink="http://www.w3.org/1999/xlink" x="0px" y="0px"
	 viewBox="0 0 512 512" style="enable-background:new 0 0 512 512;" xml:space="preserve">
<style type="text/css">
	.st0{fill:#FFFFFF;}
</style>
<path class="st0" d="M255.8,0C147.8,0,60,87.8,60,195.8c0,39.3,11.7,77.3,34,109.9c21.4,31.4,51.1,55.7,85.9,70.4L232.8,497
	c4,9.1,13,15,22.9,15s19-5.9,22.9-15l52.9-121c34.9-14.7,64.5-38.9,85.9-70.4c22.2-32.6,34-70.6,34-109.9
	C451.5,87.8,363.7,0,255.8,0z M336.9,340.1c-6.4,3.6-13.1,6.8-20.1,9.6c-5,2-9,5.8-11.1,10.7l-50,114.2l-50-114.2
	c-2.2-4.9-6.1-8.7-11.1-10.7c-6.9-2.8-13.6-6-20.1-9.6c-0.1-1.3-0.1-2.6-0.1-3.9c0-47.8,36.5-86.8,81.3-86.8s81.3,38.9,81.3,86.8
	C337,337.4,337,338.8,336.9,340.1z M392.7,288.8c-7.7,11.4-16.8,21.6-26.9,30.6c-7.8-56.5-54.2-100-110.1-100s-102.4,43.5-110.1,100
	c-10.1-9-19.1-19.2-26.9-30.6C99.9,261.2,90,229,90,195.8C90,104.4,164.4,30,255.8,30s165.8,74.4,165.8,165.8
	C421.5,229,411.6,261.2,392.7,288.8z"/>
<path class="st0" d="M255.8,72.7c-35,0-63.6,28.5-63.6,63.6s28.5,63.6,63.6,63.6s63.6-28.5,63.6-63.6S290.8,72.7,255.8,72.7z
	 M255.8,169.8c-18.5,0-33.6-15.1-33.6-33.6s15.1-33.6,33.6-33.6s33.6,15.1,33.6,33.6S274.3,169.8,255.8,169.8z"/>
</svg>
