<?xml version="1.0" encoding="utf-8"?>
<!-- Generator: Adobe Illustrator 24.1.0, SVG Export Plug-In . SVG Version: 6.00 Build 0)  -->
<svg version="1.1" id="Layer_1" xmlns="http://www.w3.org/2000/svg" xmlns:xlink="http://www.w3.org/1999/xlink" x="0px" y="0px"
	 viewBox="0 0 512 512" style="enable-background:new 0 0 512 512;" xml:space="preserve">
<style type="text/css">
	.st0{fill:#FFFFFF;}
</style>
<g>
	<g>
		<path class="st0" d="M484.4,329.3l-40.6-18.4l-11.6-18.8C477.5,263.5,505,213.7,505,160V82.9c-0.1-4.3-2.6-8.3-6.5-10.3L394.1,17
			c-3.5-1.9-7.8-1.9-11.2,0.1L281.8,72.5c-3.8,2.1-6,6-5.9,10.3v78.7c-0.1,22.3,4.5,44.5,13.6,64.9h-84.7c-18.2,0-35.5,8.6-46.6,23
			L112.1,310l-77.5,21.1C14.2,336.6,0.1,355.2,0,376.3v29.6c0.1,26,21.3,47,47.2,47.2h5.6c8.7,31.5,41.3,49.9,72.8,41.1
			c20-5.5,35.6-21.1,41.1-41.1h172.6c8.7,31.5,41.3,49.9,72.8,41.1c20-5.5,35.6-21.1,41.1-41.1h11.5c26-0.1,47.1-21.1,47.2-47.2V372
			C511.9,353.5,501.1,337,484.4,329.3z M299.4,89.8L389,40.6l92.4,49.3V160c-0.1,53.7-32.3,101.9-81.7,122.7c0,0-0.1,0-0.2,0
			l-11.3,4.8l-9.2-4.1c-48.4-21.3-79.6-69-79.6-122L299.4,89.8L299.4,89.8z M109.8,472.5c-19.7,0-35.6-16-35.6-35.6
			c0-19.7,16-35.6,35.6-35.6c19.7,0,35.6,16,35.6,35.6S129.4,472.4,109.8,472.5z M396.3,472.5c-19.7,0-35.6-16-35.6-35.6
			s16-35.6,35.6-35.6c19.7,0,35.6,16,35.6,35.6C432,456.5,416.1,472.4,396.3,472.5z M488.6,405.8h-0.1c-0.1,13-10.7,23.6-23.7,23.7
			h-9.9c-4.2-32.4-33.8-55.2-66.2-51c-26.5,3.4-47.6,24.4-51,51H168.4c-4.2-32.4-33.8-55.2-66.2-51c-26.5,3.4-47.6,24.4-51,51h-4
			c-13-0.1-23.6-10.7-23.7-23.7v-29.6c0.1-10.6,7.2-19.7,17.4-22.5l81.3-22.2c2.5-0.7,4.7-2.1,6.3-4.2l48.6-63.6
			c6.7-8.7,17-13.7,27.9-13.7H303c16.7,24.2,39.8,43.3,66.7,55.2l14.1,6.1c2.9,1.3,6.3,1.3,9.4,0l15.9-6.8c0.8-0.4,1.6-0.7,2.3-1.1
			l14.4,23.1c1.2,2,2.9,3.5,5,4.5l43.9,19.8c8.3,3.8,13.7,12.1,13.9,21.3L488.6,405.8L488.6,405.8z"/>
	</g>
</g>
<g>
	<g>
		<path class="st0" d="M446.9,134.2c-4.1-5-11.4-5.9-16.6-1.9l-0.1,0.1l-55,44.7l-20-23.4c-4.2-4.9-11.6-5.6-16.6-1.4
			s-5.6,11.6-1.4,16.6l0.1,0.1l27.4,32.1c0.1,0.2,0.2,0.4,0.4,0.5c0.1,0.1,0.2,0.4,0.5,0.5c0.1,0.1,0.4,0.4,0.5,0.5
			c0.1,0.1,0.4,0.2,0.5,0.4c0.1,0.1,0.4,0.2,0.6,0.4c0.2,0.1,0.4,0.2,0.5,0.4c0.2,0.1,0.4,0.2,0.6,0.4c0.1,0.1,0.4,0.2,0.5,0.2
			c0.2,0.1,0.5,0.2,0.7,0.2c0.1,0.1,0.4,0.1,0.5,0.2c0.2,0.1,0.5,0.1,0.7,0.2c0.1,0,0.4,0.1,0.5,0.1c0.2,0,0.5,0.1,0.7,0.1
			c0.1,0,0.4,0.1,0.5,0.1c0.4,0,0.6,0,0.9,0c0.1,0,0.2,0,0.4,0c0.4,0,0.7,0,1.1,0c0.1,0,0.1,0,0.2,0c0.2,0,0.6-0.1,0.8-0.1
			c0.1,0,0.2,0,0.4-0.1c0.2,0,0.5-0.1,0.7-0.1c0.1,0,0.2-0.1,0.4-0.1c0.2,0,0.4-0.1,0.6-0.2c0.1,0,0.2-0.1,0.5-0.1
			c0.1-0.1,0.4-0.1,0.5-0.2s0.4-0.1,0.5-0.2c0.1-0.1,0.4-0.1,0.5-0.2c0.1-0.1,0.4-0.2,0.5-0.2s0.2-0.2,0.5-0.2
			c0.1-0.1,0.2-0.2,0.5-0.4c0.1-0.1,0.2-0.1,0.4-0.2l63.8-51.9C450.1,146.6,450.9,139.3,446.9,134.2z"/>
	</g>
</g>
</svg>
