<?xml version="1.0" encoding="utf-8"?>
<!-- Generator: Adobe Illustrator 24.1.0, SVG Export Plug-In . SVG Version: 6.00 Build 0)  -->
<svg version="1.1" id="Layer_1" xmlns="http://www.w3.org/2000/svg" xmlns:xlink="http://www.w3.org/1999/xlink" x="0px" y="0px"
	 viewBox="0 0 100 100" style="enable-background:new 0 0 100 100;" xml:space="preserve">
<style type="text/css">
	.st0{fill:#0E1013;}
	.st1{fill:#F4BD1C;}
</style>
<path class="st0" d="M84.7,100H15.3C6.9,100,0,93.1,0,84.7V15.3C0,6.9,6.9,0,15.3,0h69.3C93.1,0,100,6.9,100,15.3v69.3
	C100,93.1,93.1,100,84.7,100z"/>
<path class="st1" d="M43.4,21L11.3,64.7C6,71,10.5,80.5,18.7,80.5H83c8.2,0,12.6-9.5,7.4-15.8L58.2,21C54.4,16.3,47.3,16.3,43.4,21z
	"/>
<g id="_13-car">
	<g id="linear_color">
		<circle class="st0" cx="29.6" cy="72.3" r="1.9"/>
		<circle class="st0" cx="74.9" cy="72.3" r="1.9"/>
		<path class="st0" d="M85.8,58l-13.9-2.1L58.6,45c-1.2-1-2.8-1.6-4.4-1.6H35.8c-2.1,0-4.1,1-5.4,2.6l-8,10h-5.4
			c-3.1,0-5.7,2.5-5.7,5.7v6.3c0,3.8,3.1,6.9,6.9,6.9h3.4c1,4.4,5.4,7.1,9.8,6.1c3-0.7,5.4-3.1,6.1-6.1H67c1,4.4,5.4,7.1,9.8,6.1
			c3-0.7,5.4-3.1,6.1-6.1H85c3.1,0,5.7-2.5,5.7-5.7v-5.6C90.7,60.8,88.6,58.4,85.8,58z M56.2,47.9l9.8,8.1H47.9v-8.8h6.4
			C55,47.2,55.7,47.4,56.2,47.9z M33.4,48.4c0.6-0.7,1.5-1.2,2.5-1.2h0.7V56h-9.3L33.4,48.4z M29.6,77.4c-2.4,0-4.4-2-4.4-4.4
			c0-2.4,2-4.4,4.4-4.4s4.4,2,4.4,4.4C34,75.4,32.1,77.4,29.6,77.4z M74.9,77.4c-2.4,0-4.4-2-4.4-4.4c0-2.4,2-4.4,4.4-4.4
			s4.4,2,4.4,4.4C79.3,75.4,77.4,77.4,74.9,77.4z M86.9,69.2c0,1-0.8,1.9-1.9,1.9h-2.1c-1-4.4-5.4-7.1-9.8-6.1
			c-3,0.7-5.4,3.1-6.1,6.1H37.6c-1-4.4-5.4-7.1-9.8-6.1c-3,0.7-5.4,3.1-6.1,6.1h-3.4c-1.7,0-3.1-1.4-3.1-3.1v-6.3
			c0-1,0.8-1.9,1.9-1.9h21.4c1,0,1.9-0.8,1.9-1.9V47.2h3.8v10.7c0,1,0.8,1.9,1.9,1.9H72l13.2,2c0.9,0.1,1.6,0.9,1.6,1.9V69.2z"/>
		<path class="st0" d="M48.5,60.4H46c-1,0-1.9,0.8-1.9,1.9s0.8,1.9,1.9,1.9h2.5c1,0,1.9-0.8,1.9-1.9S49.5,60.4,48.5,60.4z"/>
		<circle class="st0" cx="29.6" cy="72.3" r="1.9"/>
		<circle class="st0" cx="74.9" cy="72.3" r="1.9"/>
	</g>
</g>
</svg>
