<?xml version="1.0" encoding="utf-8"?>
<!-- Generator: Adobe Illustrator 24.1.0, SVG Export Plug-In . SVG Version: 6.00 Build 0)  -->
<svg version="1.1" id="Layer_1" xmlns="http://www.w3.org/2000/svg" xmlns:xlink="http://www.w3.org/1999/xlink" x="0px" y="0px"
	 viewBox="0 0 25 25" style="enable-background:new 0 0 25 25;" xml:space="preserve">
<style type="text/css">
	.st0{fill:#FFFFFF;}
</style>
<g>
	<g>
		<path class="st0" d="M22.6,15.5c0-2-1.6-3.7-3.6-3.8c0.3-0.5,0.4-1.1,0.4-1.8c0-1.6-1-2.9-2.3-3.5c0.2-0.1,0.4-0.3,0.5-0.5
			c2.1-2.1,1.3-5.2,1.3-5.3c-0.1-0.3-0.3-0.5-0.6-0.6c0,0-0.4,0-1,0c-1.3,0-3.2,0.2-4.3,1.3c-1.9,1.9-1.4,4.8-1.3,5.4v0.2
			c-0.7-0.5-1.5-0.8-2.4-0.8c-2.1,0-3.8,1.7-3.8,3.8c0,0.6,0.2,1.3,0.4,1.8c-2,0.1-3.6,1.8-3.6,3.8c0,2,1.6,3.7,3.6,3.8
			c-0.3,0.5-0.4,1.1-0.4,1.8c0,2.1,1.7,3.8,3.8,3.8c1.3,0,2.4-0.6,3.1-1.6c0.7,1,1.8,1.6,3.1,1.6c2.1,0,3.8-1.7,3.8-3.8
			c0-0.6-0.2-1.3-0.4-1.8C21,19.2,22.6,17.6,22.6,15.5z M18,9.9c0,1.3-1.1,2.4-2.4,2.4c-1.3,0-2.4-1.1-2.4-2.4c0,0,0,0,0,0v0
			c0-1.3,1.1-2.4,2.4-2.4C16.9,7.5,18,8.6,18,9.9z M14.1,2.4c0.6-0.6,1.7-0.9,3.2-0.9c0.1,0,0.2,0,0.3,0c0.1,0.8,0.1,2.4-1,3.4
			c-0.9,0.9-2.2,1.1-3,1.1c-0.2,0-0.3,0-0.4,0C13,5.1,13,3.4,14.1,2.4z M9.4,7.5c1.3,0,2.4,1.1,2.4,2.4c0,1.3-1.1,2.4-2.4,2.4
			S7,11.2,7,9.9C7,8.6,8.1,7.5,9.4,7.5z M6.3,17.9c-1.3,0-2.4-1.1-2.4-2.4c0-1.3,1.1-2.4,2.4-2.4s2.4,1.1,2.4,2.4
			C8.7,16.9,7.6,17.9,6.3,17.9z M9.4,23.5c-1.3,0-2.4-1.1-2.4-2.4s1.1-2.4,2.4-2.4s2.4,1.1,2.4,2.4C11.8,22.5,10.7,23.5,9.4,23.5z
			 M12.5,17.9c-1.3,0-2.4-1.1-2.4-2.4c0-1.3,1.1-2.4,2.4-2.4s2.4,1.1,2.4,2.4C14.9,16.9,13.8,17.9,12.5,17.9z M15.6,23.5
			c-1.3,0-2.4-1.1-2.4-2.4s1.1-2.4,2.4-2.4c1.3,0,2.4,1.1,2.4,2.4C18,22.5,16.9,23.5,15.6,23.5z M18.7,17.9c-1.3,0-2.4-1.1-2.4-2.4
			c0-1.3,1.1-2.4,2.4-2.4s2.4,1.1,2.4,2.4C21.1,16.9,20,17.9,18.7,17.9z"/>
	</g>
</g>
</svg>
