<?xml version="1.0" encoding="utf-8"?>
<!-- Generator: Adobe Illustrator 24.1.0, SVG Export Plug-In . SVG Version: 6.00 Build 0)  -->
<svg version="1.1" id="Layer_1" xmlns="http://www.w3.org/2000/svg" xmlns:xlink="http://www.w3.org/1999/xlink" x="0px" y="0px"
	 viewBox="0 0 100 100" style="enable-background:new 0 0 100 100;" xml:space="preserve">
<style type="text/css">
	.st0{fill:#CCD8EA;}
	.st1{fill:#15164A;}
	.st2{fill:#2C47FD;}
	.st3{fill:#60CFFE;}
	.st4{fill:#FEFEFE;}
	.st5{fill:#3B77FE;}
</style>
<path class="st0" d="M84.7,100H15.3C6.9,100,0,93.1,0,84.7V15.3C0,6.9,6.9,0,15.3,0h69.3C93.1,0,100,6.9,100,15.3v69.3
	C100,93.1,93.1,100,84.7,100z"/>
<g>
	<path class="st1" d="M71.4,28.4c-0.1-0.1-0.2-0.1-0.2-0.2c-7-4-13.9-8-20.9-12.1c-0.4-0.2-0.6-0.1-1,0.1c-2.5,1.5-5.1,2.9-7.6,4.4
		c-4.5,2.6-9,5.2-13.4,7.8c-5.1-2.9-10.1-5.8-15.2-8.8c-0.7-0.4-0.7-0.4-0.7,0.4c0,13.9,0,27.9,0,41.8c0,0.5,0.2,0.8,0.6,1.1
		C25,69.8,37.1,76.8,49.1,83.8c0.5,0.3,0.9,0.3,1.4,0c12.1-7,24.1-14,36.2-20.9c0.4-0.2,0.5-0.5,0.5-1c0-14,0-27.9,0-41.9
		c0-0.2,0.1-0.4-0.1-0.7C81.9,22.3,76.7,25.4,71.4,28.4z"/>
	<path class="st2" d="M71.4,28.4c5.3-3,10.5-6.1,15.8-9.1c0.2,0.3,0.1,0.5,0.1,0.7c0,14,0,27.9,0,41.9c0,0.5-0.1,0.7-0.5,1
		c-12.1,7-24.2,13.9-36.2,20.9c-0.5,0.3-0.9,0.3-1.4,0c-12-7-24.1-13.9-36.2-20.9c-0.5-0.3-0.6-0.5-0.6-1.1c0-13.9,0-27.9,0-41.8
		c0-0.8,0-0.8,0.7-0.4c5.1,2.9,10.1,5.8,15.2,8.8c0,0,0,0.1,0,0.1c0,0.2,0,0.5,0,0.7c0,7.8,0,15.5,0,23.3c0,0.6,0.2,0.9,0.7,1.2
		c6.1,3.5,12.3,7.1,18.4,10.6c0.8,0.5,1.6,1,2.5,1.4c0.3,0,0.5-0.2,0.7-0.3c6.8-3.9,13.6-7.8,20.4-11.8c0.4-0.3,0.6-0.5,0.6-1
		c0-7.8,0-15.7,0-23.5C71.5,28.9,71.4,28.7,71.4,28.4C71.4,28.4,71.4,28.4,71.4,28.4z"/>
	<path class="st3" d="M71.4,28.4C71.4,28.4,71.4,28.4,71.4,28.4c-0.2,0.2-0.3,0.2-0.5,0.3c-7,4.1-14.1,8.1-21.1,12.2
		c-4.9-2.8-9.8-5.7-14.7-8.5c-2.3-1.3-4.6-2.6-6.9-4c0,0,0-0.1,0-0.1c4.5-2.6,9-5.2,13.4-7.8c2.6-1.5,5.1-2.9,7.6-4.4
		c0.3-0.2,0.6-0.3,1-0.1c7,4,13.9,8.1,20.9,12.1C71.3,28.3,71.4,28.3,71.4,28.4z"/>
	<path class="st4" d="M28.2,28.5c2.3,1.3,4.6,2.6,6.9,4c4.9,2.8,9.8,5.7,14.7,8.5c0,8.3,0,16.5,0,24.8c-0.9-0.3-1.7-0.9-2.5-1.4
		c-6.1-3.5-12.3-7.1-18.4-10.6c-0.5-0.3-0.7-0.6-0.7-1.2c0-7.8,0-15.5,0-23.3C28.2,29,28.2,28.7,28.2,28.5z"/>
	<path class="st5" d="M49.8,65.7c0-8.3,0-16.5,0-24.8c7-4.1,14.1-8.1,21.1-12.2c0.1-0.1,0.3-0.2,0.4-0.2c0,0.2,0,0.5,0,0.7
		c0,7.8,0,15.7,0,23.5c0,0.5-0.1,0.8-0.6,1c-6.8,3.9-13.6,7.8-20.4,11.8C50.3,65.6,50.1,65.7,49.8,65.7z"/>
</g>
</svg>
