<svg id="Layer_1" data-name="Layer 1" xmlns="http://www.w3.org/2000/svg" viewBox="0 0 40 40"><defs><style>.cls-1{fill:#b70000;}</style></defs><path class="cls-1" d="M33.83,18.37a1.06,1.06,0,0,1,.41.81,1.09,1.09,0,0,1-.41.82L29,23.91a1.06,1.06,0,0,1-1.33-1.65l3.84-3.08-3.82-3.07a1.06,1.06,0,0,1-.3-1.47,1,1,0,0,1,1.46-.3,1.09,1.09,0,0,1,.17.13Z"/><path class="cls-1" d="M22.1,14.62a1.06,1.06,0,0,1-.16,1.49h0l-3.82,3.07,3.82,3.08a1.06,1.06,0,0,1-1.33,1.63L15.77,20a1.09,1.09,0,0,1-.41-.82,1.06,1.06,0,0,1,.41-.81l4.84-3.9A1.06,1.06,0,0,1,22.1,14.62Z"/><path class="cls-1" d="M20,32.24a1.06,1.06,0,0,1,0,2.12h-7.1a1.06,1.06,0,1,1,0-2.12Z"/><path class="cls-1" d="M13.11,4a1.08,1.08,0,0,0,1.07,1.08h4.49A1.09,1.09,0,0,0,19.76,4h0V3.76H13.11ZM26,27.94v5.71a4.68,4.68,0,0,1-4.65,4.72H10.44a4.69,4.69,0,0,1-4.68-4.69h0V6.35a4.72,4.72,0,0,1,4.7-4.72H21.29A4.71,4.71,0,0,1,26,6.35h0v3.94a1.06,1.06,0,1,1-2.11,0h0V6.35a2.6,2.6,0,0,0-2-2.52V4a3.19,3.19,0,0,1-3.2,3.19H14.19A3.19,3.19,0,0,1,11,4V3.76h-.53A2.59,2.59,0,0,0,7.89,6.35V33.69a2.57,2.57,0,0,0,2.57,2.57H21.31a2.57,2.57,0,0,0,2.56-2.57V28A1.06,1.06,0,1,1,26,28Z"/></svg>