<svg id="Layer_1" data-name="Layer 1" xmlns="http://www.w3.org/2000/svg" viewBox="0 0 40 40"><defs><style>.cls-1{fill:#b70000;}</style></defs><path class="cls-1" d="M32.06,31.25a.81.81,0,0,0-.81.81v3.21a2.41,2.41,0,0,1-2.41,2.42H11.16a2.41,2.41,0,0,1-2.41-2.42V32.06a.81.81,0,1,0-1.61,0v3.21a4,4,0,0,0,4,4H28.84a4,4,0,0,0,4-4V32.06A.8.8,0,0,0,32.06,31.25Z"/><path class="cls-1" d="M7.94,23.22a.81.81,0,0,0,.81-.81V4.73a2.41,2.41,0,0,1,2.41-2.42H28.84a2.41,2.41,0,0,1,2.41,2.42v1.6H12a.81.81,0,0,0,0,1.61h20.1a.8.8,0,0,0,.8-.8V4.73a4,4,0,0,0-4-4H11.16a4,4,0,0,0-4,4V22.41A.8.8,0,0,0,7.94,23.22Z"/><path class="cls-1" d="M28,33.67a.81.81,0,0,0,0-1.61H12a.81.81,0,0,0,0,1.61Z"/><path class="cls-1" d="M35.27,24.82H6.33a.77.77,0,0,0-.44.14L3.48,26.57a.8.8,0,0,0-.23,1.11.69.69,0,0,0,.23.22l2.41,1.61a.77.77,0,0,0,.44.14H35.27A1.61,1.61,0,0,0,36.88,28V26.43A1.61,1.61,0,0,0,35.27,24.82Zm-4,3.22H6.57l-1.2-.8,1.2-.81H31.25Zm4,0H32.86V26.43h2.41Z"/><path class="cls-1" d="M32.06,9.55a.8.8,0,0,0-.81.8V22.41a.81.81,0,1,0,1.61,0V10.35A.8.8,0,0,0,32.06,9.55Z"/><path class="cls-1" d="M18.39,12a1.61,1.61,0,0,0-1.61-1.61H13.57A1.61,1.61,0,0,0,12,12v3.22a1.61,1.61,0,0,0,1.61,1.6h3.21a1.61,1.61,0,0,0,1.61-1.6Zm-1.61,3.22H13.57V12h3.21Z"/><path class="cls-1" d="M28,12a1.61,1.61,0,0,0-1.61-1.61H23.22A1.61,1.61,0,0,0,21.61,12v3.22a1.61,1.61,0,0,0,1.61,1.6h3.21A1.61,1.61,0,0,0,28,15.18Zm-1.61,3.22H23.22V12h3.21Z"/><path class="cls-1" d="M17.59,23.22a.8.8,0,0,0,.8-.81V20a1.61,1.61,0,0,0-1.61-1.61H13.57A1.61,1.61,0,0,0,12,20v2.41a.81.81,0,1,0,1.61,0V20h3.21v2.41A.81.81,0,0,0,17.59,23.22Z"/><path class="cls-1" d="M27.24,23.22a.8.8,0,0,0,.8-.81V20a1.61,1.61,0,0,0-1.61-1.61H23.22A1.61,1.61,0,0,0,21.61,20v2.41a.81.81,0,1,0,1.61,0V20h3.21v2.41A.81.81,0,0,0,27.24,23.22Z"/></svg>