<svg id="Layer_1" data-name="Layer 1" xmlns="http://www.w3.org/2000/svg" viewBox="0 0 40 40"><defs><style>.cls-1{fill:#b70000;}</style></defs><path class="cls-1" d="M23.08,33.65H16.92a.72.72,0,0,0,0,1.44h6.16a.72.72,0,0,0,0-1.44Z"/><path class="cls-1" d="M15.66,5.7h.43a.72.72,0,1,0,0-1.44h-.43a.72.72,0,0,0,0,1.44Z"/><path class="cls-1" d="M18.36,5.7h6a.72.72,0,0,0,0-1.44h-6a.72.72,0,1,0,0,1.44Z"/><path class="cls-1" d="M25.9,16.9l.5-2.06L25.16,13.6l-2.06.5L22,13.63l-1.11-1.81H19.12L18,13.63l-1.12.47-2.06-.5L13.6,14.84l.5,2.06L13.63,18l-1.81,1.1v1.75L13.63,22l.47,1.12-.5,2.06,1.24,1.24,2.06-.5,1.12.46,1.1,1.81h1.75L22,26.36l1.12-.46,2.06.5,1.24-1.24-.5-2.06L26.36,22l1.81-1.11V19.12L26.36,18ZM20,23.57A3.57,3.57,0,1,1,23.57,20,3.57,3.57,0,0,1,20,23.57Z"/><path class="cls-1" d="M27.21,1H12.79A4.64,4.64,0,0,0,8.15,5.67V34.33A4.64,4.64,0,0,0,12.79,39H27.21a4.64,4.64,0,0,0,4.64-4.64V5.67A4.64,4.64,0,0,0,27.21,1Zm3.2,33.3a3.21,3.21,0,0,1-3.21,3.2H12.79a3.2,3.2,0,0,1-3.2-3.2V5.66a3.2,3.2,0,0,1,3.2-3.2H27.2a3.21,3.21,0,0,1,3.21,3.21Z"/></svg>