<svg id="Layer_1" data-name="Layer 1" xmlns="http://www.w3.org/2000/svg" viewBox="0 0 40 40"><defs><style>.cls-1{fill:#b70000;}</style></defs><path class="cls-1" d="M23.58,1.15H5.76A2.75,2.75,0,0,0,3,3.9V9.08a.93.93,0,0,0-.59.85v2.29a.88.88,0,0,0,.59.84v1.41a.93.93,0,0,0-.59.85V17.6a.9.9,0,0,0,.59.85V36.1a2.75,2.75,0,0,0,2.75,2.75H23.58a2.74,2.74,0,0,0,2.75-2.75V3.9A2.74,2.74,0,0,0,23.58,1.15ZM17.85,3.47h1.31v.58H17.85Zm-5.21,0h4.07v.58H12.64Zm2,34.44a1.2,1.2,0,0,1,0-2.4,1.2,1.2,0,0,1,0,2.4Zm9.86-3.63H4.8V5.81l19.75,0v28.5Z"/><path class="cls-1" d="M37,18.48c-1.32-.38-2.05-.18-2.26-.88-.41-1.38-.9-1.58-.55-2.14l1-1.46a.76.76,0,0,0-.08-.94l-1.18-1.17a.7.7,0,0,0-.9-.08l-1.47,1a.76.76,0,0,1-.76,0,7.23,7.23,0,0,0-1.4-.58.79.79,0,0,1-.53-.56L28.5,10a.72.72,0,0,0-.73-.58H27v4.88a5.74,5.74,0,0,1,0,11.48v4.88h.82A.75.75,0,0,0,28.5,30l.35-1.7a.79.79,0,0,1,.53-.56,7.82,7.82,0,0,0,1.37-.58.76.76,0,0,1,.76,0l1.47,1a.71.71,0,0,0,.91-.08l1.17-1.17a.75.75,0,0,0,.08-.94l-1-1.46a.77.77,0,0,1,0-.76,7.78,7.78,0,0,0,.55-1.38.81.81,0,0,1,.56-.53L37,21.52a.71.71,0,0,0,.58-.7V19.18A.68.68,0,0,0,37,18.48Z"/><path class="cls-1" d="M11.61,24.21a2.59,2.59,0,0,1-3,3.69l1.17-1.17-.44-1.32L8,25,6.84,26.15a2.59,2.59,0,0,1,3.69-3l2.75-2.78,1.06,1Z"/><path class="cls-1" d="M21.94,16.43a2.58,2.58,0,0,1-3,.47l-2.75,2.75-1-1,2.78-2.78a2.54,2.54,0,0,1,.44-3,2.59,2.59,0,0,1,2.54-.67L19.72,13.3l.44,1.32,1.32.43,1.17-1.17A2.61,2.61,0,0,1,21.94,16.43Z"/><polygon class="cls-1" points="16.41 20.73 15.45 21.7 9.1 15.35 8.37 15.35 7.25 13.39 8.07 12.54 10.06 13.65 10.06 14.38 16.41 20.73"/><path class="cls-1" d="M21.68,24.27,19.31,21.9a.7.7,0,1,1-1-1l-.65-.62L15,23l.64.64a.74.74,0,0,1,1,0,.73.73,0,0,1,0,1L19,27a1.91,1.91,0,0,0,2.69,0A2,2,0,0,0,21.68,24.27Zm-1.93,2.05-2-2,.41-.41,2,2Zm.88-.88-2-2,.41-.41,2,2Z"/></svg>