<svg id="Layer_1" data-name="Layer 1" xmlns="http://www.w3.org/2000/svg" viewBox="0 0 40 40"><defs><style>.cls-1{fill:#b70000;}</style></defs><path class="cls-1" d="M28.83,38.77H11.17a3.32,3.32,0,0,1-3.32-3.31V4.54a3.32,3.32,0,0,1,3.32-3.31H28.83a3.32,3.32,0,0,1,3.32,3.31V35.46A3.32,3.32,0,0,1,28.83,38.77ZM11.17,3.44a1.11,1.11,0,0,0-1.11,1.1V35.46a1.11,1.11,0,0,0,1.11,1.1H28.83a1.11,1.11,0,0,0,1.11-1.1V4.54a1.11,1.11,0,0,0-1.11-1.1Z"/><path class="cls-1" d="M23.31,7.85H20a1.11,1.11,0,0,1,0-2.21h3.31a1.11,1.11,0,1,1,0,2.21Z"/><path class="cls-1" d="M15.58,7.85h-.11l-.1,0-.11,0-.1,0-.1,0-.09,0-.09-.07-.08-.07-.07-.08-.07-.09-.05-.09s0-.07,0-.1l0-.1,0-.11s0-.07,0-.1V6.64s0-.07,0-.11l0-.1,0-.1a.93.93,0,0,1,0-.1l.05-.09.07-.09L14.8,6l.08-.08L15,5.83l.09,0,.1,0,.1,0,.11,0,.1,0a.81.81,0,0,1,.22,0l.11,0,.1,0,.11,0,.09,0,.1,0,.08.06.08.08.08.08.06.09.06.09a1,1,0,0,1,0,.1.3.3,0,0,1,0,.1l0,.1s0,.07,0,.11a.41.41,0,0,1,0,.11.45.45,0,0,1,0,.11s0,.07,0,.1l0,.11a.42.42,0,0,1,0,.1l0,.1-.06.09-.06.09-.08.08-.08.07a.27.27,0,0,1-.08.07l-.1,0-.09,0-.11,0-.1,0-.11,0Z"/><path class="cls-1" d="M31,34.36H9a1.11,1.11,0,1,1,0-2.21H31a1.11,1.11,0,1,1,0,2.21Z"/><path class="cls-1" d="M15.58,16.69a1.1,1.1,0,0,1-.78-.33l-2.21-2.2a1.12,1.12,0,0,1,0-1.57l2.21-2.21A1.11,1.11,0,1,1,16.36,12l-1.42,1.42,1.42,1.43a1.1,1.1,0,0,1,0,1.56A1.07,1.07,0,0,1,15.58,16.69Z"/><path class="cls-1" d="M24.42,16.61a1.06,1.06,0,0,1-.78-.32,1.1,1.1,0,0,1,0-1.56l1.42-1.43-1.42-1.43a1.09,1.09,0,0,1,0-1.56,1.1,1.1,0,0,1,1.56,0l2.21,2.21a1.1,1.1,0,0,1,0,1.56L25.2,16.29A1.09,1.09,0,0,1,24.42,16.61Z"/><path class="cls-1" d="M19.19,16.69a1,1,0,0,1-.38-.07,1.11,1.11,0,0,1-.66-1.42l1.62-4.41a1.11,1.11,0,1,1,2.08.76L20.23,16A1.12,1.12,0,0,1,19.19,16.69Z"/><path class="cls-1" d="M26.63,25.52H13.37a1.11,1.11,0,0,1,0-2.21H26.63a1.11,1.11,0,0,1,0,2.21Z"/><path class="cls-1" d="M26.63,29.94H13.37a1.11,1.11,0,0,1,0-2.21H26.63a1.11,1.11,0,0,1,0,2.21Z"/><path class="cls-1" d="M25.52,21.1H17.79a1.1,1.1,0,1,1,0-2.2h7.73a1.1,1.1,0,1,1,0,2.2Z"/></svg>