<?xml version="1.0" encoding="utf-8"?>
<!-- Generator: Adobe Illustrator 25.1.0, SVG Export Plug-In . SVG Version: 6.00 Build 0)  -->
<svg version="1.1" id="Layer_1" xmlns="http://www.w3.org/2000/svg" xmlns:xlink="http://www.w3.org/1999/xlink" x="0px" y="0px"
	 viewBox="0 0 111 111" style="enable-background:new 0 0 111 111;" xml:space="preserve">
<style type="text/css">
	.st0{fill:#E97777;}
	.st1{fill:#FFFFFF;}
</style>
<desc>Created with Fabric.js 4.2.0</desc>
<g id="_x31_228e5df-8335-490b-bb08-e9c99a225098" transform="matrix(1 0 0 1 540 540)">
</g>
<g id="container" transform="matrix(1 0 0 1 -224.89 0)">
</g>
<g id="icon_container" transform="matrix(1 0 0 1 15 0)">
</g>
<path class="st0" d="M92.3,111H18.7C8.4,111,0,102.6,0,92.3V18.7C0,8.4,8.4,0,18.7,0h73.7C102.6,0,111,8.4,111,18.7v73.7
	C111,102.6,102.6,111,92.3,111z"/>
<g>
	<g transform="matrix(1.6 0 0 1.6 -337.22 -4.4)">
		<g>
			<path vector-effect="non-scaling-stroke" class="st1" d="M250.8,49.5V57c-7.9,0-14.2-6.4-14.2-14.2l0,0V17.9h7.5v24.8l0,0
				C244.1,46.4,247.1,49.5,250.8,49.5z"/>
		</g>
	</g>
	<rect x="57.6" y="32.8" class="st1" width="12.1" height="12.1"/>
</g>
</svg>
