<svg id="Layer_1" data-name="Layer 1" xmlns="http://www.w3.org/2000/svg" viewBox="0 0 40 40"><defs><style>.cls-1{fill:#b70000;}</style></defs><path class="cls-1" d="M33.25,9.07H6.76a.4.4,0,0,0-.41.4C6.53,27.73,6,28,6.76,28H33.25a.4.4,0,0,0,.4-.4V9.47A.4.4,0,0,0,33.25,9.07Zm-.4,18.15H7.16V9.87H32.85Z"/><path class="cls-1" d="M36.69,29.43h-.82V7.25a.4.4,0,0,0-.41-.4H4.54a.4.4,0,0,0-.41.4V29.43H3.31a.4.4,0,0,0-.4.4,3.32,3.32,0,0,0,3.32,3.32H33.77a3.32,3.32,0,0,0,3.32-3.32A.4.4,0,0,0,36.69,29.43ZM4.94,7.65H35.06V29.43H4.94Zm28.83,24.7H6.23a2.53,2.53,0,0,1-2.49-2.12c.16,0,34.7,0,32.52,0A2.53,2.53,0,0,1,33.77,32.35Z"/><path class="cls-1" d="M12.3,20.13l1.28.22a6.53,6.53,0,0,0,.6,1.45l-.75,1.07a.4.4,0,0,0,.05.51l1.67,1.69a.41.41,0,0,0,.52,0l1.07-.74a7,7,0,0,0,1.45.59l.23,1.29a.4.4,0,0,0,.39.33h2.38a.4.4,0,0,0,.39-.33L21.81,25a6.62,6.62,0,0,0,1.44-.59l1.08.74a.39.39,0,0,0,.51,0l1.68-1.69a.4.4,0,0,0,.05-.51l-.75-1.07a7,7,0,0,0,.6-1.45l1.28-.22a.4.4,0,0,0,.34-.4V17.36a.4.4,0,0,0-.33-.39l-1.29-.24a6.45,6.45,0,0,0-.6-1.44l.75-1.08a.4.4,0,0,0-.05-.51L24.84,12a.4.4,0,0,0-.51,0l-1.08.74a6.23,6.23,0,0,0-1.44-.59l-.23-1.29a.39.39,0,0,0-.39-.33H18.81a.39.39,0,0,0-.39.33l-.23,1.29a6.58,6.58,0,0,0-1.45.59L15.66,12a.4.4,0,0,0-.51,0L13.48,13.7a.4.4,0,0,0-.05.51l.75,1.08a6.26,6.26,0,0,0-.6,1.44L12.3,17a.42.42,0,0,0-.33.4v2.37A.4.4,0,0,0,12.3,20.13Zm.47-2.43,1.2-.22a.39.39,0,0,0,.32-.31A5.47,5.47,0,0,1,15,15.48.39.39,0,0,0,15,15l-.7-1,1.2-1.2,1,.7a.41.41,0,0,0,.44,0,5.47,5.47,0,0,1,1.69-.69.41.41,0,0,0,.3-.32l.22-1.22h1.7l.22,1.22a.38.38,0,0,0,.3.32,5.29,5.29,0,0,1,1.69.69.41.41,0,0,0,.44,0l1-.7L25.72,14,25,15a.41.41,0,0,0,0,.44,5.79,5.79,0,0,1,.71,1.69.4.4,0,0,0,.31.31l1.21.21V19.4L26,19.61a.4.4,0,0,0-.32.3,5.77,5.77,0,0,1-.7,1.7.41.41,0,0,0,0,.44l.71,1-1.21,1.21-1-.7a.39.39,0,0,0-.44,0,5.58,5.58,0,0,1-1.69.69.38.38,0,0,0-.3.32l-.22,1.22h-1.7l-.22-1.22a.4.4,0,0,0-.3-.32,5.63,5.63,0,0,1-1.69-.69.41.41,0,0,0-.44,0l-1,.71-1.2-1.22.7-1a.39.39,0,0,0,0-.44,5.36,5.36,0,0,1-.7-1.7.41.41,0,0,0-.32-.3l-1.21-.21Z"/><path class="cls-1" d="M20,23.57h0a5,5,0,1,0-5-5A5,5,0,0,0,20,23.57Zm-1.25-9.06a5.54,5.54,0,0,0-.45,1.27H16.81A4.49,4.49,0,0,1,18.75,14.51Zm2.49,8.07a5.62,5.62,0,0,0,.46-1.28h1.48A4.19,4.19,0,0,1,21.24,22.58ZM20,14.32h0c.24,0,.61.51.87,1.46H19.12C19.39,14.83,19.76,14.32,20,14.32Zm3.18,1.46H21.7a5.53,5.53,0,0,0-.46-1.27A4.12,4.12,0,0,1,23.18,15.78Zm-3.18,7h0c-.24,0-.6-.51-.87-1.46h1.75C20.61,22.25,20.24,22.76,20,22.76Zm-1.25-.18a4.24,4.24,0,0,1-1.93-1.28H18.3A5.63,5.63,0,0,0,18.75,22.58ZM19,20.5a9.83,9.83,0,0,1-.15-1.56h2.4a11.16,11.16,0,0,1-.15,1.56ZM22,18.94h2.2a4.11,4.11,0,0,1-.47,1.56H21.86A11.17,11.17,0,0,0,22,18.94Zm2.2-.8H22a11.31,11.31,0,0,0-.14-1.56h1.87A4.16,4.16,0,0,1,24.2,18.14Zm-3.15-1.56a11.48,11.48,0,0,1,.15,1.56H18.8A10.07,10.07,0,0,1,19,16.58ZM18,18.14H15.8a4.15,4.15,0,0,1,.46-1.56h1.88A13.09,13.09,0,0,0,18,18.14Zm0,.8a12.89,12.89,0,0,0,.15,1.56H16.26a4.23,4.23,0,0,1-.46-1.56Z"/><path class="cls-1" d="M21.29,30.89H18.71a.4.4,0,1,0,0,.8h2.58a.4.4,0,1,0,0-.8Z"/></svg>