<svg id="Layer_1" data-name="Layer 1" xmlns="http://www.w3.org/2000/svg" viewBox="0 0 40 40"><defs><style>.cls-1{fill:#b70000;}</style></defs><path class="cls-1" d="M36.69,4.54H3.31a.62.62,0,0,0-.62.62h0V34.84a.62.62,0,0,0,.62.62H36.69a.62.62,0,0,0,.62-.62h0V5.16a.62.62,0,0,0-.62-.62Zm-.62,29.68H3.93V10.73H36.07Zm0-24.73H3.93V5.78H36.07ZM5.16,7.64A.62.62,0,0,1,5.78,7H13.2a.62.62,0,1,1,0,1.23H5.78a.61.61,0,0,1-.62-.61Zm28.44,0a.62.62,0,1,1,.62.61A.62.62,0,0,1,33.6,7.64ZM6.4,22.47A.62.62,0,0,1,7,21.85h3.71a.62.62,0,0,1,0,1.24H7a.62.62,0,0,1-.62-.62Zm0,3.09A.61.61,0,0,1,7,25h8a.62.62,0,1,1,0,1.23H7a.62.62,0,0,1-.62-.62ZM6.4,28A.62.62,0,0,1,7,27.42h8a.62.62,0,1,1,0,1.24H7A.62.62,0,0,1,6.4,28ZM28,23.09A2.47,2.47,0,0,0,27.42,28v1.94a.62.62,0,1,0,1.24,0V28A2.47,2.47,0,0,0,28,23.09Zm0,3.71a1.24,1.24,0,1,1,1.23-1.24A1.23,1.23,0,0,1,28,26.8ZM23.09,33H33a1.23,1.23,0,0,0,1.24-1.23v-9.9A1.23,1.23,0,0,0,33,20.62H25V18.76a3.09,3.09,0,1,1,6.18,0,.62.62,0,0,0,.62.62.61.61,0,0,0,.61-.62,4.33,4.33,0,0,0-8.65,0v1.86h-.62a1.24,1.24,0,0,0-1.24,1.23v9.9A1.24,1.24,0,0,0,23.09,33Zm0-11.13H33v9.9H23.09ZM6.58,16.73a.63.63,0,0,1,0-.88h0l2.47-2.47a.62.62,0,0,1,.88.87l-2,2,2,2a.6.6,0,0,1,0,.86h0a.63.63,0,0,1-.88,0Zm4.16,1.88L12,13.67a.61.61,0,0,1,.75-.45.62.62,0,0,1,.45.75h0l-1.24,4.94a.61.61,0,0,1-.75.45A.62.62,0,0,1,10.74,18.61ZM14,18.33l2-2-2-2a.62.62,0,0,1,0-.87.63.63,0,0,1,.88,0l2.47,2.47a.63.63,0,0,1,0,.88h0L14.88,19.2a.63.63,0,0,1-.88,0,.61.61,0,0,1,0-.86Z"/></svg>