<svg id="Layer_1" data-name="Layer 1" xmlns="http://www.w3.org/2000/svg" viewBox="0 0 40 40"><defs><style>.cls-1{fill:#b70000;}</style></defs><path class="cls-1" d="M6.11,29.94h9.06l-.69,4.79a2.78,2.78,0,0,0-2.43,2.76v.39H28v-.39a2.78,2.78,0,0,0-2.43-2.76l-.69-4.79h9.08a2.41,2.41,0,0,0,2.38-2.39V9.29a2.4,2.4,0,0,0-2.38-2.4h0a.39.39,0,0,0-.4.39.4.4,0,0,0,.4.4A1.61,1.61,0,0,1,35.5,9.29V25.17H4.5V9.29A1.61,1.61,0,0,1,6.09,7.68a.4.4,0,0,0,.4-.4.39.39,0,0,0-.4-.39,2.4,2.4,0,0,0-2.38,2.4V27.55A2.4,2.4,0,0,0,6.11,29.94Zm21,7.15H12.89a2,2,0,0,1,1.94-1.59H25.17A2,2,0,0,1,27.11,37.09Zm-2.4-2.39H15.29L16,29.94H24ZM35.5,26v1.59a1.61,1.61,0,0,1-1.59,1.59H6.11A1.61,1.61,0,0,1,4.5,27.55V26Z"/><path class="cls-1" d="M32.72,24.37a.39.39,0,0,0,.39-.4V2.12H6.89V24a.39.39,0,0,0,.39.4.4.4,0,0,0,.4-.4V5.3H32.32V24A.4.4,0,0,0,32.72,24.37ZM7.68,4.5V2.91H32.32V4.5Z"/><rect class="cls-1" x="8.47" y="3.31" width="0.79" height="0.79"/><rect class="cls-1" x="10.06" y="3.31" width="0.79" height="0.79"/><rect class="cls-1" x="11.65" y="3.31" width="0.79" height="0.79"/><path class="cls-1" d="M16.42,11.26v-4A.38.38,0,0,0,16,6.89h-4a.39.39,0,0,0-.4.39V21.19a2.24,2.24,0,0,0,.06.52.35.35,0,0,0,0,.12h0a.5.5,0,0,0,0,.13,0,0,0,0,0,0,0,.16.16,0,0,0,0,.08v0a.58.58,0,0,0,0,.11h0l.07.14v0l0,.06a.56.56,0,0,0,0,.08v0a3.88,3.88,0,0,0,.26.31l.19.17.07,0,.13.09h0a1.65,1.65,0,0,0,.26.14H13l.06,0h0l.1,0,.14,0,.08,0h0a3.18,3.18,0,0,0,.61.14H28a.4.4,0,0,0,.4-.4v-4a.4.4,0,0,0-.4-.4H19.8l.14-.15h0l2.81-2.81L25.56,13a.39.39,0,0,0,0-.56L22.75,9.67a.39.39,0,0,0-.56,0l-2.81,2.81-2.81,2.81h0l-.14.14V11.26ZM13.73,22.75h0a1.52,1.52,0,0,1-.28-.09h0a1.23,1.23,0,0,1-.25-.14l-.05,0a1.35,1.35,0,0,1-.39-.4s0,0,0,0a.94.94,0,0,1-.12-.22l0-.06a2.09,2.09,0,0,1-.08-.23,0,0,0,0,0,0-.05v-.3h0V19.6h3.18v1.59a1.61,1.61,0,0,1-.45,1.12h0a1.92,1.92,0,0,1-.48.32h0a1.81,1.81,0,0,1-.56.12h-.08A1.09,1.09,0,0,1,13.73,22.75Zm1.9-7.92H12.45V11.65h3.18Zm0,4H12.45V15.63h3.18ZM12.45,7.68h3.18v3.18H12.45Zm15.1,15.1H24.37V19.6h3.18Zm-4,0H20.4V19.6h3.18Zm-4-3.18v3.18H16.42v-.6l.71-.71h0L19,19.6Zm2.87-9.09,2.25,2.25L22.47,15l-2.25-2.25Zm-2.81,2.81,2.25,2.25-2.25,2.25-2.25-2.25Zm-2.81,2.82,2.25,2.24-.54.54h0l-1.71,1.71-.43-.42v-1h0V16.56Z"/><circle class="cls-1" cx="14.04" cy="21.19" r="0.6"/></svg>