<svg id="Layer_1" data-name="Layer 1" xmlns="http://www.w3.org/2000/svg" viewBox="0 0 40 40"><defs><style>.cls-1{fill:#b70000;}</style></defs><path class="cls-1" d="M34.64,37.06H5.36a2.42,2.42,0,0,1-2.42-2.42V5.36A2.42,2.42,0,0,1,5.36,2.94H34.64a2.42,2.42,0,0,1,2.42,2.42V34.64A2.42,2.42,0,0,1,34.64,37.06ZM5.36,4.31A1,1,0,0,0,4.31,5.36V34.64a1,1,0,0,0,1.05,1H34.64a1,1,0,0,0,1-1V5.36a1,1,0,0,0-1-1.05Z"/><path class="cls-1" d="M34.64,37.06H5.36a2.43,2.43,0,0,1-2.42-2.42V10.55a.68.68,0,0,1,.68-.68H36.38a.68.68,0,0,1,.68.68V34.64A2.43,2.43,0,0,1,34.64,37.06ZM4.31,11.23V34.64a1,1,0,0,0,1.05,1H34.64a1,1,0,0,0,1-1V11.23Z"/><path class="cls-1" d="M30.8,9.13a2,2,0,1,1,2.05-2A2,2,0,0,1,30.8,9.13Zm0-2.73a.69.69,0,1,0,.68.69A.68.68,0,0,0,30.8,6.4Z"/><path class="cls-1" d="M24.27,9.13a2,2,0,1,1,2.05-2A2,2,0,0,1,24.27,9.13Zm0-2.73a.69.69,0,1,0,.69.69A.69.69,0,0,0,24.27,6.4Z"/><path class="cls-1" d="M21.79,28.67H13.66a.69.69,0,0,1-.64-.46l-2.56-7.16a.71.71,0,0,1,.08-.62.67.67,0,0,1,.56-.29H25a.67.67,0,0,1,.57.31.68.68,0,0,1,.05.65l-3.19,7.16A.69.69,0,0,1,21.79,28.67ZM14.14,27.3h7.21l2.59-5.8H12.07Z"/><path class="cls-1" d="M25,21.5a.67.67,0,0,1-.28-.06.69.69,0,0,1-.35-.9l.84-1.88a.7.7,0,0,1,.63-.4H28.9a.68.68,0,0,1,0,1.36H26.27l-.66,1.48A.68.68,0,0,1,25,21.5Z"/><path class="cls-1" d="M15.8,31.6H14.43a.68.68,0,1,1,0-1.36H15.8a.68.68,0,1,1,0,1.36Z"/><path class="cls-1" d="M21.25,31.6H19.89a.68.68,0,0,1,0-1.36h1.36a.68.68,0,1,1,0,1.36Z"/></svg>