<svg id="Layer_1" data-name="Layer 1" xmlns="http://www.w3.org/2000/svg" viewBox="0 0 40 40"><defs><style>.cls-1{fill:#b70000;}</style></defs><path class="cls-1" d="M35.16,3.76H4.85a2,2,0,0,0-2,2h0V29.17a2,2,0,0,0,2,2H23.91a1.6,1.6,0,0,0,1.54,1.17H28a.31.31,0,0,1,.32.31v.17a.37.37,0,0,1-.19.29c-1.79,1-.86,3.1,1.54,3.1s3.32-2.12,1.54-3.1a.37.37,0,0,1-.19-.29v-.17a.31.31,0,0,1,.31-.31h2.51a1.59,1.59,0,0,0,1.54-1.18,2,2,0,0,0,1.85-2V5.79A2,2,0,0,0,35.16,3.76Zm-31.62,2A1.31,1.31,0,0,1,4.85,4.47H35.16a1.32,1.32,0,0,1,1.3,1.32V8H3.54ZM9.08,30.48V25.69h1.1v4.79ZM10.18,25H9.09V21h1.1Zm23.6,6.68H31.27a1,1,0,0,0-1,1v.17a1.06,1.06,0,0,0,.56.91c1.23.67.29,1.77-1.19,1.77s-2.41-1.1-1.2-1.77a1.06,1.06,0,0,0,.56-.91v-.17a1,1,0,0,0-1-1h-2.5a.88.88,0,0,1-.88-.88v-2.7a.3.3,0,0,1,.3-.31H25a.37.37,0,0,1,.29.19c1,1.76,3.11.86,3.11-1.54s-2.13-3.31-3.11-1.55a.34.34,0,0,1-.29.19h-.17a.31.31,0,0,1-.31-.31h0V22a.88.88,0,0,1,.88-.88h2.5a1,1,0,0,0,1-1h0V20a1,1,0,0,0-.54-.9s-.58-.29-.58-.75c0-.89,2-1.41,3.07-.67a.82.82,0,0,1,.44.67c0,.46-.54.72-.57.75a1.07,1.07,0,0,0-.55.9v.17a1,1,0,0,0,1,1h2.51a.88.88,0,0,1,.89.88h0v2.7a.31.31,0,0,1-.31.31h-.17a.32.32,0,0,1-.28-.19c-1-1.79-3.12-.86-3.12,1.54s2.15,3.3,3.12,1.55a.34.34,0,0,1,.28-.19h.17a.31.31,0,0,1,.31.31v2.7a.88.88,0,0,1-.89.88ZM30.92,16.83c-1.55-.68-3.76,0-3.76,1.48,0,.05,1.39,0-18.06,0V11.66H30.94Zm5.54,12.34a1.33,1.33,0,0,1-1.07,1.3v-2.4a1,1,0,0,0-1-1h-.17a1.06,1.06,0,0,0-.91.56c-.67,1.21-1.77.3-1.77-1.2s1.1-2.39,1.77-1.19a1.06,1.06,0,0,0,.91.56h.17a1,1,0,0,0,1-1V22a1.6,1.6,0,0,0-1.6-1.6h-2.5a.3.3,0,0,1-.32-.3h0V20a.34.34,0,0,1,.19-.28,1.44,1.44,0,0,0,.48-2.38v-6a.36.36,0,0,0-.35-.36H8.74a.36.36,0,0,0-.36.36V18.7a.36.36,0,0,0,.36.36H27.38c.41.61.88.56.88.9v.17a.31.31,0,0,1-.31.31H25.44A1.6,1.6,0,0,0,23.85,22v.21H19.37a.36.36,0,0,0,0,.72h4.48v1.79a1,1,0,0,0,1,1h.17a1,1,0,0,0,.91-.55c.67-1.21,1.77-.31,1.77,1.19s-1.1,2.4-1.77,1.2a1.06,1.06,0,0,0-.91-.56h-.17a1,1,0,0,0-1,1V30.5H10.9V20.63a.36.36,0,0,0-.36-.36H8.73a.36.36,0,0,0-.36.36v9.85H4.85a1.3,1.3,0,0,1-1.31-1.31h0V8.71H36.46Z"/><path class="cls-1" d="M31.61,5.88h-.16a.36.36,0,0,0,0,.71h.15a.36.36,0,1,0,0-.71Z"/><path class="cls-1" d="M33.17,5.88H33a.36.36,0,0,0,0,.71h.15a.36.36,0,1,0,0-.71Z"/><path class="cls-1" d="M34.73,5.88h-.14a.36.36,0,1,0,0,.71h.14a.36.36,0,1,0,0-.71Z"/><path class="cls-1" d="M14.32,5.88H5.38a.36.36,0,1,0,0,.71h8.94a.36.36,0,1,0,0-.71Z"/><path class="cls-1" d="M12.43,21h9.89a.36.36,0,1,0,0-.71H12.43a.36.36,0,0,0,0,.71Z"/><path class="cls-1" d="M12.43,28.9h7.12a.36.36,0,0,0,0-.71H12.43a.36.36,0,0,0,0,.71Z"/><path class="cls-1" d="M12.43,26.93h4.95a.36.36,0,0,0,0-.71H12.43a.36.36,0,0,0,0,.71Z"/><path class="cls-1" d="M12.43,23h4.76a.36.36,0,0,0,0-.72H12.43a.36.36,0,0,0,0,.72Z"/><path class="cls-1" d="M12.43,25h1.13a.36.36,0,0,0,0-.72H12.45a.36.36,0,0,0,0,.72Z"/><path class="cls-1" d="M22.32,28.19H21.07a.36.36,0,0,0,0,.71h1.25a.36.36,0,0,0,0-.71Z"/><path class="cls-1" d="M15.14,24.59a.36.36,0,0,0,.35.36H21.7a.36.36,0,0,0,0-.72H15.49A.36.36,0,0,0,15.14,24.59Z"/><path class="cls-1" d="M19,26.58a.36.36,0,0,0,.36.35h4a.36.36,0,1,0,0-.71h-4A.36.36,0,0,0,19,26.58Z"/></svg>