<svg id="Layer_1" data-name="Layer 1" xmlns="http://www.w3.org/2000/svg" viewBox="0 0 40 40"><defs><style>.cls-1{fill:#b70000;}</style></defs><path class="cls-1" d="M33.66,14.6a10.21,10.21,0,0,0-1.25-3l2-2.79a.58.58,0,0,0-.06-.71L32.24,6a.48.48,0,0,0-.65,0L28.8,8a11.34,11.34,0,0,0-3-1.26l-.54-3.44a.55.55,0,0,0-.55-.44h-3a.58.58,0,0,0-.54.44L20.6,6.73A9.85,9.85,0,0,0,17.6,8L14.81,6a.45.45,0,0,0-.66,0L12,8.15a.57.57,0,0,0,0,.71l2,2.79a11,11,0,0,0-1.26,3l-3.44.54a.54.54,0,0,0-.44.55v3a.58.58,0,0,0,.44.54l3.44.55a14.84,14.84,0,0,0,1,2.73.55.55,0,0,0,.88.17l1.69-1.7a.49.49,0,0,0,.11-.6,10.2,10.2,0,0,1-.6-3.22,7.38,7.38,0,1,1,7.38,7.37A9.94,9.94,0,0,1,19.89,24a.49.49,0,0,0-.6.11L17.65,25.7a.66.66,0,0,0-.16.49.36.36,0,0,0,.27.38,14,14,0,0,0,2.84,1.1l.55,3.44a.53.53,0,0,0,.54.44h3a.6.6,0,0,0,.55-.44l.54-3.44a10.57,10.57,0,0,0,3-1.26l2.79,2a.59.59,0,0,0,.71-.05l2.13-2.14a.57.57,0,0,0,0-.71l-2.07-2.78a11.45,11.45,0,0,0,1.25-3l3.45-.55a.52.52,0,0,0,.43-.54v-3a.59.59,0,0,0-.43-.55Zm2.79,3.61-3.33.55a.58.58,0,0,0-.44.43,9,9,0,0,1-1.37,3.28.59.59,0,0,0,0,.6l2,2.74-1.47,1.47-2.74-2a.48.48,0,0,0-.6,0,9.65,9.65,0,0,1-3.28,1.36.61.61,0,0,0-.44.44l-.49,3.28H22.19l-.5-3.34a.57.57,0,0,0-.43-.43A11.68,11.68,0,0,1,19,25.92l.87-.88a10,10,0,0,0,3.33.6,8.47,8.47,0,1,0-8.47-8.47,11.15,11.15,0,0,0,.55,3.28l-.87.88a12.16,12.16,0,0,1-.66-2.14.6.6,0,0,0-.44-.43L10,18.21V16.13l3.33-.49a.6.6,0,0,0,.44-.44,8.74,8.74,0,0,1,1.37-3.28.59.59,0,0,0,0-.6l-2-2.73,1.47-1.47,2.74,2a.48.48,0,0,0,.6,0,9.05,9.05,0,0,1,3.33-1.36.61.61,0,0,0,.44-.44L22.19,4h2l.49,3.33a.58.58,0,0,0,.44.44,8.74,8.74,0,0,1,3.28,1.37.59.59,0,0,0,.6,0l2.73-2,1.48,1.48-2,2.73a.48.48,0,0,0,0,.6,9.67,9.67,0,0,1,1.37,3.28.58.58,0,0,0,.43.44l3.34.49v2Z"/><path class="cls-1" d="M8.19,36.14l6.45-6.45a1.79,1.79,0,0,0,.44-1.64l1.31-1.31a.53.53,0,0,0,0-.77l8-8.47L25.68,17a.57.57,0,0,0,.33-.38L26.5,15a.52.52,0,0,0-.16-.55l-.87-.82a.53.53,0,0,0-.55-.16L23.28,14a.5.5,0,0,0-.33.32l-.49,1.32-8.42,8-.16-.17a.53.53,0,0,0-.77,0L11.8,24.66A1.78,1.78,0,0,0,9.89,25L3.44,31.44a3.34,3.34,0,1,0,4.75,4.7ZM23.28,16.3a.31.31,0,0,0,.11-.22l.44-1.15,1-.33.5.49-.33,1-1.15.44c-.05.06-.16.06-.22.11l-8,8.53-.87-.88Zm-9.84,8.25,1.81,1.8-.77.77-1.8-1.8ZM4.26,32.2l6.45-6.45a.59.59,0,0,1,.82,0l2.4,2.41a.59.59,0,0,1,0,.82l-6.5,6.39a2.31,2.31,0,0,1-3.23,0A2.2,2.2,0,0,1,4.26,32.2Z"/><path class="cls-1" d="M6.06,34.28l6.23-6.23a.53.53,0,0,0,0-.77.52.52,0,0,0-.76,0L5.3,33.51a.53.53,0,0,0,0,.77A.52.52,0,0,0,6.06,34.28Z"/></svg>