<?xml version="1.0"?>
<svg xmlns="http://www.w3.org/2000/svg" xmlns:xlink="http://www.w3.org/1999/xlink" xmlns:svgjs="http://svgjs.com/svgjs" version="1.1" width="512" height="512" x="0" y="0" viewBox="0 0 511.999 511.999" style="enable-background:new 0 0 512 512" xml:space="preserve" class=""><g>
<g xmlns="http://www.w3.org/2000/svg">
	<g>
		<path d="M214.803,470.21C103.747,460.609,20,412.588,20,358.509c0-12.642,4.524-25.143,13.447-37.155    c3.293-4.434,2.369-10.697-2.065-13.991c-4.434-3.291-10.697-2.367-13.991,2.065C5.851,324.965,0,341.478,0,358.509    c0,32.966,22.535,64.417,63.455,88.561c38.583,22.766,91.722,38.061,149.626,43.066c0.293,0.025,0.584,0.038,0.873,0.038    c5.133,0,9.501-3.931,9.952-9.14C224.38,475.532,220.306,470.686,214.803,470.21z" fill="#ffffff" data-original="#000000" style="" class=""/>
	</g>
</g>
<g xmlns="http://www.w3.org/2000/svg">
	<g>
		<path d="M258.5,471.965l-0.596,0.002c-5.523,0.03-9.976,4.531-9.946,10.054c0.03,5.505,4.501,9.946,9.999,9.946    c0.018,0,0.037,0,0.055,0l0.487-0.002c5.523,0,10-4.478,10-10C268.499,476.443,264.023,471.965,258.5,471.965z" fill="#ffffff" data-original="#000000" style="" class=""/>
	</g>
</g>
<g xmlns="http://www.w3.org/2000/svg">
	<g>
		<path d="M498.665,315.302c5.365-0.18,9.662-4.575,9.662-9.983c0-5.522-4.477-10-10-10h-20.145c-5.523,0-10,4.478-10,10v20.145    c0,5.522,4.477,10,10,10c2.851,0,5.417-1.199,7.238-3.113c4.37,8.575,6.579,17.34,6.579,26.159    c0,54.09-83.767,102.112-194.849,111.706c-5.502,0.476-9.578,5.321-9.103,10.823c0.45,5.21,4.818,9.141,9.952,9.141    c0.288,0,0.579-0.013,0.872-0.038c57.915-5.002,111.064-20.295,149.658-43.062c40.929-24.146,63.47-55.601,63.47-88.57    C512,343.633,507.514,329.112,498.665,315.302z" fill="#ffffff" data-original="#000000" style="" class=""/>
	</g>
</g>
<g xmlns="http://www.w3.org/2000/svg">
	<g>
		<path d="M256,101.541c-5.523,0-10,4.478-10,10v21.828c0,5.522,4.477,10,10,10s10-4.478,10-10v-21.828    C266,106.019,261.523,101.541,256,101.541z" fill="#ffffff" data-original="#000000" style="" class=""/>
	</g>
</g>
<g xmlns="http://www.w3.org/2000/svg">
	<g>
		<path d="M428.088,117.842L261,21.373c-3.094-1.787-6.906-1.787-10,0L83.912,117.842c-3.094,1.786-5,5.088-5,8.66v192.937    c0,3.572,1.905,6.874,5,8.66L251,424.568c1.547,0.894,3.273,1.34,5,1.34s3.453-0.446,5-1.34l167.088-96.469    c3.094-1.786,5-5.088,5-8.66V126.502C433.088,122.93,431.182,119.628,428.088,117.842z M246,398.587l-137.088-79.148l9.457-5.46    c4.783-2.762,6.422-8.877,3.66-13.66c-2.761-4.783-8.877-6.423-13.66-3.66l-9.458,5.46v-158.29l137.007,79.189l-17.172,9.914    c-4.783,2.762-6.422,8.877-3.66,13.66c1.852,3.208,5.213,5.002,8.669,5.002c1.696,0,3.416-0.433,4.991-1.342L246,240.291V398.587z     M256,176.181c-5.523,0-10,4.478-10,10v19.563l-137.093-79.239L246,47.354v11.375c0,5.522,4.477,10,10,10s10-4.478,10-10V47.354    l137.093,79.151L266,205.744v-19.563C266,180.659,261.523,176.181,256,176.181z M413.088,302.119l-9.458-5.46    c-4.783-2.76-10.898-1.122-13.66,3.66c-2.762,4.783-1.123,10.898,3.66,13.66l9.457,5.46L266,398.587V240.291l17.254,9.961    c1.575,0.909,3.294,1.342,4.991,1.342c3.456,0,6.817-1.794,8.669-5.002c2.762-4.783,1.123-10.898-3.66-13.66l-17.172-9.914    l137.006-79.189V302.119z" fill="#ffffff" data-original="#000000" style="" class=""/>
	</g>
</g>
<g xmlns="http://www.w3.org/2000/svg">
	<g>
		<path d="M357.894,270.252l-18.904-10.914c-4.784-2.761-10.898-1.122-13.66,3.66c-2.762,4.783-1.122,10.899,3.66,13.66    l18.904,10.914c1.575,0.909,3.294,1.342,4.991,1.342c3.456,0,6.817-1.794,8.669-5.002    C364.316,279.129,362.677,273.014,357.894,270.252z" fill="#ffffff" data-original="#000000" style="" class=""/>
	</g>
</g>
<g xmlns="http://www.w3.org/2000/svg">
	<g>
		<path d="M186.67,262.998c-2.762-4.783-8.877-6.422-13.66-3.66l-18.904,10.914c-4.783,2.762-6.422,8.877-3.66,13.66    c1.852,3.208,5.213,5.002,8.669,5.002c1.696,0,3.416-0.433,4.991-1.342l18.904-10.914    C187.793,273.896,189.432,267.781,186.67,262.998z" fill="#ffffff" data-original="#000000" style="" class=""/>
	</g>
</g>
<g xmlns="http://www.w3.org/2000/svg">
</g>
<g xmlns="http://www.w3.org/2000/svg">
</g>
<g xmlns="http://www.w3.org/2000/svg">
</g>
<g xmlns="http://www.w3.org/2000/svg">
</g>
<g xmlns="http://www.w3.org/2000/svg">
</g>
<g xmlns="http://www.w3.org/2000/svg">
</g>
<g xmlns="http://www.w3.org/2000/svg">
</g>
<g xmlns="http://www.w3.org/2000/svg">
</g>
<g xmlns="http://www.w3.org/2000/svg">
</g>
<g xmlns="http://www.w3.org/2000/svg">
</g>
<g xmlns="http://www.w3.org/2000/svg">
</g>
<g xmlns="http://www.w3.org/2000/svg">
</g>
<g xmlns="http://www.w3.org/2000/svg">
</g>
<g xmlns="http://www.w3.org/2000/svg">
</g>
<g xmlns="http://www.w3.org/2000/svg">
</g>
</g></svg>
