<?xml version="1.0"?>
<svg xmlns="http://www.w3.org/2000/svg" xmlns:xlink="http://www.w3.org/1999/xlink" xmlns:svgjs="http://svgjs.com/svgjs" version="1.1" width="512" height="512" x="0" y="0" viewBox="0 0 512 512" style="enable-background:new 0 0 512 512" xml:space="preserve"><g><path xmlns="http://www.w3.org/2000/svg" d="m153.070312 264.273438c-2.191406 0-4.402343-.429688-6.515624-1.304688l-18.558594-7.691406-18.554688 7.691406c-5.496094 2.273438-11.648437 1.546875-16.460937-1.949219-4.808594-3.496093-7.402344-9.125-6.933594-15.054687l1.578125-20.007813-13.039062-15.257812c-3.867188-4.519531-5.074219-10.597657-3.238282-16.253907 1.839844-5.65625 6.390625-9.863281 12.171875-11.25l19.527344-4.683593 10.492187-17.121094c3.105469-5.070313 8.511719-8.09375 14.457032-8.09375 5.945312 0 11.351562 3.023437 14.457031 8.09375l10.492187 17.121094 19.527344 4.683593c5.78125 1.386719 10.332032 5.59375 12.171875 11.25 1.835938 5.65625.628907 11.734376-3.238281 16.253907l-13.039062 15.257812 1.578124 20.011719c.46875 5.929688-2.125 11.554688-6.9375 15.050781-2.957031 2.148438-6.425781 3.253907-9.9375 3.253907zm-25.074218-29.820313c1.304687 0 2.605468.253906 3.828125.761719l17.792969 7.375-1.511719-19.191406c-.210938-2.648438.640625-5.265626 2.367187-7.285157l12.503906-14.628906-18.722656-4.492187c-2.582031-.617188-4.8125-2.234376-6.195312-4.5l-10.0625-16.417969-10.058594 16.417969c-1.386719 2.265624-3.617188 3.882812-6.195312 4.5l-18.722657 4.492187 12.503907 14.628906c1.726562 2.019531 2.578124 4.640625 2.367187 7.285157l-1.511719 19.191406 17.792969-7.371094c1.222656-.511719 2.523437-.765625 3.824219-.765625zm-2.59375-62.613281c0 .003906.003906.003906.003906.007812zm0 0" fill="#ffffff" data-original="#000000" style=""/><path xmlns="http://www.w3.org/2000/svg" d="m281.074219 264.273438c-2.195313 0-4.40625-.429688-6.519531-1.308594l-18.554688-7.6875-18.554688 7.6875c-5.492187 2.277344-11.648437 1.546875-16.457031-1.945313-4.8125-3.496093-7.40625-9.125-6.9375-15.050781l1.578125-20.011719-13.039062-15.257812c-3.867188-4.519531-5.078125-10.597657-3.238282-16.253907 1.835938-5.660156 6.386719-9.863281 12.171876-11.253906l19.527343-4.679687 10.488281-17.121094c3.109376-5.070313 8.515626-8.097656 14.460938-8.097656s11.351562 3.027343 14.457031 8.097656l10.488281 17.121094 19.527344 4.679687c5.785156 1.390625 10.335938 5.59375 12.175782 11.253906 1.835937 5.65625.625 11.734376-3.238282 16.253907l-13.042968 15.257812 1.582031 20.007813c.464843 5.929687-2.128907 11.558594-6.9375 15.054687-2.960938 2.148438-6.429688 3.253907-9.9375 3.253907zm-25.074219-29.820313c1.300781 0 2.601562.253906 3.828125.761719l17.792969 7.375-1.515625-19.191406c-.207031-2.648438.644531-5.265626 2.367187-7.285157l12.503906-14.628906-18.722656-4.492187c-2.578125-.617188-4.808594-2.234376-6.195312-4.5l-10.058594-16.417969-10.0625 16.417969c-1.382812 2.265624-3.613281 3.882812-6.191406 4.5l-18.726563 4.492187 12.507813 14.628906c1.722656 2.019531 2.574218 4.640625 2.367187 7.285157l-1.515625 19.191406 17.792969-7.375c1.226563-.507813 2.527344-.761719 3.828125-.761719zm-2.59375-62.613281c0 .003906 0 .003906.003906.007812zm0 0" fill="#ffffff" data-original="#000000" style=""/><path xmlns="http://www.w3.org/2000/svg" d="m409.074219 264.273438c-2.191407 0-4.402344-.429688-6.515625-1.308594l-18.558594-7.6875-18.554688 7.6875c-5.492187 2.277344-11.644531 1.546875-16.457031-1.945313-4.8125-3.496093-7.402343-9.125-6.9375-15.050781l1.578125-20.011719-13.039062-15.257812c-3.867188-4.519531-5.074219-10.597657-3.238282-16.253907 1.839844-5.660156 6.390626-9.863281 12.175782-11.253906l19.523437-4.679687 10.492188-17.121094c3.105469-5.070313 8.511719-8.097656 14.457031-8.097656s11.351562 3.027343 14.457031 8.097656l10.492188 17.121094 19.527343 4.679687c5.78125 1.390625 10.332032 5.59375 12.171876 11.253906 1.835937 5.65625.628906 11.734376-3.238282 16.253907l-13.039062 15.257812 1.578125 20.007813c.46875 5.929687-2.125 11.558594-6.9375 15.054687-2.957031 2.148438-6.425781 3.253907-9.9375 3.253907zm-25.070313-29.820313c1.300782 0 2.601563.253906 3.824219.761719l17.792969 7.375-1.511719-19.191406c-.210937-2.648438.640625-5.265626 2.367187-7.285157l12.503907-14.628906-18.722657-4.492187c-2.582031-.617188-4.808593-2.234376-6.195312-4.5l-10.058594-16.417969-10.0625 16.417969c-1.386718 2.265624-3.613281 3.882812-6.195312 4.5l-18.722656 4.492187 12.503906 14.628906c1.726562 2.019531 2.578125 4.640625 2.367187 7.285157l-1.515625 19.191406 17.796875-7.375c1.222657-.507813 2.523438-.761719 3.828125-.761719zm39.808594-31.808594h.011719zm-42.40625-30.804687c0 .003906.003906.007812.003906.007812zm0 0" fill="#ffffff" data-original="#000000" style=""/><path xmlns="http://www.w3.org/2000/svg" d="m488.449219 203.234375c-4.171875 0-8.015625-2.699219-9.414063-6.632813-1.382812-3.878906-.199218-8.324218 2.945313-10.988281 3.28125-2.777343 8.09375-3.121093 11.746093-.863281 3.496094 2.160156 5.335938 6.417969 4.523438 10.445312-.929688 4.613282-5.085938 8.039063-9.800781 8.039063zm0 0" fill="#ffffff" data-original="#000000" style=""/><path xmlns="http://www.w3.org/2000/svg" d="m502 325.28125h-3.550781v-87.007812c0-5.519532-4.480469-10-10-10-5.523438 0-10 4.480468-10 10v87.007812h-444.898438v-255.472656h444.898438v78.425781c0 5.523437 4.476562 10 10 10 5.519531 0 10-4.476563 10-10v-102.882813c0-25.007812-20.34375-45.351562-45.351563-45.351562h-394.195312c-25.007813 0-45.351563 20.34375-45.351563 45.351562v279.929688h-3.550781c-5.523438 0-10 4.476562-10 10v28.429688c0 28.011718 22.789062 50.796874 50.796875 50.796874h410.40625c28.007813 0 50.796875-22.785156 50.796875-50.796874v-28.429688c0-5.523438-4.476562-10-10-10zm-468.449219-279.929688c0-13.980468 11.375-25.351562 25.351563-25.351562h394.195312c13.980469 0 25.351563 11.371094 25.351563 25.351562v4.457032h-444.898438zm458.449219 318.359376c0 16.980468-13.816406 30.796874-30.796875 30.796874h-410.40625c-16.980469 0-30.796875-13.816406-30.796875-30.796874v-18.429688h472zm0 0" fill="#ffffff" data-original="#000000" style=""/></g></svg>
