<?xml version="1.0" encoding="utf-8"?>
<!-- Generator: Adobe Illustrator 25.0.1, SVG Export Plug-In . SVG Version: 6.00 Build 0)  -->
<svg version="1.1" id="Layer_1" xmlns="http://www.w3.org/2000/svg" xmlns:xlink="http://www.w3.org/1999/xlink" x="0px" y="0px"
	 viewBox="0 0 89.2 103.5" style="enable-background:new 0 0 89.2 103.5;" xml:space="preserve">
<style type="text/css">
	.st0{fill-rule:evenodd;clip-rule:evenodd;fill:#C9C9C9;}
	.st1{fill-rule:evenodd;clip-rule:evenodd;fill:#FFFFFF;}
</style>
<g transform="translate(-.9 -.8)">
	<path class="st0" d="M46.6,32.5c-7.1,0-13.7,3.8-17.3,10l13.6,7.9c2.3,1.3,5.1,1.3,7.4,0l13.6-7.9C60.4,36.3,53.8,32.5,46.6,32.5z"
		/>
	<path class="st1" d="M88.9,77L64,62.5c-3.6,6.2-10.2,10-17.3,10v31.7c1.2,0,2.4-0.3,3.4-0.9l38.9-22.5c0,0,0,0,0,0l0,0
		c1.1-0.6,1.4-2,0.8-3.1C89.5,77.4,89.3,77.2,88.9,77z"/>
	<path class="st1" d="M46.6,72.5c-7.1,0-13.8-3.8-17.3-10L1.8,78.4c0.6,1,1.4,1.9,2.5,2.5l38.9,22.5c1,0.6,2.2,0.9,3.4,0.9
		L46.6,72.5L46.6,72.5z"/>
	<path class="st1" d="M46.6,32.5V0.8c-1.2,0-2.4,0.3-3.4,0.9L4.3,24.2c-1,0.6-1.9,1.4-2.5,2.5l27.5,15.9
		C32.9,36.4,39.5,32.5,46.6,32.5z"/>
	<path class="st1" d="M89,24.2C88.9,24.2,88.9,24.2,89,24.2L89,24.2L50,1.7c-1-0.6-2.2-0.9-3.4-0.9v31.7c7.1,0,13.8,3.8,17.3,10
		l24.9-14.4c1.1-0.6,1.5-2,0.9-3.1C89.6,24.7,89.3,24.4,89,24.2z"/>
	<path class="st1" d="M26.6,52.5c0-3.5,0.9-7,2.7-10L1.8,26.7c-0.6,1-0.9,2.2-0.9,3.4V75c0,1.2,0.3,2.4,0.9,3.4l27.5-15.9
		C27.5,59.5,26.6,56,26.6,52.5z"/>
</g>
</svg>
