<?xml version="1.0"?>
<svg xmlns="http://www.w3.org/2000/svg" xmlns:xlink="http://www.w3.org/1999/xlink" xmlns:svgjs="http://svgjs.com/svgjs" version="1.1" width="512" height="512" x="0" y="0" viewBox="0 0 496 496" style="enable-background:new 0 0 512 512" xml:space="preserve" class=""><g transform="matrix(6.123233995736766e-17,1,-1,6.123233995736766e-17,496,-2.842170943040401e-14)">
<g xmlns="http://www.w3.org/2000/svg">
	<g>
		<g>
			<path d="M456,176H284.288c2.352-10.312,3.712-20.992,3.712-32C288,64.6,223.4,0,144,0S0,64.6,0,144     c0,16.784,3.032,32.832,8.336,47.824C3.024,198.76,0,207.112,0,216v240c0,22.056,17.944,40,40,40h416c22.056,0,40-17.944,40-40     V216C496,193.944,478.056,176,456,176z M48,480h-8c-13.232,0-24-10.768-24-24V216c0-1.744,0.224-3.456,0.584-5.12     C24.6,226.096,35.304,239.632,48,251.024V480z M16,144C16,73.424,73.424,16,144,16s128,57.424,128,128s-57.424,128-128,128     S16,214.576,16,144z M416,480H64V263.648c5.096,3.416,10.48,6.4,16,9.152v7.2h16v-0.4c15.04,5.344,31.152,8.4,48,8.4     c13.888,0,27.28-2.08,40-5.768V328h16v-32h32v-16h-41.096c41.312-14.296,74.072-46.84,88.696-88H416V480z M480,456     c0,13.232-10.768,24-24,24h-24V192h24c13.232,0,24,10.768,24,24V456z" fill="#ffffff" data-original="#000000" style="" class=""/>
			<rect x="448" y="296" width="16" height="80" fill="#ffffff" data-original="#000000" style="" class=""/>
			<path d="M200.592,200.592L268.496,144l-67.904-56.592L144,19.504L87.408,87.408L19.504,144l67.904,56.592L144,268.496     L200.592,200.592z M120,168v32H88v-32H120v-16H72v14.92L44.496,144L72,121.08V136h48v-16H88V88h32v32h16V72h-14.92L144,44.496     L166.92,72H152v48h16V88h32v32h-32v16h48v-14.92L243.504,144L216,166.92V152h-48v16h32v32h-32v-32h-16v48h14.92L144,243.504     L121.08,216H136v-48H120z" fill="#ffffff" data-original="#000000" style="" class=""/>
			<polygon points="384,280 400,280 400,208 328,208 328,224 384,224    " fill="#ffffff" data-original="#000000" style="" class=""/>
			<rect x="384" y="392" width="16" height="16" fill="#ffffff" data-original="#000000" style="" class=""/>
			<polygon points="400,424 384,424 384,448 328,448 328,464 400,464    " fill="#ffffff" data-original="#000000" style="" class=""/>
			<polygon points="96,392 80,392 80,464 152,464 152,448 96,448    " fill="#ffffff" data-original="#000000" style="" class=""/>
			<polygon points="280,376 248,376 248,392 296,392 296,344 280,344    " fill="#ffffff" data-original="#000000" style="" class=""/>
			<polygon points="200,344 184,344 184,392 232,392 232,376 200,376    " fill="#ffffff" data-original="#000000" style="" class=""/>
			<polygon points="248,296 280,296 280,328 296,328 296,280 248,280    " fill="#ffffff" data-original="#000000" style="" class=""/>
			<polygon points="248,360 248,344 264,344 264,328 248,328 248,312 232,312 232,328 216,328 216,344 232,344 232,360    " fill="#ffffff" data-original="#000000" style="" class=""/>
		</g>
	</g>
</g>
<g xmlns="http://www.w3.org/2000/svg">
</g>
<g xmlns="http://www.w3.org/2000/svg">
</g>
<g xmlns="http://www.w3.org/2000/svg">
</g>
<g xmlns="http://www.w3.org/2000/svg">
</g>
<g xmlns="http://www.w3.org/2000/svg">
</g>
<g xmlns="http://www.w3.org/2000/svg">
</g>
<g xmlns="http://www.w3.org/2000/svg">
</g>
<g xmlns="http://www.w3.org/2000/svg">
</g>
<g xmlns="http://www.w3.org/2000/svg">
</g>
<g xmlns="http://www.w3.org/2000/svg">
</g>
<g xmlns="http://www.w3.org/2000/svg">
</g>
<g xmlns="http://www.w3.org/2000/svg">
</g>
<g xmlns="http://www.w3.org/2000/svg">
</g>
<g xmlns="http://www.w3.org/2000/svg">
</g>
<g xmlns="http://www.w3.org/2000/svg">
</g>
</g></svg>
