<?xml version="1.0" encoding="utf-8"?>
<!-- Generator: Adobe Illustrator 16.0.0, SVG Export Plug-In . SVG Version: 6.00 Build 0)  -->
<!DOCTYPE svg PUBLIC "-//W3C//DTD SVG 1.1//EN" "http://www.w3.org/Graphics/SVG/1.1/DTD/svg11.dtd">
<svg version="1.1" id="OBJECTS" xmlns="http://www.w3.org/2000/svg" xmlns:xlink="http://www.w3.org/1999/xlink" x="0px" y="0px"
	 width="733.209px" height="372.202px" viewBox="0 0 733.209 372.202" enable-background="new 0 0 733.209 372.202"
	 xml:space="preserve">
<g>
	<g>
		<path fill="#FBFBFB" d="M230.74,81.615c5.128,0,9.286,4.157,9.286,9.286h-18.571C221.454,85.772,225.611,81.615,230.74,81.615z"/>
		<path fill="#FBFBFB" d="M257.03,73.896c9.391,0,17.004,7.613,17.004,17.004h-34.009C240.025,81.509,247.639,73.896,257.03,73.896z
			"/>
	</g>
	<g>
		<path fill="#FBFBFB" d="M450.415,167.206c5.128,0,9.285,4.157,9.285,9.286h-18.571
			C441.129,171.363,445.286,167.206,450.415,167.206z"/>
		<path fill="#FBFBFB" d="M476.705,159.487c9.391,0,17.004,7.613,17.004,17.004H459.7C459.7,167.1,467.313,159.487,476.705,159.487z
			"/>
	</g>
	<g>
		<path fill="#FBFBFB" d="M541.153,140.349c5.129,0,9.286,4.158,9.286,9.286h-18.571
			C531.868,144.506,536.025,140.349,541.153,140.349z"/>
		<path fill="#FBFBFB" d="M567.443,132.63c9.392,0,17.005,7.613,17.005,17.004h-34.009
			C550.439,140.243,558.053,132.63,567.443,132.63z"/>
	</g>
	<path fill="#3C3C3C" d="M733.183,361.021v-21.106h-14.438l-67.313-89.2c-3.813-5.052-18.279-9.05-32.403-9.05H114.182
		c-14.124,0-28.591,3.998-32.403,9.05l-67.313,89.2H0v22.079h0.026c0.479,5.911,9.881,10.208,24.709,10.208h683.737
		C724.104,372.202,733.707,367.428,733.183,361.021z"/>
	<path fill="#424242" d="M81.778,228.511L1.942,334.305c-6.447,8.543,3.665,15.693,22.793,15.693h683.737
		c19.129,0,29.24-7.15,22.794-15.693l-79.836-105.794c-3.813-5.053-18.279-9.051-32.403-9.051H114.182
		C100.058,219.46,85.591,223.458,81.778,228.511z"/>
	<g>
		<polygon fill="#FAFAFA" points="658.413,343.478 74.796,343.478 146.136,223.098 587.073,223.098 		"/>
		<path fill="#EDE8E4" d="M221.835,256.756l-8.636,24.201h94.08l4.106-29.751h-72.978
			C236.116,253.994,229.498,256.222,221.835,256.756z"/>
		<path fill="#EDE8E4" d="M315.263,223.098h-81.417l-7.227,20.252c7.067,0.501,12.099,2.618,12.597,5.334h72.517L315.263,223.098z"
			/>
		<path fill="#039BE5" d="M232.392,249.94c0.793-2.357-3.672-4.255-9.944-4.255c-6.273,0-12.124,1.897-13.053,4.255
			c-0.94,2.385,3.501,4.347,9.91,4.347C225.715,254.287,231.59,252.325,232.392,249.94z"/>
		<path fill="#70B773" d="M261.021,239.35c0.432-1.588-2.755-2.869-7.101-2.869c-4.346,0-8.283,1.281-8.779,2.869
			c-0.5,1.601,2.678,2.912,7.089,2.912S260.586,240.95,261.021,239.35z"/>
		<polygon fill="#EDE8E4" points="204.825,283.908 110.098,283.908 101.437,298.523 199.362,298.523 		"/>
		<polygon fill="#EDE8E4" points="318.457,248.684 419.774,248.684 416.354,223.098 321.555,223.098 		"/>
		<polygon fill="#70B773" points="424.485,283.908 212.146,283.908 196.646,327.345 430.294,327.345 		"/>
		<polygon fill="#039BE5" points="551.256,223.098 485.823,223.098 504.365,280.957 579.974,280.957 		"/>
		<path fill="#EDE8E4" d="M129.478,251.206l-17.631,29.751h94.082l9.046-24.201c-7.274-0.534-12.265-2.762-12.519-5.55H129.478z"/>
		<path fill="#EDE8E4" d="M227.554,223.098h-81.418l-15.163,25.586h72.517c2.482-2.716,9.062-4.834,16.495-5.334L227.554,223.098z"
			/>
		<polygon fill="#EDE8E4" points="420.112,251.206 318.151,251.206 314.549,280.957 424.091,280.957 		"/>
		<polygon fill="#EDE8E4" points="195.352,330.969 190.888,343.478 432.451,343.478 430.778,330.969 		"/>
		<polygon fill="#EDE8E4" points="431.806,283.908 440.779,343.478 516.072,343.478 497.99,283.908 		"/>
		<polygon fill="#EDE8E4" points="99.542,301.722 74.796,343.478 182.56,343.478 198.167,301.722 		"/>
		<polygon fill="#039BE5" points="505.311,283.908 524.4,343.478 611.005,343.478 581.438,283.908 		"/>
		<polygon fill="#EDE8E4" points="619.333,343.478 658.413,343.478 645.265,321.291 607.946,321.291 		"/>
		<polygon fill="#EDE8E4" points="606.159,317.812 643.202,317.812 623.11,283.908 588.759,283.908 		"/>
		<polygon fill="#EDE8E4" points="587.244,280.957 621.362,280.957 587.073,223.098 557.548,223.098 		"/>
		<polygon fill="#EDE8E4" points="487.298,248.684 479.531,223.098 422.646,223.098 426.499,248.684 		"/>
		<polygon fill="#EDE8E4" points="488.063,251.206 426.88,251.206 431.361,280.957 497.095,280.957 		"/>
		<polygon fill="#0288D1" points="585.495,292.08 507.93,292.08 505.311,283.908 581.438,283.908 		"/>
		<g>
			<path fill="#70B773" d="M131.678,264.229c-1.875,0-3.736,0.589-4.157,1.319c-0.422,0.732,0.764,1.328,2.651,1.328
				c1.887,0,3.751-0.596,4.161-1.328C134.743,264.818,133.553,264.229,131.678,264.229z"/>
			<path fill="#70B773" d="M145.795,264.229c-1.875,0-3.716,0.589-4.112,1.319c-0.397,0.732,0.81,1.328,2.697,1.328
				s3.73-0.596,4.116-1.328C148.88,264.818,147.67,264.229,145.795,264.229z"/>
			<path fill="#70B773" d="M159.912,264.229c-1.875,0-3.695,0.589-4.066,1.319c-0.373,0.732,0.854,1.328,2.742,1.328
				s3.71-0.596,4.071-1.328C163.018,264.818,161.787,264.229,159.912,264.229z"/>
			<path fill="#70B773" d="M174.029,264.229c-1.875,0-3.675,0.589-4.021,1.319c-0.347,0.732,0.9,1.328,2.788,1.328
				c1.887,0,3.69-0.596,4.025-1.328C177.155,264.818,175.905,264.229,174.029,264.229z"/>
			<path fill="#70B773" d="M188.146,264.229c-1.875,0-3.655,0.589-3.977,1.319c-0.322,0.732,0.946,1.328,2.833,1.328
				s3.669-0.596,3.98-1.328C191.292,264.818,190.021,264.229,188.146,264.229z"/>
			<path fill="#70B773" d="M202.264,264.229c-1.875,0-3.635,0.59-3.931,1.319c-0.297,0.732,0.991,1.328,2.878,1.328
				s3.649-0.596,3.935-1.328C205.429,264.819,204.139,264.229,202.264,264.229z"/>
		</g>
		<polygon fill="#70B773" points="587.244,280.957 621.362,280.957 605.557,254.287 573.556,254.287 		"/>
		<polygon fill="#DBD1C8" points="110.198,295.58 115.321,286.698 196.906,286.698 193.446,295.58 		"/>
		<polygon fill="#DBD1C8" points="371.181,246.357 370.936,225.157 410.724,225.157 413.224,246.357 		"/>
		<polygon fill="#DBD1C8" points="321.621,278.239 324.217,253.59 353.489,253.59 352.686,278.239 		"/>
		<polygon fill="#DBD1C8" points="270.086,278.239 275.656,253.59 304.702,253.59 300.911,278.239 		"/>
		<polygon fill="#DBD1C8" points="447.959,339.915 442.47,306.934 497.784,306.934 507.275,339.915 		"/>
		<polygon fill="#DBD1C8" points="441.07,298.523 439.474,288.933 492.604,288.933 495.364,298.523 		"/>
		<polygon fill="#DBD1C8" points="84.624,339.915 104.91,304.747 189.875,304.747 176.176,339.915 		"/>
		<polygon fill="#DBD1C8" points="625.221,339.915 617.111,324.587 639.743,324.587 648.585,339.915 		"/>
		<polygon fill="#DBD1C8" points="611.833,314.609 597.067,286.698 617.888,286.698 633.988,314.609 		"/>
		<polygon fill="#DBD1C8" points="576.25,247.351 564.51,225.157 582.389,225.157 595.19,247.351 		"/>
		<polygon fill="#DBD1C8" points="432.389,246.357 430.575,235.465 477.219,235.465 480.353,246.357 		"/>
		<polygon fill="#DBD1C8" points="437.694,278.239 434.561,259.408 484.108,259.408 489.527,278.239 		"/>
		<g>
			<polygon fill="#DBD1C8" points="120.2,278.239 200.201,278.239 203.515,269.732 125.107,269.732 			"/>
			<polygon fill="#DBD1C8" points="190.636,253.59 134.419,253.59 129.887,261.447 187.201,261.447 			"/>
		</g>
		<polygon fill="#DBD1C8" points="248.123,253.59 226.639,261.447 224.787,266.877 261.402,266.877 264.764,253.59 		"/>
		<polygon fill="#DBD1C8" points="180.242,240.071 187.387,225.157 220.879,225.157 215.07,240.071 		"/>
		<polygon fill="#DBD1C8" points="171.53,225.157 150.82,225.157 138.591,246.357 160.476,246.357 		"/>
		<polygon fill="#DBD1C8" points="239.016,225.157 236.521,232.476 273.976,232.476 270.604,246.357 305.814,246.357 
			309.074,225.157 		"/>
		<polygon fill="#DBD1C8" points="220.912,278.239 223.813,269.732 260.679,269.732 258.527,278.239 		"/>
	</g>
	<path fill="#616161" d="M646.7,266.877c11.158,0,22.773,3.557,26.003,8.028c3.3,4.569-3.375,8.346-14.973,8.346
		s-23.36-3.776-26.216-8.346C628.72,270.434,635.542,266.877,646.7,266.877z"/>
	<path fill="#616161" d="M82.264,262.231l-18.088,26.155c-1.233,1.783,1.297,3.239,5.661,3.239c4.364,0,8.856-1.456,10.025-3.239
		l17.15-26.155c1.025-1.564-1.428-2.823-5.473-2.823C87.495,259.408,83.346,260.667,82.264,262.231z"/>
	<g>
		<ellipse opacity="0.2" fill="#424242" cx="171.531" cy="281.072" rx="30.303" ry="7.987"/>
		<path fill="#EF5350" d="M171.53,161.214c-26.442,0-47.878,21.436-47.878,47.878s47.878,71.98,47.878,71.98
			s47.878-45.538,47.878-71.98S197.973,161.214,171.53,161.214z M171.531,235.956c-14.836,0-26.864-12.027-26.864-26.864
			c0-14.836,12.027-26.863,26.864-26.863s26.864,12.027,26.864,26.863C198.395,223.929,186.367,235.956,171.531,235.956z"/>
		<path fill="#E53935" d="M171.53,177.008c-17.72,0-32.084,14.365-32.084,32.084c0,17.72,14.364,32.084,32.084,32.084
			s32.084-14.364,32.084-32.084C203.615,191.373,189.25,177.008,171.53,177.008z M171.53,230.72
			c-11.945,0-21.628-9.683-21.628-21.628c0-11.945,9.683-21.628,21.628-21.628c11.945,0,21.628,9.683,21.628,21.628
			C193.159,221.037,183.476,230.72,171.53,230.72z"/>
	</g>
	<g>
		<ellipse opacity="0.2" fill="#424242" cx="516.073" cy="339.165" rx="21.681" ry="5.715"/>
		<path fill="#EF5350" d="M516.072,253.41c-18.918,0-34.255,15.337-34.255,34.256s34.255,51.499,34.255,51.499
			s34.256-32.58,34.256-51.499S534.991,253.41,516.072,253.41z M516.073,306.887c-10.615,0-19.221-8.605-19.221-19.221
			s8.605-19.22,19.221-19.22c10.614,0,19.22,8.604,19.22,19.22S526.688,306.887,516.073,306.887z"/>
		<path fill="#E53935" d="M516.072,264.711c-12.678,0-22.955,10.277-22.955,22.955s10.277,22.955,22.955,22.955
			c12.679,0,22.956-10.277,22.956-22.955S528.751,264.711,516.072,264.711z M516.072,303.14c-8.546,0-15.474-6.928-15.474-15.474
			s6.928-15.475,15.474-15.475c8.547,0,15.475,6.929,15.475,15.475S524.619,303.14,516.072,303.14z"/>
	</g>
	<g>
		<ellipse opacity="0.2" fill="#424242" cx="354.801" cy="243.371" rx="61.53" ry="16.219"/>
		<path fill="#EF5350" d="M354.801,0c-53.691,0-97.216,43.525-97.216,97.216s97.216,146.155,97.216,146.155
			s97.216-92.464,97.216-146.155S408.492,0,354.801,0z M354.802,151.764c-30.126,0-54.547-24.421-54.547-54.547
			s24.421-54.547,54.547-54.547c30.125,0,54.547,24.421,54.547,54.547S384.927,151.764,354.802,151.764z"/>
		<path fill="#E53935" d="M354.801,32.07c-35.98,0-65.146,29.167-65.146,65.146s29.167,65.147,65.146,65.147
			c35.979,0,65.147-29.167,65.147-65.147S390.78,32.07,354.801,32.07z M354.801,141.132c-24.254,0-43.916-19.662-43.916-43.916
			c0-24.254,19.662-43.916,43.916-43.916s43.916,19.662,43.916,43.916C398.717,121.471,379.056,141.132,354.801,141.132z"/>
	</g>
	<g>
		<path fill="#FBFBFB" d="M459.157,91.685c-13.075,0-23.676,10.6-23.676,23.676h47.353
			C482.834,102.285,472.233,91.685,459.157,91.685z"/>
		<path fill="#FBFBFB" d="M349.924,100.688c-8.104,0-14.672,6.569-14.672,14.672h29.345
			C364.597,107.257,358.028,100.688,349.924,100.688z"/>
		<path fill="#FBFBFB" d="M400.039,79.918c-19.574,0-35.442,15.868-35.442,35.442h70.885
			C435.481,95.787,419.613,79.918,400.039,79.918z"/>
	</g>
	<g>
		<path fill="#FBFBFB" d="M174.704,108.852c-5.708,0-10.334,4.626-10.334,10.334h20.668
			C185.038,113.479,180.411,108.852,174.704,108.852z"/>
		<path fill="#FBFBFB" d="M145.445,100.262c-10.452,0-18.925,8.473-18.925,18.924h37.849
			C164.369,108.734,155.896,100.262,145.445,100.262z"/>
	</g>
	<g>
		<path fill="#FBFBFB" d="M239.836,40.66c-5.707,0-10.334,4.627-10.334,10.334h20.668C250.17,45.287,245.543,40.66,239.836,40.66z"
			/>
		<path fill="#FBFBFB" d="M210.577,32.07c-10.452,0-18.924,8.473-18.924,18.924h37.849C229.502,40.542,221.029,32.07,210.577,32.07z
			"/>
	</g>
	<g>
		<path fill="#FBFBFB" d="M480.912,8.591c-5.708,0-10.335,4.626-10.335,10.334h20.669C491.246,13.217,486.619,8.591,480.912,8.591z"
			/>
		<path fill="#FBFBFB" d="M451.653,0c-10.452,0-18.925,8.473-18.925,18.925h37.849C470.577,8.473,462.104,0,451.653,0z"/>
	</g>
	<g>
		<path fill="#FBFBFB" d="M245.345,147.205c-4.405,0-7.976,3.571-7.976,7.976h15.952
			C253.321,150.775,249.75,147.205,245.345,147.205z"/>
		<path fill="#FBFBFB" d="M222.764,140.575c-8.066,0-14.605,6.539-14.605,14.605h29.211
			C237.37,147.114,230.831,140.575,222.764,140.575z"/>
	</g>
	<g>
		<path fill="#FBFBFB" d="M555.666,78.066c-5.708,0-10.335,4.627-10.335,10.334H566C566,82.693,561.373,78.066,555.666,78.066z"/>
		<path fill="#FBFBFB" d="M526.407,69.476c-10.452,0-18.925,8.473-18.925,18.924h37.849
			C545.331,77.949,536.858,69.476,526.407,69.476z"/>
	</g>
	<path fill="#FBFBFB" d="M224.782,118.538h-1.37v-1.37c0-0.358-0.291-0.648-0.648-0.648l0,0c-0.358,0-0.648,0.29-0.648,0.648v1.37
		h-1.37c-0.358,0-0.648,0.291-0.648,0.648c0,0.358,0.291,0.648,0.648,0.648h1.37v1.37c0,0.358,0.29,0.648,0.648,0.648l0,0
		c0.358,0,0.648-0.29,0.648-0.648v-1.37h1.37c0.358,0,0.648-0.29,0.648-0.648C225.431,118.828,225.141,118.538,224.782,118.538z"/>
	<path fill="#FBFBFB" d="M258.006,134.745h-1.37v-1.37c0-0.358-0.291-0.648-0.648-0.648l0,0c-0.358,0-0.648,0.291-0.648,0.648v1.37
		h-1.37c-0.358,0-0.648,0.29-0.648,0.648c0,0.358,0.29,0.648,0.648,0.648h1.37v1.37c0,0.358,0.291,0.648,0.648,0.648l0,0
		c0.358,0,0.648-0.291,0.648-0.648v-1.37h1.37c0.358,0,0.648-0.29,0.648-0.648C258.654,135.035,258.364,134.745,258.006,134.745z"/>
	<path fill="#FBFBFB" d="M337.27,75.915h-1.37v-1.37c0-0.358-0.291-0.648-0.648-0.648l0,0c-0.358,0-0.648,0.291-0.648,0.648v1.37
		h-1.37c-0.358,0-0.648,0.29-0.648,0.648c0,0.358,0.291,0.648,0.648,0.648h1.37v1.37c0,0.358,0.29,0.648,0.648,0.648l0,0
		c0.358,0,0.648-0.291,0.648-0.648v-1.37h1.37c0.358,0,0.648-0.29,0.648-0.648C337.918,76.205,337.628,75.915,337.27,75.915z"/>
	<path fill="#FBFBFB" d="M368.62,82.942h-1.37v-1.37c0-0.358-0.29-0.648-0.648-0.648l0,0c-0.358,0-0.648,0.291-0.648,0.648v1.37
		h-1.37c-0.358,0-0.648,0.291-0.648,0.648c0,0.358,0.29,0.648,0.648,0.648h1.37v1.37c0,0.358,0.291,0.648,0.648,0.648l0,0
		c0.358,0,0.648-0.291,0.648-0.648v-1.37h1.37c0.358,0,0.648-0.29,0.648-0.648C369.269,83.233,368.979,82.942,368.62,82.942z"/>
	<path fill="#FBFBFB" d="M469.438,73.248h-1.37v-1.37c0-0.358-0.29-0.648-0.648-0.648l0,0c-0.358,0-0.648,0.29-0.648,0.648v1.37
		h-1.37c-0.357,0-0.648,0.291-0.648,0.648s0.291,0.648,0.648,0.648h1.37v1.37c0,0.358,0.29,0.648,0.648,0.648l0,0
		c0.358,0,0.648-0.29,0.648-0.648v-1.37h1.37c0.358,0,0.648-0.291,0.648-0.648S469.796,73.248,469.438,73.248z"/>
	<path fill="#FBFBFB" d="M502.616,60.871h-1.369v-1.37c0-0.358-0.291-0.648-0.648-0.648l0,0c-0.358,0-0.648,0.291-0.648,0.648v1.37
		h-1.37c-0.358,0-0.648,0.29-0.648,0.648c0,0.358,0.29,0.648,0.648,0.648h1.37v1.37c0,0.358,0.29,0.648,0.648,0.648l0,0
		c0.357,0,0.648-0.291,0.648-0.648v-1.37h1.369c0.358,0,0.648-0.29,0.648-0.648C503.265,61.161,502.975,60.871,502.616,60.871z"/>
	<path fill="#FBFBFB" d="M447.154,34.088h-1.37v-1.37c0-0.358-0.29-0.648-0.647-0.648l0,0c-0.358,0-0.648,0.29-0.648,0.648v1.37
		h-1.37c-0.358,0-0.648,0.291-0.648,0.648c0,0.358,0.29,0.648,0.648,0.648h1.37v1.37c0,0.358,0.29,0.648,0.648,0.648l0,0
		c0.357,0,0.647-0.29,0.647-0.648v-1.37h1.37c0.358,0,0.648-0.29,0.648-0.648C447.803,34.378,447.513,34.088,447.154,34.088z"/>
	<path fill="#FBFBFB" d="M476.891,48.773h-1.37v-1.37c0-0.358-0.29-0.648-0.648-0.648l0,0c-0.357,0-0.648,0.291-0.648,0.648v1.37
		h-1.369c-0.358,0-0.648,0.29-0.648,0.648c0,0.358,0.29,0.648,0.648,0.648h1.369v1.37c0,0.358,0.291,0.648,0.648,0.648l0,0
		c0.358,0,0.648-0.291,0.648-0.648v-1.37h1.37c0.358,0,0.648-0.29,0.648-0.648C477.539,49.063,477.249,48.773,476.891,48.773z"/>
	<path fill="#FBFBFB" d="M543.172,46.106h-1.37v-1.37c0-0.358-0.29-0.648-0.648-0.648l0,0c-0.357,0-0.648,0.29-0.648,0.648v1.37
		h-1.369c-0.358,0-0.648,0.291-0.648,0.648s0.29,0.648,0.648,0.648h1.369v1.37c0,0.358,0.291,0.648,0.648,0.648l0,0
		c0.358,0,0.648-0.291,0.648-0.648v-1.37h1.37c0.358,0,0.648-0.291,0.648-0.648S543.53,46.106,543.172,46.106z"/>
	<path fill="#FBFBFB" d="M464.063,140.484h-1.37v-1.37c0-0.358-0.29-0.648-0.648-0.648l0,0c-0.358,0-0.648,0.29-0.648,0.648v1.37
		h-1.37c-0.358,0-0.648,0.29-0.648,0.648c0,0.358,0.29,0.648,0.648,0.648h1.37v1.37c0,0.358,0.29,0.648,0.648,0.648l0,0
		c0.358,0,0.648-0.29,0.648-0.648v-1.37h1.37c0.357,0,0.647-0.291,0.647-0.648C464.71,140.774,464.42,140.484,464.063,140.484z"/>
	<path fill="#FBFBFB" d="M495.136,132.078h-1.37v-1.37c0-0.358-0.29-0.648-0.648-0.648l0,0c-0.357,0-0.648,0.29-0.648,0.648v1.37
		H491.1c-0.358,0-0.648,0.291-0.648,0.648c0,0.358,0.29,0.648,0.648,0.648h1.369v1.37c0,0.358,0.291,0.648,0.648,0.648l0,0
		c0.358,0,0.648-0.291,0.648-0.648v-1.37h1.37c0.358,0,0.648-0.29,0.648-0.648C495.784,132.369,495.494,132.078,495.136,132.078z"/>
	<path fill="#FBFBFB" d="M426.108,186.815h-1.369v-1.37c0-0.358-0.291-0.648-0.648-0.648l0,0c-0.358,0-0.648,0.29-0.648,0.648v1.37
		h-1.37c-0.358,0-0.648,0.29-0.648,0.648c0,0.358,0.29,0.648,0.648,0.648h1.37v1.37c0,0.358,0.29,0.648,0.648,0.648l0,0
		c0.357,0,0.648-0.29,0.648-0.648v-1.37h1.369c0.358,0,0.648-0.291,0.648-0.648C426.757,187.105,426.467,186.815,426.108,186.815z"
		/>
	<path fill="#FBFBFB" d="M515.425,166.557h-1.37v-1.37c0-0.358-0.29-0.648-0.648-0.648l0,0c-0.358,0-0.648,0.29-0.648,0.648v1.37
		h-1.37c-0.357,0-0.648,0.291-0.648,0.648c0,0.358,0.291,0.648,0.648,0.648h1.37v1.37c0,0.358,0.29,0.648,0.648,0.648l0,0
		c0.358,0,0.648-0.29,0.648-0.648v-1.37h1.37c0.357,0,0.648-0.29,0.648-0.648C516.073,166.848,515.782,166.557,515.425,166.557z"/>
	<path fill="#FBFBFB" d="M525.759,114.712h-1.37v-1.37c0-0.358-0.29-0.648-0.648-0.648l0,0c-0.358,0-0.648,0.291-0.648,0.648v1.37
		h-1.37c-0.357,0-0.648,0.29-0.648,0.648c0,0.358,0.291,0.648,0.648,0.648h1.37v1.37c0,0.358,0.29,0.648,0.648,0.648l0,0
		c0.358,0,0.648-0.291,0.648-0.648v-1.37h1.37c0.357,0,0.648-0.29,0.648-0.648C526.407,115.002,526.116,114.712,525.759,114.712z"/>
	<path fill="#FBFBFB" d="M207.203,85.609h-1.37v-1.37c0-0.358-0.29-0.648-0.648-0.648l0,0c-0.358,0-0.648,0.291-0.648,0.648v1.37
		h-1.37c-0.358,0-0.648,0.29-0.648,0.648c0,0.358,0.291,0.648,0.648,0.648h1.37v1.37c0,0.358,0.29,0.648,0.648,0.648l0,0
		c0.358,0,0.648-0.291,0.648-0.648v-1.37h1.37c0.358,0,0.648-0.29,0.648-0.648C207.851,85.899,207.561,85.609,207.203,85.609z"/>
	<path fill="#FBFBFB" d="M255.339,28.755h-1.37v-1.37c0-0.358-0.291-0.648-0.648-0.648l0,0c-0.358,0-0.648,0.291-0.648,0.648v1.37
		h-1.37c-0.358,0-0.648,0.29-0.648,0.648c0,0.358,0.291,0.648,0.648,0.648h1.37v1.37c0,0.358,0.29,0.648,0.648,0.648l0,0
		c0.358,0,0.648-0.291,0.648-0.648v-1.37h1.37c0.358,0,0.648-0.291,0.648-0.648C255.988,29.045,255.697,28.755,255.339,28.755z"/>
	<path fill="#FBFBFB" d="M165.429,68.828h-1.37v-1.37c0-0.358-0.29-0.648-0.648-0.648l0,0c-0.358,0-0.648,0.29-0.648,0.648v1.37
		h-1.37c-0.358,0-0.648,0.291-0.648,0.648s0.291,0.648,0.648,0.648h1.37v1.37c0,0.358,0.29,0.648,0.648,0.648l0,0
		c0.358,0,0.648-0.29,0.648-0.648v-1.37h1.37c0.358,0,0.648-0.291,0.648-0.648S165.787,68.828,165.429,68.828z"/>
	<path fill="#FBFBFB" d="M188.805,131.982h-1.37v-1.37c0-0.358-0.29-0.648-0.648-0.648l0,0c-0.358,0-0.648,0.291-0.648,0.648v1.37
		h-1.37c-0.358,0-0.648,0.29-0.648,0.648c0,0.358,0.29,0.648,0.648,0.648h1.37v1.37c0,0.358,0.291,0.648,0.648,0.648l0,0
		c0.358,0,0.648-0.291,0.648-0.648v-1.37h1.37c0.358,0,0.648-0.29,0.648-0.648C189.454,132.272,189.163,131.982,188.805,131.982z"/>
	<path fill="#FBFBFB" d="M151.921,144.343h-1.37v-1.37c0-0.358-0.29-0.648-0.648-0.648l0,0c-0.358,0-0.648,0.29-0.648,0.648v1.37
		h-1.37c-0.358,0-0.648,0.29-0.648,0.648c0,0.358,0.29,0.648,0.648,0.648h1.37v1.37c0,0.358,0.291,0.648,0.648,0.648l0,0
		c0.358,0,0.648-0.29,0.648-0.648v-1.37h1.37c0.358,0,0.648-0.291,0.648-0.648C152.569,144.633,152.279,144.343,151.921,144.343z"/>
	<path fill="#FBFBFB" d="M246.793,176.359h-1.37v-1.37c0-0.358-0.291-0.648-0.648-0.648l0,0c-0.358,0-0.648,0.29-0.648,0.648v1.37
		h-1.37c-0.358,0-0.648,0.291-0.648,0.648s0.29,0.648,0.648,0.648h1.37v1.37c0,0.358,0.29,0.648,0.648,0.648l0,0
		c0.358,0,0.648-0.29,0.648-0.648v-1.37h1.37c0.358,0,0.648-0.291,0.648-0.648S247.152,176.359,246.793,176.359z"/>
</g>
</svg>
