<?xml version="1.0" encoding="utf-8"?>
<!-- Generator: Adobe Illustrator 24.1.0, SVG Export Plug-In . SVG Version: 6.00 Build 0)  -->
<svg version="1.1" id="Layer_1" xmlns="http://www.w3.org/2000/svg" xmlns:xlink="http://www.w3.org/1999/xlink" x="0px" y="0px"
	 viewBox="0 0 100 100" style="enable-background:new 0 0 100 100;" xml:space="preserve">
<style type="text/css">
	.st0{fill:#324C9C;}
	.st1{fill:#E14E39;}
	.st2{fill:#FFFFFF;}
</style>
<path class="st0" d="M84.7,100H15.3C6.9,100,0,93.1,0,84.7V15.3C0,6.9,6.9,0,15.3,0h69.3C93.1,0,100,6.9,100,15.3v69.3
	C100,93.1,93.1,100,84.7,100z"/>
<g>
	<circle class="st1" cx="87" cy="25.7" r="3"/>
	<circle class="st1" cx="93.1" cy="41.4" r="3"/>
	<path class="st2" d="M93.6,45.6c-0.2,0-0.4,0-0.6,0c-1.5,0-3-1-3.6-2.3c-1.9,2.9-5.1,4.8-8.7,4.8c-5.9,0-10.6-4.9-10.6-10.8
		s4.8-10.8,10.6-10.8c0.8,0,1.7,0.2,2.5,0.4c-0.4-0.6-0.4-1-0.4-1.1c0-1.5,0.8-2.9,1.9-3.4c-1.3-0.4-2.9-0.6-4.2-0.6
		c-8.6,0-15.4,7-15.4,15.8c0,8.4,6.3,15,14.3,15.8c0.6,4.2,1.5,14.4-4.2,19.4c-4.2,3.6-11.2,3.6-21.1,0c-26.8-10.1-41.3-2.9-46.4,1
		C8.3,74,8.8,74.3,9,75.1c4.9-3.6,18.8-10.3,44.5-0.8c5.1,1.9,9.5,2.9,13.3,2.9c4,0,7.2-1.1,9.7-3.2c6.3-5.5,5.5-16.2,4.8-20.9
		C86.4,52.7,91,49.8,93.6,45.6z"/>
	<path class="st1" d="M6.6,73c-1.5,0-2.7,1.1-2.7,2.7s1.1,2.7,2.7,2.7s2.7-1.1,2.7-2.7S8.1,73,6.6,73z M6.6,77
		c-0.8,0-1.3-0.6-1.3-1.3c0-0.8,0.6-1.3,1.3-1.3s1.3,0.6,1.3,1.3C7.9,76.4,7.3,77,6.6,77z"/>
</g>
</svg>
