<?xml version="1.0" encoding="utf-8"?>
<!-- Generator: Adobe Illustrator 24.1.0, SVG Export Plug-In . SVG Version: 6.00 Build 0)  -->
<svg version="1.1" id="Layer_1" xmlns="http://www.w3.org/2000/svg" xmlns:xlink="http://www.w3.org/1999/xlink" x="0px" y="0px"
	 viewBox="0 0 100 100" style="enable-background:new 0 0 100 100;" xml:space="preserve">
<style type="text/css">
	.st0{fill:#224D4D;}
	.st1{fill:#E4EFEF;}
</style>
<path class="st0" d="M84.7,100H15.3C6.9,100,0,93.1,0,84.7V15.3C0,6.9,6.9,0,15.3,0h69.3C93.1,0,100,6.9,100,15.3v69.3
	C100,93.1,93.1,100,84.7,100z"/>
<g>
	<path class="st1" d="M51.2,8.3c-0.7-0.4-1.6-0.4-2.3,0L16.1,28.2c-0.7,0.4-1.1,1.1-1.1,1.9v39.8c0,0.8,0.4,1.6,1.1,1.9l32.8,19.9
		c0.7,0.4,1.6,0.4,2.3,0l32.8-19.9c0.7-0.4,1.1-1.1,1.1-1.9V30.1c0-0.8-0.4-1.6-1.1-1.9L51.2,8.3z M80.5,67.3c0,0.8-0.4,1.6-1.1,1.9
		L51.2,86.4c-0.7,0.4-1.6,0.4-2.3,0L20.6,69.2c-0.7-0.4-1.1-1.1-1.1-1.9V32.7c0-0.8,0.4-1.6,1.1-1.9l28.2-17.1
		c0.7-0.4,1.6-0.4,2.3,0l28.2,17.1c0.7,0.4,1.1,1.1,1.1,1.9V67.3z"/>
	<path class="st1" d="M71.5,33.9L53.6,45.1c-2.1,1.3-4.8,1.4-7,0L28.4,33.9c-1.1-0.7-2.4-0.4-3.1,0.7c-0.7,1.1-0.4,2.4,0.7,3.1
		l18.7,11.6c2,1.2,3.1,3.3,3.1,5.6v23.4c0,1.3,1,2.3,2.3,2.3c1.3,0,2.3-1,2.3-2.3V56.1c0-3,1.6-5.9,4.2-7.5l17.4-10.9
		c1.1-0.7,1.4-2.1,0.7-3.1C73.9,33.6,72.5,33.2,71.5,33.9z"/>
</g>
</svg>
