<?xml version="1.0" encoding="utf-8"?>
<!-- Generator: Adobe Illustrator 25.1.0, SVG Export Plug-In . SVG Version: 6.00 Build 0)  -->
<svg version="1.1" id="Layer_1" xmlns="http://www.w3.org/2000/svg" xmlns:xlink="http://www.w3.org/1999/xlink" x="0px" y="0px"
	 viewBox="0 0 86.5 86.5" style="enable-background:new 0 0 86.5 86.5;" xml:space="preserve">
<style type="text/css">
	.st0{fill:#EA5050;}
	.st1{fill:#343535;}
	.st2{fill:#FFFFFF;}
</style>
<path class="st0" d="M73.8,86.5h-61C5.7,86.5,0,80.8,0,73.8v-61C0,5.7,5.7,0,12.7,0h61c7,0,12.7,5.7,12.7,12.7v61
	C86.5,80.8,80.8,86.5,73.8,86.5z"/>
<g>
	<path class="st1" d="M47.6,43.1L46.5,40l-3.2-9.3L40,40l-1.1,3.2"/>
	<path class="st2" d="M50.6,45l-7.3-21l-7.4,21l-2.5,7.2l-3.3,9.4h-8.3l16.9-46.5h9.2l16.8,46.5h-8.2l-3.3-9.4L50.6,45z"/>
	<polygon class="st1" points="37.8,71.4 32.4,71.4 32.4,61.3 37.8,65.2 	"/>
	<polygon class="st2" points="43.3,71.4 37.8,71.4 37.8,65.2 43.3,61.3 	"/>
	<polygon class="st1" points="48.7,71.4 43.3,71.4 43.3,61.3 48.7,65.2 	"/>
	<polygon class="st2" points="54.1,71.4 48.7,71.4 48.7,65.2 54.1,61.3 	"/>
</g>
</svg>
