<?xml version="1.0" encoding="utf-8"?>
<!-- Generator: Adobe Illustrator 25.1.0, SVG Export Plug-In . SVG Version: 6.00 Build 0)  -->
<svg version="1.1" id="Layer_1" xmlns="http://www.w3.org/2000/svg" xmlns:xlink="http://www.w3.org/1999/xlink" x="0px" y="0px"
	 viewBox="0 0 25 25" style="enable-background:new 0 0 25 25;" xml:space="preserve">
<style type="text/css">
	.st0{fill:#3D6DB5;}
	.st1{fill:#FFFFFF;}
	.st2{fill:#F89621;}
</style>
<path class="st0" d="M21.4,25H3.6c-2,0-3.6-1.6-3.6-3.6V3.6C0,1.6,1.6,0,3.6,0h17.8c2,0,3.6,1.6,3.6,3.6v17.8
	C25,23.4,23.4,25,21.4,25z"/>
<g>
	<path class="st1" d="M12.5,21.7L12.5,21.7c-0.9,0-1.5-0.7-1.5-1.5v-9.9c0-0.9,0.7-1.5,1.5-1.5h0c0.9,0,1.5,0.7,1.5,1.5v9.9
		C14,21,13.4,21.7,12.5,21.7z"/>
	<circle class="st2" cx="12.5" cy="4.9" r="1.5"/>
</g>
</svg>
