<?xml version="1.0" encoding="utf-8"?>
<!-- Generator: Adobe Illustrator 25.1.0, SVG Export Plug-In . SVG Version: 6.00 Build 0)  -->
<svg version="1.1" id="Capa_1" xmlns="http://www.w3.org/2000/svg" xmlns:xlink="http://www.w3.org/1999/xlink" x="0px" y="0px"
	 viewBox="0 0 73.2 73.2" style="enable-background:new 0 0 73.2 73.2;" xml:space="preserve">
<style type="text/css">
	.st0{fill:#C65855;}
	.st1{fill:#FFFFFF;}
</style>
<path class="st0" d="M61.1,73.2H12c-6.7,0-12-5.4-12-12V12C0,5.4,5.4,0,12,0h49.1c6.7,0,12,5.4,12,12v49.1
	C73.2,67.8,67.8,73.2,61.1,73.2z"/>
<g>
	<path class="st1" d="M32.7,37.7c2.9,6.8,5.8,13.6,9,21c1.6-1.9,2.7-3.4,4-4.9c2.1,2.3,3.9,4.2,5.9,6.3c-1.4,0-2.7,0-4.1,0
		c-8.9,0-17.8-0.1-26.7,0c-2.9,0-4.1-1.2-4-4c0.1-4.4,0-8.7,0-12.8c-0.7-1-1.4-0.9-2.1-0.9c-1.6,0-3.3,0.1-4-1.6
		c-0.7-1.9-0.1-3.6,1.4-5.1c2.5-2.4,4.9-4.8,7.3-7.3c4.4-4.4,8.9-8.9,13.3-13.3c2.8-2.8,4.4-2.8,7.2-0.1c1.9,1.8,3.6,3.7,5.5,5.7
		c1.7-4.3,3.3-5.2,7.3-4.6c2,0.3,3.2,1.4,3.2,3.5c0,1.7,0.2,3.3,0,5c-0.6,4.5,0.5,8.1,4.3,10.8c1.6,1.1,2.8,2.7,2,4.9
		c-0.8,2.3-2.9,2.1-4.8,2.1c-0.3,0-0.7,0.1-1.4,0.2c0,4.5,0,9.1,0,13.7c-2.3-2.2-4.3-4.2-6.5-6.3c1.2-1.1,2.5-2.4,4.4-4.2
		c-7.2-3.1-14.1-6-20.9-9C33.2,37.2,32.9,37.4,32.7,37.7z M35.5,27.4c-6.7,0-12.3,5.3-12.7,12c-0.4,6.3,4.3,12.1,10.6,13.2
		c1.3,0.2,2.9,0.8,3.3-1c0.4-1.8-1.5-1.5-2.5-1.7c-5.6-1.4-9.1-5.6-8.6-10.5c0.5-5,4.4-8.9,9.3-9.1c5.4-0.3,9.3,2.9,10.4,8.6
		c0.2,1.2,0.1,2.7,1.8,2.4c1.5-0.3,1.1-1.9,1-3C47.3,32,41.8,27.4,35.5,27.4z"/>
</g>
</svg>
