<?xml version="1.0" encoding="utf-8"?>
<!-- Generator: Adobe Illustrator 25.1.0, SVG Export Plug-In . SVG Version: 6.00 Build 0)  -->
<svg version="1.1"
	 id="svg426053" xmlns:cc="http://creativecommons.org/ns#" xmlns:dc="http://purl.org/dc/elements/1.1/" xmlns:rdf="http://www.w3.org/1999/02/22-rdf-syntax-ns#" xmlns:svg="http://www.w3.org/2000/svg"
	 xmlns="http://www.w3.org/2000/svg" xmlns:xlink="http://www.w3.org/1999/xlink" x="0px" y="0px" viewBox="0 0 500 500"
	 style="enable-background:new 0 0 500 500;" xml:space="preserve">
<style type="text/css">
	.st0{fill:#FFF6F3;}
	.st1{fill:#FF9676;}
	.st2{fill:#FCD4C4;}
	.st3{fill:#6D6D6D;}
	.st4{fill:#010101;}
</style>
<path class="st0" d="M415.6,500H84.7c-46.6,0-84.4-37.8-84.4-84.4V85.4C0.3,38.8,38.1,1,84.7,1h330.9C462.2,1,500,38.8,500,85.4
	v330.2C500,462.2,462.2,500,415.6,500z"/>
<g>
	<path class="st1" d="M311.5,272.2c-0.4,0.6-0.8,1.1-1.3,1.6c-0.2,0.2-0.3,0.4-0.4,0.6c-0.1,0.2-0.3,0.4-0.4,0.6
		c-0.6,0.9-1.3,1.7-2,2.5c-0.7,0.8-1.4,1.6-2.1,2.4c-0.7,0.8-1.5,1.6-2.2,2.3c-0.8,0.7-1.6,1.5-2.4,2.2c-0.8,0.7-1.6,1.4-2.5,2.1
		c-0.8,0.7-1.7,1.3-2.6,1.9c-0.9,0.6-1.8,1.2-2.7,1.8c-0.9,0.6-1.8,1.1-2.8,1.7c-0.9,0.5-1.9,1.1-2.8,1.5c-1,0.5-1.9,1-2.9,1.4
		c-1,0.4-2,0.9-3,1.3c-1,0.4-2,0.8-3.1,1.1c-1,0.3-2.1,0.7-3.2,0.9c-1.1,0.3-2.1,0.5-3.2,0.8c-1.1,0.2-2.2,0.4-3.3,0.6
		c-1.1,0.2-2.2,0.3-3.3,0.4c-1.1,0.1-2.3,0.2-3.4,0.3c-1.1,0.1-2.3,0.1-3.4,0.1c-17,0-33.1-6.7-45-18.6c-4.6-4.6-8.4-9.7-11.3-15.1
		c-0.1-0.1-0.1-0.3-0.2-0.4c-0.4-0.7-0.8-1.5-1.1-2.3c-0.2-0.5-0.4-1-0.7-1.5c-0.2-0.4-0.4-0.9-0.6-1.3c-0.3-0.7-0.5-1.3-0.8-2
		c-0.1-0.3-0.2-0.6-0.3-0.9c-0.3-0.7-0.5-1.4-0.7-2.1c-0.1-0.3-0.2-0.6-0.3-0.8c-0.2-0.7-0.4-1.3-0.6-2c-0.1-0.4-0.2-0.7-0.3-1.1
		c-0.1-0.6-0.3-1.1-0.4-1.7c-0.1-0.5-0.2-1-0.3-1.4c-0.1-0.4-0.1-0.8-0.2-1.2c-0.1-0.6-0.2-1.3-0.3-1.9c0-0.2-0.1-0.5-0.1-0.7
		c-0.1-0.8-0.2-1.6-0.3-2.5c0-0.1,0-0.2,0-0.3c-0.1-1-0.2-1.9-0.2-2.9c0-0.1,0-0.3,0-0.4c0-0.9-0.1-1.8-0.1-2.7
		c0-9.9,2.3-19.3,6.3-27.6c0-0.1,0.1-0.2,0.1-0.3c0.4-0.8,0.8-1.5,1.2-2.3c2.9-5.4,6.7-10.5,11.2-15c11.9-11.9,28.1-18.6,45-18.6
		c22.3,0,41.8,11.4,53.2,28.7l39.2-26.3c-2-3.1-4.9-5.6-8.2-6.8c-6.4-2.3-13.6-9.5-15.9-15.9c-2.3-6.4-9.8-11.4-16.6-11.1
		c-6.8,0.3-16.2-3.5-20.8-8.6c-4.6-5-13.4-6.8-19.6-3.9c-6.2,2.9-16.3,2.9-22.5,0c-6.2-2.9-15-1.2-19.6,3.9
		c-2.1,2.3-5.1,4.3-8.4,5.8c-0.6,0.3-1.3,0.5-1.9,0.7c-0.2,0.1-0.4,0.2-0.6,0.3c-3.4,1.2-6.9,1.9-9.9,1.8
		c-6.8-0.3-14.3,4.7-16.6,11.1c-1.1,3.1-3.4,6.4-6.1,9.2c-0.1,0.1-0.1,0.1-0.2,0.2c-0.1,0.1-0.2,0.2-0.3,0.3
		c-2.8,2.8-6.1,5.1-9.2,6.2c-6.4,2.3-11.4,9.8-11.1,16.6c0.3,6.8-3.6,16.2-8.6,20.8c-5.1,4.6-6.8,13.4-3.9,19.6
		c1.3,2.8,2,6.4,2.1,10.1c0,0.3,0,0.7,0,1c0,0.4,0,0.8,0,1.2c-0.1,3.7-0.8,7.3-2.1,10.2c-2.9,6.2-1.2,15,3.9,19.6
		c5.1,4.6,8.9,13.9,8.6,20.8c-0.3,6.8,4.7,14.3,11.1,16.6c6.4,2.3,13.6,9.5,15.9,15.9c2.3,6.4,9.8,11.4,16.6,11.1
		c3-0.1,6.5,0.6,9.9,1.8c0.2,0.1,0.4,0.2,0.6,0.3c0.5,0.2,1,0.4,1.6,0.6c3.4,1.5,6.6,3.6,8.7,5.9c4.6,5.1,13.4,6.8,19.6,3.9
		c6.2-2.9,16.3-2.9,22.5,0c6.2,2.9,15,1.2,19.6-3.9c4.6-5.1,14-8.9,20.8-8.6c6.8,0.3,14.3-4.7,16.6-11.1c2.3-6.4,9.5-13.6,15.9-15.9
		c2.9-1.1,5.5-3.2,7.5-5.9L311.5,272.2z"/>
	<path class="st1" d="M269.8,358.6c-2.1-1-4.6-1.6-7.3-1.9c-2-0.2-3.7,1.3-3.7,3.3v49.6c0,1.2-0.6,2.2-1.6,2.8l-18.3,11.1
		c-2.2,1.3-5-0.3-5-2.8v-59.8c0-1.2-0.7-2.4-1.8-2.9l-4.9-2.5v77c0,2.6,2.8,4.2,5,2.8l24.9-15.6c1.1-0.7,2.4-0.7,3.5,0l24.9,15.6
		c2.2,1.4,5-0.2,5-2.8l0-79.1C286.3,359.4,276.5,361.7,269.8,358.6z"/>
</g>
</svg>
