<?xml version="1.0" encoding="utf-8"?>
<!-- Generator: Adobe Illustrator 25.1.0, SVG Export Plug-In . SVG Version: 6.00 Build 0)  -->
<svg version="1.1" id="Layer_1" xmlns="http://www.w3.org/2000/svg" xmlns:xlink="http://www.w3.org/1999/xlink" x="0px" y="0px"
	 viewBox="0 0 249.7 249.7" style="enable-background:new 0 0 249.7 249.7;" xml:space="preserve">
<style type="text/css">
	.st0{fill:#2799BB;}
	.st1{fill:#FFFFFF;}
	.st2{opacity:0.85;}
</style>
<path class="st0" d="M205.3,249.7H44.4C19.9,249.7,0,229.8,0,205.3V44.4C0,19.9,19.9,0,44.4,0h160.9c24.5,0,44.4,19.9,44.4,44.4
	v160.9C249.7,229.8,229.8,249.7,205.3,249.7z"/>
<g>
	<g transform="matrix(2 0 0 2 -112.74 51.05)">
		<polygon vector-effect="non-scaling-stroke" class="st1" points="127.2,1.1 110.4,1.1 118.8,25 		"/>
	</g>
	<g>
		<g transform="matrix(2 0 0 2 -130.19 84.09)">
			<polygon vector-effect="non-scaling-stroke" class="st1" points="110.7,56.1 93.9,56.1 119.1,-15.4 135.9,-15.4 			"/>
		</g>
		<g transform="matrix(2 0 0 2 -95.28 84.09)" class="st2">
			<polygon vector-effect="non-scaling-stroke" class="st1" points="126.9,56.1 143.7,56.1 118.4,-15.4 101.6,-15.4 			"/>
		</g>
	</g>
</g>
</svg>
