<svg id="Layer_1" data-name="Layer 1" xmlns="http://www.w3.org/2000/svg" viewBox="0 0 40 40"><defs><style>.cls-1{fill:#b70000;}</style></defs><path class="cls-1" d="M35.17,5.37H4.83A2.17,2.17,0,0,0,2.67,7.54V30.29a2.17,2.17,0,0,0,2.16,2.17H16.21v1.08H13a.54.54,0,0,0-.54.54.55.55,0,0,0,.54.55H27a.55.55,0,0,0,.54-.55.54.54,0,0,0-.54-.54H23.79V32.46H35.17a2.17,2.17,0,0,0,2.16-2.17V7.54A2.17,2.17,0,0,0,35.17,5.37ZM22.71,33.54H17.29V32.46h5.42Zm13.54-3.25a1.09,1.09,0,0,1-1.08,1.09H4.83a1.09,1.09,0,0,1-1.08-1.09V30h32.5Zm0-1.35H3.75V7.54A1.08,1.08,0,0,1,4.83,6.46H35.17a1.08,1.08,0,0,1,1.08,1.08Z"/><path class="cls-1" d="M20,17.56a3.25,3.25,0,1,0,3.25,3.25A3.25,3.25,0,0,0,20,17.56ZM20,23a2.17,2.17,0,1,1,2.17-2.17A2.17,2.17,0,0,1,20,23Z"/><path class="cls-1" d="M32.73,7.81a1.89,1.89,0,0,0-.54,3.71v4.69H28.94V12.15a.55.55,0,0,0-.54-.55H20.54v-.35A1.89,1.89,0,1,0,18.18,10a1.92,1.92,0,0,0,1.28,1.27v.35H11.6a.55.55,0,0,0-.54.55v4.06H7.81V11.52a1.89,1.89,0,1,0-2.36-1.27,1.92,1.92,0,0,0,1.28,1.27v9.83H13v.14a1.42,1.42,0,0,0,1,1.37,5.63,5.63,0,0,0,.31.77,1.41,1.41,0,0,0,.25,1.68l1,1a1.43,1.43,0,0,0,1.69.25,7.19,7.19,0,0,0,.76.32,1.43,1.43,0,0,0,1.37,1h1.36a1.43,1.43,0,0,0,1.37-1,7.19,7.19,0,0,0,.76-.32,1.43,1.43,0,0,0,1.69-.25l1-1a1.41,1.41,0,0,0,.25-1.68,5.63,5.63,0,0,0,.31-.77,1.42,1.42,0,0,0,1-1.37v-.14h6.23V11.52a1.89,1.89,0,0,0-.54-3.71ZM19.19,9.44a.81.81,0,1,1,1.62,0,.81.81,0,1,1-1.62,0ZM6.46,9.71a.81.81,0,1,1,.81.81A.81.81,0,0,1,6.46,9.71ZM26,21.49a.34.34,0,0,1-.34.34h-.44a5.33,5.33,0,0,1-.8,1.92l.31.31a.33.33,0,0,1,0,.48h0l-1,1a.34.34,0,0,1-.48,0l-.31-.31A5.14,5.14,0,0,1,21,26v.44a.34.34,0,0,1-.34.34H19.32a.34.34,0,0,1-.34-.34h0V26a5.14,5.14,0,0,1-1.92-.79l-.31.31a.34.34,0,0,1-.48,0l-1-1a.33.33,0,0,1,0-.48l.31-.31a5.33,5.33,0,0,1-.8-1.92h-.44a.34.34,0,0,1-.34-.34h0V20.13a.34.34,0,0,1,.34-.34h.44a5.41,5.41,0,0,1,.8-1.92l-.31-.31a.33.33,0,0,1,0-.48l1-1a.33.33,0,0,1,.48,0l.31.31a5.33,5.33,0,0,1,1.92-.8v-.44a.34.34,0,0,1,.34-.34h1.36a.34.34,0,0,1,.34.34v.44a5.33,5.33,0,0,1,1.92.8l.31-.31a.33.33,0,0,1,.48,0l1,1a.33.33,0,0,1,0,.48h0l-.31.31a5.41,5.41,0,0,1,.8,1.92h.44a.34.34,0,0,1,.34.34Zm6.23-1.22H27v-.14a1.41,1.41,0,0,0-1-1.36,5.16,5.16,0,0,0-.31-.77,1.43,1.43,0,0,0-.25-1.69l-1-1a1.44,1.44,0,0,0-1.69-.24,5.57,5.57,0,0,0-.76-.32,1.42,1.42,0,0,0-1.37-1H19.32a1.42,1.42,0,0,0-1.37,1,5.57,5.57,0,0,0-.76.32,1.44,1.44,0,0,0-1.69.24l-1,1A1.43,1.43,0,0,0,14.29,18a5.16,5.16,0,0,0-.31.77,1.41,1.41,0,0,0-1,1.36v.14H7.81v-3H11.6a.55.55,0,0,0,.55-.54V12.69h15.7v4.06a.55.55,0,0,0,.55.54h3.79Zm.54-9.75a.81.81,0,1,1,.81-.81A.81.81,0,0,1,32.73,10.52Z"/></svg>