<svg id="Layer_1" data-name="Layer 1" xmlns="http://www.w3.org/2000/svg" viewBox="0 0 40 40"><defs><style>.cls-1{fill:#b70000;}</style></defs><path class="cls-1" d="M30.93,7.43a1.64,1.64,0,1,0,1.64,1.64A1.64,1.64,0,0,0,30.93,7.43Zm0,2.19a.55.55,0,1,1,.55-.55A.55.55,0,0,1,30.93,9.62Z"/><path class="cls-1" d="M36.21,10.71h.73V7.43h-.73a.55.55,0,0,1-.51-.34.53.53,0,0,1,.12-.59L36.34,6,34,3.66l-.52.52a.53.53,0,0,1-.59.12.55.55,0,0,1-.34-.51V3.06H29.29v.73A.55.55,0,0,1,29,4.3a.53.53,0,0,1-.59-.12l-.52-.52L26.25,5.24H4.15a1.09,1.09,0,0,0-1.09,1.1V33.66a1.09,1.09,0,0,0,1.09,1.1H27.94a4.92,4.92,0,0,0,9-2.74V28.75a4.92,4.92,0,0,0-5.46-4.89V15.08h1.09v-.73a.54.54,0,0,1,.34-.51.53.53,0,0,1,.59.12l.52.52,2.32-2.32-.52-.52a.53.53,0,0,1-.12-.59A.55.55,0,0,1,36.21,10.71Zm-3.8,18.42a.55.55,0,0,1-.38.16h0a.54.54,0,0,1-.54-.54v-1.1a.55.55,0,0,1,1.09,0v1.1A.55.55,0,0,1,32.41,29.13ZM31.48,25v1.15a1.64,1.64,0,0,0-1.1,1.54v1.1a1.41,1.41,0,0,0,.11.54H28.2v-.54A3.84,3.84,0,0,1,31.48,25ZM32,35.85A3.83,3.83,0,0,1,28.2,32V30.38h7.65V32A3.84,3.84,0,0,1,32,35.85Zm3.83-7.1v.54H33.57a1.65,1.65,0,0,0,.09-.54v-1.1a1.63,1.63,0,0,0-1.09-1.54V25A3.84,3.84,0,0,1,35.85,28.75Zm-5.47-4.64a4.93,4.93,0,0,0-3.27,4.64V32a4.91,4.91,0,0,0,.28,1.64H4.15V6.34H25.88L26,6.5a.53.53,0,0,1,.12.59.54.54,0,0,1-.51.34h-.73V9.62H17.27V8.52a1.09,1.09,0,0,0-1.1-1.09H15.08A1.09,1.09,0,0,0,14,8.52v1.1h-1.1V8.52A1.09,1.09,0,0,0,11.8,7.43H10.71A1.09,1.09,0,0,0,9.62,8.52v1.1H8.52V8.52A1.09,1.09,0,0,0,7.43,7.43H6.34a1.09,1.09,0,0,0-1.1,1.09v2.19H25.65a.54.54,0,0,1,.51.34.53.53,0,0,1-.12.59l-.52.52,2.32,2.32.52-.52a.53.53,0,0,1,.59-.12.54.54,0,0,1,.34.51v.73h1.09ZM16.17,9.62H15.08V8.52h1.09Zm-4.37,0H10.71V8.52H11.8ZM7.43,8.52v1.1H6.34V8.52Zm27.26,2.11a1.62,1.62,0,0,0,.13,1.5L34,13a1.64,1.64,0,0,0-2.48,1H30.35a1.61,1.61,0,0,0-1-1.16,1.59,1.59,0,0,0-1.5.13L27,12.13a1.59,1.59,0,0,0,.13-1.5,1.61,1.61,0,0,0-1.16-1V8.48A1.64,1.64,0,0,0,27,6l.83-.82a1.64,1.64,0,0,0,2.48-1h1.17a1.62,1.62,0,0,0,1,1.16A1.64,1.64,0,0,0,34,5.18l.82.82a1.61,1.61,0,0,0-.12,1.51,1.59,1.59,0,0,0,1.15,1V9.65A1.63,1.63,0,0,0,34.69,10.63Z"/><path class="cls-1" d="M30.93,5.24a3.83,3.83,0,1,0,3.83,3.83A3.83,3.83,0,0,0,30.93,5.24Zm0,6.56a2.73,2.73,0,1,1,2.73-2.73A2.73,2.73,0,0,1,30.93,11.8Z"/><path class="cls-1" d="M8.52,23.83H22.73a1.1,1.1,0,0,0,1.1-1.1V12.89a1.09,1.09,0,0,0-1.1-1.09H8.52a1.09,1.09,0,0,0-1.09,1.09v9.84A1.09,1.09,0,0,0,8.52,23.83Zm0-10.94H22.73v9.84H8.52Z"/><path class="cls-1" d="M17.57,16.53,15,15.23a1.44,1.44,0,0,0-2.08,1.28v2.61a1.44,1.44,0,0,0,1.44,1.43A1.58,1.58,0,0,0,15,20.4l2.6-1.31a1.41,1.41,0,0,0,.79-1.28A1.43,1.43,0,0,0,17.57,16.53Zm-.49,1.59-2.6,1.3a.35.35,0,0,1-.49-.3V16.51a.34.34,0,0,1,.34-.34.42.42,0,0,1,.15,0l2.6,1.3a.33.33,0,0,1,.19.3A.34.34,0,0,1,17.08,18.12Z"/><path class="cls-1" d="M28.2,15.08H26a1.09,1.09,0,0,0-1.09,1.09v2.19A1.09,1.09,0,0,0,26,19.45H28.2a1.09,1.09,0,0,0,1.09-1.09V16.17A1.09,1.09,0,0,0,28.2,15.08ZM26,18.36V16.17H28.2v2.19Z"/><path class="cls-1" d="M28.2,20.55H26a1.09,1.09,0,0,0-1.09,1.09v2.19A1.09,1.09,0,0,0,26,24.92H28.2a1.09,1.09,0,0,0,1.09-1.09V21.64A1.09,1.09,0,0,0,28.2,20.55ZM26,23.83V21.64H28.2v2.19Z"/><path class="cls-1" d="M9.62,24.92H8.52A1.09,1.09,0,0,0,7.43,26v1.1A1.09,1.09,0,0,0,8.52,28.2h1.1a1.09,1.09,0,0,0,1.09-1.09V26A1.09,1.09,0,0,0,9.62,24.92Zm-1.1,2.19V26h1.1v1.1Z"/><path class="cls-1" d="M9.62,29.29H8.52a1.09,1.09,0,0,0-1.09,1.09v1.1a1.09,1.09,0,0,0,1.09,1.09h1.1a1.09,1.09,0,0,0,1.09-1.09v-1.1A1.09,1.09,0,0,0,9.62,29.29Zm-1.1,2.19v-1.1h1.1v1.1Z"/><path class="cls-1" d="M14,29.29h-1.1a1.09,1.09,0,0,0-1.09,1.09v1.1a1.09,1.09,0,0,0,1.09,1.09H14a1.09,1.09,0,0,0,1.09-1.09v-1.1A1.09,1.09,0,0,0,14,29.29Zm-1.1,2.19v-1.1H14v1.1Z"/><path class="cls-1" d="M18.36,29.29H17.27a1.09,1.09,0,0,0-1.1,1.09v1.1a1.09,1.09,0,0,0,1.1,1.09h1.09a1.09,1.09,0,0,0,1.09-1.09v-1.1A1.09,1.09,0,0,0,18.36,29.29Zm-1.09,2.19v-1.1h1.09v1.1Z"/><rect class="cls-1" x="11.8" y="26.01" width="10.93" height="1.09"/><rect class="cls-1" x="20.55" y="29.29" width="2.19" height="1.09"/><rect class="cls-1" x="23.83" y="29.29" width="2.19" height="1.09"/><rect class="cls-1" x="20.55" y="31.48" width="5.47" height="1.09"/></svg>