<svg id="Layer_1" data-name="Layer 1" xmlns="http://www.w3.org/2000/svg" viewBox="0 0 40 40"><defs><style>.cls-1{fill:#b70000;}</style></defs><path class="cls-1" d="M34.84,27.09h-.92a8.35,8.35,0,0,0-.59-1.42L34,25a1.4,1.4,0,0,0,0-2L32.89,22a1.38,1.38,0,0,0-2,0l-.65.65A8.35,8.35,0,0,0,28.85,22V21.1a1.4,1.4,0,0,0-1.4-1.4h-.2V12.8h0v-6h0c0-3.17-5.16-5.65-11.74-5.65S3.76,3.67,3.76,6.84V30.67c0,3.17,5.16,5.66,11.75,5.66a23.31,23.31,0,0,0,4.33-.4l.63.63a1.4,1.4,0,0,0,2,0l.66-.65a7.3,7.3,0,0,0,1.42.58v.93a1.39,1.39,0,0,0,1.39,1.39h1.55a1.39,1.39,0,0,0,1.39-1.39v-.93a7.57,7.57,0,0,0,1.42-.58l.65.65a1.4,1.4,0,0,0,2,0L34,35.47a1.41,1.41,0,0,0,0-2l-.66-.66a7.72,7.72,0,0,0,.59-1.42h.93A1.39,1.39,0,0,0,36.24,30V28.49A1.4,1.4,0,0,0,34.84,27.09ZM15.51,2.33c6.34,0,10.6,2.33,10.6,4.51h0c0,2.18-4.26,4.51-10.6,4.51S4.9,9,4.9,6.84,9.16,2.33,15.51,2.33ZM4.9,9.31c1.87,1.91,5.87,3.19,10.61,3.19s8.73-1.28,10.6-3.19V12.8c0,2.18-4.26,4.52-10.6,4.52S4.9,15,4.9,12.8Zm0,6c1.87,1.9,5.87,3.19,10.61,3.19s8.73-1.29,10.6-3.19V19.7h-.2a1.4,1.4,0,0,0-1.39,1.4V22a8,8,0,0,0-1.42.59L22.44,22a1.38,1.38,0,0,0-2,0l-1,1a23.42,23.42,0,0,1-4,.34c-6.35,0-10.61-2.33-10.61-4.51V15.27Zm0,6c1.87,1.9,5.87,3.18,10.61,3.18A23.14,23.14,0,0,0,19,24.16a1.38,1.38,0,0,0,.4.86l.66.65a7,7,0,0,0-.59,1.42h-.93a1.4,1.4,0,0,0-1.39,1.4v.68q-.81.06-1.62.06c-6.35,0-10.61-2.34-10.61-4.52V21.23Zm0,9.44V27.19c1.87,1.9,5.87,3.18,10.61,3.18q.82,0,1.65-.06a1.39,1.39,0,0,0,1.36,1.11h.93A6.76,6.76,0,0,0,20,32.84l-.66.66a1.38,1.38,0,0,0-.33,1.41,22.66,22.66,0,0,1-3.54.28C9.16,35.19,4.9,32.85,4.9,30.67ZM35.1,30a.26.26,0,0,1-.26.25H33.48a.58.58,0,0,0-.56.44,6,6,0,0,1-.79,1.91.57.57,0,0,0,.08.71l1,1a.25.25,0,0,1,0,.36l-1.09,1.09a.25.25,0,0,1-.36,0l-1-1a.56.56,0,0,0-.7-.08,6.65,6.65,0,0,1-1.91.79.57.57,0,0,0-.44.55v1.37a.26.26,0,0,1-.26.25H25.91a.25.25,0,0,1-.25-.25V36.05a.58.58,0,0,0-.44-.55,6.71,6.71,0,0,1-1.92-.79.53.53,0,0,0-.3-.09.58.58,0,0,0-.4.17l-1,1a.24.24,0,0,1-.35,0l-1.09-1.09a.25.25,0,0,1,0-.36l1-1a.57.57,0,0,0,.08-.71,6.54,6.54,0,0,1-.79-1.91.57.57,0,0,0-.55-.44H18.52a.25.25,0,0,1-.25-.25V28.48a.25.25,0,0,1,.25-.25h1.37a.57.57,0,0,0,.55-.44,6.65,6.65,0,0,1,.79-1.91.56.56,0,0,0-.08-.7l-1-1a.25.25,0,0,1,0-.36l1.09-1.09a.25.25,0,0,1,.36,0l1,1a.59.59,0,0,0,.71.08A6,6,0,0,1,25.22,23a.57.57,0,0,0,.44-.56V21.1a.26.26,0,0,1,.25-.26h1.54a.26.26,0,0,1,.26.26v1.36a.57.57,0,0,0,.44.56,6.13,6.13,0,0,1,1.91.79.57.57,0,0,0,.7-.08l1-1a.25.25,0,0,1,.36,0l1.09,1.09a.25.25,0,0,1,0,.36l-1,1a.57.57,0,0,0-.08.7,6.13,6.13,0,0,1,.79,1.91.57.57,0,0,0,.56.44h1.37a.26.26,0,0,1,.25.25V30Zm-8.42-5.41a4.64,4.64,0,1,0,4.64,4.64A4.64,4.64,0,0,0,26.68,24.62Zm0,8.14a3.5,3.5,0,1,1,3.5-3.5A3.5,3.5,0,0,1,26.68,32.76Z"/></svg>