<svg id="Layer_1" data-name="Layer 1" xmlns="http://www.w3.org/2000/svg" viewBox="0 0 40 40"><defs><style>.cls-1{fill:#b70000;}</style></defs><path class="cls-1" d="M34.19,20.59l.13-.13a.52.52,0,0,0,.13-.18h0l0,0,0-.09s0-.08,0-.17a1.88,1.88,0,0,0,.05-.22V19.5a.3.3,0,0,0-.05-.22c0-.08,0-.13,0-.17V19l0-.09s0-.08-.13-.17l-.13-.13-.13-.13h0l0,0L29.6,16.16,34,13.47l.17-.13.13-.13a.48.48,0,0,0,.13-.17l0,0,0-.08a.3.3,0,0,0,0-.18s.05-.13.05-.17V12.3a.3.3,0,0,0-.05-.22s0-.13,0-.17v-.09l0-.08c0-.05,0-.09-.13-.18l-.13-.13-.13-.13h0l0,0L20.31,4.1s-.08,0-.17-.09H20c-.08,0-.17,0-.26,0h-.21a.51.51,0,0,0-.26.09h-.09l-.09,0c-.26.17-12.49,7.64-13.14,8a1.27,1.27,0,0,0-.48.47,1.37,1.37,0,0,0-.13.83v.08a.73.73,0,0,0,.09.31l.13.21,0,.05.05,0,.08.09.09.09.17.08s.74.39,3.73,1.91l.7.35L6,19.37a1.2,1.2,0,0,0-.47.48,1.21,1.21,0,0,0-.14.78v.09a.93.93,0,0,0,.09.3l.13.22.05,0,.13.13.13.13.08,0c0,.05,4.43,2.3,4.43,2.3S6.13,26.49,6,26.62a1.24,1.24,0,0,0-.47.47,1.21,1.21,0,0,0-.14.78V28a.47.47,0,0,0,.09.26l.13.26.05,0,.13.13c0,.05.08.09.13.09l.13.09c.26.13,13.44,6.94,13.75,7.07,0,0,.08,0,.17,0s.22.05.31.09h.08a.94.94,0,0,0,.35,0l.13-.05a.86.86,0,0,0,.22-.08l13.1-8a.5.5,0,0,1,.17-.13l.13-.13a.63.63,0,0,0,.13-.17l0,0,.05-.08a.3.3,0,0,0,0-.18,2,2,0,0,0,0-.21v-.26c0-.09,0-.18,0-.22s0-.13,0-.17v-.09l-.05-.09a1.54,1.54,0,0,0-.13-.17l-.13-.13-.13-.13h0L34,25.7,29.6,23.41,34,20.72A.48.48,0,0,1,34.19,20.59ZM7.25,13.64l-.69-.34.65-.39C9.64,11.39,18,6.31,19.49,5.4l.21-.13,13.67,7-13.1,8-.22-.13C18.58,19.46,9.81,15,7.25,13.64ZM33.37,26.83l-13.1,8-.22-.13c-1.47-.74-10.19-5.25-12.8-6.6l-.69-.34,5.16-3.13.22.13c4.73,2.43,7.63,3.95,7.76,4s.09,0,.13,0,.22,0,.31.09h.22a1.82,1.82,0,0,0,.73-.27l7.2-4.42Zm-13.1.78-.22-.13c-1.47-.73-10.24-5.25-12.8-6.55l-.69-.34,5.16-3.17.22.13c3.77,1.95,7.63,3.95,7.76,4s.09,0,.13,0,.22.05.31.09h.13a1.29,1.29,0,0,0,.39,0l.09-.05A.71.71,0,0,0,21,21.5L28.29,17l5.08,2.6Z"/></svg>