<svg id="Layer_1" data-name="Layer 1" xmlns="http://www.w3.org/2000/svg" viewBox="0 0 40 40"><defs><style>.cls-1{fill:#b70000;}</style></defs><path class="cls-1" d="M33.74,4.92H6.26a3.52,3.52,0,0,0-3.5,3.5V31.58a3.52,3.52,0,0,0,3.5,3.5H33.74a3.52,3.52,0,0,0,3.5-3.5V8.42A3.54,3.54,0,0,0,33.74,4.92ZM6.26,6.05H33.74a2.36,2.36,0,0,1,2.37,2.37v2.17H3.89V8.42A2.36,2.36,0,0,1,6.26,6.05ZM33.74,34H6.26a2.36,2.36,0,0,1-2.37-2.37V11.72H36.07V31.58A2.37,2.37,0,0,1,33.74,34Z"/><path class="cls-1" d="M33,10.26a1.92,1.92,0,1,0-1.91-1.92A1.93,1.93,0,0,0,33,10.26Zm0-2.67a.79.79,0,1,1-.79.79A.79.79,0,0,1,33,7.59Z"/><path class="cls-1" d="M28.86,10.26A1.92,1.92,0,1,0,27,8.34,1.93,1.93,0,0,0,28.86,10.26Zm0-2.67a.79.79,0,1,1-.79.79A.8.8,0,0,1,28.86,7.59Z"/><path class="cls-1" d="M24.73,10.26a1.92,1.92,0,1,0-1.91-1.92A1.93,1.93,0,0,0,24.73,10.26Zm0-2.67a.79.79,0,0,1,0,1.58.77.77,0,0,1-.79-.79A.8.8,0,0,1,24.73,7.59Z"/><path class="cls-1" d="M12.34,18.63a.52.52,0,0,0-.56,0L6.37,21.45a.57.57,0,0,0-.3.48v1.62a.51.51,0,0,0,.3.49l5.41,2.81a.61.61,0,0,0,.26.08.84.84,0,0,0,.3-.08.64.64,0,0,0,.26-.49v-1.8a.51.51,0,0,0-.3-.49L9.79,22.76l2.51-1.31a.59.59,0,0,0,.3-.49v-1.8A.56.56,0,0,0,12.34,18.63Zm-.86,1.95-3.2,1.65a.61.61,0,0,0-.3.49.55.55,0,0,0,.3.49l3.2,1.65v.53L7.2,23.17v-.9l4.28-2.21Z"/><path class="cls-1" d="M24,16.11H22.33a.56.56,0,0,0-.49.3l-6,11a.64.64,0,0,0,0,.57.56.56,0,0,0,.49.26H18a.53.53,0,0,0,.49-.3l6-11a.61.61,0,0,0,0-.56A.55.55,0,0,0,24,16.11Zm-6.35,11h-.37l5.41-9.91H23Z"/><path class="cls-1" d="M33.59,21.45l-5.4-2.82a.71.71,0,0,0-.57,0,.64.64,0,0,0-.26.49v1.8a.5.5,0,0,0,.3.49l2.52,1.31L27.66,24a.57.57,0,0,0-.3.48v1.81a.67.67,0,0,0,.26.49.88.88,0,0,0,.3.07.9.9,0,0,0,.27-.07L33.59,24a.58.58,0,0,0,.3-.49V21.9A.48.48,0,0,0,33.59,21.45Zm-.82,1.76-4.28,2.22V24.9l3.19-1.65a.58.58,0,0,0,.3-.49.54.54,0,0,0-.3-.49l-3.19-1.65v-.53l4.28,2.22Z"/></svg>