<?xml version="1.0" encoding="utf-8"?>
<!-- Generator: Adobe Illustrator 16.0.0, SVG Export Plug-In . SVG Version: 6.00 Build 0)  -->
<!DOCTYPE svg PUBLIC "-//W3C//DTD SVG 1.1//EN" "http://www.w3.org/Graphics/SVG/1.1/DTD/svg11.dtd">
<svg version="1.1" xmlns="http://www.w3.org/2000/svg" xmlns:xlink="http://www.w3.org/1999/xlink" x="0px" y="0px"
	 width="428.206px" height="406.906px" viewBox="0 0 428.206 406.906" enable-background="new 0 0 428.206 406.906"
	 xml:space="preserve">
<g id="BACKGROUND">
</g>
<g id="OBJECTS">
	<g>
		<g>
			<g>
				<g>
					<g>
						<path fill="#060000" d="M235.418,26.714c10.322,0,18.72,8.398,18.72,18.72v332.629c0,10.322-8.397,18.72-18.72,18.72H93.641
							c-10.322,0-18.72-8.397-18.72-18.72V45.434c0-10.322,8.397-18.72,18.72-18.72H235.418 M235.418,16.967H93.641
							c-15.722,0-28.467,12.745-28.467,28.467v332.629c0,15.723,12.745,28.468,28.467,28.468h141.777
							c15.723,0,28.468-12.745,28.468-28.468V45.434C263.886,29.712,251.141,16.967,235.418,16.967L235.418,16.967z"/>
					</g>
					<g>
						<path fill="#060000" d="M208.885,17.951h-88.71V28.27c0,4.573,3.707,8.28,8.28,8.28h72.151c4.573,0,8.28-3.708,8.28-8.28
							V17.951L208.885,17.951z"/>
					</g>
					
						<line fill="none" stroke="#FFFFFF" stroke-width="0.764" stroke-linecap="round" stroke-linejoin="round" stroke-miterlimit="10" x1="148.017" y1="25.682" x2="182.034" y2="25.682"/>
				</g>
				<g>
					<g>
						<path fill="#9BBDF9" d="M199.957,363.728H98.635c-4.377,0-7.926-3.549-7.926-7.926v-84.625c0-4.377,3.548-7.926,7.926-7.926
							h101.322c4.377,0,7.926,3.549,7.926,7.926v84.625C207.883,360.179,204.334,363.728,199.957,363.728z"/>
						<g>
							<path fill="#FFFFFF" d="M133.536,306.898h-23.283c-1.741,0-3.152-1.411-3.152-3.151v-23.284c0-1.74,1.411-3.151,3.152-3.151
								h23.283c1.741,0,3.152,1.411,3.152,3.151v23.284C136.688,305.487,135.277,306.898,133.536,306.898z"/>
							
								<line fill="none" stroke="#000000" stroke-width="1.3" stroke-linecap="round" stroke-linejoin="round" stroke-miterlimit="10" x1="146.787" y1="286.646" x2="173.53" y2="286.646"/>
							
								<line fill="none" stroke="#000000" stroke-width="1.3" stroke-linecap="round" stroke-linejoin="round" stroke-miterlimit="10" x1="146.787" y1="296.168" x2="189.913" y2="296.168"/>
							
								<line fill="none" stroke="#FFFFFF" stroke-width="1.3" stroke-linecap="round" stroke-linejoin="round" stroke-miterlimit="10" x1="107.101" y1="319.216" x2="136.688" y2="319.216"/>
							
								<line fill="none" stroke="#FFFFFF" stroke-width="1.3" stroke-linecap="round" stroke-linejoin="round" stroke-miterlimit="10" x1="107.101" y1="329.048" x2="189.913" y2="329.048"/>
							
								<line fill="none" stroke="#FFFFFF" stroke-width="1.3" stroke-linecap="round" stroke-linejoin="round" stroke-miterlimit="10" x1="107.101" y1="339.88" x2="189.913" y2="339.88"/>
						</g>
					</g>
					<g>
						<circle fill="#DC761C" cx="23.731" cy="113.33" r="23.731"/>
						
							<polyline fill="none" stroke="#FFFFFF" stroke-width="2.1361" stroke-linecap="round" stroke-linejoin="round" stroke-miterlimit="10" points="
							14.172,114.459 21.62,119.977 34.381,106.735 						"/>
					</g>
					<g>
						<path fill="#4479FA" d="M116.432,241.932H36.973c-2.864,0-5.186-2.321-5.186-5.185v-55.362c0-2.864,2.322-5.185,5.186-5.185
							h79.459c2.863,0,5.185,2.321,5.185,5.185v55.362C121.617,239.61,119.295,241.932,116.432,241.932z"/>
						<g>
							<path fill="#FFFFFF" d="M90.549,203.715c0-7.838-6.354-14.191-14.191-14.191s-14.192,6.354-14.192,14.191
								c0,2.619,0.722,5.063,1.959,7.17h-0.008l0.041,0.053c0.544,0.917,1.185,1.768,1.915,2.537l10.285,13.624l10.275-13.612
								c0.738-0.776,1.385-1.636,1.934-2.563l0.029-0.038H88.59C89.828,208.778,90.549,206.334,90.549,203.715z M76.358,209.894
								c-3.449,0-6.246-2.796-6.246-6.245s2.796-6.246,6.246-6.246s6.246,2.797,6.246,6.246S79.807,209.894,76.358,209.894z"/>
						</g>
					</g>
					<g>
						<path fill="#FFFFFF" d="M233.014,166.521H95.984c-4.377,0-7.926-3.549-7.926-7.926V73.97c0-4.377,3.549-7.926,7.926-7.926
							h137.029c4.377,0,7.926,3.548,7.926,7.926v84.625C240.939,162.972,237.391,166.521,233.014,166.521z"/>
						<g>
							<g>
								<path fill="#9BBDF9" d="M123.808,115.944h-20.416c-1.526,0-2.764-1.237-2.764-2.764V92.765c0-1.526,1.237-2.764,2.764-2.764
									h20.416c1.526,0,2.764,1.237,2.764,2.764v20.416C126.572,114.707,125.334,115.944,123.808,115.944z"/>
								<path fill="#9BBDF9" d="M156.858,115.944h-20.416c-1.526,0-2.764-1.237-2.764-2.764V92.765c0-1.526,1.237-2.764,2.764-2.764
									h20.416c1.526,0,2.764,1.237,2.764,2.764v20.416C159.622,114.707,158.385,115.944,156.858,115.944z"/>
								<path fill="#9BBDF9" d="M189.909,115.944h-20.417c-1.526,0-2.764-1.237-2.764-2.764V92.765c0-1.526,1.237-2.764,2.764-2.764
									h20.417c1.526,0,2.764,1.237,2.764,2.764v20.416C192.673,114.707,191.435,115.944,189.909,115.944z"/>
								<path fill="#DC761C" d="M222.959,115.944h-20.416c-1.526,0-2.764-1.237-2.764-2.764V92.765c0-1.526,1.237-2.764,2.764-2.764
									h20.416c1.526,0,2.764,1.237,2.764,2.764v20.416C225.723,114.707,224.485,115.944,222.959,115.944z"/>
							</g>
							<g>
								<path fill="#9BBDF9" d="M123.808,150.94h-20.416c-1.526,0-2.764-1.237-2.764-2.764V127.76c0-1.526,1.237-2.764,2.764-2.764
									h20.416c1.526,0,2.764,1.237,2.764,2.764v20.416C126.572,149.703,125.334,150.94,123.808,150.94z"/>
								<path fill="#9BBDF9" d="M156.858,150.94h-20.416c-1.526,0-2.764-1.237-2.764-2.764V127.76c0-1.526,1.237-2.764,2.764-2.764
									h20.416c1.526,0,2.764,1.237,2.764,2.764v20.416C159.622,149.703,158.385,150.94,156.858,150.94z"/>
								<path fill="#9BBDF9" d="M189.909,150.94h-20.417c-1.526,0-2.764-1.237-2.764-2.764V127.76c0-1.526,1.237-2.764,2.764-2.764
									h20.417c1.526,0,2.764,1.237,2.764,2.764v20.416C192.673,149.703,191.435,150.94,189.909,150.94z"/>
								<path fill="#9BBDF9" d="M222.959,150.94h-20.416c-1.526,0-2.764-1.237-2.764-2.764V127.76c0-1.526,1.237-2.764,2.764-2.764
									h20.416c1.526,0,2.764,1.237,2.764,2.764v20.416C225.723,149.703,224.485,150.94,222.959,150.94z"/>
							</g>
						</g>
					</g>
					<g>
						<path fill="#FFFFFF" d="M235.754,241.932h-89.646c-2.863,0-5.185-2.321-5.185-5.185v-55.362c0-2.864,2.322-5.185,5.185-5.185
							h89.646c2.864,0,5.186,2.321,5.186,5.185v55.362C240.939,239.61,238.618,241.932,235.754,241.932z"/>
						<path fill="#9BBDF9" d="M227.341,198.6h-71.05c-1.526,0-2.764-1.237-2.764-2.764v-9.416c0-1.526,1.237-2.764,2.764-2.764
							h71.05c1.526,0,2.764,1.237,2.764,2.764v9.416C230.104,197.362,228.867,198.6,227.341,198.6z"/>
						<g>
							
								<line fill="none" stroke="#000000" stroke-width="1.3" stroke-linecap="round" stroke-linejoin="round" stroke-miterlimit="10" x1="154.527" y1="208.387" x2="189.426" y2="208.387"/>
							
								<line fill="none" stroke="#000000" stroke-width="1.3" stroke-linecap="round" stroke-linejoin="round" stroke-miterlimit="10" x1="154.527" y1="216.886" x2="229.104" y2="216.886"/>
							
								<line fill="none" stroke="#000000" stroke-width="1.3" stroke-linecap="round" stroke-linejoin="round" stroke-miterlimit="10" x1="154.527" y1="226.259" x2="229.104" y2="226.259"/>
						</g>
					</g>
					<g>
						<path fill="#DC761C" d="M283.826,342.336h-51.963c-3.486,0-6.313-2.826-6.313-6.313v-45.068c0-3.486,2.826-6.313,6.313-6.313
							h51.963c3.486,0,6.313,2.826,6.313,6.313v45.068C290.139,339.51,287.313,342.336,283.826,342.336z"/>
						<path fill="#FFFFFF" d="M270.641,310.976l-2.122-0.372c-0.248-0.925-0.616-1.813-1.095-2.643l1.237-1.764
							c0.455-0.647,0.378-1.529-0.183-2.088l-1.271-1.271c-0.568-0.55-1.448-0.612-2.088-0.149l-1.765,1.237
							c-0.829-0.479-1.717-0.847-2.642-1.095l-0.365-2.17c-0.133-0.77-0.794-1.337-1.574-1.352h-1.832
							c-0.794-0.001-1.474,0.569-1.608,1.352l-0.371,2.115c-0.925,0.249-1.813,0.616-2.643,1.096l-1.757-1.184
							c-0.648-0.454-1.529-0.377-2.089,0.183l-1.271,1.271c-0.56,0.56-0.637,1.44-0.183,2.089l1.237,1.764
							c-0.479,0.829-0.847,1.718-1.095,2.643l-2.115,0.371c-0.782,0.136-1.354,0.814-1.352,1.608v1.798
							c-0.002,0.794,0.569,1.474,1.352,1.608l2.115,0.372c0.248,0.925,0.616,1.813,1.095,2.643l-1.237,1.764
							c-0.454,0.647-0.377,1.528,0.183,2.088l1.271,1.271c0.56,0.561,1.44,0.637,2.089,0.183l1.764-1.237
							c0.829,0.479,1.718,0.847,2.642,1.095l0.372,2.116c0.135,0.782,0.814,1.353,1.608,1.352h1.825
							c0.794,0.001,1.473-0.569,1.608-1.352l0.371-2.116c0.925-0.248,1.813-0.615,2.643-1.095l1.724,1.21
							c0.647,0.455,1.528,0.378,2.088-0.183l1.271-1.271c0.561-0.559,0.637-1.44,0.183-2.088l-1.237-1.777
							c0.479-0.829,0.847-1.718,1.095-2.643l2.122-0.371c0.783-0.136,1.354-0.815,1.352-1.609v-1.797
							C271.991,311.785,271.421,311.11,270.641,310.976z M257.841,319.111c-3.112,0-5.636-2.522-5.636-5.636
							c0-3.112,2.523-5.636,5.637-5.636c3.112,0,5.636,2.523,5.636,5.636c0,0.011,0,0.021,0,0.031
							C263.46,316.607,260.942,319.112,257.841,319.111z"/>
					</g>
				</g>
			</g>
			
				<line fill="none" stroke="#000000" stroke-width="0.75" stroke-miterlimit="10" x1="9.252" y1="406.531" x2="419.192" y2="406.531"/>
		</g>
	</g>
	<g>
		<g>
			<g>
				<path fill="#9BBDF9" d="M344.318,36.085h40.309c9.964,0,18.042-8.078,18.042-18.043l0,0C402.669,8.078,394.591,0,384.627,0
					h-40.309c-9.965,0-18.043,8.078-18.043,18.042l0,0C326.275,28.007,334.354,36.085,344.318,36.085z"/>
				<polygon fill="#9BBDF9" points="358.504,32.108 345.424,44.951 343.046,31.157 				"/>
			</g>
			<g>
				<path fill="#FFFFFF" d="M358.42,12.316c-1.881-1.841-4.893-1.81-6.731,0.071l-1.213,1.238l-1.248-1.229
					c-1.872-1.847-4.887-1.822-6.732,0.051c-1.844,1.874-1.821,4.888,0.053,6.733l4.631,4.561c0.01,0.01,0.017,0.021,0.026,0.031
					c0.739,0.725,1.652,1.158,2.603,1.304c1.466,0.225,3.013-0.235,4.129-1.374l4.555-4.652
					C360.331,17.169,360.299,14.156,358.42,12.316z"/>
				
					<line fill="none" stroke="#FFFFFF" stroke-width="1.0186" stroke-linecap="round" stroke-linejoin="round" stroke-miterlimit="10" x1="367.528" y1="13.917" x2="386.073" y2="13.917"/>
				
					<line fill="none" stroke="#FFFFFF" stroke-width="1.0186" stroke-linecap="round" stroke-linejoin="round" stroke-miterlimit="10" x1="367.528" y1="19.062" x2="377.31" y2="19.062"/>
			</g>
		</g>
		<g>
			<g>
				<g>
					<g>
						<g>
							<path fill="#200902" d="M306.654,394.075l-11.86,6.529c-1.257,0.692-2.019,2.276-1.628,3.778
								c0.308,1.187,1.32,2.093,3.959,2.146c5.863,0.117,31.808-4.207,31.808-4.207v3.729l12.125,0.063
								c0,0,0.758-17.635-2.908-19.883L306.654,394.075z"/>
							<path fill="#ECC696" d="M322.542,381.106l-15.888,12.969c0,0,2.044,5.865,11.099,1.955
								c9.054-3.909,20.396-9.799,20.396-9.799l-1.654-6.786L322.542,381.106z"/>
						</g>
						<polygon fill="#ECC696" points="336.495,379.445 338.149,332.365 322.401,331.085 322.401,386.231 						"/>
					</g>
					<polygon fill="#3A2222" points="308.454,191.01 315.041,374.349 345.583,374.349 347.144,176.2 					"/>
				</g>
				<g>
					<path fill="#523332" d="M311.879,187.796l15.368,89.327c1.863,11.024,13.166,17.749,23.744,14.126l0,0
						c7.78-2.665,12.791-10.234,12.205-18.438l-2.94-40.574c-1.483-13.772,1.933-31.583-13.112-56.038L311.879,187.796z"/>
					<g>
						<g>
							<g>
								<path fill="#200902" d="M392.656,389.575l-6.59,11.826c-0.698,1.254-0.504,3.001,0.624,4.066
									c0.891,0.843,2.229,1.074,4.494-0.281c5.032-3.012,24.731-20.44,24.731-20.44l1.979,3.162l10.312-6.379
									c0,0-8.713-15.352-13.014-15.312L392.656,389.575z"/>
								<path fill="#ECC696" d="M399.244,370.153l-6.588,19.422c0,0,4.844,3.887,10.445-4.23
									c5.601-8.117,12.091-19.127,12.091-19.127l-5.001-4.875L399.244,370.153z"/>
							</g>
							<polygon fill="#ECC696" points="410.191,361.343 386.616,320.556 372.589,327.825 401.844,374.572 							"/>
						</g>
						<polygon fill="#523332" points="329.536,283.364 386.307,368.028 412.763,351.067 357.895,258.95 						"/>
					</g>
				</g>
			</g>
			<g>
				<path fill="#DC761C" d="M287.181,42.718c0,0-12.615-1.643-14.261,10.296c-1.225,8.887,2.866,13.264-0.34,20.412
					c-3.205,7.148,2.809,13.539,2.809,13.539s14.944,6.941,31.179-7.253L287.181,42.718z"/>
				<polygon fill="#ECC696" points="292.082,82.657 298.926,100.438 313.247,96.624 300.021,71.063 				"/>
				<polygon points="295.353,91.153 298.288,78.127 292.95,84.912 				"/>
				<path fill="#ECC696" d="M285.583,45.392c0,0-8.501,1.794-8.507,12.583c0,0-0.407,4.123,0.133,15.364
					c0.382,7.961,4.139,13.474,11.609,12.712c3.623-0.37,7.417-2.581,10.814-5.443l4.759-4.85
					c11.004-13.427-0.477-33.663-17.565-30.611C286.417,45.219,286.003,45.3,285.583,45.392z"/>
				<path fill="#ECC696" d="M277.752,67.064l-3.013,5.29c-0.354,0.56-0.17,1.422,0.569,1.469l3.905,0.508L277.752,67.064z"/>
				<path fill="#DC761C" d="M297.846,63.922c0.303-2.442,1.964-19.429-10.762-17.236c-1.975,0.34-2.976-2.289-1.276-3.35
					c4.547-2.839,11.771-4.797,22.212-0.775c4.239,1.633,10.08,7.222,10.082,12.712c0.006,11.786-3.921,17.762-10.829,23.829
					c-0.354,0.312-0.914,0.206-1.131-0.214l-4.451-8.601c-0.016-0.031-0.027-0.06-0.038-0.093c-0.49-1.561-2.968-4.844-3.663-5.747
					C297.872,64.294,297.822,64.112,297.846,63.922z"/>
				<path fill="#DC761C" d="M289.326,42.515c-16.004,7.377,7.417,24.938,7.417,24.938l0,0l6.591-12.973
					C303.334,54.481,292,41.283,289.326,42.515z"/>
				<g>
					<path d="M278.718,57.209l8.463,2.869c0,0-1.473-2.722-4.474-4.18C278.676,53.939,278.718,57.209,278.718,57.209z"/>
					<g>
						<g>
							<defs>
								<path id="XMLID_2_" d="M280.498,62.99c0,0,2.846,0.616,2.944,3.458c0.1,2.841-2.996,2.647-2.996,2.647
									S277.775,65.657,280.498,62.99z"/>
							</defs>
							<use xlink:href="#XMLID_2_"  overflow="visible" fill="#FFFFFF"/>
							<clipPath id="XMLID_3_">
								<use xlink:href="#XMLID_2_"  overflow="visible"/>
							</clipPath>
							<path clip-path="url(#XMLID_3_)" d="M281.073,62.255c0,0,2.21,4.108-0.627,6.84c-2.837,2.731,0,0,0,0l-1.592-0.152
								l-0.076-4.528L281.073,62.255z"/>
						</g>
						<g>
							<path d="M279.812,62.275c0.525,0.036,0.946,0.153,1.388,0.326c0.431,0.174,0.834,0.419,1.18,0.727
								c0.345,0.306,0.64,0.668,0.839,1.072c0.219,0.394,0.333,0.826,0.427,1.248c0.02,0.089-0.037,0.177-0.126,0.197
								c-0.081,0.018-0.161-0.027-0.189-0.103l-0.005-0.013c-0.146-0.379-0.304-0.75-0.543-1.061
								c-0.222-0.322-0.512-0.584-0.826-0.791c-0.316-0.208-0.667-0.356-1.032-0.445c-0.355-0.087-0.769-0.125-1.081-0.099
								l-0.021,0.002c-0.293,0.025-0.55-0.192-0.575-0.485s0.192-0.55,0.485-0.575C279.757,62.274,279.786,62.274,279.812,62.275z"
								/>
						</g>
					</g>
					<path fill="#C7181B" d="M277.731,75.84c-1.011,0.159-1.087,1.33-0.162,1.708c0,0-1.223,1.248,0.634,1.664
						s3.596-2.754,3.596-2.754C279.535,76.959,279.064,75.63,277.731,75.84z"/>
				</g>
				<path fill="#DC761C" d="M299.034,71.135c0.996,7.121,0.168,14.986,0.168,14.986s20.196,6.49,29.373-16.491
					c0,0-5.861-2.26-7.66-7.299c-1.8-5.039-0.023-22.566-23.597-22.046C297.318,40.285,297.912,63.112,299.034,71.135z"/>
				<g>
					<circle fill="#ECC696" cx="301.393" cy="67.984" r="5.441"/>
					
						<path fill="none" stroke="#000000" stroke-width="0.5111" stroke-linecap="round" stroke-linejoin="round" stroke-miterlimit="10" d="
						M299.034,70.286c0,0,0.214-4.143,3.627-4.216"/>
				</g>
			</g>
			<g>
				<g>
					<g>
						<path fill="#ECC696" d="M334.189,110.278l33.476,27.109c4.793,4.095,5.157,11.377,0.796,15.929l0,0
							c-3.988,4.163-10.519,4.528-14.946,0.835l-36.33-28.78L334.189,110.278z"/>
						<path fill="#467AC9" d="M354.272,120.23c0,0-1.431,10.794-20.241,23.183l-25.567-19.006c-7.14-5.308-8.183-15.6-2.253-22.232
							l0,0c4.913-5.494,13.069-6.65,19.315-2.737L354.272,120.23z"/>
					</g>
					<g>
						<g>
							<path fill="#ECC696" d="M353.655,154.541l33.205,42.66l8.145-9.546l-24.823-47.385c-4.037-5.446-12.004-5.952-16.696-1.059
								l0,0C349.357,143.514,349.434,150.33,353.655,154.541z"/>
						</g>
						<g>
							<path fill="#ECC696" d="M384.925,195.39l-0.342,2.136c-0.458,2.869-0.236,5.807,0.648,8.574l1.559,4.873
								c0.37,1.157,1.692,1.705,2.773,1.147l0,0c0.912-0.471,1.446-1.449,1.351-2.471l-0.509-5.406l10.801,15.285
								c0.51,0.762,1.573,0.903,2.265,0.301l0.464-0.404c0.546-0.476,0.681-1.271,0.322-1.899l-6.896-10.543l9.596,11.015
								c0.557,0.725,1.622,0.799,2.273,0.158l0.323-0.317c0.548-0.539,0.608-1.401,0.141-2.012l-7.935-10.214l7.726,6.431
								c0.729,0.645,1.865,0.451,2.339-0.398l0.096-0.171c0.324-0.583,0.231-1.309-0.228-1.791l-7.551-7.252l4.741,2.834
								c0.872,0.706,2.183,0.259,2.439-0.833l0,0c0.123-0.52-0.036-1.065-0.418-1.438L391.64,184.96l-3.937,4.503
								C386.238,191.139,385.275,193.192,384.925,195.39z"/>
						</g>
					</g>
				</g>
				<path fill="#4479FA" d="M308.604,96.082c0,0-13.157-1.275-13.329,22.493c-0.173,23.83,7.347,35.062,13.179,72.436
					c0,0,22.313-2.735,38.689-14.811C347.144,176.2,348.162,88.663,308.604,96.082z"/>
				<g>
					<g>
						<path fill="#ECC696" d="M305.945,127.924l-31.117,29.786c-4.667,4.238-11.938,3.68-15.902-1.221l0,0
							c-3.626-4.482-3.164-11.006,1.058-14.933l33.136-32.407L305.945,127.924z"/>
						<g>
							<path fill="#4479FA" d="M297.461,146.811c0,0-10.854-0.375-22.014-22.504l21.882-23.155
								c6.11-6.466,16.454-6.291,22.343,0.378l0,0c4.878,5.525,5.066,13.761,0.446,19.503L297.461,146.811z"/>
							
								<line fill="none" stroke="#000000" stroke-width="0.5111" stroke-linecap="round" stroke-linejoin="round" stroke-miterlimit="10" x1="300.466" y1="143.392" x2="315.426" y2="126.371"/>
						</g>
					</g>
					<g>
						<g>
							<path fill="#ECC696" d="M274.282,141.889l-44.341-33.553l-5.821,9.131l35.04,39.349c4.273,5.026,12.041,5.001,16.28-0.054
								l0,0C279.169,152.316,278.654,145.704,274.282,141.889z"/>
						</g>
						<g>
							<path fill="#ECC696" d="M235.815,117.603c-1.671,5.619-7.093,5.394-17.753,2.406c-5.645-1.582-7.692-5.582-6.021-11.2
								s7.581-8.819,13.199-7.148C230.858,103.332,237.486,111.984,235.815,117.603z"/>
							<path fill="#ECC696" d="M227.194,102.459l-13.549-7.877c-0.892-0.605-2.145-0.389-2.761,0.476l0,0
								c-0.534,0.75-0.414,1.75,0.285,2.359l10.517,8.89L227.194,102.459z"/>
						</g>
					</g>
				</g>
			</g>
		</g>
	</g>
</g>
</svg>
