<?xml version="1.0" encoding="utf-8"?>
<!-- Svg Vector Icons : http://www.onlinewebfonts.com/icon -->
<!DOCTYPE svg PUBLIC "-//W3C//DTD SVG 1.1//EN" "http://www.w3.org/Graphics/SVG/1.1/DTD/svg11.dtd">
<svg version="1.1" xmlns="http://www.w3.org/2000/svg" xmlns:xlink="http://www.w3.org/1999/xlink" x="0px" y="0px" viewBox="0 0 1000 1000" enable-background="new 0 0 1000 1000" xml:space="preserve">
<metadata> Svg Vector Icons : http://www.onlinewebfonts.com/icon </metadata>
<g><g transform="translate(0.000000,418.000000) scale(0.100000,-0.100000)"><path d="M155.5,3124.9l-55.5-55.5v-3162v-3160.1l47.9-45.9l45.9-47.9h2317.9h2316V-3672v-325.4l-1092.9-3.8l-1092.9-5.7l-45.9-53.6c-44-51.7-45.9-65.1-45.9-350.3v-298.6l55.5-55.5l55.5-55.5h2339h2339l55.5,55.5l55.5,55.5v298.6c0,285.2-1.9,298.6-45.9,350.3l-45.9,53.6l-1092.9,5.7l-1092.9,3.8v325.4v325.4h2316h2317.9l45.9,49.8l47.9,51.7V-88.8v3158.2l-55.5,55.5l-55.5,55.5H5000H211L155.5,3124.9z M9574.6-83.1v-2938.1H5000H425.4V-83.1V2855H5000h4574.6V-83.1z M7120.8-4412.7l5.7-82.3H5001.9H2875.4v86.1v86.1l2120.8-3.8l2118.9-5.7L7120.8-4412.7z"/><path d="M1947.1,1354.4c-74.6-34.5-153.1-118.7-189.5-206.7c-36.4-84.2-42.1-535.9-9.6-652.7c26.8-99.5,147.4-214.4,254.6-241.2c107.2-26.8,514.9-26.8,608.7-1.9c91.9,26.8,179.9,101.4,225.9,193.3c32.5,63.2,38.3,112.9,38.3,373.2c0,287.1-1.9,304.3-47.9,382.8c-28.7,49.8-82.3,103.4-132.1,132.1c-78.5,45.9-93.8,47.9-386.6,47.9C2098.3,1379.3,1987.3,1371.6,1947.1,1354.4z M2550,816.5V577.3h-248.8h-248.8v239.3v239.3h248.8H2550V816.5z"/><path d="M3727.1,1344.8c-78.5-47.9-157-134-179.9-199.1c-11.5-30.6-21.1-181.8-21.1-336.9c0-258.4,3.8-290.9,44-367.5c24.9-45.9,82.3-109.1,126.3-141.6l82.3-57.4h321.6h321.6l84.2,57.4c47.9,34.4,101.4,93.8,126.3,143.6c40.2,80.4,44,105.3,38.3,394.3c-5.7,290.9-7.7,312-53.6,375.2c-24.9,38.3-80.4,91.9-122.5,118.7c-74.6,47.9-84.2,49.8-394.3,49.8C3824.8,1381.2,3776.9,1377.3,3727.1,1344.8z M4349.2,816.5V577.3h-248.8h-248.8v239.3v239.3h248.8h248.8V816.5z"/><path d="M5507.2,1333.3c-42.1-24.9-97.6-78.5-124.4-116.8c-45.9-68.9-47.9-88.1-53.6-379c-5.7-289-1.9-313.9,38.3-394.3c24.9-49.8,78.5-109.1,126.3-143.6l84.2-57.4h321.6h321.6l82.3,57.4c44,32.5,101.5,95.7,126.3,143.6c44,82.3,45.9,101.4,40.2,396.2l-5.7,308.2l-59.3,74.7c-122.5,151.2-145.5,158.9-503.4,158.9C5599.1,1381.2,5580,1379.3,5507.2,1333.3z M6148.4,816.5V577.3h-248.8h-248.8v239.3v239.3h248.8h248.8V816.5z"/><path d="M7302.6,1331.4c-47.9-26.8-103.3-84.2-132.1-132.1c-47.9-82.3-47.9-90-42.1-409.6l5.7-323.5l59.3-74.7c105.3-130.2,157-149.3,438.3-156.9c323.5-7.7,423,13.4,524.5,116.8c42.1,42.1,86.1,107.2,97.6,145.5c9.6,40.2,19.1,187.6,19.1,329.2c0,285.2-23,365.6-126.3,463.2c-88.1,80.4-143.6,91.9-463.2,91.9C7396.4,1381.2,7379.2,1379.3,7302.6,1331.4z M7947.7,816.5V577.3h-248.8H7450v239.3v239.3h248.8h248.8V816.5z"/><path d="M1927.9-452.5c-82.3-51.7-158.9-145.5-183.7-229.7c-13.4-44-19.1-179.9-13.4-352.2l5.7-279.5l59.3-74.6c32.5-40.2,88.1-91.9,124.4-116.8c63.2-42.1,76.6-44,402-38.3c335,5.7,336.9,5.7,405.8,59.3c128.2,97.6,147.4,162.7,147.4,501.5c0,338.8-19.1,403.9-147.4,501.5c-68.9,53.6-70.8,53.6-405.8,59.3C2019.8-418,1979.6-420,1927.9-452.5z M2550-982.7V-1222h-248.8h-248.8v239.3v239.3h248.8H2550V-982.7z"/><path d="M3708-465.9c-42.1-24.9-97.6-78.5-124.4-116.8c-45.9-67-47.9-88.1-53.6-375.2c-5.7-281.4-3.8-310.1,36.4-392.4c28.7-57.4,70.8-105.3,128.2-141.6c88.1-55.5,88.1-55.5,400-55.5c363.7,0,426.8,19.1,516.8,157c51.7,76.6,53.6,88,59.3,382.8c5.7,281.4,3.8,310.1-36.4,392.4c-28.7,57.4-70.8,105.3-128.2,141.6c-88.1,55.5-88.1,55.5-403.9,55.5C3799.9-418,3780.7-420,3708-465.9z M4349.2-982.7V-1222h-248.8h-248.8v239.3v239.3h248.8h248.8V-982.7z"/><path d="M5493.8-473.6c-57.4-36.4-99.5-84.2-128.3-141.6c-40.2-82.3-42.1-111-36.4-392.4c5.7-294.8,7.6-306.3,59.3-382.8c90-137.8,155-157,513-157c354.1,0,411.5,19.1,509.2,158.9c53.6,76.6,53.6,78.5,53.6,405.8c0,327.3,0,329.2-53.6,405.8C6313-435.3,6255.6-418,5895.8-418C5581.9-418,5581.9-418,5493.8-473.6z M6148.4-982.7V-1222h-248.8h-248.8v239.3v239.3h248.8h248.8V-982.7z"/><path d="M7325.6-448.7c-172.3-90-201-164.6-201-534c0-338.8,19.1-403.9,147.4-501.5c68.9-53.6,72.7-53.6,384.7-59.3c174.2-3.8,336.9-1.9,359.8,3.8c68.9,17.2,181.8,126.3,220.1,212.5c47.9,103.4,51.7,566.6,5.8,675.7c-34.5,82.3-111,168.4-183.8,206.7C7980.2-404.6,7404.1-406.6,7325.6-448.7z M7947.7-982.7V-1222h-248.8H7450v239.3v239.3h248.8h248.8V-982.7z"/></g></g>
</svg>