<?xml version="1.0" encoding="utf-8"?>
<!-- Generator: Adobe Illustrator 16.0.0, SVG Export Plug-In . SVG Version: 6.00 Build 0)  -->
<!DOCTYPE svg PUBLIC "-//W3C//DTD SVG 1.1//EN" "http://www.w3.org/Graphics/SVG/1.1/DTD/svg11.dtd">
<svg version="1.1" id="Capa_1" xmlns="http://www.w3.org/2000/svg" xmlns:xlink="http://www.w3.org/1999/xlink" x="0px" y="0px"
	 width="612px" height="612px" viewBox="0.001 90 612 612" enable-background="new 0.001 90 612 612" xml:space="preserve">
<g>
	<g>
		<g>
			<path fill="#010002" d="M445.202,702H166.798c-52.462,0-95.126-42.682-95.126-95.126V185.126
				c0-52.445,42.663-95.126,95.126-95.126h278.406c52.445,0,95.126,42.682,95.126,95.126v421.747
				C540.329,659.318,497.647,702,445.202,702z M166.798,126.225c-32.475,0-58.902,26.425-58.902,58.902v421.747
				c0,32.476,26.426,58.902,58.902,58.902h278.406c32.475,0,58.902-26.426,58.902-58.902V185.126
				c0-32.475-26.426-58.902-58.902-58.902C445.202,126.225,166.798,126.225,166.798,126.225z"/>
		</g>
		<g>
			<circle fill="#E61F2D" cx="306.001" cy="618.366" r="22.641"/>
		</g>
	</g>
</g>
</svg>
