<svg xmlns="http://www.w3.org/2000/svg" xmlns:xlink="http://www.w3.org/1999/xlink" width="60" height="60" viewBox="0 0 60 60">
  <defs>
    <clipPath id="clip-_11_Years_Experience">
      <rect width="60" height="60"/>
    </clipPath>
  </defs>
  <g id="_11_Years_Experience" data-name="11+Years Experience" clip-path="url(#clip-_11_Years_Experience)">
    <g id="Group_188" data-name="Group 188" transform="translate(-25.9 -5.025)">
      <path id="Path_463" data-name="Path 463" d="M40.164,52.833a.571.571,0,0,1,0-1.142H65.55a16.4,16.4,0,0,1,1.27-5.184.542.542,0,0,1,.012-.548l7.095-12.291V27.715h0A3.207,3.207,0,0,0,70.711,24.5H63.383l1.468,1.433a1.691,1.691,0,0,1-.489,2.749l-1.981.9h0a.525.525,0,0,0-.315.559l.21,2.167,2.54,6.128a.573.573,0,0,1-.746.746l-2.854-1.072L59.993,40.74a.575.575,0,0,1-1.06-.047l-2.365-5.709a2.925,2.925,0,0,1-.979,1.083,1.7,1.7,0,0,1-2.19-.548l-.373-.536-2.365,5.709a.566.566,0,0,1-1.049.047L48.4,38.107l-2.854,1.072a.566.566,0,0,1-.734-.746l2.528-6.128.21-2.155a.574.574,0,0,0-.07-.338h0a.481.481,0,0,0-.256-.221l-1.981-.9h0a1.684,1.684,0,0,1-.478-2.749l1.456-1.433H36.855v28.4a.572.572,0,0,1-.571.571h-2.6c-1.4,0-2.645.676-2.645,2.12a1.754,1.754,0,0,0,.862,1.456,4.6,4.6,0,0,0,2.54.676H70.571a5.562,5.562,0,0,1,3.344,1.037V43.792l-2.715,4.7a.553.553,0,0,1-.478.28,15.479,15.479,0,0,1-4.357,3.984.753.753,0,0,1-.384.07H40.164Zm0-3.029a.571.571,0,0,1,0-1.142H62.521a.571.571,0,0,1,0,1.142Zm0-3.029a.571.571,0,0,1,0-1.142H62.521a.571.571,0,0,1,0,1.142ZM51.581,25.909a.566.566,0,0,1,.979-.571l.955,1.643,3.623-3.623a.568.568,0,0,1,.8.8l-4.147,4.159h0a.568.568,0,0,1-.9-.117ZM54.8,20.352a5.5,5.5,0,1,1-5.5,5.5,5.494,5.494,0,0,1,5.5-5.5Zm3.087,2.412a4.358,4.358,0,1,0,0,6.163,4.36,4.36,0,0,0,0-6.163ZM55.344,6.418l.746,2.307h2.423a.569.569,0,0,1,.338,1.025h0l-1.969,1.421.757,2.307a.567.567,0,0,1-.909.606l-1.922-1.41-1.957,1.433a.566.566,0,0,1-.874-.629h0l.757-2.307L50.754,9.75a.566.566,0,0,1,.373-1.025h2.388l.746-2.307a.57.57,0,0,1,1.083,0Zm-.21,3.052-.326-1.025L54.47,9.471h0a.563.563,0,0,1-.536.4H52.863c1.375.99,1.27.687.746,2.3,1.363-1,1.037-1,2.412,0-.524-1.608-.629-1.3.746-2.3H55.717a.582.582,0,0,1-.583-.4Zm13.386,3.81.746,2.307,2.423-.012a.569.569,0,0,1,.338,1.025h0l-1.969,1.421.757,2.307a.566.566,0,0,1-.909.606l-1.922-1.4-1.957,1.433a.569.569,0,0,1-.874-.641h0l.757-2.307-1.981-1.41a.567.567,0,0,1,.373-1.025l2.388.012.746-2.307a.568.568,0,0,1,1.083-.012Zm-.21,3.052-.326-1.025-.326,1.025h0a.563.563,0,0,1-.536.4h-1.1c1.375.99,1.27.687.746,2.3,1.363-1,1.049-1,2.412,0-.524-1.608-.629-1.3.746-2.3H68.882a.577.577,0,0,1-.571-.4ZM42.168,13.28l.746,2.307,2.423-.012a.569.569,0,0,1,.338,1.025h0l-1.969,1.421.757,2.307a.566.566,0,0,1-.909.606l-1.922-1.4-1.957,1.433a.569.569,0,0,1-.874-.641h0l.757-2.307-1.981-1.41a.567.567,0,0,1,.373-1.025l2.388.012.746-2.307a.568.568,0,0,1,1.083-.012Zm-.21,3.052-.326-1.025-.326,1.025h0a.563.563,0,0,1-.536.4H39.686c1.375.99,1.27.687.746,2.3,1.363-1,1.049-1,2.412,0-.524-1.608-.629-1.3.746-2.3H42.541a.572.572,0,0,1-.583-.4Zm13.3,18.547,1.223-1.794a1.67,1.67,0,0,1,1.852-.676l2.085.583a.545.545,0,0,0,.7-.583l-.21-2.167a1.677,1.677,0,0,1,.979-1.7h0l2-.909a.548.548,0,0,0,.14-.885l-1.549-1.526a1.655,1.655,0,0,1-.338-1.934l.944-1.957a.554.554,0,0,0-.454-.792l-2.167-.163a1.688,1.688,0,0,1-1.515-1.27l-.536-2.1a.554.554,0,0,0-.862-.315l-1.771,1.258a1.66,1.66,0,0,1-1.969,0l-1.771-1.27a.554.554,0,0,0-.862.315l-.536,2.1a1.688,1.688,0,0,1-1.515,1.27l-2.167.163a.549.549,0,0,0-.454.792l.944,1.957a1.67,1.67,0,0,1-.338,1.934L45.57,26.736a.549.549,0,0,0,.163.9h0l1.981.9a1.722,1.722,0,0,1,.769.7h0a1.605,1.605,0,0,1,.21,1.014l-.21,2.2a.546.546,0,0,0,.7.548l2.085-.583a1.676,1.676,0,0,1,1.852.676l1.235,1.794a.55.55,0,0,0,.909,0Zm2.167-1.153-.093.128,2.155,5.219.885-1.934h0a.56.56,0,0,1,.711-.291l2.144.8-1.6-3.88a1.654,1.654,0,0,1-1.515.315l-2.1-.583a.549.549,0,0,0-.594.221Zm-5.161.128c-.151-.233-.326-.454-.7-.35l-2.085.583a1.654,1.654,0,0,1-1.515-.315l-1.608,3.88,2.144-.8a.578.578,0,0,1,.722.291h0l.885,1.934ZM46.222,23.346l-.734-1.538a1.685,1.685,0,0,1,1.4-2.412l2.167-.163a.535.535,0,0,0,.489-.408l.548-2.109a1.693,1.693,0,0,1,2.621-.955l1.771,1.258a.542.542,0,0,0,.641,0l1.771-1.258a1.688,1.688,0,0,1,2.621.955l.536,2.109a.532.532,0,0,0,.489.408l2.167.163a1.688,1.688,0,0,1,1.4,2.412l-.734,1.538H70.7A4.358,4.358,0,0,1,75.056,27.7h0v3.984l2.33-4.019a.569.569,0,0,1,.781-.21l.268.151,1.223-2.12a.56.56,0,0,1,.8-.186l1.841,1.06a.574.574,0,0,1,.21.781h0l-1.223,2.12.268.151a.56.56,0,0,1,.186.8L75.056,41.8V60.988a2.809,2.809,0,0,1-1.421,2.423,6.258,6.258,0,0,1-3.344.839H66.913a.572.572,0,0,1-.571-.571V58.856h-31.9c-2.12,0-4.544-1.06-4.544-3.274V21.214c0-2.085,1.748-3.262,3.786-3.262h2.6a.572.572,0,0,1,.571.571v4.823Zm34.007,6.629L78.085,28.74,68.1,46.041l2.412,1.386,9.984-17.3Zm1.014-2.9-.885-.513-.944,1.619.885.513ZM67.006,49.617a14.317,14.317,0,0,0-.28,1.561,15.96,15.96,0,0,0,2.959-2.924l-1.911-1.107a18.53,18.53,0,0,0-.769,2.47ZM35.7,23.929V19.105H33.686c-1.4,0-2.645.676-2.645,2.12V53.182a4.221,4.221,0,0,1,2.645-.839H35.7ZM73.915,61.011c0-1.48-1.864-2.062-3.087-2.132l-.315-.012H67.484V63.12h2.808a5.125,5.125,0,0,0,2.726-.652,1.686,1.686,0,0,0,.9-1.456Z" transform="translate(0 0)" fill="#bc2834" stroke="#bc2834" stroke-width="0.2"/>
    </g>
  </g>
</svg>
