<svg xmlns="http://www.w3.org/2000/svg" xmlns:xlink="http://www.w3.org/1999/xlink" width="60" height="60" viewBox="0 0 60 60">
  <defs>
    <clipPath id="clip-_1500_Successful_Projects">
      <rect width="60" height="60"/>
    </clipPath>
  </defs>
  <g id="_1500_Successful_Projects" data-name="1500+Successful Projects" clip-path="url(#clip-_1500_Successful_Projects)">
    <rect id="Rectangle_1" data-name="Rectangle 1" width="61.6" height="61.6" transform="translate(0 0.005)" fill="none"/>
    <g id="Group_190" data-name="Group 190" transform="translate(-9711.628 1405.413)">
      <path id="Path_475" data-name="Path 475" d="M9756.816-1345.413c-2.248,0-4.562,0-7.078-.007a1.725,1.725,0,0,1-1.812-1.445c-.266-1.828-.041-4.293,2.543-5.66a7.221,7.221,0,0,1,1.477-.515c.266-.072.539-.147.824-.237l.115-.037v-1.54c0-.277,0-.558,0-.83,0-.67-.012-1.364.014-2.042a.9.9,0,0,0-.555-.913,8.357,8.357,0,0,1-3.7-4.126,1.049,1.049,0,0,0-1.152-.722h-.006c-5.863.009-11.7.01-16.646.01h-9.676c-.357,0-.715,0-1.062,0s-.705,0-1.057,0c-.566,0-1.029-.006-1.461-.019a5.971,5.971,0,0,1-4.039-1.737,6.039,6.039,0,0,1-1.775-4.036c-.012-.243-.012-.492-.012-.733v-31.752c0-2.07.459-2.766,2.334-3.515h15.336a5.654,5.654,0,0,1,2.189,1.616c.268.278.547.552.814.816.322.315.654.642.963.976a1.838,1.838,0,0,0,1.459.606h.016c1.76-.008,3.688-.011,6.059-.011l3.807,0h1.646a3.152,3.152,0,0,1,2.324.823,3.188,3.188,0,0,1,.822,2.334v2.858h6.742c2.191,0,3.3,1.115,3.3,3.31v4.485q0,2.692,0,5.385c0,.161.012.318.021.47,0,.065.008.129.01.19l.006.117.113.034.088.029a.378.378,0,0,0,.137.031l1.314,0c.783,0,1.592,0,2.387.01a1.839,1.839,0,0,1,1.939,1.94c.006.19,0,.381,0,.584v.467h.166c.363,0,.721,0,1.066.009s.67.009,1,.009c.486,0,.889-.01,1.262-.03.088,0,.174-.007.256-.007a2.217,2.217,0,0,1,2.26,1.377V-1375c-.084.365-.16.737-.232,1.1a22.141,22.141,0,0,1-.582,2.4,14.269,14.269,0,0,1-4.963,6.924,2.014,2.014,0,0,0-.645.9,8.879,8.879,0,0,1-4.113,5.072.877.877,0,0,0-.514.874c.016,1.067.014,2.113.01,3.22,0,.4,0,.808,0,1.217v.147l.146.019c.105.013.207.025.307.035.2.022.389.043.572.078a4.891,4.891,0,0,1,2.787,1.571,4.934,4.934,0,0,1,1.205,2.976,10.642,10.642,0,0,1,0,1.271,1.821,1.821,0,0,1-1.861,1.787C9761.525-1345.415,9759.2-1345.413,9756.816-1345.413Zm-3.924-6.036a3.381,3.381,0,0,0-2.609,1.171,3.547,3.547,0,0,0-.687,3.021l.023.138h14.211l.023-.139a3.65,3.65,0,0,0-.7-3.025,3.426,3.426,0,0,0-2.643-1.167c-.051,0-.105,0-.156,0-1.184.046-2.4.07-3.617.07s-2.463-.023-3.711-.069C9752.982-1351.448,9752.938-1351.448,9752.893-1351.448Zm1.688-1.7h4.281v-4.4h-4.281Zm-5-26.208c-.008.037-.016.067-.023.093a.588.588,0,0,0-.027.163c0,1.305-.008,2.633-.016,3.917-.018,2.99-.035,6.082.041,9.122a7.082,7.082,0,0,0,7.137,6.932h0a7.288,7.288,0,0,0,1.537-.165,7.158,7.158,0,0,0,5.688-7.16c.01-3.025.006-6.1,0-9.075v-3.2c0-.133-.008-.263-.018-.4,0-.065-.008-.131-.01-.2l-.008-.159h-14.273Zm-34.518-24.238c-1.287,0-1.639.358-1.639,1.664q0,15.978,0,31.957v.111c0,.178,0,.362.01.545a4.339,4.339,0,0,0,4.234,4.166,4.053,4.053,0,0,0,1.139-.165,4.17,4.17,0,0,0,2.965-4.215c0-5.036,0-10.156,0-15.108v-7.273a3.413,3.413,0,0,1,.832-2.5,3.441,3.441,0,0,1,2.512-.83h22.734v-1.012c0-.607,0-1.185,0-1.762,0-1.188-.379-1.569-1.553-1.569l-2.824,0-3.453,0c-2.068,0-3.75,0-5.3.012h-.021a3.169,3.169,0,0,1-2.426-1.019c-.361-.375-.736-.746-1.1-1.105-.416-.413-.85-.84-1.258-1.271a1.93,1.93,0,0,0-1.514-.629h-.01c-2.553.01-5.092.011-7.02.011h-6.316Zm10.105,10.025c-1.383,0-1.721.336-1.721,1.714v5.031c0,5.574,0,11.337,0,17.006v.205a4.792,4.792,0,0,1-.135,1.433,20.938,20.938,0,0,1-.764,1.95c-.113.262-.23.534-.34.8l-.1.23h24.408l-.021-.187c0-.02,0-.035-.006-.047a.194.194,0,0,0-.053-.143c-.072-.077-.148-.154-.223-.23-.113-.117-.23-.239-.346-.36a14.743,14.743,0,0,1-4.014-9.651,2.4,2.4,0,0,1,.479-1.813,2.46,2.46,0,0,1,1.838-.56h3.68v-.86a2.2,2.2,0,0,1,.535-1.606,2.241,2.241,0,0,1,1.625-.526h7.881v-3.655q0-3.528,0-7.056c0-1.33-.348-1.675-1.7-1.675H9725.17Zm40.441,27.023.287-.291a13.317,13.317,0,0,0,4.031-9.458l0-.17h-4.322Zm-22.1-9.76a13.331,13.331,0,0,0,4.031,9.455l.285.289v-9.914h-4.318Z" fill="#bc2834"/>
      <path id="Path_476" data-name="Path 476" d="M10059.84-1058.741h-6.926l-2.258,0a1.886,1.886,0,0,1-2.133-2.109c-.01-1.969-.01-3.775,0-5.52a1.859,1.859,0,0,1,2.1-2.076c1.9,0,3.84-.005,5.746-.005s3.854,0,5.766.005a1.88,1.88,0,0,1,2.1,2.131c0,1.794,0,3.648,0,5.521a2.054,2.054,0,0,1-.539,1.515,2.091,2.091,0,0,1-1.529.537C10061.48-1058.742,10060.742-1058.741,10059.84-1058.741Zm-9.6-1.707h12.3v-6.287h-12.3Z" transform="translate(-322.726 -322.771)" fill="#bc2834"/>
      <path id="Path_477" data-name="Path 477" d="M10083.9-777.684H10078l-2.5,0h0c-.484,0-.774-.163-.864-.484a1.127,1.127,0,0,1,.087-.833.988.988,0,0,1,.7-.334c1.854-.014,3.808-.02,6.147-.02,1.6,0,3.234,0,4.761.006a.928.928,0,0,1,.673.262.8.8,0,0,1,.224.575.856.856,0,0,1-.929.823C10085.6-777.686,10084.837-777.684,10083.9-777.684Z" transform="translate(-347.714 -599.821)" fill="#bc2834"/>
      <path id="Path_478" data-name="Path 478" d="M10075.207-681.577c-.514,0-.936,0-1.326,0a1.122,1.122,0,0,1-.811-.281.757.757,0,0,1-.211-.557c.006-.509.4-.827,1.035-.828,1.139,0,2.26,0,3.334,0,1.121,0,2.23,0,3.3,0a1.125,1.125,0,0,1,.811.287.758.758,0,0,1,.217.553c-.006.506-.4.823-1.041.826-.4,0-.828,0-1.348,0h-3.957Z" transform="translate(-346.056 -691.923)" fill="#bc2834"/>
      <path id="Path_479" data-name="Path 479" d="M10678.822-599.9l-.09,0a4.714,4.714,0,0,1-3.229-1.459,5.109,5.109,0,0,1-1.371-3.387c-.016-.533-.012-1.077-.008-1.6,0-.242,0-.493,0-.74v-.167h0l0-.521q0-.771,0-1.542c0-1.112.48-1.241.84-1.241h.014c.381,0,.818.144.82,1.2v1.753c0,.849,0,1.727,0,2.591a3.165,3.165,0,0,0,3.082,3.448c.361.042.961.216.922.9C10679.768-600,10679.174-599.9,10678.822-599.9Z" transform="translate(-922.262 -761.579)" fill="#bc2834"/>
      <path id="Path_480" data-name="Path 480" d="M10674.923-728.509c-.5-.01-.8-.379-.826-.988a6.933,6.933,0,0,1,.01-.856.836.836,0,0,1,.83-.813h.043a.813.813,0,0,1,.783.846c.008.112.006.226,0,.346,0,.056,0,.113,0,.169v.167h.006c0,.041,0,.081,0,.122-.018.639-.318,1.006-.822,1.006Z" transform="translate(-922.23 -646.004)" fill="#bc2834"/>
    </g>
  </g>
</svg>
