<svg xmlns="http://www.w3.org/2000/svg" xmlns:xlink="http://www.w3.org/1999/xlink" width="60" height="60" viewBox="0 0 60 60">
  <defs>
    <clipPath id="clip-_24_7Support_Services">
      <rect width="60" height="60"/>
    </clipPath>
  </defs>
  <g id="_24_7Support_Services" data-name="24/7Support Services" clip-path="url(#clip-_24_7Support_Services)">
    <rect id="Rectangle_1" data-name="Rectangle 1" width="61.6" height="61.6" transform="translate(0 0.005)" fill="none"/>
    <g id="Group_194" data-name="Group 194" transform="translate(2.063 -0.253)">
      <g id="Group_193" data-name="Group 193" transform="translate(0.528 0.36)">
        <path id="Path_520" data-name="Path 520" d="M32.264,29.314H1.185a.655.655,0,0,1-.657-.647V16.349A12.979,12.979,0,0,1,13.493,3.384h3.285a.637.637,0,0,1,.539.294l5.453,8.179,5.453-8.179a.637.637,0,0,1,.539-.294h3.285a12.92,12.92,0,0,1,6.179,1.579A.654.654,0,1,1,37.6,6.11a11.57,11.57,0,0,0-5.551-1.422H29.116L23.32,13.4a.667.667,0,0,1-.549.294.637.637,0,0,1-.539-.294L16.426,4.688H13.493A11.673,11.673,0,0,0,1.842,16.349V28.01H32.264a.652.652,0,0,1,0,1.3Z" transform="translate(-0.528 26.273)" fill="#bc2834" stroke="#b52632" stroke-width="0.4" fill-rule="evenodd"/>
        <path id="Path_521" data-name="Path 521" d="M2.775,8.009a.655.655,0,0,1-.657-.647v-3.7a.657.657,0,0,1,1.314,0v3.7A.655.655,0,0,1,2.775,8.009Z" transform="translate(13.476 22.953)" fill="#bc2834" stroke="#b52632" stroke-width="0.4" fill-rule="evenodd"/>
        <path id="Path_522" data-name="Path 522" d="M3.988,8.009a.647.647,0,0,1-.647-.647v-3.7a.649.649,0,0,1,.647-.657.657.657,0,0,1,.657.657v3.7A.655.655,0,0,1,3.988,8.009Z" transform="translate(24.247 22.953)" fill="#bc2834" stroke="#b52632" stroke-width="0.4" fill-rule="evenodd"/>
        <path id="Path_523" data-name="Path 523" d="M11.85,13A10.091,10.091,0,0,1,1.768,2.923a.652.652,0,1,1,1.3,0,8.778,8.778,0,0,0,17.555,0,.657.657,0,0,1,.657-.657.649.649,0,0,1,.647.657A10.091,10.091,0,0,1,11.85,13Z" transform="translate(10.393 16.427)" fill="#bc2834" stroke="#b52632" stroke-width="0.4" fill-rule="evenodd"/>
        <path id="Path_524" data-name="Path 524" d="M5,8.1h.942a1.814,1.814,0,0,0,1.814-1.8V4.723A1.817,1.817,0,0,0,5.937,2.908H5Zm.942,1.314H4.348a.657.657,0,0,1-.657-.657v-6.5A.655.655,0,0,1,4.348,1.6H5.937A3.114,3.114,0,0,1,9.056,4.723V6.292A3.12,3.12,0,0,1,5.937,9.411Z" transform="translate(27.329 10.596)" fill="#bc2834" stroke="#b52632" stroke-width="0.4" fill-rule="evenodd"/>
        <path id="Path_525" data-name="Path 525" d="M4.473,2.908A1.817,1.817,0,0,0,2.658,4.723V6.292A1.814,1.814,0,0,0,4.473,8.1h.941V2.908Zm1.589,6.5H4.473A3.12,3.12,0,0,1,1.354,6.292V4.723A3.114,3.114,0,0,1,4.473,1.6H6.061a.655.655,0,0,1,.657.647v6.5A.657.657,0,0,1,6.061,9.411Z" transform="translate(6.747 10.596)" fill="#bc2834" stroke="#b52632" stroke-width="0.4" fill-rule="evenodd"/>
        <path id="Path_526" data-name="Path 526" d="M25.808,13.992a.655.655,0,0,1-.657-.647V11.07a9.413,9.413,0,0,0-9.405-9.405H12.235A9.413,9.413,0,0,0,2.829,11.07v2.275a.652.652,0,0,1-1.3,0V11.07A10.723,10.723,0,0,1,12.235.36h3.511a10.723,10.723,0,0,1,10.71,10.71v2.275A.653.653,0,0,1,25.808,13.992Z" transform="translate(8.253 -0.36)" fill="#bc2834" stroke="#b52632" stroke-width="0.4" fill-rule="evenodd"/>
        <path id="Path_527" data-name="Path 527" d="M18.842,6.161A23.915,23.915,0,0,1,7.27,2.621a.362.362,0,0,0-.265-.049c-2.2.441-4.031,3.07-4.05,3.1a.646.646,0,0,1-.9.167.657.657,0,0,1-.177-.9c.088-.127,2.148-3.109,4.874-3.648a1.67,1.67,0,0,1,1.236.245c1.824,1.2,7.748,4.09,13.181,3.129a.648.648,0,0,1,.755.53.641.641,0,0,1-.53.755A14.063,14.063,0,0,1,18.842,6.161Z" transform="translate(10.393 7.549)" fill="#bc2834" stroke="#b52632" stroke-width="0.4" fill-rule="evenodd"/>
        <path id="Path_528" data-name="Path 528" d="M10.36,7.943H3.779a.652.652,0,1,1,0-1.3H10.36a1.413,1.413,0,0,0,1.412-1.412V2.873a.657.657,0,1,1,1.314,0V5.227A2.725,2.725,0,0,1,10.36,7.943Z" transform="translate(22.318 15.986)" fill="#bc2834" stroke="#b52632" stroke-width="0.4" fill-rule="evenodd"/>
        <path id="Path_529" data-name="Path 529" d="M4.924,3.756A1.134,1.134,0,0,0,3.8,4.884v.657A1.134,1.134,0,0,0,4.924,6.669H7.543A1.128,1.128,0,0,0,8.671,5.541V4.884A1.128,1.128,0,0,0,7.543,3.756ZM7.543,7.973H4.924A2.432,2.432,0,0,1,2.492,5.541V4.884A2.432,2.432,0,0,1,4.924,2.452H7.543A2.44,2.44,0,0,1,9.985,4.884v.657A2.44,2.44,0,0,1,7.543,7.973Z" transform="translate(16.769 18.065)" fill="#bc2834" stroke="#b52632" stroke-width="0.4" fill-rule="evenodd"/>
        <path id="Path_530" data-name="Path 530" d="M18.026,4.767A13.421,13.421,0,1,0,31.442,18.194,13.44,13.44,0,0,0,18.026,4.767Zm0,28.157A14.731,14.731,0,1,1,32.746,18.194,14.743,14.743,0,0,1,18.026,32.924Z" transform="translate(23.842 26.969)" fill="#bc2834" stroke="#b52632" stroke-width="0.4" fill-rule="evenodd"/>
        <path id="Path_531" data-name="Path 531" d="M5.5,7.6c-1.138,2.8.333,6.826,3.737,10.229s7.424,4.874,10.229,3.737a.5.5,0,0,0,.2-.118l1.7-1.706a1.438,1.438,0,0,0,0-2.03l-1.716-1.716a1.444,1.444,0,0,0-2.04,0l-.432.432a1.829,1.829,0,0,1-.951.52,5.115,5.115,0,0,1-4.354-1.736,5.134,5.134,0,0,1-1.736-4.354,1.845,1.845,0,0,1,.51-.951l.441-.441a1.447,1.447,0,0,0,.412-1.02,1.424,1.424,0,0,0-.412-1.01L9.352,5.706a1.424,1.424,0,0,0-1.01-.412,1.464,1.464,0,0,0-1.02.412l-1.7,1.706A.487.487,0,0,0,5.5,7.6ZM17.443,23.251c-2.893,0-6.247-1.608-9.131-4.5C4.526,14.974,2.948,10.4,4.281,7.108A1.817,1.817,0,0,1,4.7,6.481l1.7-1.7a2.752,2.752,0,0,1,3.884,0L12,6.51a2.735,2.735,0,0,1,0,3.874l-.441.441a.547.547,0,0,0-.157.284,3.936,3.936,0,0,0,1.383,3.168,3.875,3.875,0,0,0,3.168,1.383.512.512,0,0,0,.284-.157l.441-.441a2.771,2.771,0,0,1,3.884,0l1.716,1.726a2.741,2.741,0,0,1,0,3.874l-1.7,1.706a1.791,1.791,0,0,1-.628.412,6.648,6.648,0,0,1-2.511.471Z" transform="translate(28.416 31.542)" fill="#bc2834" stroke="#b52632" stroke-width="0.4" fill-rule="evenodd"/>
        <path id="Path_532" data-name="Path 532" d="M9.344,10.077a.655.655,0,0,1-.461-.2L4.2,5.2a.652.652,0,1,1,.922-.922L9.8,8.959a.657.657,0,0,1-.461,1.118Z" transform="translate(30.17 32.487)" fill="#bc2834" stroke="#b52632" stroke-width="0.4" fill-rule="evenodd"/>
        <path id="Path_533" data-name="Path 533" d="M10.392,11.125a.655.655,0,0,1-.461-.2L5.253,6.251a.651.651,0,0,1,0-.922.663.663,0,0,1,.932,0l4.668,4.678a.657.657,0,0,1-.461,1.118Z" transform="translate(39.4 41.717)" fill="#bc2834" stroke="#b52632" stroke-width="0.4" fill-rule="evenodd"/>
      </g>
    </g>
  </g>
</svg>
