<svg xmlns="http://www.w3.org/2000/svg" xmlns:xlink="http://www.w3.org/1999/xlink" width="60" height="60" viewBox="0 0 60 60">
  <defs>
    <clipPath id="clip-_250_IT_Professionals">
      <rect width="60" height="60"/>
    </clipPath>
  </defs>
  <g id="_250_IT_Professionals" data-name="250+IT Professionals" clip-path="url(#clip-_250_IT_Professionals)">
    <g id="Group_189" data-name="Group 189" transform="translate(4 1)">
      <path id="Path_464" data-name="Path 464" d="M4143.484,818.84a6.657,6.657,0,1,0,4.709,1.95A6.617,6.617,0,0,0,4143.484,818.84Zm-3.421,3.238a4.846,4.846,0,1,1-1.414,3.421A4.818,4.818,0,0,1,4140.063,822.078Z" transform="translate(-4101.935 -818.84)" fill="#bc2834"/>
      <path id="Path_465" data-name="Path 465" d="M4065.441,2097.451a.912.912,0,1,1,1.824,0V2123.4a.915.915,0,0,1-.912.912h-16.933a.912.912,0,0,1,0-1.824h16.02Z" transform="translate(-4014.667 -2081.362)" fill="#bc2834"/>
      <path id="Path_466" data-name="Path 466" d="M2891.874,2025.405a3.854,3.854,0,0,1,3.842,3.843v14.88a3.854,3.854,0,0,1-3.842,3.843h-5.416l-7.172-.011a.915.915,0,0,0-.912.912v13.945a1.362,1.362,0,0,1-1.368,1.368h-5.074a1.368,1.368,0,1,1,0-2.737h2.793a.915.915,0,0,0,.913-.912v-14.812a1.362,1.362,0,0,1,1.368-1.368h10.125a.915.915,0,0,0,.912-.912v-10.5a.915.915,0,0,0-.912-.912.876.876,0,0,0-.65.274l-1.072.935h0l-.068.068a1.441,1.441,0,0,1-.228.125.915.915,0,0,1-.342.068H2874.9a.993.993,0,0,1-.7-.285.966.966,0,0,1-.285-.7.992.992,0,0,1,.285-.7.965.965,0,0,1,.7-.285h9.167a.886.886,0,0,0,.661-.285c.73-.65,1.425-1.4,2.144-2.178,1.642-1.779,3.353-3.637,5.028-3.637Zm4-.171a5.635,5.635,0,0,0-4-1.653c-2.475,0-4.458,2.155-6.374,4.23-.616.673-1.22,1.323-1.8,1.859h-8.825a2.8,2.8,0,1,0,0,5.61h9.977a2.935,2.935,0,0,0,.89-.171,2.551,2.551,0,0,0,.467-.228v7.628h-9.213a3.192,3.192,0,0,0-3.193,3.193v13.9h-1.881a3.193,3.193,0,1,0,0,6.385h5.074a3.192,3.192,0,0,0,3.192-3.193v-13.032h6.26c3.3,0,4.447.011,5.416.011a5.645,5.645,0,0,0,5.656-5.656v-14.88a5.684,5.684,0,0,0-1.653-4Z" transform="translate(-2848.898 -2009.271)" fill="#bc2834"/>
      <path id="Path_467" data-name="Path 467" d="M1199.368,3111.217v29.292h0a.915.915,0,0,0,.912.912h13.671a.915.915,0,0,0,.912-.912v-24.64h10.65a2.8,2.8,0,1,0,0-5.61H1214.1a.6.6,0,0,0-.148-.011H1200.28a.915.915,0,0,0-.912.912v.057Zm1.824,28.38V3112.05h12.622a.6.6,0,0,0,.148.011h11.562a.992.992,0,0,1,.7.285.965.965,0,0,1,.285.7.991.991,0,0,1-.285.7.965.965,0,0,1-.7.285h-11.562a.915.915,0,0,0-.912.912h0v24.64h-11.858Z" transform="translate(-1199.368 -3083.031)" fill="#bc2834"/>
      <path id="Path_468" data-name="Path 468" d="M1316.906,1856.171a.914.914,0,1,1,1.767-.467l4.7,10.729h12.474a.912.912,0,0,1,0,1.824h-13.158a.914.914,0,0,1-.9-.673l.878-.239-.878.239Z" transform="translate(-1315.481 -1842.716)" fill="#bc2834"/>
      <path id="Path_469" data-name="Path 469" d="M4179.917,4939.555c0-1.346-1-2.52-2.622-3.307a13.886,13.886,0,0,0-10.969,0c-1.619.8-2.623,1.961-2.623,3.307h1.824c0-.593.6-1.2,1.6-1.676a12.21,12.21,0,0,1,9.372,0c.98.479,1.6,1.083,1.6,1.676Z" transform="translate(-4128.493 -4886.227)" fill="#bc2834"/>
      <path id="Path_470" data-name="Path 470" d="M5340.066,5256.7a1.38,1.38,0,1,0,1.379,1.379A1.377,1.377,0,0,0,5340.066,5256.7Z" transform="translate(-5289.52 -5203.991)" fill="#bc2834" fill-rule="evenodd"/>
      <path id="Path_471" data-name="Path 471" d="M4127.645,5256.7a1.38,1.38,0,1,0,1.38,1.379A1.377,1.377,0,0,0,4127.645,5256.7Z" transform="translate(-4091.5 -5203.991)" fill="#bc2834" fill-rule="evenodd"/>
      <path id="Path_472" data-name="Path 472" d="M4771.258,5015.587v-3.671h-1.824v3.671Z" transform="translate(-4727.029 -4962.111)" fill="#bc2834"/>
      <path id="Path_473" data-name="Path 473" d="M4731.456,5204.866a1.38,1.38,0,1,0,1.38,1.38A1.377,1.377,0,0,0,4731.456,5204.866Z" transform="translate(-4688.139 -5152.77)" fill="#bc2834" fill-rule="evenodd"/>
      <path id="Path_474" data-name="Path 474" d="M4769.434,4386.986v7.092h1.824v-7.092Z" transform="translate(-4727.029 -4344.604)" fill="#bc2834"/>
    </g>
    <rect id="Rectangle_1" data-name="Rectangle 1" width="61.6" height="61.6" transform="translate(0 0.005)" fill="none"/>
  </g>
</svg>
