<svg xmlns="http://www.w3.org/2000/svg" xmlns:xlink="http://www.w3.org/1999/xlink" width="60" height="60" viewBox="0 0 60 60">
  <defs>
    <clipPath id="clip-_40_Industries_Served">
      <rect width="60" height="60"/>
    </clipPath>
  </defs>
  <g id="_40_Industries_Served" data-name="40+Industries Served" clip-path="url(#clip-_40_Industries_Served)">
    <rect id="Rectangle_1" data-name="Rectangle 1" width="61.6" height="61.6" transform="translate(0 0.005)" fill="none"/>
    <g id="Group_192" data-name="Group 192" transform="translate(-4.375 -5)">
      <path id="Path_487" data-name="Path 487" d="M43.691,5V24.651H19.328L18.29,18.265h-5.4l-1.038,6.386H5.375V64.244h58.75v-46.9ZM13.98,19.542H17.2l.83,5.109H13.15Zm5.443,43.424V57.858H30.918v5.109Zm24.267,0H32.2V56.581H18.147v6.386H6.652V25.928H43.69V62.967Zm7.663,0V57.858h5.109v5.109Zm11.495,0H57.739V56.581H50.076v6.386H44.968V7.264l17.88,10.8Z" fill="#bc2834"/>
      <path id="Path_488" data-name="Path 488" d="M9.983,46.708h5.428V41.28H9.983Zm1.277-4.151h2.874v2.874H11.26Z" transform="translate(-1.575 -12.398)" fill="#bc2834"/>
      <path id="Path_489" data-name="Path 489" d="M20.717,46.708h5.428V41.28H20.717Zm1.277-4.151h2.874v2.874H21.994Z" transform="translate(-5.243 -12.398)" fill="#bc2834"/>
      <path id="Path_490" data-name="Path 490" d="M36.879,41.28H31.451v5.428h5.428ZM35.6,45.431H32.728V42.557H35.6Z" transform="translate(-8.911 -12.398)" fill="#bc2834"/>
      <path id="Path_491" data-name="Path 491" d="M47.614,41.28H42.186v5.428h5.428Zm-1.278,4.151H43.462V42.557h2.874Z" transform="translate(-12.58 -12.398)" fill="#bc2834"/>
      <path id="Path_492" data-name="Path 492" d="M58.348,41.28H52.92v5.428h5.428Zm-1.277,4.151H54.2V42.557h2.874Z" transform="translate(-16.248 -12.398)" fill="#bc2834"/>
      <path id="Path_493" data-name="Path 493" d="M9.983,57.015h5.428V51.587H9.983Zm1.277-4.15h2.874v2.874H11.26Z" transform="translate(-1.575 -15.92)" fill="#bc2834"/>
      <path id="Path_494" data-name="Path 494" d="M20.717,57.015h5.428V51.587H20.717Zm1.277-4.15h2.874v2.874H21.994Z" transform="translate(-5.243 -15.92)" fill="#bc2834"/>
      <path id="Path_495" data-name="Path 495" d="M36.879,51.587H31.451v5.428h5.428ZM35.6,55.738H32.728V52.864H35.6Z" transform="translate(-8.911 -15.92)" fill="#bc2834"/>
      <path id="Path_496" data-name="Path 496" d="M47.614,51.587H42.186v5.428h5.428Zm-1.278,4.151H43.462V52.864h2.874Z" transform="translate(-12.58 -15.92)" fill="#bc2834"/>
      <path id="Path_497" data-name="Path 497" d="M58.348,51.587H52.92v5.428h5.428Zm-1.277,4.151H54.2V52.864h2.874Z" transform="translate(-16.248 -15.92)" fill="#bc2834"/>
      <path id="Path_498" data-name="Path 498" d="M9.983,67.323h5.428V61.9H9.983Zm1.277-4.151h2.874v2.874H11.26Z" transform="translate(-1.575 -19.443)" fill="#bc2834"/>
      <path id="Path_499" data-name="Path 499" d="M20.717,67.323h5.428V61.9H20.717Zm1.277-4.151h2.874v2.874H21.994Z" transform="translate(-5.243 -19.443)" fill="#bc2834"/>
      <path id="Path_500" data-name="Path 500" d="M36.879,61.9H31.451v5.428h5.428ZM35.6,66.046H32.728V63.172H35.6Z" transform="translate(-8.911 -19.443)" fill="#bc2834"/>
      <path id="Path_501" data-name="Path 501" d="M47.614,61.9H42.186v5.428h5.428Zm-1.278,4.151H43.462V63.172h2.874Z" transform="translate(-12.58 -19.443)" fill="#bc2834"/>
      <path id="Path_502" data-name="Path 502" d="M58.348,61.9H52.92v5.428h5.428Zm-1.277,4.151H54.2V63.172h2.874Z" transform="translate(-16.248 -19.443)" fill="#bc2834"/>
      <path id="Path_503" data-name="Path 503" d="M9.983,77.63h5.428V72.2H9.983Zm1.277-4.15h2.874v2.874H11.26Z" transform="translate(-1.575 -22.965)" fill="#bc2834"/>
      <path id="Path_504" data-name="Path 504" d="M20.717,77.63h5.428V72.2H20.717Zm1.277-4.15h2.874v2.874H21.994Z" transform="translate(-5.243 -22.965)" fill="#bc2834"/>
      <path id="Path_505" data-name="Path 505" d="M36.879,72.2H31.451V77.63h5.428ZM35.6,76.353H32.728V73.479H35.6Z" transform="translate(-8.911 -22.965)" fill="#bc2834"/>
      <path id="Path_506" data-name="Path 506" d="M47.614,72.2H42.186V77.63h5.428Zm-1.278,4.151H43.462V73.479h2.874Z" transform="translate(-12.58 -22.965)" fill="#bc2834"/>
      <path id="Path_507" data-name="Path 507" d="M58.348,72.2H52.92V77.63h5.428Zm-1.277,4.151H54.2V73.479h2.874Z" transform="translate(-16.248 -22.965)" fill="#bc2834"/>
      <path id="Path_508" data-name="Path 508" d="M75.042,25.152H69.614V30.58h5.428ZM73.764,29.3H70.89V26.428h2.874Z" transform="translate(-21.953 -6.887)" fill="#bc2834"/>
      <path id="Path_509" data-name="Path 509" d="M85.775,25.152H80.347V30.58h5.428ZM84.5,29.3H81.624V26.428H84.5Z" transform="translate(-25.621 -6.887)" fill="#bc2834"/>
      <path id="Path_510" data-name="Path 510" d="M75.042,36.672H69.614V42.1h5.428Zm-1.278,4.151H70.89V37.949h2.874Z" transform="translate(-21.953 -10.823)" fill="#bc2834"/>
      <path id="Path_511" data-name="Path 511" d="M85.775,36.672H80.347V42.1h5.428ZM84.5,40.823H81.624V37.949H84.5Z" transform="translate(-25.621 -10.823)" fill="#bc2834"/>
      <path id="Path_512" data-name="Path 512" d="M75.042,48.192H69.614V53.62h5.428Zm-1.278,4.151H70.89V49.469h2.874Z" transform="translate(-21.953 -14.76)" fill="#bc2834"/>
      <path id="Path_513" data-name="Path 513" d="M85.775,48.192H80.347V53.62h5.428ZM84.5,52.343H81.624V49.469H84.5Z" transform="translate(-25.621 -14.76)" fill="#bc2834"/>
      <path id="Path_514" data-name="Path 514" d="M75.042,59.712H69.614V65.14h5.428Zm-1.278,4.151H70.89V60.989h2.874Z" transform="translate(-21.953 -18.697)" fill="#bc2834"/>
      <path id="Path_515" data-name="Path 515" d="M85.775,59.712H80.347V65.14h5.428ZM84.5,63.863H81.624V60.989H84.5Z" transform="translate(-25.621 -18.697)" fill="#bc2834"/>
      <path id="Path_516" data-name="Path 516" d="M75.042,71.232H69.614V76.66h5.428Zm-1.278,4.151H70.89V72.509h2.874Z" transform="translate(-21.953 -22.634)" fill="#bc2834"/>
      <path id="Path_517" data-name="Path 517" d="M85.775,71.232H80.347V76.66h5.428ZM84.5,75.383H81.624V72.509H84.5Z" transform="translate(-25.621 -22.634)" fill="#bc2834"/>
      <path id="Path_518" data-name="Path 518" d="M19.81,16.963A2.093,2.093,0,1,0,21.9,19.056,2.1,2.1,0,0,0,19.81,16.963Zm0,3.133a1.039,1.039,0,1,1,1.039-1.039A1.04,1.04,0,0,1,19.81,20.1Z" transform="translate(-4.218 -4.088)" fill="#bc2834"/>
      <path id="Path_519" data-name="Path 519" d="M19.447,11.561a2.793,2.793,0,1,0-2.793-2.793A2.8,2.8,0,0,0,19.447,11.561Zm0-4.532a1.738,1.738,0,1,1-1.738,1.738A1.74,1.74,0,0,1,19.447,7.029Z" transform="translate(-3.854 -0.333)" fill="#bc2834"/>
    </g>
  </g>
</svg>
