<svg xmlns="http://www.w3.org/2000/svg" xmlns:xlink="http://www.w3.org/1999/xlink" width="60" height="60" viewBox="0 0 60 60">
  <defs>
    <clipPath id="clip-_900_Happy_Customers">
      <rect width="60" height="60"/>
    </clipPath>
  </defs>
  <g id="_900_Happy_Customers" data-name="900+Happy Customers" clip-path="url(#clip-_900_Happy_Customers)">
    <rect id="Rectangle_1" data-name="Rectangle 1" width="61.6" height="61.6" transform="translate(0 0.005)" fill="none"/>
    <g id="Group_191" data-name="Group 191" transform="translate(-7654.589 -884.549)">
      <path id="Path_481" data-name="Path 481" d="M7665.054,943.889c-.027-.026-.05-.066-.082-.075-2.572-.757-3.6-2.125-3.6-4.808,0-.348-.02-.7,0-1.043.054-.8.034-1.474-.861-1.943a2.119,2.119,0,0,1-.927-2.011c.006-2.414-.006-4.828.006-7.242a2.32,2.32,0,0,1,2.407-2.594c.073-.007.145-.026.278-.05,0-1.012-.024-2.012.006-3.01a2.637,2.637,0,0,1,2.154-2.528,2.588,2.588,0,0,1,2.857,1.381,3.328,3.328,0,0,1,.3,1.275c.042,1.041,0,2.086.026,3.128a1.182,1.182,0,0,0,.244.664,2.859,2.859,0,0,1,.657,1.87c-.006.862,0,1.724,0,2.72.215-.258.351-.408.474-.568,1.45-1.88,2.91-3.754,4.343-5.647a5.255,5.255,0,0,1,2.476-1.82c2.338-.847,4.658-1.746,6.995-2.6a.618.618,0,0,0,.491-.706c-.03-.849,0-1.7-.02-2.549a.892.892,0,0,0-.227-.6,9.268,9.268,0,0,1-3.406-7.537.627.627,0,0,0-.03-.147,14.993,14.993,0,0,1-1.594-.279,3.231,3.231,0,0,1-2.533-3.362,19.747,19.747,0,0,1,.1-2.25,2.182,2.182,0,0,1,.431-1.054,2.011,2.011,0,0,0,.393-1.392c-.021-1.583-.018-3.167-.01-4.751a6.087,6.087,0,0,1,6.2-6.2c.424,0,.848,0,1.3,0,.056-.177.109-.336.158-.5a4.336,4.336,0,0,1,4.1-3.093c2.067-.019,4.134-.029,6.2,0a8.012,8.012,0,0,1,7.759,7.7c.012.463.016.927,0,1.39a.877.877,0,0,1-.889.936.9.9,0,0,1-.845-.926,17.3,17.3,0,0,0-.239-2.7,6.134,6.134,0,0,0-5.85-4.668c-2.027-.037-4.056-.023-6.084-.007a2.5,2.5,0,0,0-2.574,2.453q-.08,3.88,0,7.762a2.444,2.444,0,0,0,2.42,2.413c4.037.028,8.074.012,12.111.012a1.112,1.112,0,0,0,.216-.057c0-.415-.008-.835,0-1.255a.888.888,0,0,1,.849-.977c.52-.012.871.38.886,1,.006.27,0,.541,0,.811a4.989,4.989,0,0,0,.486,2.355,5.611,5.611,0,0,1,.066,4.56c-.545,1.378-1.835,1.84-3.233,1.983-.17.017-.343.016-.508.024-.127.911-.2,1.813-.387,2.688a8.887,8.887,0,0,1-3.04,5,1.022,1.022,0,0,0-.3.671c-.036.829.01,1.661-.025,2.49-.017.406.125.564.5.682,3.26,1.009,6.51,2.049,9.768,3.064a5.768,5.768,0,0,1,4.454,6.048c0,.715.007,1.429,0,2.144-.008.607-.322.961-.834.974-.534.014-.886-.355-.9-.982-.015-.869.005-1.738-.008-2.607a3.864,3.864,0,0,0-2.7-3.729c-3.54-1.146-7.093-2.251-10.647-3.351a.863.863,0,0,0-.658.145c-1.386,1.015-2.752,2.058-4.127,3.088-.673.5-.916.5-1.594-.008-1.343-1.009-2.692-2.01-4.02-3.039a.792.792,0,0,0-.885-.117q-3.567,1.36-7.15,2.675a3.539,3.539,0,0,0-1.651,1.21c-1.958,2.561-3.938,5.106-5.888,7.675a2.2,2.2,0,0,0-.323.935,6.569,6.569,0,0,1-.378,2.229,3.8,3.8,0,0,0-.548,2.212c.006.634-.338,1-.875.99-.506-.009-.832-.372-.856-.967-.01-.247,0-.5,0-.776h-2.653a27.276,27.276,0,0,0,.035,3.681,2.177,2.177,0,0,0,3,1.549,3.931,3.931,0,0,0,1.735-1.065c1.973-2.275,3.869-4.617,5.778-6.947a1.082,1.082,0,0,0,.2-.625c.022-.907,0-1.815.012-2.723.006-.659.364-1.067.9-1.048.515.018.826.405.838,1.045,0,.211,0,.422,0,.677h25.267c0-.221-.012-.43,0-.636a.873.873,0,0,1,.876-.889.856.856,0,0,1,.852.907c.014,1.41.006,2.82.006,4.229,0,2.392,0,4.785,0,7.219h5.457v-.617q0-3.505,0-7.01a2.233,2.233,0,0,1,.053-.63.8.8,0,0,1,.921-.616.787.787,0,0,1,.747.755c.032.325.015.656.015.984,0,2.569-.011,5.137.009,7.706a1.2,1.2,0,0,1-.6,1.208h-34.769a1.251,1.251,0,0,1-.584-1.224c.03-1.1.009-2.2.009-3.3v-2.88c-.238.268-.391.431-.534.6-1.194,1.441-2.417,2.861-3.569,4.335a6.008,6.008,0,0,1-3.435,2.466Zm10.711-10.794v5.463c2.127,0,4.212,0,6.3,0,.686,0,1.072.316,1.075.858s-.385.875-1.062.877c-1.622.005-3.245,0-4.867,0h-1.448v1.809h25.192V940.3h-14.389c-.174,0-.349.01-.521-.006a.864.864,0,0,1,0-1.727c.173-.014.348,0,.521,0h14.381V933.1Zm5.7-32.392a.828.828,0,0,0-.054.19c0,2.586-.07,5.174.03,7.756a6.273,6.273,0,0,0,3.312,5.435,8.973,8.973,0,0,0,7.1.828,6.67,6.67,0,0,0,5.23-6.419c.11-2.5.031-5.016.032-7.524a1.061,1.061,0,0,0-.088-.28c-2.721,0-5.423-.041-8.123.015a4.887,4.887,0,0,1-4.082-1.639c-.017-.02-.071-.009-.13-.014A4.464,4.464,0,0,1,7681.46,900.7Zm-3.291-1.753c.984,0,1.909,0,2.834,0a2.612,2.612,0,0,0,2.881-2.865c.009-1.854,0-3.708,0-5.562,0-.189-.017-.377-.028-.624-.513,0-.991-.012-1.469,0a4.272,4.272,0,0,0-4.2,3.883C7678.076,895.471,7678.169,897.174,7678.169,898.95ZM7666.714,933.1c-.826,0-1.636.006-2.446,0-.682-.006-1.068-.327-1.072-.87s.38-.862,1.061-.865c.824,0,1.649,0,2.494,0V929.5c-.883,0-1.73.013-2.576,0-.644-.013-1.028-.411-.976-.961a.866.866,0,0,1,.978-.769c.86-.008,1.721,0,2.612,0,0-.279,0-.47,0-.662,0-.937-.262-1.2-1.2-1.2-1.062,0-2.123,0-3.184,0-.788,0-1.066.287-1.068,1.09q-.006,3.415,0,6.831c0,.831.288,1.126,1.1,1.132.926.007,1.853,0,2.779,0,1.472,0,1.663-.206,1.566-1.691A.882.882,0,0,0,7666.714,933.1Zm26.75-16.734a10.938,10.938,0,0,1-8.425,0c0,.832-.007,1.616.009,2.4a.492.492,0,0,0,.185.329c1.332,1.015,2.671,2.02,4.027,3.042,1.353-1.021,2.678-2.015,3.991-3.025a.633.633,0,0,0,.2-.433C7693.475,917.929,7693.464,917.178,7693.464,916.369Zm-13.833-15.68h-.533c-1.271,0-1.862.6-1.867,1.885,0,.4,0,.809,0,1.214a1.717,1.717,0,0,0,2.4,1.744Zm19.258,4.94h.537a1.637,1.637,0,0,0,1.854-1.849c.005-.405,0-.811,0-1.216a1.72,1.72,0,0,0-2.391-1.785Zm-34.869,18.491h1.855c0-.981.01-1.924,0-2.866a.925.925,0,0,0-.912-.987.94.94,0,0,0-.935.975C7664.006,922.183,7664.021,923.127,7664.021,924.12Z" transform="translate(-0.003)" fill="#bc2834"/>
      <path id="Path_482" data-name="Path 482" d="M7672.12,1181.658c0,.395.008.72,0,1.045a2.513,2.513,0,0,1-2.33,2.513c-1.347.083-2.7.041-4.053.047-1.1.005-2.2.011-3.3,0a2.613,2.613,0,0,1-2.841-2.851q-.006-5.271,0-10.542a2.589,2.589,0,0,1,2.8-2.823q3.475-.022,6.952,0a2.6,2.6,0,0,1,2.774,2.8c0,1.467.016,2.935-.009,4.4a1.192,1.192,0,0,0,.4.955c.926.9,1.828,1.831,2.735,2.753a2.866,2.866,0,0,1,.409.485c.355.574.122,1.111-.557,1.168-.767.064-1.542.037-2.314.047C7672.581,1181.661,7672.374,1181.658,7672.12,1181.658Zm.482-1.738.105-.194c-.613-.577-1.216-1.164-1.841-1.729a1.439,1.439,0,0,1-.492-1.174c.021-1.679.014-3.359.005-5.039,0-.654-.3-.99-.941-.994q-3.591-.023-7.183,0a.833.833,0,0,0-.922.946q-.01,5.415,0,10.831a.835.835,0,0,0,.924.948q3.591.026,7.183,0c.638,0,.927-.348.939-1,.009-.5,0-1,0-1.506.008-.779.3-1.072,1.092-1.087C7671.851,1179.914,7672.226,1179.921,7672.6,1179.921Z" transform="translate(0 -270.164)" fill="#bc2834"/>
      <path id="Path_483" data-name="Path 483" d="M8191.6,1354.141a3.035,3.035,0,0,1-3.018-2.842.9.9,0,0,1,.742-1.063c.483-.069.863.26.976.844.172.888.617,1.33,1.331,1.321s1.128-.438,1.292-1.354a.9.9,0,0,1,.952-.815.889.889,0,0,1,.777.98A3.045,3.045,0,0,1,8191.6,1354.141Z" transform="translate(-502.357 -442.233)" fill="#bc2834"/>
      <path id="Path_484" data-name="Path 484" d="M8306.321,1235.519c0-.193-.013-.386,0-.578a.782.782,0,0,1,.765-.791.768.768,0,0,1,.917.681,5.529,5.529,0,0,1,.007,1.437.772.772,0,0,1-.9.71.791.791,0,0,1-.795-.824c-.013-.211,0-.424,0-.635Z" transform="translate(-614.167 -331.995)" fill="#bc2834"/>
      <path id="Path_485" data-name="Path 485" d="M8158.781,1235.512c0,.193.012.386,0,.578a.861.861,0,0,1-1.721.018,8.313,8.313,0,0,1,0-1.213.861.861,0,0,1,1.721.039C8158.792,1235.126,8158.781,1235.32,8158.781,1235.512Z" transform="translate(-472.402 -331.94)" fill="#bc2834"/>
      <path id="Path_486" data-name="Path 486" d="M7715.688,1280.657c1.036-1.043,1.966-1.991,2.91-2.926a.877.877,0,0,1,1.364-.051.816.816,0,0,1-.062,1.194c-1.164,1.18-2.332,2.355-3.516,3.514a.871.871,0,0,1-1.372-.032q-.832-.8-1.634-1.635a.854.854,0,0,1-.083-1.28.865.865,0,0,1,1.321.08C7714.972,1279.869,7715.3,1280.244,7715.688,1280.657Z" transform="translate(-50.764 -373.052)" fill="#bc2834"/>
    </g>
  </g>
</svg>
