<svg xmlns="http://www.w3.org/2000/svg" xmlns:xlink="http://www.w3.org/1999/xlink" width="60" height="60" viewBox="0 0 60 60">
  <defs>
    <clipPath id="clip-Agencies">
      <rect width="60" height="60"/>
    </clipPath>
  </defs>
  <g id="Agencies" clip-path="url(#clip-Agencies)">
    <rect id="Rectangle_1" data-name="Rectangle 1" width="61.6" height="61.6" transform="translate(0 0.005)" fill="none"/>
    <g id="Group_206" data-name="Group 206" transform="translate(-3.666 -3.322)">
      <path id="Path_546" data-name="Path 546" d="M48.57,40.306H38.638l-.052,0-.046.005-.041.006-.054.012-.023,0-.011,0-.055.018-.031.011-.048.021-.035.017-.038.022-.039.024-.03.021-.041.031-.025.022c-.013.011-.027.023-.039.035L38,40.592l-.033.036-.027.035-.025.033-.027.043-.018.029c-.009.016-.017.032-.025.049l-.014.029c-.007.016-.013.033-.019.05s-.009.022-.012.033-.009.03-.013.046-.007.027-.011.041,0,.026-.007.039-.006.034-.008.052,0,.022,0,.033,0,.039,0,.058v.011c0,.008,0,.015,0,.023s0,.037,0,.055,0,.029.005.043,0,.029.007.043.007.035.012.054,0,.015.005.023a4.619,4.619,0,1,1-8.908,0,.227.227,0,0,0,0-.023c0-.017.009-.035.012-.054s0-.029.007-.043,0-.029.005-.043,0-.037,0-.055,0-.015,0-.023V41.2c0-.019,0-.039,0-.058s0-.022,0-.033,0-.034-.008-.051a.362.362,0,0,0-.007-.039c0-.014-.007-.027-.011-.041s-.008-.031-.013-.046-.008-.022-.012-.033-.012-.033-.019-.05-.009-.019-.014-.029-.016-.033-.025-.049-.012-.02-.018-.029-.017-.029-.027-.043l-.025-.033-.027-.035-.033-.036-.025-.027-.039-.035-.025-.022-.041-.031-.029-.021-.039-.024-.037-.021-.035-.017-.048-.021-.031-.011-.055-.018-.011,0-.023,0-.054-.012-.043-.007-.043-.005-.055,0H18.158a.9.9,0,0,0-.9.887l-.064,3.872a.9.9,0,0,0,.834.914l3.621.274a12.161,12.161,0,0,0,.881,2.133l-2.4,2.574a.9.9,0,0,0,.011,1.242l3.466,3.582a.9.9,0,0,0,1.236.057L27.6,53.473a12.178,12.178,0,0,0,2.131.887l.124,3.514a.9.9,0,0,0,.887.87l4.984.082h.015a.9.9,0,0,0,.9-.834l.274-3.621a12.161,12.161,0,0,0,2.133-.881l2.574,2.4a.9.9,0,0,0,1.242-.011l3.582-3.466a.9.9,0,0,0,.057-1.236L44.133,48.42a12.178,12.178,0,0,0,.887-2.131l3.514-.124a.9.9,0,0,0,.87-.887l.067-4.056a.9.9,0,0,0-.9-.917Zm-.955,4.087L44.3,44.51a.9.9,0,0,0-.844.685,10.329,10.329,0,0,1-1.19,2.865.9.9,0,0,0,.088,1.055l2.226,2.592-2.355,2.279-2.43-2.264a.9.9,0,0,0-1.081-.112A10.342,10.342,0,0,1,35.845,52.8a.9.9,0,0,0-.683.808L34.9,57.01l-3.277-.054-.117-3.318a.9.9,0,0,0-.685-.844,10.329,10.329,0,0,1-2.865-1.19.9.9,0,0,0-1.055.088l-2.592,2.226-2.279-2.355,2.264-2.43a.9.9,0,0,0,.112-1.081,10.346,10.346,0,0,1-1.188-2.866.9.9,0,0,0-.808-.683l-3.406-.258.035-2.135h7.895A6.44,6.44,0,0,0,33.233,49.1h.11a6.432,6.432,0,0,0,6.4-6.995h7.912ZM33.276,45.944h.058a3.436,3.436,0,0,0,2.791-5.431.9.9,0,0,0-.733-.377H31.273a.9.9,0,0,0-.733.377,3.424,3.424,0,0,0-.266,3.544A3.372,3.372,0,0,0,33.276,45.944Zm-1.471-4H34.86a1.61,1.61,0,0,1-.092,1.331,1.62,1.62,0,0,1-2.883-.025A1.617,1.617,0,0,1,31.8,41.941Zm15.253,15.73A27.691,27.691,0,0,1,33.332,61.31,28.141,28.141,0,0,1,11.917,15.246a2.7,2.7,0,1,0-1.338-1.212,30.067,30.067,0,0,0,1.773,40.321,29.505,29.505,0,0,0,35.6,4.881.9.9,0,1,0-.9-1.566ZM12.952,11.866a.891.891,0,1,1-.891.891A.892.892,0,0,1,12.952,11.866ZM63,33.218a29.817,29.817,0,0,0-8.686-21.137A29.5,29.5,0,0,0,18.1,7.558.9.9,0,1,0,19.034,9.1a27.646,27.646,0,0,1,14.3-3.977A28.141,28.141,0,0,1,54.747,51.19,2.7,2.7,0,1,0,56.085,52.4,30.025,30.025,0,0,0,63,33.218ZM53.712,54.571a.891.891,0,1,1,.891-.891A.892.892,0,0,1,53.712,54.571ZM49.56,24.677,42.208,20.4V15.59a.9.9,0,0,0-.9-.9H37.224v-2.42a.9.9,0,0,0-.9-.9H34.234V8.511a.9.9,0,1,0-1.8,0v2.855H30.342a.9.9,0,0,0-.9.9v2.42H25.358a.9.9,0,0,0-.9.9V20.4L17.1,24.677a.9.9,0,0,0-.448.78V37.333a.9.9,0,0,0,.8.9l7.8.85h0a.91.91,0,0,0,.1.005H41.306a.91.91,0,0,0,.1-.005h0l7.8-.85a.9.9,0,0,0,.8-.9V25.456A.9.9,0,0,0,49.56,24.677ZM31.244,13.17H35.42v1.518H31.244ZM18.46,25.975l6-3.489V37.178l-6-.654Zm7.8-5.058V16.492H40.4V37.281H26.26ZM48.2,36.524l-6,.654V22.486l6,3.489Zm-10.176-18.1H28.635a.9.9,0,0,0-.9.9v3.244a.9.9,0,0,0,.9.9h9.394a.9.9,0,0,0,.9-.9V19.329A.9.9,0,0,0,38.029,18.427Zm-.9,3.244H29.537v-1.44h7.589Zm1.586,5.465a.9.9,0,0,1-.9.9H28.853a.9.9,0,0,1,0-1.8h8.957A.9.9,0,0,1,38.713,27.136Zm-15.463.128a.9.9,0,0,1-.31,1.237L20.9,29.721a.9.9,0,1,1-.928-1.547l2.035-1.22A.9.9,0,0,1,23.249,27.264Zm0,3.849a.9.9,0,0,1-.31,1.237L20.9,33.57a.9.9,0,1,1-.928-1.547l2.035-1.22A.9.9,0,0,1,23.249,31.113Zm15.463-.432a.9.9,0,0,1-.9.9H28.853a.9.9,0,1,1,0-1.8h8.957A.9.9,0,0,1,38.713,30.681Zm4.7-3.613a.9.9,0,0,1,1.237-.31l2.035,1.22a.9.9,0,0,1-.928,1.547L43.724,28.3A.9.9,0,0,1,43.415,27.067Zm0,3.907a.9.9,0,0,1,1.237-.31l2.035,1.22a.9.9,0,0,1-.928,1.547l-2.035-1.22A.9.9,0,0,1,43.415,30.975Z" fill="#bc2834"/>
    </g>
  </g>
</svg>
