<svg xmlns="http://www.w3.org/2000/svg" xmlns:xlink="http://www.w3.org/1999/xlink" width="60" height="60" viewBox="0 0 60 60">
  <defs>
    <clipPath id="clip-Automotive">
      <rect width="60" height="60"/>
    </clipPath>
  </defs>
  <g id="Automotive" clip-path="url(#clip-Automotive)">
    <rect id="Rectangle_1" data-name="Rectangle 1" width="61.6" height="61.6" transform="translate(0 0.005)" fill="none"/>
    <g id="Group_243" data-name="Group 243">
      <g id="Group_242" data-name="Group 242" transform="translate(0 4)">
        <path id="Path_631" data-name="Path 631" d="M41.378,24.608A.939.939,0,0,0,40.5,24H21.75a.939.939,0,0,0-.878.608l-2.812,7.5a.937.937,0,0,0,.878,1.267H43.331a.939.939,0,0,0,.8-1.43ZM22.4,25.875h7.788V31.5h-9.9ZM32.062,31.5V25.875H39.85L41.96,31.5Z" transform="translate(-1.125 -5.25)" fill="#bc2733"/>
        <path id="Path_632" data-name="Path 632" d="M11.5,19a7.506,7.506,0,0,0,5.85-2.812h25.8A7.509,7.509,0,0,0,49,19a7.037,7.037,0,0,0,6.472-4.284.938.938,0,0,0-.847-1.341H50.439L49.189,11.5l1.25-1.875h4.2a.938.938,0,0,0,.75-1.5A7.011,7.011,0,0,0,49,4a7.506,7.506,0,0,0-5.85,2.813H17.35A7.5,7.5,0,1,0,11.5,19Zm0-13.125a5.633,5.633,0,0,1,4.612,2.412.939.939,0,0,0,.769.4H43.619a.939.939,0,0,0,.769-.4A5.633,5.633,0,0,1,49,5.875,4.9,4.9,0,0,1,52.936,7.75h-3a.939.939,0,0,0-.78.417L47.283,10.98a.937.937,0,0,0,0,1.04l1.875,2.813a.937.937,0,0,0,.78.418h3A4.9,4.9,0,0,1,49,17.125a5.633,5.633,0,0,1-4.612-2.412.939.939,0,0,0-.769-.4H16.881a.939.939,0,0,0-.769.4A5.623,5.623,0,1,1,11.5,5.875Z" transform="translate(-0.25 -4)" fill="#bc2733"/>
        <path id="Path_633" data-name="Path 633" d="M11.75,15.5A3.75,3.75,0,1,0,8,11.75,3.754,3.754,0,0,0,11.75,15.5Zm0-5.625A1.875,1.875,0,1,1,9.875,11.75,1.877,1.877,0,0,1,11.75,9.875Z" transform="translate(-0.5 -4.25)" fill="#bc2733"/>
        <path id="Path_634" data-name="Path 634" d="M20.938,12.875H41.563a.938.938,0,0,0,0-1.875H20.938a.938.938,0,0,0,0,1.875Z" transform="translate(-1.25 -4.438)" fill="#bc2733"/>
        <path id="Path_635" data-name="Path 635" d="M14.813,49a2.813,2.813,0,1,0,2.813,2.813A2.816,2.816,0,0,0,14.813,49Zm0,3.75a.938.938,0,1,1,.938-.937A.938.938,0,0,1,14.813,52.75Z" transform="translate(-0.75 -6.813)" fill="#bc2733"/>
        <path id="Path_636" data-name="Path 636" d="M48.813,49a2.813,2.813,0,1,0,2.813,2.813A2.816,2.816,0,0,0,48.813,49Zm0,3.75a.938.938,0,1,1,.938-.937A.938.938,0,0,1,48.813,52.75Z" transform="translate(-2.875 -6.813)" fill="#bc2733"/>
        <path id="Path_637" data-name="Path 637" d="M31.938,36a.937.937,0,0,0-.937.938V49.125a.938.938,0,0,0,1.875,0V36.938A.937.937,0,0,0,31.938,36Z" transform="translate(-1.938 -6)" fill="#bc2733"/>
        <path id="Path_638" data-name="Path 638" d="M56.592,35.249,48.5,32.374l-4.957-10.74A2.821,2.821,0,0,0,40.988,20H19.012a2.823,2.823,0,0,0-2.554,1.634L11.492,32.393,3.641,35.533a2.8,2.8,0,0,0-1.766,2.611v7.328A2.818,2.818,0,0,0,0,48.125V50a2.816,2.816,0,0,0,2.813,2.813H8.143a6.547,6.547,0,0,0,11.839,0H40.017a6.547,6.547,0,0,0,11.839,0h5.332A2.816,2.816,0,0,0,60,50V39.756A4.666,4.666,0,0,0,56.592,35.249Zm1.533,8.188H56.25A2.818,2.818,0,0,1,53.6,41.563h4.527ZM3.75,40.625H6.563V42.5H3.75ZM14.063,54.688A4.688,4.688,0,1,1,18.75,50,4.693,4.693,0,0,1,14.063,54.688Zm31.875,0A4.688,4.688,0,1,1,50.625,50,4.693,4.693,0,0,1,45.938,54.688Zm11.25-3.75H52.425A6.453,6.453,0,0,0,52.5,50a6.563,6.563,0,1,0-13.05.938H20.55A6.452,6.452,0,0,0,20.625,50a6.563,6.563,0,1,0-13.05.938H2.813A.938.938,0,0,1,1.875,50V48.125a.938.938,0,0,1,.938-.937.937.937,0,0,0,.938-.937V44.375H7.5a.937.937,0,0,0,.938-.937v-3.75A.937.937,0,0,0,7.5,38.75H3.75v-.606a.933.933,0,0,1,.589-.87L12.535,34a.937.937,0,0,0,.5-.478l5.122-11.1a.939.939,0,0,1,.85-.546H40.988a.939.939,0,0,1,.85.545l5.123,11.1a.934.934,0,0,0,.537.49l8.538,3.03a2.817,2.817,0,0,1,2.083,2.649H52.5a.937.937,0,0,0-.937.938,4.693,4.693,0,0,0,4.688,4.688h1.875V50A.938.938,0,0,1,57.188,50.938Z" transform="translate(0 -5)" fill="#bc2733"/>
      </g>
    </g>
  </g>
</svg>
