<svg xmlns="http://www.w3.org/2000/svg" xmlns:xlink="http://www.w3.org/1999/xlink" width="60" height="60" viewBox="0 0 60 60">
  <defs>
    <clipPath id="clip-Education_e-learning">
      <rect width="60" height="60"/>
    </clipPath>
  </defs>
  <g id="Education_e-learning" data-name="Education &amp; e-learning" clip-path="url(#clip-Education_e-learning)">
    <rect id="Rectangle_1" data-name="Rectangle 1" width="61.6" height="61.6" transform="translate(0 0.005)" fill="none"/>
    <g id="Group_208" data-name="Group 208" transform="translate(-11.07 -55.29)">
      <path id="Path_549" data-name="Path 549" d="M17.178,86.649a.586.586,0,0,1,0-1.172h7.795a.586.586,0,0,1,0,1.172Zm0-2.741a.586.586,0,0,1,0-1.172h7.795a.586.586,0,0,1,0,1.172Zm0-2.741a.586.586,0,0,1,0-1.172h4.756a.586.586,0,0,1,0,1.172Zm44.779,1.082-3.612,2.088a.585.585,0,0,1-.874-.5h0V79.62a.585.585,0,0,1,.912-.488l3.612,2.088a.584.584,0,0,1-.034,1.028Zm-3.318.571,1.894-1.093-1.894-1.093Zm.7-6.27a5.176,5.176,0,1,1-5.178,5.178,5.176,5.176,0,0,1,5.178-5.178Zm2.832,2.344a4.006,4.006,0,1,0,0,5.666,4.011,4.011,0,0,0,0-5.666ZM34.345,83.71a.585.585,0,0,1,.256-1.141l3.322.757a.583.583,0,1,1-.256,1.138Zm12.928-1.14a.584.584,0,0,1,.256,1.14l-3.318.754a.584.584,0,1,1-.26-1.138Zm-.113,2.862a.583.583,0,0,1,.256,1.138l-3.318.757a.585.585,0,0,1-.26-1.141Zm-12.7,1.138a.583.583,0,1,1,.256-1.138l3.322.754a.585.585,0,0,1-.256,1.141ZM27.016,73.955a.586.586,0,0,1,1.172,0v3.793a.586.586,0,0,1-1.172,0Zm13.921-2.772a18.533,18.533,0,0,1,4.494.494c1.383.366,2.236.968,2.236,1.715V73.6l4.756-1.579L40.936,68.21,29.452,72.02,34.206,73.6v-.207c0-.746.854-1.349,2.236-1.715a18.52,18.52,0,0,1,4.495-.494Zm6.73,3.643v1.511l2.478-.509a.587.587,0,0,1,.588.584V89.244h0a.585.585,0,0,1-.463.574L41.1,91.744h-.324l-9.164-1.926a.587.587,0,0,1-.467-.574h0V76.413a.585.585,0,0,1,.746-.563l2.316.488V74.826l-6.789-2.25a.585.585,0,0,1,0-1.11l13.332-4.424a.589.589,0,0,1,.369,0l13.332,4.424a.586.586,0,0,1,0,1.11Zm0,2.707v1.193a.583.583,0,0,1-.584.584h-5.56V90.462l8.037-1.69V77.137ZM40.353,79.31H34.795a.587.587,0,0,1-.588-.584V77.533l-1.891-.4V88.771l8.037,1.69Zm4.78-6.5a19.64,19.64,0,0,0-8.394,0c-.84.224-1.362.435-1.362.584v4.746H46.494V73.392c0-.149-.518-.36-1.361-.584ZM11.648,108.778a.586.586,0,0,1,0-1.172H23.484a1.579,1.579,0,0,1-.038-.339v-3.422a.587.587,0,0,1,.588-.588h8.117a.559.559,0,0,1,.224.049l2.758,1.155h1.835V99.5H14.641a2.428,2.428,0,0,1-.577-.079A2.239,2.239,0,0,1,13.282,99l-.132-.117-.016-.017-.051-.055-.017-.021-.017-.017-.017-.021L13,98.71l-.017-.021-.028-.041-.017-.021-.028-.041a2.084,2.084,0,0,1-.377-1.2V63.4a2.113,2.113,0,0,1,2.108-2.108H67.232A2.116,2.116,0,0,1,69.345,63.4v33.99a2.17,2.17,0,0,1-.083.574,2.216,2.216,0,0,1-.467.844l-.322.287-.149.1-.041.028-.159.083-.467.152-.426.045H44.909v4.964h1.835l2.738-1.148a.6.6,0,0,1,.245-.055h8.117a.584.584,0,0,1,.584.588v3.422a1.377,1.377,0,0,1-.038.339H70.23a.586.586,0,0,1,0,1.172H11.648Zm13.3-1.172H56.924a.347.347,0,0,0,.335-.339V104.43H49.845l-2.758,1.159a.581.581,0,0,1-.224.045H35.017a.635.635,0,0,1-.245-.052l-2.738-1.151H24.619v2.838a.339.339,0,0,0,.333.339ZM37.829,96.912a.586.586,0,0,1,0-1.172h6.219a.586.586,0,0,1,0,1.172ZM61.22,65.365a.586.586,0,0,1,0-1.172h3.028a.586.586,0,0,1,0,1.172Zm-6.892,0a.586.586,0,0,1,0-1.172h3.028a.586.586,0,0,1,0,1.172Zm-6.889,0a.586.586,0,0,1,0-1.172h3.028a.586.586,0,0,1,0,1.172Zm-6.894,0a.586.586,0,0,1,0-1.172h3.028a.586.586,0,0,1,0,1.172Zm-23.367,0a.586.586,0,0,1,0-1.172h4.756a.586.586,0,0,1,0,1.172ZM38.14,99.5v4.964h5.6V99.5Zm30.033-4.9H13.7v2.828a.937.937,0,0,0,.124.428l.034.059.021.028.021.028.013.017.013.017.017.017.013.013.017.017.094.083.111.073.03.017.032.013.073.032.024.01.032.011.034.007.055.013.024,0,.011,0,.141.01H67.231l.141-.01.013,0,.021,0,.059-.013.034-.007.03-.011.021-.01.076-.032.028-.013.01,0,.021-.013.115-.073a.936.936,0,0,0,.369-.743V94.6ZM13.7,93.424H68.173V63.4a.943.943,0,0,0-.94-.937H14.641a.94.94,0,0,0-.937.937Z" transform="translate(0 0)" fill="#bc2834" stroke="#bc2834" stroke-width="0.4"/>
    </g>
  </g>
</svg>
