<svg xmlns="http://www.w3.org/2000/svg" xmlns:xlink="http://www.w3.org/1999/xlink" width="60" height="60" viewBox="0 0 60 60">
  <defs>
    <clipPath id="clip-Enterprise">
      <rect width="60" height="60"/>
    </clipPath>
  </defs>
  <g id="Enterprise" clip-path="url(#clip-Enterprise)">
    <rect id="Rectangle_1" data-name="Rectangle 1" width="61.6" height="61.6" transform="translate(0 0.005)" fill="none"/>
    <g id="Group_205" data-name="Group 205" transform="translate(-5.519 -3)">
      <path id="Path_545" data-name="Path 545" d="M40.469,23.5l.979-4.476a.9.9,0,0,0-.885-1.1H28.75a.9.9,0,0,0-.887,1.087l.917,4.476a.9.9,0,0,0,.887.723h9.918A.906.906,0,0,0,40.469,23.5Zm-1.612-1.1H30.4l-.547-2.666h9.581Zm.429,6.078a.905.905,0,0,1-.905.905h-7.4a.905.905,0,0,1,0-1.81h7.4A.906.906,0,0,1,39.286,28.479Zm-1.542,5.553a.905.905,0,0,1-.905.905H32.52a.905.905,0,1,1,0-1.81h4.319A.905.905,0,0,1,37.743,34.033ZM23.865,44.982a.9.9,0,0,0,.729.466l4.263.3.063,0H39.974l.064,0,4.263-.3a.9.9,0,0,0,.729-.466l8.223-14.933a.9.9,0,0,0-.468-1.281L44.336,25.52l2.082-11.688a.905.905,0,0,0-.891-1.064H39.555V9.088a.905.905,0,0,0-.905-.905H35.429V3.905a.905.905,0,0,0-1.81,0V8.184H30.4a.905.905,0,0,0-.905.905v3.679H23.522a.9.9,0,0,0-.892,1.059l2.019,11.658-8.54,3.282a.9.9,0,0,0-.468,1.281ZM34.188,43.94l-.419-2.528h1.807l-.451,2.528ZM51.167,30.084,43.681,43.677l-2.614.184,2.944-16.527ZM31.3,9.994h6.442v2.774H31.3ZM30.4,14.578H44.446L42.46,25.724a.9.9,0,0,0-.063.2L39.215,43.94H36.964l.583-3.274a.905.905,0,0,0-.891-1.064H32.7a.905.905,0,0,0-.893,1.053l.545,3.285H29.682L24.6,14.578ZM24.905,27.326l2.922,16.535-2.615-.185L17.727,30.084ZM23.958,32.5l-2.226.677a.905.905,0,1,1-.527-1.732l2.226-.677a.905.905,0,0,1,.527,1.732Zm.636,3.236-1.391.423a.905.905,0,1,1-.527-1.732L24.068,34a.905.905,0,1,1,.527,1.732Zm19.74-4.365a.906.906,0,0,1,1.129-.6l2.226.677a.905.905,0,1,1-.527,1.732L44.936,32.5A.905.905,0,0,1,44.334,31.37ZM43.7,34.606a.906.906,0,0,1,1.129-.6l1.391.423a.905.905,0,1,1-.527,1.732L44.3,35.735A.905.905,0,0,1,43.7,34.606ZM60,43.8l-2.311,3.509a.905.905,0,0,1-1.651-.635L42.4,56.311a.906.906,0,0,1-.846.106L29.289,51.712,12.933,62.834a.905.905,0,1,1-1.019-1.5L28.661,49.949a.906.906,0,0,1,.833-.1l12.258,4.7L55.181,45.07a.905.905,0,0,1-.232-1.79l4.113-.86A.905.905,0,0,1,60,43.8Z" fill="#bc2834"/>
    </g>
  </g>
</svg>
