<svg xmlns="http://www.w3.org/2000/svg" xmlns:xlink="http://www.w3.org/1999/xlink" width="60" height="60" viewBox="0 0 60 60">
  <defs>
    <clipPath id="clip-Fintech">
      <rect width="60" height="60"/>
    </clipPath>
  </defs>
  <g id="Fintech" clip-path="url(#clip-Fintech)">
    <rect id="Rectangle_1" data-name="Rectangle 1" width="61.6" height="61.6" transform="translate(0 0.005)" fill="none"/>
    <g id="Group_244" data-name="Group 244" transform="translate(-0.525 -0.486)">
      <path id="Path_639" data-name="Path 639" d="M17.895,20.827v-.62a3.822,3.822,0,0,0-.295-7.633H15.832a1.474,1.474,0,1,1,0-2.947h4.421a1.179,1.179,0,1,0,0-2.358H17.895V6.679a1.179,1.179,0,1,0-2.358,0V7.3a3.822,3.822,0,0,0,.295,7.633H17.6a1.474,1.474,0,1,1,0,2.947H13.179a1.179,1.179,0,0,0,0,2.358h2.358v.589a1.179,1.179,0,1,0,2.358,0Z" transform="translate(14.224 5.451)" fill="#bc2632"/>
      <path id="Path_640" data-name="Path 640" d="M34.437,16.469A12.969,12.969,0,1,0,21.469,29.437,12.967,12.967,0,0,0,34.437,16.469Zm-23.579,0A10.611,10.611,0,1,1,21.469,27.079,10.612,10.612,0,0,1,10.858,16.469Z" transform="translate(9.472 2.735)" fill="#bc2632"/>
      <path id="Path_641" data-name="Path 641" d="M54.52,48.678a5.86,5.86,0,0,0-3.11.908l-9.859-7.392V33.319a17.685,17.685,0,1,0-21.221,0v8.875l-9.859,7.392a5.862,5.862,0,1,0,1.738,1.651l10.007-7.51a1.178,1.178,0,0,0,.472-.943V34.833a17.527,17.527,0,0,0,7.074,2V48.8a5.894,5.894,0,1,0,2.358,0V36.83a17.527,17.527,0,0,0,7.074-2v7.951a1.178,1.178,0,0,0,.472.943l10.007,7.505a5.9,5.9,0,1,0,4.848-2.554ZM7.361,58.11A3.537,3.537,0,1,1,10.9,54.573,3.538,3.538,0,0,1,7.361,58.11ZM15.614,19.2A15.327,15.327,0,1,1,30.94,34.531,15.326,15.326,0,0,1,15.614,19.2ZM34.477,54.573a3.537,3.537,0,1,1-3.537-3.537A3.538,3.538,0,0,1,34.477,54.573ZM54.52,58.11a3.537,3.537,0,1,1,3.537-3.537A3.538,3.538,0,0,1,54.52,58.11Z" transform="translate(0 0)" fill="#bc2632"/>
    </g>
  </g>
</svg>
