<svg xmlns="http://www.w3.org/2000/svg" xmlns:xlink="http://www.w3.org/1999/xlink" width="60" height="60" viewBox="0 0 60 60">
  <defs>
    <clipPath id="clip-Food_Restaurant">
      <rect width="60" height="60"/>
    </clipPath>
  </defs>
  <g id="Food_Restaurant" data-name="Food &amp; Restaurant" clip-path="url(#clip-Food_Restaurant)">
    <rect id="Rectangle_1" data-name="Rectangle 1" width="61.6" height="61.6" transform="translate(0 0.005)" fill="none"/>
    <g id="Group_213" data-name="Group 213" transform="translate(-13.154 -13.152)">
      <path id="Path_598" data-name="Path 598" d="M72.462,16.975V28.26a7.535,7.535,0,0,1-6.583,7.465V55.533H64V33.9h.94a5.648,5.648,0,0,0,5.642-5.643V16.975a.94.94,0,1,0-1.881-.005v6.588a2.821,2.821,0,0,1-5.642,0V16.975a.94.94,0,1,0-1.881-.005v6.588a2.821,2.821,0,0,1-5.643,0V16.975a.94.94,0,1,0-1.881-.005V28.26A5.649,5.649,0,0,0,59.3,33.9h.94V47.069H58.355V35.725a7.536,7.536,0,0,1-6.583-7.465V16.975a2.821,2.821,0,0,1,5.643,0v6.586a.94.94,0,0,0,1.881.005V16.975a2.821,2.821,0,0,1,5.643,0v6.583a.94.94,0,0,0,1.881.005V16.975a2.821,2.821,0,0,1,5.642,0Zm-4.7,50.785v1.88a2.825,2.825,0,0,1-2.821,2.821H21.677a2.825,2.825,0,0,1-2.821-2.821v-1.88a2.825,2.825,0,0,1,2.821-2.821H64.939A2.825,2.825,0,0,1,67.76,67.759Zm-1.881,0a.941.941,0,0,0-.94-.94H21.677a.941.941,0,0,0-.94.94v1.88a.941.941,0,0,0,.94.94H64.939a.941.941,0,0,0,.94-.94ZM52.712,39.545V45.46a18.823,18.823,0,0,1,12.226,17.6H63.058A16.948,16.948,0,0,0,46.13,46.129H40.487A16.948,16.948,0,0,0,23.558,63.057H21.677A18.823,18.823,0,0,1,33.9,45.46V39.545a2.824,2.824,0,0,1,2.821-2.821H49.891A2.824,2.824,0,0,1,52.712,39.545ZM35.784,44.867a18.572,18.572,0,0,1,1.881-.384v-4H48.951v4a18.572,18.572,0,0,1,1.881.384V39.545a.942.942,0,0,0-.94-.94H36.725a.942.942,0,0,0-.94.94Zm10.345-.619c.318,0,.627.032.94.047V42.367H39.546V44.3c.313-.015.623-.047.94-.047ZM25.439,63.057H27.32a13.37,13.37,0,0,1,.116-1.757l-1.865-.248A15.215,15.215,0,0,0,25.439,63.057Zm12.414-12.9-.375-1.844a15.163,15.163,0,0,0-11.5,10.734l1.813.5A13.263,13.263,0,0,1,37.853,50.154ZM20.737,55.533h1.881V35.694l-.77-.142c-3.912-.718-5.813-3.1-5.813-7.292,0-4.931,2.69-12.226,8.464-12.226s8.464,7.295,8.464,12.226c0,4.189-1.9,6.574-5.813,7.292l-.77.142V47.069h1.881V37.236c4.312-1.07,6.583-4.157,6.583-8.976,0-5.858-3.21-14.107-10.345-14.107S14.154,22.4,14.154,28.26c0,4.819,2.271,7.906,6.583,8.976Z" transform="translate(0)" fill="#bc2733"/>
    </g>
  </g>
</svg>
