<svg xmlns="http://www.w3.org/2000/svg" xmlns:xlink="http://www.w3.org/1999/xlink" width="60" height="60" viewBox="0 0 60 60">
  <defs>
    <clipPath id="clip-Healthcare_Fitness">
      <rect width="60" height="60"/>
    </clipPath>
  </defs>
  <g id="Healthcare_Fitness" data-name="Healthcare &amp; Fitness" clip-path="url(#clip-Healthcare_Fitness)">
    <rect id="Rectangle_1" data-name="Rectangle 1" width="61.6" height="61.6" transform="translate(0 0.005)" fill="none"/>
    <g id="Group_209" data-name="Group 209" transform="translate(-8.851 -4.997)">
      <path id="Path_550" data-name="Path 550" d="M46.96,14.75a11.082,11.082,0,0,0-5.582,1.506,1,1,0,1,0,1.008,1.727A9.085,9.085,0,0,1,54.844,30.344a1,1,0,0,0,1.735.995A11.085,11.085,0,0,0,46.96,14.75Z" transform="translate(-7.75 -3.25)" fill="#bc2834"/>
      <path id="Path_551" data-name="Path 551" d="M48.608,36.251a8.988,8.988,0,0,1-4.152,1A9.085,9.085,0,0,1,36.79,23.3,1,1,0,1,0,35.1,22.222a11.085,11.085,0,0,0,14.42,15.807,1,1,0,0,0-.915-1.778Z" transform="translate(-5.246 -5.588)" fill="#bc2834"/>
      <path id="Path_552" data-name="Path 552" d="M52.768,24.387H49.44V21.065a1,1,0,0,0-1-1H44.01a1,1,0,0,0-1,1v3.322H39.688a1,1,0,0,0-1,1v4.43a1,1,0,0,0,1,1H43.01v3.329a1,1,0,0,0,1,1h4.43a1,1,0,0,0,1-1V30.817h3.329a1,1,0,0,0,1-1v-4.43A1,1,0,0,0,52.768,24.387Zm-1,4.43H48.44a1,1,0,0,0-1,1v3.329H45.01V29.817a1,1,0,0,0-1-1H40.688v-2.43H44.01a1,1,0,0,0,1-1V22.065h2.43v3.322a1,1,0,0,0,1,1h3.329Z" transform="translate(-7.018 -5.023)" fill="#bc2834"/>
      <path id="Path_553" data-name="Path 553" d="M39.215,8.125A13.085,13.085,0,0,0,21.387,27.248c.029.032.059.063.093.1L38.508,44.373a1,1,0,0,0,1.414,0L56.954,27.345l.07-.069A13.089,13.089,0,0,0,39.215,8.125ZM55.609,25.861,39.215,42.252,22.893,25.932c-.019-.023-.038-.044-.059-.065A11.085,11.085,0,0,1,38.513,10.192a1,1,0,0,0,1.4,0,11.114,11.114,0,0,1,15.623.056h0a11.095,11.095,0,0,1,.07,15.613Z" transform="translate(-0.007)" fill="#bc2834"/>
      <path id="Path_554" data-name="Path 554" d="M71.913,45.523a2.193,2.193,0,0,0-.642-1.474,2.243,2.243,0,0,0-1.616-.641,3.675,3.675,0,0,0-3.544,3.78l.1,3.063-.465,1.882a2.718,2.718,0,0,0-1.727.783l-3.385,3.388-1.1.191a4.083,4.083,0,0,0-2.214,1.144l-2.377,2.377a4.1,4.1,0,0,0-1.206,2.816l-.084,3.745a3.093,3.093,0,0,0-1.934,2.835l-.055,5.158a3.107,3.107,0,0,0,3.067,3.133l8.559.091h.034a3.106,3.106,0,0,0,3.1-3.067l.055-5.158a3.1,3.1,0,0,0-1.805-2.844,3.782,3.782,0,0,1,1.05-2.035l4.015-4.015a6.642,6.642,0,0,0,1.907-3.99l.426-4.041a2.827,2.827,0,0,0,.047-.451l0-.017c0-.009,0-.018,0-.027,0-.037.005-.072,0-.11ZM64.418,74.708A1.117,1.117,0,0,1,63.305,75.8l-8.558-.092a1.107,1.107,0,0,1-1.089-1.112l.055-5.158a1.107,1.107,0,0,1,1.1-1.089h.012l8.558.092a1.107,1.107,0,0,1,1.089,1.112Zm5.234-18.23a4.635,4.635,0,0,1-1.332,2.785L64.3,63.278a5.844,5.844,0,0,0-1.614,3.151l-7.038-.075.078-3.475a2.108,2.108,0,0,1,.621-1.448l2.377-2.377a2.127,2.127,0,0,1,1.138-.587l1.419-.245a.965.965,0,0,0,.2-.058l.013-.007a1,1,0,0,0,.317-.211l.005,0,3.61-3.612a.774.774,0,0,1,1.062,0,.753.753,0,0,1,0,1.062l-4.147,4.147a1,1,0,0,0,1.414,1.414l4.148-4.147a2.654,2.654,0,0,0-.247-4.093l.523-2.116c0-.011,0-.023,0-.034.007-.033.011-.067.015-.1a.909.909,0,0,0,.007-.1c0-.011,0-.022,0-.033l-.1-3.2a1.668,1.668,0,0,1,1.6-1.718.173.173,0,0,1,.147.056.184.184,0,0,1,.057.127l.206,6.445-.048.452c0,.017,0,.033-.005.05Z" transform="translate(-11.343 -12.806)" fill="#bc2834"/>
      <circle id="Ellipse_1" data-name="Ellipse 1" cx="1.214" cy="1.214" r="1.214" transform="translate(50.51 56.183)" fill="#bc2834"/>
      <path id="Path_555" data-name="Path 555" d="M36.115,66.576l-.084-3.743a4.1,4.1,0,0,0-1.206-2.816L32.448,57.64A4.079,4.079,0,0,0,30.236,56.5L29.13,56.3l-3.385-3.388a2.721,2.721,0,0,0-1.727-.783l-.465-1.882.1-3.065A3.676,3.676,0,0,0,20.1,43.408a2.193,2.193,0,0,0-2.246,2.119l-.209,6.526c0,.039,0,.076.005.114,0,0,0,.007,0,.011v.007a2.933,2.933,0,0,0,.049.462l.426,4.039a6.631,6.631,0,0,0,1.907,3.99l4.015,4.015a3.776,3.776,0,0,1,1.051,2.035,3.1,3.1,0,0,0-1.806,2.844l.055,5.158a3.106,3.106,0,0,0,3.1,3.067h.034l8.558-.092A3.107,3.107,0,0,0,38.1,74.571l-.055-5.158A3.1,3.1,0,0,0,36.115,66.576ZM21.443,59.262a4.633,4.633,0,0,1-1.332-2.785L19.7,52.538c0-.017,0-.033-.005-.05l-.048-.452.206-6.442a.195.195,0,0,1,.194-.188,1.67,1.67,0,0,1,1.611,1.717l-.1,3.2c0,.011,0,.022,0,.033a.909.909,0,0,0,.007.1.863.863,0,0,0,.015.1c0,.011,0,.023,0,.034l.523,2.116a2.644,2.644,0,0,0-.247.2,2.754,2.754,0,0,0,0,3.89L26,60.955a1,1,0,0,0,1.414-1.414l-4.147-4.147a.753.753,0,0,1,0-1.062.774.774,0,0,1,1.062,0l3.61,3.613.005,0a.99.99,0,0,0,.317.211l.013.007a1.007,1.007,0,0,0,.2.058l1.422.246a2.119,2.119,0,0,1,1.135.587l2.377,2.377a2.109,2.109,0,0,1,.621,1.447l.078,3.475-7.037.075a5.841,5.841,0,0,0-1.614-3.151Zm14.346,16.11a1.091,1.091,0,0,1-.773.333l-8.559.092h-.012a1.1,1.1,0,0,1-1.1-1.089l-.055-5.158a1.107,1.107,0,0,1,1.089-1.112l8.558-.092a1.073,1.073,0,0,1,.78.316,1.091,1.091,0,0,1,.333.773l.055,5.158A1.089,1.089,0,0,1,35.789,75.372Z" transform="translate(0 -12.806)" fill="#bc2834"/>
      <circle id="Ellipse_2" data-name="Ellipse 2" cx="1.214" cy="1.214" r="1.214" transform="translate(25.483 56.183)" fill="#bc2834"/>
    </g>
  </g>
</svg>
