<svg xmlns="http://www.w3.org/2000/svg" xmlns:xlink="http://www.w3.org/1999/xlink" width="60" height="60" viewBox="0 0 60 60">
  <defs>
    <clipPath id="clip-Logistics_Distribution">
      <rect width="60" height="60"/>
    </clipPath>
  </defs>
  <g id="Logistics_Distribution" data-name="Logistics &amp; Distribution" clip-path="url(#clip-Logistics_Distribution)">
    <rect id="Rectangle_1" data-name="Rectangle 1" width="61.6" height="61.6" transform="translate(0 0.005)" fill="none"/>
    <g id="Group_210" data-name="Group 210" transform="translate(-5.063 -10.554)">
      <path id="Path_556" data-name="Path 556" d="M26.527,26.574a.647.647,0,0,1,0-1.294h8a.647.647,0,0,1,0,1.294Z" transform="translate(-6.836)" fill="#bc2834" stroke="#bc2834" stroke-width="0.2"/>
      <path id="Path_557" data-name="Path 557" d="M26.7,26.427h8a.323.323,0,0,0,0-.647h-8a.323.323,0,1,0,0,.647Z" transform="translate(-7.007 -0.177)" fill="#bc2834" stroke="#bc2834" stroke-width="0.2"/>
      <path id="Path_558" data-name="Path 558" d="M8.917,26.588c-3.817,0-3.817,0-3.817-.634a.643.643,0,0,1,.64-.635H16.032a.634.634,0,0,1,.006,1.268H8.917Z" transform="translate(-0.013 -0.014)" fill="#bc2834" stroke="#bc2834" stroke-width="0.2"/>
      <path id="Path_559" data-name="Path 559" d="M9.093,26.441h7.116a.317.317,0,0,0,.311-.311.311.311,0,0,0-.311-.311H5.93a.317.317,0,0,0-.33.3v.007C5.6,26.441,5.6,26.441,9.093,26.441Z" transform="translate(-0.19 -0.191)" fill="#bc2834" stroke="#bc2834" stroke-width="0.2"/>
      <path id="Path_560" data-name="Path 560" d="M10.737,32.054c-1.382,0-1.457-.02-1.628-.175l-.247-.225.361-.372v-.5h4.464l.032.006a.631.631,0,0,1,.6.621.645.645,0,0,1-.627.647H10.737Z" transform="translate(-1.342 -1.942)" fill="#bc2834" stroke="#bc2834" stroke-width="0.2"/>
      <path id="Path_561" data-name="Path 561" d="M13.908,31.28H9.8v.311l-.22.226c.071.065.1.091,1.41.091h2.95a.317.317,0,0,0,.311-.317.311.311,0,0,0-.311-.3Z" transform="translate(-1.595 -2.119)" fill="#bc2834" stroke="#bc2834" stroke-width="0.2"/>
      <path id="Path_562" data-name="Path 562" d="M32.377,48.514a.647.647,0,1,1,0-1.294h4.211a.647.647,0,0,1,.633.68.629.629,0,0,1-.633.614Z" transform="translate(-8.805 -7.747)" fill="#bc2834" stroke="#bc2834" stroke-width="0.2"/>
      <path id="Path_563" data-name="Path 563" d="M36.765,47.72H32.553a.323.323,0,1,0,0,.647h4.211a.311.311,0,0,0,.311-.311.317.317,0,0,0-.3-.336Z" transform="translate(-8.978 -7.924)" fill="#bc2834" stroke="#bc2834" stroke-width="0.2"/>
      <path id="Path_564" data-name="Path 564" d="M25.164,68.9a5.314,5.314,0,1,1,.006,0Zm.013-9.347a4.037,4.037,0,1,0,4.037,4.036A4.041,4.041,0,0,0,25.177,59.554Z" transform="translate(-4.849 -11.653)" fill="#bc2834" stroke="#bc2834" stroke-width="0.2"/>
      <path id="Path_565" data-name="Path 565" d="M25.354,58.78a4.987,4.987,0,1,0,4.981,4.994v-.006A4.994,4.994,0,0,0,25.354,58.78Zm0,9.347a4.36,4.36,0,1,1,4.36-4.36h0A4.373,4.373,0,0,1,25.354,68.127Z" transform="translate(-5.018 -11.83)" fill="#bc2834" stroke="#bc2834" stroke-width="0.2"/>
      <path id="Path_566" data-name="Path 566" d="M29.251,70,29.165,70a.6.6,0,0,1-.538-.428.63.63,0,0,1,.4-.8A2.428,2.428,0,0,0,30.6,67.055a.632.632,0,0,1,.613-.5.692.692,0,0,1,.109.009l.045.01a.634.634,0,0,1,.469.765,3.675,3.675,0,0,1-2.4,2.644l-.05.017-.105,0Z" transform="translate(-7.792 -14.575)" fill="#bc2834" stroke="#bc2834" stroke-width="0.2"/>
      <path id="Path_567" data-name="Path 567" d="M31.089,67.311A2.761,2.761,0,0,1,29.3,69.251a.3.3,0,0,0-.2.382l0,.013a.3.3,0,0,0,.291.207.308.308,0,0,0,.1,0A3.37,3.37,0,0,0,31.7,67.44a.311.311,0,0,0-.23-.375h0a.3.3,0,0,0-.37.219C31.092,67.293,31.091,67.3,31.089,67.311Z" transform="translate(-7.962 -14.752)" fill="#bc2834" stroke="#bc2834" stroke-width="0.2"/>
      <path id="Path_568" data-name="Path 568" d="M23.034,65.118a.635.635,0,0,1-.634-.634,3.678,3.678,0,0,1,3.674-3.674.634.634,0,0,1,.006,1.268,2.41,2.41,0,0,0-2.413,2.406.64.64,0,0,1-.628.634h-.006Z" transform="translate(-5.733 -12.546)" fill="#bc2834" stroke="#bc2834" stroke-width="0.2"/>
      <path id="Path_569" data-name="Path 569" d="M26.561,61.621a.311.311,0,0,0-.311-.311A3.351,3.351,0,0,0,22.9,64.661a.311.311,0,0,0,.311.311h0a.317.317,0,0,0,.311-.311,2.73,2.73,0,0,1,2.73-2.73h0A.317.317,0,0,0,26.561,61.621Z" transform="translate(-5.903 -12.723)" fill="#bc2834" stroke="#bc2834" stroke-width="0.2"/>
      <path id="Path_570" data-name="Path 570" d="M73.233,70l-.083-.011a.611.611,0,0,1-.523-.408A.634.634,0,0,1,73,68.772a2.435,2.435,0,0,0,1.59-1.716.631.631,0,0,1,.613-.5.606.606,0,0,1,.156.019.644.644,0,0,1,.469.757,3.7,3.7,0,0,1-2.412,2.65l-.05.017-.1,0Z" transform="translate(-22.358 -14.575)" fill="#bc2834" stroke="#bc2834" stroke-width="0.2"/>
      <path id="Path_571" data-name="Path 571" d="M75.081,67.311a2.761,2.761,0,0,1-1.792,1.941.311.311,0,0,0,.1.6.245.245,0,0,0,.1,0,3.39,3.39,0,0,0,2.2-2.413.317.317,0,0,0-.233-.375.3.3,0,0,0-.37.219C75.085,67.293,75.083,67.3,75.081,67.311Z" transform="translate(-22.541 -14.752)" fill="#bc2834" stroke="#bc2834" stroke-width="0.2"/>
      <path id="Path_572" data-name="Path 572" d="M67.009,65.118a.639.639,0,0,1-.629-.627,3.68,3.68,0,0,1,3.674-3.681.634.634,0,0,1,.46.193.623.623,0,0,1,.174.448.633.633,0,0,1-.634.627,2.418,2.418,0,0,0-2.406,2.407.635.635,0,0,1-.634.633Z" transform="translate(-20.277 -12.546)" fill="#bc2834" stroke="#bc2834" stroke-width="0.2"/>
      <path id="Path_573" data-name="Path 573" d="M70.541,61.621a.3.3,0,0,0-.3-.311h-.013a3.351,3.351,0,0,0-3.351,3.351.317.317,0,0,0,.311.311.311.311,0,0,0,.311-.311h0a2.737,2.737,0,0,1,2.73-2.73A.311.311,0,0,0,70.541,61.621Z" transform="translate(-20.458 -12.723)" fill="#bc2834" stroke="#bc2834" stroke-width="0.2"/>
      <path id="Path_574" data-name="Path 574" d="M27.251,67.156a1.487,1.487,0,1,1,.015,0h-.015Zm.013-1.695a.213.213,0,0,0,0,.427.218.218,0,0,0,.213-.217A.213.213,0,0,0,27.264,65.461Z" transform="translate(-6.859 -13.736)" fill="#bc2834" stroke="#bc2834" stroke-width="0.2"/>
      <path id="Path_575" data-name="Path 575" d="M28.6,65.851a1.164,1.164,0,1,0-1.171,1.158h.013A1.164,1.164,0,0,0,28.6,65.851Zm-1.158.537a.537.537,0,1,1,.537-.537A.543.543,0,0,1,27.441,66.388Z" transform="translate(-7.03 -13.913)" fill="#bc2834" stroke="#bc2834" stroke-width="0.2"/>
      <path id="Path_576" data-name="Path 576" d="M71.191,67.163a1.481,1.481,0,1,1,1.481-1.481,1.483,1.483,0,0,1-1.481,1.481h0Zm0-1.695a.213.213,0,1,0,.213.213A.214.214,0,0,0,71.191,65.468Z" transform="translate(-21.413 -13.744)" fill="#bc2834" stroke="#bc2834" stroke-width="0.2"/>
      <path id="Path_577" data-name="Path 577" d="M72.526,65.858a1.158,1.158,0,1,0-1.158,1.158A1.158,1.158,0,0,0,72.526,65.858Zm-1.158.537a.537.537,0,1,1,.537-.537.537.537,0,0,1-.537.537Z" transform="translate(-21.595 -13.92)" fill="#bc2834" stroke="#bc2834" stroke-width="0.2"/>
      <path id="Path_578" data-name="Path 578" d="M68.674,68.9a5.314,5.314,0,1,1,.007,0Zm.014-9.347a4.037,4.037,0,1,0,4.037,4.036A4.041,4.041,0,0,0,68.687,59.554Z" transform="translate(-19.107 -11.653)" fill="#bc2834" stroke="#bc2834" stroke-width="0.2"/>
      <path id="Path_579" data-name="Path 579" d="M68.864,58.78a4.987,4.987,0,1,0,4.981,4.994v-.006A4.988,4.988,0,0,0,68.864,58.78Zm0,9.347a4.36,4.36,0,1,1,4.36-4.36h0A4.367,4.367,0,0,1,68.864,68.127Z" transform="translate(-19.291 -11.83)" fill="#bc2834" stroke="#bc2834" stroke-width="0.2"/>
      <path id="Path_580" data-name="Path 580" d="M55.156,51.565l-.1-.519a5.553,5.553,0,0,0-4.529-4.385,5.848,5.848,0,0,0-1.055-.1,5.631,5.631,0,0,0-5.571,4.484l-.109.516H26.113l-.108-.51a5.556,5.556,0,0,0-4.529-4.393,5.855,5.855,0,0,0-1.056-.1,5.631,5.631,0,0,0-5.571,4.484l-.109.516H5.068V45.044H6.2v-1.65h7.571V40.982H9.661c-4.573,0-4.573,0-4.573-.64a.659.659,0,0,1,.667-.634h8.013V37.391H10.516c-2.782,0-2.891,0-2.891-.64a.654.654,0,0,1,.661-.634H13.8V33.879h-3c-5.3,0-5.3,0-5.5-.192l-.236-.228.365-.354v-.5h8.346V29.053H35.806V43.375h3.032V25.89H50.185l1.623,3.563,3.082,6.784,9.045,3.318v5.489h1.128v6.521ZM13.716,50.316a6.965,6.965,0,0,1,6.707-4.942h.015a6.967,6.967,0,0,1,6.725,4.936H41.688V37.372H40.146v7.271H7.511v.4H8.64v5.272Zm-6.359,0V46.338H6.376v3.978ZM63.752,50.3l-.023-3.959h-.957V50.3Zm-2.261,0V45.044h1.128V40.416l-8.34-3.044H51.857v8.411A6.834,6.834,0,0,1,56.213,50.3Zm-18.467-.75a7,7,0,0,1,6.456-4.166,7.118,7.118,0,0,1,1.069.082V37.379H43.024ZM34.5,43.375V30.321H15.076v2.258h3.131a.647.647,0,1,1,0,1.294H15.076v2.212h7.5a.647.647,0,1,1,0,1.294h-7.5v2.316h2.931a.634.634,0,1,1,0,1.268H15.076v2.413Zm18.9-7.271-2.624-5.777H49.559L51.672,36.1Zm-3.111,0-2.1-5.777L43,30.322V36.1Zm-8.6,0V29.72a.626.626,0,0,1,.191-.448.669.669,0,0,1,.462-.186H50.2l-.871-1.941H40.146V36.1Z" transform="translate(0 -0.215)" fill="#bc2834" stroke="#bc2834" stroke-width="0.2"/>
      <path id="Path_581" data-name="Path 581" d="M63.79,45.544V39.955l-8.963-3.286L51.688,29.76h0l-1.536-3.37h-10.8V43.875h-3.7V29.553H14.279V33.1H5.931v.311l-.227.22c.08.078.1.1,5.263.1h3.339v2.885H8.469a.324.324,0,0,0-.341.3v.007c0,.317,0,.317,2.558.317h3.587v2.963H5.931a.33.33,0,0,0-.341.311c0,.317,0,.317,4.241.317h4.441v3.06H6.7v1.65H5.57v5.874h9.07l.053-.252a6,6,0,0,1,7.018-4.646,5.92,5.92,0,0,1,4.8,4.646l.053.252H43.706l.053-.252a6,6,0,0,1,7.018-4.646,5.92,5.92,0,0,1,4.8,4.646l.047.252h9.3V45.544ZM48.6,30.181,50.94,36.6H42.845v-6.43ZM51.621,36.6,49.27,30.181h1.9L54.092,36.6ZM49.731,27l1.162,2.588H42.524a.334.334,0,0,0-.227.091.306.306,0,0,0-.094.22V36.6H39.993V27ZM14.914,40.815H18.18A.316.316,0,0,0,18.5,40.5a.308.308,0,0,0-.307-.311H14.914V37.232h7.841a.324.324,0,1,0,0-.647H14.914V33.726H18.38a.324.324,0,1,0,0-.647H14.914v-2.9h20.1v13.7h-20.1Zm-7.053,10H6.211V46.191h1.65Zm12.763-4.942a6.64,6.64,0,0,0-6.479,4.942H8.475V45.544H7.347V44.5H39.993V37.225H42.2V50.81H27.083A6.64,6.64,0,0,0,20.6,45.874Zm22.588,4.942h-.341V37.232h8.195v8.8a6.715,6.715,0,0,0-7.881,4.787Zm18.8-5.272V50.8H56.143a6.558,6.558,0,0,0-4.435-4.606V37.225h2.818l8.616,3.144v5.175ZM64.277,50.8h-1.65V46.191h1.623Z" transform="translate(-0.179 -0.392)" fill="#bc2834" stroke="#bc2834" stroke-width="0.2"/>
      <path id="Path_582" data-name="Path 582" d="M64.144,47.1a.634.634,0,1,1,0-1.268h2.685a.635.635,0,0,1,.634.634.641.641,0,0,1-.628.634h-2.69Z" transform="translate(-19.336 -7.257)" fill="#bc2834" stroke="#bc2834" stroke-width="0.2"/>
      <path id="Path_583" data-name="Path 583" d="M67.005,46.33H64.32a.311.311,0,0,0-.31.311h0a.317.317,0,0,0,.31.311h2.685a.317.317,0,0,0,.311-.311.311.311,0,0,0-.311-.311Z" transform="translate(-19.517 -7.433)" fill="#bc2834" stroke="#bc2834" stroke-width="0.2"/>
    </g>
  </g>
</svg>
