<svg xmlns="http://www.w3.org/2000/svg" xmlns:xlink="http://www.w3.org/1999/xlink" width="60" height="60" viewBox="0 0 60 60">
  <defs>
    <clipPath id="clip-Manufacturing">
      <rect width="60" height="60"/>
    </clipPath>
  </defs>
  <g id="Manufacturing" clip-path="url(#clip-Manufacturing)">
    <rect id="Rectangle_1" data-name="Rectangle 1" width="61.6" height="61.6" transform="translate(0 0.005)" fill="none"/>
    <g id="Group_241" data-name="Group 241" transform="translate(-120.04 -175.875)">
      <g id="Group_226" data-name="Group 226" transform="translate(135.504 196.851)">
        <rect id="Rectangle_16" data-name="Rectangle 16" width="7.276" height="1.543" transform="matrix(0.659, -0.752, 0.752, 0.659, 0, 5.475)" fill="#bb2732" stroke="#bc2733" stroke-width="0.5"/>
      </g>
      <g id="Group_227" data-name="Group 227" transform="translate(151.485 183.988)">
        <path id="Path_621" data-name="Path 621" d="M546.81,257.116a3.59,3.59,0,0,1-2.437-.951L532.28,245.021l1.045-1.135,12.093,11.144a2.053,2.053,0,0,0,2.9-2.9l-11.767-12.941,1.142-1.038,11.764,12.938a3.6,3.6,0,0,1-2.648,6.028Z" transform="translate(-532.28 -238.15)" fill="#bb2732" stroke="#bc2733" stroke-width="0.5"/>
      </g>
      <g id="Group_228" data-name="Group 228" transform="translate(120.04 225.557)">
        <path id="Path_622" data-name="Path 622" d="M143.852,783.719H120.04V779.17a2.173,2.173,0,0,1,2.17-2.17h19.471a2.173,2.173,0,0,1,2.17,2.17Zm-22.269-1.543h20.726V779.17a.628.628,0,0,0-.627-.627H122.21a.628.628,0,0,0-.627.627v3.006Z" transform="translate(-120.04 -777)" fill="#bb2732" stroke="#bc2733" stroke-width="0.5"/>
      </g>
      <g id="Group_229" data-name="Group 229" transform="translate(124.299 210.929)">
        <path id="Path_623" data-name="Path 623" d="M190.543,603.551H175.25V587.38l1.436,2.434a7.24,7.24,0,0,0,6.211,3.549h0a7.237,7.237,0,0,0,6.209-3.549l1.436-2.434Zm-13.75-1.543H189v-9.587a8.79,8.79,0,0,1-6.1,2.484h0a8.792,8.792,0,0,1-6.1-2.484Z" transform="translate(-175.25 -587.38)" fill="#bb2732" stroke="#bc2733" stroke-width="0.5"/>
      </g>
      <g id="Group_230" data-name="Group 230" transform="translate(128.708 182.299)">
        <path id="Path_624" data-name="Path 624" d="M242.7,241.753l-.517-1.116a7.216,7.216,0,0,0-7.588-4.1l-2.192.318,19.425-20.592-.255,2.294a4.025,4.025,0,0,0,4.784,4.4l2.118-.424Zm-6.374-6.811a8.763,8.763,0,0,1,6.484,3.706q.1.146.2.3l11.833-14.423a5.59,5.59,0,0,1-4.687-4.238Z" transform="translate(-232.4 -216.26)" fill="#bb2732" stroke="#bc2733" stroke-width="0.5"/>
      </g>
      <g id="Group_231" data-name="Group 231" transform="translate(161.835 216.912)">
        <path id="Path_625" data-name="Path 625" d="M686.185,680.3h-18.2v-8.9h8.311V664.94h9.894V680.3Zm-16.662-1.543h15.119V666.483h-6.808v6.461h-8.311Z" transform="translate(-667.98 -664.94)" fill="#bb2732" stroke="#bc2733" stroke-width="0.5"/>
      </g>
      <g id="Group_232" data-name="Group 232" transform="translate(168.796 202.201)">
        <path id="Path_626" data-name="Path 626" d="M763.29,483.859l-3.308-.6a2.156,2.156,0,0,1-1.772-2.123V474.24h6.981A2.159,2.159,0,0,1,767.312,476l.6,3.2-1.517.283-.6-3.2a.616.616,0,0,0-.6-.5h-5.438v5.352a.614.614,0,0,0,.5.6l3.309.6Z" transform="translate(-758.21 -474.24)" fill="#bb2732" stroke="#bc2733" stroke-width="0.5"/>
      </g>
      <g id="Group_233" data-name="Group 233" transform="translate(166.875 200.202)">
        <rect id="Rectangle_17" data-name="Rectangle 17" width="1.543" height="9.281" transform="matrix(0.703, -0.711, 0.711, 0.703, 0, 1.097)" fill="#bb2732" stroke="#bc2733" stroke-width="0.5"/>
      </g>
      <g id="Group_234" data-name="Group 234" transform="translate(178.497 210.911)">
        <rect id="Rectangle_18" data-name="Rectangle 18" width="1.543" height="6.773" transform="translate(0 0)" fill="#bb2732" stroke="#bc2733" stroke-width="0.5"/>
      </g>
      <g id="Group_235" data-name="Group 235" transform="translate(161.97 218.719)">
        <rect id="Rectangle_19" data-name="Rectangle 19" width="1.543" height="5.875" transform="translate(0 0)" fill="#bb2732" stroke="#bc2733" stroke-width="0.5"/>
      </g>
      <g id="Group_236" data-name="Group 236" transform="translate(123.195 200.955)">
        <path id="Path_627" data-name="Path 627" d="M169.691,475.59a8.751,8.751,0,0,1-4.29-16.379,8.638,8.638,0,0,1,3.023-1.031,8.915,8.915,0,0,1,1.267-.091,8.763,8.763,0,0,1,7.942,5.074,8.76,8.76,0,0,1-.4,8.12A8.791,8.791,0,0,1,169.691,475.59Zm0-15.958a7.3,7.3,0,0,0-1.046.076,7.125,7.125,0,0,0-2.486.848,7.209,7.209,0,1,0,10.74,6.284,7.119,7.119,0,0,0-.665-3.026,7.22,7.22,0,0,0-6.543-4.181Z" transform="translate(-160.94 -458.09)" fill="#bb2732" stroke="#bc2733" stroke-width="0.5"/>
      </g>
      <g id="Group_237" data-name="Group 237" transform="translate(129.09 206.849)">
        <path id="Path_628" data-name="Path 628" d="M240.206,540.2a2.856,2.856,0,1,1,2.856-2.856A2.859,2.859,0,0,1,240.206,540.2Zm0-4.169a1.313,1.313,0,1,0,1.313,1.313A1.314,1.314,0,0,0,240.206,536.033Z" transform="translate(-237.35 -534.49)" fill="#bb2732" stroke="#bc2733" stroke-width="0.5"/>
      </g>
      <g id="Group_238" data-name="Group 238" transform="translate(146.057 179.46)">
        <path id="Path_629" data-name="Path 629" d="M466.144,190.607a5.572,5.572,0,1,1,1.077-.1A5.484,5.484,0,0,1,466.144,190.607Zm0-9.6a4.022,4.022,0,0,0-4.006,3.586,4.124,4.124,0,0,0-.025.444,4.035,4.035,0,0,0,4.031,4.031,3.95,3.95,0,0,0,.778-.076,4.031,4.031,0,0,0-.778-7.986Z" transform="translate(-460.57 -179.46)" fill="#bb2732" stroke="#bc2733" stroke-width="0.5"/>
      </g>
      <g id="Group_239" data-name="Group 239" transform="translate(150.38 183.782)">
        <path id="Path_630" data-name="Path 630" d="M517.833,237.986a1.253,1.253,0,1,1,1.253-1.253A1.254,1.254,0,0,1,517.833,237.986Zm0-1.543a.29.29,0,1,0,.29.29A.291.291,0,0,0,517.833,236.443Z" transform="translate(-516.58 -235.48)" fill="#bb2732" stroke="#bc2733" stroke-width="0.5"/>
      </g>
      <g id="Group_240" data-name="Group 240" transform="translate(142.52 192.62)">
        <rect id="Rectangle_20" data-name="Rectangle 20" width="2.161" height="1.543" transform="translate(0 1.627) rotate(-48.819)" fill="#bb2732" stroke="#bc2733" stroke-width="0.5"/>
      </g>
    </g>
  </g>
</svg>
