<svg xmlns="http://www.w3.org/2000/svg" xmlns:xlink="http://www.w3.org/1999/xlink" width="60" height="60" viewBox="0 0 60 60">
  <defs>
    <clipPath id="clip-Media_Entertainment">
      <rect width="60" height="60"/>
    </clipPath>
  </defs>
  <g id="Media_Entertainment" data-name="Media &amp; Entertainment" clip-path="url(#clip-Media_Entertainment)">
    <rect id="Rectangle_1" data-name="Rectangle 1" width="61.6" height="61.6" transform="translate(0 0.005)" fill="none"/>
    <g id="Group_245" data-name="Group 245" transform="translate(0 1.001)">
      <path id="Path_642" data-name="Path 642" d="M56.125,51.875H17.688A4.688,4.688,0,0,1,13,47.188v-22.5A4.688,4.688,0,0,1,17.688,20H56.125a4.688,4.688,0,0,1,4.688,4.688v22.5A4.688,4.688,0,0,1,56.125,51.875Zm-38.437-30a2.812,2.812,0,0,0-2.812,2.813v22.5A2.812,2.812,0,0,0,17.688,50H56.125a2.812,2.812,0,0,0,2.813-2.812v-22.5a2.812,2.812,0,0,0-2.812-2.812Z" transform="translate(-0.813 -0.875)" fill="#bc2632"/>
      <path id="Path_643" data-name="Path 643" d="M2.813,47.5A2.812,2.812,0,0,1,0,44.688V27.813a2.813,2.813,0,0,1,5.625,0V44.688A2.812,2.812,0,0,1,2.813,47.5Zm0-20.625a.938.938,0,0,0-.937.938V44.688a.938.938,0,0,0,1.875,0V27.813A.938.938,0,0,0,2.813,26.875Z" transform="translate(0 -1.188)" fill="#bc2632"/>
      <path id="Path_644" data-name="Path 644" d="M5.446,45.628l-.937-1.6,4.209-2.55V31.294L4.49,28.753l.938-1.6,4.687,2.813a.938.938,0,0,1,.478.8v11.25a.937.937,0,0,1-.459.806Z" transform="translate(-0.281 -1.322)" fill="#bc2632"/>
      <path id="Path_645" data-name="Path 645" d="M13.688,43.125H9.938A.938.938,0,0,1,9,42.188V30.938A.938.938,0,0,1,9.938,30h3.75a.938.938,0,0,1,.938.938v11.25A.938.938,0,0,1,13.688,43.125ZM10.875,41.25H12.75V31.875H10.875Z" transform="translate(-0.563 -1.5)" fill="#bc2632"/>
      <path id="Path_646" data-name="Path 646" d="M44.188,48.375H19.813A2.812,2.812,0,0,1,17,45.563V26.813A2.812,2.812,0,0,1,19.813,24H44.188A2.812,2.812,0,0,1,47,26.813v18.75A2.812,2.812,0,0,1,44.188,48.375Zm-24.375-22.5a.938.938,0,0,0-.937.938v18.75a.938.938,0,0,0,.938.938H44.188a.938.938,0,0,0,.938-.937V26.813a.938.938,0,0,0-.937-.937Z" transform="translate(-1.063 -1.125)" fill="#bc2632"/>
      <path id="Path_647" data-name="Path 647" d="M29.938,42.25A.938.938,0,0,1,29,41.312V31.937a.938.938,0,0,1,1.434-.8l7.5,4.687a.938.938,0,0,1,0,1.594l-7.5,4.688A.931.931,0,0,1,29.938,42.25Zm.938-8.625v6l4.791-3Z" transform="translate(-1.812 -1.562)" fill="#bc2632"/>
      <path id="Path_648" data-name="Path 648" d="M49.5,20.5H47.625V18.072l-3.2-3.2H30.75a1.763,1.763,0,0,0-1.875,1.642,1.924,1.924,0,0,0,0,.233V20.5H27V16.75A3.646,3.646,0,0,1,30.541,13c.069,0,.14,0,.209,0H44.812a.937.937,0,0,1,.666.272l3.75,3.75a.937.937,0,0,1,.272.666Z" transform="translate(-1.687 -0.437)" fill="#bc2632"/>
      <path id="Path_649" data-name="Path 649" d="M50.372,18.166,49.05,16.844,51.2,14.687l-2.428-2.428-2.147,2.147L45.3,13.084l2.813-2.812a.937.937,0,0,1,1.322,0l3.75,3.75a.937.937,0,0,1,0,1.322Z" transform="translate(-2.831 -0.25)" fill="#bc2632"/>
      <path id="Path_650" data-name="Path 650" d="M54.563,15.375H52.688V13.5h1.491l.938-.937-4.3-4.3-.937.938v1.491H48V8.812a.937.937,0,0,1,.272-.666l1.875-1.875a.937.937,0,0,1,1.322,0L57.094,11.9a.937.937,0,0,1,0,1.322l-1.875,1.875A.94.94,0,0,1,54.563,15.375Z" transform="translate(-3)" fill="#bc2632"/>
      <rect id="Rectangle_21" data-name="Rectangle 21" width="2" height="2" transform="translate(48 23.499)" fill="#bc2632"/>
      <rect id="Rectangle_22" data-name="Rectangle 22" width="4" height="2" transform="translate(52 23.499)" fill="#bc2632"/>
      <rect id="Rectangle_23" data-name="Rectangle 23" width="8" height="2" transform="translate(48 27.499)" fill="#bc2632"/>
      <rect id="Rectangle_24" data-name="Rectangle 24" width="8" height="2" transform="translate(48 31.499)" fill="#bc2632"/>
    </g>
  </g>
</svg>
