<svg xmlns="http://www.w3.org/2000/svg" xmlns:xlink="http://www.w3.org/1999/xlink" width="60" height="60" viewBox="0 0 60 60">
  <defs>
    <clipPath id="clip-Oil_and_Gas">
      <rect width="60" height="60"/>
    </clipPath>
  </defs>
  <g id="Oil_and_Gas" data-name="Oil and Gas" clip-path="url(#clip-Oil_and_Gas)">
    <rect id="Rectangle_1" data-name="Rectangle 1" width="61.6" height="61.6" transform="translate(0 0.005)" fill="none"/>
    <g id="Group_225" data-name="Group 225" transform="translate(0 -2)">
      <path id="Path_616" data-name="Path 616" d="M57.293,29.293l-1.885,1.885-3.855,1.928a1,1,0,0,0-.522,1.137l1,4A1,1,0,0,0,53,39V50a4,4,0,0,1-8,0V32a6.006,6.006,0,0,0-6-6H35V17A15,15,0,0,0,5,17V58a2,2,0,0,1-2,2,1,1,0,0,0,0,2H37.02a1,1,0,0,0,0-2H37a2,2,0,0,1-2-2V28h4a4,4,0,0,1,4,4V50a6,6,0,0,0,12,0V39h1a1,1,0,0,0,1-1V32.414l1.707-1.707a1,1,0,1,0-1.414-1.414ZM6.463,60A3.97,3.97,0,0,0,7,58V17a13,13,0,0,1,26,0V58a3.97,3.97,0,0,0,.537,2ZM55,37H53.781l-.616-2.464L55,33.618Z" fill="#bc2733" stroke="#bc2733" stroke-width="0.4"/>
      <path id="Path_617" data-name="Path 617" d="M12,28H28a1,1,0,0,0,1-1V18a1,1,0,0,0-1-1H12a1,1,0,0,0-1,1v9A1,1,0,0,0,12,28Zm1-9H27v7H13Z" fill="#bc2733" stroke="#bc2733" stroke-width="0.4"/>
      <path id="Path_618" data-name="Path 618" d="M19.708,40.223a1.029,1.029,0,0,0-1.414,0l-3.535,3.536a6,6,0,1,0,8.484,0ZM21.829,50.83a4,4,0,0,1-5.656-5.658L19,42.344l2.828,2.828a4,4,0,0,1,0,5.658Z" fill="#bc2733" stroke="#bc2733" stroke-width="0.4"/>
      <path id="Path_619" data-name="Path 619" d="M17.049,38.772a4.312,4.312,0,0,0,0-6.1l-2.343-2.343a1.029,1.029,0,0,0-1.414,0l-2.343,2.343a4.313,4.313,0,1,0,6.1,6.1Zm-5.363-3.05a2.3,2.3,0,0,1,.678-1.636L14,32.45l1.636,1.636a2.314,2.314,0,0,1,0,3.273,2.371,2.371,0,0,1-3.271,0A2.3,2.3,0,0,1,11.686,35.722Z" fill="#bc2733" stroke="#bc2733" stroke-width="0.4"/>
      <path id="Path_620" data-name="Path 620" d="M27.021,32.293a1.029,1.029,0,0,0-1.414,0l-2.343,2.343a4.314,4.314,0,1,0,6.1,0Zm.928,7.03a2.371,2.371,0,0,1-3.271,0,2.313,2.313,0,0,1,0-3.272l1.636-1.636,1.636,1.636a2.312,2.312,0,0,1,0,3.272Z" fill="#bc2733" stroke="#bc2733" stroke-width="0.4"/>
    </g>
  </g>
</svg>
