<svg xmlns="http://www.w3.org/2000/svg" xmlns:xlink="http://www.w3.org/1999/xlink" width="60" height="60" viewBox="0 0 60 60">
  <defs>
    <clipPath id="clip-On-Demand_Solutions">
      <rect width="60" height="60"/>
    </clipPath>
  </defs>
  <g id="On-Demand_Solutions" data-name="On-Demand Solutions" clip-path="url(#clip-On-Demand_Solutions)">
    <g id="Group_223" data-name="Group 223" transform="translate(-2 -0.849)">
      <g id="Group_222" data-name="Group 222" transform="translate(2 2)">
        <g id="Group_217" data-name="Group 217">
          <g id="Group_214" data-name="Group 214" transform="translate(12.79 30.226)">
            <path id="Path_599" data-name="Path 599" d="M32.046,69.444A4.531,4.531,0,0,1,27.8,66.6a2.848,2.848,0,0,1-.2-1.1V63a.472.472,0,0,1,.5-.5h7.894a.472.472,0,0,1,.5.5v2.5a2.689,2.689,0,0,1-.2,1.1A4.531,4.531,0,0,1,32.046,69.444Zm-3.447-6v2a2,2,0,0,0,.15.749,3.542,3.542,0,0,0,6.595,0,2,2,0,0,0,.15-.749v-2Z" transform="translate(-27.6 -62.5)" fill="#bc2733" stroke="#bc2733" stroke-width="1"/>
            <path id="Path_600" data-name="Path 600" d="M35.993,69H28.1a.5.5,0,1,1,0-1h7.894a.5.5,0,1,1,0,1Z" transform="translate(-27.6 -65.252)" fill="#bc2733" stroke="#bc2733" stroke-width="1"/>
          </g>
          <g id="Group_215" data-name="Group 215">
            <path id="Path_601" data-name="Path 601" d="M36,5.747a.472.472,0,0,1-.5-.5V2.5a.5.5,0,1,1,1,0V5.247A.5.5,0,0,1,36,5.747Z" transform="translate(-18.764 -2)" fill="#bc2733" stroke="#bc2733" stroke-width="1"/>
            <path id="Path_602" data-name="Path 602" d="M14.3,14.548a.454.454,0,0,1-.35-.15l-2-1.948a.495.495,0,0,1,.7-.7l2,1.948a.483.483,0,0,1,0,.7A.454.454,0,0,1,14.3,14.548Z" transform="translate(-6.904 -6.804)" fill="#bc2733" stroke="#bc2733" stroke-width="1"/>
            <path id="Path_603" data-name="Path 603" d="M5.3,35.6H2.5a.5.5,0,1,1,0-1H5.3a.5.5,0,1,1,0,1Z" transform="translate(-2 -18.313)" fill="#bc2733" stroke="#bc2733" stroke-width="1"/>
            <path id="Path_604" data-name="Path 604" d="M66.7,35.6H63.9a.5.5,0,0,1,0-1h2.8a.5.5,0,0,1,0,1Z" transform="translate(-32.725 -18.313)" fill="#bc2733" stroke="#bc2733" stroke-width="1"/>
            <path id="Path_605" data-name="Path 605" d="M55.7,14.448a.454.454,0,0,1-.35-.15.483.483,0,0,1,0-.7l2-1.948a.495.495,0,0,1,.7.7l-2,1.948A.54.54,0,0,1,55.7,14.448Z" transform="translate(-28.621 -6.754)" fill="#bc2733" stroke="#bc2733" stroke-width="1"/>
          </g>
          <g id="Group_216" data-name="Group 216" transform="translate(6.445 6.295)">
            <path id="Path_606" data-name="Path 606" d="M29.638,39.48H21.744a.472.472,0,0,1-.5-.5v-4.3A10.525,10.525,0,0,1,14.9,25.092,10.653,10.653,0,0,1,25.691,14.6,10.653,10.653,0,0,1,36.483,25.092a10.525,10.525,0,0,1-6.345,9.592v4.3A.5.5,0,0,1,29.638,39.48Zm-7.394-1h6.894V34.334a.437.437,0,0,1,.3-.45,9.566,9.566,0,0,0,6.045-8.793A9.651,9.651,0,0,0,25.691,15.6,9.651,9.651,0,0,0,15.9,25.092a9.491,9.491,0,0,0,6.045,8.793.48.48,0,0,1,.3.45Z" transform="translate(-14.9 -14.6)" fill="#bc2733" stroke="#bc2733" stroke-width="1"/>
            <path id="Path_607" data-name="Path 607" d="M23.4,29.494a.472.472,0,0,1-.5-.5A6.7,6.7,0,0,1,29.695,22.4a.5.5,0,0,1,0,1,5.7,5.7,0,0,0-5.8,5.6A.472.472,0,0,1,23.4,29.494Z" transform="translate(-18.903 -18.503)" fill="#bc2733" stroke="#bc2733" stroke-width="1"/>
            <path id="Path_608" data-name="Path 608" d="M35.993,58H28.1a.5.5,0,1,1,0-1h7.894a.5.5,0,1,1,0,1Z" transform="translate(-21.255 -35.817)" fill="#bc2733" stroke="#bc2733" stroke-width="1"/>
          </g>
          <path id="Path_609" data-name="Path 609" d="M33.915,44.783a.472.472,0,0,1-.5-.5V36.89l-1.549-2.1a2.629,2.629,0,0,1,.1-3.3,2.656,2.656,0,0,1,1.948-.9,2.566,2.566,0,0,1,2,.8,2.6,2.6,0,0,1,.15,3.447L34.415,36.89v7.394A.5.5,0,0,1,33.915,44.783Zm.05-13.239h0a1.624,1.624,0,0,0-1.249.55,1.656,1.656,0,0,0-.1,2.048l1.3,1.7,1.349-1.7a1.665,1.665,0,0,0-.1-2.148A1.849,1.849,0,0,0,33.965,31.544Z" transform="translate(-16.679 -16.306)" fill="#bc2733" stroke="#bc2733" stroke-width="1"/>
        </g>
        <g id="Group_221" data-name="Group 221" transform="translate(29.475 28.723)">
          <g id="Group_218" data-name="Group 218">
            <path id="Path_610" data-name="Path 610" d="M81.886,95.826H78.239a.538.538,0,0,1-.5-.4l-.55-3.347a11.945,11.945,0,0,1-3.2-1.3l-2.8,2a.529.529,0,0,1-.649-.05l-2.6-2.548a.467.467,0,0,1-.05-.649l2-2.748a10.76,10.76,0,0,1-1.3-3.147l-3.4-.55a.487.487,0,0,1-.4-.5v-3.6a.538.538,0,0,1,.4-.5l3.4-.55a14.415,14.415,0,0,1,1.3-3.147l-2-2.748a.524.524,0,0,1,.05-.649l2.6-2.548a.524.524,0,0,1,.649-.05l2.8,1.948a10.508,10.508,0,0,1,3.2-1.3l.55-3.347a.487.487,0,0,1,.5-.4h3.647a.538.538,0,0,1,.5.4l.55,3.347a11.945,11.945,0,0,1,3.2,1.3l2.8-2a.529.529,0,0,1,.649.05l2.6,2.548a.467.467,0,0,1,.05.649l-2,2.748a10.761,10.761,0,0,1,1.3,3.147l3.4.55a.487.487,0,0,1,.4.5v3.6a.538.538,0,0,1-.4.5l-3.4.55a14.415,14.415,0,0,1-1.3,3.147l2,2.748a.524.524,0,0,1-.05.649l-2.6,2.548a.524.524,0,0,1-.649.05l-2.8-1.948a10.508,10.508,0,0,1-3.2,1.3l-.55,3.347A.538.538,0,0,1,81.886,95.826Zm-3.247-1h2.8l.55-3.247a.542.542,0,0,1,.4-.4,11.276,11.276,0,0,0,3.5-1.449.541.541,0,0,1,.55,0l2.7,1.9,2-1.948-1.948-2.7a.45.45,0,0,1,0-.55,10.536,10.536,0,0,0,1.449-3.447.542.542,0,0,1,.4-.4l3.3-.55v-2.7l-3.3-.55a.542.542,0,0,1-.4-.4,11.007,11.007,0,0,0-1.449-3.447.541.541,0,0,1,0-.55l1.948-2.648-2-1.948-2.748,1.9a.541.541,0,0,1-.55,0,12.626,12.626,0,0,0-3.5-1.449.542.542,0,0,1-.4-.4l-.55-3.247h-2.8l-.5,3.247a.542.542,0,0,1-.4.4,11.276,11.276,0,0,0-3.5,1.449.541.541,0,0,1-.55,0l-2.7-1.9-2,1.948,1.948,2.7a.45.45,0,0,1,0,.55,10.536,10.536,0,0,0-1.449,3.447.542.542,0,0,1-.4.4l-3.3.5v2.748l3.3.55a.542.542,0,0,1,.4.4A11.007,11.007,0,0,0,70.9,86.483a.541.541,0,0,1,0,.55l-1.948,2.648,2,1.948,2.748-1.9a.541.541,0,0,1,.55,0,12.626,12.626,0,0,0,3.5,1.449.542.542,0,0,1,.4.4Zm16.237-12.29Z" transform="translate(-64.8 -65.7)" fill="#bc2733" stroke="#bc2733" stroke-width="1"/>
            <rect id="Rectangle_4" data-name="Rectangle 4" width="1.099" height="0.999" transform="translate(14.688 3.597)" fill="#bc2733" stroke="#bc2733" stroke-width="1"/>
            <rect id="Rectangle_5" data-name="Rectangle 5" width="1.099" height="0.999" transform="translate(6.657 7.338) rotate(-44.603)" fill="#bc2733" stroke="#bc2733" stroke-width="1"/>
            <rect id="Rectangle_6" data-name="Rectangle 6" width="0.999" height="1.049" transform="translate(3.697 14.488)" fill="#bc2733" stroke="#bc2733" stroke-width="1"/>
            <rect id="Rectangle_7" data-name="Rectangle 7" width="0.999" height="1.099" transform="translate(6.639 22.719) rotate(-45.377)" fill="#bc2733" stroke="#bc2733" stroke-width="1"/>
            <rect id="Rectangle_8" data-name="Rectangle 8" width="1.099" height="0.999" transform="translate(14.688 25.429)" fill="#bc2733" stroke="#bc2733" stroke-width="1"/>
            <rect id="Rectangle_9" data-name="Rectangle 9" width="1.099" height="0.999" transform="translate(22.326 22.769) rotate(-44.603)" fill="#bc2733" stroke="#bc2733" stroke-width="1"/>
            <rect id="Rectangle_10" data-name="Rectangle 10" width="0.999" height="1.049" transform="translate(25.829 14.488)" fill="#bc2733" stroke="#bc2733" stroke-width="1"/>
            <rect id="Rectangle_11" data-name="Rectangle 11" width="0.999" height="1.099" transform="translate(22.339 7.26) rotate(-45.397)" fill="#bc2733" stroke="#bc2733" stroke-width="1"/>
          </g>
          <g id="Group_220" data-name="Group 220" transform="translate(8.593 8.493)">
            <g id="Group_219" data-name="Group 219">
              <path id="Path_611" data-name="Path 611" d="M88.645,95.839a6.57,6.57,0,1,1,6.645-6.595A6.631,6.631,0,0,1,88.645,95.839Zm0-12.14a5.571,5.571,0,1,0,5.645,5.6A5.619,5.619,0,0,0,88.645,83.7Z" transform="translate(-82 -82.7)" fill="#bc2733" stroke="#bc2733" stroke-width="1"/>
            </g>
            <path id="Path_612" data-name="Path 612" d="M91.471,95.8h0a.389.389,0,0,1-.35-.15L89.673,94a.5.5,0,1,1,.749-.649l1.1,1.249,3.1-2.948a.495.495,0,0,1,.7.7l-3.547,3.3A.356.356,0,0,1,91.471,95.8Z" transform="translate(-85.776 -87.104)" fill="#bc2733" stroke="#bc2733" stroke-width="1"/>
          </g>
        </g>
        <path id="Path_613" data-name="Path 613" d="M48.589,92.99H36a.472.472,0,0,1-.5-.5V80.6a.5.5,0,0,1,1,0V91.99h12.09a.5.5,0,1,1,0,1Z" transform="translate(-19.422 -43.548)" fill="#bc2733" stroke="#bc2733" stroke-width="1"/>
      </g>
    </g>
  </g>
</svg>
