<svg xmlns="http://www.w3.org/2000/svg" xmlns:xlink="http://www.w3.org/1999/xlink" width="60" height="60" viewBox="0 0 60 60">
  <defs>
    <clipPath id="clip-Real_Estate">
      <rect width="60" height="60"/>
    </clipPath>
  </defs>
  <g id="Real_Estate" data-name="Real Estate" clip-path="url(#clip-Real_Estate)">
    <rect id="Rectangle_1" data-name="Rectangle 1" width="61.6" height="61.6" transform="translate(0 0.005)" fill="none"/>
    <g id="Group_211" data-name="Group 211" transform="translate(-5 -8.2)">
      <path id="Path_585" data-name="Path 585" d="M17.324,25.78h4.284a1.109,1.109,0,0,0,1.124-1.124V17.424A1.109,1.109,0,0,0,21.607,16.3H17.324A1.109,1.109,0,0,0,16.2,17.424v7.233A1.109,1.109,0,0,0,17.324,25.78Zm1.053-7.233h2.107V23.6H18.377Z" transform="translate(-3.335 -2.114)" fill="#bc2834"/>
      <path id="Path_586" data-name="Path 586" d="M28.324,25.78h4.284a1.109,1.109,0,0,0,1.124-1.124V17.424A1.109,1.109,0,0,0,32.607,16.3H28.324A1.109,1.109,0,0,0,27.2,17.424v7.233A1.109,1.109,0,0,0,28.324,25.78Zm1.053-7.233h2.107V23.6H29.377Z" transform="translate(-7.491 -2.114)" fill="#bc2834"/>
      <path id="Path_587" data-name="Path 587" d="M17.324,43.48h4.284a1.109,1.109,0,0,0,1.124-1.124V35.124A1.109,1.109,0,0,0,21.607,34H17.324A1.109,1.109,0,0,0,16.2,35.124v7.233A1.109,1.109,0,0,0,17.324,43.48Zm1.053-7.233h2.107V41.3H18.377Z" transform="translate(-3.335 -7.385)" fill="#bc2834"/>
      <path id="Path_588" data-name="Path 588" d="M28.324,43.48h4.284a1.109,1.109,0,0,0,1.124-1.124V35.124A1.109,1.109,0,0,0,32.607,34H28.324A1.109,1.109,0,0,0,27.2,35.124v7.233A1.109,1.109,0,0,0,28.324,43.48Zm1.053-7.233h2.107V41.3H29.377Z" transform="translate(-7.491 -7.385)" fill="#bc2834"/>
      <path id="Path_589" data-name="Path 589" d="M17.324,61.18h4.284a1.109,1.109,0,0,0,1.124-1.124V52.824A1.109,1.109,0,0,0,21.607,51.7H17.324A1.109,1.109,0,0,0,16.2,52.824v7.233A1.109,1.109,0,0,0,17.324,61.18Zm1.053-7.233h2.107V59H18.377Z" transform="translate(-3.335 -12.656)" fill="#bc2834"/>
      <path id="Path_590" data-name="Path 590" d="M28.324,61.18h4.284a1.109,1.109,0,0,0,1.124-1.124V52.824A1.109,1.109,0,0,0,32.607,51.7H28.324A1.109,1.109,0,0,0,27.2,52.824v7.233A1.109,1.109,0,0,0,28.324,61.18Zm1.053-7.233h2.107V59H29.377Z" transform="translate(-7.491 -12.656)" fill="#bc2834"/>
      <path id="Path_591" data-name="Path 591" d="M55.724,53.447H66.187a1.124,1.124,0,0,0,0-2.247H55.724a1.124,1.124,0,1,0,0,2.247Z" transform="translate(-16.977 -12.507)" fill="#bc2834"/>
      <path id="Path_592" data-name="Path 592" d="M55.724,59.247H66.187a1.124,1.124,0,0,0,0-2.247H55.724A1.109,1.109,0,0,0,54.6,58.124,1.155,1.155,0,0,0,55.724,59.247Z" transform="translate(-16.977 -14.234)" fill="#bc2834"/>
      <path id="Path_593" data-name="Path 593" d="M55.724,65.047H66.187a1.124,1.124,0,0,0,0-2.247H55.724A1.109,1.109,0,0,0,54.6,63.924,1.155,1.155,0,0,0,55.724,65.047Z" transform="translate(-16.977 -15.961)" fill="#bc2834"/>
      <path id="Path_594" data-name="Path 594" d="M55.724,70.847H66.187a1.124,1.124,0,0,0,0-2.247H55.724A1.109,1.109,0,0,0,54.6,69.724,1.155,1.155,0,0,0,55.724,70.847Z" transform="translate(-16.977 -17.689)" fill="#bc2834"/>
      <path id="Path_595" data-name="Path 595" d="M55.724,76.647H66.187a1.124,1.124,0,0,0,0-2.247H55.724a1.124,1.124,0,1,0,0,2.247Z" transform="translate(-16.977 -19.416)" fill="#bc2834"/>
      <path id="Path_596" data-name="Path 596" d="M63.933,64.394H62.2V37.569a1.019,1.019,0,0,0-.533-.913l-9.133-5.828a1.206,1.206,0,0,0-.533-.14H44V16.082a1.105,1.105,0,0,0-.6-.983L30.733,9.27a.807.807,0,0,0-.4-.07H8.8a1.082,1.082,0,0,0-1.067,1.124V64.464H6.067a1.125,1.125,0,0,0,0,2.247H63.933A1.082,1.082,0,0,0,65,65.588,1.1,1.1,0,0,0,63.933,64.394Zm-34.667,0H9.8V11.307H29.267ZM35.4,31.741V64.324H31.333V11.939l10.6,4.845v13.9H36.4A1.054,1.054,0,0,0,35.4,31.741ZM51,64.394H37.467V32.865H51Zm9.2,0H53.067V33.707L60.2,38.2Z" fill="#bc2834"/>
    </g>
  </g>
</svg>
