<svg xmlns="http://www.w3.org/2000/svg" xmlns:xlink="http://www.w3.org/1999/xlink" width="60" height="60" viewBox="0 0 60 60">
  <defs>
    <clipPath id="clip-Retail_Ecommerce">
      <rect width="60" height="60"/>
    </clipPath>
  </defs>
  <g id="Retail_Ecommerce" data-name="Retail &amp; Ecommerce" clip-path="url(#clip-Retail_Ecommerce)">
    <g id="Group_207" data-name="Group 207" transform="translate(-54.707 -7.083)">
      <path id="Path_547" data-name="Path 547" d="M101.2,50.773A1.207,1.207,0,0,1,100,49.565V39.5c.018-.008.036-.085.046-.163l.093-.709-.693-.175a7.191,7.191,0,0,1-3.673-2.265l-.608-.693-.606.693a7.141,7.141,0,0,1-10.87,0l-.606-.693-.606.693a7.139,7.139,0,0,1-10.87,0L71,35.487l-.606.7a7.2,7.2,0,0,1-3.673,2.263l-.693.173.1.767.042.171,0,10.006a1.208,1.208,0,1,1-2.416,0V39.5a.34.34,0,0,0,.048-.167l.091-.709-.693-.173a7.231,7.231,0,0,1-5.487-7.006,1.221,1.221,0,0,1,.127-.54l8.055-16.11a1.206,1.206,0,0,1,1.081-.669H71.8v-.805a5.243,5.243,0,0,1,5.236-5.236H89.121a5.242,5.242,0,0,1,5.236,5.236v.805h4.833a1.2,1.2,0,0,1,1.081.671L108.325,30.9a1.221,1.221,0,0,1,.127.54,7.229,7.229,0,0,1-5.487,7.006l-.693.173.1.769.042.173,0,10A1.209,1.209,0,0,1,101.2,50.773Zm-6.041-20.54a1.209,1.209,0,0,1,1.208,1.208,4.834,4.834,0,0,0,9.64.516l.026-.236L98.442,16.543H67.717L60.125,31.722l.024.236a4.834,4.834,0,0,0,9.64-.516,1.208,1.208,0,1,1,2.416,0,4.833,4.833,0,0,0,9.666,0,1.208,1.208,0,1,1,2.416,0,4.834,4.834,0,0,0,9.668,0A1.207,1.207,0,0,1,95.162,30.234ZM77.039,10.5a2.821,2.821,0,0,0-2.819,2.817v.805H91.942v-.805A2.822,2.822,0,0,0,89.121,10.5Z" transform="translate(2.027)" fill="#bc2834"/>
      <path id="Path_548" data-name="Path 548" d="M73.025,51.678a1.207,1.207,0,1,1,0-2.414h2.014a4.84,4.84,0,0,0,4.833-4.835V41.609H60.943a5.242,5.242,0,0,1-5.236-5.236V24.291a1.208,1.208,0,1,1,2.416,0V36.373a2.824,2.824,0,0,0,2.819,2.821h48.329a2.826,2.826,0,0,0,2.821-2.821V24.291a1.207,1.207,0,1,1,2.414,0V36.373a5.241,5.241,0,0,1-5.236,5.236H90.343v2.819a4.84,4.84,0,0,0,4.833,4.835h2.014a1.207,1.207,0,1,1,0,2.414Zm9.263-7.249a7.113,7.113,0,0,1-1.011,3.621l-.709,1.214h9.076l-.7-1.212a7.126,7.126,0,0,1-1.011-3.623V41.609h-5.64Z" transform="translate(0 15.205)" fill="#bc2834"/>
    </g>
  </g>
</svg>
