<svg xmlns="http://www.w3.org/2000/svg" xmlns:xlink="http://www.w3.org/1999/xlink" width="60" height="60" viewBox="0 0 60 60">
  <defs>
    <clipPath id="clip-Social_Networking">
      <rect width="60" height="60"/>
    </clipPath>
  </defs>
  <g id="Social_Networking" data-name="Social Networking" clip-path="url(#clip-Social_Networking)">
    <path id="Path_584" data-name="Path 584" d="M132.679,34.742a5.038,5.038,0,0,1-1.249-9.922l.239-.06V17.6l-.283-.029a12.405,12.405,0,0,1-7.761-3.694l-.542-.559v6.776a3.888,3.888,0,0,1-3.915,3.852h-2.325l-.063.233a5.041,5.041,0,1,1-4.873-6.295,5.031,5.031,0,0,1,4.873,3.747l.064.231h2.387a1.823,1.823,0,0,0,1.894-1.831V9.926l-.027-.061a11.6,11.6,0,0,1-.859-3.627l-.027-.286h-7.156l-.064.231a5.047,5.047,0,0,1-9.924-1.3,5.038,5.038,0,0,1,9.922-1.249l.059.239h7.161l.028-.285A11.971,11.971,0,0,1,121.1-.044l.027-.061V-10.147a1.874,1.874,0,0,0-1.894-1.894h-2.325l-.063.234A5.1,5.1,0,0,1,111.971-8a5.056,5.056,0,0,1-5.051-5.051,5.056,5.056,0,0,1,5.051-5.051,5.031,5.031,0,0,1,4.873,3.746l.064.232h2.387a3.918,3.918,0,0,1,3.914,3.914v6.76l.539-.539a12.864,12.864,0,0,1,7.764-3.7l.283-.029v-7.156l-.233-.063a5.1,5.1,0,0,1-3.807-4.872,5.056,5.056,0,0,1,5.051-5.051,5.057,5.057,0,0,1,5.051,5.051,4.982,4.982,0,0,1-3.738,4.871l-.239.059v7.1l.283.029a12.408,12.408,0,0,1,7.761,3.694l.542.559v-6.776a3.888,3.888,0,0,1,3.852-3.914H148.7l.064-.232a5.1,5.1,0,0,1,4.873-3.746,5.057,5.057,0,0,1,5.051,5.051,5.057,5.057,0,0,1-5.051,5.051,5.012,5.012,0,0,1-4.871-3.8l-.06-.239h-2.393a1.865,1.865,0,0,0-1.831,1.894V-.168l.027.061a11.605,11.605,0,0,1,.858,3.627l.027.286h7.158l.063-.234a5.038,5.038,0,0,1,9.923,1.244,5.057,5.057,0,0,1-5.051,5.051,4.981,4.981,0,0,1-4.87-3.738l-.059-.239H145.4l-.027.285a8.909,8.909,0,0,1-.972,3.6l-.04.071V19.968A1.856,1.856,0,0,0,146.19,21.8h2.386l.064-.232a5.048,5.048,0,1,1,4.873,6.356,4.986,4.986,0,0,1-4.87-3.8l-.059-.241H146.19a3.855,3.855,0,0,1-3.852-3.851V13.208l-.539.539a12.869,12.869,0,0,1-7.764,3.7l-.283.029v7.28l.231.064a5.048,5.048,0,0,1-1.305,9.924Zm.127-8.208a2.967,2.967,0,1,0,2.967,2.967A2.971,2.971,0,0,0,132.806,26.534Zm-20.772-6.629A2.967,2.967,0,1,0,115,22.873,2.971,2.971,0,0,0,112.034,19.905Zm41.543-.063a2.967,2.967,0,1,0,2.967,2.967A2.97,2.97,0,0,0,153.577,19.842Zm-23.42-10.18c.513,3.3,1.676,5.887,2.649,5.887s2.135-2.585,2.648-5.887l.057-.364H130.1Zm7.386-.092a19.779,19.779,0,0,1-1.242,4.785l-.284.694.694-.282a10.723,10.723,0,0,0,5.529-5.01l.237-.46h-4.9Zm-14.173.188a10.725,10.725,0,0,0,5.529,5.01l.694.282-.284-.694a19.811,19.811,0,0,1-1.242-4.785l-.038-.272h-4.9Zm34.059-7.846A2.967,2.967,0,1,0,160.4,4.879,2.971,2.971,0,0,0,157.428,1.912Zm-49.246,0a2.967,2.967,0,1,0,2.967,2.967A2.971,2.971,0,0,0,108.183,1.912Zm29.612.912c.062.68.062,1.379.062,2.055s0,1.374-.062,2.055l-.031.344h5.407l.047-.259a11.33,11.33,0,0,0,.194-2.14,11.326,11.326,0,0,0-.194-2.14l-.047-.259h-5.407ZM129.838,2.8c0,.335-.015.654-.03.981-.016.351-.033.71-.033,1.1,0,.754,0,1.467.064,2.114l.028.285h5.905V6.962c0-.335.015-.655.03-.981.016-.351.032-.71.032-1.1,0-.755,0-1.468-.064-2.114l-.028-.285h-5.906Zm-7.508-.056a12.024,12.024,0,0,0-.194,2.14,8.159,8.159,0,0,0,.263,2.166l.064.233h5.322l-.031-.345c-.063-.68-.063-1.379-.063-2.054s0-1.375.063-2.055l.031-.344h-5.408ZM136.3-4.6A19.787,19.787,0,0,1,137.543.187l.038.273h4.9L142.241,0a10.726,10.726,0,0,0-5.529-5.01l-.694-.282Zm-3.5-1.193c-.973,0-2.136,2.585-2.649,5.886L130.1.459h5.409L135.453.1C134.941-3.206,133.778-5.791,132.806-5.791Zm-3.907.78A10.728,10.728,0,0,0,123.37,0l-.237.46h4.9l.038-.273A19.811,19.811,0,0,1,129.309-4.6l.284-.694ZM112.034-16.019a2.971,2.971,0,0,0-2.968,2.967,2.971,2.971,0,0,0,2.968,2.967A2.971,2.971,0,0,0,115-13.052,2.97,2.97,0,0,0,112.034-16.019Zm41.543-.063a2.97,2.97,0,0,0-2.967,2.967,2.97,2.97,0,0,0,2.967,2.967,2.97,2.97,0,0,0,2.967-2.967A2.97,2.97,0,0,0,153.577-16.082Zm-20.772-6.629a2.971,2.971,0,0,0-2.968,2.967,2.971,2.971,0,0,0,2.968,2.967,2.971,2.971,0,0,0,2.967-2.967A2.971,2.971,0,0,0,132.806-22.711Z" transform="translate(-103.068 24.858)" fill="#bc2834"/>
  </g>
</svg>
