<svg xmlns="http://www.w3.org/2000/svg" xmlns:xlink="http://www.w3.org/1999/xlink" width="60" height="60" viewBox="0 0 60 60">
  <defs>
    <clipPath id="clip-Start_Up_Business">
      <rect width="60" height="60"/>
    </clipPath>
  </defs>
  <g id="Start_Up_Business" data-name="Start Up Business" clip-path="url(#clip-Start_Up_Business)">
    <g id="Group_195" data-name="Group 195" transform="translate(-4.868 -9.164)">
      <path id="Path_534" data-name="Path 534" d="M19.038,30.6l4,1.036a.721.721,0,0,0,.2.026.819.819,0,0,0,.2-1.612l-3.5-.9v-3.6a.819.819,0,1,0-1.639,0v4.195A.9.9,0,0,0,19.038,30.6Z" transform="translate(-4.465 -2.604)" fill="#bc2834"/>
      <path id="Path_535" data-name="Path 535" d="M64.183,23.748a1.5,1.5,0,0,0-.973-.6l-17.085-2.74a1.486,1.486,0,0,0-1.12.262,1.444,1.444,0,0,0-.6.97l-1.48,9.372H39.392V27.838a1.373,1.373,0,0,0-1.42-1.311H29.793a1.369,1.369,0,0,0-1.42,1.311v3.179H24.661a9.95,9.95,0,0,0,.453-6.253c-1.427-5.61-7.753-8.507-12.459-7.347a10.208,10.208,0,0,0-6.319,4.6,9.911,9.911,0,0,0-1.16,7.649A10.189,10.189,0,0,0,13.1,37.112v3.415a4.8,4.8,0,0,0,.053.695V58.813a1.981,1.981,0,0,0,2,1.966h36.17a1.981,1.981,0,0,0,2-1.966V47.1l5.8.839a1.2,1.2,0,0,0,.213.013,1.5,1.5,0,0,0,1.48-1.239l3.626-21.871A1.438,1.438,0,0,0,64.183,23.748ZM35.12,42.054H31.353a1.326,1.326,0,0,0-1.333,1.311v1.1H18.508A4.23,4.23,0,0,1,15.155,41.1V32.99H51.2v7.544c0,2.032-1.666,3.644-4.066,3.939H36.453v-1.1A1.323,1.323,0,0,0,35.12,42.054Zm-.667,1.966v3.756H32.02V44.02ZM30.367,28.494h7.013v2.523H30.367Zm-23.251.695a8.134,8.134,0,0,1,6.019-9.864c3.786-.931,8.886,1.4,10.032,5.918A7.979,7.979,0,0,1,22.461,31l.027.013H14.908A1.793,1.793,0,0,0,13.1,32.793v2.3A8.177,8.177,0,0,1,7.116,29.188ZM15.148,58.82V44.938a6.028,6.028,0,0,0,3.126,1.481l11.745.013v2.006a1.326,1.326,0,0,0,1.333,1.311H35.12a1.326,1.326,0,0,0,1.333-1.311V46.432h10.8l.06-.007a7.119,7.119,0,0,0,4.013-1.763v14.15H15.148ZM59.2,46.295l-5.879-.852V42.159l2.433.262c.027,0,.047.007.073.007a.654.654,0,0,0,.073-1.3l-2.58-.282V38.1l3.026.36c.027,0,.053.007.08.007a.659.659,0,0,0,.66-.577.649.649,0,0,0-.58-.728l-3.186-.38V34.1l3.553.485a.447.447,0,0,0,.093.007.655.655,0,0,0,.093-1.3L53.3,32.773a1.952,1.952,0,0,0-.62-1.219,1.818,1.818,0,0,0-1.287-.531H44.6l1.42-8.959,16.758,2.687Z" transform="translate(0 0)" fill="#bc2834"/>
      <path id="Path_536" data-name="Path 536" d="M69.939,30.563l6.58,1.049a.563.563,0,0,0,.1.007.656.656,0,0,0,.1-1.3l-6.58-1.049a.657.657,0,0,0-.21,1.3Z" transform="translate(-21.232 -4.167)" fill="#bc2834"/>
      <path id="Path_537" data-name="Path 537" d="M69.243,35.3l9.6,1.311a.433.433,0,0,0,.092.007.655.655,0,0,0,.092-1.3l-9.6-1.311a.655.655,0,0,0-.184,1.3Z" transform="translate(-20.989 -5.801)" fill="#bc2834"/>
    </g>
  </g>
</svg>
