<svg xmlns="http://www.w3.org/2000/svg" xmlns:xlink="http://www.w3.org/1999/xlink" width="60" height="60" viewBox="0 0 60 60">
  <defs>
    <clipPath id="clip-Travel_Hospitality">
      <rect width="60" height="60"/>
    </clipPath>
  </defs>
  <g id="Travel_Hospitality" data-name="Travel &amp; Hospitality" clip-path="url(#clip-Travel_Hospitality)">
    <rect id="Rectangle_1" data-name="Rectangle 1" width="61.6" height="61.6" transform="translate(0 0.005)" fill="none"/>
    <g id="Group_212" data-name="Group 212" transform="translate(-7.953 -7.583)">
      <path id="Path_597" data-name="Path 597" d="M14.8,21.512a1.1,1.1,0,0,0-.731-.241l-3.057.1a1.1,1.1,0,0,0-.943,1.594l4.644,9.1a2.8,2.8,0,0,0,2.5,1.543,2.655,2.655,0,0,0,.863-.124L44.4,25.11a14.753,14.753,0,0,0,4.724-2.53l2.194-1.755a2.252,2.252,0,0,0-1.309-4.015l-2.83-.146a14.7,14.7,0,0,0-5.36.731L36.914,19.04l-1.382-1.7.5-.344a3.3,3.3,0,0,0-1.024-5.909,3.252,3.252,0,0,0-2.574.366l-1.112.68L27.948,7.983a1.089,1.089,0,0,0-1.141-.358l-2.238.651a1.126,1.126,0,0,0-.651.534,1.092,1.092,0,0,0-.088.841l3.854,12.513L19.15,25.022ZM29.381,23.9a1.1,1.1,0,0,0,.7-1.387v0L26.244,10.082,26.7,9.95l3.51,4.337a1.1,1.1,0,0,0,1.463.249l1.938-1.177a1.1,1.1,0,0,1,1.17,1.843l-1.463,1.017a1.114,1.114,0,0,0-.461.731,1.09,1.09,0,0,0,.234.848l2.589,3.254a1.089,1.089,0,0,0,1.2.351l5.638-1.894a12.488,12.488,0,0,1,4.556-.651l2.845.132a.064.064,0,0,1,.059.044.114.114,0,0,1,0,.073l-2.194,1.755a12.542,12.542,0,0,1-4.015,2.15L17.447,31.385a.622.622,0,0,1-.731-.307l-3.9-7.576h.921l4.5,3.657a1.112,1.112,0,0,0,1.038.19Zm30.568,9.09a4.044,4.044,0,0,1-.5-.139c-.066-1.587-1.719-1.931-3.708-2.194-1.221-.154-2.713-.5-2.845-1.243a1.113,1.113,0,1,0-2.194.38h0c.395,2.23,2.925,2.8,4.724,3.042a8.949,8.949,0,0,1,1.792.351c.051,1.272,1.141,1.7,2.194,1.938a6.7,6.7,0,0,0,1.463.168,5.558,5.558,0,0,0,1.214-.139c.227.636.417,1.287.578,1.938a4.654,4.654,0,0,1-1.8,0,9.84,9.84,0,0,0-4.454.08,9.7,9.7,0,0,1-2.106.285,2.7,2.7,0,0,1-1.836-.731,2.143,2.143,0,0,0-3.305.088,3.754,3.754,0,0,1-1.258.79c-.98.453-2.625,1.207-1.8,3.92a4.938,4.938,0,0,0,1.806,2.508l-.5.132c-2.055.548-3.832,1.024-4.161,2.4a1.99,1.99,0,0,0,.79,2c1.294,1.163,3.444,1.2,5.331,1.221a9.627,9.627,0,0,1,2.589.227,3.5,3.5,0,0,0,1.982,1.536,3.116,3.116,0,0,1,.541.241,1.361,1.361,0,0,1-.066.629c-.468,1.887-.263,4.922,1.463,6.64a21.939,21.939,0,0,1-24.382,3.093c.044-1.09.139-2.194.241-3.232.395-4.11.8-8.366-3.4-8.776-1.828-.2-3.086-1-3.452-2.194a2.515,2.515,0,0,1,.878-2.764c1.967-1.631,1.865-2.816,1.543-4.1a5.413,5.413,0,0,1-.154-.731,2.861,2.861,0,0,0,3.24.212,9.512,9.512,0,0,1-.834,3.547,2.837,2.837,0,0,0-.271,2.435c.475,1.024,1.616,1.287,2.713,1.543a8.7,8.7,0,0,1,1.514.439,3.6,3.6,0,0,0,3.869-.468c1.1-.973,1.419-2.6.863-4.439-.878-2.969,1.858-9.968,3.262-10.45a3.1,3.1,0,0,0,2.011-3.028,1.1,1.1,0,1,0-2.194-.139h0c-.059.929-.293,1.009-.541,1.1-3.042,1.046-5.69,9.624-4.644,13.163.293,1,.219,1.792-.212,2.194a1.462,1.462,0,0,1-1.55.1A10.905,10.905,0,0,0,32.5,46a6.219,6.219,0,0,1-1.177-.336,1.94,1.94,0,0,1,.19-.49c.856-1.66,1.836-6.253.183-7.313-.278-.176-1.272-.644-2.355.731-.249.322-.307.4-1.287-.234a2.145,2.145,0,0,0-2.084-.483,1.784,1.784,0,0,0-.958,1.463,5.473,5.473,0,0,0,.176,2.318c.2.782.249.995-.819,1.872a4.738,4.738,0,0,0-1.572,5c.622,2.077,2.618,3.488,5.324,3.774,1.755.183,1.894,1.689,1.463,6.414-.066.731-.132,1.463-.183,2.194a22.005,22.005,0,0,1-10-18.4,22.35,22.35,0,0,1,.687-5.5A1.1,1.1,0,1,0,18,36.342a1.115,1.115,0,0,0-.031.118A24.2,24.2,0,1,0,56.791,23.845a1.1,1.1,0,0,0-1.468,1.631c.023.02.047.04.071.059a22.165,22.165,0,0,1,5.85,7.547A4.034,4.034,0,0,1,59.95,32.994Zm-2.428,24.5c-1.009-1.024-1.214-3.218-.878-4.571a2.569,2.569,0,0,0-1.792-3.444c-.468-.19-.731-.307-.878-.556-.731-1.309-2.538-1.331-4.468-1.36-1.353,0-3.013-.044-3.774-.556a17.452,17.452,0,0,1,2.34-.731c.644-.168,1.251-.329,1.784-.519s1.324-.468,1.419-1.353-.607-1.272-1.17-1.609A3.533,3.533,0,0,1,48.3,40.877c-.271-.885-.271-.885.622-1.287a5.593,5.593,0,0,0,1.953-1.309l.058-.051c.088.059.19.139.278.212a4.724,4.724,0,0,0,3.123,1.221h.124a12.053,12.053,0,0,0,2.479-.329,7.872,7.872,0,0,1,3.657-.066,6.889,6.889,0,0,0,2.6,0A21.837,21.837,0,0,1,57.522,57.492Z" transform="translate(0)" fill="#bc2733"/>
    </g>
  </g>
</svg>
