<svg xmlns="http://www.w3.org/2000/svg" width="381" height="372"><defs><clipPath id="a"><path d="M0 0h381v372H0z"/></clipPath></defs><g data-name="Banner image" clip-path="url(#a)"><g data-name="Group 894"><g data-name="Group 206"><g data-name="Group 205"><g data-name="Group 191"><g data-name="Group 190"><g data-name="Group 189"><g data-name="Group 188"><path data-name="Rectangle 148" fill="#f5f5f5" d="M315.956 80.694h43.31v41.902h-43.31z"/></g></g></g></g><g data-name="Group 195"><g data-name="Group 194"><g data-name="Group 193"><g data-name="Group 192"><path data-name="Path 463" d="m320.462 117.861 11.979-21.562 9.8 13.782 5.954-7.319 8.859 15.1Z" fill="#ebebeb"/></g></g></g></g><g data-name="Group 199"><g data-name="Group 198"><g data-name="Group 197"><g data-name="Group 196"><path data-name="Path 464" d="M346.417 92.107a3.117 3.117 0 1 1-3.117-3.117 3.117 3.117 0 0 1 3.117 3.117Z" fill="#ebebeb"/></g></g></g></g><g data-name="Group 204"><g data-name="Group 203"><g data-name="Group 202"><g data-name="Group 201"><g data-name="Group 200"><path data-name="Path 465" d="M355.908 119.126a1.493 1.493 0 0 1-.01-.172c0-.125-.005-.285-.01-.489 0-.445-.011-1.075-.02-1.886l-.046-7.116-.091-25.3.177.177-36.59.03c-.049.043.387-.388.2-.2v18.436l-.02 16.52-.18-.179 26.459.091 7.463.047 1.979.021.513.01a1.255 1.255 0 0 1 .18.011.925.925 0 0 1-.16.01l-.494.01-1.944.021-7.422.047-26.574.091h-.179v-.181l-.02-16.52q0-4.4-.005-9.029V84.17c-.184.181.25-.258.21-.213l36.59.029h.178v.177l-.09 25.413-.046 7.076-.02 1.852c0 .2-.007.349-.01.47a.71.71 0 0 1-.018.152Z" fill="#ebebeb"/></g></g></g></g></g></g></g><g data-name="Group 225"><g data-name="Group 224"><g data-name="Group 210"><g data-name="Group 209"><g data-name="Group 208"><g data-name="Group 207"><path data-name="Rectangle 149" fill="#f5f5f5" d="M98.171 252.726h34.872v33.738H98.171z"/></g></g></g></g><g data-name="Group 214"><g data-name="Group 213"><g data-name="Group 212"><g data-name="Group 211"><path data-name="Path 466" d="m101.799 282.652 9.647-17.361 7.891 11.1 4.794-5.893 7.133 12.157Z" fill="#ebebeb"/></g></g></g></g><g data-name="Group 218"><g data-name="Group 217"><g data-name="Group 216"><g data-name="Group 215"><path data-name="Path 467" d="M122.696 261.914a2.51 2.51 0 1 1-2.51-2.509 2.51 2.51 0 0 1 2.51 2.509Z" fill="#ebebeb"/></g></g></g></g><g data-name="Group 223"><g data-name="Group 222"><g data-name="Group 221"><g data-name="Group 220"><g data-name="Group 219"><path data-name="Path 468" d="M130.339 283.67a.988.988 0 0 1-.008-.138c0-.1 0-.23-.008-.394l-.017-1.518-.037-5.73-.073-20.371.143.142-29.461.024c-.04.035.312-.313.163-.161v14.844l-.016 13.3-.145-.145 21.3.074 6.008.038 1.594.017.413.008a1.1 1.1 0 0 1 .146.008.65.65 0 0 1-.129.008l-.4.009-1.565.017-5.976.038-21.4.074h-.145v-.146c0-4.109-.01-8.577-.016-13.3v-14.844c-.148.146.2-.208.169-.171l29.461.024h.143v.143l-.073 20.461-.037 5.7-.017 1.491c0 .157-.005.28-.008.378a.622.622 0 0 1-.009.12Z" fill="#ebebeb"/></g></g></g></g></g></g></g><g data-name="Group 228"><g data-name="Group 227"><g data-name="Group 226"><path data-name="Path 469" d="M238.715 198.319a8.734 8.734 0 0 1 1.008-2.091l-1.044-1.883 2.656-2.372 1.753 1.249a8.71 8.71 0 0 1 2.191-.767l.593-2.069 3.556.2.356 2.121a8.7 8.7 0 0 1 2.091 1.009l1.882-1.044 2.373 2.656-1.249 1.753a8.738 8.738 0 0 1 .767 2.191l2.068.593-.2 3.556-2.122.356a8.7 8.7 0 0 1-1.009 2.091l1.044 1.883-2.656 2.372-1.753-1.249a8.723 8.723 0 0 1-2.191.767l-.593 2.068-3.556-.2-.357-2.122a8.734 8.734 0 0 1-2.091-1.008l-1.882 1.044-2.372-2.656 1.249-1.754a8.726 8.726 0 0 1-.767-2.191l-2.068-.593.2-3.556 2.122-.357Zm4.535 2.353a3.82 3.82 0 1 0 4.029-3.6 3.82 3.82 0 0 0-4.029 3.6Z" fill="#e0e0e0"/></g></g></g><g data-name="Group 231"><g data-name="Group 230"><g data-name="Group 229"><path data-name="Path 470" d="M233.895 156.715a16.888 16.888 0 0 1 3.378-2.962l-.435-4.143 6.522-2.221 2.178 3.551a16.859 16.859 0 0 1 4.484.292l2.621-3.237 6.182 3.047-.97 4.049a16.879 16.879 0 0 1 2.962 3.379l4.143-.436 2.216 6.526-3.551 2.178a16.9 16.9 0 0 1-.291 4.483l3.236 2.621-3.046 6.182-4.049-.97a16.9 16.9 0 0 1-3.379 2.962l.435 4.143-6.526 2.216-2.179-3.551a16.88 16.88 0 0 1-4.483-.292l-2.62 3.237-6.182-3.047.97-4.049a16.9 16.9 0 0 1-2.963-3.379l-4.143.435-2.216-6.526 3.551-2.179a16.879 16.879 0 0 1 .292-4.483l-3.236-2.621 3.047-6.182 4.05.97Zm6.3 7.623a7.394 7.394 0 1 0 9.9-3.363 7.394 7.394 0 0 0-9.902 3.362Z" fill="#e0e0e0"/></g></g></g><g data-name="Group 234"><g data-name="Group 233"><g data-name="Group 232"><path data-name="Path 471" d="M134.448 101.343a11.372 11.372 0 0 1 2.278-2l-.294-2.794 4.4-1.495 1.469 2.395a11.345 11.345 0 0 1 3.023.2l1.767-2.183 4.169 2.055-.654 2.73a11.391 11.391 0 0 1 2 2.279l2.794-.293 1.494 4.4-2.394 1.469a11.392 11.392 0 0 1-.2 3.023l2.182 1.768-2.055 4.169-2.731-.654a11.37 11.37 0 0 1-2.278 2l.293 2.794-4.4 1.495-1.469-2.395a11.393 11.393 0 0 1-3.023-.2l-1.767 2.182-4.169-2.055.654-2.731a11.389 11.389 0 0 1-2-2.278l-2.794.293-1.494-4.4 2.395-1.469a11.372 11.372 0 0 1 .2-3.023l-2.183-1.767 2.055-4.169 2.731.654Zm4.247 5.14a4.985 4.985 0 1 0 6.676-2.268 4.986 4.986 0 0 0-6.676 2.264Z" fill="#e0e0e0"/></g></g></g><g data-name="Group 237"><g data-name="Group 236"><g data-name="Group 235"><path data-name="Path 472" d="M240.71 83.02a16.343 16.343 0 0 1 3.27-2.867l-.422-4.01L249.875 74l2.108 3.437a16.34 16.34 0 0 1 4.34.282l2.537-3.132 5.984 2.95-.939 3.919a16.334 16.334 0 0 1 2.867 3.271l4.01-.422 2.146 6.317-3.437 2.108a16.337 16.337 0 0 1-.283 4.339l3.132 2.537-2.949 5.984-3.919-.939a16.359 16.359 0 0 1-3.27 2.867l.421 4.011-6.317 2.145-2.108-3.437a16.365 16.365 0 0 1-4.34-.283l-2.537 3.133-5.984-2.95.938-3.917a16.346 16.346 0 0 1-2.867-3.27l-4.011.421-2.145-6.316 3.437-2.109a16.357 16.357 0 0 1 .282-4.339l-3.132-2.537 2.949-5.984 3.92.939Zm6.1 7.378a7.156 7.156 0 1 0 9.583-3.255 7.157 7.157 0 0 0-9.587 3.258Z" fill="#f5f5f5"/></g></g></g><g data-name="Group 239"><g data-name="Group 238"><path data-name="Path 473" d="M71.013 94.848a10.073 10.073 0 0 0 6-9.319c.023-5.565-4.188-10.1-9.407-10.12s-9.465 4.468-9.488 10.032a10.058 10.058 0 0 0 6.02 9.407c-14.539 2.191-13.88 17.992-13.88 17.992l34.38.158s.787-15.973-13.625-18.15Z" fill="#f5f5f5"/></g></g><g data-name="Group 247"><g data-name="Group 240" transform="translate(8.055 188.149)"><circle data-name="Ellipse 27" cx="4.481" cy="4.481" r="4.481" transform="rotate(-89.201 4.543 4.48)" fill="#ebebeb"/></g><g data-name="Group 241" transform="translate(20.659 179.232)"><circle data-name="Ellipse 28" cx="4.481" cy="4.481" r="4.481" fill="#ebebeb"/></g><g data-name="Group 242" transform="translate(20.678 197.824)"><ellipse data-name="Ellipse 29" cx="4.481" cy="4.875" rx="4.481" ry="4.875" transform="translate(0 .012)" fill="#ebebeb"/></g><g data-name="Group 244"><g data-name="Group 243"><path data-name="Path 474" d="M23.843 202.131c-.192.282-3.172-1.411-6.657-3.78s-6.155-4.518-5.963-4.8 3.171 1.411 6.657 3.78 6.154 4.517 5.963 4.8Z" fill="#ebebeb"/></g></g><g data-name="Group 246"><g data-name="Group 245"><path data-name="Path 475" d="M24.204 183.399c.208.27-2.093 2.4-5.139 4.762s-5.687 4.057-5.9 3.787 2.092-2.4 5.14-4.762 5.688-4.056 5.899-3.787Z" fill="#ebebeb"/></g></g></g><g data-name="Group 249"><g data-name="Group 248"><path data-name="Path 476" d="M373.933 296.518c0 .077-81.288.14-181.539.14-100.286 0-181.557-.063-181.557-.14s81.271-.14 181.557-.14c100.251 0 181.539.063 181.539.14Z" fill="#263238"/></g></g><g data-name="Group 259"><g data-name="Group 258"><g data-name="Group 257"><g data-name="Group 250"><path data-name="Path 477" d="M238.934 219.088a13.186 13.186 0 0 1 2.605-2.343l-.38-3.227 5.068-1.793 1.734 2.748a13.148 13.148 0 0 1 3.5.183l2.012-2.55 4.851 2.316-.717 3.167a13.157 13.157 0 0 1 2.343 2.606l3.227-.38 1.793 5.068-2.748 1.734a13.168 13.168 0 0 1-.183 3.5l2.549 2.012-2.315 4.851-3.168-.717a13.159 13.159 0 0 1-2.606 2.343l.38 3.227-5.068 1.793-1.734-2.748a13.191 13.191 0 0 1-3.5-.183l-2.012 2.549-4.851-2.316.717-3.167a13.173 13.173 0 0 1-2.344-2.606l-3.227.38-1.793-5.068 2.748-1.734a13.168 13.168 0 0 1 .183-3.5l-2.55-2.012 2.315-4.851 3.168.717Zm4.987 5.883a5.767 5.767 0 1 0 7.688-2.72 5.767 5.767 0 0 0-7.687 2.72Z" fill="#e0e0e0"/></g><g data-name="Group 256"><g data-name="Group 251"><path data-name="Path 478" d="M238.934 219.088a13.186 13.186 0 0 1 2.605-2.343l-.38-3.227 5.068-1.793 1.734 2.748a13.148 13.148 0 0 1 3.5.183l2.012-2.55 4.851 2.316-.717 3.167a13.157 13.157 0 0 1 2.343 2.606l3.227-.38 1.793 5.068-2.748 1.734a13.168 13.168 0 0 1-.183 3.5l2.549 2.012-2.315 4.851-3.168-.717a13.159 13.159 0 0 1-2.606 2.343l.38 3.227-5.068 1.793-1.734-2.748a13.191 13.191 0 0 1-3.5-.183l-2.012 2.549-4.851-2.316.717-3.167a13.173 13.173 0 0 1-2.344-2.606l-3.227.38-1.793-5.068 2.748-1.734a13.168 13.168 0 0 1 .183-3.5l-2.55-2.012 2.315-4.851 3.168.717Zm4.987 5.883a5.767 5.767 0 1 0 7.688-2.72 5.767 5.767 0 0 0-7.687 2.72Z" fill="none"/></g><g data-name="Group 253"><g data-name="Group 252"><path data-name="Path 479" d="M243.923 224.967a4.465 4.465 0 0 1 .727-1.227 5.743 5.743 0 0 1 3.282-2.025 5.806 5.806 0 0 1 2.7.054 5.882 5.882 0 0 1 2.688 1.55 5.887 5.887 0 0 1 1.6 3.031 5.863 5.863 0 0 1-3.006 6.3 5.888 5.888 0 0 1-3.361.666 5.884 5.884 0 0 1-2.9-1.116 5.814 5.814 0 0 1-2.233-5.893 4.476 4.476 0 0 1 .5-1.338 12.223 12.223 0 0 0-.391 1.359 5.749 5.749 0 0 0 .559 3.714 5.649 5.649 0 0 0 4.488 3.017 5.654 5.654 0 0 0 3.207-.65 5.612 5.612 0 0 0 2.866-6.006 5.654 5.654 0 0 0-1.511-2.9 5.649 5.649 0 0 0-5.168-1.592 5.748 5.748 0 0 0-3.239 1.9 12.12 12.12 0 0 0-.808 1.156Z" fill="#263238"/></g></g><g data-name="Group 255"><g data-name="Group 254"><path data-name="Path 480" d="M238.938 219.088s-.066-.008-.2-.035l-.6-.125-2.374-.513.05-.024-2.292 4.863-.02-.086 2.556 2 .039.031-.009.049a13.184 13.184 0 0 0-.172 3.477v.055l-.047.03-2.744 1.74.041-.117 1.8 5.064-.117-.073 3.226-.386.07-.009.039.058a13.1 13.1 0 0 0 2.327 2.58l.055.047-.016.071-.713 3.168-.068-.14 4.854 2.311-.158.037 2.01-2.551.05-.063.079.015a13.132 13.132 0 0 0 3.464.179l.082-.006.044.069 1.736 2.747-.162-.056 5.067-1.794-.092.147-.381-3.227-.01-.084.07-.048a13.075 13.075 0 0 0 2.576-2.316l.056-.064.082.019 3.168.717-.157.076 2.316-4.851.039.169-2.548-2.013-.065-.052.016-.082a13.058 13.058 0 0 0 .183-3.463l-.006-.082.069-.044 2.749-1.732-.054.157-1.789-5.069.136.085-3.227.377-.075.009-.043-.063a13.083 13.083 0 0 0-2.318-2.585l-.056-.047.016-.071.721-3.166.063.131-4.847-2.324.13-.03-2.019 2.543-.038.048-.059-.011a13.13 13.13 0 0 0-3.474-.19h-.056l-.03-.047-1.726-2.753.1.034-5.075 1.774.041-.067.363 3.229v.027l-.023.015a13.555 13.555 0 0 0-2.029 1.68c-.206.206-.352.366-.451.471s-.15.155-.15.155.044-.062.133-.171.234-.276.435-.488a12.777 12.777 0 0 1 2.012-1.722l-.019.042-.4-3.225-.006-.049.047-.017 5.061-1.812.062-.022.035.056 1.742 2.743-.085-.042a13.269 13.269 0 0 1 3.526.176l-.1.037 2.006-2.554.053-.067.077.036 4.855 2.308.084.04-.011.096-.712 3.168-.039-.119a13.323 13.323 0 0 1 2.368 2.628l-.118-.054 3.226-.384.1-.012.034.1 1.8 5.066.035.1-.09.057-2.747 1.736.063-.125a13.306 13.306 0 0 1-.184 3.535l-.05-.133 2.551 2.011.086.069-.047.1-2.315 4.851-.048.1-.109-.025-3.168-.717.138-.046a13.331 13.331 0 0 1-2.632 2.366l.06-.132.38 3.227.013.111-.1.037-5.068 1.791-.1.036-.059-.092-1.732-2.749.125.062a13.353 13.353 0 0 1-3.535-.187l.129-.048-2.014 2.548-.064.082-.094-.045-4.849-2.321-.09-.043.022-.1.721-3.167.04.119a13.3 13.3 0 0 1-2.361-2.633l.109.049-3.228.375-.088.01-.029-.083-1.783-5.072-.026-.075.067-.042 2.752-1.728-.042.085a13.282 13.282 0 0 1 .194-3.522l.03.079-2.542-2.021-.045-.035.024-.051 2.339-4.84.016-.032.035.008 2.346.555.6.148.205.064Z" fill="#263238"/></g></g></g></g></g></g><g data-name="Group 297"><g data-name="Group 296"><g data-name="Group 264"><g data-name="Group 263"><g data-name="Group 260"><path data-name="Path 481" d="m233.403 93.16-14.367-.066a3.563 3.563 0 0 0-3.5 3.621l-.012 2.6a3.562 3.562 0 0 1-3.5 3.621l-28-.129a3.567 3.567 0 0 1-3.473-3.653l.012-2.6a3.567 3.567 0 0 0-3.473-3.653l-5.053-.024-12.574-.058a11.29 11.29 0 0 0-11.357 11.226l-.766 180.812a11.288 11.288 0 0 0 11.252 11.321l73.95.341a11.287 11.287 0 0 0 11.355-11.225l.767-180.814a11.287 11.287 0 0 0-11.261-11.32Z" fill="#fafafa"/></g><g data-name="Group 262"><g data-name="Group 261"><path data-name="Path 482" d="M233.403 93.161s.129 0 .386.014a8.43 8.43 0 0 1 1.143.093 10.651 10.651 0 0 1 4.227 1.474 10.853 10.853 0 0 1 2.569 2.09 11.251 11.251 0 0 1 2.141 3.371 11.614 11.614 0 0 1 .831 4.581l-.016 5.319-.226 63.657c-.095 26.875-.23 58.877-.37 94.41l-.055 13.488-.014 3.421a11.34 11.34 0 0 1-4.38 9.135 11.108 11.108 0 0 1-3.076 1.716 12.667 12.667 0 0 1-1.7.5 12.5 12.5 0 0 1-1.767.2c-2.361.046-4.713-.005-7.089 0l-14.369-.064-29.489-.134-15.082-.069-7.618-.035a11.967 11.967 0 0 1-7.334-2.041 11.54 11.54 0 0 1-4.46-6.171 12.4 12.4 0 0 1-.461-3.813l.016-3.8.064-15.087.127-29.5.244-55.761c.077-17.769.156-34.655.227-50.457q.055-11.852.1-22.867l.013-2.736c.028-.456.033-.915.09-1.367a11.091 11.091 0 0 1 .25-1.339 11.236 11.236 0 0 1 2.453-4.73 11.732 11.732 0 0 1 4.227-3.059c.41-.14.81-.31 1.226-.422a10.775 10.775 0 0 1 1.262-.286 9.01 9.01 0 0 1 1.273-.139c.427-.024.85-.038 1.269-.028l9.835.05 4.731.025 2.318.012a3.554 3.554 0 0 1 2.2.677 3.725 3.725 0 0 1 1.328 1.842 6.665 6.665 0 0 1 .19 2.228q0 .551-.005 1.1a6.4 6.4 0 0 0 .044 1.074 3.584 3.584 0 0 0 .885 1.876 3.4 3.4 0 0 0 1.754 1.036 4.708 4.708 0 0 0 1.025.082l1.039.005 4.072.021 14.87.079 6.559.037c.518-.008 1.043.029 1.537-.018a3.341 3.341 0 0 0 1.383-.492 3.577 3.577 0 0 0 1.58-2.282 6.6 6.6 0 0 0 .087-1.373q0-.684.008-1.349a7.192 7.192 0 0 1 .069-1.314 3.806 3.806 0 0 1 .442-1.2 3.545 3.545 0 0 1 1.82-1.564 5.872 5.872 0 0 1 2.241-.219l7.319.047 4.5.034c1.014.009 1.534.021 1.534.021s-.519.007-1.534.007l-4.5-.007-7.319-.02a5.794 5.794 0 0 0-2.208.219 3.448 3.448 0 0 0-1.766 1.533 3.71 3.71 0 0 0-.428 1.17 7.117 7.117 0 0 0-.064 1.3v1.349a6.681 6.681 0 0 1-.086 1.395 3.688 3.688 0 0 1-1.625 2.357 3.452 3.452 0 0 1-1.431.511c-.519.05-1.028.014-1.551.022l-6.567-.031-14.877-.057-4.07-.016h-1.039a4.868 4.868 0 0 1-1.06-.085 3.561 3.561 0 0 1-1.842-1.085 3.753 3.753 0 0 1-.929-1.963 6.532 6.532 0 0 1-.047-1.1v-1.1a6.519 6.519 0 0 0-.184-2.172 3.544 3.544 0 0 0-1.267-1.753 3.369 3.369 0 0 0-2.085-.642l-2.318-.01-4.732-.02-9.835-.04c-.422-.009-.84 0-1.257.029a8.771 8.771 0 0 0-1.251.138 10.478 10.478 0 0 0-1.236.277c-.409.11-.8.278-1.2.415a11.535 11.535 0 0 0-4.148 3.008 11.031 11.031 0 0 0-2.4 4.645 22.592 22.592 0 0 0-.342 5.393l-.089 22.866c-.063 15.8-.131 32.688-.2 50.458s-.149 36.423-.228 55.761l-.123 29.5-.063 15.087-.016 3.8a12.133 12.133 0 0 0 .45 3.733 11.263 11.263 0 0 0 4.352 6.019 11.679 11.679 0 0 0 7.176 1.991l7.617.035 15.082.07 29.489.138 14.369.068c2.369 0 4.74.05 7.075.005a12.247 12.247 0 0 0 1.725-.2 12.378 12.378 0 0 0 1.663-.485 10.824 10.824 0 0 0 3-1.675 10.988 10.988 0 0 0 3.808-5.568c.683-2.185.421-4.51.488-6.779l.06-13.488.43-94.41c.122-26.877.24-48.623.314-63.656l.029-5.319a11.547 11.547 0 0 0-.812-4.549 11.209 11.209 0 0 0-2.116-3.355 10.84 10.84 0 0 0-2.546-2.089 10.714 10.714 0 0 0-4.2-1.494 9.044 9.044 0 0 0-1.139-.108c-.265-.011-.394-.022-.394-.022Z" fill="#263238"/></g></g></g></g><g data-name="Group 266"><g data-name="Group 265"><path data-name="Path 483" d="M220.803 286.152s.146-.017.43-.036l.529-.034.724-.118a9.209 9.209 0 0 0 4.328-2.056 9.39 9.39 0 0 0 2.2-2.695 9.3 9.3 0 0 0 1.1-3.966 12.556 12.556 0 0 0-.481-4.721 9.457 9.457 0 0 0-1.166-2.314 9.733 9.733 0 0 0-1.868-1.988 9.14 9.14 0 0 0-2.486-1.409 8.536 8.536 0 0 0-2.923-.592c-2.053-.037-4.206-.005-6.426-.012l-14.19.013-32.515.011a9.293 9.293 0 0 0-9.053 7.258c-.081.331-.111.671-.169 1.005-.03.338-.038.677-.057 1.014 0 .687-.007 1.371.04 2.036a9.3 9.3 0 0 0 7.212 8.243 16.745 16.745 0 0 0 3.749.23l26.556.03 17.9.045 4.867.026 1.266.014c.285 0 .431.015.431.015s-.146.01-.431.014l-1.266.014-4.867.026-17.9.045-26.556.029a16.911 16.911 0 0 1-3.806-.232 9.564 9.564 0 0 1-7.428-8.475c-.049-.692-.045-1.374-.043-2.06.02-.347.029-.7.059-1.044.059-.344.09-.695.174-1.035a9.57 9.57 0 0 1 9.323-7.479l32.515.011 14.19.013c2.224.011 4.365-.015 6.435.028a8.72 8.72 0 0 1 2.987.615 9.329 9.329 0 0 1 2.536 1.447 9.9 9.9 0 0 1 1.9 2.035 9.624 9.624 0 0 1 1.18 2.364 12.677 12.677 0 0 1 .468 4.786 9.372 9.372 0 0 1-3.385 6.736 10.3 10.3 0 0 1-2.4 1.46 10.188 10.188 0 0 1-1.982.568l-.729.1-.532.02c-.295.017-.44.015-.44.015Z" fill="#263238"/></g></g><g data-name="Group 268"><g data-name="Group 267"><path data-name="Path 484" d="M231.498 249.418s0-.1-.007-.3 0-.49-.007-.87c0-.77-.008-1.9-.014-3.376l-.032-12.764-.062-45.293.123.123-56.842.017h-.005l.14-.14-.021 62.6-.119-.119 41.211.061 11.539.031 3.044.014c.69 0 1.053.013 1.053.013s-.345.009-1.027.013l-3.022.014-11.512.031-41.286.061h-.119v-.119l-.021-62.6v-.14h.146l56.842.017h.123v.122l-.062 45.372-.032 12.736-.015 3.353c0 .374-.005.659-.007.857s-.009.286-.009.286Z" fill="#263238"/></g></g><g data-name="Group 270"><g data-name="Group 269"><path data-name="Path 485" d="M212.999 122.681c0 .077-7.066.14-15.78.14s-15.783-.063-15.783-.14 7.065-.14 15.783-.14 15.78.058 15.78.14Z" fill="#455a64"/></g></g><g data-name="Group 274"><g data-name="Group 271"><path data-name="Path 486" d="M233.679 119.528a.932.932 0 1 1-.932-.932.932.932 0 0 1 .932.932Z" fill="#263238"/></g><g data-name="Group 272"><path data-name="Path 487" d="M233.679 122.407a.932.932 0 1 1-.932-.932.932.932 0 0 1 .932.932Z" fill="#263238"/></g><g data-name="Group 273"><path data-name="Path 488" d="M233.679 125.287a.932.932 0 1 1-.932-.932.932.932 0 0 1 .932.932Z" fill="#263238"/></g></g><g data-name="Group 276"><g data-name="Group 275"><path data-name="Path 489" d="M194.858 178.59s0-.062-.007-.176 0-.288-.007-.5c0-.452-.008-1.107-.014-1.957l-.032-7.395-.062-26.3.121.121-36.327.019.14-.14-.019 36.331-.121-.121 26.3.062 7.394.032 1.956.014.5.007c.114 0 .176.007.176.007s-.053 0-.162.006l-.492.007-1.933.014-7.367.032-26.377.062h-.121v-.121l-.019-36.331v-.14h.143l36.327.019h.121v.121l-.062 26.376-.032 7.368-.014 1.933c0 .211-.005.373-.007.492l-.003.158Z" fill="#263238"/></g></g><g data-name="Group 278"><g data-name="Group 277"><path data-name="Path 490" d="M194.737 142.429a.494.494 0 0 1-.079.105l-.254.29-.995 1.1c-.867.95-2.136 2.311-3.716 3.982a562.26 562.26 0 0 1-25.533 25.288 333.334 333.334 0 0 1-4.017 3.678l-1.106.984-.293.251a.468.468 0 0 1-.106.078s.026-.038.087-.1l.274-.271 1.071-1.023 3.955-3.742c3.338-3.162 7.921-7.56 12.908-12.5s9.423-9.478 12.617-12.785l3.78-3.92 1.033-1.061.274-.271a.478.478 0 0 1 .1-.083Z" fill="#263238"/></g></g><g data-name="Group 280"><g data-name="Group 279"><path data-name="Path 491" d="M194.858 178.59c-.055.055-8.233-8.035-18.264-18.066s-18.122-18.211-18.068-18.265 8.231 8.033 18.265 18.068 18.121 18.208 18.067 18.263Z" fill="#263238"/></g></g><g data-name="Group 282"><g data-name="Group 281"><path data-name="Path 492" d="M230.736 150.216a.875.875 0 0 1-.008-.129l-.009-.366-.019-1.4-.046-5.238.082.082-30.526.059c.279-.279.077-.076.14-.138v7.133l-.138-.137 21.739.062 6.432.039 1.74.018.455.009a1.251 1.251 0 0 1 .161.009.707.707 0 0 1-.143.009l-.438.009-1.71.018-6.4.039-21.836.062h-.138v-7.271c.062-.063-.14.138.14-.142l30.526.058h.082v.081l-.045 5.285-.02 1.385c0 .145-.006.26-.009.351a.543.543 0 0 1-.012.113Z" fill="#263238"/></g></g><g data-name="Group 295"><g data-name="Group 284"><g data-name="Group 283"><path data-name="Path 493" d="M235.319 158.549c0 .077-7.644.14-17.071.14s-17.072-.062-17.072-.14 7.642-.14 17.072-.14 17.071.062 17.071.14Z" fill="#263238"/></g></g><g data-name="Group 286"><g data-name="Group 285"><path data-name="Path 494" d="M235.319 162.301c0 .077-7.644.14-17.071.14s-17.072-.063-17.072-.14 7.642-.14 17.072-.14 17.071.063 17.071.14Z" fill="#263238"/></g></g><g data-name="Group 288"><g data-name="Group 287"><path data-name="Path 495" d="M235.319 166.053c0 .077-7.644.14-17.071.14s-17.072-.062-17.072-.14 7.642-.14 17.072-.14 17.071.062 17.071.14Z" fill="#263238"/></g></g><g data-name="Group 290"><g data-name="Group 289"><path data-name="Path 496" d="M235.319 169.801c0 .077-7.644.14-17.071.14s-17.072-.063-17.072-.14 7.642-.14 17.072-.14 17.071.067 17.071.14Z" fill="#263238"/></g></g><g data-name="Group 292"><g data-name="Group 291"><path data-name="Path 497" d="M235.319 173.557c0 .077-7.644.14-17.071.14s-17.072-.062-17.072-.14 7.642-.14 17.072-.14 17.071.062 17.071.14Z" fill="#263238"/></g></g><g data-name="Group 294"><g data-name="Group 293"><path data-name="Path 498" d="M235.319 177.309c0 .077-7.644.14-17.071.14s-17.072-.063-17.072-.14 7.642-.14 17.072-.14 17.071.067 17.071.14Z" fill="#263238"/></g></g></g></g></g><g data-name="Group 300"><g data-name="Group 298"><path data-name="Path 499" d="M268.4 134.18a1.44 1.44 0 1 1-1.44-1.44 1.44 1.44 0 0 1 1.44 1.44Z" fill="#263238"/></g><g data-name="Group 299"><path data-name="Path 500" d="M266.961 134.449h-4.837a7.978 7.978 0 0 1-7.968-7.969c0-2.876-.192-4.737-2.764-4.737h-6.809v-.537h6.809c3.3 0 3.3 2.784 3.3 5.24a7.447 7.447 0 0 0 7.431 7.466h4.837Z" fill="#263238"/></g></g><g data-name="Group 303"><g data-name="Group 301" transform="translate(94.823 112.999)"><rect data-name="Rectangle 150" width="30.01" height="30.01" rx="11.781" fill="#ff4747"/></g><g data-name="Group 302"><path data-name="Path 501" d="M105.326 134.243h3.173a.338.338 0 0 0 .338-.338v-3.346a.338.338 0 0 1 .338-.338h2.264a.338.338 0 0 1 .338.338v3.42a.338.338 0 0 0 .338.338h3.155a.338.338 0 0 0 .338-.338v-6.112a.338.338 0 0 0-.1-.243l-4.983-4.8a.338.338 0 0 0-.466 0l-4.977 4.67a.339.339 0 0 0-.107.248l.017 6.162a.338.338 0 0 0 .334.339Z" fill="#fff"/></g></g><g data-name="Group 309"><g data-name="Group 304" transform="translate(273.338 119.342)"><rect data-name="Rectangle 151" width="26.762" height="26.762" rx="11.781" fill="#ff4747"/></g><g data-name="Group 308"><g data-name="Group 305"><path data-name="Rectangle 152" fill="#fff" d="M282.343 130.002h9.375v1.074h-9.375z"/></g><g data-name="Group 306"><path data-name="Rectangle 153" fill="#fff" d="M282.343 132.377h9.375v1.074h-9.375z"/></g><g data-name="Group 307"><path data-name="Rectangle 154" fill="#fff" d="M282.343 134.753h9.375v1.074h-9.375z"/></g></g></g><g data-name="Group 313"><g data-name="Group 310"><path data-name="Path 502" d="M112.204 108.49a1.44 1.44 0 1 1-1.44-1.44 1.439 1.439 0 0 1 1.44 1.44Z" fill="#263238"/></g><g data-name="Group 311"><path data-name="Path 503" d="M197.407 93.539a1.44 1.44 0 1 1-1.44-1.44 1.44 1.44 0 0 1 1.44 1.44Z" fill="#263238"/></g><g data-name="Group 312"><path data-name="Path 504" d="M111.037 107.911h-.537V90.743a7.921 7.921 0 0 1 7.912-7.912h69.966a7.921 7.921 0 0 1 7.912 7.912v2.8h-.537v-2.8a7.383 7.383 0 0 0-7.375-7.375h-69.97a7.383 7.383 0 0 0-7.375 7.375Z" fill="#263238"/></g></g><g data-name="Group 316"><g data-name="Group 314"><path data-name="Path 505" d="M156.246 160.34a1.44 1.44 0 1 1-1.44-1.44 1.44 1.44 0 0 1 1.44 1.44Z" fill="#263238"/></g><g data-name="Group 315"><path data-name="Path 506" d="M154.951 160.693h-14.01a4.279 4.279 0 0 1-4.274-4.274V132.01a4.279 4.279 0 0 1 4.274-4.274h7.056v.537h-7.056a3.742 3.742 0 0 0-3.737 3.737v24.408a3.742 3.742 0 0 0 3.737 3.737h14.01Z" fill="#263238"/></g></g><g data-name="Group 327"><g data-name="Group 321"><g data-name="Group 320"><g data-name="Group 317"><path data-name="Path 507" d="m331.856 151.112 2.178-5.837a19.9 19.9 0 1 1 4.765 5.3l.007.009Z" fill="#fff"/></g><g data-name="Group 319"><g data-name="Group 318"><path data-name="Path 508" d="M331.858 151.112s.16-.018.461-.045l1.336-.115 5.148-.429-.045.1-.006-.009a.062.062 0 0 1 .011-.087.063.063 0 0 1 .076 0 19.857 19.857 0 0 0 8.989 3.865 19.444 19.444 0 0 0 3.053.242 22.337 22.337 0 0 0 3.262-.285 19.725 19.725 0 0 0 3.964-37.839 20.1 20.1 0 0 0-8.989-1.269 19.428 19.428 0 0 0-8.136 2.627 19.8 19.8 0 0 0-9.054 11.755l-.213.82a5.331 5.331 0 0 0-.173.814l-.248 1.608a27.5 27.5 0 0 0-.077 3.081 19.787 19.787 0 0 0 2.868 9.3.061.061 0 0 1 0 .052l-1.648 4.31-.431 1.12-.154.386s.039-.121.128-.369.227-.628.4-1.112l1.594-4.375v.051a19.779 19.779 0 0 1-2.951-9.352 27.429 27.429 0 0 1 .063-3.11l.243-1.626a5.417 5.417 0 0 1 .172-.824l.212-.83a19.992 19.992 0 0 1 9.128-11.917 19.654 19.654 0 0 1 8.24-2.675 20.33 20.33 0 0 1 9.114 1.278 19.871 19.871 0 0 1 7.871 5.558 9 9 0 0 1 .76.942l.719.967.623 1.026a8.175 8.175 0 0 1 .59 1.042l.516 1.071c.182.352.284.736.43 1.1.129.371.283.733.39 1.109l.291 1.133a19.7 19.7 0 0 1 .079 9.02 19.935 19.935 0 0 1-16.285 15.337 22.413 22.413 0 0 1-3.3.275 19.513 19.513 0 0 1-3.082-.258 19.861 19.861 0 0 1-9.036-3.951l.087-.087.007.009a.062.062 0 0 1-.011.086.065.065 0 0 1-.034.013l-5.2.356-1.32.086c-.291.02-.432.025-.432.025Z" fill="#263238"/></g></g></g></g><g data-name="Group 326"><g data-name="Group 322"><path data-name="Path 509" d="m352.087 140.592-10.266-3.874.19-.5 9.866 3.723 7.035-10.564.447.3Z" fill="#263238"/></g><g data-name="Group 323" transform="translate(339.797 134.14)"><circle data-name="Ellipse 30" cx="2.119" cy="2.119" r="2.119" fill="#263238"/></g><g data-name="Group 324" transform="translate(349.863 138.146)"><circle data-name="Ellipse 31" cx="2.119" cy="2.119" r="2.119" fill="#263238"/></g><g data-name="Group 325" transform="translate(357.017 127.404)"><circle data-name="Ellipse 32" cx="2.119" cy="2.119" r="2.119" fill="#263238"/></g></g></g><g data-name="Group 349"><g data-name="Group 332"><g data-name="Group 331"><g data-name="Group 328"><path data-name="Path 510" d="m43.533 169.998-5.887-2.2a20.065 20.065 0 1 1 5.347-4.806l.009-.007Z" fill="#fff"/></g><g data-name="Group 330"><g data-name="Group 329"><path data-name="Path 511" d="M43.533 169.997s-.018-.162-.045-.466l-.116-1.347c-.1-1.186-.244-2.927-.432-5.193l.1.045-.009.006a.062.062 0 0 1-.087-.011.064.064 0 0 1 0-.076 20.038 20.038 0 0 0 3.9-9.067 19.654 19.654 0 0 0 .243-3.08 22.5 22.5 0 0 0-.287-3.29 19.9 19.9 0 0 0-38.169-4 20.268 20.268 0 0 0-1.281 9.067 19.6 19.6 0 0 0 2.65 8.207 19.97 19.97 0 0 0 11.857 9.132l.827.215a5.436 5.436 0 0 0 .822.175l1.622.25a27.712 27.712 0 0 0 3.107.078 19.966 19.966 0 0 0 9.381-2.893.06.06 0 0 1 .052-.005l4.347 1.662 1.129.436c.255.1.389.155.389.155s-.122-.04-.372-.129l-1.122-.405-4.413-1.607h.052a19.96 19.96 0 0 1-9.433 2.976 27.66 27.66 0 0 1-3.139-.07l-1.639-.245a5.465 5.465 0 0 1-.831-.173l-.837-.214a20.166 20.166 0 0 1-12.02-9.207 19.826 19.826 0 0 1-2.7-8.311 20.51 20.51 0 0 1 1.289-9.192 20.04 20.04 0 0 1 5.606-7.939 9 9 0 0 1 .95-.766l.976-.726 1.035-.629a8.325 8.325 0 0 1 1.053-.583l1.08-.52c.355-.183.742-.287 1.11-.433.374-.13.74-.286 1.119-.394l1.143-.293a19.869 19.869 0 0 1 9.1-.079 20.226 20.226 0 0 1 13.046 9.6 20.036 20.036 0 0 1 2.42 6.824 22.734 22.734 0 0 1 .278 3.326 19.781 19.781 0 0 1-.26 3.109 20.036 20.036 0 0 1-3.985 9.113l-.086-.087.009-.006a.062.062 0 0 1 .087.011.066.066 0 0 1 .013.033l.359 5.243.087 1.331c.02.308.025.442.025.442Z" fill="#263238"/></g></g></g></g><g data-name="Group 348"><g data-name="Group 337"><g data-name="Group 336"><g data-name="Group 335"><g data-name="Group 334"><g data-name="Group 333"><path data-name="Path 512" d="M22.149 150.734a1.634 1.634 0 1 1-1.634-1.634 1.634 1.634 0 0 1 1.634 1.634Z" fill="#263238"/></g></g></g></g></g><g data-name="Group 342"><g data-name="Group 341"><g data-name="Group 340"><g data-name="Group 339"><g data-name="Group 338"><path data-name="Path 513" d="M28.686 150.734a1.634 1.634 0 1 1-1.634-1.634 1.634 1.634 0 0 1 1.634 1.634Z" fill="#263238"/></g></g></g></g></g><g data-name="Group 347"><g data-name="Group 346"><g data-name="Group 345"><g data-name="Group 344"><g data-name="Group 343"><path data-name="Path 514" d="M35.207 149.917a1.633 1.633 0 1 1-2.231-.6 1.633 1.633 0 0 1 2.231.6Z" fill="#263238"/></g></g></g></g></g></g></g><g data-name="Group 636"><g data-name="Group 378"><g data-name="Group 350"><path data-name="Path 515" d="M269.358 288.974c-2.125-7.76-9.887-35.135-12.063-42.8a2.764 2.764 0 0 0-2.66-2.01h-56.906a2.765 2.765 0 0 0-2.66 3.523l13.665 47.959a2.766 2.766 0 0 0 2.66 2.008h84.245a2.766 2.766 0 0 0 .6-5.466l-.19-.04c-5.111-1.052-18.749-1.144-24.028-1.138a2.76 2.76 0 0 1-2.663-2.036Z" fill="#263238"/></g><g data-name="Group 351"><path data-name="Path 516" d="m199.61 247.802 12.508 43 54.739.338-12.179-43.341Z" fill="#575c60"/></g><g data-name="Group 353"><g data-name="Group 352"><path data-name="Path 517" d="M222.944 263.174c0 .077-3.047.14-6.8.14s-6.805-.062-6.805-.14 3.046-.14 6.805-.14 6.8.062 6.8.14Z" fill="#fff"/></g></g><g data-name="Group 355"><g data-name="Group 354"><path data-name="Path 518" d="M220.022 269.42a70.8 70.8 0 0 1-8.9 0 71.05 71.05 0 0 1 8.9 0Z" fill="#fff"/></g></g><g data-name="Group 357"><g data-name="Group 356"><path data-name="Path 519" d="M238.414 269.42c0 .077-3.616.14-8.075.14s-8.076-.063-8.076-.14 3.615-.14 8.076-.14 8.075.063 8.075.14Z" fill="#fff"/></g></g><g data-name="Group 359"><g data-name="Group 358"><path data-name="Path 520" d="M209.484 258.954a12.007 12.007 0 0 1-2.265-1.179l-.166-.1.145-.127.063-.055a12.5 12.5 0 0 1 2.075-1.629 12.584 12.584 0 0 1-1.89 1.84l-.063.055-.021-.226a11.992 11.992 0 0 1 2.122 1.421Z" fill="#fff"/></g></g><g data-name="Group 361"><g data-name="Group 360"><path data-name="Path 521" d="M212.783 255.865a12.194 12.194 0 0 1 2.294 1.2l.149.088-.117.127-.029.032a12.465 12.465 0 0 1-1.88 1.841 12.414 12.414 0 0 1 1.674-2.031l.03-.032.032.215a12.152 12.152 0 0 1-2.153-1.44Z" fill="#fff"/></g></g><g data-name="Group 363"><g data-name="Group 362"><path data-name="Path 522" d="M212.242 254.985a30.806 30.806 0 0 1-1.961 5.531 30.879 30.879 0 0 1 1.961-5.531Z" fill="#fff"/></g></g><g data-name="Group 365"><g data-name="Group 364"><path data-name="Path 523" d="M254.67 262.593c0 .077-6.238.14-13.932.14s-13.934-.063-13.934-.14 6.237-.14 13.934-.14 13.932.063 13.932.14Z" fill="#263238"/></g></g><g data-name="Group 367"><g data-name="Group 366"><path data-name="Path 524" d="M253.313 266.03c0 .077-9.74.14-21.753.14s-21.755-.063-21.755-.14 9.738-.14 21.755-.14 21.753.063 21.753.14Z" fill="#263238"/></g></g><g data-name="Group 369"><g data-name="Group 368"><path data-name="Path 525" d="M227.29 274.77c0 .077-3.047.14-6.8.14s-6.8-.063-6.8-.14 3.046-.14 6.8-.14 6.8.059 6.8.14Z" fill="#fff"/></g></g><g data-name="Group 371"><g data-name="Group 370"><path data-name="Path 526" d="M224.369 281.013a71.049 71.049 0 0 1-8.9 0 71.018 71.018 0 0 1 8.9 0Z" fill="#fff"/></g></g><g data-name="Group 373"><g data-name="Group 372"><path data-name="Path 527" d="M242.76 281.013c0 .077-3.615.14-8.074.14s-8.076-.062-8.076-.14 3.615-.14 8.076-.14 8.074.062 8.074.14Z" fill="#fff"/></g></g><g data-name="Group 375"><g data-name="Group 374"><path data-name="Path 528" d="M257.659 277.623c0 .077-9.74.14-21.753.14s-21.755-.062-21.755-.14 9.738-.14 21.755-.14 21.753.062 21.753.14Z" fill="#263238"/></g></g><g data-name="Group 377"><g data-name="Group 376"><path data-name="Path 529" d="M211.395 297.652c-.074.021-3.5-11.794-7.648-26.387s-7.455-26.445-7.38-26.466 3.5 11.791 7.65 26.389 7.452 26.443 7.378 26.464Z" fill="#455a64"/></g></g></g><g data-name="Group 635"><g data-name="Group 384"><g data-name="Group 379"><path data-name="Path 530" d="M226.324 258.329s4.664-1.5 7.829 0 19.159 13.827 19.159 13.827l-2.666 9.5-3.665-3s-6 .833-8.33-1.5-5-4.5-5-4.5-2.4 3.836-3.7 3.613c-.957-.165-1.518-3.214-1.518-3.214s-2.812.714-2.116-2.065l1.667-5.514a2.581 2.581 0 0 1 2.213-1.821l4.949-.495-2.666-2.166a22.968 22.968 0 0 1-5.342-.3c-.869-.182-1.465-1.879-.814-2.365Z" fill="#ffbe9d"/></g><g data-name="Group 381"><g data-name="Group 380"><path data-name="Path 531" d="M236.691 268.498c-.024.045-.556-.28-1.471-.637a4.156 4.156 0 0 0-1.659-.3 3.4 3.4 0 0 0-1.888.732 6.638 6.638 0 0 0-2.055 3.143 13.174 13.174 0 0 1-.548 1.513 7.1 7.1 0 0 1 .36-1.576 8.811 8.811 0 0 1 .67-1.635 5.177 5.177 0 0 1 1.4-1.667 3.554 3.554 0 0 1 2.047-.767 4.111 4.111 0 0 1 1.743.372 7.59 7.59 0 0 1 1.049.559c.238.152.361.244.352.263Z" fill="#eb996e"/></g></g><g data-name="Group 383"><g data-name="Group 382"><path data-name="Path 532" d="M237.994 263.714a3.77 3.77 0 0 0-2.993-.355c-.017-.03.124-.156.4-.27a2.466 2.466 0 0 1 2.259.267c.25.177.358.333.334.358Z" fill="#eb996e"/></g></g></g><g data-name="Group 389"><g data-name="Group 385"><path data-name="Path 533" d="m263.017 211.344-1.691.044a1.288 1.288 0 0 0-1.093 1.943.906.906 0 0 0 .439.371c.936.351 7.074 1.286 7.074 1.286l2.806 3.917 2.163-1.286s-2.689-7.307-2.513-7.132-7.185.857-7.185.857Z" fill="#eb996e"/></g><g data-name="Group 386"><path data-name="Path 534" d="M284.26 230.739 271.819 210.7a1.975 1.975 0 0 0-1.6-.933l-6.8-.259a1.4 1.4 0 0 0-1.309 2.046 1.254 1.254 0 0 0 .839.58 53.274 53.274 0 0 0 6.059.585l2.693 5.507-6.767-2.586a1.14 1.14 0 0 0-1.539.894 1.736 1.736 0 0 0 .51 1.688c1.148.892 4.909 3.857 4.909 3.857s.548 5.078 2.46 7.628 4.962 5.759 4.962 5.759Z" fill="#ffbe9d"/></g><g data-name="Group 388"><g data-name="Group 387"><path data-name="Path 535" d="M277.204 223.699c-.067.053-1.215-1.374-2.854-2.912s-3.123-2.609-3.074-2.678a4.444 4.444 0 0 1 1.027.628 21.8 21.8 0 0 1 4.214 3.974 4.433 4.433 0 0 1 .687.988Z" fill="#eb996e"/></g></g></g><g data-name="Group 612"><g data-name="Group 392"><g data-name="Group 391"><g data-name="Group 390"><path data-name="Path 536" d="M344.164 184.554a1.7 1.7 0 0 0 .375-2.883c.808-.566.417-1.9-.333-2.537s-1.76-.973-2.374-1.744a2.023 2.023 0 0 0 2.214-2 1.65 1.65 0 0 0 .712-3.123c.91-.178.667-1.688-.156-2.115s-1.83-.28-2.706-.581a10.912 10.912 0 0 0-6.127-2.751l3.453-3.208a2.182 2.182 0 0 0 .67-.881c.246-.782-.429-1.543-1.105-2.005a8.853 8.853 0 0 0-4.893-1.533c-.557 0-1.251.156-1.369.7a7.931 7.931 0 0 0-3.853-.01 3.06 3.06 0 0 0-1.963.836 6.051 6.051 0 0 1 1.158-1.825 2.591 2.591 0 0 0 .663-2c-.15-.71-1.084-1.236-1.636-.765.633-.387.428-1.449-.191-1.859a3.363 3.363 0 0 0-2.162-.3c-.516.045-1.161.2-1.248.711a1.451 1.451 0 0 0-2.641.072 1.79 1.79 0 0 0-2.543.48 2.3 2.3 0 0 0-3.108 1.557l1.633-3.569c.308-.674.245-1.866-.48-1.71a1.6 1.6 0 0 0 .884-2.475 2.751 2.751 0 0 0-2.87-.839l-.769 1.42a2.093 2.093 0 0 0-2.928 2.663 1.077 1.077 0 0 0-1.546.488 3.112 3.112 0 0 0-.106 1.836 1.789 1.789 0 0 0-2.6 1.768 5.834 5.834 0 0 0-3.087-.3 2.058 2.058 0 0 0-2.979-2.615 2.029 2.029 0 0 0-2.783-1.356c-.458-1.185-2.157-1.913-3.043-1-.915.941-.2 2.5.544 3.579l2.414 3.524-6.913-2.791a1.148 1.148 0 0 0-.675-.122c-.311.073-.5.384-.769.557-.373.24-.863.194-1.271.369-1.115.478-.9 2.237-.014 3.063s2.144 1.129 3.126 1.841l-2.844.864a2.986 2.986 0 0 0-4.048-1.591c-.511-1.029-1.962-1.009-3.1-.837a4.217 4.217 0 0 0-2.779 1.164 2.868 2.868 0 0 0 .42 3.6 8.367 8.367 0 0 0 3.416 1.9c-.1.89-1.2 1.28-2.094 1.246a5.382 5.382 0 0 0-2.648.126c-1.086.548-1.406 2.064-2.5 2.6a4.857 4.857 0 0 0-1 .458 2.07 2.07 0 0 0-.552 1.426l-.219 1.932a2.292 2.292 0 0 0 .026.955c.318 1 1.772 1.068 2.7.568s1.67-1.355 2.688-1.62a7.956 7.956 0 0 0-3.266 3.138c-.619 1.4-.082 3.417 1.408 3.775 1.508.362 2.8-1.049 3.735-2.287s2.322-2.6 3.794-2.111" fill="#263238"/></g></g></g><g data-name="Group 395"><g data-name="Group 394"><g data-name="Group 393"><path data-name="Path 537" d="M341.968 183.881a1.875 1.875 0 0 1 2.986 1.319 3.912 3.912 0 0 1 2.187 6.558c-.779.817-2.48 1.029-2.781-.059a3.043 3.043 0 0 1-1.943 2.1 2.95 2.95 0 0 1-.73 4.284 3.143 3.143 0 0 1 .023 5.237 2.407 2.407 0 1 1-4.158 2.428 5.112 5.112 0 0 1-1.333 2.562 1.766 1.766 0 0 1-2.57-.158 3.306 3.306 0 0 1-4.465 2.483 2.139 2.139 0 0 1-4.1 1.19l-5.428 1.015a19.665 19.665 0 0 1-3.632.448 9.883 9.883 0 0 1-4.5-1.1 3.357 3.357 0 0 0-1.4-.514 3.432 3.432 0 0 0-1.607.581 8.938 8.938 0 0 1-8.716-.33 4.487 4.487 0 0 0-1.271-.66 4.017 4.017 0 0 0-1.643.093 16.164 16.164 0 0 1-4.05.208 4.27 4.27 0 0 1-3.137-1.276c-.718-.915-.418-2.6.726-2.81a2.5 2.5 0 0 0-1.009-1.94 1.5 1.5 0 0 0-2.018.311 1.082 1.082 0 0 0 .828 1.634c-1.06 1.086-3.2.275-3.521-1.208a2.987 2.987 0 0 1 2.4-3.312 6.861 6.861 0 0 1-.73-3.26 2.456 2.456 0 0 1-3.209 1.018 4.232 4.232 0 0 1-2.308 2.461 2.536 2.536 0 0 1-3.042-.959 1.827 1.827 0 0 1 1.248-2.642 2.182 2.182 0 0 1 1.293-3.471 3.4 3.4 0 0 1 1.337-3.936 1.787 1.787 0 0 1-2.683-.472c-.476 1.224-2.208 1.288-3.448.855-.973-.34-1.952-.9-1.953-2.26a2.7 2.7 0 0 1 .659-1.732 6.686 6.686 0 0 1 3.871-1.808 17.645 17.645 0 0 0 .6-5.73 3.4 3.4 0 0 1-3.925-2.033l7.391-5.79s18.042-4.832 18.7-4.9 41.161 15.5 41.161 15.5a2.2 2.2 0 0 0 3.206-.954 3.577 3.577 0 0 0-.705-3.609 10.519 10.519 0 0 0-3.088-2.3 5.223 5.223 0 0 0 3.328-1.468 1.966 1.966 0 0 0 .294-2.179c-.558-1.009-1.773-.8-2.623-1.32a4.461 4.461 0 0 1-1.161-1.288" fill="#263238"/></g></g></g><g data-name="Group 396"><path data-name="Path 538" d="M324.699 176.847a3.866 3.866 0 0 0-3.839-3.55l-20.935-3.076c-6.607-.025-10.132 8.467-9.876 15.069.284 7.335.921 16.278 2.339 21.628 2.852 10.757 11.374 11.294 11.374 11.294 0-.038.387 3.6.84 7.57l22.8-4.733Z" fill="#ffbe9d"/></g><g data-name="Group 543"><g data-name="Group 542"><g data-name="Group 541"><g data-name="Group 540"><g data-name="Group 509"><g data-name="Group 508"><g data-name="Group 507"><g data-name="Group 443"><g data-name="Group 411"><g data-name="Group 410"><g data-name="Group 409"><g data-name="Group 408"><g data-name="Group 407"><g data-name="Group 406"><g data-name="Group 405"><g data-name="Group 404"><g data-name="Group 403"><g data-name="Group 402"><g data-name="Group 401"><g data-name="Group 400"><g data-name="Group 399"><g data-name="Group 398"><g data-name="Group 397"><path data-name="Path 539" d="M294.01 194.124a1.41 1.41 0 0 0 1.5 1.277 1.349 1.349 0 0 0 1.317-1.412 1.411 1.411 0 0 0-1.495-1.278 1.349 1.349 0 0 0-1.322 1.413Z" fill="#263238"/></g></g></g></g></g></g></g></g></g></g></g></g></g></g></g><g data-name="Group 426"><g data-name="Group 425"><g data-name="Group 424"><g data-name="Group 423"><g data-name="Group 422"><g data-name="Group 421"><g data-name="Group 420"><g data-name="Group 419"><g data-name="Group 418"><g data-name="Group 417"><g data-name="Group 416"><g data-name="Group 415"><g data-name="Group 414"><g data-name="Group 413"><g data-name="Group 412"><path data-name="Path 540" d="M306.991 193.205a1.409 1.409 0 0 0 1.5 1.277 1.348 1.348 0 0 0 1.317-1.412 1.409 1.409 0 0 0-1.495-1.277 1.349 1.349 0 0 0-1.322 1.412Z" fill="#263238"/></g></g></g></g></g></g></g></g></g></g></g></g></g></g></g><g data-name="Group 442"><g data-name="Group 441"><g data-name="Group 440"><g data-name="Group 439"><g data-name="Group 438"><g data-name="Group 437"><g data-name="Group 436"><g data-name="Group 435"><g data-name="Group 434"><g data-name="Group 433"><g data-name="Group 432"><g data-name="Group 431"><g data-name="Group 430"><g data-name="Group 429"><g data-name="Group 428"><g data-name="Group 427"><path data-name="Path 541" d="M292.665 189.731c.192.165 1.175-.73 2.684-.879 1.505-.171 2.692.492 2.837.291.072-.09-.139-.4-.656-.7a3.871 3.871 0 0 0-2.294-.459 3.713 3.713 0 0 0-2.113.929c-.429.398-.553.745-.458.818Z" fill="#263238"/></g></g></g></g></g></g></g></g></g></g></g></g></g></g></g></g></g><g data-name="Group 460"><g data-name="Group 459"><g data-name="Group 458"><g data-name="Group 457"><g data-name="Group 456"><g data-name="Group 455"><g data-name="Group 454"><g data-name="Group 453"><g data-name="Group 452"><g data-name="Group 451"><g data-name="Group 450"><g data-name="Group 449"><g data-name="Group 448"><g data-name="Group 447"><g data-name="Group 446"><g data-name="Group 445"><g data-name="Group 444"><path data-name="Path 542" d="M306.761 188.836c.193.165 1.176-.729 2.685-.879 1.505-.171 2.693.492 2.837.291.072-.09-.137-.4-.657-.7a3.865 3.865 0 0 0-2.294-.459 3.72 3.72 0 0 0-2.113.928c-.427.399-.549.746-.458.819Z" fill="#263238"/></g></g></g></g></g></g></g></g></g></g></g></g></g></g></g></g></g><g data-name="Group 476"><g data-name="Group 475"><g data-name="Group 474"><g data-name="Group 473"><g data-name="Group 472"><g data-name="Group 471"><g data-name="Group 470"><g data-name="Group 469"><g data-name="Group 468"><g data-name="Group 467"><g data-name="Group 466"><g data-name="Group 465"><g data-name="Group 464"><g data-name="Group 463"><g data-name="Group 462"><g data-name="Group 461"><path data-name="Path 543" d="M303.191 200.244a10.087 10.087 0 0 0-2.5-.192c-.389 0-.762-.04-.853-.3a1.966 1.966 0 0 1 .14-1.168l.84-3.051c1.156-4.339 1.952-7.891 1.776-7.936s-1.255 3.435-2.411 7.774l-.79 3.063a2.243 2.243 0 0 0-.046 1.533.974.974 0 0 0 .691.5 2.618 2.618 0 0 0 .664.024 9.836 9.836 0 0 0 2.489-.247Z" fill="#263238"/></g></g></g></g></g></g></g></g></g></g></g></g></g></g></g></g><g data-name="Group 491"><g data-name="Group 490"><g data-name="Group 489"><g data-name="Group 488"><g data-name="Group 487"><g data-name="Group 486"><g data-name="Group 485"><g data-name="Group 484"><g data-name="Group 483"><g data-name="Group 482"><g data-name="Group 481"><g data-name="Group 480"><g data-name="Group 479"><g data-name="Group 478"><g data-name="Group 477"><path data-name="Path 544" d="M303.632 218.211a27.961 27.961 0 0 0 14.245-5.4s-2.9 8-13.952 8.091Z" fill="#eb996e"/></g></g></g></g></g></g></g></g></g></g></g></g></g></g></g><g data-name="Group 506"><g data-name="Group 505"><g data-name="Group 504"><g data-name="Group 503"><g data-name="Group 502"><g data-name="Group 501"><g data-name="Group 500"><g data-name="Group 499"><g data-name="Group 498"><g data-name="Group 497"><g data-name="Group 496"><g data-name="Group 495"><g data-name="Group 494"><g data-name="Group 493"><g data-name="Group 492"><path data-name="Path 545" d="M303.638 204.127a12.617 12.617 0 0 1 3.888-2.515c.785-.177.688.746 1.192 1.4a2.429 2.429 0 0 1 .2 2.511 2.664 2.664 0 0 1-2.36 1.556c-.889-.118-1.707-1.022-2.443-1.549a1.751 1.751 0 0 1-.542-.528.8.8 0 0 1-.016-.793" fill="#eb996e"/></g></g></g></g></g></g></g></g></g></g></g></g></g></g></g></g></g></g><g data-name="Group 524"><g data-name="Group 523"><g data-name="Group 522"><g data-name="Group 521"><g data-name="Group 520"><g data-name="Group 519"><g data-name="Group 518"><g data-name="Group 517"><g data-name="Group 516"><g data-name="Group 515"><g data-name="Group 514"><g data-name="Group 513"><g data-name="Group 512"><g data-name="Group 511"><g data-name="Group 510"><path data-name="Path 546" d="M306.767 183.981c.191.395 1.678.047 3.47.079 1.793 0 3.274.37 3.471-.023.087-.187-.2-.547-.819-.886a6.034 6.034 0 0 0-5.288-.044c-.624.33-.918.686-.834.874Z" fill="#263238"/></g></g></g></g></g></g></g></g></g></g></g></g></g></g></g><g data-name="Group 539"><g data-name="Group 538"><g data-name="Group 537"><g data-name="Group 536"><g data-name="Group 535"><g data-name="Group 534"><g data-name="Group 533"><g data-name="Group 532"><g data-name="Group 531"><g data-name="Group 530"><g data-name="Group 529"><g data-name="Group 528"><g data-name="Group 527"><g data-name="Group 526"><g data-name="Group 525"><path data-name="Path 547" d="M292.775 185.307c.3.315 1.3-.146 2.552-.291 1.243-.187 2.332 0 2.539-.388.089-.185-.113-.511-.609-.789a3.718 3.718 0 0 0-4.1.547c-.407.398-.513.766-.382.921Z" fill="#263238"/></g></g></g></g></g></g></g></g></g></g></g></g></g></g></g></g></g></g></g><g data-name="Group 545"><g data-name="Group 544"><path data-name="Path 548" d="M326.176 188.046a1.839 1.839 0 0 1-.293 2.15 1.268 1.268 0 0 1-1.845-.3c-.406.695-1.573.161-1.515-.692-.555.4-1.417-.313-1.308-1.075-.658.34-1.188-.724-1.629-1.426a11.727 11.727 0 0 0-.828-1.051 7.722 7.722 0 0 1-1.585-4 7.558 7.558 0 0 1-1.746-3.892l-.637-2.684-.577-.575a1.488 1.488 0 0 1-.821 1.521 3.178 3.178 0 0 1-1.652.159l-1.66-.134-.98.409a4.138 4.138 0 0 1 0 2.682 2.57 2.57 0 0 1-.773 1.584.773.773 0 0 1-1.164-.7.857.857 0 0 1-1.342-.059 2.81 2.81 0 0 1-.555-1.634 7.2 7.2 0 0 1 .858-4.089l-2.524 2.965a1.326 1.326 0 0 1-.644.5.751.751 0 0 1-.7.914 1.949 1.949 0 0 1-1.125-.589c-.769-.645-1.637-1.791-1.116-2.675a.616.616 0 0 1-.373-.864l-2.928 2.8c.3-.222.708.235.685.658a1.713 1.713 0 0 1-.56 1.025 2.521 2.521 0 0 1 .541 1.478c.517-.583 1.492.278 1.4 1.128a1.825 1.825 0 0 1-1.544 1.515 1.269 1.269 0 0 1-1.534-.773c-.687.229-1.475-.662-1.313-1.485-.469.4-1.02-.466-1.127-1.154a10.006 10.006 0 0 1 .138-3.786c.04.176-.142.347-.279.264a.275.275 0 0 1 0-.43l-1.311 4.611a10.353 10.353 0 0 0-.575 3.779c.049.527.07 1.255-.365 1.352a.662.662 0 0 1-.358-.052 6.632 6.632 0 0 1-3.269-3.033 5 5 0 0 1-.618-1.5 21.479 21.479 0 0 1 .074-3.4 11.133 11.133 0 0 1-.07-1.5 4.515 4.515 0 0 1 .939-2.079c1.5-2.193 3.093-4.467 5.316-5.532 1.358-.651 2.87-.805 4.233-1.443a25.586 25.586 0 0 0 2.415-1.457 21.707 21.707 0 0 1 10.927-2.77 17.882 17.882 0 0 1 6.311.757 21.665 21.665 0 0 1 6.271 3.792 33.043 33.043 0 0 1 7.8 8.374 16.163 16.163 0 0 1 2.626 8.842c-.114 3.141-1.707 6.252-4.223 7.18l-1.148-1.055" fill="#263238"/></g></g><g data-name="Group 557"><g data-name="Group 556"><g data-name="Group 555"><g data-name="Group 554"><g data-name="Group 553"><g data-name="Group 552"><g data-name="Group 551"><g data-name="Group 550"><g data-name="Group 549"><g data-name="Group 548"><g data-name="Group 547"><g data-name="Group 546"><path data-name="Path 549" d="M323.415 190.465c.143-.086 5.871-2.616 6.481 3.49s-5.645 5.458-5.673 5.284-.808-8.774-.808-8.774Z" fill="#ffbe9d"/></g></g></g></g></g></g></g></g></g></g></g></g><g data-name="Group 570"><g data-name="Group 569"><g data-name="Group 568"><g data-name="Group 567"><g data-name="Group 566"><g data-name="Group 565"><g data-name="Group 564"><g data-name="Group 563"><g data-name="Group 562"><g data-name="Group 561"><g data-name="Group 560"><g data-name="Group 559"><g data-name="Group 558"><path data-name="Path 550" d="M325.858 196.738c.025-.023.114.063.3.128a1.068 1.068 0 0 0 .8-.063 2.645 2.645 0 0 0 .981-2.483 3.527 3.527 0 0 0-.45-1.493 1.232 1.232 0 0 0-.882-.736.543.543 0 0 0-.6.354c-.065.179-.014.3-.045.31-.016.017-.141-.089-.118-.346a.684.684 0 0 1 .2-.407.809.809 0 0 1 .573-.214 1.5 1.5 0 0 1 1.206.835 3.623 3.623 0 0 1 .539 1.665 2.776 2.776 0 0 1-1.288 2.792 1.146 1.146 0 0 1-.989-.064c-.201-.13-.247-.263-.227-.278Z" fill="#eb996e"/></g></g></g></g></g></g></g></g></g></g></g></g></g><g data-name="Group 573"><g data-name="Group 572"><g data-name="Group 571"><path data-name="Path 551" d="M300.315 173.395a1.535 1.535 0 0 1-.5-.74 1.084 1.084 0 0 1 .175-.949 1.158 1.158 0 0 1 1.133-.428l.263.058-.136-.234a1.211 1.211 0 0 1 .173-1.386 1.188 1.188 0 0 1 1.522-.112l.18-.211a.534.534 0 0 1-.1-.144.685.685 0 0 1 .035-.585.785.785 0 0 1 .461-.368 1.305 1.305 0 0 1 .613-.04 1.663 1.663 0 0 0 .7.077c.286-.084.392-.314.531-.428a2.31 2.31 0 0 1 .44-.344 2.62 2.62 0 0 1 .955-.331 2.686 2.686 0 0 1 1.458.186c.324.143.48.274.5.253a1.22 1.22 0 0 0-.449-.35 2.623 2.623 0 0 0-1.53-.284 2.755 2.755 0 0 0-1.045.327 2.474 2.474 0 0 0-.5.369c-.163.147-.277.327-.424.355a1.629 1.629 0 0 1-.591-.09 1.554 1.554 0 0 0-.744.042 1.055 1.055 0 0 0-.621.5.956.956 0 0 0-.044.829.813.813 0 0 0 .161.229l.18-.211a1.408 1.408 0 0 0-2.067 1.839l.127-.176a1.354 1.354 0 0 0-1.339.544 1.264 1.264 0 0 0 .254 1.688c.139.1.224.124.229.115Z" fill="#455a64"/></g></g></g><g data-name="Group 576"><g data-name="Group 575"><g data-name="Group 574"><path data-name="Path 552" d="M293.695 175.904a1.881 1.881 0 0 1-.6-.706 1.373 1.373 0 0 1-.051-1.039 1.436 1.436 0 0 1 .987-.9l.193-.047-.149-.135a1.712 1.712 0 0 1-.629-1.439.92.92 0 0 1 .481-.676.73.73 0 0 1 .82.019l.868.741-.675-.922a1.423 1.423 0 0 1-.206-1.182 1.31 1.31 0 0 1 .855-.911 1.392 1.392 0 0 1 .922-.009l.336.121-.168-.316a.9.9 0 0 1 .648-1.16 2.339 2.339 0 0 1 1.484.2l.279.113-.114-.275a1.012 1.012 0 0 1 .223-1.01 1.875 1.875 0 0 1 .89-.518 4.752 4.752 0 0 1 1.757-.15 7.616 7.616 0 0 1 1.528.367 1.3 1.3 0 0 0-.369-.2 4.5 4.5 0 0 0-1.142-.311 4.719 4.719 0 0 0-1.831.1 2.064 2.064 0 0 0-1.006.565 1.242 1.242 0 0 0-.282 1.258l.164-.162a2.556 2.556 0 0 0-1.654-.229 1.285 1.285 0 0 0-.747.566.984.984 0 0 0-.071.982l.169-.2a1.664 1.664 0 0 0-1.109.007 1.583 1.583 0 0 0-1.028 1.1 1.684 1.684 0 0 0 .257 1.41l.193-.182a.987.987 0 0 0-1.118-.038 1.168 1.168 0 0 0-.6.864 1.919 1.919 0 0 0 .732 1.633l.044-.182a1.6 1.6 0 0 0-1.1 1.048 1.518 1.518 0 0 0 .584 1.692.532.532 0 0 0 .235.113Z" fill="#455a64"/></g></g></g><g data-name="Group 579"><g data-name="Group 578"><g data-name="Group 577"><path data-name="Path 553" d="M279.148 178.776a1.033 1.033 0 0 1 .272-.788 1.32 1.32 0 0 1 .873-.427 3.918 3.918 0 0 1 1.338.166l.157.039-.039-.16a1.189 1.189 0 0 1 .835-1.255 3.453 3.453 0 0 1 1.974.1l.887.225-.789-.463a.976.976 0 0 1-.078-1.4 2.215 2.215 0 0 1 1.66-.59h.083l.544-.01-.482-.253a1.048 1.048 0 0 1-.064-1.659 1.587 1.587 0 0 1 1.773-.022l.61.382-.442-.569a2.374 2.374 0 0 1-.256-2.4 2.213 2.213 0 0 1 1.505-1.208 2.5 2.5 0 0 1 1.307.025c.3.09.442.18.452.163s-.03-.032-.1-.078a1.652 1.652 0 0 0-.327-.163 2.448 2.448 0 0 0-1.368-.1 2.363 2.363 0 0 0-1.664 1.268 2.586 2.586 0 0 0 .248 2.649l.169-.186a1.837 1.837 0 0 0-2.079.026 1.333 1.333 0 0 0-.483 1.064 1.173 1.173 0 0 0 .591 1.055l.062-.263h-.088a2.461 2.461 0 0 0-1.864.692 1.415 1.415 0 0 0-.315.948 1.019 1.019 0 0 0 .468.855l.1-.239a3.629 3.629 0 0 0-2.12-.065 1.4 1.4 0 0 0-.943 1.521l.119-.12a3.948 3.948 0 0 0-1.4-.128 1.418 1.418 0 0 0-.937.511.99.99 0 0 0-.239.63.416.416 0 0 0 .05.227Z" fill="#455a64"/></g></g></g><g data-name="Group 582"><g data-name="Group 581"><g data-name="Group 580"><path data-name="Path 554" d="M285.318 163.956a.815.815 0 0 0 .376.09 4.708 4.708 0 0 0 1.073-.061 3.187 3.187 0 0 1 1.56.063.98.98 0 0 1 .609.609.711.711 0 0 1-.192.835l.2.113c.018-.359.43-.63.8-.906a4.6 4.6 0 0 1 1.226-.693 1.666 1.666 0 0 1 1.329.059 1.106 1.106 0 0 1 .676.952l-.006.342.233-.253a3.07 3.07 0 0 1 1.712-.935 3.454 3.454 0 0 1 1.561.054 4.389 4.389 0 0 1 1.26.624c.008-.009-.077-.113-.266-.275a2.943 2.943 0 0 0-.949-.5 3.481 3.481 0 0 0-1.644-.117 3.244 3.244 0 0 0-1.867.976l.226.089a1.365 1.365 0 0 0-.812-1.2 1.933 1.933 0 0 0-1.54-.078 4.779 4.779 0 0 0-1.3.738 5.766 5.766 0 0 0-.554.449 1.009 1.009 0 0 0-.342.666l-.01.263.213-.15a.956.956 0 0 0 .274-1.132 1.212 1.212 0 0 0-.759-.732 3.224 3.224 0 0 0-1.664-.016 6.042 6.042 0 0 1-1.045.134 3.35 3.35 0 0 0-.378-.008Z" fill="#455a64"/></g></g></g><g data-name="Group 585"><g data-name="Group 584"><g data-name="Group 583"><path data-name="Path 555" d="M298.369 157.193a2.877 2.877 0 0 1 .732.021 1.756 1.756 0 0 1 .735.361 1.508 1.508 0 0 1 .54.876l.029.148.135-.064a.913.913 0 0 1 1.066.455 2.767 2.767 0 0 1 .219 1.511l-.025.548.287-.479.045-.075a1.176 1.176 0 0 1 .9-.494 1.313 1.313 0 0 1 .942.293 2.091 2.091 0 0 1 .729 1.563 3.862 3.862 0 0 1-.178 1.222 2.106 2.106 0 0 0-.122.45 1.215 1.215 0 0 0 .224-.414 3.413 3.413 0 0 0 .272-1.261 2.253 2.253 0 0 0-.766-1.759 1.542 1.542 0 0 0-2.237.25l-.058.1.262.069a2.942 2.942 0 0 0-.27-1.66 1.147 1.147 0 0 0-1.392-.528l.164.083a1.677 1.677 0 0 0-.653-.981 1.791 1.791 0 0 0-.828-.344 1.459 1.459 0 0 0-.572.029c-.122.041-.183.07-.18.08Z" fill="#455a64"/></g></g></g><g data-name="Group 588"><g data-name="Group 587"><g data-name="Group 586"><path data-name="Path 556" d="M311.293 164.229c.005.015.138-.01.353-.121a2.306 2.306 0 0 0 .765-.677 2.458 2.458 0 0 0 .478-1.448 1.263 1.263 0 0 1 .1-.769c.136-.21.458-.369.63-.71a1.388 1.388 0 0 0-.557-1.818l.034.2a4.448 4.448 0 0 0 1-1.761 1.8 1.8 0 0 0 .111-.772 7.515 7.515 0 0 0-.256.724 4.882 4.882 0 0 1-1.035 1.635l-.119.123.153.077a1.144 1.144 0 0 1 .426 1.465c-.115.252-.4.392-.608.685a1.446 1.446 0 0 0-.13.927 2.361 2.361 0 0 1-.384 1.331 3.492 3.492 0 0 1-.961.909Z" fill="#455a64"/></g></g></g><g data-name="Group 591"><g data-name="Group 590"><g data-name="Group 589"><path data-name="Path 557" d="M315.095 166.263c0 .012.082.017.234.008a3.108 3.108 0 0 0 .647-.128 3.691 3.691 0 0 0 1.906-1.375l-.178.016a2.378 2.378 0 0 0 1.71.678 2.469 2.469 0 0 0 1.013-.233 1.512 1.512 0 0 0 .8-.782 3.031 3.031 0 0 0 .066-.408.55.55 0 0 1 .145-.275 1.725 1.725 0 0 1 .6-.351 2.214 2.214 0 0 0 .677-.367.789.789 0 0 0 .316-.72l-.161.14a2.444 2.444 0 0 0 1.684-.144 2.648 2.648 0 0 0 1.027-.812 2.192 2.192 0 0 0 .378-.757.732.732 0 0 0 .036-.3 3.476 3.476 0 0 1-.531.96 2.6 2.6 0 0 1-.993.715 2.265 2.265 0 0 1-1.527.1l-.193-.058.032.2a.539.539 0 0 1-.238.48 1.985 1.985 0 0 1-.608.316 1.941 1.941 0 0 0-.7.413.821.821 0 0 0-.215.41 3.7 3.7 0 0 1-.059.377 1.276 1.276 0 0 1-.657.62 2.23 2.23 0 0 1-.9.214 2.165 2.165 0 0 1-1.541-.577l-.1-.1-.078.115a3.751 3.751 0 0 1-1.758 1.381c-.514.191-.838.213-.834.244Z" fill="#455a64"/></g></g></g><g data-name="Group 594"><g data-name="Group 593"><g data-name="Group 592"><path data-name="Path 558" d="M337.75 172.355c.006 0 .013-.033.022-.1a1.569 1.569 0 0 0 .014-.291 2.926 2.926 0 0 0-.251-1.08 6.543 6.543 0 0 0-.909-1.464 6.019 6.019 0 0 0-.706-.8 1.641 1.641 0 0 0-.519-.317.733.733 0 0 0-.675.075l.185.093a1.842 1.842 0 0 0-3.158-1.267l.234.084a1.274 1.274 0 0 0-.624-.976 1.219 1.219 0 0 0-1.19-.015 1.247 1.247 0 0 0-.5.469l.258.066a.791.791 0 0 0-.36-.616 1.084 1.084 0 0 0-.65-.192 2.5 2.5 0 0 0-1.145.43l.174.034a1.976 1.976 0 0 0-1.283-.7 2.763 2.763 0 0 0-1.349.148 7 7 0 0 0-1.962 1.26l.158.108a.487.487 0 0 0-.107-.473.838.838 0 0 0-.369-.222 1.42 1.42 0 0 0-.746-.031 4.01 4.01 0 0 0-1.06.451 3.617 3.617 0 0 0-.58.434c-.121.113-.175.182-.169.188s.263-.229.8-.525a4.172 4.172 0 0 1 1.04-.392 1.275 1.275 0 0 1 .653.047c.22.071.421.249.342.464l-.117.32.275-.212a7 7 0 0 1 1.918-1.188 2.531 2.531 0 0 1 1.23-.122 1.723 1.723 0 0 1 1.109.612l.071.093.1-.059a2.273 2.273 0 0 1 1.018-.388c.33-.017.718.224.725.541l.01.49.249-.424a.975.975 0 0 1 .385-.362.943.943 0 0 1 .921.008 1 1 0 0 1 .492.76l.024.3.21-.215a1.628 1.628 0 0 1 1.8-.333 1.648 1.648 0 0 1 .927 1.413v.229l.181-.136c.276-.206.66-.005.92.215a6.157 6.157 0 0 1 .7.761 6.8 6.8 0 0 1 .934 1.4 3.706 3.706 0 0 1 .35 1.407Z" fill="#455a64"/></g></g></g><g data-name="Group 597"><g data-name="Group 596"><g data-name="Group 595"><path data-name="Path 559" d="M337.09 180.587c.009 0 .05-.061.119-.19a4.309 4.309 0 0 0 .263-.589 1.972 1.972 0 0 0 .11-1.032 1.441 1.441 0 0 0-.277-.608 1.038 1.038 0 0 0-.654-.4l.073.142a1.293 1.293 0 0 0-1.588-1.822l.149.181a1.04 1.04 0 0 0-.174-1.221 1.543 1.543 0 0 0-1.235-.42 6.016 6.016 0 0 1-.616.066.531.531 0 0 1-.417-.288 2.26 2.26 0 0 0-.421-.555 1.2 1.2 0 0 0-.688-.287 6.872 6.872 0 0 0-1.471.125 1.6 1.6 0 0 1-1.226-.215 6.16 6.16 0 0 1-.435-.485 1.382 1.382 0 0 0-.6-.368 1.457 1.457 0 0 0-1.281.211l.18.153a1.1 1.1 0 0 0-.288-1.252 1.55 1.55 0 0 0-1.087-.4 4.929 4.929 0 0 0-1.776.421 6.017 6.017 0 0 0-1.031.55 1.391 1.391 0 0 0-.326.256 14.063 14.063 0 0 1 1.409-.673 5.016 5.016 0 0 1 1.719-.354 1.353 1.353 0 0 1 .935.357.876.876 0 0 1 .229.982l-.245.464.425-.311a1.218 1.218 0 0 1 1.06-.158 1.126 1.126 0 0 1 .488.3 5.605 5.605 0 0 0 .454.51 1.445 1.445 0 0 0 .695.292 3.225 3.225 0 0 0 .735-.009 6.865 6.865 0 0 1 1.408-.122.921.921 0 0 1 .539.221 2.065 2.065 0 0 1 .374.5.809.809 0 0 0 .626.406 5.3 5.3 0 0 0 .653-.069 1.286 1.286 0 0 1 1.026.328.792.792 0 0 1 .154.913l-.186.306.335-.125a1.1 1.1 0 0 1 1.226.352 1.119 1.119 0 0 1 .1 1.146l-.063.124.136.018a1.056 1.056 0 0 1 .807.845 1.939 1.939 0 0 1-.061.967c-.163.53-.305.807-.281.817Z" fill="#455a64"/></g></g></g><g data-name="Group 600"><g data-name="Group 599"><g data-name="Group 598"><path data-name="Path 560" d="M338.452 197.405a.633.633 0 0 0 .258-.116 1.905 1.905 0 0 0 .575-.565 1.972 1.972 0 0 0 .336-1.217 2.106 2.106 0 0 0-.733-1.476l.028.146a3.831 3.831 0 0 0 .567-1.448 1.566 1.566 0 0 0-.16-.874 1.141 1.141 0 0 0-.727-.611l.054.24a1.611 1.611 0 0 0 .531-1.513 1.8 1.8 0 0 0-.382-.868 1.517 1.517 0 0 0-.775-.491c-.276-.087-.41-.2-.447-.463a2.2 2.2 0 0 0-.273-.786 2.8 2.8 0 0 0-1.146-.987c-.4-.227-.77-.443-1.118-.629a4.618 4.618 0 0 0-1.768-.606 2.147 2.147 0 0 0-.512.013c-.115.023-.174.039-.172.048 0 .028.245-.023.671.046a4.961 4.961 0 0 1 1.686.671l1.1.655a2.6 2.6 0 0 1 1.042.918 1.948 1.948 0 0 1 .234.709.8.8 0 0 0 .2.437 1.079 1.079 0 0 0 .415.23 1.434 1.434 0 0 1 .546 2.4l-.219.172.272.068a1.1 1.1 0 0 1 .694 1.195 3.692 3.692 0 0 1-.514 1.36l-.045.086.073.06a1.933 1.933 0 0 1 .693 1.311 1.881 1.881 0 0 1-.262 1.132 2.759 2.759 0 0 1-.722.753Z" fill="#455a64"/></g></g></g><g data-name="Group 603"><g data-name="Group 602"><g data-name="Group 601"><path data-name="Path 561" d="M329.048 191.179a1.105 1.105 0 0 0 .369-.121 3.468 3.468 0 0 0 .912-.609 3.678 3.678 0 0 0 .958-1.405 1.483 1.483 0 0 0 .071-1.081.73.73 0 0 0-.473-.424.586.586 0 0 0-.659.186l.221.1a1.871 1.871 0 0 0 .073-1.08.889.889 0 0 0-.387-.483.742.742 0 0 0-.642-.02 1.1 1.1 0 0 1-.468.116c-.1-.02-.139-.145-.149-.352a1.694 1.694 0 0 0-.594-1.115 1.824 1.824 0 0 0-1.929-.331l.193.143a1.571 1.571 0 0 0-.452-1.487.956.956 0 0 0-.772-.154.711.711 0 0 0-.564.516l.239.023a3.758 3.758 0 0 0-.689-1.958 3.908 3.908 0 0 0-1.161-1.1 3.448 3.448 0 0 0-.944-.4 1.139 1.139 0 0 0-.359-.052 5.554 5.554 0 0 1 1.226.575 3.919 3.919 0 0 1 1.074 1.091 3.611 3.611 0 0 1 .611 1.854l.043 1.007.2-.985c.068-.34.638-.452.943-.21a1.325 1.325 0 0 1 .34 1.241l-.04.253.233-.11a1.56 1.56 0 0 1 1.63.295 1.417 1.417 0 0 1 .5.931 1.177 1.177 0 0 0 .06.323.436.436 0 0 0 .3.269 1.194 1.194 0 0 0 .622-.126.47.47 0 0 1 .424 0 .633.633 0 0 1 .271.337 1.676 1.676 0 0 1-.066.931l-.183.7.4-.6c.159-.235.631-.091.72.185a1.3 1.3 0 0 1-.053.921 3.671 3.671 0 0 1-.868 1.37 5.312 5.312 0 0 1-1.181.836Z" fill="#455a64"/></g></g></g><g data-name="Group 606"><g data-name="Group 605"><g data-name="Group 604"><path data-name="Path 562" d="M313.399 175.695a2.085 2.085 0 0 0 .78-.415 2.327 2.327 0 0 0 .67-.723 1.529 1.529 0 0 0 .138-1.226 1.177 1.177 0 0 0-.144-.275l-.037.2a1.321 1.321 0 0 0 .578-.984 1.208 1.208 0 0 0-.274-.875c-.349-.407-.71-.411-.7-.385-.019.041.294.118.554.5a1.066 1.066 0 0 1 .178.737 1.111 1.111 0 0 1-.482.777l-.115.075.078.122a.913.913 0 0 1 .107.209 1.327 1.327 0 0 1-.1 1.012 2.419 2.419 0 0 1-.567.69c-.408.334-.69.524-.664.561Z" fill="#455a64"/></g></g></g><g data-name="Group 609"><g data-name="Group 608"><g data-name="Group 607"><path data-name="Path 563" d="M306.668 173.426a1.625 1.625 0 0 1-.3-.986 1.15 1.15 0 0 1 .554-.934 1.244 1.244 0 0 1 1.339.061l.19.144.02-.239a2.264 2.264 0 0 1 .225-.847 1.046 1.046 0 0 1 .634-.567c.433-.108.972.247.891.624l.266.024a2.109 2.109 0 0 1 .606-1.455 2.061 2.061 0 0 1 1.131-.582 3.2 3.2 0 0 1 1.177.082c.006-.012-.089-.08-.291-.152a2.1 2.1 0 0 0-.909-.1 2.172 2.172 0 0 0-1.269.585 2.31 2.31 0 0 0-.712 1.619l.266.024a.778.778 0 0 0-.361-.77 1.1 1.1 0 0 0-.856-.172 1.3 1.3 0 0 0-.816.713 2.474 2.474 0 0 0-.243.952l.21-.1a1.461 1.461 0 0 0-1.612-.042 1.311 1.311 0 0 0-.6 1.118 1.341 1.341 0 0 0 .248.791c.112.164.205.218.212.209Z" fill="#455a64"/></g></g></g><g data-name="Group 611"><g data-name="Group 610"><path data-name="Path 564" d="M306.188 207.114a1.167 1.167 0 0 0 .494 0 3.465 3.465 0 0 0 1.257-.489 3.415 3.415 0 0 0 .727-.6 2.266 2.266 0 0 0 .546-.949 3.278 3.278 0 0 0-.526-2.39 3.98 3.98 0 0 0-1.1-1.166l-.049-.033-.054.023a13.013 13.013 0 0 0-2.869 1.726 9.455 9.455 0 0 0-.741.632 1.115 1.115 0 0 0-.236.262c.021.023.389-.3 1.064-.778a14.944 14.944 0 0 1 2.864-1.63l-.1-.012a3.85 3.85 0 0 1 1.027 1.1 3.129 3.129 0 0 1 .515 2.214 2.7 2.7 0 0 1-1.154 1.458 3.79 3.79 0 0 1-1.183.539c-.307.066-.482.071-.482.093Z" fill="#263238"/></g></g></g><g data-name="Group 624"><g data-name="Group 614"><g data-name="Group 613"><path data-name="Path 565" d="M270.739 234.933s12.826 28.791 14.625 30.19c.364.283 2.459 2.768 5.571 2.844 12.271.3 40.346 2.625 40.346 2.625l3.922-16.26-33.714-2.415-16.977-23.077Z" fill="#ff4747"/></g></g><g data-name="Group 615"><path data-name="Path 566" d="M309.323 256.336s-18.54 29.263-20.3 31.483c-3.889 4.9-9.078 7.473-16.383 5.481s-26.743-12.581-26.743-12.581l5.815-13.233 22.746 4.849 17.586-35.25a16.355 16.355 0 0 1 9.088-8.459c2.749-1.005 6.09-2.3 9.742-.888Z" fill="#ff4747"/></g><g data-name="Group 616"><path data-name="Path 567" d="m305.306 226.256 21.586-3.753c3.844-.668 14.993 5.564 17.463 11.34l16.218 62.677h-52.908l-2.44-17.743s-7.367-8.223-8.739-9.926 8.82-42.595 8.82-42.595Z" fill="#ff4747"/></g><g data-name="Group 617"><path data-name="Path 568" d="m304.535 227.739-.836-5.4a1.776 1.776 0 0 1 1.477-2.026l22.273-3.524a1.775 1.775 0 0 1 2.034 1.5l.919 6.324Z" fill="#ff4747"/></g><g data-name="Group 619"><g data-name="Group 618"><path data-name="Path 569" d="M304.541 227.396a2.2 2.2 0 0 1-.33.146l-.975.382-3.693 1.4h.01a17.023 17.023 0 0 0-3.491 2.494 17.9 17.9 0 0 0-3.235 4.17c-.962 1.655-1.866 3.5-2.836 5.424l-3 6.026-8.772 17.655a391.27 391.27 0 0 1-2.716 5.321 57.663 57.663 0 0 1-.766 1.433l-.208.368a.528.528 0 0 1-.079.121.561.561 0 0 1 .054-.134l.183-.381.719-1.456 2.636-5.36 8.7-17.691 3-6.024c.976-1.921 1.887-3.766 2.865-5.429a17.917 17.917 0 0 1 3.3-4.2 16.85 16.85 0 0 1 3.557-2.483h.005l3.719-1.333.99-.343a2.228 2.228 0 0 1 .363-.106Z" fill="#263238"/></g></g><g data-name="Group 621"><g data-name="Group 620"><path data-name="Path 570" d="M312.506 252.14a.977.977 0 0 1-.136.233l-.435.637-1.619 2.324c-1.366 1.963-3.225 4.695-5.224 7.747s-3.768 5.845-5.047 7.866l-1.519 2.392-.423.644a.99.99 0 0 1-.164.215 1 1 0 0 1 .115-.244l.378-.672c.333-.581.826-1.414 1.444-2.439 1.237-2.049 2.978-4.86 4.982-7.915s3.888-5.772 5.3-7.708c.7-.969 1.283-1.744 1.693-2.274l.477-.606c.108-.132.17-.2.178-.2Z" fill="#263238"/></g></g><g data-name="Group 623"><g data-name="Group 622"><path data-name="Path 571" d="M330.303 223.076a1.023 1.023 0 0 1-.224.155l-.669.4c-.291.174-.651.377-1.082.588s-.912.477-1.469.713-1.157.521-1.824.768c-.658.272-1.383.5-2.141.761a36.554 36.554 0 0 1-10.244 1.717c-.8.005-1.562.021-2.273-.021a27.675 27.675 0 0 1-1.975-.131c-.6-.042-1.145-.133-1.621-.2s-.884-.134-1.215-.2l-.762-.157a.137.137 0 1 1 .01-.056l.77.105c.333.052.741.111 1.217.155s1.016.125 1.617.154c.6.044 1.257.09 1.965.1.707.032 1.463.008 2.258 0a38.591 38.591 0 0 0 10.174-1.706c.755-.248 1.478-.471 2.136-.732.667-.237 1.274-.495 1.826-.733s1.044-.472 1.479-.672.8-.386 1.1-.544l.693-.35a1.013 1.013 0 0 1 .254-.114Z" fill="#263238"/></g></g></g><g data-name="Group 626"><g data-name="Group 625"><path data-name="Path 572" d="M301.453 267.843a5.115 5.115 0 0 1-.752-.434l-2-1.259-6.6-4.158c-2.576-1.627-4.9-3.12-6.557-4.23-.831-.554-1.5-1.01-1.953-1.334a5.2 5.2 0 0 1-.692-.524 5.144 5.144 0 0 1 .753.434l2 1.259 6.6 4.159c2.575 1.626 4.9 3.119 6.556 4.23.83.554 1.5 1.01 1.953 1.333a5.222 5.222 0 0 1 .692.524Z" fill="#fff"/></g></g><g data-name="Group 628"><g data-name="Group 627"><path data-name="Path 573" d="M305.223 262.019a5.419 5.419 0 0 1-.794-.412c-.5-.28-1.22-.7-2.1-1.234-1.761-1.062-4.154-2.594-6.8-4.28s-5.065-3.164-6.848-4.183c-.891-.51-1.615-.918-2.118-1.194a5.524 5.524 0 0 1-.767-.459 5.374 5.374 0 0 1 .818.362c.519.247 1.259.629 2.164 1.118 1.811.977 4.256 2.431 6.9 4.119l6.75 4.349 2.052 1.309a5.546 5.546 0 0 1 .743.505Z" fill="#fff"/></g></g><g data-name="Group 630"><g data-name="Group 629"><path data-name="Path 574" d="M353.614 269.618a.5.5 0 0 1-.134.032l-.4.064-1.531.219c-1.33.189-3.259.427-5.645.7-4.772.54-11.382 1.131-18.693 1.623s-13.938.839-18.733 1.1l-5.678.294-1.544.069-.4.011a.49.49 0 0 1-.137-.006.5.5 0 0 1 .136-.023l.4-.039 1.542-.121 5.673-.382 18.725-1.177c7.308-.492 13.916-1.051 18.691-1.542 2.388-.243 4.32-.451 5.653-.606l1.537-.167.4-.036a.529.529 0 0 1 .138-.013Z" fill="#fff"/></g></g><g data-name="Group 632"><g data-name="Group 631"><path data-name="Path 575" d="M351.153 260.105a3.054 3.054 0 0 1-.477.054l-1.369.1-5.036.342c-4.251.292-10.122.73-16.6 1.29s-12.34 1.13-16.581 1.551l-5.023.495-1.367.125a3.044 3.044 0 0 1-.479.024 3.035 3.035 0 0 1 .472-.081l1.361-.176 5.014-.583c4.236-.472 10.1-1.073 16.577-1.634s12.355-.967 16.611-1.209c2.128-.121 3.851-.207 5.042-.254l1.372-.048a3.057 3.057 0 0 1 .483.004Z" fill="#fff"/></g></g><g data-name="Group 634" opacity=".3"><g data-name="Group 633"><path data-name="Path 576" d="M299.313 272.124a21.8 21.8 0 0 0 10.306-16.091Z"/></g></g></g></g><g data-name="Group 893"><g data-name="Group 651"><g data-name="Group 648"><g data-name="Group 640"><g data-name="Group 637"><path data-name="Path 577" d="m43.116 185.359 14.734 74.776a7.727 7.727 0 0 0 9.257 6.049l93.675-20.819a7.727 7.727 0 0 0 5.916-8.976l-13.582-71.898a7.726 7.726 0 0 0-9.028-6.158l-94.831 17.94a7.726 7.726 0 0 0-6.141 9.086Z" fill="#fafafa"/></g><g data-name="Group 639"><g data-name="Group 638"><path data-name="Path 578" d="M43.115 185.359s-.017-.083-.044-.25a6.084 6.084 0 0 1-.094-.748 7.388 7.388 0 0 1 .357-2.926 8.28 8.28 0 0 1 .962-1.958 7.823 7.823 0 0 1 1.833-1.886 7.721 7.721 0 0 1 2.783-1.282c1.072-.241 2.22-.435 3.432-.674l41.1-7.82 28.381-5.386 15.812-3 4.106-.778 2.074-.393c.343-.073.708-.106 1.062-.158a8.751 8.751 0 0 1 1.081-.009 7.847 7.847 0 0 1 4.073 1.4 7.791 7.791 0 0 1 2.743 3.4 10.271 10.271 0 0 1 .582 2.14l.411 2.171.828 4.381 1.685 8.911 3.475 18.379 3.6 19.042 1.84 9.739.929 4.919.467 2.471a16.7 16.7 0 0 1 .374 2.512 7.867 7.867 0 0 1-5.5 7.77c-.819.245-1.625.382-2.436.575l-2.424.539-4.822 1.071-18.923 4.2-35.773 7.942-16.659 3.7-7.98 1.77-3.9.864c-.649.134-1.275.307-1.938.4a7.769 7.769 0 0 1-1.978.054 7.878 7.878 0 0 1-6.157-4.2 6.613 6.613 0 0 1-.381-.87l-.16-.446-.115-.458c-.154-.611-.248-1.215-.374-1.819l-.7-3.582-2.671-13.6c-3.4-17.33-6.143-31.354-8.043-41.05l-2.173-11.163c-.244-1.274-.431-2.247-.558-2.9s-.181-.992-.181-.992.075.333.209.986.328 1.627.585 2.9l2.214 11.151 8.131 41.032q1.284 6.5 2.689 13.6l.708 3.582a12.412 12.412 0 0 0 1.013 3.533 7.65 7.65 0 0 0 5.982 4.068 7.526 7.526 0 0 0 1.919-.055c.634-.091 1.279-.268 1.922-.4l3.9-.868 7.979-1.776 16.657-3.708 35.77-7.958 18.922-4.208 4.822-1.072 2.424-.539c.8-.191 1.637-.336 2.412-.569a7.587 7.587 0 0 0 5.3-7.494 16.437 16.437 0 0 0-.369-2.471l-.467-2.471-.929-4.919-1.839-9.74-3.594-19.043-3.468-18.38-1.681-8.911-.826-4.381q-.2-1.089-.409-2.171a9.991 9.991 0 0 0-.566-2.089 7.531 7.531 0 0 0-2.652-3.285 7.6 7.6 0 0 0-3.94-1.358 8.5 8.5 0 0 0-1.046.007c-.346.052-.688.081-1.037.155l-2.075.392-4.106.775-15.814 2.985-28.388 5.353-41.112 7.732c-1.211.235-2.365.425-3.43.66a7.649 7.649 0 0 0-2.755 1.256 7.774 7.774 0 0 0-1.824 1.859 8.246 8.246 0 0 0-.965 1.936 7.468 7.468 0 0 0-.382 2.906 6.761 6.761 0 0 0 .08.748c.022.163.03.248.03.248Z" fill="#263238"/></g></g></g><g data-name="Group 645"><g data-name="Group 644"><g data-name="Group 641"><path data-name="Path 579" d="m46.822 187.223 13.8 70.033a7.237 7.237 0 0 0 8.67 5.665l89.022-19.654a7.237 7.237 0 0 0 5.541-8.407l-12.716-67.337a7.236 7.236 0 0 0-8.456-5.767l-90.107 16.956a7.236 7.236 0 0 0-5.754 8.511Z" fill="#575c60"/></g><g data-name="Group 643"><g data-name="Group 642"><path data-name="Path 580" d="M46.822 187.221s-.017-.078-.041-.236a5.524 5.524 0 0 1-.089-.706 6.862 6.862 0 0 1 .343-2.758 7.255 7.255 0 0 1 5.291-4.8c1.012-.218 2.094-.406 3.238-.629l38.768-7.341 26.774-5.055 14.916-2.814 3.873-.73 1.958-.369a11.4 11.4 0 0 1 2-.272 8.155 8.155 0 0 1 1.024.038 8.289 8.289 0 0 1 1.009.2 7.025 7.025 0 0 1 1.9.794 7.346 7.346 0 0 1 2.813 3.008 7.791 7.791 0 0 1 .674 1.989l.387 2.048.782 4.132 1.59 8.4 3.277 17.336 3.394 17.96 1.736 9.186.876 4.64.44 2.331a15.785 15.785 0 0 1 .353 2.371 7.372 7.372 0 0 1-5.217 7.306c-3.072.736-6.111 1.365-9.135 2.045l-17.854 3.939-33.752 7.443-15.718 3.464-7.53 1.659-3.678.81-1.816.4c-.3.057-.616.114-.925.153a7.431 7.431 0 0 1-.933.033 7.337 7.337 0 0 1-6.09-3.506 7.418 7.418 0 0 1-.745-1.623 18.344 18.344 0 0 1-.386-1.716l-.664-3.379-2.518-12.829c-3.2-16.345-5.793-29.573-7.584-38.719l-2.048-10.53c-.23-1.2-.407-2.118-.525-2.74s-.17-.935-.17-.935.071.314.2.93l.553 2.734 2.1 10.519 7.671 38.7 2.537 12.826.668 3.378c.109.572.221 1.141.381 1.692a7.225 7.225 0 0 0 .725 1.573 7.11 7.11 0 0 0 5.9 3.392 15.523 15.523 0 0 0 3.618-.584l3.677-.814 7.529-1.665 15.715-3.475 33.749-7.459 17.854-3.937c3.014-.678 6.084-1.314 9.114-2.041a7.092 7.092 0 0 0 5.019-7.028 15.551 15.551 0 0 0-.349-2.329l-.44-2.331-.876-4.639-1.735-9.186-3.39-17.961q-1.669-8.839-3.271-17.336-.8-4.249-1.585-8.406l-.779-4.132a14.937 14.937 0 0 0-1.035-3.969 7.091 7.091 0 0 0-2.713-2.905 6.759 6.759 0 0 0-1.834-.768 7.911 7.911 0 0 0-.973-.192 7.8 7.8 0 0 0-.988-.037 11.236 11.236 0 0 0-1.964.266l-1.957.367-3.873.727-14.919 2.8-26.78 5.022-38.784 7.253c-1.143.219-2.23.4-3.237.616a7.2 7.2 0 0 0-5.259 4.722 6.938 6.938 0 0 0-.368 2.739 6.182 6.182 0 0 0 .074.705c.02.154.027.235.027.235Z" fill="#263238"/></g></g></g></g><g data-name="Group 647"><g data-name="Group 646"><path data-name="Path 581" d="M155.943 193.406s-.028.1-.1.29l-.309.842-.231.62a5.178 5.178 0 0 1-.315.732c-.257.516-.54 1.119-.887 1.783-.4.631-.806 1.364-1.331 2.11a26.029 26.029 0 0 1-1.843 2.325c-.364.389-.7.83-1.121 1.214l-1.276 1.212a30.056 30.056 0 0 1-3.034 2.329 29.2 29.2 0 0 1-7.9 3.747 26.785 26.785 0 0 1-9.968 1.059 38.5 38.5 0 0 1-10.742-2.769c-3.6-1.391-7.2-3.111-11.015-4.532a60.136 60.136 0 0 0-22.457-4.076 44.582 44.582 0 0 0-9.9 1.341 40.963 40.963 0 0 0-8.146 3.08 34.311 34.311 0 0 0-10.024 7.581c-.248.279-.491.536-.7.79l-.579.726-.5.622-.38.539-.519.729c-.118.164-.185.244-.185.244s.05-.091.161-.259l.5-.747.37-.547.487-.632.57-.736c.21-.257.45-.517.7-.8a33.909 33.909 0 0 1 10.015-7.684 40.874 40.874 0 0 1 8.178-3.129 44.622 44.622 0 0 1 9.955-1.374 60.1 60.1 0 0 1 22.561 4.072c3.834 1.427 7.435 3.149 11.017 4.539a38.385 38.385 0 0 0 10.666 2.767 26.628 26.628 0 0 0 9.878-1.025 29.117 29.117 0 0 0 7.858-3.689 30.087 30.087 0 0 0 3.027-2.3l1.276-1.2c.421-.379.757-.815 1.122-1.2a26.257 26.257 0 0 0 1.851-2.3c.529-.738.937-1.462 1.345-2.087.353-.656.642-1.254.907-1.765a5.245 5.245 0 0 0 .326-.725l.243-.613.335-.831c.067-.18.114-.273.114-.273Z" fill="#263238"/></g></g></g><g data-name="Group 650" opacity=".3"><g data-name="Group 649" transform="translate(117.879 176.191)"><circle data-name="Ellipse 33" cx="7.629" cy="7.629" r="7.629" transform="rotate(-45 13.025 5.395)"/></g></g></g><g data-name="Group 892"><g data-name="Group 654"><g data-name="Group 652"><path data-name="Path 582" d="m147.365 213.394-11.484 21.222.564.1 8.164 11.134 6.36 1.42c2.353-8.784 4.537-16.716 5.785-22.643a80.959 80.959 0 0 1 3.352-11.664Z" fill="#c78976"/></g><g data-name="Group 653"><path data-name="Path 583" d="M148.74 194.395s-3.777 5.206-4.255 6.939.17 4.32.841 6.788c.685 2.525 1.947 6.549 1.947 6.549l11.232 3.194 1.215-3.02s3.585-7.708 3.675-8.762a10.657 10.657 0 0 0-.783-3.254s.9-2.557-.042-3.466a3.079 3.079 0 0 0-1.542-.972s1.887-2.175.362-3.219a5.08 5.08 0 0 0-2.288-1.067l-6.963 7.611s-1.375 1.295-2.469 1.042-1.514-.428-.711-2.239 1.446-2.358 1.817-3.962-2.036-2.162-2.036-2.162Z" fill="#c78976"/></g></g><g data-name="Group 837"><g data-name="Group 689"><g data-name="Group 688"><g data-name="Group 687"><g data-name="Group 670"><g data-name="Group 669"><g data-name="Group 668"><g data-name="Group 667"><g data-name="Group 666"><g data-name="Group 665"><g data-name="Group 664"><g data-name="Group 663"><g data-name="Group 662"><g data-name="Group 661"><g data-name="Group 660"><g data-name="Group 659"><g data-name="Group 658"><g data-name="Group 657"><g data-name="Group 656"><g data-name="Group 655"><path data-name="Path 584" d="m58.481 164.597-.489 39.372c-.083 6.7 1.163 16.548 11.755 16.2 9.167-1 11.6-9.675 11.67-15.924.034-2.964.068-5.436.092-5.74 0 0 10.035-.818 10.881-10.73.41-4.79.449-14.724.381-23.711a18.527 18.527 0 0 0-17.185-18.328l-.957-.07c-10.366-.153-16.284 8.566-16.148 18.931Z" fill="#c78976"/></g></g></g></g></g></g></g></g></g></g></g></g></g></g></g></g><g data-name="Group 686"><g data-name="Group 685"><g data-name="Group 684"><g data-name="Group 683"><g data-name="Group 682"><g data-name="Group 681"><g data-name="Group 680"><g data-name="Group 679"><g data-name="Group 678"><g data-name="Group 677"><g data-name="Group 676"><g data-name="Group 675"><g data-name="Group 674"><g data-name="Group 673"><g data-name="Group 672"><g data-name="Group 671"><path data-name="Path 585" d="M81.508 198.503a24.028 24.028 0 0 1-12.638-4.762s2.622 7.476 12.586 7.305Z" fill="#8b5d54"/></g></g></g></g></g></g></g></g></g></g></g></g></g></g></g></g></g></g></g><g data-name="Group 778"><g data-name="Group 777"><g data-name="Group 744"><g data-name="Group 743"><g data-name="Group 742"><g data-name="Group 707"><g data-name="Group 706"><g data-name="Group 705"><g data-name="Group 704"><g data-name="Group 703"><g data-name="Group 702"><g data-name="Group 701"><g data-name="Group 700"><g data-name="Group 699"><g data-name="Group 698"><g data-name="Group 697"><g data-name="Group 696"><g data-name="Group 695"><g data-name="Group 694"><g data-name="Group 693"><g data-name="Group 692"><g data-name="Group 691"><g data-name="Group 690"><path data-name="Path 586" d="M75.824 168.125c-.2.2-1.341-.721-3-.765-1.658-.069-2.9.77-3.075.557-.086-.1.119-.461.66-.842a4.158 4.158 0 0 1 2.469-.7 4.009 4.009 0 0 1 2.382.867c.499.415.661.797.564.883Z" fill="#263238"/></g></g></g></g></g></g></g></g></g></g></g></g></g></g></g></g></g></g><g data-name="Group 724"><g data-name="Group 723"><g data-name="Group 722"><g data-name="Group 721"><g data-name="Group 720"><g data-name="Group 719"><g data-name="Group 718"><g data-name="Group 717"><g data-name="Group 716"><g data-name="Group 715"><g data-name="Group 714"><g data-name="Group 713"><g data-name="Group 712"><g data-name="Group 711"><g data-name="Group 710"><g data-name="Group 709"><g data-name="Group 708"><path data-name="Path 587" d="M75.775 171.558a1.344 1.344 0 0 1-1.391 1.258 1.285 1.285 0 0 1-1.292-1.309 1.344 1.344 0 0 1 1.39-1.259 1.287 1.287 0 0 1 1.293 1.31Z" fill="#263238"/></g></g></g></g></g></g></g></g></g></g></g></g></g></g></g></g></g><g data-name="Group 741"><g data-name="Group 740"><g data-name="Group 739"><g data-name="Group 738"><g data-name="Group 737"><g data-name="Group 736"><g data-name="Group 735"><g data-name="Group 734"><g data-name="Group 733"><g data-name="Group 732"><g data-name="Group 731"><g data-name="Group 730"><g data-name="Group 729"><g data-name="Group 728"><g data-name="Group 727"><g data-name="Group 726"><g data-name="Group 725"><path data-name="Path 588" d="M79.985 179.675a10.135 10.135 0 0 1 2.509-.266c.392-.012.766-.062.851-.323a1.985 1.985 0 0 0-.176-1.173l-.935-3.049c-1.29-4.337-2.194-7.892-2.019-7.942s1.363 3.424 2.654 7.761l.885 3.063a2.261 2.261 0 0 1 .09 1.543.98.98 0 0 1-.681.522 2.64 2.64 0 0 1-.668.044 9.93 9.93 0 0 1-2.51-.18Z" fill="#263238"/></g></g></g></g></g></g></g></g></g></g></g></g></g></g></g></g></g></g></g></g><g data-name="Group 760"><g data-name="Group 759"><g data-name="Group 758"><g data-name="Group 757"><g data-name="Group 756"><g data-name="Group 755"><g data-name="Group 754"><g data-name="Group 753"><g data-name="Group 752"><g data-name="Group 751"><g data-name="Group 750"><g data-name="Group 749"><g data-name="Group 748"><g data-name="Group 747"><g data-name="Group 746"><g data-name="Group 745"><path data-name="Path 589" d="M75.118 161.88c-.16.368-1.49.091-3.081.172-1.593.048-2.9.433-3.085.079-.082-.169.166-.509.707-.837a5.029 5.029 0 0 1 2.331-.655 4.969 4.969 0 0 1 2.367.464c.562.284.832.603.761.777Z" fill="#263238"/></g></g></g></g></g></g></g></g></g></g></g></g></g></g></g></g><g data-name="Group 776"><g data-name="Group 775"><g data-name="Group 774"><g data-name="Group 773"><g data-name="Group 772"><g data-name="Group 771"><g data-name="Group 770"><g data-name="Group 769"><g data-name="Group 768"><g data-name="Group 767"><g data-name="Group 766"><g data-name="Group 765"><g data-name="Group 764"><g data-name="Group 763"><g data-name="Group 762"><g data-name="Group 761"><path data-name="Path 590" d="M90.889 164.958c-.174.3-1.47-.033-3.04-.082-1.57-.077-2.874.153-3.039-.161-.073-.149.186-.418.733-.658a5.489 5.489 0 0 1 2.323-.384 5.667 5.667 0 0 1 2.309.569c.54.283.791.572.714.716Z" fill="#263238"/></g></g></g></g></g></g></g></g></g></g></g></g></g></g></g></g></g></g><g data-name="Group 792"><g data-name="Group 791"><g data-name="Group 790"><g data-name="Group 789"><g data-name="Group 788"><g data-name="Group 787"><g data-name="Group 786"><g data-name="Group 785"><g data-name="Group 784"><g data-name="Group 783"><g data-name="Group 782"><g data-name="Group 781"><g data-name="Group 780"><g data-name="Group 779"><path data-name="Path 591" d="M58.754 172.003c-.164-.085-6.669-2.513-6.947 4.284s6.6 5.676 6.624 5.481.323-9.765.323-9.765Z" fill="#c78976"/></g></g></g></g></g></g></g></g></g></g></g></g></g></g><g data-name="Group 807"><g data-name="Group 806"><g data-name="Group 805"><g data-name="Group 804"><g data-name="Group 803"><g data-name="Group 802"><g data-name="Group 801"><g data-name="Group 800"><g data-name="Group 799"><g data-name="Group 798"><g data-name="Group 797"><g data-name="Group 796"><g data-name="Group 795"><g data-name="Group 794"><g data-name="Group 793"><path data-name="Path 592" d="M56.459 179.106c-.029-.023-.122.078-.326.162a1.187 1.187 0 0 1-.886-.018 2.934 2.934 0 0 1-1.248-2.684 3.916 3.916 0 0 1 .4-1.682 1.37 1.37 0 0 1 .928-.872.6.6 0 0 1 .685.353c.083.194.035.328.07.341.018.018.15-.108.107-.391a.752.752 0 0 0-.25-.437.9.9 0 0 0-.648-.2 1.667 1.667 0 0 0-1.28 1 4.027 4.027 0 0 0-.488 1.878 3.078 3.078 0 0 0 1.607 3.007 1.269 1.269 0 0 0 1.09-.136c.22-.157.262-.308.239-.321Z" fill="#8b5d54"/></g></g></g></g></g></g></g></g></g></g></g></g></g></g></g><g data-name="Group 809"><g data-name="Group 808"><path data-name="Path 593" d="M78.38 184.382c.074-.171-1.258-.57-2.194-1.82a7.605 7.605 0 0 1-.941-1.775c-.2-.493-.349-.8-.422-.781s-.052.356.057.893a5.028 5.028 0 0 0 .875 1.989 4.066 4.066 0 0 0 1.736 1.329c.52.21.871.223.889.165Z" fill="#263238"/></g></g><g data-name="Group 811"><g data-name="Group 810"><path data-name="Path 594" d="M105.932 155.166a1.6 1.6 0 0 0-.754-.938 4.938 4.938 0 0 0-2.534-.411 14.31 14.31 0 0 1-7.453-2.266 33.406 33.406 0 0 0-3.469-4.2c-3-3.1-5.477-5.206-8.033-6.235a23.017 23.017 0 0 0-12.288-.966c-3.449.9-6.546 3.7-7.025 7.236-1.934-1.635-4.837-1.622-7.193-.675l-.059-.026c-2.623.935-4.114 3.707-4.888 6.382s-1.1 5.536-2.52 7.934c-.3.5-.648 1.1-.389 1.624a1.107 1.107 0 0 0 1.158.5 3.248 3.248 0 0 0 1.221-.553l-.878 2.1a6.2 6.2 0 0 0 2.854-.19 60.844 60.844 0 0 0 1.866 7.054 4.041 4.041 0 0 1 2.776.683c.919.826 1.33 2.38 2.857 1.79.777-.3 1.486-1.931 1.746-2.722a38.684 38.684 0 0 0 1.675-16.374 12.424 12.424 0 0 1 3.839-2.771l-.118.106c2.77-.962 5.9-1.909 8.532-.608 2.039 1.009 3.237 3.124 4.761 4.812a15.563 15.563 0 0 0 11.091 5.123c.147 2.791-.088 6.735.059 9.526l2.348-4.471v.023c.192-.327.351-.658.5-.988l.053-.1v-.012a17.4 17.4 0 0 1 .785-1.588l.026.024a1.744 1.744 0 0 0 2.548-2.332 3.928 3.928 0 0 0-.843-.847 2.758 2.758 0 0 0 2.627.681 2.164 2.164 0 0 0 1.531-2.14 1.84 1.84 0 0 0-1.1-1.476 6.217 6.217 0 0 0 3.535-.779c.708-.397 1.393-1.052 1.156-1.93Z" fill="#263238"/></g></g><g data-name="Group 813"><g data-name="Group 812"><path data-name="Path 595" d="M67.496 148.518a8.565 8.565 0 0 0-.994.91 7.105 7.105 0 0 0-1.522 3.292 12.512 12.512 0 0 0-.254 2.519c0 .913.069 1.891.139 2.921a26.029 26.029 0 0 1 .075 3.252 11.456 11.456 0 0 1-.223 1.715 3.583 3.583 0 0 1-.7 1.664 1.5 1.5 0 0 1-1.4.47 2.226 2.226 0 0 1-1.259-.711 5.135 5.135 0 0 1-.955-2.522l.208.025a8.3 8.3 0 0 1-1.207 2.077 2.951 2.951 0 0 1-1.928 1.05 1.9 1.9 0 0 1-1.022-.179 1.651 1.651 0 0 1-.695-.684 1.707 1.707 0 0 1-.211-.879 1.231 1.231 0 0 1 .319-.771l.1.093a6.39 6.39 0 0 1-2.129 1.6 5.673 5.673 0 0 1-.66.256 1.069 1.069 0 0 1-.236.059 1.233 1.233 0 0 1 .223-.1c.148-.061.367-.149.64-.288a6.592 6.592 0 0 0 2.056-1.621l.105.094a1.27 1.27 0 0 0-.066 1.473 1.484 1.484 0 0 0 .627.605 1.733 1.733 0 0 0 .927.151 2.767 2.767 0 0 0 1.79-1 8.185 8.185 0 0 0 1.161-2.033l.143-.318.066.343a4.966 4.966 0 0 0 .909 2.409 2.006 2.006 0 0 0 1.127.637 1.263 1.263 0 0 0 1.189-.4 3.38 3.38 0 0 0 .646-1.557 11.324 11.324 0 0 0 .222-1.68 26.576 26.576 0 0 0-.061-3.224c-.064-1.03-.131-2.012-.118-2.937a12.439 12.439 0 0 1 .285-2.553 7.012 7.012 0 0 1 1.615-3.318 4.036 4.036 0 0 1 1.068-.84Z" fill="#455a64"/></g></g><g data-name="Group 815"><g data-name="Group 814"><path data-name="Path 596" d="M98.167 158.167s-.024.026-.079.068l-.248.181a3.311 3.311 0 0 1-.42.27 5.3 5.3 0 0 1-.6.317 8.8 8.8 0 0 1-4.244.763 11.238 11.238 0 0 1-5.984-2.21 19.46 19.46 0 0 1-5.14-5.925c-.721-1.2-1.309-2.432-1.957-3.568a13.13 13.13 0 0 0-2.215-3.018 6.771 6.771 0 0 0-2.857-1.734 4.854 4.854 0 0 0-1.507-.173 5.324 5.324 0 0 0-1.38.265 5.736 5.736 0 0 0-3.186 2.7 6.861 6.861 0 0 0-.512 1.486.315.315 0 0 1 .008-.1l.047-.3a4.963 4.963 0 0 1 .377-1.12 5.63 5.63 0 0 1 1.11-1.5 5.789 5.789 0 0 1 2.1-1.305 5.447 5.447 0 0 1 1.424-.289 5.015 5.015 0 0 1 1.567.167 6.936 6.936 0 0 1 2.955 1.766 13.256 13.256 0 0 1 2.266 3.042c.656 1.145 1.244 2.373 1.959 3.562a19.469 19.469 0 0 0 5.067 5.871 11.164 11.164 0 0 0 5.869 2.219 8.924 8.924 0 0 0 4.2-.682 14.031 14.031 0 0 0 1.38-.753Z" fill="#455a64"/></g></g><g data-name="Group 817"><g data-name="Group 816"><path data-name="Path 597" d="M99.07 153.81a1.564 1.564 0 0 1-.356.248 7.638 7.638 0 0 1-1.053.535 10.215 10.215 0 0 1-1.667.547 10.8 10.8 0 0 1-4.278.137 10.271 10.271 0 0 1-1.7-.439 7.7 7.7 0 0 1-1.085-.466 1.528 1.528 0 0 1-.371-.225c.019-.039.567.243 1.507.535a11.614 11.614 0 0 0 1.681.384 11.55 11.55 0 0 0 4.2-.134 11.611 11.611 0 0 0 1.653-.491c.919-.352 1.448-.669 1.469-.631Z" fill="#455a64"/></g></g><g data-name="Group 827"><g data-name="Group 826"><g data-name="Group 825"><g data-name="Group 824"><g data-name="Group 823"><g data-name="Group 822"><g data-name="Group 821"><g data-name="Group 820"><g data-name="Group 819"><g data-name="Group 818"><path data-name="Path 598" d="M90.964 168.75c-.2.2-1.341-.72-3-.765-1.658-.069-2.9.77-3.075.556-.086-.1.119-.461.66-.841a4.158 4.158 0 0 1 2.469-.7 4.013 4.013 0 0 1 2.382.866c.498.416.661.794.564.884Z" fill="#263238"/></g></g></g></g></g></g></g></g></g></g><g data-name="Group 836"><g data-name="Group 835"><g data-name="Group 834"><g data-name="Group 833"><g data-name="Group 832"><g data-name="Group 831"><g data-name="Group 830"><g data-name="Group 829"><g data-name="Group 828"><path data-name="Path 599" d="M90.692 172.042a1.344 1.344 0 0 1-1.391 1.258 1.285 1.285 0 0 1-1.292-1.309 1.344 1.344 0 0 1 1.39-1.259 1.286 1.286 0 0 1 1.293 1.31Z" fill="#263238"/></g></g></g></g></g></g></g></g></g></g><g data-name="Group 891"><g data-name="Group 839"><g data-name="Group 838"><path data-name="Path 600" d="M32.651 225.602s-7.081 40.222-6.74 43.983 2.225 9.744 6.5 10.77a18.8 18.8 0 0 0 8.2 0l-5.129-49.4Z" fill="#ff4747"/></g></g><g data-name="Group 840"><path data-name="Path 601" d="m89.929 208.104-5.5-1.565-1.11-4.361s-6.833-5.045-18.1-5.191c-3.467-.045-8.372 1.318-11.111 3.443l-.717 4.424s-8.475 6.025-10.349 7.8c-7.835 7.41-9.475 10.443-10.387 12.95s5.44 60.742 5.44 60.742l1.287 10.173 59.084-.284.4-51.546Z" fill="#ff4747"/></g><g data-name="Group 842"><g data-name="Group 841"><path data-name="Path 602" d="M83.275 208.255s6.633-.357 7.511.123a95.615 95.615 0 0 1 13.72 8.946c6.184 4.947 23.805 16.271 23.805 16.271a3.116 3.116 0 0 1 4.711.325l5.093-4.075s13.082 4.961 15.143 14.855a5.944 5.944 0 0 1-3.4 6.109s-10.944 9.787-19.795 8.839c-9.352-1-30.284-10.793-31.333-11.2l-14.425-6.384s-8.864-16.9-4.947-25.355Z" fill="#ff4747"/></g></g><g data-name="Group 845"><g data-name="Group 844"><g data-name="Group 843"><path data-name="Path 603" d="M132.891 242.704a4.76 4.76 0 0 1-.437-1.272 12.832 12.832 0 0 1 .094-6.445 4.769 4.769 0 0 1 .474-1.258 11.9 11.9 0 0 1-.294 1.3 15.494 15.494 0 0 0-.092 6.36 12.054 12.054 0 0 1 .255 1.315Z" fill="#263238"/></g></g></g><g data-name="Group 848"><g data-name="Group 847"><g data-name="Group 846"><path data-name="Path 604" d="M84.428 206.539a1.5 1.5 0 0 1-.314-.064l-.883-.233a53.58 53.58 0 0 0-3.275-.726 91.188 91.188 0 0 0-10.979-1.354 75.023 75.023 0 0 0-11.057.033c-1.41.121-2.544.3-3.322.438l-.894.177a1.494 1.494 0 0 1-.317.045 1.475 1.475 0 0 1 .3-.1l.887-.226a29.329 29.329 0 0 1 3.324-.523 67.981 67.981 0 0 1 11.093-.11 80.88 80.88 0 0 1 11 1.434c1.392.287 2.5.583 3.266.809l.871.281a1.471 1.471 0 0 1 .3.119Z" fill="#263238"/></g></g></g><g data-name="Group 851"><g data-name="Group 850"><g data-name="Group 849"><path data-name="Path 605" d="M61.259 203.512a19.576 19.576 0 0 1-.623-4.483 19.583 19.583 0 0 1 .623 4.483Z" fill="#263238"/></g></g></g><g data-name="Group 854"><g data-name="Group 853"><g data-name="Group 852"><path data-name="Path 606" d="M63.48 203.321a7.088 7.088 0 0 1-.312-4.5c.077.011-.04 1.02.051 2.258s.336 2.22.261 2.242Z" fill="#263238"/></g></g></g><g data-name="Group 857"><g data-name="Group 856"><g data-name="Group 855"><path data-name="Path 607" d="M116.372 255.707a1.4 1.4 0 0 1-.305-.078l-.861-.273a80.256 80.256 0 0 1-3.113-1.151c-2.612-1.015-6.179-2.517-10.094-4.229s-7.439-3.316-9.982-4.489l-3-1.408-.81-.4a1.413 1.413 0 0 1-.275-.155 1.433 1.433 0 0 1 .3.106l.831.352 3.037 1.332 10.01 4.418c3.913 1.711 7.466 3.24 10.058 4.3a167.8 167.8 0 0 0 3.079 1.226l.843.319a1.453 1.453 0 0 1 .282.13Z" fill="#263238"/></g></g></g><g data-name="Group 860" opacity=".3"><g data-name="Group 859"><g data-name="Group 858"><path data-name="Path 608" d="M53.584 204.804c9.31 1.648 18.747.016 28.6 1.181-9.513-1.969-19.42-2.9-28.6-1.181"/></g></g></g><g data-name="Group 863" opacity=".3"><g data-name="Group 862"><g data-name="Group 861"><path data-name="Path 609" d="M37.246 280.431c-5.237-12.264-4.617-26.127-3.906-39.443Z"/></g></g></g><g data-name="Group 866"><g data-name="Group 865"><g data-name="Group 864"><path data-name="Path 610" d="M32.651 234.37a.682.682 0 0 1 .028.155l.055.456.186 1.756.639 6.46c.532 5.456 1.259 12.993 2.125 21.311s1.736 15.843 2.43 21.28c.342 2.719.635 4.917.842 6.435.1.746.176 1.332.231 1.75l.053.456a.719.719 0 0 1 .01.157.662.662 0 0 1-.036-.153l-.08-.452-.28-1.743c-.237-1.515-.56-3.71-.925-6.426-.741-5.433-1.637-12.955-2.507-21.277s-1.564-15.86-2.049-21.321l-.557-6.468c-.058-.75-.1-1.34-.137-1.76l-.029-.458a.746.746 0 0 1 .001-.158Z" fill="#263238"/></g></g></g><g data-name="Group 869"><g data-name="Group 868"><g data-name="Group 867"><path data-name="Path 611" d="M72.926 227.79a2.079 2.079 0 0 1-.384.021l-1.1.008c-.954 0-2.334.01-4.037.05-3.408.077-8.115.327-13.28.938s-9.8 1.479-13.131 2.2c-1.666.362-3.01.672-3.937.9l-1.07.25a2.051 2.051 0 0 1-.378.07 2.169 2.169 0 0 1 .364-.121l1.058-.3c.919-.258 2.258-.6 3.921-.981a124.318 124.318 0 0 1 26.448-3.147c1.707-.016 3.088 0 4.042.033l1.1.042a2.173 2.173 0 0 1 .384.037Z" fill="#263238"/></g></g></g><g data-name="Group 872"><g data-name="Group 871"><g data-name="Group 870"><path data-name="Path 612" d="M50.082 240.814c-.073 0 .064-5.572.305-12.439s.5-12.434.568-12.431-.064 5.571-.306 12.44-.494 12.433-.567 12.43Z" fill="#263238"/></g></g></g><g data-name="Group 875"><g data-name="Group 874"><g data-name="Group 873"><path data-name="Path 613" d="M80.484 240.126a2.431 2.431 0 0 1-.223-.35l-.6-1.025-2.2-3.771a32.728 32.728 0 0 1-2.753-5.867 19.259 19.259 0 0 1-.821-3.75 22.591 22.591 0 0 1-.012-4.121 21.887 21.887 0 0 1 1.964-7.678 12.675 12.675 0 0 1 1.936-2.889 10.987 10.987 0 0 1 2.327-1.942 8.861 8.861 0 0 1 4.127-1.383 5.812 5.812 0 0 1 1.6.089 14.652 14.652 0 0 0-1.592.013 9.007 9.007 0 0 0-4.035 1.438 10.963 10.963 0 0 0-2.263 1.931 12.582 12.582 0 0 0-1.881 2.85 21.96 21.96 0 0 0-1.919 7.6 22.62 22.62 0 0 0 .006 4.07 19.272 19.272 0 0 0 .8 3.7 33.708 33.708 0 0 0 2.685 5.851l2.122 3.811.554 1.05a2.42 2.42 0 0 1 .178.373Z" fill="#263238"/></g></g></g><g data-name="Group 878" opacity=".3"><g data-name="Group 877"><g data-name="Group 876"><path data-name="Path 614" d="M77.38 234.331c-.733 5.123 2.98 8.52 7.241 11.459a61.274 61.274 0 0 0 14.177 7.415l.067-4.7s-6.237-2.573-11.939-5.481c-3.1-1.583-6.65-3.281-7.676-5.111Z"/></g></g></g><g data-name="Group 881"><g data-name="Group 880"><g data-name="Group 879"><path data-name="Path 615" d="M127.638 243.043a5.827 5.827 0 0 1-.264-1.413 18.133 18.133 0 0 1 .572-6.887 5.83 5.83 0 0 1 .493-1.35 11.692 11.692 0 0 1-.313 1.4 23.32 23.32 0 0 0-.567 6.826 11.53 11.53 0 0 1 .079 1.424Z" fill="#263238"/></g></g></g><g data-name="Group 884"><g data-name="Group 883"><g data-name="Group 882"><path data-name="Path 616" d="M149.875 251.034a.871.871 0 0 1-.094-.228l-.219-.665c-.086-.291-.2-.643-.363-1.044s-.312-.867-.54-1.36l-.339-.779q-.2-.4-.409-.827c-.27-.578-.623-1.161-.97-1.787a35.745 35.745 0 0 0-2.657-3.824 38.756 38.756 0 0 0-3.156-3.428 37.815 37.815 0 0 0-2.885-2.485c-.42-.344-.824-.623-1.171-.879s-.651-.47-.9-.638l-.575-.4a.878.878 0 0 1-.192-.155.889.889 0 0 1 .22.11l.6.359c.263.155.578.354.933.6s.77.516 1.2.851a33.907 33.907 0 0 1 2.939 2.457 36.284 36.284 0 0 1 3.195 3.438 33.706 33.706 0 0 1 2.661 3.866c.344.635.692 1.226.956 1.813.138.29.276.567.4.839l.326.792c.219.5.366.972.507 1.382a10.182 10.182 0 0 1 .322 1.063l.172.681a.884.884 0 0 1 .039.248Z" fill="#263238"/></g></g></g><g data-name="Group 887" opacity=".3"><g data-name="Group 886"><g data-name="Group 885"><path data-name="Path 617" d="M134.196 241.382a12.382 12.382 0 0 0-.568-2.227 16.838 16.838 0 0 1-.605-5.235 11.174 11.174 0 0 0 .351 9.492 2.17 2.17 0 0 0 .822-2.03Z"/></g></g></g><g data-name="Group 890" opacity=".3"><g data-name="Group 889"><g data-name="Group 888"><path data-name="Path 618" d="M36.576 232.2a70.959 70.959 0 0 0 11.178-1.479 17.035 17.035 0 0 0-.626 5 11.467 11.467 0 0 0 2.488-4.57 6.922 6.922 0 0 0 2.82 4.628 15.129 15.129 0 0 0 .251-5.1q8.343-1.006 16.576-2.743a112.377 112.377 0 0 0-32.908 4.1"/></g></g></g></g></g></g></g></g></svg>