<?xml version="1.0" encoding="utf-8"?>
<!-- Generator: Adobe Illustrator 16.0.0, SVG Export Plug-In . SVG Version: 6.00 Build 0)  -->
<!DOCTYPE svg PUBLIC "-//W3C//DTD SVG 1.1//EN" "http://www.w3.org/Graphics/SVG/1.1/DTD/svg11.dtd">
<svg version="1.1" id="Layer_1" xmlns="http://www.w3.org/2000/svg" xmlns:xlink="http://www.w3.org/1999/xlink" x="0px" y="0px"
	 width="32px" height="32px" viewBox="0 0 32 32" enable-background="new 0 0 32 32" xml:space="preserve">
<title>cakephp</title>
<path fill="#E61F2D" d="M0,18.5v4.995c0,2.756,7.161,4.989,16,4.989v-4.989c-8.839,0-16-2.24-16-4.989V18.5z M28.512,21.609L16,18.5
	v4.995l12.512,3.108C30.693,25.749,32,24.672,32,23.495V18.5C32,19.677,30.693,20.755,28.512,21.609z M16,13.511V18.5
	c-8.839,0-16-2.235-16-4.989V8.506c0-2.751,7.161-4.989,16-4.989c8.833,0,16,2.239,16,4.995v5c0,1.177-1.307,2.249-3.488,3.109
	L16,13.506V13.511z"/>
</svg>
