<?xml version="1.0" encoding="utf-8"?>
<!-- Generator: Adobe Illustrator 16.0.0, SVG Export Plug-In . SVG Version: 6.00 Build 0)  -->
<!DOCTYPE svg PUBLIC "-//W3C//DTD SVG 1.1//EN" "http://www.w3.org/Graphics/SVG/1.1/DTD/svg11.dtd">
<svg version="1.1" id="Layer_1" xmlns="http://www.w3.org/2000/svg" xmlns:xlink="http://www.w3.org/1999/xlink" x="0px" y="0px"
	 width="16px" height="16px" viewBox="0 0 16 16" enable-background="new 0 0 16 16" xml:space="preserve">
<path fill="#E61F2D" d="M8.598,7.403c0-0.99,0.803-1.792,1.792-1.792h1.792c0.329,0,0.597,0.267,0.597,0.597
	s-0.268,0.597-0.597,0.597H10.39c-0.33,0-0.598,0.267-0.598,0.598V8c0,0.33,0.268,0.598,0.598,0.598h0.597
	c0.989,0,1.792,0.803,1.792,1.792v0.597c0,0.989-0.803,1.792-1.792,1.792H9.194c-0.33,0-0.597-0.268-0.597-0.597
	s0.267-0.598,0.597-0.598h1.792c0.329,0,0.598-0.269,0.598-0.598V10.39c0-0.33-0.269-0.598-0.598-0.598H10.39
	C9.4,9.792,8.598,8.989,8.598,8V7.403z M8,6.208c0-0.33-0.267-0.597-0.597-0.597c-0.331,0-0.598,0.267-0.598,0.597v4.778
	c0,0.329-0.267,0.598-0.597,0.598H5.013c-0.33,0-0.597,0.269-0.597,0.598s0.267,0.597,0.597,0.597h1.195
	c0.99,0,1.792-0.803,1.792-1.792V6.208z"/>
<path fill="#212121" d="M0.832,3.819c0-1.65,1.337-2.987,2.987-2.987h8.363c1.649,0,2.986,1.337,2.986,2.987v8.363
	c0,1.649-1.337,2.986-2.986,2.986H3.819c-1.65,0-2.987-1.337-2.987-2.986V3.819z M3.819,2.027c-0.99,0-1.792,0.802-1.792,1.792
	v8.363c0,0.989,0.802,1.792,1.792,1.792h8.363c0.989,0,1.792-0.803,1.792-1.792V3.819c0-0.99-0.803-1.792-1.792-1.792H3.819z"/>
</svg>
