<?xml version="1.0" encoding="utf-8"?>
<!-- Generator: Adobe Illustrator 16.0.0, SVG Export Plug-In . SVG Version: 6.00 Build 0)  -->
<!DOCTYPE svg PUBLIC "-//W3C//DTD SVG 1.1//EN" "http://www.w3.org/Graphics/SVG/1.1/DTD/svg11.dtd">
<svg version="1.1" id="Layer_1" xmlns="http://www.w3.org/2000/svg" xmlns:xlink="http://www.w3.org/1999/xlink" x="0px" y="0px"
	 width="100px" height="100px" viewBox="1200 806.5 100 100" enable-background="new 1200 806.5 100 100" xml:space="preserve">
<title>laravel</title>
<path fill="#E61F2D" d="M1299.599,854.257c-0.713-0.713-9.865-12.243-11.41-14.145c-1.664-1.901-2.377-1.545-3.447-1.426
	c-1.069,0.119-12.599,2.14-13.906,2.258c-1.308,0.238-2.14,0.713-1.308,1.902c0.713,1.07,8.32,11.768,9.984,14.264l-30.31,7.25
	l-24.01-40.293c-0.951-1.426-1.188-1.902-3.328-1.783c-2.139,0.119-18.898,1.545-20.087,1.545c-1.188,0.119-2.496,0.594-1.307,3.447
	c1.188,2.853,20.206,43.741,20.682,44.929c0.476,1.189,1.902,3.091,5.111,2.378c3.328-0.832,14.739-3.804,21.039-5.468
	c3.328,5.943,9.984,18.066,11.292,19.85c1.664,2.377,2.853,1.901,5.349,1.188c2.021-0.594,31.142-11.054,32.449-11.648
	c1.308-0.594,2.14-0.95,1.188-2.258c-0.713-0.951-8.32-11.292-12.361-16.641c2.734-0.714,12.6-3.328,13.669-3.685
	C1300.074,855.565,1300.313,854.971,1299.599,854.257L1299.599,854.257z M1244.566,865.549c-0.356,0.119-17.354,4.16-18.186,4.398
	c-0.951,0.237-0.951,0.119-0.951-0.238c-0.238-0.356-20.206-41.72-20.563-42.195c-0.237-0.476-0.237-0.951,0-0.951
	c0.238,0,16.046-1.426,16.522-1.426c0.594,0,0.475,0.119,0.713,0.475c0,0,22.227,38.392,22.583,38.987
	C1245.161,865.192,1244.923,865.431,1244.566,865.549L1244.566,865.549z M1292.349,874.464c0.237,0.476,0.594,0.713-0.356,0.951
	c-0.832,0.356-28.646,9.746-29.24,9.984c-0.594,0.237-0.95,0.356-1.664-0.714c-0.713-1.069-9.746-16.641-9.746-16.641l29.596-7.726
	c0.714-0.237,0.951-0.356,1.427,0.356C1282.84,861.508,1292.11,874.107,1292.349,874.464L1292.349,874.464z M1294.25,853.544
	c-0.713,0.119-11.529,2.853-11.529,2.853l-8.914-12.124c-0.238-0.356-0.476-0.713,0.118-0.832
	c0.595-0.119,10.698-1.901,11.173-2.021c0.476-0.119,0.832-0.238,1.427,0.594c0.595,0.713,8.201,10.46,8.558,10.816
	S1294.964,853.425,1294.25,853.544L1294.25,853.544z"/>
</svg>
