<?xml version="1.0" encoding="utf-8"?>
<!-- Generator: Adobe Illustrator 16.0.0, SVG Export Plug-In . SVG Version: 6.00 Build 0)  -->
<!DOCTYPE svg PUBLIC "-//W3C//DTD SVG 1.1//EN" "http://www.w3.org/Graphics/SVG/1.1/DTD/svg11.dtd">
<svg version="1.1" id="Layer_1" xmlns="http://www.w3.org/2000/svg" xmlns:xlink="http://www.w3.org/1999/xlink" x="0px" y="0px"
	 width="512px" height="512px" viewBox="0 0 512 512" enable-background="new 0 0 512 512" xml:space="preserve">
<g>
	<path fill="#E61F2D" d="M255.999,262.926c-2.308,0-4.552,0.475-6.537,1.6l-62.845,36.29c-4.063,2.345-6.536,6.769-6.536,11.478
		v72.448c0,4.704,2.472,9.125,6.536,11.477l16.415,9.474c7.974,3.929,10.914,3.867,14.542,3.867c11.806,0,18.547-7.161,18.547-19.61
		v-71.52c0-1.012-0.875-1.734-1.868-1.734h-7.872c-1.009,0-1.868,0.723-1.868,1.734v71.52c0,5.517-5.751,11.068-15.078,6.402
		l-17.079-10.006c-0.603-0.33-1.066-0.909-1.066-1.601v-72.451c0-0.688,0.458-1.387,1.066-1.734l62.709-36.157
		c0.58-0.337,1.291-0.337,1.867,0l62.713,36.157c0.598,0.362,1.069,1.025,1.069,1.737v72.452c0,0.69-0.352,1.398-0.935,1.733
		l-62.849,36.159c-0.539,0.317-1.277,0.317-1.868,0l-16.145-9.608c-0.498-0.27-1.101-0.27-1.601,0
		c-4.454,2.528-5.292,2.82-9.472,4.27c-1.031,0.358-2.593,0.918,0.535,2.668l21.081,12.407c1.984,1.146,4.241,1.744,6.537,1.737
		c2.294,0.015,4.55-0.582,6.538-1.734l62.845-36.159c4.067-2.364,6.538-6.768,6.538-11.474v-72.454
		c0-4.709-2.471-9.124-6.538-11.477l-62.845-36.29C260.566,263.403,258.309,262.926,255.999,262.926L255.999,262.926z"/>
	<path fill="#E61F2D" d="M272.811,314.694c-17.895,0-28.553,7.616-28.553,20.285c0,13.738,10.577,17.512,27.753,19.209
		c20.548,2.015,22.148,5.031,22.148,9.076c0,7.014-5.595,10.006-18.813,10.006c-16.609,0-20.261-4.147-21.48-12.408
		c-0.144-0.887-0.828-1.601-1.738-1.601h-8.138c-1.001,0-1.869,0.862-1.869,1.871c0,10.575,5.755,23.08,33.224,23.08
		c19.888,0,31.354-7.806,31.354-21.48c0-13.562-9.264-17.196-28.551-19.747c-19.492-2.58-21.35-3.843-21.35-8.406
		c0-3.767,1.576-8.808,16.012-8.808c12.893,0,17.659,2.78,19.612,11.478c0.172,0.813,0.89,1.467,1.735,1.467h8.141
		c0.503,0,0.987-0.308,1.335-0.666c0.343-0.384,0.581-0.816,0.533-1.338C302.906,321.738,292.922,314.694,272.811,314.694
		L272.811,314.694z"/>
</g>
<g>
	<path d="M344.414,77.886c-0.48,0-0.951,0.127-1.37,0.365c-0.844,0.493-1.364,1.396-1.37,2.375V150.5c0,0.687-0.319,1.3-0.912,1.644
		c-0.593,0.345-1.326,0.345-1.92,0l-11.416-6.576c-1.696-0.98-3.784-0.98-5.479,0l-45.577,26.305
		c-1.705,0.983-2.741,2.875-2.741,4.842v52.61c0,1.965,1.038,3.766,2.741,4.748l45.577,26.307c1.693,0.983,3.785,0.983,5.479,0
		l45.576-26.307c1.7-0.978,2.744-2.789,2.741-4.748V98.162c-0.002-2.005-1.084-3.855-2.83-4.841l-27.128-15.162
		C345.359,77.92,344.888,77.879,344.414,77.886L344.414,77.886z M51.218,143.559c-0.87,0.033-1.687,0.185-2.465,0.637l-45.58,26.308
		c-1.7,0.978-2.745,2.789-2.739,4.748l0.091,70.608c0,0.979,0.505,1.894,1.369,2.372c0.844,0.507,1.898,0.507,2.741,0l27.036-15.526
		c1.713-1.016,2.831-2.786,2.831-4.749v-32.973c0-1.97,1.033-3.775,2.741-4.751l11.507-6.667c0.831-0.483,1.778-0.736,2.74-0.731
		c0.939,0,1.904,0.235,2.74,0.731l11.508,6.667c1.702,0.975,2.748,2.789,2.741,4.751v32.972c0,1.963,1.131,3.744,2.831,4.75
		l27.036,15.526c0.843,0.507,1.896,0.507,2.741,0c0.848-0.489,1.369-1.395,1.371-2.372l0.088-70.608
		c0.011-1.961-1.035-3.776-2.739-4.748l-45.578-26.308c-0.771-0.451-1.59-0.603-2.465-0.637H51.218L51.218,143.559z
		 M460.782,144.196c-0.952,0-1.886,0.241-2.739,0.731l-45.58,26.308c-1.698,0.977-2.745,2.789-2.741,4.748v52.61
		c0,1.98,1.114,3.773,2.831,4.751l45.214,25.757c1.668,0.951,3.709,1.025,5.389,0.088l27.402-15.252
		c0.87-0.482,1.456-1.384,1.46-2.375c0.01-0.979-0.515-1.892-1.371-2.375l-45.852-26.306c-0.857-0.49-1.459-1.482-1.459-2.466
		v-16.44c0-0.982,0.607-1.884,1.459-2.375l14.251-8.221c0.848-0.49,1.892-0.49,2.739,0l14.249,8.221
		c0.849,0.489,1.371,1.395,1.37,2.375v12.971c-0.002,0.978,0.521,1.886,1.37,2.373c0.854,0.495,1.887,0.496,2.739,0l27.312-15.891
		c1.696-0.98,2.74-2.791,2.741-4.75v-12.694c0-1.962-1.041-3.767-2.741-4.75l-45.306-26.308c-0.831-0.481-1.776-0.734-2.739-0.729
		v-0.001H460.782z M324.502,183.474c0.238,0,0.519,0.058,0.731,0.182l15.621,9.042c0.424,0.245,0.73,0.7,0.73,1.188v18.085
		c0,0.491-0.305,0.94-0.73,1.188l-15.621,9.043c-0.424,0.242-0.944,0.242-1.37,0l-15.619-9.043
		c-0.424-0.244-0.729-0.697-0.729-1.188v-18.085c0-0.491,0.306-0.939,0.729-1.188l15.619-9.041
		C324.056,183.538,324.277,183.474,324.502,183.474L324.502,183.474L324.502,183.474z"/>
	<path fill="#E61F2D" d="M188.134,143.923c-0.95,0-1.888,0.241-2.739,0.731l-45.578,26.214c-1.705,0.981-2.741,2.875-2.741,4.84
		v52.61c0,1.968,1.038,3.766,2.741,4.75l45.578,26.306c1.693,0.982,3.786,0.982,5.479,0l45.578-26.306
		c1.698-0.978,2.743-2.789,2.739-4.75V175.71c0-1.969-1.036-3.859-2.739-4.841l-45.578-26.214
		C190.042,144.173,189.096,143.922,188.134,143.923z M460.689,190.872c-0.184,0-0.384,0-0.548,0.092l-8.768,5.113
		c-0.335,0.186-0.543,0.535-0.55,0.915v10.047c0,0.38,0.22,0.724,0.55,0.915l8.768,5.024c0.329,0.19,0.678,0.19,1.004,0l8.768-5.026
		c0.332-0.187,0.54-0.532,0.551-0.913v-10.047c-0.011-0.381-0.219-0.728-0.551-0.915l-8.768-5.116
		C460.983,190.867,460.872,190.872,460.689,190.872L460.689,190.872z"/>
</g>
</svg>
