<?xml version="1.0" encoding="utf-8"?>
<!-- Generator: Adobe Illustrator 16.0.0, SVG Export Plug-In . SVG Version: 6.00 Build 0)  -->
<!DOCTYPE svg PUBLIC "-//W3C//DTD SVG 1.1//EN" "http://www.w3.org/Graphics/SVG/1.1/DTD/svg11.dtd">
<svg version="1.1" id="Layer_1" xmlns="http://www.w3.org/2000/svg" xmlns:xlink="http://www.w3.org/1999/xlink" x="0px" y="0px"
	 width="128px" height="128px" viewBox="0 0 128 128" enable-background="new 0 0 128 128" xml:space="preserve">
<path d="M64,101.334c-35.888,0-64-16.4-64-37.334s28.112-37.333,64-37.333c35.889,0,64,16.4,64,37.333S99.889,101.334,64,101.334z
	 M64,32C31.653,32,5.333,46.352,5.333,64c0,17.648,26.32,32,58.667,32s58.666-14.352,58.666-32C122.666,46.352,96.347,32,64,32z"/>
<path fill="#E61F2D" d="M29.339,85.334c-0.144,0-0.299-0.012-0.443-0.038c-1.451-0.239-2.438-1.616-2.192-3.066l1.76-10.56
	c0.011-0.075,0.021-0.145,0.038-0.214l3.536-21.221C32.25,48.944,33.365,48,34.667,48h7.312c2.944,0,5.712,1.301,7.595,3.568
	c1.888,2.267,2.656,5.227,2.112,8.128l-1.035,5.525c-1.024,5.479-5.813,9.445-11.376,9.445h-5.904l-1.408,8.438
	C31.744,84.41,30.613,85.334,29.339,85.334z M34.261,69.334h5.013c2.998,0,5.579-2.139,6.134-5.094l1.035-5.52
	c0.25-1.333-0.112-2.699-0.976-3.744c-0.859-1.045-2.133-1.643-3.488-1.643h-5.05L34.261,69.334z M84.006,85.334
	c-0.145,0-0.299-0.012-0.443-0.038c-1.451-0.239-2.438-1.616-2.191-3.066l1.76-10.56c0.01-0.075,0.021-0.145,0.037-0.214
	l3.536-21.221C86.918,48.944,88.032,48,89.334,48h7.312c2.944,0,5.712,1.301,7.595,3.568c1.888,2.267,2.656,5.227,2.111,8.128
	l-1.034,5.525c-1.024,5.479-5.813,9.445-11.376,9.445h-5.904l-1.408,8.438C86.41,84.41,85.279,85.334,84.006,85.334z M88.928,69.334
	h5.014c2.997,0,5.578-2.139,6.133-5.094l1.035-5.52c0.25-1.333-0.111-2.699-0.977-3.744c-0.857-1.045-2.133-1.643-3.487-1.643
	h-5.051L88.928,69.334z M58.672,74.666c-0.144,0-0.298-0.01-0.442-0.037c-1.451-0.24-2.438-1.615-2.192-3.066l5.333-32
	c0.246-1.456,1.648-2.448,3.067-2.192c1.451,0.24,2.438,1.616,2.191,3.067l-5.333,32C61.077,73.744,59.947,74.666,58.672,74.666z"/>
<path fill="#E61F2D" d="M74.672,74.666c-0.123,0-0.256-0.01-0.379-0.025c-1.455-0.209-2.475-1.559-2.266-3.014l1.914-13.43
	c0.111-0.763-0.234-1.285-0.448-1.536C73.275,56.416,72.8,56,72.043,56h-9.376C61.195,56,60,54.805,60,53.333
	c0-1.472,1.195-2.667,2.667-2.667h9.376c2.106,0,4.106,0.912,5.477,2.501c1.382,1.595,2,3.696,1.701,5.787l-1.914,13.424
	C77.115,73.707,75.973,74.666,74.672,74.666z"/>
</svg>
