<?xml version="1.0" encoding="utf-8"?>
<!-- Generator: Adobe Illustrator 16.0.0, SVG Export Plug-In . SVG Version: 6.00 Build 0)  -->
<!DOCTYPE svg PUBLIC "-//W3C//DTD SVG 1.1//EN" "http://www.w3.org/Graphics/SVG/1.1/DTD/svg11.dtd">
<svg version="1.1" id="Layer_1" xmlns="http://www.w3.org/2000/svg" xmlns:xlink="http://www.w3.org/1999/xlink" x="0px" y="0px"
	 width="569.041px" height="385.723px" viewBox="-124.352 -41.575 569.041 385.723"
	 enable-background="new -124.352 -41.575 569.041 385.723" xml:space="preserve">
<g>
	<path fill-rule="evenodd" clip-rule="evenodd" fill="#ECECEC" d="M364.491,81.275c1.343,1.003,2.527,2.171,3.535,3.463l4.514-0.824
		l2.979,6.982l-3.718,2.689c0.235,1.621,0.26,3.285,0.055,4.949l3.773,2.608l-2.831,7.044l-4.528-0.727
		c-1.003,1.344-2.172,2.528-3.464,3.535l0.824,4.514l-6.981,2.979l-2.689-3.718c-1.621,0.235-3.284,0.259-4.949,0.054l-2.607,3.773
		l-7.045-2.83l0.728-4.529c-1.344-1.003-2.527-2.171-3.535-3.463l-4.515,0.824l-2.979-6.982l3.719-2.689
		c-0.235-1.621-0.259-3.284-0.055-4.949l-3.772-2.608l2.83-7.044l4.528,0.728c1.003-1.344,2.172-2.528,3.464-3.536l-0.824-4.514
		l6.981-2.979l2.689,3.718c1.621-0.235,3.284-0.259,4.949-0.054l2.607-3.773l7.044,2.83L364.491,81.275L364.491,81.275z
		 M356.645,88.829c-4.173-1.677-8.916,0.347-10.593,4.521c-1.677,4.173,0.348,8.916,4.521,10.593
		c4.174,1.677,8.916-0.347,10.593-4.521C362.842,95.248,360.818,90.506,356.645,88.829z"/>
	<path fill-rule="evenodd" clip-rule="evenodd" fill="#ECECEC" d="M-54.178,111.715c2.429,1.813,4.569,3.925,6.391,6.259l8.159-1.49
		l5.385,12.621l-6.72,4.86c0.425,2.93,0.469,5.937,0.098,8.945l6.82,4.714l-5.117,12.732l-8.184-1.314
		c-1.814,2.429-3.926,4.569-6.261,6.391l1.489,8.158l-12.62,5.386l-4.861-6.72c-2.93,0.425-5.936,0.468-8.944,0.098l-4.714,6.819
		l-12.732-5.115l1.314-8.185c-2.429-1.814-4.569-3.926-6.39-6.261l-8.159,1.489l-5.386-12.621l6.721-4.86
		c-0.425-2.93-0.468-5.936-0.098-8.944l-6.82-4.714l5.116-12.732l8.185,1.315c1.814-2.429,3.925-4.57,6.26-6.391l-1.489-8.159
		l12.62-5.386l4.861,6.721c2.93-0.425,5.936-0.468,8.944-0.098l4.714-6.82l12.732,5.115L-54.178,111.715L-54.178,111.715z
		 M-68.36,125.368c-7.543-3.031-16.116,0.627-19.146,8.17c-3.031,7.544,0.627,16.115,8.171,19.146
		c7.543,3.03,16.116-0.627,19.147-8.171C-57.158,136.97-60.816,128.398-68.36,125.368z"/>
	<path fill-rule="evenodd" clip-rule="evenodd" fill="#F0F0F0" d="M-87.665,47.83c1.344,1.003,2.528,2.171,3.536,3.463l4.514-0.824
		l2.979,6.982l-3.718,2.689c0.235,1.621,0.259,3.285,0.054,4.949l3.773,2.608l-2.831,7.044l-4.528-0.728
		c-1.004,1.344-2.172,2.528-3.464,3.536l0.824,4.514l-6.982,2.979l-2.689-3.718c-1.621,0.235-3.284,0.259-4.949,0.054l-2.608,3.773
		l-7.044-2.83l0.728-4.529c-1.344-1.003-2.528-2.172-3.536-3.463l-4.514,0.824l-2.979-6.982l3.718-2.689
		c-0.235-1.621-0.259-3.284-0.054-4.949l-3.773-2.608l2.83-7.044l4.528,0.728c1.003-1.344,2.171-2.528,3.463-3.536l-0.824-4.514
		l6.982-2.979l2.689,3.718c1.621-0.235,3.284-0.259,4.948-0.054l2.608-3.773l7.044,2.831L-87.665,47.83L-87.665,47.83z
		 M-95.51,55.384c-4.174-1.677-8.916,0.347-10.593,4.521c-1.677,4.173,0.347,8.916,4.521,10.593
		c4.173,1.676,8.916-0.347,10.593-4.521S-91.337,57.06-95.51,55.384z"/>
	<path fill-rule="evenodd" clip-rule="evenodd" fill="#E1E1E1" d="M4.186-7.715c3.923,1.442,7.582,3.391,10.907,5.761l10.198-5.177
		l12.08,14.563L30.4,16.498c1.714,3.706,2.954,7.663,3.646,11.784l10.866,3.549l-1.756,18.839l-11.334,1.48
		c-1.443,3.923-3.392,7.583-5.763,10.908l5.176,10.198L16.674,85.337l-9.066-6.971c-3.706,1.714-7.662,2.953-11.783,3.646
		l-3.55,10.868l-18.839-1.756l-1.48-11.334c-3.923-1.443-7.583-3.392-10.908-5.763l-10.198,5.177l-12.08-14.563l6.972-9.066
		c-1.714-3.706-2.953-7.662-3.646-11.783l-10.868-3.55l1.756-18.84l11.335-1.48c1.443-3.923,3.392-7.583,5.762-10.908l-5.177-10.198
		l14.563-12.08l9.067,6.972c3.706-1.714,7.662-2.953,11.783-3.646l3.55-10.868l18.839,1.755L4.186-7.715L4.186-7.715z M-9.19,15.906
		c-11.162-1.041-21.054,7.165-22.094,18.327s7.166,21.053,18.327,22.093c11.163,1.041,21.054-7.165,22.094-18.327
		C10.177,26.838,1.972,16.946-9.19,15.906z"/>
</g>
<g>
	<g>
		<g>
			<path fill="#FF4F5B" d="M-74.891,304.039c12.485-8.172,15.655-23.818,15.516-37.953c-0.023-2.36,0.3-4.84-0.786-6.936
				s-3.702-3.572-5.866-2.63c-1.794,0.782-2.617,2.8-3.651,4.461c-1.375,2.209-3.388,4.017-5.732,5.146
				c-1.54,0.743-3.433,1.175-4.915,0.321c-2.033-1.171-2.207-3.986-2.135-6.331c0.135-4.37,0.27-8.739,0.404-13.108
				c0.072-2.345,0.138-4.739-0.546-6.981c-0.684-2.243-2.266-4.351-4.511-5.028c-2.245-0.679-5.072,0.54-5.605,2.824
				c-0.222,0.95-0.049,1.946-0.139,2.918c-0.09,0.972-0.576,2.038-1.52,2.287c-0.955,0.251-1.889-0.436-2.583-1.139
				c-2.395-2.427-3.984-5.517-5.465-8.587c-1.481-3.069-2.914-6.211-5.076-8.847c-2.162-2.635-5.19-4.755-8.587-5.026
				c-3.398-0.271-7.074,1.715-8.015,4.991c-0.944,3.284,0.929,6.686,2.99,9.412c3.057,4.045,6.703,7.646,10.787,10.651
				c0.736,0.543,1.535,1.129,1.8,2.005c0.478,1.575-1.062,3.093-2.638,3.568c-1.786,0.54-3.703,0.313-5.561,0.483
				s-3.885,0.93-4.628,2.641c-1.031,2.374,0.938,4.935,2.896,6.627c3.921,3.391,8.427,6.103,13.258,7.981
				c1.732,0.674,3.558,1.271,4.937,2.517c1.38,1.245,2.179,3.373,1.287,5.004c-0.893,1.634-3.091,2.109-4.914,1.73
				c-1.822-0.378-3.438-1.398-5.166-2.09c-3.235-1.295-7.458-1.173-9.617,1.563c-1.419,1.797-1.603,4.345-0.961,6.543
				s2.005,4.111,3.46,5.881c5.084,6.185,11.664,11.222,19.175,13.995C-89.485,305.707-82.484,306.575-74.891,304.039"/>
		</g>
	</g>
	<g>
		<g>
			<g>
				<path fill="#1A2E35" d="M-120.59,221.287c-0.004,0.006,0.072,0.083,0.226,0.229c0.171,0.158,0.4,0.369,0.69,0.638
					c0.609,0.558,1.507,1.381,2.633,2.471c2.257,2.174,5.423,5.438,8.838,9.884c1.715,2.215,3.491,4.72,5.35,7.442
					c1.854,2.728,3.815,5.654,5.761,8.807c1.946,3.15,3.888,6.524,5.616,10.161c0.872,1.813,1.642,3.71,2.429,5.643
					c0.782,1.931,1.575,3.892,2.378,5.874c3.184,7.944,5.966,15.617,7.914,22.768c1.96,7.145,3.069,13.751,3.488,19.335
					c0.433,5.587,0.205,10.134-0.102,13.249c-0.163,1.558-0.313,2.767-0.445,3.581c-0.056,0.392-0.1,0.699-0.133,0.931
					c-0.027,0.209-0.038,0.317-0.031,0.319c0.007,0.001,0.033-0.104,0.075-0.313c0.043-0.229,0.102-0.534,0.176-0.923
					c0.16-0.812,0.338-2.019,0.527-3.577c0.359-3.118,0.635-7.679,0.241-13.29c-0.381-5.608-1.463-12.245-3.408-19.418
					c-1.932-7.179-4.71-14.873-7.897-22.823c-0.804-1.984-1.598-3.945-2.381-5.878c-0.786-1.927-1.565-3.838-2.445-5.661
					c-1.743-3.655-3.7-7.036-5.661-10.19c-1.96-3.154-3.936-6.078-5.804-8.799c-1.875-2.717-3.669-5.217-5.405-7.427
					c-3.458-4.435-6.668-7.679-8.965-9.817c-1.146-1.073-2.063-1.877-2.692-2.413c-0.303-0.255-0.541-0.455-0.719-0.606
					C-120.499,221.348-120.584,221.281-120.59,221.287z"/>
			</g>
		</g>
	</g>
	<g>
		<g>
			<g>
				<path fill="#1A2E35" d="M-91.214,260.714c0.03,0.006,0.12-0.349,0.257-0.994c0.141-0.646,0.313-1.585,0.509-2.748
					c0.393-2.327,0.825-5.559,1.287-9.123c0.462-3.566,0.939-6.782,1.368-9.097c0.21-1.157,0.391-2.093,0.523-2.738
					c0.129-0.645,0.187-1.007,0.157-1.014c-0.029-0.008-0.143,0.34-0.323,0.976c-0.184,0.634-0.411,1.563-0.661,2.717
					c-0.507,2.308-1.035,5.53-1.498,9.1c-0.447,3.519-0.851,6.701-1.16,9.134c-0.147,1.098-0.271,2.023-0.371,2.765
					C-91.21,260.345-91.244,260.709-91.214,260.714z"/>
			</g>
		</g>
	</g>
	<g>
		<g>
			<g>
				<path fill="#1A2E35" d="M-121.622,254.351c-0.002,0.03,0.431,0.09,1.214,0.174c0.782,0.087,1.915,0.207,3.309,0.401
					c2.791,0.364,6.627,1.002,10.829,1.887c4.202,0.895,7.969,1.862,10.674,2.641c1.355,0.38,2.444,0.716,3.197,0.943
					c0.753,0.231,1.175,0.347,1.185,0.317c0.01-0.028-0.392-0.196-1.13-0.479c-0.739-0.277-1.816-0.659-3.163-1.078
					c-2.69-0.856-6.458-1.875-10.672-2.771c-4.215-0.889-8.074-1.479-10.883-1.768c-1.403-0.154-2.544-0.229-3.332-0.264
					C-121.184,254.323-121.62,254.321-121.622,254.351z"/>
			</g>
		</g>
	</g>
	<g>
		<g>
			<g>
				<path fill="#1A2E35" d="M-78.729,294.533c0.014,0.006,0.089-0.119,0.219-0.363c0.148-0.291,0.33-0.647,0.549-1.078
					c0.473-0.938,1.121-2.313,1.898-4.023c1.559-3.418,3.561-8.207,5.698-13.521c2.138-5.315,4.092-10.116,5.576-13.562
					c0.727-1.675,1.325-3.053,1.77-4.076c0.19-0.444,0.347-0.812,0.475-1.111c0.104-0.257,0.152-0.395,0.139-0.401
					s-0.088,0.118-0.218,0.363c-0.148,0.291-0.33,0.646-0.549,1.077c-0.473,0.939-1.121,2.313-1.898,4.024
					c-1.558,3.418-3.561,8.207-5.698,13.522c-2.138,5.314-4.091,10.114-5.576,13.561c-0.727,1.675-1.325,3.052-1.77,4.076
					c-0.189,0.444-0.346,0.812-0.475,1.111C-78.695,294.389-78.743,294.527-78.729,294.533z"/>
			</g>
		</g>
	</g>
	<g>
		<g>
			<g>
				<path fill="#1A2E35" d="M-119.003,280.652c-0.004,0.015,0.132,0.074,0.398,0.175c0.314,0.111,0.701,0.25,1.169,0.418
					c1.08,0.374,2.539,0.879,4.313,1.493c3.641,1.262,8.65,3.063,14.182,5.061c5.534,1.997,10.564,3.753,14.233,4.942
					c1.834,0.595,3.323,1.061,4.359,1.362c0.479,0.137,0.874,0.249,1.194,0.34c0.274,0.073,0.421,0.105,0.425,0.091
					c0.005-0.015-0.133-0.074-0.399-0.174c-0.314-0.113-0.7-0.251-1.168-0.418c-1.08-0.374-2.539-0.88-4.313-1.494
					c-3.641-1.263-8.65-3.063-14.184-5.061c-5.532-1.997-10.562-3.753-14.231-4.942c-1.834-0.595-3.324-1.061-4.359-1.362
					c-0.479-0.137-0.873-0.249-1.194-0.34C-118.853,280.669-118.999,280.637-119.003,280.652z"/>
			</g>
		</g>
	</g>
</g>
<g>
	<g>
		<g>
			<g>
				<g>
					<path fill="#375A64" d="M330.924,198.483l-60.334-0.278c-7.257-0.032-13.113-5.925-13.082-13.161l0.639-150.837
						c0.031-7.24,5.943-13.084,13.203-13.051l60.335,0.278c7.256,0.033,13.112,5.925,13.082,13.161l-0.64,150.838
						C344.096,192.673,338.184,198.517,330.924,198.483z"/>
				</g>
			</g>
			<g>
				<g>
					<path fill="#FFFFFF" d="M331.599,26.639L319.9,26.585c-1.568-0.007-2.846,1.313-2.853,2.948l-0.01,2.116
						c-0.006,1.635-1.284,2.956-2.853,2.948l-22.802-0.105c-1.568-0.007-2.835-1.339-2.828-2.975l0.01-2.116
						c0.007-1.635-1.26-2.967-2.828-2.974l-4.114-0.02l-10.238-0.047c-5.085-0.023-9.226,4.069-9.247,9.14l-0.624,147.228
						c-0.021,5.068,4.08,9.194,9.162,9.218l60.214,0.277c5.084,0.023,9.225-4.068,9.246-9.14l0.624-147.229
						C340.781,30.788,336.681,26.662,331.599,26.639z"/>
				</g>
			</g>
		</g>
	</g>
	<g>
		<rect x="271.032" y="126.818" fill="#375A64" width="59.581" height="3.986"/>
	</g>
	<g>
		<g>
			<path fill="#375A64" d="M328.488,142.51c0,0.144-12.718,0.26-28.401,0.26c-15.69,0-28.404-0.117-28.404-0.26
				c0-0.144,12.714-0.261,28.404-0.261C315.771,142.249,328.488,142.366,328.488,142.51z"/>
		</g>
	</g>
	<g>
		<g>
			<path fill="#375A64" d="M328.488,47.972c0,0.144-12.718,0.26-28.401,0.26c-15.69,0-28.404-0.116-28.404-0.26
				s12.714-0.26,28.404-0.26C315.771,47.712,328.488,47.828,328.488,47.972z"/>
		</g>
	</g>
	<g>
		<g>
			<path fill="#375A64" d="M328.488,149.765c0,0.145-12.718,0.261-28.401,0.261c-15.69,0-28.404-0.116-28.404-0.261
				c0-0.144,12.714-0.26,28.404-0.26C315.771,149.505,328.488,149.621,328.488,149.765z"/>
		</g>
	</g>
	<g>
		<g>
			<path fill="#375A64" d="M328.488,157.021c0,0.144-12.718,0.26-28.401,0.26c-15.69,0-28.404-0.116-28.404-0.26
				c0-0.145,12.714-0.261,28.404-0.261C315.771,156.76,328.488,156.876,328.488,157.021z"/>
		</g>
	</g>
	<g>
		<g>
			<path fill="#375A64" d="M328.488,164.276c0,0.144-12.718,0.261-28.401,0.261c-15.69,0-28.404-0.117-28.404-0.261
				s12.714-0.261,28.404-0.261C315.771,164.015,328.488,164.132,328.488,164.276z"/>
		</g>
	</g>
	<g>
		<g>
			<path fill="#375A64" d="M328.488,171.531c0,0.145-12.718,0.261-28.401,0.261c-15.69,0-28.404-0.116-28.404-0.261
				c0-0.144,12.714-0.26,28.404-0.26C315.771,171.271,328.488,171.387,328.488,171.531z"/>
		</g>
	</g>
	<g>
		<g>
			<path fill="#375A64" d="M329.301,179.757c0,0.144-12.718,0.261-28.401,0.261c-15.689,0-28.404-0.117-28.404-0.261
				s12.715-0.261,28.404-0.261C316.583,179.496,329.301,179.614,329.301,179.757z"/>
		</g>
	</g>
	<g>
		<g>
			<g>
				<g>
					<rect x="271.683" y="56.245" fill="#E1E1E1" width="59.731" height="57.789"/>
				</g>
			</g>
		</g>
		<g>
			<g>
				<g>
					<polygon fill="#FF4F5B" points="276.313,109.088 292.837,79.35 306.353,98.358 314.564,88.264 326.782,109.088 					"/>
				</g>
			</g>
		</g>
		<g>
			<g>
				<g>
					<circle fill="#FF4F5B" cx="307.811" cy="73.567" r="4.299"/>
				</g>
			</g>
		</g>
		<g>
			<g>
				<g>
					<g>
						<path fill="#375A64" d="M326.782,109.249c-0.004-0.005-0.009-0.084-0.014-0.237c-0.003-0.173-0.008-0.393-0.014-0.674
							c-0.007-0.615-0.016-1.482-0.028-2.601c-0.015-2.292-0.036-5.606-0.063-9.814c-0.03-8.441-0.073-20.461-0.125-34.893
							l0.244,0.244c-14.617,0.012-31.943,0.026-50.464,0.041c-0.068,0.06,0.534-0.535,0.279-0.276v0.013v0.026v0.052v0.103v0.207
							v0.412v0.823v1.641c0,1.092,0,2.18,0,3.262c-0.001,2.166-0.001,4.311-0.002,6.435c-0.003,4.247-0.005,8.405-0.007,12.453
							c-0.01,8.093-0.02,15.745-0.027,22.784l-0.248-0.248c15.063,0.052,27.645,0.096,36.49,0.126
							c4.411,0.028,7.889,0.049,10.292,0.064c1.175,0.013,2.086,0.022,2.73,0.029c0.296,0.006,0.526,0.01,0.707,0.014
							C326.694,109.24,326.778,109.244,326.782,109.249c0.005,0.004-0.069,0.009-0.221,0.014c-0.174,0.003-0.396,0.008-0.681,0.014
							c-0.633,0.006-1.528,0.017-2.682,0.029c-2.392,0.015-5.851,0.037-10.236,0.065c-8.884,0.031-21.521,0.074-36.649,0.126
							l-0.248,0.001v-0.25c-0.008-7.039-0.018-14.69-0.027-22.784c-0.002-4.048-0.005-8.206-0.007-12.453
							c-0.001-2.124-0.001-4.269-0.002-6.435c0-1.083,0-2.17,0-3.262v-1.641l-0.001-0.823v-0.412v-0.207v-0.103v-0.052v-0.026
							v-0.013c-0.253,0.25,0.346-0.356,0.29-0.293c18.521,0.015,35.847,0.029,50.464,0.04l0.245,0l-0.001,0.245
							c-0.052,14.496-0.095,26.569-0.125,35.048c-0.026,4.185-0.049,7.48-0.063,9.759c-0.012,1.098-0.021,1.95-0.028,2.554
							c-0.006,0.27-0.01,0.481-0.014,0.647C326.792,109.183,326.787,109.253,326.782,109.249z"/>
					</g>
				</g>
			</g>
		</g>
	</g>
</g>
<g>
	<g>
		<g>
			<path fill="#375A64" d="M241.777-30.026v133.225c0,6.378-5.171,11.549-11.55,11.549H28.989c-6.379,0-11.549-5.17-11.549-11.549
				V-30.026c0-6.378,5.17-11.549,11.549-11.549h201.238C236.606-41.575,241.777-36.404,241.777-30.026z"/>
		</g>
		<g>
			<rect x="32.788" y="-36.645" fill="#FFFFFF" width="187.349" height="146.464"/>
		</g>
		<g>
			<circle fill="#1A2E35" cx="230.504" cy="36.587" r="5.998"/>
		</g>
		<g>
			<path fill="#1A2E35" d="M26.379,14.261v44.652c0,0.671-0.544,1.215-1.215,1.215h-0.047c-0.671,0-1.215-0.544-1.215-1.215V14.261
				c0-0.671,0.544-1.215,1.215-1.215h0.047C25.835,13.046,26.379,13.59,26.379,14.261z"/>
		</g>
	</g>
	<g>
		<g>
			<rect x="118.237" y="-25.639" fill="#375A64" width="59.581" height="3.985"/>
		</g>
		<g>
			<rect x="40.631" y="42.885" fill="#375A64" width="59.581" height="3.986"/>
		</g>
		<g>
			<g>
				<path fill="#375A64" d="M192.335-10.797c0,0.144-16.589,0.261-37.047,0.261c-20.466,0-37.051-0.117-37.051-0.261
					c0-0.144,16.585-0.26,37.051-0.26C175.746-11.057,192.335-10.94,192.335-10.797z"/>
			</g>
		</g>
		<g>
			<g>
				<path fill="#375A64" d="M192.335-2.093c0,0.144-16.589,0.26-37.047,0.26c-20.466,0-37.051-0.117-37.051-0.26
					c0-0.144,16.585-0.261,37.051-0.261C175.746-2.354,192.335-2.237,192.335-2.093z"/>
			</g>
		</g>
		<g>
			<g>
				<path fill="#375A64" d="M192.335,6.61c0,0.144-16.589,0.26-37.047,0.26c-20.466,0-37.051-0.117-37.051-0.26
					c0-0.144,16.585-0.26,37.051-0.26C175.746,6.35,192.335,6.466,192.335,6.61z"/>
			</g>
		</g>
		<g>
			<g>
				<path fill="#375A64" d="M192.335,15.313c0,0.144-16.589,0.26-37.047,0.26c-20.466,0-37.051-0.117-37.051-0.26
					c0-0.144,16.585-0.26,37.051-0.26C175.746,15.053,192.335,15.169,192.335,15.313z"/>
			</g>
		</g>
		<g>
			<g>
				<path fill="#375A64" d="M192.335,24.016c0,0.144-16.589,0.26-37.047,0.26c-20.466,0-37.051-0.117-37.051-0.26
					c0-0.144,16.585-0.261,37.051-0.261C175.746,23.756,192.335,23.872,192.335,24.016z"/>
			</g>
		</g>
		<g>
			<g>
				<path fill="#375A64" d="M176.085,32.719c0,0.144-12.95,0.26-28.922,0.26c-15.978,0-28.925-0.117-28.925-0.26
					c0-0.144,12.948-0.261,28.925-0.261C163.135,32.459,176.085,32.575,176.085,32.719z"/>
			</g>
		</g>
		<g>
			<g>
				<path fill="#375A64" d="M138.482,58.577c0,0.144-21.761,0.26-48.598,0.26c-26.847,0-48.603-0.116-48.603-0.26
					c0-0.144,21.756-0.26,48.603-0.26C116.721,58.317,138.482,58.434,138.482,58.577z"/>
			</g>
		</g>
		<g>
			<g>
				<path fill="#375A64" d="M138.482,65.833c0,0.144-21.761,0.26-48.598,0.26c-26.847,0-48.603-0.117-48.603-0.26
					c0-0.144,21.756-0.26,48.603-0.26C116.721,65.573,138.482,65.689,138.482,65.833z"/>
			</g>
		</g>
		<g>
			<g>
				<path fill="#375A64" d="M138.482,73.088c0,0.144-21.761,0.26-48.598,0.26c-26.847,0-48.603-0.117-48.603-0.26
					c0-0.144,21.756-0.261,48.603-0.261C116.721,72.827,138.482,72.944,138.482,73.088z"/>
			</g>
		</g>
		<g>
			<g>
				<path fill="#375A64" d="M138.482,80.343c0,0.144-21.761,0.261-48.598,0.261c-26.847,0-48.603-0.117-48.603-0.261
					c0-0.144,21.756-0.26,48.603-0.26C116.721,80.083,138.482,80.199,138.482,80.343z"/>
			</g>
		</g>
		<g>
			<g>
				<path fill="#375A64" d="M138.482,87.598c0,0.144-21.761,0.261-48.598,0.261c-26.847,0-48.603-0.117-48.603-0.261
					c0-0.144,21.756-0.26,48.603-0.26C116.721,87.338,138.482,87.455,138.482,87.598z"/>
			</g>
		</g>
		<g>
			<g>
				<g>
					<g>
						<rect x="41.281" y="-27.687" fill="#FF4F5B" width="59.731" height="57.789"/>
					</g>
				</g>
			</g>
			<g>
				<g>
					<g>
						<polygon fill="#E1E1E1" points="45.912,25.156 62.436,-4.582 75.951,14.425 84.163,4.332 96.381,25.156 						"/>
					</g>
				</g>
			</g>
			<g>
				<g>
					<g>
						<circle fill="#E1E1E1" cx="77.409" cy="-10.366" r="4.298"/>
					</g>
				</g>
			</g>
			<g>
				<g>
					<g>
						<g>
							<path fill="#375A64" d="M96.381,25.317c-0.004-0.004-0.009-0.084-0.014-0.237c-0.003-0.173-0.008-0.394-0.014-0.674
								c-0.007-0.615-0.016-1.483-0.028-2.601c-0.015-2.292-0.036-5.606-0.063-9.814c-0.03-8.441-0.073-20.461-0.125-34.893
								l0.244,0.244c-14.617,0.012-31.944,0.026-50.464,0.041c-0.068,0.06,0.534-0.535,0.279-0.276v0.013v0.026v0.052v0.104v0.206
								v0.412v0.823v1.641c0,1.092,0,2.18,0,3.263c0,2.165-0.001,4.311-0.002,6.434c-0.002,4.247-0.004,8.405-0.007,12.453
								c-0.01,8.093-0.019,15.745-0.027,22.784l-0.248-0.248c15.063,0.053,27.645,0.096,36.49,0.126
								c4.41,0.028,7.888,0.049,10.292,0.065c1.175,0.012,2.086,0.022,2.73,0.029c0.295,0.006,0.527,0.01,0.708,0.014
								C96.292,25.307,96.376,25.312,96.381,25.317c0.005,0.004-0.07,0.009-0.221,0.014c-0.174,0.003-0.396,0.008-0.681,0.015
								c-0.633,0.006-1.528,0.016-2.682,0.028c-2.391,0.015-5.85,0.037-10.236,0.065c-8.884,0.031-21.521,0.074-36.649,0.126
								l-0.248,0.001v-0.249c-0.008-7.039-0.018-14.691-0.027-22.784c-0.002-4.048-0.005-8.206-0.007-12.453
								c0-2.124-0.001-4.269-0.001-6.434c0-1.083,0-2.17,0-3.263v-1.641l0-0.823v-0.412V-22.7v-0.104v-0.052v-0.026v-0.013
								c-0.253,0.25,0.346-0.356,0.29-0.292c18.52,0.015,35.847,0.028,50.464,0.04l0.245,0l-0.001,0.244
								C96.573-8.406,96.53,3.668,96.5,12.146c-0.027,4.185-0.048,7.481-0.063,9.759c-0.012,1.098-0.021,1.95-0.028,2.554
								c-0.005,0.27-0.01,0.481-0.014,0.647C96.39,25.25,96.386,25.321,96.381,25.317z"/>
						</g>
					</g>
				</g>
			</g>
		</g>
		<g>
			<g>
				<g>
					<g>
						<rect x="151.889" y="50.552" fill="#FF4F5B" width="42.273" height="40.898"/>
					</g>
				</g>
			</g>
			<g>
				<g>
					<g>
						<polygon fill="#E1E1E1" points="155.167,87.95 166.86,66.905 176.426,80.356 182.237,73.213 190.884,87.95 						"/>
					</g>
				</g>
			</g>
			<g>
				<g>
					<g>
						<circle fill="#E1E1E1" cx="177.458" cy="62.811" r="3.042"/>
					</g>
				</g>
			</g>
			<g>
				<g>
					<g>
						<g>
							<path fill="#375A64" d="M190.884,88.064c-0.003-0.003-0.006-0.06-0.01-0.168c-0.002-0.123-0.005-0.278-0.009-0.477
								c-0.005-0.436-0.012-1.049-0.021-1.841c-0.011-1.622-0.025-3.967-0.045-6.945c-0.021-5.974-0.052-14.48-0.089-24.694
								l0.173,0.173c-10.344,0.008-22.606,0.018-35.714,0.029c-0.048,0.042,0.378-0.379,0.198-0.196v0.009v0.018v0.037v0.073v0.146
								v0.292v0.583v1.162c0,0.773-0.001,1.542-0.001,2.309c0,1.533,0,3.051-0.001,4.554c-0.002,3.006-0.003,5.948-0.005,8.813
								c-0.007,5.728-0.014,11.143-0.02,16.125l-0.175-0.175c10.66,0.037,19.564,0.068,25.824,0.089
								c3.121,0.02,5.583,0.035,7.284,0.046c0.831,0.009,1.476,0.016,1.933,0.021c0.209,0.004,0.372,0.007,0.5,0.01
								C190.821,88.057,190.881,88.06,190.884,88.064c0.004,0.003-0.049,0.006-0.156,0.01c-0.123,0.002-0.28,0.006-0.481,0.01
								c-0.448,0.004-1.081,0.011-1.898,0.02c-1.691,0.011-4.14,0.026-7.244,0.046c-6.287,0.022-15.23,0.053-25.937,0.089l-0.176,0
								v-0.176c-0.006-4.981-0.013-10.397-0.02-16.125c-0.001-2.865-0.003-5.807-0.005-8.813c0-1.502-0.001-3.021-0.001-4.554
								c0-0.766,0-1.536,0-2.309v-1.162l-0.001-0.583v-0.292v-0.146v-0.073v-0.037v-0.018v-0.009
								c-0.18,0.177,0.245-0.252,0.205-0.207c13.107,0.01,25.37,0.02,35.714,0.028h0.174l-0.001,0.173
								c-0.036,10.259-0.066,18.804-0.088,24.804c-0.02,2.961-0.035,5.294-0.045,6.907c-0.009,0.777-0.016,1.38-0.021,1.807
								c-0.004,0.191-0.007,0.34-0.01,0.458C190.891,88.017,190.888,88.067,190.884,88.064z"/>
						</g>
					</g>
				</g>
			</g>
		</g>
	</g>
</g>
<g>
	<g>
		<g>
			<g>
				<path fill="#1A2E35" d="M224.595,337.927H-59.859c-8.045,0-14.567-6.521-14.567-14.567V145.122
					c0-8.045,6.522-14.567,14.567-14.567h284.454c8.045,0,14.567,6.522,14.567,14.567V323.36
					C239.162,331.406,232.64,337.927,224.595,337.927z"/>
			</g>
			<g>
				<path fill="#1A2E35" d="M234.411,340.735H-69.742c-9.83,0-17.798-7.968-17.798-17.798v-0.347h339.749v0.347
					C252.209,332.767,244.24,340.735,234.411,340.735z"/>
			</g>
			<g>
				<rect x="-66.009" y="138.794" fill="#E1E1E1" width="295.876" height="175.123"/>
			</g>
			<g>
				<polygon fill="#375A64" points="51.455,322.59 55.67,329.296 114.995,329.296 118.91,322.59 				"/>
			</g>
		</g>
		<g>
			<rect x="-56.141" y="150.455" fill="#FAFAFA" width="272.412" height="163.394"/>
		</g>
		<g>
			<circle fill="#375A64" cx="-46.799" cy="158.514" r="2.285"/>
		</g>
		<g>
			<circle fill="#375A64" cx="-37.472" cy="158.514" r="2.286"/>
		</g>
		<g>
			<circle fill="#375A64" cx="-28.145" cy="158.514" r="2.286"/>
		</g>
		<g>
			<g>
				<path fill="#375A64" d="M216.271,168.514c0,0.144-60.986,0.26-136.199,0.26c-75.239,0-136.212-0.116-136.212-0.26
					c0-0.145,60.973-0.261,136.212-0.261C155.284,168.253,216.271,168.369,216.271,168.514z"/>
			</g>
		</g>
		<g>
			<rect x="-74.426" y="322.73" fill="#375A64" width="313.588" height="1"/>
		</g>
	</g>
	<g>
		<g>
			<rect x="-33.806" y="247.898" fill="#375A64" width="59.581" height="3.985"/>
		</g>
		<g>
			<rect x="43.15" y="192.562" fill="#375A64" width="59.581" height="3.986"/>
		</g>
		<g>
			<g>
				<path fill="#375A64" d="M191.346,207.406c0,0.144-33.178,0.261-74.094,0.261c-40.931,0-74.101-0.117-74.101-0.261
					s33.17-0.261,74.101-0.261C158.168,207.145,191.346,207.262,191.346,207.406z"/>
			</g>
		</g>
		<g>
			<g>
				<path fill="#375A64" d="M191.346,216.109c0,0.144-33.178,0.261-74.094,0.261c-40.931,0-74.101-0.117-74.101-0.261
					s33.17-0.261,74.101-0.261C158.168,215.848,191.346,215.965,191.346,216.109z"/>
			</g>
		</g>
		<g>
			<g>
				<path fill="#375A64" d="M191.346,224.812c0,0.144-33.178,0.261-74.094,0.261c-40.931,0-74.101-0.117-74.101-0.261
					s33.17-0.261,74.101-0.261C158.168,224.551,191.346,224.668,191.346,224.812z"/>
			</g>
		</g>
		<g>
			<g>
				<path fill="#375A64" d="M191.346,233.515c0,0.144-33.178,0.261-74.094,0.261c-40.931,0-74.101-0.117-74.101-0.261
					s33.17-0.261,74.101-0.261C158.168,233.254,191.346,233.371,191.346,233.515z"/>
			</g>
		</g>
		<g>
			<g>
				<path fill="#375A64" d="M191.346,242.218c0,0.144-33.178,0.261-74.094,0.261c-40.931,0-74.101-0.117-74.101-0.261
					s33.17-0.261,74.101-0.261C158.168,241.957,191.346,242.074,191.346,242.218z"/>
			</g>
		</g>
		<g>
			<g>
				<path fill="#375A64" d="M100.999,250.921c0,0.144-12.951,0.261-28.923,0.261c-15.978,0-28.925-0.117-28.925-0.261
					s12.948-0.261,28.925-0.261C88.048,250.66,100.999,250.778,100.999,250.921z"/>
			</g>
		</g>
		<g>
			<g>
				<path fill="#375A64" d="M190.262,267.812c0,0.144-21.807,0.261-48.7,0.261c-26.903,0-48.705-0.117-48.705-0.261
					s21.802-0.261,48.705-0.261C168.455,267.551,190.262,267.668,190.262,267.812z"/>
			</g>
		</g>
		<g>
			<g>
				<path fill="#375A64" d="M190.262,277.05c0,0.145-21.807,0.261-48.7,0.261c-26.903,0-48.705-0.116-48.705-0.261
					c0-0.144,21.802-0.26,48.705-0.26C168.455,276.79,190.262,276.906,190.262,277.05z"/>
			</g>
		</g>
		<g>
			<g>
				<path fill="#375A64" d="M190.262,286.289c0,0.144-21.807,0.26-48.7,0.26c-26.903,0-48.705-0.116-48.705-0.26
					c0-0.145,21.802-0.261,48.705-0.261C168.455,286.029,190.262,286.145,190.262,286.289z"/>
			</g>
		</g>
		<g>
			<g>
				<path fill="#375A64" d="M190.262,295.528c0,0.144-21.807,0.26-48.7,0.26c-26.903,0-48.705-0.116-48.705-0.26
					c0-0.145,21.802-0.261,48.705-0.261C168.455,295.267,190.262,295.383,190.262,295.528z"/>
			</g>
		</g>
		<g>
			<g>
				<path fill="#375A64" d="M25.925,266.928c0,0.144-13,0.261-29.031,0.261c-16.037,0-29.034-0.117-29.034-0.261
					s12.997-0.261,29.034-0.261C12.926,266.667,25.925,266.784,25.925,266.928z"/>
			</g>
		</g>
		<g>
			<g>
				<path fill="#375A64" d="M25.925,274.183c0,0.145-13,0.261-29.031,0.261c-16.037,0-29.034-0.116-29.034-0.261
					c0-0.144,12.997-0.26,29.034-0.26C12.926,273.923,25.925,274.039,25.925,274.183z"/>
			</g>
		</g>
		<g>
			<g>
				<path fill="#375A64" d="M25.925,281.439c0,0.144-13,0.261-29.031,0.261c-16.037,0-29.034-0.117-29.034-0.261
					s12.997-0.261,29.034-0.261C12.926,281.178,25.925,281.295,25.925,281.439z"/>
			</g>
		</g>
		<g>
			<g>
				<path fill="#375A64" d="M25.925,288.694c0,0.145-13,0.261-29.031,0.261c-16.037,0-29.034-0.116-29.034-0.261
					c0-0.144,12.997-0.26,29.034-0.26C12.926,288.434,25.925,288.55,25.925,288.694z"/>
			</g>
		</g>
		<g>
			<g>
				<path fill="#375A64" d="M25.925,295.949c0,0.144-13,0.26-29.031,0.26c-16.037,0-29.034-0.116-29.034-0.26
					c0-0.145,12.997-0.261,29.034-0.261C12.926,295.689,25.925,295.805,25.925,295.949z"/>
			</g>
		</g>
		<g>
			<g>
				<g>
					<g>
						<rect x="-33.806" y="179.539" fill="#E1E1E1" width="59.731" height="57.789"/>
					</g>
				</g>
			</g>
			<g>
				<g>
					<g>
						<polygon fill="#FF4F5B" points="-29.175,232.382 -12.651,202.645 0.864,221.652 9.076,211.558 21.294,232.382 						"/>
					</g>
				</g>
			</g>
			<g>
				<g>
					<g>
						<circle fill="#FF4F5B" cx="2.322" cy="196.861" r="4.299"/>
					</g>
				</g>
			</g>
			<g>
				<g>
					<g>
						<g>
							<path fill="#375A64" d="M21.294,232.543c-0.004-0.005-0.009-0.085-0.014-0.237c-0.003-0.173-0.008-0.394-0.014-0.674
								c-0.007-0.614-0.016-1.482-0.028-2.601c-0.015-2.291-0.036-5.605-0.063-9.814c-0.03-8.44-0.073-20.461-0.125-34.893
								l0.244,0.244c-14.617,0.012-31.944,0.025-50.464,0.041c-0.068,0.06,0.534-0.535,0.279-0.277v0.014v0.025v0.052v0.104v0.206
								v0.412v0.823v1.642c0,1.092,0,2.179,0,3.262c0,2.166-0.001,4.312-0.002,6.435c-0.002,4.247-0.004,8.404-0.007,12.452
								c-0.01,8.094-0.019,15.745-0.027,22.784l-0.248-0.247c15.063,0.052,27.645,0.096,36.49,0.126
								c4.411,0.027,7.888,0.049,10.292,0.064c1.175,0.013,2.086,0.022,2.73,0.029c0.295,0.006,0.527,0.011,0.707,0.014
								C21.206,232.533,21.29,232.538,21.294,232.543c0.005,0.004-0.07,0.009-0.221,0.014c-0.174,0.004-0.396,0.009-0.681,0.015
								c-0.633,0.006-1.528,0.016-2.682,0.028c-2.391,0.016-5.85,0.037-10.236,0.065c-8.884,0.03-21.521,0.073-36.649,0.125
								l-0.248,0.001v-0.249c-0.008-7.039-0.018-14.69-0.027-22.784c-0.002-4.048-0.005-8.205-0.007-12.452
								c0-2.123-0.001-4.269-0.001-6.435c0-1.083,0-2.17,0-3.262v-1.642l0-0.823v-0.412v-0.206v-0.104v-0.052v-0.025v-0.014
								c-0.253,0.25,0.346-0.355,0.29-0.292c18.52,0.015,35.847,0.028,50.464,0.04h0.245l-0.001,0.244
								c-0.052,14.496-0.095,26.569-0.125,35.049c-0.027,4.185-0.049,7.48-0.064,9.759c-0.012,1.098-0.021,1.95-0.028,2.554
								c-0.006,0.27-0.011,0.481-0.014,0.647C21.303,232.477,21.299,232.547,21.294,232.543z"/>
						</g>
					</g>
				</g>
			</g>
		</g>
		<g>
			<g>
				<g>
					<g>
						<rect x="43.114" y="263.404" fill="#E1E1E1" width="42.272" height="40.898"/>
					</g>
				</g>
			</g>
			<g>
				<g>
					<g>
						<polygon fill="#FF4F5B" points="46.392,300.802 58.085,279.756 67.65,293.207 73.462,286.065 82.109,300.802 						"/>
					</g>
				</g>
			</g>
			<g>
				<g>
					<g>
						<circle fill="#FF4F5B" cx="68.683" cy="275.662" r="3.042"/>
					</g>
				</g>
			</g>
			<g>
				<g>
					<g>
						<g>
							<path fill="#375A64" d="M82.109,300.915c-0.003-0.003-0.006-0.06-0.01-0.167c-0.002-0.123-0.005-0.279-0.009-0.478
								c-0.005-0.435-0.012-1.049-0.02-1.84c-0.011-1.622-0.026-3.968-0.045-6.946c-0.021-5.974-0.052-14.48-0.089-24.693
								l0.173,0.172c-10.344,0.009-22.607,0.019-35.714,0.029c-0.048,0.042,0.378-0.379,0.198-0.196v0.01v0.018v0.037v0.073v0.146
								v0.292v0.582v1.162c0,0.772,0,1.542,0,2.309c0,1.532-0.001,3.051-0.002,4.554c-0.001,3.006-0.003,5.948-0.004,8.813
								c-0.007,5.728-0.014,11.144-0.02,16.125l-0.175-0.176c10.66,0.037,19.564,0.068,25.825,0.09
								c3.122,0.02,5.583,0.035,7.284,0.046c0.832,0.009,1.476,0.016,1.933,0.021c0.209,0.004,0.373,0.007,0.5,0.01
								C82.046,300.908,82.106,300.912,82.109,300.915c0.004,0.003-0.049,0.007-0.156,0.01c-0.124,0.003-0.281,0.006-0.482,0.011
								c-0.448,0.004-1.082,0.011-1.898,0.02c-1.692,0.011-4.14,0.026-7.245,0.047c-6.287,0.021-15.23,0.052-25.937,0.089h-0.175
								v-0.176c-0.006-4.981-0.013-10.397-0.019-16.125c-0.002-2.864-0.004-5.807-0.005-8.813c0-1.503-0.001-3.021-0.001-4.554
								c0-0.767,0-1.536,0-2.309v-1.162l0-0.582v-0.292v-0.146v-0.073v-0.037v-0.018v-0.01c-0.179,0.177,0.245-0.252,0.205-0.207
								c13.107,0.011,25.37,0.021,35.714,0.028l0.174,0.001l0,0.173c-0.037,10.259-0.067,18.803-0.089,24.804
								c-0.019,2.961-0.034,5.294-0.045,6.906c-0.009,0.777-0.015,1.38-0.02,1.808c-0.004,0.19-0.007,0.341-0.01,0.458
								C82.116,300.868,82.113,300.918,82.109,300.915z"/>
						</g>
					</g>
				</g>
			</g>
		</g>
	</g>
</g>
<g>
	<g>
		<g>
			<g>
				<path fill="#FF4F5B" d="M438.351,322.997l-10.012-1.188l-2.345,18.74l14.63,1.892l0.22-1.152
					c0.934-5.135,4.387-26.177,3.771-29.765C443.928,307.523,438.351,322.997,438.351,322.997z"/>
			</g>
		</g>
		<g>
			<g>
				<g>
					
						<ellipse transform="matrix(0.1178 -0.993 0.993 0.1178 66.2731 726.2971)" fill="#1A2E35" cx="441.893" cy="325.85" rx="15.777" ry="0.323"/>
				</g>
			</g>
		</g>
		<g>
			<g>
				<g>
					<path fill="#1A2E35" d="M440.434,322.119c-0.103,0.144-0.625-0.056-1.1-0.521c-0.477-0.464-0.687-0.983-0.546-1.088
						c0.145-0.109,0.559,0.2,0.997,0.626C440.221,321.566,440.54,321.974,440.434,322.119z"/>
				</g>
			</g>
		</g>
		<g>
			<g>
				<g>
					<path fill="#1A2E35" d="M441.235,321.001c-0.083,0.155-0.676-0.002-1.257-0.446c-0.584-0.442-0.894-0.971-0.766-1.093
						c0.13-0.125,0.617,0.171,1.156,0.579C440.906,320.452,441.322,320.843,441.235,321.001z"/>
				</g>
			</g>
		</g>
		<g>
			<g>
				<g>
					<path fill="#1A2E35" d="M440.639,335.86c0.044,0.08-0.253,0.33-0.746,0.688c-0.488,0.36-1.175,0.829-1.775,1.473
						c-0.595,0.641-0.941,1.368-1.074,1.921c-0.14,0.555-0.106,0.934-0.202,0.953c-0.074,0.024-0.283-0.351-0.249-1.02
						c0.026-0.66,0.367-1.559,1.052-2.293c0.681-0.729,1.458-1.16,2.016-1.427C440.224,335.891,440.595,335.784,440.639,335.86z"/>
				</g>
			</g>
		</g>
		<g>
			<g>
				<g>
					<path fill="#1A2E35" d="M438.558,321.839c0.161-0.071,0.479,0.298,0.604,0.854c0.125,0.556-0.006,1.024-0.182,1.028
						c-0.181,0.006-0.338-0.398-0.449-0.888C438.423,322.344,438.393,321.911,438.558,321.839z"/>
				</g>
			</g>
		</g>
		<g>
			<g>
				<g>
					<path fill="#1A2E35" d="M437.556,322.019c0.179,0.005,0.27,0.522,0.203,1.156s-0.264,1.121-0.439,1.088
						c-0.175-0.032-0.266-0.55-0.203-1.155C437.181,322.501,437.378,322.014,437.556,322.019z"/>
				</g>
			</g>
		</g>
	</g>
	<g>
		<polygon fill="#1A2E35" points="432.248,342.043 376.815,336.423 261.886,338.993 292.444,314.352 369.155,310.666 
			436.223,319.908 		"/>
	</g>
	<g>
		<g>
			<path fill="#375A64" d="M338.56,326.653c0,0.145-10.789,0.261-24.095,0.261c-13.311,0-24.097-0.116-24.097-0.261
				c0-0.144,10.786-0.26,24.097-0.26C327.771,326.393,338.56,326.509,338.56,326.653z"/>
		</g>
	</g>
	<g>
		<polygon points="333.195,312.394 337.143,337.184 344.698,337.184 338.946,312.118 		"/>
	</g>
	<g>
		<g>
			<g>
				<path fill="#FF4F5B" d="M362.458,337.51l-1.121-10.02l-18.782,1.98l1.485,14.677l1.173-0.049
					c5.213-0.259,26.488-1.684,29.842-3.099C378.795,339.42,362.458,337.51,362.458,337.51z"/>
			</g>
		</g>
		<g>
			<g>
				<g>
					
						<ellipse transform="matrix(0.9938 -0.1112 0.1112 0.9938 -35.7839 42.1306)" fill="#1A2E35" cx="359.716" cy="341.788" rx="15.778" ry="0.322"/>
				</g>
			</g>
		</g>
		<g>
			<g>
				<g>
					<path fill="#1A2E35" d="M363.018,339.518c-0.163-0.067-0.089-0.621,0.257-1.189c0.344-0.569,0.802-0.893,0.936-0.779
						c0.14,0.116-0.067,0.59-0.383,1.114C363.508,339.185,363.184,339.588,363.018,339.518z"/>
				</g>
			</g>
		</g>
		<g>
			<g>
				<g>
					<path fill="#1A2E35" d="M364.289,340.044c-0.171-0.045-0.152-0.658,0.147-1.325c0.299-0.669,0.743-1.091,0.891-0.994
						c0.151,0.098-0.025,0.64-0.301,1.258C364.748,339.6,364.462,340.093,364.289,340.044z"/>
				</g>
			</g>
		</g>
		<g>
			<g>
				<g>
					<path fill="#1A2E35" d="M349.684,342.844c-0.067,0.061-0.379-0.172-0.839-0.57c-0.462-0.394-1.074-0.955-1.838-1.395
						c-0.759-0.434-1.547-0.604-2.115-0.607c-0.571-0.012-0.933,0.108-0.975,0.019c-0.039-0.066,0.278-0.355,0.937-0.475
						c0.649-0.124,1.602,0.003,2.473,0.503c0.864,0.497,1.461,1.156,1.849,1.639C349.56,342.447,349.748,342.783,349.684,342.844z"
						/>
				</g>
			</g>
		</g>
		<g>
			<g>
				<g>
					<path fill="#1A2E35" d="M362.863,337.628c0.106,0.14-0.181,0.534-0.694,0.781c-0.513,0.248-0.999,0.228-1.043,0.058
						c-0.047-0.175,0.312-0.42,0.763-0.641C362.341,337.611,362.756,337.483,362.863,337.628z"/>
				</g>
			</g>
		</g>
		<g>
			<g>
				<g>
					<path fill="#1A2E35" d="M362.46,336.693c0.036,0.175-0.447,0.382-1.079,0.461c-0.632,0.08-1.151-0.002-1.159-0.181
						c-0.009-0.178,0.475-0.384,1.079-0.46S362.425,336.518,362.46,336.693z"/>
				</g>
			</g>
		</g>
	</g>
	<g>
		<g>
			<g>
				<path fill="#C78976" d="M252.517,223.124l16.027-0.29c0.214-1.855,0.525-9.068,0.525-9.068s6.7-0.622,7.191-7.251
					c0.491-6.63,0.281-21.936,0.281-21.936l0,0c-7.477-3.774-16.41-3.207-23.35,1.482l-1.03,0.696L252.517,223.124z"/>
			</g>
			<g>
				<g>
					<circle fill="#1A2E35" cx="275.003" cy="195.213" r="0.965"/>
				</g>
				<g>
					<g>
						<path fill="#1A2E35" d="M276.013,194.472c-0.11,0.108-0.731-0.433-1.645-0.494c-0.913-0.073-1.605,0.371-1.7,0.247
							c-0.046-0.055,0.07-0.256,0.374-0.458c0.297-0.201,0.798-0.382,1.367-0.34c0.568,0.042,1.037,0.294,1.302,0.537
							C275.981,194.208,276.066,194.424,276.013,194.472z"/>
					</g>
				</g>
			</g>
			<g>
				<g>
					<circle fill="#1A2E35" cx="264.881" cy="195.409" r="0.965"/>
				</g>
				<g>
					<g>
						<path fill="#1A2E35" d="M266.038,194.664c-0.111,0.108-0.731-0.433-1.645-0.494c-0.913-0.074-1.606,0.371-1.7,0.247
							c-0.046-0.055,0.07-0.256,0.373-0.458c0.298-0.201,0.798-0.382,1.367-0.34s1.038,0.294,1.303,0.537
							C266.006,194.401,266.092,194.616,266.038,194.664z"/>
					</g>
				</g>
			</g>
			<g>
				<g>
					<path fill="#1A2E35" d="M269.237,202.429c-0.002-0.072,0.57-0.151,1.497-0.222c0.24-0.012,0.432-0.054,0.457-0.182
						c0.052-0.142-0.025-0.402-0.129-0.695c-0.198-0.618-0.398-1.244-0.608-1.9c-0.835-2.707-1.4-4.936-1.263-4.978
						c0.137-0.043,0.925,2.116,1.76,4.823c0.196,0.661,0.384,1.291,0.569,1.914c0.071,0.281,0.217,0.614,0.069,1.001
						c-0.078,0.193-0.275,0.325-0.436,0.356c-0.161,0.038-0.296,0.03-0.411,0.028C269.814,202.551,269.239,202.501,269.237,202.429z
						"/>
				</g>
			</g>
			<g>
				<path fill="#FFFFFF" d="M266.206,203.255c-0.917-0.626,2.535,1.555,4.401,1.579c0,0-1.173,1.639-3.042,0.821
					C265.624,204.806,266.206,203.255,266.206,203.255z"/>
			</g>
			<g>
				<path fill="#B66955" d="M269.087,213.671c0,0-4.215,0.083-8.498-2.991c0,0,1.75,4.9,8.407,4.711L269.087,213.671z"/>
			</g>
		</g>
	</g>
	<g>
		<path fill="#1A2E35" d="M277.023,182.193c1.521-0.044,2.752-1.744,2.317-3.203c-0.434-1.458-2.393-2.21-3.691-1.416
			c0.745-0.706,1.511-1.441,1.903-2.39c0.393-0.947,0.311-2.173-0.47-2.839c-0.769-0.656-1.941-0.568-2.871-0.171
			c-1.41,0.602-2.521,1.792-3.969,2.296c-1.464,0.509-3.066,0.252-4.614,0.32c-1.712,0.074-3.44,0.58-4.776,1.651
			c-1.337,1.072-2.232,2.753-2.136,4.463c-2.164-0.269-4.565-0.3-6.276,1.051c-1.444,1.14-2.082,3.067-2.087,4.907
			c-0.005,1.839,0.757,3.584,1.296,5.343v-0.006c0.322,1.025,0.662,1.385,0.662,1.385l0.807,4.757l2.955-0.057l-0.191-9.908
			c0,0-0.297-4.172,3.294-3.807s8.472,4.416,15.466,3.395c1.132-0.165,2.312-0.292,3.259-0.935s1.628-1.766,1.496-2.902
			S278.149,181.985,277.023,182.193z"/>
	</g>
	<g>
		<g>
			<path fill="#C78976" d="M253.437,192.645c-0.145-0.055-4.923-0.676-4.472,4.967c0.452,5.643,6.001,3.32,5.998,3.158
				C254.96,200.607,253.437,192.645,253.437,192.645z"/>
		</g>
		<g>
			<g>
				<path fill="#B66955" d="M253.076,198.928c-0.026-0.017-0.093,0.076-0.253,0.166c-0.156,0.087-0.431,0.16-0.733,0.074
					c-0.614-0.172-1.191-1.078-1.3-2.093c-0.056-0.513,0.013-1.01,0.162-1.43c0.14-0.427,0.383-0.736,0.679-0.813
					c0.293-0.093,0.521,0.07,0.602,0.223c0.089,0.152,0.062,0.268,0.093,0.275c0.017,0.013,0.113-0.104,0.049-0.334
					c-0.032-0.11-0.108-0.238-0.25-0.336c-0.145-0.1-0.348-0.14-0.555-0.1c-0.434,0.064-0.793,0.496-0.957,0.957
					c-0.188,0.464-0.277,1.024-0.215,1.6c0.127,1.134,0.794,2.151,1.628,2.322c0.405,0.071,0.728-0.074,0.888-0.222
					C253.076,199.065,253.097,198.936,253.076,198.928z"/>
			</g>
		</g>
	</g>
	<g>
		<path fill="#375A64" d="M239.542,322.029c3.005,4.47,21.192,31.849,42.904,11.943c27.675-25.372,49.592-47.576,49.592-47.576
			l8.218,50.151l25.77-1.395c0,0-10.037-74.676-16.388-81.466c-7.083-7.573-13.611-6.935-69.284,36.994L239.542,322.029z"/>
	</g>
	<g>
		<g>
			<polygon fill="#1A2E35" points="331.682,236.955 355.736,219.404 356.921,221.289 333.021,239.057 			"/>
		</g>
		<g>
			<path fill="#C78976" d="M337.626,236.415c0,0,3.228-8.398,3.954-10.188s1.955-4.905,2.414-4.968s2.141,0.2-0.056,5.543
				c-2.195,5.343,2.599,2.077,2.599,2.077l4.633-3.315c0,0,3.664,10.937,1.577,14.23c-2.252,3.555-5.488,6.957-5.488,6.957
				L337.626,236.415z"/>
		</g>
		<g>
			<path fill="#FF4F5B" d="M337.896,235.445c-0.476-1.097-31.072,25.93-37.161,26.847l-17.842-23.234c0,0-3.707-5.876-11.657-15.937
				c-5.132-6.494-19.294-5.145-23.018,2.767c-6.323,13.438-6.394,28.385-9.766,57.457l-1.424,19.617
				c-0.304,4.183-0.269,8.387,0.19,12.555c0.537,4.876,1.644,9.962,3.904,9.276l40.806-33.733l1.309-15.319
				c8.582,8.699,11.248,10.518,15.714,9.825c11.232-1.74,50.534-37.092,50.534-37.092S338.371,236.541,337.896,235.445z"/>
		</g>
		<g>
			<g>
				<path fill="#1A2E35" d="M344.195,253.424c-0.043,0.051-0.904-0.576-2.194-1.716c-1.289-1.138-2.989-2.809-4.694-4.81
					c-1.703-2.003-3.082-3.948-3.999-5.402c-0.92-1.455-1.401-2.405-1.345-2.439c0.067-0.04,0.658,0.841,1.649,2.233
					c0.99,1.394,2.402,3.286,4.091,5.271c1.689,1.982,3.332,3.678,4.55,4.878C343.47,252.64,344.245,253.365,344.195,253.424z"/>
			</g>
		</g>
		<g>
			<g>
				
					<ellipse transform="matrix(-0.175 0.9846 -0.9846 -0.175 615.069 18.4126)" fill="#1A2E35" cx="299.82" cy="266.897" rx="4.676" ry="0.261"/>
			</g>
		</g>
		<g>
			<g>
				
					<ellipse transform="matrix(0.2615 0.9652 -0.9652 0.2615 480.0776 -94.5019)" fill="#1A2E35" cx="301.796" cy="266.48" rx="4.208" ry="0.26"/>
			</g>
		</g>
		<g>
			<g>
				<path fill="#1A2E35" d="M258.718,243.144c0.029-0.021,0.394,0.44,1.028,1.29c0.684,0.926,1.583,2.143,2.669,3.612
					c2.25,3.053,5.383,7.25,8.895,11.848c3.508,4.549,6.681,8.664,9.049,11.735c1.111,1.452,2.031,2.653,2.73,3.567
					c0.638,0.849,0.977,1.328,0.948,1.351c-0.027,0.022-0.421-0.415-1.106-1.225c-0.687-0.809-1.665-1.992-2.861-3.464
					c-2.393-2.944-5.657-7.047-9.174-11.649c-3.515-4.601-6.604-8.838-8.779-11.948c-1.088-1.554-1.954-2.822-2.536-3.71
					C258.996,243.664,258.688,243.164,258.718,243.144z"/>
			</g>
		</g>
		<g>
			<g>
				
					<ellipse transform="matrix(0.7445 0.6676 -0.6676 0.7445 237.9651 -100.8878)" fill="#1A2E35" cx="250.802" cy="260.481" rx="3.623" ry="0.26"/>
			</g>
		</g>
		<g>
			<g>
				
					<ellipse transform="matrix(0.5596 -0.8287 0.8287 0.5596 -120.4706 327.5587)" fill="#1A2E35" cx="247.986" cy="277.138" rx="3.58" ry="0.261"/>
			</g>
		</g>
		<g>
			<g>
				
					<ellipse transform="matrix(0.6427 0.7661 -0.7661 0.6427 310.7061 -91.1616)" fill="#1A2E35" cx="253.093" cy="287.546" rx="2.838" ry="0.26"/>
			</g>
		</g>
		<g>
			<g>
				
					<ellipse transform="matrix(0.8283 -0.5603 0.5603 0.8283 -127.0962 187.9086)" fill="#1A2E35" cx="243.015" cy="301.305" rx="2.879" ry="0.26"/>
			</g>
		</g>
		<g>
			<g>
				<path fill="#1A2E35" d="M258.709,302.327c-0.07,0.115-1.431-0.669-2.662-2.131c-1.241-1.455-1.79-2.926-1.665-2.976
					c0.137-0.068,0.871,1.245,2.063,2.639C257.624,301.263,258.799,302.203,258.709,302.327z"/>
			</g>
		</g>
		<g>
			<g>
				
					<ellipse transform="matrix(0.7613 -0.6484 0.6484 0.7613 -127.3656 244.5174)" fill="#1A2E35" cx="268.389" cy="295.23" rx="3.584" ry="0.261"/>
			</g>
		</g>
		<g>
			<g>
				<path fill="#1A2E35" d="M245.582,311.104c-0.074,0.116-1.188-0.49-2.268-1.602c-1.085-1.105-1.665-2.232-1.548-2.305
					c0.126-0.082,0.877,0.879,1.92,1.941C244.724,310.207,245.667,310.981,245.582,311.104z"/>
			</g>
		</g>
		<g>
			<g>
				<path fill="#1A2E35" d="M273.33,284.013c0.052,0.13-1.147,0.707-2.741,1.046c-1.594,0.346-2.924,0.311-2.931,0.172
					c-0.01-0.148,1.271-0.345,2.821-0.681C272.031,284.22,273.279,283.874,273.33,284.013z"/>
			</g>
		</g>
		<g>
			<g>
				<path fill="#1A2E35" d="M264.088,273.494c0.137,0.055-0.369,1.625-0.979,3.558c-0.529,1.668-0.967,3.068-1.168,3.395
					l-0.111-0.027c0.032-0.059,0.059-0.084,0.077-0.08c0.02,0.005,0.031,0.039,0.035,0.106l-0.112-0.027
					c-0.025-0.381,0.248-1.838,0.783-3.522C263.229,274.941,263.958,273.442,264.088,273.494z"/>
			</g>
		</g>
		<g>
			<g>
				
					<ellipse transform="matrix(0.81 0.5865 -0.5865 0.81 205.6829 -105.1996)" fill="#1A2E35" cx="265.173" cy="264.785" rx="3.465" ry="0.26"/>
			</g>
		</g>
		<g>
			<g>
				<path fill="#1A2E35" d="M260.041,252.115c0.122,0.07-0.48,1.321-1.48,2.701c-0.998,1.383-1.997,2.346-2.103,2.253
					c-0.111-0.097,0.698-1.197,1.681-2.558C259.123,253.154,259.915,252.04,260.041,252.115z"/>
			</g>
		</g>
		<g>
			<g>
				
					<ellipse transform="matrix(-0.0831 0.9965 -0.9965 -0.0831 514.6218 20.0134)" fill="#1A2E35" cx="248.104" cy="246.753" rx="3.378" ry="0.26"/>
			</g>
		</g>
		<g>
			<g>
				
					<ellipse transform="matrix(0.0166 0.9999 -0.9999 0.0166 507.4533 21.0714)" fill="#1A2E35" cx="243.015" cy="268.509" rx="3.648" ry="0.261"/>
			</g>
		</g>
		<g>
			<g>
				
					<ellipse transform="matrix(0.2757 0.9612 -0.9612 0.2757 454.8765 -21.5926)" fill="#1A2E35" cx="241.767" cy="291.059" rx="2.332" ry="0.261"/>
			</g>
		</g>
		<g>
			<g>
				<path fill="#1A2E35" d="M259.246,233.627c0.088,0.121-1.154,1.158-2.573,2.547c-1.426,1.383-2.494,2.598-2.613,2.506
					c-0.11-0.081,0.794-1.466,2.25-2.879C257.76,234.383,259.167,233.514,259.246,233.627z"/>
			</g>
		</g>
		<g>
			<g>
				
					<ellipse transform="matrix(-0.0426 0.9991 -0.9991 -0.0426 490.71 -14.3658)" fill="#1A2E35" cx="252.238" cy="227.939" rx="3.303" ry="0.26"/>
			</g>
		</g>
		<g>
			<g>
				<path fill="#1A2E35" d="M269.619,228.86c-0.097,0.112-1.279-0.761-2.772-1.775c-1.489-1.019-2.733-1.801-2.664-1.932
					c0.063-0.125,1.44,0.464,2.958,1.502C268.661,227.688,269.712,228.755,269.619,228.86z"/>
			</g>
		</g>
		<g>
			<g>
				
					<ellipse transform="matrix(0.02 0.9998 -0.9998 0.02 498.2018 -32.624)" fill="#1A2E35" cx="265.743" cy="237.833" rx="3.508" ry="0.261"/>
			</g>
		</g>
		<g>
			<g>
				<path fill="#1A2E35" d="M276.075,248.641c-0.055,0.138-1.377-0.271-3.027-0.663c-1.649-0.398-3.013-0.633-2.999-0.781
					c0.01-0.139,1.429-0.134,3.12,0.275C274.861,247.874,276.129,248.513,276.075,248.641z"/>
			</g>
		</g>
		<g>
			<g>
				
					<ellipse transform="matrix(0.009 1 -1 0.009 512.5132 -40.6138)" fill="#1A2E35" cx="276.746" cy="238.254" rx="2.946" ry="0.261"/>
			</g>
		</g>
		<g>
			<g>
				
					<ellipse transform="matrix(0.044 0.999 -0.999 0.044 521.6473 -45.1697)" fill="#1A2E35" cx="284.424" cy="249.97" rx="3.72" ry="0.261"/>
			</g>
		</g>
		<g>
			<g>
				
					<ellipse transform="matrix(0.664 0.7478 -0.7478 0.664 284.5721 -121.047)" fill="#1A2E35" cx="276.963" cy="256.093" rx="2.435" ry="0.261"/>
			</g>
		</g>
		<g>
			<g>
				
					<ellipse transform="matrix(0.9972 -0.0744 0.0744 0.9972 -18.847 21.8026)" fill="#1A2E35" cx="283.234" cy="263.886" rx="2.953" ry="0.26"/>
			</g>
		</g>
		<g>
			<g>
				
					<ellipse transform="matrix(0.0376 0.9993 -0.9993 0.0376 543.92 -38.1738)" fill="#1A2E35" cx="291.778" cy="263.295" rx="3.3" ry="0.261"/>
			</g>
		</g>
		<g>
			<g>
				<path fill="#1A2E35" d="M297.544,277.539c0.001,0.14-1.633,0.252-3.631,0.024c-1.999-0.223-3.566-0.695-3.534-0.831
					c0.031-0.145,1.625,0.095,3.593,0.313C295.938,277.271,297.545,277.391,297.544,277.539z"/>
			</g>
		</g>
		<g>
			<g>
				
					<ellipse transform="matrix(0.3263 -0.9453 0.9453 0.3263 -54.3898 475.123)" fill="#1A2E35" cx="306.122" cy="275.718" rx="3.416" ry="0.261"/>
			</g>
		</g>
		<g>
			<g>
				
					<ellipse transform="matrix(0.9638 0.2665 -0.2665 0.9638 81.2797 -73.4231)" fill="#1A2E35" cx="311.216" cy="262.817" rx="3.132" ry="0.261"/>
			</g>
		</g>
		<g>
			<g>
				
					<ellipse transform="matrix(0.7478 -0.6639 0.6639 0.7478 -98.5799 278.6361)" fill="#1A2E35" cx="317.509" cy="269.09" rx="3.128" ry="0.26"/>
			</g>
		</g>
		<g>
			<g>
				<path fill="#1A2E35" d="M322.104,258.732c-0.131,0.045-0.716-1.367-1.044-3.212c-0.335-1.845-0.278-3.371-0.14-3.375
					c0.149-0.007,0.324,1.478,0.652,3.282C321.894,257.233,322.245,258.686,322.104,258.732z"/>
			</g>
		</g>
		<g>
			<g>
				<path fill="#1A2E35" d="M332.803,256.833c0.091,0.119-1.394,1.386-3.106,3.062c-1.72,1.671-3.022,3.123-3.14,3.028
					c-0.108-0.084,1.03-1.704,2.776-3.401C331.072,257.821,332.721,256.722,332.803,256.833z"/>
			</g>
		</g>
		<g>
			<g>
				
					<ellipse transform="matrix(0.935 0.3547 -0.3547 0.935 110.8211 -100.9094)" fill="#1A2E35" cx="330.642" cy="251.811" rx="3.44" ry="0.261"/>
			</g>
		</g>
		<g>
			<g>
				
					<ellipse transform="matrix(0.2762 0.9611 -0.9611 0.2762 476.8624 -140.9881)" fill="#1A2E35" cx="332.039" cy="246.113" rx="2.89" ry="0.261"/>
			</g>
		</g>
		<g>
			<g>
				
					<ellipse transform="matrix(0.5786 0.8156 -0.8156 0.5786 340.5503 -108.4136)" fill="#1A2E35" cx="275.19" cy="275.353" rx="2.882" ry="0.26"/>
			</g>
		</g>
	</g>
	<g>
		<g>
			<path fill="#1A2E35" d="M353.098,328.079c-0.009,0.001-0.035-0.144-0.077-0.427c-0.043-0.307-0.101-0.725-0.176-1.259
				c-0.148-1.134-0.363-2.761-0.638-4.844c-0.564-4.205-1.38-10.291-2.59-17.778c-1.214-7.485-2.816-16.378-5.103-26.138
				c-0.255-1.241-0.625-2.409-1.197-3.533c-0.613-1.095-1.426-2.086-2.397-2.923c-1.976-1.618-4.615-2.567-7.28-2.356
				c-1.323,0.087-2.657,0.412-3.856,1.046c-1.201,0.601-2.293,1.489-3.436,2.318c-2.261,1.681-4.556,3.387-6.877,5.113
				c-9.261,6.947-17.934,13.761-25.666,20.147c-7.753,6.368-14.491,12.369-20.146,17.443c-2.862,2.46-5.912,4.432-9.006,4.747
				c-1.523,0.195-2.966-0.07-4.192-0.504c-1.229-0.451-2.249-1.087-3.11-1.713c-1.714-1.276-2.836-2.502-3.604-3.311
				c-0.361-0.4-0.644-0.714-0.852-0.944c-0.188-0.217-0.28-0.33-0.273-0.336c0.006-0.007,0.112,0.095,0.313,0.3
				c0.217,0.222,0.511,0.522,0.888,0.908c0.79,0.783,1.935,1.982,3.647,3.218c0.859,0.606,1.871,1.219,3.075,1.644
				c1.201,0.409,2.6,0.652,4.075,0.449c2.992-0.331,5.971-2.274,8.8-4.737c5.606-5.096,12.341-11.144,20.079-17.534
				c7.722-6.412,16.394-13.242,25.659-20.194c2.323-1.727,4.619-3.433,6.883-5.113c1.136-0.822,2.229-1.718,3.513-2.362
				c1.26-0.662,2.663-1.005,4.053-1.095c2.799-0.215,5.563,0.782,7.633,2.485c1.018,0.879,1.868,1.921,2.509,3.072
				c0.597,1.165,0.988,2.438,1.233,3.655c2.265,9.782,3.831,18.69,4.999,26.189c1.165,7.501,1.925,13.597,2.428,17.811
				c0.232,2.089,0.415,3.72,0.541,4.856c0.053,0.537,0.094,0.957,0.124,1.266C353.099,327.932,353.106,328.078,353.098,328.079z"/>
		</g>
	</g>
	<g>
		<g>
			<path fill="#1A2E35" d="M364.782,327.522c0.002,0.035-0.356,0.09-1.005,0.158s-1.589,0.146-2.751,0.228
				c-2.325,0.164-5.54,0.329-9.09,0.483c-3.482,0.15-6.63,0.285-9.091,0.392c-1.071,0.039-1.989,0.073-2.757,0.102
				c-0.651,0.017-1.014,0.008-1.016-0.027c-0.003-0.036,0.354-0.097,1.001-0.175c0.647-0.08,1.587-0.171,2.748-0.268
				c2.323-0.193,5.538-0.389,9.091-0.543c3.482-0.127,6.632-0.242,9.095-0.331c1.071-0.024,1.99-0.046,2.758-0.063
				C364.418,327.472,364.779,327.486,364.782,327.522z"/>
		</g>
	</g>
	<g>
		<g>
			<path fill="#1A2E35" d="M339.154,278.579c0.111,0.075-1.479,2.532-3.917,5.181c-2.431,2.657-4.741,4.453-4.826,4.35
				c-0.101-0.116,2.037-2.071,4.442-4.701C337.266,280.787,339.03,278.49,339.154,278.579z"/>
		</g>
	</g>
	<g>
		<g>
			<path fill="#1A2E35" d="M340.122,281.616c0.069,0.13-1.883,1.303-4.266,2.778c-2.388,1.473-4.31,2.693-4.395,2.572
				c-0.082-0.113,1.718-1.533,4.12-3.015C337.981,282.467,340.057,281.492,340.122,281.616z"/>
		</g>
	</g>
	<g>
		<g>
			<path fill="#375A64" d="M424.37,330.101c-0.002,0.018-0.213,0.013-0.611-0.013c-0.454-0.037-1.031-0.083-1.742-0.14
				c-1.579-0.149-3.748-0.355-6.398-0.607c-5.458-0.568-12.884-1.343-21.089-2.199c-8.236-0.864-15.681-1.822-21.089-2.09
				c-2.704-0.143-4.896-0.128-6.411-0.077c-0.711,0.031-1.288,0.057-1.743,0.077c-0.398,0.019-0.609,0.02-0.611,0.001
				c-0.002-0.018,0.205-0.054,0.603-0.105c0.396-0.058,0.983-0.112,1.741-0.175c1.517-0.113,3.72-0.185,6.438-0.089
				c5.443,0.176,12.891,1.076,21.126,1.94c8.199,0.915,15.619,1.742,21.073,2.351c2.644,0.32,4.807,0.582,6.382,0.772
				c0.707,0.097,1.28,0.175,1.732,0.236C424.165,330.043,424.371,330.083,424.37,330.101z"/>
		</g>
	</g>
	<g>
		<g>
			
				<ellipse transform="matrix(-0.1128 0.9936 -0.9936 -0.1128 800.2495 -54.3084)" fill="#375A64" cx="424.37" cy="330.101" rx="11.246" ry="0.26"/>
		</g>
	</g>
</g>
</svg>
