<?xml version="1.0" encoding="utf-8"?>
<!-- Generator: Adobe Illustrator 16.0.0, SVG Export Plug-In . SVG Version: 6.00 Build 0)  -->
<!DOCTYPE svg PUBLIC "-//W3C//DTD SVG 1.1//EN" "http://www.w3.org/Graphics/SVG/1.1/DTD/svg11.dtd">
<svg version="1.1" id="Layer_1" xmlns="http://www.w3.org/2000/svg" xmlns:xlink="http://www.w3.org/1999/xlink" x="0px" y="0px"
	 width="128.766px" height="128.75px" viewBox="0 0 128.766 128.75" enable-background="new 0 0 128.766 128.75"
	 xml:space="preserve">
<g>
	<g>
		<path fill="#FFFFFF" d="M64.379,126.75C29.938,126.75,2,98.828,2,64.383C2,29.926,29.938,2,64.379,2
			c34.453,0,62.387,27.926,62.387,62.383C126.766,98.828,98.832,126.75,64.379,126.75L64.379,126.75z M64.379,126.75"/>
	</g>
	<g>
		<g>
			<path d="M64.379,128.75C28.88,128.75,0,99.875,0,64.383C0,28.882,28.88,0,64.379,0c35.503,0,64.387,28.882,64.387,64.383
				C128.766,99.875,99.882,128.75,64.379,128.75z M64.379,4C31.086,4,4,31.087,4,64.383c0,33.286,27.086,60.367,60.379,60.367
				c33.298,0,60.387-27.081,60.387-60.367C124.766,31.087,97.677,4,64.379,4z"/>
		</g>
	</g>
	<g>
		<path fill="#E61F2D" d="M18.996,64.371c0,17.969,10.442,33.492,25.578,40.848L22.926,45.906
			C20.332,51.715,18.996,58.008,18.996,64.371L18.996,64.371z M18.996,64.371"/>
	</g>
	<g>
		<path fill="#E61F2D" d="M65.18,68.344L51.563,107.91c4.164,1.23,8.48,1.852,12.82,1.852c5.281,0,10.355-0.914,15.07-2.57
			c-0.117-0.199-0.23-0.402-0.324-0.629L65.18,68.344z M65.18,68.344"/>
	</g>
	<g>
		<path fill="#E61F2D" d="M95.023,62.086c0-5.609-2.02-9.496-3.742-12.52c-2.301-3.742-4.461-6.906-4.461-10.644
			c0-4.172,3.164-8.055,7.621-8.055c0.203,0,0.395,0.028,0.586,0.035c-8.07-7.394-18.833-11.914-30.645-11.914
			c-15.855,0-29.805,8.141-37.918,20.457c0.973,0.032,1.945,0.051,2.922,0.055c4.742,0,12.098-0.574,12.098-0.574
			c2.445-0.149,2.726,3.449,0.285,3.734c0,0-2.457,0.289-5.192,0.434l16.524,49.16l9.933-29.785l-7.066-19.375
			c-2.445-0.145-4.762-0.434-4.762-0.434c-2.449-0.144-2.16-3.883,0.289-3.734c0,0,7.492,0.574,11.953,0.574
			c4.746,0,12.094-0.574,12.094-0.574c2.449-0.149,2.734,3.449,0.289,3.734c0,0-2.461,0.289-5.191,0.434l16.398,48.785l4.531-15.121
			C93.527,70.477,95.023,65.969,95.023,62.086L95.023,62.086z M95.023,62.086"/>
	</g>
	<g>
		<path fill="#E61F2D" d="M104.516,47.27c0,4.601-0.863,9.781-3.453,16.253l-13.859,40.079
			c13.491-7.863,22.566-22.484,22.566-39.227c0.008-7.609-1.902-15.102-5.563-21.773C104.402,44.047,104.516,45.594,104.516,47.27
			L104.516,47.27z M104.516,47.27"/>
	</g>
</g>
</svg>
