<?xml version="1.0" encoding="utf-8"?>
<!-- Generator: Adobe Illustrator 25.0.1, SVG Export Plug-In . SVG Version: 6.00 Build 0)  -->
<svg version="1.1" id="Layer_1" xmlns="http://www.w3.org/2000/svg" xmlns:xlink="http://www.w3.org/1999/xlink" x="0px" y="0px"
	 viewBox="0 0 512 512" style="enable-background:new 0 0 512 512;" xml:space="preserve">
<style type="text/css">
	.st0{fill:#373A3E;}
</style>
<g>
	<path class="st0" d="M88.6,241.7v141.8c0,4.1,3.4,7.5,7.5,7.5c4.1,0,7.5-3.4,7.5-7.5V241.7c0-4.1-3.4-7.5-7.5-7.5
		C92,234.2,88.6,237.6,88.6,241.7L88.6,241.7z"/>
	<path class="st0" d="M415.6,451c-4.1,0-7.5,3.4-7.5,7.5c0,21.2-17.2,38.5-38.4,38.5H142c-21.2,0-38.4-17.3-38.4-38.5v-39.6
		c0-4.1-3.4-7.5-7.5-7.5c-4.1,0-7.5,3.4-7.5,7.5v39.6c0,29.5,24,53.5,53.4,53.5h227.6c29.5,0,53.4-24,53.4-53.5
		C423.1,454.4,419.7,451,415.6,451z"/>
	<path class="st0" d="M96.1,82.8c4.1,0,7.5-3.4,7.5-7.5V53.5c0-21.2,17.2-38.5,38.4-38.5h227.6c21.2,0,38.4,17.3,38.4,38.5v187.4
		c0,4.1,3.4,7.5,7.5,7.5s7.5-3.4,7.5-7.5V53.5c0-29.5-24-53.5-53.4-53.5H142c-29.5,0-53.4,24-53.4,53.5v21.8
		C88.6,79.4,92,82.8,96.1,82.8L96.1,82.8z"/>
	<path class="st0" d="M385.7,272.4c4.1,0,7.5-3.4,7.5-7.5V52.3c0-13.1-10.6-23.8-23.7-23.8h-23.7c-3.3,0-6.1,2.1-7.1,5.2l-5.9,18.2
		c-1.5,4.5-5.6,7.6-10.4,7.6h-133c-4.7,0-8.9-3-10.4-7.6l-5.9-18.2c-1-3.1-3.9-5.2-7.1-5.2h-23.7c-13.1,0-23.7,10.7-23.7,23.8v23
		c0,4.1,3.4,7.5,7.5,7.5s7.5-3.4,7.5-7.5v-23c0-4.8,3.9-8.8,8.7-8.8h18.2l4.2,13c3.5,10.7,13.4,18,24.6,18h133
		c11.3,0,21.2-7.2,24.6-18l4.2-13h18.2c4.8,0,8.7,3.9,8.7,8.8v212.7C378.2,269.1,381.5,272.4,385.7,272.4z"/>
	<path class="st0" d="M126.1,234.3c-4.1,0-7.5,3.4-7.5,7.5v217.9c0,13.1,10.6,23.8,23.7,23.8h227.1c13.1,0,23.7-10.7,23.7-23.8
		v-18.9c0-4.1-3.4-7.5-7.5-7.5s-7.5,3.4-7.5,7.5v18.9c0,4.8-3.9,8.8-8.7,8.8H142.3c-4.8,0-8.7-3.9-8.7-8.8V241.8
		C133.6,237.7,130.2,234.3,126.1,234.3z"/>
	<path class="st0" d="M296.5,45c4.1,0,7.5-3.4,7.5-7.5s-3.4-7.5-7.5-7.5h-81.2c-4.1,0-7.5,3.4-7.5,7.5s3.4,7.5,7.5,7.5H296.5z"/>
	<path class="st0" d="M296.5,433.7h-81.2c-4.1,0-7.5,3.4-7.5,7.5s3.4,7.5,7.5,7.5h81.2c4.1,0,7.5-3.4,7.5-7.5
		S300.6,433.7,296.5,433.7z"/>
	<path class="st0" d="M320.2,263.1v-70c0-12.4-10.1-22.5-22.5-22.5c-11.1,0-20.3,8.1-22.2,18.7l-58,7.8c-9.5,1.3-16.6,9.4-16.6,19
		v4.5h-13.9c-4.1,0-7.5,3.4-7.5,7.5s3.4,7.5,7.5,7.5h13.9v4.5c0,9.6,7.1,17.7,16.6,19l1.9,0.3v29.6c0,4.1,3.4,7.5,7.5,7.5
		s7.5-3.4,7.5-7.5v-27.6l41,5.5c1.8,10.6,11.1,18.7,22.2,18.7C310.1,285.6,320.2,275.5,320.2,263.1z M219.5,244.2
		c-2.1-0.3-3.6-2.1-3.6-4.1v-24c0-2.1,1.5-3.9,3.6-4.1l55.7-7.5v47.2 M305.2,263.1c0,4.1-3.4,7.5-7.5,7.5s-7.5-3.4-7.5-7.5v-70
		c0-4.1,3.4-7.5,7.5-7.5s7.5,3.4,7.5,7.5V263.1z"/>
	<path class="st0" d="M171.7,196.3v-75.6c0-12.6-10.3-22.9-22.9-22.9H73.6c-4.1,0-7.5,3.4-7.5,7.5s3.4,7.5,7.5,7.5h75.2
		c4.4,0,7.9,3.6,7.9,7.9v75.6c0,4.4-3.5,7.9-7.9,7.9H49.1c-1.6,0-3.2,0.5-4.5,1.5L15,228.2V120.7c0-4.4,3.5-7.9,7.9-7.9h16.2
		c4.1,0,7.5-3.4,7.5-7.5s-3.4-7.5-7.5-7.5H22.9C10.3,97.8,0,108.1,0,120.7v122.7c0,2.9,1.6,5.5,4.2,6.7c1.1,0.5,2.2,0.8,3.3,0.8
		c1.6,0,3.2-0.5,4.5-1.5l39.5-30.1h97.3C161.5,219.2,171.7,209,171.7,196.3z"/>
	<path class="st0" d="M133.3,140.9c0-4.1-3.4-7.5-7.5-7.5H45.9c-4.1,0-7.5,3.4-7.5,7.5s3.4,7.5,7.5,7.5h79.9
		C129.9,148.4,133.3,145.1,133.3,140.9z"/>
	<path class="st0" d="M45.9,167.4c-4.1,0-7.5,3.4-7.5,7.5s3.4,7.5,7.5,7.5h69.9c4.1,0,7.5-3.4,7.5-7.5s-3.4-7.5-7.5-7.5H45.9z"/>
	<path class="st0" d="M170.7,369.4h32.1c4.1,0,7.5-3.4,7.5-7.5c0-4.1-3.4-7.5-7.5-7.5h-32.1c-4.1,0-7.5,3.4-7.5,7.5
		C163.2,366,166.6,369.4,170.7,369.4z"/>
	<path class="st0" d="M170.7,404.4h52.1c4.1,0,7.5-3.4,7.5-7.5s-3.4-7.5-7.5-7.5h-52.1c-4.1,0-7.5,3.4-7.5,7.5
		S166.6,404.4,170.7,404.4z"/>
	<path class="st0" d="M348.2,146.5c0-4.1-3.4-7.5-7.5-7.5h-32.1c-4.1,0-7.5,3.4-7.5,7.5s3.4,7.5,7.5,7.5h32.1
		C344.9,154,348.2,150.7,348.2,146.5z"/>
	<path class="st0" d="M340.7,104h-52.1c-4.1,0-7.5,3.4-7.5,7.5c0,4.1,3.4,7.5,7.5,7.5h52.1c4.1,0,7.5-3.4,7.5-7.5
		C348.2,107.4,344.9,104,340.7,104L340.7,104z"/>
	<path class="st0" d="M504,329.6l-11.9-11.9c-2.9-2.9-7.7-2.9-10.6,0c-2.9,2.9-2.9,7.7,0,10.6l11.9,11.9c4.9,4.9,4.9,12.8,0,17.7
		l-60.6,60.7c-2.3,2.3-5.5,3.6-8.8,3.6c-3.4,0-6.5-1.3-8.8-3.6l-95-95.1c-3.7-3.7-4.2-9.5-1.1-12.7c1.5-1.5,3.5-2.2,5.8-2.1
		c2.5,0.1,5,1.2,6.9,3.1l34.3,34.3c2.9,2.9,7.7,2.9,10.6,0c2.9-2.9,2.9-7.7,0-10.6c-3.7-3.7-4.2-9.5-1.1-12.7
		c1.4-1.4,3.5-2.2,5.8-2.1c2.5,0.1,5,1.2,6.9,3.1c2.9,2.9,7.7,2.9,10.6,0c2.9-2.9,2.9-7.7,0-10.6c-3.7-3.7-4.2-9.5-1.1-12.7
		c1.4-1.4,3.5-2.2,5.8-2.1c2.5,0.1,5,1.2,6.9,3.1h0c2.9,2.9,7.7,2.9,10.6,0c2.9-2.9,2.9-7.7,0-10.6c0,0,0,0,0,0
		c-3.7-3.7-4.2-9.5-1.1-12.7c1.4-1.4,3.5-2.2,5.8-2.1c2.5,0.1,5,1.2,6.9,3.1l24.3,24.3c2.9,2.9,7.7,2.9,10.6,0
		c2.9-2.9,2.9-7.7,0-10.6l-24.3-24.3c-4.6-4.6-10.5-7.2-16.8-7.5c-6.5-0.3-12.6,2-17.1,6.5c-4.3,4.3-6.4,10-6.5,15.8
		c-6,0.1-11.6,2.3-15.7,6.5c-4.3,4.3-6.4,10-6.5,15.8c-6,0.1-11.6,2.3-15.7,6.5c-2,2-3.6,4.4-4.7,6.9l-17.9-17.9
		c-4.6-4.6-10.5-7.2-16.8-7.5c-6.5-0.3-12.6,2-17.1,6.5c-9.1,9.1-8.6,24.3,1.1,33.9l95,95.1c5.2,5.2,12.1,8,19.4,8s14.3-2.9,19.4-8
		l60.6-60.7C514.7,357.8,514.7,340.3,504,329.6L504,329.6z"/>
</g>
</svg>
