<?xml version="1.0" encoding="utf-8"?>
<!-- Generator: Adobe Illustrator 25.0.1, SVG Export Plug-In . SVG Version: 6.00 Build 0)  -->
<svg version="1.1" id="Capa_1" xmlns="http://www.w3.org/2000/svg" xmlns:xlink="http://www.w3.org/1999/xlink" x="0px" y="0px"
	 viewBox="0 0 512 512" style="enable-background:new 0 0 512 512;" xml:space="preserve">
<style type="text/css">
	.st0{fill:#373A3E;}
</style>
<g>
	<g>
		<path class="st0" d="M376.4,255.8c-4.2,0-8.1-2.8-9.5-6.8c-1.3-3.9,0-8.5,3.2-11c3.3-2.6,7.9-2.9,11.5-0.7
			c3.5,2.2,5.4,6.5,4.5,10.6C385.2,252.5,381.1,255.8,376.4,255.8z"/>
		<path class="st0" d="M471,346.9l-84.6-35v-20.7c0-5.5-4.5-10-10-10c-5.5,0-10,4.5-10,10V492h-57.1v-80.2c0-5.5-4.5-10-10-10h-86.6
			c-5.5,0-10,4.5-10,10V492h-57.1V61.6h220.8v139.2c0,5.5,4.5,10,10,10c5.5,0,10-4.5,10-10V51.6c0-5.5-4.5-10-10-10h-20.3V10
			c0-5.5-4.5-10-10-10H165.9c-5.5,0-10,4.5-10,10v31.6h-20.3c-5.5,0-10,4.5-10,10v260.3l-84.5,35c-3.7,1.5-6.2,5.2-6.2,9.2V502
			c0,5.5,4.5,10,10,10h422.3c5.5,0,10-4.5,10-10V356.2C477.1,352.1,474.7,348.5,471,346.9L471,346.9z M175.9,20h160.3v21.6H175.9
			L175.9,20z M54.9,362.9l70.7-29.3V492H54.9V362.9z M222.7,492v-70.2h66.6V492H222.7z M457.1,492h-70.7V333.6l70.7,29.3V492z"/>
		<path class="st0" d="M329.8,375.3h-53.3c-5.5,0-10-4.5-10-10v-64.8c0-5.5,4.5-10,10-10h53.3c5.5,0,10,4.5,10,10v64.8
			C339.8,370.9,335.4,375.3,329.8,375.3z M286.5,355.3h33.3v-44.8h-33.3V355.3z"/>
		<path class="st0" d="M235.5,375.3h-53.3c-5.5,0-10-4.5-10-10v-64.8c0-5.5,4.5-10,10-10h53.3c5.5,0,10,4.5,10,10v64.8
			C245.5,370.9,241,375.3,235.5,375.3z M192.2,355.3h33.3v-44.8h-33.3V355.3z"/>
		<path class="st0" d="M329.8,168.4h-53.3c-5.5,0-10-4.5-10-10V93.6c0-5.5,4.5-10,10-10h53.3c5.5,0,10,4.5,10,10v64.8
			C339.8,163.9,335.4,168.4,329.8,168.4z M286.5,148.4h33.3v-44.8h-33.3V148.4z"/>
		<path class="st0" d="M235.5,168.4h-53.3c-5.5,0-10-4.5-10-10V93.6c0-5.5,4.5-10,10-10h53.3c5.5,0,10,4.5,10,10v64.8
			C245.5,163.9,241,168.4,235.5,168.4z M192.2,148.4h33.3v-44.8h-33.3V148.4z"/>
		<path class="st0" d="M329.8,271.9h-53.3c-5.5,0-10-4.5-10-10v-64.8c0-5.5,4.5-10,10-10h53.3c5.5,0,10,4.5,10,10v64.8
			C339.8,267.4,335.4,271.9,329.8,271.9z M286.5,251.9h33.3v-44.8h-33.3V251.9z"/>
		<path class="st0" d="M235.5,271.9h-53.3c-5.5,0-10-4.5-10-10v-64.8c0-5.5,4.5-10,10-10h53.3c5.5,0,10,4.5,10,10v64.8
			C245.5,267.4,241,271.9,235.5,271.9z M192.2,251.9h33.3v-44.8h-33.3V251.9z"/>
	</g>
</g>
</svg>
