<?xml version="1.0" encoding="utf-8"?>
<!-- Generator: Adobe Illustrator 22.1.0, SVG Export Plug-In . SVG Version: 6.00 Build 0)  -->
<svg version="1.1" id="Layer_1" xmlns="http://www.w3.org/2000/svg" xmlns:xlink="http://www.w3.org/1999/xlink" x="0px" y="0px"
	 viewBox="0 0 100 100" style="enable-background:new 0 0 100 100;" xml:space="preserve">
<g>
	<path d="M83.7,32.9C81.8,31,79.4,30,76.7,30c-2.8,0-5.1,1-7.1,2.9c-1.9,1.9-2.9,4.3-2.9,7.1c0,2.2,0.6,4.1,1.8,5.8
		c1.2,1.7,2.8,2.9,4.8,3.6V70c0,3.7-1.6,6.8-4.9,9.4c-3.3,2.6-7.2,3.9-11.8,3.9c-4.6,0-8.5-1.3-11.8-3.9C41.6,76.8,40,73.7,40,70
		v-6.9c5.7-0.7,10.5-2.9,14.3-6.7c3.8-3.8,5.7-8.1,5.7-13.1V16.7c0-0.9-0.3-1.7-1-2.3c-0.7-0.7-1.4-1-2.3-1c-0.2,0-0.5,0-0.8,0.1
		c-0.6-1-1.4-1.9-2.4-2.5c-1-0.6-2.2-0.9-3.4-0.9c-1.8,0-3.4,0.7-4.7,2c-1.3,1.3-2,2.9-2,4.7c0,1.8,0.7,3.4,2,4.7s2.9,2,4.7,2
		c1.1,0,2.3-0.3,3.3-0.9v20.9c0,3.7-1.6,6.8-4.9,9.4c-3.3,2.6-7.2,3.9-11.8,3.9s-8.5-1.3-11.8-3.9S20,47,20,43.3V22.4
		c1.1,0.6,2.2,0.9,3.3,0.9c1.8,0,3.4-0.7,4.7-2c1.3-1.3,2-2.9,2-4.7c0-1.8-0.6-3.4-2-4.7c-1.3-1.3-2.9-2-4.7-2
		c-1.2,0-2.3,0.3-3.4,0.9c-1,0.6-1.9,1.5-2.4,2.5c-0.3-0.1-0.6-0.1-0.8-0.1c-0.9,0-1.7,0.3-2.3,1c-0.7,0.7-1,1.4-1,2.3v26.7
		c0,5,1.9,9.4,5.7,13.1c3.8,3.8,8.6,6,14.3,6.7V70c0,5.5,2.3,10.2,6.8,14.1C44.7,88,50.2,90,56.7,90c6.4,0,11.9-2,16.5-5.9
		C77.7,80.2,80,75.5,80,70V49.4c2-0.7,3.6-1.9,4.8-3.6c1.2-1.7,1.9-3.6,1.9-5.8C86.7,37.2,85.7,34.9,83.7,32.9z M79,42.3
		c-0.7,0.7-1.4,1-2.3,1s-1.7-0.3-2.3-1c-0.7-0.7-1-1.4-1-2.3s0.3-1.7,1-2.3c0.7-0.7,1.4-1,2.3-1c0.9,0,1.7,0.3,2.3,1
		c0.7,0.7,1,1.4,1,2.3C80,40.9,79.7,41.7,79,42.3z"/>
</g>
</svg>
