<?xml version="1.0" encoding="utf-8"?>
<!-- Generator: Adobe Illustrator 22.1.0, SVG Export Plug-In . SVG Version: 6.00 Build 0)  -->
<svg version="1.1" id="Layer_1" xmlns="http://www.w3.org/2000/svg" xmlns:xlink="http://www.w3.org/1999/xlink" x="0px" y="0px"
	 viewBox="0 0 100 100" style="enable-background:new 0 0 100 100;" xml:space="preserve">
<path d="M86.2,20.3H13.8c-0.7,0-1.3,0.6-1.3,1.3v56.9c0,0.7,0.6,1.3,1.3,1.3h72.4c0.7,0,1.3-0.6,1.3-1.3V21.6
	C87.5,20.8,86.9,20.3,86.2,20.3z M25.4,77.2H15.1V65.5h10.3V77.2z M25.4,62.9H15.1V51.3h10.3V62.9z M25.4,48.7H15.1V37.1h10.3V48.7z
	 M25.4,34.5H15.1V22.8h10.3V34.5z M59.7,51.1l-14.2,9.1c-0.2,0.1-0.5,0.2-0.7,0.2c-0.2,0-0.4-0.1-0.6-0.2c-0.4-0.2-0.7-0.7-0.7-1.1
	V40.9c0-0.5,0.3-0.9,0.7-1.1c0.4-0.2,0.9-0.2,1.3,0l14.2,9.1c0.4,0.2,0.6,0.6,0.6,1.1S60.1,50.9,59.7,51.1z M84.9,77.2H74.6V65.5
	h10.3V77.2z M84.9,62.9H74.6V51.3h10.3V62.9z M84.9,48.7H74.6V37.1h10.3V48.7z M84.9,34.5H74.6V22.8h10.3V34.5z"/>
</svg>
