<?xml version="1.0" encoding="utf-8"?>
<!-- Generator: Adobe Illustrator 22.1.0, SVG Export Plug-In . SVG Version: 6.00 Build 0)  -->
<svg version="1.1" id="Layer_1" xmlns="http://www.w3.org/2000/svg" xmlns:xlink="http://www.w3.org/1999/xlink" x="0px" y="0px"
	 viewBox="0 0 100 100" style="enable-background:new 0 0 100 100;" xml:space="preserve">
<g>
	<path d="M38.1,56.9c1.8,0,3.7,0.2,5.5,0.5V52h12.9v9.5c1.5,0.6,2.6,1.2,3.7,1.9c2,1.4,3.1,3.3,3.1,5.4c2.5-0.6,4.8-1.6,6.8-3
		c0.7-0.5,1.6-0.9,2.1-1.3V49.8L50,25L27.4,50v8.9c1.5-0.4,2.9-0.8,4.5-1.2C33.8,57.1,35.9,56.9,38.1,56.9z"/>
	<polygon points="50.1,18.9 75.2,47 81,47 50,12.5 37.3,26.6 37.3,20.9 27.9,20.9 27.9,36.9 18.9,47 24.7,47 	"/>
	<path d="M78.1,66.9c-1.4,0-3.3,0.6-5.6,2.3c-4.4,3-9.7,4.3-14.6,4.3c-4,0-7.6-0.9-10.2-2.4c-1.3-0.8-1.3-1-0.5-1c1.5,0,6,1,9,1
		c1.5,0,2.6-0.2,2.9-1c1.2-3.5-3.5-4.6-8.5-6.6c-3.7-1.5-8.1-2.6-12.4-2.6c-1.8,0-3.5,0.2-5.2,0.6c-7.4,2-12.7,3.5-14.2,4v19.4
		c3-1.1,6.6-2.2,8.6-2.2c3.7,0,18.6,4.7,27,4.7c1.2,0,2.2-0.1,3.1-0.3c7.1-1.7,19.6-11.8,22.9-15.3C82,70.3,81.3,66.9,78.1,66.9z"/>
</g>
</svg>
