<?xml version="1.0" encoding="utf-8"?>
<!-- Generator: Adobe Illustrator 22.1.0, SVG Export Plug-In . SVG Version: 6.00 Build 0)  -->
<svg version="1.1" id="Layer_1" xmlns="http://www.w3.org/2000/svg" xmlns:xlink="http://www.w3.org/1999/xlink" x="0px" y="0px"
	 viewBox="0 0 100 100" style="enable-background:new 0 0 100 100;" xml:space="preserve">
<g>
	<path d="M71.5,73.9h4.6c1.4,0,2.6-1.1,2.6-2.6V21.9c0-3.5-2.9-6.4-6.4-6.4H58.2v-3.7H41.8v3.7H27.8c-3.5,0-6.4,2.9-6.4,6.4v49.4
		c0,1.4,1.1,2.6,2.6,2.6h4.6L10,88.1h11.9l14.5-14.3h27.1l14.5,14.3H90L71.5,73.9z M63.6,65.8c0-2.2,1.8-3.9,3.9-3.9
		c2.2,0,3.9,1.8,3.9,3.9c0,2.2-1.8,3.9-3.9,3.9C65.3,69.7,63.6,68,63.6,65.8z M32.8,69.7c-2.2,0-3.9-1.8-3.9-3.9s1.8-3.9,3.9-3.9
		c2.2,0,3.9,1.8,3.9,3.9C36.7,68,34.9,69.7,32.8,69.7z M29,49.4c-0.7,0-1.3-0.6-1.3-1.3V23.3c0-0.7,0.6-1.3,1.3-1.3h42
		c0.7,0,1.3,0.6,1.3,1.3v24.8c0,0.7-0.6,1.3-1.3,1.3H29L29,49.4z"/>
</g>
</svg>
