<?xml version="1.0" encoding="utf-8"?>
<!-- Generator: Adobe Illustrator 22.1.0, SVG Export Plug-In . SVG Version: 6.00 Build 0)  -->
<svg version="1.1" id="Layer_1" xmlns="http://www.w3.org/2000/svg" xmlns:xlink="http://www.w3.org/1999/xlink" x="0px" y="0px"
	 viewBox="0 0 100 100" style="enable-background:new 0 0 100 100;" xml:space="preserve">
<g>
	<g id="Layer_5_59_">
		<g>
			<path d="M55.8,65.5c-1.3,0.8-3,1.3-4.8,1.3s-3.5-0.5-4.8-1.3L24.4,52.1c0,0-2-1.2-2,1.5c0,3.1,0,12.4,0,12.4c0,0.1,0,0.7,0,0.9
				c0,7,12.8,14.6,28.6,14.6c15.8,0,28.6-7.6,28.6-14.6c0-0.2,0-0.8,0-0.9c0,0,0-9.9,0-13.2c0-2.2-1.4-1.1-1.4-1.1L55.8,65.5z"/>
			<path d="M87.2,41.5c1.7-1,1.7-2.7,0-3.7L54,21.2c-1.7-1-4.4-1-6.1,0L14.8,37.8c-1.7,1-1.7,2.7,0,3.7L48,61.9c1.7,1,4.4,1,6.1,0"
				/>
			<path d="M85.9,71.7c0-5.6,0-22.5,0-22.5s0-1.1-0.6-0.7c-0.5,0.3-1.8,1-2.2,1.4c-0.5,0.4-0.4,1.4-0.4,1.4s0,15.3,0,20.4
				c0,0.3-0.2,0.4-0.4,0.5c-1.2,0.7-1.9,1.9-1.9,3.3c0,2.1,1.7,3.9,3.9,3.9s3.9-1.7,3.9-3.9c0-1.4-0.8-2.7-1.9-3.4
				C86.1,72.1,85.9,72,85.9,71.7z"/>
		</g>
	</g>
</g>
</svg>
