<?xml version="1.0" encoding="utf-8"?>
<!-- Generator: Adobe Illustrator 22.1.0, SVG Export Plug-In . SVG Version: 6.00 Build 0)  -->
<svg version="1.1" id="Layer_1" xmlns="http://www.w3.org/2000/svg" xmlns:xlink="http://www.w3.org/1999/xlink" x="0px" y="0px"
	 viewBox="0 0 100 100" style="enable-background:new 0 0 100 100;" xml:space="preserve">
<g>
	<path d="M90,48.7C90,67,76.4,82.3,58.8,85c0.1-0.8,0.2-1.7,0.1-2.5c0,0-0.1-0.9-0.2-2.1c6.3-1.1,11.9-3.9,16.4-8.1
		c-0.3-0.2-0.5-0.5-0.8-0.9c-1.2-1.7,0.4-3.5,0.4-5c0-1.5-3-1.4-3.1-2.4c-0.4-3.4,2.1-3.5,3.4-4.8c1.3-1.3-1.3-4.3-3-4.1
		c-1.7,0.2-6.5-0.8-6.1-4.5c0.5-4.5-5.7-4.1-6.6-6.2c-1.3-3,0.9-6.8,3.7-7.6c4-1.2,7.9-4.5,7.6-8.1c-0.3-4.1-2.2-7.8-5.3-10
		c-3.2-1.3-6.6-2.1-10.2-2.3c-3.2,0.1-6,0.8-5.9,2.3c0.3,3.6,10.6,4.5,8.8,7.9c-0.9,1.8-7.6,4.2-6.4,6.9c0.8,1.7,2.8,0.2,2.1,3.5
		c-0.3,1.5-1.7,4.3-3.7,4.5c-2.1,0.2-3.8-5.3-9.4-5.5c-2.7-0.1-6.4,4.2-3.2,7.2c1.9,1.8,5.6-2.2,6.6,0.9c0.8,2.2-0.1,6.9,3.4,8.8
		c1.3,0.7,3.2,1.3,5.2,2.3c-2.9,0.6-6.4,1.7-10.6,3.3l-3.5-0.9c1.5-1.2,3.9-2.1,3.3-4.8c-0.9-3.9-7.7-2.5-12.5-7.2
		c-1.4-1.4-4.5-6.3-4.5-12c-2.4,4.5-3.7,9.6-3.7,14.9c0,1.7,0.1,3.3,0.4,4.9c-0.1,0-0.1,0-0.2,0c-1.5,0-2.9,0.3-4.3,0.9
		c-0.3-1.9-0.5-3.8-0.5-5.8c0-20.3,16.5-36.8,36.8-36.8C73.5,11.9,90,28.4,90,48.7z M62.4,59.4l-9,4.1l0.1-2l5.8-2.6
		c-0.8-0.1-1.7-0.1-2.5-0.1c-3.2,0-8.6,1.6-14.6,4L23,57.8c-1.8-0.5-3.7-0.2-5.3,0.8l-0.9,0.6c-0.9,0.6-0.9,1.9,0,2.5l11.6,7.5
		c-2.8,1.4-5.4,2.9-7.7,4.2l-5.9-3.1c-1-0.5-2.1-0.6-3.1-0.2l-0.6,0.2c-0.8,0.3-1.2,1.3-0.7,2.1l3.3,5.8h0c-1.2,1.1-1.9,1.9-1.9,2.6
		c0,1.8,2.2,2.3,4.2,2.3c3.5,0,50.1-10.7,50.1-20.3C65.9,60.8,64.6,59.9,62.4,59.4z M42.8,78.2L53,74.6c0.5-0.2,0.9,0.1,1,0.6
		l0.9,7.7c0.2,1.9-0.8,3.8-2.6,4.6l-1,0.4c-0.6,0.3-1.3,0.1-1.8-0.4l-7.2-8.2C42.1,79,42.3,78.4,42.8,78.2z"/>
</g>
</svg>
