<?xml version="1.0" encoding="utf-8"?>
<!-- Generator: Adobe Illustrator 22.1.0, SVG Export Plug-In . SVG Version: 6.00 Build 0)  -->
<svg version="1.1" id="Layer_1" xmlns="http://www.w3.org/2000/svg" xmlns:xlink="http://www.w3.org/1999/xlink" x="0px" y="0px"
	 viewBox="0 0 100 100" style="enable-background:new 0 0 100 100;" xml:space="preserve">
<g>
	<path d="M84.4,35.2h-2.2v24.1c0,3.8-2.2,7.1-6.6,7.1H32.8v1.1c0,3.3,3.8,6.7,7.6,6.7h32.8l12.5,7.4l-1.8-7.4h0.5
		c3.9,0,5.6-3.3,5.6-6.7V40.9C90,37.6,88.3,35.2,84.4,35.2z"/>
	<path d="M69.2,18.4H19.4c-4.4,0-9.4,3.9-9.4,7.6v30.2c0,3.5,4.3,6,8.4,6.3l-2.7,10.1l17.1-10.1h36.4c4.4,0,8.4-2.7,8.4-6.4V31.8
		v-5.8C77.7,22.3,73.6,18.4,69.2,18.4z M27,43.9c-2.5,0-4.5-2-4.5-4.5c0-2.5,2-4.5,4.5-4.5c2.5,0,4.5,2,4.5,4.5
		C31.5,41.9,29.5,43.9,27,43.9z M43.8,43.9c-2.5,0-4.5-2-4.5-4.5c0-2.5,2-4.5,4.5-4.5s4.5,2,4.5,4.5C48.3,41.9,46.3,43.9,43.8,43.9z
		 M60.6,43.9c-2.5,0-4.5-2-4.5-4.5c0-2.5,2-4.5,4.5-4.5c2.5,0,4.5,2,4.5,4.5C65.1,41.9,63.1,43.9,60.6,43.9z"/>
</g>
</svg>
