<?xml version="1.0" encoding="utf-8"?>
<!-- Generator: Adobe Illustrator 22.1.0, SVG Export Plug-In . SVG Version: 6.00 Build 0)  -->
<svg version="1.1" id="Layer_1" xmlns="http://www.w3.org/2000/svg" xmlns:xlink="http://www.w3.org/1999/xlink" x="0px" y="0px"
	 viewBox="0 0 100 100" style="enable-background:new 0 0 100 100;" xml:space="preserve">
<g>
	<g>
		<path d="M71.5,77.7c0,1.7,0.6,3.1,1.8,4.4c1.2,1.2,2.7,1.8,4.4,1.8c1.7,0,3.1-0.6,4.3-1.8c1.2-1.2,1.8-2.7,1.8-4.4
			c0-1.7-0.6-3.1-1.8-4.4c-1.2-1.2-2.7-1.8-4.3-1.8c-1.7,0-3.2,0.6-4.4,1.8C72.1,74.5,71.5,76,71.5,77.7z"/>
		<path d="M89.1,23.2c-0.6-0.6-1.3-0.9-2.2-0.9H29.2c0-0.2-0.1-0.6-0.2-1.2c-0.1-0.6-0.2-1.1-0.3-1.4c-0.1-0.4-0.2-0.8-0.4-1.3
			s-0.4-0.9-0.6-1.2c-0.2-0.3-0.6-0.5-1-0.7c-0.4-0.2-0.9-0.3-1.4-0.3H13.1c-0.8,0-1.6,0.3-2.2,0.9c-0.6,0.6-0.9,1.3-0.9,2.2
			s0.3,1.6,0.9,2.2c0.6,0.6,1.3,0.9,2.2,0.9h9.8l8.5,39.6c-0.1,0.1-0.4,0.7-1,1.8c-0.6,1.1-1.1,2-1.4,2.9c-0.4,0.8-0.5,1.5-0.5,1.9
			c0,0.8,0.3,1.6,0.9,2.2c0.6,0.6,1.3,0.9,2.2,0.9h3.1h43.1h3.1c0.8,0,1.6-0.3,2.2-0.9c0.6-0.6,0.9-1.3,0.9-2.2
			c0-0.8-0.3-1.6-0.9-2.2c-0.6-0.6-1.3-0.9-2.2-0.9H36.5c0.8-1.5,1.2-2.6,1.2-3.1c0-0.3,0-0.7-0.1-1.1c-0.1-0.4-0.2-0.8-0.3-1.3
			c-0.1-0.5-0.2-0.8-0.2-1l50.2-5.9c0.8-0.1,1.5-0.4,2-1c0.5-0.6,0.8-1.3,0.8-2V25.4C90,24.6,89.7,23.8,89.1,23.2z"/>
		<path d="M28.5,77.7c0,1.7,0.6,3.1,1.8,4.4c1.2,1.2,2.7,1.8,4.4,1.8c1.7,0,3.1-0.6,4.4-1.8c1.2-1.2,1.8-2.7,1.8-4.4
			c0-1.7-0.6-3.1-1.8-4.4c-1.2-1.2-2.7-1.8-4.4-1.8c-1.7,0-3.1,0.6-4.4,1.8C29.1,74.5,28.5,76,28.5,77.7z"/>
	</g>
</g>
</svg>
