<?xml version="1.0" encoding="utf-8"?>
<!-- Generator: Adobe Illustrator 22.1.0, SVG Export Plug-In . SVG Version: 6.00 Build 0)  -->
<svg version="1.1" id="Layer_1" xmlns="http://www.w3.org/2000/svg" xmlns:xlink="http://www.w3.org/1999/xlink" x="0px" y="0px"
	 viewBox="0 0 100 100" style="enable-background:new 0 0 100 100;" xml:space="preserve">
<g>
	<g>
		<g>
			<g>
				<path d="M16.9,73.8c-2.6,2.6-2.6,6.7,0,9.3c1.3,1.3,3,1.9,4.6,1.9s3.4-0.6,4.6-1.9l21.5-21.5l-9.3-9.3L16.9,73.8z"/>
				<polygon points="70.7,33.9 80.1,29.1 85,19.6 80.4,15 70.9,19.9 66.1,29.3 54.7,40.7 59.3,45.3 				"/>
				<path d="M72.8,58.8l-0.9-0.1c-1.6,0-3.1,0.3-4.5,0.9L40.4,32.6c0.5-1.4,0.9-2.9,0.9-4.5l-0.1-0.9c-0.5-6.8-6.1-12.2-13-12.2
					c-2,0-3.9,0.5-5.6,1.3l8.7,8.7c0.5,0.5,0.8,1,1,1.6c0.6,1.5,0.3,3.4-1,4.6c-0.9,0.9-2,1.3-3.1,1.3c-0.5,0-1-0.1-1.5-0.3
					c-0.6-0.2-1.1-0.5-1.6-1l-8.7-8.7c-0.8,1.7-1.3,3.6-1.3,5.6c0,6.9,5.4,12.6,12.2,13l0.9,0.1c1.6,0,3.1-0.3,4.5-0.8l26.9,26.9
					c-0.5,1.4-0.8,2.9-0.8,4.5l0.1,0.9c0.5,6.8,6.1,12.2,13,12.2c2,0,3.9-0.5,5.6-1.3l-8.7-8.7c-0.5-0.5-0.8-1-1-1.6
					c-0.6-1.5-0.3-3.4,1-4.6c0.8-0.9,2-1.3,3.1-1.3c0.5,0,1,0.1,1.5,0.3c0.6,0.2,1.1,0.5,1.6,1l8.7,8.7c0.8-1.7,1.3-3.6,1.3-5.6
					C85,64.9,79.6,59.3,72.8,58.8z"/>
			</g>
		</g>
	</g>
</g>
</svg>
