<?xml version="1.0" encoding="utf-8"?>
<!-- Generator: Adobe Illustrator 22.1.0, SVG Export Plug-In . SVG Version: 6.00 Build 0)  -->
<svg version="1.1" id="Layer_1" xmlns="http://www.w3.org/2000/svg" xmlns:xlink="http://www.w3.org/1999/xlink" x="0px" y="0px"
	 viewBox="0 0 100 100" style="enable-background:new 0 0 100 100;" xml:space="preserve">
<g>
	<path d="M83.8,15H16.2c-0.6,0-1.2,0.5-1.2,1.2v67.7c0,0.6,0.5,1.2,1.2,1.2h67.7c0.6,0,1.2-0.5,1.2-1.2V16.2
		C85,15.5,84.5,15,83.8,15z M36.8,74.3L32.4,72L28,74.3l0.8-4.9L25.3,66l4.9-0.7l2.2-4.4l2.2,4.4l4.9,0.7L36,69.4L36.8,74.3z
		 M36,51.4l0.8,4.9L32.4,54L28,56.3l0.8-4.9l-3.5-3.5l4.9-0.7l2.2-4.4l2.2,4.4l4.9,0.7L36,51.4z M36,33.8l0.8,4.9l-4.4-2.3L28,38.7
		l0.8-4.9l-3.5-3.5l4.9-0.7l2.2-4.4l2.2,4.4l4.9,0.7L36,33.8z M69.8,71h-28v-4.7h28V71z M69.8,53.5h-28v-4.7h28V53.5z M69.8,36h-28
		v-4.7h28V36z"/>
</g>
</svg>
