<?xml version="1.0" encoding="utf-8"?>
<!-- Generator: Adobe Illustrator 22.1.0, SVG Export Plug-In . SVG Version: 6.00 Build 0)  -->
<svg version="1.1" id="Layer_1" xmlns="http://www.w3.org/2000/svg" xmlns:xlink="http://www.w3.org/1999/xlink" x="0px" y="0px"
	 viewBox="0 0 100 100" style="enable-background:new 0 0 100 100;" xml:space="preserve">
<g>
	<g>
		<path d="M50,20.5c-16.3,0-29.5,13.2-29.5,29.5c0,11.7,6.9,21.9,16.8,26.6l0.9-17.9c0,0-1.7-0.6-2.1-0.8c-3.7-1.6-6.4-6.4-6.4-12.6
			c0-6.8,5.3-12.6,10.3-12.7c0,0,0,0,0,0c0,0,0,0,0,0c5.1,0,10.3,5.9,10.3,12.7c0,6.2-2.7,11-6.4,12.6c0,0-2.1,0.8-2.1,0.8l1,19.9
			c2.3,0.6,4.6,0.9,7.1,0.9c3.3,0,6.4-0.6,9.4-1.5l0.9-17.7c-2.4-0.5-4.5-2.1-5.8-4c-1.6-2.4,1.2-23.5,1.2-23.5h1.8v19.9h1.8V32.7h2
			v19.9h1.8V32.7h2.1v19.9h1.8V32.7h1.4c0,0,2.8,21.2,1.2,23.5c-1.3,1.9-3.3,3.4-5.7,4c0,0-0.1,0-0.1,0l0.8,15.2
			c8.8-5.1,14.7-14.6,14.7-25.5C79.5,33.7,66.3,20.5,50,20.5z"/>
		<path d="M34.1,42.4c0.1-0.4,0.2-0.8,0.3-0.8c0-0.2,0-0.3-0.2-0.4c-0.2-0.1-0.4,0-0.5,0.1c0,0-0.2,0.3-0.5,0.8
			c-0.2,0.4-0.6,1.1-0.8,1.9c-0.2,0.7-0.5,1.7-0.6,2.7c0,0.6-0.1,1.1,0,1.6c0,0.6,0.1,1.1,0.3,1.7c0.6,1.6,1,3.2,2.6,4.8
			c0.5,0.5,1,0.9,1.4,1.1l0.1,0.1c0.1,0.1,0.2,0.1,0.2,0.1c0.3,0.2,0.5,0.2,0.6,0.2c0.2,0,0.3,0,0.4-0.2c0.1-0.1,0-0.3-0.1-0.4
			c0,0-0.2-0.2-0.4-0.5c-0.2-0.2-0.3-0.4-0.5-0.7c-0.1-0.2-0.3-0.4-0.5-0.7C35,52.7,34.6,51,34,49.3c-0.1-0.4-0.2-0.9-0.3-1.3
			c-0.1-0.5-0.1-0.9-0.1-1.3c0-1,0-1.8,0.1-2.5C33.8,43.4,33.9,42.8,34.1,42.4z"/>
		<path d="M50,15c-19.3,0-35,15.7-35,35c0,19.3,15.7,35,35,35s35-15.7,35-35C85,30.7,69.3,15,50,15z M50,82.4
			c-17.9,0-32.4-14.5-32.4-32.4c0-17.9,14.5-32.4,32.4-32.4c17.9,0,32.4,14.5,32.4,32.4C82.4,67.9,67.9,82.4,50,82.4z"/>
	</g>
</g>
</svg>
