<?xml version="1.0" encoding="utf-8"?>
<!-- Generator: Adobe Illustrator 22.1.0, SVG Export Plug-In . SVG Version: 6.00 Build 0)  -->
<svg version="1.1" id="Layer_1" xmlns="http://www.w3.org/2000/svg" xmlns:xlink="http://www.w3.org/1999/xlink" x="0px" y="0px"
	 viewBox="0 0 100 100" style="enable-background:new 0 0 100 100;" xml:space="preserve">
<g>
	<g>
		<path d="M32.8,80.3H46V66.8h8v13.5h13.2V19.7H32.8V80.3z M52.4,26.8h8v8h-8V26.8z M52.4,39.6h8v8h-8V39.6z M52.4,52.4h8v8h-8V52.4
			z M39.6,26.8h8v8h-8V26.8z M39.6,39.6h8v8h-8V39.6z M39.6,52.4h8v8h-8V52.4z"/>
		<path d="M70.3,25.1V68h5.1v12.3h12.1V25.1H70.3z M81.3,62.2H74v-7.2h7.3V62.2L81.3,62.2z M81.3,50.5H74v-7.3h7.3V50.5L81.3,50.5z
			 M81.3,38.9H74v-7.3h7.3V38.9L81.3,38.9z"/>
		<path d="M12.5,80.3h12.1V68h5.1V25.1H12.5V80.3z M18.7,31.6H26v7.2h-7.3V31.6z M18.7,43.3H26v7.3h-7.3V43.3z M18.7,54.9H26v7.3
			h-7.3V54.9z"/>
	</g>
</g>
</svg>
