<?xml version="1.0" encoding="utf-8"?>
<!-- Generator: Adobe Illustrator 22.1.0, SVG Export Plug-In . SVG Version: 6.00 Build 0)  -->
<svg version="1.1" id="Layer_1" xmlns="http://www.w3.org/2000/svg" xmlns:xlink="http://www.w3.org/1999/xlink" x="0px" y="0px"
	 viewBox="0 0 100 100" style="enable-background:new 0 0 100 100;" xml:space="preserve">
<g>
	<g>
		<path d="M76.5,23.5c-7.1-7.1-16.5-11-26.5-11s-19.4,3.9-26.5,11c-7.1,7.1-11,16.5-11,26.5s3.9,19.4,11,26.5s16.5,11,26.5,11
			s19.4-3.9,26.5-11s11-16.5,11-26.5S83.6,30.6,76.5,23.5z M52.4,66.3h-0.2v4.9c0,1.2-1,2.2-2.2,2.2c-1.2,0-2.2-1-2.2-2.2v-4.9h-4.9
			c-1.2,0-2.2-1-2.2-2.2s1-2.2,2.2-2.2h9.4c2.7,0,4.9-2.2,4.9-4.9s-2.2-4.9-4.9-4.9h-4.7c-5.1,0-9.3-4.2-9.3-9.3
			c0-5.1,4.2-9.3,9.3-9.3h0.2v-4.9c0-1.2,1-2.2,2.2-2.2c1.2,0,2.2,1,2.2,2.2v4.9h4.9c1.2,0,2.2,1,2.2,2.2c0,1.2-1,2.2-2.2,2.2h-9.4
			c-2.7,0-4.9,2.2-4.9,4.9s2.2,4.9,4.9,4.9h4.7c5.1,0,9.3,4.2,9.3,9.3S57.5,66.3,52.4,66.3z"/>
	</g>
</g>
</svg>
