<?xml version="1.0" encoding="utf-8"?>
<!-- Generator: Adobe Illustrator 22.1.0, SVG Export Plug-In . SVG Version: 6.00 Build 0)  -->
<svg version="1.1" id="Layer_1" xmlns="http://www.w3.org/2000/svg" xmlns:xlink="http://www.w3.org/1999/xlink" x="0px" y="0px"
	 viewBox="0 0 100 100" style="enable-background:new 0 0 100 100;" xml:space="preserve">
<g>
	<path d="M78.6,49.7c-0.3,1.7-1.8,2.9-3.6,3c-0.6,0-1,0.4-1.2,1c-0.1,0.6,0.2,1.1,0.7,1.4c1.6,0.8,2.5,2.5,2.2,4.1l-0.3,1.6
		c-0.4,2.1-2.8,3.4-4.8,2.9c-0.6-0.1-1.2-0.2-1.7-0.4c-0.9-0.2-1.7-0.3-2.6-0.5c-1.1-0.2-2.3-0.4-3.4-0.7c-1.3-0.3-2.7-0.5-4-0.8
		c-1.5-0.3-3-0.6-4.5-0.9c-1.6-0.3-3.2-0.6-4.8-1c-1.6-0.3-3.3-0.7-4.9-1c-1.6-0.3-3.3-0.7-4.9-1c-1.6-0.3-3.1-0.6-4.7-0.9
		c-1.4-0.3-2.8-0.6-4.3-0.9c-1.2-0.2-2.5-0.5-3.7-0.7c-1-0.2-2-0.4-3-0.6c-0.7-0.1-1.4-0.3-2-0.4c-0.3-0.1-0.6-0.1-0.9-0.2
		c0,0,0,0,0,0c0.2,0.8,0.1,1.6-0.3,2.4c-0.8,1.7-2.6,2.5-4.3,2.2c-0.5-0.1-1.1,0.1-1.3,0.6l-0.7,1.5c-0.2,0.5,0,1,0.4,1.3
		c0.1,0.1,55,25.4,55.1,25.4c0.5,0.1,1.1-0.1,1.3-0.6l0.7-1.5c0.2-0.5,0-1-0.4-1.3c-1.4-1.1-1.9-3-1.1-4.7c0.8-1.7,2.6-2.5,4.3-2.2
		c0.5,0.1,1.1-0.1,1.3-0.6l0.7-1.5c0.2-0.5,0-1-0.4-1.3c-1.4-1.1-1.9-3-1.1-4.7c0.8-1.7,2.6-2.5,4.3-2.2c0.5,0.1,1.1-0.1,1.3-0.6
		l0.7-1.5c0.2-0.5,0-1-0.4-1.3c-1.4-1.1-1.9-3-1.1-4.7c0.8-1.7,2.6-2.5,4.3-2.2c0.5,0.1,1.1-0.1,1.3-0.6l0.8-1.6
		c0.2-0.5,0-1-0.5-1.2l-8.2-3.8L78.6,49.7z"/>
	<path d="M13.2,49.2c0.1,0,59.3,11.9,59.4,11.9c0.5,0,1-0.3,1.1-0.8l0.3-1.6c0.1-0.5-0.2-1-0.7-1.2c-1.6-0.7-2.5-2.5-2.2-4.3
		c0.4-1.8,1.9-3.1,3.7-3.1c0.5,0,1-0.3,1.1-0.8l0.2-1.2l0.1-0.4c0.1-0.5-0.2-1-0.7-1.2c-1.6-0.7-2.5-2.5-2.2-4.3
		c0.4-1.8,1.9-3.1,3.7-3.1c0.5,0,1-0.3,1.1-0.8l0.3-1.6c0.1-0.5-0.2-1-0.7-1.2c-1.6-0.7-2.5-2.5-2.2-4.3c0.4-1.8,1.9-3.1,3.7-3.1
		c0.5,0,1-0.3,1.1-0.8l0.4-1.8c0.1-0.5-0.2-1-0.7-1.1c0,0-59.5-11.9-59.6-11.9c-0.4,0-0.8,0.3-0.9,0.8l-0.4,1.8
		c-0.1,0.5,0.2,1,0.7,1.2c1.6,0.7,2.5,2.5,2.2,4.3c-0.4,1.8-1.9,3.1-3.7,3.1c-0.5,0-1,0.3-1.1,0.8L17,25.8c-0.1,0.5,0.2,1,0.7,1.2
		c1.6,0.7,2.5,2.5,2.2,4.3c-0.4,1.8-1.9,3.1-3.7,3.1c-0.5,0-1,0.3-1.1,0.8l-0.3,1.6c-0.1,0.5,0.2,1,0.7,1.2c1.6,0.7,2.5,2.5,2.2,4.3
		c-0.4,1.8-1.9,3.1-3.7,3.1c-0.5,0-1,0.3-1.1,0.8l-0.3,1.6C12.4,48.5,12.7,48.9,13.2,49.2z M64,29.6c0.2-1,1.2-1.7,2.2-1.5
		c1,0.2,1.7,1.2,1.5,2.2l-2.5,12.5l-1.5,7.7c-0.2,0.9-1,1.5-1.9,1.5c-0.1,0-0.2,0-0.4,0c-1-0.2-1.7-1.2-1.5-2.2l1.7-8.6L64,29.6z
		 M29.6,22.7c0.2-1,1.2-1.7,2.2-1.5c1,0.2,1.7,1.2,1.5,2.2l-0.9,4.3l-1,4.9l-0.8,3.9l-1.4,7.1c-0.2,0.9-1,1.5-1.9,1.5
		c-0.1,0-0.3,0-0.4,0c-0.1,0-0.1,0-0.2,0c-0.9-0.3-1.5-1.2-1.3-2.2l0.3-1.4l0.7-3.7L29.6,22.7z"/>
</g>
</svg>
